<?xml version="1.0" encoding="UTF-8" standalone="no"?>
<svg
   width="38.97357940673828"
   height="18.0"
   version="1.1"
   id="svg10"
   sodipodi:docname="aapehti.svg"
   inkscape:version="1.1.1 (3bf5ae0d25, 2021-09-20)"
   xmlns:inkscape="http://www.inkscape.org/namespaces/inkscape"
   xmlns:sodipodi="http://sodipodi.sourceforge.net/DTD/sodipodi-0.dtd"
   xmlns="http://www.w3.org/2000/svg"
   xmlns:svg="http://www.w3.org/2000/svg">
  <defs
     id="defs14" />
  <sodipodi:namedview
     id="namedview12"
     pagecolor="#ffffff"
     bordercolor="#666666"
     borderopacity="1.0"
     inkscape:pageshadow="2"
     inkscape:pageopacity="0.0"
     inkscape:pagecheckerboard="0"
     showgrid="false"
     inkscape:zoom="35.280311"
     inkscape:cx="19.48679"
     inkscape:cy="8.9993538"
     inkscape:window-width="1920"
     inkscape:window-height="1001"
     inkscape:window-x="-9"
     inkscape:window-y="-9"
     inkscape:window-maximized="1"
     inkscape:current-layer="svg10" />
  <path
     d="M 5.454143572319105 0.38638405261740716 C 5.6751986350969625 0.38638405261740716 6.0198472107908465 0.43846304248784007 6.211377729173311 0.48978353459751095 C 7.043040107707465 0.7126268987793605 6.2060781548689725 1.4576656313354053 5.670499150679329 1.4576656313354053 C 5.645675310396461 1.4576656313354053 5.621499128101075 1.4560650867138016 5.598166364823283 1.4527377590493051 L 5.598166364823283 1.4527377590493051 C 5.2452836289156854 1.5270191599566676 5.657208135444718 1.6516913405425198 6.100369028149615 1.6516913405425198 C 6.371794440716527 1.6516913405425198 6.654937462107786 1.6049233596160355 6.781255773411818 1.4711656717820771 C 6.852830518892686 1.3953753558318478 6.912108910323108 1.3639720239176871 6.9629476229505665 1.3639720239176871 C 7.148321731367289 1.3639720239176871 7.221486349139459 1.7814996563172263 7.369436559194839 1.9870992028133305 C 8.109766964545285 2.2320299455576382 8.572153297980249 2.899799787031018 9.050509706479392 3.4727819547688448 C 10.427930052921685 5.122675736613722 11.668260962471539 6.8783423742360466 12.967744634877972 8.588242400437956 C 12.611392476850998 8.48312787497829 12.224502817821092 8.278009345655091 11.870752268998066 8.107222788142833 C 10.250106465731893 7.324793393911243 8.524267466685542 6.706575791878325 7.056547618785348 5.653163124478057 C 6.324634327882369 5.1278539512763395 5.345499249842926 4.51876911966858 5.264370024428102 3.5973664697843573 C 5.202570523656583 2.8954927394447814 6.490844590161053 2.259560441267 6.397605624014208 1.8800112110189322 C 6.386753388715507 1.8358343194279554 6.355336487695676 1.8161086513304385 6.30878866169714 1.8161086513304385 C 6.033909073196996 1.8161086513304385 5.231366300354198 2.503995530499702 5.02003007139695 2.906660570796704 C 4.938768814010101 3.0614904698885916 4.879530977434828 3.123278383558639 4.83783143863071 3.123278383558639 C 4.6918117006651325 3.123278383558639 4.760840637983347 2.365644014318102 4.852316840087996 2.1923293342191177 C 5.162809689882786 1.604057223781083 4.223751651517808 0.8679923201596249 4.752486337822802 0.5290855725147102 L 4.752486337822802 0.5290855725147102 C 4.736400696667635 0.6173537864769199 4.7540868824444065 0.8663049485079197 5.0637960782712925 0.8663049485079197 C 5.3886697406864075 0.8663049485079197 5.369079611183729 0.4656883095505593 5.2689176568317215 0.41293273205443365 C 5.301349953848873 0.39420801419286505 5.36846244556854 0.38638405261740716 5.454143572319105 0.38638405261740716 ZM 6.069788227978029 5.863214709790646 C 6.323975692640863 6.762449405018629 6.696283899240764 7.629413412802606 7.135400893532303 8.452206779931927 C 7.351771108231227 8.857629702840873 8.265934259085897 9.502025616333867 7.620163139602537 9.830196723888633 C 7.602866036496212 9.834973658931888 7.585570762932224 9.837214848295345 7.568255974249969 9.837214848295345 C 7.310987560290759 9.837214848295345 7.049406915042022 9.342463910909716 6.712954689020212 9.320119100494184 C 6.67903192484543 8.693869197752123 6.575001708144468 8.06546836306859 6.448145511393205 7.446592735641611 C 6.344633665021206 6.9416012399454585 6.088178787554743 6.271072143703381 6.069788227978029 5.863214709790646 ZM 6.774795659418047 6.459697958701316 L 6.774795659418047 6.459697958701316 C 7.569842797304042 7.0356641099916315 8.405933278142431 7.553192239631892 9.246634815518807 8.060175497086155 C 9.468879080816052 8.556551677914943 9.280516719914718 9.282423820019444 9.395827284821362 9.864688475730382 C 8.857778398476073 9.501763991779603 8.28369911518318 9.486578790378216 7.938584616040677 8.798798329588251 C 7.554208138335073 8.032772611954833 6.9204552824668575 7.305266688542932 6.774795659418047 6.459697958701316 ZM 7.000934410504418 10.059063322600238 C 7.135474685073249 10.295082212156643 7.336466376730457 10.443322709596242 7.539293099352194 10.443322709596242 C 7.698827361641281 10.443322709596242 7.8594965500270755 10.351611411301223 7.9898569302021265 10.138767334534139 C 8.175012103385795 10.34420664361385 8.218963808807393 11.064965824732438 8.219863943637453 11.464443954739346 C 8.22078908221279 11.875067656666406 8.005229354769385 11.909575264541749 7.754371047313386 11.909575264541749 C 7.7036902851744005 11.909575264541749 7.6515684535208965 11.908167736636754 7.599499678595182 11.908167736636754 C 7.503209645676805 11.908167736636754 7.407101347297289 11.912984311763987 7.320625589324795 11.940433545301191 C 7.276695228563797 11.95437831699774 7.230527337524019 11.959987693804566 7.182692123567317 11.959987693804566 C 6.98565285320659 11.959987693804566 6.760333737087427 11.864796605983589 6.546653559472097 11.864796605983589 C 6.526873767413762 11.864796605983589 6.507193990336545 11.865612581866122 6.487645330460182 11.867394556102862 C 6.488004530605782 11.347772820181039 6.847494963589043 10.641789022980232 7.000934410504418 10.059063322600238 ZM 8.603951963501176 7.092214653796816 C 10.294832067562263 7.858253788074042 11.963344187004877 8.682241846349761 13.658331003766241 9.443264375537517 C 14.306199998463287 10.121921518537734 14.89692628748524 10.890737288235863 15.617332976780133 11.491755362753791 C 16.156479588527933 11.941553225211752 15.463364792129216 11.850415183515821 15.144459706666524 11.910077778837119 C 14.899576684484854 11.955893178053204 14.652335992077571 11.9891323032412 14.405890540739662 12.026157361372965 C 13.536195636093217 11.155342776815962 12.661034058942274 10.288166542120832 11.825686982140361 9.38497027788468 C 10.917455817391367 8.402968916849794 9.68127857879512 7.847318613522707 8.603951963501176 7.092214653796816 ZM 8.091606927303099 12.784580720746556 C 9.197498187112684 12.784580720746556 10.303223568417005 12.797552175919549 11.407920746927639 12.826530906850914 C 11.963618618355504 12.841107480501353 12.604689033726338 12.804320262873466 13.102683139828937 12.991104338584968 C 12.444715071428801 13.03259835879984 10.798614845620763 13.0486666193028 9.061392434150386 13.0486666193028 C 7.040896493935342 13.0486666193028 4.8971381879673626 13.026930436638214 4.041370674365262 12.998177349261805 C 4.035477718496122 12.998220038583016 4.0297003287179685 12.998241993091064 4.024036980412186 12.998241993091064 C 3.5148780921948943 12.998241993091064 3.9273603042131473 12.826321119329545 4.211845294908974 12.826321119329545 C 4.238601131900259 12.826321119329545 4.264224787108344 12.827842078859469 4.287843263914512 12.831169406523964 C 5.555116623774078 12.801636934111775 6.823471243155116 12.784580720746556 8.091606927303099 12.784580720746556 ZM 3.229631402039215 13.527964022410872 C 3.9800867996092 13.538300936617839 4.730666606058136 13.547631602539173 5.48073658004235 13.573154937842418 C 5.974628852224238 13.589961113754843 6.468692491538405 13.596169360753482 6.962812846665035 13.596169360753482 C 8.360743582405776 13.596169360753482 9.759126824951332 13.546476551476754 11.155349987843726 13.546476551476754 C 11.342591449139606 13.546476551476754 11.529792660504063 13.547370587832354 11.716949962852416 13.549397720742322 C 10.555885804617795 14.183214610592351 9.295635447944509 14.718425266924708 7.950956591174409 14.762796547389044 C 7.799163122515353 14.767805834309163 7.651256821476073 14.770698950592223 7.506199727703753 14.770698950592223 C 6.745573599355791 14.770698950592223 6.06331774657768 14.691151669451905 5.310047598121426 14.420004957167741 C 4.653584023370175 14.183703708243913 3.8042879059395918 13.89691074988931 3.229631402039215 13.527964022410872 ZM 9.878584352489678 15.08641697330296 C 9.849530000475026 15.08641697330296 9.823518177367665 15.092904530431793 9.801197760849965 15.106699279656667 C 9.544953890599764 15.265069343171648 10.169278504955312 16.43707782366929 10.695870187335629 16.718978585813375 C 10.73537854426685 16.740128095235065 10.774061167756402 16.749551457968167 10.810766665826547 16.749551457968167 C 11.003336974104167 16.749551457968167 11.141447905468382 16.490179680168257 11.058481819546692 16.304211580339288 C 10.844383896430964 15.824310428259835 10.18845698743205 15.08641697330296 9.878584352489678 15.08641697330296 ZM 5.031377807745396 15.140798289743296 C 4.989399568658528 15.140798289743296 4.926357808639836 15.166799745444079 4.836820006641786 15.226750188759814 C 4.404607095284589 15.5161398775388 3.394055116225315 16.294390597071498 4.0142925329988515 16.722726708215504 C 4.056939164886357 16.752178680764843 4.100021532773916 16.765133060209347 4.142866670005041 16.765133060209347 C 4.367006341163952 16.765133060209347 4.58465113702468 16.41059092940162 4.699421682018032 16.208593599306226 C 4.818436155386976 15.999129297083979 5.2725627150155 15.140798289743296 5.031377807745396 15.140798289743296 ZM 9.090395558979587 15.318185836009313 C 8.817462603526561 15.318185836009313 9.117006862126209 16.79410813205604 9.59252321107008 17.108873573056375 C 9.624085865629468 17.129766946550816 9.662353183008404 17.139328134806675 9.7019237443791 17.139328134806675 C 9.808466532556917 17.139328134806675 9.924459516755453 17.07001409380753 9.944487516724246 16.965927771141548 C 10.06708575860866 16.328790871796375 9.471438610546237 15.35620982425736 9.098430299078512 15.3185980928827 C 9.095698792368601 15.318322441837182 9.093020952233923 15.318185836009313 9.090395558979587 15.318185836009313 ZM 5.813290051342912 15.334595611081944 C 5.762056157570551 15.334595611081944 5.6837980939307355 15.397157421160761 5.569301065516842 15.551481756720047 C 5.266789289245744 15.95922088022829 4.5258087865180325 16.80730645047888 5.132767994853322 17.12234144405028 C 5.172965479398338 17.143205544867318 5.210868717852111 17.152645983328902 5.2466228539067465 17.152645983328902 C 5.501107314275703 17.152645983328902 5.646734005562437 16.67436092698092 5.736180330443612 16.43252348294377 C 5.81843167515878 16.21013773303909 6.004955346010909 15.334595611081944 5.813290051342912 15.334595611081944 ZM 8.084197280836158 15.497188258311914 C 8.061304827414261 15.497188258311914 8.040999346857612 15.508953435237036 8.024002288694641 15.534490187184089 C 7.779368084270872 15.902031826147313 7.859889291782196 17.025052481015617 8.44457443200567 17.350611002112412 C 8.477321410304873 17.36884544074299 8.5095817303423 17.37699910109386 8.54061320777636 17.37699910109386 C 8.712565793605062 17.37699910109386 8.846783458875045 17.126639648848553 8.816920449147212 16.95369179198824 C 8.746119600075112 16.543659642083643 8.300101572086461 15.497188258311914 8.084197280836158 15.497188258311914 ZM 6.75532262062497 15.485684096093609 C 6.738393255528486 15.485684096093609 6.719172693577984 15.49322303021907 6.697420045032361 15.509370570889988 C 6.3057388146205 15.800128757337436 5.679560264029602 16.97476811971643 6.318469380052385 17.354321313972893 C 6.352644621069744 17.374624355139762 6.386393578722462 17.383708642692973 6.419196662986684 17.383708642692973 C 6.610484462085705 17.383708642692973 6.7696040281116225 17.07479041900334 6.793552127462265 16.88013443246095 C 6.834695485395779 16.54571360828123 6.956077691473192 15.485684096093609 6.75532262062497 15.485684096093609 ZM 7.409580377164622 15.468416875512132 C 7.39733464045218 15.468416875512132 7.384780930779589 15.471718589583901 7.371922907231523 15.478607426332097 C 7.04806464081373 15.652117562537471 6.752394743037498 17.05085024766949 7.3581062034986005 17.423058439288273 C 7.389001684952238 17.442042990277237 7.419877041440165 17.450504013740805 7.449994967400358 17.450504013740805 C 7.6143226306137395 17.450504013740805 7.756113991313593 17.19863701860939 7.755634651221164 17.030030055868558 C 7.75432652844984 16.56993308974527 7.633263882434045 15.468416875512132 7.409580377164622 15.468416875512132 ZM 5.632034852575385 0.0 C 5.427092569164034 0.0 5.224417088708866 0.019432907972482025 5.033733343504948 0.05443384431604181 C 4.467006076095366 0.1584592489395021 3.5938344311601953 0.3646307561088724 3.603155949369841 1.0504667564332457 C 3.67258220229902 1.0309202310229437 3.7366997332121716 1.0218254998322194 3.7957738257482365 1.0218254998322194 C 4.346064179873848 1.0218254998322194 4.458737154577238 1.8110103266832265 4.348558760851052 2.292443415546627 C 4.124233391144884 3.272651977552607 4.609814357411156 4.257232688359666 5.247062553915197 4.998988307191039 C 5.671593826844609 6.267997902728908 6.207430796503842 7.594017867046124 6.200945678764793 8.927216345648308 C 6.198242225037389 9.48290994814405 6.608764082440994 9.519405658692827 6.457257851928928 10.084834255966495 C 6.320555668164599 10.595013723884398 6.084080612718707 11.65061086483566 5.574068852848409 11.775453955168208 C 5.5141812238195955 11.78026809090566 5.453413584926436 11.78228912534117 5.392016583469171 11.78228912534117 C 5.069385635036129 11.78228912534117 4.729385926421875 11.726455152284846 4.408483590574062 11.726455152284846 C 4.153773486650145 11.726455152284846 3.9110950629851815 11.761631152960828 3.698682758209751 11.887824445538461 C 3.254193922691541 12.151893268366223 2.920155472860361 12.347759192241154 2.3871648136927193 12.347759192241154 C 2.364082850177029 12.347759192241154 2.3406278124863467 12.34739206407876 2.31677439195167 12.346646830499944 C 2.290907712536418 12.345839392481654 2.2648745447684524 12.34543567347251 2.2387011120879436 12.34543567347251 C 1.3440312774539256 12.34543567347251 0.28566830681618954 12.817335627062558 0.12083169732265768 13.756412875622079 C -0.12329519978597013 15.147207786399061 0.07662177391650889 16.583104574880497 0.08494513861247754 17.989033459873415 C 0.2900051035231433 17.99360365663253 0.4966322048500206 17.999999736644487 0.702869308735284 17.999999736644487 C 0.8657836504929329 17.999999736644487 1.0284545868887616 17.996007675264025 1.1899174917253144 17.98397172607295 C 1.1137838316630781 17.140422201124508 1.057380489785133 16.29003262722354 1.1114740344619638 15.445312195179083 C 1.150002671471443 14.84365012175835 0.997819586525427 14.00504767929055 1.5763723295263372 13.66371240476991 C 1.7040717928333333 13.58837307100588 1.83171911418371 13.55691470035973 1.9589124041106598 13.55691470035973 C 2.4652981635298614 13.55691470035973 2.9644861984695505 14.055524752382627 3.4311076174921418 14.268706684634704 C 4.73678032670267 14.865220425917668 6.127831678330627 15.305327812461249 7.577851313962796 15.305327812461249 C 7.611054458151489 15.305327812461249 7.644288094712474 15.305097290126723 7.677552223645749 15.304632586372993 C 9.433900060865076 15.280083787288198 11.05346399476233 14.553760358073777 12.55629032072968 13.72891485428921 C 12.670762345398295 13.628126586610326 12.818380798443139 13.581008553249928 12.96633954636276 13.581008553249928 C 13.24669495507909 13.581008553249928 13.528272498076879 13.750179015030715 13.587881426822944 14.043930332742338 C 13.850096313415355 15.336104373662948 13.742097209536873 16.675576962787922 13.65541349358535 17.983352121067977 C 13.812261377875515 17.996239417293445 13.969778874661216 17.999448434553447 14.127512257442742 17.999448434553447 C 14.284036922586616 17.999448434553447 14.44077381464164 17.99628820508911 14.597282623751921 17.99628820508911 C 14.650358866658163 17.99628820508911 14.703408276276786 17.99665167416683 14.7564149965742 17.99762499069039 C 14.763825862736033 17.086932481649992 14.844901421575624 16.174760482705985 14.803086621604242 15.264876631378764 C 14.769945072007578 14.543717390335702 14.910211204245392 13.715322574416355 14.386286384745727 13.121748297822336 C 13.705550271802647 12.350515702696345 12.623079593303054 12.361563699025162 11.682409423214999 12.296510052282647 C 11.644045140092175 12.293857215893247 11.604677048073496 12.292852187302506 11.564630805695048 12.292852187302506 C 11.439513284011872 12.292852187302506 11.307763061507753 12.302662193316268 11.179225515348314 12.302662193316268 C 11.022081245199468 12.302662193316268 10.869737694144266 12.28799902132852 10.740179263360492 12.222823405096838 C 10.44570344688321 11.920581791244247 10.080689625582988 11.8638281682396 9.700766253926899 11.8638281682396 C 9.472275931089374 11.8638281682396 9.238393337135744 11.88435563326653 9.011219065086339 11.88435563326653 C 8.936831703185263 11.88435563326653 8.863163961270274 11.882155303681946 8.79064029316368 11.876311745455919 C 8.748275410796152 11.287905316117937 8.716179749569102 10.698756092590925 8.6841725162217 10.109697736333342 C 8.716601154154176 10.078576001477298 8.754075060006079 10.064937373198559 8.795398322936116 10.064937373198559 C 9.088549550761034 10.064937373198559 9.575443823501919 10.751298109134611 9.829342220475425 10.751298109134611 C 9.9047779101359 10.751298109134611 9.959645884838014 10.690709765390528 9.982754224255737 10.533531343784716 C 10.077034809840075 9.89225845906186 9.828121305888857 9.191179055020491 9.837226938102676 8.515557122758214 C 9.842454550408405 8.515291839119273 9.84775473456019 8.515160721918418 9.8531244413208 8.515160721918418 C 10.13787319103695 8.515160721918418 10.618515917610546 8.883683605421998 10.906077283746905 9.132975214789639 C 11.80432402611263 9.911679050974598 12.57521510666895 10.850011675802751 13.418602412196801 11.698699775329832 C 13.753165940678848 12.0785896053764 14.10034965220508 12.50165297550368 14.581990089200067 12.50165297550368 C 14.7115546184583 12.50165297550368 14.850847434172552 12.471038633722571 15.00224206260203 12.400734200471387 C 15.482807948397447 12.177569065530927 16.501952068121145 12.466298899373513 16.611020844419624 11.85703812677763 C 16.148715010847514 11.316222972418016 15.616514561507817 10.838956361304586 15.141690999262417 10.30954047540259 L 15.141690999262417 10.30954047540259 C 15.720475255599954 10.584491416053895 16.284632930796494 10.987831100087856 16.88805136486124 11.251485226652445 C 17.013493325385603 11.306294655999759 17.089085135992214 11.329256632030482 17.12721035891627 11.329256632030482 C 17.308927822047742 11.329256632030482 16.63947510654757 10.807612641978256 16.459826245952385 10.726662711712507 C 15.79457415965915 10.42689585879513 17.084456393878295 10.539115106998816 16.55768114741678 10.121722708270392 C 15.402974038957586 9.206783221617167 14.091566629290112 8.473895394495738 12.859382061921773 7.648877913731442 C 12.06805133437072 6.650734500652652 11.353425998862377 5.582082965275763 10.559610752816978 4.581358372882461 C 9.89897704123108 3.80707897991706 9.337823474552744 2.944969967649405 8.617586932695238 2.225430481422494 C 8.174952338336102 1.7832239999703352 7.524531741925666 1.6598222840760268 7.480633703079299 0.9374621771811809 C 7.138186066817449 0.2522410174286094 6.370398499913002 0.0 5.632034852575385 0.0 Z"
     style="fill:#ffffff;stroke:none"
     id="path2" />
  <path
     d="M 38.36272706010804 1.541961914879826 C 38.36273233709932 1.541961914879826 38.362608327804466 1.5420991166528528 38.36234183974531 1.5423761586945417 L 38.36234183974531 1.5423761586945417 C 38.362336562754045 1.542381435685812 38.362329966514956 1.5423880319249 38.36232468952369 1.5423933089161703 L 38.36232468952369 1.5423933089161703 C 38.362583262095924 1.5421057128919409 38.36272178311677 1.541961914879826 38.36272706010804 1.541961914879826 ZM 38.35648042169187 1.7658923586813184 C 38.356525276117665 1.7659438093462034 38.35657013054346 1.7659952600110886 38.35661498496926 1.7660467106759736 L 38.35661498496926 1.7660467106759736 C 38.3568656420546 1.7663356259480207 38.356980416614725 1.7664794239601354 38.35697382037564 1.7664794239601354 C 38.356967224136554 1.7664794239601354 38.35679440267245 1.7662828560353179 38.35648042169187 1.7658923586813184 ZM 21.540387161676815 0.9377464144345387 L 21.540387161676815 2.212135848459967 L 21.540387161676815 2.212135848459967 C 21.479600509798775 2.1842456303488014 21.41988624149044 2.1573145054010068 21.361717307094406 2.131064112327076 L 21.361717307094406 2.131064112327076 C 21.229574354729962 2.071430153229634 21.106054995536994 2.0156536747507556 20.988542336563384 1.9578020194548458 L 20.988542336563384 1.9578020194548458 C 20.770620901664927 1.8505181484347328 20.50479617680984 1.8179696662797413 20.31531475655052 1.7923327234409787 L 20.31531475655052 1.7923327234409787 C 20.100114187822804 1.7632182433551118 19.963734842130698 1.7412105512624736 19.874281306215394 1.6971727398642988 L 19.874281306215394 1.6971727398642988 C 19.825963112820137 1.6733840632179464 19.806512040544952 1.6592865810394346 19.806512040544952 1.5749470680624318 C 19.806512040544952 1.4735813427519209 19.811952824677068 1.4256636235222837 20.315316488063278 1.357561412683885 L 20.315316488063278 1.357561412683885 C 20.504797660963632 1.3319257890929401 20.77062172619481 1.2993773069379486 20.988542171657407 1.1920947551656533 L 20.988542666375338 1.1920947551656533 L 20.98854316109327 1.1920947551656533 C 21.10605697440872 1.1342417806219258 21.22957748794353 1.0784639828952298 21.361721924461765 1.018830023797788 L 21.361721924461765 1.018830023797788 C 21.419925324207036 0.9925637997500465 21.479689394120484 0.9655983743589949 21.540387161676815 0.9377464144345387 ZM 22.188824013872896 2.303843360498077 L 22.188824013872896 2.303844679745894 L 22.188823684060942 2.303844679745894 C 22.188823684060942 2.303844679745894 22.188823684060942 2.303844679745894 22.188823684060942 2.303843360498077 ZM 33.9474895722428 0.8421932950082239 C 34.01413401424279 0.8421932950082239 34.0807797754906 0.8425903886013113 34.147429494481855 0.8434056837525672 L 34.147429494481855 0.8434056837525672 C 34.20612151063756 0.8441246738131407 34.264797695819446 0.8451668795890179 34.323460688523156 0.8465468128061922 L 34.323460688523156 0.8465468128061922 C 35.54319368546682 0.8752457298295258 37.55270494237899 1.3295313543040577 38.185036252312244 1.649719395866445 L 38.185036252312244 1.649719395866445 C 37.543639071376674 1.9338207326271286 35.55289147617375 2.274420176422899 34.323460688523156 2.3033473233186714 L 34.323460688523156 2.3033473233186714 L 34.323460688523156 2.3033473233186714 C 34.198055629480955 2.3062984806865674 34.0726690399082 2.30770611810791 33.94728113108763 2.30770611810791 C 32.65229164239091 2.30770611810791 31.357146482451707 2.1574635804043916 30.0395826847247 2.0041722609944777 L 30.0395826847247 2.0041722609944777 C 28.727898774520586 1.8515656312018804 27.393830526971918 1.695949797137415 26.04986066492851 1.695949797137415 C 25.980631816453908 1.695949797137415 25.911376583022957 1.696362721704313 25.842096943507382 1.6972096788031905 L 25.842096943507382 1.6972096788031905 C 24.686668702559253 1.7113427806727766 23.303951542678064 1.8333613305672853 22.188823684060942 2.303843360498077 L 22.188824013872896 2.303843360498077 L 22.188824013872896 0.8460507756267872 L 22.188824013872896 0.8460507756267872 C 23.303951872490018 1.3165354440532138 24.68666936218316 1.4385526746999049 25.842096943507382 1.4526870958173084 L 25.842096943507382 1.4526870958173084 L 25.842096943507382 1.4526870958173084 C 25.911371965655597 1.4535340529161858 25.980621922095278 1.4539469774830842 26.04984549357861 1.4539469774830842 C 27.39381931336547 1.4539469774830842 28.727891518657593 1.2983311434186187 30.039578726981247 1.1457231943782038 C 31.356965745500702 0.9924516636855534 32.65194204171925 0.8421932950082239 33.9474895722428 0.8421932950082239 ZM 21.939128165476408 0.0 L 21.782886513228483 0.08981307217208453 C 21.690986720820963 0.14264103177870263 21.596742625041628 0.1919017452866219 21.50055643156886 0.23925482645034055 L 21.50055643156886 0.23925482645034055 C 21.366960327733366 0.30502592639509996 21.23239309259817 0.3657852038809256 21.094997060330154 0.42778985130653374 L 21.094997060330154 0.42778985130653374 C 20.9647531651991 0.48656629932255746 20.831120946954602 0.5468374551158837 20.70213874745507 0.6103354910709766 L 20.70213874745507 0.6103354910709766 L 20.70213874745507 0.6103354910709766 C 20.598134691415403 0.6615368181185357 20.448237879093075 0.6852331474176585 20.22837888141556 0.7149795472081396 L 20.22837888141556 0.7149795472081396 C 19.929948946749324 0.755355126664751 19.1580753326416 0.8126038857080332 19.1580753326416 1.5749470680624318 C 19.1580753326416 1.9266954751644538 19.336780363730274 2.155313206461759 19.587876150500296 2.278930684711158 L 19.587876150500296 2.278930684711158 C 19.79202393733296 2.379433621948981 20.046610443521637 2.4103238095972914 20.2283764078259 2.434915908164542 L 20.2283764078259 2.434915908164542 C 20.448236889657213 2.4646609887072053 20.598134196697472 2.4883586372541457 20.702138417643113 2.539559964301705 L 20.702138994814035 2.5395612835495225 L 20.702139654437943 2.5395612835495225 C 20.831120452236668 2.603059319504615 20.96475085651542 2.663329156050124 21.094993432398656 2.7221042848183306 L 21.094993432398656 2.7221042848183306 C 21.332570670342985 2.829318235704112 21.56213809516296 2.9331865741245458 21.78288717285239 3.0600810639527793 L 21.939128330382385 3.1498941361248636 L 22.097889251243927 3.064613999453937 C 23.12025848712429 2.5154401564531432 24.567193332645058 2.361290006713994 25.850028261386587 2.345598873171862 L 25.850028261386587 2.345598873171862 L 25.850028261386587 2.345598873171862 C 25.916901592882923 2.344780939524971 25.983767668516265 2.3443812074362484 26.05062912678224 2.3443812074362484 C 27.34924390848164 2.3443812074362484 28.64626108107396 2.4948783599685576 29.9646461105674 2.6482646652213364 L 29.9646461105674 2.6482646652213364 C 31.275118291651083 2.8007314547452715 32.60698867233568 2.956126974424204 33.948455261645265 2.956126974424204 C 34.078455260836044 2.956126974424204 34.20854496887842 2.954667886337975 34.33871383178985 2.9516045929055865 L 34.33871383178985 2.9516045929055865 C 35.62926405158047 2.921239465888667 38.317511160408785 2.5224704280729533 38.82887668020595 1.9927251476814563 L 38.82887668020595 1.9927251476814563 C 38.894219024609995 1.9250358614099556 38.97357705782787 1.8121016519872073 38.97357705782787 1.6588063748338406 C 38.97357705782787 1.516361910979955 38.90459490869516 1.4081321392746475 38.84626964343274 1.3409494441650924 L 38.84626964343274 1.3409494441650924 C 38.357476453794135 0.7779248183276724 35.654733449946406 0.2292549279931893 34.33871383178985 0.1982895432192771 L 34.33871383178985 0.1982895432192771 L 34.33871383178985 0.1982895432192771 C 34.277560099206575 0.19685024385031247 34.216443305562194 0.1957658221442731 34.15536081236106 0.1950178086317131 L 34.15536081236106 0.1950178086317131 C 34.08630478535056 0.19417349002847079 34.017271185552964 0.19376188470939015 33.94826001296826 0.19376188470939015 C 32.60734354999861 0.19376188470939015 31.275295070858633 0.3491428926623289 29.96464149320004 0.5016307901513452 C 28.646253165587055 0.6550184146519414 27.349232694875187 0.8055155671842503 26.05061395543234 0.8055155671842503 C 25.98375777415763 0.8055155671842503 25.916896315891655 0.8051158350955279 25.850028261386587 0.8042979014486369 L 25.850028261386587 0.8042979014486369 C 24.567192673021147 0.7886054486586878 23.120258816936243 0.6344566181673558 22.09788958105588 0.08528013667092732 L 21.939128165476408 0.0 Z"
     style="fill:#ffffff;stroke:none"
     id="path4" />
  <path
     d="M 23.767351453644757 5.401241388497646 Q 23.975753846280433 5.401241388497646 24.199249118696457 5.567266397327256 Q 24.097129215548655 5.559972137072241 24.002303442867074 5.559972137072241 Q 23.464956013257588 5.559972137072241 23.161836870530927 5.7942005537438614 Q 23.446732627661493 5.401241388497646 23.767351453644757 5.401241388497646 ZM 26.225444348068763 6.069763198386431 Q 26.322701497572417 6.491211480758616 26.322701497572417 6.718145637175223 Q 26.322701497572417 6.945079101384905 26.03092935685453 7.107174581293304 L 25.609481247534074 7.00991760484138 Q 25.609481247534074 6.945079101384905 26.225444348068763 6.799193377129423 L 26.20923493851931 6.604678558966919 L 25.852624467396673 6.669516370216471 L 25.852624467396673 6.653307133718746 Q 26.160606017664016 6.491211480758616 26.160606017664016 6.3858497995319645 Q 26.160606017664016 6.280487339572523 25.982301128206164 6.280487339572523 L 26.11197709680873 6.118391773138258 L 26.225444348068763 6.069763198386431 ZM 22.49205952707002 7.089344369230289 Q 22.53290700378429 7.089344369230289 22.578293281302074 7.09096534479558 Q 22.416196763083285 7.3341087377099115 22.262206680156538 7.3341087377099115 Q 22.108215558919404 7.3341087377099115 22.12442496846886 7.220641659501608 Q 22.12442496846886 7.089344369230289 22.49205952707002 7.089344369230289 ZM 25.44738507541875 7.220641659501608 L 25.78778613699193 7.269270234253435 L 25.78778613699193 7.285480336009815 Q 25.398756846770382 7.366528075964014 25.398756846770382 7.463785225467669 Q 25.25287077641144 7.447575815918214 25.220451265105606 7.3341087377099115 Q 25.44738507541875 7.285480336009815 25.44738507541875 7.220641659501608 ZM 22.226315405021207 6.79687759886373 Q 22.17073880326538 6.79687759886373 22.12442496846886 6.799193377129423 Q 21.735395851299046 6.896450526633077 21.735395851299046 7.512413627167765 L 21.735395851299046 7.7555570200820965 L 22.059586984167577 7.7555570200820965 L 22.059586984167577 7.544832965421869 Q 22.198526065832908 7.592469261547522 22.3189939518232 7.592469261547522 Q 22.690436686819126 7.592469261547522 22.886274485465954 7.1395939195474085 L 23.19425638183676 7.155803848252056 Q 23.307723286993333 7.058546179593208 23.226675547039132 6.880241290135354 Q 22.55976913179731 6.79687759886373 22.226315405021207 6.79687759886373 ZM 24.734164479276945 7.512413627167765 L 24.79900315578515 8.04732985300691 Q 25.577061736228238 8.355311057170791 26.225444348068763 9.263046990630293 L 26.33891090712187 8.922645582953653 Q 25.771576727442472 8.371521158927171 24.977308045243007 7.933862601746876 L 24.977308045243007 7.820395696590303 Q 25.560852326678784 8.03111975125053 26.355121008878253 8.825388433449998 L 26.53342520612918 8.582245213587399 Q 25.25287077641144 7.609671468878345 24.734164479276945 7.512413627167765 ZM 24.815212219231142 8.19321523115893 L 24.76658399058278 8.387730222373165 Q 24.880050203532427 8.387730222373165 25.220451265105606 8.64708285178522 Q 25.722947806587186 9.100951164618433 26.06334886816036 9.668286036504757 L 26.193024836762927 9.408932368782313 Q 25.350127925915096 8.19321523115893 24.815212219231142 8.19321523115893 ZM 24.734164479276945 8.484988064083744 L 24.70174531407457 8.695712118743971 L 25.090774604296115 8.922645582953653 Q 25.431175665869294 9.279256054076287 25.885043286495584 9.976267240668637 L 26.03092935685453 9.797962351210783 Q 25.398756846770382 8.679502363091053 24.734164479276945 8.484988064083744 ZM 24.685535904525118 8.77675985869817 L 24.604488164570917 8.98748425946186 Q 25.17182303645724 9.295466155832667 25.609481247534074 10.332877711791273 L 25.78778613699193 10.122153311027581 Q 25.44738507541875 9.214418415878466 24.685535904525118 8.77675985869817 ZM 24.523440424616716 9.06853199941606 L 24.442392684662515 9.23062747932446 Q 24.880050203532427 9.489980108736514 25.398756846770382 10.51118329345605 L 25.560852326678784 10.397716042196016 Q 24.880050203532427 9.100951164618433 24.523440424616716 9.06853199941606 ZM 24.402157811076368 9.326147881654713 Q 24.389711238368132 9.326147881654713 24.37755400815431 9.327884628828116 L 24.31271636995649 9.441351880088149 Q 24.79900315578515 9.960057831119183 25.058355785197207 10.770535922868106 L 25.28528959551035 10.59223103341025 Q 24.7382173508195 9.326147881654713 24.402157811076368 9.326147881654713 ZM 24.264087795204663 9.52239962004235 L 24.101991276985878 9.61965746175293 Q 24.539649834166173 10.235620562287616 24.70174531407457 10.86779307237176 L 24.912469368734797 10.770535922868106 Q 24.734164479276945 9.960057831119183 24.264087795204663 9.52239962004235 ZM 24.037153638788055 9.700705201707128 L 23.8588487493302 9.814171414656776 Q 24.328925433402482 10.6246495064057 24.37755400815431 11.110936984441285 L 24.572068999368543 10.91642199322705 Q 24.426182582906137 10.186991987535789 24.037153638788055 9.700705201707128 ZM 23.712962332867793 9.895219154610976 L 23.550866852959395 9.960057831119183 Q 23.90747732408203 10.3815062865431 24.037153638788055 11.20819413394494 L 24.264087795204663 11.094726882684906 Q 24.004734473585685 10.08973414582521 23.712962332867793 9.895219154610976 ZM 25.577061736228238 5.6483141805443875 Q 25.803995546541383 5.6483141805443875 25.96609102644978 5.8752482936980615 Q 25.73915721613664 5.8752482936980615 25.49601399627404 6.42637297730214 Q 25.36633733546455 7.1395939195474085 24.912469368734797 7.1395939195474085 L 24.39376410991069 7.09096534479558 L 24.37755400815431 7.3341087377099115 Q 25.07456519474666 7.431365887213566 26.274073268924052 8.32289189196842 L 26.371330418427707 8.160796065956557 L 25.803995546541383 7.706928618382 Q 26.014719947305075 7.690719208832546 26.40374923752662 7.366528075964014 Q 27.732933280306575 8.306682482418964 27.732933280306575 12.569796995823806 L 27.732933280306575 17.384037317668977 L 23.615704491157214 17.384037317668977 Q 23.599495427711222 12.71568306618275 23.27530412179096 11.127146393990738 L 23.372561271294614 11.127146393990738 L 23.45360970345574 11.37028961385334 L 23.631914592913596 11.33787079475443 Q 23.631914592913596 11.04609865403654 23.291513531340414 10.268039035283063 L 23.323932696542787 10.268039035283063 Q 23.550866852959395 10.51118329345605 23.777800317169078 11.33787079475443 L 23.939895797077476 11.256822362593304 L 23.84263864757382 10.738116757665733 Q 23.696752231111414 10.170781885779409 23.372561271294614 9.976267240668637 Q 23.19425638183676 10.00868640587101 23.226675547039132 10.154572822333417 L 23.048369965374356 10.235620562287616 L 23.226675547039132 10.673278081157527 L 23.19425638183676 10.689488182913905 L 22.999741390622525 10.235620562287616 L 22.7890173359623 10.332877711791273 L 22.8700650759165 10.59223103341025 Q 21.70297651304494 11.127146393990738 21.370680675401683 11.151460854418385 Q 21.359726154719066 11.152262430036878 21.348868369954136 11.152262430036878 Q 21.03036925462522 11.152262430036878 20.795241444844095 10.462554718704222 Q 21.022174909053778 10.462554718704222 21.34636604192231 10.316668302241816 L 21.654347938293114 10.365296876993643 Q 21.735395851299046 10.365296876993643 21.735395851299046 10.024896507627389 Q 21.735395851299046 9.92763866591681 21.281528230672755 9.895219154610976 Q 20.762822106589994 10.10594424758159 20.479154843698563 10.10594424758159 Q 20.195487494281267 10.10594424758159 20.122544372575927 9.61965746175293 Q 20.049601164344725 9.13336963761388 19.871296318149803 9.13336963761388 L 19.871296318149803 9.100951164618433 Q 20.098229739096553 9.100951164618433 20.244116069033094 9.344094730584494 Q 20.665564437931145 9.344094730584494 20.665564437931145 9.084741408965515 Q 20.681774366635793 8.679502363091053 20.211696817304855 8.679502363091053 Q 19.741619224710984 8.679502363091053 19.741619224710984 9.036112834213688 L 19.709200708452606 9.036112834213688 L 19.61194291000496 8.922645582953653 Q 19.871296318149803 8.209424640708384 21.37878538017641 7.398947414218118 Q 21.37878538017641 7.09096534479558 21.865072166005074 6.718145637175223 Q 22.351359124885466 6.345325150822075 23.129417705328553 6.264277324342009 Q 23.47176386835939 5.950460729279289 24.35387568589022 5.950460729279289 Q 24.474163598080157 5.950460729279289 24.604488164570917 5.956296120178127 Q 24.491021259414346 6.264277324342009 24.166829953494084 6.321011209549623 Q 23.84263864757382 6.377744402550313 23.84263864757382 6.701935708470574 L 23.84263864757382 7.1395939195474085 L 24.21545852824591 7.1395939195474085 L 24.21545852824591 6.799193377129423 Q 24.21545852824591 6.718145637175223 24.782793054028772 6.604678558966919 Q 25.188032446006694 5.6483141805443875 25.577061736228238 5.6483141805443875 ZM 23.64812400246305 4.951303210266701 Q 22.93490271411432 4.951303210266701 22.513454604793864 5.907667631952165 Q 21.022174909053778 6.410163740804416 21.022174909053778 7.09096534479558 Q 19.27154240003417 8.079748326002358 19.1580753326416 8.809179370004006 Q 19.1580753326416 9.24683758108084 19.61194291000496 9.473771045290523 Q 19.7578292399415 10.494973191699671 20.227906053802577 10.494973191699671 Q 20.406211635467358 10.494973191699671 20.616935863179318 11.216298492616204 Q 20.719419174962443 11.567107577505162 21.205299981429924 11.567107577505162 Q 21.71847762185897 11.567107577505162 22.65934102125627 11.175774622639103 Q 22.999741390622525 12.634635326228551 22.98353198107307 18.000000418203665 L 28.348897073048185 18.000000418203665 L 28.348897073048185 12.586007097580186 Q 28.348897073048185 7.577252303675973 26.679311968695053 6.912659763130801 Q 26.679311968695053 5.259285149900441 25.79589118787012 5.251179796181721 Q 25.77626019949319 5.25099969259257 25.757048688512466 5.25099969259257 Q 24.911749127429925 5.25099969259257 24.880050203532427 5.599685649055493 Q 24.37755400815431 4.951303210266701 23.64812400246305 4.951303210266701 Z"
     style="fill:#ffffff;stroke:none"
     id="path6" />
  <path
     d="M 34.39203173513766 5.401241388497646 Q 34.60043412777333 5.401241388497646 34.82392940018936 5.567266397327256 Q 34.721809497041555 5.559972137072241 34.626983724359974 5.559972137072241 Q 34.08963629475049 5.559972137072241 33.786517152023826 5.7942005537438614 Q 34.0714129091544 5.401241388497646 34.39203173513766 5.401241388497646 ZM 36.85012462956166 6.069763198386431 Q 36.94738177906532 6.491211480758616 36.94738177906532 6.718145637175223 Q 36.94738177906532 6.945079101384905 36.65560963834743 7.107174581293304 L 36.23416152902698 7.00991760484138 Q 36.23416152902698 6.945079101384905 36.85012462956166 6.799193377129423 L 36.83391522001221 6.604678558966919 L 36.47730474888957 6.669516370216471 L 36.47730474888957 6.653307133718746 Q 36.785286299156915 6.491211480758616 36.785286299156915 6.3858497995319645 Q 36.785286299156915 6.280487339572523 36.60698140969906 6.280487339572523 L 36.73665737830163 6.118391773138258 L 36.85012462956166 6.069763198386431 ZM 33.11673980856292 7.089344369230289 Q 33.15758728527719 7.089344369230289 33.20297356279497 7.09096534479558 Q 33.040877044576185 7.3341087377099115 32.88688696164944 7.3341087377099115 Q 32.732895840412304 7.3341087377099115 32.74910524996176 7.220641659501608 Q 32.74910524996176 7.089344369230289 33.11673980856292 7.089344369230289 ZM 36.07206535691165 7.220641659501608 L 36.412466418484826 7.269270234253435 L 36.412466418484826 7.285480336009815 Q 36.02343712826328 7.366528075964014 36.02343712826328 7.463785225467669 Q 35.87755105790434 7.447575815918214 35.84513154659851 7.3341087377099115 Q 36.07206535691165 7.285480336009815 36.07206535691165 7.220641659501608 ZM 32.85099568651411 6.79687759886373 Q 32.79541908475828 6.79687759886373 32.74910524996176 6.799193377129423 Q 32.360076132791946 6.896450526633077 32.360076132791946 7.512413627167765 L 32.360076132791946 7.7555570200820965 L 32.68426726566047 7.7555570200820965 L 32.68426726566047 7.544832965421869 Q 32.82320634732581 7.592469261547522 32.9436742333161 7.592469261547522 Q 33.315116968312026 7.592469261547522 33.510954766958854 7.1395939195474085 L 33.81893666332966 7.155803848252056 Q 33.93240356848623 7.058546179593208 33.851355828532036 6.880241290135354 Q 33.18444941329021 6.79687759886373 32.85099568651411 6.79687759886373 ZM 35.35884476076984 7.512413627167765 L 35.42368343727805 8.04732985300691 Q 36.20174201772114 8.355311057170791 36.85012462956166 9.263046990630293 L 36.96359118861477 8.922645582953653 Q 36.39625700893537 8.371521158927171 35.601988326735906 7.933862601746876 L 35.601988326735906 7.820395696590303 Q 36.185532608171684 8.03111975125053 36.97980129037115 8.825388433449998 L 37.15810548762208 8.582245213587399 Q 35.87755105790434 7.609671468878345 35.35884476076984 7.512413627167765 ZM 35.43989250072404 8.19321523115893 L 35.39126427207568 8.387730222373165 Q 35.50473048502533 8.387730222373165 35.84513154659851 8.64708285178522 Q 36.347628088080086 9.100951164618433 36.68802914965326 9.668286036504757 L 36.81770511825583 9.408932368782313 Q 35.974808207407996 8.19321523115893 35.43989250072404 8.19321523115893 ZM 35.35884476076984 8.484988064083744 L 35.32642559556747 8.695712118743971 L 35.715454885789015 8.922645582953653 Q 36.0558559473622 9.279256054076287 36.50972356798848 9.976267240668637 L 36.65560963834743 9.797962351210783 Q 36.02343712826328 8.679502363091053 35.35884476076984 8.484988064083744 ZM 35.31021618601802 8.77675985869817 L 35.22916844606382 8.98748425946186 Q 35.79650331795014 9.295466155832667 36.23416152902698 10.332877711791273 L 36.412466418484826 10.122153311027581 Q 36.07206535691165 9.214418415878466 35.31021618601802 8.77675985869817 ZM 35.148120706109616 9.06853199941606 L 35.067072966155415 9.23062747932446 Q 35.50473048502533 9.489980108736514 36.02343712826328 10.51118329345605 L 36.185532608171684 10.397716042196016 Q 35.50473048502533 9.100951164618433 35.148120706109616 9.06853199941606 ZM 35.026838092569264 9.326147881654713 Q 35.014391519861036 9.326147881654713 35.00223428964721 9.327884628828116 L 34.93739665144939 9.441351880088149 Q 35.42368343727805 9.960057831119183 35.68303606669011 10.770535922868106 L 35.90996987700325 10.59223103341025 Q 35.362897632312404 9.326147881654713 35.026838092569264 9.326147881654713 ZM 34.88876807669756 9.52239962004235 L 34.72667155847878 9.61965746175293 Q 35.16433011565907 10.235620562287616 35.32642559556747 10.86779307237176 L 35.5371496502277 10.770535922868106 Q 35.35884476076984 9.960057831119183 34.88876807669756 9.52239962004235 ZM 34.661833920280955 9.700705201707128 L 34.4835290308231 9.814171414656776 Q 34.95360571489538 10.6246495064057 35.00223428964721 11.110936984441285 L 35.19674928086145 10.91642199322705 Q 35.050862864399036 10.186991987535789 34.661833920280955 9.700705201707128 ZM 34.337642614360696 9.895219154610976 L 34.175547134452295 9.960057831119183 Q 34.53215760557493 10.3815062865431 34.661833920280955 11.20819413394494 L 34.88876807669756 11.094726882684906 Q 34.629414755078585 10.08973414582521 34.337642614360696 9.895219154610976 ZM 36.20174201772114 5.6483141805443875 Q 36.42867582803429 5.6483141805443875 36.59077130794268 5.8752482936980615 Q 36.36383749762954 5.8752482936980615 36.12069427776694 6.42637297730214 Q 35.99101761695745 7.1395939195474085 35.5371496502277 7.1395939195474085 L 35.01844439140359 7.09096534479558 L 35.00223428964721 7.3341087377099115 Q 35.69924547623956 7.431365887213566 36.898753550416956 8.32289189196842 L 36.9960106999206 8.160796065956557 L 36.42867582803429 7.706928618382 Q 36.639400228797975 7.690719208832546 37.02842951901952 7.366528075964014 Q 38.357613561799475 8.306682482418964 38.357613561799475 12.569796995823806 L 38.357613561799475 17.384037317668977 L 34.24038477265012 17.384037317668977 Q 34.22417570920412 12.71568306618275 33.89998440328386 11.127146393990738 L 33.997241552787514 11.127146393990738 L 34.07828998494864 11.37028961385334 L 34.256594874406495 11.33787079475443 Q 34.256594874406495 11.04609865403654 33.91619381283331 10.268039035283063 L 33.94861297803569 10.268039035283063 Q 34.175547134452295 10.51118329345605 34.402480598661974 11.33787079475443 L 34.564576078570376 11.256822362593304 L 34.46731892906672 10.738116757665733 Q 34.32143251260432 10.170781885779409 33.997241552787514 9.976267240668637 Q 33.81893666332966 10.00868640587101 33.851355828532036 10.154572822333417 L 33.673050246867255 10.235620562287616 L 33.851355828532036 10.673278081157527 L 33.81893666332966 10.689488182913905 L 33.624421672115425 10.235620562287616 L 33.4136976174552 10.332877711791273 L 33.4947453574094 10.59223103341025 Q 32.327656794537845 11.127146393990738 31.995360956894583 11.151460854418385 Q 31.984406436211966 11.152262430036878 31.973548651447036 11.152262430036878 Q 31.65504953611812 11.152262430036878 31.419921726336995 10.462554718704222 Q 31.646855190546678 10.462554718704222 31.97104632341521 10.316668302241816 L 32.279028219786014 10.365296876993643 Q 32.360076132791946 10.365296876993643 32.360076132791946 10.024896507627389 Q 32.360076132791946 9.92763866591681 31.906208512165655 9.895219154610976 Q 31.387502388082893 10.10594424758159 31.103835125191463 10.10594424758159 Q 30.820167775774166 10.10594424758159 30.747224654068827 9.61965746175293 Q 30.674281445837625 9.13336963761388 30.495976599642702 9.13336963761388 L 30.495976599642702 9.100951164618433 Q 30.722910020589453 9.100951164618433 30.868796350525994 9.344094730584494 Q 31.290244719424045 9.344094730584494 31.290244719424045 9.084741408965515 Q 31.306454648128692 8.679502363091053 30.836377098797755 8.679502363091053 Q 30.366299506203884 8.679502363091053 30.366299506203884 9.036112834213688 L 30.333880989945506 9.036112834213688 L 30.23662319149786 8.922645582953653 Q 30.495976599642702 8.209424640708384 32.00346566166931 7.398947414218118 Q 32.00346566166931 7.09096534479558 32.48975244749797 6.718145637175223 Q 32.97603940637836 6.345325150822075 33.754097986821456 6.264277324342009 Q 34.09644414985229 5.950460729279289 34.978555967383116 5.950460729279289 Q 35.09884387957306 5.950460729279289 35.22916844606382 5.956296120178127 Q 35.115701540907246 6.264277324342009 34.79151023498698 6.321011209549623 Q 34.46731892906672 6.377744402550313 34.46731892906672 6.701935708470574 L 34.46731892906672 7.1395939195474085 L 34.84013880973881 7.1395939195474085 L 34.84013880973881 6.799193377129423 Q 34.84013880973881 6.718145637175223 35.40747333552167 6.604678558966919 Q 35.812712727499594 5.6483141805443875 36.20174201772114 5.6483141805443875 ZM 34.27280428395595 4.951303210266701 Q 33.55958299560722 4.951303210266701 33.138134886286764 5.907667631952165 Q 31.646855190546678 6.410163740804416 31.646855190546678 7.09096534479558 Q 29.89622268152707 8.079748326002358 29.7827556141345 8.809179370004006 Q 29.7827556141345 9.24683758108084 30.23662319149786 9.473771045290523 Q 30.3825095214344 10.494973191699671 30.852586335295477 10.494973191699671 Q 31.030891916960258 10.494973191699671 31.241616144672218 11.216298492616204 Q 31.344099456455343 11.567107577505162 31.829980262922824 11.567107577505162 Q 32.34315790335187 11.567107577505162 33.284021302749174 11.175774622639103 Q 33.624421672115425 12.634635326228551 33.60821226256597 18.000000418203665 L 38.973577354541085 18.000000418203665 L 38.973577354541085 12.586007097580186 Q 38.973577354541085 7.577252303675973 37.30399225018795 6.912659763130801 Q 37.30399225018795 5.259285149900441 36.42057146936302 5.251179796181721 Q 36.40094048098609 5.25099969259257 36.38172897000537 5.25099969259257 Q 35.53642940892283 5.25099969259257 35.50473048502533 5.599685649055493 Q 35.00223428964721 4.951303210266701 34.27280428395595 4.951303210266701 Z"
     style="fill:#ffffff;stroke:none"
     id="path8" />
</svg>
