<?xml version="1.0" encoding="UTF-8" standalone="no"?>
<svg
   width="77.97016143798828"
   height="18.0"
   version="1.1"
   id="svg28"
   sodipodi:docname="aasehre.svg"
   inkscape:version="1.1.1 (3bf5ae0d25, 2021-09-20)"
   xmlns:inkscape="http://www.inkscape.org/namespaces/inkscape"
   xmlns:sodipodi="http://sodipodi.sourceforge.net/DTD/sodipodi-0.dtd"
   xmlns="http://www.w3.org/2000/svg"
   xmlns:svg="http://www.w3.org/2000/svg">
  <defs
     id="defs32" />
  <sodipodi:namedview
     id="namedview30"
     pagecolor="#ffffff"
     bordercolor="#666666"
     borderopacity="1.0"
     inkscape:pageshadow="2"
     inkscape:pageopacity="0.0"
     inkscape:pagecheckerboard="0"
     showgrid="false"
     inkscape:zoom="17.634951"
     inkscape:cx="38.985081"
     inkscape:cy="8.9878332"
     inkscape:window-width="1920"
     inkscape:window-height="1001"
     inkscape:window-x="-9"
     inkscape:window-y="-9"
     inkscape:window-maximized="1"
     inkscape:current-layer="svg28" />
  <path
     d="M 1.2190420140847793 0.0 C 0.970800706632417 0.0 0.7230423028937335 0.01893070358296025 0.48290982680079 0.048905678499779795 C 0.15187998957905166 0.13255188916498697 0.3219916247400915 0.5118521231009919 0.6158947927962716 0.5118521231009919 C 0.6355981423211179 0.5118521231009919 0.6558578408244597 0.5101473851910305 0.6765601864318946 0.5065345630073116 C 1.2976180869590601 0.5780119512905144 2.0622053316712337 0.6175539511807123 2.531371224901928 0.9695623988344474 C 3.1537543888207784 1.6479367557428735 2.8741262715941502 3.0576933712068692 2.94658764204448 3.7269297850416896 C 2.951782632395561 3.7629649381631523 2.953952713884158 6.430591781037886 2.953952713884158 7.782422252231933 C 2.352510186605274 7.494257626556917 1.67335422808609 7.349215125535265 1.0039192969246102 7.349215125535265 C 0.7063920462481148 7.349215125535265 0.41078504023889434 7.377865539465801 0.12477432975315178 7.4353349446232855 C -0.20149863151174055 7.606724672263251 0.18154647682350566 7.8266562324049085 0.4376378670454302 7.8266562324049085 C 0.4681373192956425 7.8266562324049085 0.4968360674978842 7.823536850015894 0.5223214865886322 7.816844331348357 C 1.429843884416301 7.914926816832979 2.4617098179841825 8.158078494744517 2.9226503683594482 9.002292523011262 C 2.9681809889039896 9.155077638776014 2.9396896697969415 9.207577525716367 2.870237404087557 9.207577525716367 C 2.717627362869183 9.207577525716367 2.3672466519332462 8.954092059534803 2.1698535251191053 8.954092059534803 C 2.1594948014573196 8.954092059534803 2.1495575210365625 8.954790250504107 2.140092081444407 8.956259682604495 C 1.7610785167129768 8.874396440250864 1.3638924072290621 8.831466124503471 0.9703996331480379 8.831466124503471 C 0.6822712691518855 8.831466124503471 0.39612316158451694 8.854483949517657 0.1205398348885778 8.90208807080806 C -0.19080937123302597 9.107627344268586 0.19133570335568265 9.296978982841198 0.44461121617263977 9.296978982841198 C 0.47243301123084086 9.296978982841198 0.4986997685303211 9.294694058069421 0.5223214865886322 9.289895224364907 C 1.44862453664532 9.401605077048192 2.473672484380784 9.652726246647584 2.9226503683594482 10.498359836231193 C 2.9277747669676573 11.438445880183364 2.9223641381582497 12.059730482053933 2.9475081443234266 12.924290385186742 C 2.9366830234749024 13.190445840004433 3.1097205941872907 13.32271720601211 3.2850258807391146 13.32271720601211 C 3.4589948410141766 13.32271720601211 3.635197450466691 13.192454719453337 3.636159394664339 12.93350313443563 C 3.6297524037925992 12.081649745019838 3.5689455193688686 11.333930766029841 3.680643079957625 10.507654766912083 C 3.905950499841305 9.580679119782916 5.51430012614692 9.438421656179063 6.5132119200872856 9.209440304841713 C 6.73117182826633 8.953197897458422 6.302254993763335 8.858046549715155 6.0257896324592775 8.858046549715155 C 5.984500135730289 8.858046549715155 5.946610983551 8.860169218839136 5.914784994799312 8.86419400179096 C 5.786745621336966 8.854375779085794 5.657882677541108 8.84931073373403 5.528823762638173 8.84931073373403 C 4.87588245171773 8.84931073373403 4.21792069818853 8.978947377079876 3.636159394664339 9.278489565451865 C 3.6124626948293947 8.719755569414783 4.162693019870619 8.398265319455419 4.5568162027996815 8.173701395689454 C 5.178845705598769 7.90617273831141 5.863655500797704 7.879904181098088 6.5132119200872856 7.736389411825166 C 6.745102634598536 7.535056141910107 6.380132787867637 7.365650007124583 6.127413645979344 7.365650007124583 C 6.0940901289112 7.365650007124583 6.06271789404902 7.368595192973972 6.034923712303174 7.3748016471035225 C 5.875700348626306 7.359480780481324 5.715556482670491 7.35166300836024 5.555429474444318 7.35166300836024 C 4.887519202007935 7.35166300836024 4.219896213380853 7.487670468699637 3.6205083975033348 7.782422252231933 C 3.6327889023442115 5.672151988401518 3.6669749732456607 3.6298724602408705 3.6064121746990256 1.633623314068084 C 3.557780785508615 1.016382811297887 3.202148013782708 0.4498605441665941 2.6039100355477967 0.2652764822581205 C 2.1742288083663857 0.06980961445750675 1.6957449806778964 0.0 1.2190420140847793 0.0 Z"
     style="fill:#ffffff;stroke:none"
     id="path2" />
  <path
     d="M 3.29314921521244 15.21501288860129 C 4.074491287174412 15.21501288860129 5.052497037940845 15.616391919330065 5.5257419749406465 16.089636856329868 C 5.939782214238027 16.503676744424546 5.993910276899555 17.05261639954012 6.009086799211701 17.562687749346416 L 0.6002280514165623 17.562687749346416 C 0.615404749330059 17.05261639954012 0.6695328119915868 16.503676744424546 1.0835728756876173 16.089636856329868 C 1.5568179882887687 15.616391919330065 2.5118074944531683 15.21501288860129 3.29314921521244 15.21501288860129 ZM 3.29314921521244 14.777700904737003 C 2.3662267752924526 14.777700904737003 1.3688759017560481 15.205906904973462 0.7843594130436309 15.79042339368588 C 0.1848327417701466 16.38995028583294 0.11688322714550736 17.179222163577567 0.11688322714550736 17.769835531176867 L 0.11688322714550736 17.999999733210704 L 6.469415203279373 17.999999733210704 L 6.469415203279373 17.769835531176867 C 6.469415203279373 17.179222163577567 6.42448232973169 16.38995028583294 5.824955437584633 15.79042339368588 C 5.240439300074916 15.205906904973462 4.220071830733778 14.777700904737003 3.29314921521244 14.777700904737003 Z"
     style="fill:#ffffff;stroke:none"
     id="path4" />
  <path
     d="M 19.59558827849137 2.2331113889984504 Q 20.011497239301697 2.2331113889984504 20.406868373464476 2.6849636002931274 Q 17.14505908393548 6.568070899826414 16.329606932707488 7.024335296803508 Q 15.721254175199014 7.364724151693918 15.258781670883675 7.364724151693918 Q 15.101344397401952 7.364724151693918 14.960813057159163 7.325276517725049 Q 14.407469963604743 7.169951972435412 13.776464255096982 7.150536917736989 Q 13.760688966903167 7.150051524254103 13.744834947749503 7.150051524254103 Q 13.12652956999073 7.150051524254103 12.38825395561615 7.88832679632016 L 12.291175943655867 7.88832679632016 Q 12.815395428237089 6.665148911786697 13.75704954270708 6.140928742588433 Q 14.698701945634467 5.6167096003157315 19.2807685008913 2.2966530928403377 Q 19.439622247033235 2.2331113889984504 19.59558827849137 2.2331113889984504 ZM 13.822576293662692 0.46382689862325743 Q 13.87160069312572 0.46382689862325743 13.922081273037408 0.4715931515608784 L 13.922081273037408 5.461385397334616 Q 12.38825395561615 6.354500505824466 11.805788280014095 7.965988384347936 Q 12.698902703886905 1.79184917642032 13.058089773520756 1.0928900062739073 Q 13.381357725420997 0.46382689862325743 13.822576293662692 0.46382689862325743 ZM 9.823471846940608 8.280349468529765 Q 9.763159224955167 8.280349468529765 9.708909828226425 8.383422671928184 Q 9.611832586460313 8.567870141573977 9.883650198408658 8.897933602234632 Q 10.038974144658383 8.4902085535462 9.922481420308197 8.344591877914295 Q 9.871087133376625 8.280349468529765 9.823471846940608 8.280349468529765 ZM 9.850515161454094 8.003054920244196 Q 9.964842185368557 8.003054920244196 10.097221020296256 8.179560147583969 Q 10.388454200405805 8.567870141573977 9.922481420308197 9.732803546629212 Q 9.398261764572714 8.723195371480656 9.602124802379711 8.257221735611745 Q 9.713322784103013 8.003054920244196 9.850515161454094 8.003054920244196 ZM 14.931688078951879 9.926958201315696 L 14.931688078951879 10.218190867962463 Q 14.718118369566973 10.198775813264039 14.601625302908268 10.082282061988291 Q 14.640456096922156 10.024035528658937 14.756948478963821 9.926958201315696 ZM 15.378245975505326 10.587085807254049 L 17.183890562566404 10.839488364503968 L 17.552786186475032 11.499616655059363 Q 16.931489374550573 11.32487637045426 16.183991626309666 11.033644388424536 Q 15.43649319345172 10.742411037160727 15.378245975505326 10.587085807254049 ZM 11.39806151978306 10.315268879922746 L 11.747541404376221 10.490008479910806 L 11.864034128726408 11.32487637045426 L 11.553386065072697 12.276239381507548 L 11.067997716813883 12.276239381507548 L 11.39806151978306 11.32487637045426 L 11.39806151978306 10.315268879922746 ZM 12.232929752635034 10.606502231186555 L 12.562994240221252 10.703579558529796 L 12.679486964571439 11.32487637045426 L 12.368838216300684 12.276239381507548 L 11.883450552658914 12.276239381507548 L 12.21351435562809 11.32487637045426 L 12.232929752635034 10.606502231186555 ZM 13.37844604914072 10.72299461322822 L 13.494939115799427 11.32487637045426 L 13.184290367528675 12.276239381507548 L 12.698902703886905 12.276239381507548 L 13.028966164547558 11.32487637045426 L 13.028966164547558 10.742411037160727 L 13.37844604914072 10.72299461322822 ZM 12.635970993829574 8.307902566008263 Q 12.94616549869286 8.307902566008263 13.300783776495901 8.383422671928184 Q 14.349222745658347 8.606700935587865 14.621040357606692 9.441570195365404 L 15.43649319345172 9.441570195365404 L 15.747140914796912 8.936765765482605 Q 19.863233149567787 9.888126722684765 20.387455372617175 12.373316708850789 Q 19.261352076958786 11.752018527692242 18.018759137726903 11.538448133690293 L 17.475123229213175 10.451177001279875 L 15.319998757558931 10.159943650016068 L 15.378245975505326 9.635724850051886 L 14.640456096922156 9.635724850051886 Q 13.825002918768604 10.30727392210448 12.976631641685719 10.30727392210448 Q 12.794837747695311 10.30727392210448 12.611532561584353 10.276437401291815 Q 11.572801804388162 10.101698485920798 11.252445186459676 9.567771131681843 Q 10.93208856853119 9.033843092825846 11.592216516778063 8.596994435164216 Q 12.029066885982298 8.307902566008263 12.635970993829574 8.307902566008263 ZM 14.014203342229544 0.0 Q 13.306659502260182 0.0 12.902764885922597 0.4910087625106481 Q 12.407668668006053 1.0928900062739073 11.980527880002157 3.655740467965014 L 11.300984192439817 8.101897190322108 Q 10.97091987600786 8.451378444149354 10.7961802760198 8.4902085535462 L 10.563193800393865 8.4902085535462 Q 10.543778232232661 8.004819862978866 10.194298176485239 7.597094129673393 Q 9.883650198408658 4.626517849099683 10.466115788433582 2.3937311048006213 L 10.233129483961907 1.9471738928642175 Q 9.398261764572714 4.471192276884482 9.825403408347913 7.616509184371816 L 9.767156618287169 7.616509184371816 Q 8.427485014569381 4.607101425167175 9.378846196411509 1.9471738928642175 L 9.145859806362706 1.5976940082710553 L 9.145859806362706 1.5976940082710553 Q 7.90326545510817 4.4323618251791155 9.41767741831105 7.752417990345988 Q 8.99053577453585 8.684363892849726 9.330307190431368 9.286245650075767 Q 9.670079376521057 9.888126722684765 9.747741050125965 10.412346207265987 L 9.883650198408658 10.509424219226272 Q 10.407869083949969 9.732803546629212 10.485531356594787 9.16975258341706 L 10.679686695898312 9.16975258341706 Q 10.699102264059515 9.616309110736422 10.93208856853119 10.101698485920798 L 11.067997716813883 11.32487637045426 L 10.737933400381925 12.276239381507548 L 9.048781837190987 12.276239381507548 L 9.048781837190987 12.742211648142375 L 13.922081273037408 12.742211648142375 L 13.922081273037408 12.276239381507548 L 13.51435451280637 12.276239381507548 L 13.825003261077125 11.32487637045426 L 13.84441900039259 10.606502231186555 Q 14.19389820036871 10.490008479910806 14.368638484973811 10.33468393462117 Q 14.621040357606692 10.567671437172667 14.931688078951879 10.567671437172667 Q 14.912273708870499 10.76182609185915 15.009351720830782 10.89773421321628 Q 15.785971708810798 11.499616655059363 17.78577231979245 11.946173182378724 L 18.465315665046262 13.266429763489512 Q 18.465315665046262 12.942390932799807 18.666445882775246 12.942390932799807 Q 18.73044046079052 12.942390932799807 18.81479623425647 12.97519504299162 L 18.27116032574274 12.00442040032512 L 18.27116032574274 12.00442040032512 Q 19.39726088293296 12.256823642192083 19.97972758546058 12.645134320799134 Q 20.290376676039852 12.97519504299162 19.94089679144669 13.44116867886053 Q 20.71751746404375 13.11110658743396 20.814596160621075 12.509224145590878 Q 20.503945700807716 9.577479001339576 15.552985575493386 8.431961335599805 L 15.203506375517266 9.014428722744466 L 14.892857284937993 9.014428722744466 Q 14.640456096922156 8.198975202282393 12.893057700881908 7.88832679632016 Q 13.283009064230479 7.599008318923254 13.852256838599681 7.599008318923254 Q 14.161630487629424 7.599008318923254 14.523962345646407 7.684463587358902 Q 14.891470935427632 7.771140212597752 15.241644337084495 7.771140212597752 Q 15.87195550160299 7.771140212597752 16.446100683983236 7.490308248055377 Q 17.339214423239 7.053458905776705 20.989335075992095 2.665548716748965 Q 20.31660024722249 1.8173165880798985 19.56675152405883 1.8173165880798985 Q 19.321111613951302 1.8173165880798985 19.067196737655266 1.9083427565418083 L 14.349222745658347 5.286645797346556 L 14.349222745658347 0.025035944973045218 Q 14.173971736739798 0.0 14.014203342229544 0.0 Z"
     style="fill:#ffffff;stroke:none"
     id="path6" />
  <path
     d="M 14.787816725437374 15.285542133461169 C 15.549371373096287 15.285542133461169 16.502609207919512 15.676756272943992 16.963869255453197 16.13801632047768 C 17.367423959429352 16.541570682145313 17.42018123331472 17.07660848522664 17.434973411436005 17.573762319663377 L 12.163093570676018 17.573762319663377 C 12.177885919951562 17.07660848522664 12.230643193836931 16.541570682145313 12.634197726658826 16.13801632047768 C 13.095457945346773 15.676756272943992 14.02626242008698 15.285542133461169 14.787816725437374 15.285542133461169 ZM 14.787816725437374 14.859305039952915 C 13.884368520776045 14.859305039952915 12.912275476840618 15.276666758126694 12.34256182057423 15.846380414393082 C 11.758218113396996 16.430724336850286 11.69198941469321 17.200007968606588 11.69198941469321 17.775664100798863 L 11.69198941469321 17.99999941317163 L 17.883644036181536 17.99999941317163 L 17.883644036181536 17.775664100798863 C 17.883644036181536 17.200007968606588 17.839849083994995 16.430724336850286 17.25550516153779 15.846380414393082 C 16.685791847579925 15.276666758126694 15.691265101252963 14.859305039952915 14.787816725437374 14.859305039952915 Z"
     style="fill:#ffffff;stroke:none"
     id="path8" />
  <path
     d="M 33.655542253811426 8.203407192002246 C 33.14464679780286 8.243740548330095 32.86231004489047 8.499188095300077 32.808531814039966 8.969749289809286 C 32.875754738378824 9.48064510788646 33.15809149129121 9.749537529379097 33.655542253811426 9.776426916355803 C 34.15299301633164 9.749537529379097 34.4151629100458 9.48064510788646 34.4420515728853 8.969749289809286 C 34.40171821655745 8.499188095300077 34.13954832284329 8.243740548330095 33.655542253811426 8.203407192002246 ZM 33.7160424693375 6.509385226253514 C 34.079047383180004 6.509385226253514 34.415163272114405 6.576608422143824 34.7243894120035 6.711054813924445 C 35.03361518982398 6.845501205705066 35.30586833210295 7.030364654964103 35.54114883884041 7.2656453427358585 C 35.776429707646464 7.500926030507614 35.96129324742265 7.769818270965949 36.09573945816897 8.07232170204226 C 36.230185306846685 8.374825314152872 36.29740805015124 8.694134883641077 36.29740805015124 9.030250591541176 C 36.29740805015124 9.37981044982672 36.230185306846685 9.705842366059102 36.09573945816897 10.008346340238319 C 35.96129324742265 10.310849952348931 35.776429707646464 10.576381290986632 35.54114883884041 10.80493963201421 C 35.30586833210295 11.03349797304179 35.03361518982398 11.2116389850395 34.7243894120035 11.339363392144548 C 34.415163272114405 11.467087075112389 34.079047383180004 11.530948735562006 33.7160424693375 11.530948735562006 C 33.35303809859791 11.530948735562006 33.01356185094578 11.467087075112389 32.69761354534681 11.339363392144548 C 32.38166469664494 11.2116389850395 32.109411192297365 11.03349797304179 31.880853122821236 10.80493963201421 C 31.652294419725052 10.576381290986632 31.470792234355255 10.310849952348931 31.33634647619469 10.008346340238319 C 31.201900129672648 9.705842366059102 31.134676933782337 9.37981044982672 31.134676933782337 9.030250591541176 C 31.134676933782337 8.694134883641077 31.201900129672648 8.374825314152872 31.33634647619469 8.07232170204226 C 31.470792234355255 7.769818270965949 31.652294419725052 7.500926030507614 31.880853122821236 7.2656453427358585 C 32.109411192297365 7.030364654964103 32.38166469664494 6.845501205705066 32.69761354534681 6.711054813924445 C 33.01356185094578 6.576608422143824 33.35303809859791 6.509385226253514 33.7160424693375 6.509385226253514 ZM 33.67570947507826 5.823710203170776 C 33.23203676237424 5.823710203170776 32.815253617681236 5.907739107516513 32.42535967893063 6.075796916207987 C 32.03546592121433 6.243854747528749 31.699350575382834 6.472413088556328 31.417013731953297 6.761471961920012 C 31.134676933782337 7.050531423645179 30.909479630351118 7.386646678959522 30.741421821659646 7.769817908897345 C 30.573364612644298 8.152989681938074 30.489336013793945 8.566411562741841 30.489336013793945 9.010083370274344 C 30.489336013793945 9.45375535884115 30.573364612644298 9.867177239644917 30.741421821659646 10.250349012685646 C 30.909479630351118 10.633520785726375 31.134676933782337 10.966275229737235 31.417013731953297 11.24861198264962 C 31.699350575382834 11.530948735562006 32.03546592121433 11.756146355803253 32.42535967893063 11.924204119236151 C 32.815253617681236 12.09226115853184 33.23203676237424 12.17629004024829 33.67570947507826 12.17629004024829 C 34.11938146364506 12.17629004024829 34.532802982380225 12.09226115853184 34.915974031283746 11.924204119236151 C 35.299145804324475 11.756146355803253 35.63526133119027 11.530948735562006 35.92432097394974 11.24861198264962 C 36.213379892572 10.966275229737235 36.44193823359958 10.633520785726375 36.60999563496387 10.250349012685646 C 36.77805412253398 9.867177239644917 36.86208300425043 9.45375535884115 36.86208300425043 9.010083370274344 C 36.86208300425043 8.566411562741841 36.77805412253398 8.152989681938074 36.60999563496387 7.769817908897345 C 36.44193823359958 7.386646678959522 36.213379892572 7.050531423645179 35.92432097394974 6.761471961920012 C 35.63526133119027 6.472413088556328 35.299145804324475 6.243854747528749 34.915974031283746 6.075796916207987 C 34.532802982380225 5.907739107516513 34.11938146364506 5.823710203170776 33.67570947507826 5.823710203170776 Z"
     style="fill:#ffffff;stroke:none"
     id="path10" />
  <path
     d="M 54.35343954671169 3.5339630302406713 C 54.35344394076425 3.5339630302406713 54.35334068052906 3.534077275607272 54.353118780874695 3.5343079633667545 L 54.353118780874695 3.5343079633667545 C 54.353114386822135 3.5343123574193163 54.35310889425643 3.534317849985018 54.35310450020387 3.53432224403758 L 54.35310450020387 3.53432224403758 C 54.35331980877939 3.534082768172974 54.35343515265913 3.5339630302406713 54.35343954671169 3.5339630302406713 ZM 54.34823808699193 3.720425749204071 C 54.348275436438705 3.7204685912165463 54.34831278588548 3.7205114332290217 54.348350135332254 3.720554275241497 L 54.348350135332254 3.720554275241497 C 54.34855885282893 3.720794849619243 54.34865442347214 3.7209145875515457 54.348648930906435 3.7209145875515457 C 54.34864343834074 3.7209145875515457 54.348499533119345 3.720750909093627 54.34823808699193 3.720425749204071 ZM 40.34578974466606 3.0308440119408084 L 40.34578974466606 4.092004410020749 L 40.34578974466606 4.092004410020749 C 40.29517382932446 4.0687807437197065 40.24545086785187 4.046355696471729 40.197014677209104 4.024497482004195 L 40.197014677209104 4.024497482004195 C 40.08698169655924 3.974841392519023 39.98412942167984 3.92839735545636 39.88627881444279 3.8802253572238588 L 39.88627881444279 3.8802253572238588 C 39.70481968551974 3.790892071620842 39.48347237729881 3.763789555421073 39.32569472002806 3.7424421495638214 L 39.32569472002806 3.7424421495638214 C 39.14650120579999 3.7181990630684947 39.03294065915658 3.6998736668604635 38.95845436223107 3.6632041997210143 L 38.95845436223107 3.6632041997210143 C 38.91822070055055 3.6433958107734528 38.90202415415153 3.631657099355216 38.90202415415153 3.56142915428991 C 38.90202415415153 3.4770237986346957 38.906554593985184 3.4371236043493516 39.325696161826556 3.380416159015999 L 39.325696161826556 3.380416159015999 C 39.483473613126094 3.3590698516718875 39.704820372090445 3.3319673354721187 39.886278677128644 3.242635148382243 L 39.886279089071074 3.242635148382243 L 39.886279501013505 3.242635148382243 C 39.98413106944955 3.194462051636601 40.08698430552795 3.148016916060797 40.197018522005095 3.0983608265756253 L 40.197018522005095 3.0983608265756253 C 40.24548341130365 3.0764894299504064 40.295247841647296 3.0540358213607792 40.34578974466606 3.0308440119408084 ZM 40.885731060746025 4.168367550975148 L 40.885731060746025 4.168368649488288 L 40.88573078611774 4.168368649488288 C 40.88573078611774 4.168368649488288 40.88573078611774 4.168368649488288 40.88573078611774 4.168367550975148 ZM 50.6769533446556 2.951278705182164 C 50.73244693296882 2.951278705182164 50.78794161979518 2.9516093576374223 50.84343960216096 2.952288238758185 L 50.84343960216096 2.952288238758185 C 50.89231135326389 2.952886928419699 50.94116992220914 2.9537547538006095 50.99001750602298 2.9549037985454603 L 50.99001750602298 2.9549037985454603 C 52.00566650469645 2.9788008534015633 53.678949182971145 3.3570760503220747 54.20547971331906 3.6236906820610884 L 54.20547971331906 3.6236906820610884 C 53.67140020067036 3.8602565853577997 52.013741674791476 4.143867412404969 50.99001750602298 4.1679545100343605 L 50.99001750602298 4.1679545100343605 L 50.99001750602298 4.1679545100343605 C 50.88559504392353 4.170411883929419 50.781187961008044 4.1715839974502185 50.67677977957942 4.1715839974502185 C 49.59846609881225 4.1715839974502185 48.52002279349451 4.046479828456594 47.42291190512551 3.9188369955955222 L 47.42291190512551 3.9188369955955222 C 46.33069708982323 3.791764291054314 45.21984325281135 3.66218587803987 44.10074452542425 3.66218587803987 C 44.043098949869 3.66218587803987 43.98543140405094 3.6625297126528134 43.92774353573979 3.663234958088945 L 43.92774353573979 3.663234958088945 C 42.96563991232505 3.6750033293619726 41.81427703011976 3.776605908230035 40.88573078611774 4.168367550975148 L 40.885731060746025 4.168367550975148 L 40.885731060746025 2.954490757604672 L 40.885731060746025 2.954490757604672 C 41.814277304748046 3.346254597376066 42.96564046158162 3.4478560777309886 43.92774353573979 3.459625547517156 L 43.92774353573979 3.459625547517156 L 43.92774353573979 3.459625547517156 C 43.98542755925495 3.460330792953288 44.04309071102045 3.460674627566231 44.10073189252313 3.460674627566231 C 45.219833915449655 3.460674627566231 46.330691048000965 3.3310962145517875 47.42290860958609 3.204022411497439 C 48.519872297194276 3.076396056333473 49.598174992830046 2.951278705182164 50.6769533446556 2.951278705182164 ZM 40.677813968208326 2.25 L 40.54771444802291 2.3247856760847956 C 40.4711911987783 2.368774536278681 40.39271589168321 2.409793016940945 40.312623435931314 2.449223047602201 L 40.312623435931314 2.449223047602201 C 40.20138044305731 2.50398942021648 40.08932880719783 2.554582541410407 39.974921684537065 2.6062126590088646 L 39.974921684537065 2.6062126590088646 C 39.8664700135528 2.655154714952781 39.755196948881576 2.7053413862847626 39.64779586840195 2.758215020758145 L 39.64779586840195 2.758215020758145 L 39.64779586840195 2.758215020758145 C 39.56119362378009 2.8008494142499263 39.43637733388632 2.82058090727766 39.25330483244539 2.8453501815672353 L 39.25330483244539 2.8453501815672353 C 39.004807771959655 2.878970176228954 38.362082958221436 2.926640153956296 38.362082958221436 3.56142915428991 C 38.362082958221436 3.8543235158865388 38.51088731650142 4.044689252037754 38.719970111705884 4.147623228831972 L 38.719970111705884 4.147623228831972 C 38.88996017985813 4.23131015689337 39.10194963224994 4.257031842075666 39.25330277273325 4.277509225525726 L 39.25330277273325 4.277509225525726 C 39.436376510001466 4.30227740130216 39.56119321183766 4.322009992843035 39.647795593773665 4.364644386334817 L 39.64779607437316 4.364645484847957 L 39.64779662362973 4.364645484847957 C 39.755196536939145 4.417519119321339 39.8664680911548 4.46770469214018 39.97491866362593 4.516645649570956 L 39.97491866362593 4.516645649570956 C 40.17274481445598 4.6059207139775316 40.36390134275413 4.692409949060071 40.54771499727948 4.798072632495025 L 40.67781410552247 4.87285830857982 L 40.81001137386361 4.801847123645414 C 41.66131923656662 4.344560270589016 42.86615499216338 4.21620230567355 43.93434779673983 4.2031365903817175 L 43.93434779673983 4.2031365903817175 L 43.93434779673983 4.2031365903817175 C 43.99003197708291 4.202455512234675 44.04571011560371 4.202122662753135 44.101384409328524 4.202122662753135 C 45.1827168042055 4.202122662753135 46.26271889966945 4.327438844782855 47.36051361246835 4.455160770590036 L 47.36051361246835 4.455160770590036 C 48.45171944345117 4.582117032738362 49.56074315757116 4.711511994058361 50.67775745627437 4.711511994058361 C 50.786006039641805 4.711511994058361 50.894329321902795 4.710297038525086 51.0027185149522 4.707746291013093 L 51.0027185149522 4.707746291013093 C 52.07733569900195 4.682461814060675 54.31578910733787 4.350414247114169 54.74159367230375 3.9093051970763346 L 54.74159367230375 3.9093051970763346 C 54.7960030281474 3.8529415863559247 54.86208298759459 3.7589033689726064 54.86208298759459 3.6312572405721135 C 54.86208298759459 3.5126463827513508 54.804642833996596 3.422525463226673 54.75607646954669 3.366583681552174 L 54.75607646954669 3.366583681552174 C 54.349067464412926 2.8977635390347927 52.09854359369037 2.4408963179980248 51.0027185149522 2.415112017566727 L 51.0027185149522 2.415112017566727 L 51.0027185149522 2.415112017566727 C 50.951796938329295 2.4139135397305584 50.900906120074325 2.4130105619291555 50.850043863161005 2.4123877049785527 L 50.850043863161005 2.4123877049785527 C 50.79254219282714 2.411684656568702 50.73505919721667 2.411341920468899 50.67759487632959 2.411341920468899 C 49.56103865760593 2.411341920468899 48.45186664421198 2.540724798144353 47.360509767672355 2.6676986365029256 C 46.26271230859061 2.795421660823246 45.1827074668438 2.920737842852966 44.10137177642741 2.920737842852966 C 44.04570187675516 2.920737842852966 43.99002758303035 2.920404993371427 43.93434779673983 2.9197239152243837 L 43.93434779673983 2.9197239152243837 C 42.86615444290681 2.906657101419412 41.661319511194904 2.778300235017085 40.810011648491894 2.3210111849344064 L 40.677813968208326 2.25 Z"
     style="fill:#ffffff;stroke:none"
     id="path12" />
  <path
     d="M 53.69900560991492 11.37788916819508 Q 54.03046522520821 11.37788916819508 54.03046522520821 11.72513265452763 L 54.03046522520821 14.392594034699124 L 53.02030284359533 14.392594034699124 L 53.35176245888862 11.583078779179726 Q 53.367545994621636 11.37788916819508 53.69900560991492 11.37788916819508 ZM 53.71478914564794 10.951726913452148 Q 52.90981541101424 10.951726913452148 52.8624648038152 11.409456700707201 Q 52.53100518852192 14.392594034699124 52.15219362480459 14.408376899819642 L 44.82851434627375 14.676701701568373 L 44.07089256006409 14.645134294796094 Q 43.21856721231261 13.745458339845566 42.555648652338526 13.745458339845566 Q 42.31889159266832 13.729674636459427 42.06635066195886 13.713890765420164 Q 40.724728665052695 13.966430857864008 40.45640403095709 13.966430857864008 Q 40.26699824909843 13.966430857864008 40.26699824909843 14.218971788573477 Q 40.26699824909843 14.566215274906027 40.80364751728964 14.566215274906027 Q 41.72518158362553 14.419304530460765 42.21728105771206 14.419304530460765 Q 42.30675149463235 14.419304530460765 42.38202640621288 14.424160770858904 Q 42.65035120796161 14.424160770858904 42.82397244816851 14.645134294796094 Q 42.516188471781 15.026200122422603 41.44627233718109 15.026200122422603 Q 41.363971586121004 15.026200122422603 41.277161133670674 15.023945187900923 Q 40.06180935063956 14.992377781128646 39.130565276390975 14.708269108340652 Q 38.67283548913592 14.708269108340652 38.67283548913592 15.244918376531864 Q 38.72018677218662 15.734215696299039 42.09791806873113 15.749999567338302 L 43.597378105417434 15.592161862864414 L 52.15219362480459 15.544809914440375 L 54.55132995174766 15.5763783271314 L 54.55132995174766 11.72513265452763 Q 54.53554641601465 10.951726913452148 53.71478914564794 10.951726913452148 Z"
     style="fill:#ffffff;stroke:none"
     id="path14" />
  <path
     d="M 63.04877463450782 4.319086925554621 Q 63.93625402529949 4.319086925554621 64.48710302766986 4.487402300799572 Q 63.905651986852945 5.481990636497173 63.04877463450782 5.986934408786098 L 63.04877463450782 5.971634294734336 Q 62.17659734914524 5.466688893136691 61.6104476896202 4.472100647956242 Q 62.1459956727673 4.319086925554621 63.04877463450782 4.319086925554621 ZM 63.04877463450782 6.660194280457183 Q 63.354802260345366 8.863590652007268 63.43130880473615 9.643958563412774 Q 63.492514329903656 10.148903059838908 63.492514329903656 11.403614153361211 Q 63.492514329903656 12.22988801898537 63.43130880473615 12.90314734755355 Q 63.32419949776161 13.591707695345 63.04877463450782 14.249668177101533 Q 62.77335121952845 13.591707695345 62.6662404642795 12.90314734755355 Q 62.605036387386406 12.214586275624889 62.605036387386406 11.388313858275147 Q 62.605036387386406 10.148903059838908 62.650939445056224 9.628656820052292 Q 62.74274773280749 8.863590652007268 63.04877463450782 6.660194280457183 ZM 62.734547603054324 3.500807489457732 Q 62.88913713853958 3.500807489457732 63.03347289114734 3.508115708462454 L 63.04877463450782 3.523416637168576 Q 63.19310966297837 3.5161085539395804 63.34780709490775 3.5161085539395804 Q 64.48870119848982 3.5161085539395804 66.19320360206243 3.913600954939933 Q 68.12882380962733 4.364991250464555 69.30702908289607 4.946442653350075 L 69.30702908289607 14.509789848720423 L 68.72557731794194 14.509789848720423 L 68.72557731794194 5.283072679702769 Q 67.18014106607978 4.548607463898477 65.73416216330611 4.227279180906264 Q 64.35390957429487 3.920556383348212 63.161871832062445 3.920556383348212 Q 63.10511033694573 3.920556383348212 63.04877463450782 3.921251826620174 L 63.03347289114734 3.921251826620174 Q 62.976539051374914 3.920540180778164 62.91912510863301 3.920540180778164 Q 61.74211248934728 3.920540180778164 60.363387829846744 4.219628309226024 Q 58.91740928914167 4.533305811055146 57.371972132108006 5.283072679702769 L 57.371972132108006 14.509789848720423 L 56.77521980051637 14.509789848720423 L 56.77521980051637 4.946442653350075 Q 57.96872527835401 4.349690321758433 59.89669588147879 3.8983000262338114 Q 61.59445946418572 3.500807489457732 62.734547603054324 3.500807489457732 ZM 62.837424328043056 3.0770727396011353 Q 61.68532709770267 3.0770727396011353 60.187421763955854 3.378053763817908 Q 58.55017668123953 3.707032895861073 56.362082958221436 4.548607463898477 L 56.362082958221436 14.922926781532503 L 57.754506392853486 14.922926781532503 L 57.754506392853486 5.635003544244434 Q 58.2441501416078 5.114758028595027 60.99839352415093 4.518004882349024 L 61.41153045696301 4.793429745602814 Q 61.88587255287399 5.665606125793886 62.63563842583295 6.231756690490435 Q 62.115392186046336 9.582753038245265 62.17659734914524 11.388313858275147 Q 62.17659734914524 13.576406676121728 62.74274773280749 14.785215436111422 Q 62.865158059005296 14.90762576230923 63.04877463450782 14.90762576230923 L 63.04877463450782 14.922926781532503 Q 63.217090190787076 14.922926781532503 63.354802260345366 14.800515731197486 Q 63.905651986852945 13.591707695345 63.92095300607622 11.403614153361211 Q 63.966857512020454 9.598054057468538 63.44661054809663 6.247057709713708 Q 64.19637642105559 5.6809078691543675 64.67071960317239 4.793429745602814 L 65.08385508771005 4.518004882349024 Q 67.83809720301306 5.1300588667839975 68.32774212849034 5.635003544244434 L 68.32774212849034 14.922926781532503 L 69.72016529157094 14.922926781532503 L 69.72016529157094 4.563909207258958 Q 67.54737638949646 3.707032895861073 65.90247771958536 3.3857045902395733 Q 64.33234838890098 3.0789817282410885 63.1595640067778 3.0789817282410885 Q 63.1037192693675 3.0789817282410885 63.04877463450782 3.0796772055453774 Q 62.944595910817554 3.0770727396011353 62.837424328043056 3.0770727396011353 Z"
     style="fill:#ffffff;stroke:none"
     id="path16" />
  <path
     d="M 30.489336013793945 0.375 C 20.86433607339859 0.375 20.86433607339859 17.625 30.489336013793945 17.625 "
     style="fill:none;stroke:#ffffff;stroke-width:1"
     id="path18" />
  <path
     d="M 30.489336013793945 0.375 L 69.72016334533691 0.375 "
     style="fill:none;stroke:#ffffff;stroke-width:1"
     id="path20" />
  <path
     d="M 30.489336013793945 17.625 L 69.72016334533691 17.625 "
     style="fill:none;stroke:#ffffff;stroke-width:1"
     id="path22" />
  <path
     d="M 77.40766334533691 0.375 L 77.40766334533691 17.625 "
     style="fill:none;stroke:#ffffff;stroke-width:1"
     id="path24" />
  <path
     d="M 69.72016334533691 0.375 C 79.34516525268555 0.375 79.34516525268555 17.625 69.72016334533691 17.625 "
     style="fill:none;stroke:#ffffff;stroke-width:1"
     id="path26" />
</svg>
