<?xml version="1.0" encoding="UTF-8" standalone="no"?>
<svg
   width="89.53899383544922"
   height="18.0"
   version="1.1"
   id="svg26"
   sodipodi:docname="amenemnisu.svg"
   inkscape:version="1.1.1 (3bf5ae0d25, 2021-09-20)"
   xmlns:inkscape="http://www.inkscape.org/namespaces/inkscape"
   xmlns:sodipodi="http://sodipodi.sourceforge.net/DTD/sodipodi-0.dtd"
   xmlns="http://www.w3.org/2000/svg"
   xmlns:svg="http://www.w3.org/2000/svg">
  <defs
     id="defs30" />
  <sodipodi:namedview
     id="namedview28"
     pagecolor="#ffffff"
     bordercolor="#666666"
     borderopacity="1.0"
     inkscape:pageshadow="2"
     inkscape:pageopacity="0.0"
     inkscape:pagecheckerboard="0"
     showgrid="false"
     inkscape:zoom="15.356438"
     inkscape:cx="44.769497"
     inkscape:cy="9.0190187"
     inkscape:window-width="1920"
     inkscape:window-height="1001"
     inkscape:window-x="-9"
     inkscape:window-y="-9"
     inkscape:window-maximized="1"
     inkscape:current-layer="svg26" />
  <path
     d="M 9.619241759901131 8.704017150225534 C 9.956114020057063 8.704017150225534 10.371109904274771 8.76399089929749 10.864229412554256 8.883939352346172 C 11.905261819800385 9.137163864337834 12.8056128816014 9.495897714329981 13.565284507766846 9.960140902322616 C 14.32495613393229 10.42438504522002 15.176070395910864 11.008207138114807 16.1186263387978 11.711606226102205 C 15.211383729261659 12.170969850713034 14.168207560803758 12.400651185566062 12.989095923614554 12.400651185566062 C 12.723796640788658 12.400651185566062 12.45161535927535 12.38902331016484 12.172553033979401 12.365768514267165 C 10.653210736553286 12.239155780818948 9.3484030744964 11.792497164191472 8.258132912523058 11.025791709479964 C 7.167863705454489 10.259086254768457 6.897054622097669 9.78780828332499 7.445706139904986 9.61195779514956 C 7.994358612617073 9.436108261878905 8.441018184149321 9.207503104703234 8.78568342214457 8.92614327852732 C 8.967086681565636 8.778059511294387 9.244939142516232 8.704017150225534 9.619241759901131 8.704017150225534 ZM 16.87829701005847 11.880422885731571 L 17.743478929129175 12.070340076094354 C 17.743478929129175 12.295428318996994 17.539492171864723 12.478311680813713 17.131522476954906 12.618992071354056 C 16.899402315315747 12.634818663035082 16.657389340244983 12.642731958875595 16.405485461552153 12.642731958875595 C 15.985642480714866 12.642731958875595 15.538322115080815 12.620750051038186 15.063526274459544 12.576788145172907 C 15.977946903162229 12.464244023721587 16.582870481695206 12.232122907177656 16.87829701005847 11.880422885731571 ZM 18.207723072026578 12.196952809542571 L 18.73527358164809 12.302462147543055 C 18.791544210016596 12.471278807172421 18.594593191107748 12.640094511897015 18.144416705302472 12.808910216621609 L 17.532460253128203 12.76670629044046 C 17.968567172031815 12.569755271531616 18.193655414934454 12.379837126264063 18.207723072026578 12.196952809542571 ZM 19.009598624373172 12.407972440448313 L 19.36833342927009 12.49238029281061 C 19.283925576907794 12.731536192805375 19.030702019820904 12.851114142802757 18.608660848199875 12.851114142802757 C 18.847816748194642 12.696366095170289 18.98146331018892 12.548652830988656 19.009598624373172 12.407972440448313 ZM 19.600455500718795 12.618992071354056 C 19.938086910167982 12.71746853571325 20.163175153070622 12.87925041189178 20.27571831961717 13.10433865479442 L 19.326128548184172 12.893318068983906 C 19.509013819810434 12.808910216621609 19.600455500718795 12.71746853571325 19.600455500718795 12.618992071354056 ZM 17.405847519679988 13.864010280959864 C 18.46094662911347 13.99062205950331 19.255788352914 14.28604954277135 19.790372691081576 14.750293685668755 L 17.173725448231284 14.138336278589716 C 17.20186267222508 13.983587276052475 17.279236696041313 13.892145595144116 17.405847519679988 13.864010280959864 ZM 5.187792747046841 0.40093762696942586 C 5.848988863757863 0.40093762696942586 6.3484031042903535 0.5838216154424017 6.686035468644312 0.9495895923883535 C 7.0236668780935005 1.3153575693343054 7.129177170998758 2.198124417859453 7.0025653924553115 3.5978901976453446 C 6.875952659007095 4.997655977431236 6.8337487328259465 5.947245271411848 6.875953136459481 6.446659034491953 C 6.918156585188243 6.946073275024443 7.048285755457107 7.315357867835686 7.266340169813683 7.554513290378066 C 7.4843936292654885 7.793669667825216 7.748168406623859 8.029308176094565 8.05766402443641 8.261430247543267 C 8.367160119701346 8.49355231899197 8.212412072068878 8.70105503562468 7.5934203589913905 8.883939352346172 C 6.974429123366289 9.06682271416289 6.629762930466267 9.33763179751971 6.559423212648482 9.69636660241663 C 6.48908301737831 10.055099497504006 6.577008261466024 10.385698033311902 6.823197990006852 10.688160300030777 C 7.069388196000066 10.99062256674965 7.656726725715499 11.398594171469009 8.585214534057924 11.912075114188854 C 9.513701864947961 12.42555701181347 10.333162943564483 12.752637678443564 11.043595860097945 12.893318068983906 C 11.754030686440949 13.033998459524248 13.931053141209826 13.10433865479442 17.57466322440458 13.10433865479442 C 18.700104438917776 13.315358285700162 19.445707453086325 13.596718111876076 19.811474176719763 13.94841813332216 L 17.405847519679988 13.399766138062459 C 17.18076118658689 13.47010633333263 17.00490974350669 13.60375194042214 16.87829701005847 13.800703914235756 C 16.87829701005847 14.166472547678739 16.083455286257944 14.37749217858448 14.493772793561655 14.433763761857755 C 14.254616893566888 14.433763761857755 14.092834062483586 14.103166180954629 14.008427165026061 13.441970064243609 L 13.755202653034399 13.652989695149351 C 13.881814431577844 14.187574033316928 13.91698452921293 14.658852004760394 13.860712945939655 15.066823609479753 C 13.663760972126038 14.588511809490223 13.319094779226017 14.271981885679224 12.826715322144361 14.117233838046756 C 12.038906471985122 13.976553447506413 11.335507383997724 13.846424754689936 10.71651519346785 13.726846804692553 C 10.097523002937978 13.607269809599941 9.471497938766813 13.350529338240019 8.838438091144814 12.956624435708015 C 8.275718438792987 12.520516561899633 7.371849507814169 12.049238590456165 6.126831775660745 11.542790521377611 C 4.881814043507322 11.03634340720383 4.259305416156803 10.283705609584448 4.259305416156803 9.284877128519467 C 4.259305416156803 8.286049602359258 4.593420388785345 7.459554695196674 5.261649856590044 6.805393361936487 C 5.929879801847128 6.151231551223914 6.2639942970232845 5.366941047694864 6.2639942970232845 4.452521373896952 C 6.2639942970232845 4.002345365544058 6.207722713750011 3.5767882345547704 6.095179069751077 3.175850219655281 C 5.993352799453844 2.8130966980279646 5.689997219321334 2.6317199372143065 5.185112329353548 2.6317199372143065 C 5.131966626849421 2.6317199372143065 5.076588356989783 2.6337295343056977 5.0189770423222475 2.6377489672146734 L 3.2464102329044677 2.869871038663376 C 3.3026820549039346 2.6869874381204633 3.387089668540039 2.5181714946696765 3.4996335512651657 2.363423447037208 C 3.6403134643531225 1.9273154538657298 3.795061511985591 1.6740914193264531 3.9638776941625706 1.6037515821455712 C 3.9884963327999836 1.6899181303705768 4.083125485835245 1.733001523846176 4.247764437089777 1.733001523846176 C 4.271284696513898 1.733001523846176 4.296233016023633 1.732122295277918 4.32261082797614 1.7303637187783059 C 4.603971609056825 1.7162955842337946 4.765753485235356 1.5756155517827413 4.8079574114165045 1.308323860151339 C 4.7798216197798675 1.0410321685199366 4.6180397436013365 0.9003521360688832 4.32261082797614 0.8862840612059201 C 4.069387270889249 0.9003521360688832 3.9287073578012923 1.0410321685199366 3.9005710887122693 1.308323860151339 C 3.6754838007144013 1.5193437297832741 3.4996337899913588 1.765533697050295 3.373021295269335 2.046893523226209 C 3.3320964640294637 2.0673559388461444 3.2921017100369276 2.0775870272930157 3.2530370332917253 2.0775870272930157 C 3.1846734908983327 2.0775870272930157 3.119158190711805 2.046253737029377 3.0564913714583355 1.9835869177759076 C 3.225307553635315 1.6459552696005268 3.471497998354722 1.2977725205167625 3.7950622281641695 0.9390390286139039 C 4.118625980521232 0.5803047608509185 4.582869168513866 0.40093762696942586 5.187792747046841 0.40093762696942586 ZM 9.977946007845366 14.159437764227905 L 10.653208826743741 14.328253468952498 L 9.89353815548307 15.425557459471902 L 9.977946007845366 14.159437764227905 ZM 11.286269629270512 14.391559835676606 C 11.84898928162234 14.391559835676606 12.32378416733884 14.451348333222912 12.71065428642001 14.570927238125066 C 13.09752440550118 14.690504233217677 13.336679350591174 15.144197633295988 13.428121986404305 15.932005528550455 C 13.517959427296729 16.705992132143816 13.400721948894024 17.092986388845265 13.07640859629142 17.092986388845265 C 13.070618053757709 17.092986388845265 13.064760667889999 17.092862251224986 13.058837393593063 17.09261588579397 L 11.03304511727885 17.09261588579397 C 10.988356528882543 17.089306185856326 10.942987093384234 17.087650380982737 10.896935855879153 17.087650380982737 C 10.551564943257846 17.087650380982737 10.167861288398607 17.180747866764687 9.745823936396663 17.366940928519046 C 9.858368057847983 16.382182014355735 10.3718499554726 15.390387361836815 11.286269629270512 14.391559835676606 ZM 5.187792747046841 0.0 C 4.231169147067781 0.0 3.443361967991892 0.5345838607151904 2.8243702549144043 1.6037515821455712 C 2.613350385282469 1.9554513648654634 1.9873244855696295 2.3071511475853557 0.946292317049693 2.6588511690314407 C 0.22882448278191372 2.869871038663376 -0.08067132899566878 3.165298999383801 0.017804894772284054 3.545135051192716 L 0.03890708726380924 3.798358369553414 C 1.3753664816751086 3.6717465910099687 2.493771957832701 3.5099647148314377 3.3941234970861016 3.3130129797440135 L 5.040079482865207 3.0175852577497815 C 5.048381902400062 3.0173546482474904 5.056615568791377 3.017239343496345 5.064780004586766 3.017239343496345 C 5.5546451974053515 3.017239343496345 5.796118651280282 3.432360558965298 5.789199888759171 4.2626027511770115 C 5.782166060213108 5.106682229704753 5.4269491244939925 5.862836941597166 4.723549559054208 6.5310668868542505 C 4.020149993614424 7.199296832111335 3.661415904896083 8.166471652361876 3.6473477703515713 9.432591347605873 C 3.6473477703515713 10.459556097759878 4.136210551886389 11.19460836910933 5.11393659240841 11.637750071463774 C 6.09166167802566 12.08089177381822 7.037734535185626 12.555685704629948 7.952154686435924 13.062133773708501 C 8.866573405329065 13.568581842787054 9.387089131499744 13.962486745319058 9.513701864947961 14.243845616590201 C 9.44336166967779 15.735053554736838 9.26047830786107 16.698711938166735 8.96504986968826 17.134818857070343 C 8.472670412606604 17.134818857070343 7.614522322081965 17.064478661800173 6.390606553019116 16.92379827125983 C 6.01077121738878 16.980070809437876 5.75051335430344 17.10316567370829 5.609832486310712 17.293084773880615 C 5.469153528127526 17.48300387405294 5.497289319764163 17.69050468087611 5.69424129357778 17.91559292377875 C 5.7882960713930505 17.77973671214347 5.878469161312617 17.711806696516287 5.9647610407888685 17.711806696516287 C 5.99463093949035 17.711806696516287 6.024035799568166 17.719946304787623 6.052975621022314 17.73622552133029 C 6.165519265021248 17.799531888054396 6.446879091197162 17.831185071416453 6.897054144645284 17.831185071416453 L 8.96504986968826 17.831185071416453 C 9.066651737364214 17.811645809984256 9.162826881224358 17.801877134172933 9.253573391459145 17.801877134172933 C 9.489516991802953 17.801877134172933 9.68877028611562 17.867918348162302 9.851334229301921 18.000000776141047 C 10.048286203115538 17.98593311904892 10.21710095293536 17.929660580870873 10.357781343475702 17.831185071416453 C 10.978782653644581 17.849272877596132 11.498366392758383 17.8583158257812 11.916529696102794 17.8583158257812 C 12.474082358736627 17.8583158257812 12.85133372205558 17.842239049050068 13.048285695869197 17.810083585778262 C 13.39295188876922 17.753811047600216 13.705964898307187 17.704574247777778 13.987324724483102 17.662369366691856 L 14.704792424467398 17.89449143814056 C 14.713104870502352 17.89513122433739 14.721098378343662 17.895450162531034 14.728771038181785 17.895450162531034 C 14.889915037973028 17.895450162531034 14.91005779922074 17.754450833797048 14.789201231734465 17.47245026651953 C 14.170209041204592 17.134818857070343 14.02952865066425 16.28370459509177 14.367161015018208 14.919109390393348 L 14.367161015018208 14.919109390393348 C 14.486100133723532 14.921667580275903 14.601202445057407 14.922946197764796 14.712467949019834 14.922946197764796 C 15.825117259215483 14.922946197764796 16.55409538131412 14.795054846827687 16.899400405506203 14.539274054763013 C 18.306200491290543 14.792496656945131 19.452741281632388 15.03868734039073 20.33902468634128 15.277843240385495 L 20.486738905427682 15.024620638203377 C 20.1209702719847 14.616648078579246 19.84664522925962 14.356389738041521 19.6637618674429 14.243845616590201 L 19.6637618674429 14.243845616590201 L 20.59224824342817 14.433763761857755 C 20.74230770863311 14.490035345131028 20.8462548224276 14.518171614220051 20.90408958481164 14.518171614220051 C 21.01975910957972 14.518171614220051 20.95098304832509 14.405627492768732 20.697759491238198 14.180540204770864 C 20.641486953060152 14.025792157138396 20.23351534834079 13.723330845324293 19.473842767270575 13.273154359519014 L 19.473842767270575 13.273154359519014 L 20.761063948152763 13.526377916605906 C 20.901744338693106 12.62602685480489 19.924019253075855 11.985932223732057 17.827886781491472 11.606096888101721 C 16.73058279097207 11.352873331014829 15.738790048262691 10.86049196412363 14.852506643553802 10.12895660704721 C 13.684862457764227 9.101993766702748 11.91932947689251 8.349355969083367 9.55590579112911 7.871043214189065 C 8.303853752977238 7.786635839279153 7.607488493535902 7.4032831119233995 7.466808580447945 6.72098550957419 C 7.326128667359988 6.038687429772594 7.32964558163302 4.95193465952467 7.477359800719425 3.4607274375566117 C 7.625073542353445 1.969519857499264 7.417570825720734 0.9988280632941434 6.854850695916521 0.5486519952597018 C 6.43281095665265 0.1828839884729759 5.877125132846886 0.0 5.187792747046841 0.0 Z"
     style="fill:#ffffff;stroke:none"
     id="path2" />
  <path
     d="M 27.177865186478382 7.937876256002994 C 26.496671245133623 7.991654064440127 26.120222241250442 8.332250793733436 26.04851793344977 8.959665719745715 C 26.138148499234912 9.640860143848613 26.514597503118093 9.999383372505463 27.177865186478382 10.035235888474404 C 27.84113286983867 9.999383372505463 28.190692728124215 9.640860143848613 28.226544278576878 8.959665719745715 C 28.172766470139745 8.332250793733436 27.8232066118542 7.991654064440127 27.177865186478382 7.937876256002994 ZM 27.25853214051315 5.679180301671352 C 27.742538692303153 5.679180301671352 28.190693210882355 5.768811229525099 28.602994730734476 5.948073085232593 C 29.01529576782846 6.127334940940088 29.378299957533752 6.373819539952137 29.692007299850356 6.687527123647811 C 30.0057151249251 7.001234707343485 30.252199844626684 7.3597576946212655 30.43146145895511 7.763095602723013 C 30.610722590525395 8.16643375220383 30.700352914931468 8.592179844854769 30.700352914931468 9.040334122054901 C 30.700352914931468 9.506413933102294 30.610722590525395 9.941123154745469 30.43146145895511 10.344461786984425 C 30.252199844626684 10.747799936465242 30.0057151249251 11.101841721315509 29.692007299850356 11.406586176018948 C 29.378299957533752 11.711330630722387 29.01529576782846 11.948851980052666 28.602994730734476 12.119151189526065 C 28.190693210882355 12.289449433483185 27.742538692303153 12.374598314082675 27.25853214051315 12.374598314082675 C 26.774526312860356 12.374598314082675 26.32189131599085 12.289449433483185 25.900626908525563 12.119151189526065 C 25.479361776923067 11.948851980052666 25.116357104459635 11.711330630722387 24.8116130118248 11.406586176018948 C 24.506868074363222 11.101841721315509 24.264865160536825 10.747799936465242 24.085604149656074 10.344461786984425 C 23.906342354293347 9.941123154745469 23.8167114264396 9.506413933102294 23.8167114264396 9.040334122054901 C 23.8167114264396 8.592179844854769 23.906342354293347 8.16643375220383 24.085604149656074 7.763095602723013 C 24.264865160536825 7.3597576946212655 24.506868074363222 7.001234707343485 24.8116130118248 6.687527123647811 C 25.116357104459635 6.373819539952137 25.479361776923067 6.127334940940088 25.900626908525563 5.948073085232593 C 26.32189131599085 5.768811229525099 26.774526312860356 5.679180301671352 27.25853214051315 5.679180301671352 ZM 27.204754814834157 4.764946937561035 C 26.61319119789547 4.764946937561035 26.057480338304796 4.876985476688684 25.53762175330399 5.101062554943983 C 25.017763409682257 5.325139663371665 24.569609615240264 5.629884118075104 24.193160490667548 6.015295949226683 C 23.8167114264396 6.400708564860238 23.516448355197976 6.848862238612696 23.292371276942678 7.359757211863126 C 23.068294998255546 7.870652909250765 22.956256866455078 8.421882083655788 22.956256866455078 9.013444493699126 C 22.956256866455078 9.605007145121533 23.068294998255546 10.156236319526556 23.292371276942678 10.667132016914195 C 23.516448355197976 11.178027714301834 23.8167114264396 11.621700306316313 24.193160490667548 11.998149310199494 C 24.569609615240264 12.374598314082675 25.017763409682257 12.67486180773767 25.53762175330399 12.898938825648202 C 26.057480338304796 13.123014878042454 26.61319119789547 13.23505338699772 27.204754814834157 13.23505338699772 C 27.796317466256564 13.23505338699772 28.347546157903448 13.123014878042454 28.85844088977481 12.898938825648202 C 29.369336587162447 12.67486180773767 29.81749062298351 12.374598314082675 30.202903479996134 11.998149310199494 C 30.58831537149248 11.621700306316313 30.89305982619592 11.178027714301834 31.11713636134831 10.667132016914195 C 31.34121434477512 10.156236319526556 31.453252853730387 9.605007145121533 31.453252853730387 9.013444493699126 C 31.453252853730387 8.421882083655788 31.34121434477512 7.870652909250765 31.11713636134831 7.359757211863126 C 30.89305982619592 6.848862238612696 30.58831537149248 6.400708564860238 30.202903479996134 6.015295949226683 C 29.81749062298351 5.629884118075104 29.369336587162447 5.325139663371665 28.85844088977481 5.101062554943983 C 28.347546157903448 4.876985476688684 27.796317466256564 4.764946937561035 27.204754814834157 4.764946937561035 Z"
     style="fill:#ffffff;stroke:none"
     id="path4" />
  <path
     d="M 42.791217630075664 2.9892379897054955 C 43.068835731278675 2.9892379897054955 43.408691041004865 3.095985977015074 43.50778172773154 3.340333519869274 L 43.47130011263709 11.279334014803599 L 43.47130011263709 11.279334014803599 C 43.33048932130826 10.960512872387417 42.91219094789365 10.367342335933275 41.66974612501964 9.632436990092634 L 42.61300693482894 3.06154244747758 C 42.65725846576657 3.0145252182361735 42.656098295835605 2.9892379897054955 42.791217630075664 2.9892379897054955 ZM 43.47130011263709 11.279334014803599 L 43.47130011263709 11.279334014803599 C 43.47130011263709 11.279334014803599 43.47130029167566 11.279334014803599 43.47130029167566 11.279334014803599 L 43.47130011263709 11.279334014803599 L 43.47130011263709 11.279334014803599 ZM 42.65921016521369 2.25 C 42.446704811000096 2.25 42.254900701876345 2.280338063237631 42.11910334857324 2.317373030601139 L 40.9532527923584 10.098160711168036 C 41.56997155571676 10.520569989179059 43.264807589744684 11.67797341616124 43.19722267818634 12.683307927520042 L 43.2098602946596 15.75000086141948 L 44.07063691646657 15.73816856043225 L 44.065809678553215 3.119482909369111 C 43.80984432291815 2.427915471835376 43.173828603490534 2.25 42.65921016521369 2.25 Z"
     style="fill:#ffffff;stroke:none"
     id="path6" />
  <path
     d="M 58.95352681353688 4.029639604501426 L 58.95352681353688 5.785550680942833 L 46.02147902082652 5.785550680942833 L 46.02147902082652 4.029639604501426 ZM 46.06893607694656 2.25 L 46.06893607694656 3.578797571361065 L 45.57063698768616 3.578797571361065 L 45.57063698768616 6.236392714083195 L 59.404368846677244 6.236392714083195 L 59.404368846677244 3.578797571361065 L 59.00098386965692 3.578797571361065 L 59.00098386965692 2.25 L 58.55014183651656 2.25 L 58.55014183651656 3.578797571361065 L 57.434901017695665 3.578797571361065 L 57.434901017695665 2.25 L 56.984058984555304 2.25 L 56.984058984555304 3.578797571361065 L 55.86881816573441 3.578797571361065 L 55.86881816573441 2.25 L 55.41797613259405 2.25 L 55.41797613259405 3.578797571361065 L 54.326463841833174 3.578797571361065 L 54.326463841833174 2.25 L 53.851893280632794 2.25 L 53.851893280632794 3.578797571361065 L 52.76038098987192 3.578797571361065 L 52.76038098987192 2.25 L 52.30953895673156 2.25 L 52.30953895673156 3.578797571361065 L 51.194298137910664 3.578797571361065 L 51.194298137910664 2.25 L 50.7434561047703 2.25 L 50.7434561047703 3.578797571361065 L 49.62821528594941 3.578797571361065 L 49.62821528594941 2.25 L 49.17737325280905 2.25 L 49.17737325280905 3.578797571361065 L 48.08586096204817 3.578797571361065 L 48.08586096204817 2.25 L 47.63501892890781 2.25 L 47.63501892890781 3.578797571361065 L 46.51977811008692 3.578797571361065 L 46.51977811008692 2.25 Z"
     style="fill:#ffffff;stroke:none"
     id="path8" />
  <path
     d="M 46.89943455904722 12.54664921760559 L 46.614692222326994 13.163590947166085 L 45.71300815604627 15.180515832267702 L 45.57063698768616 15.46525816898793 L 46.16385018918663 15.750000505708158 L 46.30622135754675 15.44152964092791 L 46.92316308710724 14.041546485386789 L 47.23163395188749 14.587302630767226 L 47.51637628860772 15.156787304207683 L 47.801118625327945 14.587302630767226 L 48.13331801816821 13.99408942926675 L 48.44178888294846 14.587302630767226 L 48.726531219668686 15.156787304207683 L 49.011273556388915 14.587302630767226 L 49.31974442116916 13.99408942926675 L 49.65194381400943 14.587302630767226 L 49.936686150729656 15.156787304207683 L 50.221428487449884 14.587302630767226 L 50.52989935223013 14.01781795732677 L 50.83837021701038 14.587302630767226 L 51.146841081790626 15.156787304207683 L 51.431583418510854 14.587302630767226 L 51.7400542832911 13.99408942926675 L 52.04852514807135 14.587302630767226 L 52.356996012851596 15.156787304207683 L 52.641738349571824 14.587302630767226 L 52.95020921435207 13.99408942926675 L 53.25868007913232 14.587302630767226 L 53.567150943912566 15.156787304207683 L 53.851893280632794 14.587302630767226 L 54.16036414541304 13.99408942926675 L 54.46883501019329 14.587302630767226 L 54.75357734691352 15.156787304207683 L 55.062048211693764 14.587302630767226 L 55.37051907647401 13.99408942926675 L 55.67898994125426 14.587302630767226 L 55.963732277974486 15.156787304207683 L 56.272203142754734 14.587302630767226 L 56.58067400753498 13.99408942926675 L 56.91287340037525 14.611031158827245 L 57.197615737095475 15.133058776147664 L 57.50608660187572 14.611031158827245 L 57.83828599471599 13.970360901206732 L 58.668784476816654 15.46525816898793 L 58.83488417323679 15.750000505708158 L 59.404368846677244 15.44152964092791 L 59.26199767831713 15.156787304207683 L 58.12302833143622 13.116133891046047 L 57.83828599471599 12.617834801785648 L 57.55354365799576 13.139862419106066 L 57.197615737095475 13.75680414866656 L 56.86541634425521 13.139862419106066 L 56.55694547947496 12.594106273725629 L 56.29593167081475 13.139862419106066 L 55.963732277974486 13.733075620606542 L 55.65526141319424 13.139862419106066 L 55.37051907647401 12.57037774566561 L 55.08577673975378 13.139862419106066 L 54.777305874973536 13.733075620606542 L 54.44510648213327 13.139862419106066 L 54.16036414541304 12.57037774566561 L 53.87562180869281 13.139862419106066 L 53.54342241585255 13.733075620606542 L 53.2349515510723 13.139862419106066 L 52.95020921435207 12.57037774566561 L 52.66546687763184 13.139862419106066 L 52.356996012851596 13.733075620606542 L 52.02479662001133 13.139862419106066 L 51.7400542832911 12.57037774566561 L 51.45531194657087 13.139862419106066 L 51.146841081790626 13.709347092546523 L 50.83837021701038 13.139862419106066 L 50.52989935223013 12.57037774566561 L 50.2451570155099 13.139862419106066 L 49.936686150729656 13.733075620606542 L 49.62821528594941 13.139862419106066 L 49.31974442116916 12.57037774566561 L 49.035002084448934 13.139862419106066 L 48.726531219668686 13.733075620606542 L 48.41806035488844 13.139862419106066 L 48.13331801816821 12.57037774566561 L 47.824847153387964 13.139862419106066 L 47.51637628860772 13.733075620606542 L 47.20790542382747 13.139862419106066 L 46.89943455904722 12.54664921760559 Z"
     style="fill:#ffffff;stroke:none"
     id="path10" />
  <path
     d="M 63.669078370394004 4.553593152303819 C 63.46648223830228 4.651139438125763 63.2188647435235 4.921267614248069 63.59404276591559 4.96628897693512 C 63.77412821666379 4.958785416487278 64.1868240412951 4.771196405291232 64.11178843681667 4.59861451499087 L 64.11178843681667 4.59861451499087 C 64.07290630922503 4.635450154553867 64.03346613180396 4.648844953394093 63.99361995424024 4.648844953394093 C 63.887363786057634 4.648844953394093 63.778220963730575 4.553593152303819 63.669078370394004 4.553593152303819 ZM 62.19087707666441 4.621125196334395 C 61.94325958188563 4.681153679917131 61.815699054272315 4.9512818560394365 62.13084859308167 5.01131033962217 C 62.13598920064069 5.011777709216716 62.14149367409177 5.012004867784961 62.14732159661307 5.012004867784961 C 62.32864325253332 5.012004867784961 62.82309807148401 4.792071407549097 62.41598389009967 4.7411821634998645 C 62.34845184606909 4.696160800812814 62.28091980203851 4.621125196334395 62.19087707666441 4.621125196334395 ZM 64.16431335995156 2.737731409430849 C 64.60702342637424 3.2554770803319357 64.99720879865251 3.8557619161592824 65.07224440313092 4.546089591855977 C 65.14728000760934 5.041324581413538 65.16979068895286 5.536559570971099 65.24482629343129 6.024291000080819 C 64.89215895238272 5.994276758289452 64.99720879865251 5.446516845596998 65.06474084268308 5.183892229922533 C 65.1247693262658 4.666146559021446 64.84713758969566 4.1859186903595695 64.65204478906128 3.728201388545971 C 64.51698070100014 3.4805838937671902 64.38942017338682 3.090398750479415 64.0442563927861 3.0828951900315733 C 63.66157480994616 3.1504272340621498 63.41395731516738 3.4730803333193485 63.1663398203886 3.750712069889497 C 62.911218765161976 3.495591014662874 62.64109070353492 3.217959278092726 62.288423362486355 3.1129094318229407 C 62.270031075144736 3.1061333169211403 62.24926598832312 3.103478286659528 62.2274652920006 3.103478286659528 C 62.148504447000434 3.103478286659528 62.05595862655628 3.138308198501497 62.0133636471244 3.138308198501497 C 61.976559722744575 3.138308198501497 61.977047701483414 3.1123050686664477 62.05581298860326 3.015363146000997 C 62.10345938379744 2.847199398256807 62.20240262611695 2.797332539507548 62.324879793794295 2.797332539507548 C 62.50338475216545 2.797332539507548 62.73187982341829 2.9032586751432934 62.924413426312036 2.9032586751432934 C 62.95344667283489 2.9032586751432934 62.981661965319674 2.900849981403647 63.008765050983925 2.8953061788355274 C 63.072083440967845 2.8989591496620717 63.135599220756035 2.900833723078702 63.199152554984934 2.900833723078702 C 63.52723181294489 2.900833723078702 63.85630420266945 2.850877615285114 64.16431335995156 2.737731409430849 ZM 64.0442563927861 3.3080020034668283 C 64.33689525025193 3.383037607945247 64.4044272942825 3.7882298721287055 64.5469949427915 4.028343806459644 C 64.72708039353971 4.448543306034033 64.94468387551761 4.906260493352385 64.80211622700861 5.378984801566421 C 64.6895625913005 5.604091615001676 64.83213046879999 5.889226912019666 64.8171233479043 6.054305241872186 C 64.56686627972213 6.230161009239284 64.34709334182128 6.601114615031589 64.01491767294667 6.601114615031589 C 63.9785821486186 6.601114615031589 63.940901305148955 6.596675863331121 63.9016887442771 6.587057804678464 C 63.57153208457206 6.519525760647888 63.40645375471954 6.204376221838531 63.15133269949292 6.054305241872186 C 62.96661637402131 6.232424351264017 62.857299976901174 6.601943560613291 62.55312251752475 6.601943560613291 C 62.5113230510627 6.601943560613291 62.465844050877024 6.594965762335501 62.41598389009967 6.579554244230622 C 62.13835215352952 6.519525760647888 61.77067769158527 6.549540002439255 61.68813852665901 6.211879782286372 C 61.54557082090239 5.86671623067614 61.5305637000067 5.484034647836206 61.508053018663176 5.108856625444115 L 61.508053018663176 5.108856625444115 C 61.52457628560761 5.112034097513641 61.539807817185626 5.113543144857125 61.55385689910964 5.113543144857125 C 61.70568767100841 5.113543144857125 61.71942378017724 4.93730061254873 61.733159889346055 4.786203526186916 C 61.79143104264416 4.566566150657444 61.948775161375586 4.464745070327433 62.123615355909855 4.464745070327433 C 62.24145878648264 4.464745070327433 62.367250477039086 4.51100069176735 62.4760123736824 4.59861451499087 C 62.60357290129571 4.7411821634998645 62.99375793008824 4.853735570217492 62.911218765161976 5.078842383652747 C 62.87370096292277 5.2139064717139005 62.82867971473097 5.356474120222895 62.783658352043915 5.499041768731891 L 63.09880777635803 5.919241153811033 C 63.12882201814939 5.70163790082362 63.451475117406595 5.521552450075415 63.26388610621055 5.303949197088002 C 63.23387186441918 5.206402911266059 63.12131845770155 5.078842383652747 63.13632557859724 5.0038067791743295 C 63.271389666658386 4.763692844843391 63.451475117406595 4.553593152303819 63.66157480994616 4.373507701555615 C 63.71840360938163 4.31835030372259 63.775977314888166 4.296701313601148 63.833631854038444 4.296701313601148 C 64.03480549719274 4.296701313601148 64.23696723432079 4.560278987704077 64.41193085473034 4.5836073940951865 C 64.58451274503071 4.396018382899141 64.39692373383467 4.320982778420722 64.2243418435343 4.223436492598778 C 64.11745343260279 4.122656059560493 63.98819196361354 4.076565769255932 63.85932183937543 4.076565769255932 C 63.67155810843385 4.076565769255932 63.48462584196938 4.174408254279515 63.368935952480335 4.343493459764248 C 63.22634998473196 4.429044994615171 63.12711580999214 4.714014273526328 63.002035020418674 4.714014273526328 C 62.96255705956638 4.714014273526328 62.92050410062949 4.685626551200935 62.87370096292277 4.613621635886554 C 62.644698448739256 4.430419624539743 62.370053549653896 4.224396420742008 62.0696658829231 4.224396420742008 C 62.02556323009068 4.224396420742008 61.98090561880046 4.228837233356907 61.93575602143779 4.2384436134944625 C 61.723453726601534 4.28236834071445 61.53257864459504 4.711984043822637 61.51643653232485 4.711984043822637 C 61.516033509058616 4.711984043822637 61.515739370771406 4.711716353937275 61.51555657911102 4.711167921708498 C 61.508053018663176 4.358500580659931 61.67313140576332 4.043350927355329 61.77067769158527 3.698187146754604 C 61.82511909339686 3.471348134741233 62.01945422174023 3.3405145315279086 62.21768831394637 3.3405145315279086 C 62.34732132000918 3.3405145315279086 62.47862172034082 3.396463778482901 62.57355865950434 3.5181016960063998 C 62.796934991790174 3.6010701036102564 62.96059896186773 3.993456532499384 63.17074491048672 3.993456532499384 C 63.20766848239872 3.993456532499384 63.24602713772522 3.9813427064724283 63.28639678755407 3.9533082019812262 C 63.519007161437166 3.7056907072024456 63.70659617263321 3.413051849736614 64.0442563927861 3.3080020034668283 ZM 62.978750809192555 8.5154732977548 C 63.93170298606847 9.49843971642208 64.80961978745646 11.98962178510557 65.03472660089172 13.010106006012059 C 64.66705190995697 12.709963588098386 64.16431335995156 12.514871016454498 64.05175995323394 12.327282005258452 C 63.93170298606847 12.132189433614565 63.601546326363426 10.233788640310578 62.978750809192555 8.5154732977548 ZM 66.37036036060756 6.729625453187459 C 68.17121486808959 7.765117252970617 71.30770267730651 12.860034797055222 71.97551955716442 13.677922885869982 C 70.84998548998814 12.965084643325008 69.73945854370756 12.244742840332192 68.53138531160502 11.659465125400528 C 66.83558110837376 10.826569915690085 65.38739394194027 9.475929035078554 64.00673859054689 8.215330879841126 C 65.14728000760934 7.832649297001193 65.9651680964241 7.187342640505811 66.37036036060756 6.729625453187459 ZM 64.50197358010445 13.197695017208105 C 64.74208751443538 13.3402626657171 64.95969099641329 13.535355237360987 65.22231561208775 13.640405083630773 C 65.06474084268308 14.030590226918548 64.96719455686113 14.465796732893377 64.64454122861345 14.773442711254893 C 64.58394393264813 14.870924879739023 64.49744437715957 14.901801041742965 64.39868467071955 14.901801041742965 C 64.22799698977052 14.901801041742965 64.0206875463782 14.809571915149503 63.847186488242215 14.809571915149503 C 63.83516952519345 14.809571915149503 63.82331514539413 14.8100143247804 63.811646018903 14.810960513494098 C 64.02174571144258 14.28571128214517 64.33689525025193 14.053100908262074 64.50197358010445 13.197695017208105 ZM 65.01221591954818 6.174361980047164 C 65.05762381818604 6.268421198654149 65.11564955092415 6.299391704740871 65.17720265320384 6.299391704740871 C 65.25805095233582 6.299391704740871 65.34498581875002 6.2459608952189045 65.41740818373165 6.211879782286372 C 65.59749363447985 6.339440309899683 66.22028915165072 6.324433189004 65.85261468970647 6.594561365126306 C 65.62000431582338 6.909710903935663 64.37682432237382 7.769121838697908 63.513342394641555 7.92070438490315 C 63.140520913404515 7.986152157473879 63.766624656215946 8.575501781337536 63.96922078830768 8.785601473877106 C 65.1397764471615 9.836099936574964 66.2878211956813 10.946626882855554 67.69098699942772 11.70448648808758 C 68.56890311384423 12.199721477645141 69.49184104892878 12.64243154406781 70.33974337953491 13.190191456760264 C 70.74493564371836 13.775469171691926 71.22516351238023 14.315725523936537 71.53280949074176 14.961031722450938 C 71.22516351238023 15.051074447825037 70.92502109446657 15.17863497543835 70.60987155565721 15.253670579916767 C 70.44360430716928 15.295737965254663 70.26343184003404 15.315344131195342 70.08291863504644 15.315344131195342 C 69.58727421048886 15.315344131195342 69.08905868068504 15.167531684453397 68.8690455317579 14.931017480659568 C 68.46385326757445 14.503314535132583 68.02114365913276 12.67994934630702 67.78853328524967 12.012132466449096 C 67.75537363005768 11.936970459218992 67.7085368307486 11.911957369776895 67.65761713096391 11.911957369776895 C 67.55627509874354 11.911957369776895 67.4387599260413 12.011034228048587 67.38070213463429 12.011034228048587 C 67.36891553602067 12.011034228048587 67.3595791356734 12.006950869591986 67.35332677927484 11.997125345553412 C 67.33824683940264 11.812395967623743 67.19625945280083 11.714797471969582 67.06345275301162 11.714797471969582 C 66.9319288579596 11.714797471969582 66.8094097850222 11.810519161549815 66.82807754792591 12.012132466449096 C 66.78305618523886 12.48485677466313 66.69301345986476 12.957581082877166 66.4679066464295 13.38528402840415 C 66.44032428366512 13.458180861685584 66.38273775469102 13.486071903633434 66.30682878047541 13.486071903633434 C 66.09363451042448 13.486071903633434 65.73591243325149 13.26606608240204 65.49244378821007 13.205198577655947 C 65.589990074032 12.627424423172126 64.80211622700861 9.67102160672244 62.49101949457808 7.194846200953653 C 62.41028019492038 7.107378702654637 62.058051828645326 6.7363559417336925 62.088912533791046 6.7363559417336925 C 62.09246852714415 6.7363559417336925 62.101110971804864 6.7412819852015256 62.11584147218599 6.752136134530985 C 62.234113000483916 6.78298939748571 62.3673615374278 6.804151782811264 62.499285593364895 6.804151782811264 C 62.75236920568732 6.804151782811264 63.00057864088839 6.7262689105530455 63.12882201814939 6.489511518856521 C 63.14834941136076 6.430929339222412 63.17281727444097 6.407990903639488 63.201307584506864 6.407990903639488 C 63.304189119806175 6.407990903639488 63.45952115633042 6.7071147718439335 63.62405700770695 6.7071147718439335 C 63.743397692612874 6.786675228447882 63.876726490724266 6.823196006084127 64.0093745001024 6.823196006084127 C 64.22701759743545 6.823196006084127 64.44282854184056 6.724879854227465 64.59201630547855 6.557043562887097 C 64.73458395398755 6.429483035273786 64.8696482710392 6.301922507660475 65.01221591954818 6.174361980047164 ZM 64.23184540398215 2.25 C 63.996058245000995 2.354794316137357 63.58304412358556 2.4595886376416782 63.212371947108146 2.4595886376416782 C 63.15838583564263 2.4595886376416782 63.105297824887465 2.4573657267507203 63.05378641367098 2.4525961410366706 C 63.018613474071714 2.458927270164537 62.98291294037847 2.461697139157979 62.94682083294359 2.461697139157979 C 62.694176195394675 2.461697139157979 62.42234433001053 2.3259735584793395 62.177980332144685 2.3259735584793395 C 62.08488928533865 2.3259735584793395 61.995784505020524 2.3456704046549244 61.913245340094264 2.400071217901778 C 61.50054945821534 3.000356025105313 61.125371464447056 3.668172904963236 61.080350101760004 4.411025503794824 C 60.997810936833744 5.836701988884773 61.03532873907296 6.331936749451842 62.16086283487304 7.502492179315168 C 62.60357290129571 8.507969737306958 63.42896443606307 11.78702565301384 63.67658193084185 12.67994934630702 C 63.946710106964154 12.935070401533642 63.338921710688965 14.330732644832224 63.08380065546234 14.675896425432946 C 62.94498478717727 14.867237216852915 62.579186329840226 14.876616667412716 62.18618735138451 14.876616667412716 C 62.143469976534554 14.876616667412716 62.100431442519316 14.876505836014498 62.05732798969954 14.876505836014498 C 61.70387967657738 14.876505836014498 61.34607398925092 14.883957186630123 61.125371464447056 15.02106020603367 C 60.91527177280198 15.156124294094823 60.84023616742907 15.658862844100229 60.96029313459454 15.726394888130805 C 61.07284654131217 15.553812997830441 61.29795335474742 15.321202623947343 61.45552809552829 15.298691942603819 L 61.45552809552829 15.298691942603819 C 61.305456915195265 15.4562667120085 61.830706175168004 15.381231107530079 61.94325958188563 15.41874890976929 C 62.24677823561604 15.423807767722588 62.55370713025129 15.449328300095363 62.86174720124985 15.449328300095363 C 63.01062765964734 15.449328300095363 63.159767564272464 15.443367219602862 63.308907468897594 15.426252470217129 C 63.37645164942426 15.39670170518194 63.44874577973027 15.350526230414289 63.48035952010953 15.350526230414289 C 63.504937985597465 15.350526230414289 63.50492745203483 15.378436507563482 63.45897867785443 15.463770272456339 C 63.67138705253619 15.519181391754703 63.91008032985363 15.546886493422901 64.14336347780275 15.546886493422901 C 64.66825090417404 15.546886493422901 65.1657503807088 15.406627985037074 65.27484053522265 15.126110052303456 C 65.49994734865791 14.713414227672155 65.71004704119747 14.278207721697331 65.86011825015431 13.827994094826819 C 66.05164635579689 13.86862158794987 66.29255626107866 14.00352171881862 66.48562135090475 14.00352171881862 C 66.54216093534859 14.00352171881862 66.59459746815351 13.991952203191582 66.64048853672986 13.963058182887972 C 66.85058822926943 13.820490534378978 67.06819148225685 13.152673654521054 67.18824844942232 12.709963588098386 C 67.19974880992072 12.663963062066763 67.26216658029888 12.641463372266863 67.32547787157755 12.641463372266863 C 67.38609394476323 12.641463372266863 67.44752934592994 12.662088087916771 67.46588018599246 12.702460027650543 C 67.69098699942772 13.152673654521054 68.06616502181981 14.533328776923954 68.42633546533524 15.111102931407773 C 68.6980171129565 15.539346294496308 69.3568392462815 15.750000144026963 70.0577049499332 15.750000144026963 C 70.49891283872714 15.750000144026963 70.9567820757323 15.666519370196848 71.3452204795457 15.501288074695548 C 71.83295190865543 15.291188382155976 72.19312281015183 15.33620974484303 72.08807296388206 15.06608156872072 C 71.92299463402954 14.615867941850212 71.63785933701155 14.188164996323227 71.33771691909787 13.805483413483294 L 71.33771691909787 13.805483413483294 C 71.77292342507269 14.0756115896056 72.20812993104752 14.353243326175747 72.64333643702234 14.623371502298053 C 72.67923390253887 14.7541415606498 72.76945615645884 14.806051873303671 72.86160559436102 14.806051873303671 C 73.03911993986301 14.806051873303671 73.2237842844929 14.613414079735982 73.04102514075797 14.420775370206323 C 71.33771691909787 11.959607543314203 68.62893159742697 7.765117252970617 66.75304194344749 6.40697235393026 C 66.45289952553382 6.144347738255796 66.10023218448525 5.941751835154559 65.71004704119747 5.8442055493326155 C 65.58248651358417 5.514048889627574 65.62000431582338 5.071338823204906 65.54496871134495 4.696160800812814 C 65.46993310686653 3.9533082019812262 65.01971947999603 2.722724288535165 64.23184540398215 2.25 Z"
     style="fill:#ffffff;stroke:none"
     id="path12" />
  <path
     d="M 75.85032035384174 2.25 C 75.59877574115492 2.25 75.34772045810011 2.269182611264559 75.1043925796248 2.2995564581199823 C 74.76895778415789 2.3843157348110164 74.94133306617383 2.7686632530247515 75.23914715414669 2.7686632530247515 C 75.25911269282244 2.7686632530247515 75.27964198371878 2.766935830454775 75.3006198119496 2.7632749330552384 C 75.9299420252729 2.83570345889602 76.7047035035708 2.8757716375135147 77.18011250825961 3.232464202245255 C 77.81077762003115 3.919865572373549 77.527428538583 5.348381581489431 77.60085414027574 6.02652341147594 C 77.60611825948776 6.0630380783058655 77.60831721788493 8.766162581920678 77.60831721788493 10.135981633328903 C 76.99887139627535 9.84398244955337 76.3106780238954 9.697009892419143 75.63233503494564 9.697009892419143 C 75.33084863929591 9.697009892419143 75.03130804068556 9.726041552578508 74.74149143388566 9.784275693423318 C 74.41087681332213 9.957946075279352 74.7990190383475 10.180804227619914 75.05851819353207 10.180804227619914 C 75.08942349685235 10.180804227619914 75.11850413445943 10.177643336135256 75.14432868372616 10.17086176124991 C 76.06392732912877 10.270249413835984 77.10952412874221 10.516636670139583 77.57659833732468 11.372084512178846 C 77.62273482616212 11.526902713725455 77.59386437787424 11.580101207811888 77.52348792257202 11.580101207811888 C 77.36884712525925 11.580101207811888 77.01380395726345 11.32324265325963 76.81378415338358 11.32324265325963 C 76.80328758793212 11.32324265325963 76.79321807379583 11.323950134938475 76.78362667919453 11.325439120524132 C 76.39956964484415 11.242486537803458 75.99709824675145 11.198984955580794 75.5983693306533 11.198984955580794 C 75.30640689108468 11.198984955580794 75.01645105888335 11.222309074912536 74.73720059131169 11.270546656220748 C 74.42170831378557 11.47882100614729 74.80893852846705 11.670692315057073 75.06558433584067 11.670692315057073 C 75.09377635083604 11.670692315057073 75.12039263544736 11.668376985176506 75.14432868372616 11.663514294200782 C 76.08295789233132 11.776710651063793 77.1216459803241 12.031173447737789 77.57659833732468 12.888059740957079 C 77.5817909254414 13.840655351434203 77.57630829830644 14.470207282777462 77.60178689152336 15.346271738810112 C 77.59081772261639 15.615968879401612 77.76615787511486 15.750000358180948 77.94379591956518 15.750000358180948 C 78.12007985547022 15.750000358180948 78.29862716334583 15.618004490670723 78.29960190797276 15.355607080560343 C 78.29310966035347 14.49241822168092 78.23149362896838 13.734749472273819 78.34467753016803 12.897478357713775 C 78.57298307791004 11.958167601900273 80.20273474158776 11.814017142207314 81.21493888639243 11.581988774625064 C 81.43579915033007 11.322336592719218 81.00117479180902 11.225919082030344 80.7210305525434 11.225919082030344 C 80.67919162344123 11.225919082030344 80.64079828670053 11.22806999715456 80.60854879488114 11.232148337214703 C 80.47880562305859 11.222199465074969 80.34822792179092 11.217067020018478 80.21745164166168 11.217067020018478 C 79.55582175077731 11.217067020018478 78.88910461110063 11.348428716325635 78.29960190797276 11.651956862107136 C 78.27558988014745 11.085787886965592 78.83314202737658 10.760019620440762 79.23250974106706 10.53246746239398 C 79.86281648560993 10.261378846267126 80.5567389293213 10.234760737790822 81.21493888639243 10.08933624167419 C 81.44991533155394 9.885323863873325 81.0800888925923 9.71366347020749 80.82400685968152 9.71366347020749 C 80.7902399121888 9.71366347020749 80.75845021228544 9.716647847148533 80.73028617804812 9.722936889517019 C 80.56894405590967 9.70741215070518 80.4066691825236 9.699490348808254 80.24441139119014 9.699490348808254 C 79.56761334934212 9.699490348808254 78.89110641414062 9.837307637496822 78.28374264563068 10.135981633328903 C 78.29618656507947 7.997630358807127 78.33082754426395 5.9281745612140835 78.26945884676559 3.9053616641430824 C 78.22018032787659 3.2799076460452463 77.85981521080316 2.705846762598841 77.25361658063152 2.5188064716922396 C 76.81821765778754 2.320738559229909 76.33336672645774 2.25 75.85032035384174 2.25 Z"
     style="fill:#ffffff;stroke:none"
     id="path14" />
  <path
     d="M 40.9532527923584 0.375 C 31.328252851963043 0.375 31.328252851963043 17.625 40.9532527923584 17.625 "
     style="fill:none;stroke:#ffffff;stroke-width:1"
     id="path16" />
  <path
     d="M 40.9532527923584 0.375 L 81.28899574279785 0.375 "
     style="fill:none;stroke:#ffffff;stroke-width:1"
     id="path18" />
  <path
     d="M 40.9532527923584 17.625 L 81.28899574279785 17.625 "
     style="fill:none;stroke:#ffffff;stroke-width:1"
     id="path20" />
  <path
     d="M 88.97649574279785 0.375 L 88.97649574279785 17.625 "
     style="fill:none;stroke:#ffffff;stroke-width:1"
     id="path22" />
  <path
     d="M 81.28899574279785 0.375 C 90.91399765014648 0.375 90.91399765014648 17.625 81.28899574279785 17.625 "
     style="fill:none;stroke:#ffffff;stroke-width:1"
     id="path24" />
</svg>
