<?xml version="1.0" encoding="UTF-8" standalone="no"?>
<svg
   width="81.50537872314453"
   height="18.0"
   version="1.1"
   id="svg12"
   sodipodi:docname="ankhmesutnebty.svg"
   inkscape:version="1.1.1 (3bf5ae0d25, 2021-09-20)"
   xmlns:inkscape="http://www.inkscape.org/namespaces/inkscape"
   xmlns:sodipodi="http://sodipodi.sourceforge.net/DTD/sodipodi-0.dtd"
   xmlns="http://www.w3.org/2000/svg"
   xmlns:svg="http://www.w3.org/2000/svg">
  <defs
     id="defs16" />
  <sodipodi:namedview
     id="namedview14"
     pagecolor="#ffffff"
     bordercolor="#666666"
     borderopacity="1.0"
     inkscape:pageshadow="2"
     inkscape:pageopacity="0.0"
     inkscape:pagecheckerboard="0"
     showgrid="false"
     inkscape:zoom="16.870052"
     inkscape:cx="40.752689"
     inkscape:cy="8.9804108"
     inkscape:window-width="1920"
     inkscape:window-height="1001"
     inkscape:window-x="-9"
     inkscape:window-y="-9"
     inkscape:window-maximized="1"
     inkscape:current-layer="svg12" />
  <path
     d="M 22.77966110174755 0.5684490592972326 Q 22.633638086057772 0.6049545148491455 22.633638086057772 0.696219735092747 Q 22.633638086057772 0.7874840005506465 22.72490223216746 0.8422427507825265 Q 22.76140750869705 0.864146310549385 22.796453872674018 0.864146310549385 Q 22.84902246385376 0.864146310549385 22.898304682647282 0.8148638530594374 Q 22.980442987017422 0.7327252503187663 22.92568411743733 0.6505866475780953 Q 22.870925247857237 0.5684490592972326 22.77966110174755 0.5684490592972326 ZM 2.5609985348740345 0.46936116044907683 Q 2.359843567091113 0.46936116044907683 2.1720992805818096 0.7509784853246271 Q 2.2816167810455696 0.9335079710261279 2.5189051363271635 0.988266721258008 Q 2.5554108902496084 0.9973931597386192 2.589888440644617 0.9973931597386192 Q 2.762277147405363 0.9973931597386192 2.8839638690337397 0.7692307655447858 Q 2.8839638690337397 0.5136903090653525 2.6284226367909236 0.47718380921657794 Q 2.5945244026205927 0.46936116044907683 2.5609985348740345 0.46936116044907683 ZM 1.241199810550572 0.7874840005506465 Q 1.186441060318692 0.9152547360202673 1.2777053257765913 1.0247722364840275 L 0.5110819274186749 1.0977842217217681 Q 0.4928296471985162 0.9335079710261279 1.241199810550572 0.7874840005506465 ZM 1.9876164226822657 1.222624719872005 Q 1.9876164226822657 1.222624719872005 1.9876164226822657 1.222624719872005 L 1.9876164226822657 1.222624719872005 L 1.9876164226822657 1.222624719872005 ZM 2.125909851373434 1.2203396789907357 Q 2.284224539494109 1.2203396789907357 2.382007723680506 1.2529337952403716 Q 2.418033220394854 1.2649421350142038 2.3813761329386445 1.2649421350142038 Q 2.314213403607673 1.2649421350142038 2.0030587685814902 1.2246304859354444 L 2.0030585298850645 1.2246304859354444 Q 2.068468511363622 1.2203396789907357 2.125909851373434 1.2203396789907357 ZM 5.49470864855246 2.472162196565138 Q 5.540779445637364 2.472162196565138 5.621903767591998 2.539765559497574 Q 7.100390859290249 3.7627121350422854 9.290743732922557 5.405476312873666 Q 11.481095651769165 7.048240490705046 11.754889044883926 7.723598609145255 Q 9.966101851362767 7.468058331688141 8.697522964066787 6.318122547899043 Q 7.428944554163657 5.168188196288498 6.488918406955382 4.082139033390444 Q 5.548891782354257 2.996088915706688 5.439374520586923 2.667536414315408 Q 5.416389009597399 2.472162196565138 5.49470864855246 2.472162196565138 ZM 5.554353633962448 1.6040624432514505 Q 5.819804109613288 1.6040624432514505 6.059973769447039 1.7001303549242361 Q 11.736636406619128 6.007822446076134 12.558018495534819 7.303781245555012 Q 13.324641714870417 8.709256829408373 13.561929831455585 9.457627410479173 Q 13.461538888820648 9.568057924770454 13.322497266183765 9.568057924770454 Q 13.208735504578268 9.568057924770454 13.069100960020451 9.49413364179447 L 12.320730378949651 7.979140318780923 Q 11.754889044883926 6.683181519302044 9.555411284297772 5.104303007576006 Q 7.355932568925916 3.5254240184571173 6.370273871269948 2.603650986906491 Q 5.791486120478193 2.0623774824348997 5.483335241270446 2.0623774824348997 Q 5.266714415990388 2.0623774824348997 5.183833288344107 2.3298573550953035 Q 5.042689704984308 2.7853667564934774 4.685065172449792 2.7853667564934774 Q 4.533956013325552 2.7853667564934774 4.344197606377917 2.704041929541427 Q 4.508475169903898 1.8461543253997177 5.0560624335262725 1.6818780747040774 Q 5.315446678219568 1.6040624432514505 5.554353633962448 1.6040624432514505 ZM 6.023468492917445 8.033898710968165 Q 6.899609451413228 9.439374772214377 6.735331887887247 10.863103471725385 Q 6.5710557565398195 10.863103471725385 6.42503274085004 11.100391588310554 Q 6.365295618619811 10.697168400220765 6.0611810959671955 10.697168400220765 Q 5.99359993180233 10.697168400220765 5.913950753757259 10.717080456035607 Q 6.2972618860322065 9.311604394789393 6.023468492917445 8.033898710968165 ZM 2.768605228341677 0.3457626296377467 Q 2.854758883981503 0.3457626296377467 2.920469384259759 0.35853969124988744 Q 3.2490218856510396 0.42242505898469784 3.3037807552311325 0.5958278973462152 Q 3.3423147126810133 0.7178524937648807 3.3808493862201705 0.7178524937648807 Q 3.3970742983503825 0.7178524937648807 3.4132992104805946 0.696219735092747 Q 3.4680568865785597 0.6232077498550063 3.4863100022362077 0.5319425296114048 Q 3.887874488865229 1.061277632361834 3.5410688718163006 2.101695796338959 Q 3.1942632547673724 3.14211288618217 4.654497708200826 3.3428945327556163 Q 6.0052153772597965 6.445893402716877 7.556713976802937 8.06127814575821 Q 9.10821353113178 9.676662888799545 8.852672776281816 11.100391588310554 Q 8.262843406239485 10.66180027346223 7.547702231954776 10.66180027346223 Q 7.399740523897122 10.66180027346223 7.2464148297657305 10.680575179506013 Q 7.301173699345823 9.384615902634284 6.6258155809056145 8.125163811863553 Q 5.950456507679704 6.865711243699971 5.38461565100683 6.235985198314606 Q 4.818774316941105 5.6062591529292405 3.860495770164459 4.739244036173004 Q 2.9022162686021113 3.872229635506046 2.911342826430935 2.9504568426518447 Q 2.920469384259759 2.0286838111012186 3.166884297370177 1.6636248396982167 Q 3.4132992104805946 1.298565868295215 3.404172413955345 1.0795309867159075 Q 3.4003959978075793 0.9888957460132952 3.368491117486562 0.9888957460132952 Q 3.323292755836844 0.9888957460132952 3.221642928253844 1.170795132825594 Q 3.0482402390775927 1.4810953539967158 2.2633636653879217 1.4993485890025766 Q 2.2171959575542664 1.5004222455244558 2.1705229293878365 1.5004222455244558 Q 1.4237308477788386 1.5004222455244558 0.5475883974303962 1.2255549571913888 L 0.5475883974303962 1.2255549571913888 L 1.6245109428255198 1.298565868295215 Q 2.1565852064067235 1.4089965019347084 2.4153431116795185 1.4089965019347084 Q 2.627053474094281 1.4089965019347084 2.6558013554916937 1.3350723383069363 Q 2.7196867829006104 1.170795132825594 2.5554106515531827 1.1434162947766116 Q 2.3911342815093297 1.116036382593714 2.2177315923330783 1.116036382593714 Q 2.0443286644604015 1.116036382593714 1.953064399002502 1.170795132825594 L 1.9876164226822657 1.222624719872005 L 1.9876164226822657 1.222624719872005 Q 1.8278830423566574 1.2018226844347024 1.6062577078196592 1.170795132825594 Q 1.3689705460201929 0.7874840005506465 1.5332466773676203 0.6232077498550063 Q 1.5697521925936397 0.5684490592972326 1.6610164580515392 0.5684490592972326 Q 1.6245109428255198 0.7509784853246271 1.7249017661122432 0.8422427507825265 Q 1.7620839857045425 0.8760447306192765 1.798014123196905 0.8760447306192765 Q 1.8590952256508866 0.8760447306192765 1.9165579289907808 0.7783573830477161 Q 2.0078231492343823 0.6232077498550063 1.7522816782951405 0.5501957646172655 Q 2.4239901283895215 0.3457626296377467 2.768605228341677 0.3457626296377467 ZM 23.01695017311842 0.38591957359573165 Q 23.509778089767853 0.38591957359573165 23.747067161138723 0.7509784853246271 Q 23.82007771419791 0.8057372355565071 24.659714350949802 0.9517601915721803 L 24.659714350949802 1.0065190014781666 L 23.747067161138723 1.0795309867159075 Q 22.96219130353833 1.0795309867159075 22.76140750869705 0.9608868090751106 Q 22.56062562342718 0.8422427507825265 22.56975337473813 0.6870931175898166 Q 22.578879216477677 0.5319425296114048 22.816166378277146 0.5319425296114048 Q 23.053455449648016 0.5319425296114048 23.144719595757703 0.614081132352076 Q 23.23598374186739 0.696219735092747 23.190352623598248 0.7874840005506465 Q 23.144719595757703 0.8787482063344395 23.01695017311842 0.9335079710261279 Q 23.036506093866425 0.9348116712280785 23.054711947631823 0.9348116712280785 Q 23.291393775296232 0.9348116712280785 23.299870362758433 0.7144720153129057 Q 23.30899620449798 0.47718380921657794 22.907432433958235 0.4406782939905586 Q 22.3963490146869 0.4406782939905586 22.524120346897586 0.8148638530594374 Q 22.645949092899134 1.171644176011082 23.64728059785314 1.171644176011082 Q 23.69612743436656 1.171644176011082 23.747067161138723 1.170795132825594 Q 24.312907540418745 1.1342897369477876 24.75097849705949 1.0430254714898881 L 24.714473220529893 0.9700134862521473 L 24.714473220529893 0.9700134862521473 Q 26.338983805310775 1.9739250608693384 26.238591907890136 3.2607569444747537 Q 26.138201920040903 4.547588947428382 24.97001397537986 5.396349993741268 Q 23.801826030718814 6.245110562661302 22.889178840907736 7.267275491632566 Q 21.465450141396726 9.001303815573634 21.35593240223654 9.986962513229603 Q 21.246414663076354 10.97262121088557 21.848762228457378 10.97262121088557 Q 22.451107884266992 10.97262121088557 23.318122046237526 10.251630064604818 Q 24.185138117779466 9.530638918324064 25.079531714540046 9.512386280059266 Q 27.470664563870823 9.567144194853658 27.196872125541763 11.720991791956372 Q 26.320730212260276 10.790091963880496 25.225554730229824 10.790091963880496 Q 24.677966034428895 10.790091963880496 23.728813568088224 11.264668197050833 Q 22.286831275526716 12.031291416386429 21.53846260402732 12.031291416386429 L 20.9178614455958 11.94002631549104 Q 19.786180687035753 11.100391588310554 20.151239181045902 9.457627410479173 Q 20.69882596727543 8.271186827553333 21.629726750137007 5.222947065868591 Q 22.26857959204762 3.488918503231098 22.898304682647282 2.594524429077667 Q 23.52803168281835 1.7001303549242361 24.239896987359558 1.6818780747040774 Q 24.623207164848804 1.6818780747040774 25.48109548507979 2.0469359719731646 Q 25.516527582480354 2.0565995967593533 25.54286630085524 2.0565995967593533 Q 25.665772045128623 2.0565995967593533 25.590613224239974 1.8461543253997177 Q 24.90056286341766 1.4183230873680976 23.98094382841071 1.4183230873680976 Q 23.68429382037619 1.4183230873680976 23.36375507407807 1.4628421189908551 Q 23.08996072617761 1.4628421189908551 22.697522797377413 1.3168191033010757 Q 22.305084868577215 1.170795132825594 22.305084868577215 0.6232077498550063 Q 22.633638086057772 0.38591957359573165 23.01695017311842 0.38591957359573165 ZM 5.183833288344107 3.0508475465903557 Q 6.607562465247967 4.876141210123237 7.794002570780957 6.05345547391668 Q 8.980443153706798 7.2307702151029725 10.029987517468108 7.641461259560818 Q 11.079530926443718 8.052151349232961 11.973924523204298 8.070405897069161 Q 12.083442262364484 8.21642795797324 14.146023803786107 12.68839689656184 L 14.018253426361124 12.743155766141934 L 9.10821353113178 9.603651380954656 Q 9.144719762447076 9.329857033054191 7.657105874223576 7.641461259560818 Q 6.169491508607224 5.953063576496041 5.037810272654327 3.178618401408189 L 5.183833288344107 3.0508475465903557 ZM 10.22164260621273 10.917862341305478 L 12.941329627809766 12.578879157401655 Q 13.032594728705156 12.83441991225162 12.284224147634355 12.92568501314701 Q 12.117919574063066 12.945966571028519 11.97865548635762 12.945966571028519 Q 11.491235475924217 12.945966571028519 11.33507072650798 12.69752369308709 Q 11.13428979602381 12.378097272131784 10.823990171593753 11.867014807646152 Q 10.51368863759229 11.35593329794622 10.22164260621273 10.917862341305478 ZM 19.51238633913529 10.132986483705084 Q 19.51238633913529 10.899609703040682 19.73142181745566 11.465450082320704 Q 20.297262196735684 12.469361418241471 21.246414663076354 12.487615011291968 Q 21.271391857040214 12.488095268500066 21.296634481429226 12.488095268500066 Q 22.230630679536628 12.488095268500066 23.52803168281835 11.830508576330855 Q 24.760560726364584 11.205802794166512 25.321529788993093 11.205802794166512 Q 25.367013870264127 11.205802794166512 25.408083022449198 11.20990932747074 Q 25.955671718250127 11.264668197050833 26.594524560160743 11.775749706750762 Q 27.233377402071355 12.286832171236394 27.26988267860095 12.670144258297045 Q 27.336545816313357 12.981237309645449 27.213848215323008 12.981237309645449 Q 27.134969549339438 12.981237309645449 26.97783664722139 12.85267350530212 Q 26.453025319126954 11.803050849113246 25.632165497990247 11.803050849113246 Q 25.625090535938558 11.803050849113246 25.617992659030023 11.80312914154081 Q 24.78748377358908 11.812255938066059 23.573664710658896 12.451108779976673 Q 22.359843738157306 13.089961621887287 20.744458995115973 13.089961621887287 Q 19.129074252074638 13.089961621887287 18.946545959855264 12.049544054651227 Q 18.764015758064488 11.009126487415164 19.51238633913529 10.132986483705084 ZM 5.9869617842092975 11.191656689205942 L 6.260756609502613 11.739244430221168 Q 6.516296886959727 11.483703675371203 6.65319453830281 11.438070647530658 Q 6.65701845503925 11.436796008618511 6.66032249096096 11.436796008618511 Q 6.775304946086441 11.436796008618511 6.260756609502613 12.980443882727103 L 5.494133390167016 13.21773199931227 Q 5.293350550111441 13.071708028836788 5.6127774484596 12.314211606026442 Q 5.932203392022056 11.556715183216093 5.9869617842092975 11.191656689205942 ZM 25.3841465449005 12.332304795079008 Q 25.989295451531138 12.332304795079008 26.338983805310775 12.83441991225162 Q 26.101694733939905 13.21773199931227 25.225554730229824 13.436768432418344 Q 24.550196611789616 13.436768432418344 23.85658490029891 12.870926143566917 Q 24.757383199548386 12.332304795079008 25.3841465449005 12.332304795079008 ZM 23.272490927968388 13.089961621887287 Q 23.54354504090416 13.354712239618575 23.860314293250852 13.52803162374233 L 21.3870259534073 13.52803162374233 Q 22.296396318689176 13.432913007753738 23.272490927968388 13.089961621887287 ZM 13.835724179356049 14.239895973497832 Q 11.793824251025065 17.175128731674494 7.949174820459982 17.25145239111956 L 7.949174820459982 17.25145239111956 Q 4.122734108017405 17.175128731674494 2.080834179686421 14.239895973497832 ZM 28.602347232002273 14.258150521334034 Q 26.56044825845699 17.19338041515359 22.715797395713356 17.26970598417006 L 22.715797395713356 17.26970598417006 Q 18.889337110163886 17.19338041515359 16.829205548853547 14.258150521334034 ZM 3.0828786708633857 0.008692117630364187 Q 2.971576914619046 0.008692117630364187 2.8474573990220184 0.020860628300151455 Q 2.5554106515531827 0.020860628300151455 1.186441060318692 0.4406782939905586 Q 0.09126423562084626 0.696219735092747 0.0 1.0977842217217681 L 0.036505492848229494 1.7183835899300968 L 0.5840939126564156 1.5176008692227352 Q 1.4784879271357403 1.8096488101736983 2.080834179686421 1.8096488101736983 Q 2.6831812676745908 1.8096488101736983 2.5371572971991094 2.2203398546315434 Q 2.3911342815093297 2.6310308990893883 2.5736637672108307 3.5893094458660344 Q 2.7561932529123316 4.547588947428382 4.015645343683063 5.5241203711662505 Q 5.275098389239495 6.5006522722969695 5.576270739751453 8.079530784023007 Q 5.877444522441963 9.658410250534748 5.037810272654327 11.720991791956372 L 5.311603665769089 11.556715183216093 Q 5.3170254163777955 11.553462228329439 5.320836443507258 11.553462228329439 Q 5.38118176422965 11.553462228329439 5.037810272654327 12.368970475606535 Q 4.672751301251325 13.235984637577067 4.04302525586596 13.263364072367114 Q 3.93189679322653 13.268195288019145 3.833558162458005 13.268195288019145 Q 3.3746456661215403 13.268195288019145 3.1942632547673724 13.162973129732178 Q 2.989829552883843 13.04372039555458 2.5866402596864733 13.04372039555458 Q 2.5578429681289827 13.04372039555458 2.5280316941559873 13.044328594046743 Q 2.080834179686421 13.053455390571992 2.080834179686421 13.345502376737253 L 2.080834179686421 13.52803162374233 L 0.8031288539098296 13.52803162374233 Q 2.9022162686021113 17.981746969280433 7.958279656914086 18.000000562330932 Q 13.014342090440358 17.981746969280433 15.113428908391576 13.52803162374233 L 15.113428908391576 13.52803162374233 L 9.49152561819243 13.564537855057624 Q 9.49152561819243 13.400261246317346 9.144719762447076 13.208605202787021 Q 8.975349371986722 13.115006605635987 8.75591479324292 13.115006605635987 Q 8.526030084990925 13.115006605635987 8.241198414375544 13.21773199931227 Q 8.071091884138962 13.279081754593147 7.876274067756523 13.279081754593147 Q 7.433506997640579 13.279081754593147 6.863102742705081 12.962191244462305 Q 6.990873597522914 12.323337447765988 7.17340284452799 11.821382734591309 Q 7.355932568925916 11.319427066630926 7.867014556018697 11.228161965735536 Q 7.91433659976605 11.219711157487291 7.962910844961551 11.219711157487291 Q 8.438939307184603 11.219711157487291 9.03520202328689 12.031291416386429 Q 9.382007879032244 11.35593329794622 9.235984863342464 10.205997991549975 L 9.235984863342464 10.205997991549975 L 9.418514110347541 10.333768368974956 Q 10.787483940278456 12.633638026981748 11.070404129918469 13.035202752307194 Q 11.28503327222419 13.339837633167392 11.904089587389903 13.339837633167392 Q 12.10106378728027 13.339837633167392 12.338983017214447 13.308996145421958 Q 13.324641714870417 13.181225767996974 13.30638907660562 12.83441991225162 L 13.30638907660562 12.83441991225162 L 14.146023803786107 13.254238230627566 L 14.784876645696722 13.016950114042398 L 13.37940058445051 9.968709874964805 Q 13.726206440195863 9.968709874964805 14.018253426361124 9.676662888799545 Q 13.67144757061577 8.581486451983391 12.941329627809766 7.2307702151029725 Q 12.430248118109837 6.409388126187283 11.900913015359407 5.953063576496041 Q 10.4589307227979 4.602347339615624 8.907431645861907 3.3885266058104597 Q 7.355932568925916 2.174706826790998 6.6258155809056145 1.5176008692227352 Q 6.135176987870829 1.237236402210505 5.607156147639178 1.237236402210505 Q 5.310143798430758 1.237236402210505 5.0013035639461805 1.3259457804781123 Q 4.143416198500896 1.5723605742403173 3.9608864741029697 2.539765559497574 Q 3.906127843219302 2.50326028296798 4.0521506202126565 1.8096488101736983 Q 4.198174590688137 1.116036382593714 3.988266386285867 0.5228169265682828 Q 3.8063448603801033 0.008692117630364187 3.0828786708633857 0.008692117630364187 ZM 23.079162099888187 0.0 Q 22.74837277429359 0.0 22.451107884266992 0.09387261726752386 Q 22.06779770677775 0.20339010281275738 21.994785244147156 0.5136903090653525 Q 21.848762228457378 0.8970014413403002 22.12255657635784 1.2711870302462323 Q 22.3963490146869 1.645371604692356 22.980442987017422 1.7366368249359574 Q 21.81225504235638 2.795307030436816 20.99087390822639 5.478487343325705 Q 20.22424973410509 8.033898710968165 19.713168224405162 9.2568455252093 Q 18.344198394474244 10.370274600290251 18.353324236213794 11.492829517110751 Q 18.362451987524743 12.615385388716952 18.91003877375427 13.089961621887287 Q 19.30575352708367 13.432913007753738 20.06368533217412 13.52803162374233 L 15.55149986503232 13.52803162374233 Q 17.650586682983537 17.981746969280433 22.706650548688362 18.000000562330932 Q 27.762712504821785 17.981746969280433 29.861799322773003 13.52803162374233 L 26.348111556621728 13.52803162374233 Q 26.5488934418916 13.418513884582143 26.75880116890102 13.272490868892364 Q 26.964314972109918 13.516538868247567 27.224062512762817 13.516538868247567 Q 27.333429395782087 13.516538868247567 27.452412880391726 13.473272754162236 Q 27.908735520511563 13.254238230627566 27.6349411726111 12.469361418241471 Q 27.890481927461064 10.22425062981477 27.032595516801482 9.603651380954656 Q 26.1747071965705 8.983051177308838 25.09778339801914 8.983051177308838 Q 24.112125655148873 8.983051177308838 22.96219130353833 9.831812701014574 Q 22.249229905011244 10.358045705019261 21.98532331784051 10.358045705019261 Q 21.823573072067678 10.358045705019261 21.83050863540688 10.160365918495131 Q 21.848762228457378 9.64015665748425 22.633638086057772 8.398957204978315 Q 23.162973188808202 7.522817201268234 24.933506789278862 6.144720097419217 Q 26.704042299320925 4.766623948355902 26.685788706270426 3.370274444938514 Q 26.667537022791333 1.9739250608693384 25.900912848670032 1.2711870302462323 Q 25.134290584120137 0.5684490592972326 24.20338980125856 0.47718380921657794 Q 24.05736678556878 0.2764020731319715 23.82007771419791 0.1486313525808773 Q 23.582790552398443 0.020860628300151455 23.190352623598248 0.0026073821053958263 Q 23.13429142632065 0.0 23.079162099888187 0.0 Z"
     style="fill:#ffffff;stroke:none"
     id="path2" />
  <path
     d="M 36.84498261219801 0.884864232241851 Q 40.47758208917404 1.3272963483627764 36.84498261219801 7.6144898350138694 Q 33.21238182227247 1.3272963483627764 36.84498261219801 0.884864232241851 ZM 36.84498261219801 0.0 Q 31.815227809449244 0.3492882551627884 36.14640514700006 8.08020734941886 L 31.861799240112305 8.08020734941886 L 31.861799240112305 9.174644821220094 L 36.09983363427766 9.174644821220094 L 36.09983363427766 18.000001148559306 L 37.54355912252359 18.000001148559306 L 37.54355912252359 9.128072831061502 L 41.828165029411345 9.128072831061502 L 41.828165029411345 8.08020734941886 L 37.54355912252359 8.08020734941886 Q 41.874736064697565 0.3260030359172941 36.84498261219801 0.0 Z"
     style="fill:#ffffff;stroke:none"
     id="path4" />
  <path
     d="M 50.074623589165874 0.0 C 50.06868434011555 0.0 50.062538086521855 5.695000389233588E-4 50.05619834203449 0.0017376701166992572 C 49.58146259898701 0.034572710056723736 49.105631636055705 0.05123321658203978 48.62979913748238 0.05123321658203978 C 48.606574087674495 0.05123321658203978 48.583349037866604 0.051193525034879415 48.560124295187116 0.05111408915286449 C 48.4526824874756 0.05748565022318975 48.444037437198 0.19387122900204928 48.480241426173194 0.2706347291990004 C 48.70454866237453 0.9032127418706738 48.898019285565255 1.5451583243871705 49.07967744326193 2.190968580376229 C 49.07786108588869 2.1909696553256386 49.07604411425865 2.1909701160182427 49.07422775688542 2.1909701160182427 C 49.069264561898706 2.1909701160182427 49.06430136691199 2.190967044734216 49.059338171925276 2.190967044734216 C 49.05752181455204 2.190967044734216 49.055704842922 2.1909675054268196 49.05388848554877 2.190968580376229 C 48.87461579415543 2.1941578017092778 48.692343993910285 2.1905634780131424 48.515150868931244 2.2082660520131023 C 48.51181914001937 2.2126406354161525 48.50923311886911 2.217354902832527 48.50603038388635 2.2217895298382944 C 48.4953358657779 2.1810434189164067 48.4676586826453 2.1442491291513317 48.42551851590381 2.134358673201008 C 47.84543343095203 1.7433699351653074 47.28375608681267 1.3253741681715667 46.726277802194254 0.9034076916242516 C 46.71211396164955 0.9012415917825087 46.69802106776586 0.8966798136180472 46.6836760214636 0.8966798136180472 C 46.680488028644156 0.8966798136180472 46.67728744356021 0.8969051690834868 46.674070887799324 0.8974322014224227 C 46.61868980136308 0.9319300153388331 46.598255934478416 1.0091900845762831 46.56745556261933 1.0660039250108595 C 46.46971041283607 1.3292469037646981 46.38781692773424 1.5986006627817297 46.27905953551 1.857913626495344 C 46.20159837395092 2.0542815454724126 46.11555543056518 2.2499747033488737 46.05670840010511 2.451688652866554 C 46.08272386501521 2.508055314346882 46.1318349251115 2.5256319657017574 46.18564766035964 2.5256319657017574 C 46.237018878370975 2.5256319657017574 46.292674691163384 2.509613990990297 46.33661294113815 2.496033080153811 C 47.023524348482546 2.3492482776278862 47.7306819672576 2.36247107674689 48.4296070091998 2.35325031427853 L 48.4296070091998 2.35325031427853 C 48.36004826144073 2.5060049251308345 48.330352937574354 2.677390252015887 48.2673252752975 2.8331765273306844 C 48.23903967079926 2.9219839334686175 48.20540450378377 3.0117262384641976 48.185869908862045 3.103331584350212 C 48.180147185335585 3.1025183083400125 48.17437470700791 3.1020103179620406 48.168576122766 3.1020103179620406 C 48.16157513082774 3.1020103179620406 48.154536054967565 3.102750804540814 48.147500971776616 3.1045895822874394 C 47.29445214056312 3.435002924777189 46.46099211243443 3.839557985050251 45.73245943178481 4.398440460725553 C 45.38409228426174 4.668551291255101 45.03867287836514 4.9481987658151265 44.73392356911077 5.266144537927972 C 44.72740177426274 5.394177769394708 44.871884956539255 5.435337275146554 44.96791118543502 5.472141700148916 C 45.1642345707937 5.553170772361504 45.360789684532186 5.634200458830898 45.55728321902593 5.715249801518061 C 45.457640476406944 5.851749334532064 45.43207787232654 6.029550266619934 45.36858352844186 6.184797531588091 C 45.038059696509265 7.153861352744478 44.57306537535472 8.068964556326845 44.18512196899543 9.014663891380541 C 44.18663386614402 9.092608165916982 44.258766637850115 9.130688402303923 44.32947911345371 9.130688402303923 C 44.35550375382485 9.130688402303923 44.38133597825173 9.12553048790993 44.403384611104336 9.115303726358713 C 44.5402629102209 9.089391303027693 44.67749317848689 9.076684172496728 44.815064436061924 9.073475294945911 L 44.815064436061924 9.073475294945911 C 44.78634439843814 9.180424775827987 44.77515647855085 9.294290174080786 44.72731907994033 9.394893767907444 C 44.49511023615104 10.134587341144924 44.1150563825899 10.815276634180174 43.82816505430723 11.533175761709275 C 43.81455928526565 11.610981214207719 43.88763713815571 11.659587355210055 43.95810068708875 11.659587355210055 C 43.97889044860774 11.659587355210055 43.999452627980375 11.65535635433524 44.017493743859916 11.646395576059719 C 44.36821610553866 11.588426932831203 44.72317207868364 11.538017333848545 45.078929503395315 11.524055276664377 L 45.078929503395315 11.524055276664377 C 45.03832628396275 11.622711062161473 45.03037641882453 11.733392767392472 44.99967563335 11.835724265612402 C 44.827580609508544 12.562285642609657 44.57669148684053 13.279204416277523 44.54648187646393 14.031245165558069 C 44.54002926228859 14.520580564353603 44.59886270231685 15.00856828371834 44.676999162451246 15.490837272225857 C 44.81056131942236 16.283637646078006 45.05028156416405 17.05628179712148 45.359463043396964 17.797690989616125 C 45.36238537014812 17.865718702288014 45.424635076181076 17.90838989403767 45.48520171856755 17.90838989403767 C 45.523007535726734 17.90838989403767 45.56015778731047 17.89176319083217 45.581814178801864 17.854300896791347 C 45.62696036478422 17.75420775036988 45.641134647694614 17.642178365708084 45.67522052564098 17.537599916094415 C 45.853219248420146 16.895430053061887 45.98077673799119 16.238520483729697 46.0375239315624 15.574179635567155 C 46.09303769746858 15.000923243519741 46.115348579586005 14.424299495665746 46.111431310374485 13.848520965175826 C 46.08763116263265 13.174467488408087 45.9270641266023 12.516444885744722 45.823349782749474 11.852392738280662 C 45.80552159323283 11.752146027657874 45.792379722447926 11.649087249380484 45.76642537608995 11.55047323334615 L 45.76642537608995 11.55047323334615 C 46.109038319425295 11.583077984570766 46.44591702191909 11.650417729620735 46.782573209885165 11.720302954871812 C 46.783517936851695 11.720325068116804 46.784456214121775 11.720334896225689 46.785388348823794 11.720334896225689 C 46.89324600839249 11.720334896225689 46.916967684827455 11.576994385171206 46.868746068585224 11.501096814309983 C 46.579730870616174 10.744721869011334 46.284951947478916 9.988695207321284 46.042241423826994 9.216572560305499 L 46.042241423826994 9.216572560305499 C 46.05381279352498 9.218735972773718 46.06559531399979 9.220704051577856 46.07715086658505 9.222862549991634 C 46.37042793183338 9.275952765672562 46.66458092728605 9.344485397438397 46.96152341645573 9.361556822570925 C 47.05460512857325 9.284436880667181 46.9876975131858 9.158271604145323 46.94265344739732 9.073789794430217 C 46.5846596672218 8.297642536826196 46.291468597926205 7.482809385625217 46.17496020620446 6.632644797240953 C 46.137396252662356 6.402112989703248 46.13820584313173 6.165637019060783 46.0982223320336 5.936342938985731 L 46.0982223320336 5.936342938985731 C 46.35073731568311 6.039063261763408 46.60327195555038 6.1415507812118815 46.85679508818157 6.240463940310392 C 46.967203142005815 6.213855564018983 46.97246240877268 6.078073482953555 46.95020143502068 5.987920854412044 C 46.911492199665126 5.4357568125445646 47.027273157765215 4.869482677602845 47.306214851255966 4.389319975680656 C 47.543634627479754 3.9650730707437143 47.88719030144701 3.61722159180868 48.23713332480405 3.285426785763841 C 48.37615284636174 3.404166926023395 48.53743149890101 3.4927596494078808 48.694101075501806 3.587660790182661 C 48.66770799622065 3.5941230789026797 48.64128205420041 3.6005595688368763 48.6151617049408 3.608103256662602 C 48.32731205925978 4.165275641391986 48.084790573139685 4.744131598476393 47.82639699829939 5.315206457479831 C 47.7932031747985 5.394249023184122 47.75458730647735 5.475458072640659 47.743054634958085 5.559887056270509 C 47.78617638407442 5.629935059574988 47.85823392851739 5.643405097058119 47.93346595213009 5.643405097058119 C 47.980480246621525 5.643405097058119 48.028734418474436 5.638144601777644 48.071941242158296 5.638144601777644 C 48.07439581235222 5.638144601777644 48.07683379761241 5.638161800968192 48.079254583682044 5.638197427862899 C 48.18624245561445 5.635491626635611 48.293332908433335 5.6332164194288294 48.40035855715927 5.6306494402395355 L 48.40035855715927 5.6306494402395355 C 48.36419695190364 5.741802894696994 48.35429175378999 5.865354508512359 48.3182741917552 5.975340875039772 C 48.11207586043052 6.827947134225051 47.90738122976519 7.680887549112404 47.70374219941974 8.534108679359775 C 47.72841505251769 8.624927162278217 47.81939139943509 8.643642952878496 47.904749139354536 8.643642952878496 C 47.930072183280885 8.643642952878496 47.95490075047897 8.641995516126718 47.977356750766646 8.64009500557116 C 48.153725543112984 8.633708577566594 48.33019476644699 8.627909379067884 48.50665938285496 8.621854035481368 L 48.50665938285496 8.621854035481368 C 48.45794175424247 8.761402739276814 48.43602537855824 8.912103889629044 48.388722076239915 9.051774830528743 C 48.15974034575035 9.88985268775538 47.92670452034589 10.727816293216234 47.70311320045113 11.566827206530101 C 47.727771618514154 11.66041168784275 47.820826917589045 11.680019993581112 47.90844665819396 11.680019993581112 C 47.93572641717355 11.680019993581112 47.9624794509426 11.678119483025554 47.98647723581154 11.675958527584557 C 48.26763363221375 11.667831910050612 48.54894021440486 11.659925196452962 48.830279352206645 11.65205656677724 L 48.830279352206645 11.65205656677724 C 48.81570887365684 11.698147940418732 48.80578709060945 11.74684621994186 48.79788590532304 11.789807340903613 C 48.62156226085189 12.559177503174906 48.3505745787328 13.314089288763364 48.310097205163224 14.10829753921323 C 48.30697432356514 14.828534528143253 48.41347017579652 15.545245683010931 48.578050765792604 16.245007035593527 C 48.71377234256271 16.809925505765978 48.906260769121786 17.35983645367167 49.124965369002105 17.897387326141374 C 49.133480196836985 17.95891005924528 49.19245007865812 18.000000153978128 49.24925839078145 18.000000153978128 C 49.28238218900653 18.000000153978128 49.314770721835686 17.9860307257123 49.33599452297196 17.9539972333166 C 49.38287890214907 17.870471821447325 49.391506138979324 17.77029759312756 49.42436887806216 17.680382681969693 C 49.66310715651849 16.855079523522605 49.79979895191255 16.00174414150945 49.8432821911588 15.143944341035475 C 49.87182670490047 14.6871141838621 49.88820279132941 14.228529709252825 49.86749865145042 13.771154092036356 C 49.8201369947356 13.11462904746428 49.671485619342604 12.472245423063514 49.56683714445313 11.824087784693052 C 49.55448566861243 11.75999991517027 49.544633603712434 11.694023820228036 49.52752470891478 11.630670601844379 C 49.82264439101478 11.621440779088141 50.11789736684151 11.612507028112052 50.41252625775408 11.600478651350928 C 50.517413064284 11.519512233332478 50.45919933259018 11.377488688868533 50.429823729390954 11.273713687156178 C 50.17906260248474 10.375026496695098 49.930361078646655 9.47510219302817 49.67376696911744 8.57845310664703 C 49.920185300410274 8.568912469947318 50.16677930914942 8.560297518253172 50.412840757238385 8.548575655637887 C 50.51625211892201 8.467370291722181 50.458029173376104 8.326564818503117 50.42699323403219 8.224012187833285 C 50.16741383642928 7.349047595192377 49.907872522748306 6.474163470192961 49.648292510888595 5.599199491808857 C 49.91287503017056 5.592271903558834 50.17754354540527 5.585754638854743 50.44177470979461 5.576870028423076 C 50.541981493725054 5.510680172112603 50.49308173796979 5.376156088984402 50.44649220205921 5.291933495641129 C 50.21099289973715 4.758457602817692 49.97900714634133 4.223345636993374 49.73509436855726 3.693647116394047 C 49.9108584250788 3.621331891221256 50.085245932099696 3.546495141862763 50.25622001405361 3.465005991303015 C 50.727413338105 3.9064293592861885 51.138507776327145 4.4361137519789935 51.327719757086825 5.060147375707028 C 51.43633817370886 5.431207626644611 51.44368038530246 5.823991069501159 51.40571562919491 6.206497996005259 C 51.426374928327114 6.265907685698978 51.47754989128916 6.288105698128428 51.53285757403717 6.288105698128428 C 51.58004601033291 6.288105698128428 51.630243076460935 6.271947672865361 51.667064700653846 6.248955426386675 C 51.86377675700608 6.167781389568039 52.06078242811123 6.086666321402711 52.25769473218199 6.005532825533224 L 52.25769473218199 6.005532825533224 C 52.25611732070601 6.007241687965531 52.254219267177675 6.008511971038865 52.25266274043308 6.010250317797825 C 52.22375397240587 6.782997663984586 52.07044837319923 7.550884396071114 51.789090500564875 8.271816109447915 C 51.65944668775468 8.624882935788236 51.49673006003424 8.964496309579168 51.35476671273721 9.312494903019067 C 51.34658112654996 9.388299721102694 51.41707262326785 9.43337511398824 51.4857231923403 9.43337511398824 C 51.5096927213962 9.43337511398824 51.53343743246136 9.427879972608146 51.5535303868191 9.416279732840305 C 51.813829079140994 9.377854898385598 52.073019652186154 9.326197129574597 52.332545609447 9.276641961808094 L 52.332545609447 9.276641961808094 C 52.280717077244134 9.420368840393099 52.24491511934799 9.57061666922303 52.18693234821296 9.712223747572992 C 51.96568564654397 10.360477210005078 51.71526174662386 10.998153170250127 51.474276516773784 11.639162087920662 C 51.456419457187295 11.714950321070544 51.52479852475181 11.7812544291468 51.59553019588057 11.7812544291468 C 51.61427915634834 11.7812544291468 51.63319335189672 11.776595905535507 51.65071072746989 11.766219879580603 C 51.964786374581024 11.695919416729152 52.28445667267472 11.64243607669284 52.6058456613096 11.611800632785972 L 52.6058456613096 11.611800632785972 C 52.598364013421204 11.642117891667702 52.59284921582334 11.672701738002926 52.58949168812565 11.700174987876178 C 52.483579686987696 12.295446343825066 52.36693416243417 12.889479358054498 52.29197517597143 13.489677053581785 C 52.25119466666844 13.864308593585305 52.244432927755845 14.241765714893143 52.26838771464842 14.617786703790221 C 52.30240157098436 15.568215201987822 52.39801309975446 16.522186733438314 52.652706084471305 17.441048574412232 C 52.69565492029695 17.597555065831227 52.73712401147866 17.755797446981962 52.787940862723225 17.90933830654503 C 52.807265381817544 17.94886573196523 52.84800105037374 17.96787206603441 52.88888229779279 17.96787206603441 C 52.938758107611655 17.96787206603441 52.98885075008278 17.93958185461013 53.00054251411461 17.885750845222024 C 53.367445474994014 17.012330494189605 53.63339164438372 16.093100099132517 53.75439777799798 15.152435827111757 C 53.82156430262886 14.606490521141 53.86484238010213 14.048253936496456 53.760058768715496 13.504144029859898 C 53.654508564835865 12.925523947388719 53.48285818613933 12.3615268624242 53.34554844839916 11.79012184038792 C 53.32282893194202 11.724076948683495 53.31154994848334 11.652278927740754 53.288938541223935 11.586011675072816 L 53.288938541223935 11.586011675072816 C 53.4533308615092 11.59013579526351 53.617452294543334 11.60132018317417 53.78113023416405 11.622493615252402 C 54.00940403368553 11.646692876353477 54.235217120445014 11.694388688770378 54.46359411510977 11.71464196415429 C 54.560428014922394 11.687212940771019 54.552206801840434 11.560389795210698 54.504479048069655 11.492919827718008 C 54.18494880052758 10.723515267065617 53.76958527750869 9.98775170886836 53.56506908844529 9.176002126829923 C 53.56233871694579 9.162622385097167 53.55811508715264 9.147424443220766 53.554690605463165 9.132915697479893 L 53.554690605463165 9.132915697479893 C 53.59300978774737 9.133283023049454 53.63135354030378 9.134055758110504 53.66979741671945 9.135746192838655 C 53.81544200505056 9.146393720301495 53.95993240484454 9.175953600542304 54.104750203515735 9.18795310723358 C 54.206907252802964 9.142909041445103 54.18214840375227 9.008668744960943 54.13399804129946 8.931950527007858 C 53.71003799429059 7.967696950893671 53.250593560153916 7.015907259615556 52.92254664200653 6.013080813156586 C 52.89215628656497 5.934533338437356 52.869933089606505 5.8472007628889155 52.824422802902816 5.7778351988951115 C 52.82212609670785 5.775910118067343 52.81925628891355 5.7749574057623425 52.81687481527945 5.77311770663051 C 53.08222699833844 5.6624519720764495 53.347396132869456 5.551444710738648 53.61067151366977 5.437232257390864 C 53.67276673411621 5.331234260300176 53.56832956356775 5.229579673079671 53.49021821118028 5.168964197277176 C 52.815190523119355 4.553998232508783 52.07243426545072 4.00402278763854 51.24689338961998 3.6074742576939887 C 50.935521700965715 3.4589432766348356 50.61904492400271 3.3170677680609635 50.29207295526458 3.2068019146871447 C 50.26821952074488 3.1340453459997546 50.23430210272737 3.0620495343657126 50.21659307903095 2.9904262694840766 C 50.132273433112445 2.7488065123541414 50.06141891062262 2.499365116194088 49.9546150086034 2.267391955062778 L 49.9546150086034 2.267391955062778 C 49.97663365804571 2.2721185076152577 50.000366698231566 2.2733774269376927 50.024301828906374 2.2733774269376927 C 50.051587116197204 2.2733774269376927 50.079134076887094 2.2717413539368114 50.10470251640715 2.2717413539368114 C 50.113318696614904 2.2717413539368114 50.12171005883193 2.271927166620411 50.12979122136228 2.2724239468116867 C 50.18902830489371 2.2721413886812547 50.248320057280814 2.271955422433454 50.307647436562625 2.271955422433454 C 50.91980532634565 2.271955422433454 51.53577222257826 2.2917498479838176 52.13441093433373 2.4293591894807722 C 52.151873641051225 2.437040317266681 52.173547692425764 2.441053256975619 52.19561732518291 2.441053256975619 C 52.256205159429165 2.441053256975619 52.31977459620829 2.4108089410895164 52.30738565070246 2.3431863307807133 C 52.19110253766405 1.9783713823466809 52.026670904943245 1.6309058102495686 51.90797130563284 1.2666545959985882 C 51.85492163090106 1.1179953888313316 51.80251631155803 0.9661079550238905 51.73625458720134 0.8241538215789418 C 51.7170559907521 0.8161958943201508 51.697840809369126 0.812414068734202 51.67787132062925 0.812414068734202 C 51.670911791025354 0.812414068734202 51.663860122900665 0.8128733792603551 51.65668621767172 0.8137753385968179 C 51.095106233236 1.2240008337857824 50.54407242389025 1.6512297251660895 49.96247749571107 2.0340333377071436 C 49.90156840515565 2.0659719274264274 49.82284033893566 2.1274625656122557 49.866240653513195 2.204492058201421 C 49.866429230352416 2.204854009023936 49.866679232872166 2.2050771378084564 49.86686965248181 2.205435556654341 C 49.797553229032424 2.1923274699937245 49.72706480359856 2.189047492217695 49.656220723474426 2.189047492217695 C 49.585244578137164 2.189047492217695 49.513911549596024 2.1923397551298307 49.44304412771329 2.1923397551298307 C 49.41682334746602 2.1923397551298307 49.390665835669694 2.1918890441989514 49.36461397604387 2.1906540808919224 C 49.36047142814902 2.1906565379191436 49.35632826599736 2.1906574593043513 49.352185718102504 2.1906574593043513 C 49.34086742220829 2.1906574593043513 49.32954912631408 2.190650702479493 49.31823083041987 2.190650702479493 C 49.31408828252501 2.190650702479493 49.30994512037336 2.1906516238647016 49.305802572478505 2.1906540808919224 C 49.30971231704415 2.1784199281010275 49.311476462588935 2.1654075119378344 49.3105200647431 2.151970644322188 C 49.537348518001735 1.475132587891884 49.76442144546887 0.7888172399949126 50.15212068474806 0.18383287153032773 C 50.199323248950314 0.12220548442322278 50.16502437745672 0.015173477179580208 50.09047878582393 0.0014231706323924722 C 50.085376154542416 4.819612458480686E-4 50.0800874034489 0.0 50.074623589165874 0.0 Z"
     style="fill:#ffffff;stroke:none"
     id="path6" />
  <path
     d="M 59.1612095106476 0.6343796163654517 Q 58.78962290581792 0.6343796163654517 58.78962290581792 1.0715398576205497 Q 58.78962290581792 1.4431256271248805 59.1612095106476 1.4431256271248805 Q 59.55465371584397 1.4212680267581896 59.55465371584397 1.0278238215618205 Q 59.55465371584397 0.6343796163654517 59.1612095106476 0.6343796163654517 ZM 57.71857972404858 0.9185333137523243 L 57.71857972404858 1.3119775189486933 L 56.86611779656261 1.4649840628169186 Q 57.25956200175899 1.0496814219285115 57.71857972404858 0.9185333137523243 ZM 57.76229576010731 1.4431256271248805 Q 58.26503059244536 1.836570786978789 57.937159904342224 2.033292531580396 Q 57.434426086327804 1.8584282680132875 57.19398747034212 1.574273615968875 L 57.76229576010731 1.4431256271248805 ZM 59.29235773815598 0.4376570364384973 Q 60.3196847645344 0.4376570364384973 60.931709030692225 1.2245454468312351 Q 61.54373329685004 2.011434931213705 61.58744945224097 3.6507862237499484 Q 63.18308458938629 3.97865595719555 63.70767702209103 5.093415294355815 Q 63.79261147142002 5.815354533686349 63.382501570887115 5.815354533686349 Q 63.37043899554307 5.815354533686349 63.35794873362121 5.814730187655325 Q 62.9207886116983 5.792871393966709 62.66942155352585 5.574291571669641 Q 62.57801548073462 5.494807739564106 62.53140862231321 5.494807739564106 Q 62.449847455401084 5.494807739564106 62.5054858514777 5.73822727371779 Q 62.592918162259544 6.1207423207342355 63.46723840610535 6.66719306979883 Q 64.34156008193747 7.213642864205885 63.60931674645119 7.574300072191255 Q 63.42763205142324 7.66378680599873 63.222397864203685 7.66378680599873 Q 62.60047809531716 7.66378680599873 61.762313596475884 6.842057214033746 Q 60.64755425931562 5.749155238575788 60.58198074222239 5.180847127808888 Q 60.51640627047162 4.612539017041987 61.040999657833915 4.13166273972816 Q 61.352919689097824 3.845735885293317 61.25526872401005 3.845735885293317 Q 61.18868852054111 3.845735885293317 60.931709030692225 3.97865595719555 Q 60.29782620951017 4.306526883963077 60.265039450963556 4.940408511823204 Q 60.23225269241694 5.574291571669641 60.76777428330161 6.328393223515765 Q 61.30329468086436 7.082494875361889 62.877072456307374 8.240969890584305 Q 63.03794752628295 8.324904336140351 63.24134972568364 8.324904336140351 Q 63.67357904141352 8.324904336140351 64.29784392654655 7.945887154349703 Q 65.21588080311206 7.388507008440801 63.37980752730982 6.230031515889615 Q 64.0574062652184 6.055167848983468 64.07926362692072 5.639866043420408 Q 64.93172603173545 5.9240193828107035 68.86616951568544 10.929506048530046 Q 69.91535438109494 11.628962625469711 69.93721222012601 11.956833074908467 Q 69.91535438109494 12.262845685316147 69.6093427253448 12.328419202409375 Q 69.54376825359404 12.342470806737573 69.47618613703709 12.342470806737573 Q 69.22838758874838 12.342470806737573 68.95360182646729 12.153555535503228 Q 67.7295523394941 12.743721962629975 66.58200719844477 12.765579801661051 Q 66.52161078918984 12.766730163996499 66.46233419322907 12.766730163996499 Q 65.39534687401753 12.766730163996499 64.69128789307854 12.393993674160143 L 64.69128789307854 12.393993674160143 Q 65.41260230904928 13.02787577934904 65.19402296408097 13.727332356288704 Q 65.0880445212736 14.066462991409306 65.03344956588798 14.066462991409306 Q 64.97544266445514 14.066462991409306 64.97544266445514 13.683616678226553 Q 64.97544266445514 12.940443468567198 63.073795394230906 12.262845685316147 L 63.073795394230906 13.093450251099807 Q 62.96183984056689 13.563663958351698 62.895757968333726 13.563663958351698 Q 62.83282360200925 13.563663958351698 62.81149798455661 13.13716592916196 Q 62.68034999571262 12.197271213565381 62.18854432155448 11.11529958960927 Q 61.69674007938266 10.033327010995619 60.62569689761331 8.120750821255848 Q 59.55465371584397 6.208174154187309 59.259570979609364 5.366640668888111 Q 58.96448705005284 4.525106706260145 58.986345366412685 3.803791812960634 Q 59.00820296677937 3.0824769196611235 58.69126143685616 2.743678028035599 Q 58.37432110025486 2.404879136410074 58.50546920843105 2.011434931213705 Q 58.636617316607236 1.617989652027604 58.11202392924495 1.2682614828899643 L 58.11202392924495 0.8966757730517297 Q 58.680333233333776 0.4376570364384973 59.29235773815598 0.4376570364384973 ZM 63.44538104440305 13.02787577934904 Q 64.51642422617239 13.333888389756721 64.51642422617239 13.74919019531978 L 63.79510933287288 16.437727307923062 Q 63.70767702209103 16.918603585236887 63.204943383074905 16.918603585236887 L 62.330621707242784 16.918603585236887 L 62.330621707242784 16.874887907174735 L 63.44538104440305 13.465036378600715 L 63.44538104440305 13.02787577934904 ZM 59.37123918135391 0.0 Q 59.3321003702019 0.0 59.29235773815598 4.967951833993125E-4 Q 58.43989461734809 4.967951833993125E-4 57.565574134837895 0.6999531931247753 Q 57.06283942183203 0.8748172776935953 56.53824710845947 1.5087000988756476 Q 57.25956200175899 2.164440520424391 57.849727832224765 2.317447064292616 Q 57.91530242330773 2.623459197371527 58.26503059244536 3.1699089917785814 Q 58.286888073479865 4.612539017041987 58.658474678309545 5.563363129482873 Q 59.0300615218036 6.514186287266219 61.15028933031806 10.667210070842057 Q 62.199473718398785 12.853012112442894 62.199473718398785 13.355746228787796 Q 62.199473718398785 14.12077727747823 61.237721163771134 16.78745464173535 Q 61.237721163771134 16.940461424267962 59.926240559338034 17.027892780392268 Q 57.95901834003426 17.093468206800573 57.95901834003426 17.574344484114402 Q 57.95901834003426 17.858498300833464 58.22131455638664 17.858498300833464 L 64.03554794885856 17.858498300833464 Q 64.58199774326562 17.42133770158179 64.64757221501638 17.11532604583165 Q 65.17216417039236 17.333906345457486 65.21588080311206 17.705491518300857 Q 65.28950685655343 17.999999550696504 65.42513505323167 17.999999550696504 Q 65.45056617543418 17.999999550696504 65.47817678080004 17.98964533501992 Q 65.65304140236373 17.92407181792669 65.65304140236373 17.705491518300857 Q 65.50003461983113 17.11532604583165 64.8880103536733 16.568874342109517 L 65.58746693061296 13.618042206475785 Q 67.70769450046303 13.552468689382557 69.28147227590605 12.940443468567198 Q 69.57291299362635 13.006017940317964 69.81577978106449 13.006017940317964 Q 70.30151335594078 13.006017940317964 70.59295311900354 12.743721962629975 Q 71.03011371825521 12.350277041440451 70.41808945209739 11.519672475656792 Q 69.08474981531128 10.18633379352823 67.88255912202672 8.590698179054138 Q 65.41260230904928 5.5524337326385655 64.49456543248377 5.0715565006671985 Q 64.18855329940486 4.437674872807071 63.76232257432626 4.066088267977393 Q 63.3360913719189 3.6945023791408698 62.22133203475863 3.1480516300762758 Q 62.199473718398785 1.8584282680132875 61.62023716544512 0.9185333137523243 Q 61.054164385307644 0.0 59.37123918135391 0.0 Z"
     style="fill:#ffffff;stroke:none"
     id="path8" />
  <path
     d="M 77.13933121412992 7.386460158973932 C 78.21335269474793 7.386460158973932 79.5577052161135 7.938189953569349 80.20822084322572 8.588705580681562 C 80.77735455149895 9.15783880619665 80.85175820143519 9.912403295059676 80.87261962890625 10.613539975136518 L 73.43768083676696 10.613539975136518 C 73.45854250561709 9.912403295059676 73.53294615555333 9.15783880619665 74.10207962244749 8.588705580681562 C 74.75259549093877 7.938189953569349 76.06531021627006 7.386460158973932 77.13933121412992 7.386460158973932 ZM 77.13933121412992 6.785337448120117 C 75.86519707101243 6.785337448120117 74.49425302444206 7.373943205939668 73.69078513607383 8.1774110943079 C 72.866684468444 9.001512065547331 72.77328205108643 10.086433742191275 72.77328205108643 10.898282311856747 L 72.77328205108643 11.214662685990334 L 81.50538037717342 11.214662685990334 L 81.50538037717342 10.898282311856747 C 81.50538037717342 10.086433742191275 81.44361630083881 9.001512065547331 80.61951532959938 8.1774110943079 C 79.81604792398929 7.373943205939668 78.41346559862649 6.785337448120117 77.13933121412992 6.785337448120117 Z"
     style="fill:#ffffff;stroke:none"
     id="path10" />
</svg>
