<?xml version="1.0" encoding="UTF-8" standalone="no"?>
<svg
   width="150.75494384765625"
   height="18.0"
   version="1.1"
   id="svg60"
   sodipodi:docname="antoninosnetikhueusebes.svg"
   inkscape:version="1.1.1 (3bf5ae0d25, 2021-09-20)"
   xmlns:inkscape="http://www.inkscape.org/namespaces/inkscape"
   xmlns:sodipodi="http://sodipodi.sourceforge.net/DTD/sodipodi-0.dtd"
   xmlns="http://www.w3.org/2000/svg"
   xmlns:svg="http://www.w3.org/2000/svg">
  <defs
     id="defs64" />
  <sodipodi:namedview
     id="namedview62"
     pagecolor="#ffffff"
     bordercolor="#666666"
     borderopacity="1.0"
     inkscape:pageshadow="2"
     inkscape:pageopacity="0.0"
     inkscape:pagecheckerboard="0"
     showgrid="false"
     inkscape:zoom="9.1207622"
     inkscape:cx="75.377472"
     inkscape:cy="9.0452966"
     inkscape:window-width="1920"
     inkscape:window-height="1001"
     inkscape:window-x="-9"
     inkscape:window-y="-9"
     inkscape:window-maximized="1"
     inkscape:current-layer="svg60" />
  <path
     d="M 9.619241759901131 8.704017150225534 C 9.956114020057063 8.704017150225534 10.371109904274771 8.76399089929749 10.864229412554256 8.883939352346172 C 11.905261819800385 9.137163864337834 12.8056128816014 9.495897714329981 13.565284507766846 9.960140902322616 C 14.32495613393229 10.42438504522002 15.176070395910864 11.008207138114807 16.1186263387978 11.711606226102205 C 15.211383729261659 12.170969850713034 14.168207560803758 12.400651185566062 12.989095923614554 12.400651185566062 C 12.723796640788658 12.400651185566062 12.45161535927535 12.38902331016484 12.172553033979401 12.365768514267165 C 10.653210736553286 12.239155780818948 9.3484030744964 11.792497164191472 8.258132912523058 11.025791709479964 C 7.167863705454489 10.259086254768457 6.897054622097669 9.78780828332499 7.445706139904986 9.61195779514956 C 7.994358612617073 9.436108261878905 8.441018184149321 9.207503104703234 8.78568342214457 8.92614327852732 C 8.967086681565636 8.778059511294387 9.244939142516232 8.704017150225534 9.619241759901131 8.704017150225534 ZM 16.87829701005847 11.880422885731571 L 17.743478929129175 12.070340076094354 C 17.743478929129175 12.295428318996994 17.539492171864723 12.478311680813713 17.131522476954906 12.618992071354056 C 16.899402315315747 12.634818663035082 16.657389340244983 12.642731958875595 16.405485461552153 12.642731958875595 C 15.985642480714866 12.642731958875595 15.538322115080815 12.620750051038186 15.063526274459544 12.576788145172907 C 15.977946903162229 12.464244023721587 16.582870481695206 12.232122907177656 16.87829701005847 11.880422885731571 ZM 18.207723072026578 12.196952809542571 L 18.73527358164809 12.302462147543055 C 18.791544210016596 12.471278807172421 18.594593191107748 12.640094511897015 18.144416705302472 12.808910216621609 L 17.532460253128203 12.76670629044046 C 17.968567172031815 12.569755271531616 18.193655414934454 12.379837126264063 18.207723072026578 12.196952809542571 ZM 19.009598624373172 12.407972440448313 L 19.36833342927009 12.49238029281061 C 19.283925576907794 12.731536192805375 19.030702019820904 12.851114142802757 18.608660848199875 12.851114142802757 C 18.847816748194642 12.696366095170289 18.98146331018892 12.548652830988656 19.009598624373172 12.407972440448313 ZM 19.600455500718795 12.618992071354056 C 19.938086910167982 12.71746853571325 20.163175153070622 12.87925041189178 20.27571831961717 13.10433865479442 L 19.326128548184172 12.893318068983906 C 19.509013819810434 12.808910216621609 19.600455500718795 12.71746853571325 19.600455500718795 12.618992071354056 ZM 17.405847519679988 13.864010280959864 C 18.46094662911347 13.99062205950331 19.255788352914 14.28604954277135 19.790372691081576 14.750293685668755 L 17.173725448231284 14.138336278589716 C 17.20186267222508 13.983587276052475 17.279236696041313 13.892145595144116 17.405847519679988 13.864010280959864 ZM 5.187792747046841 0.40093762696942586 C 5.848988863757863 0.40093762696942586 6.3484031042903535 0.5838216154424017 6.686035468644312 0.9495895923883535 C 7.0236668780935005 1.3153575693343054 7.129177170998758 2.198124417859453 7.0025653924553115 3.5978901976453446 C 6.875952659007095 4.997655977431236 6.8337487328259465 5.947245271411848 6.875953136459481 6.446659034491953 C 6.918156585188243 6.946073275024443 7.048285755457107 7.315357867835686 7.266340169813683 7.554513290378066 C 7.4843936292654885 7.793669667825216 7.748168406623859 8.029308176094565 8.05766402443641 8.261430247543267 C 8.367160119701346 8.49355231899197 8.212412072068878 8.70105503562468 7.5934203589913905 8.883939352346172 C 6.974429123366289 9.06682271416289 6.629762930466267 9.33763179751971 6.559423212648482 9.69636660241663 C 6.48908301737831 10.055099497504006 6.577008261466024 10.385698033311902 6.823197990006852 10.688160300030777 C 7.069388196000066 10.99062256674965 7.656726725715499 11.398594171469009 8.585214534057924 11.912075114188854 C 9.513701864947961 12.42555701181347 10.333162943564483 12.752637678443564 11.043595860097945 12.893318068983906 C 11.754030686440949 13.033998459524248 13.931053141209826 13.10433865479442 17.57466322440458 13.10433865479442 C 18.700104438917776 13.315358285700162 19.445707453086325 13.596718111876076 19.811474176719763 13.94841813332216 L 17.405847519679988 13.399766138062459 C 17.18076118658689 13.47010633333263 17.00490974350669 13.60375194042214 16.87829701005847 13.800703914235756 C 16.87829701005847 14.166472547678739 16.083455286257944 14.37749217858448 14.493772793561655 14.433763761857755 C 14.254616893566888 14.433763761857755 14.092834062483586 14.103166180954629 14.008427165026061 13.441970064243609 L 13.755202653034399 13.652989695149351 C 13.881814431577844 14.187574033316928 13.91698452921293 14.658852004760394 13.860712945939655 15.066823609479753 C 13.663760972126038 14.588511809490223 13.319094779226017 14.271981885679224 12.826715322144361 14.117233838046756 C 12.038906471985122 13.976553447506413 11.335507383997724 13.846424754689936 10.71651519346785 13.726846804692553 C 10.097523002937978 13.607269809599941 9.471497938766813 13.350529338240019 8.838438091144814 12.956624435708015 C 8.275718438792987 12.520516561899633 7.371849507814169 12.049238590456165 6.126831775660745 11.542790521377611 C 4.881814043507322 11.03634340720383 4.259305416156803 10.283705609584448 4.259305416156803 9.284877128519467 C 4.259305416156803 8.286049602359258 4.593420388785345 7.459554695196674 5.261649856590044 6.805393361936487 C 5.929879801847128 6.151231551223914 6.2639942970232845 5.366941047694864 6.2639942970232845 4.452521373896952 C 6.2639942970232845 4.002345365544058 6.207722713750011 3.5767882345547704 6.095179069751077 3.175850219655281 C 5.993352799453844 2.8130966980279646 5.689997219321334 2.6317199372143065 5.185112329353548 2.6317199372143065 C 5.131966626849421 2.6317199372143065 5.076588356989783 2.6337295343056977 5.0189770423222475 2.6377489672146734 L 3.2464102329044677 2.869871038663376 C 3.3026820549039346 2.6869874381204633 3.387089668540039 2.5181714946696765 3.4996335512651657 2.363423447037208 C 3.6403134643531225 1.9273154538657298 3.795061511985591 1.6740914193264531 3.9638776941625706 1.6037515821455712 C 3.9884963327999836 1.6899181303705768 4.083125485835245 1.733001523846176 4.247764437089777 1.733001523846176 C 4.271284696513898 1.733001523846176 4.296233016023633 1.732122295277918 4.32261082797614 1.7303637187783059 C 4.603971609056825 1.7162955842337946 4.765753485235356 1.5756155517827413 4.8079574114165045 1.308323860151339 C 4.7798216197798675 1.0410321685199366 4.6180397436013365 0.9003521360688832 4.32261082797614 0.8862840612059201 C 4.069387270889249 0.9003521360688832 3.9287073578012923 1.0410321685199366 3.9005710887122693 1.308323860151339 C 3.6754838007144013 1.5193437297832741 3.4996337899913588 1.765533697050295 3.373021295269335 2.046893523226209 C 3.3320964640294637 2.0673559388461444 3.2921017100369276 2.0775870272930157 3.2530370332917253 2.0775870272930157 C 3.1846734908983327 2.0775870272930157 3.119158190711805 2.046253737029377 3.0564913714583355 1.9835869177759076 C 3.225307553635315 1.6459552696005268 3.471497998354722 1.2977725205167625 3.7950622281641695 0.9390390286139039 C 4.118625980521232 0.5803047608509185 4.582869168513866 0.40093762696942586 5.187792747046841 0.40093762696942586 ZM 9.977946007845366 14.159437764227905 L 10.653208826743741 14.328253468952498 L 9.89353815548307 15.425557459471902 L 9.977946007845366 14.159437764227905 ZM 11.286269629270512 14.391559835676606 C 11.84898928162234 14.391559835676606 12.32378416733884 14.451348333222912 12.71065428642001 14.570927238125066 C 13.09752440550118 14.690504233217677 13.336679350591174 15.144197633295988 13.428121986404305 15.932005528550455 C 13.517959427296729 16.705992132143816 13.400721948894024 17.092986388845265 13.07640859629142 17.092986388845265 C 13.070618053757709 17.092986388845265 13.064760667889999 17.092862251224986 13.058837393593063 17.09261588579397 L 11.03304511727885 17.09261588579397 C 10.988356528882543 17.089306185856326 10.942987093384234 17.087650380982737 10.896935855879153 17.087650380982737 C 10.551564943257846 17.087650380982737 10.167861288398607 17.180747866764687 9.745823936396663 17.366940928519046 C 9.858368057847983 16.382182014355735 10.3718499554726 15.390387361836815 11.286269629270512 14.391559835676606 ZM 5.187792747046841 0.0 C 4.231169147067781 0.0 3.443361967991892 0.5345838607151904 2.8243702549144043 1.6037515821455712 C 2.613350385282469 1.9554513648654634 1.9873244855696295 2.3071511475853557 0.946292317049693 2.6588511690314407 C 0.22882448278191372 2.869871038663376 -0.08067132899566878 3.165298999383801 0.017804894772284054 3.545135051192716 L 0.03890708726380924 3.798358369553414 C 1.3753664816751086 3.6717465910099687 2.493771957832701 3.5099647148314377 3.3941234970861016 3.3130129797440135 L 5.040079482865207 3.0175852577497815 C 5.048381902400062 3.0173546482474904 5.056615568791377 3.017239343496345 5.064780004586766 3.017239343496345 C 5.5546451974053515 3.017239343496345 5.796118651280282 3.432360558965298 5.789199888759171 4.2626027511770115 C 5.782166060213108 5.106682229704753 5.4269491244939925 5.862836941597166 4.723549559054208 6.5310668868542505 C 4.020149993614424 7.199296832111335 3.661415904896083 8.166471652361876 3.6473477703515713 9.432591347605873 C 3.6473477703515713 10.459556097759878 4.136210551886389 11.19460836910933 5.11393659240841 11.637750071463774 C 6.09166167802566 12.08089177381822 7.037734535185626 12.555685704629948 7.952154686435924 13.062133773708501 C 8.866573405329065 13.568581842787054 9.387089131499744 13.962486745319058 9.513701864947961 14.243845616590201 C 9.44336166967779 15.735053554736838 9.26047830786107 16.698711938166735 8.96504986968826 17.134818857070343 C 8.472670412606604 17.134818857070343 7.614522322081965 17.064478661800173 6.390606553019116 16.92379827125983 C 6.01077121738878 16.980070809437876 5.75051335430344 17.10316567370829 5.609832486310712 17.293084773880615 C 5.469153528127526 17.48300387405294 5.497289319764163 17.69050468087611 5.69424129357778 17.91559292377875 C 5.7882960713930505 17.77973671214347 5.878469161312617 17.711806696516287 5.9647610407888685 17.711806696516287 C 5.99463093949035 17.711806696516287 6.024035799568166 17.719946304787623 6.052975621022314 17.73622552133029 C 6.165519265021248 17.799531888054396 6.446879091197162 17.831185071416453 6.897054144645284 17.831185071416453 L 8.96504986968826 17.831185071416453 C 9.066651737364214 17.811645809984256 9.162826881224358 17.801877134172933 9.253573391459145 17.801877134172933 C 9.489516991802953 17.801877134172933 9.68877028611562 17.867918348162302 9.851334229301921 18.000000776141047 C 10.048286203115538 17.98593311904892 10.21710095293536 17.929660580870873 10.357781343475702 17.831185071416453 C 10.978782653644581 17.849272877596132 11.498366392758383 17.8583158257812 11.916529696102794 17.8583158257812 C 12.474082358736627 17.8583158257812 12.85133372205558 17.842239049050068 13.048285695869197 17.810083585778262 C 13.39295188876922 17.753811047600216 13.705964898307187 17.704574247777778 13.987324724483102 17.662369366691856 L 14.704792424467398 17.89449143814056 C 14.713104870502352 17.89513122433739 14.721098378343662 17.895450162531034 14.728771038181785 17.895450162531034 C 14.889915037973028 17.895450162531034 14.91005779922074 17.754450833797048 14.789201231734465 17.47245026651953 C 14.170209041204592 17.134818857070343 14.02952865066425 16.28370459509177 14.367161015018208 14.919109390393348 L 14.367161015018208 14.919109390393348 C 14.486100133723532 14.921667580275903 14.601202445057407 14.922946197764796 14.712467949019834 14.922946197764796 C 15.825117259215483 14.922946197764796 16.55409538131412 14.795054846827687 16.899400405506203 14.539274054763013 C 18.306200491290543 14.792496656945131 19.452741281632388 15.03868734039073 20.33902468634128 15.277843240385495 L 20.486738905427682 15.024620638203377 C 20.1209702719847 14.616648078579246 19.84664522925962 14.356389738041521 19.6637618674429 14.243845616590201 L 19.6637618674429 14.243845616590201 L 20.59224824342817 14.433763761857755 C 20.74230770863311 14.490035345131028 20.8462548224276 14.518171614220051 20.90408958481164 14.518171614220051 C 21.01975910957972 14.518171614220051 20.95098304832509 14.405627492768732 20.697759491238198 14.180540204770864 C 20.641486953060152 14.025792157138396 20.23351534834079 13.723330845324293 19.473842767270575 13.273154359519014 L 19.473842767270575 13.273154359519014 L 20.761063948152763 13.526377916605906 C 20.901744338693106 12.62602685480489 19.924019253075855 11.985932223732057 17.827886781491472 11.606096888101721 C 16.73058279097207 11.352873331014829 15.738790048262691 10.86049196412363 14.852506643553802 10.12895660704721 C 13.684862457764227 9.101993766702748 11.91932947689251 8.349355969083367 9.55590579112911 7.871043214189065 C 8.303853752977238 7.786635839279153 7.607488493535902 7.4032831119233995 7.466808580447945 6.72098550957419 C 7.326128667359988 6.038687429772594 7.32964558163302 4.95193465952467 7.477359800719425 3.4607274375566117 C 7.625073542353445 1.969519857499264 7.417570825720734 0.9988280632941434 6.854850695916521 0.5486519952597018 C 6.43281095665265 0.1828839884729759 5.877125132846886 0.0 5.187792747046841 0.0 Z"
     style="fill:#ffffff;stroke:none"
     id="path2" />
  <path
     d="M 27.177865186478382 7.937876256002994 C 26.496671245133623 7.991654064440127 26.120222241250442 8.332250793733436 26.04851793344977 8.959665719745715 C 26.138148499234912 9.640860143848613 26.514597503118093 9.999383372505463 27.177865186478382 10.035235888474404 C 27.84113286983867 9.999383372505463 28.190692728124215 9.640860143848613 28.226544278576878 8.959665719745715 C 28.172766470139745 8.332250793733436 27.8232066118542 7.991654064440127 27.177865186478382 7.937876256002994 ZM 27.25853214051315 5.679180301671352 C 27.742538692303153 5.679180301671352 28.190693210882355 5.768811229525099 28.602994730734476 5.948073085232593 C 29.01529576782846 6.127334940940088 29.378299957533752 6.373819539952137 29.692007299850356 6.687527123647811 C 30.0057151249251 7.001234707343485 30.252199844626684 7.3597576946212655 30.43146145895511 7.763095602723013 C 30.610722590525395 8.16643375220383 30.700352914931468 8.592179844854769 30.700352914931468 9.040334122054901 C 30.700352914931468 9.506413933102294 30.610722590525395 9.941123154745469 30.43146145895511 10.344461786984425 C 30.252199844626684 10.747799936465242 30.0057151249251 11.101841721315509 29.692007299850356 11.406586176018948 C 29.378299957533752 11.711330630722387 29.01529576782846 11.948851980052666 28.602994730734476 12.119151189526065 C 28.190693210882355 12.289449433483185 27.742538692303153 12.374598314082675 27.25853214051315 12.374598314082675 C 26.774526312860356 12.374598314082675 26.32189131599085 12.289449433483185 25.900626908525563 12.119151189526065 C 25.479361776923067 11.948851980052666 25.116357104459635 11.711330630722387 24.8116130118248 11.406586176018948 C 24.506868074363222 11.101841721315509 24.264865160536825 10.747799936465242 24.085604149656074 10.344461786984425 C 23.906342354293347 9.941123154745469 23.8167114264396 9.506413933102294 23.8167114264396 9.040334122054901 C 23.8167114264396 8.592179844854769 23.906342354293347 8.16643375220383 24.085604149656074 7.763095602723013 C 24.264865160536825 7.3597576946212655 24.506868074363222 7.001234707343485 24.8116130118248 6.687527123647811 C 25.116357104459635 6.373819539952137 25.479361776923067 6.127334940940088 25.900626908525563 5.948073085232593 C 26.32189131599085 5.768811229525099 26.774526312860356 5.679180301671352 27.25853214051315 5.679180301671352 ZM 27.204754814834157 4.764946937561035 C 26.61319119789547 4.764946937561035 26.057480338304796 4.876985476688684 25.53762175330399 5.101062554943983 C 25.017763409682257 5.325139663371665 24.569609615240264 5.629884118075104 24.193160490667548 6.015295949226683 C 23.8167114264396 6.400708564860238 23.516448355197976 6.848862238612696 23.292371276942678 7.359757211863126 C 23.068294998255546 7.870652909250765 22.956256866455078 8.421882083655788 22.956256866455078 9.013444493699126 C 22.956256866455078 9.605007145121533 23.068294998255546 10.156236319526556 23.292371276942678 10.667132016914195 C 23.516448355197976 11.178027714301834 23.8167114264396 11.621700306316313 24.193160490667548 11.998149310199494 C 24.569609615240264 12.374598314082675 25.017763409682257 12.67486180773767 25.53762175330399 12.898938825648202 C 26.057480338304796 13.123014878042454 26.61319119789547 13.23505338699772 27.204754814834157 13.23505338699772 C 27.796317466256564 13.23505338699772 28.347546157903448 13.123014878042454 28.85844088977481 12.898938825648202 C 29.369336587162447 12.67486180773767 29.81749062298351 12.374598314082675 30.202903479996134 11.998149310199494 C 30.58831537149248 11.621700306316313 30.89305982619592 11.178027714301834 31.11713636134831 10.667132016914195 C 31.34121434477512 10.156236319526556 31.453252853730387 9.605007145121533 31.453252853730387 9.013444493699126 C 31.453252853730387 8.421882083655788 31.34121434477512 7.870652909250765 31.11713636134831 7.359757211863126 C 30.89305982619592 6.848862238612696 30.58831537149248 6.400708564860238 30.202903479996134 6.015295949226683 C 29.81749062298351 5.629884118075104 29.369336587162447 5.325139663371665 28.85844088977481 5.101062554943983 C 28.347546157903448 4.876985476688684 27.796317466256564 4.764946937561035 27.204754814834157 4.764946937561035 Z"
     style="fill:#ffffff;stroke:none"
     id="path4" />
  <path
     d="M 48.09103131809272 2.781519028544426 C 47.636867291023954 4.325455099833725 47.18270326395519 5.869391402846931 46.72853923688643 7.413327705860138 L 43.02593971840106 7.413327705860138 C 42.5717756913323 5.869391402846931 42.117611664263535 4.325455331557633 41.663447637194764 2.781519028544426 ZM 40.9532527923584 2.25 C 41.51182894702259 4.148210410390402 42.070078602702054 6.0465172179260485 42.62824958811514 7.944846734404564 L 47.12622936717234 7.944846734404564 C 47.68439988913762 6.046516986202141 48.24265105102248 4.148210757976263 48.80122616292909 2.25 Z"
     style="fill:#ffffff;stroke:none"
     id="path6" />
  <path
     d="M 45.99822474162539 10.171448337385236 L 45.99822474162539 10.59346608892681 L 43.769441748841295 10.59346608892681 L 43.769441748841295 10.171448337385236 ZM 44.87723916129229 11.002296849309236 Q 46.27517427577244 11.002296849309236 46.80929100172622 11.714451850294218 Q 47.34340772768 12.42660766593356 47.34340772768 12.993694359006867 Q 47.33021974083219 13.877294546770656 46.60487575731074 14.536697871915848 Q 45.879532859995095 15.19610119706104 44.87723916129229 15.19610119706104 Q 43.86175838091318 15.19610119706104 43.13641475946033 14.536697871915848 Q 42.41107127378321 13.877294546770656 42.41107127378321 13.006881983786073 Q 42.41107127378321 12.42660766593356 42.84627751001692 11.714451850294218 Q 43.28148379150922 11.002296849309236 44.87723916129229 11.002296849309236 ZM 43.13641475946033 9.736242055892944 L 43.13641475946033 10.725347315162185 Q 42.661644517424605 11.002296849309236 42.26600224173432 11.622136123393844 Q 41.87035999715931 12.241974582824092 41.85717225074768 12.993694359006867 Q 41.85717225074768 13.877294546770656 42.58910963933156 14.780677438943371 Q 43.32104775205265 15.684059969047482 44.87723916129229 15.75000026535514 Q 46.420243217304176 15.684059969047482 47.158775549742046 14.780677438943371 Q 47.8973067959741 13.877294546770656 47.8973067959741 13.006881983786073 Q 47.88411880912629 12.241974582824092 47.488477393348944 11.61554140583273 Q 47.09283525343439 10.989108319358518 46.60487575731074 10.712158785211468 L 46.60487575731074 9.736242055892944 Z"
     style="fill:#ffffff;stroke:none"
     id="path8" />
  <path
     d="M 53.616048168404106 3.334344801657239 Q 53.586592104608656 3.3932566608867347 53.63077620030183 3.437440577672307 Q 53.557136398628415 3.4227126352283834 53.52768033483296 3.4227126352283834 Q 53.52768033483296 3.378528718442811 53.616048168404106 3.334344801657239 ZM 53.7485990242228 3.349072833554965 L 53.89587862756963 3.407984603330658 Q 53.80751079399849 3.437440577672307 53.733872065770704 3.437440577672307 Q 53.792783835546395 3.407984603330658 53.7485990242228 3.349072833554965 ZM 53.66927747481478 3.279524112095891 Q 53.590683005915395 3.279524112095891 53.52768033483296 3.319616859213316 L 53.4245848271793 3.4227126352283834 L 53.43931250126182 3.4816244050040766 L 53.48349659695499 3.4816244050040766 Q 53.56846554383737 3.5099470891188584 53.65779160654343 3.5099470891188584 Q 53.80071373625137 3.5099470891188584 53.95479039734533 3.437440577672307 L 54.11679803258989 3.466896462560153 L 54.11679803258989 3.378528718442811 L 53.95479039734533 3.378528718442811 Q 53.792782762100764 3.279524112095891 53.66927747481478 3.279524112095891 ZM 54.66787711090163 3.225638393680744 Q 54.702409141279546 3.225638393680744 54.698552251120766 3.2680686581174725 Q 54.691187698449085 3.349072833554965 54.632275928673394 3.437440577672307 Q 54.573364158897704 3.5258083217896488 54.51445238912201 3.562627864811147 Q 54.49712554534719 3.573457142170411 54.489990710040935 3.573457142170411 Q 54.47286746312114 3.573457142170411 54.51445238912201 3.5110803793457253 Q 54.55863612699998 3.4448045936211695 54.53654425806099 3.4448045936211695 Q 54.52918042101974 3.4448045936211695 54.51445238912201 3.45216852011623 Q 54.49762040378393 3.460584512785273 54.487401201359326 3.460584512785273 Q 54.46185283748261 3.460584512785273 54.47763284610051 3.407984603330658 Q 54.49972435722428 3.334344801657239 54.573364158897704 3.2607049999838207 Q 54.63648419336933 3.225638393680744 54.66787711090163 3.225638393680744 ZM 54.41135652365314 3.584719465388722 Q 54.47026829342883 3.5994474078326455 54.43344875040734 3.6362676664845655 Q 54.41503879998898 3.6546774379953146 54.402151727351566 3.6546774379953146 Q 54.389265012529364 3.6546774379953146 54.38190153330332 3.6362676664845655 Q 54.367173501405595 3.5994474078326455 54.41135652365314 3.584719465388722 ZM 54.684736290195744 3.1321701726389803 Q 54.65503726987206 3.1321701726389803 54.61754789677567 3.1428813709786327 Q 54.51445238912201 3.172337255866479 54.44081330307901 3.304888916769393 Q 54.367173501405595 3.437440577672307 54.396628491755415 3.496352436901802 Q 54.308261731629905 3.54053554860315 54.30089717895822 3.6068117815967193 Q 54.29353369973218 3.673087209506064 54.38190153330332 3.6951795257140607 Q 54.39395131834712 3.6981919719750107 54.40682264711525 3.6981919719750107 Q 54.48834332880974 3.6981919719750107 54.602820222693154 3.5773558072550697 Q 54.73537179414227 3.437440577672307 54.77219205279419 3.3269805173469678 Q 54.80901159581568 3.216521172652051 54.76482750012251 3.1649736871866296 Q 54.73671038084641 3.1321701726389803 54.684736290195744 3.1321701726389803 ZM 53.49603802009863 3.7384427839618706 Q 53.493621693979115 3.7384427839618706 53.49086007618104 3.7393633530458303 Q 53.46876856505727 3.746727011179482 53.47613204428332 3.7761828960673287 Q 53.48349659695499 3.8056387809551753 53.45404053315954 3.820366812852901 Q 53.445624361582894 3.8245748986412247 53.436607418267066 3.8245748986412247 Q 53.41406470216229 3.8245748986412247 53.3877652841578 3.798275301729128 Q 53.35094502550588 3.7614550430772082 53.35094502550588 3.7614550430772082 Q 53.306760929812704 3.7614550430772082 53.29939745058666 3.7761828960673287 Q 53.292033076822584 3.7909109279650544 53.306760929812704 3.8056387809551753 Q 53.3178070431898 3.8019568624345466 53.32885279875169 3.8019568624345466 Q 53.36199078106777 3.8019568624345466 53.39512876338385 3.8350948447506266 Q 53.4245848271793 3.8645509085460787 53.45076759742503 3.8645509085460787 Q 53.46385898254788 3.8645509085460787 53.47613204428332 3.8571870715048213 Q 53.51295230293523 3.8350948447506266 53.51295230293523 3.7835472698314025 Q 53.51295230293523 3.7384427839618706 53.49603802009863 3.7384427839618706 ZM 54.4408129452638 2.483806013703423 Q 54.639640481345076 2.483806013703423 54.89737942938683 2.5316720726441306 Q 55.41285732547034 2.627403430168223 55.41285732547034 3.054513537407488 Q 55.41285732547034 3.4816244050040766 55.13302579285918 3.7614550430772082 Q 54.94314077452985 3.9513404192217427 54.8346351008867 3.9513404192217427 Q 54.78323780835607 3.9513404192217427 54.75009982603999 3.9087346464240453 Q 54.64700396057112 3.7909109279650544 54.882651397489106 3.5258083217896488 Q 55.118298118776664 3.2607049999838207 54.963654678388565 3.0471499687276387 Q 54.887643635312216 2.9421821035289044 54.74936308452065 2.9421821035289044 Q 54.606314646043245 2.9421821035289044 54.396628491755415 3.054513537407488 Q 54.23462192995648 2.9219619212314756 53.763327056120524 2.8777787648032263 Q 53.822238825896214 2.627403430168223 54.10207000069216 2.5316720726441306 Q 54.24198576699774 2.483806013703423 54.4408129452638 2.483806013703423 ZM 53.35418611568663 3.958809453935018 Q 53.36272788040232 3.958809453935018 53.373037252260076 3.960282042435664 Q 53.4245848271793 3.967646416199738 53.50558810807877 3.9750100743333903 Q 53.586592104608656 3.982374448097464 53.57186443052614 3.982374448097464 L 53.336216993608154 3.997102301087584 Q 53.3263981864046 4.0020117046893615 53.320670638323 4.0020117046893615 Q 53.309215899975 4.0020117046893615 53.314125482484386 3.982374448097464 Q 53.32001619430218 3.958809453935018 53.35418611568663 3.958809453935018 ZM 53.557136398628415 4.01183033298531 Q 53.557136398628415 4.041286217873156 53.49822462885272 4.0633777289969295 Q 53.43931250126182 4.0854701346587285 53.39512876338385 4.1001979876488495 Q 53.38040073148613 4.1001979876488495 53.35830850473193 4.0854701346587285 Q 53.336216993608154 4.0707421027610025 53.38040073148613 4.056014249770882 L 53.557136398628415 4.01183033298531 ZM 53.68043701561374 3.05317459288813 Q 54.069936405673204 3.05317459288813 54.337716721979724 3.187065198310402 Q 54.337716721979724 3.2792750727090736 54.37580364647839 3.2792750727090736 Q 54.41071639224076 3.2792750727090736 54.47763284610051 3.201793140754325 Q 54.58377515027537 3.078891129913991 54.694155775623884 3.078891129913991 Q 54.729277127654235 3.078891129913991 54.76482750012251 3.091333885513211 Q 54.912107461284556 3.1428813709786327 54.83110310693946 3.3417084597908913 Q 54.75009982603999 3.54053554860315 54.5954563856519 3.6951795257140607 Q 54.44081330307901 3.8498226977407475 54.54390809510225 3.967646416199738 Q 54.64700396057112 4.0854701346587285 54.602820222693154 4.114926019546575 Q 54.58809219079543 4.556764113956665 54.639640481345076 4.733498886560927 Q 54.691187698449085 4.91023437479561 54.941562451634375 4.9175987485596835 Q 55.19193792045008 4.924962406693336 55.35394519787943 5.0280580932546 Q 55.515952833124 5.1311537798158655 55.508588638267526 5.69817996644902 Q 55.50122515904148 6.265205437451752 55.29503342810374 6.795411365432986 Q 55.088842054981214 7.325616935599009 55.13302579285918 7.605448468210168 L 53.86642292158939 7.796911809434972 Q 53.851695605322085 7.340344967496735 53.70441600197525 6.4419407467788306 Q 53.557136398628415 5.543536168245714 54.14625409638534 4.7187717492012275 Q 54.196329261711526 4.293133559559088 53.9271756506254 4.293133559559088 Q 53.87967782826365 4.293133559559088 53.822238825896214 4.306388824048563 Q 53.72234504875009 4.329441247921329 53.65151731681949 4.329441247921329 Q 53.450838802652 4.329441247921329 53.48349659695499 4.144381188803999 Q 53.6896872544471 4.01183033298531 53.62341164763015 3.967646416199738 Q 53.557136398628415 3.923462499414166 53.38040073148613 3.923462499414166 Q 53.3656726995884 3.8350948447506266 53.20366524325144 3.7909109279650544 Q 53.32148896171043 3.437440577672307 53.46876856505727 3.2901609743254694 Q 53.555403857377016 3.246843328165596 53.652231515980546 3.246843328165596 Q 53.72001066231388 3.246843328165596 53.792783835546395 3.2680686581174725 Q 53.96951842924305 3.319616859213316 54.131526064487616 3.334344801657239 L 54.131526064487616 3.2754329424277437 Q 54.02843019901874 3.2754329424277437 53.84433105265041 3.201793140754325 Q 53.752281658373846 3.164973239917616 53.66575514187823 3.164973239917616 Q 53.579228267567395 3.164973239917616 53.49822462885272 3.201793140754325 Q 53.557136398628415 3.113425396636983 53.60132013650638 3.054513537407488 Q 53.64148704082627 3.05317459288813 53.68043701561374 3.05317459288813 ZM 55.2655777221235 8.00310246692708 Q 55.692688500266286 8.783683505908812 55.42758499955285 9.608448282768508 L 55.515952833124 11.095971274688972 L 53.306760929812704 11.095971274688972 L 53.96951842924305 8.179838134069369 L 55.2655777221235 8.00310246692708 ZM 54.51537268984456 2.25 Q 54.28678315796248 2.25 54.05052278358815 2.296024694430207 Q 53.48349659695499 2.406484025147967 53.306760929812704 3.216521172652051 Q 53.18893739026132 3.378528718442811 53.041658502544905 3.6583592670621403 Q 52.96801870087148 3.8498226977407475 53.056386355535025 3.8719142088645198 Q 53.144754189106166 3.8940066145263197 53.20366524325144 3.938190531311892 Q 53.13002544157802 3.982374448097464 53.15211784723982 4.019193812211357 Q 53.1742093583636 4.056014249770882 53.23312112813929 4.056014249770882 Q 53.25521317598587 4.0523321523426485 53.266259110455366 4.0523321523426485 Q 53.299396913863845 4.0523321523426485 53.23312112813929 4.0854701346587285 Q 53.144754189106166 4.129654051444302 53.21839327514917 4.151745562568074 Q 53.292033076822584 4.173837073691846 53.306760929812704 4.343209082700483 Q 53.32148896171043 4.512580197171093 53.47613204428332 4.519944570935166 Q 53.50705980204138 4.521417338343418 53.541816540371784 4.521417338343418 Q 53.680849218736746 4.521417338343418 53.881150595671905 4.497852344180972 L 53.881150595671905 4.497852344180972 Q 53.9989744930385 4.645131947527809 53.77805580364867 4.7187717492012275 Q 53.20366524325144 5.484624040654811 53.35830850473193 6.41248504079859 Q 53.51295230293523 7.340344967496735 53.586592104608656 8.047286562620258 L 52.76182714884135 11.464169567425644 Q 52.51145185893325 12.068014939265085 52.57036362870894 12.612948899144046 Q 52.20216551487987 13.747000556779932 52.09906964941101 14.284571395248056 Q 51.99597396284974 14.822140086824914 51.730871446128134 14.962055853130495 Q 51.46576812432231 15.101971619436075 50.92083429862405 15.337618698538845 Q 50.3611725416636 15.45544152245981 50.30962505200503 15.580629614682874 Q 50.25807681317087 15.705817706905938 50.493724191384786 15.72790921802971 Q 50.729370823218545 15.750000729153482 52.37890100311456 15.750000729153482 Q 52.61454754549452 15.529081324133227 52.54827211758517 15.168247584068235 Q 52.481996689675825 14.8074124127424 53.063750013668674 13.923736223922221 Q 53.645504232199556 13.04005931947162 53.38040073148613 12.392030209754212 Q 53.3656726995884 12.156383130651442 53.57186443052614 11.869187760999024 Q 53.77805580364867 11.581993106977029 53.910606659467355 11.464169567425644 L 54.80901159581568 11.464169567425644 Q 54.85319533369365 11.670360582732963 55.10357080250936 12.12692706685599 Q 55.29503342810374 13.820640358453351 55.35394519787943 14.321390580454343 Q 55.41285732547034 14.822140086824914 55.16984640932631 15.028331817762655 Q 54.92683513536707 15.234523548700396 54.38190153330332 15.337618698538845 Q 53.83696685779394 15.45544152245981 53.77805580364867 15.580629614682874 Q 53.71914403387298 15.705817706905938 53.95479039734533 15.72790921802971 Q 54.19043783426331 15.750000729153482 55.8399673879827 15.750000729153482 Q 56.07561482490068 15.529081324133227 55.98724699132954 15.168247584068235 Q 55.898879157758394 14.8074124127424 55.957790927534084 14.453942509718667 Q 56.00197502322727 14.129927954859962 56.19343764882164 13.400893775167033 Q 56.384901705676874 12.671861026734948 55.898879157758394 12.112199392773475 L 55.751599554411555 9.593720608685993 Q 56.06088679300296 8.75422744211336 55.54540889691945 7.679088269883587 Q 55.47176909524603 7.340344967496735 55.64850368894268 6.824867071413227 Q 55.82523935608498 6.309389175329719 55.82523935608498 5.76445557326597 Q 57.40112982376137 6.221021341758574 58.19643853682562 6.309389175329719 Q 59.0801147256458 5.558263842328229 59.816512026749564 4.380028625721981 Q 60.08161516964778 4.203292958579692 60.118435070484495 3.945554010537938 Q 60.1552549713212 3.687815151949987 60.243622447077136 3.584719465388722 Q 60.331989922833074 3.4816244050040766 60.27307851087259 3.45216852011623 Q 60.25948367974793 3.431775826160224 60.2396134854537 3.431775826160224 Q 60.216432784827816 3.431775826160224 60.184711035116656 3.459532088796079 Q 60.12579890752575 3.5110803793457253 60.088979006689044 3.6289032927204916 Q 60.05215910585233 3.746727011179482 60.00797536797437 3.8350948447506266 Q 59.94906395601389 3.864550729638473 59.934335566300945 3.864550729638473 Q 59.904880218135915 3.864550729638473 59.934335566300945 3.7761828960673287 Q 60.0227037576873 3.4816244050040766 60.118435070484495 3.363800775998888 Q 60.214166383281686 3.245977057539897 60.390902050423975 3.0250576525196418 Q 60.420358114219425 2.9661457932901465 60.39826588746523 2.9366898636753986 Q 60.38942928301572 2.9249078585900907 60.37941475089178 2.9249078585900907 Q 60.36439223707545 2.9249078585900907 60.346718312546 2.951417850846223 Q 60.35742915307045 2.8657285772173147 60.30582074956536 2.8657285772173147 Q 60.28646795606617 2.8657285772173147 60.25835083679007 2.8777787648032263 Q 60.27709534443066 2.8121724066114484 60.24216184538606 2.8121724066114484 Q 60.22220005039783 2.8121724066114484 60.184711035116656 2.8335948927445553 Q 60.196984096852084 2.7722284211679744 60.16834671425927 2.7722284211679744 Q 60.16261880836246 2.7722284211679744 60.1552549713212 2.7746830782419614 Q 60.15157305280057 2.77100107026753 60.14604981720442 2.77100107026753 Q 60.129480826046375 2.77100107026753 60.0963428437303 2.804138963129808 Q 59.99324769389185 2.980873780460971 59.83860425350376 3.1428813709786327 Q 59.68396081311566 3.304888916769393 59.639777075237696 3.4227126352283834 Q 59.56613727356428 3.584719465388722 59.53668120976882 3.798275301729128 Q 59.50722514597337 4.01183033298531 59.44831373401289 4.2474768753652645 Q 58.56627132944589 5.0560159847618245 58.09508737832532 5.541737431180291 L 58.09508737832532 5.541737431180291 Q 58.0950866626949 5.541738146810713 58.095085947064476 5.541738862441135 L 58.095085947064476 5.541738862441135 Q 58.0950866626949 5.541738146810713 58.09508737832532 5.541737431180291 L 58.09508737832532 5.541737431180291 Q 58.17544122461692 5.456627505104805 58.918107448216446 4.291660792150837 L 58.918107448216446 4.276932760253111 Q 59.18321059111467 4.1001979876488495 59.22739432899263 3.8498226977407475 Q 59.2715780668706 3.5994474078326455 59.35258170558528 3.4889880631377284 Q 59.43358605993038 3.378528718442811 59.389401606421984 3.349072833554965 Q 59.36415416513768 3.330136894776521 59.34025854972032 3.330136894776521 Q 59.308398683337735 3.330136894776521 59.27894261954228 3.363800775998888 Q 59.22739432899263 3.4227126352283834 59.17584675407341 3.5478999223672236 Q 59.124299179154185 3.673087209506064 59.094843115358735 3.731999068735559 Q 59.05065937748077 3.7761828960673287 59.02120331368532 3.7761828960673287 Q 59.0064756396028 3.7761828960673287 59.02120331368532 3.687815151949987 Q 59.124299179154185 3.378528718442811 59.22003049195138 3.2607049999838207 Q 59.31576180474857 3.1428813709786327 59.49249747189086 2.907234694417974 Q 59.52195353568631 2.863050822359303 59.49986130893211 2.8409585061513063 Q 59.490393518450496 2.831490805123492 59.479573186471505 2.831490805123492 Q 59.46514607716619 2.831490805123492 59.44831373401289 2.84832287991538 Q 59.45862310587065 2.776155845650213 59.41841612624713 2.776155845650213 Q 59.40118446131842 2.776155845650213 59.374673932339476 2.7894110206858844 Q 59.384983304197235 2.7172439864207174 59.337559191768946 2.7172439864207174 Q 59.31723528778724 2.7172439864207174 59.28630645658354 2.730499161456389 Q 59.28630645658354 2.683369709854314 59.267454604379665 2.683369709854314 Q 59.26274146242109 2.683369709854314 59.25685039278809 2.6863152893977182 Q 59.24506825352208 2.6745329264971995 59.23328539862564 2.6745329264971995 Q 59.21561218972663 2.6745329264971995 59.19793826519718 2.7010432318416417 Q 59.0801147256458 2.8777787648032263 58.93283583792938 3.039785594963565 Q 58.78555623458254 3.201793140754325 58.74137249670458 3.319616859213316 Q 58.66773269503116 3.4816244050040766 58.63827663123571 3.687815151949987 Q 58.608820567440254 3.8940066145263197 58.549909155479774 4.144381188803999 Q 57.66623225102917 4.954418291581182 57.40112982376137 5.514080820080684 Q 56.87092353796493 5.263705351264977 56.510089082269516 5.212157239622936 Q 56.1492546265741 5.160609843611317 55.88415112586067 4.939690259683456 Q 55.61904869859287 4.7187717492012275 55.177209888552355 4.7187717492012275 Q 54.75009982603999 4.7187717492012275 54.86792336559138 4.188565821219994 Q 55.28030539620602 4.01183033298531 55.47176909524603 3.7835472698314025 Q 55.663231720840415 3.555263491047073 55.663231720840415 3.039785594963565 Q 55.663231720840415 2.4948517916287596 55.14039034553086 2.3402085804660344 Q 54.83539867854686 2.25 54.51537268984456 2.25 Z"
     style="fill:#ffffff;stroke:none"
     id="path10" />
  <path
     d="M 62.88485593744452 2.25 L 62.67541624437605 2.7037860016483495 L 62.01219054965924 4.187317160883338 L 61.907470703125 4.396756853951807 L 62.343803397017645 4.606196547020276 L 62.448523243551875 4.379303546196102 L 62.90230924520023 3.349558388609462 L 63.129202246024406 3.7509844669906944 L 63.338641939092874 4.169863853127632 L 63.54808163216134 3.7509844669906944 L 63.79242794074122 3.314651773098051 L 64.0193209415654 3.7509844669906944 L 64.22876063463386 4.169863853127632 L 64.43820032770233 3.7509844669906944 L 64.66509332852651 3.314651773098051 L 64.90943963710639 3.7509844669906944 L 65.11887933017486 4.169863853127632 L 65.32831902324332 3.7509844669906944 L 65.5552120240675 3.3321050808537565 L 65.78210502489168 3.7509844669906944 L 66.00899802571585 4.169863853127632 L 66.21843771878432 3.7509844669906944 L 66.44533071960849 3.314651773098051 L 66.67222372043267 3.7509844669906944 L 66.89911672125685 4.169863853127632 L 67.1085564143253 3.7509844669906944 L 67.33544941514948 3.314651773098051 L 67.56234241597366 3.7509844669906944 L 67.78923541679784 4.169863853127632 L 67.99867510986631 3.7509844669906944 L 68.22556811069049 3.314651773098051 L 68.45246111151465 3.7509844669906944 L 68.66190080458313 4.169863853127632 L 68.8887938054073 3.7509844669906944 L 69.11568680623148 3.314651773098051 L 69.34257980705564 3.7509844669906944 L 69.55201950012412 4.169863853127632 L 69.7789125009483 3.7509844669906944 L 70.00580550177247 3.314651773098051 L 70.25015181035235 3.7684377747464 L 70.45959150342082 4.152410545371927 L 70.68648450424499 3.7684377747464 L 70.93083081282487 3.297198465342345 L 71.54169658427458 4.396756853951807 L 71.66386973856451 4.606196547020276 L 72.08274912470145 4.379303546196102 L 71.97802927816721 4.169863853127632 L 71.14027050589334 2.668879386136938 L 70.93083081282487 2.302359923267117 L 70.7213911197564 2.686332693892644 L 70.45959150342082 3.140118695540993 L 70.21524519484093 2.686332693892644 L 69.98835219401676 2.2849066155114115 L 69.796365808704 2.686332693892644 L 69.55201950012412 3.1226653877852875 L 69.32512649929994 2.686332693892644 L 69.11568680623148 2.267453307755706 L 68.906247113163 2.686332693892644 L 68.67935411233883 3.1226653877852875 L 68.43500780375895 2.686332693892644 L 68.22556811069049 2.267453307755706 L 68.01612841762201 2.686332693892644 L 67.77178210904214 3.1226653877852875 L 67.54488910821796 2.686332693892644 L 67.33544941514948 2.267453307755706 L 67.12600972208102 2.686332693892644 L 66.89911672125685 3.1226653877852875 L 66.65477041267697 2.686332693892644 L 66.44533071960849 2.267453307755706 L 66.23589102654003 2.686332693892644 L 66.00899802571585 3.105212080029582 L 65.78210502489168 2.686332693892644 L 65.5552120240675 2.267453307755706 L 65.34577233099904 2.686332693892644 L 65.11887933017486 3.1226653877852875 L 64.89198632935069 2.686332693892644 L 64.66509332852651 2.267453307755706 L 64.45565363545803 2.686332693892644 L 64.22876063463386 3.1226653877852875 L 64.0018676338097 2.686332693892644 L 63.79242794074122 2.267453307755706 L 63.56553493991704 2.686332693892644 L 63.338641939092874 3.1226653877852875 L 63.1117489382687 2.686332693892644 L 62.88485593744452 2.25 Z"
     style="fill:#ffffff;stroke:none"
     id="path12" />
  <path
     d="M 63.27443892811982 6.259309061672363 C 63.4809146534657 6.259309061672363 63.733678688967316 6.338701824656652 63.80737641014707 6.520432900291425 L 63.78024356864367 12.424986236726237 L 63.78024356864367 12.424986236726237 C 63.67551693104273 12.187866155756272 63.364411640402366 11.746701418163685 62.44035555438526 11.200122813650946 L 63.14189648075773 6.313084789189912 C 63.17480812055506 6.278116188550019 63.17394525560864 6.259309061672363 63.27443892811982 6.259309061672363 ZM 63.78024356864367 12.424986236726237 L 63.78024356864367 12.424986236726237 C 63.78024356864367 12.424986236726237 63.78024370180184 12.424986236726237 63.78024370180184 12.424986236726237 L 63.78024356864367 12.424986236726237 L 63.78024356864367 12.424986236726237 ZM 63.17625967777434 5.709508096006715 C 63.01821091596449 5.709508096006715 62.87555850106778 5.732071731394448 62.774560558564 5.759616123191687 L 61.907470703125 11.546500238981405 C 62.36614920228281 11.860662974380208 63.62666679084007 12.721470360744435 63.576401179282406 13.469177990573193 L 63.585800281922516 15.750000621360392 L 64.22599440679484 15.74120046417229 L 64.22240419619524 6.3561774364059564 C 64.03203248686093 5.841830973867631 63.559002066902195 5.709508096006715 63.17625967777434 5.709508096006715 Z"
     style="fill:#ffffff;stroke:none"
     id="path14" />
  <path
     d="M 71.13119311353364 6.259309061672363 C 71.33766883887952 6.259309061672363 71.59043287438114 6.338701824656652 71.66413059556089 6.520432900291425 L 71.63699775405749 12.424986236726237 L 71.63699775405749 12.424986236726237 C 71.53227111645654 12.187866155756272 71.22116582581619 11.746701418163685 70.29710973979908 11.200122813650946 L 70.99865066617156 6.313084789189912 C 71.03156230596888 6.278116188550019 71.03069944102246 6.259309061672363 71.13119311353364 6.259309061672363 ZM 71.63699775405749 12.424986236726237 L 71.63699775405749 12.424986236726237 C 71.63699775405749 12.424986236726237 71.63699788721566 12.424986236726237 71.63699788721566 12.424986236726237 L 71.63699775405749 12.424986236726237 L 71.63699775405749 12.424986236726237 ZM 71.03301386318816 5.709508096006715 C 70.87496510137831 5.709508096006715 70.73231268648159 5.732071731394448 70.63131474397781 5.759616123191687 L 69.76422488853882 11.546500238981405 C 70.22290338769663 11.860662974380208 71.48342097625388 12.721470360744435 71.43315536469623 13.469177990573193 L 71.44255446733634 15.750000621360392 L 72.08274859220866 15.74120046417229 L 72.07915838160906 6.3561774364059564 C 71.88878667227475 5.841830973867631 71.41575625231602 5.709508096006715 71.03301386318816 5.709508096006715 Z"
     style="fill:#ffffff;stroke:none"
     id="path16" />
  <path
     d="M 83.16192209059652 2.8396894597119426 L 83.34206568968726 2.914749635901461 L 77.93830211758896 14.948580418469053 C 77.8467145920959 14.889114678737549 77.33276852701944 14.637358042835622 77.16524965002924 14.441617365869366 C 77.16524965002924 14.311512779916862 77.25734396952416 14.22296816738493 77.52492045776745 13.86599536615991 C 77.8063050231517 13.490601050664447 78.10578768585678 13.100483563558194 77.76511180383567 12.597379308538896 C 77.60765860785523 12.364855773627031 77.39165727372125 12.195575115933469 77.11108178794848 12.195575115933469 C 76.93668770413136 12.195575115933469 76.73734610356446 12.26097482246578 76.51161038485304 12.417235709448155 C 76.04123481484346 12.137011935131108 75.58597388347229 11.996900406130889 74.84538246712872 11.996900406130889 C 74.71527877657198 10.855988557500826 74.57016288065213 10.135618311371834 74.4100347793692 9.234899599601517 L 79.76921310438236 9.234899599601517 L 83.16192209059652 2.8396894597119426 ZM 83.15069239509481 2.25 C 83.12002329941922 2.25 83.08873817145866 2.251407374928331 83.05683772752975 2.2542221246975527 L 79.6190924833846 8.37911327985368 C 79.49899663127134 8.579273630306293 79.3738965913176 8.679353089215988 79.24379236352341 8.679353089215988 C 79.2296995505298 8.681191157638352 79.21468268910873 8.682110191849535 79.19874213741852 8.682110191849535 C 78.6939609852142 8.682110191849535 77.26282271711904 7.760455694506165 74.90532804944964 5.917147057977728 C 74.36489608816292 5.356699509343633 74.08467240338545 4.79625213978869 74.0646567264985 4.2358045911545945 C 74.04464060191366 3.675357042520499 74.21227435818027 3.3551012876525053 74.56755808483788 3.2750372370110368 C 74.67481378263003 3.250866923783583 74.77158045629564 3.2387816776302802 74.85785810583471 3.2387816776302802 C 75.05737457719412 3.2387816776302802 75.20079987637376 3.303408657619089 75.28813391383407 3.432662617596706 C 75.41323377470864 3.617810852225797 75.4057276720271 3.8029588182361582 75.26561560578942 3.988106605167368 C 75.19555966221016 4.08068031955382 75.13175859527318 4.126967266286622 75.0742126735972 4.126967266286622 C 75.01666675192124 4.126967266286622 74.96537579642711 4.08068031955382 74.92033980711486 3.988106605167368 C 74.83026782849034 3.8029588182361582 74.73519202018365 3.710384924770554 74.63511238219479 3.710384924770554 C 74.44496022834396 3.7804406892706632 74.3999242390317 3.9455726202357635 74.50000450379758 4.20578035950755 C 74.59293557063307 4.447401831688495 74.76353075884634 4.568212567778967 75.011790157977 4.568212567778967 C 75.03088724835065 4.568212567778967 75.0504438558299 4.567497683801758 75.07046006995431 4.566067915847338 C 75.35068357565264 4.546051880802077 75.54583938010647 4.45097607249539 75.65592739377625 4.280840490927281 C 75.7660155865252 4.110704551200865 75.8210595038205 3.9105445589065564 75.8210595038205 3.6803607826630858 C 75.8210595038205 3.4501769168800385 75.74599955147993 3.250016924585731 75.59587982587793 3.079880895319739 C 75.44575938395931 2.909745448060993 75.22808562961913 2.8021596178510184 74.9428581151595 2.757123449459604 C 74.88937800656433 2.748679285406908 74.83589798750874 2.7444571809956657 74.78241787891356 2.7444571809956657 C 74.55067002535122 2.7444571809956657 74.31892221655866 2.823739192977697 74.08717436299632 2.9823031721719717 C 73.80194691569136 3.17745924524454 73.63681510224696 3.4977150001125343 73.59177890447538 3.94307052631553 C 73.54674270670378 4.388426231597678 73.66934052122603 4.878817657573359 73.95957236343172 5.414245162400878 C 74.24980420004118 5.949673204465855 74.77272190681435 6.48760298229276 75.52832543898144 7.028034137723289 C 76.28392897114853 7.568466009470428 77.00200252714534 8.083878016490143 77.68254592789269 8.574269442465823 C 77.69855882756056 8.638320324820693 77.66333073481789 8.670346124156435 77.57686200782298 8.670346124156435 C 77.5552446469951 8.670346124156435 77.53042463460199 8.668344735546892 77.50240197064365 8.664341242011194 L 73.65933320323134 8.664341242011194 C 73.97958848801656 10.495803792594636 74.1747442924704 11.79183901742971 74.24480054943818 12.552446200199809 C 74.33430551869576 12.545648355566822 74.42381053272312 12.542249433250328 74.51331554675049 12.542249433250328 C 75.21444194714026 12.542249433250328 75.91556834753004 12.750811461226682 76.61669474791981 13.16793766612922 C 76.76681465260097 12.967778031993216 76.92944466872498 12.86769785676691 77.10458443813357 12.86769785676691 C 77.27972420754215 12.86769785676691 77.36979636524582 12.962773844152748 77.37480019492799 13.152925818924425 C 77.0693420190587 13.640672962132703 76.62154170426429 14.114183312708672 76.46657448508036 14.669136712940764 L 78.14791784729925 15.749999740118433 L 83.86748535607131 2.644533162790433 C 83.68609035186213 2.381511060326053 83.44715936486998 2.25 83.15069239509481 2.25 Z"
     style="fill:#ffffff;stroke:none"
     id="path18" />
  <path
     d="M 86.67636002720933 2.25 C 85.9789896240534 2.25 85.36748480796814 2.7629982188611715 85.36748480796814 3.42148077115561 L 85.36748480796814 15.749999288300122 L 86.21947082335404 15.749999288300122 L 86.21947082335404 3.42148077115561 C 86.21947082335404 3.098508113273651 86.50336414061113 2.994011903683932 86.68174345532853 2.994011903683932 C 86.86891461309376 2.994011903683932 87.15712356446281 3.1252137636833535 87.15712356446281 3.5209571603146776 L 87.15712356446281 11.62395272807413 L 88.0091095798487 11.62395272807413 L 88.0091095798487 3.5209571603146776 C 88.0091095798487 2.861641676122041 87.35615885881147 2.25 86.67636002720933 2.25 Z"
     style="fill:#ffffff;stroke:none"
     id="path20" />
  <path
     d="M 90.95764751892867 2.25 L 90.64724659087928 2.9225353441070085 L 89.66431031872287 5.121208584456843 L 89.50910985469818 5.431609512506231 L 90.15577845480108 5.74201044055562 L 90.31097891882577 5.405742768502116 L 90.98351426293277 3.8796048722592893 L 91.31978193498628 4.47453998435395 L 91.63018286303567 5.095341840452727 L 91.94058379108506 4.47453998435395 L 92.30271820714268 3.827871384251058 L 92.63898587919618 4.47453998435395 L 92.94938680724557 5.095341840452727 L 93.25978773529496 4.47453998435395 L 93.59605540734846 3.827871384251058 L 93.95818982340609 4.47453998435395 L 94.26859075145548 5.095341840452727 L 94.57899167950487 4.47453998435395 L 94.91525935155836 3.8537381282551735 L 95.25152702361187 4.47453998435395 L 95.58779469566537 5.095341840452727 L 95.89819562371476 4.47453998435395 L 96.23446329576826 3.827871384251058 L 96.57073096782177 4.47453998435395 L 96.90699863987527 5.095341840452727 L 97.21739956792466 4.47453998435395 L 97.55366723997817 3.827871384251058 L 97.88993491203166 4.47453998435395 L 98.22620258408517 5.095341840452727 L 98.53660351213456 4.47453998435395 L 98.87287118418807 3.827871384251058 L 99.20913885624157 4.47453998435395 L 99.51953978429096 5.095341840452727 L 99.85580745634446 4.47453998435395 L 100.19207512839796 3.827871384251058 L 100.52834280045147 4.47453998435395 L 100.83874372850086 5.095341840452727 L 101.17501140055437 4.47453998435395 L 101.51127907260786 3.827871384251058 L 101.87341348866549 4.500406728358066 L 102.18381441671488 5.0694750964486115 L 102.52008208876838 4.500406728358066 L 102.882216504826 3.8020046402469423 L 103.78755254497005 5.431609512506231 L 103.96861975299886 5.74201044055562 L 104.58942160909764 5.405742768502116 L 104.43422114507294 5.095341840452727 L 103.1926174328754 2.870801856098777 L 102.882216504826 2.327600232012347 L 102.57181557677661 2.8966686001028927 L 102.18381441671488 3.569203944209901 L 101.82168000065725 2.8966686001028927 L 101.48541232860376 2.3017334880082316 L 101.20087814455849 2.8966686001028927 L 100.83874372850086 3.5433372002057855 L 100.50247605644735 2.8966686001028927 L 100.19207512839796 2.275866744004116 L 99.88167420034858 2.8966686001028927 L 99.54540652829508 3.5433372002057855 L 99.18327211223746 2.8966686001028927 L 98.87287118418807 2.275866744004116 L 98.56247025613868 2.8966686001028927 L 98.20033584008105 3.5433372002057855 L 97.86406816802756 2.8966686001028927 L 97.55366723997817 2.275866744004116 L 97.24326631192878 2.8966686001028927 L 96.90699863987527 3.5433372002057855 L 96.54486422381765 2.8966686001028927 L 96.23446329576826 2.275866744004116 L 95.92406236771888 2.8966686001028927 L 95.58779469566537 3.5174704562016696 L 95.25152702361187 2.8966686001028927 L 94.91525935155836 2.275866744004116 L 94.60485842350897 2.8966686001028927 L 94.26859075145548 3.5433372002057855 L 93.93232307940197 2.8966686001028927 L 93.59605540734846 2.275866744004116 L 93.28565447929907 2.8966686001028927 L 92.94938680724557 3.5433372002057855 L 92.61311913519206 2.8966686001028927 L 92.30271820714268 2.275866744004116 L 91.96645053508917 2.8966686001028927 L 91.63018286303567 3.5433372002057855 L 91.29391519098216 2.8966686001028927 L 90.95764751892867 2.25 Z"
     style="fill:#ffffff;stroke:none"
     id="path22" />
  <path
     d="M 92.78364601172507 12.878848205320537 C 93.58916212218857 12.878848205320537 94.59742651321275 13.2926455512671 95.08531323354691 13.78053227160126 C 95.51216351475183 14.207382190737576 95.56796625220402 14.773305557384845 95.58361232280731 15.299158067442477 L 90.00740822870284 15.299158067442477 C 90.02305448034045 14.773305557384845 90.07885721779263 14.207382190737576 90.50570731796324 13.78053227160126 C 90.9935942193317 13.2926455512671 91.97813026333017 12.878848205320537 92.78364601172507 12.878848205320537 ZM 92.78364601172507 12.428006172180176 C 91.82804540438696 12.428006172180176 90.79983736945917 12.869460490544839 90.197236453183 13.472061406821012 C 89.57916095246063 14.090137135250586 89.50910913944244 14.903828392733544 89.50910913944244 15.512714819982648 L 89.50910913944244 15.750000100582838 L 96.05818288400769 15.750000100582838 L 96.05818288400769 15.512714819982648 C 96.05818288400769 14.903828392733544 96.01185982675673 14.090137135250586 95.39378409832716 13.472061406821012 C 94.79118354411959 12.869460490544839 93.73924680009749 12.428006172180176 92.78364601172507 12.428006172180176 Z"
     style="fill:#ffffff;stroke:none"
     id="path24" />
  <path
     d="M 100.86119410753842 10.518334150314331 L 100.84600786406276 10.525927279123817 L 103.56434798068756 15.734813672132447 L 104.58942068253526 15.734813672132447 L 101.87108020384186 10.518334150314331 ZM 98.58325550429375 10.525927279123817 L 97.5581830739975 10.533520407933304 L 100.2765231906223 15.749999915608115 L 101.3015955304014 15.742406974904583 L 98.58325550429375 10.525927279123817 Z"
     style="fill:#ffffff;stroke:none"
     id="path26" />
  <path
     d="M 111.94052290921623 2.634964374701269 C 112.69489589297723 2.634964374701269 113.36694859360152 2.983299489400852 113.80459259234003 3.5282020253753075 L 110.07665372837091 3.5282020253753075 C 110.51425044068338 2.983299489400852 111.18617890430016 2.634964374701269 111.94052290921623 2.634964374701269 ZM 114.05682445868075 3.9131664000765767 C 114.20068366867946 4.187013351892983 114.29305295370746 4.492323497191851 114.32088595945241 4.816228662396638 L 109.56036036125853 4.816228662396638 C 109.58818969569712 4.492323497191851 109.68057949109001 4.187013351892983 109.82442186203019 3.9131664000765767 ZM 114.32329198679429 5.201193037097907 C 114.29969654971251 5.524408975720384 114.21204690034929 5.8296666458135515 114.07286464095998 6.104255299417967 L 109.80838167975097 6.104255299417967 C 109.66921606361718 5.8296666458135515 109.58154673605183 5.524408975720384 109.55795433391665 5.201193037097907 ZM 113.82865286575885 6.489219674119236 C 113.39180186919602 7.051605852135636 112.70893849298578 7.413134173402281 111.94052290921623 7.413134173402281 C 111.1721576468193 7.413134173402281 110.48939843780843 7.051580789350825 110.05259345495209 6.489219674119236 ZM 111.94052290921623 2.25 C 110.41134000290768 2.25 109.16657388324427 3.4949711223516258 109.1665738863037 5.024149525191021 C 109.1665738863037 6.5533271448183905 110.41134010080918 7.798098548103551 111.94052290921623 7.798098548103551 C 113.46974987120119 7.798098548103551 114.71467243440725 6.5533279280304155 114.71467243440725 5.024149525191021 C 114.71467243440725 3.4949703391396003 113.46975026280721 2.25 111.94052290921623 2.25 Z"
     style="fill:#ffffff;stroke:none"
     id="path28" />
  <path
     d="M 106.81272074362082 9.846009443515817 C 106.88147070360024 9.877373169071058 106.89712843365733 9.961476434383474 106.92500201957535 10.024656973650623 C 106.9959737562677 10.24876056331284 107.02204061889549 10.485204441646513 107.07907137733956 10.713498215644366 C 107.21010519671862 11.339895529280803 107.34113901609767 11.966292842917237 107.47217273757522 12.592690156553674 C 107.3624311245144 12.718405085167056 107.25268960935507 12.84412001378044 107.14294799629424 12.969834942393824 C 107.00099238312315 12.87566622773759 106.85903676995206 12.78149672986933 106.71708115678096 12.68732723200107 C 106.72947470387014 11.801775240931814 106.72754114918256 10.915883335843557 106.74874362877313 10.030546728081275 C 106.75660071390996 9.96651522894858 106.760695052674 9.892150030353385 106.81272074362082 9.846009443515817 ZM 117.23081913397391 9.48029328754961 L 117.22941561802448 9.482699314891494 C 116.95273187225224 9.964513730617792 116.84324039753201 10.372158750755231 117.0832494570051 10.884009739259811 C 116.07423192225926 12.165182487847282 115.12880180542776 13.494850941832553 114.2345130842157 14.858365903493436 L 113.90087729280793 14.458363857905397 C 114.65091245676652 13.236280540570649 115.3958872878293 11.996270283187606 116.37226759426666 10.937744349895198 C 116.28692567913615 10.217134461729106 116.49807572511105 9.67505736313611 117.23081913397391 9.48029328754961 ZM 117.38663446714564 9.0655746880052 C 116.99548115102003 9.0655746880052 116.66708739769795 9.1848829422512 116.32731279043547 9.496325246102565 L 116.32731279043547 9.496324462890538 C 115.97748957288772 9.89995904585216 115.94213303242724 10.324369110998285 115.88805537492475 10.819849010142933 C 115.08339665468199 11.83533587621817 114.40385057300514 12.94252433906978 113.65546250393587 13.998411631048779 C 113.44106134484372 13.985963259117824 113.22699618371045 13.980402453737822 113.01320201393794 13.980402453737822 C 111.61602068336728 13.980402453737822 110.23042384186361 14.21789035370129 108.83839487160174 14.322423313089013 C 108.56339503168401 14.085222068726825 108.29189438729256 13.833275291563325 107.96473478031942 13.671445673248913 C 107.79667823479744 13.598693108213919 107.61390768075817 13.569162882010026 107.43247289482815 13.551492052294023 C 107.42096241929755 13.447505774899994 107.40491313217854 13.344091242284474 107.39377595507953 13.240112013798672 C 107.56157227840609 13.026151803076797 107.72888829695809 12.811832098035284 107.89723756797454 12.598304220351402 C 107.65982769550911 11.62762021497443 107.43449573568662 10.653741487746045 107.1902653591999 9.684873359449853 C 107.12929758970738 9.532608717995057 106.96879698429849 9.420864725489912 106.80556889196205 9.420864725489912 C 106.7663594867951 9.420864725489912 106.7269927049618 9.427312518488627 106.68881033551384 9.441195343244013 C 106.49399997699172 9.514188354370791 106.38112708225353 9.728537038257244 106.39747039206193 9.931620391977036 C 106.36593369902597 10.892094836997526 106.33435214262617 11.852567323987952 106.30284344942012 12.813042160614453 C 106.51250470723635 12.9723921296566 106.72228711816273 13.131582323445574 106.9320195993225 13.290839090256705 C 106.93903717906967 13.376386206937859 106.94605475881683 13.461934890043064 106.95307233856398 13.547482006724218 C 106.67983443199878 13.557005864952504 106.4035672081718 13.561586088876766 106.13502304232378 13.613647758625998 C 106.06927399593256 13.654943395874735 106.08190661237363 13.753074380167227 106.12680244890569 13.805528439141163 C 106.23553769570238 13.935197805270551 106.4043160812449 13.954359087470799 106.56511766034991 13.954359087470799 C 106.58738021741681 13.954359087470799 106.6094899012865 13.95399176103091 106.63126618158714 13.953499903878988 L 106.63126618158714 13.953499903878988 C 106.49639521069288 14.425215192144378 106.72134295606617 14.868168585202747 107.07918827173435 15.167339914646902 C 107.09469724045736 15.361559266269769 107.11017869885801 15.555781750740737 107.12570480034408 15.750000319151578 C 107.31303472528744 15.741117911572054 107.50036817468491 15.732304426650764 107.68771268695224 15.723734520669355 C 107.66650702556281 15.560128577481443 107.64547631415955 15.396537515322013 107.62515597606328 15.233105445203728 L 107.62515597606328 15.233105445203728 C 107.68740948599692 15.23606442023551 107.74964723378855 15.237290930267212 107.8118731354983 15.237290930267212 C 108.1000910489649 15.237290930267212 108.38805500593227 15.210976572639417 108.67615445858003 15.20859169202222 C 109.69592901888805 15.269657950426929 110.71800818058068 15.348583009433728 111.74004426561193 15.348583009433728 C 112.11051608499606 15.348583009433728 112.48098242189603 15.338212499006037 112.85133088538619 15.312862275381452 C 113.2593146447246 15.289701129367726 113.66788894593012 15.263679693037414 114.07663163772109 15.263679693037414 C 114.18579103054257 15.263679693037414 114.29496217154443 15.265535122325474 114.40413801181845 15.269797362167441 C 115.53481970258252 13.844822969665124 116.60389706828049 12.371808701163758 117.6550827384713 10.887218558927682 C 117.23571969161654 10.432534999365608 117.46248776858901 9.958891051487786 117.79182450918961 9.536635211017394 L 117.77678683830284 9.0987382347947 C 117.63898381529017 9.077385525347514 117.50970292232536 9.0655746880052 117.38663446714564 9.0655746880052 Z"
     style="fill:#ffffff;stroke:none"
     id="path30" />
  <path
     d="M 121.12978929774687 2.9892379897054955 C 121.40740739894987 2.9892379897054955 121.74726270867606 3.095985977015074 121.84635339540274 3.340333519869274 L 121.8098717803083 11.279334014803599 L 121.8098717803083 11.279334014803599 C 121.66906098897945 10.960512872387417 121.25076261556485 10.367342335933275 120.00831779269085 9.632436990092634 L 120.95157860250015 3.06154244747758 C 120.99583013343778 3.0145252182361735 120.99466996350681 2.9892379897054955 121.12978929774687 2.9892379897054955 ZM 121.8098717803083 11.279334014803599 L 121.8098717803083 11.279334014803599 C 121.8098717803083 11.279334014803599 121.80987195934686 11.279334014803599 121.80987195934686 11.279334014803599 L 121.8098717803083 11.279334014803599 L 121.8098717803083 11.279334014803599 ZM 120.9977818328849 2.25 C 120.78527647867129 2.25 120.59347236954754 2.280338063237631 120.45767501624444 2.317373030601139 L 119.2918244600296 10.098160711168036 C 119.90854322338797 10.520569989179059 121.60337925741588 11.67797341616124 121.53579434585755 12.683307927520042 L 121.54843196233081 15.75000086141948 L 122.40920858413777 15.73816856043225 L 122.40438134622441 3.119482909369111 C 122.14841599058936 2.427915471835376 121.51240027116174 2.25 120.9977818328849 2.25 Z"
     style="fill:#ffffff;stroke:none"
     id="path32" />
  <path
     d="M 125.36063814833756 2.25 C 125.3042406737548 2.25 125.2478430769337 2.255127047918822 125.19144560235095 2.2602540958376443 C 124.37624497848329 2.347413911412609 123.79688853787172 3.1728686215680453 123.92506473775225 3.9726880854444615 C 123.98146226676927 4.567425701327062 124.35060973220426 4.900683872394744 124.75564650728636 5.22881487808019 C 125.96050280736404 5.967109824229966 125.62211759315248 5.695376170888923 126.83722804063711 6.3106220815854215 L 127.0320559245815 5.94660165165442 C 125.58622829114528 5.269831223231282 125.41190870201477 5.1621631949713125 124.96072841639935 4.864794448149187 C 124.59158100444364 4.567425701327062 124.29933923964622 4.239294695641617 124.32497448592524 3.741971021731213 C 124.31472039963747 3.398458764375758 124.51980233931005 3.044692420732529 124.75051946414247 2.8754998747459206 C 124.93509320067992 2.7370695570630437 125.1709374297754 2.655036805641682 125.401654615727 2.655036805641682 C 125.5759742048575 2.655036805641682 125.74003970770022 2.696053181352363 125.88359703796739 2.7985941664684457 C 126.2476174678984 2.9780407987428283 126.44757227274832 3.5727783535062536 126.18096578478952 3.9470528697250282 C 126.05791674933624 4.126499624237761 125.83745364967241 4.249548781929391 125.6169905500086 4.249548781929391 C 125.50932252174862 4.249548781929391 125.401654615727 4.218786400827721 125.30936771689869 4.152134839957195 C 125.12479391924207 4.0495938548411115 124.98636363211878 3.690700468053996 125.1760644729193 3.4907456632040677 C 125.08890461723486 3.398458764375758 124.96585545954323 3.2856636929719016 124.8735686218341 3.2856636929719016 C 124.81204404298829 3.2856636929719016 124.76590059357413 3.331807081266881 124.73513833471081 3.4394751095268505 C 124.53005642559782 3.9316717402933685 124.85818749240244 4.490519931930413 125.35038406204978 4.6238232981481655 C 125.4375439177342 4.649458391629248 125.52470377341862 4.664839643299259 125.61186350686471 4.664839643299259 C 126.17583886388398 4.664839643299259 126.69879775351382 4.193151185108287 126.69879775351382 3.6086677777518106 C 126.75006818495268 2.926770367303962 126.2066011227473 2.301270481098196 125.52470377341862 2.2602540958376443 C 125.47343321974141 2.255127047918822 125.41703574515866 2.25 125.36063814833756 2.25 Z"
     style="fill:#ffffff;stroke:none"
     id="path34" />
  <path
     d="M 123.90920794010162 7.323454961245858 L 123.90920794010162 11.03031069918805 L 124.52958077170366 11.03031069918805 L 124.52958077170366 7.323454961245858 Z"
     style="fill:#ffffff;stroke:none"
     id="path36" />
  <path
     d="M 126.41168318426357 7.323454961245858 L 126.41168318426357 11.03031069918805 L 127.0320560158656 11.03031069918805 L 127.0320560158656 7.323454961245858 Z"
     style="fill:#ffffff;stroke:none"
     id="path38" />
  <path
     d="M 125.16044556218259 12.043143849060215 L 125.16044556218259 15.749999587002407 L 125.78081839378463 15.749999587002407 L 125.78081839378463 12.043143849060215 Z"
     style="fill:#ffffff;stroke:none"
     id="path40" />
  <path
     d="M 134.47648061772213 2.25 C 134.37242716057585 2.25 134.26787869465602 2.2628827456598413 134.1628341312337 2.288648236979524 C 133.95274500438904 2.3401797271253635 133.72481814203363 2.457116125562475 133.47905390707703 2.639457406773773 L 128.53205525875092 2.639457406773773 L 128.53205525875092 3.7335051847689735 L 133.47905390707703 3.7335051847689735 C 133.72481814203363 3.915846420616564 133.95274500438904 4.032782626257919 134.1628341312337 4.084313620238212 C 134.26787869465602 4.110079298683186 134.37242716057585 4.122962228633089 134.47648061772213 4.122962228633089 C 134.5805340748684 4.122962228633089 134.68409179742184 4.110079298683186 134.78715451120175 4.084313620238212 C 134.9932792129422 4.032782626257919 135.19940464050202 3.915846420616564 135.40552934224252 3.7335051847689735 L 135.59579852102428 3.7335051847689735 C 135.79399582419506 3.915846420616564 135.99813903920278 4.032782626257919 136.20822816604743 4.084313620238212 C 136.31327236656008 4.110079298683186 136.41831656707276 4.122962228633089 136.52336076758542 4.122962228633089 C 136.6284049680981 4.122962228633089 136.73344916861075 4.110079298683186 136.83849336912343 4.084313620238212 C 137.04858249596808 4.032782626257919 137.27254565903866 3.915846420616564 137.51038213251587 3.7335051847689735 L 142.50494807553744 3.7335051847689735 L 142.50494807553744 2.639457406773773 L 137.51038213251587 2.639457406773773 C 137.27254565903866 2.457116125562475 137.04858249596808 2.3401797271253635 136.83849336912343 2.288648236979524 C 136.73344916861075 2.2628827456598413 136.6284049680981 2.25 136.52336076758542 2.25 C 136.41831656707276 2.25 136.31327236656008 2.2628827456598413 136.20822816604743 2.288648236979524 C 135.99813903920278 2.3401797271253635 135.79399582419506 2.457116125562475 135.59579852102428 2.639457406773773 L 135.40552934224252 2.639457406773773 C 135.19940464050202 2.457116125562475 134.9932792129422 2.3401797271253635 134.78715451120175 2.288648236979524 C 134.68409179742184 2.2628827456598413 134.5805340748684 2.25 134.47648061772213 2.25 Z"
     style="fill:#ffffff;stroke:none"
     id="path42" />
  <path
     d="M 135.66983378448523 6.843551132082939 C 135.21566975741646 8.387487203372238 134.76150573034772 9.931423506385444 134.30734170327895 11.47535980939865 L 130.60474218479357 11.47535980939865 C 130.15057815772482 9.931423506385444 129.69641413065605 8.387487435096146 129.24225010358728 6.843551132082939 ZM 128.53205525875092 6.312032103538513 C 129.0906314134151 8.210242513928915 129.64888106909456 10.108549321464562 130.20705205450767 12.006878837943077 L 134.70503183356487 12.006878837943077 C 135.26320235553013 10.108549089740654 135.821453517415 8.210242861514775 136.3800286293216 6.312032103538513 Z"
     style="fill:#ffffff;stroke:none"
     id="path44" />
  <path
     d="M 140.0295884893576 5.993121027946472 C 139.94606415024143 5.993121027946472 139.86253963009096 6.000714156755959 139.77901529097477 6.008307285565445 C 138.57170780319478 6.137390476741045 137.7136842095359 7.359884207996707 137.90351243260173 8.544412285304624 C 137.98703685233474 9.425215312064879 138.53374214924705 9.918768768126995 139.13359930963884 10.404728921416975 C 140.91798463785568 11.498139537870884 140.41683806005574 11.095703542662775 142.2164097222654 12.006879237408668 L 142.5049487103717 11.467767050919548 C 140.3636862078909 10.465473895319647 140.10551988777024 10.306018157790831 139.43732445070364 9.865616734927855 C 138.89061923299386 9.425215312064879 138.45781084135155 8.939255158774898 138.4957764952993 8.202721626067792 C 138.48059025182363 7.693981926530007 138.78431543814702 7.170055983516555 139.126006187901 6.919482785133731 C 139.39935884201446 6.714468271919335 139.74864280402343 6.59297823359684 140.0903336442946 6.59297823359684 C 140.34849996441523 6.59297823359684 140.59148004106024 6.653723252758088 140.80408763075388 6.80558586854907 C 141.343199817243 7.071345310407562 141.63933174605282 7.952148246650665 141.24448905361686 8.506446676615454 C 141.06225413190884 8.772206299508248 140.73574953511337 8.954441402250566 140.4092449383179 8.954441402250566 C 140.24978920078908 8.954441402250566 140.0903336442946 8.90888249078926 139.95365727197927 8.810171908197418 C 139.68030452734862 8.658309292406436 139.47529005939282 8.12679022765515 139.75623592576127 7.8306582988453215 C 139.6271526751838 7.693981926530007 139.44491757244148 7.526933067263357 139.3082412906433 7.526933067263357 C 139.21712373927215 7.526933067263357 139.1487855531145 7.595271162903863 139.1032268226875 7.754726900432679 C 138.79950168162267 8.483667311401952 139.28546192542981 9.311318304963066 140.01440224588194 9.508739832215355 C 140.14348549645942 9.546705259870222 140.2725687470369 9.569484806118027 140.40165181658008 9.569484806118027 C 141.2368961129133 9.569484806118027 142.0113952543096 8.87091688210009 142.0113952543096 8.005300279849806 C 142.08732647168793 6.995414093029222 141.28245484334033 6.069052318869997 140.2725687470369 6.008307285565445 C 140.19663734862425 6.000714156755959 140.11311300950808 5.993121027946472 140.0295884893576 5.993121027946472 Z"
     style="fill:#ffffff;stroke:none"
     id="path46" />
  <path
     d="M 134.47648061772213 13.877037405967712 C 134.37242716057585 13.877037405967712 134.26787869465602 13.889920151627553 134.1628341312337 13.915685642947237 C 133.95274500438904 13.967217133093076 133.72481814203363 14.084153531530188 133.47905390707703 14.266494812741485 L 128.53205525875092 14.266494812741485 L 128.53205525875092 15.360542590736687 L 133.47905390707703 15.360542590736687 C 133.72481814203363 15.542883826584276 133.95274500438904 15.659820032225632 134.1628341312337 15.711351026205925 C 134.26787869465602 15.7371167046509 134.37242716057585 15.749999634600801 134.47648061772213 15.749999634600801 C 134.5805340748684 15.749999634600801 134.68409179742184 15.7371167046509 134.78715451120175 15.711351026205925 C 134.9932792129422 15.659820032225632 135.19940464050202 15.542883826584276 135.40552934224252 15.360542590736687 L 135.59579852102428 15.360542590736687 C 135.79399582419506 15.542883826584276 135.99813903920278 15.659820032225632 136.20822816604743 15.711351026205925 C 136.31327236656008 15.7371167046509 136.41831656707276 15.749999634600801 136.52336076758542 15.749999634600801 C 136.6284049680981 15.749999634600801 136.73344916861075 15.7371167046509 136.83849336912343 15.711351026205925 C 137.04858249596808 15.659820032225632 137.27254565903866 15.542883826584276 137.51038213251587 15.360542590736687 L 142.50494807553744 15.360542590736687 L 142.50494807553744 14.266494812741485 L 137.51038213251587 14.266494812741485 C 137.27254565903866 14.084153531530188 137.04858249596808 13.967217133093076 136.83849336912343 13.915685642947237 C 136.73344916861075 13.889920151627553 136.6284049680981 13.877037405967712 136.52336076758542 13.877037405967712 C 136.41831656707276 13.877037405967712 136.31327236656008 13.889920151627553 136.20822816604743 13.915685642947237 C 135.99813903920278 13.967217133093076 135.79399582419506 14.084153531530188 135.59579852102428 14.266494812741485 L 135.40552934224252 14.266494812741485 C 135.19940464050202 14.084153531530188 134.9932792129422 13.967217133093076 134.78715451120175 13.915685642947237 C 134.68409179742184 13.889920151627553 134.5805340748684 13.877037405967712 134.47648061772213 13.877037405967712 Z"
     style="fill:#ffffff;stroke:none"
     id="path48" />
  <path
     d="M 40.9532527923584 0.375 C 31.328252851963043 0.375 31.328252851963043 17.625 40.9532527923584 17.625 "
     style="fill:none;stroke:#ffffff;stroke-width:1"
     id="path50" />
  <path
     d="M 40.9532527923584 0.375 L 142.50494194030762 0.375 "
     style="fill:none;stroke:#ffffff;stroke-width:1"
     id="path52" />
  <path
     d="M 40.9532527923584 17.625 L 142.50494194030762 17.625 "
     style="fill:none;stroke:#ffffff;stroke-width:1"
     id="path54" />
  <path
     d="M 150.19244194030762 0.375 L 150.19244194030762 17.625 "
     style="fill:none;stroke:#ffffff;stroke-width:1"
     id="path56" />
  <path
     d="M 142.50494194030762 0.375 C 152.12993812561035 0.375 152.12993812561035 17.625 142.50494194030762 17.625 "
     style="fill:none;stroke:#ffffff;stroke-width:1"
     id="path58" />
</svg>
