<?xml version="1.0" encoding="UTF-8" standalone="no"?>
<svg
   width="105.64344787597656"
   height="18.0"
   version="1.1"
   id="svg18"
   sodipodi:docname="asakheperu.svg"
   inkscape:version="1.1.1 (3bf5ae0d25, 2021-09-20)"
   xmlns:inkscape="http://www.inkscape.org/namespaces/inkscape"
   xmlns:sodipodi="http://sodipodi.sourceforge.net/DTD/sodipodi-0.dtd"
   xmlns="http://www.w3.org/2000/svg"
   xmlns:svg="http://www.w3.org/2000/svg">
  <defs
     id="defs22" />
  <sodipodi:namedview
     id="namedview20"
     pagecolor="#ffffff"
     bordercolor="#666666"
     borderopacity="1.0"
     inkscape:pageshadow="2"
     inkscape:pageopacity="0.0"
     inkscape:pagecheckerboard="0"
     showgrid="false"
     inkscape:zoom="13.015478"
     inkscape:cx="52.821724"
     inkscape:cy="9.0277128"
     inkscape:window-width="1920"
     inkscape:window-height="1001"
     inkscape:window-x="-9"
     inkscape:window-y="-9"
     inkscape:window-maximized="1"
     inkscape:current-layer="svg18" />
  <path
     d="M 22.77966110174755 0.5684490592972326 Q 22.633638086057772 0.6049545148491455 22.633638086057772 0.696219735092747 Q 22.633638086057772 0.7874840005506465 22.72490223216746 0.8422427507825265 Q 22.76140750869705 0.864146310549385 22.796453872674018 0.864146310549385 Q 22.84902246385376 0.864146310549385 22.898304682647282 0.8148638530594374 Q 22.980442987017422 0.7327252503187663 22.92568411743733 0.6505866475780953 Q 22.870925247857237 0.5684490592972326 22.77966110174755 0.5684490592972326 ZM 2.5609985348740345 0.46936116044907683 Q 2.359843567091113 0.46936116044907683 2.1720992805818096 0.7509784853246271 Q 2.2816167810455696 0.9335079710261279 2.5189051363271635 0.988266721258008 Q 2.5554108902496084 0.9973931597386192 2.589888440644617 0.9973931597386192 Q 2.762277147405363 0.9973931597386192 2.8839638690337397 0.7692307655447858 Q 2.8839638690337397 0.5136903090653525 2.6284226367909236 0.47718380921657794 Q 2.5945244026205927 0.46936116044907683 2.5609985348740345 0.46936116044907683 ZM 1.241199810550572 0.7874840005506465 Q 1.186441060318692 0.9152547360202673 1.2777053257765913 1.0247722364840275 L 0.5110819274186749 1.0977842217217681 Q 0.4928296471985162 0.9335079710261279 1.241199810550572 0.7874840005506465 ZM 1.9876164226822657 1.222624719872005 Q 1.9876164226822657 1.222624719872005 1.9876164226822657 1.222624719872005 L 1.9876164226822657 1.222624719872005 L 1.9876164226822657 1.222624719872005 ZM 2.125909851373434 1.2203396789907357 Q 2.284224539494109 1.2203396789907357 2.382007723680506 1.2529337952403716 Q 2.418033220394854 1.2649421350142038 2.3813761329386445 1.2649421350142038 Q 2.314213403607673 1.2649421350142038 2.0030587685814902 1.2246304859354444 L 2.0030585298850645 1.2246304859354444 Q 2.068468511363622 1.2203396789907357 2.125909851373434 1.2203396789907357 ZM 5.49470864855246 2.472162196565138 Q 5.540779445637364 2.472162196565138 5.621903767591998 2.539765559497574 Q 7.100390859290249 3.7627121350422854 9.290743732922557 5.405476312873666 Q 11.481095651769165 7.048240490705046 11.754889044883926 7.723598609145255 Q 9.966101851362767 7.468058331688141 8.697522964066787 6.318122547899043 Q 7.428944554163657 5.168188196288498 6.488918406955382 4.082139033390444 Q 5.548891782354257 2.996088915706688 5.439374520586923 2.667536414315408 Q 5.416389009597399 2.472162196565138 5.49470864855246 2.472162196565138 ZM 5.554353633962448 1.6040624432514505 Q 5.819804109613288 1.6040624432514505 6.059973769447039 1.7001303549242361 Q 11.736636406619128 6.007822446076134 12.558018495534819 7.303781245555012 Q 13.324641714870417 8.709256829408373 13.561929831455585 9.457627410479173 Q 13.461538888820648 9.568057924770454 13.322497266183765 9.568057924770454 Q 13.208735504578268 9.568057924770454 13.069100960020451 9.49413364179447 L 12.320730378949651 7.979140318780923 Q 11.754889044883926 6.683181519302044 9.555411284297772 5.104303007576006 Q 7.355932568925916 3.5254240184571173 6.370273871269948 2.603650986906491 Q 5.791486120478193 2.0623774824348997 5.483335241270446 2.0623774824348997 Q 5.266714415990388 2.0623774824348997 5.183833288344107 2.3298573550953035 Q 5.042689704984308 2.7853667564934774 4.685065172449792 2.7853667564934774 Q 4.533956013325552 2.7853667564934774 4.344197606377917 2.704041929541427 Q 4.508475169903898 1.8461543253997177 5.0560624335262725 1.6818780747040774 Q 5.315446678219568 1.6040624432514505 5.554353633962448 1.6040624432514505 ZM 6.023468492917445 8.033898710968165 Q 6.899609451413228 9.439374772214377 6.735331887887247 10.863103471725385 Q 6.5710557565398195 10.863103471725385 6.42503274085004 11.100391588310554 Q 6.365295618619811 10.697168400220765 6.0611810959671955 10.697168400220765 Q 5.99359993180233 10.697168400220765 5.913950753757259 10.717080456035607 Q 6.2972618860322065 9.311604394789393 6.023468492917445 8.033898710968165 ZM 2.768605228341677 0.3457626296377467 Q 2.854758883981503 0.3457626296377467 2.920469384259759 0.35853969124988744 Q 3.2490218856510396 0.42242505898469784 3.3037807552311325 0.5958278973462152 Q 3.3423147126810133 0.7178524937648807 3.3808493862201705 0.7178524937648807 Q 3.3970742983503825 0.7178524937648807 3.4132992104805946 0.696219735092747 Q 3.4680568865785597 0.6232077498550063 3.4863100022362077 0.5319425296114048 Q 3.887874488865229 1.061277632361834 3.5410688718163006 2.101695796338959 Q 3.1942632547673724 3.14211288618217 4.654497708200826 3.3428945327556163 Q 6.0052153772597965 6.445893402716877 7.556713976802937 8.06127814575821 Q 9.10821353113178 9.676662888799545 8.852672776281816 11.100391588310554 Q 8.262843406239485 10.66180027346223 7.547702231954776 10.66180027346223 Q 7.399740523897122 10.66180027346223 7.2464148297657305 10.680575179506013 Q 7.301173699345823 9.384615902634284 6.6258155809056145 8.125163811863553 Q 5.950456507679704 6.865711243699971 5.38461565100683 6.235985198314606 Q 4.818774316941105 5.6062591529292405 3.860495770164459 4.739244036173004 Q 2.9022162686021113 3.872229635506046 2.911342826430935 2.9504568426518447 Q 2.920469384259759 2.0286838111012186 3.166884297370177 1.6636248396982167 Q 3.4132992104805946 1.298565868295215 3.404172413955345 1.0795309867159075 Q 3.4003959978075793 0.9888957460132952 3.368491117486562 0.9888957460132952 Q 3.323292755836844 0.9888957460132952 3.221642928253844 1.170795132825594 Q 3.0482402390775927 1.4810953539967158 2.2633636653879217 1.4993485890025766 Q 2.2171959575542664 1.5004222455244558 2.1705229293878365 1.5004222455244558 Q 1.4237308477788386 1.5004222455244558 0.5475883974303962 1.2255549571913888 L 0.5475883974303962 1.2255549571913888 L 1.6245109428255198 1.298565868295215 Q 2.1565852064067235 1.4089965019347084 2.4153431116795185 1.4089965019347084 Q 2.627053474094281 1.4089965019347084 2.6558013554916937 1.3350723383069363 Q 2.7196867829006104 1.170795132825594 2.5554106515531827 1.1434162947766116 Q 2.3911342815093297 1.116036382593714 2.2177315923330783 1.116036382593714 Q 2.0443286644604015 1.116036382593714 1.953064399002502 1.170795132825594 L 1.9876164226822657 1.222624719872005 L 1.9876164226822657 1.222624719872005 Q 1.8278830423566574 1.2018226844347024 1.6062577078196592 1.170795132825594 Q 1.3689705460201929 0.7874840005506465 1.5332466773676203 0.6232077498550063 Q 1.5697521925936397 0.5684490592972326 1.6610164580515392 0.5684490592972326 Q 1.6245109428255198 0.7509784853246271 1.7249017661122432 0.8422427507825265 Q 1.7620839857045425 0.8760447306192765 1.798014123196905 0.8760447306192765 Q 1.8590952256508866 0.8760447306192765 1.9165579289907808 0.7783573830477161 Q 2.0078231492343823 0.6232077498550063 1.7522816782951405 0.5501957646172655 Q 2.4239901283895215 0.3457626296377467 2.768605228341677 0.3457626296377467 ZM 23.01695017311842 0.38591957359573165 Q 23.509778089767853 0.38591957359573165 23.747067161138723 0.7509784853246271 Q 23.82007771419791 0.8057372355565071 24.659714350949802 0.9517601915721803 L 24.659714350949802 1.0065190014781666 L 23.747067161138723 1.0795309867159075 Q 22.96219130353833 1.0795309867159075 22.76140750869705 0.9608868090751106 Q 22.56062562342718 0.8422427507825265 22.56975337473813 0.6870931175898166 Q 22.578879216477677 0.5319425296114048 22.816166378277146 0.5319425296114048 Q 23.053455449648016 0.5319425296114048 23.144719595757703 0.614081132352076 Q 23.23598374186739 0.696219735092747 23.190352623598248 0.7874840005506465 Q 23.144719595757703 0.8787482063344395 23.01695017311842 0.9335079710261279 Q 23.036506093866425 0.9348116712280785 23.054711947631823 0.9348116712280785 Q 23.291393775296232 0.9348116712280785 23.299870362758433 0.7144720153129057 Q 23.30899620449798 0.47718380921657794 22.907432433958235 0.4406782939905586 Q 22.3963490146869 0.4406782939905586 22.524120346897586 0.8148638530594374 Q 22.645949092899134 1.171644176011082 23.64728059785314 1.171644176011082 Q 23.69612743436656 1.171644176011082 23.747067161138723 1.170795132825594 Q 24.312907540418745 1.1342897369477876 24.75097849705949 1.0430254714898881 L 24.714473220529893 0.9700134862521473 L 24.714473220529893 0.9700134862521473 Q 26.338983805310775 1.9739250608693384 26.238591907890136 3.2607569444747537 Q 26.138201920040903 4.547588947428382 24.97001397537986 5.396349993741268 Q 23.801826030718814 6.245110562661302 22.889178840907736 7.267275491632566 Q 21.465450141396726 9.001303815573634 21.35593240223654 9.986962513229603 Q 21.246414663076354 10.97262121088557 21.848762228457378 10.97262121088557 Q 22.451107884266992 10.97262121088557 23.318122046237526 10.251630064604818 Q 24.185138117779466 9.530638918324064 25.079531714540046 9.512386280059266 Q 27.470664563870823 9.567144194853658 27.196872125541763 11.720991791956372 Q 26.320730212260276 10.790091963880496 25.225554730229824 10.790091963880496 Q 24.677966034428895 10.790091963880496 23.728813568088224 11.264668197050833 Q 22.286831275526716 12.031291416386429 21.53846260402732 12.031291416386429 L 20.9178614455958 11.94002631549104 Q 19.786180687035753 11.100391588310554 20.151239181045902 9.457627410479173 Q 20.69882596727543 8.271186827553333 21.629726750137007 5.222947065868591 Q 22.26857959204762 3.488918503231098 22.898304682647282 2.594524429077667 Q 23.52803168281835 1.7001303549242361 24.239896987359558 1.6818780747040774 Q 24.623207164848804 1.6818780747040774 25.48109548507979 2.0469359719731646 Q 25.516527582480354 2.0565995967593533 25.54286630085524 2.0565995967593533 Q 25.665772045128623 2.0565995967593533 25.590613224239974 1.8461543253997177 Q 24.90056286341766 1.4183230873680976 23.98094382841071 1.4183230873680976 Q 23.68429382037619 1.4183230873680976 23.36375507407807 1.4628421189908551 Q 23.08996072617761 1.4628421189908551 22.697522797377413 1.3168191033010757 Q 22.305084868577215 1.170795132825594 22.305084868577215 0.6232077498550063 Q 22.633638086057772 0.38591957359573165 23.01695017311842 0.38591957359573165 ZM 5.183833288344107 3.0508475465903557 Q 6.607562465247967 4.876141210123237 7.794002570780957 6.05345547391668 Q 8.980443153706798 7.2307702151029725 10.029987517468108 7.641461259560818 Q 11.079530926443718 8.052151349232961 11.973924523204298 8.070405897069161 Q 12.083442262364484 8.21642795797324 14.146023803786107 12.68839689656184 L 14.018253426361124 12.743155766141934 L 9.10821353113178 9.603651380954656 Q 9.144719762447076 9.329857033054191 7.657105874223576 7.641461259560818 Q 6.169491508607224 5.953063576496041 5.037810272654327 3.178618401408189 L 5.183833288344107 3.0508475465903557 ZM 10.22164260621273 10.917862341305478 L 12.941329627809766 12.578879157401655 Q 13.032594728705156 12.83441991225162 12.284224147634355 12.92568501314701 Q 12.117919574063066 12.945966571028519 11.97865548635762 12.945966571028519 Q 11.491235475924217 12.945966571028519 11.33507072650798 12.69752369308709 Q 11.13428979602381 12.378097272131784 10.823990171593753 11.867014807646152 Q 10.51368863759229 11.35593329794622 10.22164260621273 10.917862341305478 ZM 19.51238633913529 10.132986483705084 Q 19.51238633913529 10.899609703040682 19.73142181745566 11.465450082320704 Q 20.297262196735684 12.469361418241471 21.246414663076354 12.487615011291968 Q 21.271391857040214 12.488095268500066 21.296634481429226 12.488095268500066 Q 22.230630679536628 12.488095268500066 23.52803168281835 11.830508576330855 Q 24.760560726364584 11.205802794166512 25.321529788993093 11.205802794166512 Q 25.367013870264127 11.205802794166512 25.408083022449198 11.20990932747074 Q 25.955671718250127 11.264668197050833 26.594524560160743 11.775749706750762 Q 27.233377402071355 12.286832171236394 27.26988267860095 12.670144258297045 Q 27.336545816313357 12.981237309645449 27.213848215323008 12.981237309645449 Q 27.134969549339438 12.981237309645449 26.97783664722139 12.85267350530212 Q 26.453025319126954 11.803050849113246 25.632165497990247 11.803050849113246 Q 25.625090535938558 11.803050849113246 25.617992659030023 11.80312914154081 Q 24.78748377358908 11.812255938066059 23.573664710658896 12.451108779976673 Q 22.359843738157306 13.089961621887287 20.744458995115973 13.089961621887287 Q 19.129074252074638 13.089961621887287 18.946545959855264 12.049544054651227 Q 18.764015758064488 11.009126487415164 19.51238633913529 10.132986483705084 ZM 5.9869617842092975 11.191656689205942 L 6.260756609502613 11.739244430221168 Q 6.516296886959727 11.483703675371203 6.65319453830281 11.438070647530658 Q 6.65701845503925 11.436796008618511 6.66032249096096 11.436796008618511 Q 6.775304946086441 11.436796008618511 6.260756609502613 12.980443882727103 L 5.494133390167016 13.21773199931227 Q 5.293350550111441 13.071708028836788 5.6127774484596 12.314211606026442 Q 5.932203392022056 11.556715183216093 5.9869617842092975 11.191656689205942 ZM 25.3841465449005 12.332304795079008 Q 25.989295451531138 12.332304795079008 26.338983805310775 12.83441991225162 Q 26.101694733939905 13.21773199931227 25.225554730229824 13.436768432418344 Q 24.550196611789616 13.436768432418344 23.85658490029891 12.870926143566917 Q 24.757383199548386 12.332304795079008 25.3841465449005 12.332304795079008 ZM 23.272490927968388 13.089961621887287 Q 23.54354504090416 13.354712239618575 23.860314293250852 13.52803162374233 L 21.3870259534073 13.52803162374233 Q 22.296396318689176 13.432913007753738 23.272490927968388 13.089961621887287 ZM 13.835724179356049 14.239895973497832 Q 11.793824251025065 17.175128731674494 7.949174820459982 17.25145239111956 L 7.949174820459982 17.25145239111956 Q 4.122734108017405 17.175128731674494 2.080834179686421 14.239895973497832 ZM 28.602347232002273 14.258150521334034 Q 26.56044825845699 17.19338041515359 22.715797395713356 17.26970598417006 L 22.715797395713356 17.26970598417006 Q 18.889337110163886 17.19338041515359 16.829205548853547 14.258150521334034 ZM 3.0828786708633857 0.008692117630364187 Q 2.971576914619046 0.008692117630364187 2.8474573990220184 0.020860628300151455 Q 2.5554106515531827 0.020860628300151455 1.186441060318692 0.4406782939905586 Q 0.09126423562084626 0.696219735092747 0.0 1.0977842217217681 L 0.036505492848229494 1.7183835899300968 L 0.5840939126564156 1.5176008692227352 Q 1.4784879271357403 1.8096488101736983 2.080834179686421 1.8096488101736983 Q 2.6831812676745908 1.8096488101736983 2.5371572971991094 2.2203398546315434 Q 2.3911342815093297 2.6310308990893883 2.5736637672108307 3.5893094458660344 Q 2.7561932529123316 4.547588947428382 4.015645343683063 5.5241203711662505 Q 5.275098389239495 6.5006522722969695 5.576270739751453 8.079530784023007 Q 5.877444522441963 9.658410250534748 5.037810272654327 11.720991791956372 L 5.311603665769089 11.556715183216093 Q 5.3170254163777955 11.553462228329439 5.320836443507258 11.553462228329439 Q 5.38118176422965 11.553462228329439 5.037810272654327 12.368970475606535 Q 4.672751301251325 13.235984637577067 4.04302525586596 13.263364072367114 Q 3.93189679322653 13.268195288019145 3.833558162458005 13.268195288019145 Q 3.3746456661215403 13.268195288019145 3.1942632547673724 13.162973129732178 Q 2.989829552883843 13.04372039555458 2.5866402596864733 13.04372039555458 Q 2.5578429681289827 13.04372039555458 2.5280316941559873 13.044328594046743 Q 2.080834179686421 13.053455390571992 2.080834179686421 13.345502376737253 L 2.080834179686421 13.52803162374233 L 0.8031288539098296 13.52803162374233 Q 2.9022162686021113 17.981746969280433 7.958279656914086 18.000000562330932 Q 13.014342090440358 17.981746969280433 15.113428908391576 13.52803162374233 L 15.113428908391576 13.52803162374233 L 9.49152561819243 13.564537855057624 Q 9.49152561819243 13.400261246317346 9.144719762447076 13.208605202787021 Q 8.975349371986722 13.115006605635987 8.75591479324292 13.115006605635987 Q 8.526030084990925 13.115006605635987 8.241198414375544 13.21773199931227 Q 8.071091884138962 13.279081754593147 7.876274067756523 13.279081754593147 Q 7.433506997640579 13.279081754593147 6.863102742705081 12.962191244462305 Q 6.990873597522914 12.323337447765988 7.17340284452799 11.821382734591309 Q 7.355932568925916 11.319427066630926 7.867014556018697 11.228161965735536 Q 7.91433659976605 11.219711157487291 7.962910844961551 11.219711157487291 Q 8.438939307184603 11.219711157487291 9.03520202328689 12.031291416386429 Q 9.382007879032244 11.35593329794622 9.235984863342464 10.205997991549975 L 9.235984863342464 10.205997991549975 L 9.418514110347541 10.333768368974956 Q 10.787483940278456 12.633638026981748 11.070404129918469 13.035202752307194 Q 11.28503327222419 13.339837633167392 11.904089587389903 13.339837633167392 Q 12.10106378728027 13.339837633167392 12.338983017214447 13.308996145421958 Q 13.324641714870417 13.181225767996974 13.30638907660562 12.83441991225162 L 13.30638907660562 12.83441991225162 L 14.146023803786107 13.254238230627566 L 14.784876645696722 13.016950114042398 L 13.37940058445051 9.968709874964805 Q 13.726206440195863 9.968709874964805 14.018253426361124 9.676662888799545 Q 13.67144757061577 8.581486451983391 12.941329627809766 7.2307702151029725 Q 12.430248118109837 6.409388126187283 11.900913015359407 5.953063576496041 Q 10.4589307227979 4.602347339615624 8.907431645861907 3.3885266058104597 Q 7.355932568925916 2.174706826790998 6.6258155809056145 1.5176008692227352 Q 6.135176987870829 1.237236402210505 5.607156147639178 1.237236402210505 Q 5.310143798430758 1.237236402210505 5.0013035639461805 1.3259457804781123 Q 4.143416198500896 1.5723605742403173 3.9608864741029697 2.539765559497574 Q 3.906127843219302 2.50326028296798 4.0521506202126565 1.8096488101736983 Q 4.198174590688137 1.116036382593714 3.988266386285867 0.5228169265682828 Q 3.8063448603801033 0.008692117630364187 3.0828786708633857 0.008692117630364187 ZM 23.079162099888187 0.0 Q 22.74837277429359 0.0 22.451107884266992 0.09387261726752386 Q 22.06779770677775 0.20339010281275738 21.994785244147156 0.5136903090653525 Q 21.848762228457378 0.8970014413403002 22.12255657635784 1.2711870302462323 Q 22.3963490146869 1.645371604692356 22.980442987017422 1.7366368249359574 Q 21.81225504235638 2.795307030436816 20.99087390822639 5.478487343325705 Q 20.22424973410509 8.033898710968165 19.713168224405162 9.2568455252093 Q 18.344198394474244 10.370274600290251 18.353324236213794 11.492829517110751 Q 18.362451987524743 12.615385388716952 18.91003877375427 13.089961621887287 Q 19.30575352708367 13.432913007753738 20.06368533217412 13.52803162374233 L 15.55149986503232 13.52803162374233 Q 17.650586682983537 17.981746969280433 22.706650548688362 18.000000562330932 Q 27.762712504821785 17.981746969280433 29.861799322773003 13.52803162374233 L 26.348111556621728 13.52803162374233 Q 26.5488934418916 13.418513884582143 26.75880116890102 13.272490868892364 Q 26.964314972109918 13.516538868247567 27.224062512762817 13.516538868247567 Q 27.333429395782087 13.516538868247567 27.452412880391726 13.473272754162236 Q 27.908735520511563 13.254238230627566 27.6349411726111 12.469361418241471 Q 27.890481927461064 10.22425062981477 27.032595516801482 9.603651380954656 Q 26.1747071965705 8.983051177308838 25.09778339801914 8.983051177308838 Q 24.112125655148873 8.983051177308838 22.96219130353833 9.831812701014574 Q 22.249229905011244 10.358045705019261 21.98532331784051 10.358045705019261 Q 21.823573072067678 10.358045705019261 21.83050863540688 10.160365918495131 Q 21.848762228457378 9.64015665748425 22.633638086057772 8.398957204978315 Q 23.162973188808202 7.522817201268234 24.933506789278862 6.144720097419217 Q 26.704042299320925 4.766623948355902 26.685788706270426 3.370274444938514 Q 26.667537022791333 1.9739250608693384 25.900912848670032 1.2711870302462323 Q 25.134290584120137 0.5684490592972326 24.20338980125856 0.47718380921657794 Q 24.05736678556878 0.2764020731319715 23.82007771419791 0.1486313525808773 Q 23.582790552398443 0.020860628300151455 23.190352623598248 0.0026073821053958263 Q 23.13429142632065 0.0 23.079162099888187 0.0 Z"
     style="fill:#ffffff;stroke:none"
     id="path2" />
  <path
     d="M 52.31102944237029 0.5682163396572426 Q 52.75297559609467 0.5682163396572426 52.75297559609467 1.0312076547673097 L 52.75297559609467 4.587822828329302 L 51.40609242061084 4.587822828329302 L 51.84803857433522 0.8418024876367692 Q 51.86908328864591 0.5682163396572426 52.31102944237029 0.5682163396572426 ZM 52.332074156680974 0.0 Q 51.25877584383605 0.0 51.19564170090399 0.6103063830067376 Q 50.75369554717961 4.587822828329302 50.248613462223176 4.608866648489992 L 40.48370775751539 4.966633050821633 L 39.47354537590251 4.924543175125263 Q 38.33711157890053 3.7249752351912226 37.45322016560176 3.7249752351912226 Q 37.137544086041494 3.7039302973430375 36.80082284509554 3.682885135957353 Q 35.01199351588732 4.0196052592158145 34.654227337093175 4.0196052592158145 Q 34.40168629461496 4.0196052592158145 34.40168629461496 4.356326500161771 Q 34.40168629461496 4.819317815271838 35.11721865220324 4.819317815271838 Q 36.34593074065109 4.623436822678156 37.00206337276647 4.623436822678156 Q 37.121357288660185 4.623436822678156 37.22172383743423 4.629911809875677 Q 37.579490239765875 4.629911809875677 37.81098522670841 4.924543175125263 Q 37.400606591525055 5.4326309452939405 35.97405174539185 5.4326309452939405 Q 35.86431741064506 5.4326309452939405 35.74857014071129 5.4296243659317 Q 34.1281010966698 5.387534490235329 32.88644233100502 5.008722926518003 Q 32.276135947998284 5.008722926518003 32.276135947998284 5.724255284106288 Q 32.339270992065885 6.376651710462521 36.84291272079191 6.397696871848205 L 38.84219276970697 6.187246599216355 L 50.248613462223176 6.124110667984303 L 53.44746189814728 6.166201884905669 L 53.44746189814728 1.0312076547673097 Q 53.42641718383659 0.0 52.332074156680974 0.0 Z"
     style="fill:#ffffff;stroke:none"
     id="path4" />
  <path
     d="M 31.861799240112305 12.575763702392578 L 31.861799240112305 18.000000654022188 L 53.861800931596406 18.000000654022188 L 53.861800931596406 12.575763702392578 L 31.861799240112305 12.575763702392578 M 52.95744965582587 13.479046005023907 L 52.95744965582587 17.09564937825165 L 32.76615051588284 17.09564937825165 L 32.76615051588284 13.479046005023907 L 52.95744965582587 13.479046005023907 Z"
     style="fill:#ffffff;stroke:none"
     id="path6" />
  <path
     d="M 65.1222527910024 0.9241470728442073 C 65.41877782493742 0.9241470728442073 65.59741471161303 0.9744367220014101 65.68983918219804 1.0269706944376231 C 65.95899237032718 1.1988319740773297 65.83064327901754 1.60994231718636 65.78728433743119 1.8666442073881626 L 64.45722124457359 1.8666442073881626 C 64.42526311920359 1.6040966954299074 64.28006862676258 1.203423197084776 64.55498278018086 1.0269706944376231 C 64.6474072507659 0.9744367220014101 64.82572775706737 0.9241470728442073 65.1222527910024 0.9241470728442073 ZM 57.73287277273834 2.4756764275953174 L 57.73287277273834 3.399823500439525 L 56.47083146031946 3.399823500439525 L 56.47083146031946 2.4756764275953174 ZM 64.28859050516039 2.4756764275953174 L 64.28859050516039 3.399823500439525 L 58.036597931906584 3.399823500439525 L 58.036597931906584 2.4756764275953174 ZM 65.80879820287228 2.4756764275953174 L 65.80879820287228 3.399823500439525 L 64.59231566432864 3.399823500439525 L 64.59231566432864 2.4756764275953174 ZM 71.9130411414057 2.4756764275953174 L 71.9130411414057 3.399823500439525 L 66.11252336204052 3.399823500439525 L 66.11252336204052 2.4756764275953174 ZM 73.54493111118674 2.4756764275953174 L 73.54493111118674 3.399823500439525 L 72.21676630057395 3.399823500439525 L 72.21676630057395 2.4756764275953174 ZM 62.45168605294079 0.0 L 62.021725124493244 0.43122644994407894 L 63.46093944642693 1.8666442073881626 L 55.861799240112305 1.8666442073881626 L 55.861799240112305 4.00885572064668 L 74.15364695101977 4.00885572064668 L 74.15364695101977 1.8666442073881626 L 66.78388251595199 1.8666442073881626 L 68.22309683788568 0.43122644994407894 L 67.792819529064 0.0 L 66.46212367545813 1.3272156694903972 C 66.38229942403123 0.5227456524664013 65.83114194886504 0.33812287382941575 65.1222527910024 0.3151148526370526 C 64.36501737514787 0.3353508379732375 63.9001415242791 0.5065793568646768 63.782381906546654 1.3272156694903972 L 62.45168605294079 0.0 Z"
     style="fill:#ffffff;stroke:none"
     id="path8" />
  <path
     d="M 55.895968437194824 10.670099258422852 L 55.895968437194824 17.999999534625886 L 57.120993284460724 17.999999534625886 L 57.120993284460724 10.670099258422852 ZM 64.31927920916223 10.680223430168834 L 64.31927920916223 17.999999534625886 L 65.54430405642813 17.999999534625886 L 65.54430405642813 10.680223430168834 ZM 72.89445410553981 10.680223430168834 L 72.89445410553981 17.999999534625886 L 74.11947798728943 17.999999534625886 L 74.11947798728943 10.680223430168834 Z"
     style="fill:#ffffff;stroke:none"
     id="path10" />
  <path
     d="M 81.30577181369968 5.425909042821975 Q 82.92358891629135 5.600135683651099 83.89427822298623 6.197483279837992 Q 84.31739965577407 7.516626345621184 83.67027281473739 8.960217284813782 Q 82.62491487948287 9.159333309352764 82.13956903256029 9.32111525832696 Q 81.65422461792788 9.482897207301155 81.30577181369968 9.58245474214059 Q 79.98662850920147 9.159333309352764 78.86660146795725 8.985105713663527 Q 78.29414253933514 7.516626345621184 78.717264210838 6.197483279837992 Q 79.9119596419268 5.575246777371297 81.30577181369968 5.425909042821975 ZM 79.19219659208139 9.51489743427378 Q 80.10040940157164 9.51489743427378 81.08176545059072 10.154914386907793 L 81.08176545059072 15.30703782177104 Q 79.9119596419268 14.908805772693073 79.14038564362582 14.037673523407566 Q 78.79193283939762 11.74784067349943 78.89149037423705 9.532675974720872 Q 79.04082763135632 9.51489743427378 79.19219659208139 9.51489743427378 ZM 83.39445717417807 9.51489743427378 Q 83.5458258961881 9.51489743427378 83.69516315330736 9.532675974720872 Q 83.7947206881468 11.722951289789572 83.47115774505852 14.012784139697706 Q 82.6995825531824 14.908805772693073 81.50488688337856 15.30703782177104 L 81.50488688337856 10.154914386907793 Q 82.48624484211787 9.51489743427378 83.39445717417807 9.51489743427378 ZM 84.71563265971214 0.0 Q 84.44184752918346 0.273783996632288 84.54140601888301 0.8711318315342086 Q 85.51209675786808 2.688065137701129 85.43742765187838 3.6089768705514396 Q 85.3627585458887 4.529887409826609 84.69074232114217 5.898809243029517 Q 84.06850534124541 5.376130275402258 83.24715138194956 5.251682879422908 Q 83.34671034907917 4.604556038386241 82.79914104288194 4.181434605598416 L 82.7244724143223 3.658755637971157 L 82.12712481813541 4.504997548686693 Q 82.27646112039457 3.857871901225168 82.64980474062278 3.335191740022767 L 82.6995825531824 3.086296709349038 Q 82.30135098153448 3.086296709349038 82.20179344669505 3.4596393747171454 Q 81.9528981773063 3.210744344043417 81.60444537307811 3.086296709349038 L 81.60444537307811 3.409860607297428 L 81.45510811595884 3.409860607297428 L 81.45510811595884 3.061407803069236 L 81.15643407915036 3.061407803069236 L 81.15643407915036 3.409860607297428 L 80.98220791575129 3.409860607297428 L 80.98220791575129 3.086296709349038 Q 80.6337551115231 3.210744344043417 80.40974970327426 3.4596393747171454 Q 80.31019121357471 3.086296709349038 79.9119596419268 3.086296709349038 L 79.93684974178174 3.3600818398777106 Q 80.33508107471462 3.857871901225168 80.45952894812403 4.504997548686693 L 79.86218087450709 3.658755637971157 L 79.78751224594745 4.181434605598416 Q 79.26483303960516 4.604556038386241 79.33950190687983 5.251682879422908 Q 78.5430378087239 5.376130275402258 77.89591108704474 5.898809243029517 Q 77.22389450422567 4.5547772709665235 77.14922581598728 3.6214213236913406 Q 77.074558082609 2.688065137701129 78.0452475086614 0.8960217523528811 Q 78.14480623707598 0.273783996632288 77.87102122590483 0.024889909628905433 L 77.49767856053671 0.721795350238785 L 76.92522064645347 0.5475690078034462 L 76.92522064645347 0.5475690078034462 Q 77.1442478915023 1.264386493236011 76.72610468159324 1.264386493236011 Q 76.62156901339318 1.264386493236011 76.47721027754646 1.2195855309437567 L 76.47721027754646 1.2195855309437567 Q 76.7758842248368 2.1902750763536716 76.15364646911621 2.3645014784677674 L 77.4230108868372 6.371709920667116 Q 77.69936984280092 6.825728716996858 77.91310573053264 6.825728716996858 Q 77.9688629964784 6.825728716996858 78.0203586023816 6.794831353454941 Q 78.0203586023816 7.715742847590223 78.29414253933514 8.636654341725505 Q 77.2736733910029 8.885549133684206 77.074558082609 9.719347307404925 Q 76.87544181935499 10.553144526265532 77.2487844847231 12.370078130826238 L 77.47278965425691 12.394967514536097 L 77.57234730845387 12.668751690204656 L 77.77146357170788 12.643862306494798 Q 77.67190591751093 11.772730057209289 77.68435037065083 11.050935065043047 Q 77.69679482379073 10.329139118016691 78.09502639543864 9.408228101311465 L 78.3688114066098 9.408228101311465 Q 78.3688114066098 10.901597807923782 78.5679276698638 13.017205926723017 L 78.11991625657855 12.59408353907508 Q 77.17411573680596 13.091873122992482 77.13678136284739 14.000339447842777 Q 77.09944698888881 14.908805772693073 77.37323200005997 15.979054046517565 Q 77.64701605637102 17.049302320342054 78.3688114066098 17.895545185917705 Q 78.48632222129703 17.99999924341747 78.54047568032523 17.99999924341747 Q 78.69278231368142 17.99999924341747 78.34392154546988 17.17374923889135 L 78.41859017402952 16.94974478550262 Q 78.0203586023816 15.954164662807706 77.89591108704474 15.095477105377126 Q 77.77146357170788 14.236789547946548 78.24436377191542 13.564773323200024 L 78.24436377191542 13.589662706909882 Q 79.16527550476573 15.506153846310022 81.30577181369968 15.85460712796827 Q 83.44626788391861 15.506153846310022 84.36717937805389 13.564773323200024 Q 84.81519019455158 14.236789547946548 84.69074232114217 15.095477105377126 Q 84.56629540259287 15.954164662807706 84.16806335351491 16.94974478550262 L 84.24273150464448 17.17374923889135 Q 83.89387097514796 17.99999924341747 84.04617784721918 17.99999924341747 Q 84.1003313062474 17.99999924341747 84.21784212093462 17.895545185917705 Q 84.93963711310087 17.049302320342054 85.21342224362954 15.979054046517565 Q 85.4872064192981 14.908805772693073 85.44987234373332 14.000339447842777 Q 85.41253826816852 13.091873122992482 84.49162629660319 12.59408353907508 L 84.01872561896559 13.017205926723017 Q 84.24273150464448 10.901597807923782 84.21784212093462 9.408228101311465 L 84.49162629660319 9.408228101311465 Q 84.91474772939101 10.304249734306833 84.91474772939101 11.038490373188118 Q 84.91474772939101 11.772730057209289 84.84007957826144 12.61897292278494 L 85.03919560280042 12.643862306494798 L 85.13875218277974 12.370078130826238 L 85.33786916217883 12.34518874711638 Q 85.71121182754695 10.553144526265532 85.52454049486289 9.719347307404925 Q 85.33786916217883 8.885549133684206 84.31739965577407 8.636654341725505 Q 84.59118478630273 7.715742847590223 84.56629540259287 6.794831353454941 L 84.56629540259287 6.794831353454941 Q 84.61518519524724 6.817054290298776 84.6656629202698 6.817054290298776 Q 84.89785911856939 6.817054290298776 85.16364252134971 6.346821014387314 L 86.43300681971319 2.3645014784677674 Q 85.83565874609624 2.1653861700738695 86.13433326033477 1.1946956698038413 L 86.13433326033477 1.1946956698038413 Q 85.97546363470573 1.2476520923226706 85.86391783114547 1.2476520923226706 Q 85.45119577985017 1.2476520923226706 85.68632244383708 0.5226790869847737 L 85.68632244383708 0.5226790869847737 L 85.11386375392999 0.6969054294201127 L 84.71563265971214 0.0 Z"
     style="fill:#ffffff;stroke:none"
     id="path12" />
  <path
     d="M 91.05596964248353 0.6343796163654517 Q 90.68438303765386 0.6343796163654517 90.68438303765386 1.0715398576205497 Q 90.68438303765386 1.4431256271248805 91.05596964248353 1.4431256271248805 Q 91.4494138476799 1.4212680267581896 91.4494138476799 1.0278238215618205 Q 91.4494138476799 0.6343796163654517 91.05596964248353 0.6343796163654517 ZM 89.61333985588452 0.9185333137523243 L 89.61333985588452 1.3119775189486933 L 88.76087792839856 1.4649840628169186 Q 89.15432213359492 1.0496814219285115 89.61333985588452 0.9185333137523243 ZM 89.65705589194324 1.4431256271248805 Q 90.15979072428131 1.836570786978789 89.83192003617816 2.033292531580396 Q 89.32918621816374 1.8584282680132875 89.08874760217806 1.574273615968875 L 89.65705589194324 1.4431256271248805 ZM 91.18711786999192 0.4376570364384973 Q 92.21444489637034 0.4376570364384973 92.82646916252816 1.2245454468312351 Q 93.43849342868599 2.011434931213705 93.4822095840769 3.6507862237499484 Q 95.07784472122222 3.97865595719555 95.60243715392697 5.093415294355815 Q 95.68737160325595 5.815354533686349 95.27726170272305 5.815354533686349 Q 95.265199127379 5.815354533686349 95.25270886545714 5.814730187655325 Q 94.81554874353424 5.792871393966709 94.56418168536179 5.574291571669641 Q 94.47277561257056 5.494807739564106 94.42616875414915 5.494807739564106 Q 94.34460758723702 5.494807739564106 94.40024598331364 5.73822727371779 Q 94.48767829409547 6.1207423207342355 95.36199853794129 6.66719306979883 Q 96.23632021377341 7.213642864205885 95.50407687828714 7.574300072191255 Q 95.32239218325917 7.66378680599873 95.11715799603962 7.66378680599873 Q 94.4952382271531 7.66378680599873 93.65707372831181 6.842057214033746 Q 92.54231439115155 5.749155238575788 92.47674087405832 5.180847127808888 Q 92.41116640230756 4.612539017041987 92.93575978966985 4.13166273972816 Q 93.24767982093377 3.845735885293317 93.15002885584599 3.845735885293317 Q 93.08344865237704 3.845735885293317 92.82646916252816 3.97865595719555 Q 92.19258634134611 4.306526883963077 92.1597995827995 4.940408511823204 Q 92.12701282425289 5.574291571669641 92.66253441513756 6.328393223515765 Q 93.19805481270029 7.082494875361889 94.77183258814331 8.240969890584305 Q 94.93270765811889 8.324904336140351 95.13610985751957 8.324904336140351 Q 95.56833917324946 8.324904336140351 96.19260405838249 7.945887154349703 Q 97.110640934948 7.388507008440801 95.27456765914576 6.230031515889615 Q 95.95216639705434 6.055167848983468 95.97402375875666 5.639866043420408 Q 96.82648616357139 5.9240193828107035 100.76092964752138 10.929506048530046 Q 101.81011451293088 11.628962625469711 101.83197235196195 11.956833074908467 Q 101.81011451293088 12.262845685316147 101.50410285718074 12.328419202409375 Q 101.43852838542998 12.342470806737573 101.37094626887303 12.342470806737573 Q 101.12314772058431 12.342470806737573 100.84836195830323 12.153555535503228 Q 99.62431247133004 12.743721962629975 98.47676733028071 12.765579801661051 Q 98.41637092102577 12.766730163996499 98.357094325065 12.766730163996499 Q 97.29010700585347 12.766730163996499 96.58604802491448 12.393993674160143 L 96.58604802491448 12.393993674160143 Q 97.30736244088521 13.02787577934904 97.08878309591691 13.727332356288704 Q 96.98280465310954 14.066462991409306 96.92820969772391 14.066462991409306 Q 96.87020279629108 14.066462991409306 96.87020279629108 13.683616678226553 Q 96.87020279629108 12.940443468567198 94.96855552606685 12.262845685316147 L 94.96855552606685 13.093450251099807 Q 94.85659997240283 13.563663958351698 94.79051810016966 13.563663958351698 Q 94.7275837338452 13.563663958351698 94.70625811639255 13.13716592916196 Q 94.57511012754856 12.197271213565381 94.08330445339041 11.11529958960927 Q 93.59150021121859 10.033327010995619 92.52045702944925 8.120750821255848 Q 91.4494138476799 6.208174154187309 91.1543311114453 5.366640668888111 Q 90.85924718188878 4.525106706260145 90.88110549824862 3.803791812960634 Q 90.90296309861532 3.0824769196611235 90.58602156869209 2.743678028035599 Q 90.2690812320908 2.404879136410074 90.40022934026699 2.011434931213705 Q 90.53137744844318 1.617989652027604 90.00678406108088 1.2682614828899643 L 90.00678406108088 0.8966757730517297 Q 90.5750933651697 0.4376570364384973 91.18711786999192 0.4376570364384973 ZM 95.34014117623899 13.02787577934904 Q 96.41118435800833 13.333888389756721 96.41118435800833 13.74919019531978 L 95.68986946470882 16.437727307923062 Q 95.60243715392697 16.918603585236887 95.09970351491084 16.918603585236887 L 94.22538183907872 16.918603585236887 L 94.22538183907872 16.874887907174735 L 95.34014117623899 13.465036378600715 L 95.34014117623899 13.02787577934904 ZM 91.26599931318984 0.0 Q 91.22686050203784 0.0 91.18711786999192 4.967951833993125E-4 Q 90.33465474918403 4.967951833993125E-4 89.46033426667383 0.6999531931247753 Q 88.95759955366796 0.8748172776935953 88.43300724029541 1.5087000988756476 Q 89.15432213359492 2.164440520424391 89.74448796406071 2.317447064292616 Q 89.81006255514366 2.623459197371527 90.15979072428131 3.1699089917785814 Q 90.1816482053158 4.612539017041987 90.55323481014548 5.563363129482873 Q 90.92482165363954 6.514186287266219 93.045049462154 10.667210070842057 Q 94.09423385023473 12.853012112442894 94.09423385023473 13.355746228787796 Q 94.09423385023473 14.12077727747823 93.13248129560708 16.78745464173535 Q 93.13248129560708 16.940461424267962 91.82100069117396 17.027892780392268 Q 89.8537784718702 17.093468206800573 89.8537784718702 17.574344484114402 Q 89.8537784718702 17.858498300833464 90.11607468822257 17.858498300833464 L 95.9303080806945 17.858498300833464 Q 96.47675787510155 17.42133770158179 96.54233234685232 17.11532604583165 Q 97.0669243022283 17.333906345457486 97.110640934948 17.705491518300857 Q 97.18426698838937 17.999999550696504 97.31989518506761 17.999999550696504 Q 97.34532630727011 17.999999550696504 97.37293691263598 17.98964533501992 Q 97.54780153419966 17.92407181792669 97.54780153419966 17.705491518300857 Q 97.39479475166706 17.11532604583165 96.78277048550923 16.568874342109517 L 97.4822270624489 13.618042206475785 Q 99.60245463229897 13.552468689382557 101.17623240774199 12.940443468567198 Q 101.46767312546228 13.006017940317964 101.71053991290043 13.006017940317964 Q 102.19627348777672 13.006017940317964 102.48771325083948 12.743721962629975 Q 102.92487385009115 12.350277041440451 102.31284958393333 11.519672475656792 Q 100.97950994714722 10.18633379352823 99.77731925386266 8.590698179054138 Q 97.30736244088521 5.5524337326385655 96.3893255643197 5.0715565006671985 Q 96.0833134312408 4.437674872807071 95.6570827061622 4.066088267977393 Q 95.23085150375483 3.6945023791408698 94.11609216659457 3.1480516300762758 Q 94.09423385023473 1.8584282680132875 93.51499729728106 0.9185333137523243 Q 92.94892451714358 0.0 91.26599931318984 0.0 Z"
     style="fill:#ffffff;stroke:none"
     id="path14" />
  <path
     d="M 104.66804218292236 0.21996593475341797 L 104.66804218292236 5.341589516687236 L 105.64344534809788 5.341589516687236 L 105.64344534809788 0.21996593475341797 L 104.66804218292236 0.21996593475341797 M 104.66804218292236 6.804910540096898 L 104.66804218292236 11.682791468560026 L 105.64344534809788 11.682791468560026 L 105.64344534809788 6.804910540096898 L 104.66804218292236 6.804910540096898 M 104.66804218292236 12.902153562852618 L 104.66804218292236 17.780034491315746 L 105.64344534809788 17.780034491315746 L 105.64344534809788 12.902153562852618 L 104.66804218292236 12.902153562852618 Z"
     style="fill:#ffffff;stroke:none"
     id="path16" />
</svg>
