<?xml version="1.0" encoding="UTF-8" standalone="no"?>
<svg
   width="140.46044921875"
   height="18.0"
   version="1.1"
   id="svg48"
   sodipodi:docname="autokratorepheqaheqaumeriasetptah.svg"
   inkscape:version="1.1.1 (3bf5ae0d25, 2021-09-20)"
   xmlns:inkscape="http://www.inkscape.org/namespaces/inkscape"
   xmlns:sodipodi="http://sodipodi.sourceforge.net/DTD/sodipodi-0.dtd"
   xmlns="http://www.w3.org/2000/svg"
   xmlns:svg="http://www.w3.org/2000/svg">
  <defs
     id="defs52" />
  <sodipodi:namedview
     id="namedview50"
     pagecolor="#ffffff"
     bordercolor="#666666"
     borderopacity="1.0"
     inkscape:pageshadow="2"
     inkscape:pageopacity="0.0"
     inkscape:pagecheckerboard="0"
     showgrid="false"
     inkscape:zoom="9.7892325"
     inkscape:cx="70.230225"
     inkscape:cy="9.0405453"
     inkscape:window-width="1920"
     inkscape:window-height="1001"
     inkscape:window-x="-9"
     inkscape:window-y="-9"
     inkscape:window-maximized="1"
     inkscape:current-layer="svg48" />
  <path
     d="M 1.2190420140847793 0.0 C 0.970800706632417 0.0 0.7230423028937335 0.01893070358296025 0.48290982680079 0.048905678499779795 C 0.15187998957905166 0.13255188916498697 0.3219916247400915 0.5118521231009919 0.6158947927962716 0.5118521231009919 C 0.6355981423211179 0.5118521231009919 0.6558578408244597 0.5101473851910305 0.6765601864318946 0.5065345630073116 C 1.2976180869590601 0.5780119512905144 2.0622053316712337 0.6175539511807123 2.531371224901928 0.9695623988344474 C 3.1537543888207784 1.6479367557428735 2.8741262715941502 3.0576933712068692 2.94658764204448 3.7269297850416896 C 2.951782632395561 3.7629649381631523 2.953952713884158 6.430591781037886 2.953952713884158 7.782422252231933 C 2.352510186605274 7.494257626556917 1.67335422808609 7.349215125535265 1.0039192969246102 7.349215125535265 C 0.7063920462481148 7.349215125535265 0.41078504023889434 7.377865539465801 0.12477432975315178 7.4353349446232855 C -0.20149863151174055 7.606724672263251 0.18154647682350566 7.8266562324049085 0.4376378670454302 7.8266562324049085 C 0.4681373192956425 7.8266562324049085 0.4968360674978842 7.823536850015894 0.5223214865886322 7.816844331348357 C 1.429843884416301 7.914926816832979 2.4617098179841825 8.158078494744517 2.9226503683594482 9.002292523011262 C 2.9681809889039896 9.155077638776014 2.9396896697969415 9.207577525716367 2.870237404087557 9.207577525716367 C 2.717627362869183 9.207577525716367 2.3672466519332462 8.954092059534803 2.1698535251191053 8.954092059534803 C 2.1594948014573196 8.954092059534803 2.1495575210365625 8.954790250504107 2.140092081444407 8.956259682604495 C 1.7610785167129768 8.874396440250864 1.3638924072290621 8.831466124503471 0.9703996331480379 8.831466124503471 C 0.6822712691518855 8.831466124503471 0.39612316158451694 8.854483949517657 0.1205398348885778 8.90208807080806 C -0.19080937123302597 9.107627344268586 0.19133570335568265 9.296978982841198 0.44461121617263977 9.296978982841198 C 0.47243301123084086 9.296978982841198 0.4986997685303211 9.294694058069421 0.5223214865886322 9.289895224364907 C 1.44862453664532 9.401605077048192 2.473672484380784 9.652726246647584 2.9226503683594482 10.498359836231193 C 2.9277747669676573 11.438445880183364 2.9223641381582497 12.059730482053933 2.9475081443234266 12.924290385186742 C 2.9366830234749024 13.190445840004433 3.1097205941872907 13.32271720601211 3.2850258807391146 13.32271720601211 C 3.4589948410141766 13.32271720601211 3.635197450466691 13.192454719453337 3.636159394664339 12.93350313443563 C 3.6297524037925992 12.081649745019838 3.5689455193688686 11.333930766029841 3.680643079957625 10.507654766912083 C 3.905950499841305 9.580679119782916 5.51430012614692 9.438421656179063 6.5132119200872856 9.209440304841713 C 6.73117182826633 8.953197897458422 6.302254993763335 8.858046549715155 6.0257896324592775 8.858046549715155 C 5.984500135730289 8.858046549715155 5.946610983551 8.860169218839136 5.914784994799312 8.86419400179096 C 5.786745621336966 8.854375779085794 5.657882677541108 8.84931073373403 5.528823762638173 8.84931073373403 C 4.87588245171773 8.84931073373403 4.21792069818853 8.978947377079876 3.636159394664339 9.278489565451865 C 3.6124626948293947 8.719755569414783 4.162693019870619 8.398265319455419 4.5568162027996815 8.173701395689454 C 5.178845705598769 7.90617273831141 5.863655500797704 7.879904181098088 6.5132119200872856 7.736389411825166 C 6.745102634598536 7.535056141910107 6.380132787867637 7.365650007124583 6.127413645979344 7.365650007124583 C 6.0940901289112 7.365650007124583 6.06271789404902 7.368595192973972 6.034923712303174 7.3748016471035225 C 5.875700348626306 7.359480780481324 5.715556482670491 7.35166300836024 5.555429474444318 7.35166300836024 C 4.887519202007935 7.35166300836024 4.219896213380853 7.487670468699637 3.6205083975033348 7.782422252231933 C 3.6327889023442115 5.672151988401518 3.6669749732456607 3.6298724602408705 3.6064121746990256 1.633623314068084 C 3.557780785508615 1.016382811297887 3.202148013782708 0.4498605441665941 2.6039100355477967 0.2652764822581205 C 2.1742288083663857 0.06980961445750675 1.6957449806778964 0.0 1.2190420140847793 0.0 Z"
     style="fill:#ffffff;stroke:none"
     id="path2" />
  <path
     d="M 3.29314921521244 15.21501288860129 C 4.074491287174412 15.21501288860129 5.052497037940845 15.616391919330065 5.5257419749406465 16.089636856329868 C 5.939782214238027 16.503676744424546 5.993910276899555 17.05261639954012 6.009086799211701 17.562687749346416 L 0.6002280514165623 17.562687749346416 C 0.615404749330059 17.05261639954012 0.6695328119915868 16.503676744424546 1.0835728756876173 16.089636856329868 C 1.5568179882887687 15.616391919330065 2.5118074944531683 15.21501288860129 3.29314921521244 15.21501288860129 ZM 3.29314921521244 14.777700904737003 C 2.3662267752924526 14.777700904737003 1.3688759017560481 15.205906904973462 0.7843594130436309 15.79042339368588 C 0.1848327417701466 16.38995028583294 0.11688322714550736 17.179222163577567 0.11688322714550736 17.769835531176867 L 0.11688322714550736 17.999999733210704 L 6.469415203279373 17.999999733210704 L 6.469415203279373 17.769835531176867 C 6.469415203279373 17.179222163577567 6.42448232973169 16.38995028583294 5.824955437584633 15.79042339368588 C 5.240439300074916 15.205906904973462 4.220071830733778 14.777700904737003 3.29314921521244 14.777700904737003 Z"
     style="fill:#ffffff;stroke:none"
     id="path4" />
  <path
     d="M 19.59558827849137 2.2331113889984504 Q 20.011497239301697 2.2331113889984504 20.406868373464476 2.6849636002931274 Q 17.14505908393548 6.568070899826414 16.329606932707488 7.024335296803508 Q 15.721254175199014 7.364724151693918 15.258781670883675 7.364724151693918 Q 15.101344397401952 7.364724151693918 14.960813057159163 7.325276517725049 Q 14.407469963604743 7.169951972435412 13.776464255096982 7.150536917736989 Q 13.760688966903167 7.150051524254103 13.744834947749503 7.150051524254103 Q 13.12652956999073 7.150051524254103 12.38825395561615 7.88832679632016 L 12.291175943655867 7.88832679632016 Q 12.815395428237089 6.665148911786697 13.75704954270708 6.140928742588433 Q 14.698701945634467 5.6167096003157315 19.2807685008913 2.2966530928403377 Q 19.439622247033235 2.2331113889984504 19.59558827849137 2.2331113889984504 ZM 13.822576293662692 0.46382689862325743 Q 13.87160069312572 0.46382689862325743 13.922081273037408 0.4715931515608784 L 13.922081273037408 5.461385397334616 Q 12.38825395561615 6.354500505824466 11.805788280014095 7.965988384347936 Q 12.698902703886905 1.79184917642032 13.058089773520756 1.0928900062739073 Q 13.381357725420997 0.46382689862325743 13.822576293662692 0.46382689862325743 ZM 9.823471846940608 8.280349468529765 Q 9.763159224955167 8.280349468529765 9.708909828226425 8.383422671928184 Q 9.611832586460313 8.567870141573977 9.883650198408658 8.897933602234632 Q 10.038974144658383 8.4902085535462 9.922481420308197 8.344591877914295 Q 9.871087133376625 8.280349468529765 9.823471846940608 8.280349468529765 ZM 9.850515161454094 8.003054920244196 Q 9.964842185368557 8.003054920244196 10.097221020296256 8.179560147583969 Q 10.388454200405805 8.567870141573977 9.922481420308197 9.732803546629212 Q 9.398261764572714 8.723195371480656 9.602124802379711 8.257221735611745 Q 9.713322784103013 8.003054920244196 9.850515161454094 8.003054920244196 ZM 14.931688078951879 9.926958201315696 L 14.931688078951879 10.218190867962463 Q 14.718118369566973 10.198775813264039 14.601625302908268 10.082282061988291 Q 14.640456096922156 10.024035528658937 14.756948478963821 9.926958201315696 ZM 15.378245975505326 10.587085807254049 L 17.183890562566404 10.839488364503968 L 17.552786186475032 11.499616655059363 Q 16.931489374550573 11.32487637045426 16.183991626309666 11.033644388424536 Q 15.43649319345172 10.742411037160727 15.378245975505326 10.587085807254049 ZM 11.39806151978306 10.315268879922746 L 11.747541404376221 10.490008479910806 L 11.864034128726408 11.32487637045426 L 11.553386065072697 12.276239381507548 L 11.067997716813883 12.276239381507548 L 11.39806151978306 11.32487637045426 L 11.39806151978306 10.315268879922746 ZM 12.232929752635034 10.606502231186555 L 12.562994240221252 10.703579558529796 L 12.679486964571439 11.32487637045426 L 12.368838216300684 12.276239381507548 L 11.883450552658914 12.276239381507548 L 12.21351435562809 11.32487637045426 L 12.232929752635034 10.606502231186555 ZM 13.37844604914072 10.72299461322822 L 13.494939115799427 11.32487637045426 L 13.184290367528675 12.276239381507548 L 12.698902703886905 12.276239381507548 L 13.028966164547558 11.32487637045426 L 13.028966164547558 10.742411037160727 L 13.37844604914072 10.72299461322822 ZM 12.635970993829574 8.307902566008263 Q 12.94616549869286 8.307902566008263 13.300783776495901 8.383422671928184 Q 14.349222745658347 8.606700935587865 14.621040357606692 9.441570195365404 L 15.43649319345172 9.441570195365404 L 15.747140914796912 8.936765765482605 Q 19.863233149567787 9.888126722684765 20.387455372617175 12.373316708850789 Q 19.261352076958786 11.752018527692242 18.018759137726903 11.538448133690293 L 17.475123229213175 10.451177001279875 L 15.319998757558931 10.159943650016068 L 15.378245975505326 9.635724850051886 L 14.640456096922156 9.635724850051886 Q 13.825002918768604 10.30727392210448 12.976631641685719 10.30727392210448 Q 12.794837747695311 10.30727392210448 12.611532561584353 10.276437401291815 Q 11.572801804388162 10.101698485920798 11.252445186459676 9.567771131681843 Q 10.93208856853119 9.033843092825846 11.592216516778063 8.596994435164216 Q 12.029066885982298 8.307902566008263 12.635970993829574 8.307902566008263 ZM 14.014203342229544 0.0 Q 13.306659502260182 0.0 12.902764885922597 0.4910087625106481 Q 12.407668668006053 1.0928900062739073 11.980527880002157 3.655740467965014 L 11.300984192439817 8.101897190322108 Q 10.97091987600786 8.451378444149354 10.7961802760198 8.4902085535462 L 10.563193800393865 8.4902085535462 Q 10.543778232232661 8.004819862978866 10.194298176485239 7.597094129673393 Q 9.883650198408658 4.626517849099683 10.466115788433582 2.3937311048006213 L 10.233129483961907 1.9471738928642175 Q 9.398261764572714 4.471192276884482 9.825403408347913 7.616509184371816 L 9.767156618287169 7.616509184371816 Q 8.427485014569381 4.607101425167175 9.378846196411509 1.9471738928642175 L 9.145859806362706 1.5976940082710553 L 9.145859806362706 1.5976940082710553 Q 7.90326545510817 4.4323618251791155 9.41767741831105 7.752417990345988 Q 8.99053577453585 8.684363892849726 9.330307190431368 9.286245650075767 Q 9.670079376521057 9.888126722684765 9.747741050125965 10.412346207265987 L 9.883650198408658 10.509424219226272 Q 10.407869083949969 9.732803546629212 10.485531356594787 9.16975258341706 L 10.679686695898312 9.16975258341706 Q 10.699102264059515 9.616309110736422 10.93208856853119 10.101698485920798 L 11.067997716813883 11.32487637045426 L 10.737933400381925 12.276239381507548 L 9.048781837190987 12.276239381507548 L 9.048781837190987 12.742211648142375 L 13.922081273037408 12.742211648142375 L 13.922081273037408 12.276239381507548 L 13.51435451280637 12.276239381507548 L 13.825003261077125 11.32487637045426 L 13.84441900039259 10.606502231186555 Q 14.19389820036871 10.490008479910806 14.368638484973811 10.33468393462117 Q 14.621040357606692 10.567671437172667 14.931688078951879 10.567671437172667 Q 14.912273708870499 10.76182609185915 15.009351720830782 10.89773421321628 Q 15.785971708810798 11.499616655059363 17.78577231979245 11.946173182378724 L 18.465315665046262 13.266429763489512 Q 18.465315665046262 12.942390932799807 18.666445882775246 12.942390932799807 Q 18.73044046079052 12.942390932799807 18.81479623425647 12.97519504299162 L 18.27116032574274 12.00442040032512 L 18.27116032574274 12.00442040032512 Q 19.39726088293296 12.256823642192083 19.97972758546058 12.645134320799134 Q 20.290376676039852 12.97519504299162 19.94089679144669 13.44116867886053 Q 20.71751746404375 13.11110658743396 20.814596160621075 12.509224145590878 Q 20.503945700807716 9.577479001339576 15.552985575493386 8.431961335599805 L 15.203506375517266 9.014428722744466 L 14.892857284937993 9.014428722744466 Q 14.640456096922156 8.198975202282393 12.893057700881908 7.88832679632016 Q 13.283009064230479 7.599008318923254 13.852256838599681 7.599008318923254 Q 14.161630487629424 7.599008318923254 14.523962345646407 7.684463587358902 Q 14.891470935427632 7.771140212597752 15.241644337084495 7.771140212597752 Q 15.87195550160299 7.771140212597752 16.446100683983236 7.490308248055377 Q 17.339214423239 7.053458905776705 20.989335075992095 2.665548716748965 Q 20.31660024722249 1.8173165880798985 19.56675152405883 1.8173165880798985 Q 19.321111613951302 1.8173165880798985 19.067196737655266 1.9083427565418083 L 14.349222745658347 5.286645797346556 L 14.349222745658347 0.025035944973045218 Q 14.173971736739798 0.0 14.014203342229544 0.0 Z"
     style="fill:#ffffff;stroke:none"
     id="path6" />
  <path
     d="M 14.787816725437374 15.285542133461169 C 15.549371373096287 15.285542133461169 16.502609207919512 15.676756272943992 16.963869255453197 16.13801632047768 C 17.367423959429352 16.541570682145313 17.42018123331472 17.07660848522664 17.434973411436005 17.573762319663377 L 12.163093570676018 17.573762319663377 C 12.177885919951562 17.07660848522664 12.230643193836931 16.541570682145313 12.634197726658826 16.13801632047768 C 13.095457945346773 15.676756272943992 14.02626242008698 15.285542133461169 14.787816725437374 15.285542133461169 ZM 14.787816725437374 14.859305039952915 C 13.884368520776045 14.859305039952915 12.912275476840618 15.276666758126694 12.34256182057423 15.846380414393082 C 11.758218113396996 16.430724336850286 11.69198941469321 17.200007968606588 11.69198941469321 17.775664100798863 L 11.69198941469321 17.99999941317163 L 17.883644036181536 17.99999941317163 L 17.883644036181536 17.775664100798863 C 17.883644036181536 17.200007968606588 17.839849083994995 16.430724336850286 17.25550516153779 15.846380414393082 C 16.685791847579925 15.276666758126694 15.691265101252963 14.859305039952915 14.787816725437374 14.859305039952915 Z"
     style="fill:#ffffff;stroke:none"
     id="path8" />
  <path
     d="M 32.60769513095485 2.25 C 32.518262032482475 2.25 32.42882551131879 2.253970136522819 32.339775297914194 2.2616940936950685 C 32.325714882016264 2.261314854150061 32.311679109495756 2.2611265098648654 32.29767071850572 2.2611265098648654 C 31.292417952463435 2.2611265098648654 30.426730458759664 3.2310118757226345 30.50017652265741 4.227486864678362 C 30.445855716212005 5.010703370562885 30.608890211722702 5.7853252703907465 30.652006995041 6.564726844542106 C 30.720797129167284 6.696246724428149 30.84554669746443 6.751571563107875 30.97791859930703 6.751571563107875 C 31.15391475549936 6.751571563107875 31.343385134658078 6.653772037999446 31.432723538670903 6.50722197967788 C 31.6691136534615 6.176301580427631 31.56478865328249 5.749019186418789 31.46838627076645 5.3887868587970935 C 31.362382440500312 4.745978962128442 31.323348300420406 4.030068083582146 31.67696998500278 3.4528006182538893 C 31.904536059329292 3.1480696260937604 32.2792637128246 2.9958286589324934 32.653366382886865 2.9958286589324934 C 33.0607693294134 2.9958286589324934 33.4674311491818 3.1763791052256156 33.68248295136442 3.5371584359633665 C 34.027227144453434 4.042562504116439 33.93464311636187 4.77819150729467 33.49212997420679 5.195713526586957 C 33.06547712721941 5.700777493313611 32.42526865051033 6.0338350210172855 32.15162664804936 6.659532199293302 C 31.977381084371938 7.2902214869334045 32.12360245023812 7.947675764252113 32.06504396689923 8.58979227727632 C 32.00906105877046 10.931873768086549 31.97974456681061 13.274474138899242 31.935419687549896 15.616783352771236 C 32.05627674311088 15.718249264810014 32.19861597840452 15.736942635663993 32.34607487535837 15.736942635663993 C 32.43211426130803 15.736942635663993 32.519896709851714 15.730578255264366 32.606171805142864 15.730578255264366 C 32.676254147850486 15.730578255264366 32.74534208464309 15.734778582038938 32.811693009285484 15.74999997482893 C 33.13045486810858 15.586587913683193 33.10502815073185 15.177060616750788 33.081385568244855 14.873842111880167 C 32.96861929857983 12.417005083216047 33.05078670794117 9.956825682398843 32.989288931395706 7.498899781539577 C 32.995934200662106 7.218658031606611 32.90508410798775 6.897188823957991 33.20090184153033 6.736883653803267 C 33.79014302195505 6.164884394938033 34.41792074018819 5.595112167217945 34.78027285462734 4.8434820821694995 C 35.148953753476505 3.752547829598784 34.323800836416495 2.4460932511888633 33.181308987400314 2.3073502733067626 C 32.99271618629326 2.268397472059699 32.80021421535233 2.25 32.60769513095485 2.25 Z"
     style="fill:#ffffff;stroke:none"
     id="path10" />
  <path
     d="M 38.48587992633449 2.25 C 38.396446827862114 2.25 38.30701030669843 2.253970136522819 38.21796009329383 2.2616940936950685 C 38.2038996773959 2.261314854150061 38.189863904875395 2.2611265098648654 38.17585551388536 2.2611265098648654 C 37.17060274784308 2.2611265098648654 36.3049152541393 3.2310118757226345 36.378361318037044 4.227486864678362 C 36.32404051159164 5.010703370562885 36.48707500710234 5.7853252703907465 36.53019179042064 6.564726844542106 C 36.59898192454692 6.696246724428149 36.723731492844074 6.751571563107875 36.85610339468667 6.751571563107875 C 37.032099550878996 6.751571563107875 37.22156993003772 6.653772037999446 37.31090833405054 6.50722197967788 C 37.54729844884114 6.176301580427631 37.44297344866213 5.749019186418789 37.34657106614609 5.3887868587970935 C 37.24056723587995 4.745978962128442 37.201533095800045 4.030068083582146 37.55515478038242 3.4528006182538893 C 37.782720854708934 3.1480696260937604 38.15744850820424 2.9958286589324934 38.531551178266504 2.9958286589324934 C 38.938954124793035 2.9958286589324934 39.34561594456144 3.1763791052256156 39.56066774674406 3.5371584359633665 C 39.90541193983307 4.042562504116439 39.81282791174151 4.77819150729467 39.37031476958643 5.195713526586957 C 38.94366192259905 5.700777493313611 38.30345344588997 6.0338350210172855 38.029811443429 6.659532199293302 C 37.85556587975158 7.2902214869334045 38.001787245617756 7.947675764252113 37.94322876227887 8.58979227727632 C 37.8872458541501 10.931873768086549 37.85792936219025 13.274474138899242 37.813604482929534 15.616783352771236 C 37.93446153849052 15.718249264810014 38.07680077378416 15.736942635663993 38.22425967073801 15.736942635663993 C 38.31029905668767 15.736942635663993 38.39808150523135 15.730578255264366 38.4843566005225 15.730578255264366 C 38.554438943230124 15.730578255264366 38.62352688002273 15.734778582038938 38.68987780466512 15.74999997482893 C 39.00863966348822 15.586587913683193 38.983212946111486 15.177060616750788 38.95957036362449 14.873842111880167 C 38.84680409395947 12.417005083216047 38.92897150332081 9.956825682398843 38.867473726775344 7.498899781539577 C 38.874118996041744 7.218658031606611 38.783268903367386 6.897188823957991 39.07908663690997 6.736883653803267 C 39.66832781733469 6.164884394938033 40.296105535567825 5.595112167217945 40.65845765000698 4.8434820821694995 C 41.02713854885614 3.752547829598784 40.201985631796134 2.4460932511888633 39.05949378277995 2.3073502733067626 C 38.8709009816729 2.268397472059699 38.678399010731965 2.25 38.48587992633449 2.25 Z"
     style="fill:#ffffff;stroke:none"
     id="path12" />
  <path
     d="M 42.24570560455322 2.4149744510650635 L 42.24570560455322 6.256192137515427 L 42.977257978434864 6.256192137515427 L 42.977257978434864 2.4149744510650635 L 42.24570560455322 2.4149744510650635 M 42.24570560455322 7.353682905072674 L 42.24570560455322 11.01209360142002 L 42.977257978434864 11.01209360142002 L 42.977257978434864 7.353682905072674 L 42.24570560455322 7.353682905072674 M 42.24570560455322 11.926615172139464 L 42.24570560455322 15.58502586848681 L 42.977257978434864 15.58502586848681 L 42.977257978434864 11.926615172139464 L 42.24570560455322 11.926615172139464 Z"
     style="fill:#ffffff;stroke:none"
     id="path14" />
  <path
     d="M 49.195569755923714 8.518575624487564 L 49.195569755923714 8.518575624487564 C 50.215291952081785 9.664441588265095 51.059596716586405 10.971956076034589 51.812086321260274 12.300054996027685 C 51.970181667404454 12.49509414015274 51.792279118065764 12.673621403926127 51.66177425744984 12.858866637881423 C 51.16598549321484 11.28443512185757 50.02482366577071 10.06961378334061 49.195569755923714 8.518575624487564 ZM 48.20857224530339 2.7356137393299305 C 48.29364172584424 3.1321860921393228 48.13703099248603 3.5898917789533438 47.83619114602444 3.7248867745686463 L 47.93233488072492 3.9301553885609612 C 48.30815557340898 3.751561371027414 48.66930143090087 3.2167940213813706 48.72305847440792 2.7367721403445606 C 49.23618627021825 2.767242025844689 49.37651343711459 3.1537137790390664 49.456799318012344 3.602096496018725 C 49.5530016769413 3.9085107967056043 49.4554143206146 4.652174477982248 49.84371922595331 4.780652222697902 C 50.990585923631 5.224737623429651 51.86729477242389 5.738299375931231 52.654164739088166 6.514544388186927 C 54.01199988297209 8.212641882173564 55.431014905292045 9.8573464440722 56.788814325036746 11.557288769248686 C 57.31642780130204 12.218728535074487 57.79889787363017 12.82472810083348 58.19063687635257 13.281913726620669 C 56.128570859873285 11.740493147250168 53.824496700216905 10.561474724267727 51.56409301075722 9.336369413671097 C 50.3627071546023 8.683623895729344 49.21643998126113 8.149812739309867 49.21643998126113 6.712630618187373 C 49.21643998126113 5.939820848319829 50.640685841967205 5.2922228124393325 50.581915510921895 5.19165226148624 C 50.57682940109983 5.182948853566494 50.56036744294273 5.178576081524511 50.53441797781001 5.178576081524511 C 50.24207177445065 5.178576081524511 48.74557017814267 5.733577835529994 48.74557017814267 6.903998420004124 C 48.74557017814267 7.228067658997503 48.8323038081692 7.528859873273454 48.983115551927035 7.80917162173099 C 48.9808498170968 7.809010405102682 48.97860515034867 7.808844150454738 48.97631514142383 7.808708581926388 C 47.33489949034305 6.93897601632213 47.59551075002197 5.179560098359515 47.65914597602721 3.628507970452029 C 46.97708628283947 3.5907541963144385 46.41519022796487 3.218494009506726 45.76745937156673 3.063672460121497 C 46.26988652817351 2.9986744498050855 46.77070632751594 2.91481369322499 47.274336540311374 2.8628059875356255 L 47.274336540311374 2.8628059875356255 C 47.17983817702339 2.881737376816832 47.09341163719368 2.9366686224000933 47.0358531788714 3.0133980049371214 C 47.027649679899945 3.178820177386104 47.21465753372469 3.251616469594719 47.39698209029725 3.251616469594719 C 47.57491601275821 3.251616469594719 47.748389455835365 3.182284273886709 47.73160552242343 3.0620507903013716 C 47.6511543028813 2.936760909759764 47.50449205529528 2.855419563748554 47.3544099083809 2.855419563748554 C 47.35007652449243 2.855419563748554 47.34574016359235 2.85548734801273 47.34140265768781 2.855623889794873 C 47.59186528481452 2.819723877881941 47.92550561610927 2.766453346770974 48.20857224530339 2.7356137393299305 ZM 51.07553151468901 12.712907881037111 C 51.22254321763697 13.07022988162631 51.29881242288055 13.448678588552507 51.38201898116104 13.82381411056625 C 51.6211091949661 13.630222252081696 51.85294878251334 13.431367037084287 52.049163159218615 13.194570954220131 L 52.049163159218615 13.194570954220131 C 51.92134173106082 13.88937798208799 51.682824935490544 14.589978732535693 51.104374635099155 14.589978732535693 C 50.754267078626775 14.589978732535693 50.5920918525821 14.35343729866398 50.81664692173942 13.636152459193461 C 50.922418311961714 13.298292786454695 51.00663384817449 12.975135887016972 51.07553151468901 12.712907881037111 ZM 50.44707978542732 9.275242205440343 L 50.44707978542732 9.275242205440343 C 52.78764019928139 10.522090234774758 55.10523915164788 11.780691963916809 57.31877735045892 13.243918814543292 C 57.84014917839867 13.666499657465442 58.304659168731064 14.137476633001587 58.619297234968386 14.577700620684274 C 58.410646277794086 14.901936572327381 58.01353583013758 15.013271310231682 57.646369539182274 15.037816541891686 C 55.77272087702097 14.972486251280282 55.03932811477313 13.166157439484286 54.04965587372859 11.875616497865707 L 53.511250959405885 11.221817117816743 L 53.60411173731172 12.059571082790965 C 53.610510938251295 12.210441450777276 53.765022420428096 12.924304100910513 53.53470889482838 12.924304100910513 C 53.51509451038534 12.924304100910513 53.492689979068274 12.919126848733233 53.467165539592 12.907983665304963 L 52.5202670012492 11.77437337129139 C 52.41898723453208 11.841126215446907 52.32365141498029 11.916976807059028 52.21917296379696 11.978945364568768 C 51.749447707139126 11.028381895942648 51.0619279456719 10.14346107514528 50.44707978542732 9.275242205440343 ZM 48.4271128350205 2.25 C 47.93517746880333 2.25 47.431189098612045 2.3383564448511183 46.95331026517732 2.3827652425502976 C 46.38346982584111 2.660954238609842 45.806278572356604 2.448949420239553 45.20865322573441 2.6661097357023342 C 44.77686689043574 2.859707948961656 44.65593654282202 3.2526324320542246 44.47725737094879 3.6454207168659885 C 44.731689279490276 3.560767330946782 44.96320938216738 3.526350099812684 45.181395135001594 3.526350099812684 C 45.87778020801956 3.526350099812684 46.43832847814145 3.8769579087346964 47.17444085498843 4.06383454504805 C 47.17317081603872 4.4331839015113985 47.11524870429917 4.85231530399006 47.087676996844095 5.274593636733236 C 46.97355302806934 6.419064756074647 47.57658657426888 7.42342419835954 48.44846258822679 8.138620549690604 C 49.07294206800746 9.529217477256864 49.937065027749426 10.596196755589721 50.56784569608768 11.681236876311006 C 50.49264042899058 12.168547111502683 50.039010729061886 14.008136928926623 49.81534509937097 14.668517794625577 C 49.37736440443106 14.742102193405676 48.90972168188948 14.783882032234027 48.44991124787264 14.783882032234027 C 48.264345412667865 14.783882032234027 48.08005534143512 14.777077041712973 47.899505312778416 14.76281211811836 C 47.885554807409186 14.760851870478696 47.87154613581326 14.759899226765963 47.857482504003144 14.759899226765963 C 47.50274706849455 14.759899226765963 47.11285175195754 15.365901540535667 46.73053819696889 15.689301180919422 L 54.50200042064867 15.750000157481232 C 54.303820300282304 15.049189642216012 52.92292201851453 14.677575237925105 52.43217585393202 14.677575237925105 C 52.403991340088666 14.677575237925105 52.378742617686946 14.678800850701679 52.35682265225838 14.681260320286958 C 52.53004533935827 14.18582421742638 52.74600417301352 13.720421123613294 52.80752572078113 13.028456454822946 C 53.02442529010271 13.222520971149589 53.26765538204209 13.43247540140391 53.57128216936521 13.454283614396946 C 53.94249536409249 13.426353749546028 54.093110167082784 13.172792969344902 54.14017168249539 12.841954463969696 C 54.9810492196431 14.23277581241059 55.92142856057866 15.368448946463658 57.646369539182274 15.535464793373661 C 58.24242405418247 15.506310231749737 58.985224173093556 15.245662331928015 59.145977303595906 14.61222113122088 C 59.936620288964754 14.567697861700571 59.35682483733092 13.797345271409378 59.063434389901836 13.495523927122605 C 56.911872076629095 11.166751563210042 55.1360452677084 8.508304934459657 53.01013105439385 6.162159646839685 C 52.19137958347795 5.354461820003095 51.266940078664625 4.808149733863811 50.122067062756905 4.355056125024417 C 50.03684117460649 4.145729386216393 50.0088861196574 3.8479579227131997 49.953463781660204 3.520313636286806 C 49.892987851967675 3.162890073801793 49.70227132868915 2.5778154359684136 49.35362067589475 2.395739331051646 C 49.05662254840547 2.2867499201002746 48.74437433548212 2.25 48.4271128350205 2.25 Z"
     style="fill:#ffffff;stroke:none"
     id="path16" />
  <path
     d="M 63.194230108086245 5.993121027946472 C 63.11070576897007 5.993121027946472 63.027181248819595 6.000714156755959 62.94365690970342 6.008307285565445 C 61.73634942192343 6.137390476741045 60.878325828264536 7.359884207996707 61.06815405133036 8.544412285304624 C 61.15167847106337 9.425215312064879 61.69838376797568 9.918768768126995 62.29824092836747 10.404728921416975 C 64.08262625658433 11.498139537870884 63.58147967878438 11.095703542662775 65.38105134099406 12.006879237408668 L 65.66959032910036 11.467767050919548 C 63.528327826619545 10.465473895319647 63.27016150649889 10.306018157790831 62.60196606943229 9.865616734927855 C 62.05526085172248 9.425215312064879 61.62245246008019 8.939255158774898 61.660418114027934 8.202721626067792 C 61.645231870552266 7.693981926530007 61.948957056875656 7.170055983516555 62.290647806629636 6.919482785133731 C 62.56400046074312 6.714468271919335 62.913284422752085 6.59297823359684 63.25497526302322 6.59297823359684 C 63.51314158314388 6.59297823359684 63.75612165978887 6.653723252758088 63.96872924948252 6.80558586854907 C 64.50784143597164 7.071345310407562 64.80397336478147 7.952148246650665 64.4091306723455 8.506446676615454 C 64.22689575063748 8.772206299508248 63.900391153842016 8.954441402250566 63.57388655704655 8.954441402250566 C 63.41443081951773 8.954441402250566 63.25497526302322 8.90888249078926 63.118298890707905 8.810171908197418 C 62.84494614607728 8.658309292406436 62.63993167812146 8.12679022765515 62.92087754448992 7.8306582988453215 C 62.79179429391244 7.693981926530007 62.60955919117012 7.526933067263357 62.472882909371954 7.526933067263357 C 62.3817653580008 7.526933067263357 62.31342717184314 7.595271162903863 62.267868441416134 7.754726900432679 C 61.964143300351324 8.483667311401952 62.45010354415845 9.311318304963066 63.17904386461058 9.508739832215355 C 63.30812711518806 9.546705259870222 63.43721036576554 9.569484806118027 63.566293435308715 9.569484806118027 C 64.40153773164197 9.569484806118027 65.17603687303824 8.87091688210009 65.17603687303824 8.005300279849806 C 65.25196809041658 6.995414093029222 64.44709646206897 6.069052318869997 63.43721036576554 6.008307285565445 C 63.361278967352895 6.000714156755959 63.27775462823672 5.993121027946472 63.194230108086245 5.993121027946472 Z"
     style="fill:#ffffff;stroke:none"
     id="path18" />
  <path
     d="M 70.44412651099265 2.7008420331403613 C 71.24964262145615 2.7008420331403613 72.25790701248033 3.114639379086924 72.74579373281449 3.602526099421084 C 73.17264401401941 4.0293760185574 73.2284467514716 4.595299385204669 73.24409282207489 5.121151895262301 L 67.66788872797042 5.121151895262301 C 67.68353497960803 4.595299385204669 67.73933771706021 4.0293760185574 68.16618781723082 3.602526099421084 C 68.65407471859928 3.114639379086924 69.63861076259775 2.7008420331403613 70.44412651099265 2.7008420331403613 ZM 70.44412651099265 2.25 C 69.48852590365453 2.25 68.46031786872675 2.691454318364663 67.85771695245057 3.2940552346408367 C 67.2396414517282 3.9121309630704104 67.16958963871002 4.725822220553368 67.16958963871002 5.334708647802472 L 67.16958963871002 5.571993928402662 L 73.71866338327527 5.571993928402662 L 73.71866338327527 5.334708647802472 C 73.71866338327527 4.725822220553368 73.67234032602431 3.9121309630704104 73.05426459759474 3.2940552346408367 C 72.45166404338717 2.691454318364663 71.39972729936507 2.25 70.44412651099265 2.25 Z"
     style="fill:#ffffff;stroke:none"
     id="path20" />
  <path
     d="M 70.28122642499604 9.736242055892944 C 70.19770208587985 9.736242055892944 70.11417756572938 9.74383518470243 70.03065322661321 9.751428313511918 C 68.82334573883321 9.880511504687517 67.96532214517433 11.10300523594318 68.15515036824014 12.287533313251096 C 68.23867478797315 13.16833634001135 68.78538008488547 13.661889796073467 69.38523724527727 14.147849949363447 C 71.16962257349412 15.241260565817356 70.66847599569417 14.838824570609248 72.46804765790385 15.75000026535514 L 72.75658664601015 15.21088807886602 C 70.61532414352934 14.20859492326612 70.35715782340867 14.049139185737303 69.68896238634207 13.608737762874327 C 69.14225716863227 13.16833634001135 68.70944877698997 12.68237618672137 68.74741443093772 11.945842654014264 C 68.73222818746206 11.43710295447648 69.03595337378545 10.913177011463027 69.37764412353943 10.662603813080203 C 69.6509967776529 10.457589299865807 70.00028073966187 10.336099261543312 70.341971579933 10.336099261543312 C 70.60013790005367 10.336099261543312 70.84311797669865 10.39684428070456 71.05572556639231 10.548706896495542 C 71.59483775288143 10.814466338354034 71.89096968169126 11.695269274597138 71.49612698925529 12.249567704561926 C 71.31389206754727 12.51532732745472 70.9873874707518 12.697562430197038 70.66088287395634 12.697562430197038 C 70.50142713642752 12.697562430197038 70.341971579933 12.652003518735732 70.2052952076177 12.55329293614389 C 69.93194246298707 12.401430320352908 69.72692799503125 11.869911255601622 70.0078738613997 11.573779326791794 C 69.87879061082222 11.43710295447648 69.69655550807991 11.27005409520983 69.55987922628175 11.27005409520983 C 69.46876167491058 11.27005409520983 69.40042348875293 11.338392190850335 69.35486475832593 11.497847928379151 C 69.05113961726111 12.226788339348424 69.53709986106824 13.054439332909539 70.26604018152037 13.251860860161827 C 70.39512343209785 13.289826287816695 70.52420668267533 13.312605834064499 70.6532897522185 13.312605834064499 C 71.48853404855176 13.312605834064499 72.26303318994803 12.614037910046562 72.26303318994803 11.748421307796278 C 72.33896440732637 10.738535120975694 71.53409277897876 9.81217334681647 70.52420668267533 9.751428313511918 C 70.44827528426268 9.74383518470243 70.36475094514651 9.736242055892944 70.28122642499604 9.736242055892944 Z"
     style="fill:#ffffff;stroke:none"
     id="path22" />
  <path
     d="M 81.83543942597552 5.302738714168385 L 82.54675832003572 6.962479662380943 Q 82.19109869197132 7.081032871735744 81.83543978804413 7.081032871735744 Q 81.47978052204833 7.081032871735744 81.12412179915543 6.962479662380943 L 81.83543942597552 5.302738714168385 ZM 81.83543942597552 3.9986557647115077 L 80.27943167603547 7.407052839704178 Q 81.00556877083494 7.733073531809822 81.83543942597552 7.733073531809822 Q 82.66531044318471 7.733073531809822 83.39144663281266 7.407052839704178 L 81.83543942597552 3.9986557647115077 ZM 83.93975499978573 2.9020409768841073 Q 84.05830712293472 5.347195669832104 84.63625370172934 7.525606411127583 Q 83.92493480766915 8.325838492378011 81.83543942597552 8.325838492378011 Q 79.74594377273044 8.325838492378011 79.03462632694466 7.525606411127583 Q 79.61257200056778 5.347195669832104 79.73112430475106 2.9020409768841073 ZM 78.84197799536317 2.25 Q 78.48631888777238 2.25 78.48631888777238 2.576020873139946 Q 78.48631888777238 2.9020409768841073 78.84197799536317 2.9020409768841073 Q 78.93089204246634 2.976137004282311 79.12354032878926 3.0650510061269003 Q 79.00498806986454 5.228642460477303 78.30848932266235 7.9257226327870995 Q 79.61257200056778 8.992698620431469 81.83543942597552 8.992698620431469 Q 84.05830712293472 8.992698620431469 85.36238952928869 7.9257226327870995 Q 84.66589118941368 5.228642460477303 84.54733834212749 3.0650510061269003 Q 84.73998635689895 2.976137004282311 84.82890026822639 2.9020409768841073 Q 85.1845602583594 2.9020409768841073 85.1845602583594 2.576020873139946 Q 85.1845602583594 2.25 84.82890026822639 2.25 Z"
     style="fill:#ffffff;stroke:none"
     id="path24" />
  <path
     d="M 81.83543908678001 12.82485231041538 Q 84.1661717278912 12.82485231041538 86.77846846751291 13.95111232514354 Q 84.1661717278912 15.046087077968593 81.83543908678001 15.046087077968593 Q 79.52034961972329 15.046087077968593 76.89241024915003 13.95111232514354 Q 79.52034961972329 12.82485231041538 81.83543908678001 12.82485231041538 ZM 81.83543908678001 12.105297803878784 Q 78.95721961235921 12.105297803878784 75.21866285800934 13.935469694191987 Q 78.95721961235921 15.749999858725147 81.83543908678001 15.749999858725147 Q 84.71365856120082 15.749999858725147 88.45221531555069 13.935469694191987 Q 84.72930137318667 12.105297803878784 81.83543908678001 12.105297803878784 Z"
     style="fill:#ffffff;stroke:none"
     id="path26" />
  <path
     d="M 93.36268379725516 2.7008420331403613 C 94.16819990771866 2.7008420331403613 95.17646429874284 3.114639379086924 95.664351019077 3.602526099421084 C 96.09120130028192 4.0293760185574 96.1470040377341 4.595299385204669 96.1626501083374 5.121151895262301 L 90.58644601423293 5.121151895262301 C 90.60209226587054 4.595299385204669 90.65789500332272 4.0293760185574 91.08474510349333 3.602526099421084 C 91.57263200486179 3.114639379086924 92.55716804886026 2.7008420331403613 93.36268379725516 2.7008420331403613 ZM 93.36268379725516 2.25 C 92.40708318991705 2.25 91.37887515498926 2.691454318364663 90.77627423871309 3.2940552346408367 C 90.15819873799072 3.9121309630704104 90.08814692497253 4.725822220553368 90.08814692497253 5.334708647802472 L 90.08814692497253 5.571993928402662 L 96.63722066953778 5.571993928402662 L 96.63722066953778 5.334708647802472 C 96.63722066953778 4.725822220553368 96.59089761228682 3.9121309630704104 95.97282188385725 3.2940552346408367 C 95.37022132964968 2.691454318364663 94.31828458562758 2.25 93.36268379725516 2.25 Z"
     style="fill:#ffffff;stroke:none"
     id="path28" />
  <path
     d="M 90.86246685703891 9.75662253438793 C 91.05351995960785 10.163003991178527 91.18151501299472 10.403825233769595 91.8807112165585 10.625165737167833 C 93.91439607632493 10.780606133873505 94.7342732759146 11.04576852460329 95.21066214564644 11.20572464094343 C 95.55245852891576 11.293479208599479 96.19595364578805 11.708967414928736 96.21622152212692 12.212132706232694 C 96.1880569295254 12.72264799020661 95.66214178159922 13.114585806229229 95.18439515460076 13.211030744528841 C 94.75394699767361 13.33008541890078 92.74774459325792 13.394233837685107 91.89651858872506 13.610305518751659 C 91.23967119637571 13.813187764695982 91.2306465458931 14.221344081785503 90.81825710371487 14.525084158180249 C 89.85726309981585 13.870467017917036 90.90671109739753 12.947912593139677 91.2481884077092 12.75590978462131 C 91.61932429620141 12.560334807251621 91.90532771787088 12.50065286677156 92.25389532714598 12.50065286677156 C 92.44144722631007 12.50065286677156 92.64711215051375 12.517932228849446 92.8938966630198 12.540617275191494 C 94.08038715216375 12.532253490429127 94.04799830515432 11.92150965123929 92.84213515429599 11.86676270583763 C 92.83877189902942 11.866759809288794 92.83541606616924 11.866757636877168 92.8320696470928 11.866757636877168 C 92.58647887477555 11.866757636877168 92.3877119005892 11.877261971228933 92.21625195951475 11.877261971228933 C 91.84567456184487 11.877261971228933 91.60266642488304 11.828195882230801 91.29022647354387 11.517971881267897 C 90.97213345456655 11.307325436170146 90.37286365996829 10.61725815884705 90.86246685703891 9.75662253438793 ZM 91.21529103534486 8.541233539581299 C 91.13716097533181 8.541233539581299 91.0385473366088 8.55766855767365 90.91479111089117 8.594047762772504 C 90.54942116492452 8.94881706413861 90.197883642663 9.54210267935997 90.00938506421673 10.107130288279876 C 89.96343569288081 10.383193840551883 90.01379222550041 10.85508581821668 90.23692255847143 11.270287990348436 C 90.52620433031971 11.522875014309108 90.79825697710898 11.875202525006927 91.11202345729764 12.161039757186956 C 90.79853730872597 12.443755957996785 90.62017013962621 12.523532706022792 90.33377975713576 12.802968565276473 C 90.0149073572008 13.24333088473017 89.9085140352342 13.509677963933655 89.96599442322234 14.08880452431012 C 89.95928168261082 14.519388094895334 90.40445233536191 15.151674291911633 90.7806388093345 15.493810295531915 C 91.00453696535445 15.674649080701244 91.16613017488952 15.74999990210668 91.27774977046946 15.74999990210668 C 91.52481877838144 15.74999990210668 91.52704061237253 15.380813028912115 91.41814612614385 14.96923950833397 C 91.51837486239407 14.385234435581395 91.81200525921588 14.150190359642636 92.37526651644907 14.032244339337467 C 92.94340574295546 13.948725250216057 96.74113627449907 14.187952666810418 96.77315182877732 12.229346171824574 C 96.76335570061582 10.431946378138576 93.127456619749 10.271829503338068 92.41848881817168 10.228495684485296 C 91.68555623876995 10.05864640559767 91.64243133350193 10.000164360472695 91.41893697449308 9.621231324584045 C 91.38670390750072 9.193812233601562 91.7076203374554 8.541233539581299 91.21529103534486 8.541233539581299 Z"
     style="fill:#ffffff;stroke:none"
     id="path30" />
  <path
     d="M 99.47713613102084 2.403700068387507 L 99.47713613102084 4.914137070680972 L 100.66831206676395 4.914137070680972 L 100.66831206676395 4.798861356215439 L 100.02789513193858 4.798861356215439 L 100.02789513193858 3.313092853222874 L 99.64364454123886 3.313092853222874 L 99.64364454123886 2.403700068387507 ZM 101.10876353500292 6.095875216064188 Q 101.12941313377402 6.095875216064188 101.14862575285161 6.098908919455012 Q 101.27030483794537 6.118121538532601 101.31513416306962 6.182162766393603 Q 101.35996348819386 6.246204710595428 101.42400471605485 6.284629948750607 L 101.42400471605485 6.323055186905784 Q 101.34715531425573 6.3358637190143146 101.28951745702297 6.361480425060963 Q 101.25658225494507 6.376117775293878 101.20273598969521 6.376117775293878 Q 101.16235012670398 6.376117775293878 101.11020051469643 6.367883795689197 Q 100.98852142960267 6.348671892952432 100.84762900909048 6.246204710595428 L 100.61707937101147 6.246204710595428 L 100.61707937101147 6.182162766393603 L 100.84762900909048 6.182162766393603 Q 100.9986332966782 6.095875216064188 101.10876353500292 6.095875216064188 ZM 104.5620504904284 5.964421302252713 Q 104.2802671716283 5.964421302252713 104.0753334337125 6.054079594330775 Q 104.3443083994893 6.297438480859137 104.5620504904284 6.707305777605503 L 104.57485884345172 6.707305777605503 Q 104.7797925365962 6.297438480859137 105.04876821871382 6.054079594330775 Q 104.84383457034063 5.964421302252713 104.5620504904284 5.964421302252713 ZM 101.66736360258322 6.745731015760682 Q 101.66736360258322 6.848197481776861 101.50085519236521 6.848197481776861 Q 101.41119654211674 6.745731015760682 101.66736360258322 6.745731015760682 ZM 101.1901255258246 5.792194701404897 Q 100.54960651243177 5.792194701404897 100.51461218865447 6.387096414766786 L 100.42495389657641 6.387096414766786 Q 100.34810342026606 6.118121538532601 100.19440354215658 6.118121538532601 Q 99.97666136167487 6.118121538532601 100.11755306584622 6.50237212923232 Q 100.25844477001758 6.886622719932039 100.36091195237458 6.886622719932039 Q 100.42495389657641 6.886622719932039 100.42495389657641 6.784155537575035 L 100.42495389657641 6.656072007341796 L 100.51461218865447 6.656072007341796 L 100.51461218865447 6.784155537575035 Q 100.51461218865447 6.976280653839688 100.36091195237458 6.976280653839688 Q 100.25844477001758 6.976280653839688 100.10474560824893 6.668880539450326 Q 100.05161460931211 6.638519866294886 100.0153505714238 6.638519866294886 Q 99.92922348143901 6.638519866294886 99.93823612351969 6.809772243621683 L 99.93823612351969 7.680740607378125 Q 100.14047346503028 7.984095903303194 100.4065754563887 7.984095903303194 Q 100.47753582027141 7.984095903303194 100.55303742680965 7.96252401572084 Q 100.73235401096578 7.770398541285775 100.78358778122949 7.462997710555587 L 101.29592154399202 7.462997710555587 Q 101.33690841693483 7.47119515677823 101.37100982187465 7.47119515677823 Q 101.55003951153066 7.47119515677823 101.53928043052039 7.245256246414698 L 101.27030483794537 7.10436454224334 Q 101.27030483794537 7.053131130150044 101.57770566867556 6.950664664133865 L 101.69298066680028 6.963472121731159 L 101.62893836442804 6.873814187823509 Q 101.62893836442804 6.873814187823509 101.69938475376934 6.835388949668331 Q 101.76983006859939 6.796963711513153 101.77623451373887 6.739326928791622 Q 101.78263931704875 6.681689071558855 101.53928043052039 6.387096414766786 Q 101.46242995421004 6.271821774812489 101.44962178027191 6.188567927873898 Q 101.43681324816339 6.105313006424071 101.28951745702297 6.041271062222245 Q 101.2119936203378 6.007565077417421 101.12382603351506 6.007565077417421 Q 101.04447409504631 6.007565077417421 100.95650027841654 6.034867691594011 Q 100.77077924912095 6.092504832485954 100.61707937101147 6.118121538532601 L 100.61707937101147 6.054079594330775 Q 100.82201301938466 6.002845824067068 101.02694666775784 5.925996422267948 Q 101.1037971440682 5.89717767273677 101.1788460232055 5.89717767273677 Q 101.30392701087376 5.89717767273677 101.42400471605485 5.97722911802042 Q 101.38557947789968 5.88757118411277 101.32153825003867 5.797912892034708 Q 101.252921753333 5.792194701404897 101.1901255258246 5.792194701404897 ZM 99.43871089286567 5.2087288320470115 Q 98.83671847985465 5.221537185070336 98.61897665754334 7.360531244539407 L 98.61897665754334 9.896584426816728 L 99.60521930308367 9.896584426816728 L 99.60521930308367 6.48956359712379 Q 99.60521930308367 5.913187890159417 99.9190235044421 5.881166738973299 Q 100.23282878031176 5.849146662298416 100.30967854028128 5.714658328755293 Q 100.38652865842123 5.580171069723407 101.15502983982067 5.541745831568228 Q 101.05256265746367 5.285578412931337 100.82201301938466 5.2087288320470115 ZM 104.44366782672276 10.108415004646076 Q 104.21721019605985 10.108415004646076 103.960058614673 10.268026485407917 Q 104.42115878625704 10.268026485407917 104.54924204786248 10.53700100347169 Q 104.66451767278541 10.306451723563095 104.80540933218546 10.274430572376977 Q 104.94630103635681 10.242410137531682 104.63890087719615 10.13994331334509 Q 104.54431586155651 10.108415004646076 104.44366782672276 10.108415004646076 ZM 99.93823612351969 8.03937341751996 L 99.93823612351969 10.2552183114698 L 99.2337776026629 10.2552183114698 Q 99.24658577660102 11.023720209210062 99.38107303563291 12.144449755611863 Q 99.51556136917603 13.265180734695313 99.72049501754921 14.033681199753927 Q 99.9254286659224 14.802182381153365 99.43871089286567 15.301708328148205 L 103.22998195508791 15.301708328148205 Q 103.10189860393989 15.148007375527493 103.05706927881565 14.821394642060541 Q 103.01224067003223 14.49478190859359 103.34525749046824 13.700664379317915 L 104.30588396721754 10.793168780278993 Q 104.2657278705457 10.502038556861079 103.92657335238465 10.502038556861079 Q 103.83301342046455 10.502038556861079 103.71669972814463 10.524193545874397 L 102.410248077936 12.471062489078815 L 101.9235310212201 13.085863434198366 Q 101.79117809967416 13.17552208444684 101.690134286535 13.17552208444684 Q 101.48804666025669 13.17552208444684 101.41119654211674 12.816887483452945 Q 100.95009619144749 11.766603610051614 101.05256265746367 10.11432624912803 Q 101.60332165838139 9.806925776568255 100.42495389657641 8.295541910668089 Q 100.0022780677215 8.257115598001672 99.93823612351969 8.03937341751996 ZM 99.8229614835654 2.25 L 99.8229614835654 3.1593927960281922 L 100.19440354215658 3.1593927960281922 L 100.19440354215658 4.645161299020757 L 100.86043754119902 4.645161299020757 L 100.86043754119902 4.914137070680972 Q 101.27030483794537 5.080644764558154 101.40479209697726 5.3688329762107525 Q 101.53928043052039 5.657020471522526 101.50085519236521 5.746679479941412 Q 101.62893836442804 6.002845824067068 101.62893836442804 6.297438480859137 Q 101.98757224908111 6.7329217673113275 101.93633955332864 6.796963711513153 Q 101.85948907701828 6.873814187823509 101.78263931704875 6.899430893870157 L 101.80825530675457 6.963472121731159 Q 101.9235310212201 7.014705891994867 101.80825530675457 7.10436454224334 Q 101.8722972509564 7.258064778523228 101.71859737284693 7.283680768229051 Q 101.71859737284693 7.680740607378125 101.3983880100082 7.680740607378125 L 101.00132996171119 7.680740607378125 Q 100.87324571513713 8.013756711473311 100.7451625430743 8.116223893830316 Q 100.95009619144749 8.398007302173031 101.34075086911626 9.076849833323994 Q 101.73140554678504 9.755692364474958 101.38557947789968 10.2552183114698 Q 101.29592154399202 11.60009519983361 101.78263931704875 12.701613201669058 L 103.47334084161628 10.22960124725274 Q 103.90668961149731 9.870541139809223 104.3520065561574 9.870541139809223 Q 104.3673630230353 9.870541139809223 104.38273363764446 9.870968078940493 L 104.38273363764446 6.796963711513153 Q 104.15218310413943 6.297438480859137 103.93444181908374 6.1565467766877795 Q 103.84051386706517 6.1907019071894265 103.78074185143167 6.1907019071894265 Q 103.75085539590191 6.1907019071894265 103.72950808116796 6.182162766393603 Q 103.66546613696613 6.1565467766877795 103.78074095600564 6.054079594330775 Q 104.03690828509993 5.797912892034708 104.57485884345172 5.797912892034708 Q 105.11280949134613 5.797912892034708 105.35616836668166 6.054079594330775 Q 105.47144323049247 6.1565467766877795 105.4074019746494 6.182162766393603 Q 105.38605443885716 6.1907019071894265 105.3575910755228 6.1907019071894265 Q 105.3006651379483 6.1907019071894265 105.21527669608878 6.1565467766877795 Q 104.9847262297407 6.297438480859137 104.75417574100696 6.796963711513153 L 104.75417574100696 9.935009664971908 L 104.76698413880159 9.935009664971908 Q 105.18965990049954 10.101518075189912 105.22808509388341 10.165559661221327 Q 105.34335996329062 10.344876961718274 105.1000010935515 10.408918547749687 Q 104.85664296813526 10.4729601337811 104.66451767278541 10.882827430527469 Q 103.40929961375528 14.610056906718299 103.44772395648442 14.87903285746372 Q 103.47334084161628 15.160815549465612 103.81276192810655 15.365749197838795 Q 104.15218310413943 15.570682846211978 103.99848304694476 15.750000146708926 L 98.90076006588606 15.750000146708926 Q 98.64459300541958 15.634725148584216 98.90076006588606 15.391366978396679 Q 99.5667940649285 14.584440558842063 99.32983962353961 13.835150922008978 Q 99.09288554032113 13.085863434198366 98.91356895616501 10.4729601337811 L 98.91356895616501 10.2552183114698 L 98.2731509468284 10.2552183114698 L 98.2731509468284 8.333965716141616 Q 98.2731509468284 5.247153891116984 99.20816053844584 4.914137070680972 L 99.31062736263243 4.914137070680972 L 99.31062736263243 2.25 Z"
     style="fill:#ffffff;stroke:none"
     id="path32" />
  <path
     d="M 112.3693997642423 4.122231780955881 Q 112.27582058066254 4.122231780955881 112.19039550468557 4.160672957694398 Q 112.12775078326149 4.23897903855969 112.19039550468557 4.285962758712948 Q 112.2631445716065 4.245041610040774 112.35569401525136 4.245041610040774 Q 112.58192698352326 4.245041610040774 112.9264747422077 4.4895593569376135 L 113.0987482633795 4.4895593569376135 L 113.0987482633795 4.395592095716305 L 112.9264747422077 4.395592095716305 Q 112.61894461195872 4.122231780955881 112.3693997642423 4.122231780955881 ZM 112.35484013698881 4.33947198560498 Q 112.26348232630515 4.33947198560498 112.23737922483882 4.372100235639676 Q 112.20605758046761 4.411253276072322 112.20605758046761 4.4895593569376135 Q 112.20605758046761 4.614849157956163 112.3705004219188 4.614849157956163 Q 112.53494326337 4.614849157956163 112.81684594245996 4.5208818967348545 Q 112.51928190392877 4.348607659222223 112.39399210291023 4.3407769795016105 Q 112.37311112605289 4.33947198560498 112.35484013698881 4.33947198560498 ZM 113.34932858175743 4.834107115622052 Q 113.28668457667418 4.834107115622052 113.28668457667418 4.896752016131327 Q 113.28668457667418 4.943735557199378 113.33366722231621 4.943735557199378 Q 113.3963126600811 4.943735557199378 113.41197401952232 4.896752016131327 Q 113.3963126600811 4.834107115622052 113.34932858175743 4.834107115622052 ZM 113.61557025957657 4.06670569647309 Q 113.86614914527284 4.06670569647309 113.86614914527284 4.23897903855969 Q 113.86614914527284 4.395592095716305 113.8035051401896 4.5208818967348545 Q 113.74085970242471 4.646171697753403 113.58424754069412 4.818445756180829 Q 113.3963126600811 4.975058096996619 113.34149826020723 4.982888597632025 Q 113.33053538023245 4.984454697759105 113.32019929847893 4.984454697759105 Q 113.27885353878315 4.984454697759105 113.24753081990072 4.959396916640602 Q 113.20837706312724 4.928074376843361 113.27102250089213 4.834107115622052 L 113.42763466262272 4.66183287810942 L 113.61557025957657 4.5208818967348545 Q 113.6468922621182 4.4895593569376135 113.5685861812529 4.411253276072322 Q 113.49028010038761 4.332946478866205 113.55292482181169 4.254640218915707 Q 113.58772752441848 4.211136840657212 113.6273640949075 4.211136840657212 Q 113.65907363783506 4.211136840657212 113.69387634044186 4.23897903855969 Q 113.77218242130715 4.301623939068965 113.72519905932431 4.411253276072322 Q 113.67821498100064 4.5208818967348545 113.47461874094638 4.75580013933073 L 113.50594145982883 4.771461498771953 Q 113.72519905932431 4.536543077090871 113.76435209975696 4.45823699622558 Q 113.8035051401896 4.379930019934257 113.8035051401896 4.254640218915707 Q 113.8035051401896 4.1293505969823645 113.61557025957657 4.1293505969823645 Q 113.52160210292924 4.1293505969823645 113.48244906249658 4.184164817771027 Q 113.44329602206395 4.23897903855969 113.44329602206395 4.332946478866205 Q 113.44329602206395 4.395592095716305 113.53726346237046 4.505220537293631 L 113.42763466262272 4.583526797244129 Q 113.34932858175743 4.395592095716305 113.38848162219007 4.231148537924285 Q 113.42763466262272 4.06670569647309 113.61557025957657 4.06670569647309 ZM 113.75652106186594 2.7198374253890836 Q 114.58656738152418 2.7198374253890836 115.13471138026287 2.8842810279524045 Q 115.68285537900155 3.0487238694036 115.68285537900155 3.7691416579419084 Q 115.68285537900155 4.4895593569376135 115.19735610168694 4.82627643590144 Q 114.71185754071314 5.162993514865267 114.46127793867603 5.3665893967491085 Q 114.0384240991263 5.084686717659151 113.8818112210549 4.614849157956163 Q 113.99144002080263 4.45823699622558 113.99144002080263 4.27030157835693 Q 113.99144002080263 3.957076359469733 113.61557025957657 3.9414151791137155 Q 113.34932858175743 3.9414151791137155 113.27102250089213 4.23897903855969 L 113.22403842256847 4.23897903855969 Q 113.19271642002684 3.9414151791137155 112.94213610164891 3.8631089191632175 Q 112.69155614144141 3.7848028382979253 112.42531482179267 3.722157937788651 Q 112.94213610164891 2.7198374253890836 113.75652106186594 2.7198374253890836 ZM 111.79886510035911 5.319605676595851 L 112.11208942382027 5.3822507561903326 L 111.90849354193642 5.3822507561903326 Q 111.78320302457705 5.3822507561903326 111.79886510035911 5.319605676595851 ZM 112.17473521975558 5.4605568370556234 Q 112.17473521975558 5.491879197767658 111.86150910544235 5.57018527863295 Q 111.85106807975806 5.575405970560299 111.84410775413895 5.575405970560299 Q 111.83018674473031 5.575405970560299 111.83018674473031 5.554523919191727 Q 111.83018674473031 5.491879197767658 111.89283254066562 5.491879197767658 L 112.00246098224295 5.491879197767658 L 112.17473521975558 5.4605568370556234 ZM 112.17473521975558 4.019721976319832 Q 112.37833110163942 4.019721976319832 112.70721750088263 4.0980280571851235 Q 113.16139370114439 4.1919954974916385 113.17705506058562 4.473898176581597 Q 113.33366722231621 4.473898176581597 113.33366722231621 4.583526797244129 Q 113.0987482633795 4.75580013933073 113.0987482633795 4.943735557199378 Q 113.0987482633795 5.116009078371185 113.30234521977458 5.116009078371185 Q 113.44329602206395 5.116009078371185 113.66255362155943 4.896752016131327 Q 113.81916649963082 5.3665893967491085 114.22635897973933 5.695475795992325 Q 114.28900370116341 6.133990994983277 114.44561657923481 6.478538395497304 Q 114.13239153943282 6.885730875605811 113.8035051401896 6.885730875605811 Q 113.7775829147814 6.886811117568825 113.7527409313362 6.886811117568825 Q 113.41737379665574 6.886811117568825 113.27885282244233 6.689964957101757 Q 113.13007098226196 6.478538395497304 113.05176490139665 6.040023554676763 Q 113.03784425015843 5.928654046726025 112.93730115925544 5.928654046726025 Q 112.92473367583429 5.928654046726025 112.91081338276648 5.9303940385882 Q 112.69155614144141 5.9303940385882 112.11208942382027 5.993039834523505 Q 111.98679962280173 5.946055398029423 111.97113862153091 5.875579996884743 Q 111.95547726208969 5.80510423756965 111.92415490137765 5.695475795992325 Q 112.22171893990884 5.585847354414998 112.33134738148615 5.4448954776144 Q 112.09642842254947 5.272621956442594 111.95547726208969 5.225638415374542 L 111.95547726208969 5.131670258727203 Q 112.19039550468557 5.084686717659151 112.19039550468557 5.006380457708653 Q 112.1434117845323 4.881090656690104 112.06510570366702 4.881090656690104 Q 111.97113862153091 4.896752016131327 112.00246098224295 4.943735557199378 Q 112.06510570366702 5.006380457708653 111.90066286221582 5.014211137429265 Q 111.86777386412109 5.015777237556346 111.8414630238157 5.015777237556346 Q 111.7362193044238 5.015777237556346 111.7362193044238 4.990719277352635 Q 111.7362193044238 4.943735557199378 111.76754166513584 4.896752016131327 Q 112.11208942382027 4.395592095716305 112.17473521975558 4.019721976319832 ZM 114.77450297847803 6.572505835803819 L 114.85280905934331 7.668793833281203 Q 114.32927566596358 7.978154214336207 113.83788376902842 7.978154214336207 Q 113.35909159085153 7.978154214336207 112.91081338276648 7.684454834552014 L 113.20837706312724 7.13631047764291 Q 113.54153500270564 7.256617770058184 113.8145396542468 7.256617770058184 Q 114.46554947901122 7.256617770058184 114.77450297847803 6.572505835803819 ZM 108.70558883665096 9.246429196655686 Q 109.0398424195201 9.246429196655686 109.32438660539958 9.563805431534378 Q 108.76058178447529 9.579466790975601 108.57264636660663 9.908352473877994 Q 108.40037284543483 9.532482712651932 108.1497925270569 9.516821353210709 Q 107.89921220867899 9.501159993769486 108.40820352515544 9.305394791606256 Q 108.56151389294172 9.246429196655686 108.70558883665096 9.246429196655686 ZM 114.79016362157843 8.138631034813779 Q 114.77450297847803 9.720417593264962 114.61005977885642 11.646751910400583 Q 114.44561657923481 13.573086227536205 114.08540746110916 15.06090462934005 L 114.55524537898255 15.311484947717972 L 109.37137014646764 15.311484947717972 L 110.43633578323298 14.87296974872702 Q 109.96649822353 12.570765670365336 109.26174170489031 11.4979700702202 Q 108.55698518625061 10.425173753734239 109.0268225668684 10.111948713932247 Q 109.17597744153304 10.012512011432356 109.32355403827657 10.012512011432356 Q 109.64084359591551 10.012512011432356 109.95083686408877 10.472157832057908 L 112.06510570366702 13.479118787229691 L 112.59758834296449 13.479118787229691 Q 112.39399210291023 9.501159993769486 112.7698622223067 8.185614754967037 Q 113.2648462103052 8.440606658311285 113.7490553577953 8.440606658311285 Q 114.27598922106789 8.440606658311285 114.79016362157843 8.138631034813779 ZM 108.68227480818396 2.25 Q 108.43169538523208 2.8607892126470773 108.07148644619161 3.2131667108547957 Q 107.71127759669376 3.5655449701746393 107.55466534542057 3.9492456797491213 Q 107.39805233303527 4.332946478866205 106.92821490764618 5.3665893967491085 Q 107.00955973427013 5.4002491775707675 107.08387116851088 5.4002491775707675 Q 107.42446610256283 5.4002491775707675 107.61731024592984 4.693155238821455 Q 107.85222857806833 4.332946478866205 107.98534968560571 4.285962758712948 Q 107.9942243425351 4.282830558458786 108.00278586898169 4.282830558458786 Q 108.12264643335043 4.282830558458786 108.18111497731154 4.896752016131327 L 108.18111497731154 8.968677354472018 L 108.18111497731154 8.984338713913239 Q 107.27276257678801 9.610788793517223 107.6642938765405 9.712587271714764 Q 108.02770208324479 9.807073342778057 108.26968004374915 10.191641630633343 L 108.26967995420655 10.191641630633343 Q 108.38049044768654 10.97213937181699 108.90936344557046 11.866009509896061 Q 109.46533830311498 12.805684629302036 109.91951450337673 14.622389430349095 L 108.7135973479812 15.13921071020534 L 108.80756550462854 15.750000146708926 L 115.49492049838852 15.750000146708926 L 114.69619546493108 14.779003024761328 Q 115.1660340991453 11.302204151716145 115.1660340991453 9.548144072093155 Q 115.2443401800106 7.794083634299753 115.10338866138042 6.2436194365606035 L 114.9937605779735 6.22795807711938 Q 115.13471138026287 5.914733753658213 115.29132425833427 5.914733753658213 Q 115.46359777950607 5.914733753658213 115.46359777950607 6.040023554676763 L 115.38529169864078 8.890371273606725 L 116.07438649966883 8.890371273606725 L 115.93343569737948 6.008701193964728 Q 115.87079025961458 5.726798156704358 115.66719401956033 5.57018527863295 Q 115.57024373606151 5.495608109928446 115.45021008584112 5.495608109928446 Q 115.31817199608744 5.495608109928446 115.15820306125428 5.585847354414998 Q 114.85280905934331 5.758120875586805 114.68053482183069 6.1496519962540885 L 114.53958401954132 5.726798156704358 Q 114.71185754071314 5.601507639344984 114.9937605779735 5.3822507561903326 Q 116.02740242134517 4.896752016131327 116.01957209979497 3.737819207687271 Q 116.01174177824477 2.5788864440145165 114.5317529816503 2.4535966429959672 Q 114.23940927687606 2.428847839822061 113.98831319310466 2.428847839822061 Q 112.96823812860401 2.428847839822061 112.62891142001735 2.837297352570449 Q 112.20605758046761 3.346287907934781 112.00246098224295 3.8631089191632175 Q 111.97113862153091 4.0980280571851235 111.93198558109826 4.23897903855969 Q 111.89283254066562 4.379930019934257 111.70489694371176 4.65400219838881 Q 111.51696242126914 4.928074376843361 111.54828478198118 5.006380457708653 Q 111.563945783252 5.116009078371185 111.75188138020584 5.116009078371185 Q 111.75188138020584 5.225638415374542 111.62659086284647 5.256960955171783 Q 111.62659086284647 5.397911757461143 111.68923558427053 5.4448954776144 Q 111.61092950340525 5.66415343528029 111.75188138020584 5.711137155433548 L 111.81452538528909 6.008701193964728 Q 111.78320302457705 6.306264157984672 111.45431662533385 7.214617633019438 Q 111.03146278578411 7.214617633019438 111.03146278578411 7.4495358756153145 Q 111.03146278578411 7.684454834552014 111.28204310416203 7.684454834552014 Q 111.31042918383534 7.687391473761148 111.33795851988282 7.687391473761148 Q 111.75090178412864 7.687391473761148 111.97113862153091 7.0266820360655835 L 112.26870266006209 6.180974356966123 Q 112.64457242128815 6.1496519962540885 112.80118494118915 6.102668276100831 Q 112.87949102205444 6.478538395497304 113.00478082307299 6.729117997534403 Q 112.62891142001735 7.214617633019438 112.42531482179267 7.786252954579141 Q 112.22171893990884 8.35788935065008 112.1355814629821 9.08613719211078 Q 112.0494447023962 9.814385033571478 112.06510570366702 12.680395186453898 L 109.95083686408877 9.689094874382516 Q 109.76290162530533 9.422853912904193 109.49666066382702 9.266241034832785 Q 109.19992131266977 8.89531689065755 108.8055699581773 8.89531689065755 Q 108.70040951340621 8.89531689065755 108.58830754696265 8.921693992489171 L 108.57264636660663 8.890371273606725 L 108.57264636660663 4.865429476334087 Q 108.5413238268094 3.8474477388072 108.30640477833009 3.6438518569233587 Q 108.47867892630012 3.283643007425506 108.73708992439866 2.8921116629017147 Q 108.99550002707116 2.5005803183779234 108.68227480818396 2.25 Z"
     style="fill:#ffffff;stroke:none"
     id="path34" />
  <path
     d="M 129.86865284318645 7.887661085552464 Q 129.56756528138777 8.188746882266699 129.56756528138777 8.991636728107956 Q 129.56756528138777 9.811251971062319 129.86865284318645 10.11233699838077 L 119.93287645026885 10.11233699838077 Q 120.2339607534501 9.811251971062319 120.2339607534501 8.991636728107956 Q 120.2339607534501 8.188746882266699 119.93287645026885 7.887661085552464 ZM 118.00928551950042 7.268766403198242 Q 117.57438600063324 7.268766403198242 117.59111290400831 7.553123001079024 Q 117.57438600063324 7.887661085552464 118.00928551950042 7.887661085552464 L 119.09653273261824 7.887661085552464 Q 119.49798227191359 8.188746882266699 119.49798227191359 8.991636728107956 Q 119.49798227191359 9.811251971062319 119.09653273261824 10.11233699838077 L 118.0260131795423 10.11233699838077 Q 117.57438600063324 10.11233699838077 117.57438600063324 10.396695180311696 Q 117.57438600063324 10.731233174267985 118.00928551950042 10.731233174267985 L 131.79224513171215 10.731233174267985 Q 132.21044885257464 10.731233174267985 132.21044885257464 10.396695180311696 Q 132.21044885257464 10.11233699838077 131.775516113913 10.11233699838077 L 130.70499800911148 10.11233699838077 Q 130.30354937498765 9.811251971062319 130.30354937498765 8.991636728107956 Q 130.30354937498765 8.188746882266699 130.70499800911148 7.887661085552464 L 131.79224513171215 7.887661085552464 Q 132.21044885257464 7.887661085552464 132.21044885257464 7.553123001079024 Q 132.21044885257464 7.268766403198242 131.79224513171215 7.268766403198242 Z"
     style="fill:#ffffff;stroke:none"
     id="path36" />
  <path
     d="M 30.489336013793945 0.375 C 20.86433607339859 0.375 20.86433607339859 17.625 30.489336013793945 17.625 "
     style="fill:none;stroke:#ffffff;stroke-width:1"
     id="path38" />
  <path
     d="M 30.489336013793945 0.375 L 132.2104434967041 0.375 "
     style="fill:none;stroke:#ffffff;stroke-width:1"
     id="path40" />
  <path
     d="M 30.489336013793945 17.625 L 132.2104434967041 17.625 "
     style="fill:none;stroke:#ffffff;stroke-width:1"
     id="path42" />
  <path
     d="M 139.8979434967041 0.375 L 139.8979434967041 17.625 "
     style="fill:none;stroke:#ffffff;stroke-width:1"
     id="path44" />
  <path
     d="M 132.2104434967041 0.375 C 141.83543968200684 0.375 141.83543968200684 17.625 132.2104434967041 17.625 "
     style="fill:none;stroke:#ffffff;stroke-width:1"
     id="path46" />
</svg>
