<?xml version="1.0" encoding="UTF-8" standalone="no"?>
<svg
   width="74.48741912841797"
   height="18.0"
   version="1.1"
   id="svg30"
   sodipodi:docname="baenremerynetjeru.svg"
   inkscape:version="1.1.1 (3bf5ae0d25, 2021-09-20)"
   xmlns:inkscape="http://www.inkscape.org/namespaces/inkscape"
   xmlns:sodipodi="http://sodipodi.sourceforge.net/DTD/sodipodi-0.dtd"
   xmlns="http://www.w3.org/2000/svg"
   xmlns:svg="http://www.w3.org/2000/svg">
  <defs
     id="defs34" />
  <sodipodi:namedview
     id="namedview32"
     pagecolor="#ffffff"
     bordercolor="#666666"
     borderopacity="1.0"
     inkscape:pageshadow="2"
     inkscape:pageopacity="0.0"
     inkscape:pagecheckerboard="0"
     showgrid="false"
     inkscape:zoom="18.459493"
     inkscape:cx="37.24371"
     inkscape:cy="9.0197493"
     inkscape:window-width="1920"
     inkscape:window-height="1001"
     inkscape:window-x="-9"
     inkscape:window-y="-9"
     inkscape:window-maximized="1"
     inkscape:current-layer="svg30" />
  <path
     d="M 1.2190420140847793 0.0 C 0.970800706632417 0.0 0.7230423028937335 0.01893070358296025 0.48290982680079 0.048905678499779795 C 0.15187998957905166 0.13255188916498697 0.3219916247400915 0.5118521231009919 0.6158947927962716 0.5118521231009919 C 0.6355981423211179 0.5118521231009919 0.6558578408244597 0.5101473851910305 0.6765601864318946 0.5065345630073116 C 1.2976180869590601 0.5780119512905144 2.0622053316712337 0.6175539511807123 2.531371224901928 0.9695623988344474 C 3.1537543888207784 1.6479367557428735 2.8741262715941502 3.0576933712068692 2.94658764204448 3.7269297850416896 C 2.951782632395561 3.7629649381631523 2.953952713884158 6.430591781037886 2.953952713884158 7.782422252231933 C 2.352510186605274 7.494257626556917 1.67335422808609 7.349215125535265 1.0039192969246102 7.349215125535265 C 0.7063920462481148 7.349215125535265 0.41078504023889434 7.377865539465801 0.12477432975315178 7.4353349446232855 C -0.20149863151174055 7.606724672263251 0.18154647682350566 7.8266562324049085 0.4376378670454302 7.8266562324049085 C 0.4681373192956425 7.8266562324049085 0.4968360674978842 7.823536850015894 0.5223214865886322 7.816844331348357 C 1.429843884416301 7.914926816832979 2.4617098179841825 8.158078494744517 2.9226503683594482 9.002292523011262 C 2.9681809889039896 9.155077638776014 2.9396896697969415 9.207577525716367 2.870237404087557 9.207577525716367 C 2.717627362869183 9.207577525716367 2.3672466519332462 8.954092059534803 2.1698535251191053 8.954092059534803 C 2.1594948014573196 8.954092059534803 2.1495575210365625 8.954790250504107 2.140092081444407 8.956259682604495 C 1.7610785167129768 8.874396440250864 1.3638924072290621 8.831466124503471 0.9703996331480379 8.831466124503471 C 0.6822712691518855 8.831466124503471 0.39612316158451694 8.854483949517657 0.1205398348885778 8.90208807080806 C -0.19080937123302597 9.107627344268586 0.19133570335568265 9.296978982841198 0.44461121617263977 9.296978982841198 C 0.47243301123084086 9.296978982841198 0.4986997685303211 9.294694058069421 0.5223214865886322 9.289895224364907 C 1.44862453664532 9.401605077048192 2.473672484380784 9.652726246647584 2.9226503683594482 10.498359836231193 C 2.9277747669676573 11.438445880183364 2.9223641381582497 12.059730482053933 2.9475081443234266 12.924290385186742 C 2.9366830234749024 13.190445840004433 3.1097205941872907 13.32271720601211 3.2850258807391146 13.32271720601211 C 3.4589948410141766 13.32271720601211 3.635197450466691 13.192454719453337 3.636159394664339 12.93350313443563 C 3.6297524037925992 12.081649745019838 3.5689455193688686 11.333930766029841 3.680643079957625 10.507654766912083 C 3.905950499841305 9.580679119782916 5.51430012614692 9.438421656179063 6.5132119200872856 9.209440304841713 C 6.73117182826633 8.953197897458422 6.302254993763335 8.858046549715155 6.0257896324592775 8.858046549715155 C 5.984500135730289 8.858046549715155 5.946610983551 8.860169218839136 5.914784994799312 8.86419400179096 C 5.786745621336966 8.854375779085794 5.657882677541108 8.84931073373403 5.528823762638173 8.84931073373403 C 4.87588245171773 8.84931073373403 4.21792069818853 8.978947377079876 3.636159394664339 9.278489565451865 C 3.6124626948293947 8.719755569414783 4.162693019870619 8.398265319455419 4.5568162027996815 8.173701395689454 C 5.178845705598769 7.90617273831141 5.863655500797704 7.879904181098088 6.5132119200872856 7.736389411825166 C 6.745102634598536 7.535056141910107 6.380132787867637 7.365650007124583 6.127413645979344 7.365650007124583 C 6.0940901289112 7.365650007124583 6.06271789404902 7.368595192973972 6.034923712303174 7.3748016471035225 C 5.875700348626306 7.359480780481324 5.715556482670491 7.35166300836024 5.555429474444318 7.35166300836024 C 4.887519202007935 7.35166300836024 4.219896213380853 7.487670468699637 3.6205083975033348 7.782422252231933 C 3.6327889023442115 5.672151988401518 3.6669749732456607 3.6298724602408705 3.6064121746990256 1.633623314068084 C 3.557780785508615 1.016382811297887 3.202148013782708 0.4498605441665941 2.6039100355477967 0.2652764822581205 C 2.1742288083663857 0.06980961445750675 1.6957449806778964 0.0 1.2190420140847793 0.0 Z"
     style="fill:#ffffff;stroke:none"
     id="path2" />
  <path
     d="M 3.29314921521244 15.21501288860129 C 4.074491287174412 15.21501288860129 5.052497037940845 15.616391919330065 5.5257419749406465 16.089636856329868 C 5.939782214238027 16.503676744424546 5.993910276899555 17.05261639954012 6.009086799211701 17.562687749346416 L 0.6002280514165623 17.562687749346416 C 0.615404749330059 17.05261639954012 0.6695328119915868 16.503676744424546 1.0835728756876173 16.089636856329868 C 1.5568179882887687 15.616391919330065 2.5118074944531683 15.21501288860129 3.29314921521244 15.21501288860129 ZM 3.29314921521244 14.777700904737003 C 2.3662267752924526 14.777700904737003 1.3688759017560481 15.205906904973462 0.7843594130436309 15.79042339368588 C 0.1848327417701466 16.38995028583294 0.11688322714550736 17.179222163577567 0.11688322714550736 17.769835531176867 L 0.11688322714550736 17.999999733210704 L 6.469415203279373 17.999999733210704 L 6.469415203279373 17.769835531176867 C 6.469415203279373 17.179222163577567 6.42448232973169 16.38995028583294 5.824955437584633 15.79042339368588 C 5.240439300074916 15.205906904973462 4.220071830733778 14.777700904737003 3.29314921521244 14.777700904737003 Z"
     style="fill:#ffffff;stroke:none"
     id="path4" />
  <path
     d="M 19.59558827849137 2.2331113889984504 Q 20.011497239301697 2.2331113889984504 20.406868373464476 2.6849636002931274 Q 17.14505908393548 6.568070899826414 16.329606932707488 7.024335296803508 Q 15.721254175199014 7.364724151693918 15.258781670883675 7.364724151693918 Q 15.101344397401952 7.364724151693918 14.960813057159163 7.325276517725049 Q 14.407469963604743 7.169951972435412 13.776464255096982 7.150536917736989 Q 13.760688966903167 7.150051524254103 13.744834947749503 7.150051524254103 Q 13.12652956999073 7.150051524254103 12.38825395561615 7.88832679632016 L 12.291175943655867 7.88832679632016 Q 12.815395428237089 6.665148911786697 13.75704954270708 6.140928742588433 Q 14.698701945634467 5.6167096003157315 19.2807685008913 2.2966530928403377 Q 19.439622247033235 2.2331113889984504 19.59558827849137 2.2331113889984504 ZM 13.822576293662692 0.46382689862325743 Q 13.87160069312572 0.46382689862325743 13.922081273037408 0.4715931515608784 L 13.922081273037408 5.461385397334616 Q 12.38825395561615 6.354500505824466 11.805788280014095 7.965988384347936 Q 12.698902703886905 1.79184917642032 13.058089773520756 1.0928900062739073 Q 13.381357725420997 0.46382689862325743 13.822576293662692 0.46382689862325743 ZM 9.823471846940608 8.280349468529765 Q 9.763159224955167 8.280349468529765 9.708909828226425 8.383422671928184 Q 9.611832586460313 8.567870141573977 9.883650198408658 8.897933602234632 Q 10.038974144658383 8.4902085535462 9.922481420308197 8.344591877914295 Q 9.871087133376625 8.280349468529765 9.823471846940608 8.280349468529765 ZM 9.850515161454094 8.003054920244196 Q 9.964842185368557 8.003054920244196 10.097221020296256 8.179560147583969 Q 10.388454200405805 8.567870141573977 9.922481420308197 9.732803546629212 Q 9.398261764572714 8.723195371480656 9.602124802379711 8.257221735611745 Q 9.713322784103013 8.003054920244196 9.850515161454094 8.003054920244196 ZM 14.931688078951879 9.926958201315696 L 14.931688078951879 10.218190867962463 Q 14.718118369566973 10.198775813264039 14.601625302908268 10.082282061988291 Q 14.640456096922156 10.024035528658937 14.756948478963821 9.926958201315696 ZM 15.378245975505326 10.587085807254049 L 17.183890562566404 10.839488364503968 L 17.552786186475032 11.499616655059363 Q 16.931489374550573 11.32487637045426 16.183991626309666 11.033644388424536 Q 15.43649319345172 10.742411037160727 15.378245975505326 10.587085807254049 ZM 11.39806151978306 10.315268879922746 L 11.747541404376221 10.490008479910806 L 11.864034128726408 11.32487637045426 L 11.553386065072697 12.276239381507548 L 11.067997716813883 12.276239381507548 L 11.39806151978306 11.32487637045426 L 11.39806151978306 10.315268879922746 ZM 12.232929752635034 10.606502231186555 L 12.562994240221252 10.703579558529796 L 12.679486964571439 11.32487637045426 L 12.368838216300684 12.276239381507548 L 11.883450552658914 12.276239381507548 L 12.21351435562809 11.32487637045426 L 12.232929752635034 10.606502231186555 ZM 13.37844604914072 10.72299461322822 L 13.494939115799427 11.32487637045426 L 13.184290367528675 12.276239381507548 L 12.698902703886905 12.276239381507548 L 13.028966164547558 11.32487637045426 L 13.028966164547558 10.742411037160727 L 13.37844604914072 10.72299461322822 ZM 12.635970993829574 8.307902566008263 Q 12.94616549869286 8.307902566008263 13.300783776495901 8.383422671928184 Q 14.349222745658347 8.606700935587865 14.621040357606692 9.441570195365404 L 15.43649319345172 9.441570195365404 L 15.747140914796912 8.936765765482605 Q 19.863233149567787 9.888126722684765 20.387455372617175 12.373316708850789 Q 19.261352076958786 11.752018527692242 18.018759137726903 11.538448133690293 L 17.475123229213175 10.451177001279875 L 15.319998757558931 10.159943650016068 L 15.378245975505326 9.635724850051886 L 14.640456096922156 9.635724850051886 Q 13.825002918768604 10.30727392210448 12.976631641685719 10.30727392210448 Q 12.794837747695311 10.30727392210448 12.611532561584353 10.276437401291815 Q 11.572801804388162 10.101698485920798 11.252445186459676 9.567771131681843 Q 10.93208856853119 9.033843092825846 11.592216516778063 8.596994435164216 Q 12.029066885982298 8.307902566008263 12.635970993829574 8.307902566008263 ZM 14.014203342229544 0.0 Q 13.306659502260182 0.0 12.902764885922597 0.4910087625106481 Q 12.407668668006053 1.0928900062739073 11.980527880002157 3.655740467965014 L 11.300984192439817 8.101897190322108 Q 10.97091987600786 8.451378444149354 10.7961802760198 8.4902085535462 L 10.563193800393865 8.4902085535462 Q 10.543778232232661 8.004819862978866 10.194298176485239 7.597094129673393 Q 9.883650198408658 4.626517849099683 10.466115788433582 2.3937311048006213 L 10.233129483961907 1.9471738928642175 Q 9.398261764572714 4.471192276884482 9.825403408347913 7.616509184371816 L 9.767156618287169 7.616509184371816 Q 8.427485014569381 4.607101425167175 9.378846196411509 1.9471738928642175 L 9.145859806362706 1.5976940082710553 L 9.145859806362706 1.5976940082710553 Q 7.90326545510817 4.4323618251791155 9.41767741831105 7.752417990345988 Q 8.99053577453585 8.684363892849726 9.330307190431368 9.286245650075767 Q 9.670079376521057 9.888126722684765 9.747741050125965 10.412346207265987 L 9.883650198408658 10.509424219226272 Q 10.407869083949969 9.732803546629212 10.485531356594787 9.16975258341706 L 10.679686695898312 9.16975258341706 Q 10.699102264059515 9.616309110736422 10.93208856853119 10.101698485920798 L 11.067997716813883 11.32487637045426 L 10.737933400381925 12.276239381507548 L 9.048781837190987 12.276239381507548 L 9.048781837190987 12.742211648142375 L 13.922081273037408 12.742211648142375 L 13.922081273037408 12.276239381507548 L 13.51435451280637 12.276239381507548 L 13.825003261077125 11.32487637045426 L 13.84441900039259 10.606502231186555 Q 14.19389820036871 10.490008479910806 14.368638484973811 10.33468393462117 Q 14.621040357606692 10.567671437172667 14.931688078951879 10.567671437172667 Q 14.912273708870499 10.76182609185915 15.009351720830782 10.89773421321628 Q 15.785971708810798 11.499616655059363 17.78577231979245 11.946173182378724 L 18.465315665046262 13.266429763489512 Q 18.465315665046262 12.942390932799807 18.666445882775246 12.942390932799807 Q 18.73044046079052 12.942390932799807 18.81479623425647 12.97519504299162 L 18.27116032574274 12.00442040032512 L 18.27116032574274 12.00442040032512 Q 19.39726088293296 12.256823642192083 19.97972758546058 12.645134320799134 Q 20.290376676039852 12.97519504299162 19.94089679144669 13.44116867886053 Q 20.71751746404375 13.11110658743396 20.814596160621075 12.509224145590878 Q 20.503945700807716 9.577479001339576 15.552985575493386 8.431961335599805 L 15.203506375517266 9.014428722744466 L 14.892857284937993 9.014428722744466 Q 14.640456096922156 8.198975202282393 12.893057700881908 7.88832679632016 Q 13.283009064230479 7.599008318923254 13.852256838599681 7.599008318923254 Q 14.161630487629424 7.599008318923254 14.523962345646407 7.684463587358902 Q 14.891470935427632 7.771140212597752 15.241644337084495 7.771140212597752 Q 15.87195550160299 7.771140212597752 16.446100683983236 7.490308248055377 Q 17.339214423239 7.053458905776705 20.989335075992095 2.665548716748965 Q 20.31660024722249 1.8173165880798985 19.56675152405883 1.8173165880798985 Q 19.321111613951302 1.8173165880798985 19.067196737655266 1.9083427565418083 L 14.349222745658347 5.286645797346556 L 14.349222745658347 0.025035944973045218 Q 14.173971736739798 0.0 14.014203342229544 0.0 Z"
     style="fill:#ffffff;stroke:none"
     id="path6" />
  <path
     d="M 14.787816725437374 15.285542133461169 C 15.549371373096287 15.285542133461169 16.502609207919512 15.676756272943992 16.963869255453197 16.13801632047768 C 17.367423959429352 16.541570682145313 17.42018123331472 17.07660848522664 17.434973411436005 17.573762319663377 L 12.163093570676018 17.573762319663377 C 12.177885919951562 17.07660848522664 12.230643193836931 16.541570682145313 12.634197726658826 16.13801632047768 C 13.095457945346773 15.676756272943992 14.02626242008698 15.285542133461169 14.787816725437374 15.285542133461169 ZM 14.787816725437374 14.859305039952915 C 13.884368520776045 14.859305039952915 12.912275476840618 15.276666758126694 12.34256182057423 15.846380414393082 C 11.758218113396996 16.430724336850286 11.69198941469321 17.200007968606588 11.69198941469321 17.775664100798863 L 11.69198941469321 17.99999941317163 L 17.883644036181536 17.99999941317163 L 17.883644036181536 17.775664100798863 C 17.883644036181536 17.200007968606588 17.839849083994995 16.430724336850286 17.25550516153779 15.846380414393082 C 16.685791847579925 15.276666758126694 15.691265101252963 14.859305039952915 14.787816725437374 14.859305039952915 Z"
     style="fill:#ffffff;stroke:none"
     id="path8" />
  <path
     d="M 33.655542253811426 8.203407192002246 C 33.14464679780286 8.243740548330095 32.86231004489047 8.499188095300077 32.808531814039966 8.969749289809286 C 32.875754738378824 9.48064510788646 33.15809149129121 9.749537529379097 33.655542253811426 9.776426916355803 C 34.15299301633164 9.749537529379097 34.4151629100458 9.48064510788646 34.4420515728853 8.969749289809286 C 34.40171821655745 8.499188095300077 34.13954832284329 8.243740548330095 33.655542253811426 8.203407192002246 ZM 33.7160424693375 6.509385226253514 C 34.079047383180004 6.509385226253514 34.415163272114405 6.576608422143824 34.7243894120035 6.711054813924445 C 35.03361518982398 6.845501205705066 35.30586833210295 7.030364654964103 35.54114883884041 7.2656453427358585 C 35.776429707646464 7.500926030507614 35.96129324742265 7.769818270965949 36.09573945816897 8.07232170204226 C 36.230185306846685 8.374825314152872 36.29740805015124 8.694134883641077 36.29740805015124 9.030250591541176 C 36.29740805015124 9.37981044982672 36.230185306846685 9.705842366059102 36.09573945816897 10.008346340238319 C 35.96129324742265 10.310849952348931 35.776429707646464 10.576381290986632 35.54114883884041 10.80493963201421 C 35.30586833210295 11.03349797304179 35.03361518982398 11.2116389850395 34.7243894120035 11.339363392144548 C 34.415163272114405 11.467087075112389 34.079047383180004 11.530948735562006 33.7160424693375 11.530948735562006 C 33.35303809859791 11.530948735562006 33.01356185094578 11.467087075112389 32.69761354534681 11.339363392144548 C 32.38166469664494 11.2116389850395 32.109411192297365 11.03349797304179 31.880853122821236 10.80493963201421 C 31.652294419725052 10.576381290986632 31.470792234355255 10.310849952348931 31.33634647619469 10.008346340238319 C 31.201900129672648 9.705842366059102 31.134676933782337 9.37981044982672 31.134676933782337 9.030250591541176 C 31.134676933782337 8.694134883641077 31.201900129672648 8.374825314152872 31.33634647619469 8.07232170204226 C 31.470792234355255 7.769818270965949 31.652294419725052 7.500926030507614 31.880853122821236 7.2656453427358585 C 32.109411192297365 7.030364654964103 32.38166469664494 6.845501205705066 32.69761354534681 6.711054813924445 C 33.01356185094578 6.576608422143824 33.35303809859791 6.509385226253514 33.7160424693375 6.509385226253514 ZM 33.67570947507826 5.823710203170776 C 33.23203676237424 5.823710203170776 32.815253617681236 5.907739107516513 32.42535967893063 6.075796916207987 C 32.03546592121433 6.243854747528749 31.699350575382834 6.472413088556328 31.417013731953297 6.761471961920012 C 31.134676933782337 7.050531423645179 30.909479630351118 7.386646678959522 30.741421821659646 7.769817908897345 C 30.573364612644298 8.152989681938074 30.489336013793945 8.566411562741841 30.489336013793945 9.010083370274344 C 30.489336013793945 9.45375535884115 30.573364612644298 9.867177239644917 30.741421821659646 10.250349012685646 C 30.909479630351118 10.633520785726375 31.134676933782337 10.966275229737235 31.417013731953297 11.24861198264962 C 31.699350575382834 11.530948735562006 32.03546592121433 11.756146355803253 32.42535967893063 11.924204119236151 C 32.815253617681236 12.09226115853184 33.23203676237424 12.17629004024829 33.67570947507826 12.17629004024829 C 34.11938146364506 12.17629004024829 34.532802982380225 12.09226115853184 34.915974031283746 11.924204119236151 C 35.299145804324475 11.756146355803253 35.63526133119027 11.530948735562006 35.92432097394974 11.24861198264962 C 36.213379892572 10.966275229737235 36.44193823359958 10.633520785726375 36.60999563496387 10.250349012685646 C 36.77805412253398 9.867177239644917 36.86208300425043 9.45375535884115 36.86208300425043 9.010083370274344 C 36.86208300425043 8.566411562741841 36.77805412253398 8.152989681938074 36.60999563496387 7.769817908897345 C 36.44193823359958 7.386646678959522 36.213379892572 7.050531423645179 35.92432097394974 6.761471961920012 C 35.63526133119027 6.472413088556328 35.299145804324475 6.243854747528749 34.915974031283746 6.075796916207987 C 34.532802982380225 5.907739107516513 34.11938146364506 5.823710203170776 33.67570947507826 5.823710203170776 Z"
     style="fill:#ffffff;stroke:none"
     id="path10" />
  <path
     d="M 41.627217924666965 3.7622253084752515 C 41.622287225374954 3.7622253084752515 41.617410147578546 3.7622672143499747 41.612587141878564 3.762351026099421 C 41.46249854795298 3.7649568505459117 41.36452621765682 3.807933803378864 41.31866564498203 3.8913165808601446 L 41.31866564498203 4.051427663157001 L 41.31866564498203 4.0613480904462875 C 41.17858241659719 4.134724826485622 41.03839938013438 4.208297123273663 40.89831637704994 4.281673859312998 C 40.7582335992659 4.355050595352332 40.6881417430839 4.421662010928307 40.6881417430839 4.481697358378378 L 41.39872118613046 4.15155476649538 C 41.4098284959361 4.179323041009473 41.45786051388282 4.193142967652025 41.542926735965885 4.193142967652025 C 41.56003469667139 4.193142967652025 41.57864022914723 4.192584222655717 41.59874468519584 4.191467183263905 C 41.73215676868524 4.184796488969274 41.84889955135133 4.148125694380942 41.94895883926879 4.081419652636239 L 41.94895883926879 4.001364111487811 L 41.88897486031031 4.001364111487811 C 41.80002288219849 3.9519462707699997 41.714680667123304 3.9272285636954263 41.633024141320135 3.9272285636954263 C 41.60445762748269 3.9272285636954263 41.57634216504952 3.930253446889148 41.54868113352665 3.936304565079002 C 41.44716122310473 3.958511975077421 41.37278933519092 3.994217132143908 41.325586873323395 4.043583604370124 C 41.37620196037604 3.93511362715542 41.562448790476 3.8808955360781985 41.88423791936379 3.8808955360781985 C 41.902087794292214 3.8808955360781985 41.92035447496385 3.8810627089762875 41.9390384119795 3.8813961535708588 L 41.9390384119795 3.8013406124224307 C 41.818295645980974 3.775298138985643 41.71435082733516 3.7622253084752515 41.627217924666965 3.7622253084752515 ZM 42.70937112637316 3.6511499574148614 C 42.58930043147302 3.7979034294935294 42.51096843839788 3.956307185346022 42.474280070378214 4.126407636855096 C 42.437591251757745 4.296508538964973 42.42912085785404 4.691877850154869 42.44913294073793 5.312244759341896 C 42.90940498925703 5.052090385456107 43.17457139587986 4.776944522838733 43.244612784771874 4.486772925828712 C 43.3146546242647 4.196601328818689 43.30641448737157 3.95812535958804 43.21969636274297 3.7713486229431923 L 43.059585280446115 3.741356633463954 L 42.87940263595931 3.6912930817947647 L 42.70937112637316 3.6511499574148614 ZM 42.352150580407 3.345912973141485 C 42.35333385811692 3.345912973141485 42.35451623462524 3.3459165779479125 42.355696358129535 3.3459237875607686 C 42.6144471105125 3.347516210800246 42.86469953174195 3.4393729869916614 43.07942613502469 3.580553428332962 C 43.46307531931622 3.8055830189871394 43.82891946345928 4.05851831740047 44.20089583393681 4.302437544337086 C 44.45445115905572 4.454335525789019 44.73952601037765 4.556623259980057 45.03098181967758 4.610432205527724 C 44.55661137321938 4.636211077494479 44.0706478692894 4.709046191368037 43.64742827423918 4.934114984292117 C 43.37157586956196 5.084616553854083 43.1373522201137 5.326723013758324 43.03997513347892 5.630390555433199 C 42.95282713568381 5.8985620188144 42.957922529569494 6.186496833435976 42.95253694876637 6.466474939069806 C 42.956422479494734 6.990173106085117 43.05427224637235 7.531186960776332 43.34243281199647 7.975764132709621 C 43.359994077110265 8.006240968653398 43.38900600984195 8.036787197120908 43.400571130063916 8.066893639204228 C 43.355047381489726 8.111118305662 43.294730859138284 8.121788532688267 43.23314544492426 8.121788532688267 C 43.19130580851928 8.121788532688267 43.14887994046897 8.116863465906295 43.11011024733806 8.114188699536873 C 42.93450120100652 8.083363999772814 42.80751198136983 7.943493905568017 42.690683809851485 7.819805787417582 C 42.51558619543189 7.622170472610614 42.358270640519784 7.407756586285485 42.22719221859157 7.178438627784644 C 41.972510616764374 6.702945734724995 41.886258188066165 6.157707046900407 41.845832536982485 5.62462286514873 C 41.831020387370685 5.436406008335979 41.8356660816545 5.246740920540861 41.820454699730824 5.058927802048023 C 41.80813234485862 4.973504704128612 41.74874113125711 4.878032757690923 41.65374096386066 4.878032757690923 C 41.65294520284173 4.878032757690923 41.652146738217965 4.878039516702975 41.651346020590196 4.878053034727079 C 41.65032518446992 4.878041769706993 41.64930592545247 4.878035911896547 41.648288018237416 4.878035911896547 C 41.521405365690754 4.878035911896547 41.41756193222572 4.965544840935241 41.299747620848976 5.000558776369198 C 41.184240385586016 5.046900816002495 41.06014424840803 5.060577000988738 40.93661384053881 5.065618322778008 C 40.81319811057408 5.07754482484436 40.70049338700832 5.142639968716644 40.57627874181903 5.142639968716644 C 40.5661972247425 5.142639968716644 40.55604000673099 5.1422114473525395 40.5457951468632 5.141290419310239 C 40.498083055486944 5.1397764006105655 40.45141297846872 5.134059177616086 40.404371381088026 5.126525132181998 C 40.5971179024777 5.066493840139158 40.7943168104065 5.012038282438505 40.97191210507976 4.915196960159059 C 41.026016194153705 4.887320541452132 41.083636321297156 4.821648177950598 41.04781490922337 4.759238614867021 C 41.02832529797111 4.72896229628079 40.99783854880965 4.717909509172373 40.965290300972306 4.717909509172373 C 40.92959753542792 4.717909509172373 40.89142533896241 4.731201331673253 40.86255669728623 4.747011111463946 C 40.72969389617626 4.810256088437165 40.61446107680261 4.91199228724475 40.46966163510821 4.948188148586221 C 40.38187626247659 4.975050715485331 40.289978368961854 4.998441403193674 40.19857388332693 4.998441403193674 C 40.187260874254505 4.998441403193674 40.17595530009534 4.998083175554911 40.1646661728655 4.997328869809896 C 40.125738206202364 4.960357524485646 40.12350266296613 4.898677934703697 40.12752224743352 4.8489838756933565 C 40.155926657631916 4.767931605567643 40.25519153633285 4.756328634878185 40.31785602682099 4.7119435545343755 C 40.3418908483779 4.70323974941447 40.366899530921316 4.678859091740895 40.391818656555046 4.678859091740895 C 40.400101713174706 4.678859091740895 40.408374743926494 4.681552783344063 40.4165988844911 4.688411378173743 C 40.44104082387395 4.700922760083006 40.472050269967426 4.709759041839133 40.501669387281794 4.709759041839133 C 40.53732430235869 4.709759041839133 40.570964355942856 4.696954318806808 40.58870676257965 4.6623414180879434 C 40.634392276842284 4.582969438358386 40.59094309436729 4.479518703493581 40.513726788881556 4.4387857426619295 C 40.488188763044256 4.4222887966459385 40.4587521390553 4.414574961491265 40.42925648636109 4.414574961491265 C 40.366378185791696 4.414574961491265 40.30323256629565 4.449630352199142 40.27702077960695 4.50938227174383 C 40.24935693182906 4.560103249985287 40.18555737791697 4.570132722669015 40.14274894978452 4.6058180533001485 C 40.135855771343174 4.614542135456212 40.1301009231816 4.617996891816447 40.125207511106076 4.617996891816447 C 40.1127854608061 4.617996891816447 40.105914925055124 4.595735409721612 40.10006804167945 4.580901631271243 C 40.090851002244385 4.549858840718303 40.14237134631121 4.555968086411806 40.15336149990794 4.535682939441007 C 40.31494345587754 4.429029334065108 40.48483201235878 4.3333884123261175 40.64061597513987 4.219152096629355 C 40.81458663694998 4.013732652942372 41.06457838561462 3.8949844714004245 41.30551531113344 3.784037541569024 C 41.33060521447169 3.7583582523798365 41.31202243733641 3.7157341199760046 41.34104428328577 3.6908316665720067 C 41.425786748691536 3.571483735360635 41.573686999815045 3.524499138981584 41.703716648373174 3.4723515585963263 C 41.90447327494581 3.4000094020017686 42.11530037887528 3.346733066603808 42.33054922848925 3.346154495172147 C 42.337730002893416 3.346036437761637 42.344964849393996 3.345912973141485 42.352150580407 3.345912973141485 ZM 48.934065251733536 4.8771193898622816 C 48.93715096603572 4.8771193898622816 48.94023668033792 4.877122994668708 48.9433214934385 4.877130204281564 C 49.55130183713882 4.878562664235808 50.171512387847045 4.9847147509174405 50.701544199755986 5.294249565654353 C 50.87753986157691 5.395888885289192 51.041133186883016 5.522031876616953 51.160652346399715 5.687144627832373 C 51.00636212528214 5.558391756650889 50.81430975443021 5.489181275640476 50.624949272778245 5.428521395476789 L 50.624949272778245 5.428521395476789 C 50.64453779090687 5.4862271367729 50.635805147335546 5.555155541680337 50.66832230371745 5.607319794295323 C 50.868804514400765 5.728578272913426 51.0404816181212 5.933569195236305 51.04852844726963 6.176014056343954 C 51.06265658486177 6.503554879187693 50.90565374690728 6.808481850108278 50.717463024941125 7.06631472865457 C 50.55809092796197 7.290942833992851 50.381664491772916 7.524946139648216 50.35109933807166 7.806194038346236 C 50.347051140453246 7.856002549960659 50.35372093354627 7.9101827905703885 50.317185319198984 7.9494634650124425 C 50.232261486969826 8.051155054340484 50.095694296654486 8.091333325583058 49.970893194519476 8.115803652816524 C 49.925736685600114 8.123485495314153 49.878834549168104 8.127799547406614 49.831806244511114 8.127799547406614 C 49.6986528058829 8.127799547406614 49.56449362626133 8.093211429731939 49.46610494082276 8.002526215629556 C 49.38090353849866 7.913644305942677 49.323506909353725 7.801095940855729 49.23955006644882 7.710450379624053 C 49.019259444444785 7.440352147207196 48.746480137247254 7.193314762710539 48.406695589371516 7.089846905015202 C 48.29913807878385 7.0568115577093 48.1863824373273 7.041200042272135 48.07351324446828 7.041200042272135 C 48.03216160873346 7.041200042272135 47.99079555377293 7.04329533600829 47.9496638112302 7.047396704521511 C 48.00306811725635 7.1271476395267905 48.05613447267989 7.207124776135414 48.10954418591568 7.286871205132658 C 48.16229512077679 7.271922974078208 48.21905550158721 7.263430050134327 48.275639246882676 7.263430050134327 C 48.3949304023928 7.263430050134327 48.5134384137065 7.301177780642962 48.591953801308655 7.39576519770343 C 48.60969755974786 7.416580251219115 48.63019899510432 7.441927447616142 48.64109452253233 7.463593235448785 C 48.47231297957502 7.4682857922161645 48.307661643582364 7.511608355865381 48.140459005840434 7.530498442748623 C 47.673686139529615 7.600143302933586 47.20545512901876 7.674285159137218 46.73960238954864 7.741134491937427 C 46.70464568041672 7.7040545518195405 46.65926927830527 7.673753450189119 46.60700679471512 7.673753450189119 C 46.604313103111956 7.673753450189119 46.60160048627504 7.673834558333745 46.598870746607595 7.673998577026209 C 45.928459210985125 7.571359824809265 45.255109758124 7.467239497150498 44.575334287204534 7.462439697391891 C 44.56776915031501 7.464252013823464 44.561102060826805 7.465152314228805 44.55530192728448 7.465152314228805 C 44.53040443048933 7.465152314228805 44.52149244779822 7.448560291443281 44.52619356598086 7.4162981751161405 C 44.525356349688 7.358023775606045 44.494517230698236 7.281057553566235 44.427351125533185 7.281057553566235 C 44.42504314821779 7.281057553566235 44.422692363826066 7.281148574928537 44.42029877235801 7.281334222459568 C 44.33774555095592 7.285927647050184 44.293812423218 7.367852280331422 44.27218448585285 7.437984690585743 C 44.22137203564829 7.568157855499778 44.1895708839431 7.7260249457953325 44.06616258889162 7.808270406848645 C 44.017934784895786 7.833786127946171 43.964480912781255 7.845207957112633 43.910428642799715 7.845207957112633 C 43.822367277175964 7.845207957112633 43.732719346123176 7.814892436256501 43.661501438533286 7.765820206354954 C 43.57100187196193 7.688292535714015 43.530733480558666 7.570408155912328 43.48154950165786 7.465900311562573 C 43.3314124681459 7.083289762123046 43.31080559220142 6.663866929442898 43.32397620308617 6.2563003051037605 C 43.341297748572515 5.951449035118158 43.424349785064045 5.635068692974867 43.636585016504384 5.404527803893398 C 43.804399570137434 5.215848630656282 44.0561984533244 5.129832542079498 44.29687020027038 5.07623087290143 C 44.751921587880425 4.97284953056036 45.22180405033601 4.954922828194945 45.687344974050134 4.9428818735245095 C 45.6995193065584 4.942812931601578 45.71169273786505 4.942780037742924 45.723865718570906 4.942780037742924 C 46.029942172141155 4.942780037742924 46.33563065841961 4.963721710084385 46.64176073348548 4.963721710084385 C 46.65230298988355 4.963721710084385 46.66284614748324 4.963696927040194 46.673389305082935 4.963645558548597 C 46.72634661511203 4.964119590593852 46.779303925141136 4.964353452410855 46.83225943276702 4.964353452410855 C 47.41413917552691 4.964353452410855 47.99581614792524 4.936089066412137 48.575573560900764 4.88728133918223 C 48.6784574399548 4.881478952635893 48.78144675959685 4.878109359827514 48.884491052536916 4.877360911892943 C 48.90099385636336 4.877218972639849 48.917533609455674 4.8771193898622816 48.934065251733536 4.8771193898622816 ZM 44.401305047289966 2.25 C 44.26815476286738 2.25 44.14266919811189 2.2758617825145944 44.02486592645482 2.3275803909349446 C 43.89235279156835 2.385757010070686 43.75985452650839 2.414845094338155 43.62735671204923 2.414845094338155 C 43.49485844698927 2.414845094338155 43.36236063253011 2.385757010070686 43.22984749764363 2.3275803909349446 C 43.144693859004704 2.2901958446739097 43.05219632847074 2.2715071763498202 42.95235715904579 2.2715071763498202 C 42.741464267399 2.2715071763498202 42.497813598541256 2.3548949104399393 42.2214245283071 2.5216054921044773 C 41.94064840865032 2.3548949104399393 41.69410240432985 2.2715071763498202 41.48180183577301 2.2715071763498202 C 41.38129622775971 2.2715071763498202 41.28846570323199 2.2901958446739097 41.20331183929265 2.3275803909349446 C 41.07079960560778 2.385757010070686 40.93830156584823 2.414845094338155 40.80580352608867 2.414845094338155 C 40.6733052610287 2.414845094338155 40.54080677066834 2.385757010070686 40.40829341048146 2.3275803909349446 C 40.2923445864311 2.276676018166472 40.16872957826103 2.2508579439298146 40.037315571384426 2.250062633511683 C 40.035227036660324 2.2500500166891855 40.033136474232606 2.250043708277937 40.03104399675147 2.250043708277937 C 39.86385453908304 2.250043708277937 39.68404499206151 2.2903846464105655 39.49192277808505 2.3711841294855294 C 39.25618516626221 2.4703262194675144 39.06851291684556 2.519872932015119 38.92889600396722 2.519872932015119 C 38.86369474360571 2.519872932015119 38.808973866519466 2.5090670741470062 38.764732387019215 2.4874607656204217 C 38.62575486259972 2.4195885689963275 38.527141936375365 2.3792674572990515 38.46896522923165 2.3663392696465753 C 38.45214277693993 2.361163218217068 38.437395334307574 2.358574516601109 38.42472184875926 2.358574516601109 C 38.37408766749757 2.358574516601109 38.3565586907476 2.3998955114812937 38.372068032452574 2.4826159057814676 C 38.47549370968832 2.786426287911045 38.67917123627864 2.9449453975692266 38.982981787383515 2.957873585221703 C 39.03164627988302 2.95994454651447 39.078858880268626 2.9609800271608533 39.124619870165844 2.9609800271608533 C 39.36454243695095 2.9609800271608533 39.564561655308694 2.932511518998161 39.72470675796622 2.8755109679594875 C 39.8099184114586 2.8451814784784473 39.902554501739615 2.830015156635115 40.00261277580527 2.830015156635115 C 40.126468630104796 2.830015156635115 40.26169697278281 2.8532535412718825 40.40829341048146 2.8997352671542567 C 40.5763267308046 2.953013855556234 40.74109387120375 2.9796443630415554 40.9026175870195 2.9796443630415554 C 40.99585342696995 2.9796443630415554 41.088008726193664 2.9707715826203462 41.17908754009788 2.953028725382749 C 41.24023271732691 2.941117543743714 41.29874458346044 2.935163304726607 41.354622462597256 2.935163304726607 C 41.51487570944761 2.935163304726607 41.653466773271745 2.984134149447372 41.770391148061634 3.0819942801434728 C 41.600532894484424 3.129663339143001 41.43651082251382 3.1978568141399726 41.283136672829706 3.284786270545398 C 41.17511549401526 3.349218580635771 41.07054096074659 3.4504379403217724 41.058888874569554 3.5807841359443406 C 40.945209276165485 3.618521502634496 40.84183108803004 3.685711039041327 40.741665908923764 3.751738475975998 C 40.550273217648126 3.8828772784118777 40.38364971458886 4.049112025627947 40.21703680064848 4.208078131283175 C 40.13640032241417 4.267541215712836 40.04283058726835 4.308045271336322 39.96602691946839 4.3714191201393335 C 39.9018653078107 4.413219103673612 39.84633563044477 4.4796768643756 39.85090382139039 4.560830069081291 C 39.843140870748144 4.665468587664054 39.892838309264505 4.762759609545368 39.90742718617819 4.862826332376081 C 39.90874575677935 4.994943389156304 39.950713363812525 5.126172762353681 40.021166038587914 5.236572662809665 C 40.108859826606235 5.295106608382561 40.19540311812308 5.355235230198952 40.28994040584416 5.401528604945474 C 40.317999543176896 5.71556852651552 40.36642640007767 6.046630344037606 40.55271637520457 6.309132348109496 C 40.598018428183444 6.36923798928491 40.65046588340341 6.429395900153527 40.71813373256313 6.462322202064989 L 40.86786297234794 6.462322202064989 L 40.86786297234794 6.0010556775726265 L 41.14794201256175 6.116952907830993 C 41.211625874717555 6.0909667594946395 41.23286967489774 6.015417226380952 41.25522105185287 5.957303240756895 C 41.311952594211874 5.759238052783413 41.28179500893736 5.549079640446292 41.259373788857694 5.3482351467169815 C 41.23574563452592 5.296069542299586 41.270346819623896 5.286263117013577 41.31728139931376 5.28548267642196 C 41.31884475880141 5.285671027557813 41.32049350714132 5.2857588947144905 41.32221660461381 5.2857588947144905 C 41.34613472056262 5.2857588947144905 41.384419567228996 5.268826668322342 41.40835705901235 5.268826668322342 C 41.41923118290219 5.268826668322342 41.427144408912405 5.2723210775532845 41.42940529844383 5.28248392807484 C 41.434464869565645 5.986550837708793 41.54707271395865 6.706931749432528 41.879285140632405 7.334166265465304 C 41.99614936021503 7.558259958250665 42.14649367009658 7.764627916628961 42.313476865247225 7.952693371571745 C 42.35900917523668 8.146842838563035 42.25524820171868 8.331160196022523 42.163516917851034 8.495086965923198 C 42.07592980957293 8.649042841244597 41.92831343695561 8.76192645332933 41.85967499366521 8.926971614424227 C 41.77308146015878 9.102579759554164 41.75265347273328 9.307093946226967 41.63957993240988 9.469595916387059 C 41.539217390151684 9.629296050751146 41.39523488771398 9.754883901889027 41.25406751379598 9.876333435247805 C 41.13560185895781 9.986504430495621 41.018161546247946 10.105198990541956 40.95391691139222 10.256308871188612 C 40.62272532083873 10.503073191598364 40.29682659997306 10.777256570899517 40.09476176661774 11.142918221717167 C 40.086880645914775 11.170932073669155 40.11326940606903 11.177027801338552 40.13737159244606 11.177027801338552 C 40.146661291260685 11.177027801338552 40.155611237069486 11.176122994925176 40.162128389140335 11.175217287310192 L 41.159938808353445 11.175217287310192 C 41.25963716502732 11.085114249445898 41.35603442021495 10.986249729558853 41.41417859609284 10.863531304337494 C 41.45821333431194 10.881663480669294 41.50841048911936 10.892475196347851 41.55784612856891 10.892475196347851 C 41.63219075513411 10.892475196347851 41.70481341072883 10.868022893146524 41.75216524676271 10.807238647161078 C 41.801426954302116 10.75366671763604 41.82863040070906 10.681588613112318 41.819531869285306 10.608368686152591 C 41.82986392040857 10.277541181048313 41.935347766098644 9.938400091119936 42.16074842651449 9.6917673461448 C 42.26746511600287 9.593530963777797 42.40221232967297 9.529193279856155 42.52203654593362 9.448832231362971 C 42.58245850887307 9.395474787820385 42.62401967398151 9.323165074483676 42.68099409017358 9.264958265094103 C 42.948236414698016 8.959546447708979 43.24066101572541 8.674490972221601 43.57521679187763 8.441793507694705 C 43.595863320692814 8.432764368794691 43.62062473604533 8.40861126452687 43.64348686901119 8.40861126452687 C 43.652183915119046 8.40861126452687 43.660606545337586 8.412107025560223 43.66842266687465 8.421260530281995 C 43.83406262103013 8.535926719145273 43.959707247869254 8.696913769404082 44.07954363035159 8.856605792953706 C 44.13871337365819 9.044369345358163 44.214250289949376 9.236236068679055 44.35893054773126 9.375236503333149 C 44.42473764087303 9.439874287389905 44.502062090551604 9.49333807272211 44.58779249821899 9.527503526843127 C 44.694586240444764 9.771838207720545 44.72742287279634 10.04002679393228 44.740520936951725 10.304757469578151 C 44.507276443049406 10.577792718032052 44.292089776346316 10.866954969242292 44.1076899589398 11.175217287310192 L 45.243924944980165 11.175217287310192 C 45.36275874067478 11.049912413476893 45.425891518047926 10.879305937265517 45.43010598736282 10.707342251434078 C 45.43793202211756 10.708008239421613 45.445801765150236 10.708337178008149 45.45368457560621 10.708337178008149 C 45.5637870795319 10.708337178008149 45.67644178640847 10.644100428666484 45.70764724385146 10.534772958122769 C 45.755750231424734 10.388265514082796 45.68310121568301 10.234482669469932 45.603136695896886 10.113270152133785 C 45.43421276308568 9.863389476567205 45.27982070618652 9.587400089245728 45.26168943105633 9.280646382667857 C 45.25687701447522 9.16327298417731 45.26642389369843 9.044129625730715 45.23423522530226 8.929740105760771 C 45.197216566893644 8.768826954033733 45.11019924333154 8.621484997305725 44.98645525068147 8.512620744387984 C 44.7989097890659 8.310256824749358 44.72128974526025 8.034735161061887 44.666233086087765 7.770665066193907 L 44.666233086087765 7.770665066193907 C 44.91756739984635 7.779965466777614 45.1700638130771 7.793945807306202 45.419954852462155 7.826957723370324 C 45.75556863930094 7.869732356442516 46.09200522320686 7.926119639787662 46.42168730106871 8.001141969961283 C 46.44175435725062 8.008235327809572 46.47487261510437 8.010514466673545 46.46759811573308 8.041054386729808 C 46.48431360313876 8.13809487456439 46.551635165581004 8.232940035284447 46.648934298276785 8.258611664259973 C 46.70873443210744 8.433041037688024 46.762689372315435 8.62155799463589 46.89763710334308 8.753248783056025 C 46.92142251735527 8.77352852281718 46.94945799814582 8.787114137041925 46.97769264449151 8.80054384338867 C 46.994451389574316 8.592194142676693 47.01558006124922 8.38216370096776 47.07412842604783 8.18155532205947 C 47.40550205932592 8.150024981437172 47.7368747914024 8.118495542016479 48.06824752347888 8.08696520139418 L 48.06824752347888 8.08696520139418 C 48.00802112128814 8.495569108782915 47.927040046089374 8.913028223161522 47.713880632401114 9.271648785824087 C 47.51729792107106 9.592269281528068 47.254804027813634 9.866860003955562 46.97723122926875 10.118576427195496 C 46.90719344518316 10.216686641337525 46.846115407473846 10.334104198706815 46.73706460582347 10.393118484736213 C 46.685793444000964 10.396405166996754 46.63681674146976 10.4123384114076 46.59494871721415 10.442720621182646 C 46.42936193395348 10.54993387275646 46.32101316835491 10.723148426418344 46.21243549754818 10.884064281750204 C 46.15187114475483 10.979257306290542 46.095666805335895 11.076606906276307 46.041020192894564 11.175217287310192 L 47.28753296657318 11.175217287310192 C 47.30391140457785 11.073764516407993 47.3160181469656 10.971279869665835 47.31383363427035 10.86814545656507 L 47.31383363427035 10.86814545656507 C 47.344314976222165 10.878453400545345 47.37711961591669 10.883762379211877 47.40990623157907 10.883762379211877 C 47.493810804790776 10.883762379211877 47.57760272780161 10.848993120014207 47.62205900307237 10.774247458733916 C 47.67544618626798 10.696439514393218 47.69676591268356 10.602020622033248 47.70995860300768 10.509395120871106 C 47.95882722916965 10.262476694986566 48.1074840390422 9.935500024348777 48.31925740465897 9.659698988163152 C 48.4376662837959 9.508126791092131 48.58541107764221 9.377924787726673 48.76475380223134 9.304639974251248 C 48.93621281516289 9.21264801781879 49.04586561948672 9.033326020866618 49.084975966825056 8.845762535218906 C 49.09051565310297 8.846636700777644 49.09593187476072 8.847049451113627 49.10123003900797 8.847049451113627 C 49.16161325027833 8.847049451113627 49.20681031327 8.793398215847176 49.2473941252357 8.756940104838083 C 49.27503127491598 8.762679857872737 49.30450056746319 8.765919677649716 49.33413928591251 8.765919677649716 C 49.42455594193601 8.765919677649716 49.516559613989365 8.73577358269569 49.563002137601835 8.654505925385916 C 49.57665804555192 8.632087634211473 49.58539339272807 8.607086499231514 49.59322483469245 8.582294443024367 C 49.91175454266832 8.787103322622642 50.16278785509018 9.107993277607104 50.25374072606983 9.477901390396692 C 50.30494610017502 9.645179729073607 50.277983950498346 9.822299189298398 50.2844248383832 9.994686439885104 C 50.2844248383832 10.094582835612105 50.2844248383832 10.194479231339105 50.2844248383832 10.294375627066108 C 50.047693595463606 10.57108958047957 49.82999843408758 10.864220723566811 49.64051989502509 11.175217287310192 L 50.77790841912236 11.175217287310192 C 50.8941399951769 11.045486612385169 50.9587705696208 10.873069622145435 50.96339733867087 10.699036777424443 C 50.974633520306305 10.700421924294321 50.98601930140849 10.701108639918818 50.99744563658299 10.701108639918818 C 51.097447472898004 10.701108639918818 51.20060171243412 10.648505502121248 51.23470948965229 10.551153198530661 C 51.29357507741655 10.405968718449689 51.22728088480622 10.245578263654679 51.15073191911043 10.120652795697904 C 51.11048695894894 10.055321086403797 51.128617332877525 9.973446920412547 51.11704860784913 9.900557734442572 C 51.09783408838739 9.56669317992288 51.0961632606081 9.231915708175345 51.095362092379524 8.897671747779125 C 51.10068368786855 8.780231660369662 51.11101776669543 8.646338335222147 51.035608821032426 8.547688301317553 C 50.996333553800014 8.503651985995635 50.924652879184954 8.527168841928948 50.8893401954183 8.476861064624277 C 50.81738825911955 8.386440803794336 50.787262891802484 8.270621076874168 50.75391482753896 8.161714467480897 C 50.69426158957024 7.958304252776605 50.698070067561204 7.72170548649323 50.82566489467776 7.545263729876864 C 50.91369336644286 7.430885925527812 50.99866946836522 7.314499342796871 51.059833120227196 7.183052780012218 C 51.13926052385558 7.023696003460379 51.19944186596598 6.855228078662291 51.25316609856259 6.685647169879624 L 51.25316609856259 6.685647169879624 C 51.26460775416441 7.015917732390808 51.236729082453465 7.348647674087355 51.14980908866491 7.667538763907604 C 51.07129370106276 8.091777617975284 51.10394693888731 8.527984429383238 51.15788385506317 8.953272282121404 C 51.188372406627835 9.155492910704526 51.22701142552574 9.369923919860188 51.354446739957865 9.534886170407246 C 51.39827487770858 9.587839875629918 51.46908589277293 9.632736838486474 51.539305719583126 9.632736838486474 C 51.566270572864624 9.632736838486474 51.59314800959025 9.626115710280224 51.61837624737516 9.610788974550855 C 51.744840066475 9.54789952161158 51.81127845134244 9.403605428718272 51.80778719631712 9.266342510762376 C 51.81081613491807 9.07008603441404 51.74604767662831 8.882717208313426 51.714581321320104 8.690957727983761 C 51.64343776286279 8.35109117076179 51.56985104684903 8.0115202076669 51.49448626006477 7.6728450389693155 C 51.593621140433896 7.107626711518685 51.659223210210094 6.52221606086277 51.54893325635015 5.953611918974834 C 51.47976783542009 5.610343325686634 51.315811325866385 5.265547195674658 51.017844334956266 5.066310445612143 C 50.83697137003853 4.945429570467352 50.638979179395214 4.852601298943647 50.43992176845248 4.765698427985626 C 50.04336782775025 4.599448810943041 49.61389930075745 4.509327749046609 49.18305193530602 4.509327749046609 C 49.11644051973005 4.509327749046609 49.04979485849301 4.511482071488018 48.983233910207026 4.5158420848624345 C 48.770611612676504 4.52103480852167 48.55791000940458 4.523663613609138 48.34520299892301 4.523663613609138 C 47.51762055124635 4.523663613609138 46.689959699029885 4.4838719578559445 45.86660478809142 4.400488279173057 C 45.53511264680202 4.368107654834603 45.202840064921 4.311719920888653 44.89301866807308 4.187314446259087 C 44.330880647715 3.9735877261592547 43.83953561838913 3.619641696231932 43.33966432065992 3.291707498886761 C 43.14710952991213 3.167576440146511 42.930320526751885 3.0845473842959574 42.70544909697973 3.0404669100952972 C 42.8232023519476 2.977484633390504 42.95185834395634 2.9459948468405175 43.091447713860575 2.9459948468405175 C 43.15017902258539 2.9459948468405175 43.210846562962736 2.9515696799810995 43.27345123619422 2.9627184450606565 C 43.35213109308964 2.9767298770446846 43.432425452663914 2.983737170139511 43.51433566671944 2.983737170139511 C 43.67804930244007 2.983737170139511 43.84821959707368 2.955744947026091 44.02486592645482 2.8997352671542567 C 44.17146213885308 2.8532535412718825 44.3066910447821 2.830015156635115 44.43054678643142 2.830015156635115 C 44.53060494784687 2.830015156635115 44.6232412634283 2.8451814784784473 44.708452578970075 2.8755109679594875 C 44.868597005726386 2.932511518998161 45.068616449384535 2.9609800271608533 45.30853929779514 2.9609800271608533 C 45.35430006239196 2.9609800271608533 45.40151311337837 2.95994454651447 45.45017754955277 2.957873585221703 C 45.753987481081545 2.9449453975692266 45.96089345681919 2.786425837310241 46.070781024161626 2.4826159057814676 C 46.08112141139975 2.3998959620820974 46.0584296055376 2.358574516601109 46.002628553837766 2.358574516601109 C 45.98866173133328 2.358574516601109 45.97262079333041 2.361163218217068 45.954504388026734 2.3663392696465753 C 45.90279208801763 2.3792674572990515 45.80579080245295 2.4195881183955237 45.66358209007812 2.4874607656204217 C 45.61831157915549 2.5090670741470062 45.56288903213058 2.519872932015119 45.497313998402596 2.519872932015119 C 45.35689687482238 2.519872932015119 45.169926379832035 2.4703262194675144 44.93639169901228 2.3711841294855294 C 44.74607999906418 2.2903914054226178 44.56770696740413 2.25 44.401305047289966 2.25 Z"
     style="fill:#ffffff;stroke:none"
     id="path12" />
  <path
     d="M 39.65404558194246 12.635446901571214 L 39.377196448287954 13.235286691155977 L 38.50050752504869 15.196301387875392 L 38.362082958221436 15.473150521529899 L 38.938851986668325 15.749999655184403 L 39.07727655349557 15.450079760392024 L 39.677116343080336 14.08890485325737 L 39.97703623787272 14.619532359428506 L 40.253885371527225 15.173230626737517 L 40.530734505181734 14.619532359428506 L 40.85372516111199 14.042763330981618 L 41.15364505590437 14.619532359428506 L 41.43049418955887 15.173230626737517 L 41.70734332321338 14.619532359428506 L 42.00726321800576 14.042763330981618 L 42.330253873936016 14.619532359428506 L 42.607103007590524 15.173230626737517 L 42.88395214124503 14.619532359428506 L 43.183872036037414 14.065834092119495 L 43.483791930829796 14.619532359428506 L 43.78371182562218 15.173230626737517 L 44.06056095927668 14.619532359428506 L 44.36048085406906 14.042763330981618 L 44.66040074886144 14.619532359428506 L 44.96032064365382 15.173230626737517 L 45.23716977730833 14.619532359428506 L 45.53708967210071 14.042763330981618 L 45.837009566893094 14.619532359428506 L 46.136929461685476 15.173230626737517 L 46.41377859533998 14.619532359428506 L 46.71369849013236 14.042763330981618 L 47.01361838492474 14.619532359428506 L 47.29046751857925 15.173230626737517 L 47.59038741337163 14.619532359428506 L 47.89030730816401 14.042763330981618 L 48.19022720295639 14.619532359428506 L 48.4670763366109 15.173230626737517 L 48.76699623140328 14.619532359428506 L 49.066916126195665 14.042763330981618 L 49.38990678212592 14.642603120566381 L 49.66675591578042 15.150159865599642 L 49.9666758105728 14.642603120566381 L 50.289666466503064 14.019692569843743 L 51.0971431063287 15.473150521529899 L 51.25863843429383 15.749999655184403 L 51.812336701602845 15.450079760392024 L 51.67391213477559 15.173230626737517 L 50.566515600157565 13.189145168880225 L 50.289666466503064 12.704659184984841 L 50.012817332848556 13.2122159300181 L 49.66675591578042 13.812055719602863 L 49.343765259850166 13.2122159300181 L 49.043845365057784 12.681588423846964 L 48.790066992541156 13.2122159300181 L 48.4670763366109 13.788984958464988 L 48.16715644181852 13.2122159300181 L 47.89030730816401 12.65851766270909 L 47.6134581745095 13.2122159300181 L 47.31353827971712 13.788984958464988 L 46.99054762378687 13.2122159300181 L 46.71369849013236 12.65851766270909 L 46.43684935647786 13.2122159300181 L 46.113858700547596 13.788984958464988 L 45.813938805755214 13.2122159300181 L 45.53708967210071 12.65851766270909 L 45.260240538446205 13.2122159300181 L 44.96032064365382 13.788984958464988 L 44.63732998772357 13.2122159300181 L 44.36048085406906 12.65851766270909 L 44.08363172041456 13.2122159300181 L 43.78371182562218 13.765914197327113 L 43.483791930829796 13.2122159300181 L 43.183872036037414 12.65851766270909 L 42.907022902382906 13.2122159300181 L 42.607103007590524 13.788984958464988 L 42.30718311279814 13.2122159300181 L 42.00726321800576 12.65851766270909 L 41.73041408435125 13.2122159300181 L 41.43049418955887 13.788984958464988 L 41.1305742947665 13.2122159300181 L 40.85372516111199 12.65851766270909 L 40.55380526631961 13.2122159300181 L 40.253885371527225 13.788984958464988 L 39.953965476734844 13.2122159300181 L 39.65404558194246 12.635446901571214 Z"
     style="fill:#ffffff;stroke:none"
     id="path14" />
  <path
     d="M 56.857862669745025 2.5601693479997882 L 56.84609445267161 4.350585164114567 L 56.84441334827397 4.350585164114567 C 55.68535629952351 4.250979120692151 54.68318696922784 4.1758048928085705 53.61662205844304 4.0538646455971605 L 53.61662205844304 2.695503084516023 L 56.857862669745025 2.5601693479997882 ZM 61.12273480605095 2.5601693479997882 L 61.11096658897753 4.350585164114567 L 61.1092854845799 4.350585164114567 C 59.950228435829445 4.250979120692151 58.948059227106256 4.1758048928085705 57.88149452907332 4.0538646455971605 L 57.88149452907332 2.695503084516023 L 61.12273480605095 2.5601693479997882 ZM 65.38760815808179 2.5601693479997882 L 65.37583994100837 4.350585164114567 L 65.37415835032077 4.350585164114567 C 64.21510178786028 4.250979120692151 63.212932092847126 4.1758048928085705 62.14636690852423 4.0538646455971605 L 62.14636690852423 2.695503084516023 L 65.38760815808179 2.5601693479997882 ZM 57.00496246542297 2.25 L 56.85281911340713 2.256724449883239 L 53.458594932214844 2.3979404029643 C 53.37714836924294 2.4009750042909928 53.31260840812444 2.46774044292571 53.31233549118042 2.5492444185062237 L 53.31233549118042 4.190038113697904 C 53.312137833306686 4.267343993628646 53.37002887145162 4.3324725650556815 53.446826775927676 4.341339576217528 C 54.57310162027552 4.4738438649846675 55.61246824232243 4.549560427748046 56.81835550067566 4.653190520603625 L 56.84357303922013 4.655714608649888 L 56.79818200475904 11.51729101233165 L 57.70767942176883 11.51729101233165 L 57.481566260532084 2.2617670982265916 L 57.00580301762179 2.2617670982265916 L 57.00496246542297 2.25 ZM 61.26983508801886 2.25 L 61.11769149285804 2.256724449883239 L 57.72346731166576 2.3979404029643 C 57.64202055113855 2.4009750042909928 57.57748063371017 2.46774044292571 57.57720782504165 2.5492444185062237 L 57.57720782504165 4.190038113697904 C 57.57701039131719 4.267343993628646 57.63490126609909 4.3324725650556815 57.71169909459234 4.341339576217528 C 58.83797387815394 4.4738438649846675 59.87734086491832 4.549560427748046 61.08322812327155 4.653190520603625 L 61.10844517552606 4.655714608649888 L 61.06305438420995 11.51729101233165 L 61.97255131492978 11.51729101233165 L 61.746438153693035 2.2617670982265916 L 61.2706753970727 2.2617670982265916 L 61.26983508801886 2.25 ZM 65.53470795375974 2.25 L 65.38256435859891 2.256724449883239 L 61.98834017740663 2.3979404029643 C 61.90689341687942 2.4009750042909928 61.84235301316107 2.46774044292571 61.84208069078252 2.5492444185062237 L 61.84208069078252 4.190038113697904 C 61.84188228447814 4.267343993628646 61.89977413183996 4.3324725650556815 61.97657196033321 4.341339576217528 C 63.102846743894816 4.4738438649846675 64.1422137306592 4.549560427748046 65.34810098901242 4.653190520603625 L 65.37331804126693 4.655714608649888 L 65.32792676366086 11.51729101233165 L 66.23742515325057 11.51729101233165 L 66.0113110194339 2.2617670982265916 L 65.53554826281356 2.2617670982265916 L 65.53470795375974 2.25 Z"
     style="fill:#ffffff;stroke:none"
     id="path16" />
  <path
     d="M 64.1693878371292 13.238844346575874 Q 63.90349778509679 13.504732839864397 63.90349778509679 14.213763865960933 Q 63.90349778509679 14.937565069483927 64.1693878371292 15.203452883319988 L 55.39511603953949 15.203452883319988 Q 55.66100321389088 14.937565069483927 55.66100321389088 14.213763865960933 Q 55.66100321389088 13.504732839864397 55.39511603953949 13.238844346575874 ZM 53.696395276663644 12.692299220929755 Q 53.31233605146794 12.692299220929755 53.32710755907247 12.943414179497301 Q 53.31233605146794 13.238844346575874 53.696395276663644 13.238844346575874 L 54.65654194078019 13.238844346575874 Q 55.01106153054322 13.504732839864397 55.01106153054322 14.213763865960933 Q 55.01106153054322 14.937565069483927 54.65654194078019 15.203452883319988 L 53.71116745247969 15.203452883319988 Q 53.31233605146794 15.203452883319988 53.31233605146794 15.45456924076025 Q 53.31233605146794 15.74999932790324 53.696395276663644 15.74999932790324 L 65.8681097990388 15.74999932790324 Q 66.23742498574394 15.74999932790324 66.23742498574394 15.45456924076025 Q 66.23742498574394 15.203452883319988 65.853336424189 15.203452883319988 L 64.90796321485784 15.203452883319988 Q 64.55344442445065 14.937565069483927 64.55344442445065 14.213763865960933 Q 64.55344442445065 13.504732839864397 64.90796321485784 13.238844346575874 L 65.8681097990388 13.238844346575874 Q 66.23742498574394 13.238844346575874 66.23742498574394 12.943414179497301 Q 66.23742498574394 12.692299220929755 65.8681097990388 12.692299220929755 Z"
     style="fill:#ffffff;stroke:none"
     id="path18" />
  <path
     d="M 30.489336013793945 0.375 C 20.86433607339859 0.375 20.86433607339859 17.625 30.489336013793945 17.625 "
     style="fill:none;stroke:#ffffff;stroke-width:1"
     id="path20" />
  <path
     d="M 30.489336013793945 0.375 L 66.23742294311523 0.375 "
     style="fill:none;stroke:#ffffff;stroke-width:1"
     id="path22" />
  <path
     d="M 30.489336013793945 17.625 L 66.23742294311523 17.625 "
     style="fill:none;stroke:#ffffff;stroke-width:1"
     id="path24" />
  <path
     d="M 73.92492294311523 0.375 L 73.92492294311523 17.625 "
     style="fill:none;stroke:#ffffff;stroke-width:1"
     id="path26" />
  <path
     d="M 66.23742294311523 0.375 C 75.86242485046387 0.375 75.86242485046387 17.625 66.23742294311523 17.625 "
     style="fill:none;stroke:#ffffff;stroke-width:1"
     id="path28" />
</svg>
