<?xml version="1.0" encoding="UTF-8" standalone="no"?>
<svg
   width="60.88507843017578"
   height="18.0"
   version="1.1"
   id="svg20"
   sodipodi:docname="banetjer.svg"
   inkscape:version="1.1.1 (3bf5ae0d25, 2021-09-20)"
   xmlns:inkscape="http://www.inkscape.org/namespaces/inkscape"
   xmlns:sodipodi="http://sodipodi.sourceforge.net/DTD/sodipodi-0.dtd"
   xmlns="http://www.w3.org/2000/svg"
   xmlns:svg="http://www.w3.org/2000/svg">
  <defs
     id="defs24" />
  <sodipodi:namedview
     id="namedview22"
     pagecolor="#ffffff"
     bordercolor="#666666"
     borderopacity="1.0"
     inkscape:pageshadow="2"
     inkscape:pageopacity="0.0"
     inkscape:pagecheckerboard="0"
     showgrid="false"
     inkscape:zoom="22.58353"
     inkscape:cx="30.420399"
     inkscape:cy="9.0109916"
     inkscape:window-width="1920"
     inkscape:window-height="1001"
     inkscape:window-x="-9"
     inkscape:window-y="-9"
     inkscape:window-maximized="1"
     inkscape:current-layer="svg20" />
  <path
     d="M 12.915493277613976 7.594046566073992 L 12.435411670185545 11.036918727374811 Q 12.353111303986651 11.48956712078268 11.996479521719351 11.48956712078268 L 10.569951668512942 11.48956712078268 Q 10.213318981074131 11.48956712078268 10.144736308091332 11.036918727374811 L 9.6646547006629 7.594046566073992 ZM 8.142109376402987 5.810886025428772 Q 7.415128774901637 5.920618892825662 7.511144648468859 6.620167015758302 Q 8.539891387028309 7.511746924012307 8.594757815069432 7.594046566073992 Q 9.061123268073338 8.252444426704677 9.266872735296154 9.939589080346536 Q 9.3766055913784 11.48956712078268 9.842970229727946 12.189114078307 L 12.586294709367237 12.189114078307 Q 13.162393290004843 11.48956712078268 13.313275605049327 9.939589080346536 Q 13.519024348134934 8.252444426704677 13.985390434758898 7.594046566073992 Q 14.108839173714216 7.415731037008946 14.060831049178233 7.168831296169532 Q 14.01282292464225 6.921932369984479 13.724774177426355 6.839632727922794 L 9.623504517563454 6.839632727922794 Q 9.033690054052776 6.688749688741101 8.142109376402987 5.810886025428772 Z"
     style="fill:#ffffff;stroke:none"
     id="path2" />
  <path
     d="M 18.927666853662046 5.964567741274732 C 18.922595575960937 5.964567741274732 18.917579448549656 5.964610841921403 18.912618934876015 5.964697043214747 C 18.758251188135088 5.967377161921213 18.657485583799584 6.011579424045831 18.61031748739137 6.097339515070253 L 18.61031748739137 6.262015499806784 L 18.61031748739137 6.272218766872593 C 18.46624036762913 6.3476875357466085 18.32206059417616 6.423357440971758 18.177983706137827 6.498826209845774 C 18.033907049823398 6.57429497871979 17.961816815511053 6.642805542119332 17.961816815511053 6.70455254812614 L 18.692655479759637 6.364997311587267 C 18.704079468366658 6.393557283104819 18.75348091978896 6.407771227550147 18.84097245184526 6.407771227550147 C 18.858568174986953 6.407771227550147 18.877704166937388 6.407196552261194 18.89838181804 6.4060476651311005 C 19.035597592920826 6.3991867836974965 19.155668811106565 6.3614704737252215 19.258580873991093 6.2928625862848095 L 19.258580873991093 6.210524593916543 L 19.19688670103504 6.210524593916543 C 19.105398626757538 6.159697808743294 19.017623232915362 6.134275378924303 18.933638610465117 6.134275378924303 C 18.904257641145648 6.134275378924303 18.87534058308766 6.137386504097485 18.84689091214976 6.1436101447872895 C 18.74247658317722 6.166450706836312 18.66598428980671 6.203173848143888 18.617436045809377 6.253947800266379 C 18.669494211823555 6.142385252215754 18.8610510966487 6.0866213574834545 19.19201470589381 6.0866213574834545 C 19.21037349586072 6.0866213574834545 19.229160975055272 6.086793296622327 19.24837760692528 6.087136248004445 L 19.24837760692528 6.004798255636179 C 19.124192362497574 5.978013289244991 19.017283989115754 5.964567741274732 18.927666853662046 5.964567741274732 ZM 20.040673158849316 5.850325537965455 C 19.9171791468357 6.001263075713487 19.83661384235473 6.164183056684014 19.798879457917725 6.339133216001846 C 19.7611446100329 6.514083838767492 19.752432718031493 6.92072546357449 19.773015362332302 7.558779558286824 C 20.2464101564294 7.291207963063153 20.519136681684543 7.0082174590786055 20.59117500984176 6.7097728242993435 C 20.663213801446787 6.4113281895200815 20.65473873127816 6.166053068612182 20.565548199536938 5.973951169158154 L 20.40087221480041 5.943104082680129 L 20.215552410651657 5.891613176789888 L 20.040673158849316 5.850325537965455 ZM 19.67326795284344 5.536385988983875 C 19.674484966802144 5.536385988983875 19.675701053865218 5.536389696566385 19.676914823689227 5.536397111731403 C 19.943042778973307 5.538034936304921 20.20043010849153 5.6325106269132625 20.421278748932025 5.777716242101796 C 20.815866096105406 6.009161616801903 21.19214076636934 6.269308314602731 21.57472249792955 6.520181885099792 C 21.835506899921988 6.676410606536519 22.128709476480804 6.781614650583561 22.42847493752903 6.836957734701045 C 21.940579788237763 6.863471584121235 21.44076105359633 6.938383288723216 21.00547510976969 7.169868983383113 C 20.721757919613307 7.32466148004527 20.48085635572303 7.573670599987928 20.38070296594939 7.885995960234487 C 20.291070304993923 8.161813218959015 20.296310972870927 8.457957298791207 20.29077184460192 8.745917817129575 C 20.294768155099213 9.284547062031361 20.395407701629395 9.840985679516944 20.69178396881624 10.29823812281602 C 20.709845920458488 10.329583879141556 20.739685007941777 10.361001006430396 20.75157985952749 10.391965808653094 C 20.704758190359996 10.43745135777377 20.642721992917455 10.44842580200153 20.579380726431616 10.44842580200153 C 20.536348206588706 10.44842580200153 20.49271274114021 10.443360317398092 20.452837691251847 10.440609291176134 C 20.272221882411873 10.408905753138441 20.14161209266713 10.265047844192068 20.0214530511207 10.13783327313029 C 19.841363255549247 9.93456320826239 19.679562501048736 9.714036200604587 19.54474692239492 9.478180193061762 C 19.282804132592204 8.989130595266634 19.19409257416641 8.42834669108006 19.152514353562808 7.880063828219482 C 19.13727989703177 7.686480749552956 19.142058043990733 7.491408149613289 19.126412972696784 7.298240320187816 C 19.1137392970602 7.210381737463086 19.052654789703034 7.11218780504565 18.954946087146514 7.11218780504565 C 18.95412763830757 7.11218780504565 18.953306408781742 7.112194756762856 18.952482862016847 7.1122086601972665 C 18.95143292099497 7.112197074001925 18.950384602040444 7.112191049180346 18.94933767342936 7.112191049180346 C 18.81883748909255 7.112191049180346 18.712033391468808 7.2021949318345655 18.590860094382155 7.238207144195966 C 18.472059650101507 7.28587043459309 18.34442542704445 7.299936539185856 18.217373062717456 7.305121593325221 C 18.090438645859045 7.317388130057498 17.97452061525553 7.384339191564031 17.846764505423476 7.384339191564031 C 17.83639555576428 7.384339191564031 17.82594874687239 7.383898452693229 17.815411797380733 7.382951165362083 C 17.766339393906144 7.381393980708145 17.718338713500668 7.375513754848271 17.669955920372818 7.3677649074036715 C 17.868197808186284 7.3060220724271865 18.071019023846645 7.250013940697081 18.253677710649285 7.150411590373897 C 18.309324353084726 7.1217403913810635 18.368587278810253 7.054195653225215 18.331744567966748 6.990006740688168 C 18.31169929140589 6.958867218639716 18.280343339228452 6.94749930721815 18.246867113303466 6.94749930721815 C 18.210156716810765 6.94749930721815 18.170896198723334 6.961170090825854 18.141204487644796 6.977430620816358 C 18.004553655648838 7.042478765599954 17.886035451086713 7.147115549523059 17.737107654782672 7.184343385499724 C 17.646819446894767 7.211971826911794 17.552301466673427 7.236029402919521 17.458290961808057 7.236029402919521 C 17.446655409274094 7.236029402919521 17.43502750362906 7.2356609619076515 17.42341651382922 7.234885150267564 C 17.383378677896307 7.19685972060357 17.381079397430728 7.133421593524671 17.38521358365259 7.0823107148416415 C 17.414427827621093 6.998947575909533 17.516522832010114 6.987013794707472 17.580973940147747 6.941363258165129 C 17.605694014805117 6.932411300196236 17.631415716049787 6.9073355293418714 17.65704530704149 6.9073355293418714 C 17.665564520614367 6.9073355293418714 17.674073422473388 6.910106020372004 17.682532040244627 6.91716015954391 C 17.70767084000165 6.930028251538333 17.739564391642947 6.939116463164446 17.77002797505516 6.939116463164446 C 17.80669944193151 6.939116463164446 17.841298601909024 6.925946666643322 17.85954685957237 6.890346922836088 C 17.906534906504973 6.808711980801164 17.861846951071627 6.702311777947035 17.782429143377307 6.660417485934504 C 17.756163006813527 6.64345019802815 17.725887119765854 6.6355164349058935 17.69555052105459 6.6355164349058935 C 17.630879506929368 6.6355164349058935 17.56593355238869 6.671571284466154 17.538974445481514 6.733026781798163 C 17.51052187799478 6.785193858048551 17.444903344814506 6.795509279485268 17.400874412172204 6.832212029089042 C 17.393784703380597 6.84118484220955 17.38786577962828 6.844738096596975 17.382832852233754 6.844738096596975 C 17.370056638768393 6.844738096596975 17.362990218229424 6.821841920810312 17.356976635261166 6.806585218784221 C 17.347496810232503 6.774657372004713 17.400486042904344 6.780940797462481 17.411789535079812 6.760077303786584 C 17.577978329342123 6.650382913872873 17.752710552325574 6.552015188525311 17.91293604770741 6.434521898803123 C 18.091866760296874 6.223245772954033 18.34898598525489 6.1011119802735445 18.59679222639716 5.987001859591165 C 18.622597464110246 5.9605904321377965 18.6034848762744 5.9167510496512845 18.63333415960959 5.8911386062286875 C 18.720492704411768 5.768387964508202 18.872609716845595 5.720063797528783 19.00634662071309 5.666429445500308 C 19.2128269885863 5.592024752806483 19.42966495164727 5.537229464004758 19.651050728103804 5.536634397012003 C 19.658436232462485 5.536512973684821 19.66587735055881 5.536385988983875 19.67326795284344 5.536385988983875 ZM 26.4428385809586 7.111248396327337 C 26.44601227158663 7.111248396327337 26.449185962214656 7.111252103909846 26.452358725947057 7.111259519074865 C 27.077673103709355 7.112732819674529 27.715566382030342 7.221911392171624 28.260709849401106 7.54027130640001 C 28.441723296465213 7.644808449043175 28.609980805905803 7.774547883793838 28.732907557795485 7.944368139262133 C 28.57421839191597 7.811944414774681 28.376690445459467 7.740760684385878 28.181931136241843 7.6783713397093205 L 28.181931136241843 7.6783713397093205 C 28.202078139597802 7.737722320519442 28.193096520968837 7.8086159325768865 28.22654076899468 7.862267432174468 C 28.432738897149363 7.986983092624923 28.609310660367235 8.19781847960321 28.617586911423793 8.447175648853936 C 28.63211785417367 8.784054937716665 28.470638732455853 9.097675634602439 28.27708253376252 9.362859546690071 C 28.113166603440412 9.593891989388194 27.93171010026643 9.834566927297583 27.90027350816942 10.123833441574881 C 27.896109893011385 10.175062036002583 27.902969847549365 10.230787001118532 27.86539257192119 10.271187600827599 C 27.77804748937401 10.37577850341715 27.637586652901852 10.41710229117105 27.509227365740305 10.442270288140335 C 27.462783406540954 10.45017114646782 27.414544050511438 10.454608195835917 27.366174929094093 10.454608195835917 C 27.229225173258314 10.454608195835917 27.09124100190242 10.419033941658437 26.990047171787086 10.32576321536564 C 26.902416605386684 10.234347207223163 26.84338354977674 10.118589993010993 26.7570330262377 10.025360050125801 C 26.530461732193984 9.747561088550011 26.249905256126844 9.493480459182337 25.900433163271014 9.387062645311289 C 25.789809097043076 9.353085432299721 25.673838696836615 9.337028819347234 25.55775150778111 9.337028819347234 C 25.515220901920408 9.337028819347234 25.47267546572967 9.33918385168081 25.43037102240204 9.343402153680854 C 25.485297930382846 9.425426855327078 25.5398772525034 9.507684207775764 25.59480972185797 9.589704274943852 C 25.649064630508953 9.574329857173089 25.70744329780599 9.565594792780995 25.765640293560068 9.565594792780995 C 25.888332540856034 9.565594792780995 26.010219315851835 9.604418743027946 26.090973243592966 9.701702927387142 C 26.109222891599753 9.723111435691916 26.130308840226213 9.749181302106608 26.141515008360805 9.771464799883598 C 25.967921360793596 9.776291145415179 25.7985756758865 9.820848872012885 25.626605949458394 9.840277531257652 C 25.146524993753452 9.911908025338835 24.664944320923464 9.988163728600465 24.18580972565404 10.056918992445627 C 24.149856371164972 10.018781871858536 24.103186249432554 9.987616860180333 24.04943371821159 9.987616860180333 C 24.046663227181458 9.987616860180333 24.043873271343152 9.987700280786793 24.041065704487924 9.98786897579097 C 23.351540168693525 9.882303905897079 22.65899295315398 9.775215019591833 21.959836508343656 9.770278373480597 C 21.952055682999912 9.772142360587186 21.945198509148817 9.773068329318903 21.93923300889123 9.773068329318903 C 21.913625663394583 9.773068329318903 21.904459592535773 9.756003253923865 21.909294743575813 9.722821317360559 C 21.908433657538012 9.66288546540958 21.876715289170285 9.583724871251853 21.807634221512114 9.583724871251853 C 21.805260441810482 9.583724871251853 21.802842634566556 9.583818487710214 21.800380799780328 9.584009428209448 C 21.715473916180876 9.588733815222021 21.670288217795648 9.6729941891214 21.648043649635007 9.745126133736976 C 21.595782493478442 9.879010645733125 21.563074664028523 10.04137866035757 21.436147894059037 10.125969009100281 C 21.386545074561695 10.152212204997287 21.331567187321383 10.16395968017825 21.275973841384516 10.16395968017825 C 21.185401771710737 10.16395968017825 21.093197902285013 10.13277983817001 21.019949511886303 10.082308517469848 C 20.92686972609274 10.00257046733628 20.88545324877611 9.881325104114604 20.834866993018153 9.7738376526896 C 20.680449425637256 9.380318552726731 20.659255030222397 8.948937620178095 20.672801146368222 8.529750926502803 C 20.6906165437736 8.216208088849726 20.776036464102788 7.890807475436031 20.99432270158148 7.6536936705269 C 21.166921790140556 7.459635094403547 21.425899672555303 7.371166614356025 21.673433174659227 7.31603671623283 C 22.141458462387114 7.209707884342006 22.62473767145421 7.191270076522869 23.10355156083657 7.178885824045919 C 23.116072993866368 7.178814916530428 23.12859350000054 7.178781084840029 23.141113542686895 7.178781084840029 C 23.455916494945345 7.178781084840029 23.770320418636224 7.200319821980447 24.085178521184503 7.200319821980447 C 24.09602134623318 7.200319821980447 24.106865098177483 7.200294332350696 24.117708850121787 7.200241499299937 C 24.17217601787143 7.200729046399919 24.226643185621075 7.200969575815216 24.281108499579464 7.200969575815216 C 24.87957812618261 7.200969575815216 25.477839201269603 7.17189934825481 26.074125988670353 7.121700071421273 C 26.179943174174884 7.115732253924616 26.28586880646781 7.1122665911739755 26.391850979394007 7.111496804355466 C 26.408824292121942 7.111350818294159 26.425835607570594 7.111248396327337 26.4428385809586 7.111248396327337 ZM 21.780845547538416 4.409227609634399 C 21.643899035837336 4.409227609634399 21.51483577144682 4.435826733452305 21.393673828831602 4.489019883162164 C 21.257382632339052 4.548855166937574 21.12110672962436 4.578772577101372 20.984831290357477 4.578772577101372 C 20.848555387642776 4.578772577101372 20.712279948375894 4.548855166937574 20.575988751883347 4.489019883162164 C 20.488407310951192 4.450569471853032 20.393272597551807 4.431347973780976 20.290586928924263 4.431347973780976 C 20.0736813024825 4.431347973780976 19.823083946882385 4.517113162731348 19.538814790379917 4.688576804146924 C 19.250033505963536 4.517113162731348 18.996458266436672 4.431347973780976 18.778104829024993 4.431347973780976 C 18.674733721081026 4.431347973780976 18.579256519747336 4.450569471853032 18.491674847091275 4.489019883162164 C 18.355384577494355 4.548855166937574 18.219108906503568 4.578772577101372 18.082833235512776 4.578772577101372 C 17.94655733279808 4.578772577101372 17.810281198359476 4.548855166937574 17.67398977014302 4.489019883162164 C 17.554735147004973 4.43666418365161 17.427595770350962 4.410110014271631 17.292435038937917 4.4092920288804995 C 17.290286958321545 4.409279052341717 17.288136792190013 4.409272564072325 17.285984656405272 4.409272564072325 C 17.114028485825717 4.409272564072325 16.929092416466688 4.450763656486961 16.731492635599064 4.533866801195599 C 16.489033944985827 4.635835516055395 16.296011000933103 4.686794847303354 16.152413491727035 4.686794847303354 C 16.085353288260382 4.686794847303354 16.02907227266449 4.67568090528368 15.983569431147266 4.653458582618096 C 15.840629539906056 4.5836512922359 15.739205075710384 4.542180591525066 15.679369701417823 4.528883810302996 C 15.66206762677638 4.523560185267343 15.646899722075528 4.520897677577795 15.633864904730135 4.520897677577795 C 15.581787100114854 4.520897677577795 15.563758357405005 4.563396768987168 15.579709883565743 4.648475591725491 C 15.68608431437661 4.960947864928985 15.895568859598622 5.1239864885398125 16.208041306595046 5.137283269761883 C 16.258093264954812 5.139413275913521 16.30665193652795 5.14047827898934 16.35371761096934 5.14047827898934 C 16.60048057315206 5.14047827898934 16.806202508678194 5.111198109569341 16.970913483724658 5.052572424587615 C 17.05855459356282 5.02137821569715 17.15383181716491 5.00577948918457 17.256742837291853 5.00577948918457 C 17.38412992680227 5.00577948918457 17.523213743958053 5.029680419831275 17.67398977014302 5.077487379050635 C 17.846813862615633 5.132284985091428 18.01627865361084 5.159674750879458 18.182407547243233 5.159674750879458 C 18.27830161988532 5.159674750879458 18.373084344670218 5.150548999980438 18.466759892628257 5.1323002788692795 C 18.52964837060014 5.1200494993626675 18.589828459548922 5.113925499952802 18.647299464302883 5.113925499952802 C 18.81212166682463 5.113925499952802 18.954664079151893 5.164292544894888 19.074922066806543 5.264942750724786 C 18.90022101068856 5.313970894933172 18.731522530653262 5.384108623606517 18.573775554178944 5.473516512372353 C 18.462674600150734 5.539785842144974 18.35511855844931 5.643891051425799 18.34313426143556 5.7779535273823965 C 18.22621356148716 5.816766818329634 18.119887973731032 5.885871985274116 18.016867000610297 5.953781920307137 C 17.82001754175301 6.088659600967985 17.648643461627426 6.259633841492323 17.477280272525462 6.423132205334314 C 17.39434478006342 6.484290632617759 17.298107292591403 6.525949493140942 17.219113887232457 6.591130183999248 C 17.153122973733897 6.634121920434554 17.096010098277954 6.7024744481296334 17.100708532212963 6.785941399372005 C 17.092724253279016 6.893563250662973 17.143838607820648 6.993628121904203 17.158843425960008 7.096547831677654 C 17.16622487515032 7.32721461405079 17.297064071562826 7.620689697924044 17.552262421195124 7.650608961879097 L 18.60889377570777 7.531254465737202 C 18.610501707897306 7.531448186923317 18.612197463447533 7.531538559246982 18.613969687887014 7.531538559246982 C 18.638569729560647 7.531538559246982 18.677946109601493 7.514123580752621 18.702566079531113 7.514123580752621 C 18.713750233894558 7.514123580752621 18.72188907267436 7.51771761854765 18.724214422079463 7.528170220537213 C 18.729418245855282 8.252310673534794 18.845236635178857 8.99323025462638 19.186920719249834 9.63834775746689 C 19.307116836621358 9.868830551058 19.461747589996545 10.08108223455487 19.63349161733939 10.274509594756001 C 19.680322092015345 10.474194427337334 19.5736028053415 10.66376682862434 19.479256184949268 10.832367289447049 C 19.389171894099377 10.990712577048818 19.237346853788164 11.106814596434361 19.166751470398818 11.276565334730602 C 19.077689081978075 11.457180216674953 19.056678675345243 11.667525275866375 18.940381312706236 11.834660314702251 C 18.83715734944311 11.998913635032714 18.689069784025257 12.128082102076934 18.54387760882332 12.252994264400385 C 18.422034397922005 12.366306327947623 18.301245762520697 12.488384970338284 18.23516945876247 12.643803121548899 C 17.89453531571337 12.897602901541486 17.559344946545618 13.179603480996029 17.351519073807363 13.55569045489543 C 17.343413255684283 13.584503005471435 17.370554381720275 13.590772527494792 17.39534374182579 13.590772527494792 C 17.404898297814412 13.590772527494792 17.414103414151523 13.589841924284938 17.420806375742618 13.588910394179456 L 18.44706521433844 13.588910394179456 C 18.549606055524215 13.496238442461927 18.648751678027025 13.394555211455353 18.70855359355985 13.2683379800886 C 18.753843799427063 13.286987120110771 18.805472117594057 13.298107086952022 18.85631720895595 13.298107086952022 C 18.932781463733733 13.298107086952022 19.007474652691567 13.272957627895284 19.056176529639128 13.210440371622154 C 19.10684273014494 13.15534106105466 19.134821769828054 13.081207948779648 19.125463831574386 13.005900459744788 C 19.136090458217982 12.665640782529136 19.2445817376074 12.31683049315123 19.476408761582064 12.063166039920233 C 19.58616803418969 11.962128855165918 19.724757004942425 11.895956849434171 19.847997511001964 11.813304639448234 C 19.910142155232904 11.758425930040048 19.952888264326962 11.684054605588809 20.011487069335494 11.624188270809881 C 20.28634869866823 11.310068904076598 20.587110572515854 11.01688625577377 20.931204816941833 10.777554389628403 C 20.952439995764294 10.76826782233804 20.97790738002121 10.74342609262958 21.0014213317435 10.74342609262958 C 21.010366337995187 10.74342609262958 21.01902910452835 10.747021520768048 21.02706807030431 10.756435999654986 C 21.197430559714597 10.87437141859142 21.32665742118334 11.039948345877729 21.449910440333845 11.204193324147546 C 21.51076716309059 11.397310174313517 21.58845770078335 11.594647180270787 21.737262915140676 11.737610634936772 C 21.804946224192815 11.804091296912429 21.88447525936241 11.85907938000464 21.972649913496067 11.8942189201329 C 22.082488435679828 12.145519789514164 22.11626126820557 12.421354659255613 22.129732769253394 12.69363303047494 C 21.88983827746223 12.974452744900246 21.668516456803978 13.271859256576882 21.47885924456707 13.588910394179456 L 22.647489251523005 13.588910394179456 C 22.769711099288095 13.460032972362223 22.834643845566085 13.284562361149638 22.838978472967362 13.10769584512227 C 22.84702763459522 13.10838082099088 22.855121750661006 13.108719137894859 22.86322930671339 13.108719137894859 C 22.976470926192945 13.108719137894859 23.092337514089145 13.04265094447337 23.12443266552939 12.930206455233328 C 23.173907109982345 12.77952195999156 23.099186809327406 12.621354636350242 23.016942433417505 12.49668624757678 C 22.84320233634117 12.239681262504838 22.684408431255765 11.955823184213095 22.665760218129222 11.640323669890694 C 22.6608105954792 11.51960385648972 22.670629664307477 11.397063620076644 22.637523269737798 11.279412758097806 C 22.59944917805337 11.113911836252939 22.509950916963867 10.962369035660249 22.382678878373195 10.850400970772661 C 22.18978633694904 10.642267484548082 22.109953280013674 10.358890465086933 22.053326908900132 10.087291508362451 L 22.053326908900132 10.087291508362451 C 22.31182697661898 10.096857071236645 22.571522276249294 10.111236003103642 22.828537920620953 10.145189116828897 C 23.173720340513434 10.189183290885175 23.51974901611368 10.247178223392492 23.858830608986977 10.32433950368204 C 23.879469793921057 10.331635099164869 23.91353228133034 10.333979218206423 23.906050379826418 10.365389857225875 C 23.9232424399224 10.4651970514827 23.992483397076292 10.562746327991317 24.092556610378168 10.589149876831854 C 24.154061696626236 10.768552379295635 24.20955493783535 10.962444114206065 24.348350142865172 11.09788951843866 C 24.372813699157675 11.118747450740795 24.401648495228734 11.132720402323013 24.43068813523344 11.1465330009617 C 24.447924686319535 10.932243073980299 24.469655754302625 10.7162244866539 24.529873382524315 10.509896593111389 C 24.87069475849014 10.477467295797489 25.21151520756034 10.445038925379212 25.552335656630536 10.412609628065312 L 25.552335656630536 10.412609628065312 C 25.49039214875073 10.832863178607678 25.40710223457318 11.26222440558433 25.187865465628644 11.631069543947287 C 24.98567801485348 11.960831201287636 24.71570019858122 12.243250737565742 24.430213564672236 12.502143809030587 C 24.35817894409753 12.60305122839707 24.295359519849885 12.723816459683785 24.183199587567437 12.784513292944812 C 24.130466641536557 12.787893681297737 24.080093571772892 12.804281195989189 24.03703185471772 12.835529628273852 C 23.866724052149443 12.945799620372146 23.755286171560698 13.123952667530267 23.643612859482605 13.289456370062016 C 23.581321765742544 13.387363428282788 23.52351499304758 13.487488547739796 23.46731035944448 13.588910394179456 L 24.74936226707949 13.588910394179456 C 24.76620766821085 13.48456511893115 24.778659584068595 13.379158548189535 24.776412789067912 13.273083685700604 L 24.776412789067912 13.273083685700604 C 24.807763179871586 13.28368551788617 24.841503107602552 13.289145860026856 24.875224497420973 13.289145860026856 C 24.96152126101363 13.289145860026856 25.047702162652865 13.25338529982828 25.093425923949766 13.176508576496326 C 25.148335220913655 13.096482261822658 25.170262790769744 12.999371406945775 25.18383161585844 12.904105074367308 C 25.439795697140877 12.650146795222446 25.592690838453862 12.313847743022436 25.81050204192354 12.030183385916807 C 25.932286858400335 11.874289737249363 26.084243981338446 11.74037556459314 26.268699918762508 11.665001339073115 C 26.445047373238562 11.570386614120672 26.557826471800077 11.385951995296036 26.598051888235574 11.193040915959337 C 26.603749515656858 11.19394000471786 26.6093201583772 11.194364522915183 26.614769377770358 11.194364522915183 C 26.676874165489323 11.194364522915183 26.723359834991903 11.139183645532484 26.765100725778108 11.101686082928264 C 26.79352583398188 11.10758948117882 26.823835320996047 11.110921670959122 26.85431906438815 11.110921670959122 C 26.947313575783998 11.110921670959122 27.041940350379598 11.079916085328822 27.08970698963917 10.996331418341779 C 27.10375223908032 10.973273962715957 27.112736638396168 10.947560024222167 27.120791361397792 10.92206112551392 C 27.448402620882703 11.132709279575483 27.70659310546202 11.462748078708408 27.80013911975614 11.843202584803858 C 27.852804402406225 12.015250170464661 27.825073539027333 12.197419456376064 27.831698062075958 12.374721613348285 C 27.831698062075958 12.477466139848167 27.831698062075958 12.580210666348048 27.831698062075958 12.682955192847931 C 27.5882174111026 12.967558495224058 27.36431557646564 13.269047055243519 27.169434843920833 13.588910394179456 L 28.33925127727977 13.588910394179456 C 28.458796713920897 13.455480987936335 28.525269960731535 13.278148243408413 28.53002864288232 13.099153575020663 C 28.541585177564052 13.100578213599892 28.553295576919922 13.101284508067929 28.565047686579025 13.101284508067929 C 28.667900659867307 13.101284508067929 28.773995914060038 13.047181610299832 28.809076132868146 12.947053710155943 C 28.86962002835066 12.797729897695117 28.801435732211946 12.63276657531411 28.722704290729677 12.504279376555987 C 28.681311912699353 12.437085004947276 28.69995919893027 12.352876537203027 28.68806063976205 12.277909218863407 C 28.668298298091436 11.934525903383602 28.66657983359834 11.590203642633295 28.66575582338563 11.24643010409438 C 28.6712291420651 11.125641700416981 28.68185785422386 10.987930963271157 28.604298935710183 10.886468333423892 C 28.563903897374882 10.84117650548933 28.490179546071527 10.865363846884883 28.45386006780966 10.813621752279634 C 28.379856720922476 10.720623533301278 28.348872453891605 10.601501687961846 28.314573608097348 10.489490058979772 C 28.253219605836534 10.280280446931847 28.257136666757695 10.036936049615706 28.388369330364007 9.855463789216063 C 28.478907568347392 9.737824976880383 28.56630641084096 9.618120114191353 28.6292138901732 9.482925898673766 C 28.710905836289207 9.319025725577323 28.772802999387647 9.145754637688423 28.82805895531616 8.971338833699757 L 28.82805895531616 8.971338833699757 C 28.839826822200926 9.311025689417711 28.811153305969025 9.65324204330269 28.721755149607276 9.981224987934166 C 28.64100122186614 10.417559250715332 28.674585431131714 10.86620268742763 28.73006013442828 11.303615856719023 C 28.761417940396974 11.511601966538855 28.80115859041937 11.732146585213577 28.932227193499646 11.901812049112106 C 28.97730490854429 11.95627550927924 29.050134805567254 12.002452522537915 29.122356659058685 12.002452522537915 C 29.150090303124458 12.002452522537915 29.17773403831438 11.995642620363814 29.20368155450626 11.979878906429565 C 29.33375096410026 11.915196421970958 29.40208356353935 11.76678838238995 29.39849276987902 11.625611982493485 C 29.401608066082524 11.423760067935419 29.3349930042409 11.231049198054226 29.30262951651654 11.03382249267661 C 29.229457595007084 10.68426605231869 29.153772859451898 10.33501363372654 29.07625935882396 9.98668254938797 C 29.178220658518736 9.405349369143169 29.24569309881565 8.803248165472088 29.132258685045606 8.218432638355353 C 29.06112129943817 7.865377167004208 28.89249025105976 7.510750607564715 28.586027969103966 7.305833449167022 C 28.399998162904673 7.181506157984423 28.19636104736834 7.0860312738898035 27.99162834120049 6.9966507285449735 C 27.583768312091347 6.825661194242784 27.142055273984703 6.732970704612708 26.69892408556822 6.732970704612708 C 26.63041352216868 6.732970704612708 26.561867736735298 6.735186448609875 26.49340907949089 6.739670769654968 C 26.274724740340247 6.745011542259727 26.0559588343744 6.7477152968046905 25.83718736703479 6.7477152968046905 C 24.98600984348807 6.7477152968046905 24.13475168002177 6.706789147274922 23.28792222386292 6.6210281293548725 C 22.9469789611221 6.587724306016572 22.605233006768 6.52972891006144 22.28657833973012 6.401776530080297 C 21.708413288739578 6.181956280338345 21.20305959685946 5.817918949594423 20.68893654544904 5.480635070790358 C 20.490891854680292 5.352964930527742 20.26792201359662 5.267568646037052 20.036639309079114 5.222231400216751 C 20.157749808987013 5.157453445508526 20.290073892194528 5.125065858497855 20.433643073152986 5.125065858497855 C 20.494048861187025 5.125065858497855 20.556446084476416 5.130799634848609 20.620835669916783 5.1422662606544876 C 20.701758756109907 5.156677170420625 20.78434237581942 5.163884247371043 20.86858791938876 5.163884247371043 C 21.036969169395604 5.163884247371043 21.21199116312455 5.135093942290095 21.393673828831602 5.077487379050635 C 21.544449623292664 5.029680419831275 21.683534019758213 5.00577948918457 21.810920993406675 5.00577948918457 C 21.913831897671667 5.00577948918457 22.009109352997662 5.02137821569715 22.096750115249968 5.052572424587615 C 22.261460395124708 5.111198109569341 22.467182562374752 5.14047827898934 22.71394581421235 5.14047827898934 C 22.761011256929837 5.14047827898934 22.80957039195079 5.139413275913521 22.859622292379576 5.137283269761883 C 23.172094102135258 5.1239864885398125 23.38489914232165 4.960947401481171 23.49791969719409 4.648475591725491 C 23.50855489762224 4.563397232434982 23.48521612917352 4.520897677577795 23.42782414227179 4.520897677577795 C 23.413459113839203 4.520897677577795 23.396960835120286 4.523560185267343 23.378327915771592 4.528883810302996 C 23.325141254331125 4.542180591525066 23.225374380034086 4.583650828788086 23.079111176934752 4.653458582618096 C 23.032549965438545 4.67568090528368 22.975547274700297 4.686794847303354 22.908102641272205 4.686794847303354 C 22.76368210668003 4.686794847303354 22.571380924666123 4.635835516055395 22.331187972482955 4.533866801195599 C 22.135450324930666 4.450770608204166 21.951991727201627 4.409227609634399 21.780845547538416 4.409227609634399 Z"
     style="fill:#ffffff;stroke:none"
     id="path4" />
  <path
     d="M 36.063391140506624 2.701834964452948 L 36.04624795089961 5.309998768668603 L 36.04379902501237 5.309998768668603 C 34.355358488259334 5.164899024353775 32.895461994134166 5.055389993875436 31.341758117013658 4.877755203012128 L 31.341758117013658 2.8989805380643654 L 36.063391140506624 2.701834964452948 ZM 36.27767676021662 2.25 L 36.056044008646744 2.259795750590935 L 31.11155425766271 2.4655101629016385 C 30.992908088650378 2.469930776967526 30.898890381143733 2.5671904184722165 30.89849281311035 2.6859202225185546 L 30.89849281311035 5.076124044148473 C 30.898204877700458 5.188738329653354 30.982536857411038 5.283613487193504 31.094411156605236 5.296530384684999 C 32.73509666451206 5.489554198904721 34.24917980572066 5.599853268317325 36.00583961116561 5.750814991722979 L 36.04257491626687 5.754491922535177 L 35.9764521463205 15.749999700598574 L 37.301350095569006 15.749999700598574 L 36.97196283396951 2.2671415597421634 L 36.27890122316025 2.2671415597421634 L 36.27767676021662 2.25 Z"
     style="fill:#ffffff;stroke:none"
     id="path6" />
  <path
     d="M 40.13014744967222 7.398324251174927 L 39.845405112951994 8.015265980735421 L 38.94372104667127 10.032190865837038 L 38.80134987831116 10.316933202557266 L 39.39456307981163 10.601675539277494 L 39.53693424817175 10.293204674497247 L 40.15387597773224 8.893221518956125 L 40.46234684251249 9.438977664336562 L 40.74708917923272 10.008462337777019 L 41.031831515952945 9.438977664336562 L 41.36403090879321 8.845764462836087 L 41.67250177357346 9.438977664336562 L 41.957244110293686 10.008462337777019 L 42.241986447013915 9.438977664336562 L 42.55045731179416 8.845764462836087 L 42.88265670463443 9.438977664336562 L 43.167399041354656 10.008462337777019 L 43.452141378074884 9.438977664336562 L 43.76061224285513 8.869492990896106 L 44.06908310763538 9.438977664336562 L 44.377553972415626 10.008462337777019 L 44.662296309135854 9.438977664336562 L 44.9707671739161 8.845764462836087 L 45.27923803869635 9.438977664336562 L 45.587708903476596 10.008462337777019 L 45.872451240196824 9.438977664336562 L 46.18092210497707 8.845764462836087 L 46.48939296975732 9.438977664336562 L 46.797863834537566 10.008462337777019 L 47.082606171257794 9.438977664336562 L 47.39107703603804 8.845764462836087 L 47.69954790081829 9.438977664336562 L 47.98429023753852 10.008462337777019 L 48.292761102318764 9.438977664336562 L 48.60123196709901 8.845764462836087 L 48.90970283187926 9.438977664336562 L 49.194445168599486 10.008462337777019 L 49.502916033379734 9.438977664336562 L 49.81138689815998 8.845764462836087 L 50.14358629100025 9.462706192396581 L 50.428328627720475 9.984733809717 L 50.73679949250072 9.462706192396581 L 51.06899888534099 8.822035934776068 L 51.899497367441654 10.316933202557266 L 52.06559706386179 10.601675539277494 L 52.635081737302244 10.293204674497247 L 52.49271056894213 10.008462337777019 L 51.35374122206122 7.967808924615383 L 51.06899888534099 7.469509835354984 L 50.78425654862076 7.991537452675402 L 50.428328627720475 8.608479182235897 L 50.09612923488021 7.991537452675402 L 49.78765837009996 7.445781307294965 L 49.52664456143975 7.991537452675402 L 49.194445168599486 8.584750654175878 L 48.88597430381924 7.991537452675402 L 48.60123196709901 7.422052779234946 L 48.31648963037878 7.991537452675402 L 48.008018765598536 8.584750654175878 L 47.67581937275827 7.991537452675402 L 47.39107703603804 7.422052779234946 L 47.10633469931781 7.991537452675402 L 46.77413530647755 8.584750654175878 L 46.4656644416973 7.991537452675402 L 46.18092210497707 7.422052779234946 L 45.89617976825684 7.991537452675402 L 45.587708903476596 8.584750654175878 L 45.25550951063633 7.991537452675402 L 44.9707671739161 7.422052779234946 L 44.68602483719587 7.991537452675402 L 44.377553972415626 8.561022126115859 L 44.06908310763538 7.991537452675402 L 43.76061224285513 7.422052779234946 L 43.4758699061349 7.991537452675402 L 43.167399041354656 8.584750654175878 L 42.85892817657441 7.991537452675402 L 42.55045731179416 7.422052779234946 L 42.265714975073934 7.991537452675402 L 41.957244110293686 8.584750654175878 L 41.64877324551344 7.991537452675402 L 41.36403090879321 7.422052779234946 L 41.055560044012964 7.991537452675402 L 40.74708917923272 8.584750654175878 L 40.43861831445247 7.991537452675402 L 40.13014744967222 7.398324251174927 Z"
     style="fill:#ffffff;stroke:none"
     id="path8" />
  <path
     d="M 7.5 0.375 C -2.1249999403953552 0.375 -2.1249999403953552 17.625 7.5 17.625 "
     style="fill:none;stroke:#ffffff;stroke-width:1"
     id="path10" />
  <path
     d="M 7.5 0.375 L 52.635080337524414 0.375 "
     style="fill:none;stroke:#ffffff;stroke-width:1"
     id="path12" />
  <path
     d="M 7.5 17.625 L 52.635080337524414 17.625 "
     style="fill:none;stroke:#ffffff;stroke-width:1"
     id="path14" />
  <path
     d="M 60.322580337524414 0.375 L 60.322580337524414 17.625 "
     style="fill:none;stroke:#ffffff;stroke-width:1"
     id="path16" />
  <path
     d="M 52.635080337524414 0.375 C 62.26008224487305 0.375 62.26008224487305 17.625 52.635080337524414 17.625 "
     style="fill:none;stroke:#ffffff;stroke-width:1"
     id="path18" />
</svg>
