<?xml version="1.0" encoding="UTF-8" standalone="no"?>
<svg
   width="78.12047576904297"
   height="18.0"
   version="1.1"
   id="svg24"
   sodipodi:docname="bebiankh.svg"
   inkscape:version="1.1.1 (3bf5ae0d25, 2021-09-20)"
   xmlns:inkscape="http://www.inkscape.org/namespaces/inkscape"
   xmlns:sodipodi="http://sodipodi.sourceforge.net/DTD/sodipodi-0.dtd"
   xmlns="http://www.w3.org/2000/svg"
   xmlns:svg="http://www.w3.org/2000/svg">
  <defs
     id="defs28" />
  <sodipodi:namedview
     id="namedview26"
     pagecolor="#ffffff"
     bordercolor="#666666"
     borderopacity="1.0"
     inkscape:pageshadow="2"
     inkscape:pageopacity="0.0"
     inkscape:pagecheckerboard="0"
     showgrid="false"
     inkscape:zoom="17.601019"
     inkscape:cx="39.060238"
     inkscape:cy="9.0051603"
     inkscape:window-width="1920"
     inkscape:window-height="1001"
     inkscape:window-x="-9"
     inkscape:window-y="-9"
     inkscape:window-maximized="1"
     inkscape:current-layer="svg24" />
  <path
     d="M 9.619241759901131 8.704017150225534 C 9.956114020057063 8.704017150225534 10.371109904274771 8.76399089929749 10.864229412554256 8.883939352346172 C 11.905261819800385 9.137163864337834 12.8056128816014 9.495897714329981 13.565284507766846 9.960140902322616 C 14.32495613393229 10.42438504522002 15.176070395910864 11.008207138114807 16.1186263387978 11.711606226102205 C 15.211383729261659 12.170969850713034 14.168207560803758 12.400651185566062 12.989095923614554 12.400651185566062 C 12.723796640788658 12.400651185566062 12.45161535927535 12.38902331016484 12.172553033979401 12.365768514267165 C 10.653210736553286 12.239155780818948 9.3484030744964 11.792497164191472 8.258132912523058 11.025791709479964 C 7.167863705454489 10.259086254768457 6.897054622097669 9.78780828332499 7.445706139904986 9.61195779514956 C 7.994358612617073 9.436108261878905 8.441018184149321 9.207503104703234 8.78568342214457 8.92614327852732 C 8.967086681565636 8.778059511294387 9.244939142516232 8.704017150225534 9.619241759901131 8.704017150225534 ZM 16.87829701005847 11.880422885731571 L 17.743478929129175 12.070340076094354 C 17.743478929129175 12.295428318996994 17.539492171864723 12.478311680813713 17.131522476954906 12.618992071354056 C 16.899402315315747 12.634818663035082 16.657389340244983 12.642731958875595 16.405485461552153 12.642731958875595 C 15.985642480714866 12.642731958875595 15.538322115080815 12.620750051038186 15.063526274459544 12.576788145172907 C 15.977946903162229 12.464244023721587 16.582870481695206 12.232122907177656 16.87829701005847 11.880422885731571 ZM 18.207723072026578 12.196952809542571 L 18.73527358164809 12.302462147543055 C 18.791544210016596 12.471278807172421 18.594593191107748 12.640094511897015 18.144416705302472 12.808910216621609 L 17.532460253128203 12.76670629044046 C 17.968567172031815 12.569755271531616 18.193655414934454 12.379837126264063 18.207723072026578 12.196952809542571 ZM 19.009598624373172 12.407972440448313 L 19.36833342927009 12.49238029281061 C 19.283925576907794 12.731536192805375 19.030702019820904 12.851114142802757 18.608660848199875 12.851114142802757 C 18.847816748194642 12.696366095170289 18.98146331018892 12.548652830988656 19.009598624373172 12.407972440448313 ZM 19.600455500718795 12.618992071354056 C 19.938086910167982 12.71746853571325 20.163175153070622 12.87925041189178 20.27571831961717 13.10433865479442 L 19.326128548184172 12.893318068983906 C 19.509013819810434 12.808910216621609 19.600455500718795 12.71746853571325 19.600455500718795 12.618992071354056 ZM 17.405847519679988 13.864010280959864 C 18.46094662911347 13.99062205950331 19.255788352914 14.28604954277135 19.790372691081576 14.750293685668755 L 17.173725448231284 14.138336278589716 C 17.20186267222508 13.983587276052475 17.279236696041313 13.892145595144116 17.405847519679988 13.864010280959864 ZM 5.187792747046841 0.40093762696942586 C 5.848988863757863 0.40093762696942586 6.3484031042903535 0.5838216154424017 6.686035468644312 0.9495895923883535 C 7.0236668780935005 1.3153575693343054 7.129177170998758 2.198124417859453 7.0025653924553115 3.5978901976453446 C 6.875952659007095 4.997655977431236 6.8337487328259465 5.947245271411848 6.875953136459481 6.446659034491953 C 6.918156585188243 6.946073275024443 7.048285755457107 7.315357867835686 7.266340169813683 7.554513290378066 C 7.4843936292654885 7.793669667825216 7.748168406623859 8.029308176094565 8.05766402443641 8.261430247543267 C 8.367160119701346 8.49355231899197 8.212412072068878 8.70105503562468 7.5934203589913905 8.883939352346172 C 6.974429123366289 9.06682271416289 6.629762930466267 9.33763179751971 6.559423212648482 9.69636660241663 C 6.48908301737831 10.055099497504006 6.577008261466024 10.385698033311902 6.823197990006852 10.688160300030777 C 7.069388196000066 10.99062256674965 7.656726725715499 11.398594171469009 8.585214534057924 11.912075114188854 C 9.513701864947961 12.42555701181347 10.333162943564483 12.752637678443564 11.043595860097945 12.893318068983906 C 11.754030686440949 13.033998459524248 13.931053141209826 13.10433865479442 17.57466322440458 13.10433865479442 C 18.700104438917776 13.315358285700162 19.445707453086325 13.596718111876076 19.811474176719763 13.94841813332216 L 17.405847519679988 13.399766138062459 C 17.18076118658689 13.47010633333263 17.00490974350669 13.60375194042214 16.87829701005847 13.800703914235756 C 16.87829701005847 14.166472547678739 16.083455286257944 14.37749217858448 14.493772793561655 14.433763761857755 C 14.254616893566888 14.433763761857755 14.092834062483586 14.103166180954629 14.008427165026061 13.441970064243609 L 13.755202653034399 13.652989695149351 C 13.881814431577844 14.187574033316928 13.91698452921293 14.658852004760394 13.860712945939655 15.066823609479753 C 13.663760972126038 14.588511809490223 13.319094779226017 14.271981885679224 12.826715322144361 14.117233838046756 C 12.038906471985122 13.976553447506413 11.335507383997724 13.846424754689936 10.71651519346785 13.726846804692553 C 10.097523002937978 13.607269809599941 9.471497938766813 13.350529338240019 8.838438091144814 12.956624435708015 C 8.275718438792987 12.520516561899633 7.371849507814169 12.049238590456165 6.126831775660745 11.542790521377611 C 4.881814043507322 11.03634340720383 4.259305416156803 10.283705609584448 4.259305416156803 9.284877128519467 C 4.259305416156803 8.286049602359258 4.593420388785345 7.459554695196674 5.261649856590044 6.805393361936487 C 5.929879801847128 6.151231551223914 6.2639942970232845 5.366941047694864 6.2639942970232845 4.452521373896952 C 6.2639942970232845 4.002345365544058 6.207722713750011 3.5767882345547704 6.095179069751077 3.175850219655281 C 5.993352799453844 2.8130966980279646 5.689997219321334 2.6317199372143065 5.185112329353548 2.6317199372143065 C 5.131966626849421 2.6317199372143065 5.076588356989783 2.6337295343056977 5.0189770423222475 2.6377489672146734 L 3.2464102329044677 2.869871038663376 C 3.3026820549039346 2.6869874381204633 3.387089668540039 2.5181714946696765 3.4996335512651657 2.363423447037208 C 3.6403134643531225 1.9273154538657298 3.795061511985591 1.6740914193264531 3.9638776941625706 1.6037515821455712 C 3.9884963327999836 1.6899181303705768 4.083125485835245 1.733001523846176 4.247764437089777 1.733001523846176 C 4.271284696513898 1.733001523846176 4.296233016023633 1.732122295277918 4.32261082797614 1.7303637187783059 C 4.603971609056825 1.7162955842337946 4.765753485235356 1.5756155517827413 4.8079574114165045 1.308323860151339 C 4.7798216197798675 1.0410321685199366 4.6180397436013365 0.9003521360688832 4.32261082797614 0.8862840612059201 C 4.069387270889249 0.9003521360688832 3.9287073578012923 1.0410321685199366 3.9005710887122693 1.308323860151339 C 3.6754838007144013 1.5193437297832741 3.4996337899913588 1.765533697050295 3.373021295269335 2.046893523226209 C 3.3320964640294637 2.0673559388461444 3.2921017100369276 2.0775870272930157 3.2530370332917253 2.0775870272930157 C 3.1846734908983327 2.0775870272930157 3.119158190711805 2.046253737029377 3.0564913714583355 1.9835869177759076 C 3.225307553635315 1.6459552696005268 3.471497998354722 1.2977725205167625 3.7950622281641695 0.9390390286139039 C 4.118625980521232 0.5803047608509185 4.582869168513866 0.40093762696942586 5.187792747046841 0.40093762696942586 ZM 9.977946007845366 14.159437764227905 L 10.653208826743741 14.328253468952498 L 9.89353815548307 15.425557459471902 L 9.977946007845366 14.159437764227905 ZM 11.286269629270512 14.391559835676606 C 11.84898928162234 14.391559835676606 12.32378416733884 14.451348333222912 12.71065428642001 14.570927238125066 C 13.09752440550118 14.690504233217677 13.336679350591174 15.144197633295988 13.428121986404305 15.932005528550455 C 13.517959427296729 16.705992132143816 13.400721948894024 17.092986388845265 13.07640859629142 17.092986388845265 C 13.070618053757709 17.092986388845265 13.064760667889999 17.092862251224986 13.058837393593063 17.09261588579397 L 11.03304511727885 17.09261588579397 C 10.988356528882543 17.089306185856326 10.942987093384234 17.087650380982737 10.896935855879153 17.087650380982737 C 10.551564943257846 17.087650380982737 10.167861288398607 17.180747866764687 9.745823936396663 17.366940928519046 C 9.858368057847983 16.382182014355735 10.3718499554726 15.390387361836815 11.286269629270512 14.391559835676606 ZM 5.187792747046841 0.0 C 4.231169147067781 0.0 3.443361967991892 0.5345838607151904 2.8243702549144043 1.6037515821455712 C 2.613350385282469 1.9554513648654634 1.9873244855696295 2.3071511475853557 0.946292317049693 2.6588511690314407 C 0.22882448278191372 2.869871038663376 -0.08067132899566878 3.165298999383801 0.017804894772284054 3.545135051192716 L 0.03890708726380924 3.798358369553414 C 1.3753664816751086 3.6717465910099687 2.493771957832701 3.5099647148314377 3.3941234970861016 3.3130129797440135 L 5.040079482865207 3.0175852577497815 C 5.048381902400062 3.0173546482474904 5.056615568791377 3.017239343496345 5.064780004586766 3.017239343496345 C 5.5546451974053515 3.017239343496345 5.796118651280282 3.432360558965298 5.789199888759171 4.2626027511770115 C 5.782166060213108 5.106682229704753 5.4269491244939925 5.862836941597166 4.723549559054208 6.5310668868542505 C 4.020149993614424 7.199296832111335 3.661415904896083 8.166471652361876 3.6473477703515713 9.432591347605873 C 3.6473477703515713 10.459556097759878 4.136210551886389 11.19460836910933 5.11393659240841 11.637750071463774 C 6.09166167802566 12.08089177381822 7.037734535185626 12.555685704629948 7.952154686435924 13.062133773708501 C 8.866573405329065 13.568581842787054 9.387089131499744 13.962486745319058 9.513701864947961 14.243845616590201 C 9.44336166967779 15.735053554736838 9.26047830786107 16.698711938166735 8.96504986968826 17.134818857070343 C 8.472670412606604 17.134818857070343 7.614522322081965 17.064478661800173 6.390606553019116 16.92379827125983 C 6.01077121738878 16.980070809437876 5.75051335430344 17.10316567370829 5.609832486310712 17.293084773880615 C 5.469153528127526 17.48300387405294 5.497289319764163 17.69050468087611 5.69424129357778 17.91559292377875 C 5.7882960713930505 17.77973671214347 5.878469161312617 17.711806696516287 5.9647610407888685 17.711806696516287 C 5.99463093949035 17.711806696516287 6.024035799568166 17.719946304787623 6.052975621022314 17.73622552133029 C 6.165519265021248 17.799531888054396 6.446879091197162 17.831185071416453 6.897054144645284 17.831185071416453 L 8.96504986968826 17.831185071416453 C 9.066651737364214 17.811645809984256 9.162826881224358 17.801877134172933 9.253573391459145 17.801877134172933 C 9.489516991802953 17.801877134172933 9.68877028611562 17.867918348162302 9.851334229301921 18.000000776141047 C 10.048286203115538 17.98593311904892 10.21710095293536 17.929660580870873 10.357781343475702 17.831185071416453 C 10.978782653644581 17.849272877596132 11.498366392758383 17.8583158257812 11.916529696102794 17.8583158257812 C 12.474082358736627 17.8583158257812 12.85133372205558 17.842239049050068 13.048285695869197 17.810083585778262 C 13.39295188876922 17.753811047600216 13.705964898307187 17.704574247777778 13.987324724483102 17.662369366691856 L 14.704792424467398 17.89449143814056 C 14.713104870502352 17.89513122433739 14.721098378343662 17.895450162531034 14.728771038181785 17.895450162531034 C 14.889915037973028 17.895450162531034 14.91005779922074 17.754450833797048 14.789201231734465 17.47245026651953 C 14.170209041204592 17.134818857070343 14.02952865066425 16.28370459509177 14.367161015018208 14.919109390393348 L 14.367161015018208 14.919109390393348 C 14.486100133723532 14.921667580275903 14.601202445057407 14.922946197764796 14.712467949019834 14.922946197764796 C 15.825117259215483 14.922946197764796 16.55409538131412 14.795054846827687 16.899400405506203 14.539274054763013 C 18.306200491290543 14.792496656945131 19.452741281632388 15.03868734039073 20.33902468634128 15.277843240385495 L 20.486738905427682 15.024620638203377 C 20.1209702719847 14.616648078579246 19.84664522925962 14.356389738041521 19.6637618674429 14.243845616590201 L 19.6637618674429 14.243845616590201 L 20.59224824342817 14.433763761857755 C 20.74230770863311 14.490035345131028 20.8462548224276 14.518171614220051 20.90408958481164 14.518171614220051 C 21.01975910957972 14.518171614220051 20.95098304832509 14.405627492768732 20.697759491238198 14.180540204770864 C 20.641486953060152 14.025792157138396 20.23351534834079 13.723330845324293 19.473842767270575 13.273154359519014 L 19.473842767270575 13.273154359519014 L 20.761063948152763 13.526377916605906 C 20.901744338693106 12.62602685480489 19.924019253075855 11.985932223732057 17.827886781491472 11.606096888101721 C 16.73058279097207 11.352873331014829 15.738790048262691 10.86049196412363 14.852506643553802 10.12895660704721 C 13.684862457764227 9.101993766702748 11.91932947689251 8.349355969083367 9.55590579112911 7.871043214189065 C 8.303853752977238 7.786635839279153 7.607488493535902 7.4032831119233995 7.466808580447945 6.72098550957419 C 7.326128667359988 6.038687429772594 7.32964558163302 4.95193465952467 7.477359800719425 3.4607274375566117 C 7.625073542353445 1.969519857499264 7.417570825720734 0.9988280632941434 6.854850695916521 0.5486519952597018 C 6.43281095665265 0.1828839884729759 5.877125132846886 0.0 5.187792747046841 0.0 Z"
     style="fill:#ffffff;stroke:none"
     id="path2" />
  <path
     d="M 27.177865186478382 7.937876256002994 C 26.496671245133623 7.991654064440127 26.120222241250442 8.332250793733436 26.04851793344977 8.959665719745715 C 26.138148499234912 9.640860143848613 26.514597503118093 9.999383372505463 27.177865186478382 10.035235888474404 C 27.84113286983867 9.999383372505463 28.190692728124215 9.640860143848613 28.226544278576878 8.959665719745715 C 28.172766470139745 8.332250793733436 27.8232066118542 7.991654064440127 27.177865186478382 7.937876256002994 ZM 27.25853214051315 5.679180301671352 C 27.742538692303153 5.679180301671352 28.190693210882355 5.768811229525099 28.602994730734476 5.948073085232593 C 29.01529576782846 6.127334940940088 29.378299957533752 6.373819539952137 29.692007299850356 6.687527123647811 C 30.0057151249251 7.001234707343485 30.252199844626684 7.3597576946212655 30.43146145895511 7.763095602723013 C 30.610722590525395 8.16643375220383 30.700352914931468 8.592179844854769 30.700352914931468 9.040334122054901 C 30.700352914931468 9.506413933102294 30.610722590525395 9.941123154745469 30.43146145895511 10.344461786984425 C 30.252199844626684 10.747799936465242 30.0057151249251 11.101841721315509 29.692007299850356 11.406586176018948 C 29.378299957533752 11.711330630722387 29.01529576782846 11.948851980052666 28.602994730734476 12.119151189526065 C 28.190693210882355 12.289449433483185 27.742538692303153 12.374598314082675 27.25853214051315 12.374598314082675 C 26.774526312860356 12.374598314082675 26.32189131599085 12.289449433483185 25.900626908525563 12.119151189526065 C 25.479361776923067 11.948851980052666 25.116357104459635 11.711330630722387 24.8116130118248 11.406586176018948 C 24.506868074363222 11.101841721315509 24.264865160536825 10.747799936465242 24.085604149656074 10.344461786984425 C 23.906342354293347 9.941123154745469 23.8167114264396 9.506413933102294 23.8167114264396 9.040334122054901 C 23.8167114264396 8.592179844854769 23.906342354293347 8.16643375220383 24.085604149656074 7.763095602723013 C 24.264865160536825 7.3597576946212655 24.506868074363222 7.001234707343485 24.8116130118248 6.687527123647811 C 25.116357104459635 6.373819539952137 25.479361776923067 6.127334940940088 25.900626908525563 5.948073085232593 C 26.32189131599085 5.768811229525099 26.774526312860356 5.679180301671352 27.25853214051315 5.679180301671352 ZM 27.204754814834157 4.764946937561035 C 26.61319119789547 4.764946937561035 26.057480338304796 4.876985476688684 25.53762175330399 5.101062554943983 C 25.017763409682257 5.325139663371665 24.569609615240264 5.629884118075104 24.193160490667548 6.015295949226683 C 23.8167114264396 6.400708564860238 23.516448355197976 6.848862238612696 23.292371276942678 7.359757211863126 C 23.068294998255546 7.870652909250765 22.956256866455078 8.421882083655788 22.956256866455078 9.013444493699126 C 22.956256866455078 9.605007145121533 23.068294998255546 10.156236319526556 23.292371276942678 10.667132016914195 C 23.516448355197976 11.178027714301834 23.8167114264396 11.621700306316313 24.193160490667548 11.998149310199494 C 24.569609615240264 12.374598314082675 25.017763409682257 12.67486180773767 25.53762175330399 12.898938825648202 C 26.057480338304796 13.123014878042454 26.61319119789547 13.23505338699772 27.204754814834157 13.23505338699772 C 27.796317466256564 13.23505338699772 28.347546157903448 13.123014878042454 28.85844088977481 12.898938825648202 C 29.369336587162447 12.67486180773767 29.81749062298351 12.374598314082675 30.202903479996134 11.998149310199494 C 30.58831537149248 11.621700306316313 30.89305982619592 11.178027714301834 31.11713636134831 10.667132016914195 C 31.34121434477512 10.156236319526556 31.453252853730387 9.605007145121533 31.453252853730387 9.013444493699126 C 31.453252853730387 8.421882083655788 31.34121434477512 7.870652909250765 31.11713636134831 7.359757211863126 C 30.89305982619592 6.848862238612696 30.58831537149248 6.400708564860238 30.202903479996134 6.015295949226683 C 29.81749062298351 5.629884118075104 29.369336587162447 5.325139663371665 28.85844088977481 5.101062554943983 C 28.347546157903448 4.876985476688684 27.796317466256564 4.764946937561035 27.204754814834157 4.764946937561035 Z"
     style="fill:#ffffff;stroke:none"
     id="path4" />
  <path
     d="M 47.166019613084174 2.6888654184700296 C 47.14377128022114 5.927570451842399 47.11798159754015 9.166405184332305 47.09794590342682 12.405028803312959 C 47.145086598445715 12.929571508274355 47.17250456896099 13.456426945869646 47.233511791372145 13.979347706975329 C 47.269193146424804 14.25910799861469 47.45155644965946 14.519635461873731 47.41175150853296 14.805805286533515 C 47.35238667168626 14.999021727337233 47.22527307786255 15.30237668507058 47.010798669740026 15.30237668507058 C 46.96320473269626 15.30237668507058 46.911308168405526 15.287437320412618 46.8548953962558 15.25304167835119 C 46.5076457458745 15.119371230226816 46.17655491381061 14.898455569190991 45.793799777560494 14.898455569190991 C 45.7725939718433 14.898455569190991 45.751229214218476 14.899133670012024 45.72969457894514 14.900542033255705 C 45.710745114941176 14.900319289119068 45.69180446201857 14.900210736596781 45.672871915290806 14.900210736596781 C 44.945173869757966 14.900210736596781 44.229934340816946 15.061085574624402 43.50782146353301 15.131509375900597 C 43.11322317661285 15.187683191523995 42.72013951457751 15.277612612259242 42.31998495975529 15.277612612259242 C 42.30310363276682 15.277612612259242 42.28620979404283 15.277453307908354 42.269302738696815 15.277123421022447 C 42.99148663329646 15.113743416344152 43.704867200293336 14.837863524933256 44.273816697951 14.352334878435997 C 45.04836009105574 13.75026734551329 45.82538574199964 13.151287920383666 46.59837662256974 12.54728970331459 C 46.70323835909787 12.418267276826274 46.54839100560314 5.836827944519771 46.49618570102175 2.71196313957563 C 46.719463789190314 2.704263884521961 46.94274187735887 2.6965646735236986 47.166019613084174 2.6888654184700296 ZM 47.55944285419491 2.25 C 47.559360382473436 2.25 47.55927791075196 2.250002907656847 47.55919543903048 2.250008717463615 C 47.17691151941119 2.262578344544782 46.60732656656626 2.256757642323957 46.22629804981834 2.280845269145481 C 46.02259184044061 2.339799856537393 46.05808181880626 2.5679474686668695 46.06108498777508 2.731597797321116 C 46.1137276744349 5.920237517496037 46.16637036109472 9.108877281726365 46.219013047754544 12.297517398399949 C 45.37368248437855 12.943879999507343 44.53575076223745 13.600276660061098 43.68559119761438 14.240091570392433 C 43.20988056284867 14.549872273535897 42.659604389905326 14.742609391513938 42.10431004179823 14.844472540835543 C 41.856020553764715 14.841991340326151 41.605100209005 14.713498988492114 41.35778038047454 14.713498988492114 C 41.27845141752281 14.713498988492114 41.199492883445075 14.726718430069702 41.12111040685243 14.761556740858376 C 40.93037700036441 14.908022288882313 40.86463688908298 15.30885600185533 41.1198702471518 15.43164159251777 C 41.503959832686895 15.637641855036916 41.93170924048258 15.716159163201983 42.36238996287865 15.716159163201983 C 42.63431359065062 15.716159163201983 42.907405655920996 15.684859382685225 43.17141508230966 15.634584057363696 C 43.784897723570204 15.530387733699452 44.404563981725246 15.469223321596939 45.020624569168454 15.382167018269726 C 45.22324666309633 15.364556133745118 45.433685948401816 15.337286894283105 45.64087676423356 15.337286894283105 C 45.8648787708462 15.337286894283105 46.085083906281604 15.369161862190674 46.2875089844304 15.479576694631579 C 46.530790694376165 15.587458164961474 46.79946382612569 15.750000764467849 47.0703298598027 15.750000764467849 C 47.160916939650235 15.750000764467849 47.25174932000267 15.731820331644494 47.341959285568244 15.687336353875565 C 47.625835409529856 15.51022938933367 47.78978355273388 15.180493349138828 47.8589512462522 14.861364441121633 C 47.91624371676435 14.445020405418889 47.6349228063955 14.076538163633085 47.639918337080175 13.662797978692184 C 47.607633125224744 13.210487108900901 47.556199671369995 12.758907911305284 47.53600819733832 12.306133226191506 C 47.55894943363907 9.033225337217742 47.68523549070197 2.2500000110138516 47.55944285419491 2.25 Z"
     style="fill:#ffffff;stroke:none"
     id="path6" />
  <path
     d="M 55.57855003529487 2.6888654184700296 C 55.55630170243183 5.927570451842399 55.530512019750844 9.166405184332305 55.51047632563751 12.405028803312959 C 55.55761702065641 12.929571508274355 55.58503499117168 13.456426945869646 55.64604221358284 13.979347706975329 C 55.6817235686355 14.25910799861469 55.86408687187016 14.519635461873731 55.82428193074365 14.805805286533515 C 55.764917093896955 14.999021727337233 55.63780350007325 15.30237668507058 55.42332909195072 15.30237668507058 C 55.375735154906955 15.30237668507058 55.32383859061622 15.287437320412618 55.26742581846649 15.25304167835119 C 54.92017616808519 15.119371230226816 54.589085336021306 14.898455569190991 54.20633019977119 14.898455569190991 C 54.18512439405399 14.898455569190991 54.16375963642917 14.899133670012024 54.142225001155836 14.900542033255705 C 54.12327553715187 14.900319289119068 54.10433488422926 14.900210736596781 54.0854023375015 14.900210736596781 C 53.35770429196866 14.900210736596781 52.64246476302764 15.061085574624402 51.920351885743706 15.131509375900597 C 51.52575359882354 15.187683191523995 51.132669936788204 15.277612612259242 50.73251538196598 15.277612612259242 C 50.715634054977514 15.277612612259242 50.698740216253526 15.277453307908354 50.68183316090751 15.277123421022447 C 51.404017055507154 15.113743416344152 52.11739762250403 14.837863524933256 52.68634712016169 14.352334878435997 C 53.460890513266435 13.75026734551329 54.23791616421033 13.151287920383666 55.01090704478043 12.54728970331459 C 55.11576878130856 12.418267276826274 54.96092142781384 5.836827944519771 54.908716123232445 2.71196313957563 C 55.13199421140101 2.704263884521961 55.35527229956956 2.6965646735236986 55.57855003529487 2.6888654184700296 ZM 55.971973276405606 2.25 C 55.97189080468413 2.25 55.97180833296265 2.250002907656847 55.971725861241175 2.250008717463615 C 55.589441941621885 2.262578344544782 55.01985698877695 2.256757642323957 54.63882847202903 2.280845269145481 C 54.435122262651305 2.339799856537393 54.47061224101695 2.5679474686668695 54.473615409985776 2.731597797321116 C 54.52625809664559 5.920237517496037 54.578900783305414 9.108877281726365 54.63154346996524 12.297517398399949 C 53.78621290658924 12.943879999507343 52.94828118444814 13.600276660061098 52.09812161982507 14.240091570392433 C 51.62241098505936 14.549872273535897 51.07213481211602 14.742609391513938 50.51684046400892 14.844472540835543 C 50.26855097597541 14.841991340326151 50.017630631215695 14.713498988492114 49.77031080268523 14.713498988492114 C 49.6909818397335 14.713498988492114 49.61202330565577 14.726718430069702 49.533640829063124 14.761556740858376 C 49.3429074225751 14.908022288882313 49.277167311293674 15.30885600185533 49.532400669362495 15.43164159251777 C 49.91649025489759 15.637641855036916 50.344239662693276 15.716159163201983 50.774920385089345 15.716159163201983 C 51.046844012861314 15.716159163201983 51.31993607813169 15.684859382685225 51.58394550452035 15.634584057363696 C 52.1974281457809 15.530387733699452 52.81709440393594 15.469223321596939 53.43315499137915 15.382167018269726 C 53.635777085307026 15.364556133745118 53.84621637061251 15.337286894283105 54.053407186444254 15.337286894283105 C 54.27740919305689 15.337286894283105 54.4976143284923 15.369161862190674 54.700039406641096 15.479576694631579 C 54.94332111658686 15.587458164961474 55.21199424833638 15.750000764467849 55.48286028201339 15.750000764467849 C 55.57344736186093 15.750000764467849 55.66427974221337 15.731820331644494 55.75448970777894 15.687336353875565 C 56.03836583174055 15.51022938933367 56.20231397494457 15.180493349138828 56.27148166846289 14.861364441121633 C 56.32877413897504 14.445020405418889 56.047453228606194 14.076538163633085 56.05244875929087 13.662797978692184 C 56.02016354743544 13.210487108900901 55.96873009358069 12.758907911305284 55.94853861954901 12.306133226191506 C 55.971479855849765 9.033225337217742 56.097765912912664 2.2500000110138516 55.971973276405606 2.25 Z"
     style="fill:#ffffff;stroke:none"
     id="path8" />
  <path
     d="M 59.61627847449705 2.9892379897054955 C 59.89389657570006 2.9892379897054955 60.23375188542625 3.095985977015074 60.33284257215293 3.340333519869274 L 60.296360957058475 11.279334014803599 L 60.296360957058475 11.279334014803599 C 60.15555016572964 10.960512872387417 59.737251792315035 10.367342335933275 58.49480696944103 9.632436990092634 L 59.438067779250325 3.06154244747758 C 59.482319310187954 3.0145252182361735 59.48115914025699 2.9892379897054955 59.61627847449705 2.9892379897054955 ZM 60.296360957058475 11.279334014803599 L 60.296360957058475 11.279334014803599 C 60.296360957058475 11.279334014803599 60.29636113609705 11.279334014803599 60.29636113609705 11.279334014803599 L 60.296360957058475 11.279334014803599 L 60.296360957058475 11.279334014803599 ZM 59.48427100963508 2.25 C 59.27176565542148 2.25 59.07996154629773 2.280338063237631 58.94416419299463 2.317373030601139 L 57.778313636779785 10.098160711168036 C 58.39503240013815 10.520569989179059 60.08986843416607 11.67797341616124 60.02228352260773 12.683307927520042 L 60.034921139080986 15.75000086141948 L 60.895697760887955 15.73816856043225 L 60.8908705229746 3.119482909369111 C 60.63490516733954 2.427915471835376 59.99888944791192 2.25 59.48427100963508 2.25 Z"
     style="fill:#ffffff;stroke:none"
     id="path10" />
  <path
     d="M 66.13308536117182 2.913648174181388 Q 68.85753496890385 3.245472261272082 66.13308536117182 7.960867376260402 Q 63.408634768727666 3.245472261272082 66.13308536117182 2.913648174181388 ZM 66.13308536117182 2.25 Q 62.36076925911025 2.511966191372091 65.60915226227337 8.310155512064144 L 62.395697832107544 8.310155512064144 L 62.395697832107544 9.13098361591507 L 65.57422362773156 9.13098361591507 L 65.57422362773156 15.75000086141948 L 66.657017743916 15.75000086141948 L 66.657017743916 9.096054623296126 L 69.87047217408183 9.096054623296126 L 69.87047217408183 8.310155512064144 L 66.657017743916 8.310155512064144 Q 69.9054004505465 2.4945022769379706 66.13308536117182 2.25 Z"
     style="fill:#ffffff;stroke:none"
     id="path12" />
  <path
     d="M 40.9532527923584 0.375 C 31.328252851963043 0.375 31.328252851963043 17.625 40.9532527923584 17.625 "
     style="fill:none;stroke:#ffffff;stroke-width:1"
     id="path14" />
  <path
     d="M 40.9532527923584 0.375 L 69.87047290802002 0.375 "
     style="fill:none;stroke:#ffffff;stroke-width:1"
     id="path16" />
  <path
     d="M 40.9532527923584 17.625 L 69.87047290802002 17.625 "
     style="fill:none;stroke:#ffffff;stroke-width:1"
     id="path18" />
  <path
     d="M 77.55797290802002 0.375 L 77.55797290802002 17.625 "
     style="fill:none;stroke:#ffffff;stroke-width:1"
     id="path20" />
  <path
     d="M 69.87047290802002 0.375 C 79.4954719543457 0.375 79.4954719543457 17.625 69.87047290802002 17.625 "
     style="fill:none;stroke:#ffffff;stroke-width:1"
     id="path22" />
</svg>
