<?xml version="1.0" encoding="UTF-8" standalone="no"?>
<svg
   width="127.043701171875"
   height="18.0"
   version="1.1"
   id="svg44"
   sodipodi:docname="diadoumenianos.svg"
   inkscape:version="1.1.1 (3bf5ae0d25, 2021-09-20)"
   xmlns:inkscape="http://www.inkscape.org/namespaces/inkscape"
   xmlns:sodipodi="http://sodipodi.sourceforge.net/DTD/sodipodi-0.dtd"
   xmlns="http://www.w3.org/2000/svg"
   xmlns:svg="http://www.w3.org/2000/svg">
  <defs
     id="defs48" />
  <sodipodi:namedview
     id="namedview46"
     pagecolor="#ffffff"
     bordercolor="#666666"
     borderopacity="1.0"
     inkscape:pageshadow="2"
     inkscape:pageopacity="0.0"
     inkscape:pagecheckerboard="0"
     showgrid="false"
     inkscape:zoom="10.823047"
     inkscape:cx="63.521851"
     inkscape:cy="9.0085534"
     inkscape:window-width="1920"
     inkscape:window-height="1001"
     inkscape:window-x="-9"
     inkscape:window-y="-9"
     inkscape:window-maximized="1"
     inkscape:current-layer="svg44" />
  <path
     d="M 9.619241759901131 8.704017150225534 C 9.956114020057063 8.704017150225534 10.371109904274771 8.76399089929749 10.864229412554256 8.883939352346172 C 11.905261819800385 9.137163864337834 12.8056128816014 9.495897714329981 13.565284507766846 9.960140902322616 C 14.32495613393229 10.42438504522002 15.176070395910864 11.008207138114807 16.1186263387978 11.711606226102205 C 15.211383729261659 12.170969850713034 14.168207560803758 12.400651185566062 12.989095923614554 12.400651185566062 C 12.723796640788658 12.400651185566062 12.45161535927535 12.38902331016484 12.172553033979401 12.365768514267165 C 10.653210736553286 12.239155780818948 9.3484030744964 11.792497164191472 8.258132912523058 11.025791709479964 C 7.167863705454489 10.259086254768457 6.897054622097669 9.78780828332499 7.445706139904986 9.61195779514956 C 7.994358612617073 9.436108261878905 8.441018184149321 9.207503104703234 8.78568342214457 8.92614327852732 C 8.967086681565636 8.778059511294387 9.244939142516232 8.704017150225534 9.619241759901131 8.704017150225534 ZM 16.87829701005847 11.880422885731571 L 17.743478929129175 12.070340076094354 C 17.743478929129175 12.295428318996994 17.539492171864723 12.478311680813713 17.131522476954906 12.618992071354056 C 16.899402315315747 12.634818663035082 16.657389340244983 12.642731958875595 16.405485461552153 12.642731958875595 C 15.985642480714866 12.642731958875595 15.538322115080815 12.620750051038186 15.063526274459544 12.576788145172907 C 15.977946903162229 12.464244023721587 16.582870481695206 12.232122907177656 16.87829701005847 11.880422885731571 ZM 18.207723072026578 12.196952809542571 L 18.73527358164809 12.302462147543055 C 18.791544210016596 12.471278807172421 18.594593191107748 12.640094511897015 18.144416705302472 12.808910216621609 L 17.532460253128203 12.76670629044046 C 17.968567172031815 12.569755271531616 18.193655414934454 12.379837126264063 18.207723072026578 12.196952809542571 ZM 19.009598624373172 12.407972440448313 L 19.36833342927009 12.49238029281061 C 19.283925576907794 12.731536192805375 19.030702019820904 12.851114142802757 18.608660848199875 12.851114142802757 C 18.847816748194642 12.696366095170289 18.98146331018892 12.548652830988656 19.009598624373172 12.407972440448313 ZM 19.600455500718795 12.618992071354056 C 19.938086910167982 12.71746853571325 20.163175153070622 12.87925041189178 20.27571831961717 13.10433865479442 L 19.326128548184172 12.893318068983906 C 19.509013819810434 12.808910216621609 19.600455500718795 12.71746853571325 19.600455500718795 12.618992071354056 ZM 17.405847519679988 13.864010280959864 C 18.46094662911347 13.99062205950331 19.255788352914 14.28604954277135 19.790372691081576 14.750293685668755 L 17.173725448231284 14.138336278589716 C 17.20186267222508 13.983587276052475 17.279236696041313 13.892145595144116 17.405847519679988 13.864010280959864 ZM 5.187792747046841 0.40093762696942586 C 5.848988863757863 0.40093762696942586 6.3484031042903535 0.5838216154424017 6.686035468644312 0.9495895923883535 C 7.0236668780935005 1.3153575693343054 7.129177170998758 2.198124417859453 7.0025653924553115 3.5978901976453446 C 6.875952659007095 4.997655977431236 6.8337487328259465 5.947245271411848 6.875953136459481 6.446659034491953 C 6.918156585188243 6.946073275024443 7.048285755457107 7.315357867835686 7.266340169813683 7.554513290378066 C 7.4843936292654885 7.793669667825216 7.748168406623859 8.029308176094565 8.05766402443641 8.261430247543267 C 8.367160119701346 8.49355231899197 8.212412072068878 8.70105503562468 7.5934203589913905 8.883939352346172 C 6.974429123366289 9.06682271416289 6.629762930466267 9.33763179751971 6.559423212648482 9.69636660241663 C 6.48908301737831 10.055099497504006 6.577008261466024 10.385698033311902 6.823197990006852 10.688160300030777 C 7.069388196000066 10.99062256674965 7.656726725715499 11.398594171469009 8.585214534057924 11.912075114188854 C 9.513701864947961 12.42555701181347 10.333162943564483 12.752637678443564 11.043595860097945 12.893318068983906 C 11.754030686440949 13.033998459524248 13.931053141209826 13.10433865479442 17.57466322440458 13.10433865479442 C 18.700104438917776 13.315358285700162 19.445707453086325 13.596718111876076 19.811474176719763 13.94841813332216 L 17.405847519679988 13.399766138062459 C 17.18076118658689 13.47010633333263 17.00490974350669 13.60375194042214 16.87829701005847 13.800703914235756 C 16.87829701005847 14.166472547678739 16.083455286257944 14.37749217858448 14.493772793561655 14.433763761857755 C 14.254616893566888 14.433763761857755 14.092834062483586 14.103166180954629 14.008427165026061 13.441970064243609 L 13.755202653034399 13.652989695149351 C 13.881814431577844 14.187574033316928 13.91698452921293 14.658852004760394 13.860712945939655 15.066823609479753 C 13.663760972126038 14.588511809490223 13.319094779226017 14.271981885679224 12.826715322144361 14.117233838046756 C 12.038906471985122 13.976553447506413 11.335507383997724 13.846424754689936 10.71651519346785 13.726846804692553 C 10.097523002937978 13.607269809599941 9.471497938766813 13.350529338240019 8.838438091144814 12.956624435708015 C 8.275718438792987 12.520516561899633 7.371849507814169 12.049238590456165 6.126831775660745 11.542790521377611 C 4.881814043507322 11.03634340720383 4.259305416156803 10.283705609584448 4.259305416156803 9.284877128519467 C 4.259305416156803 8.286049602359258 4.593420388785345 7.459554695196674 5.261649856590044 6.805393361936487 C 5.929879801847128 6.151231551223914 6.2639942970232845 5.366941047694864 6.2639942970232845 4.452521373896952 C 6.2639942970232845 4.002345365544058 6.207722713750011 3.5767882345547704 6.095179069751077 3.175850219655281 C 5.993352799453844 2.8130966980279646 5.689997219321334 2.6317199372143065 5.185112329353548 2.6317199372143065 C 5.131966626849421 2.6317199372143065 5.076588356989783 2.6337295343056977 5.0189770423222475 2.6377489672146734 L 3.2464102329044677 2.869871038663376 C 3.3026820549039346 2.6869874381204633 3.387089668540039 2.5181714946696765 3.4996335512651657 2.363423447037208 C 3.6403134643531225 1.9273154538657298 3.795061511985591 1.6740914193264531 3.9638776941625706 1.6037515821455712 C 3.9884963327999836 1.6899181303705768 4.083125485835245 1.733001523846176 4.247764437089777 1.733001523846176 C 4.271284696513898 1.733001523846176 4.296233016023633 1.732122295277918 4.32261082797614 1.7303637187783059 C 4.603971609056825 1.7162955842337946 4.765753485235356 1.5756155517827413 4.8079574114165045 1.308323860151339 C 4.7798216197798675 1.0410321685199366 4.6180397436013365 0.9003521360688832 4.32261082797614 0.8862840612059201 C 4.069387270889249 0.9003521360688832 3.9287073578012923 1.0410321685199366 3.9005710887122693 1.308323860151339 C 3.6754838007144013 1.5193437297832741 3.4996337899913588 1.765533697050295 3.373021295269335 2.046893523226209 C 3.3320964640294637 2.0673559388461444 3.2921017100369276 2.0775870272930157 3.2530370332917253 2.0775870272930157 C 3.1846734908983327 2.0775870272930157 3.119158190711805 2.046253737029377 3.0564913714583355 1.9835869177759076 C 3.225307553635315 1.6459552696005268 3.471497998354722 1.2977725205167625 3.7950622281641695 0.9390390286139039 C 4.118625980521232 0.5803047608509185 4.582869168513866 0.40093762696942586 5.187792747046841 0.40093762696942586 ZM 9.977946007845366 14.159437764227905 L 10.653208826743741 14.328253468952498 L 9.89353815548307 15.425557459471902 L 9.977946007845366 14.159437764227905 ZM 11.286269629270512 14.391559835676606 C 11.84898928162234 14.391559835676606 12.32378416733884 14.451348333222912 12.71065428642001 14.570927238125066 C 13.09752440550118 14.690504233217677 13.336679350591174 15.144197633295988 13.428121986404305 15.932005528550455 C 13.517959427296729 16.705992132143816 13.400721948894024 17.092986388845265 13.07640859629142 17.092986388845265 C 13.070618053757709 17.092986388845265 13.064760667889999 17.092862251224986 13.058837393593063 17.09261588579397 L 11.03304511727885 17.09261588579397 C 10.988356528882543 17.089306185856326 10.942987093384234 17.087650380982737 10.896935855879153 17.087650380982737 C 10.551564943257846 17.087650380982737 10.167861288398607 17.180747866764687 9.745823936396663 17.366940928519046 C 9.858368057847983 16.382182014355735 10.3718499554726 15.390387361836815 11.286269629270512 14.391559835676606 ZM 5.187792747046841 0.0 C 4.231169147067781 0.0 3.443361967991892 0.5345838607151904 2.8243702549144043 1.6037515821455712 C 2.613350385282469 1.9554513648654634 1.9873244855696295 2.3071511475853557 0.946292317049693 2.6588511690314407 C 0.22882448278191372 2.869871038663376 -0.08067132899566878 3.165298999383801 0.017804894772284054 3.545135051192716 L 0.03890708726380924 3.798358369553414 C 1.3753664816751086 3.6717465910099687 2.493771957832701 3.5099647148314377 3.3941234970861016 3.3130129797440135 L 5.040079482865207 3.0175852577497815 C 5.048381902400062 3.0173546482474904 5.056615568791377 3.017239343496345 5.064780004586766 3.017239343496345 C 5.5546451974053515 3.017239343496345 5.796118651280282 3.432360558965298 5.789199888759171 4.2626027511770115 C 5.782166060213108 5.106682229704753 5.4269491244939925 5.862836941597166 4.723549559054208 6.5310668868542505 C 4.020149993614424 7.199296832111335 3.661415904896083 8.166471652361876 3.6473477703515713 9.432591347605873 C 3.6473477703515713 10.459556097759878 4.136210551886389 11.19460836910933 5.11393659240841 11.637750071463774 C 6.09166167802566 12.08089177381822 7.037734535185626 12.555685704629948 7.952154686435924 13.062133773708501 C 8.866573405329065 13.568581842787054 9.387089131499744 13.962486745319058 9.513701864947961 14.243845616590201 C 9.44336166967779 15.735053554736838 9.26047830786107 16.698711938166735 8.96504986968826 17.134818857070343 C 8.472670412606604 17.134818857070343 7.614522322081965 17.064478661800173 6.390606553019116 16.92379827125983 C 6.01077121738878 16.980070809437876 5.75051335430344 17.10316567370829 5.609832486310712 17.293084773880615 C 5.469153528127526 17.48300387405294 5.497289319764163 17.69050468087611 5.69424129357778 17.91559292377875 C 5.7882960713930505 17.77973671214347 5.878469161312617 17.711806696516287 5.9647610407888685 17.711806696516287 C 5.99463093949035 17.711806696516287 6.024035799568166 17.719946304787623 6.052975621022314 17.73622552133029 C 6.165519265021248 17.799531888054396 6.446879091197162 17.831185071416453 6.897054144645284 17.831185071416453 L 8.96504986968826 17.831185071416453 C 9.066651737364214 17.811645809984256 9.162826881224358 17.801877134172933 9.253573391459145 17.801877134172933 C 9.489516991802953 17.801877134172933 9.68877028611562 17.867918348162302 9.851334229301921 18.000000776141047 C 10.048286203115538 17.98593311904892 10.21710095293536 17.929660580870873 10.357781343475702 17.831185071416453 C 10.978782653644581 17.849272877596132 11.498366392758383 17.8583158257812 11.916529696102794 17.8583158257812 C 12.474082358736627 17.8583158257812 12.85133372205558 17.842239049050068 13.048285695869197 17.810083585778262 C 13.39295188876922 17.753811047600216 13.705964898307187 17.704574247777778 13.987324724483102 17.662369366691856 L 14.704792424467398 17.89449143814056 C 14.713104870502352 17.89513122433739 14.721098378343662 17.895450162531034 14.728771038181785 17.895450162531034 C 14.889915037973028 17.895450162531034 14.91005779922074 17.754450833797048 14.789201231734465 17.47245026651953 C 14.170209041204592 17.134818857070343 14.02952865066425 16.28370459509177 14.367161015018208 14.919109390393348 L 14.367161015018208 14.919109390393348 C 14.486100133723532 14.921667580275903 14.601202445057407 14.922946197764796 14.712467949019834 14.922946197764796 C 15.825117259215483 14.922946197764796 16.55409538131412 14.795054846827687 16.899400405506203 14.539274054763013 C 18.306200491290543 14.792496656945131 19.452741281632388 15.03868734039073 20.33902468634128 15.277843240385495 L 20.486738905427682 15.024620638203377 C 20.1209702719847 14.616648078579246 19.84664522925962 14.356389738041521 19.6637618674429 14.243845616590201 L 19.6637618674429 14.243845616590201 L 20.59224824342817 14.433763761857755 C 20.74230770863311 14.490035345131028 20.8462548224276 14.518171614220051 20.90408958481164 14.518171614220051 C 21.01975910957972 14.518171614220051 20.95098304832509 14.405627492768732 20.697759491238198 14.180540204770864 C 20.641486953060152 14.025792157138396 20.23351534834079 13.723330845324293 19.473842767270575 13.273154359519014 L 19.473842767270575 13.273154359519014 L 20.761063948152763 13.526377916605906 C 20.901744338693106 12.62602685480489 19.924019253075855 11.985932223732057 17.827886781491472 11.606096888101721 C 16.73058279097207 11.352873331014829 15.738790048262691 10.86049196412363 14.852506643553802 10.12895660704721 C 13.684862457764227 9.101993766702748 11.91932947689251 8.349355969083367 9.55590579112911 7.871043214189065 C 8.303853752977238 7.786635839279153 7.607488493535902 7.4032831119233995 7.466808580447945 6.72098550957419 C 7.326128667359988 6.038687429772594 7.32964558163302 4.95193465952467 7.477359800719425 3.4607274375566117 C 7.625073542353445 1.969519857499264 7.417570825720734 0.9988280632941434 6.854850695916521 0.5486519952597018 C 6.43281095665265 0.1828839884729759 5.877125132846886 0.0 5.187792747046841 0.0 Z"
     style="fill:#ffffff;stroke:none"
     id="path2" />
  <path
     d="M 27.177865186478382 7.937876256002994 C 26.496671245133623 7.991654064440127 26.120222241250442 8.332250793733436 26.04851793344977 8.959665719745715 C 26.138148499234912 9.640860143848613 26.514597503118093 9.999383372505463 27.177865186478382 10.035235888474404 C 27.84113286983867 9.999383372505463 28.190692728124215 9.640860143848613 28.226544278576878 8.959665719745715 C 28.172766470139745 8.332250793733436 27.8232066118542 7.991654064440127 27.177865186478382 7.937876256002994 ZM 27.25853214051315 5.679180301671352 C 27.742538692303153 5.679180301671352 28.190693210882355 5.768811229525099 28.602994730734476 5.948073085232593 C 29.01529576782846 6.127334940940088 29.378299957533752 6.373819539952137 29.692007299850356 6.687527123647811 C 30.0057151249251 7.001234707343485 30.252199844626684 7.3597576946212655 30.43146145895511 7.763095602723013 C 30.610722590525395 8.16643375220383 30.700352914931468 8.592179844854769 30.700352914931468 9.040334122054901 C 30.700352914931468 9.506413933102294 30.610722590525395 9.941123154745469 30.43146145895511 10.344461786984425 C 30.252199844626684 10.747799936465242 30.0057151249251 11.101841721315509 29.692007299850356 11.406586176018948 C 29.378299957533752 11.711330630722387 29.01529576782846 11.948851980052666 28.602994730734476 12.119151189526065 C 28.190693210882355 12.289449433483185 27.742538692303153 12.374598314082675 27.25853214051315 12.374598314082675 C 26.774526312860356 12.374598314082675 26.32189131599085 12.289449433483185 25.900626908525563 12.119151189526065 C 25.479361776923067 11.948851980052666 25.116357104459635 11.711330630722387 24.8116130118248 11.406586176018948 C 24.506868074363222 11.101841721315509 24.264865160536825 10.747799936465242 24.085604149656074 10.344461786984425 C 23.906342354293347 9.941123154745469 23.8167114264396 9.506413933102294 23.8167114264396 9.040334122054901 C 23.8167114264396 8.592179844854769 23.906342354293347 8.16643375220383 24.085604149656074 7.763095602723013 C 24.264865160536825 7.3597576946212655 24.506868074363222 7.001234707343485 24.8116130118248 6.687527123647811 C 25.116357104459635 6.373819539952137 25.479361776923067 6.127334940940088 25.900626908525563 5.948073085232593 C 26.32189131599085 5.768811229525099 26.774526312860356 5.679180301671352 27.25853214051315 5.679180301671352 ZM 27.204754814834157 4.764946937561035 C 26.61319119789547 4.764946937561035 26.057480338304796 4.876985476688684 25.53762175330399 5.101062554943983 C 25.017763409682257 5.325139663371665 24.569609615240264 5.629884118075104 24.193160490667548 6.015295949226683 C 23.8167114264396 6.400708564860238 23.516448355197976 6.848862238612696 23.292371276942678 7.359757211863126 C 23.068294998255546 7.870652909250765 22.956256866455078 8.421882083655788 22.956256866455078 9.013444493699126 C 22.956256866455078 9.605007145121533 23.068294998255546 10.156236319526556 23.292371276942678 10.667132016914195 C 23.516448355197976 11.178027714301834 23.8167114264396 11.621700306316313 24.193160490667548 11.998149310199494 C 24.569609615240264 12.374598314082675 25.017763409682257 12.67486180773767 25.53762175330399 12.898938825648202 C 26.057480338304796 13.123014878042454 26.61319119789547 13.23505338699772 27.204754814834157 13.23505338699772 C 27.796317466256564 13.23505338699772 28.347546157903448 13.123014878042454 28.85844088977481 12.898938825648202 C 29.369336587162447 12.67486180773767 29.81749062298351 12.374598314082675 30.202903479996134 11.998149310199494 C 30.58831537149248 11.621700306316313 30.89305982619592 11.178027714301834 31.11713636134831 10.667132016914195 C 31.34121434477512 10.156236319526556 31.453252853730387 9.605007145121533 31.453252853730387 9.013444493699126 C 31.453252853730387 8.421882083655788 31.34121434477512 7.870652909250765 31.11713636134831 7.359757211863126 C 30.89305982619592 6.848862238612696 30.58831537149248 6.400708564860238 30.202903479996134 6.015295949226683 C 29.81749062298351 5.629884118075104 29.369336587162447 5.325139663371665 28.85844088977481 5.101062554943983 C 28.347546157903448 4.876985476688684 27.796317466256564 4.764946937561035 27.204754814834157 4.764946937561035 Z"
     style="fill:#ffffff;stroke:none"
     id="path4" />
  <path
     d="M 42.29230708840437 2.25 L 42.00536688210881 2.8717037803070595 L 41.09672289550618 4.904196908233985 L 40.9532527923584 5.191137114529551 L 41.551044888807496 5.478077320825117 L 41.69451499195528 5.1672254306715875 L 42.31621877226234 3.756436083051721 L 42.62707066241587 4.306404811784889 L 42.91401086871143 4.880285224376021 L 43.200951075007 4.306404811784889 L 43.535714649018495 3.7086127153357937 L 43.846566539172024 4.306404811784889 L 44.133506745467585 4.880285224376021 L 44.420446951763154 4.306404811784889 L 44.73129884191668 3.7086127153357937 L 45.06606241592818 4.306404811784889 L 45.35300262222374 4.880285224376021 L 45.63994282851931 4.306404811784889 L 45.95079471867284 3.7325243991937573 L 46.26164660882637 4.306404811784889 L 46.5724984989799 4.880285224376021 L 46.859438705275466 4.306404811784889 L 47.170290595428995 3.7086127153357937 L 47.481142485582524 4.306404811784889 L 47.79199437573605 4.880285224376021 L 48.07893458203162 4.306404811784889 L 48.38978647218515 3.7086127153357937 L 48.70063836233868 4.306404811784889 L 49.01149025249221 4.880285224376021 L 49.29843045878778 4.306404811784889 L 49.609282348941306 3.7086127153357937 L 49.920134239094835 4.306404811784889 L 50.207074445390404 4.880285224376021 L 50.51792633554393 4.306404811784889 L 50.82877822569746 3.7086127153357937 L 51.13963011585099 4.306404811784889 L 51.42657032214655 4.880285224376021 L 51.73742221230009 4.306404811784889 L 52.04827410245362 3.7086127153357937 L 52.38303767646511 4.330316495642853 L 52.669977882760676 4.8563735405180575 L 52.980829772914205 4.330316495642853 L 53.315593346925695 3.6847010314778297 L 54.15250228195443 5.191137114529551 L 54.31988406896018 5.478077320825117 L 54.89376448155131 5.1672254306715875 L 54.750294378403524 4.880285224376021 L 53.602533553221264 2.823880412591132 L 53.315593346925695 2.3217350515738913 L 53.028653140630134 2.847792096449096 L 52.669977882760676 3.469495876756155 L 52.33521430874918 2.847792096449096 L 52.02436241859565 2.2978233677159277 L 51.76133389615805 2.847792096449096 L 51.42657032214655 3.4455841928981914 L 51.115718431993024 2.847792096449096 L 50.82877822569746 2.273911683857964 L 50.541838019401894 2.847792096449096 L 50.230986129248365 3.4455841928981914 L 49.89622255523687 2.847792096449096 L 49.609282348941306 2.273911683857964 L 49.32234214264574 2.847792096449096 L 48.98757856863425 3.4455841928981914 L 48.67672667848071 2.847792096449096 L 48.38978647218515 2.273911683857964 L 48.10284626588958 2.847792096449096 L 47.79199437573605 3.4455841928981914 L 47.45723080172456 2.847792096449096 L 47.170290595428995 2.273911683857964 L 46.883350389133426 2.847792096449096 L 46.5724984989799 3.421672509040228 L 46.26164660882637 2.847792096449096 L 45.95079471867284 2.273911683857964 L 45.66385451237727 2.847792096449096 L 45.35300262222374 3.4455841928981914 L 45.04215073207021 2.847792096449096 L 44.73129884191668 2.273911683857964 L 44.444358635621114 2.847792096449096 L 44.133506745467585 3.4455841928981914 L 43.822654855314056 2.847792096449096 L 43.535714649018495 2.273911683857964 L 43.22486275886496 2.847792096449096 L 42.91401086871143 3.4455841928981914 L 42.6031589785579 2.847792096449096 L 42.29230708840437 2.25 Z"
     style="fill:#ffffff;stroke:none"
     id="path6" />
  <path
     d="M 47.9235085491091 8.469573031179607 C 48.7290246595726 8.469573031179607 49.737289050596786 8.88337037712617 50.225175770930946 9.37125709746033 C 50.65202605213587 9.798107016596646 50.70782878958805 10.364030383243914 50.723474860191345 10.889882893301547 L 45.147270766086876 10.889882893301547 C 45.162917017724475 10.364030383243914 45.21871975517666 9.798107016596646 45.645569855347276 9.37125709746033 C 46.13345675671574 8.88337037712617 47.117992800714205 8.469573031179607 47.9235085491091 8.469573031179607 ZM 47.9235085491091 8.018730998039246 C 46.96790794177098 8.018730998039246 45.9396999068432 8.460185316403908 45.33709899056703 9.062786232680082 C 44.719023489844666 9.680861961109656 44.64897167682648 10.494553218592614 44.64897167682648 11.103439645841718 L 44.64897167682648 11.340724926441908 L 51.198045421391726 11.340724926441908 L 51.198045421391726 11.103439645841718 C 51.198045421391726 10.494553218592614 51.15172236414077 9.680861961109656 50.53364663571119 9.062786232680082 C 49.931046081503624 8.460185316403908 48.87910933748152 8.018730998039246 47.9235085491091 8.018730998039246 Z"
     style="fill:#ffffff;stroke:none"
     id="path8" />
  <path
     d="M 46.88390248961514 13.881378650665283 C 46.780090179352555 13.881378650665283 46.67578400751353 13.894231540191031 46.57098288789224 13.919937319242528 C 46.36138064864967 13.971349383675838 46.133982013362086 14.088014778641776 45.88878734409809 14.269933478682397 L 40.953253507614136 14.269933478682397 L 40.953253507614136 15.361445769443272 L 45.88878734409809 15.361445769443272 C 46.133982013362086 15.543364424225317 46.36138064864967 15.66002962684231 46.57098288789224 15.711441196259948 C 46.67578400751353 15.737147162003069 46.780090179352555 15.75000023539178 46.88390248961514 15.75000023539178 C 46.98771479987772 15.75000023539178 47.09103252442665 15.737147162003069 47.19385638739914 15.711441196259948 C 47.3995033892069 15.66002962684231 47.60515111515187 15.543364424225317 47.81079811695963 15.361445769443272 L 48.000626341439784 15.361445769443272 C 48.198364316652345 15.543364424225317 48.40203442387991 15.66002962684231 48.61163666312248 15.711441196259948 C 48.71643742067516 15.737147162003069 48.821238178227844 15.75000023539178 48.926038935780525 15.75000023539178 C 49.030839693333206 15.75000023539178 49.13564045088589 15.737147162003069 49.24044120843857 15.711441196259948 C 49.45004344768114 15.66002962684231 49.673487569671124 15.543364424225317 49.910772850271314 15.361445769443272 L 54.89376374287531 15.361445769443272 L 54.89376374287531 14.269933478682397 L 49.910772850271314 14.269933478682397 C 49.673487569671124 14.088014778641776 49.45004344768114 13.971349383675838 49.24044120843857 13.919937319242528 C 49.13564045088589 13.894231540191031 49.030839693333206 13.881378650665283 48.926038935780525 13.881378650665283 C 48.821238178227844 13.881378650665283 48.71643742067516 13.894231540191031 48.61163666312248 13.919937319242528 C 48.40203442387991 13.971349383675838 48.198364316652345 14.088014778641776 48.000626341439784 14.269933478682397 L 47.81079811695963 14.269933478682397 C 47.60515111515187 14.088014778641776 47.3995033892069 13.971349383675838 47.19385638739914 13.919937319242528 C 47.09103252442665 13.894231540191031 46.98771479987772 13.881378650665283 46.88390248961514 13.881378650665283 Z"
     style="fill:#ffffff;stroke:none"
     id="path10" />
  <path
     d="M 58.231729333566875 2.9892379897054955 C 58.509347434769886 2.9892379897054955 58.849202744496075 3.095985977015074 58.94829343122275 3.340333519869274 L 58.9118118161283 11.279334014803599 L 58.9118118161283 11.279334014803599 C 58.77100102479947 10.960512872387417 58.35270265138486 10.367342335933275 57.11025782851085 9.632436990092634 L 58.05351863832015 3.06154244747758 C 58.09777016925778 3.0145252182361735 58.096609999326816 2.9892379897054955 58.231729333566875 2.9892379897054955 ZM 58.9118118161283 11.279334014803599 L 58.9118118161283 11.279334014803599 C 58.9118118161283 11.279334014803599 58.91181199516687 11.279334014803599 58.91181199516687 11.279334014803599 L 58.9118118161283 11.279334014803599 L 58.9118118161283 11.279334014803599 ZM 58.099721868704904 2.25 C 57.88721651449131 2.25 57.695412405367556 2.280338063237631 57.55961505206445 2.317373030601139 L 56.39376449584961 10.098160711168036 C 57.01048325920797 10.520569989179059 58.705319293235895 11.67797341616124 58.637734381677554 12.683307927520042 L 58.65037199815081 15.75000086141948 L 59.51114861995778 15.73816856043225 L 59.506321382044426 3.119482909369111 C 59.250356026409364 2.427915471835376 58.614340306981745 2.25 58.099721868704904 2.25 Z"
     style="fill:#ffffff;stroke:none"
     id="path12" />
  <path
     d="M 62.849113528894634 2.9892379897054955 C 63.126731630097645 2.9892379897054955 63.466586939823834 3.095985977015074 63.56567762655051 3.340333519869274 L 63.52919601145606 11.279334014803599 L 63.52919601145606 11.279334014803599 C 63.388385220127226 10.960512872387417 62.97008684671262 10.367342335933275 61.72764202383861 9.632436990092634 L 62.67090283364791 3.06154244747758 C 62.71515436458554 3.0145252182361735 62.713994194654575 2.9892379897054955 62.849113528894634 2.9892379897054955 ZM 63.52919601145606 11.279334014803599 L 63.52919601145606 11.279334014803599 C 63.52919601145606 11.279334014803599 63.52919619049463 11.279334014803599 63.52919619049463 11.279334014803599 L 63.52919601145606 11.279334014803599 L 63.52919601145606 11.279334014803599 ZM 62.71710606403266 2.25 C 62.504600709819066 2.25 62.312796600695314 2.280338063237631 62.17699924739221 2.317373030601139 L 61.01114869117737 10.098160711168036 C 61.62786745453573 10.520569989179059 63.322703488563654 11.67797341616124 63.25511857700531 12.683307927520042 L 63.26775619347857 15.75000086141948 L 64.12853281528554 15.73816856043225 L 64.12370557737218 3.119482909369111 C 63.86774022173712 2.427915471835376 63.231724502309504 2.25 62.71710606403266 2.25 Z"
     style="fill:#ffffff;stroke:none"
     id="path14" />
  <path
     d="M 72.20661177672446 2.7008420331403613 C 73.01212788718796 2.7008420331403613 74.02039227821214 3.114639379086924 74.5082789985463 3.602526099421084 C 74.93512927975122 4.0293760185574 74.9909320172034 4.595299385204669 75.0065780878067 5.121151895262301 L 69.43037399370223 5.121151895262301 C 69.44602024533984 4.595299385204669 69.50182298279202 4.0293760185574 69.92867308296263 3.602526099421084 C 70.41655998433109 3.114639379086924 71.40109602832956 2.7008420331403613 72.20661177672446 2.7008420331403613 ZM 72.20661177672446 2.25 C 71.25101116938635 2.25 70.22280313445856 2.691454318364663 69.62020221818238 3.2940552346408367 C 69.00212671746002 3.9121309630704104 68.93207490444183 4.725822220553368 68.93207490444183 5.334708647802472 L 68.93207490444183 5.571993928402662 L 75.48114864900708 5.571993928402662 L 75.48114864900708 5.334708647802472 C 75.48114864900708 4.725822220553368 75.43482559175612 3.9121309630704104 74.81674986332655 3.2940552346408367 C 74.21414930911898 2.691454318364663 73.16221256509688 2.25 72.20661177672446 2.25 Z"
     style="fill:#ffffff;stroke:none"
     id="path16" />
  <path
     d="M 67.77809277040161 9.736242055892944 C 67.69456843128543 9.736242055892944 67.61104391113496 9.74383518470243 67.52751957201879 9.751428313511918 C 66.32021208423879 9.880511504687517 65.4621884905799 11.10300523594318 65.65201671364572 12.287533313251096 C 65.73554113337873 13.16833634001135 66.28224643029105 13.661889796073467 66.88210359068285 14.147849949363447 C 68.6664889188997 15.241260565817356 68.16534234109974 14.838824570609248 69.96491400330943 15.75000026535514 L 70.25345299141573 15.21088807886602 C 68.11219048893491 14.20859492326612 67.85402416881425 14.049139185737303 67.18582873174765 13.608737762874327 C 66.63912351403785 13.16833634001135 66.20631512239555 12.68237618672137 66.2442807763433 11.945842654014264 C 66.22909453286763 11.43710295447648 66.53281971919102 10.913177011463027 66.874510468945 10.662603813080203 C 67.14786312305849 10.457589299865807 67.49714708506745 10.336099261543312 67.83883792533858 10.336099261543312 C 68.09700424545925 10.336099261543312 68.33998432210423 10.39684428070456 68.55259191179789 10.548706896495542 C 69.09170409828701 10.814466338354034 69.38783602709684 11.695269274597138 68.99299333466087 12.249567704561926 C 68.81075841295285 12.51532732745472 68.48425381615738 12.697562430197038 68.15774921936192 12.697562430197038 C 67.9982934818331 12.697562430197038 67.83883792533858 12.652003518735732 67.70216155302327 12.55329293614389 C 67.42880880839265 12.401430320352908 67.22379434043683 11.869911255601622 67.50474020680528 11.573779326791794 C 67.3756569562278 11.43710295447648 67.19342185348549 11.27005409520983 67.05674557168733 11.27005409520983 C 66.96562802031616 11.27005409520983 66.89728983415851 11.338392190850335 66.85173110373151 11.497847928379151 C 66.54800596266669 12.226788339348424 67.03396620647382 13.054439332909539 67.76290652692595 13.251860860161827 C 67.89198977750343 13.289826287816695 68.0210730280809 13.312605834064499 68.15015609762408 13.312605834064499 C 68.98540039395733 13.312605834064499 69.75989953535361 12.614037910046562 69.75989953535361 11.748421307796278 C 69.83583075273195 10.738535120975694 69.03095912438434 9.81217334681647 68.0210730280809 9.751428313511918 C 67.94514162966826 9.74383518470243 67.86161729055209 9.736242055892944 67.77809277040161 9.736242055892944 Z"
     style="fill:#ffffff;stroke:none"
     id="path18" />
  <path
     d="M 75.05646404982205 10.518334150314331 L 75.04127780634639 10.525927279123817 L 77.75961792297119 15.734813672132447 L 78.7846906248189 15.734813672132447 L 76.06635014612549 10.518334150314331 ZM 72.77852544657738 10.525927279123817 L 71.75345301628113 10.533520407933304 L 74.47179313290593 15.749999915608115 L 75.49686547268503 15.742406974904583 L 72.77852544657738 10.525927279123817 Z"
     style="fill:#ffffff;stroke:none"
     id="path20" />
  <path
     d="M 93.66758068278432 4.029639604501426 L 93.66758068278432 5.785550680942833 L 80.73553289007396 5.785550680942833 L 80.73553289007396 4.029639604501426 ZM 80.782989946194 2.25 L 80.782989946194 3.578797571361065 L 80.2846908569336 3.578797571361065 L 80.2846908569336 6.236392714083195 L 94.11842271592468 6.236392714083195 L 94.11842271592468 3.578797571361065 L 93.71503773890436 3.578797571361065 L 93.71503773890436 2.25 L 93.264195705764 2.25 L 93.264195705764 3.578797571361065 L 92.1489548869431 3.578797571361065 L 92.1489548869431 2.25 L 91.69811285380274 2.25 L 91.69811285380274 3.578797571361065 L 90.58287203498185 3.578797571361065 L 90.58287203498185 2.25 L 90.13203000184149 2.25 L 90.13203000184149 3.578797571361065 L 89.04051771108061 3.578797571361065 L 89.04051771108061 2.25 L 88.56594714988023 2.25 L 88.56594714988023 3.578797571361065 L 87.47443485911936 3.578797571361065 L 87.47443485911936 2.25 L 87.023592825979 2.25 L 87.023592825979 3.578797571361065 L 85.9083520071581 3.578797571361065 L 85.9083520071581 2.25 L 85.45750997401774 2.25 L 85.45750997401774 3.578797571361065 L 84.34226915519685 3.578797571361065 L 84.34226915519685 2.25 L 83.89142712205648 2.25 L 83.89142712205648 3.578797571361065 L 82.79991483129561 3.578797571361065 L 82.79991483129561 2.25 L 82.34907279815525 2.25 L 82.34907279815525 3.578797571361065 L 81.23383197933435 3.578797571361065 L 81.23383197933435 2.25 Z"
     style="fill:#ffffff;stroke:none"
     id="path22" />
  <path
     d="M 81.61348842829466 12.54664921760559 L 81.32874609157443 13.163590947166085 L 80.42706202529371 15.180515832267702 L 80.2846908569336 15.46525816898793 L 80.87790405843407 15.750000505708158 L 81.02027522679418 15.44152964092791 L 81.63721695635468 14.041546485386789 L 81.94568782113492 14.587302630767226 L 82.23043015785515 15.156787304207683 L 82.51517249457538 14.587302630767226 L 82.84737188741565 13.99408942926675 L 83.1558427521959 14.587302630767226 L 83.44058508891612 15.156787304207683 L 83.72532742563635 14.587302630767226 L 84.0337982904166 13.99408942926675 L 84.36599768325686 14.587302630767226 L 84.65074001997709 15.156787304207683 L 84.93548235669732 14.587302630767226 L 85.24395322147757 14.01781795732677 L 85.55242408625782 14.587302630767226 L 85.86089495103806 15.156787304207683 L 86.14563728775829 14.587302630767226 L 86.45410815253854 13.99408942926675 L 86.76257901731879 14.587302630767226 L 87.07104988209903 15.156787304207683 L 87.35579221881926 14.587302630767226 L 87.66426308359951 13.99408942926675 L 87.97273394837976 14.587302630767226 L 88.28120481316 15.156787304207683 L 88.56594714988023 14.587302630767226 L 88.87441801466048 13.99408942926675 L 89.18288887944072 14.587302630767226 L 89.46763121616095 15.156787304207683 L 89.7761020809412 14.587302630767226 L 90.08457294572145 13.99408942926675 L 90.3930438105017 14.587302630767226 L 90.67778614722192 15.156787304207683 L 90.98625701200217 14.587302630767226 L 91.29472787678242 13.99408942926675 L 91.62692726962268 14.611031158827245 L 91.91166960634291 15.133058776147664 L 92.22014047112316 14.611031158827245 L 92.55233986396343 13.970360901206732 L 93.38283834606409 15.46525816898793 L 93.54893804248422 15.750000505708158 L 94.11842271592468 15.44152964092791 L 93.97605154756457 15.156787304207683 L 92.83708220068365 13.116133891046047 L 92.55233986396343 12.617834801785648 L 92.2675975272432 13.139862419106066 L 91.91166960634291 13.75680414866656 L 91.57947021350265 13.139862419106066 L 91.2709993487224 12.594106273725629 L 91.00998554006219 13.139862419106066 L 90.67778614722192 13.733075620606542 L 90.36931528244168 13.139862419106066 L 90.08457294572145 12.57037774566561 L 89.79983060900122 13.139862419106066 L 89.49135974422097 13.733075620606542 L 89.1591603513807 13.139862419106066 L 88.87441801466048 12.57037774566561 L 88.58967567794025 13.139862419106066 L 88.25747628509998 13.733075620606542 L 87.94900542031974 13.139862419106066 L 87.66426308359951 12.57037774566561 L 87.37952074687928 13.139862419106066 L 87.07104988209903 13.733075620606542 L 86.73885048925877 13.139862419106066 L 86.45410815253854 12.57037774566561 L 86.16936581581831 13.139862419106066 L 85.86089495103806 13.709347092546523 L 85.55242408625782 13.139862419106066 L 85.24395322147757 12.57037774566561 L 84.95921088475734 13.139862419106066 L 84.65074001997709 13.733075620606542 L 84.34226915519685 13.139862419106066 L 84.0337982904166 12.57037774566561 L 83.74905595369637 13.139862419106066 L 83.44058508891612 13.733075620606542 L 83.13211422413588 13.139862419106066 L 82.84737188741565 12.57037774566561 L 82.5389010226354 13.139862419106066 L 82.23043015785515 13.733075620606542 L 81.9219592930749 13.139862419106066 L 81.61348842829466 12.54664921760559 Z"
     style="fill:#ffffff;stroke:none"
     id="path24" />
  <path
     d="M 97.45638686911985 2.9892379897054955 C 97.73400497032286 2.9892379897054955 98.07386028004905 3.095985977015074 98.17295096677573 3.340333519869274 L 98.13646935168128 11.279334014803599 L 98.13646935168128 11.279334014803599 C 97.99565856035244 10.960512872387417 97.57736018693784 10.367342335933275 96.33491536406383 9.632436990092634 L 97.27817617387313 3.06154244747758 C 97.32242770481076 3.0145252182361735 97.3212675348798 2.9892379897054955 97.45638686911985 2.9892379897054955 ZM 98.13646935168128 11.279334014803599 L 98.13646935168128 11.279334014803599 C 98.13646935168128 11.279334014803599 98.13646953071985 11.279334014803599 98.13646953071985 11.279334014803599 L 98.13646935168128 11.279334014803599 L 98.13646935168128 11.279334014803599 ZM 97.32437940425788 2.25 C 97.11187405004428 2.25 96.92006994092053 2.280338063237631 96.78427258761742 2.317373030601139 L 95.61842203140259 10.098160711168036 C 96.23514079476095 10.520569989179059 97.92997682878887 11.67797341616124 97.86239191723054 12.683307927520042 L 97.8750295337038 15.75000086141948 L 98.73580615551076 15.73816856043225 L 98.7309789175974 3.119482909369111 C 98.47501356196234 2.427915471835376 97.83899784253472 2.25 97.32437940425788 2.25 Z"
     style="fill:#ffffff;stroke:none"
     id="path26" />
  <path
     d="M 102.07377106444761 2.9892379897054955 C 102.35138916565062 2.9892379897054955 102.6912444753768 3.095985977015074 102.79033516210349 3.340333519869274 L 102.75385354700904 11.279334014803599 L 102.75385354700904 11.279334014803599 C 102.6130427556802 10.960512872387417 102.1947443822656 10.367342335933275 100.95229955939159 9.632436990092634 L 101.8955603692009 3.06154244747758 C 101.93981190013852 3.0145252182361735 101.93865173020755 2.9892379897054955 102.07377106444761 2.9892379897054955 ZM 102.75385354700904 11.279334014803599 L 102.75385354700904 11.279334014803599 C 102.75385354700904 11.279334014803599 102.75385372604761 11.279334014803599 102.75385372604761 11.279334014803599 L 102.75385354700904 11.279334014803599 L 102.75385354700904 11.279334014803599 ZM 101.94176359958564 2.25 C 101.72925824537204 2.25 101.53745413624829 2.280338063237631 101.40165678294518 2.317373030601139 L 100.23580622673035 10.098160711168036 C 100.85252499008871 10.520569989179059 102.54736102411663 11.67797341616124 102.4797761125583 12.683307927520042 L 102.49241372903155 15.75000086141948 L 103.35319035083852 15.73816856043225 L 103.34836311292516 3.119482909369111 C 103.0923977572901 2.427915471835376 102.45638203786248 2.25 101.94176359958564 2.25 Z"
     style="fill:#ffffff;stroke:none"
     id="path28" />
  <path
     d="M 106.19224471810408 2.25 L 105.90530451180851 2.8717037803070595 L 104.99666052520588 4.904196908233985 L 104.8531904220581 5.191137114529551 L 105.4509825185072 5.478077320825117 L 105.59445262165498 5.1672254306715875 L 106.21615640196204 3.756436083051721 L 106.52700829211557 4.306404811784889 L 106.81394849841114 4.880285224376021 L 107.1008887047067 4.306404811784889 L 107.4356522787182 3.7086127153357937 L 107.74650416887172 4.306404811784889 L 108.03344437516729 4.880285224376021 L 108.32038458146286 4.306404811784889 L 108.63123647161639 3.7086127153357937 L 108.96600004562788 4.306404811784889 L 109.25294025192345 4.880285224376021 L 109.53988045821902 4.306404811784889 L 109.85073234837255 3.7325243991937573 L 110.16158423852607 4.306404811784889 L 110.4724361286796 4.880285224376021 L 110.75937633497517 4.306404811784889 L 111.0702282251287 3.7086127153357937 L 111.38108011528223 4.306404811784889 L 111.69193200543576 4.880285224376021 L 111.97887221173133 4.306404811784889 L 112.28972410188486 3.7086127153357937 L 112.60057599203839 4.306404811784889 L 112.91142788219192 4.880285224376021 L 113.19836808848748 4.306404811784889 L 113.50921997864101 3.7086127153357937 L 113.82007186879454 4.306404811784889 L 114.10701207509011 4.880285224376021 L 114.41786396524364 4.306404811784889 L 114.72871585539717 3.7086127153357937 L 115.0395677455507 4.306404811784889 L 115.32650795184627 4.880285224376021 L 115.6373598419998 4.306404811784889 L 115.94821173215333 3.7086127153357937 L 116.28297530616481 4.330316495642853 L 116.56991551246038 4.8563735405180575 L 116.88076740261391 4.330316495642853 L 117.2155309766254 3.6847010314778297 L 118.05243991165413 5.191137114529551 L 118.21982169865989 5.478077320825117 L 118.79370211125102 5.1672254306715875 L 118.65023200810323 4.880285224376021 L 117.50247118292097 2.823880412591132 L 117.2155309766254 2.3217350515738913 L 116.92859077032983 2.847792096449096 L 116.56991551246038 3.469495876756155 L 116.2351519384489 2.847792096449096 L 115.92430004829535 2.2978233677159277 L 115.66127152585776 2.847792096449096 L 115.32650795184627 3.4455841928981914 L 115.01565606169274 2.847792096449096 L 114.72871585539717 2.273911683857964 L 114.4417756491016 2.847792096449096 L 114.13092375894807 3.4455841928981914 L 113.79616018493658 2.847792096449096 L 113.50921997864101 2.273911683857964 L 113.22227977234544 2.847792096449096 L 112.88751619833396 3.4455841928981914 L 112.57666430818043 2.847792096449096 L 112.28972410188486 2.273911683857964 L 112.00278389558929 2.847792096449096 L 111.69193200543576 3.4455841928981914 L 111.35716843142427 2.847792096449096 L 111.0702282251287 2.273911683857964 L 110.78328801883313 2.847792096449096 L 110.4724361286796 3.421672509040228 L 110.16158423852607 2.847792096449096 L 109.85073234837255 2.273911683857964 L 109.56379214207698 2.847792096449096 L 109.25294025192345 3.4455841928981914 L 108.94208836176992 2.847792096449096 L 108.63123647161639 2.273911683857964 L 108.34429626532082 2.847792096449096 L 108.03344437516729 3.4455841928981914 L 107.72259248501376 2.847792096449096 L 107.4356522787182 2.273911683857964 L 107.12480038856467 2.847792096449096 L 106.81394849841114 3.4455841928981914 L 106.50309660825761 2.847792096449096 L 106.19224471810408 2.25 Z"
     style="fill:#ffffff;stroke:none"
     id="path30" />
  <path
     d="M 110.78384011931485 13.881378650665283 C 110.68002780905226 13.881378650665283 110.57572163721323 13.894231540191031 110.47092051759195 13.919937319242528 C 110.26131827834938 13.971349383675838 110.0339196430618 14.088014778641776 109.7887249737978 14.269933478682397 L 104.85319113731384 14.269933478682397 L 104.85319113731384 15.361445769443272 L 109.7887249737978 15.361445769443272 C 110.0339196430618 15.543364424225317 110.26131827834938 15.66002962684231 110.47092051759195 15.711441196259948 C 110.57572163721323 15.737147162003069 110.68002780905226 15.75000023539178 110.78384011931485 15.75000023539178 C 110.88765242957743 15.75000023539178 110.99097015412636 15.737147162003069 111.09379401709884 15.711441196259948 C 111.2994410189066 15.66002962684231 111.50508874485158 15.543364424225317 111.71073574665934 15.361445769443272 L 111.90056397113949 15.361445769443272 C 112.09830194635205 15.543364424225317 112.30197205357962 15.66002962684231 112.51157429282219 15.711441196259948 C 112.61637505037487 15.737147162003069 112.72117580792755 15.75000023539178 112.82597656548023 15.75000023539178 C 112.93077732303291 15.75000023539178 113.0355780805856 15.737147162003069 113.14037883813828 15.711441196259948 C 113.34998107738085 15.66002962684231 113.57342519937083 15.543364424225317 113.81071047997102 15.361445769443272 L 118.79370137257501 15.361445769443272 L 118.79370137257501 14.269933478682397 L 113.81071047997102 14.269933478682397 C 113.57342519937083 14.088014778641776 113.34998107738085 13.971349383675838 113.14037883813828 13.919937319242528 C 113.0355780805856 13.894231540191031 112.93077732303291 13.881378650665283 112.82597656548023 13.881378650665283 C 112.72117580792755 13.881378650665283 112.61637505037487 13.894231540191031 112.51157429282219 13.919937319242528 C 112.30197205357962 13.971349383675838 112.09830194635205 14.088014778641776 111.90056397113949 14.269933478682397 L 111.71073574665934 14.269933478682397 C 111.50508874485158 14.088014778641776 111.2994410189066 13.971349383675838 111.09379401709884 13.919937319242528 C 110.99097015412636 13.894231540191031 110.88765242957743 13.881378650665283 110.78384011931485 13.881378650665283 Z"
     style="fill:#ffffff;stroke:none"
     id="path32" />
  <path
     d="M 40.9532527923584 0.375 C 31.328252851963043 0.375 31.328252851963043 17.625 40.9532527923584 17.625 "
     style="fill:none;stroke:#ffffff;stroke-width:1"
     id="path34" />
  <path
     d="M 40.9532527923584 0.375 L 118.79369926452637 0.375 "
     style="fill:none;stroke:#ffffff;stroke-width:1"
     id="path36" />
  <path
     d="M 40.9532527923584 17.625 L 118.79369926452637 17.625 "
     style="fill:none;stroke:#ffffff;stroke-width:1"
     id="path38" />
  <path
     d="M 126.48119926452637 0.375 L 126.48119926452637 17.625 "
     style="fill:none;stroke:#ffffff;stroke-width:1"
     id="path40" />
  <path
     d="M 118.79369926452637 0.375 C 128.4186954498291 0.375 128.4186954498291 17.625 118.79369926452637 17.625 "
     style="fill:none;stroke:#ffffff;stroke-width:1"
     id="path42" />
</svg>
