<?xml version="1.0" encoding="UTF-8" standalone="no"?>
<svg
   width="74.06168365478516"
   height="18.0"
   version="1.1"
   id="svg12"
   sodipodi:docname="djedmesu.svg"
   inkscape:version="1.1.1 (3bf5ae0d25, 2021-09-20)"
   xmlns:inkscape="http://www.inkscape.org/namespaces/inkscape"
   xmlns:sodipodi="http://sodipodi.sourceforge.net/DTD/sodipodi-0.dtd"
   xmlns="http://www.w3.org/2000/svg"
   xmlns:svg="http://www.w3.org/2000/svg">
  <defs
     id="defs16" />
  <sodipodi:namedview
     id="namedview14"
     pagecolor="#ffffff"
     bordercolor="#666666"
     borderopacity="1.0"
     inkscape:pageshadow="2"
     inkscape:pageopacity="0.0"
     inkscape:pagecheckerboard="0"
     showgrid="false"
     inkscape:zoom="18.565605"
     inkscape:cx="37.030842"
     inkscape:cy="9.0220596"
     inkscape:window-width="1920"
     inkscape:window-height="1001"
     inkscape:window-x="-9"
     inkscape:window-y="-9"
     inkscape:window-maximized="1"
     inkscape:current-layer="svg12" />
  <path
     d="M 22.77966110174755 0.5684490592972326 Q 22.633638086057772 0.6049545148491455 22.633638086057772 0.696219735092747 Q 22.633638086057772 0.7874840005506465 22.72490223216746 0.8422427507825265 Q 22.76140750869705 0.864146310549385 22.796453872674018 0.864146310549385 Q 22.84902246385376 0.864146310549385 22.898304682647282 0.8148638530594374 Q 22.980442987017422 0.7327252503187663 22.92568411743733 0.6505866475780953 Q 22.870925247857237 0.5684490592972326 22.77966110174755 0.5684490592972326 ZM 2.5609985348740345 0.46936116044907683 Q 2.359843567091113 0.46936116044907683 2.1720992805818096 0.7509784853246271 Q 2.2816167810455696 0.9335079710261279 2.5189051363271635 0.988266721258008 Q 2.5554108902496084 0.9973931597386192 2.589888440644617 0.9973931597386192 Q 2.762277147405363 0.9973931597386192 2.8839638690337397 0.7692307655447858 Q 2.8839638690337397 0.5136903090653525 2.6284226367909236 0.47718380921657794 Q 2.5945244026205927 0.46936116044907683 2.5609985348740345 0.46936116044907683 ZM 1.241199810550572 0.7874840005506465 Q 1.186441060318692 0.9152547360202673 1.2777053257765913 1.0247722364840275 L 0.5110819274186749 1.0977842217217681 Q 0.4928296471985162 0.9335079710261279 1.241199810550572 0.7874840005506465 ZM 1.9876164226822657 1.222624719872005 Q 1.9876164226822657 1.222624719872005 1.9876164226822657 1.222624719872005 L 1.9876164226822657 1.222624719872005 L 1.9876164226822657 1.222624719872005 ZM 2.125909851373434 1.2203396789907357 Q 2.284224539494109 1.2203396789907357 2.382007723680506 1.2529337952403716 Q 2.418033220394854 1.2649421350142038 2.3813761329386445 1.2649421350142038 Q 2.314213403607673 1.2649421350142038 2.0030587685814902 1.2246304859354444 L 2.0030585298850645 1.2246304859354444 Q 2.068468511363622 1.2203396789907357 2.125909851373434 1.2203396789907357 ZM 5.49470864855246 2.472162196565138 Q 5.540779445637364 2.472162196565138 5.621903767591998 2.539765559497574 Q 7.100390859290249 3.7627121350422854 9.290743732922557 5.405476312873666 Q 11.481095651769165 7.048240490705046 11.754889044883926 7.723598609145255 Q 9.966101851362767 7.468058331688141 8.697522964066787 6.318122547899043 Q 7.428944554163657 5.168188196288498 6.488918406955382 4.082139033390444 Q 5.548891782354257 2.996088915706688 5.439374520586923 2.667536414315408 Q 5.416389009597399 2.472162196565138 5.49470864855246 2.472162196565138 ZM 5.554353633962448 1.6040624432514505 Q 5.819804109613288 1.6040624432514505 6.059973769447039 1.7001303549242361 Q 11.736636406619128 6.007822446076134 12.558018495534819 7.303781245555012 Q 13.324641714870417 8.709256829408373 13.561929831455585 9.457627410479173 Q 13.461538888820648 9.568057924770454 13.322497266183765 9.568057924770454 Q 13.208735504578268 9.568057924770454 13.069100960020451 9.49413364179447 L 12.320730378949651 7.979140318780923 Q 11.754889044883926 6.683181519302044 9.555411284297772 5.104303007576006 Q 7.355932568925916 3.5254240184571173 6.370273871269948 2.603650986906491 Q 5.791486120478193 2.0623774824348997 5.483335241270446 2.0623774824348997 Q 5.266714415990388 2.0623774824348997 5.183833288344107 2.3298573550953035 Q 5.042689704984308 2.7853667564934774 4.685065172449792 2.7853667564934774 Q 4.533956013325552 2.7853667564934774 4.344197606377917 2.704041929541427 Q 4.508475169903898 1.8461543253997177 5.0560624335262725 1.6818780747040774 Q 5.315446678219568 1.6040624432514505 5.554353633962448 1.6040624432514505 ZM 6.023468492917445 8.033898710968165 Q 6.899609451413228 9.439374772214377 6.735331887887247 10.863103471725385 Q 6.5710557565398195 10.863103471725385 6.42503274085004 11.100391588310554 Q 6.365295618619811 10.697168400220765 6.0611810959671955 10.697168400220765 Q 5.99359993180233 10.697168400220765 5.913950753757259 10.717080456035607 Q 6.2972618860322065 9.311604394789393 6.023468492917445 8.033898710968165 ZM 2.768605228341677 0.3457626296377467 Q 2.854758883981503 0.3457626296377467 2.920469384259759 0.35853969124988744 Q 3.2490218856510396 0.42242505898469784 3.3037807552311325 0.5958278973462152 Q 3.3423147126810133 0.7178524937648807 3.3808493862201705 0.7178524937648807 Q 3.3970742983503825 0.7178524937648807 3.4132992104805946 0.696219735092747 Q 3.4680568865785597 0.6232077498550063 3.4863100022362077 0.5319425296114048 Q 3.887874488865229 1.061277632361834 3.5410688718163006 2.101695796338959 Q 3.1942632547673724 3.14211288618217 4.654497708200826 3.3428945327556163 Q 6.0052153772597965 6.445893402716877 7.556713976802937 8.06127814575821 Q 9.10821353113178 9.676662888799545 8.852672776281816 11.100391588310554 Q 8.262843406239485 10.66180027346223 7.547702231954776 10.66180027346223 Q 7.399740523897122 10.66180027346223 7.2464148297657305 10.680575179506013 Q 7.301173699345823 9.384615902634284 6.6258155809056145 8.125163811863553 Q 5.950456507679704 6.865711243699971 5.38461565100683 6.235985198314606 Q 4.818774316941105 5.6062591529292405 3.860495770164459 4.739244036173004 Q 2.9022162686021113 3.872229635506046 2.911342826430935 2.9504568426518447 Q 2.920469384259759 2.0286838111012186 3.166884297370177 1.6636248396982167 Q 3.4132992104805946 1.298565868295215 3.404172413955345 1.0795309867159075 Q 3.4003959978075793 0.9888957460132952 3.368491117486562 0.9888957460132952 Q 3.323292755836844 0.9888957460132952 3.221642928253844 1.170795132825594 Q 3.0482402390775927 1.4810953539967158 2.2633636653879217 1.4993485890025766 Q 2.2171959575542664 1.5004222455244558 2.1705229293878365 1.5004222455244558 Q 1.4237308477788386 1.5004222455244558 0.5475883974303962 1.2255549571913888 L 0.5475883974303962 1.2255549571913888 L 1.6245109428255198 1.298565868295215 Q 2.1565852064067235 1.4089965019347084 2.4153431116795185 1.4089965019347084 Q 2.627053474094281 1.4089965019347084 2.6558013554916937 1.3350723383069363 Q 2.7196867829006104 1.170795132825594 2.5554106515531827 1.1434162947766116 Q 2.3911342815093297 1.116036382593714 2.2177315923330783 1.116036382593714 Q 2.0443286644604015 1.116036382593714 1.953064399002502 1.170795132825594 L 1.9876164226822657 1.222624719872005 L 1.9876164226822657 1.222624719872005 Q 1.8278830423566574 1.2018226844347024 1.6062577078196592 1.170795132825594 Q 1.3689705460201929 0.7874840005506465 1.5332466773676203 0.6232077498550063 Q 1.5697521925936397 0.5684490592972326 1.6610164580515392 0.5684490592972326 Q 1.6245109428255198 0.7509784853246271 1.7249017661122432 0.8422427507825265 Q 1.7620839857045425 0.8760447306192765 1.798014123196905 0.8760447306192765 Q 1.8590952256508866 0.8760447306192765 1.9165579289907808 0.7783573830477161 Q 2.0078231492343823 0.6232077498550063 1.7522816782951405 0.5501957646172655 Q 2.4239901283895215 0.3457626296377467 2.768605228341677 0.3457626296377467 ZM 23.01695017311842 0.38591957359573165 Q 23.509778089767853 0.38591957359573165 23.747067161138723 0.7509784853246271 Q 23.82007771419791 0.8057372355565071 24.659714350949802 0.9517601915721803 L 24.659714350949802 1.0065190014781666 L 23.747067161138723 1.0795309867159075 Q 22.96219130353833 1.0795309867159075 22.76140750869705 0.9608868090751106 Q 22.56062562342718 0.8422427507825265 22.56975337473813 0.6870931175898166 Q 22.578879216477677 0.5319425296114048 22.816166378277146 0.5319425296114048 Q 23.053455449648016 0.5319425296114048 23.144719595757703 0.614081132352076 Q 23.23598374186739 0.696219735092747 23.190352623598248 0.7874840005506465 Q 23.144719595757703 0.8787482063344395 23.01695017311842 0.9335079710261279 Q 23.036506093866425 0.9348116712280785 23.054711947631823 0.9348116712280785 Q 23.291393775296232 0.9348116712280785 23.299870362758433 0.7144720153129057 Q 23.30899620449798 0.47718380921657794 22.907432433958235 0.4406782939905586 Q 22.3963490146869 0.4406782939905586 22.524120346897586 0.8148638530594374 Q 22.645949092899134 1.171644176011082 23.64728059785314 1.171644176011082 Q 23.69612743436656 1.171644176011082 23.747067161138723 1.170795132825594 Q 24.312907540418745 1.1342897369477876 24.75097849705949 1.0430254714898881 L 24.714473220529893 0.9700134862521473 L 24.714473220529893 0.9700134862521473 Q 26.338983805310775 1.9739250608693384 26.238591907890136 3.2607569444747537 Q 26.138201920040903 4.547588947428382 24.97001397537986 5.396349993741268 Q 23.801826030718814 6.245110562661302 22.889178840907736 7.267275491632566 Q 21.465450141396726 9.001303815573634 21.35593240223654 9.986962513229603 Q 21.246414663076354 10.97262121088557 21.848762228457378 10.97262121088557 Q 22.451107884266992 10.97262121088557 23.318122046237526 10.251630064604818 Q 24.185138117779466 9.530638918324064 25.079531714540046 9.512386280059266 Q 27.470664563870823 9.567144194853658 27.196872125541763 11.720991791956372 Q 26.320730212260276 10.790091963880496 25.225554730229824 10.790091963880496 Q 24.677966034428895 10.790091963880496 23.728813568088224 11.264668197050833 Q 22.286831275526716 12.031291416386429 21.53846260402732 12.031291416386429 L 20.9178614455958 11.94002631549104 Q 19.786180687035753 11.100391588310554 20.151239181045902 9.457627410479173 Q 20.69882596727543 8.271186827553333 21.629726750137007 5.222947065868591 Q 22.26857959204762 3.488918503231098 22.898304682647282 2.594524429077667 Q 23.52803168281835 1.7001303549242361 24.239896987359558 1.6818780747040774 Q 24.623207164848804 1.6818780747040774 25.48109548507979 2.0469359719731646 Q 25.516527582480354 2.0565995967593533 25.54286630085524 2.0565995967593533 Q 25.665772045128623 2.0565995967593533 25.590613224239974 1.8461543253997177 Q 24.90056286341766 1.4183230873680976 23.98094382841071 1.4183230873680976 Q 23.68429382037619 1.4183230873680976 23.36375507407807 1.4628421189908551 Q 23.08996072617761 1.4628421189908551 22.697522797377413 1.3168191033010757 Q 22.305084868577215 1.170795132825594 22.305084868577215 0.6232077498550063 Q 22.633638086057772 0.38591957359573165 23.01695017311842 0.38591957359573165 ZM 5.183833288344107 3.0508475465903557 Q 6.607562465247967 4.876141210123237 7.794002570780957 6.05345547391668 Q 8.980443153706798 7.2307702151029725 10.029987517468108 7.641461259560818 Q 11.079530926443718 8.052151349232961 11.973924523204298 8.070405897069161 Q 12.083442262364484 8.21642795797324 14.146023803786107 12.68839689656184 L 14.018253426361124 12.743155766141934 L 9.10821353113178 9.603651380954656 Q 9.144719762447076 9.329857033054191 7.657105874223576 7.641461259560818 Q 6.169491508607224 5.953063576496041 5.037810272654327 3.178618401408189 L 5.183833288344107 3.0508475465903557 ZM 10.22164260621273 10.917862341305478 L 12.941329627809766 12.578879157401655 Q 13.032594728705156 12.83441991225162 12.284224147634355 12.92568501314701 Q 12.117919574063066 12.945966571028519 11.97865548635762 12.945966571028519 Q 11.491235475924217 12.945966571028519 11.33507072650798 12.69752369308709 Q 11.13428979602381 12.378097272131784 10.823990171593753 11.867014807646152 Q 10.51368863759229 11.35593329794622 10.22164260621273 10.917862341305478 ZM 19.51238633913529 10.132986483705084 Q 19.51238633913529 10.899609703040682 19.73142181745566 11.465450082320704 Q 20.297262196735684 12.469361418241471 21.246414663076354 12.487615011291968 Q 21.271391857040214 12.488095268500066 21.296634481429226 12.488095268500066 Q 22.230630679536628 12.488095268500066 23.52803168281835 11.830508576330855 Q 24.760560726364584 11.205802794166512 25.321529788993093 11.205802794166512 Q 25.367013870264127 11.205802794166512 25.408083022449198 11.20990932747074 Q 25.955671718250127 11.264668197050833 26.594524560160743 11.775749706750762 Q 27.233377402071355 12.286832171236394 27.26988267860095 12.670144258297045 Q 27.336545816313357 12.981237309645449 27.213848215323008 12.981237309645449 Q 27.134969549339438 12.981237309645449 26.97783664722139 12.85267350530212 Q 26.453025319126954 11.803050849113246 25.632165497990247 11.803050849113246 Q 25.625090535938558 11.803050849113246 25.617992659030023 11.80312914154081 Q 24.78748377358908 11.812255938066059 23.573664710658896 12.451108779976673 Q 22.359843738157306 13.089961621887287 20.744458995115973 13.089961621887287 Q 19.129074252074638 13.089961621887287 18.946545959855264 12.049544054651227 Q 18.764015758064488 11.009126487415164 19.51238633913529 10.132986483705084 ZM 5.9869617842092975 11.191656689205942 L 6.260756609502613 11.739244430221168 Q 6.516296886959727 11.483703675371203 6.65319453830281 11.438070647530658 Q 6.65701845503925 11.436796008618511 6.66032249096096 11.436796008618511 Q 6.775304946086441 11.436796008618511 6.260756609502613 12.980443882727103 L 5.494133390167016 13.21773199931227 Q 5.293350550111441 13.071708028836788 5.6127774484596 12.314211606026442 Q 5.932203392022056 11.556715183216093 5.9869617842092975 11.191656689205942 ZM 25.3841465449005 12.332304795079008 Q 25.989295451531138 12.332304795079008 26.338983805310775 12.83441991225162 Q 26.101694733939905 13.21773199931227 25.225554730229824 13.436768432418344 Q 24.550196611789616 13.436768432418344 23.85658490029891 12.870926143566917 Q 24.757383199548386 12.332304795079008 25.3841465449005 12.332304795079008 ZM 23.272490927968388 13.089961621887287 Q 23.54354504090416 13.354712239618575 23.860314293250852 13.52803162374233 L 21.3870259534073 13.52803162374233 Q 22.296396318689176 13.432913007753738 23.272490927968388 13.089961621887287 ZM 13.835724179356049 14.239895973497832 Q 11.793824251025065 17.175128731674494 7.949174820459982 17.25145239111956 L 7.949174820459982 17.25145239111956 Q 4.122734108017405 17.175128731674494 2.080834179686421 14.239895973497832 ZM 28.602347232002273 14.258150521334034 Q 26.56044825845699 17.19338041515359 22.715797395713356 17.26970598417006 L 22.715797395713356 17.26970598417006 Q 18.889337110163886 17.19338041515359 16.829205548853547 14.258150521334034 ZM 3.0828786708633857 0.008692117630364187 Q 2.971576914619046 0.008692117630364187 2.8474573990220184 0.020860628300151455 Q 2.5554106515531827 0.020860628300151455 1.186441060318692 0.4406782939905586 Q 0.09126423562084626 0.696219735092747 0.0 1.0977842217217681 L 0.036505492848229494 1.7183835899300968 L 0.5840939126564156 1.5176008692227352 Q 1.4784879271357403 1.8096488101736983 2.080834179686421 1.8096488101736983 Q 2.6831812676745908 1.8096488101736983 2.5371572971991094 2.2203398546315434 Q 2.3911342815093297 2.6310308990893883 2.5736637672108307 3.5893094458660344 Q 2.7561932529123316 4.547588947428382 4.015645343683063 5.5241203711662505 Q 5.275098389239495 6.5006522722969695 5.576270739751453 8.079530784023007 Q 5.877444522441963 9.658410250534748 5.037810272654327 11.720991791956372 L 5.311603665769089 11.556715183216093 Q 5.3170254163777955 11.553462228329439 5.320836443507258 11.553462228329439 Q 5.38118176422965 11.553462228329439 5.037810272654327 12.368970475606535 Q 4.672751301251325 13.235984637577067 4.04302525586596 13.263364072367114 Q 3.93189679322653 13.268195288019145 3.833558162458005 13.268195288019145 Q 3.3746456661215403 13.268195288019145 3.1942632547673724 13.162973129732178 Q 2.989829552883843 13.04372039555458 2.5866402596864733 13.04372039555458 Q 2.5578429681289827 13.04372039555458 2.5280316941559873 13.044328594046743 Q 2.080834179686421 13.053455390571992 2.080834179686421 13.345502376737253 L 2.080834179686421 13.52803162374233 L 0.8031288539098296 13.52803162374233 Q 2.9022162686021113 17.981746969280433 7.958279656914086 18.000000562330932 Q 13.014342090440358 17.981746969280433 15.113428908391576 13.52803162374233 L 15.113428908391576 13.52803162374233 L 9.49152561819243 13.564537855057624 Q 9.49152561819243 13.400261246317346 9.144719762447076 13.208605202787021 Q 8.975349371986722 13.115006605635987 8.75591479324292 13.115006605635987 Q 8.526030084990925 13.115006605635987 8.241198414375544 13.21773199931227 Q 8.071091884138962 13.279081754593147 7.876274067756523 13.279081754593147 Q 7.433506997640579 13.279081754593147 6.863102742705081 12.962191244462305 Q 6.990873597522914 12.323337447765988 7.17340284452799 11.821382734591309 Q 7.355932568925916 11.319427066630926 7.867014556018697 11.228161965735536 Q 7.91433659976605 11.219711157487291 7.962910844961551 11.219711157487291 Q 8.438939307184603 11.219711157487291 9.03520202328689 12.031291416386429 Q 9.382007879032244 11.35593329794622 9.235984863342464 10.205997991549975 L 9.235984863342464 10.205997991549975 L 9.418514110347541 10.333768368974956 Q 10.787483940278456 12.633638026981748 11.070404129918469 13.035202752307194 Q 11.28503327222419 13.339837633167392 11.904089587389903 13.339837633167392 Q 12.10106378728027 13.339837633167392 12.338983017214447 13.308996145421958 Q 13.324641714870417 13.181225767996974 13.30638907660562 12.83441991225162 L 13.30638907660562 12.83441991225162 L 14.146023803786107 13.254238230627566 L 14.784876645696722 13.016950114042398 L 13.37940058445051 9.968709874964805 Q 13.726206440195863 9.968709874964805 14.018253426361124 9.676662888799545 Q 13.67144757061577 8.581486451983391 12.941329627809766 7.2307702151029725 Q 12.430248118109837 6.409388126187283 11.900913015359407 5.953063576496041 Q 10.4589307227979 4.602347339615624 8.907431645861907 3.3885266058104597 Q 7.355932568925916 2.174706826790998 6.6258155809056145 1.5176008692227352 Q 6.135176987870829 1.237236402210505 5.607156147639178 1.237236402210505 Q 5.310143798430758 1.237236402210505 5.0013035639461805 1.3259457804781123 Q 4.143416198500896 1.5723605742403173 3.9608864741029697 2.539765559497574 Q 3.906127843219302 2.50326028296798 4.0521506202126565 1.8096488101736983 Q 4.198174590688137 1.116036382593714 3.988266386285867 0.5228169265682828 Q 3.8063448603801033 0.008692117630364187 3.0828786708633857 0.008692117630364187 ZM 23.079162099888187 0.0 Q 22.74837277429359 0.0 22.451107884266992 0.09387261726752386 Q 22.06779770677775 0.20339010281275738 21.994785244147156 0.5136903090653525 Q 21.848762228457378 0.8970014413403002 22.12255657635784 1.2711870302462323 Q 22.3963490146869 1.645371604692356 22.980442987017422 1.7366368249359574 Q 21.81225504235638 2.795307030436816 20.99087390822639 5.478487343325705 Q 20.22424973410509 8.033898710968165 19.713168224405162 9.2568455252093 Q 18.344198394474244 10.370274600290251 18.353324236213794 11.492829517110751 Q 18.362451987524743 12.615385388716952 18.91003877375427 13.089961621887287 Q 19.30575352708367 13.432913007753738 20.06368533217412 13.52803162374233 L 15.55149986503232 13.52803162374233 Q 17.650586682983537 17.981746969280433 22.706650548688362 18.000000562330932 Q 27.762712504821785 17.981746969280433 29.861799322773003 13.52803162374233 L 26.348111556621728 13.52803162374233 Q 26.5488934418916 13.418513884582143 26.75880116890102 13.272490868892364 Q 26.964314972109918 13.516538868247567 27.224062512762817 13.516538868247567 Q 27.333429395782087 13.516538868247567 27.452412880391726 13.473272754162236 Q 27.908735520511563 13.254238230627566 27.6349411726111 12.469361418241471 Q 27.890481927461064 10.22425062981477 27.032595516801482 9.603651380954656 Q 26.1747071965705 8.983051177308838 25.09778339801914 8.983051177308838 Q 24.112125655148873 8.983051177308838 22.96219130353833 9.831812701014574 Q 22.249229905011244 10.358045705019261 21.98532331784051 10.358045705019261 Q 21.823573072067678 10.358045705019261 21.83050863540688 10.160365918495131 Q 21.848762228457378 9.64015665748425 22.633638086057772 8.398957204978315 Q 23.162973188808202 7.522817201268234 24.933506789278862 6.144720097419217 Q 26.704042299320925 4.766623948355902 26.685788706270426 3.370274444938514 Q 26.667537022791333 1.9739250608693384 25.900912848670032 1.2711870302462323 Q 25.134290584120137 0.5684490592972326 24.20338980125856 0.47718380921657794 Q 24.05736678556878 0.2764020731319715 23.82007771419791 0.1486313525808773 Q 23.582790552398443 0.020860628300151455 23.190352623598248 0.0026073821053958263 Q 23.13429142632065 0.0 23.079162099888187 0.0 Z"
     style="fill:#ffffff;stroke:none"
     id="path2" />
  <path
     d="M 37.01392458469578 5.425909042821975 Q 38.631741687287445 5.600135683651099 39.60243099398233 6.197483279837992 Q 40.025552426770155 7.516626345621184 39.37842558573349 8.960217284813782 Q 38.33306765047897 9.159333309352764 37.84772180355638 9.32111525832696 Q 37.36237738892397 9.482897207301155 37.01392458469578 9.58245474214059 Q 35.69478128019756 9.159333309352764 34.574754238953346 8.985105713663527 Q 34.00229531033123 7.516626345621184 34.42541698183408 6.197483279837992 Q 35.62011241292289 5.575246777371297 37.01392458469578 5.425909042821975 ZM 34.900349363077474 9.51489743427378 Q 35.808562172567726 9.51489743427378 36.789918221586824 10.154914386907793 L 36.789918221586824 15.30703782177104 Q 35.62011241292289 14.908805772693073 34.848538414621906 14.037673523407566 Q 34.50008561039372 11.74784067349943 34.59964314523315 9.532675974720872 Q 34.748980402352416 9.51489743427378 34.900349363077474 9.51489743427378 ZM 39.102609945174166 9.51489743427378 Q 39.25397866718419 9.51489743427378 39.403315924303456 9.532675974720872 Q 39.5028734591429 11.722951289789572 39.17931051605462 14.012784139697706 Q 38.40773532417849 14.908805772693073 37.21303965437465 15.30703782177104 L 37.21303965437465 10.154914386907793 Q 38.19439761311397 9.51489743427378 39.102609945174166 9.51489743427378 ZM 40.423785430708236 0.0 Q 40.15000030017956 0.273783996632288 40.24955878987911 0.8711318315342086 Q 41.220249528864166 2.688065137701129 41.145580422874474 3.6089768705514396 Q 41.07091131688479 4.529887409826609 40.39889509213826 5.898809243029517 Q 39.77665811224151 5.376130275402258 38.955304152945665 5.251682879422908 Q 39.05486312007527 4.604556038386241 38.507293813878036 4.181434605598416 L 38.4326251853184 3.658755637971157 L 37.83527758913151 4.504997548686693 Q 37.984613891390666 3.857871901225168 38.357957511618885 3.335191740022767 L 38.40773532417849 3.086296709349038 Q 38.00950375253058 3.086296709349038 37.90994621769114 3.4596393747171454 Q 37.66105094830239 3.210744344043417 37.312598144074194 3.086296709349038 L 37.312598144074194 3.409860607297428 L 37.16326088695493 3.409860607297428 L 37.16326088695493 3.061407803069236 L 36.86458685014645 3.061407803069236 L 36.86458685014645 3.409860607297428 L 36.69036068674739 3.409860607297428 L 36.69036068674739 3.086296709349038 Q 36.341907882519195 3.210744344043417 36.11790247427035 3.4596393747171454 Q 36.018343984570805 3.086296709349038 35.62011241292289 3.086296709349038 L 35.64500251277784 3.3600818398777106 Q 36.04323384571072 3.857871901225168 36.167681719120125 4.504997548686693 L 35.570333645503176 3.658755637971157 L 35.49566501694355 4.181434605598416 Q 34.97298581060126 4.604556038386241 35.04765467787592 5.251682879422908 Q 34.25119057971999 5.376130275402258 33.60406385804084 5.898809243029517 Q 32.93204727522177 4.5547772709665235 32.85737858698338 3.6214213236913406 Q 32.7827108536051 2.688065137701129 33.7534002796575 0.8960217523528811 Q 33.85295900807208 0.273783996632288 33.57917399690092 0.024889909628905433 L 33.20583133153281 0.721795350238785 L 32.63337341744956 0.5475690078034462 L 32.63337341744956 0.5475690078034462 Q 32.8524006624984 1.264386493236011 32.434257452589335 1.264386493236011 Q 32.32972178438928 1.264386493236011 32.185363048542555 1.2195855309437567 L 32.185363048542555 1.2195855309437567 Q 32.484036995832895 2.1902750763536716 31.861799240112305 2.3645014784677674 L 33.13116365783329 6.371709920667116 Q 33.40752261379701 6.825728716996858 33.62125850152872 6.825728716996858 Q 33.67701576747451 6.825728716996858 33.7285113733777 6.794831353454941 Q 33.7285113733777 7.715742847590223 34.00229531033123 8.636654341725505 Q 32.981826161999 8.885549133684206 32.7827108536051 9.719347307404925 Q 32.58359459035109 10.553144526265532 32.9569372557192 12.370078130826238 L 33.18094242525301 12.394967514536097 L 33.28050007944996 12.668751690204656 L 33.47961634270397 12.643862306494798 Q 33.38005868850702 11.772730057209289 33.39250314164692 11.050935065043047 Q 33.404947594786826 10.329139118016691 33.80317916643473 9.408228101311465 L 34.076964177605895 9.408228101311465 Q 34.076964177605895 10.901597807923782 34.2760804408599 13.017205926723017 L 33.82806902757465 12.59408353907508 Q 32.88226850780205 13.091873122992482 32.84493413384347 14.000339447842777 Q 32.8075997598849 14.908805772693073 33.08138477105606 15.979054046517565 Q 33.35516882736711 17.049302320342054 34.076964177605895 17.895545185917705 Q 34.194474992293124 17.99999924341747 34.24862845132132 17.99999924341747 Q 34.40093508467752 17.99999924341747 34.052074316465976 17.17374923889135 L 34.12674294502561 16.94974478550262 Q 33.7285113733777 15.954164662807706 33.60406385804084 15.095477105377126 Q 33.47961634270397 14.236789547946548 33.95251654291151 13.564773323200024 L 33.95251654291151 13.589662706909882 Q 34.873428275761825 15.506153846310022 37.01392458469578 15.85460712796827 Q 39.1544206549147 15.506153846310022 40.075332149049984 13.564773323200024 Q 40.52334296554767 14.236789547946548 40.39889509213826 15.095477105377126 Q 40.274448173588965 15.954164662807706 39.876216124511004 16.94974478550262 L 39.950884275640576 17.17374923889135 Q 39.60202374614406 17.99999924341747 39.754330618215285 17.99999924341747 Q 39.808484077243484 17.99999924341747 39.92599489193072 17.895545185917705 Q 40.647789884096966 17.049302320342054 40.92157501462563 15.979054046517565 Q 41.1953591902942 14.908805772693073 41.158025114729405 14.000339447842777 Q 41.12069103916462 13.091873122992482 40.19977906759928 12.59408353907508 L 39.72687838996168 13.017205926723017 Q 39.950884275640576 10.901597807923782 39.92599489193072 9.408228101311465 L 40.19977906759928 9.408228101311465 Q 40.622900500387104 10.304249734306833 40.622900500387104 11.038490373188118 Q 40.622900500387104 11.772730057209289 40.548232349257525 12.61897292278494 L 40.74734837379651 12.643862306494798 L 40.846904953775834 12.370078130826238 L 41.04602193317493 12.34518874711638 Q 41.419364598543034 10.553144526265532 41.232693265858984 9.719347307404925 Q 41.04602193317493 8.885549133684206 40.025552426770155 8.636654341725505 Q 40.29933755729883 7.715742847590223 40.274448173588965 6.794831353454941 L 40.274448173588965 6.794831353454941 Q 40.32333796624333 6.817054290298776 40.37381569126588 6.817054290298776 Q 40.60601188956549 6.817054290298776 40.8717952923458 6.346821014387314 L 42.14115959070928 2.3645014784677674 Q 41.54381151709233 2.1653861700738695 41.842486031330864 1.1946956698038413 L 41.842486031330864 1.1946956698038413 Q 41.68361640570183 1.2476520923226706 41.57207060214156 1.2476520923226706 Q 41.15934855084626 1.2476520923226706 41.39447521483318 0.5226790869847737 L 41.39447521483318 0.5226790869847737 L 40.822016524926084 0.6969054294201127 L 40.423785430708236 0.0 Z"
     style="fill:#ffffff;stroke:none"
     id="path4" />
  <path
     d="M 50.38761854613609 0.0 C 50.38167929708577 0.0 50.37553304349207 5.695000389233588E-4 50.369193299004706 0.0017376701166992572 C 49.894457555957224 0.034572710056723736 49.41862659302592 0.05123321658203978 48.942794094452594 0.05123321658203978 C 48.91956904464471 0.05123321658203978 48.89634399483682 0.051193525034879415 48.87311925215733 0.05111408915286449 C 48.765677444445814 0.05748565022318975 48.75703239416821 0.19387122900204928 48.79323638314341 0.2706347291990004 C 49.01754361934474 0.9032127418706738 49.21101424253547 1.5451583243871705 49.392672400232144 2.190968580376229 C 49.39085604285891 2.1909696553256386 49.389039071228865 2.1909701160182427 49.387222713855635 2.1909701160182427 C 49.38225951886892 2.1909701160182427 49.377296323882206 2.190967044734216 49.37233312889549 2.190967044734216 C 49.370516771522254 2.190967044734216 49.36869979989221 2.1909675054268196 49.36688344251898 2.190968580376229 C 49.187610751125646 2.1941578017092778 49.0053389508805 2.1905634780131424 48.82814582590146 2.2082660520131023 C 48.824814096989584 2.2126406354161525 48.82222807583933 2.217354902832527 48.81902534085656 2.2217895298382944 C 48.80833082274812 2.1810434189164067 48.780653639615515 2.1442491291513317 48.738513472874025 2.134358673201008 C 48.15842838792224 1.7433699351653074 47.59675104378289 1.3253741681715667 47.03927275916447 0.9034076916242516 C 47.025108918619765 0.9012415917825087 47.01101602473607 0.8966798136180472 46.99667097843381 0.8966798136180472 C 46.99348298561437 0.8966798136180472 46.990282400530425 0.8969051690834868 46.98706584476954 0.8974322014224227 C 46.9316847583333 0.9319300153388331 46.91125089144863 1.0091900845762831 46.880450519589544 1.0660039250108595 C 46.78270536980629 1.3292469037646981 46.70081188470446 1.5986006627817297 46.592054492480216 1.857913626495344 C 46.51459333092114 2.0542815454724126 46.428550387535395 2.2499747033488737 46.36970335707532 2.451688652866554 C 46.395718821985426 2.508055314346882 46.44482988208171 2.5256319657017574 46.49864261732986 2.5256319657017574 C 46.55001383534119 2.5256319657017574 46.6056696481336 2.509613990990297 46.649607898108364 2.496033080153811 C 47.33651930545276 2.3492482776278862 48.04367692422782 2.36247107674689 48.742601966170014 2.35325031427853 L 48.742601966170014 2.35325031427853 C 48.673043218410946 2.5060049251308345 48.64334789454457 2.677390252015887 48.58032023226772 2.8331765273306844 C 48.55203462776947 2.9219839334686175 48.51839946075398 3.0117262384641976 48.49886486583226 3.103331584350212 C 48.4931421423058 3.1025183083400125 48.48736966397812 3.1020103179620406 48.48157107973621 3.1020103179620406 C 48.47457008779796 3.1020103179620406 48.46753101193778 3.102750804540814 48.46049592874683 3.1045895822874394 C 47.60744709753334 3.435002924777189 46.77398706940465 3.839557985050251 46.045454388755026 4.398440460725553 C 45.697087241231955 4.668551291255101 45.351667835335356 4.9481987658151265 45.04691852608099 5.266144537927972 C 45.04039673123295 5.394177769394708 45.18487991350947 5.435337275146554 45.280906142405236 5.472141700148916 C 45.47722952776392 5.553170772361504 45.6737846415024 5.634200458830898 45.87027817599615 5.715249801518061 C 45.77063543337716 5.851749334532064 45.74507282929675 6.029550266619934 45.681578485412075 6.184797531588091 C 45.35105465347948 7.153861352744478 44.88606033232494 8.068964556326845 44.49811692596565 9.014663891380541 C 44.499628823114236 9.092608165916982 44.57176159482033 9.130688402303923 44.64247407042392 9.130688402303923 C 44.66849871079506 9.130688402303923 44.69433093522194 9.12553048790993 44.71637956807455 9.115303726358713 C 44.85325786719112 9.089391303027693 44.990488135457106 9.076684172496728 45.12805939303214 9.073475294945911 L 45.12805939303214 9.073475294945911 C 45.099339355408354 9.180424775827987 45.08815143552106 9.294290174080786 45.040314036910544 9.394893767907444 C 44.80810519312126 10.134587341144924 44.42805133956011 10.815276634180174 44.14116001127744 11.533175761709275 C 44.12755424223587 11.610981214207719 44.200632095125926 11.659587355210055 44.27109564405897 11.659587355210055 C 44.29188540557796 11.659587355210055 44.31244758495059 11.65535635433524 44.33048870083013 11.646395576059719 C 44.68121106250887 11.588426932831203 45.036167035653854 11.538017333848545 45.39192446036553 11.524055276664377 L 45.39192446036553 11.524055276664377 C 45.35132124093297 11.622711062161473 45.343371375794746 11.733392767392472 45.31267059032022 11.835724265612402 C 45.14057556647876 12.562285642609657 44.889686443810746 13.279204416277523 44.859476833434144 14.031245165558069 C 44.853024219258806 14.520580564353603 44.911857659287065 15.00856828371834 44.98999411942146 15.490837272225857 C 45.12355627639258 16.283637646078006 45.36327652113427 17.05628179712148 45.67245800036718 17.797690989616125 C 45.67538032711833 17.865718702288014 45.73763003315129 17.90838989403767 45.79819667553777 17.90838989403767 C 45.83600249269695 17.90838989403767 45.87315274428069 17.89176319083217 45.89480913577208 17.854300896791347 C 45.93995532175443 17.75420775036988 45.95412960466483 17.642178365708084 45.988215482611196 17.537599916094415 C 46.16621420539036 16.895430053061887 46.29377169496141 16.238520483729697 46.35051888853261 15.574179635567155 C 46.406032654438796 15.000923243519741 46.42834353655622 14.424299495665746 46.4244262673447 13.848520965175826 C 46.40062611960286 13.174467488408087 46.24005908357252 12.516444885744722 46.13634473971969 11.852392738280662 C 46.11851655020305 11.752146027657874 46.10537467941814 11.649087249380484 46.07942033306016 11.55047323334615 L 46.07942033306016 11.55047323334615 C 46.42203327639551 11.583077984570766 46.7589119788893 11.650417729620735 47.09556816685538 11.720302954871812 C 47.09651289382191 11.720325068116804 47.09745117109199 11.720334896225689 47.09838330579401 11.720334896225689 C 47.2062409653627 11.720334896225689 47.22996264179767 11.576994385171206 47.18174102555544 11.501096814309983 C 46.89272582758639 10.744721869011334 46.59794690444913 9.988695207321284 46.35523638079721 9.216572560305499 L 46.35523638079721 9.216572560305499 C 46.3668077504952 9.218735972773718 46.37859027097001 9.220704051577856 46.390145823555265 9.222862549991634 C 46.6834228888036 9.275952765672562 46.97757588425627 9.344485397438397 47.27451837342594 9.361556822570925 C 47.367600085543465 9.284436880667181 47.300692470156015 9.158271604145323 47.255648404367534 9.073789794430217 C 46.897654624192015 8.297642536826196 46.60446355489642 7.482809385625217 46.487955163174675 6.632644797240953 C 46.45039120963257 6.402112989703248 46.451200800101944 6.165637019060783 46.411217289003815 5.936342938985731 L 46.411217289003815 5.936342938985731 C 46.66373227265333 6.039063261763408 46.9162669125206 6.1415507812118815 47.169790045151785 6.240463940310392 C 47.28019809897603 6.213855564018983 47.28545736574289 6.078073482953555 47.263196391990896 5.987920854412044 C 47.22448715663534 5.4357568125445646 47.34026811473543 4.869482677602845 47.61920980822618 4.389319975680656 C 47.85662958444997 3.9650730707437143 48.20018525841723 3.61722159180868 48.55012828177426 3.285426785763841 C 48.689147803331956 3.404166926023395 48.85042645587122 3.4927596494078808 49.00709603247202 3.587660790182661 C 48.980702953190864 3.5941230789026797 48.954277011170625 3.6005595688368763 48.92815666191102 3.608103256662602 C 48.64030701623 4.165275641391986 48.3977855301099 4.744131598476393 48.1393919552696 5.315206457479831 C 48.106198131768714 5.394249023184122 48.06758226344756 5.475458072640659 48.0560495919283 5.559887056270509 C 48.09917134104464 5.629935059574988 48.17122888548761 5.643405097058119 48.24646090910031 5.643405097058119 C 48.29347520359174 5.643405097058119 48.34172937544465 5.638144601777644 48.38493619912851 5.638144601777644 C 48.38739076932244 5.638144601777644 48.389828754582624 5.638161800968192 48.39224954065226 5.638197427862899 C 48.49923741258466 5.635491626635611 48.60632786540355 5.6332164194288294 48.71335351412949 5.6306494402395355 L 48.71335351412949 5.6306494402395355 C 48.67719190887385 5.741802894696994 48.6672867107602 5.865354508512359 48.631269148725416 5.975340875039772 C 48.42507081740074 6.827947134225051 48.22037618673541 7.680887549112404 48.01673715638996 8.534108679359775 C 48.041410009487905 8.624927162278217 48.132386356405306 8.643642952878496 48.21774409632475 8.643642952878496 C 48.2430671402511 8.643642952878496 48.267895707449185 8.641995516126718 48.29035170773686 8.64009500557116 C 48.4667205000832 8.633708577566594 48.64318972341721 8.627909379067884 48.81965433982518 8.621854035481368 L 48.81965433982518 8.621854035481368 C 48.770936711212684 8.761402739276814 48.749020335528456 8.912103889629044 48.70171703321013 9.051774830528743 C 48.472735302720565 9.88985268775538 48.23969947731611 10.727816293216234 48.01610815742134 11.566827206530101 C 48.04076657548437 11.66041168784275 48.13382187455926 11.680019993581112 48.221441615164174 11.680019993581112 C 48.24872137414376 11.680019993581112 48.27547440791282 11.678119483025554 48.29947219278176 11.675958527584557 C 48.580628589183966 11.667831910050612 48.86193517137507 11.659925196452962 49.14327430917686 11.65205656677724 L 49.14327430917686 11.65205656677724 C 49.12870383062705 11.698147940418732 49.118782047579664 11.74684621994186 49.11088086229326 11.789807340903613 C 48.9345572178221 12.559177503174906 48.66356953570301 13.314089288763364 48.62309216213344 14.10829753921323 C 48.61996928053536 14.828534528143253 48.726465132766734 15.545245683010931 48.89104572276282 16.245007035593527 C 49.02676729953293 16.809925505765978 49.219255726092 17.35983645367167 49.43796032597232 17.897387326141374 C 49.4464751538072 17.95891005924528 49.505445035628334 18.000000153978128 49.562253347751664 18.000000153978128 C 49.59537714597675 18.000000153978128 49.6277656788059 17.9860307257123 49.64898947994217 17.9539972333166 C 49.69587385911929 17.870471821447325 49.70450109594954 17.77029759312756 49.737363835032376 17.680382681969693 C 49.97610211348871 16.855079523522605 50.112793908882765 16.00174414150945 50.156277148129014 15.143944341035475 C 50.184821661870686 14.6871141838621 50.20119774829963 14.228529709252825 50.18049360842063 13.771154092036356 C 50.13313195170581 13.11462904746428 49.98448057631282 12.472245423063514 49.87983210142335 11.824087784693052 C 49.867480625582644 11.75999991517027 49.85762856068265 11.694023820228036 49.840519665885 11.630670601844379 C 50.13563934798499 11.621440779088141 50.430892323811726 11.612507028112052 50.725521214724296 11.600478651350928 C 50.830408021254215 11.519512233332478 50.772194289560396 11.377488688868533 50.74281868636117 11.273713687156178 C 50.492057559454956 10.375026496695098 50.24335603561687 9.47510219302817 49.98676192608765 8.57845310664703 C 50.23318025738049 8.568912469947318 50.479774266119634 8.560297518253172 50.7258357142086 8.548575655637887 C 50.829247075892226 8.467370291722181 50.77102413034632 8.326564818503117 50.7399881910024 8.224012187833285 C 50.4804087933995 7.349047595192377 50.22086747971852 6.474163470192961 49.96128746785881 5.599199491808857 C 50.225869987140776 5.592271903558834 50.490538502375486 5.585754638854743 50.75476966676482 5.576870028423076 C 50.85497645069527 5.510680172112603 50.80607669494 5.376156088984402 50.759487159029426 5.291933495641129 C 50.523987856707365 4.758457602817692 50.292002103311546 4.223345636993374 50.04808932552748 3.693647116394047 C 50.223853382049015 3.621331891221256 50.39824088906991 3.546495141862763 50.569214971023825 3.465005991303015 C 51.04040829507522 3.9064293592861885 51.45150273329736 4.4361137519789935 51.64071471405704 5.060147375707028 C 51.74933313067908 5.431207626644611 51.75667534227267 5.823991069501159 51.71871058616512 6.206497996005259 C 51.73936988529733 6.265907685698978 51.79054484825937 6.288105698128428 51.84585253100739 6.288105698128428 C 51.89304096730312 6.288105698128428 51.94323803343115 6.271947672865361 51.98005965762406 6.248955426386675 C 52.176771713976294 6.167781389568039 52.373777385081446 6.086666321402711 52.5706896891522 6.005532825533224 L 52.5706896891522 6.005532825533224 C 52.569112277676226 6.007241687965531 52.56721422414789 6.008511971038865 52.565657697403296 6.010250317797825 C 52.53674892937609 6.782997663984586 52.38344333016944 7.550884396071114 52.10208545753509 8.271816109447915 C 51.972441644724896 8.624882935788236 51.80972501700445 8.964496309579168 51.667761669707424 9.312494903019067 C 51.65957608352017 9.388299721102694 51.730067580238064 9.43337511398824 51.79871814931052 9.43337511398824 C 51.822687678366414 9.43337511398824 51.84643238943158 9.427879972608146 51.86652534378931 9.416279732840305 C 52.12682403611121 9.377854898385598 52.38601460915637 9.326197129574597 52.64554056641722 9.276641961808094 L 52.64554056641722 9.276641961808094 C 52.59371203421435 9.420368840393099 52.55791007631821 9.57061666922303 52.49992730518318 9.712223747572992 C 52.27868060351418 10.360477210005078 52.028256703594074 10.998153170250127 51.787271473744 11.639162087920662 C 51.76941441415751 11.714950321070544 51.837793481722024 11.7812544291468 51.908525152850785 11.7812544291468 C 51.92727411331855 11.7812544291468 51.94618830886694 11.776595905535507 51.96370568444011 11.766219879580603 C 52.27778133155124 11.695919416729152 52.59745162964494 11.64243607669284 52.918840618279816 11.611800632785972 L 52.918840618279816 11.611800632785972 C 52.91135897039142 11.642117891667702 52.90584417279356 11.672701738002926 52.90248664509586 11.700174987876178 C 52.79657464395791 12.295446343825066 52.679929119404385 12.889479358054498 52.604970132941645 13.489677053581785 C 52.564189623638654 13.864308593585305 52.55742788472606 14.241765714893143 52.581382671618634 14.617786703790221 C 52.61539652795457 15.568215201987822 52.71100805672467 16.522186733438314 52.96570104144152 17.441048574412232 C 53.00864987726717 17.597555065831227 53.05011896844888 17.755797446981962 53.10093581969344 17.90933830654503 C 53.12026033878776 17.94886573196523 53.160996007343954 17.96787206603441 53.201877254763005 17.96787206603441 C 53.25175306458187 17.96787206603441 53.301845707053 17.93958185461013 53.31353747108483 17.885750845222024 C 53.68044043196423 17.012330494189605 53.946386601353936 16.093100099132517 54.067392734968195 15.152435827111757 C 54.13455925959907 14.606490521141 54.17783733707235 14.048253936496456 54.07305372568571 13.504144029859898 C 53.96750352180608 12.925523947388719 53.79585314310955 12.3615268624242 53.65854340536937 11.79012184038792 C 53.635823888912235 11.724076948683495 53.624544905453554 11.652278927740754 53.60193349819415 11.586011675072816 L 53.60193349819415 11.586011675072816 C 53.766325818479416 11.59013579526351 53.93044725151355 11.60132018317417 54.09412519113427 11.622493615252402 C 54.32239899065574 11.646692876353477 54.54821207741523 11.694388688770378 54.776589072079986 11.71464196415429 C 54.87342297189261 11.687212940771019 54.86520175881065 11.560389795210698 54.81747400503987 11.492919827718008 C 54.497943757497794 10.723515267065617 54.082580234478904 9.98775170886836 53.878064045415506 9.176002126829923 C 53.875333673916 9.162622385097167 53.87111004412286 9.147424443220766 53.86768556243338 9.132915697479893 L 53.86768556243338 9.132915697479893 C 53.906004744717585 9.133283023049454 53.94434849727399 9.134055758110504 53.98279237368966 9.135746192838655 C 54.12843696202078 9.146393720301495 54.27292736181475 9.175953600542304 54.41774516048595 9.18795310723358 C 54.51990220977318 9.142909041445103 54.49514336072249 9.008668744960943 54.44699299826968 8.931950527007858 C 54.0230329512608 7.967696950893671 53.56358851712413 7.015907259615556 53.235541598976745 6.013080813156586 C 53.205151243535184 5.934533338437356 53.18292804657672 5.8472007628889155 53.13741775987303 5.7778351988951115 C 53.13512105367806 5.775910118067343 53.132251245883765 5.7749574057623425 53.12986977224966 5.77311770663051 C 53.39522195530866 5.6624519720764495 53.66039108983967 5.551444710738648 53.923666470639986 5.437232257390864 C 53.985761691086424 5.331234260300176 53.881324520537966 5.229579673079671 53.80321316815049 5.168964197277176 C 53.12818548008957 4.553998232508783 52.38542922242093 4.00402278763854 51.55988834659019 3.6074742576939887 C 51.24851665793593 3.4589432766348356 50.93203988097292 3.3170677680609635 50.605067912234794 3.2068019146871447 C 50.58121447771509 3.1340453459997546 50.547297059697584 3.0620495343657126 50.529588036001165 2.9904262694840766 C 50.44526839008266 2.7488065123541414 50.374413867592835 2.499365116194088 50.26760996557361 2.267391955062778 L 50.26760996557361 2.267391955062778 C 50.28962861501592 2.2721185076152577 50.31336165520178 2.2733774269376927 50.33729678587659 2.2733774269376927 C 50.36458207316742 2.2733774269376927 50.39212903385731 2.2717413539368114 50.417697473377366 2.2717413539368114 C 50.42631365358512 2.2717413539368114 50.434705015802145 2.271927166620411 50.4427861783325 2.2724239468116867 C 50.502023261863926 2.2721413886812547 50.56131501425103 2.271955422433454 50.62064239353284 2.271955422433454 C 51.23280028331587 2.271955422433454 51.848767179548474 2.2917498479838176 52.447405891303944 2.4293591894807722 C 52.46486859802144 2.437040317266681 52.48654264939598 2.441053256975619 52.50861228215312 2.441053256975619 C 52.56920011639938 2.441053256975619 52.632769553178505 2.4108089410895164 52.62038060767267 2.3431863307807133 C 52.504097494634266 1.9783713823466809 52.33966586191346 1.6309058102495686 52.220966262603056 1.2666545959985882 C 52.167916587871275 1.1179953888313316 52.115511268528245 0.9661079550238905 52.04924954417155 0.8241538215789418 C 52.030050947722316 0.8161958943201508 52.01083576633934 0.812414068734202 51.990866277599466 0.812414068734202 C 51.98390674799557 0.812414068734202 51.97685507987088 0.8128733792603551 51.969681174641934 0.8137753385968179 C 51.40810119020622 1.2240008337857824 50.857067380860464 1.6512297251660895 50.275472452681285 2.0340333377071436 C 50.214563362125865 2.0659719274264274 50.13583529590588 2.1274625656122557 50.17923561048341 2.204492058201421 C 50.17942418732263 2.204854009023936 50.17967418984238 2.2050771378084564 50.179864609452025 2.205435556654341 C 50.11054818600264 2.1923274699937245 50.040059760568774 2.189047492217695 49.96921568044464 2.189047492217695 C 49.89823953510738 2.189047492217695 49.82690650656624 2.1923397551298307 49.75603908468351 2.1923397551298307 C 49.729818304436236 2.1923397551298307 49.70366079263991 2.1918890441989514 49.677608933014085 2.1906540808919224 C 49.673466385119234 2.1906565379191436 49.66932322296758 2.1906574593043513 49.66518067507272 2.1906574593043513 C 49.653862379178506 2.1906574593043513 49.64254408328429 2.190650702479493 49.631225787390086 2.190650702479493 C 49.62708323949523 2.190650702479493 49.62294007734357 2.1906516238647016 49.61879752944872 2.1906540808919224 C 49.62270727401437 2.1784199281010275 49.62447141955915 2.1654075119378344 49.62351502171332 2.151970644322188 C 49.85034347497195 1.475132587891884 50.077416402439084 0.7888172399949126 50.46511564171828 0.18383287153032773 C 50.51231820592053 0.12220548442322278 50.47801933442693 0.015173477179580208 50.40347374279415 0.0014231706323924722 C 50.39837111151263 4.819612458480686E-4 50.393082360419115 0.0 50.38761854613609 0.0 Z"
     style="fill:#ffffff;stroke:none"
     id="path6" />
  <path
     d="M 59.47420446761782 0.6343796163654517 Q 59.10261786278814 0.6343796163654517 59.10261786278814 1.0715398576205497 Q 59.10261786278814 1.4431256271248805 59.47420446761782 1.4431256271248805 Q 59.867648672814184 1.4212680267581896 59.867648672814184 1.0278238215618205 Q 59.867648672814184 0.6343796163654517 59.47420446761782 0.6343796163654517 ZM 58.031574681018796 0.9185333137523243 L 58.031574681018796 1.3119775189486933 L 57.17911275353283 1.4649840628169186 Q 57.5725569587292 1.0496814219285115 58.031574681018796 0.9185333137523243 ZM 58.07529071707752 1.4431256271248805 Q 58.57802554941558 1.836570786978789 58.25015486131244 2.033292531580396 Q 57.74742104329802 1.8584282680132875 57.50698242731234 1.574273615968875 L 58.07529071707752 1.4431256271248805 ZM 59.60535269512619 0.4376570364384973 Q 60.632679721504616 0.4376570364384973 61.24470398766244 1.2245454468312351 Q 61.85672825382026 2.011434931213705 61.90044440921118 3.6507862237499484 Q 63.496079546356505 3.97865595719555 64.02067197906125 5.093415294355815 Q 64.10560642839023 5.815354533686349 63.69549652785733 5.815354533686349 Q 63.68343395251328 5.815354533686349 63.67094369059142 5.814730187655325 Q 63.233783568668514 5.792871393966709 62.982416510496066 5.574291571669641 Q 62.891010437704836 5.494807739564106 62.84440357928342 5.494807739564106 Q 62.7628424123713 5.494807739564106 62.818480808447916 5.73822727371779 Q 62.90591311922976 6.1207423207342355 63.78023336307557 6.66719306979883 Q 64.65455503890769 7.213642864205885 63.92231170342141 7.574300072191255 Q 63.74062700839345 7.66378680599873 63.5353928211739 7.66378680599873 Q 62.91347305228737 7.66378680599873 62.0753085534461 6.842057214033746 Q 60.960549216285834 5.749155238575788 60.89497569919261 5.180847127808888 Q 60.829401227441835 4.612539017041987 61.35399461480413 4.13166273972816 Q 61.66591464606804 3.845735885293317 61.568263680980266 3.845735885293317 Q 61.50168347751133 3.845735885293317 61.24470398766244 3.97865595719555 Q 60.610821166480385 4.306526883963077 60.57803440793377 4.940408511823204 Q 60.54524764938716 5.574291571669641 61.08076924027183 6.328393223515765 Q 61.616289637834576 7.082494875361889 63.19006741327759 8.240969890584305 Q 63.350942483253164 8.324904336140351 63.554344682653856 8.324904336140351 Q 63.98657399838373 8.324904336140351 64.61083888351676 7.945887154349703 Q 65.52887576008227 7.388507008440801 63.69280248428004 6.230031515889615 Q 64.37040122218862 6.055167848983468 64.39225858389094 5.639866043420408 Q 65.24472098870567 5.9240193828107035 69.17916447265566 10.929506048530046 Q 70.22834933806516 11.628962625469711 70.25020717709623 11.956833074908467 Q 70.22834933806516 12.262845685316147 69.92233768231502 12.328419202409375 Q 69.85676321056425 12.342470806737573 69.7891810940073 12.342470806737573 Q 69.54138254571859 12.342470806737573 69.2665967834375 12.153555535503228 Q 68.04254729646432 12.743721962629975 66.89500215541499 12.765579801661051 Q 66.83460574616005 12.766730163996499 66.77532915019928 12.766730163996499 Q 65.70834183098775 12.766730163996499 65.00428285004875 12.393993674160143 L 65.00428285004875 12.393993674160143 Q 65.72559726601949 13.02787577934904 65.50701792105119 13.727332356288704 Q 65.40103947824382 14.066462991409306 65.34644452285819 14.066462991409306 Q 65.28843762142536 14.066462991409306 65.28843762142536 13.683616678226553 Q 65.28843762142536 12.940443468567198 63.38679035120112 12.262845685316147 L 63.38679035120112 13.093450251099807 Q 63.2748347975371 13.563663958351698 63.20875292530394 13.563663958351698 Q 63.145818558979464 13.563663958351698 63.124492941526825 13.13716592916196 Q 62.99334495268283 12.197271213565381 62.501539278524696 11.11529958960927 Q 62.00973503635287 10.033327010995619 60.938691854583524 8.120750821255848 Q 59.867648672814184 6.208174154187309 59.57256593657958 5.366640668888111 Q 59.27748200702305 4.525106706260145 59.2993403233829 3.803791812960634 Q 59.32119792374959 3.0824769196611235 59.004256393826374 2.743678028035599 Q 58.687316057225075 2.404879136410074 58.81846416540127 2.011434931213705 Q 58.94961227357745 1.617989652027604 58.42501888621516 1.2682614828899643 L 58.42501888621516 0.8966757730517297 Q 58.99332819030399 0.4376570364384973 59.60535269512619 0.4376570364384973 ZM 63.758376001373264 13.02787577934904 Q 64.8294191831426 13.333888389756721 64.8294191831426 13.74919019531978 L 64.1081042898431 16.437727307923062 Q 64.02067197906125 16.918603585236887 63.51793834004512 16.918603585236887 L 62.643616664213 16.918603585236887 L 62.643616664213 16.874887907174735 L 63.758376001373264 13.465036378600715 L 63.758376001373264 13.02787577934904 ZM 59.68423413832412 0.0 Q 59.645095327172115 0.0 59.60535269512619 4.967951833993125E-4 Q 58.7528895743183 4.967951833993125E-4 57.87856909180811 0.6999531931247753 Q 57.375834378802246 0.8748172776935953 56.85124206542969 1.5087000988756476 Q 57.5725569587292 2.164440520424391 58.16272278919498 2.317447064292616 Q 58.228297380277944 2.623459197371527 58.57802554941558 3.1699089917785814 Q 58.59988303045008 4.612539017041987 58.97146963527976 5.563363129482873 Q 59.34305647877382 6.514186287266219 61.463284287288275 10.667210070842057 Q 62.512468675369 12.853012112442894 62.512468675369 13.355746228787796 Q 62.512468675369 14.12077727747823 61.55071612074135 16.78745464173535 Q 61.55071612074135 16.940461424267962 60.23923551630825 17.027892780392268 Q 58.27201329700448 17.093468206800573 58.27201329700448 17.574344484114402 Q 58.27201329700448 17.858498300833464 58.53430951335685 17.858498300833464 L 64.34854290582878 17.858498300833464 Q 64.89499270023583 17.42133770158179 64.9605671719866 17.11532604583165 Q 65.48515912736258 17.333906345457486 65.52887576008227 17.705491518300857 Q 65.60250181352365 17.999999550696504 65.73813001020189 17.999999550696504 Q 65.76356113240439 17.999999550696504 65.79117173777026 17.98964533501992 Q 65.96603635933394 17.92407181792669 65.96603635933394 17.705491518300857 Q 65.81302957680134 17.11532604583165 65.20100531064351 16.568874342109517 L 65.90046188758318 13.618042206475785 Q 68.02068945743325 13.552468689382557 69.59446723287627 12.940443468567198 Q 69.88590795059656 13.006017940317964 70.1287747380347 13.006017940317964 Q 70.614508312911 13.006017940317964 70.90594807597375 12.743721962629975 Q 71.34310867522542 12.350277041440451 70.7310844090676 11.519672475656792 Q 69.3977447722815 10.18633379352823 68.19555407899693 8.590698179054138 Q 65.72559726601949 5.5524337326385655 64.80756038945398 5.0715565006671985 Q 64.50154825637507 4.437674872807071 64.07531753129648 4.066088267977393 Q 63.64908632888911 3.6945023791408698 62.53432699172885 3.1480516300762758 Q 62.512468675369 1.8584282680132875 61.93323212241533 0.9185333137523243 Q 61.36715934227786 0.0 59.68423413832412 0.0 Z"
     style="fill:#ffffff;stroke:none"
     id="path8" />
  <path
     d="M 73.08627700805664 0.21996593475341797 L 73.08627700805664 5.341589516687236 L 74.06168017323216 5.341589516687236 L 74.06168017323216 0.21996593475341797 L 73.08627700805664 0.21996593475341797 M 73.08627700805664 6.804910540096898 L 73.08627700805664 11.682791468560026 L 74.06168017323216 11.682791468560026 L 74.06168017323216 6.804910540096898 L 73.08627700805664 6.804910540096898 M 73.08627700805664 12.902153562852618 L 73.08627700805664 17.780034491315746 L 74.06168017323216 17.780034491315746 L 74.06168017323216 12.902153562852618 L 73.08627700805664 12.902153562852618 Z"
     style="fill:#ffffff;stroke:none"
     id="path10" />
</svg>
