<?xml version="1.0" encoding="UTF-8" standalone="no"?>
<svg
   width="69.96400451660156"
   height="18.0"
   version="1.1"
   id="svg10"
   sodipodi:docname="djedkhaunebty.svg"
   inkscape:version="1.1.1 (3bf5ae0d25, 2021-09-20)"
   xmlns:inkscape="http://www.inkscape.org/namespaces/inkscape"
   xmlns:sodipodi="http://sodipodi.sourceforge.net/DTD/sodipodi-0.dtd"
   xmlns="http://www.w3.org/2000/svg"
   xmlns:svg="http://www.w3.org/2000/svg">
  <defs
     id="defs14" />
  <sodipodi:namedview
     id="namedview12"
     pagecolor="#ffffff"
     bordercolor="#666666"
     borderopacity="1.0"
     inkscape:pageshadow="2"
     inkscape:pageopacity="0.0"
     inkscape:pagecheckerboard="0"
     showgrid="false"
     inkscape:zoom="19.652963"
     inkscape:cx="34.982002"
     inkscape:cy="8.980834"
     inkscape:window-width="1920"
     inkscape:window-height="1001"
     inkscape:window-x="-9"
     inkscape:window-y="-9"
     inkscape:window-maximized="1"
     inkscape:current-layer="svg10" />
  <path
     d="M 22.77966110174755 0.5684490592972326 Q 22.633638086057772 0.6049545148491455 22.633638086057772 0.696219735092747 Q 22.633638086057772 0.7874840005506465 22.72490223216746 0.8422427507825265 Q 22.76140750869705 0.864146310549385 22.796453872674018 0.864146310549385 Q 22.84902246385376 0.864146310549385 22.898304682647282 0.8148638530594374 Q 22.980442987017422 0.7327252503187663 22.92568411743733 0.6505866475780953 Q 22.870925247857237 0.5684490592972326 22.77966110174755 0.5684490592972326 ZM 2.5609985348740345 0.46936116044907683 Q 2.359843567091113 0.46936116044907683 2.1720992805818096 0.7509784853246271 Q 2.2816167810455696 0.9335079710261279 2.5189051363271635 0.988266721258008 Q 2.5554108902496084 0.9973931597386192 2.589888440644617 0.9973931597386192 Q 2.762277147405363 0.9973931597386192 2.8839638690337397 0.7692307655447858 Q 2.8839638690337397 0.5136903090653525 2.6284226367909236 0.47718380921657794 Q 2.5945244026205927 0.46936116044907683 2.5609985348740345 0.46936116044907683 ZM 1.241199810550572 0.7874840005506465 Q 1.186441060318692 0.9152547360202673 1.2777053257765913 1.0247722364840275 L 0.5110819274186749 1.0977842217217681 Q 0.4928296471985162 0.9335079710261279 1.241199810550572 0.7874840005506465 ZM 1.9876164226822657 1.222624719872005 Q 1.9876164226822657 1.222624719872005 1.9876164226822657 1.222624719872005 L 1.9876164226822657 1.222624719872005 L 1.9876164226822657 1.222624719872005 ZM 2.125909851373434 1.2203396789907357 Q 2.284224539494109 1.2203396789907357 2.382007723680506 1.2529337952403716 Q 2.418033220394854 1.2649421350142038 2.3813761329386445 1.2649421350142038 Q 2.314213403607673 1.2649421350142038 2.0030587685814902 1.2246304859354444 L 2.0030585298850645 1.2246304859354444 Q 2.068468511363622 1.2203396789907357 2.125909851373434 1.2203396789907357 ZM 5.49470864855246 2.472162196565138 Q 5.540779445637364 2.472162196565138 5.621903767591998 2.539765559497574 Q 7.100390859290249 3.7627121350422854 9.290743732922557 5.405476312873666 Q 11.481095651769165 7.048240490705046 11.754889044883926 7.723598609145255 Q 9.966101851362767 7.468058331688141 8.697522964066787 6.318122547899043 Q 7.428944554163657 5.168188196288498 6.488918406955382 4.082139033390444 Q 5.548891782354257 2.996088915706688 5.439374520586923 2.667536414315408 Q 5.416389009597399 2.472162196565138 5.49470864855246 2.472162196565138 ZM 5.554353633962448 1.6040624432514505 Q 5.819804109613288 1.6040624432514505 6.059973769447039 1.7001303549242361 Q 11.736636406619128 6.007822446076134 12.558018495534819 7.303781245555012 Q 13.324641714870417 8.709256829408373 13.561929831455585 9.457627410479173 Q 13.461538888820648 9.568057924770454 13.322497266183765 9.568057924770454 Q 13.208735504578268 9.568057924770454 13.069100960020451 9.49413364179447 L 12.320730378949651 7.979140318780923 Q 11.754889044883926 6.683181519302044 9.555411284297772 5.104303007576006 Q 7.355932568925916 3.5254240184571173 6.370273871269948 2.603650986906491 Q 5.791486120478193 2.0623774824348997 5.483335241270446 2.0623774824348997 Q 5.266714415990388 2.0623774824348997 5.183833288344107 2.3298573550953035 Q 5.042689704984308 2.7853667564934774 4.685065172449792 2.7853667564934774 Q 4.533956013325552 2.7853667564934774 4.344197606377917 2.704041929541427 Q 4.508475169903898 1.8461543253997177 5.0560624335262725 1.6818780747040774 Q 5.315446678219568 1.6040624432514505 5.554353633962448 1.6040624432514505 ZM 6.023468492917445 8.033898710968165 Q 6.899609451413228 9.439374772214377 6.735331887887247 10.863103471725385 Q 6.5710557565398195 10.863103471725385 6.42503274085004 11.100391588310554 Q 6.365295618619811 10.697168400220765 6.0611810959671955 10.697168400220765 Q 5.99359993180233 10.697168400220765 5.913950753757259 10.717080456035607 Q 6.2972618860322065 9.311604394789393 6.023468492917445 8.033898710968165 ZM 2.768605228341677 0.3457626296377467 Q 2.854758883981503 0.3457626296377467 2.920469384259759 0.35853969124988744 Q 3.2490218856510396 0.42242505898469784 3.3037807552311325 0.5958278973462152 Q 3.3423147126810133 0.7178524937648807 3.3808493862201705 0.7178524937648807 Q 3.3970742983503825 0.7178524937648807 3.4132992104805946 0.696219735092747 Q 3.4680568865785597 0.6232077498550063 3.4863100022362077 0.5319425296114048 Q 3.887874488865229 1.061277632361834 3.5410688718163006 2.101695796338959 Q 3.1942632547673724 3.14211288618217 4.654497708200826 3.3428945327556163 Q 6.0052153772597965 6.445893402716877 7.556713976802937 8.06127814575821 Q 9.10821353113178 9.676662888799545 8.852672776281816 11.100391588310554 Q 8.262843406239485 10.66180027346223 7.547702231954776 10.66180027346223 Q 7.399740523897122 10.66180027346223 7.2464148297657305 10.680575179506013 Q 7.301173699345823 9.384615902634284 6.6258155809056145 8.125163811863553 Q 5.950456507679704 6.865711243699971 5.38461565100683 6.235985198314606 Q 4.818774316941105 5.6062591529292405 3.860495770164459 4.739244036173004 Q 2.9022162686021113 3.872229635506046 2.911342826430935 2.9504568426518447 Q 2.920469384259759 2.0286838111012186 3.166884297370177 1.6636248396982167 Q 3.4132992104805946 1.298565868295215 3.404172413955345 1.0795309867159075 Q 3.4003959978075793 0.9888957460132952 3.368491117486562 0.9888957460132952 Q 3.323292755836844 0.9888957460132952 3.221642928253844 1.170795132825594 Q 3.0482402390775927 1.4810953539967158 2.2633636653879217 1.4993485890025766 Q 2.2171959575542664 1.5004222455244558 2.1705229293878365 1.5004222455244558 Q 1.4237308477788386 1.5004222455244558 0.5475883974303962 1.2255549571913888 L 0.5475883974303962 1.2255549571913888 L 1.6245109428255198 1.298565868295215 Q 2.1565852064067235 1.4089965019347084 2.4153431116795185 1.4089965019347084 Q 2.627053474094281 1.4089965019347084 2.6558013554916937 1.3350723383069363 Q 2.7196867829006104 1.170795132825594 2.5554106515531827 1.1434162947766116 Q 2.3911342815093297 1.116036382593714 2.2177315923330783 1.116036382593714 Q 2.0443286644604015 1.116036382593714 1.953064399002502 1.170795132825594 L 1.9876164226822657 1.222624719872005 L 1.9876164226822657 1.222624719872005 Q 1.8278830423566574 1.2018226844347024 1.6062577078196592 1.170795132825594 Q 1.3689705460201929 0.7874840005506465 1.5332466773676203 0.6232077498550063 Q 1.5697521925936397 0.5684490592972326 1.6610164580515392 0.5684490592972326 Q 1.6245109428255198 0.7509784853246271 1.7249017661122432 0.8422427507825265 Q 1.7620839857045425 0.8760447306192765 1.798014123196905 0.8760447306192765 Q 1.8590952256508866 0.8760447306192765 1.9165579289907808 0.7783573830477161 Q 2.0078231492343823 0.6232077498550063 1.7522816782951405 0.5501957646172655 Q 2.4239901283895215 0.3457626296377467 2.768605228341677 0.3457626296377467 ZM 23.01695017311842 0.38591957359573165 Q 23.509778089767853 0.38591957359573165 23.747067161138723 0.7509784853246271 Q 23.82007771419791 0.8057372355565071 24.659714350949802 0.9517601915721803 L 24.659714350949802 1.0065190014781666 L 23.747067161138723 1.0795309867159075 Q 22.96219130353833 1.0795309867159075 22.76140750869705 0.9608868090751106 Q 22.56062562342718 0.8422427507825265 22.56975337473813 0.6870931175898166 Q 22.578879216477677 0.5319425296114048 22.816166378277146 0.5319425296114048 Q 23.053455449648016 0.5319425296114048 23.144719595757703 0.614081132352076 Q 23.23598374186739 0.696219735092747 23.190352623598248 0.7874840005506465 Q 23.144719595757703 0.8787482063344395 23.01695017311842 0.9335079710261279 Q 23.036506093866425 0.9348116712280785 23.054711947631823 0.9348116712280785 Q 23.291393775296232 0.9348116712280785 23.299870362758433 0.7144720153129057 Q 23.30899620449798 0.47718380921657794 22.907432433958235 0.4406782939905586 Q 22.3963490146869 0.4406782939905586 22.524120346897586 0.8148638530594374 Q 22.645949092899134 1.171644176011082 23.64728059785314 1.171644176011082 Q 23.69612743436656 1.171644176011082 23.747067161138723 1.170795132825594 Q 24.312907540418745 1.1342897369477876 24.75097849705949 1.0430254714898881 L 24.714473220529893 0.9700134862521473 L 24.714473220529893 0.9700134862521473 Q 26.338983805310775 1.9739250608693384 26.238591907890136 3.2607569444747537 Q 26.138201920040903 4.547588947428382 24.97001397537986 5.396349993741268 Q 23.801826030718814 6.245110562661302 22.889178840907736 7.267275491632566 Q 21.465450141396726 9.001303815573634 21.35593240223654 9.986962513229603 Q 21.246414663076354 10.97262121088557 21.848762228457378 10.97262121088557 Q 22.451107884266992 10.97262121088557 23.318122046237526 10.251630064604818 Q 24.185138117779466 9.530638918324064 25.079531714540046 9.512386280059266 Q 27.470664563870823 9.567144194853658 27.196872125541763 11.720991791956372 Q 26.320730212260276 10.790091963880496 25.225554730229824 10.790091963880496 Q 24.677966034428895 10.790091963880496 23.728813568088224 11.264668197050833 Q 22.286831275526716 12.031291416386429 21.53846260402732 12.031291416386429 L 20.9178614455958 11.94002631549104 Q 19.786180687035753 11.100391588310554 20.151239181045902 9.457627410479173 Q 20.69882596727543 8.271186827553333 21.629726750137007 5.222947065868591 Q 22.26857959204762 3.488918503231098 22.898304682647282 2.594524429077667 Q 23.52803168281835 1.7001303549242361 24.239896987359558 1.6818780747040774 Q 24.623207164848804 1.6818780747040774 25.48109548507979 2.0469359719731646 Q 25.516527582480354 2.0565995967593533 25.54286630085524 2.0565995967593533 Q 25.665772045128623 2.0565995967593533 25.590613224239974 1.8461543253997177 Q 24.90056286341766 1.4183230873680976 23.98094382841071 1.4183230873680976 Q 23.68429382037619 1.4183230873680976 23.36375507407807 1.4628421189908551 Q 23.08996072617761 1.4628421189908551 22.697522797377413 1.3168191033010757 Q 22.305084868577215 1.170795132825594 22.305084868577215 0.6232077498550063 Q 22.633638086057772 0.38591957359573165 23.01695017311842 0.38591957359573165 ZM 5.183833288344107 3.0508475465903557 Q 6.607562465247967 4.876141210123237 7.794002570780957 6.05345547391668 Q 8.980443153706798 7.2307702151029725 10.029987517468108 7.641461259560818 Q 11.079530926443718 8.052151349232961 11.973924523204298 8.070405897069161 Q 12.083442262364484 8.21642795797324 14.146023803786107 12.68839689656184 L 14.018253426361124 12.743155766141934 L 9.10821353113178 9.603651380954656 Q 9.144719762447076 9.329857033054191 7.657105874223576 7.641461259560818 Q 6.169491508607224 5.953063576496041 5.037810272654327 3.178618401408189 L 5.183833288344107 3.0508475465903557 ZM 10.22164260621273 10.917862341305478 L 12.941329627809766 12.578879157401655 Q 13.032594728705156 12.83441991225162 12.284224147634355 12.92568501314701 Q 12.117919574063066 12.945966571028519 11.97865548635762 12.945966571028519 Q 11.491235475924217 12.945966571028519 11.33507072650798 12.69752369308709 Q 11.13428979602381 12.378097272131784 10.823990171593753 11.867014807646152 Q 10.51368863759229 11.35593329794622 10.22164260621273 10.917862341305478 ZM 19.51238633913529 10.132986483705084 Q 19.51238633913529 10.899609703040682 19.73142181745566 11.465450082320704 Q 20.297262196735684 12.469361418241471 21.246414663076354 12.487615011291968 Q 21.271391857040214 12.488095268500066 21.296634481429226 12.488095268500066 Q 22.230630679536628 12.488095268500066 23.52803168281835 11.830508576330855 Q 24.760560726364584 11.205802794166512 25.321529788993093 11.205802794166512 Q 25.367013870264127 11.205802794166512 25.408083022449198 11.20990932747074 Q 25.955671718250127 11.264668197050833 26.594524560160743 11.775749706750762 Q 27.233377402071355 12.286832171236394 27.26988267860095 12.670144258297045 Q 27.336545816313357 12.981237309645449 27.213848215323008 12.981237309645449 Q 27.134969549339438 12.981237309645449 26.97783664722139 12.85267350530212 Q 26.453025319126954 11.803050849113246 25.632165497990247 11.803050849113246 Q 25.625090535938558 11.803050849113246 25.617992659030023 11.80312914154081 Q 24.78748377358908 11.812255938066059 23.573664710658896 12.451108779976673 Q 22.359843738157306 13.089961621887287 20.744458995115973 13.089961621887287 Q 19.129074252074638 13.089961621887287 18.946545959855264 12.049544054651227 Q 18.764015758064488 11.009126487415164 19.51238633913529 10.132986483705084 ZM 5.9869617842092975 11.191656689205942 L 6.260756609502613 11.739244430221168 Q 6.516296886959727 11.483703675371203 6.65319453830281 11.438070647530658 Q 6.65701845503925 11.436796008618511 6.66032249096096 11.436796008618511 Q 6.775304946086441 11.436796008618511 6.260756609502613 12.980443882727103 L 5.494133390167016 13.21773199931227 Q 5.293350550111441 13.071708028836788 5.6127774484596 12.314211606026442 Q 5.932203392022056 11.556715183216093 5.9869617842092975 11.191656689205942 ZM 25.3841465449005 12.332304795079008 Q 25.989295451531138 12.332304795079008 26.338983805310775 12.83441991225162 Q 26.101694733939905 13.21773199931227 25.225554730229824 13.436768432418344 Q 24.550196611789616 13.436768432418344 23.85658490029891 12.870926143566917 Q 24.757383199548386 12.332304795079008 25.3841465449005 12.332304795079008 ZM 23.272490927968388 13.089961621887287 Q 23.54354504090416 13.354712239618575 23.860314293250852 13.52803162374233 L 21.3870259534073 13.52803162374233 Q 22.296396318689176 13.432913007753738 23.272490927968388 13.089961621887287 ZM 13.835724179356049 14.239895973497832 Q 11.793824251025065 17.175128731674494 7.949174820459982 17.25145239111956 L 7.949174820459982 17.25145239111956 Q 4.122734108017405 17.175128731674494 2.080834179686421 14.239895973497832 ZM 28.602347232002273 14.258150521334034 Q 26.56044825845699 17.19338041515359 22.715797395713356 17.26970598417006 L 22.715797395713356 17.26970598417006 Q 18.889337110163886 17.19338041515359 16.829205548853547 14.258150521334034 ZM 3.0828786708633857 0.008692117630364187 Q 2.971576914619046 0.008692117630364187 2.8474573990220184 0.020860628300151455 Q 2.5554106515531827 0.020860628300151455 1.186441060318692 0.4406782939905586 Q 0.09126423562084626 0.696219735092747 0.0 1.0977842217217681 L 0.036505492848229494 1.7183835899300968 L 0.5840939126564156 1.5176008692227352 Q 1.4784879271357403 1.8096488101736983 2.080834179686421 1.8096488101736983 Q 2.6831812676745908 1.8096488101736983 2.5371572971991094 2.2203398546315434 Q 2.3911342815093297 2.6310308990893883 2.5736637672108307 3.5893094458660344 Q 2.7561932529123316 4.547588947428382 4.015645343683063 5.5241203711662505 Q 5.275098389239495 6.5006522722969695 5.576270739751453 8.079530784023007 Q 5.877444522441963 9.658410250534748 5.037810272654327 11.720991791956372 L 5.311603665769089 11.556715183216093 Q 5.3170254163777955 11.553462228329439 5.320836443507258 11.553462228329439 Q 5.38118176422965 11.553462228329439 5.037810272654327 12.368970475606535 Q 4.672751301251325 13.235984637577067 4.04302525586596 13.263364072367114 Q 3.93189679322653 13.268195288019145 3.833558162458005 13.268195288019145 Q 3.3746456661215403 13.268195288019145 3.1942632547673724 13.162973129732178 Q 2.989829552883843 13.04372039555458 2.5866402596864733 13.04372039555458 Q 2.5578429681289827 13.04372039555458 2.5280316941559873 13.044328594046743 Q 2.080834179686421 13.053455390571992 2.080834179686421 13.345502376737253 L 2.080834179686421 13.52803162374233 L 0.8031288539098296 13.52803162374233 Q 2.9022162686021113 17.981746969280433 7.958279656914086 18.000000562330932 Q 13.014342090440358 17.981746969280433 15.113428908391576 13.52803162374233 L 15.113428908391576 13.52803162374233 L 9.49152561819243 13.564537855057624 Q 9.49152561819243 13.400261246317346 9.144719762447076 13.208605202787021 Q 8.975349371986722 13.115006605635987 8.75591479324292 13.115006605635987 Q 8.526030084990925 13.115006605635987 8.241198414375544 13.21773199931227 Q 8.071091884138962 13.279081754593147 7.876274067756523 13.279081754593147 Q 7.433506997640579 13.279081754593147 6.863102742705081 12.962191244462305 Q 6.990873597522914 12.323337447765988 7.17340284452799 11.821382734591309 Q 7.355932568925916 11.319427066630926 7.867014556018697 11.228161965735536 Q 7.91433659976605 11.219711157487291 7.962910844961551 11.219711157487291 Q 8.438939307184603 11.219711157487291 9.03520202328689 12.031291416386429 Q 9.382007879032244 11.35593329794622 9.235984863342464 10.205997991549975 L 9.235984863342464 10.205997991549975 L 9.418514110347541 10.333768368974956 Q 10.787483940278456 12.633638026981748 11.070404129918469 13.035202752307194 Q 11.28503327222419 13.339837633167392 11.904089587389903 13.339837633167392 Q 12.10106378728027 13.339837633167392 12.338983017214447 13.308996145421958 Q 13.324641714870417 13.181225767996974 13.30638907660562 12.83441991225162 L 13.30638907660562 12.83441991225162 L 14.146023803786107 13.254238230627566 L 14.784876645696722 13.016950114042398 L 13.37940058445051 9.968709874964805 Q 13.726206440195863 9.968709874964805 14.018253426361124 9.676662888799545 Q 13.67144757061577 8.581486451983391 12.941329627809766 7.2307702151029725 Q 12.430248118109837 6.409388126187283 11.900913015359407 5.953063576496041 Q 10.4589307227979 4.602347339615624 8.907431645861907 3.3885266058104597 Q 7.355932568925916 2.174706826790998 6.6258155809056145 1.5176008692227352 Q 6.135176987870829 1.237236402210505 5.607156147639178 1.237236402210505 Q 5.310143798430758 1.237236402210505 5.0013035639461805 1.3259457804781123 Q 4.143416198500896 1.5723605742403173 3.9608864741029697 2.539765559497574 Q 3.906127843219302 2.50326028296798 4.0521506202126565 1.8096488101736983 Q 4.198174590688137 1.116036382593714 3.988266386285867 0.5228169265682828 Q 3.8063448603801033 0.008692117630364187 3.0828786708633857 0.008692117630364187 ZM 23.079162099888187 0.0 Q 22.74837277429359 0.0 22.451107884266992 0.09387261726752386 Q 22.06779770677775 0.20339010281275738 21.994785244147156 0.5136903090653525 Q 21.848762228457378 0.8970014413403002 22.12255657635784 1.2711870302462323 Q 22.3963490146869 1.645371604692356 22.980442987017422 1.7366368249359574 Q 21.81225504235638 2.795307030436816 20.99087390822639 5.478487343325705 Q 20.22424973410509 8.033898710968165 19.713168224405162 9.2568455252093 Q 18.344198394474244 10.370274600290251 18.353324236213794 11.492829517110751 Q 18.362451987524743 12.615385388716952 18.91003877375427 13.089961621887287 Q 19.30575352708367 13.432913007753738 20.06368533217412 13.52803162374233 L 15.55149986503232 13.52803162374233 Q 17.650586682983537 17.981746969280433 22.706650548688362 18.000000562330932 Q 27.762712504821785 17.981746969280433 29.861799322773003 13.52803162374233 L 26.348111556621728 13.52803162374233 Q 26.5488934418916 13.418513884582143 26.75880116890102 13.272490868892364 Q 26.964314972109918 13.516538868247567 27.224062512762817 13.516538868247567 Q 27.333429395782087 13.516538868247567 27.452412880391726 13.473272754162236 Q 27.908735520511563 13.254238230627566 27.6349411726111 12.469361418241471 Q 27.890481927461064 10.22425062981477 27.032595516801482 9.603651380954656 Q 26.1747071965705 8.983051177308838 25.09778339801914 8.983051177308838 Q 24.112125655148873 8.983051177308838 22.96219130353833 9.831812701014574 Q 22.249229905011244 10.358045705019261 21.98532331784051 10.358045705019261 Q 21.823573072067678 10.358045705019261 21.83050863540688 10.160365918495131 Q 21.848762228457378 9.64015665748425 22.633638086057772 8.398957204978315 Q 23.162973188808202 7.522817201268234 24.933506789278862 6.144720097419217 Q 26.704042299320925 4.766623948355902 26.685788706270426 3.370274444938514 Q 26.667537022791333 1.9739250608693384 25.900912848670032 1.2711870302462323 Q 25.134290584120137 0.5684490592972326 24.20338980125856 0.47718380921657794 Q 24.05736678556878 0.2764020731319715 23.82007771419791 0.1486313525808773 Q 23.582790552398443 0.020860628300151455 23.190352623598248 0.0026073821053958263 Q 23.13429142632065 0.0 23.079162099888187 0.0 Z"
     style="fill:#ffffff;stroke:none"
     id="path2" />
  <path
     d="M 36.15834200651194 0.38297850975848313 L 36.15834200651194 0.7898940585148237 L 35.129086509947015 0.7898940585148237 L 35.129086509947015 0.38297850975848313 ZM 37.474831706173156 1.5558511377113133 Q 37.28334255573308 1.7712764319563987 37.28334255573308 2.2978721924618397 L 34.00408715431634 2.2978721924618397 Q 34.028023178762304 1.7712764319563987 33.836533908963176 1.5558511377113133 ZM 37.474831706173156 3.0638302265307003 Q 37.23547050684115 3.2792554014167394 37.28334255573308 3.805851042563134 L 34.00408715431634 3.805851042563134 Q 34.028023178762304 3.2792554014167394 33.836533908963176 3.0638302265307003 ZM 37.474831706173156 4.571808121759624 Q 37.28334255573308 4.7393624413442 37.28334255573308 5.313829892664428 L 34.00408715431634 5.313829892664428 Q 34.05195920320826 4.787234490236126 33.836533908963176 4.571808121759624 ZM 37.37908665351693 6.079786971860917 Q 37.04398040152871 6.678192118653758 37.06791618725657 7.683511352054621 L 34.17163932543808 7.683511352054621 Q 34.219512329202374 6.678192118653758 33.86046993340914 6.079786971860917 ZM 37.06791618725657 7.851064716766826 L 37.06791618725657 8.018617126606662 L 34.17163932543808 8.018617126606662 L 34.17163932543808 7.851064716766826 ZM 37.06791618725657 8.186171446191238 L 37.06791618725657 8.353723856031072 L 34.17163932543808 8.353723856031072 L 34.17163932543808 8.186171446191238 ZM 37.06791618725657 8.521277220743277 L 37.06791618725657 8.688830585455484 L 34.17163932543808 8.688830585455484 L 34.17163932543808 8.521277220743277 ZM 37.06791618725657 8.85638395016769 L 37.06791618725657 9.023936360007523 L 34.17163932543808 9.023936360007523 L 34.17163932543808 8.85638395016769 ZM 37.06791618725657 9.19148972471973 L 37.06791618725657 15.007979234084589 Q 37.28334255573308 16.085107734413807 37.83387422132544 17.37766117091097 L 33.4296183900466 17.37766117091097 Q 33.86046993340914 16.420214463838217 34.17163932543808 15.007979234084589 L 34.17163932543808 9.19148972471973 ZM 34.77004423351283 0.0 L 34.77004423351283 0.7898940585148237 L 32.08919254658037 0.7898940585148237 Q 31.63440593364424 1.1728725981130685 32.08919254658037 1.5558511377113133 L 33.19025707135555 1.5558511377113133 Q 33.40568236560063 1.7712764319563987 33.38174622179562 2.2978721924618397 L 32.08919254658037 2.2978721924618397 Q 31.63440593364424 2.6808516869324555 32.08919254658037 3.0638302265307003 L 33.19025707135555 3.0638302265307003 Q 33.40568236560063 3.2792554014167394 33.38174622179562 3.805851042563134 L 32.08919254658037 3.805851042563134 Q 31.63440593364424 4.188829820879471 32.08919254658037 4.571808121759624 L 33.19025707135555 4.571808121759624 Q 33.4296183900466 4.787234490236126 33.38174622179562 5.313829892664428 L 32.08919254658037 5.313829892664428 Q 31.63440593364424 5.67287240781671 32.08919254658037 6.079786971860917 L 33.19025707135555 6.079786971860917 Q 33.62110765984572 6.582447065997535 33.57323549159475 9.119681412663748 L 33.57323549159475 15.007979234084589 Q 33.40568236560063 16.324469411181994 32.400362953161206 18.000001148559306 L 38.95887477054658 18.000001148559306 Q 37.809938435597566 16.085107734413807 37.690257119777286 15.007979234084589 L 37.690257119777286 9.119681412663748 Q 37.570575803957006 6.606382851725405 38.09717263869386 6.079786971860917 L 39.222172233042635 6.079786971860917 Q 39.70089558657901 5.720744456708636 39.222172233042635 5.313829892664428 L 37.92961831910929 5.313829892664428 Q 37.905682533381416 4.7393624413442 38.09717263869386 4.571808121759624 L 39.29398006766243 4.571808121759624 Q 39.70089558657901 4.164893557715415 39.222172233042635 3.805851042563134 L 37.92961831910929 3.805851042563134 Q 37.905682533381416 3.2792554014167394 38.09717263869386 3.0638302265307003 L 39.222172233042635 3.0638302265307003 Q 39.67695980085114 2.6808516869324555 39.222172233042635 2.2978721924618397 L 37.92961831910929 2.2978721924618397 Q 37.905682533381416 1.7712764319563987 38.09717263869386 1.5558511377113133 L 39.222172233042635 1.5558511377113133 Q 39.67695980085114 1.1728725981130685 39.222172233042635 0.7898940585148237 L 36.541320307392084 0.7898940585148237 L 36.541320307392084 0.0 Z"
     style="fill:#ffffff;stroke:none"
     id="path4" />
  <path
     d="M 47.56057446983823 6.396907617733156 Q 47.626915093332855 6.396907617733156 47.69341985459482 6.398472417896741 Q 47.727571130881074 6.398070642435357 47.761678958934795 6.398070642435357 Q 50.25155909650289 6.398070642435357 52.509959602853314 8.539157783022091 L 51.11256789300364 9.668963656282983 Q 49.80437733557426 8.420230074040774 47.69341985459482 8.420230074040774 Q 45.582468166713056 8.420230074040774 44.274269161016235 9.668963656282983 L 42.87687733047703 8.539157783022091 Q 45.10597815915105 6.396907617733156 47.56057446983823 6.396907617733156 ZM 47.69341985459482 9.282452041745444 Q 50.04222744319736 9.312183908646006 51.55854662064928 11.750184684159535 L 43.79856170439794 11.750184684159535 Q 44.987833001113444 9.312183908646006 47.69341985459482 9.282452041745444 ZM 47.69341985459482 5.47678804397583 Q 44.006683324427456 5.62544632244521 41.4794864654541 8.50942495060525 L 43.590440084368424 10.293328274992462 Q 42.698487335969006 11.482597640675408 42.49036577628426 12.523211775299728 L 52.8667400746275 12.523211775299728 Q 52.65861724770264 11.482597640675408 51.76666848205787 10.32306231430465 L 53.72896445612287 8.539157783022091 Q 51.38015590200405 5.62544632244521 47.69341985459482 5.47678804397583 Z"
     style="fill:#ffffff;stroke:none"
     id="path6" />
  <path
     d="M 58.35192720779116 0.6343796163654517 Q 57.980340602961476 0.6343796163654517 57.980340602961476 1.0715398576205497 Q 57.980340602961476 1.4431256271248805 58.35192720779116 1.4431256271248805 Q 58.745371412987524 1.4212680267581896 58.745371412987524 1.0278238215618205 Q 58.745371412987524 0.6343796163654517 58.35192720779116 0.6343796163654517 ZM 56.909297421192136 0.9185333137523243 L 56.909297421192136 1.3119775189486933 L 56.05683549370617 1.4649840628169186 Q 56.45027969890254 1.0496814219285115 56.909297421192136 0.9185333137523243 ZM 56.95301345725086 1.4431256271248805 Q 57.45574828958892 1.836570786978789 57.12787760148578 2.033292531580396 Q 56.62514378347136 1.8584282680132875 56.38470516748568 1.574273615968875 L 56.95301345725086 1.4431256271248805 ZM 58.48307543529953 0.4376570364384973 Q 59.510402461677955 0.4376570364384973 60.12242672783578 1.2245454468312351 Q 60.7344509939936 2.011434931213705 60.77816714938452 3.6507862237499484 Q 62.373802286529845 3.97865595719555 62.89839471923459 5.093415294355815 Q 62.98332916856357 5.815354533686349 62.57321926803067 5.815354533686349 Q 62.56115669268662 5.815354533686349 62.54866643076476 5.814730187655325 Q 62.111506308841854 5.792871393966709 61.860139250669405 5.574291571669641 Q 61.768733177878175 5.494807739564106 61.72212631945676 5.494807739564106 Q 61.64056515254464 5.494807739564106 61.696203548621256 5.73822727371779 Q 61.7836358594031 6.1207423207342355 62.65795610324891 6.66719306979883 Q 63.53227777908103 7.213642864205885 62.80003444359475 7.574300072191255 Q 62.61834974856679 7.66378680599873 62.41311556134724 7.66378680599873 Q 61.79119579246071 7.66378680599873 60.95303129361944 6.842057214033746 Q 59.838271956459174 5.749155238575788 59.772698439365946 5.180847127808888 Q 59.707123967615175 4.612539017041987 60.23171735497747 4.13166273972816 Q 60.54363738624138 3.845735885293317 60.445986421153606 3.845735885293317 Q 60.37940621768467 3.845735885293317 60.12242672783578 3.97865595719555 Q 59.488543906653724 4.306526883963077 59.45575714810711 4.940408511823204 Q 59.4229703895605 5.574291571669641 59.95849198044517 6.328393223515765 Q 60.494012378007916 7.082494875361889 62.06779015345093 8.240969890584305 Q 62.2286652234265 8.324904336140351 62.432067422827195 8.324904336140351 Q 62.86429673855707 8.324904336140351 63.4885616236901 7.945887154349703 Q 64.40659850025561 7.388507008440801 62.57052522445338 6.230031515889615 Q 63.248123962361966 6.055167848983468 63.26998132406427 5.639866043420408 Q 64.122443728879 5.9240193828107035 68.056887212829 10.929506048530046 Q 69.1060720782385 11.628962625469711 69.12792991726957 11.956833074908467 Q 69.1060720782385 12.262845685316147 68.80006042248836 12.328419202409375 Q 68.7344859507376 12.342470806737573 68.66690383418064 12.342470806737573 Q 68.41910528589193 12.342470806737573 68.14431952361085 12.153555535503228 Q 66.92027003663766 12.743721962629975 65.77272489558833 12.765579801661051 Q 65.71232848633339 12.766730163996499 65.65305189037262 12.766730163996499 Q 64.58606457116109 12.766730163996499 63.88200559022209 12.393993674160143 L 63.88200559022209 12.393993674160143 Q 64.60332000619283 13.02787577934904 64.38474066122453 13.727332356288704 Q 64.27876221841716 14.066462991409306 64.22416726303153 14.066462991409306 Q 64.1661603615987 14.066462991409306 64.1661603615987 13.683616678226553 Q 64.1661603615987 12.940443468567198 62.26451309137446 12.262845685316147 L 62.26451309137446 13.093450251099807 Q 62.15255753771044 13.563663958351698 62.08647566547728 13.563663958351698 Q 62.023541299152804 13.563663958351698 62.002215681700164 13.13716592916196 Q 61.87106769285617 12.197271213565381 61.379262018698036 11.11529958960927 Q 60.88745777652621 10.033327010995619 59.816414594756864 8.120750821255848 Q 58.745371412987524 6.208174154187309 58.45028867675292 5.366640668888111 Q 58.15520474719639 4.525106706260145 58.17706306355624 3.803791812960634 Q 58.19892066392293 3.0824769196611235 57.881979133999714 2.743678028035599 Q 57.565038797398415 2.404879136410074 57.696186905574606 2.011434931213705 Q 57.82733501375079 1.617989652027604 57.3027416263885 1.2682614828899643 L 57.3027416263885 0.8966757730517297 Q 57.87105093047733 0.4376570364384973 58.48307543529953 0.4376570364384973 ZM 62.636098741546604 13.02787577934904 Q 63.707141923315945 13.333888389756721 63.707141923315945 13.74919019531978 L 62.98582703001644 16.437727307923062 Q 62.89839471923459 16.918603585236887 62.39566108021846 16.918603585236887 L 61.52133940438634 16.918603585236887 L 61.52133940438634 16.874887907174735 L 62.636098741546604 13.465036378600715 L 62.636098741546604 13.02787577934904 ZM 58.56195687849746 0.0 Q 58.522818067345455 0.0 58.48307543529953 4.967951833993125E-4 Q 57.63061231449164 4.967951833993125E-4 56.75629183198145 0.6999531931247753 Q 56.253557118975586 0.8748172776935953 55.72896480560303 1.5087000988756476 Q 56.45027969890254 2.164440520424391 57.04044552936832 2.317447064292616 Q 57.106020120451284 2.623459197371527 57.45574828958892 3.1699089917785814 Q 57.47760577062342 4.612539017041987 57.8491923754531 5.563363129482873 Q 58.22077921894716 6.514186287266219 60.341007027461615 10.667210070842057 Q 61.39019141554234 12.853012112442894 61.39019141554234 13.355746228787796 Q 61.39019141554234 14.12077727747823 60.42843886091469 16.78745464173535 Q 60.42843886091469 16.940461424267962 59.11695825648159 17.027892780392268 Q 57.14973603717782 17.093468206800573 57.14973603717782 17.574344484114402 Q 57.14973603717782 17.858498300833464 57.41203225353019 17.858498300833464 L 63.22626564600212 17.858498300833464 Q 63.77271544040917 17.42133770158179 63.83828991215994 17.11532604583165 Q 64.36288186753592 17.333906345457486 64.40659850025561 17.705491518300857 Q 64.48022455369698 17.999999550696504 64.61585275037523 17.999999550696504 Q 64.64128387257773 17.999999550696504 64.6688944779436 17.98964533501992 Q 64.84375909950728 17.92407181792669 64.84375909950728 17.705491518300857 Q 64.69075231697468 17.11532604583165 64.07872805081685 16.568874342109517 L 64.77818462775652 13.618042206475785 Q 66.89841219760659 13.552468689382557 68.47218997304961 12.940443468567198 Q 68.7636306907699 13.006017940317964 69.00649747820805 13.006017940317964 Q 69.49223105308434 13.006017940317964 69.7836708161471 12.743721962629975 Q 70.22083141539876 12.350277041440451 69.60880714924095 11.519672475656792 Q 68.27546751245484 10.18633379352823 67.07327681917027 8.590698179054138 Q 64.60332000619283 5.5524337326385655 63.68528312962733 5.0715565006671985 Q 63.37927099654842 4.437674872807071 62.95304027146982 4.066088267977393 Q 62.52680906906245 3.6945023791408698 61.41204973190219 3.1480516300762758 Q 61.39019141554234 1.8584282680132875 60.81095486258867 0.9185333137523243 Q 60.2448820824512 0.0 58.56195687849746 0.0 Z"
     style="fill:#ffffff;stroke:none"
     id="path8" />
</svg>
