<?xml version="1.0" encoding="UTF-8" standalone="no"?>
<svg
   width="70.59765625"
   height="18.0"
   version="1.1"
   id="svg54"
   sodipodi:docname="djedkhau.svg"
   inkscape:version="1.1.1 (3bf5ae0d25, 2021-09-20)"
   xmlns:inkscape="http://www.inkscape.org/namespaces/inkscape"
   xmlns:sodipodi="http://sodipodi.sourceforge.net/DTD/sodipodi-0.dtd"
   xmlns="http://www.w3.org/2000/svg"
   xmlns:svg="http://www.w3.org/2000/svg">
  <defs
     id="defs58" />
  <sodipodi:namedview
     id="namedview56"
     pagecolor="#ffffff"
     bordercolor="#666666"
     borderopacity="1.0"
     inkscape:pageshadow="2"
     inkscape:pageopacity="0.0"
     inkscape:pagecheckerboard="0"
     showgrid="false"
     inkscape:zoom="19.476567"
     inkscape:cx="35.298828"
     inkscape:cy="9.0108281"
     inkscape:window-width="1920"
     inkscape:window-height="1001"
     inkscape:window-x="-9"
     inkscape:window-y="-9"
     inkscape:window-maximized="1"
     inkscape:current-layer="svg54" />
  <path
     d="M 3.009169848917976 0.4739171748132039 C 3.7026715218272255 0.4739171748132039 4.256829318471649 0.6745946316238001 4.644164689284773 0.9526347441559112 C 4.650308145491952 1.0062515645085024 4.663546055856558 1.060016372992199 4.652575800812965 1.1124437372646898 C 4.603449882852364 1.360569519526529 4.457806885291136 1.5903185537666114 4.257258755698066 1.7432685981716125 C 3.9413649209170813 1.94997010496389 3.5600411988456018 2.009570228366613 3.2002765010963685 2.0993341831784433 C 3.10998720613517 2.1086036967312767 3.181170796374544 2.130187995961788 3.231117085890341 2.138585643286511 C 3.4609996992016763 2.1784200797833564 3.9384250002790258 2.2376030490926513 4.202499603977515 2.2376030490926513 C 4.220906351189456 2.2376030490926513 4.23827706337661 2.2373153403237978 4.254454894379272 2.2367137030214415 C 4.532424083629077 2.2049171597812043 4.794657162235626 2.0893111466595644 5.019856122452685 1.9255069464391237 C 5.098959498900698 1.8590524805074944 5.166930105007111 1.7763742399315428 5.224523825878929 1.6899990125400517 C 5.3720929131784425 2.0357255065676374 5.451951702305268 2.4028945713681713 5.485264503827336 2.6067978859799568 C 5.503366062427325 2.716651377223197 5.580895308140001 2.8061828973646232 5.687128818362978 2.8395020766672823 C 6.825504545072815 3.188508875845171 7.72511459117944 4.749370284342509 8.566494083211595 5.78895938641794 C 10.295861887830181 7.925728476871466 11.765759846336513 10.315234366846607 13.458892408638075 12.548598959980612 C 12.522122105814729 12.092922126930452 11.58844053850988 11.632519122248745 10.649618007621019 11.174801399409672 C 8.72850955219054 10.164475916823728 6.728271736761494 9.358727903879377 5.045088984609069 8.085161653353607 C 5.042277564439204 8.082822188947427 5.039490238107126 8.07909189594436 5.036677873080877 8.076750541825415 C 4.066833817400553 7.2693821001829235 3.0743602151151883 6.41700117284651 2.698420284718348 5.284299308721125 C 2.5498687829938245 4.364048874911361 4.455242072637431 2.7072382455000326 4.240437005069874 2.637638234559833 C 4.2215063349931405 2.631504463130588 4.200107227613845 2.6285180083156328 4.1764933768710275 2.6285180083156328 C 3.7176359210190495 2.6285180083156328 2.422621666796125 3.756154733581801 2.15731260823226 4.830105427765268 C 2.154053326136495 4.815773846136464 2.1461630666898484 4.79928090552982 2.143294246494671 4.785246481233707 C 2.0704243238243896 4.4287242943794265 1.9886595231574336 3.528875672035904 2.2105824300779164 2.8058581029827074 C 2.22090238771539 2.7720589366371007 2.223991359447983 2.7373940456298778 2.2217969304967107 2.702122556824284 C 2.206042867582163 2.411103719844335 2.16184012380912 2.2384220033632714 2.098435772391302 2.068493834598567 C 2.035031184759387 1.8985666106902463 1.9592064599630061 1.724220765903293 1.8376947401217505 1.3030929608462967 C 1.806828171777225 1.1953371688820418 1.6962380468757994 0.9753151948986268 1.630223411590808 0.9582419943653084 C 1.8161052441811285 0.8204882523408192 2.0045522437462973 0.6772958579179091 2.2750667523423678 0.5825507383579678 L 2.2750667523423678 0.5825507383579678 C 2.1960743965194465 0.658865194028754 2.1432944827087668 0.7691834365057539 2.143294246494671 0.8965614153126038 C 2.143294246494671 1.1261525404295507 2.3068791219270324 1.3115031275181046 2.5077709430296933 1.3115039542674405 C 2.7086627641323537 1.3115039542674405 2.8722476395647156 1.1261525404295507 2.8722476395647156 0.8965614153126038 L 2.8722476395647156 0.8937576721008572 C 2.871221053103765 0.7095976631093593 2.7627272101967493 0.5576299150223198 2.6171139756116095 0.5040481134094518 C 2.669879244148341 0.49667510377938745 2.7125253370291467 0.4854209784459994 2.771315482296895 0.4816187582507192 C 2.852317311433968 0.47642689052903053 2.9316148558688426 0.4739171748132039 3.009169848917976 0.4739171748132039 ZM 3.6797034804227042 8.23655977114829 C 3.744950774217038 8.301805883872143 3.8149797499554623 8.36067988514395 3.8815675587442495 8.424405723946341 C 4.0956495749641375 9.204198532028927 4.293931466520769 10.064938131364233 4.57407335302502 10.7290191024102 C 5.057193067313169 11.874268186883667 5.789626838872777 12.870430272277117 6.413278350114227 13.883144351801198 C 6.260634439177563 13.965039778863208 6.128536902733854 14.058336787907995 6.029175805418124 14.152295196421411 C 5.947669659186221 14.229370911069886 5.8940429178416 14.280530159968329 5.830115352201277 14.345748871857053 C 5.520950312157207 13.938784109671408 5.124019924767046 13.62317373180555 4.644164689284773 13.448575610364134 C 4.689085996337662 12.725628196897432 4.536026821020337 11.737052363409154 4.30492109112023 10.66173115504105 C 4.1263418173058595 9.830810278320685 3.903548933870034 9.003086795602949 3.6797034804227042 8.23655977114829 ZM 4.686219774497539 9.144947533060002 C 5.834593499032087 10.09035760265641 7.113542596376112 10.88336044784028 8.36182590735716 11.685069199744076 C 8.343845290374292 12.594861963098435 8.344411259348162 13.463187814338914 8.445936077782692 14.359767706022835 C 8.033305011863666 14.014385848361224 7.586775333464642 13.763462228240035 7.018870348864767 13.625206117887009 C 7.015369655962953 13.624345353721408 7.011953527707485 13.623977804588126 7.008598342688769 13.623977804588126 C 6.989090837789752 13.623977804588126 6.971640285238172 13.63639699689621 6.951581929067426 13.636421563162186 C 6.30326824892538 12.572860982202688 5.56863248956343 11.57684345983595 5.115180793297013 10.501922870574559 C 4.9594783822461315 10.132827952249835 4.822072170210292 9.651825188689491 4.686219774497539 9.144947533060002 ZM 5.092751320031232 14.399018929916807 C 5.256419815253556 14.551910865654206 5.4054203599744595 14.728454446389774 5.5329268392495 14.94012684261699 C 5.575655607063885 15.01022479287143 5.648728910070769 15.058380343325913 5.729183431147552 15.07470273735529 C 5.7494917018318015 15.078823256044847 5.769947370111917 15.080878318679517 5.790254695939782 15.080878318679517 C 5.850400001475933 15.080878318679517 5.909242822487076 15.062849514021076 5.9590844691583715 15.027040401933126 C 6.175000687833224 14.870724306660996 6.306688629034575 14.703258906060551 6.435707350951817 14.58125716007727 C 6.483312522562763 14.536239477673238 6.5327214250102985 14.500179978643592 6.584302079855896 14.463502543538969 L 6.732896336331785 17.185862440383506 C 6.519603983834621 17.172073206318977 6.298091380798784 17.15081393768448 6.095781566478202 17.15081393768448 C 5.831792472282443 17.15081393768448 5.600500133246544 17.18701327545892 5.462835502989748 17.323242668868794 C 5.2941143882552915 17.189184555428792 4.96598135630733 17.158607113137695 4.572329148140608 17.158607113137695 C 4.471105738892494 17.158607113137695 4.365550163124863 17.160629105798932 4.257258755698066 17.16343343954592 L 5.092751320031232 14.399018929916807 ZM 6.25066573190075 9.573908551859477 L 6.25066573190075 9.573908551859477 C 7.604791854990093 10.361226196182292 9.034522078910209 10.988295252963786 10.386072995925625 11.699088033909858 C 10.388108216576233 11.700135879639442 10.389620931646625 11.700891764746446 10.39167977370683 11.70189142280046 C 11.686891739128056 12.333365400043023 12.978365852695143 12.98273873661945 14.285973389014858 13.605581450796405 C 15.269975172749374 14.794761632832586 16.33790476962736 15.90056296328426 17.36439863465213 17.026055100773398 C 16.647556883137256 17.146248391638174 15.930830404101199 17.267532046769798 15.213987707729942 17.38772722734734 C 13.79219427743337 15.841645498618801 12.36859900601298 14.299348864563587 10.946807465429178 12.75326524612228 C 10.935631704122118 12.739913480563432 10.92370950627189 12.727994117282355 10.910359630425809 12.716818355975295 C 9.41106341039531 11.580038019269429 7.757799063206311 10.634765898705052 6.25066573190075 9.573908551859477 ZM 3.0756960058277225 0.0 C 2.9405269774945206 0.0 2.803378947465543 0.004522381611119117 2.664776311033773 0.013406474957975922 C 1.5799215017535755 0.08356273687650426 0.791815610992612 0.5394290283949892 0.5227751964622482 1.157302329475107 C 0.4821416476788419 1.2499492773278713 0.3773182175015722 1.4706424536648965 0.5155519465690093 1.4706424536648965 C 0.5301007861125528 1.4706424536648965 0.5473420529751317 1.468197873986025 0.5676338477261894 1.4629019539550754 C 0.6829407547488466 1.4484514385289664 0.7780652341468658 1.4423110531050352 0.8569417269557291 1.4423110531050352 C 1.2747371416542677 1.4423110531050352 1.236670413344381 1.614590378873667 1.3274274122155385 1.6367293088014427 C 1.417468209947809 1.9189504698851962 1.6165598434253194 2.483475939414473 1.630223411590808 2.7049261819289825 C 1.386425543994761 3.5656903475302664 1.4768830233922678 4.468266061611404 1.565739089326357 4.903000625343815 C 1.7153772939992473 5.635118342443057 2.1961816377190027 6.48697345720191 2.8273889292472503 7.283313535133207 C 2.8134251329658233 7.338127016095824 2.8086283333195925 7.393803623365002 2.8273889292472503 7.448729542237286 C 3.1285063912567783 8.370618829444675 3.4792571591049843 9.617610994177321 3.7301694409495667 10.785092549360554 C 3.981081959008245 11.952574104543789 4.12285718696257 13.061967778966503 4.046983802062425 13.608383894830625 C 4.025192579283871 13.758532912485983 4.121174397743101 13.900045942793815 4.26847325611686 13.936413465004566 C 4.312604663232929 13.947361515923141 4.352082652659003 13.967347118152338 4.39463851175516 13.981272411536127 L 3.4666249016823647 17.0596976571734 C 3.272728324816838 17.01836208009686 3.0724617624261277 17.00476559673462 2.874112549852153 17.00476559673462 C 2.4927394590346226 17.00476559673462 2.118454680808026 17.055030066637645 1.8101650502035056 17.055030066637645 C 1.6846506825065655 17.055030066637645 1.570075389592555 17.04669832304569 1.4704144184820296 17.023250767026415 C 1.4375472348519498 17.015217598051724 1.3949769666959404 17.011228414399508 1.3451441780532423 17.011228414399508 C 0.9090801423353627 17.011228414399508 -0.08308278674200893 17.316628674182503 0.004096926806725951 17.889582026440785 C 0.15548046576267507 17.76211712084663 0.26223299740795364 17.73138850153413 0.38031217211407353 17.73138850153413 C 0.49024007079753446 17.73138850153413 0.6099847320405954 17.758020223566664 0.7846967677297779 17.758020223566664 C 0.7935070810801064 17.758020223566664 0.8024571741217066 17.757952193907034 0.8115528340999292 17.75781046544947 C 1.066223518424995 17.75382506122279 1.509269747551208 17.674784045296107 1.865480722334089 17.674784045296107 C 2.0452727193170093 17.674784045296107 2.202943030001157 17.694920824546703 2.3031032396034496 17.755008021415254 C 2.5392046614185677 17.745578354705373 2.7523340261895344 17.741732789223487 2.951610851518261 17.741732789223487 C 3.8011631150558056 17.741732789223487 4.398956033000731 17.81162570564265 5.451620530142762 17.816688246146814 C 6.240002555181878 17.80960749240695 7.649068297561068 17.777941575561766 8.426310465835707 17.73818579835887 C 8.876011082258614 17.740893756754712 9.122960636429726 17.792010487115885 9.3482285711628 17.792010487115885 C 9.361538763040762 17.792010487115885 9.374772421551643 17.79183285411574 9.387968285807172 17.791454911562237 C 9.52192246504496 17.78755265469733 9.652878614977093 17.73516414764362 9.867871236536825 17.73516414764362 C 9.990853743446445 17.73516414764362 10.141335350548884 17.752305732157712 10.335607271612858 17.805472800871634 C 10.085930861918229 17.463682342324677 9.45939942841909 17.120327201606223 9.005599080147068 17.120327201606223 C 8.891079651866747 17.120327201606223 8.787560241606108 17.142193068039095 8.703873366840497 17.191469218164713 C 8.542968104112466 17.175166666119395 8.37234782804666 17.169161158944245 8.19567291227375 17.169161158944245 C 7.976734570455455 17.169161158944245 7.748496479680046 17.178384846962466 7.517922703923993 17.188666774130493 L 7.360917335919913 14.359767706022835 L 7.360917335919913 14.359767706022835 C 7.847890174541017 14.562401606083045 8.21758885609496 14.875619607585232 8.642193142108937 15.380301416978874 C 8.699664031650867 15.44654907746951 8.781797562521582 15.482110637184917 8.86545325702653 15.482110637184917 C 8.908499969014047 15.482110637184917 8.951950134677428 15.472694198464408 8.992650768264083 15.453197086985613 C 9.112446274591294 15.395810289661837 9.178901803486355 15.264291005324987 9.155264331333942 15.133579573196247 C 8.962827321367223 14.095116267502062 8.941800487403126 13.115423973733854 8.95339954437011 12.074779939505962 L 8.95339954437011 12.074779939505962 C 9.492870020957247 12.42841606253606 10.024760859633895 12.787106222362869 10.5290609470485 13.16820932046874 C 11.981769133365166 14.7479090393313 13.43605428498632 16.326704530634608 14.888761526446602 17.906404249497168 C 14.944628049848916 17.96747598671759 15.022539017540629 17.999999833159222 15.103714464038218 17.999999833159222 C 15.11983182423232 17.999999833159222 15.136078629750996 17.99871671819008 15.152306538141996 17.99612214256029 C 16.10156595264582 17.836959195003903 17.051571803692816 17.68146795935479 18.00083121819664 17.52230312208564 C 18.107373224028915 17.50503114739059 18.194878263441282 17.430652052861355 18.23073178377927 17.328851336362764 C 18.266587193830023 17.227046840438643 18.244059927928525 17.11188585467375 18.171855892794696 17.031661878554605 C 17.42994521170602 16.20143358156353 16.66326228594804 15.400856767607475 15.920510682677822 14.586862993002091 L 15.920510682677822 14.586862993002091 C 17.1897721675192 15.367626168590794 18.796164079222855 16.341928056689678 19.00015479305014 16.341928056689678 C 19.023265980196797 16.341928056689678 19.02837576352015 16.32942193759429 19.01295381762449 16.302708957912753 C 18.91865715052569 16.139381083416772 18.112724890586506 15.546881487147742 17.238233851442022 14.928911397341812 L 17.238233851442022 14.928911397341812 C 17.377197659226482 14.987001167815102 17.513576339944986 15.048752256775444 17.6531769809321 15.10554284972107 C 17.658199837468143 15.108767644558828 17.664787376175685 15.113841523339595 17.669999203988482 15.116757350139865 C 17.773049020626395 15.151233269870335 17.830042757694528 15.174751690118395 17.93915099346508 15.178437574871426 C 17.94233326976557 15.178545288499173 17.945553340321407 15.178605759307734 17.948841440536878 15.178605759307734 C 17.973745965099905 15.178605759307734 18.00257920250659 15.175098452411234 18.048493553618805 15.161615351815042 C 18.100470103289197 15.146353086648238 18.187842862807837 15.102794262500725 18.236338561560473 15.01021723402036 C 18.28483615002588 14.91764209525276 18.275225070890315 14.822594267328872 18.25876945211083 14.771906501765924 C 18.242311943618578 14.721218736202974 18.220873152271164 14.694878974793022 18.205498449194693 14.67377749717461 C 18.143995857463278 14.58936875213181 18.102465639971687 14.565463885622796 18.0428867758376 14.519575990489324 C 17.983304132277976 14.473685260786702 17.91481149301954 14.423448191718805 17.838219544839546 14.370981261585245 C 17.6850337587668 14.266046456461739 17.50165414209476 14.147847757423074 17.344773967561526 14.042952636267687 C 17.18789568274106 13.938058459968683 17.045392442943054 13.83638718879467 17.016744397387587 13.810248681794459 C 17.00804982894427 13.80148608369151 16.99842930124487 13.792621441099115 16.988708618768793 13.785015347209884 C 15.691415134734154 12.872117785778505 14.394182121508075 11.96102017575818 13.097218392351367 11.048637561055948 C 13.088896097323248 11.042752050641536 13.077870568181206 11.047937422475586 13.06918166887619 11.04302983841836 C 11.735590582003198 9.174366581424614 10.481460027291279 7.217504760432826 9.023491825486246 5.41607134214063 C 8.27915569806047 4.496387349732927 7.424659237280828 2.887723530854533 6.037586916946315 2.3516642220268507 C 5.970716123670593 1.9556564868954267 5.819659099030447 1.224570552967246 5.283400661719887 0.7031084485192504 C 4.8273005330098036 0.25959351157317057 4.167590467595091 0.05615587828814758 3.427373441574297 0.0106028092539796 C 3.3119162433330986 0.0034978361875914604 3.1945714582512528 0.0 3.0756960058277225 0.0 Z"
     style="fill:#ffffff;stroke:none"
     id="path2" />
  <path
     d="M 27.243410797944254 2.5372338823188625 L 27.243410797944254 2.842420543886118 L 26.471469175520564 2.842420543886118 L 26.471469175520564 2.5372338823188625 ZM 28.230778072690168 3.416888353283485 Q 28.08716120986011 3.578457323967299 28.08716120986011 3.9734041443463797 L 25.627719658797556 3.9734041443463797 Q 25.64567167713203 3.578457323967299 25.50205472478269 3.416888353283485 ZM 28.230778072690168 4.547872669898025 Q 28.051257173191168 4.709441551062555 28.08716120986011 5.1043882819223505 L 25.627719658797556 5.1043882819223505 Q 25.64567167713203 4.709441551062555 25.50205472478269 4.547872669898025 ZM 28.230778072690168 5.678856091319718 Q 28.08716120986011 5.804521831008151 28.08716120986011 6.235372419498321 L 25.627719658797556 6.235372419498321 Q 25.6636236954665 5.840425867677094 25.50205472478269 5.678856091319718 ZM 28.158969283198 6.8098402288956885 Q 27.90763959420683 7.2586440889903185 27.92559143350273 8.012633514040965 L 25.753383787138862 8.012633514040965 Q 25.789288539962087 7.2586440889903185 25.520006743117158 6.8098402288956885 ZM 27.92559143350273 8.138298537575121 L 27.92559143350273 8.263962844954996 L 25.753383787138862 8.263962844954996 L 25.753383787138862 8.138298537575121 ZM 27.92559143350273 8.389628584643429 L 27.92559143350273 8.515292892023304 L 25.753383787138862 8.515292892023304 L 25.753383787138862 8.389628584643429 ZM 27.92559143350273 8.640957915557458 L 27.92559143350273 8.766622939091613 L 25.753383787138862 8.766622939091613 L 25.753383787138862 8.640957915557458 ZM 27.92559143350273 8.892287962625767 L 27.92559143350273 9.017952270005644 L 25.753383787138862 9.017952270005644 L 25.753383787138862 8.892287962625767 ZM 27.92559143350273 9.143617293539798 L 27.92559143350273 13.505984425563442 Q 28.08716120986011 14.313830800810354 28.50005995905438 15.283245878183227 L 25.196868085595252 15.283245878183227 Q 25.520006743117158 14.565160847878662 25.753383787138862 13.505984425563442 L 25.753383787138862 9.143617293539798 ZM 26.20218746819492 2.25 L 26.20218746819492 2.842420543886118 L 24.191548702995583 2.842420543886118 Q 23.85045874329348 3.1296544485848012 24.191548702995583 3.416888353283485 L 25.017347096576966 3.416888353283485 Q 25.17891606726078 3.578457323967299 25.160963959407024 3.9734041443463797 L 24.191548702995583 3.9734041443463797 Q 23.85045874329348 4.260638765199342 24.191548702995583 4.547872669898025 L 25.017347096576966 4.547872669898025 Q 25.17891606726078 4.709441551062555 25.160963959407024 5.1043882819223505 L 24.191548702995583 5.1043882819223505 Q 23.85045874329348 5.391622365659604 24.191548702995583 5.678856091319718 L 25.017347096576966 5.678856091319718 Q 25.196868085595252 5.840425867677094 25.160963959407024 6.235372419498321 L 24.191548702995583 6.235372419498321 Q 23.85045874329348 6.504654305862532 24.191548702995583 6.8098402288956885 L 25.017347096576966 6.8098402288956885 Q 25.340485037944593 7.186835299498151 25.304580911756364 9.08976105949781 L 25.304580911756364 13.505984425563442 Q 25.17891606726078 14.493352058386495 24.424926507931204 15.75000086141948 L 29.343810370970235 15.75000086141948 Q 28.482108119758475 14.313830800810354 28.392347132893267 13.505984425563442 L 28.392347132893267 9.08976105949781 Q 28.302586146028055 7.204787138794054 28.6975337720807 6.8098402288956885 L 29.541283467842277 6.8098402288956885 Q 29.90032598299456 6.540558342531477 29.541283467842277 6.235372419498321 L 28.571868032392267 6.235372419498321 Q 28.553916193096367 5.804521831008151 28.6975337720807 5.678856091319718 L 29.595139343807126 5.678856091319718 Q 29.90032598299456 5.373670168286562 29.541283467842277 5.1043882819223505 L 28.571868032392267 5.1043882819223505 Q 28.553916193096367 4.709441551062555 28.6975337720807 4.547872669898025 L 29.541283467842277 4.547872669898025 Q 29.88237414369866 4.260638765199342 29.541283467842277 3.9734041443463797 L 28.571868032392267 3.9734041443463797 Q 28.553916193096367 3.578457323967299 28.6975337720807 3.416888353283485 L 29.541283467842277 3.416888353283485 Q 29.88237414369866 3.1296544485848012 29.541283467842277 2.842420543886118 L 27.53064452360437 2.842420543886118 L 27.53064452360437 2.25 Z"
     style="fill:#ffffff;stroke:none"
     id="path4" />
  <path
     d="M 35.795085145438975 7.047680713299867 Q 35.844840613059944 7.047680713299867 35.89471918400642 7.048854313422556 Q 35.92033264122111 7.048552981826518 35.9459135122614 7.048552981826518 Q 37.81332361543747 7.048552981826518 39.50712399520029 8.654368337266568 L 38.459080212813035 9.501722742212237 Q 37.477937294741 8.56517255553058 35.89471918400642 8.56517255553058 Q 34.311505418095095 8.56517255553058 33.33035616382248 9.501722742212237 L 32.28231229091807 8.654368337266568 Q 33.95413791242359 7.047680713299867 35.795085145438975 7.047680713299867 ZM 35.89471918400642 9.211839031309083 Q 37.656324875458324 9.234137931484504 38.79356425854726 11.062638513119651 L 32.97357557135876 11.062638513119651 Q 33.865529043895386 9.234137931484504 35.89471918400642 9.211839031309083 ZM 35.89471918400642 6.357591032981873 Q 33.129666786380895 6.469084741833908 31.23426914215088 8.632068712953938 L 32.81748435633662 9.969996206244346 Q 32.14851979503706 10.861948230506556 31.992428625273497 11.642408831474796 L 39.77470934903093 11.642408831474796 Q 39.61861722883728 10.861948230506556 38.9496556546037 9.992296735728488 L 40.42137763515245 8.654368337266568 Q 38.65977121956334 6.469084741833908 35.89471918400642 6.357591032981873 Z"
     style="fill:#ffffff;stroke:none"
     id="path6" />
  <path
     d="M 43.88859969890367 2.7257847122740886 Q 43.60990974528141 2.7257847122740886 43.60990974528141 3.053654893215412 Q 43.60990974528141 3.3323442203436606 43.88859969890367 3.3323442203436606 Q 44.18368285280094 3.315951020068642 44.18368285280094 3.0208678661713657 Q 44.18368285280094 2.7257847122740886 43.88859969890367 2.7257847122740886 ZM 42.8066273589544 2.9388999853142432 L 42.8066273589544 3.23398313921152 L 42.16728091333993 3.348738047112689 Q 42.4623640672372 3.0372610664463835 42.8066273589544 2.9388999853142432 ZM 42.83941438599845 3.3323442203436606 Q 43.21646551025199 3.627428090234092 42.97056249417464 3.7749693986852972 Q 42.59351213066382 3.6438212010099655 42.41318316867456 3.4307052119766563 L 42.83941438599845 3.3323442203436606 ZM 43.986960869534954 2.5782427773288727 Q 44.75745613931877 2.5782427773288727 45.21647433893713 3.168409085123426 Q 45.6754925385555 3.758576198410279 45.70827965509869 4.988089667812462 Q 46.90500600795768 5.233991967896662 47.29845033248625 6.070061470766861 Q 47.36215116948298 6.611515900264761 47.054568744083305 6.611515900264761 Q 47.045521812575274 6.611515900264761 47.03615411613387 6.611047640741494 Q 46.70828402469169 6.5946535454750315 46.51975873106235 6.430718678752231 Q 46.451204176468934 6.371105804673079 46.41624903265287 6.371105804673079 Q 46.35507815746878 6.371105804673079 46.39680695452624 6.5536704552883425 Q 46.46238118761262 6.840556740550677 47.118121370496986 7.250394802349122 Q 47.773862627371074 7.660232148154413 47.224680125756365 7.930725054143441 Q 47.088416604485396 7.997840104499048 46.93449096407073 7.997840104499048 Q 46.46805113740584 7.997840104499048 45.839427763274884 7.38154291052531 Q 45.00335826040468 6.5618664289318405 44.954178122584764 6.135635345856666 Q 44.90499726877169 5.70940426278149 45.2984423092934 5.34874705479612 Q 45.532382332741335 5.1343019139699875 45.45914410892551 5.1343019139699875 Q 45.4092089563238 5.1343019139699875 45.21647433893713 5.233991967896662 Q 44.7410622230506 5.479895162972307 44.71647215414064 5.955306383867403 Q 44.691882085230674 6.430718678752231 45.09352327839418 6.996294917636824 Q 45.49516357656624 7.561871156521417 46.6754969081485 8.430727417938229 Q 46.79615321063018 8.493678252105262 46.9487048601807 8.493678252105262 Q 47.27287684697811 8.493678252105262 47.74107551082788 8.209415365762277 Q 48.42960316825201 7.7913802563306005 47.052548211400335 6.922523636917211 Q 47.560747264831775 6.791375886737601 47.5771402861085 6.479899532565306 Q 48.21648708971956 6.693014537108028 51.16731970268206 10.447129536397535 Q 51.954208351739176 10.971721969102283 51.970601731012486 11.21762480618135 Q 51.954208351739176 11.447134263987111 51.724699609926574 11.496314401807032 Q 51.6755187561135 11.50685310505318 51.62483216869578 11.50685310505318 Q 51.43898325747925 11.50685310505318 51.23289393576844 11.36516665162742 Q 50.31485682053855 11.80779147197248 49.45419796475154 11.824184851245787 Q 49.40890065781034 11.825047622997374 49.364443210839774 11.825047622997374 Q 48.56420272143112 11.825047622997374 48.03615848572687 11.545495255620107 L 48.03615848572687 11.545495255620107 Q 48.577144297704926 12.02090683451178 48.413209788978705 12.54549926721653 Q 48.33372595687317 12.79984724355698 48.292779740333955 12.79984724355698 Q 48.24927456425932 12.79984724355698 48.24927456425932 12.512712508669916 Q 48.24927456425932 11.955332601425397 46.82303911159115 11.447134263987111 L 46.82303911159115 12.070087688324856 Q 46.73907244634314 12.422747968763774 46.68951104216826 12.422747968763774 Q 46.642310267424904 12.422747968763774 46.626316054335426 12.10287444687147 Q 46.52795506270243 11.397953410174035 46.15910080708383 10.586474692206952 Q 45.79024762545496 9.774995258246715 44.986965239127954 8.340563115941887 Q 44.18368285280094 6.906130615640482 43.962370800624996 6.274980501666084 Q 43.7410578534576 5.643830029695108 43.757451590727484 5.102843859720475 Q 43.7738447910025 4.5618576897458425 43.536138643560086 4.307758521026699 Q 43.298433391109114 4.053659352307555 43.396794472241254 3.758576198410279 Q 43.495155553373394 3.4634922390207032 43.10171051285168 3.201196112167473 L 43.10171051285168 2.922506829788797 Q 43.5279424909183 2.5782427773288727 43.986960869534954 2.5782427773288727 ZM 47.10172834922025 12.02090683451178 Q 47.905010735547265 12.25041629231754 47.905010735547265 12.561892646489836 L 47.36402456557263 14.578295480942295 Q 47.29845033248625 14.938952688927666 46.921400103224144 14.938952688927666 L 46.26565884635006 14.938952688927666 L 46.26565884635006 14.906165930381052 L 47.10172834922025 12.348777283950536 L 47.10172834922025 12.02090683451178 ZM 44.0461219519334 2.25 Q 44.0167678435694 2.25 43.986960869534954 2.2503725963875496 Q 43.34761352892904 2.2503725963875496 42.69187316704639 2.7749648948435817 Q 42.314822132291994 2.9061129582701963 41.92137789726257 3.3815250741567358 Q 42.4623640672372 3.8733303903182934 42.90498844008654 3.9880852982194623 Q 42.954169383398764 4.217594398028645 43.21646551025199 4.627431743833936 Q 43.232858621027866 5.70940426278149 43.51154857465013 6.422522347112155 Q 43.790238707270674 7.135639715449665 45.380409563656514 10.250407553131542 Q 46.16729785471706 11.88975908433217 46.16729785471706 12.266809671590847 Q 46.16729785471706 12.840582958108671 45.44598343874632 14.840590981301515 Q 45.44598343874632 14.955346068200972 44.462372985421496 15.0209195852942 Q 42.98695632094367 15.07010115510043 42.98695632094367 15.4307583630858 Q 42.98695632094367 15.643873725625099 43.18367848320795 15.643873725625099 L 47.54435352756189 15.643873725625099 Q 47.95419087336718 15.316003276186343 48.00337172718026 15.086494534373736 Q 48.39681569371224 15.250429759093116 48.42960316825201 15.529118638725642 Q 48.48482270833304 15.749999663022377 48.58654385584172 15.749999663022377 Q 48.60561719749361 15.749999663022377 48.626325151518 15.74223400126494 Q 48.75747361769076 15.69305386344502 48.75747361769076 15.529118638725642 Q 48.642718530791306 15.086494534373736 48.18370033117294 14.676655756582136 L 48.708292763877694 12.463531654856839 Q 50.29846344126524 12.414351517036918 51.4787967728475 11.955332601425397 Q 51.69737731113773 12.004513455238474 51.87952740171634 12.004513455238474 Q 52.24382758287355 12.004513455238474 52.46240740517062 11.80779147197248 Q 52.79027785460938 11.512707781080339 52.33125965499101 10.889754356742595 Q 51.33125492740143 9.889750345146172 50.42961190743801 8.693023634290604 Q 48.577144297704926 6.414325299478924 47.8886166402808 6.0536673755004 Q 47.65910754047162 5.578256154605303 47.33943449666267 5.299566200983045 Q 47.019761094857145 5.020876784355652 46.18369159198694 4.611038722557207 Q 46.16729785471706 3.6438212010099655 45.73287044000181 2.9388999853142432 Q 45.3083158548987 2.25 44.0461219519334 2.25 Z"
     style="fill:#ffffff;stroke:none"
     id="path8" />
  <path
     d="M 21.39600372314453 0.375 L 21.39600372314453 17.625 "
     style="fill:none;stroke:#ffffff;stroke-width:1"
     id="path10" />
  <path
     d="M 21.39600372314453 0.375 L 24.02100372314453 0.375 "
     style="fill:none;stroke:#ffffff;stroke-width:1"
     id="path12" />
  <path
     d="M 21.39600372314453 17.625 L 24.02100372314453 17.625 "
     style="fill:none;stroke:#ffffff;stroke-width:1"
     id="path14" />
  <path
     d="M 24.02100372314453 0.375 L 52.59765625 0.375 "
     style="fill:none;stroke:#ffffff;stroke-width:1"
     id="path16" />
  <path
     d="M 24.02100372314453 17.625 L 52.59765625 17.625 "
     style="fill:none;stroke:#ffffff;stroke-width:1"
     id="path18" />
  <path
     d="M 52.59765625 0.375 L 70.22265625 0.375 "
     style="fill:none;stroke:#ffffff;stroke-width:1"
     id="path20" />
  <path
     d="M 52.59765625 17.625 L 70.22265625 17.625 "
     style="fill:none;stroke:#ffffff;stroke-width:1"
     id="path22" />
  <path
     d="M 54.36015625 0.375 L 54.36015625 17.625 "
     style="fill:none;stroke:#ffffff;stroke-width:1"
     id="path24" />
  <path
     d="M 57.885156249999994 0.375 L 57.885156249999994 17.625 "
     style="fill:none;stroke:#ffffff;stroke-width:1"
     id="path26" />
  <path
     d="M 59.64765625 0.375 L 59.64765625 17.625 "
     style="fill:none;stroke:#ffffff;stroke-width:1"
     id="path28" />
  <path
     d="M 61.41015625 2.1 L 70.22265625 2.1 "
     style="fill:none;stroke:#ffffff;stroke-width:1"
     id="path30" />
  <path
     d="M 61.41015625 5.550000000000001 L 70.22265625 5.550000000000001 "
     style="fill:none;stroke:#ffffff;stroke-width:1"
     id="path32" />
  <path
     d="M 61.41015625 2.1 L 61.41015625 5.550000000000001 "
     style="fill:none;stroke:#ffffff;stroke-width:1"
     id="path34" />
  <path
     d="M 63.17265625 3.825 L 70.22265625 3.825 "
     style="fill:none;stroke:#ffffff;stroke-width:1"
     id="path36" />
  <path
     d="M 61.41015625 7.275 L 70.22265625 7.275 "
     style="fill:none;stroke:#ffffff;stroke-width:1"
     id="path38" />
  <path
     d="M 61.41015625 10.725000000000001 L 70.22265625 10.725000000000001 "
     style="fill:none;stroke:#ffffff;stroke-width:1"
     id="path40" />
  <path
     d="M 61.41015625 7.275 L 61.41015625 10.725000000000001 "
     style="fill:none;stroke:#ffffff;stroke-width:1"
     id="path42" />
  <path
     d="M 63.17265625 9.000000000000002 L 70.22265625 9.000000000000002 "
     style="fill:none;stroke:#ffffff;stroke-width:1"
     id="path44" />
  <path
     d="M 61.41015625 12.450000000000001 L 70.22265625 12.450000000000001 "
     style="fill:none;stroke:#ffffff;stroke-width:1"
     id="path46" />
  <path
     d="M 61.41015625 15.900000000000002 L 70.22265625 15.900000000000002 "
     style="fill:none;stroke:#ffffff;stroke-width:1"
     id="path48" />
  <path
     d="M 61.41015625 12.450000000000001 L 61.41015625 15.900000000000002 "
     style="fill:none;stroke:#ffffff;stroke-width:1"
     id="path50" />
  <path
     d="M 63.17265625 14.175 L 70.22265625 14.175 "
     style="fill:none;stroke:#ffffff;stroke-width:1"
     id="path52" />
</svg>
