<?xml version="1.0" encoding="UTF-8" standalone="no"?>
<svg
   width="74.74612426757812"
   height="18.0"
   version="1.1"
   id="svg30"
   sodipodi:docname="Djoserty.svg"
   inkscape:version="1.1.1 (3bf5ae0d25, 2021-09-20)"
   xmlns:inkscape="http://www.inkscape.org/namespaces/inkscape"
   xmlns:sodipodi="http://sodipodi.sourceforge.net/DTD/sodipodi-0.dtd"
   xmlns="http://www.w3.org/2000/svg"
   xmlns:svg="http://www.w3.org/2000/svg">
  <defs
     id="defs34" />
  <sodipodi:namedview
     id="namedview32"
     pagecolor="#ffffff"
     bordercolor="#666666"
     borderopacity="1.0"
     inkscape:pageshadow="2"
     inkscape:pageopacity="0.0"
     inkscape:pagecheckerboard="0"
     showgrid="false"
     inkscape:zoom="18.395603"
     inkscape:cx="37.345882"
     inkscape:cy="8.9967153"
     inkscape:window-width="1920"
     inkscape:window-height="1001"
     inkscape:window-x="-9"
     inkscape:window-y="-9"
     inkscape:window-maximized="1"
     inkscape:current-layer="svg30" />
  <path
     d="M 1.2190420140847793 0.0 C 0.970800706632417 0.0 0.7230423028937335 0.01893070358296025 0.48290982680079 0.048905678499779795 C 0.15187998957905166 0.13255188916498697 0.3219916247400915 0.5118521231009919 0.6158947927962716 0.5118521231009919 C 0.6355981423211179 0.5118521231009919 0.6558578408244597 0.5101473851910305 0.6765601864318946 0.5065345630073116 C 1.2976180869590601 0.5780119512905144 2.0622053316712337 0.6175539511807123 2.531371224901928 0.9695623988344474 C 3.1537543888207784 1.6479367557428735 2.8741262715941502 3.0576933712068692 2.94658764204448 3.7269297850416896 C 2.951782632395561 3.7629649381631523 2.953952713884158 6.430591781037886 2.953952713884158 7.782422252231933 C 2.352510186605274 7.494257626556917 1.67335422808609 7.349215125535265 1.0039192969246102 7.349215125535265 C 0.7063920462481148 7.349215125535265 0.41078504023889434 7.377865539465801 0.12477432975315178 7.4353349446232855 C -0.20149863151174055 7.606724672263251 0.18154647682350566 7.8266562324049085 0.4376378670454302 7.8266562324049085 C 0.4681373192956425 7.8266562324049085 0.4968360674978842 7.823536850015894 0.5223214865886322 7.816844331348357 C 1.429843884416301 7.914926816832979 2.4617098179841825 8.158078494744517 2.9226503683594482 9.002292523011262 C 2.9681809889039896 9.155077638776014 2.9396896697969415 9.207577525716367 2.870237404087557 9.207577525716367 C 2.717627362869183 9.207577525716367 2.3672466519332462 8.954092059534803 2.1698535251191053 8.954092059534803 C 2.1594948014573196 8.954092059534803 2.1495575210365625 8.954790250504107 2.140092081444407 8.956259682604495 C 1.7610785167129768 8.874396440250864 1.3638924072290621 8.831466124503471 0.9703996331480379 8.831466124503471 C 0.6822712691518855 8.831466124503471 0.39612316158451694 8.854483949517657 0.1205398348885778 8.90208807080806 C -0.19080937123302597 9.107627344268586 0.19133570335568265 9.296978982841198 0.44461121617263977 9.296978982841198 C 0.47243301123084086 9.296978982841198 0.4986997685303211 9.294694058069421 0.5223214865886322 9.289895224364907 C 1.44862453664532 9.401605077048192 2.473672484380784 9.652726246647584 2.9226503683594482 10.498359836231193 C 2.9277747669676573 11.438445880183364 2.9223641381582497 12.059730482053933 2.9475081443234266 12.924290385186742 C 2.9366830234749024 13.190445840004433 3.1097205941872907 13.32271720601211 3.2850258807391146 13.32271720601211 C 3.4589948410141766 13.32271720601211 3.635197450466691 13.192454719453337 3.636159394664339 12.93350313443563 C 3.6297524037925992 12.081649745019838 3.5689455193688686 11.333930766029841 3.680643079957625 10.507654766912083 C 3.905950499841305 9.580679119782916 5.51430012614692 9.438421656179063 6.5132119200872856 9.209440304841713 C 6.73117182826633 8.953197897458422 6.302254993763335 8.858046549715155 6.0257896324592775 8.858046549715155 C 5.984500135730289 8.858046549715155 5.946610983551 8.860169218839136 5.914784994799312 8.86419400179096 C 5.786745621336966 8.854375779085794 5.657882677541108 8.84931073373403 5.528823762638173 8.84931073373403 C 4.87588245171773 8.84931073373403 4.21792069818853 8.978947377079876 3.636159394664339 9.278489565451865 C 3.6124626948293947 8.719755569414783 4.162693019870619 8.398265319455419 4.5568162027996815 8.173701395689454 C 5.178845705598769 7.90617273831141 5.863655500797704 7.879904181098088 6.5132119200872856 7.736389411825166 C 6.745102634598536 7.535056141910107 6.380132787867637 7.365650007124583 6.127413645979344 7.365650007124583 C 6.0940901289112 7.365650007124583 6.06271789404902 7.368595192973972 6.034923712303174 7.3748016471035225 C 5.875700348626306 7.359480780481324 5.715556482670491 7.35166300836024 5.555429474444318 7.35166300836024 C 4.887519202007935 7.35166300836024 4.219896213380853 7.487670468699637 3.6205083975033348 7.782422252231933 C 3.6327889023442115 5.672151988401518 3.6669749732456607 3.6298724602408705 3.6064121746990256 1.633623314068084 C 3.557780785508615 1.016382811297887 3.202148013782708 0.4498605441665941 2.6039100355477967 0.2652764822581205 C 2.1742288083663857 0.06980961445750675 1.6957449806778964 0.0 1.2190420140847793 0.0 Z"
     style="fill:#ffffff;stroke:none"
     id="path2" />
  <path
     d="M 3.29314921521244 15.21501288860129 C 4.074491287174412 15.21501288860129 5.052497037940845 15.616391919330065 5.5257419749406465 16.089636856329868 C 5.939782214238027 16.503676744424546 5.993910276899555 17.05261639954012 6.009086799211701 17.562687749346416 L 0.6002280514165623 17.562687749346416 C 0.615404749330059 17.05261639954012 0.6695328119915868 16.503676744424546 1.0835728756876173 16.089636856329868 C 1.5568179882887687 15.616391919330065 2.5118074944531683 15.21501288860129 3.29314921521244 15.21501288860129 ZM 3.29314921521244 14.777700904737003 C 2.3662267752924526 14.777700904737003 1.3688759017560481 15.205906904973462 0.7843594130436309 15.79042339368588 C 0.1848327417701466 16.38995028583294 0.11688322714550736 17.179222163577567 0.11688322714550736 17.769835531176867 L 0.11688322714550736 17.999999733210704 L 6.469415203279373 17.999999733210704 L 6.469415203279373 17.769835531176867 C 6.469415203279373 17.179222163577567 6.42448232973169 16.38995028583294 5.824955437584633 15.79042339368588 C 5.240439300074916 15.205906904973462 4.220071830733778 14.777700904737003 3.29314921521244 14.777700904737003 Z"
     style="fill:#ffffff;stroke:none"
     id="path4" />
  <path
     d="M 19.59558827849137 2.2331113889984504 Q 20.011497239301697 2.2331113889984504 20.406868373464476 2.6849636002931274 Q 17.14505908393548 6.568070899826414 16.329606932707488 7.024335296803508 Q 15.721254175199014 7.364724151693918 15.258781670883675 7.364724151693918 Q 15.101344397401952 7.364724151693918 14.960813057159163 7.325276517725049 Q 14.407469963604743 7.169951972435412 13.776464255096982 7.150536917736989 Q 13.760688966903167 7.150051524254103 13.744834947749503 7.150051524254103 Q 13.12652956999073 7.150051524254103 12.38825395561615 7.88832679632016 L 12.291175943655867 7.88832679632016 Q 12.815395428237089 6.665148911786697 13.75704954270708 6.140928742588433 Q 14.698701945634467 5.6167096003157315 19.2807685008913 2.2966530928403377 Q 19.439622247033235 2.2331113889984504 19.59558827849137 2.2331113889984504 ZM 13.822576293662692 0.46382689862325743 Q 13.87160069312572 0.46382689862325743 13.922081273037408 0.4715931515608784 L 13.922081273037408 5.461385397334616 Q 12.38825395561615 6.354500505824466 11.805788280014095 7.965988384347936 Q 12.698902703886905 1.79184917642032 13.058089773520756 1.0928900062739073 Q 13.381357725420997 0.46382689862325743 13.822576293662692 0.46382689862325743 ZM 9.823471846940608 8.280349468529765 Q 9.763159224955167 8.280349468529765 9.708909828226425 8.383422671928184 Q 9.611832586460313 8.567870141573977 9.883650198408658 8.897933602234632 Q 10.038974144658383 8.4902085535462 9.922481420308197 8.344591877914295 Q 9.871087133376625 8.280349468529765 9.823471846940608 8.280349468529765 ZM 9.850515161454094 8.003054920244196 Q 9.964842185368557 8.003054920244196 10.097221020296256 8.179560147583969 Q 10.388454200405805 8.567870141573977 9.922481420308197 9.732803546629212 Q 9.398261764572714 8.723195371480656 9.602124802379711 8.257221735611745 Q 9.713322784103013 8.003054920244196 9.850515161454094 8.003054920244196 ZM 14.931688078951879 9.926958201315696 L 14.931688078951879 10.218190867962463 Q 14.718118369566973 10.198775813264039 14.601625302908268 10.082282061988291 Q 14.640456096922156 10.024035528658937 14.756948478963821 9.926958201315696 ZM 15.378245975505326 10.587085807254049 L 17.183890562566404 10.839488364503968 L 17.552786186475032 11.499616655059363 Q 16.931489374550573 11.32487637045426 16.183991626309666 11.033644388424536 Q 15.43649319345172 10.742411037160727 15.378245975505326 10.587085807254049 ZM 11.39806151978306 10.315268879922746 L 11.747541404376221 10.490008479910806 L 11.864034128726408 11.32487637045426 L 11.553386065072697 12.276239381507548 L 11.067997716813883 12.276239381507548 L 11.39806151978306 11.32487637045426 L 11.39806151978306 10.315268879922746 ZM 12.232929752635034 10.606502231186555 L 12.562994240221252 10.703579558529796 L 12.679486964571439 11.32487637045426 L 12.368838216300684 12.276239381507548 L 11.883450552658914 12.276239381507548 L 12.21351435562809 11.32487637045426 L 12.232929752635034 10.606502231186555 ZM 13.37844604914072 10.72299461322822 L 13.494939115799427 11.32487637045426 L 13.184290367528675 12.276239381507548 L 12.698902703886905 12.276239381507548 L 13.028966164547558 11.32487637045426 L 13.028966164547558 10.742411037160727 L 13.37844604914072 10.72299461322822 ZM 12.635970993829574 8.307902566008263 Q 12.94616549869286 8.307902566008263 13.300783776495901 8.383422671928184 Q 14.349222745658347 8.606700935587865 14.621040357606692 9.441570195365404 L 15.43649319345172 9.441570195365404 L 15.747140914796912 8.936765765482605 Q 19.863233149567787 9.888126722684765 20.387455372617175 12.373316708850789 Q 19.261352076958786 11.752018527692242 18.018759137726903 11.538448133690293 L 17.475123229213175 10.451177001279875 L 15.319998757558931 10.159943650016068 L 15.378245975505326 9.635724850051886 L 14.640456096922156 9.635724850051886 Q 13.825002918768604 10.30727392210448 12.976631641685719 10.30727392210448 Q 12.794837747695311 10.30727392210448 12.611532561584353 10.276437401291815 Q 11.572801804388162 10.101698485920798 11.252445186459676 9.567771131681843 Q 10.93208856853119 9.033843092825846 11.592216516778063 8.596994435164216 Q 12.029066885982298 8.307902566008263 12.635970993829574 8.307902566008263 ZM 14.014203342229544 0.0 Q 13.306659502260182 0.0 12.902764885922597 0.4910087625106481 Q 12.407668668006053 1.0928900062739073 11.980527880002157 3.655740467965014 L 11.300984192439817 8.101897190322108 Q 10.97091987600786 8.451378444149354 10.7961802760198 8.4902085535462 L 10.563193800393865 8.4902085535462 Q 10.543778232232661 8.004819862978866 10.194298176485239 7.597094129673393 Q 9.883650198408658 4.626517849099683 10.466115788433582 2.3937311048006213 L 10.233129483961907 1.9471738928642175 Q 9.398261764572714 4.471192276884482 9.825403408347913 7.616509184371816 L 9.767156618287169 7.616509184371816 Q 8.427485014569381 4.607101425167175 9.378846196411509 1.9471738928642175 L 9.145859806362706 1.5976940082710553 L 9.145859806362706 1.5976940082710553 Q 7.90326545510817 4.4323618251791155 9.41767741831105 7.752417990345988 Q 8.99053577453585 8.684363892849726 9.330307190431368 9.286245650075767 Q 9.670079376521057 9.888126722684765 9.747741050125965 10.412346207265987 L 9.883650198408658 10.509424219226272 Q 10.407869083949969 9.732803546629212 10.485531356594787 9.16975258341706 L 10.679686695898312 9.16975258341706 Q 10.699102264059515 9.616309110736422 10.93208856853119 10.101698485920798 L 11.067997716813883 11.32487637045426 L 10.737933400381925 12.276239381507548 L 9.048781837190987 12.276239381507548 L 9.048781837190987 12.742211648142375 L 13.922081273037408 12.742211648142375 L 13.922081273037408 12.276239381507548 L 13.51435451280637 12.276239381507548 L 13.825003261077125 11.32487637045426 L 13.84441900039259 10.606502231186555 Q 14.19389820036871 10.490008479910806 14.368638484973811 10.33468393462117 Q 14.621040357606692 10.567671437172667 14.931688078951879 10.567671437172667 Q 14.912273708870499 10.76182609185915 15.009351720830782 10.89773421321628 Q 15.785971708810798 11.499616655059363 17.78577231979245 11.946173182378724 L 18.465315665046262 13.266429763489512 Q 18.465315665046262 12.942390932799807 18.666445882775246 12.942390932799807 Q 18.73044046079052 12.942390932799807 18.81479623425647 12.97519504299162 L 18.27116032574274 12.00442040032512 L 18.27116032574274 12.00442040032512 Q 19.39726088293296 12.256823642192083 19.97972758546058 12.645134320799134 Q 20.290376676039852 12.97519504299162 19.94089679144669 13.44116867886053 Q 20.71751746404375 13.11110658743396 20.814596160621075 12.509224145590878 Q 20.503945700807716 9.577479001339576 15.552985575493386 8.431961335599805 L 15.203506375517266 9.014428722744466 L 14.892857284937993 9.014428722744466 Q 14.640456096922156 8.198975202282393 12.893057700881908 7.88832679632016 Q 13.283009064230479 7.599008318923254 13.852256838599681 7.599008318923254 Q 14.161630487629424 7.599008318923254 14.523962345646407 7.684463587358902 Q 14.891470935427632 7.771140212597752 15.241644337084495 7.771140212597752 Q 15.87195550160299 7.771140212597752 16.446100683983236 7.490308248055377 Q 17.339214423239 7.053458905776705 20.989335075992095 2.665548716748965 Q 20.31660024722249 1.8173165880798985 19.56675152405883 1.8173165880798985 Q 19.321111613951302 1.8173165880798985 19.067196737655266 1.9083427565418083 L 14.349222745658347 5.286645797346556 L 14.349222745658347 0.025035944973045218 Q 14.173971736739798 0.0 14.014203342229544 0.0 Z"
     style="fill:#ffffff;stroke:none"
     id="path6" />
  <path
     d="M 14.787816725437374 15.285542133461169 C 15.549371373096287 15.285542133461169 16.502609207919512 15.676756272943992 16.963869255453197 16.13801632047768 C 17.367423959429352 16.541570682145313 17.42018123331472 17.07660848522664 17.434973411436005 17.573762319663377 L 12.163093570676018 17.573762319663377 C 12.177885919951562 17.07660848522664 12.230643193836931 16.541570682145313 12.634197726658826 16.13801632047768 C 13.095457945346773 15.676756272943992 14.02626242008698 15.285542133461169 14.787816725437374 15.285542133461169 ZM 14.787816725437374 14.859305039952915 C 13.884368520776045 14.859305039952915 12.912275476840618 15.276666758126694 12.34256182057423 15.846380414393082 C 11.758218113396996 16.430724336850286 11.69198941469321 17.200007968606588 11.69198941469321 17.775664100798863 L 11.69198941469321 17.99999941317163 L 17.883644036181536 17.99999941317163 L 17.883644036181536 17.775664100798863 C 17.883644036181536 17.200007968606588 17.839849083994995 16.430724336850286 17.25550516153779 15.846380414393082 C 16.685791847579925 15.276666758126694 15.691265101252963 14.859305039952915 14.787816725437374 14.859305039952915 Z"
     style="fill:#ffffff;stroke:none"
     id="path8" />
  <path
     d="M 31.34532829561616 3.1736088554499293 C 31.426690730336645 3.2107263908469394 31.445220938063635 3.3102587605502594 31.478208052752265 3.3850300404646987 C 31.562199858643623 3.6502463938992875 31.5930487989129 3.930066914838317 31.660542094361432 4.200242159879199 C 31.815614629365 4.941554744716777 31.97068716436857 5.682867329554355 32.12575958351019 6.424179914391934 C 31.995885401307696 6.572957785328254 31.866011334967162 6.721735656264573 31.736137152764673 6.870513527200893 C 31.568139174099738 6.759069158342754 31.400141195434802 6.647623862588989 31.23214321676987 6.536178566835225 C 31.246810413176966 5.488168268552508 31.24452213959696 4.439755697567525 31.269614304917734 3.3920002955823296 C 31.2789128059893 3.31622194356878 31.2837582687432 3.228214130648048 31.34532829561616 3.1736088554499293 ZM 43.67467147560204 2.7408005036351826 L 43.67301047863784 2.743647927002385 C 43.34556791415711 3.3138532617931014 43.2159897592456 3.796282507569922 43.5000295090803 4.402034753117114 C 42.305903384103 5.918244132057843 41.187030061318545 7.491845961348117 40.1286802423128 9.105503585174084 L 39.73383753539408 8.632119450376702 C 40.621469863964265 7.18583971204098 41.50311351988617 5.718344259690966 42.6586149771764 4.465627208317965 C 42.55761672203843 3.6128183484671172 42.80750314869237 2.971294883421633 43.67467147560204 2.7408005036351826 ZM 43.859071799288465 2.25 C 43.39615973128882 2.25 43.007520736803926 2.3911958647046414 42.60541302195808 2.7597735936791103 L 42.60541302195808 2.759772666783483 C 42.19141323621341 3.2374557435004863 42.149570386908195 3.7397256536284296 42.085571951422565 4.326103463325053 C 41.1332951411145 5.52788574618422 40.32908341900532 6.83819267667539 39.44340035193945 8.087787016679869 C 39.189666381536405 8.073054937578855 38.93633004935749 8.066473978624709 38.68331442306564 8.066473978624709 C 37.02981419069827 8.066473978624709 35.39002367155495 8.347530051434987 33.742621022072065 8.471240030129774 C 33.41717128319012 8.190523201119102 33.09586268224725 7.892355708132418 32.70868424354714 7.700837752923617 C 32.50979700465313 7.614738418099587 32.293496409332114 7.57979074536619 32.078776634503534 7.5588781262220435 C 32.065154512916266 7.435815120675143 32.04616091530658 7.313428748936203 32.0329805753477 7.190374085449949 C 32.231559853169514 6.937161957285098 32.429570712247866 6.683524384027296 32.62880437838259 6.43082390224874 C 32.347840647549184 5.2820637568561875 32.08117057418506 4.129522804199696 31.792135088642876 2.9829116663191417 C 31.719982520599594 2.8027134239592852 31.53003739140844 2.670469517223537 31.33686440612604 2.670469517223537 C 31.290461867575036 2.670469517223537 31.243873080933913 2.6781001854756505 31.19868599220524 2.694529873918145 C 30.968136838680312 2.7809137656997702 30.8345569277597 3.0345856340957833 30.853898487780988 3.2749254992358874 C 30.816576253277777 4.41160309667819 30.77920092503441 5.5482783768814254 30.741911827049876 6.684956437771543 C 30.990036340978186 6.873539841424171 31.23830423407385 7.061934158368822 31.48651303757327 7.250407261441796 C 31.49481802239428 7.351648363234126 31.503123007215287 7.45289131881771 31.511427992036293 7.55413242061004 C 31.188063420730014 7.565403471438549 30.861113790930098 7.570823957067259 30.543304047187515 7.632436563208103 C 30.465493056511434 7.681308062055469 30.48044318056741 7.797441595892342 30.53357535068291 7.859518576742484 C 30.66225854441798 8.012976343701265 30.86200004797728 8.035652845224249 31.052301365778725 8.035652845224249 C 31.07864808433111 8.035652845224249 31.10481388444323 8.035218131175025 31.130585116672986 8.034636040721052 L 31.130585116672986 8.034636040721052 C 30.97097148826715 8.592889519844977 31.237186861395088 9.117104610845928 31.660680433533813 9.471160202578975 C 31.67903458902258 9.70100992645661 31.69735618730244 9.930863357916753 31.715730618633057 10.160712154898757 C 31.937427020986707 10.150200231589043 32.15912759437068 10.139769875094533 32.38084126015539 10.12962778314013 C 32.35574532932113 9.936007628648515 32.33085644379763 9.742405085173814 32.30680825260813 9.548990701511467 L 32.30680825260813 9.548990701511467 C 32.38048243568566 9.552492513191574 32.454137964988675 9.553944031743995 32.527779474995334 9.553944031743995 C 32.86887219965607 9.553944031743995 33.20966437840963 9.522802192456474 33.550616910106726 9.519979795271212 C 34.75747348307779 9.592248920439634 35.967057446432314 9.685653119702767 37.176590430527334 9.685653119702767 C 37.61502689259132 9.685653119702767 38.05345686638591 9.673380094701098 38.491747342388585 9.64337926393084 C 38.97457747052423 9.615969106439007 39.4581064779629 9.585173926116113 39.94183476796144 9.585173926116113 C 40.071019919126954 9.585173926116113 40.20021897372688 9.587369741857291 40.32942358970056 9.5924139078613 C 41.66753368142955 7.906021857261986 42.93273787069414 6.162776809568241 44.17676805624767 4.405832244502344 C 43.680471061542335 3.8677350376906547 43.94884071390115 3.3071990780843956 44.33859569072137 2.807478594379463 L 44.320799294676355 2.2892475415486477 C 44.15771571662761 2.263977586060355 44.004717689899984 2.25 43.859071799288465 2.25 Z"
     style="fill:#ffffff;stroke:none"
     id="path10" />
  <path
     d="M 37.4139664432977 12.688755552515937 Q 39.8531394803878 12.688755552515937 42.58697675531689 13.867416293015081 Q 39.8531394803878 15.013336183728903 37.4139664432977 15.013336183728903 Q 34.99116439947174 15.013336183728903 32.24095669965 13.867416293015081 Q 34.99116439947174 12.688755552515937 37.4139664432977 12.688755552515937 ZM 37.4139664432977 11.935722827911377 Q 34.40183402922217 11.935722827911377 30.489336013793945 13.851045868122421 Q 34.40183402922217 15.749999430726609 37.4139664432977 15.749999430726609 Q 40.42609885737323 15.749999430726609 44.33859687280146 13.851045868122421 Q 40.44246947172306 11.935722827911377 37.4139664432977 11.935722827911377 Z"
     style="fill:#ffffff;stroke:none"
     id="path12" />
  <path
     d="M 49.35421564616263 2.7008420331403613 C 50.15973175662613 2.7008420331403613 51.167996147650314 3.114639379086924 51.655882867984474 3.602526099421084 C 52.082733149189394 4.0293760185574 52.13853588664158 4.595299385204669 52.15418195724487 5.121151895262301 L 46.577977863140404 5.121151895262301 C 46.593624114778 4.595299385204669 46.649426852230185 4.0293760185574 47.076276952400804 3.602526099421084 C 47.564163853769266 3.114639379086924 48.54869989776773 2.7008420331403613 49.35421564616263 2.7008420331403613 ZM 49.35421564616263 2.25 C 48.39861503882451 2.25 47.37040700389673 2.691454318364663 46.767806087620556 3.2940552346408367 C 46.149730586898194 3.9121309630704104 46.079678773880005 4.725822220553368 46.079678773880005 5.334708647802472 L 46.079678773880005 5.571993928402662 L 52.62875251844525 5.571993928402662 L 52.62875251844525 5.334708647802472 C 52.62875251844525 4.725822220553368 52.582429461194295 3.9121309630704104 51.96435373276472 3.2940552346408367 C 51.36175317855715 2.691454318364663 50.30981643453505 2.25 49.35421564616263 2.25 Z"
     style="fill:#ffffff;stroke:none"
     id="path14" />
  <path
     d="M 49.141607854372225 10.518334150314331 L 49.12642161089656 10.525927279123817 L 51.84476172752136 15.734813672132447 L 52.869834429369064 15.734813672132447 L 50.15149395067566 10.518334150314331 ZM 46.86366925112755 10.525927279123817 L 45.8385968208313 10.533520407933304 L 48.5569369374561 15.749999915608115 L 49.5820092772352 15.742406974904583 L 46.86366925112755 10.525927279123817 Z"
     style="fill:#ffffff;stroke:none"
     id="path16" />
  <path
     d="M 58.4251998122909 2.6975545439107362 C 58.626774642721074 2.6992907421244055 58.80388149474509 2.728557811986113 58.94423079177547 2.779335611403381 C 58.92080377222512 2.9468773493378366 58.817636309408165 3.2061046355085026 58.229575781527245 3.3590053937731206 C 58.7768034050318 3.3193798700748642 59.134184001780206 3.274610981829551 59.31875090767929 3.1287638088719536 C 59.38543217269343 3.2790247903171412 59.42158348486608 3.4490082891945226 59.43747285509048 3.546265451725029 C 59.45115597337203 3.62996655285264 59.51112228234948 3.6986666609136307 59.592206352107816 3.7235352088184603 C 60.06069410526514 3.86716574973999 60.47242282808181 4.557794304235371 60.86771220589935 5.046204575965126 C 61.579597829967554 5.925794616149916 62.19576696960254 6.906081316636472 62.883197320952455 7.84581214211958 C 62.56598711771316 7.690160205379429 62.249111800104025 7.534441110003419 61.930401418147525 7.379055992708435 C 61.044316275703565 6.913055831725261 60.13478959292312 6.54618272481795 59.37567238931479 5.971585234553771 C 58.93412568595164 5.603962038287855 58.49669607923134 5.224500771128227 58.332499113627364 4.740454903180124 C 58.27577593147747 4.367695659482036 58.55498614495974 3.935572379100026 58.90821924216934 3.781618353344486 C 59.00461003560854 3.741318407196607 59.06015113501242 3.6395933802832623 59.041810474579194 3.5367398160227603 C 59.0234693603714 3.433886138318617 58.936160864882886 3.3574634677957818 58.83178182397309 3.352964746742414 C 58.82852599145766 3.352822148084857 58.825271520265936 3.3527510189215413 58.82202022549618 3.3527510189215413 C 58.79024193882194 3.3527510189215413 58.758790369835666 3.3595420956417783 58.729787822185386 3.372713015881263 C 58.44726959211253 3.4958465596290385 58.20536736217319 3.716094894137046 58.05184135927761 3.98560635691989 C 58.059203170958995 3.871427033251379 58.07551727417774 3.75470623167893 58.1078335106007 3.649421116403251 C 58.115552215978724 3.6243171729419927 58.11877696493634 3.5980474826191142 58.11735914630297 3.5718220353164805 C 58.10985439563309 3.433189027140663 58.08629646212027 3.336909295026634 58.05579101310538 3.255152731360586 C 58.02528556409048 3.1733962244163596 57.99220449063551 3.100311292718221 57.93753373085039 2.910835850610304 C 57.9243186810343 2.8652188576999973 57.896889142919164 2.825010347127289 57.85923765202931 2.7960635570268764 C 57.964150785604005 2.7497038485946717 58.09592283577633 2.7122629374646254 58.25466769996249 2.7019688628947143 C 58.28665200028996 2.699918737763683 58.31724230514882 2.6997039889500347 58.34829772893844 2.6989485393793613 L 58.34829772893844 2.6989485393793613 C 58.26171844917847 2.7182982242832643 58.19681688801457 2.7954486357672996 58.19681688801457 2.8878349253779976 C 58.19681688801457 2.9947819332820638 58.28363530697114 3.0813679629387165 58.39058225815339 3.0813679629387165 C 58.49752920933564 3.0813679629387165 58.584347628292214 2.9947819332820638 58.584347628292214 2.8878349253779976 C 58.584347628292214 2.792743799019382 58.51559034463583 2.7139371954499527 58.4251998122909 2.6975545439107362 ZM 59.32037723572601 6.771506300966202 C 59.77445446997152 7.121043404330761 60.26016750567735 7.4266632975897116 60.73644429927053 7.731504513692361 C 60.73281455651222 8.06039805069815 60.74091534007533 8.39095648658883 60.77152651856425 8.722635291884469 C 60.616481278419656 8.621376404894676 60.446085752235795 8.545219419380588 60.248778217830015 8.497040358545384 C 59.95543610301982 8.020566173015727 59.633586508611515 7.581817897404859 59.437008189934275 7.115823181716485 C 59.396274662188 7.019264037913066 59.35800603788755 6.898999256975396 59.32037723572601 6.771506300966202 ZM 59.13381417550842 7.522405193398667 C 59.33852776461583 7.933419221272925 59.59979754683263 8.302444127175098 59.83011491208642 8.66826946860811 C 59.78593042876108 8.698214959807807 59.74607268592836 8.729186435302612 59.71418095561247 8.759343839224918 C 59.705920897176476 8.767154660839967 59.701328244787824 8.772370799483145 59.69373568873931 8.779789106098079 C 59.56717297059167 8.634244544054589 59.41265547026804 8.516124755493284 59.23371718409319 8.438957214019357 C 59.24066674158081 8.177750052692753 59.1983545321173 7.8631181965409365 59.13381417550842 7.522405193398667 ZM 61.29427481929849 7.5567904149580745 L 61.29427481929849 7.5567904149580745 C 61.44069380493183 7.629158836615536 61.58620751030479 7.70196197430781 61.728969072931264 7.7770416990007645 C 61.73096749612261 7.778079027660034 61.73298089387466 7.779085953423341 61.735009719961965 7.780062022516118 C 62.32015565380156 8.065346008572462 62.90477520914387 8.358490731446182 63.49678765972539 8.641086556969928 C 63.914125036185354 9.143767585044987 64.36433202715224 9.610362190710418 64.79785009710838 10.081083876059166 C 64.53700595543506 10.12481957633813 64.27619811572707 10.168615174859887 64.01535397405375 10.212351782687985 C 63.37464334453283 9.515630850861303 62.733977184919425 8.81900929566471 62.0932665553985 8.122287910063463 C 62.08424733211257 8.112520412517192 62.07437228999401 8.103578784682151 62.06376031797928 8.095569663581493 C 61.81373416197393 7.905997624212708 61.55499825693708 7.728841310760929 61.29427481929849 7.5567904149580745 ZM 59.35034813830144 9.06346718396319 C 59.393767103932916 9.112971266532895 59.434330012442146 9.168135279271922 59.47162574407179 9.230049642463833 C 59.50385190624327 9.283487042976908 59.557079662906574 9.320987426936092 59.61822760085548 9.33343763972016 C 59.632990248830986 9.33644344244938 59.64788902917648 9.337922747536528 59.66270839897281 9.337922747536528 C 59.70927202235089 9.337922747536528 59.7550565147981 9.323318013110198 59.79340636474597 9.29556742948919 C 59.88707768720749 9.227752635607654 59.94405815953665 9.162600137108418 59.99251538418119 9.112489357943156 L 60.05059852870721 10.172390579254078 C 59.975595945690586 10.16782379201572 59.899608218089845 10.162583603320513 59.82847814722466 10.162583603320513 C 59.70346552299655 10.162583603320513 59.59345740858796 10.17877064966061 59.530173553754025 10.24325201557583 C 59.45501850248301 10.18530863361632 59.31982952982412 10.169157889241552 59.1519855780283 10.169157889241552 C 59.10882344880153 10.169157889241552 59.06350180641226 10.17022607457135 59.01648622356585 10.17192591409787 L 59.35034813830144 9.06346718396319 ZM 55.28638668210446 9.812739748348925 C 55.625092753782255 9.85922849892351 55.80096375077411 10.055194221935823 55.81424629955698 10.400541170952309 L 54.768285032932305 10.400541170952309 C 54.768285032932305 10.055194221935823 54.94103939275704 9.85922849892351 55.28638668210446 9.812739748348925 ZM 61.1820581840742 8.020990906010073 L 61.1820581840742 8.020990906010073 C 61.38725595064419 8.157167745900477 61.58816327868688 8.295733708884077 61.78031457269227 8.44081587464419 C 62.38099774769257 9.094010296267115 62.98161194895874 9.747328598346723 63.5822860484677 10.400541170952309 L 61.74012103668026 10.400541170952309 C 61.61196284715642 10.258346372759531 61.35133243330397 10.1263814683964 61.158008132043896 10.1263814683964 C 61.103176736062196 10.1263814683964 61.05375932443471 10.136997070607665 61.01431406268304 10.161006282926976 C 60.953025000843915 10.155700750694177 60.88864528043162 10.153578900820712 60.822180465885744 10.153578900820712 C 60.717687527559725 10.153578900820712 60.608040163931584 10.158823627261587 60.497141743823306 10.165188269332852 L 60.43510894546951 9.036284272325009 L 60.43510894546951 9.036284272325009 C 60.60347836821346 9.122423390755372 60.7404198182486 9.247514517983502 60.9041884206617 9.442169286272879 C 60.94764822600416 9.493673607132198 61.01057314515591 9.52141193883991 61.07478088500746 9.52141193883991 C 61.10695350178008 9.52141193883991 61.13944784472043 9.514447860566152 61.16997689001279 9.500020098220801 C 61.26143515391295 9.45679807075124 61.31235818955244 9.357414634045242 61.29404248672038 9.257929551836325 C 61.218508987460815 8.850321102084472 61.187739441648155 8.438026068608675 61.1820581840742 8.020990906010073 ZM 56.50171839816702 10.828962444976277 L 56.3023770461537 11.177693644710537 L 55.366076756394165 11.177693644710537 L 55.17672570523932 10.828962444976277 ZM 59.888662721768654 10.828962444976277 L 59.888662721768654 12.711785657931937 L 58.593640931416374 10.828962444976277 ZM 58.430732685581575 2.25 C 58.423476830261485 2.25 58.4162114456755 2.250027474631963 58.40893653182361 2.250081998482232 C 58.34856182573621 2.250534510988328 58.287689328949234 2.25288623313092 58.22632312543379 2.2568196432472507 L 58.226090792855686 2.2568196432472507 C 57.70566990187359 2.290474465010107 57.315044192164386 2.501517521569645 57.17060389052874 2.833236769523533 C 57.136892524200746 2.9106327297699255 57.14973525198493 3.000524790753433 57.203827449197625 3.065337015049533 C 57.246736145328946 3.116749503280936 57.30976860905298 3.1453920375344366 57.37501730776034 3.1453920375344366 C 57.392023190305885 3.1453920375344366 57.409179726007544 3.143446422358277 57.426169726443256 3.139451107464742 C 57.43947984203105 3.1363180776914077 57.44203550039019 3.1347197702241667 57.4445333024921 3.1347197702241667 C 57.447282041929334 3.1347197702241667 57.44996067319603 3.1366557994126065 57.466827927611476 3.140612770355263 C 57.483307204772466 3.1444785893318516 57.5108780936651 3.1524292302352386 57.54814432994791 3.1619873675408408 C 57.58876532160166 3.2878607453999837 57.62004105294338 3.3633865872137365 57.637824705096094 3.4110478912684403 C 57.65794325428129 3.464966860040332 57.66437097101732 3.4841512008365267 57.669654268296355 3.5606700715674835 C 57.55372938731374 3.975099206830045 57.59883594055843 4.391233626913925 57.64200669150197 4.6024493517862854 C 57.71350590797709 4.952264618960177 57.929999938608255 5.335286882031273 58.21308016848185 5.6981297901252415 C 58.212091847475776 5.7251159904887965 58.21454676788114 5.752297994577843 58.22353513449654 5.778516862149262 C 58.36051515536984 6.197889417540468 58.52036813704766 6.767473152618177 58.6345314651627 7.298668920684414 C 58.748694793277735 7.829864688750653 58.80952327393175 8.339232085064705 58.77857766358724 8.562093480414532 C 58.762871618287754 8.675157766529242 58.83505943766771 8.781834721844355 58.9458571198222 8.809295343517299 C 58.95061857634963 8.810476518714184 58.95507963411397 8.812212206431466 58.959797074508444 8.813477329923174 L 58.56459935915336 10.125227065898944 C 58.50044108072957 10.115816688936595 58.435233221733206 10.112298120947106 58.37031850110687 10.112298120947106 C 58.177999764286405 10.112298120947106 57.98825438303317 10.143176572655754 57.83599713382583 10.143176572655754 C 57.78562861070673 10.143176572655754 57.739362890331634 10.139796859683646 57.698463507981266 10.130803047773444 C 57.68477244864481 10.127668373067305 57.66746253713963 10.126117371598632 57.64736304648623 10.126117371598632 C 57.48841103421041 10.126117371598632 57.15499472609922 10.223100794621832 57.057225592413936 10.400541170952309 L 56.23267727272247 10.400541170952309 C 56.18618863559153 9.80282432029394 55.870820643649026 9.474061470363335 55.28638668210446 9.414289376900388 C 54.695311446168446 9.474061016588767 54.38975848288551 9.802824774068506 54.369834661483765 10.400541170952309 L 54.369834661483765 10.828962444976277 L 54.768285032932305 10.828962444976277 L 55.17672570523932 11.586134317017551 L 56.50171839816702 11.586134317017551 L 56.90016876961556 10.828962444976277 L 58.07553928224422 10.828962444976277 L 59.87867242091018 13.44897692825626 L 59.87867242091018 15.749998781799306 L 60.307093694934146 15.749998781799306 L 60.307093694934146 10.828962444976277 L 63.69427035111388 10.828962444976277 L 63.69427035111388 10.52228344187886 C 63.719126306774484 10.54931388526266 63.74399224547556 10.576337975802526 63.768849108685295 10.603367511637192 C 63.811453095195134 10.649688819396697 63.87118344139796 10.67542872791306 63.93301294874591 10.67542872791306 C 63.94523763557037 10.67542872791306 63.95754400181683 10.67442225592432 63.96981678874535 10.672370287334111 C 64.40483685251695 10.59942874839902 64.83980972373362 10.526453630146001 65.2748288799561 10.453512998760043 C 65.35504987048874 10.440153875519059 65.42163856549129 10.384097288207512 65.44861364837797 10.307375807132564 C 65.47558963881377 10.230654326057614 65.45867836826537 10.145427294506138 65.40447045853819 10.084801197308831 C 65.2419792315301 9.90296646807531 65.07723183737683 9.724475149848562 64.9123900581137 9.547183611575935 L 64.9123900581137 9.547183611575935 L 66.15467235323635 10.356165648534425 C 66.19222219862328 10.380623190125547 66.23441234272838 10.392307885215745 66.276136006579 10.392307885215745 C 66.34911475502855 10.392307885215745 66.42066320604414 10.356558617309108 66.46344234953669 10.29088019408717 C 66.53067812707124 10.187652833027425 66.50138516369833 10.049579215448595 66.39815689508944 9.982342530364921 L 65.38960117353953 9.325770664642723 C 65.41091859512971 9.308365687365846 65.43145370936706 9.28667390175821 65.44675498775314 9.257464886680117 C 65.4829807189547 9.188315541798183 65.47341878128711 9.117005322430053 65.4613919401737 9.07996279700858 C 65.44936509906027 9.042920271587107 65.43624193859392 9.02499753752973 65.42584505572377 9.010727688733558 C 65.38425570914487 8.95364874732344 65.36273227390144 8.944300537476714 65.33314435706023 8.92151197874158 C 65.30355644021903 8.89872342000645 65.2706704898277 8.87563990780302 65.2348676765222 8.85111520757604 C 65.16326386500947 8.80206535334751 65.08045182170149 8.748156481059725 65.0092727431831 8.70056369696458 C 64.93809366466473 8.652970912869431 64.87133707307252 8.60309700402794 64.86917619858633 8.601125353536023 C 64.86219986839927 8.59477886244742 64.85482784679014 8.588881154405197 64.84710460366645 8.58346807760011 C 64.25251743619398 8.16506115448665 63.6575527282821 7.747643459928397 63.06325506898313 7.329569153572261 C 63.06132924972244 7.328161091092071 63.059175635629316 7.327191828617793 63.05721442195242 7.325851832322595 C 62.45318511329795 6.478399695156077 61.88133069028893 5.589362976043608 61.21458474500878 4.765546821615367 C 60.889847329258565 4.364308913004146 60.511222822399766 3.6222064405454084 59.85543916309977 3.3452977716649785 C 59.819270607493586 3.1488473039718854 59.73794013814558 2.8353619092626077 59.49276800867926 2.5969545375916594 C 59.228064968091495 2.339555571687886 58.84501479788455 2.25 58.430732685581575 2.25 Z"
     style="fill:#ffffff;stroke:none"
     id="path18" />
  <path
     d="M 30.489336013793945 0.375 C 20.86433607339859 0.375 20.86433607339859 17.625 30.489336013793945 17.625 "
     style="fill:none;stroke:#ffffff;stroke-width:1"
     id="path20" />
  <path
     d="M 30.489336013793945 0.375 L 66.49612236022949 0.375 "
     style="fill:none;stroke:#ffffff;stroke-width:1"
     id="path22" />
  <path
     d="M 30.489336013793945 17.625 L 66.49612236022949 17.625 "
     style="fill:none;stroke:#ffffff;stroke-width:1"
     id="path24" />
  <path
     d="M 74.18362236022949 0.375 L 74.18362236022949 17.625 "
     style="fill:none;stroke:#ffffff;stroke-width:1"
     id="path26" />
  <path
     d="M 66.49612236022949 0.375 C 76.12112426757812 0.375 76.12112426757812 17.625 66.49612236022949 17.625 "
     style="fill:none;stroke:#ffffff;stroke-width:1"
     id="path28" />
</svg>
