<?xml version="1.0" encoding="UTF-8" standalone="no"?>
<svg
   width="51.70886993408203"
   height="18.0"
   version="1.1"
   id="svg249"
   sodipodi:docname="Dr.svg"
   inkscape:version="1.1.1 (3bf5ae0d25, 2021-09-20)"
   xmlns:inkscape="http://www.inkscape.org/namespaces/inkscape"
   xmlns:sodipodi="http://sodipodi.sourceforge.net/DTD/sodipodi-0.dtd"
   xmlns="http://www.w3.org/2000/svg"
   xmlns:svg="http://www.w3.org/2000/svg">
  <defs
     id="defs253" />
  <sodipodi:namedview
     id="namedview251"
     pagecolor="#ffffff"
     bordercolor="#666666"
     borderopacity="1.0"
     inkscape:pageshadow="2"
     inkscape:pageopacity="0.0"
     inkscape:pagecheckerboard="0"
     showgrid="false"
     inkscape:zoom="26.591183"
     inkscape:cx="25.835632"
     inkscape:cy="9.006745"
     inkscape:window-width="1920"
     inkscape:window-height="1001"
     inkscape:window-x="-9"
     inkscape:window-y="-9"
     inkscape:window-maximized="1"
     inkscape:current-layer="svg249" />
  <path
     d="M 3.009169848917976 0.4739171748132039 C 3.7026715218272255 0.4739171748132039 4.256829318471649 0.6745946316238001 4.644164689284773 0.9526347441559112 C 4.650308145491952 1.0062515645085024 4.663546055856558 1.060016372992199 4.652575800812965 1.1124437372646898 C 4.603449882852364 1.360569519526529 4.457806885291136 1.5903185537666114 4.257258755698066 1.7432685981716125 C 3.9413649209170813 1.94997010496389 3.5600411988456018 2.009570228366613 3.2002765010963685 2.0993341831784433 C 3.10998720613517 2.1086036967312767 3.181170796374544 2.130187995961788 3.231117085890341 2.138585643286511 C 3.4609996992016763 2.1784200797833564 3.9384250002790258 2.2376030490926513 4.202499603977515 2.2376030490926513 C 4.220906351189456 2.2376030490926513 4.23827706337661 2.2373153403237978 4.254454894379272 2.2367137030214415 C 4.532424083629077 2.2049171597812043 4.794657162235626 2.0893111466595644 5.019856122452685 1.9255069464391237 C 5.098959498900698 1.8590524805074944 5.166930105007111 1.7763742399315428 5.224523825878929 1.6899990125400517 C 5.3720929131784425 2.0357255065676374 5.451951702305268 2.4028945713681713 5.485264503827336 2.6067978859799568 C 5.503366062427325 2.716651377223197 5.580895308140001 2.8061828973646232 5.687128818362978 2.8395020766672823 C 6.825504545072815 3.188508875845171 7.72511459117944 4.749370284342509 8.566494083211595 5.78895938641794 C 10.295861887830181 7.925728476871466 11.765759846336513 10.315234366846607 13.458892408638075 12.548598959980612 C 12.522122105814729 12.092922126930452 11.58844053850988 11.632519122248745 10.649618007621019 11.174801399409672 C 8.72850955219054 10.164475916823728 6.728271736761494 9.358727903879377 5.045088984609069 8.085161653353607 C 5.042277564439204 8.082822188947427 5.039490238107126 8.07909189594436 5.036677873080877 8.076750541825415 C 4.066833817400553 7.2693821001829235 3.0743602151151883 6.41700117284651 2.698420284718348 5.284299308721125 C 2.5498687829938245 4.364048874911361 4.455242072637431 2.7072382455000326 4.240437005069874 2.637638234559833 C 4.2215063349931405 2.631504463130588 4.200107227613845 2.6285180083156328 4.1764933768710275 2.6285180083156328 C 3.7176359210190495 2.6285180083156328 2.422621666796125 3.756154733581801 2.15731260823226 4.830105427765268 C 2.154053326136495 4.815773846136464 2.1461630666898484 4.79928090552982 2.143294246494671 4.785246481233707 C 2.0704243238243896 4.4287242943794265 1.9886595231574336 3.528875672035904 2.2105824300779164 2.8058581029827074 C 2.22090238771539 2.7720589366371007 2.223991359447983 2.7373940456298778 2.2217969304967107 2.702122556824284 C 2.206042867582163 2.411103719844335 2.16184012380912 2.2384220033632714 2.098435772391302 2.068493834598567 C 2.035031184759387 1.8985666106902463 1.9592064599630061 1.724220765903293 1.8376947401217505 1.3030929608462967 C 1.806828171777225 1.1953371688820418 1.6962380468757994 0.9753151948986268 1.630223411590808 0.9582419943653084 C 1.8161052441811285 0.8204882523408192 2.0045522437462973 0.6772958579179091 2.2750667523423678 0.5825507383579678 L 2.2750667523423678 0.5825507383579678 C 2.1960743965194465 0.658865194028754 2.1432944827087668 0.7691834365057539 2.143294246494671 0.8965614153126038 C 2.143294246494671 1.1261525404295507 2.3068791219270324 1.3115031275181046 2.5077709430296933 1.3115039542674405 C 2.7086627641323537 1.3115039542674405 2.8722476395647156 1.1261525404295507 2.8722476395647156 0.8965614153126038 L 2.8722476395647156 0.8937576721008572 C 2.871221053103765 0.7095976631093593 2.7627272101967493 0.5576299150223198 2.6171139756116095 0.5040481134094518 C 2.669879244148341 0.49667510377938745 2.7125253370291467 0.4854209784459994 2.771315482296895 0.4816187582507192 C 2.852317311433968 0.47642689052903053 2.9316148558688426 0.4739171748132039 3.009169848917976 0.4739171748132039 ZM 3.6797034804227042 8.23655977114829 C 3.744950774217038 8.301805883872143 3.8149797499554623 8.36067988514395 3.8815675587442495 8.424405723946341 C 4.0956495749641375 9.204198532028927 4.293931466520769 10.064938131364233 4.57407335302502 10.7290191024102 C 5.057193067313169 11.874268186883667 5.789626838872777 12.870430272277117 6.413278350114227 13.883144351801198 C 6.260634439177563 13.965039778863208 6.128536902733854 14.058336787907995 6.029175805418124 14.152295196421411 C 5.947669659186221 14.229370911069886 5.8940429178416 14.280530159968329 5.830115352201277 14.345748871857053 C 5.520950312157207 13.938784109671408 5.124019924767046 13.62317373180555 4.644164689284773 13.448575610364134 C 4.689085996337662 12.725628196897432 4.536026821020337 11.737052363409154 4.30492109112023 10.66173115504105 C 4.1263418173058595 9.830810278320685 3.903548933870034 9.003086795602949 3.6797034804227042 8.23655977114829 ZM 4.686219774497539 9.144947533060002 C 5.834593499032087 10.09035760265641 7.113542596376112 10.88336044784028 8.36182590735716 11.685069199744076 C 8.343845290374292 12.594861963098435 8.344411259348162 13.463187814338914 8.445936077782692 14.359767706022835 C 8.033305011863666 14.014385848361224 7.586775333464642 13.763462228240035 7.018870348864767 13.625206117887009 C 7.015369655962953 13.624345353721408 7.011953527707485 13.623977804588126 7.008598342688769 13.623977804588126 C 6.989090837789752 13.623977804588126 6.971640285238172 13.63639699689621 6.951581929067426 13.636421563162186 C 6.30326824892538 12.572860982202688 5.56863248956343 11.57684345983595 5.115180793297013 10.501922870574559 C 4.9594783822461315 10.132827952249835 4.822072170210292 9.651825188689491 4.686219774497539 9.144947533060002 ZM 5.092751320031232 14.399018929916807 C 5.256419815253556 14.551910865654206 5.4054203599744595 14.728454446389774 5.5329268392495 14.94012684261699 C 5.575655607063885 15.01022479287143 5.648728910070769 15.058380343325913 5.729183431147552 15.07470273735529 C 5.7494917018318015 15.078823256044847 5.769947370111917 15.080878318679517 5.790254695939782 15.080878318679517 C 5.850400001475933 15.080878318679517 5.909242822487076 15.062849514021076 5.9590844691583715 15.027040401933126 C 6.175000687833224 14.870724306660996 6.306688629034575 14.703258906060551 6.435707350951817 14.58125716007727 C 6.483312522562763 14.536239477673238 6.5327214250102985 14.500179978643592 6.584302079855896 14.463502543538969 L 6.732896336331785 17.185862440383506 C 6.519603983834621 17.172073206318977 6.298091380798784 17.15081393768448 6.095781566478202 17.15081393768448 C 5.831792472282443 17.15081393768448 5.600500133246544 17.18701327545892 5.462835502989748 17.323242668868794 C 5.2941143882552915 17.189184555428792 4.96598135630733 17.158607113137695 4.572329148140608 17.158607113137695 C 4.471105738892494 17.158607113137695 4.365550163124863 17.160629105798932 4.257258755698066 17.16343343954592 L 5.092751320031232 14.399018929916807 ZM 6.25066573190075 9.573908551859477 L 6.25066573190075 9.573908551859477 C 7.604791854990093 10.361226196182292 9.034522078910209 10.988295252963786 10.386072995925625 11.699088033909858 C 10.388108216576233 11.700135879639442 10.389620931646625 11.700891764746446 10.39167977370683 11.70189142280046 C 11.686891739128056 12.333365400043023 12.978365852695143 12.98273873661945 14.285973389014858 13.605581450796405 C 15.269975172749374 14.794761632832586 16.33790476962736 15.90056296328426 17.36439863465213 17.026055100773398 C 16.647556883137256 17.146248391638174 15.930830404101199 17.267532046769798 15.213987707729942 17.38772722734734 C 13.79219427743337 15.841645498618801 12.36859900601298 14.299348864563587 10.946807465429178 12.75326524612228 C 10.935631704122118 12.739913480563432 10.92370950627189 12.727994117282355 10.910359630425809 12.716818355975295 C 9.41106341039531 11.580038019269429 7.757799063206311 10.634765898705052 6.25066573190075 9.573908551859477 ZM 3.0756960058277225 0.0 C 2.9405269774945206 0.0 2.803378947465543 0.004522381611119117 2.664776311033773 0.013406474957975922 C 1.5799215017535755 0.08356273687650426 0.791815610992612 0.5394290283949892 0.5227751964622482 1.157302329475107 C 0.4821416476788419 1.2499492773278713 0.3773182175015722 1.4706424536648965 0.5155519465690093 1.4706424536648965 C 0.5301007861125528 1.4706424536648965 0.5473420529751317 1.468197873986025 0.5676338477261894 1.4629019539550754 C 0.6829407547488466 1.4484514385289664 0.7780652341468658 1.4423110531050352 0.8569417269557291 1.4423110531050352 C 1.2747371416542677 1.4423110531050352 1.236670413344381 1.614590378873667 1.3274274122155385 1.6367293088014427 C 1.417468209947809 1.9189504698851962 1.6165598434253194 2.483475939414473 1.630223411590808 2.7049261819289825 C 1.386425543994761 3.5656903475302664 1.4768830233922678 4.468266061611404 1.565739089326357 4.903000625343815 C 1.7153772939992473 5.635118342443057 2.1961816377190027 6.48697345720191 2.8273889292472503 7.283313535133207 C 2.8134251329658233 7.338127016095824 2.8086283333195925 7.393803623365002 2.8273889292472503 7.448729542237286 C 3.1285063912567783 8.370618829444675 3.4792571591049843 9.617610994177321 3.7301694409495667 10.785092549360554 C 3.981081959008245 11.952574104543789 4.12285718696257 13.061967778966503 4.046983802062425 13.608383894830625 C 4.025192579283871 13.758532912485983 4.121174397743101 13.900045942793815 4.26847325611686 13.936413465004566 C 4.312604663232929 13.947361515923141 4.352082652659003 13.967347118152338 4.39463851175516 13.981272411536127 L 3.4666249016823647 17.0596976571734 C 3.272728324816838 17.01836208009686 3.0724617624261277 17.00476559673462 2.874112549852153 17.00476559673462 C 2.4927394590346226 17.00476559673462 2.118454680808026 17.055030066637645 1.8101650502035056 17.055030066637645 C 1.6846506825065655 17.055030066637645 1.570075389592555 17.04669832304569 1.4704144184820296 17.023250767026415 C 1.4375472348519498 17.015217598051724 1.3949769666959404 17.011228414399508 1.3451441780532423 17.011228414399508 C 0.9090801423353627 17.011228414399508 -0.08308278674200893 17.316628674182503 0.004096926806725951 17.889582026440785 C 0.15548046576267507 17.76211712084663 0.26223299740795364 17.73138850153413 0.38031217211407353 17.73138850153413 C 0.49024007079753446 17.73138850153413 0.6099847320405954 17.758020223566664 0.7846967677297779 17.758020223566664 C 0.7935070810801064 17.758020223566664 0.8024571741217066 17.757952193907034 0.8115528340999292 17.75781046544947 C 1.066223518424995 17.75382506122279 1.509269747551208 17.674784045296107 1.865480722334089 17.674784045296107 C 2.0452727193170093 17.674784045296107 2.202943030001157 17.694920824546703 2.3031032396034496 17.755008021415254 C 2.5392046614185677 17.745578354705373 2.7523340261895344 17.741732789223487 2.951610851518261 17.741732789223487 C 3.8011631150558056 17.741732789223487 4.398956033000731 17.81162570564265 5.451620530142762 17.816688246146814 C 6.240002555181878 17.80960749240695 7.649068297561068 17.777941575561766 8.426310465835707 17.73818579835887 C 8.876011082258614 17.740893756754712 9.122960636429726 17.792010487115885 9.3482285711628 17.792010487115885 C 9.361538763040762 17.792010487115885 9.374772421551643 17.79183285411574 9.387968285807172 17.791454911562237 C 9.52192246504496 17.78755265469733 9.652878614977093 17.73516414764362 9.867871236536825 17.73516414764362 C 9.990853743446445 17.73516414764362 10.141335350548884 17.752305732157712 10.335607271612858 17.805472800871634 C 10.085930861918229 17.463682342324677 9.45939942841909 17.120327201606223 9.005599080147068 17.120327201606223 C 8.891079651866747 17.120327201606223 8.787560241606108 17.142193068039095 8.703873366840497 17.191469218164713 C 8.542968104112466 17.175166666119395 8.37234782804666 17.169161158944245 8.19567291227375 17.169161158944245 C 7.976734570455455 17.169161158944245 7.748496479680046 17.178384846962466 7.517922703923993 17.188666774130493 L 7.360917335919913 14.359767706022835 L 7.360917335919913 14.359767706022835 C 7.847890174541017 14.562401606083045 8.21758885609496 14.875619607585232 8.642193142108937 15.380301416978874 C 8.699664031650867 15.44654907746951 8.781797562521582 15.482110637184917 8.86545325702653 15.482110637184917 C 8.908499969014047 15.482110637184917 8.951950134677428 15.472694198464408 8.992650768264083 15.453197086985613 C 9.112446274591294 15.395810289661837 9.178901803486355 15.264291005324987 9.155264331333942 15.133579573196247 C 8.962827321367223 14.095116267502062 8.941800487403126 13.115423973733854 8.95339954437011 12.074779939505962 L 8.95339954437011 12.074779939505962 C 9.492870020957247 12.42841606253606 10.024760859633895 12.787106222362869 10.5290609470485 13.16820932046874 C 11.981769133365166 14.7479090393313 13.43605428498632 16.326704530634608 14.888761526446602 17.906404249497168 C 14.944628049848916 17.96747598671759 15.022539017540629 17.999999833159222 15.103714464038218 17.999999833159222 C 15.11983182423232 17.999999833159222 15.136078629750996 17.99871671819008 15.152306538141996 17.99612214256029 C 16.10156595264582 17.836959195003903 17.051571803692816 17.68146795935479 18.00083121819664 17.52230312208564 C 18.107373224028915 17.50503114739059 18.194878263441282 17.430652052861355 18.23073178377927 17.328851336362764 C 18.266587193830023 17.227046840438643 18.244059927928525 17.11188585467375 18.171855892794696 17.031661878554605 C 17.42994521170602 16.20143358156353 16.66326228594804 15.400856767607475 15.920510682677822 14.586862993002091 L 15.920510682677822 14.586862993002091 C 17.1897721675192 15.367626168590794 18.796164079222855 16.341928056689678 19.00015479305014 16.341928056689678 C 19.023265980196797 16.341928056689678 19.02837576352015 16.32942193759429 19.01295381762449 16.302708957912753 C 18.91865715052569 16.139381083416772 18.112724890586506 15.546881487147742 17.238233851442022 14.928911397341812 L 17.238233851442022 14.928911397341812 C 17.377197659226482 14.987001167815102 17.513576339944986 15.048752256775444 17.6531769809321 15.10554284972107 C 17.658199837468143 15.108767644558828 17.664787376175685 15.113841523339595 17.669999203988482 15.116757350139865 C 17.773049020626395 15.151233269870335 17.830042757694528 15.174751690118395 17.93915099346508 15.178437574871426 C 17.94233326976557 15.178545288499173 17.945553340321407 15.178605759307734 17.948841440536878 15.178605759307734 C 17.973745965099905 15.178605759307734 18.00257920250659 15.175098452411234 18.048493553618805 15.161615351815042 C 18.100470103289197 15.146353086648238 18.187842862807837 15.102794262500725 18.236338561560473 15.01021723402036 C 18.28483615002588 14.91764209525276 18.275225070890315 14.822594267328872 18.25876945211083 14.771906501765924 C 18.242311943618578 14.721218736202974 18.220873152271164 14.694878974793022 18.205498449194693 14.67377749717461 C 18.143995857463278 14.58936875213181 18.102465639971687 14.565463885622796 18.0428867758376 14.519575990489324 C 17.983304132277976 14.473685260786702 17.91481149301954 14.423448191718805 17.838219544839546 14.370981261585245 C 17.6850337587668 14.266046456461739 17.50165414209476 14.147847757423074 17.344773967561526 14.042952636267687 C 17.18789568274106 13.938058459968683 17.045392442943054 13.83638718879467 17.016744397387587 13.810248681794459 C 17.00804982894427 13.80148608369151 16.99842930124487 13.792621441099115 16.988708618768793 13.785015347209884 C 15.691415134734154 12.872117785778505 14.394182121508075 11.96102017575818 13.097218392351367 11.048637561055948 C 13.088896097323248 11.042752050641536 13.077870568181206 11.047937422475586 13.06918166887619 11.04302983841836 C 11.735590582003198 9.174366581424614 10.481460027291279 7.217504760432826 9.023491825486246 5.41607134214063 C 8.27915569806047 4.496387349732927 7.424659237280828 2.887723530854533 6.037586916946315 2.3516642220268507 C 5.970716123670593 1.9556564868954267 5.819659099030447 1.224570552967246 5.283400661719887 0.7031084485192504 C 4.8273005330098036 0.25959351157317057 4.167590467595091 0.05615587828814758 3.427373441574297 0.0106028092539796 C 3.3119162433330986 0.0034978361875914604 3.1945714582512528 0.0 3.0756960058277225 0.0 Z"
     style="fill:#ffffff;stroke:none"
     id="path201" />
  <path
     d="M 30.902030744416184 5.065486528094395 C 30.91236200997503 5.065486528094395 30.9225969652851 5.065882042786161 30.932725472425464 5.066651302794851 C 30.94012108573958 5.067213006976051 30.94745659566536 5.067973486821083 30.954731278065598 5.06892427897632 C 31.07426750368143 5.084551114685006 31.182503568152956 5.15200870473811 31.259857353078107 5.245469111531394 C 31.412019580639257 5.429309762241488 31.459127602624623 5.730862491679712 31.185400116988408 5.982928951504363 C 31.134049375096314 6.029465448197634 31.071123299920547 6.048227662244969 31.004068194379844 6.048227662244969 C 30.99450016943914 6.048227662244969 30.984848144582205 6.047845679867294 30.97513384392531 6.0471078745686135 C 30.959572135306846 6.045925992126598 30.943848219953598 6.043830882147056 30.928055511565507 6.040930260039804 C 30.81584538209174 6.020322220247078 30.70019198018983 5.956815477546954 30.6103881042327 5.86790518690556 C 30.447752680219768 5.7068732742245025 30.354262221732316 5.453943099743981 30.58892250495038 5.192372746380185 C 30.696159260073674 5.101474563324736 30.803480739250407 5.065486528094395 30.902030744416184 5.065486528094395 ZM 26.321092597402508 5.075045637095716 C 26.33142422502996 5.075045637095716 26.34165936137433 5.075441151787482 26.351787868514695 5.076210411796172 C 26.359181309417185 5.0767719349430696 26.366516819342966 5.077532414788102 26.373792406914713 5.078483252201915 C 26.493328451496243 5.094110133169176 26.601564878036374 5.16156772322228 26.678919206064432 5.255028130015564 C 26.8310830629343 5.438868916501384 26.878189274576645 5.740420740768098 26.604463599283452 5.992488105764259 C 26.55311285739136 6.039024692974682 26.490184428769663 6.0577867259877145 26.42312932322896 6.0577867259877145 C 26.413561298288254 6.0577867259877145 26.403909454465623 6.057404743610039 26.394195153808727 6.056666938311359 C 26.37863235898445 6.055484874835042 26.362909710871318 6.05338985537265 26.347117002483227 6.050489233265399 C 26.234908140249576 6.029881374506974 26.119252928004645 5.966374450772548 26.029449776184723 5.8774642506483055 C 25.866815438377603 5.716432428484399 25.77332479885585 5.463502978141086 26.007983452765192 5.201933258397348 C 26.115220932025696 5.111033762843208 26.22254259223673 5.075045637095716 26.321092597402508 5.075045637095716 ZM 29.403545014696466 5.085731458335452 C 29.413876642323917 5.085731458335452 29.424111597633985 5.086126973027218 29.43424010477435 5.086896233035908 C 29.44163354567684 5.08745771092423 29.44896905560262 5.088218190769263 29.456245186277275 5.0891698428374355 C 29.575781411893107 5.104795954408912 29.68401711429603 5.172254268599225 29.761371985426994 5.26571476590966 C 29.91353566126256 5.449556367049841 29.9606415108363 5.751107286145043 29.686914749337294 6.0031738364868446 C 29.635565455719618 6.049711238351627 29.572636483995016 6.06847327136466 29.50558210259152 6.06847327136466 C 29.496014077650816 6.06847327136466 29.486362414862487 6.0680912889869845 29.47664811420559 6.067353483688304 C 29.46108568144992 6.066171601246289 29.44536249023388 6.0640765817838975 29.42956978184579 6.061175869159495 C 29.317360738577836 6.0405679198839195 29.20170588840151 5.977060996149493 29.111902736581587 5.888150071888042 C 28.949268398774468 5.727118973861344 28.85577757821841 5.474189614035183 29.090436413162056 5.212619849032869 C 29.197673168285352 5.121720217703002 29.30499500953069 5.085731458335452 29.403545014696466 5.085731458335452 ZM 27.83841802385091 5.100915710433796 C 27.848749289409756 5.100915710433796 27.85898460678843 5.101311225125562 27.869113113928794 5.102080485134252 C 27.876505106556866 5.102641872505423 27.88384242682567 5.103402488126182 27.891117833363115 5.1043540496772035 C 28.010653696910342 5.11998016124868 28.118890847587682 5.187438565956144 28.196245356650042 5.280898248612219 C 28.348406860073982 5.464739623459522 28.39551343378493 5.7662914477262355 28.121787396423134 6.018358088585188 C 28.070438102805458 6.064895309415668 28.00750876901225 6.083657342428701 27.940453301402943 6.083657342428701 C 27.930884914393634 6.083657342428701 27.9212328895367 6.083275360051026 27.9115182268112 6.082537554752346 C 27.895956156124132 6.081355581793179 27.880234775251115 6.079260019227881 27.86444170479442 6.076360121257839 C 27.752233385663676 6.055751266810752 27.63657853548735 5.992244524110628 27.546773573324405 5.903334142952083 C 27.384139235517285 5.742302320788177 27.29065022530425 5.489373775616375 27.5253094223165 5.227804146389788 C 27.6325465395084 5.136904515059921 27.73986765661653 5.100915710433796 27.83841802385091 5.100915710433796 ZM 24.79195785083482 5.2046755207487365 C 24.80228938794512 5.2046755207487365 24.81252443377234 5.205071035440502 24.822652940912704 5.2058402954491925 C 24.830046381815194 5.20640181859609 24.837381982258126 5.207163022578332 24.844657479312723 5.208113814733569 C 24.964193523894252 5.223739926305045 25.072429950434383 5.2911983310125095 25.149785183633952 5.384658013668584 C 25.30194732067795 5.568499524291614 25.3490538943889 5.870050533903967 25.075327947544253 6.122117898900129 C 25.02397802030652 6.1686549386963065 24.96105022530488 6.187416609640735 24.893994938729875 6.187416609640735 C 24.884426642237717 6.187416609640735 24.87477434582933 6.18703462726306 24.86505959258668 6.186296731447229 C 24.84949670724525 6.185114758488062 24.833774692752176 6.183019829542822 24.81798144126118 6.180119841055628 C 24.705773303164737 6.159510352988484 24.590118905574165 6.096005149079929 24.500314260221252 6.007094043784175 C 24.337679877155555 5.846062131103118 24.24419005228816 5.593133585931316 24.47884866093893 5.331563142050369 C 24.58608627597516 5.240664234857711 24.693407845669043 5.2046755207487365 24.79195785083482 5.2046755207487365 ZM 28.637535295868293 5.637575606265102 C 28.663066563509776 5.817580004335518 28.755195644044566 5.984284264807901 28.88740535702131 6.1151297938003 C 28.93221351923133 6.159478128882689 28.98126476341668 6.199441632131112 29.03319698748749 6.234231356056512 C 28.811012864240926 6.234292183582056 28.584476314300492 6.234455838591259 28.35757154058935 6.234752191743986 C 28.54572954259726 6.052718308628581 28.63096918172693 5.8417359543830685 28.637535295868293 5.637575606265102 ZM 30.180328084849496 5.785842971331231 C 30.224837902529462 5.900679636978694 30.29612559005597 6.006046850863008 30.385888190192194 6.094883913129156 C 30.440118825763935 6.1485550621898994 30.500561110313303 6.195805558171109 30.564803666934782 6.235232475747765 C 30.362680316785347 6.234929243291553 30.141361537503375 6.234660769421367 29.906990909168858 6.234473942021481 C 30.054642486056 6.097027992887448 30.142181984961017 5.942212707627327 30.180328084849496 5.785842971331231 ZM 31.66276512367779 5.822298210837015 C 31.656305095637524 5.961110244815568 31.649209275127877 6.102344246206314 31.642315488899502 6.237480378678377 C 31.58428458125565 6.237318171943592 31.49501946338191 6.237079930801876 31.37968033702865 6.236804577628206 C 31.386800778203398 6.230950290363154 31.393818391894488 6.224890167096483 31.400728833278666 6.218623121622379 C 31.533222045972682 6.096682307887367 31.61805327171655 5.960863404544497 31.66276512367779 5.822298210837015 ZM 27.09899355437172 5.770507917659142 C 27.14085085745562 5.9050615722638256 27.21943821011607 6.028536561192965 27.322276555832733 6.130313140727132 C 27.36173805096111 6.169369481087152 27.404490025566563 6.2050243679428405 27.449604135747325 6.236740491485222 C 27.229066700513716 6.237447430435374 27.01354862234334 6.2383290674871645 26.80703573346808 6.239413462957437 C 26.811327332636406 6.235746070063151 26.815579104258244 6.232002642761934 26.819790143162084 6.2281813707107645 C 26.971793060537284 6.088287294707868 27.061061799097065 5.930125680888441 27.09899355437172 5.770507917659142 ZM 25.589702068187048 5.76903954843387 C 25.633165507600207 5.8941166004204675 25.708361906745854 6.0088493523784585 25.804951310418634 6.104443067389052 C 25.859474678457058 6.158404414436248 25.920279031610857 6.205876677437672 25.984910630947798 6.245430681094483 L 25.98490990681059 6.245430681094483 C 25.75813276228251 6.247706644341939 25.556833842345366 6.250409305439717 25.389874051955406 6.253609810868589 C 25.51625554660662 6.101069221615809 25.578683415382688 5.933377328507689 25.589702068187048 5.76903954843387 ZM 29.24054245311864 6.515891402747215 C 30.36013062967294 6.515891402747215 31.33350427963109 6.518317443431208 31.627927606696606 6.519129382276645 C 31.623595817913188 6.6047928227078 31.619660132183018 6.68437133817288 31.616413825075686 6.75489940576729 C 31.616198032187445 6.776407548110633 31.615980791024786 6.797909535287701 31.61576717054817 6.819407901778725 C 30.89542371652252 6.824659887920305 26.61048679155247 6.855594486380021 25.626426143631623 6.855594486380021 C 25.544594294206863 6.855594486380021 25.485588516845578 6.855380503834802 25.453356626576184 6.854920133604267 C 25.38226861988502 6.724673918669353 25.318743502203223 6.626176232416917 25.237834837202612 6.538675836921179 C 25.42770352284931 6.533942333021145 25.68552280021262 6.530135543714152 25.989009609618567 6.527092538128208 C 26.634134759348004 6.5206249066472495 27.48565168600452 6.517613763098495 28.334262287973264 6.516471436651514 C 28.640010396848187 6.51606012671688 28.945358419915213 6.515891402747215 29.24054245311864 6.515891402747215 ZM 31.61292710441501 7.101117551868235 C 31.60724190318823 7.666475005286777 31.60163780532884 8.228985513268675 31.596030810920613 8.791494572976156 C 31.59796280899386 8.90392520223002 31.599890462243852 9.01633338323041 31.601816667219428 9.12871947804593 C 31.576511692455714 9.173656536679125 31.551910579059015 9.217601165267574 31.528508636880193 9.25984696796403 C 31.178416537746134 9.267950063331206 30.16742902874802 9.29185057397833 29.148444872552435 9.320659286627127 C 28.51774236361192 9.338489717120957 27.884818201714612 9.358175387143895 27.402761147980403 9.377180006121897 C 27.160878320241142 9.386715806956808 26.956197679538608 9.396125245848772 26.809396782837577 9.405014754224773 C 26.733947478771736 9.409584422081302 26.67280024664954 9.414080590011132 26.628369903028247 9.418460533918939 C 26.602748842372865 9.420983065886013 26.581661966850778 9.423571132270489 26.564738518211048 9.426306560576968 C 26.560737298063476 9.426953215104483 26.556796000269937 9.427650559236618 26.552913357590317 9.428399679179186 C 26.520658656998844 9.342632868161466 26.487994818884363 9.25995558854536 26.4585760206371 9.14976326740409 L 26.45591988535499 9.13971694983693 L 26.451700880941853 9.129985994024231 C 26.163607056184706 8.465531087710012 25.875512326256047 7.801077991738815 25.587417596327388 7.136623809561804 L 25.587417596327388 7.136623809561804 C 25.600547471164187 7.136635757825751 25.6143238194942 7.136641731957724 25.6287283568529 7.136641731957724 C 26.65652471977744 7.136641731957724 30.882542039714057 7.106399770738285 31.61292710441501 7.101117551868235 ZM 32.31134947685396 9.572843328231066 L 32.31134947685396 9.572843328231066 C 32.30857892789285 9.574676119506698 32.30594524086422 9.576302893746409 32.303419450279705 9.577743926792046 C 32.30334776069603 9.577786288818764 32.30330865728675 9.577809099140843 32.303299243503034 9.577809099140843 C 32.303298519365825 9.577809099140843 32.303298519365825 9.577809099140843 32.303298519365825 9.577809099140843 C 32.30321886427285 9.577803306043172 32.30714006725884 9.575155498338965 32.31134947685396 9.572843328231066 ZM 33.00892967771901 8.051015035583653 C 33.017886530855435 8.051015035583653 33.02669276345242 8.05134813869973 33.03533316862857 8.05200420701096 C 33.080822743952126 8.055459065634444 33.12170970317615 8.067874760149003 33.15575428991363 8.087839947134562 C 33.23092914597731 8.131933747988036 33.28078888935636 8.219330953931511 33.25745067125192 8.368641529164158 C 33.22768283886998 8.558944787653324 33.08435653353138 8.815179652803643 32.75465179337564 9.120133745229047 L 32.74886955776287 9.125469912321158 L 32.74325459784535 9.131467578753565 C 32.47013755987621 9.423585615014666 32.36933476385366 9.531919800077993 32.31625260989517 9.569485141924964 L 32.316251161620755 9.569485141924964 C 32.26714452093893 9.569933020788646 32.20876023433715 9.571845829225857 32.12283990623115 9.591960550545046 L 32.12081666686959 9.592433412142434 C 32.04430867420439 9.59484261663632 31.967906405571686 9.5972594245709 31.89160551614822 9.599683111808964 C 31.891189861390334 9.575554135872444 31.890774206632447 9.55142407373011 31.890361448423395 9.527294373656382 C 32.02836172459081 9.2752703663756 32.22134791143881 8.945610884795421 32.34988081773756 8.706959519350711 L 32.3582018784046 8.691583551926321 L 32.364089838049864 8.674757499741183 C 32.471354834524305 8.369083976998773 32.634782464643735 8.19169027460061 32.79334027203356 8.108704512533528 C 32.869272575617714 8.068965672854155 32.943162088135665 8.051015035583653 33.00892967771901 8.051015035583653 ZM 32.071833853650475 10.061801047497134 C 32.27530120245956 10.374833976693218 32.478767102994226 10.687865457614883 32.682231555254475 11.00089621439934 C 32.50672748890284 11.075870484456168 32.331222698413995 11.15084185796416 32.155715735513525 11.225813955609361 L 32.0641637923342 10.379975712944749 C 32.06259748355143 10.274385283765803 32.06102972649424 10.16879594079267 32.0594576246138 10.063207321956746 C 32.063587379115944 10.062742063800052 32.06771134052042 10.062273909094522 32.071833853650475 10.061801047497134 ZM 31.61327831096131 10.054809140676959 C 31.62091940678923 10.569293782761257 31.628565571577614 11.083776614502533 31.636207391542744 11.598260170381018 L 31.64058407683311 11.930534149353797 L 31.649879102046075 11.926569498135272 C 31.655848165058732 12.273657876126968 31.661815055659762 12.62068542659312 31.667781946260792 12.967703563275556 L 26.849978337193765 12.898503563322201 C 26.798671224568505 12.069939975843617 26.765981136480203 11.04338496512937 26.71462224804451 10.215361946077202 C 28.36806066805973 10.163404739272686 29.970368121825746 10.107564346685642 31.61327831096131 10.054809140676959 ZM 30.90181060670469 4.746220350265503 C 30.72464754200755 4.746220350265503 30.540652966881996 4.811227539206323 30.372658927523478 4.957286738371176 L 30.365993244515895 4.963067412563088 L 30.359856181670782 4.969745700083964 C 30.254774458881062 5.084189543924905 30.188938800400084 5.203859870700104 30.15557128195289 5.322993476027808 C 30.121982177519786 5.228232337773104 30.07154384851086 5.139781466932158 30.007349084945165 5.062210078775744 C 29.878355627381584 4.906333027333128 29.697336169978644 4.798682586199982 29.497471403783653 4.77259596189252 C 29.48446372710085 4.770898312723492 29.471393774618083 4.7695477515703875 29.458274942873718 4.768551384029568 C 29.440048771395244 4.767167105237675 29.421723393119155 4.7664659820144815 29.403324152847762 4.7664659820144815 C 29.226158915738996 4.7664659820144815 29.0421690475053 4.831473533023905 28.874175008146782 4.97753250589588 L 28.867507514796177 4.98331229754557 L 28.861371900225482 4.989991467608668 C 28.708035122111557 5.156990361407907 28.638261967557387 5.335116619109986 28.631005750655977 5.506466400811526 C 28.610153133520956 5.348377743815892 28.54320737269879 5.1994246208129695 28.442222818236818 5.077393561478303 C 28.313227550330215 4.921517166285033 28.132208092927275 4.813866747781175 27.932344050869492 4.787779410651147 C 27.919335287980875 4.786081693594257 27.90626786997834 4.784731324790098 27.893148314096766 4.783734889361415 C 27.874921780549688 4.782350587940234 27.8565964022736 4.781649464717041 27.838197162002206 4.781649464717041 C 27.661030838687626 4.781649464717041 27.47704241872835 4.846657151502191 27.309047293164017 4.992716712735648 L 27.3023787136076 4.998496413868187 L 27.296243099036904 5.0051755386727095 C 27.18907513694845 5.1218916571872 27.122725703117784 5.244042697005661 27.09001027022717 5.365517166378165 C 27.05772063001537 5.250644610680288 27.000964927996325 5.143445510691853 26.924896486616905 5.051523488140223 C 26.795902848019022 4.895646436697607 26.61488411475329 4.787996063452324 26.41501699511237 4.761909246795916 C 26.402010947738287 4.760211722087972 26.38894244352994 4.758861274081306 26.375822887648365 4.757864849967266 C 26.35759653513559 4.7564805711753735 26.3392711568595 4.755779447952181 26.32087209762241 4.755779447952181 C 26.14370667947934 4.755779447952181 25.959716992279947 4.82078698764696 25.791723496024336 4.966846028406799 L 25.785054735433615 4.972626453676547 L 25.778918577760013 4.979304831714572 C 25.63564712581498 5.135341826963195 25.565328333873932 5.301092670282959 25.550795986297867 5.461953777099875 C 25.5173978730536 5.359628030009937 25.464454391370612 5.264161536855225 25.395762373669275 5.181153417051819 C 25.266768010934182 5.025276275092052 25.085749368185603 4.917626671242553 24.88588297268189 4.8915391530782255 C 24.872875205481936 4.889841503909198 24.85980769696225 4.888491123790395 24.846688231597827 4.887494710991 C 24.828461969602202 4.886110432199107 24.81013641029181 4.8854093089759125 24.79173735105472 4.8854093089759125 C 24.6145716613602 4.8854093089759125 24.4305814310579 4.950416780782829 24.262588025319438 5.09647579891338 L 24.255919898348775 5.102256359958854 L 24.24978360489945 5.108935439504801 C 23.89122221194876 5.499443989711427 23.989587731845937 5.95079681113549 24.27581633755807 6.234073675179282 C 24.282966196806925 6.2411504870871966 24.290223635689877 6.2481141525562265 24.29758344947073 6.254963223311954 C 24.29758344947073 6.254963223311954 24.609724558435524 6.527338744779222 24.77343224862048 6.530188767799004 C 24.77939244095233 6.533850367595619 24.78525333596941 6.5374846312126 24.791019459529284 6.541092825890061 L 24.836212953251568 6.612080177509192 L 24.868119072294125 6.591767223629077 C 25.067759718022973 6.730503042166397 25.13353644983858 6.84588959950684 25.265715115432496 7.101975111357831 C 25.266096554707264 7.102856929443924 25.266478899153544 7.103738928564319 25.266860519462615 7.104620022513203 L 25.265357029582713 7.124414494151772 L 25.275776730398192 7.125205795086757 C 25.577630157812397 7.82216631553532 25.883389490814057 8.527364077769 26.18916547897152 9.232595874451498 C 26.224484004093693 9.362163210753103 26.264156404184153 9.457137426381514 26.30254092624865 9.56290997606849 L 26.269634683203503 9.58385817931508 L 26.351660239331633 9.712698481858986 C 26.38003682310104 9.812410365176383 26.406023573046898 9.936189672767547 26.42603727722545 10.114047909185196 C 26.484397486265035 10.998107562008009 26.51823732320671 12.155926924572832 26.577194402340698 13.046656243157877 L 26.585683100771593 13.176415837888435 L 26.715703565931644 13.178292077396598 L 31.809066908807612 13.251453107882433 L 31.954512763756558 13.25377976073451 L 31.952464903729894 13.138468151595184 L 31.97690163798018 13.138106082990753 L 32.22294753053319 13.13445281077204 L 32.36216797789754 13.13261784708478 L 32.34710157912994 12.99400857152471 L 32.20589192685284 11.689377631235025 C 32.504322629232206 11.561894723889132 32.802755504023196 11.434408195857195 33.101189827088604 11.306924564374093 L 33.345613652293764 11.203219426418421 L 33.200774624325845 10.980280752200223 C 32.97929146589746 10.639528212717472 32.75780613505745 10.298775311166118 32.53632080421744 9.958022047546159 C 32.537819768239785 9.957087548478121 32.53933176673189 9.956127704607773 32.5408524548705 9.955146860758369 L 32.94667922255911 9.566362300211743 C 32.98253342818154 9.528402303585942 33.02136745841844 9.487042844833134 33.06352310603239 9.441973269090717 C 33.06352310603239 9.441973269090717 33.65301134573048 8.725551018051057 33.69807150768918 8.437749201623383 C 33.749789387146166 8.107507513727278 33.614376453226015 7.839646625688665 33.381173134072185 7.702990710249502 C 33.28860667466324 7.648745954002187 33.182389504730025 7.6163922276474025 33.06981803078904 7.6078423396223585 C 33.04974567149657 7.6063178497634 33.029470553785615 7.605550264322005 33.00903612588871 7.605550264322005 C 32.87121833229793 7.605550264322005 32.72609906323018 7.640466893293258 32.586370271545206 7.713627923779093 C 32.331185043279135 7.847236669843362 32.09446314142744 8.107546255067952 31.94923742418999 8.510225198309634 C 31.927429308007877 8.550521623639831 31.90390933146401 8.593235943110422 31.879224218151084 8.637596950593966 C 31.88547424640078 8.014658278738274 31.891712688455133 7.3886479978768875 31.897952578783904 6.762639165289919 C 31.91909883355712 6.304703121982932 31.720362997270744 5.373207684570591 31.685470445861686 5.373207684570591 C 31.682606483200633 5.373207684570591 31.680846829783096 5.379481156762424 31.680402209536854 5.392804647785443 C 31.680402209536854 5.392804647785443 31.58998209281498 5.143647952300306 31.505835900870697 5.041964469656053 C 31.37683954675828 4.8860872598084235 31.195821175561154 4.77843688656314 30.995953512817326 4.752350081221376 C 30.982950180957776 4.750652714918445 30.96988095261222 4.749302221653204 30.956759586387623 4.748305673078082 C 30.938533776977753 4.746921450859409 30.920209484907478 4.746220350265503 30.90181060670469 4.746220350265503 Z"
     style="fill:#ffffff;stroke:none"
     id="path203" />
  <path
     d="M 21.39600372314453 0.375 L 21.39600372314453 17.625 "
     style="fill:none;stroke:#ffffff;stroke-width:1"
     id="path205" />
  <path
     d="M 21.39600372314453 0.375 L 24.02100372314453 0.375 "
     style="fill:none;stroke:#ffffff;stroke-width:1"
     id="path207" />
  <path
     d="M 21.39600372314453 17.625 L 24.02100372314453 17.625 "
     style="fill:none;stroke:#ffffff;stroke-width:1"
     id="path209" />
  <path
     d="M 24.02100372314453 0.375 L 33.7088680267334 0.375 "
     style="fill:none;stroke:#ffffff;stroke-width:1"
     id="path211" />
  <path
     d="M 24.02100372314453 17.625 L 33.7088680267334 17.625 "
     style="fill:none;stroke:#ffffff;stroke-width:1"
     id="path213" />
  <path
     d="M 33.7088680267334 0.375 L 51.3338680267334 0.375 "
     style="fill:none;stroke:#ffffff;stroke-width:1"
     id="path215" />
  <path
     d="M 33.7088680267334 17.625 L 51.3338680267334 17.625 "
     style="fill:none;stroke:#ffffff;stroke-width:1"
     id="path217" />
  <path
     d="M 35.4713680267334 0.375 L 35.4713680267334 17.625 "
     style="fill:none;stroke:#ffffff;stroke-width:1"
     id="path219" />
  <path
     d="M 38.9963680267334 0.375 L 38.9963680267334 17.625 "
     style="fill:none;stroke:#ffffff;stroke-width:1"
     id="path221" />
  <path
     d="M 40.758868026733396 0.375 L 40.758868026733396 17.625 "
     style="fill:none;stroke:#ffffff;stroke-width:1"
     id="path223" />
  <path
     d="M 42.5213680267334 2.1 L 51.3338680267334 2.1 "
     style="fill:none;stroke:#ffffff;stroke-width:1"
     id="path225" />
  <path
     d="M 42.5213680267334 5.550000000000001 L 51.3338680267334 5.550000000000001 "
     style="fill:none;stroke:#ffffff;stroke-width:1"
     id="path227" />
  <path
     d="M 42.5213680267334 2.1 L 42.5213680267334 5.550000000000001 "
     style="fill:none;stroke:#ffffff;stroke-width:1"
     id="path229" />
  <path
     d="M 44.2838680267334 3.825 L 51.3338680267334 3.825 "
     style="fill:none;stroke:#ffffff;stroke-width:1"
     id="path231" />
  <path
     d="M 42.5213680267334 7.275 L 51.3338680267334 7.275 "
     style="fill:none;stroke:#ffffff;stroke-width:1"
     id="path233" />
  <path
     d="M 42.5213680267334 10.725000000000001 L 51.3338680267334 10.725000000000001 "
     style="fill:none;stroke:#ffffff;stroke-width:1"
     id="path235" />
  <path
     d="M 42.5213680267334 7.275 L 42.5213680267334 10.725000000000001 "
     style="fill:none;stroke:#ffffff;stroke-width:1"
     id="path237" />
  <path
     d="M 44.2838680267334 9.000000000000002 L 51.3338680267334 9.000000000000002 "
     style="fill:none;stroke:#ffffff;stroke-width:1"
     id="path239" />
  <path
     d="M 42.5213680267334 12.450000000000001 L 51.3338680267334 12.450000000000001 "
     style="fill:none;stroke:#ffffff;stroke-width:1"
     id="path241" />
  <path
     d="M 42.5213680267334 15.900000000000002 L 51.3338680267334 15.900000000000002 "
     style="fill:none;stroke:#ffffff;stroke-width:1"
     id="path243" />
  <path
     d="M 42.5213680267334 12.450000000000001 L 42.5213680267334 15.900000000000002 "
     style="fill:none;stroke:#ffffff;stroke-width:1"
     id="path245" />
  <path
     d="M 44.2838680267334 14.175 L 51.3338680267334 14.175 "
     style="fill:none;stroke:#ffffff;stroke-width:1"
     id="path247" />
</svg>
