<?xml version="1.0" encoding="UTF-8" standalone="no"?>
<svg
   width="125.87432861328125"
   height="18.0"
   version="1.1"
   id="svg36"
   sodipodi:docname="hekachasutaperanati.svg"
   inkscape:version="1.1.1 (3bf5ae0d25, 2021-09-20)"
   xmlns:inkscape="http://www.inkscape.org/namespaces/inkscape"
   xmlns:sodipodi="http://sodipodi.sourceforge.net/DTD/sodipodi-0.dtd"
   xmlns="http://www.w3.org/2000/svg"
   xmlns:svg="http://www.w3.org/2000/svg">
  <defs
     id="defs40" />
  <sodipodi:namedview
     id="namedview38"
     pagecolor="#ffffff"
     bordercolor="#666666"
     borderopacity="1.0"
     inkscape:pageshadow="2"
     inkscape:pageopacity="0.0"
     inkscape:pagecheckerboard="0"
     showgrid="false"
     inkscape:zoom="10.923594"
     inkscape:cx="62.937164"
     inkscape:cy="9.0171792"
     inkscape:window-width="1920"
     inkscape:window-height="1001"
     inkscape:window-x="-9"
     inkscape:window-y="-9"
     inkscape:window-maximized="1"
     inkscape:current-layer="svg36" />
  <path
     d="M 9.619241759901131 8.704017150225534 C 9.956114020057063 8.704017150225534 10.371109904274771 8.76399089929749 10.864229412554256 8.883939352346172 C 11.905261819800385 9.137163864337834 12.8056128816014 9.495897714329981 13.565284507766846 9.960140902322616 C 14.32495613393229 10.42438504522002 15.176070395910864 11.008207138114807 16.1186263387978 11.711606226102205 C 15.211383729261659 12.170969850713034 14.168207560803758 12.400651185566062 12.989095923614554 12.400651185566062 C 12.723796640788658 12.400651185566062 12.45161535927535 12.38902331016484 12.172553033979401 12.365768514267165 C 10.653210736553286 12.239155780818948 9.3484030744964 11.792497164191472 8.258132912523058 11.025791709479964 C 7.167863705454489 10.259086254768457 6.897054622097669 9.78780828332499 7.445706139904986 9.61195779514956 C 7.994358612617073 9.436108261878905 8.441018184149321 9.207503104703234 8.78568342214457 8.92614327852732 C 8.967086681565636 8.778059511294387 9.244939142516232 8.704017150225534 9.619241759901131 8.704017150225534 ZM 16.87829701005847 11.880422885731571 L 17.743478929129175 12.070340076094354 C 17.743478929129175 12.295428318996994 17.539492171864723 12.478311680813713 17.131522476954906 12.618992071354056 C 16.899402315315747 12.634818663035082 16.657389340244983 12.642731958875595 16.405485461552153 12.642731958875595 C 15.985642480714866 12.642731958875595 15.538322115080815 12.620750051038186 15.063526274459544 12.576788145172907 C 15.977946903162229 12.464244023721587 16.582870481695206 12.232122907177656 16.87829701005847 11.880422885731571 ZM 18.207723072026578 12.196952809542571 L 18.73527358164809 12.302462147543055 C 18.791544210016596 12.471278807172421 18.594593191107748 12.640094511897015 18.144416705302472 12.808910216621609 L 17.532460253128203 12.76670629044046 C 17.968567172031815 12.569755271531616 18.193655414934454 12.379837126264063 18.207723072026578 12.196952809542571 ZM 19.009598624373172 12.407972440448313 L 19.36833342927009 12.49238029281061 C 19.283925576907794 12.731536192805375 19.030702019820904 12.851114142802757 18.608660848199875 12.851114142802757 C 18.847816748194642 12.696366095170289 18.98146331018892 12.548652830988656 19.009598624373172 12.407972440448313 ZM 19.600455500718795 12.618992071354056 C 19.938086910167982 12.71746853571325 20.163175153070622 12.87925041189178 20.27571831961717 13.10433865479442 L 19.326128548184172 12.893318068983906 C 19.509013819810434 12.808910216621609 19.600455500718795 12.71746853571325 19.600455500718795 12.618992071354056 ZM 17.405847519679988 13.864010280959864 C 18.46094662911347 13.99062205950331 19.255788352914 14.28604954277135 19.790372691081576 14.750293685668755 L 17.173725448231284 14.138336278589716 C 17.20186267222508 13.983587276052475 17.279236696041313 13.892145595144116 17.405847519679988 13.864010280959864 ZM 5.187792747046841 0.40093762696942586 C 5.848988863757863 0.40093762696942586 6.3484031042903535 0.5838216154424017 6.686035468644312 0.9495895923883535 C 7.0236668780935005 1.3153575693343054 7.129177170998758 2.198124417859453 7.0025653924553115 3.5978901976453446 C 6.875952659007095 4.997655977431236 6.8337487328259465 5.947245271411848 6.875953136459481 6.446659034491953 C 6.918156585188243 6.946073275024443 7.048285755457107 7.315357867835686 7.266340169813683 7.554513290378066 C 7.4843936292654885 7.793669667825216 7.748168406623859 8.029308176094565 8.05766402443641 8.261430247543267 C 8.367160119701346 8.49355231899197 8.212412072068878 8.70105503562468 7.5934203589913905 8.883939352346172 C 6.974429123366289 9.06682271416289 6.629762930466267 9.33763179751971 6.559423212648482 9.69636660241663 C 6.48908301737831 10.055099497504006 6.577008261466024 10.385698033311902 6.823197990006852 10.688160300030777 C 7.069388196000066 10.99062256674965 7.656726725715499 11.398594171469009 8.585214534057924 11.912075114188854 C 9.513701864947961 12.42555701181347 10.333162943564483 12.752637678443564 11.043595860097945 12.893318068983906 C 11.754030686440949 13.033998459524248 13.931053141209826 13.10433865479442 17.57466322440458 13.10433865479442 C 18.700104438917776 13.315358285700162 19.445707453086325 13.596718111876076 19.811474176719763 13.94841813332216 L 17.405847519679988 13.399766138062459 C 17.18076118658689 13.47010633333263 17.00490974350669 13.60375194042214 16.87829701005847 13.800703914235756 C 16.87829701005847 14.166472547678739 16.083455286257944 14.37749217858448 14.493772793561655 14.433763761857755 C 14.254616893566888 14.433763761857755 14.092834062483586 14.103166180954629 14.008427165026061 13.441970064243609 L 13.755202653034399 13.652989695149351 C 13.881814431577844 14.187574033316928 13.91698452921293 14.658852004760394 13.860712945939655 15.066823609479753 C 13.663760972126038 14.588511809490223 13.319094779226017 14.271981885679224 12.826715322144361 14.117233838046756 C 12.038906471985122 13.976553447506413 11.335507383997724 13.846424754689936 10.71651519346785 13.726846804692553 C 10.097523002937978 13.607269809599941 9.471497938766813 13.350529338240019 8.838438091144814 12.956624435708015 C 8.275718438792987 12.520516561899633 7.371849507814169 12.049238590456165 6.126831775660745 11.542790521377611 C 4.881814043507322 11.03634340720383 4.259305416156803 10.283705609584448 4.259305416156803 9.284877128519467 C 4.259305416156803 8.286049602359258 4.593420388785345 7.459554695196674 5.261649856590044 6.805393361936487 C 5.929879801847128 6.151231551223914 6.2639942970232845 5.366941047694864 6.2639942970232845 4.452521373896952 C 6.2639942970232845 4.002345365544058 6.207722713750011 3.5767882345547704 6.095179069751077 3.175850219655281 C 5.993352799453844 2.8130966980279646 5.689997219321334 2.6317199372143065 5.185112329353548 2.6317199372143065 C 5.131966626849421 2.6317199372143065 5.076588356989783 2.6337295343056977 5.0189770423222475 2.6377489672146734 L 3.2464102329044677 2.869871038663376 C 3.3026820549039346 2.6869874381204633 3.387089668540039 2.5181714946696765 3.4996335512651657 2.363423447037208 C 3.6403134643531225 1.9273154538657298 3.795061511985591 1.6740914193264531 3.9638776941625706 1.6037515821455712 C 3.9884963327999836 1.6899181303705768 4.083125485835245 1.733001523846176 4.247764437089777 1.733001523846176 C 4.271284696513898 1.733001523846176 4.296233016023633 1.732122295277918 4.32261082797614 1.7303637187783059 C 4.603971609056825 1.7162955842337946 4.765753485235356 1.5756155517827413 4.8079574114165045 1.308323860151339 C 4.7798216197798675 1.0410321685199366 4.6180397436013365 0.9003521360688832 4.32261082797614 0.8862840612059201 C 4.069387270889249 0.9003521360688832 3.9287073578012923 1.0410321685199366 3.9005710887122693 1.308323860151339 C 3.6754838007144013 1.5193437297832741 3.4996337899913588 1.765533697050295 3.373021295269335 2.046893523226209 C 3.3320964640294637 2.0673559388461444 3.2921017100369276 2.0775870272930157 3.2530370332917253 2.0775870272930157 C 3.1846734908983327 2.0775870272930157 3.119158190711805 2.046253737029377 3.0564913714583355 1.9835869177759076 C 3.225307553635315 1.6459552696005268 3.471497998354722 1.2977725205167625 3.7950622281641695 0.9390390286139039 C 4.118625980521232 0.5803047608509185 4.582869168513866 0.40093762696942586 5.187792747046841 0.40093762696942586 ZM 9.977946007845366 14.159437764227905 L 10.653208826743741 14.328253468952498 L 9.89353815548307 15.425557459471902 L 9.977946007845366 14.159437764227905 ZM 11.286269629270512 14.391559835676606 C 11.84898928162234 14.391559835676606 12.32378416733884 14.451348333222912 12.71065428642001 14.570927238125066 C 13.09752440550118 14.690504233217677 13.336679350591174 15.144197633295988 13.428121986404305 15.932005528550455 C 13.517959427296729 16.705992132143816 13.400721948894024 17.092986388845265 13.07640859629142 17.092986388845265 C 13.070618053757709 17.092986388845265 13.064760667889999 17.092862251224986 13.058837393593063 17.09261588579397 L 11.03304511727885 17.09261588579397 C 10.988356528882543 17.089306185856326 10.942987093384234 17.087650380982737 10.896935855879153 17.087650380982737 C 10.551564943257846 17.087650380982737 10.167861288398607 17.180747866764687 9.745823936396663 17.366940928519046 C 9.858368057847983 16.382182014355735 10.3718499554726 15.390387361836815 11.286269629270512 14.391559835676606 ZM 5.187792747046841 0.0 C 4.231169147067781 0.0 3.443361967991892 0.5345838607151904 2.8243702549144043 1.6037515821455712 C 2.613350385282469 1.9554513648654634 1.9873244855696295 2.3071511475853557 0.946292317049693 2.6588511690314407 C 0.22882448278191372 2.869871038663376 -0.08067132899566878 3.165298999383801 0.017804894772284054 3.545135051192716 L 0.03890708726380924 3.798358369553414 C 1.3753664816751086 3.6717465910099687 2.493771957832701 3.5099647148314377 3.3941234970861016 3.3130129797440135 L 5.040079482865207 3.0175852577497815 C 5.048381902400062 3.0173546482474904 5.056615568791377 3.017239343496345 5.064780004586766 3.017239343496345 C 5.5546451974053515 3.017239343496345 5.796118651280282 3.432360558965298 5.789199888759171 4.2626027511770115 C 5.782166060213108 5.106682229704753 5.4269491244939925 5.862836941597166 4.723549559054208 6.5310668868542505 C 4.020149993614424 7.199296832111335 3.661415904896083 8.166471652361876 3.6473477703515713 9.432591347605873 C 3.6473477703515713 10.459556097759878 4.136210551886389 11.19460836910933 5.11393659240841 11.637750071463774 C 6.09166167802566 12.08089177381822 7.037734535185626 12.555685704629948 7.952154686435924 13.062133773708501 C 8.866573405329065 13.568581842787054 9.387089131499744 13.962486745319058 9.513701864947961 14.243845616590201 C 9.44336166967779 15.735053554736838 9.26047830786107 16.698711938166735 8.96504986968826 17.134818857070343 C 8.472670412606604 17.134818857070343 7.614522322081965 17.064478661800173 6.390606553019116 16.92379827125983 C 6.01077121738878 16.980070809437876 5.75051335430344 17.10316567370829 5.609832486310712 17.293084773880615 C 5.469153528127526 17.48300387405294 5.497289319764163 17.69050468087611 5.69424129357778 17.91559292377875 C 5.7882960713930505 17.77973671214347 5.878469161312617 17.711806696516287 5.9647610407888685 17.711806696516287 C 5.99463093949035 17.711806696516287 6.024035799568166 17.719946304787623 6.052975621022314 17.73622552133029 C 6.165519265021248 17.799531888054396 6.446879091197162 17.831185071416453 6.897054144645284 17.831185071416453 L 8.96504986968826 17.831185071416453 C 9.066651737364214 17.811645809984256 9.162826881224358 17.801877134172933 9.253573391459145 17.801877134172933 C 9.489516991802953 17.801877134172933 9.68877028611562 17.867918348162302 9.851334229301921 18.000000776141047 C 10.048286203115538 17.98593311904892 10.21710095293536 17.929660580870873 10.357781343475702 17.831185071416453 C 10.978782653644581 17.849272877596132 11.498366392758383 17.8583158257812 11.916529696102794 17.8583158257812 C 12.474082358736627 17.8583158257812 12.85133372205558 17.842239049050068 13.048285695869197 17.810083585778262 C 13.39295188876922 17.753811047600216 13.705964898307187 17.704574247777778 13.987324724483102 17.662369366691856 L 14.704792424467398 17.89449143814056 C 14.713104870502352 17.89513122433739 14.721098378343662 17.895450162531034 14.728771038181785 17.895450162531034 C 14.889915037973028 17.895450162531034 14.91005779922074 17.754450833797048 14.789201231734465 17.47245026651953 C 14.170209041204592 17.134818857070343 14.02952865066425 16.28370459509177 14.367161015018208 14.919109390393348 L 14.367161015018208 14.919109390393348 C 14.486100133723532 14.921667580275903 14.601202445057407 14.922946197764796 14.712467949019834 14.922946197764796 C 15.825117259215483 14.922946197764796 16.55409538131412 14.795054846827687 16.899400405506203 14.539274054763013 C 18.306200491290543 14.792496656945131 19.452741281632388 15.03868734039073 20.33902468634128 15.277843240385495 L 20.486738905427682 15.024620638203377 C 20.1209702719847 14.616648078579246 19.84664522925962 14.356389738041521 19.6637618674429 14.243845616590201 L 19.6637618674429 14.243845616590201 L 20.59224824342817 14.433763761857755 C 20.74230770863311 14.490035345131028 20.8462548224276 14.518171614220051 20.90408958481164 14.518171614220051 C 21.01975910957972 14.518171614220051 20.95098304832509 14.405627492768732 20.697759491238198 14.180540204770864 C 20.641486953060152 14.025792157138396 20.23351534834079 13.723330845324293 19.473842767270575 13.273154359519014 L 19.473842767270575 13.273154359519014 L 20.761063948152763 13.526377916605906 C 20.901744338693106 12.62602685480489 19.924019253075855 11.985932223732057 17.827886781491472 11.606096888101721 C 16.73058279097207 11.352873331014829 15.738790048262691 10.86049196412363 14.852506643553802 10.12895660704721 C 13.684862457764227 9.101993766702748 11.91932947689251 8.349355969083367 9.55590579112911 7.871043214189065 C 8.303853752977238 7.786635839279153 7.607488493535902 7.4032831119233995 7.466808580447945 6.72098550957419 C 7.326128667359988 6.038687429772594 7.32964558163302 4.95193465952467 7.477359800719425 3.4607274375566117 C 7.625073542353445 1.969519857499264 7.417570825720734 0.9988280632941434 6.854850695916521 0.5486519952597018 C 6.43281095665265 0.1828839884729759 5.877125132846886 0.0 5.187792747046841 0.0 Z"
     style="fill:#ffffff;stroke:none"
     id="path2" />
  <path
     d="M 27.177865186478382 7.937876256002994 C 26.496671245133623 7.991654064440127 26.120222241250442 8.332250793733436 26.04851793344977 8.959665719745715 C 26.138148499234912 9.640860143848613 26.514597503118093 9.999383372505463 27.177865186478382 10.035235888474404 C 27.84113286983867 9.999383372505463 28.190692728124215 9.640860143848613 28.226544278576878 8.959665719745715 C 28.172766470139745 8.332250793733436 27.8232066118542 7.991654064440127 27.177865186478382 7.937876256002994 ZM 27.25853214051315 5.679180301671352 C 27.742538692303153 5.679180301671352 28.190693210882355 5.768811229525099 28.602994730734476 5.948073085232593 C 29.01529576782846 6.127334940940088 29.378299957533752 6.373819539952137 29.692007299850356 6.687527123647811 C 30.0057151249251 7.001234707343485 30.252199844626684 7.3597576946212655 30.43146145895511 7.763095602723013 C 30.610722590525395 8.16643375220383 30.700352914931468 8.592179844854769 30.700352914931468 9.040334122054901 C 30.700352914931468 9.506413933102294 30.610722590525395 9.941123154745469 30.43146145895511 10.344461786984425 C 30.252199844626684 10.747799936465242 30.0057151249251 11.101841721315509 29.692007299850356 11.406586176018948 C 29.378299957533752 11.711330630722387 29.01529576782846 11.948851980052666 28.602994730734476 12.119151189526065 C 28.190693210882355 12.289449433483185 27.742538692303153 12.374598314082675 27.25853214051315 12.374598314082675 C 26.774526312860356 12.374598314082675 26.32189131599085 12.289449433483185 25.900626908525563 12.119151189526065 C 25.479361776923067 11.948851980052666 25.116357104459635 11.711330630722387 24.8116130118248 11.406586176018948 C 24.506868074363222 11.101841721315509 24.264865160536825 10.747799936465242 24.085604149656074 10.344461786984425 C 23.906342354293347 9.941123154745469 23.8167114264396 9.506413933102294 23.8167114264396 9.040334122054901 C 23.8167114264396 8.592179844854769 23.906342354293347 8.16643375220383 24.085604149656074 7.763095602723013 C 24.264865160536825 7.3597576946212655 24.506868074363222 7.001234707343485 24.8116130118248 6.687527123647811 C 25.116357104459635 6.373819539952137 25.479361776923067 6.127334940940088 25.900626908525563 5.948073085232593 C 26.32189131599085 5.768811229525099 26.774526312860356 5.679180301671352 27.25853214051315 5.679180301671352 ZM 27.204754814834157 4.764946937561035 C 26.61319119789547 4.764946937561035 26.057480338304796 4.876985476688684 25.53762175330399 5.101062554943983 C 25.017763409682257 5.325139663371665 24.569609615240264 5.629884118075104 24.193160490667548 6.015295949226683 C 23.8167114264396 6.400708564860238 23.516448355197976 6.848862238612696 23.292371276942678 7.359757211863126 C 23.068294998255546 7.870652909250765 22.956256866455078 8.421882083655788 22.956256866455078 9.013444493699126 C 22.956256866455078 9.605007145121533 23.068294998255546 10.156236319526556 23.292371276942678 10.667132016914195 C 23.516448355197976 11.178027714301834 23.8167114264396 11.621700306316313 24.193160490667548 11.998149310199494 C 24.569609615240264 12.374598314082675 25.017763409682257 12.67486180773767 25.53762175330399 12.898938825648202 C 26.057480338304796 13.123014878042454 26.61319119789547 13.23505338699772 27.204754814834157 13.23505338699772 C 27.796317466256564 13.23505338699772 28.347546157903448 13.123014878042454 28.85844088977481 12.898938825648202 C 29.369336587162447 12.67486180773767 29.81749062298351 12.374598314082675 30.202903479996134 11.998149310199494 C 30.58831537149248 11.621700306316313 30.89305982619592 11.178027714301834 31.11713636134831 10.667132016914195 C 31.34121434477512 10.156236319526556 31.453252853730387 9.605007145121533 31.453252853730387 9.013444493699126 C 31.453252853730387 8.421882083655788 31.34121434477512 7.870652909250765 31.11713636134831 7.359757211863126 C 30.89305982619592 6.848862238612696 30.58831537149248 6.400708564860238 30.202903479996134 6.015295949226683 C 29.81749062298351 5.629884118075104 29.369336587162447 5.325139663371665 28.85844088977481 5.101062554943983 C 28.347546157903448 4.876985476688684 27.796317466256564 4.764946937561035 27.204754814834157 4.764946937561035 Z"
     style="fill:#ffffff;stroke:none"
     id="path4" />
  <path
     d="M 43.071611909519305 2.25 C 42.98217881104693 2.25 42.892742289883245 2.253970136522819 42.80369207647865 2.2616940936950685 C 42.78963166058072 2.261314854150061 42.77559588806021 2.2611265098648654 42.761587497070174 2.2611265098648654 C 41.75633473102789 2.2611265098648654 40.89064723732412 3.2310118757226345 40.96409330122186 4.227486864678362 C 40.909772494776455 5.010703370562885 41.072806990287155 5.7853252703907465 41.11592377360545 6.564726844542106 C 41.184713907731734 6.696246724428149 41.30946347602889 6.751571563107875 41.441835377871485 6.751571563107875 C 41.61783153406381 6.751571563107875 41.80730191322253 6.653772037999446 41.89664031723535 6.50722197967788 C 42.133030432025954 6.176301580427631 42.028705431846944 5.749019186418789 41.932303049330905 5.3887868587970935 C 41.826299219064765 4.745978962128442 41.78726507898486 4.030068083582146 42.14088676356724 3.4528006182538893 C 42.36845283789375 3.1480696260937604 42.743180491389055 2.9958286589324934 43.11728316145132 2.9958286589324934 C 43.52468610797785 2.9958286589324934 43.93134792774625 3.1763791052256156 44.14639972992887 3.5371584359633665 C 44.49114392301789 4.042562504116439 44.39855989492632 4.77819150729467 43.95604675277124 5.195713526586957 C 43.52939390578386 5.700777493313611 42.889185429074786 6.0338350210172855 42.61554342661381 6.659532199293302 C 42.441297862936395 7.2902214869334045 42.58751922880257 7.947675764252113 42.528960745463685 8.58979227727632 C 42.472977837334916 10.931873768086549 42.44366134537506 13.274474138899242 42.39933646611435 15.616783352771236 C 42.52019352167533 15.718249264810014 42.66253275696897 15.736942635663993 42.80999165392282 15.736942635663993 C 42.89603103987248 15.736942635663993 42.98381348841617 15.730578255264366 43.07008858370732 15.730578255264366 C 43.14017092641494 15.730578255264366 43.209258863207545 15.734778582038938 43.27560978784994 15.74999997482893 C 43.59437164667303 15.586587913683193 43.5689449292963 15.177060616750788 43.54530234680931 14.873842111880167 C 43.432536077144285 12.417005083216047 43.514703486505624 9.956825682398843 43.45320570996016 7.498899781539577 C 43.45985097922656 7.218658031606611 43.3690008865522 6.897188823957991 43.664818620094785 6.736883653803267 C 44.25405980051951 6.164884394938033 44.88183751875264 5.595112167217945 45.244189633191795 4.8434820821694995 C 45.61287053204096 3.752547829598784 44.78771761498095 2.4460932511888633 43.64522576596477 2.3073502733067626 C 43.45663296485771 2.268397472059699 43.26413099391678 2.25 43.071611909519305 2.25 Z"
     style="fill:#ffffff;stroke:none"
     id="path6" />
  <path
     d="M 51.862562595870884 6.338211088685573 Q 52.03310414993018 6.338211088685573 52.21610810535401 6.415755095403777 Q 52.62603819653664 6.589454747606653 52.62603819653664 9.174095963084682 L 52.62603819653664 11.647570530806917 L 47.984800420003744 11.647570530806917 Q 49.777374201261274 9.18799288025997 50.44437825158499 7.930411125807432 Q 51.11138212087441 6.672830367043557 51.458780067522895 6.457443629259438 Q 51.651090272286424 6.338211088685573 51.862562595870884 6.338211088685573 ZM 51.66543398211958 5.810488700866699 Q 51.62850986377106 5.810488700866699 51.59079172897302 5.811282782287024 Q 50.930736318271244 5.82517896825345 50.10392803938694 7.423209855769877 Q 49.27712138981136 9.02124073621465 46.831438302993774 12.189510835165251 L 53.167978500894975 12.189510835165251 L 53.154082307856896 8.632155296657743 Q 53.08460279094092 6.255952360376189 52.66772605151367 6.026669474812567 Q 52.274670167640565 5.810488700866699 51.66543398211958 5.810488700866699 Z"
     style="fill:#ffffff;stroke:none"
     id="path8" />
  <path
     d="M 62.00201169675532 2.7409667926934826 C 62.23825928873521 2.792325681129176 62.38719910571692 2.858737752828409 62.44882969942603 3.2439280583388435 C 62.51045956899793 3.629119450055091 62.61574405020613 4.286511846171271 62.76468531546226 5.21610506565308 C 62.91362585658118 6.145699552375005 63.75847891057313 6.6310398442141985 65.29924520157533 6.672126303239265 C 66.84000642361707 6.6310398442141985 67.68228951465477 6.143131399763773 67.82609302641401 5.208400245750779 C 67.96990088299651 4.273671626218016 68.08546014706127 3.616279411136139 68.17277081860829 3.2362241436080534 C 68.25641590760404 2.872114830004884 68.35859166777459 2.756829832907984 68.74638017759042 2.756829832907984 C 68.76336264341268 2.756829832907984 68.78089110869041 2.7570509663081406 68.79899164236315 2.757481918464565 L 68.79899164236315 7.56023533133404 L 55.20503193218179 7.56023533133404 L 55.20503193218179 2.757481918464565 C 55.22313174171732 2.7570509663081406 55.24066138371802 2.756829832907984 55.25764335169594 2.756829832907984 C 55.645429824875876 2.756829832907984 55.74760694280369 2.872114830004884 55.83125320852241 3.2362241436080534 C 55.91856415162088 3.616279411136139 56.03412187689406 4.273671626218016 56.17792665589343 5.208400245750779 C 56.321731344375635 6.143131399763773 57.164014435413335 6.6310398442141985 58.70477565745507 6.672126303239265 C 60.245540500182855 6.6310398442141985 61.090392467969 6.145699552375005 61.23933083667629 5.21610506565308 C 61.38827499848125 4.286511846171271 61.49356165210108 3.629119450055091 61.55519007339856 3.2439280583388435 C 61.616820667107675 2.858737752828409 61.72779541850312 2.792325681129176 61.964045907031846 2.7409667926934826 ZM 69.15124239451683 2.25 C 68.33250679723693 2.25 67.74592669256964 2.2750695849122575 67.68193323914801 3.0051105034046994 C 67.63732638708206 3.5139919528011188 67.48163543890212 4.186362402945418 67.34296461167929 5.038918104428047 C 67.20429812927972 5.891472357636259 66.62429970770378 6.165887049483684 65.29924520157533 6.165887049483684 C 65.27535519091774 6.166072066540549 65.25170776622511 6.166165842309097 65.22830003094862 6.166165842309097 C 63.95341664719902 6.166165842309097 63.39168531085386 5.8888480843913396 63.255517101824864 5.046621113987326 C 63.116849171150875 4.188930193488046 62.944742756583224 3.5081984930616112 62.908844378591056 3.0128137845154317 C 62.87948423545771 2.6076499644415367 62.4508456974155 2.265544284066875 62.03997748647879 2.265544284066875 L 61.8881143275849 2.265544284066875 C 61.47724394423656 2.265544284066875 61.11984964548833 2.6230769835391516 61.09517322182191 3.0128137845154317 C 61.06521638962846 3.4859412307756994 60.887171325810925 4.188930193488046 60.748504119274145 5.046621113987326 C 60.61233518610794 5.8888480843913396 60.050604211831384 6.166165842309097 58.77572046601318 6.166165842309097 C 58.752313092805295 6.166165842309097 58.72866566811267 6.166072066540549 58.70477565745507 6.165887049483684 C 57.379720608223714 6.165887049483684 56.79972091940766 5.891472357636259 56.66105172149356 5.038918104428047 C 56.52238379081957 4.186362402945418 56.385727875380404 3.51184814459428 56.314381170671375 3.0051105034046994 C 56.20909632739457 2.257326593986397 55.571892695627184 2.2501363188295684 54.667978286743164 2.2501363188295684 L 54.667978286743164 8.066473136815203 L 69.33604510676747 8.066473136815203 L 69.33604510676747 2.2501363188295684 C 69.27325951421022 2.2501363188295684 69.2116195067174 2.25 69.15124239451683 2.25 Z"
     style="fill:#ffffff;stroke:none"
     id="path10" />
  <path
     d="M 55.168195962905884 10.252575159072876 L 55.168195962905884 15.750000366225152 L 56.08696459835531 15.750000366225152 L 56.08696459835531 10.252575159072876 ZM 61.48567904188144 10.260168287882362 L 61.48567904188144 15.750000366225152 L 62.404447677330865 15.750000366225152 L 62.404447677330865 10.260168287882362 ZM 67.91706021416462 10.260168287882362 L 67.91706021416462 15.750000366225152 L 68.83582812547684 15.750000366225152 L 68.83582812547684 10.260168287882362 Z"
     style="fill:#ffffff;stroke:none"
     id="path12" />
  <path
     d="M 72.74603132097064 4.814246074699206 Q 73.22871285920357 5.025419202916469 73.63597511614992 5.794692613537521 Q 74.04323826828913 6.5639669193514205 73.96781862892541 7.589665277615675 L 73.96781862892541 8.570112353569698 L 71.53932729634975 8.570112353569698 L 71.53932729634975 7.589665277615675 Q 71.47899210407064 6.5639669193514205 71.886254361017 5.794692613537521 Q 72.29351733411762 5.025419202916469 72.74603132097064 4.814246074699206 ZM 73.96781862892541 9.128212815012056 L 73.96781862892541 9.806983840051217 L 71.53932729634975 9.806983840051217 L 71.53932729634975 9.128212815012056 ZM 73.96781862892541 10.365084301493575 L 74.10357319201039 15.206984041388154 L 71.4035734941787 15.206984041388154 L 71.53932729634975 10.365084301493575 ZM 71.23765129019453 2.25 Q 70.70971867106977 2.3254193764008106 70.8756401029501 2.7628492238917697 Q 71.08681330949675 3.019273410621052 72.0370931026287 3.879050460093983 Q 72.26334969321843 4.150558870109647 72.23318214183851 4.542737664683543 Q 71.69016532180719 4.949999921629899 71.44882450793108 5.432681638901395 Q 71.2074837164348 5.915363893288601 71.04156227336455 6.744972406669484 L 70.90580770468462 15.75000086141948 L 74.61642272921965 15.75000086141948 L 74.48066816613469 6.744972406669484 Q 74.29966232073949 5.915363893288601 74.06586408848281 5.432681638901395 Q 73.8320649610333 4.949999921629899 73.28904814100197 4.542737664683543 Q 73.24379632157603 4.150558870109647 73.4700538073586 3.879050460093983 Q 74.42033360049057 3.019273410621052 74.63150601255354 2.7628492238917697 Q 74.8125114998716 2.3254193764008106 74.26949467984028 2.25 Q 73.90748442135843 2.400838003077611 73.45497034498614 3.019273410621052 Q 73.03262390951305 3.879050460093983 72.76111549949738 4.029888485551415 Q 72.47452291095497 3.879050460093983 72.06725993785435 3.019273410621052 Q 71.67508114328045 2.400838003077611 71.23765129019453 2.25 Z"
     style="fill:#ffffff;stroke:none"
     id="path14" />
  <path
     d="M 82.79353344522423 7.897203408475988 Q 85.12426608633541 7.897203408475988 87.73656282595712 9.023463423204149 Q 85.12426608633541 10.118438176029201 82.79353344522423 10.118438176029201 Q 80.4784439781675 10.118438176029201 77.85050460759425 9.023463423204149 Q 80.4784439781675 7.897203408475988 82.79353344522423 7.897203408475988 ZM 82.79353344522423 7.177648901939392 Q 79.91531397080342 7.177648901939392 76.17675721645355 9.007820792252595 Q 79.91531397080342 10.822350956785755 82.79353344522423 10.822350956785755 Q 85.67175291964503 10.822350956785755 89.4103096739949 9.007820792252595 Q 85.68739573163089 7.177648901939392 82.79353344522423 7.177648901939392 Z"
     style="fill:#ffffff;stroke:none"
     id="path16" />
  <path
     d="M 106.2472328008863 2.676162254742932 Q 106.57869241617959 2.676162254742932 106.57869241617959 3.023405741075482 L 106.57869241617959 5.690867121246976 L 105.5685300345667 5.690867121246976 L 105.89998964986 2.8813518657275767 Q 105.91577318559301 2.676162254742932 106.2472328008863 2.676162254742932 ZM 106.26301633661932 2.25 Q 105.45804260198562 2.25 105.41069199478657 2.707729787255053 Q 105.07923237949329 5.690867121246976 104.70042081577596 5.706649986367493 L 97.37674153724512 5.974974788116224 L 96.61911975103547 5.943407381343946 Q 95.76679440328398 5.043731426393417 95.10387584330991 5.043731426393417 Q 94.8671187836397 5.027947723007278 94.61457785293024 5.0121638519680145 Q 93.27295585602407 5.264703944411861 93.00463122192846 5.264703944411861 Q 92.8152254400698 5.264703944411861 92.8152254400698 5.517244875121328 Q 92.8152254400698 5.864488361453878 93.35187470826101 5.864488361453878 Q 94.2734087745969 5.717577617008617 94.76550824868343 5.717577617008617 Q 94.85497868560373 5.717577617008617 94.93025359718426 5.722433857406757 Q 95.19857839893298 5.722433857406757 95.3721996391399 5.943407381343946 Q 95.06441566275237 6.3244732089704545 93.99449952815246 6.3244732089704545 Q 93.91219877709237 6.3244732089704545 93.82538832464205 6.322218274448774 Q 92.61003654161094 6.290650867676496 91.67879246736234 6.006542194888502 Q 91.2210626801073 6.006542194888502 91.2210626801073 6.543191463079715 Q 91.268413963158 7.032488782846889 94.64614525970251 7.048272653886153 L 96.14560529638881 6.890434949412265 L 104.70042081577596 6.843083000988227 L 107.09955714271904 6.874651413679251 L 107.09955714271904 3.023405741075482 Q 107.08377360698603 2.25 106.26301633661932 2.25 Z"
     style="fill:#ffffff;stroke:none"
     id="path18" />
  <path
     d="M 92.49521583906335 11.929245471954346 L 92.15559319123395 12.665094542251385 L 91.08012147310751 15.070754964376318 L 90.91031014919281 15.410377612205721 L 91.61785733217073 15.750000260035122 L 91.78766865608543 15.382075724886604 L 92.52351772638247 13.712264373058709 L 92.891442261531 14.363207781398398 L 93.2310649093604 15.042453077057202 L 93.5706875571898 14.363207781398398 L 93.96691397965743 13.655660598420475 L 94.33483851480595 14.363207781398398 L 94.67446116263535 15.042453077057202 L 95.01408381046475 14.363207781398398 L 95.38200834561327 13.655660598420475 L 95.7782347680809 14.363207781398398 L 96.11785741591031 15.042453077057202 L 96.45748006373972 14.363207781398398 L 96.82540459888824 13.683962485739592 L 97.19332913403676 14.363207781398398 L 97.56125366918528 15.042453077057202 L 97.90087631701468 14.363207781398398 L 98.2688008521632 13.655660598420475 L 98.63672538731171 14.363207781398398 L 99.00464992246023 15.042453077057202 L 99.34427257028963 14.363207781398398 L 99.71219710543815 13.655660598420475 L 100.08012164058667 14.363207781398398 L 100.4480461757352 15.042453077057202 L 100.7876688235646 14.363207781398398 L 101.15559335871312 13.655660598420475 L 101.52351789386164 14.363207781398398 L 101.86314054169104 15.042453077057202 L 102.23106507683956 14.363207781398398 L 102.59898961198807 13.655660598420475 L 102.96691414713659 14.363207781398398 L 103.306536794966 15.042453077057202 L 103.67446133011453 14.363207781398398 L 104.04238586526304 13.655660598420475 L 104.43861228773068 14.391509668717514 L 104.77823493556008 15.014151189738085 L 105.1461594707086 14.391509668717514 L 105.54238589317623 13.627358711101358 L 106.53295194934532 15.410377612205721 L 106.73106516057913 15.750000260035122 L 107.41031045623794 15.382075724886604 L 107.24049913232324 15.042453077057202 L 105.88200854100563 12.608490767613151 L 105.54238589317623 12.014151133911696 L 105.20276324534683 12.636792654932268 L 104.77823493556008 13.372641725229306 L 104.38200851309244 12.636792654932268 L 104.01408397794393 11.98584924659258 L 103.70276321743364 12.636792654932268 L 103.306536794966 13.344339837910189 L 102.93861225981748 12.636792654932268 L 102.59898961198807 11.957547359273462 L 102.25936696415867 12.636792654932268 L 101.89144242901016 13.344339837910189 L 101.49521600654252 12.636792654932268 L 101.15559335871312 11.957547359273462 L 100.81597071088372 12.636792654932268 L 100.41974428841608 13.344339837910189 L 100.05181975326755 12.636792654932268 L 99.71219710543815 11.957547359273462 L 99.37257445760875 12.636792654932268 L 99.00464992246023 13.344339837910189 L 98.6084234999926 12.636792654932268 L 98.2688008521632 11.957547359273462 L 97.9291782043338 12.636792654932268 L 97.56125366918528 13.316037950591072 L 97.19332913403676 12.636792654932268 L 96.82540459888824 11.957547359273462 L 96.48578195105884 12.636792654932268 L 96.11785741591031 13.344339837910189 L 95.74993288076179 12.636792654932268 L 95.38200834561327 11.957547359273462 L 95.04238569778387 12.636792654932268 L 94.67446116263535 13.344339837910189 L 94.30653662748684 12.636792654932268 L 93.96691397965743 11.957547359273462 L 93.59898944450892 12.636792654932268 L 93.2310649093604 13.344339837910189 L 92.86314037421188 12.636792654932268 L 92.49521583906335 11.929245471954346 Z"
     style="fill:#ffffff;stroke:none"
     id="path20" />
  <path
     d="M 111.55615567566815 4.8766974133516205 Q 111.75468527913937 4.8766974133516205 111.785228363919 5.1210404802415805 L 112.12120140130214 8.160068195329014 Q 112.3808173533712 10.252262788787709 112.42663153294423 12.161199947800007 Q 112.42663153294423 13.47454811736011 112.20519519776364 14.245758188188443 Q 111.98375814642878 15.016969691325334 111.51034149609512 15.016969691325334 Q 111.03692502480004 15.016969691325334 110.86130286919249 14.245758188188443 Q 110.68568089262351 13.47454811736011 110.7009519874169 12.161199947800007 Q 110.73149507219654 10.252262788787709 110.99111084522701 8.160068195329014 L 111.32708388261015 5.1210404802415805 Q 111.35762696738979 4.8766974133516205 111.55615567566815 4.8766974133516205 ZM 109.25016024966594 2.25 Q 108.60875799821338 2.570701136916189 109.17380294055363 2.921946074766293 Q 111.03692502480004 4.006221735114119 110.80785305270348 5.227941545528161 L 110.45660820437266 8.160068195329014 Q 110.21226433180914 10.252262788787709 110.10536398267683 12.161199947800007 Q 110.10536398267683 14.024321853007859 110.45660820437266 14.88716099913653 Q 110.80785305270348 15.75000086141948 111.55615567566815 15.75000086141948 Q 112.30445990997997 15.75000086141948 112.65570422119508 14.88716099913653 Q 113.00694817433305 14.024321853007859 113.00694817433305 12.161199947800007 Q 112.90004782520074 10.252262788787709 112.65570422119508 8.160068195329014 L 112.33500209956675 5.350112989453857 Q 111.84631453347828 2.8455880047400637 109.25016024966594 2.25 Z"
     style="fill:#ffffff;stroke:none"
     id="path22" />
  <path
     d="M 116.34491295115873 2.9892379897054955 C 116.62253105236174 2.9892379897054955 116.96238636208793 3.095985977015074 117.06147704881461 3.340333519869274 L 117.02499543372016 11.279334014803599 L 117.02499543372016 11.279334014803599 C 116.88418464239132 10.960512872387417 116.46588626897672 10.367342335933275 115.22344144610271 9.632436990092634 L 116.16670225591201 3.06154244747758 C 116.21095378684964 3.0145252182361735 116.20979361691867 2.9892379897054955 116.34491295115873 2.9892379897054955 ZM 117.02499543372016 11.279334014803599 L 117.02499543372016 11.279334014803599 C 117.02499543372016 11.279334014803599 117.02499561275873 11.279334014803599 117.02499561275873 11.279334014803599 L 117.02499543372016 11.279334014803599 L 117.02499543372016 11.279334014803599 ZM 116.21290548629676 2.25 C 116.00040013208316 2.25 115.8085960229594 2.280338063237631 115.6727986696563 2.317373030601139 L 114.50694811344147 10.098160711168036 C 115.12366687679983 10.520569989179059 116.81850291082775 11.67797341616124 116.75091799926942 12.683307927520042 L 116.76355561574267 15.75000086141948 L 117.62433223754964 15.73816856043225 L 117.61950499963628 3.119482909369111 C 117.36353964400122 2.427915471835376 116.7275239245736 2.25 116.21290548629676 2.25 Z"
     style="fill:#ffffff;stroke:none"
     id="path24" />
  <path
     d="M 40.9532527923584 0.375 C 31.328252851963043 0.375 31.328252851963043 17.625 40.9532527923584 17.625 "
     style="fill:none;stroke:#ffffff;stroke-width:1"
     id="path26" />
  <path
     d="M 40.9532527923584 0.375 L 117.62432479858398 0.375 "
     style="fill:none;stroke:#ffffff;stroke-width:1"
     id="path28" />
  <path
     d="M 40.9532527923584 17.625 L 117.62432479858398 17.625 "
     style="fill:none;stroke:#ffffff;stroke-width:1"
     id="path30" />
  <path
     d="M 125.31182479858398 0.375 L 125.31182479858398 17.625 "
     style="fill:none;stroke:#ffffff;stroke-width:1"
     id="path32" />
  <path
     d="M 117.62432479858398 0.375 C 127.24932670593262 0.375 127.24932670593262 17.625 117.62432479858398 17.625 "
     style="fill:none;stroke:#ffffff;stroke-width:1"
     id="path34" />
</svg>
