<?xml version="1.0" encoding="UTF-8" standalone="no"?>
<svg
   width="86.4947280883789"
   height="18.0"
   version="1.1"
   id="svg14"
   sodipodi:docname="hekenemmaatnebty.svg"
   inkscape:version="1.1.1 (3bf5ae0d25, 2021-09-20)"
   xmlns:inkscape="http://www.inkscape.org/namespaces/inkscape"
   xmlns:sodipodi="http://sodipodi.sourceforge.net/DTD/sodipodi-0.dtd"
   xmlns="http://www.w3.org/2000/svg"
   xmlns:svg="http://www.w3.org/2000/svg">
  <defs
     id="defs18" />
  <sodipodi:namedview
     id="namedview16"
     pagecolor="#ffffff"
     bordercolor="#666666"
     borderopacity="1.0"
     inkscape:pageshadow="2"
     inkscape:pageopacity="0.0"
     inkscape:pagecheckerboard="0"
     showgrid="false"
     inkscape:zoom="15.896923"
     inkscape:cx="43.247364"
     inkscape:cy="9.0269043"
     inkscape:window-width="1920"
     inkscape:window-height="1001"
     inkscape:window-x="-9"
     inkscape:window-y="-9"
     inkscape:window-maximized="1"
     inkscape:current-layer="svg14" />
  <path
     d="M 22.77966110174755 0.5684490592972326 Q 22.633638086057772 0.6049545148491455 22.633638086057772 0.696219735092747 Q 22.633638086057772 0.7874840005506465 22.72490223216746 0.8422427507825265 Q 22.76140750869705 0.864146310549385 22.796453872674018 0.864146310549385 Q 22.84902246385376 0.864146310549385 22.898304682647282 0.8148638530594374 Q 22.980442987017422 0.7327252503187663 22.92568411743733 0.6505866475780953 Q 22.870925247857237 0.5684490592972326 22.77966110174755 0.5684490592972326 ZM 2.5609985348740345 0.46936116044907683 Q 2.359843567091113 0.46936116044907683 2.1720992805818096 0.7509784853246271 Q 2.2816167810455696 0.9335079710261279 2.5189051363271635 0.988266721258008 Q 2.5554108902496084 0.9973931597386192 2.589888440644617 0.9973931597386192 Q 2.762277147405363 0.9973931597386192 2.8839638690337397 0.7692307655447858 Q 2.8839638690337397 0.5136903090653525 2.6284226367909236 0.47718380921657794 Q 2.5945244026205927 0.46936116044907683 2.5609985348740345 0.46936116044907683 ZM 1.241199810550572 0.7874840005506465 Q 1.186441060318692 0.9152547360202673 1.2777053257765913 1.0247722364840275 L 0.5110819274186749 1.0977842217217681 Q 0.4928296471985162 0.9335079710261279 1.241199810550572 0.7874840005506465 ZM 1.9876164226822657 1.222624719872005 Q 1.9876164226822657 1.222624719872005 1.9876164226822657 1.222624719872005 L 1.9876164226822657 1.222624719872005 L 1.9876164226822657 1.222624719872005 ZM 2.125909851373434 1.2203396789907357 Q 2.284224539494109 1.2203396789907357 2.382007723680506 1.2529337952403716 Q 2.418033220394854 1.2649421350142038 2.3813761329386445 1.2649421350142038 Q 2.314213403607673 1.2649421350142038 2.0030587685814902 1.2246304859354444 L 2.0030585298850645 1.2246304859354444 Q 2.068468511363622 1.2203396789907357 2.125909851373434 1.2203396789907357 ZM 5.49470864855246 2.472162196565138 Q 5.540779445637364 2.472162196565138 5.621903767591998 2.539765559497574 Q 7.100390859290249 3.7627121350422854 9.290743732922557 5.405476312873666 Q 11.481095651769165 7.048240490705046 11.754889044883926 7.723598609145255 Q 9.966101851362767 7.468058331688141 8.697522964066787 6.318122547899043 Q 7.428944554163657 5.168188196288498 6.488918406955382 4.082139033390444 Q 5.548891782354257 2.996088915706688 5.439374520586923 2.667536414315408 Q 5.416389009597399 2.472162196565138 5.49470864855246 2.472162196565138 ZM 5.554353633962448 1.6040624432514505 Q 5.819804109613288 1.6040624432514505 6.059973769447039 1.7001303549242361 Q 11.736636406619128 6.007822446076134 12.558018495534819 7.303781245555012 Q 13.324641714870417 8.709256829408373 13.561929831455585 9.457627410479173 Q 13.461538888820648 9.568057924770454 13.322497266183765 9.568057924770454 Q 13.208735504578268 9.568057924770454 13.069100960020451 9.49413364179447 L 12.320730378949651 7.979140318780923 Q 11.754889044883926 6.683181519302044 9.555411284297772 5.104303007576006 Q 7.355932568925916 3.5254240184571173 6.370273871269948 2.603650986906491 Q 5.791486120478193 2.0623774824348997 5.483335241270446 2.0623774824348997 Q 5.266714415990388 2.0623774824348997 5.183833288344107 2.3298573550953035 Q 5.042689704984308 2.7853667564934774 4.685065172449792 2.7853667564934774 Q 4.533956013325552 2.7853667564934774 4.344197606377917 2.704041929541427 Q 4.508475169903898 1.8461543253997177 5.0560624335262725 1.6818780747040774 Q 5.315446678219568 1.6040624432514505 5.554353633962448 1.6040624432514505 ZM 6.023468492917445 8.033898710968165 Q 6.899609451413228 9.439374772214377 6.735331887887247 10.863103471725385 Q 6.5710557565398195 10.863103471725385 6.42503274085004 11.100391588310554 Q 6.365295618619811 10.697168400220765 6.0611810959671955 10.697168400220765 Q 5.99359993180233 10.697168400220765 5.913950753757259 10.717080456035607 Q 6.2972618860322065 9.311604394789393 6.023468492917445 8.033898710968165 ZM 2.768605228341677 0.3457626296377467 Q 2.854758883981503 0.3457626296377467 2.920469384259759 0.35853969124988744 Q 3.2490218856510396 0.42242505898469784 3.3037807552311325 0.5958278973462152 Q 3.3423147126810133 0.7178524937648807 3.3808493862201705 0.7178524937648807 Q 3.3970742983503825 0.7178524937648807 3.4132992104805946 0.696219735092747 Q 3.4680568865785597 0.6232077498550063 3.4863100022362077 0.5319425296114048 Q 3.887874488865229 1.061277632361834 3.5410688718163006 2.101695796338959 Q 3.1942632547673724 3.14211288618217 4.654497708200826 3.3428945327556163 Q 6.0052153772597965 6.445893402716877 7.556713976802937 8.06127814575821 Q 9.10821353113178 9.676662888799545 8.852672776281816 11.100391588310554 Q 8.262843406239485 10.66180027346223 7.547702231954776 10.66180027346223 Q 7.399740523897122 10.66180027346223 7.2464148297657305 10.680575179506013 Q 7.301173699345823 9.384615902634284 6.6258155809056145 8.125163811863553 Q 5.950456507679704 6.865711243699971 5.38461565100683 6.235985198314606 Q 4.818774316941105 5.6062591529292405 3.860495770164459 4.739244036173004 Q 2.9022162686021113 3.872229635506046 2.911342826430935 2.9504568426518447 Q 2.920469384259759 2.0286838111012186 3.166884297370177 1.6636248396982167 Q 3.4132992104805946 1.298565868295215 3.404172413955345 1.0795309867159075 Q 3.4003959978075793 0.9888957460132952 3.368491117486562 0.9888957460132952 Q 3.323292755836844 0.9888957460132952 3.221642928253844 1.170795132825594 Q 3.0482402390775927 1.4810953539967158 2.2633636653879217 1.4993485890025766 Q 2.2171959575542664 1.5004222455244558 2.1705229293878365 1.5004222455244558 Q 1.4237308477788386 1.5004222455244558 0.5475883974303962 1.2255549571913888 L 0.5475883974303962 1.2255549571913888 L 1.6245109428255198 1.298565868295215 Q 2.1565852064067235 1.4089965019347084 2.4153431116795185 1.4089965019347084 Q 2.627053474094281 1.4089965019347084 2.6558013554916937 1.3350723383069363 Q 2.7196867829006104 1.170795132825594 2.5554106515531827 1.1434162947766116 Q 2.3911342815093297 1.116036382593714 2.2177315923330783 1.116036382593714 Q 2.0443286644604015 1.116036382593714 1.953064399002502 1.170795132825594 L 1.9876164226822657 1.222624719872005 L 1.9876164226822657 1.222624719872005 Q 1.8278830423566574 1.2018226844347024 1.6062577078196592 1.170795132825594 Q 1.3689705460201929 0.7874840005506465 1.5332466773676203 0.6232077498550063 Q 1.5697521925936397 0.5684490592972326 1.6610164580515392 0.5684490592972326 Q 1.6245109428255198 0.7509784853246271 1.7249017661122432 0.8422427507825265 Q 1.7620839857045425 0.8760447306192765 1.798014123196905 0.8760447306192765 Q 1.8590952256508866 0.8760447306192765 1.9165579289907808 0.7783573830477161 Q 2.0078231492343823 0.6232077498550063 1.7522816782951405 0.5501957646172655 Q 2.4239901283895215 0.3457626296377467 2.768605228341677 0.3457626296377467 ZM 23.01695017311842 0.38591957359573165 Q 23.509778089767853 0.38591957359573165 23.747067161138723 0.7509784853246271 Q 23.82007771419791 0.8057372355565071 24.659714350949802 0.9517601915721803 L 24.659714350949802 1.0065190014781666 L 23.747067161138723 1.0795309867159075 Q 22.96219130353833 1.0795309867159075 22.76140750869705 0.9608868090751106 Q 22.56062562342718 0.8422427507825265 22.56975337473813 0.6870931175898166 Q 22.578879216477677 0.5319425296114048 22.816166378277146 0.5319425296114048 Q 23.053455449648016 0.5319425296114048 23.144719595757703 0.614081132352076 Q 23.23598374186739 0.696219735092747 23.190352623598248 0.7874840005506465 Q 23.144719595757703 0.8787482063344395 23.01695017311842 0.9335079710261279 Q 23.036506093866425 0.9348116712280785 23.054711947631823 0.9348116712280785 Q 23.291393775296232 0.9348116712280785 23.299870362758433 0.7144720153129057 Q 23.30899620449798 0.47718380921657794 22.907432433958235 0.4406782939905586 Q 22.3963490146869 0.4406782939905586 22.524120346897586 0.8148638530594374 Q 22.645949092899134 1.171644176011082 23.64728059785314 1.171644176011082 Q 23.69612743436656 1.171644176011082 23.747067161138723 1.170795132825594 Q 24.312907540418745 1.1342897369477876 24.75097849705949 1.0430254714898881 L 24.714473220529893 0.9700134862521473 L 24.714473220529893 0.9700134862521473 Q 26.338983805310775 1.9739250608693384 26.238591907890136 3.2607569444747537 Q 26.138201920040903 4.547588947428382 24.97001397537986 5.396349993741268 Q 23.801826030718814 6.245110562661302 22.889178840907736 7.267275491632566 Q 21.465450141396726 9.001303815573634 21.35593240223654 9.986962513229603 Q 21.246414663076354 10.97262121088557 21.848762228457378 10.97262121088557 Q 22.451107884266992 10.97262121088557 23.318122046237526 10.251630064604818 Q 24.185138117779466 9.530638918324064 25.079531714540046 9.512386280059266 Q 27.470664563870823 9.567144194853658 27.196872125541763 11.720991791956372 Q 26.320730212260276 10.790091963880496 25.225554730229824 10.790091963880496 Q 24.677966034428895 10.790091963880496 23.728813568088224 11.264668197050833 Q 22.286831275526716 12.031291416386429 21.53846260402732 12.031291416386429 L 20.9178614455958 11.94002631549104 Q 19.786180687035753 11.100391588310554 20.151239181045902 9.457627410479173 Q 20.69882596727543 8.271186827553333 21.629726750137007 5.222947065868591 Q 22.26857959204762 3.488918503231098 22.898304682647282 2.594524429077667 Q 23.52803168281835 1.7001303549242361 24.239896987359558 1.6818780747040774 Q 24.623207164848804 1.6818780747040774 25.48109548507979 2.0469359719731646 Q 25.516527582480354 2.0565995967593533 25.54286630085524 2.0565995967593533 Q 25.665772045128623 2.0565995967593533 25.590613224239974 1.8461543253997177 Q 24.90056286341766 1.4183230873680976 23.98094382841071 1.4183230873680976 Q 23.68429382037619 1.4183230873680976 23.36375507407807 1.4628421189908551 Q 23.08996072617761 1.4628421189908551 22.697522797377413 1.3168191033010757 Q 22.305084868577215 1.170795132825594 22.305084868577215 0.6232077498550063 Q 22.633638086057772 0.38591957359573165 23.01695017311842 0.38591957359573165 ZM 5.183833288344107 3.0508475465903557 Q 6.607562465247967 4.876141210123237 7.794002570780957 6.05345547391668 Q 8.980443153706798 7.2307702151029725 10.029987517468108 7.641461259560818 Q 11.079530926443718 8.052151349232961 11.973924523204298 8.070405897069161 Q 12.083442262364484 8.21642795797324 14.146023803786107 12.68839689656184 L 14.018253426361124 12.743155766141934 L 9.10821353113178 9.603651380954656 Q 9.144719762447076 9.329857033054191 7.657105874223576 7.641461259560818 Q 6.169491508607224 5.953063576496041 5.037810272654327 3.178618401408189 L 5.183833288344107 3.0508475465903557 ZM 10.22164260621273 10.917862341305478 L 12.941329627809766 12.578879157401655 Q 13.032594728705156 12.83441991225162 12.284224147634355 12.92568501314701 Q 12.117919574063066 12.945966571028519 11.97865548635762 12.945966571028519 Q 11.491235475924217 12.945966571028519 11.33507072650798 12.69752369308709 Q 11.13428979602381 12.378097272131784 10.823990171593753 11.867014807646152 Q 10.51368863759229 11.35593329794622 10.22164260621273 10.917862341305478 ZM 19.51238633913529 10.132986483705084 Q 19.51238633913529 10.899609703040682 19.73142181745566 11.465450082320704 Q 20.297262196735684 12.469361418241471 21.246414663076354 12.487615011291968 Q 21.271391857040214 12.488095268500066 21.296634481429226 12.488095268500066 Q 22.230630679536628 12.488095268500066 23.52803168281835 11.830508576330855 Q 24.760560726364584 11.205802794166512 25.321529788993093 11.205802794166512 Q 25.367013870264127 11.205802794166512 25.408083022449198 11.20990932747074 Q 25.955671718250127 11.264668197050833 26.594524560160743 11.775749706750762 Q 27.233377402071355 12.286832171236394 27.26988267860095 12.670144258297045 Q 27.336545816313357 12.981237309645449 27.213848215323008 12.981237309645449 Q 27.134969549339438 12.981237309645449 26.97783664722139 12.85267350530212 Q 26.453025319126954 11.803050849113246 25.632165497990247 11.803050849113246 Q 25.625090535938558 11.803050849113246 25.617992659030023 11.80312914154081 Q 24.78748377358908 11.812255938066059 23.573664710658896 12.451108779976673 Q 22.359843738157306 13.089961621887287 20.744458995115973 13.089961621887287 Q 19.129074252074638 13.089961621887287 18.946545959855264 12.049544054651227 Q 18.764015758064488 11.009126487415164 19.51238633913529 10.132986483705084 ZM 5.9869617842092975 11.191656689205942 L 6.260756609502613 11.739244430221168 Q 6.516296886959727 11.483703675371203 6.65319453830281 11.438070647530658 Q 6.65701845503925 11.436796008618511 6.66032249096096 11.436796008618511 Q 6.775304946086441 11.436796008618511 6.260756609502613 12.980443882727103 L 5.494133390167016 13.21773199931227 Q 5.293350550111441 13.071708028836788 5.6127774484596 12.314211606026442 Q 5.932203392022056 11.556715183216093 5.9869617842092975 11.191656689205942 ZM 25.3841465449005 12.332304795079008 Q 25.989295451531138 12.332304795079008 26.338983805310775 12.83441991225162 Q 26.101694733939905 13.21773199931227 25.225554730229824 13.436768432418344 Q 24.550196611789616 13.436768432418344 23.85658490029891 12.870926143566917 Q 24.757383199548386 12.332304795079008 25.3841465449005 12.332304795079008 ZM 23.272490927968388 13.089961621887287 Q 23.54354504090416 13.354712239618575 23.860314293250852 13.52803162374233 L 21.3870259534073 13.52803162374233 Q 22.296396318689176 13.432913007753738 23.272490927968388 13.089961621887287 ZM 13.835724179356049 14.239895973497832 Q 11.793824251025065 17.175128731674494 7.949174820459982 17.25145239111956 L 7.949174820459982 17.25145239111956 Q 4.122734108017405 17.175128731674494 2.080834179686421 14.239895973497832 ZM 28.602347232002273 14.258150521334034 Q 26.56044825845699 17.19338041515359 22.715797395713356 17.26970598417006 L 22.715797395713356 17.26970598417006 Q 18.889337110163886 17.19338041515359 16.829205548853547 14.258150521334034 ZM 3.0828786708633857 0.008692117630364187 Q 2.971576914619046 0.008692117630364187 2.8474573990220184 0.020860628300151455 Q 2.5554106515531827 0.020860628300151455 1.186441060318692 0.4406782939905586 Q 0.09126423562084626 0.696219735092747 0.0 1.0977842217217681 L 0.036505492848229494 1.7183835899300968 L 0.5840939126564156 1.5176008692227352 Q 1.4784879271357403 1.8096488101736983 2.080834179686421 1.8096488101736983 Q 2.6831812676745908 1.8096488101736983 2.5371572971991094 2.2203398546315434 Q 2.3911342815093297 2.6310308990893883 2.5736637672108307 3.5893094458660344 Q 2.7561932529123316 4.547588947428382 4.015645343683063 5.5241203711662505 Q 5.275098389239495 6.5006522722969695 5.576270739751453 8.079530784023007 Q 5.877444522441963 9.658410250534748 5.037810272654327 11.720991791956372 L 5.311603665769089 11.556715183216093 Q 5.3170254163777955 11.553462228329439 5.320836443507258 11.553462228329439 Q 5.38118176422965 11.553462228329439 5.037810272654327 12.368970475606535 Q 4.672751301251325 13.235984637577067 4.04302525586596 13.263364072367114 Q 3.93189679322653 13.268195288019145 3.833558162458005 13.268195288019145 Q 3.3746456661215403 13.268195288019145 3.1942632547673724 13.162973129732178 Q 2.989829552883843 13.04372039555458 2.5866402596864733 13.04372039555458 Q 2.5578429681289827 13.04372039555458 2.5280316941559873 13.044328594046743 Q 2.080834179686421 13.053455390571992 2.080834179686421 13.345502376737253 L 2.080834179686421 13.52803162374233 L 0.8031288539098296 13.52803162374233 Q 2.9022162686021113 17.981746969280433 7.958279656914086 18.000000562330932 Q 13.014342090440358 17.981746969280433 15.113428908391576 13.52803162374233 L 15.113428908391576 13.52803162374233 L 9.49152561819243 13.564537855057624 Q 9.49152561819243 13.400261246317346 9.144719762447076 13.208605202787021 Q 8.975349371986722 13.115006605635987 8.75591479324292 13.115006605635987 Q 8.526030084990925 13.115006605635987 8.241198414375544 13.21773199931227 Q 8.071091884138962 13.279081754593147 7.876274067756523 13.279081754593147 Q 7.433506997640579 13.279081754593147 6.863102742705081 12.962191244462305 Q 6.990873597522914 12.323337447765988 7.17340284452799 11.821382734591309 Q 7.355932568925916 11.319427066630926 7.867014556018697 11.228161965735536 Q 7.91433659976605 11.219711157487291 7.962910844961551 11.219711157487291 Q 8.438939307184603 11.219711157487291 9.03520202328689 12.031291416386429 Q 9.382007879032244 11.35593329794622 9.235984863342464 10.205997991549975 L 9.235984863342464 10.205997991549975 L 9.418514110347541 10.333768368974956 Q 10.787483940278456 12.633638026981748 11.070404129918469 13.035202752307194 Q 11.28503327222419 13.339837633167392 11.904089587389903 13.339837633167392 Q 12.10106378728027 13.339837633167392 12.338983017214447 13.308996145421958 Q 13.324641714870417 13.181225767996974 13.30638907660562 12.83441991225162 L 13.30638907660562 12.83441991225162 L 14.146023803786107 13.254238230627566 L 14.784876645696722 13.016950114042398 L 13.37940058445051 9.968709874964805 Q 13.726206440195863 9.968709874964805 14.018253426361124 9.676662888799545 Q 13.67144757061577 8.581486451983391 12.941329627809766 7.2307702151029725 Q 12.430248118109837 6.409388126187283 11.900913015359407 5.953063576496041 Q 10.4589307227979 4.602347339615624 8.907431645861907 3.3885266058104597 Q 7.355932568925916 2.174706826790998 6.6258155809056145 1.5176008692227352 Q 6.135176987870829 1.237236402210505 5.607156147639178 1.237236402210505 Q 5.310143798430758 1.237236402210505 5.0013035639461805 1.3259457804781123 Q 4.143416198500896 1.5723605742403173 3.9608864741029697 2.539765559497574 Q 3.906127843219302 2.50326028296798 4.0521506202126565 1.8096488101736983 Q 4.198174590688137 1.116036382593714 3.988266386285867 0.5228169265682828 Q 3.8063448603801033 0.008692117630364187 3.0828786708633857 0.008692117630364187 ZM 23.079162099888187 0.0 Q 22.74837277429359 0.0 22.451107884266992 0.09387261726752386 Q 22.06779770677775 0.20339010281275738 21.994785244147156 0.5136903090653525 Q 21.848762228457378 0.8970014413403002 22.12255657635784 1.2711870302462323 Q 22.3963490146869 1.645371604692356 22.980442987017422 1.7366368249359574 Q 21.81225504235638 2.795307030436816 20.99087390822639 5.478487343325705 Q 20.22424973410509 8.033898710968165 19.713168224405162 9.2568455252093 Q 18.344198394474244 10.370274600290251 18.353324236213794 11.492829517110751 Q 18.362451987524743 12.615385388716952 18.91003877375427 13.089961621887287 Q 19.30575352708367 13.432913007753738 20.06368533217412 13.52803162374233 L 15.55149986503232 13.52803162374233 Q 17.650586682983537 17.981746969280433 22.706650548688362 18.000000562330932 Q 27.762712504821785 17.981746969280433 29.861799322773003 13.52803162374233 L 26.348111556621728 13.52803162374233 Q 26.5488934418916 13.418513884582143 26.75880116890102 13.272490868892364 Q 26.964314972109918 13.516538868247567 27.224062512762817 13.516538868247567 Q 27.333429395782087 13.516538868247567 27.452412880391726 13.473272754162236 Q 27.908735520511563 13.254238230627566 27.6349411726111 12.469361418241471 Q 27.890481927461064 10.22425062981477 27.032595516801482 9.603651380954656 Q 26.1747071965705 8.983051177308838 25.09778339801914 8.983051177308838 Q 24.112125655148873 8.983051177308838 22.96219130353833 9.831812701014574 Q 22.249229905011244 10.358045705019261 21.98532331784051 10.358045705019261 Q 21.823573072067678 10.358045705019261 21.83050863540688 10.160365918495131 Q 21.848762228457378 9.64015665748425 22.633638086057772 8.398957204978315 Q 23.162973188808202 7.522817201268234 24.933506789278862 6.144720097419217 Q 26.704042299320925 4.766623948355902 26.685788706270426 3.370274444938514 Q 26.667537022791333 1.9739250608693384 25.900912848670032 1.2711870302462323 Q 25.134290584120137 0.5684490592972326 24.20338980125856 0.47718380921657794 Q 24.05736678556878 0.2764020731319715 23.82007771419791 0.1486313525808773 Q 23.582790552398443 0.020860628300151455 23.190352623598248 0.0026073821053958263 Q 23.13429142632065 0.0 23.079162099888187 0.0 Z"
     style="fill:#ffffff;stroke:none"
     id="path2" />
  <path
     d="M 34.36999583647 0.6955501977484014 Q 35.29739633891502 0.6955501977484014 35.29739633891502 1.9180330635489997 Q 35.29739633891502 2.992974240263269 34.36999583647 4.046838860026191 Q 33.44259521463473 2.992974240263269 33.44259521463473 1.9180330635489997 Q 33.44259521463473 0.6955501977484014 34.36999583647 0.6955501977484014 ZM 34.36999583647 5.39578435076662 Q 35.02339214427911 5.39578435076662 35.02339214427911 6.807962735897713 Q 35.02339214427911 7.608898404683371 34.36999583647 8.283371627614567 Q 33.71660048378285 7.608898404683371 33.71660048378285 6.807962735897713 Q 33.71660048378285 5.39578435076662 34.36999583647 5.39578435076662 ZM 34.36999583647 9.653395704940513 Q 35.02339214427911 9.653395704940513 35.02339214427911 11.065573134949643 Q 35.02339214427911 11.866509758857264 34.36999583647 12.540984414471403 Q 33.71660048378285 11.866509758857264 33.71660048378285 11.065573134949643 Q 33.71660048378285 9.653395704940513 34.36999583647 9.653395704940513 ZM 34.36999583647 0.0 Q 32.68381313731275 0.0 32.68381313731275 1.9180330635489997 Q 32.66273622219066 3.119438118800675 33.242361655609045 3.8044492023416856 Q 33.82198625329572 4.489460524663187 33.75875443341726 4.721311127835424 Q 33.02104927121736 5.585479691011748 33.02104927121736 6.807962735897713 Q 33.02104927121736 7.819671853953035 33.88521795378393 8.978922004448336 Q 33.02104927121736 9.843090567624659 33.02104927121736 11.065573134949643 Q 33.02104927121736 12.077283208126927 33.88521795378393 13.215456204719654 Q 33.99060491719925 13.489460638136059 33.295054540365484 14.501170711313343 Q 32.59950434261708 15.512878874246702 31.861799240112305 17.999999271823782 L 32.78919986194757 17.999999271823782 Q 33.252899635609104 16.35597076108143 33.611213759148015 15.649882523637848 Q 33.969527763296675 14.9437933310723 34.36999583647 14.501170711313343 Q 34.79154177988736 14.9437933310723 35.13931696830424 15.649882523637848 Q 35.48709191794064 16.35597076108143 35.950791930382664 17.999999271823782 L 36.89926958673026 17.999999271823782 Q 36.20371920989649 15.512878874246702 35.47655310220886 14.501170711313343 Q 34.749386755740744 13.489460638136059 34.875850634278144 13.215456204719654 Q 35.718942282332385 12.077283208126927 35.718942282332385 11.065573134949643 Q 35.718942282332385 9.843090567624659 34.918005419644274 8.978922004448336 Q 35.718942282332385 7.819671853953035 35.718942282332385 6.807962735897713 Q 35.718942282332385 5.585479691011748 35.002314274035065 4.721311127835424 Q 34.93908233476636 4.489460524663187 35.508168833062726 3.8044492023416856 Q 36.07725533135908 3.119438118800675 36.07725533135908 1.9180330635489997 Q 36.07725533135908 0.0 34.36999583647 0.0 Z"
     style="fill:#ffffff;stroke:none"
     id="path4" />
  <path
     d="M 56.3305951740535 1.017463950815113 C 56.63941262302154 1.4551547847935646 56.71415374627374 1.996178075212403 56.74044237174121 2.5169514483288857 C 56.72881332514516 2.7631970999603634 56.74747469704579 3.029602001330219 56.645373083836915 3.2606540048778077 C 56.356911123992305 2.9735110717858326 56.382478135012235 2.310169785434225 56.376063094355544 1.9385867837874202 C 56.376063094355544 1.5725034530075703 56.36369504501202 1.2724931779594861 56.3305951740535 1.017463950815113 ZM 39.87247985464978 0.6047551357657328 L 54.89215551358863 0.6209709674818488 C 52.697945816416 2.7007321164662903 50.49758687117149 3.7172409528060895 47.18168651131785 3.7172409528060895 C 43.85191711922937 3.7172397107846655 41.83709816546983 2.7257600901880616 39.87247985464978 0.6047551357657328 ZM 39.19837534648098 0.0 C 39.08050640713627 0.0 38.97332025901824 0.0684279283523045 38.924012677999315 0.17551253151560703 C 38.87465593058744 0.282702706499978 38.892337845901395 0.4089815087549513 38.96916264081674 0.49855733589940543 C 41.15106638971705 3.0451111228558885 43.466850111989274 4.321042216117934 47.18168651131785 4.321042216117934 C 50.797603356326704 4.321042216117934 53.267416365537805 3.0953508894702333 55.64953024197663 0.7274867248328059 C 55.731620405996615 0.9543767145874485 55.7722618310437 1.3115497836691201 55.7722618310437 1.9385867837874202 C 55.78711143919305 2.6359383428015897 55.78176453696129 3.7917485760305136 56.696882196346934 3.872722162790024 C 57.340629352708234 3.7402146230920117 57.34006423296017 3.0522999428599387 57.34424363505305 2.5169514483288857 C 57.34424363505305 1.858621718424469 57.18315842440252 1.2617037378462892 56.91436511583367 0.8082479259287555 C 56.645571807264815 0.3547921140112216 56.247769733350296 0.017169704170005035 55.76590268135111 0.017169704170005035 L 39.198727944719394 0.0 C 39.19861039903554 0.0 39.19849287275826 0.0 39.19837534648098 0.0 Z"
     style="fill:#ffffff;stroke:none"
     id="path6" />
  <path
     d="M 40.67099967598915 13.728865623474121 L 40.29134322702885 14.551454596221447 L 39.08909780532122 17.240687776356936 L 38.899269580841064 17.62034422531724 L 39.69022051617503 18.000000674277544 L 39.880048740655184 17.58870618790388 L 40.70263771340251 15.722061980515718 L 41.11393219977617 16.44973684102297 L 41.49358864873648 17.209049738943577 L 41.87324509769678 16.44973684102297 L 42.3161776214838 15.658785905689001 L 42.727472107857466 16.44973684102297 L 43.10712855681777 17.209049738943577 L 43.486785005778074 16.44973684102297 L 43.89807949215174 15.658785905689001 L 44.34101201593876 16.44973684102297 L 44.72066846489906 17.209049738943577 L 45.10032491385937 16.44973684102297 L 45.51161940023303 15.69042394310236 L 45.92291388660669 16.44973684102297 L 46.334208372980356 17.209049738943577 L 46.71386482194066 16.44973684102297 L 47.12515930831432 15.658785905689001 L 47.536453794687986 16.44973684102297 L 47.94774828106165 17.209049738943577 L 48.327404730021954 16.44973684102297 L 48.73869921639562 15.658785905689001 L 49.14999370276928 16.44973684102297 L 49.56128818914294 17.209049738943577 L 49.94094463810325 16.44973684102297 L 50.35223912447691 15.658785905689001 L 50.76353361085057 16.44973684102297 L 51.14319005981088 17.209049738943577 L 51.55448454618454 16.44973684102297 L 51.9657790325582 15.658785905689001 L 52.377073518931866 16.44973684102297 L 52.75672996789217 17.209049738943577 L 53.16802445426583 16.44973684102297 L 53.579318940639496 15.658785905689001 L 54.02225146442652 16.481374878436327 L 54.40190791338682 17.177411701530218 L 54.813202399760485 16.481374878436327 L 55.256134923547506 15.627147868275642 L 56.36346623301506 17.62034422531724 L 56.58493249490857 18.000000674277544 L 57.34424539282918 17.58870618790388 L 57.15441716834903 17.209049738943577 L 55.63579137250781 14.48817852139473 L 55.256134923547506 13.823779735714197 L 54.8764784745872 14.519816558808088 L 54.40190791338682 15.342405531555414 L 53.9589753895998 14.519816558808088 L 53.54768090322614 13.792141698300838 L 53.19966249167919 14.519816558808088 L 52.75672996789217 15.310767494142056 L 52.34543548151851 14.519816558808088 L 51.9657790325582 13.76050366088748 L 51.5861225835979 14.519816558808088 L 51.174828097224236 15.310767494142056 L 50.731895573437214 14.519816558808088 L 50.35223912447691 13.76050366088748 L 49.972582675516605 14.519816558808088 L 49.529650151729584 15.310767494142056 L 49.11835566535592 14.519816558808088 L 48.73869921639562 13.76050366088748 L 48.35904276743531 14.519816558808088 L 47.94774828106165 15.310767494142056 L 47.50481575727463 14.519816558808088 L 47.12515930831432 13.76050366088748 L 46.74550285935402 14.519816558808088 L 46.334208372980356 15.279129456728697 L 45.92291388660669 14.519816558808088 L 45.51161940023303 13.76050366088748 L 45.131962951272726 14.519816558808088 L 44.72066846489906 15.310767494142056 L 44.3093739785254 14.519816558808088 L 43.89807949215174 13.76050366088748 L 43.51842304319143 14.519816558808088 L 43.10712855681777 15.310767494142056 L 42.69583407044411 14.519816558808088 L 42.3161776214838 13.76050366088748 L 41.90488313511014 14.519816558808088 L 41.49358864873648 15.310767494142056 L 41.082294162362814 14.519816558808088 L 40.67099967598915 13.728865623474121 Z"
     style="fill:#ffffff;stroke:none"
     id="path8" />
  <path
     d="M 63.03052475778486 3.071457536405092 C 62.760396581662555 3.2015192508343504 62.430239921957515 3.5616901523307583 62.93047728514697 3.621718635913493 C 63.17059121947791 3.6117138886497044 63.72085231898631 3.3615952070549766 63.62080484634842 3.1314860199878267 L 63.62080484634842 3.1314860199878267 C 63.56896200955958 3.180600206071823 63.516375106331466 3.19845993785879 63.463246869579834 3.19845993785879 C 63.321571978669695 3.19845993785879 63.17604821556695 3.071457536405092 63.03052475778486 3.071457536405092 ZM 61.059589699478735 3.161500261779194 C 60.729433039773696 3.241538239889507 60.55935233628928 3.601709141385915 60.97955172136842 3.681747119496228 C 60.98640586478044 3.682370278955621 60.993745162715214 3.6826731570466147 61.001515726076946 3.6826731570466147 C 61.24327793397061 3.6826731570466147 61.90255102590487 3.389428543398796 61.359732117392404 3.32157621799982 C 61.26968939201831 3.261547734417085 61.1796466666442 3.161500261779194 61.059589699478735 3.161500261779194 ZM 63.69083807719494 0.6503085459077985 C 64.2811181657585 1.3406361071092472 64.8013653287962 2.1410158882123764 64.90141280143408 3.0614527891413026 C 65.00146027407197 3.7217661085513845 65.03147451586334 4.382079427961466 65.13152198850123 5.032388000107758 C 64.66129886710314 4.9923690110526024 64.8013653287962 4.262022460795997 64.8914080541703 3.9118563065633776 C 64.97144603228061 3.221528745361929 64.60127038352041 2.5812249204794253 64.34114664934124 1.9709351847279615 C 64.16106119859303 1.6407785250229208 63.990980495108616 1.1205316673058867 63.530762120974316 1.1105269200420977 C 63.020520010521075 1.2005696454161998 62.69036335081603 1.6307737777591316 62.36020669111099 2.000949426519329 C 62.020045284142164 1.660788019550499 61.65987453530608 1.2906123707903017 61.189651413907995 1.1505459090972543 C 61.16512836411917 1.1415110892281868 61.13744158169035 1.1379710488793708 61.10837398659366 1.1379710488793708 C 61.00309285992677 1.1379710488793708 60.8796984326679 1.1844109313353293 60.82290512675873 1.1844109313353293 C 60.77383322758562 1.1844109313353293 60.774483865904074 1.1497400915552634 60.879504248730534 1.0204841946679957 C 60.943032775656114 0.7962658643424094 61.07495709874878 0.7297767193433968 61.23825998898525 0.7297767193433968 C 61.47626660014679 0.7297767193433968 61.780926695150576 0.8710115668577245 62.037638165675574 0.8710115668577245 C 62.07634916103938 0.8710115668577245 62.11396955101909 0.8677999752048625 62.15010699857142 0.8604082384473699 C 62.234531518549986 0.8652788662160954 62.31921922493423 0.8677782974382692 62.4039570039061 0.8677782974382692 C 62.84139601451938 0.8677782974382692 63.28015920081879 0.8011701537134857 63.69083807719494 0.6503085459077985 ZM 63.530762120974316 1.410669337955771 C 63.9209472642621 1.5107168105936621 64.0109899896362 2.0509731628382744 64.20108018764819 2.3711250752795263 C 64.44119412197912 2.9313910747120446 64.73133209794966 3.5416806578031803 64.54124189993767 4.171979735421894 C 64.39117038566017 4.472122153335568 64.58126088899283 4.852302549359554 64.56125139446524 5.072406989162914 C 64.2275753035557 5.3068813456523785 63.9345447196879 5.8014861533754525 63.49164382785508 5.8014861533754525 C 63.443196462084316 5.8014861533754525 63.392955337458126 5.7955678177748275 63.34067192296232 5.782743739571286 C 62.9004630433556 5.692701014197183 62.68035860355224 5.272501629118041 62.34019719658341 5.072406989162914 C 62.09390876262126 5.30989913501869 61.94815356646108 5.802591414151054 61.54258362062585 5.802591414151054 C 61.48685099867646 5.802591414151054 61.42621233176222 5.793287683114001 61.359732117392404 5.772738992307497 C 60.98955646863221 5.692701014197183 60.499323852706546 5.73272000325234 60.38927163280486 5.28250637638183 C 60.19918135846271 4.822288307568186 60.17917186393513 4.312046197114942 60.14915762214376 3.811808833925486 L 60.14915762214376 3.811808833925486 C 60.171188644736326 3.8160454633515224 60.191497353507025 3.818057526476167 60.21022946273904 3.818057526476167 C 60.412670491937405 3.818057526476167 60.4309853041625 3.583067483398308 60.4493001163876 3.3816047015825546 C 60.52699498745174 3.088754867543259 60.7367871457603 2.9529934271032454 60.96990740513933 2.9529934271032454 C 61.12703197923638 2.9529934271032454 61.294754233311636 3.014667589023133 61.43977009550272 3.1314860199878267 C 61.60985079898713 3.32157621799982 62.13009750404384 3.4716474269566566 62.020045284142164 3.7717898448703298 C 61.970021547823215 3.951875295618534 61.90999321690081 4.1419654936305275 61.849964733318075 4.332055691642521 L 62.27016396573689 4.892321538414711 C 62.31018295479205 4.602183867764826 62.74038708713498 4.3620699334338875 62.49026840554025 4.071932262784003 C 62.45024941648509 3.941870548354745 62.300178207528255 3.7717898448703298 62.32018770205583 3.671742372232439 C 62.50027315280404 3.351590459791187 62.74038708713498 3.071457536405092 63.020520010521075 2.831343602074153 C 63.096291743101695 2.7578004049634535 63.17305668377708 2.728935084801531 63.24992940264411 2.728935084801531 C 63.51816092684983 2.728935084801531 63.787709909687244 3.0803719836054353 64.02099473689998 3.1114765254602488 C 64.25110392396714 2.861357843865521 64.00098524237241 2.7613103712276295 63.77087605530526 2.631248656798371 C 63.62835817406323 2.496874746080657 63.456009548744234 2.435421025674577 63.28418271642676 2.435421025674577 C 63.03383107517132 2.435421025674577 62.784588053218705 2.565877672372687 62.630334867233294 2.791324613018997 C 62.4402202435688 2.905393326153561 62.30790801058237 3.285352364701771 62.141133624484425 3.285352364701771 C 62.088496343348034 3.285352364701771 62.032425731432184 3.2475020682679125 61.970021547823215 3.151495514515405 C 61.664684862245196 2.9072261660529914 61.298491663464716 2.632528560989344 60.897974774490315 2.632528560989344 C 60.83917123738043 2.632528560989344 60.77962775566014 2.6384496444758754 60.7194282925099 2.6512581513259494 C 60.436358566061564 2.7098244542859335 60.18185845671958 3.2826453917635154 60.16033564035933 3.2826453917635154 C 60.15979827600434 3.2826453917635154 60.1594060916214 3.2822884719163667 60.159162369407554 3.2815572289446635 C 60.14915762214376 2.8113341075465748 60.369262138277286 2.3911345698071043 60.499323852706546 1.9309161956728051 C 60.57191238845533 1.6284641796549773 60.83102589291316 1.4540193753705448 61.095338015854686 1.4540193753705448 C 61.26818202393843 1.4540193753705448 61.443249224380615 1.528618371310535 61.569831809931976 1.6908022613418663 C 61.86766691964642 1.801426804813675 62.08588554641649 2.324608709999178 62.36608014457515 2.324608709999178 C 62.41531157379114 2.324608709999178 62.466456447559814 2.3084569419632377 62.52028264733162 2.271077602641635 C 62.83042981250908 1.9409209429365941 63.08054849410381 1.5507357996488187 63.530762120974316 1.410669337955771 ZM 62.11008800951626 8.3539643970064 C 63.38069091201748 9.664586288562775 64.55124664720147 12.98616238014076 64.85138906511514 14.34680800801608 C 64.36115614386881 13.946618117464514 63.69083807719494 13.686494688605997 63.54076686823811 13.436376007011269 C 63.38069091201748 13.176252578152754 62.940482032410756 10.645051520414107 62.11008800951626 8.3539643970064 ZM 66.6322340780696 5.972833937583278 C 69.03337342137898 7.353489670627489 73.21535716700153 14.146713062740298 74.10577967347875 15.23723051449331 C 72.60506758391038 14.286779524433344 71.1243649888696 13.32632378710959 69.51360067939954 12.545953500534038 C 67.25252840842452 11.435426554253446 65.32161218651322 9.634572046771407 63.48073838465537 7.9537745064548355 C 65.00146027407197 7.443532396001591 66.09197772582499 6.583123520674414 66.6322340780696 5.972833937583278 ZM 64.14105170406545 14.596926689610807 C 64.46120361650671 14.7870168876228 64.75134159247725 15.047140316481316 65.10150774670987 15.187206778174364 C 64.8914080541703 15.707453635891397 64.76134633974104 16.28772897719117 64.33114190207745 16.697923615006523 C 64.25034550745703 16.82789983965203 64.13501276680562 16.869068055657287 64.00333315821892 16.869068055657287 C 63.77574958362022 16.869068055657287 63.49933699243045 16.746095886866005 63.26800224824914 16.746095886866005 C 63.25197963085079 16.746095886866005 63.23617379111837 16.74668576637387 63.220614955796854 16.747947351325465 C 63.50074787918295 16.04761504286023 63.9209472642621 15.737467877682766 64.14105170406545 14.596926689610807 ZM 64.82137482332377 5.2324826400628845 C 64.88191868817424 5.357894931538866 64.95928633182506 5.399188939654495 65.04135713486463 5.399188939654495 C 65.14915486704061 5.399188939654495 65.26506802225954 5.327947860291872 65.36163117556838 5.28250637638183 C 65.60174510989933 5.452587079866245 66.43213913279382 5.432577585338667 65.94190651686814 5.792748486835075 C 65.63175935169069 6.212947871914217 63.974186027091285 7.358829118263877 62.822876790114925 7.560939179870867 C 62.32578148179887 7.648202876631839 63.16058647221412 8.434002375116712 63.430714648336426 8.714135298502807 C 64.99145552680818 10.114799915433284 66.52218185816793 11.595502510474073 68.39306959649647 12.605981984116774 C 69.5636244157185 13.266295303526855 70.79420832916456 13.856575392090413 71.92474476997273 14.586921942347018 C 72.46500112221734 15.367292228922569 73.10530494709984 16.087634031915382 73.51549958491519 16.94804229660125 C 73.10530494709984 17.068099263766715 72.70511505654828 17.238179967251135 72.28491567146914 17.33822743988902 C 72.06322600681855 17.394317287006217 71.82299605063825 17.42045884159379 71.58231177732145 17.42045884159379 C 70.921452544578 17.42045884159379 70.25716517150624 17.223375579271195 69.96381430627007 16.90802330754609 C 69.42355795402545 16.33775271351011 68.8332784761032 13.90659912840936 68.52313131092575 13.016176621932127 C 68.47891843733642 12.91596061229199 68.41646937159099 12.882609826369192 68.34857643854474 12.882609826369192 C 68.21345372891759 12.882609826369192 68.05676683198126 13.014712304064782 67.97935644343858 13.014712304064782 C 67.9636409786204 13.014712304064782 67.95119244482404 13.009267826122647 67.94285596962597 12.996167127404549 C 67.92274938312971 12.749861290164992 67.73343286766064 12.61972996262611 67.55635726794168 12.61972996262611 C 67.38099207453901 12.61972996262611 67.21763331062245 12.747358882066418 67.24252366116073 13.016176621932127 C 67.182495177578 13.646475699550843 67.06243821041252 14.276774777169555 66.76229579249886 14.847045371205535 C 66.725519308813 14.944241148914111 66.64873727018087 14.981429204844579 66.54752530456007 14.981429204844579 C 66.2632662778255 14.981429204844579 65.7863035082615 14.688088109869385 65.46167864820627 14.606931436874596 C 65.59174036263553 13.836565897562835 64.54124189993767 9.894695475629923 61.4597795900303 6.593128267938203 C 61.35212719048669 6.47650493687285 60.88248936878662 5.98180792231159 60.92363697564758 5.98180792231159 C 60.92837830011839 5.98180792231159 60.939901559666005 5.988375980268701 60.959542226840846 6.002848179374646 C 61.11723759790474 6.043985863314279 61.294902313829915 6.072202377081685 61.47080105507938 6.072202377081685 C 61.808245871509286 6.072202377081685 62.13919178511071 5.968358547404061 62.31018295479205 5.6526820251420276 C 62.336219479073876 5.5745724522965485 62.36884329651415 5.5439878715193185 62.40683037660201 5.5439878715193185 C 62.54400575700109 5.5439878715193185 62.75111513903341 5.942819695791911 62.97049627420213 5.942819695791911 C 63.12961718741002 6.048900304597176 63.307388918225215 6.097594674778836 63.48425293072939 6.097594674778836 C 63.77444372717346 6.097594674778836 64.06219165304692 5.966506472303287 64.26110867123093 5.742724750516129 C 64.45119886924292 5.572644047031714 64.63128462531178 5.4025633435473 64.82137482332377 5.2324826400628845 ZM 63.780880802569044 0.0 C 63.46649792392751 0.1397257548498089 62.915812428706936 0.2794515168555707 62.42158286007039 0.2794515168555707 C 62.34960137811637 0.2794515168555707 62.27881736377614 0.2764876356676273 62.21013548215416 0.2701281880488942 C 62.163238229355144 0.27856969355271627 62.11563751776415 0.2822628522106384 62.067514707850975 0.2822628522106384 C 61.73065519111909 0.2822628522106384 61.36821270394023 0.10129807797245291 61.0423940401191 0.10129807797245291 C 60.918272644377716 0.10129807797245291 60.799466270620215 0.12756053953989935 60.68941405071854 0.2000949572023704 C 60.13915287487997 1.0004747001404175 59.6389155498556 1.8908972066176486 59.57888706627286 2.881367338393099 C 59.46883484637118 4.7822693185130305 59.51885858269013 5.442582332602456 61.01957071042358 7.003322905753557 C 61.60985079898713 8.343959649742612 62.71037284534361 12.716034204018452 63.04052950504865 13.90659912840936 C 63.400700406545056 14.246760535378188 62.59031587817814 16.107643526442963 62.250154471209314 16.56786190057726 C 62.06506664682921 16.822982955803887 61.57733537037982 16.83548888988362 61.053336732438865 16.83548888988362 C 60.99638023263893 16.83548888988362 60.938995520618604 16.835341114686 60.881524250192236 16.835341114686 C 60.41025983269603 16.835341114686 59.93318558292741 16.845276248840165 59.6389155498556 17.028080274711563 C 59.358782627662166 17.208165725459764 59.25873515383161 17.878483792133636 59.41881111005224 17.96852651750774 C 59.56888231900908 17.73841733044059 59.869024736922746 17.428270165263125 60.079124391297235 17.39825592347176 L 60.079124391297235 17.39825592347176 C 59.87902948418654 17.60835561601133 60.57936183081686 17.50830814337344 60.729433039773696 17.558331879692386 C 61.134124578080915 17.565077023630117 61.54336310426124 17.599104400127153 61.954083198925986 17.599104400127153 C 62.15259047678931 17.599104400127153 62.351443682956145 17.591156292803817 62.55029688912298 17.56833662695617 C 62.64035579649187 17.528935606909254 62.73674797023321 17.46736830721905 62.77889962407223 17.46736830721905 C 62.81167091138948 17.46736830721905 62.81165686663929 17.504582010084643 62.75039183439877 17.61836036327512 C 63.03360300064111 17.69224185567294 63.35186070373103 17.729181991230533 63.66290490099653 17.729181991230533 C 64.36275480282491 17.729181991230533 65.02608743820458 17.542170646716098 65.17154097755639 17.16814673640461 C 65.47168339547007 16.617885636896208 65.75181631885616 16.03761029559644 65.95191126413194 15.437325459769092 C 66.20728207165537 15.491495450599826 66.52849527869772 15.671362291758161 66.78591539846586 15.671362291758161 C 66.86130151105765 15.671362291758161 66.93121688813086 15.655936270922108 66.992404979566 15.617410910517297 C 67.27253790295211 15.427320712505304 67.56267557360198 14.536898206028072 67.72275152982262 13.946618117464514 C 67.73808534382047 13.885284082755684 67.82130903765804 13.855284496355816 67.90572409269626 13.855284496355816 C 67.98654552361049 13.855284496355816 68.06845939183276 13.88278411722236 68.09292717858281 13.936613370200725 C 68.39306959649647 14.536898206028072 68.89330695968593 16.37777170256527 69.3735342177065 17.14813724187703 C 69.73577641453487 17.719128392661744 70.61420592563485 18.00000019203595 71.54869353050378 18.00000019203595 C 72.13697071556238 18.00000019203595 72.74746303156925 17.888692493595798 73.26538090332046 17.668384099594064 C 73.91568947546676 17.38825117620797 74.39591734412863 17.448279659790707 74.2558508824356 17.088108758294293 C 74.03574644263223 16.48782392246695 73.65556604660824 15.917553328430971 73.25537615605668 15.407311217977727 L 73.25537615605668 15.407311217977727 C 73.83565149735645 15.767482119474133 74.41592683865622 16.13765776823433 74.99620217995599 16.497828669730737 C 75.04406546731136 16.672188747533063 75.16436180587132 16.74140249773823 75.28722772307422 16.74140249773823 C 75.52391351707686 16.74140249773823 75.77013264325005 16.48455210631464 75.5264537849368 16.22770049360843 C 73.25537615605668 12.946143391085602 69.6436623938288 7.353489670627489 67.14247618852285 5.542629805240347 C 66.74228629797128 5.192463651007728 66.2720631765732 4.922335780206078 65.75181631885616 4.7922740657768195 C 65.58173561537174 4.3520651861700985 65.63175935169069 3.761785097606541 65.53171187905279 3.261547734417085 C 65.43166440641491 2.271077602641635 64.83137957058756 0.6302990513802202 63.780880802569044 0.0 Z"
     style="fill:#ffffff;stroke:none"
     id="path10" />
  <path
     d="M 84.50548626103787 0.36391999837853223 Q 84.67069165277088 0.36391999837853223 84.77864798702349 0.5700180259808791 Q 84.94689051470105 0.8392065836173483 84.54310663363394 1.0242738177229025 Q 84.12249912059731 1.2261657582564556 84.2570943843358 1.7140709031623393 L 84.66087731032871 3.379677203955073 Q 84.24026979729209 3.4301502487805986 83.95425659291975 3.7834601299479824 L 83.95425659291975 1.7140709031623393 Q 83.95425659291975 0.6541392898196569 84.24026979729209 0.4690720557141026 Q 84.38748254623918 0.36391999837853223 84.50548626103787 0.36391999837853223 ZM 83.56729729889638 4.142759281400971 L 83.56729729889638 4.7690510958365 L 83.56729729889638 4.7690510958365 L 83.56729729889638 4.7690510958365 L 83.56729729889638 4.7690510958365 L 83.56729729889638 4.7690510958365 L 83.56729729889638 4.7690510958365 L 82.18770408309169 4.624674917252701 Q 82.22135373471625 4.456432389575146 82.70084634733172 4.279777568375729 Q 83.05414787159988 4.149613371371411 83.56729682135928 4.142759281400971 ZM 84.15582786729186 4.179542053926797 Q 84.77594035167671 4.301873209909366 85.08148577843954 4.927512708668757 L 83.987904811933 4.8130680778629324 L 83.987904811933 4.8130680778629324 L 83.987904811933 4.574203066269922 Q 83.987904811933 4.456432389575146 84.12249912059731 4.2208919912597915 Q 84.13845411258521 4.199951034429597 84.15582738975476 4.179542053926797 ZM 85.97012644634619 4.8832087268463065 Q 85.87166689236545 4.8832087268463065 85.7039845157041 5.1798776940278355 Q 86.12459250627782 5.028458798319807 86.02364593908968 4.910688121625032 Q 86.00009189925814 4.8832087268463065 85.97012644634619 4.8832087268463065 ZM 82.05310977442738 4.893864489655504 L 83.56729729889638 5.048539233299048 L 83.56729729889638 5.048539233299048 L 83.56729729889638 5.191502379609277 L 83.56729729889638 5.191502379609277 Q 83.54296296344639 5.19313698909641 83.51682449283939 5.196701325997363 Q 83.23081128846707 5.196701325997363 83.180338004873 5.533187813963768 Q 83.14668978585973 5.263999196635162 82.86908887500927 5.1378171814927205 Q 82.74290638232974 5.080461155702313 82.53851095355887 5.080461155702313 Q 82.29323787164513 5.080461155702313 81.93533957526971 5.163053106984111 Q 81.95216416231344 4.994810579306556 82.05310977442738 4.893864489655504 ZM 82.23817736668576 5.735079515728772 Q 82.40642084943752 5.735079515728772 82.5241905710581 5.8023773863665715 Q 82.4568927004203 5.920146630450052 82.30547475978646 6.004268133057379 Q 82.37277167535007 5.920146630450052 82.36436033690241 5.836025605379824 Q 82.35594804338055 5.751904102772497 82.23817736668576 5.735079515728772 ZM 82.10358305802147 5.751904102772497 L 82.10358305802147 5.751904102772497 Q 82.05310977442738 5.852850192423547 82.06152206794926 5.91173433692819 Q 82.06993483900821 5.970619914044127 82.15405586407844 6.0210927201011035 Q 82.05310977442738 6.0210927201011035 81.95216416231344 5.970619914044127 Q 81.96898874935717 5.852850192423547 82.10358305802147 5.751904102772497 ZM 82.18770408309169 5.667783077702268 Q 81.93533957526971 5.667783077702268 81.8680426597061 6.0210927201011035 Q 82.00263696837041 6.10521422270843 82.22135373471625 6.10521422270843 Q 82.4568927004203 6.10521422270843 82.5914879641588 5.852850192423547 L 83.01209547719543 5.852850192423547 L 83.01209547719543 5.718254928685048 L 82.5914879641588 5.751904102772497 Q 82.42324448140705 5.667783077702268 82.18770408309169 5.667783077702268 ZM 85.97525041940986 4.778770885933229 Q 86.04811780522394 4.778770885933229 86.10776791923409 4.843391683598528 Q 86.29283551149247 5.045282430289335 85.78810554077431 5.280823783678886 Q 86.309659143462 6.071566003695177 86.32648373050573 7.165145537590426 L 86.19188894430432 7.181970124634151 Q 86.19188894430432 6.088390590738902 85.73763273471734 5.348120221705391 L 85.7039845157041 5.3817698733299375 Q 86.04047052613339 6.088390590738902 86.04047052613339 7.720347359291363 L 85.90587573993199 7.720347359291363 Q 85.78810554077431 6.088390590738902 85.7039845157041 5.70143129671552 L 85.55256514245896 5.146229475014583 Q 85.80148804041423 4.778770885933229 85.97525041940986 4.778770885933229 ZM 82.42020065994313 5.293848608032246 Q 82.58497626828776 5.293848608032246 82.7260822728231 5.339707928183528 Q 83.0625687607895 5.449066311356441 83.0625687607895 5.8023773863665715 L 83.28128409452404 5.8023773863665715 Q 83.33175690058101 5.499539117413418 83.48317627382615 5.499539117413418 Q 83.63459516953417 5.499539117413418 83.55047271185265 5.8023773863665715 L 83.07939334783323 6.542646322788788 L 83.07939334783323 8.124130762821371 L 83.02891910916496 8.140955349865095 Q 82.94479808409473 8.023185150707418 82.86067658148741 7.846530329508001 Q 82.77655555641718 7.669875508308583 82.7260822728231 7.367037716892528 L 82.22135373471625 7.350213129848804 Q 81.95216416231344 7.350213129848804 81.95216416231344 7.215618821184501 Q 81.95216416231344 6.963253835825422 82.20452867013542 6.92960561681217 Q 82.20452867013542 6.795011308147867 82.12040764506519 6.795011308147867 L 81.78392163463589 6.778186721104142 Q 81.88486629167564 6.559470909832513 81.58202945533378 6.475348452150989 Q 81.58202945533378 6.340754143486686 81.8680426597061 5.869673824393075 L 81.8680426597061 5.583660620020745 L 81.9185154657631 5.667783077702268 Q 82.12040764506519 5.550012401007493 82.25500195372949 5.550012401007493 Q 82.3895962623938 5.550012401007493 82.64196124775287 5.650958490658544 L 82.94479808409473 5.650958490658544 L 82.94479808409473 5.533187813963768 L 82.64196124775287 5.533187813963768 Q 82.42324448140705 5.3817698733299375 82.25500195372949 5.3817698733299375 Q 82.06993483900821 5.3817698733299375 81.8680426597061 5.533187813963768 Q 81.8680426597061 5.398593505299465 81.9185154657631 5.3817698733299375 Q 82.19204728299981 5.293848608032246 82.42020065994313 5.293848608032246 ZM 83.987904811933 5.091504678635248 L 85.1824309130164 5.213525913041087 Q 85.21608008710385 5.297647415648414 85.36749898281188 5.785552799322847 Q 85.5862143165464 6.424875646094013 85.53574151048943 10.39541276583049 L 83.41587840318834 10.412236397800017 L 83.41587840318834 6.593119128845765 Q 83.53364907988312 6.424875646094013 83.7187161946044 6.122038809752154 Q 83.90378330932568 5.819201018336099 83.89537101580382 5.482714530369694 Q 83.88915300524818 5.2340070016457165 83.6853196376419 5.196701325997363 L 83.987904811933 5.196701325997363 L 83.987904811933 5.091504678635248 ZM 83.07939334783323 8.847576544811158 L 83.07939334783323 10.782371582316774 L 84.87959359913745 10.782371582316774 Q 84.86276901209372 11.80865420064842 84.6861132358201 13.27236939659752 Q 84.50945936969488 14.736083637472428 84.24026979729209 15.75395396228221 Q 83.97108117996348 16.77182524216619 84.61040402673464 17.411148088937356 L 79.63040983078444 17.411148088937356 Q 79.81547718427427 17.226081451753174 79.87436252262165 16.788649829209916 Q 79.93324786096905 16.351216296518263 79.47899105446069 15.324934633260813 L 78.21716851535079 11.505815454158167 Q 78.13304623674567 11.152506766833529 78.42747173463987 10.959026881053289 Q 78.52561360706602 10.894533585793209 78.6228207603146 10.894533585793209 Q 78.81723506681173 10.894533585793209 79.00791049659853 11.152506766833529 L 80.70716525517307 13.692976432097057 L 81.3633129277565 14.500543239157073 Q 81.53155617173971 14.61831343831475 81.66054276225987 14.61831343831475 Q 81.9185154657631 14.61831343831475 82.01946155541414 14.147232641684042 Q 82.62513618317205 12.767639425879365 82.47371728746403 10.782371582316774 Q 81.88486629167564 10.143047780471411 83.07939334783323 8.847576544811158 ZM 84.5255972583914 0.0 Q 84.2995316736414 0.0 84.02155398602045 0.18305882149570318 Q 83.56729729889638 0.48589571752969907 83.56729729889638 1.966434814062947 L 83.56729729889638 3.79523189695567 L 83.56729729889638 3.79523189695567 Q 83.08755875467533 3.8193396410525664 82.75973049183635 3.8928182743523467 Q 82.27182654077322 4.0021766575252595 81.96898874935717 4.363898593445957 Q 81.66615095794111 4.7256210069037525 81.66615095794111 5.364945286286213 Q 81.58202945533378 5.634133426077721 81.63250226139075 5.869673824393075 Q 81.3633129277565 6.374403795111233 81.3633129277565 6.559470909832513 Q 81.3633129277565 6.660416999483563 81.59885308730331 6.660416999483563 L 81.56520486829005 6.811835895191591 Q 81.58202945533378 6.89595692026182 81.66615095794111 6.9127805522313475 Q 81.59885308730331 6.980078422869147 81.63250226139075 7.064199925476474 L 81.75027198301133 7.1146727315334495 Q 81.63250226139075 7.568928463583336 82.13723127703472 7.568928463583336 L 82.47371728746403 7.568928463583336 Q 82.50736693908857 7.888590842043115 82.86067658148741 8.44379314128115 Q 82.84385199444368 8.460617728324875 82.54101515810183 8.85598883833302 Q 82.23817736668576 9.251359948341166 81.93533957526971 9.78973718299838 Q 81.63250226139075 10.328115372729789 82.05310977442738 10.849668975417474 Q 82.17087949604797 12.565748201651457 81.53155641050826 13.995814223513111 L 79.32757203936839 10.765546995273048 L 79.31074840739886 10.765546995273048 Q 79.02456114075423 10.387780767927083 78.60596113398628 10.387780767927083 Q 78.40934627684851 10.387780767927083 78.18351916218693 10.471121497378856 Q 77.47689847462404 10.731898776259797 77.6619657348449 11.354397991061434 Q 79.41169330320716 16.51946025680711 79.3612213328401 16.872770854280144 Q 79.31074840739886 17.226081451753174 78.86490389441236 17.495269114007584 Q 78.41905944111801 17.76445868641039 78.63777602838742 17.999999084725744 L 85.31702474414361 17.999999084725744 Q 85.6535117096471 17.848579711480618 85.31702474414361 17.528918288095035 Q 84.4421614990571 16.46898649567594 84.7534111064579 15.493177638475466 Q 85.06466119139583 14.517367826200797 85.30020111217408 10.782371582316774 L 85.92270032697571 10.782371582316774 L 85.92270032697571 9.671966983840703 Q 85.93952586909364 8.645684365509057 85.92270032697571 7.922239538593465 Q 86.04047052613339 7.905414474012643 86.20871353134805 7.838118035986139 L 86.19188894430432 7.3333880652679815 L 86.49472673572038 7.316564433298454 Q 86.49472673572038 6.071566003695177 85.95634950106317 5.348120221705391 Q 86.54519954177735 5.129404887970859 86.20871353134805 4.742445593947477 Q 86.08533513650913 4.599586550724655 85.95443839759618 4.599586550724655 Q 85.74619306473964 4.599586550724655 85.51891692344572 4.961161405219107 Q 85.06649445631581 4.127751245478793 84.52981916387657 3.884110862903798 L 84.52981916387657 3.884110862903798 Q 84.75430075807185 3.758798204048627 85.06466119139583 3.6656904083274036 L 84.59358039476511 1.6635978583368138 Q 84.54310663363394 1.4280576987900087 84.89641770864407 1.2093410518284569 Q 85.36749898281188 0.8896795687507366 85.08148577843954 0.4017743939987841 Q 84.86050930654505 0.0 84.5255972583914 0.0 Z"
     style="fill:#ffffff;stroke:none"
     id="path12" />
</svg>
