<?xml version="1.0" encoding="UTF-8" standalone="no"?>
<svg
   width="99.07576751708984"
   height="18.0"
   version="1.1"
   id="svg36"
   sodipodi:docname="horpasebakhaenniutmeriamun.svg"
   inkscape:version="1.1.1 (3bf5ae0d25, 2021-09-20)"
   xmlns:inkscape="http://www.inkscape.org/namespaces/inkscape"
   xmlns:sodipodi="http://sodipodi.sourceforge.net/DTD/sodipodi-0.dtd"
   xmlns="http://www.w3.org/2000/svg"
   xmlns:svg="http://www.w3.org/2000/svg">
  <defs
     id="defs40" />
  <sodipodi:namedview
     id="namedview38"
     pagecolor="#ffffff"
     bordercolor="#666666"
     borderopacity="1.0"
     inkscape:pageshadow="2"
     inkscape:pageopacity="0.0"
     inkscape:pagecheckerboard="0"
     showgrid="false"
     inkscape:zoom="13.878267"
     inkscape:cx="49.537884"
     inkscape:cy="8.9708604"
     inkscape:window-width="1920"
     inkscape:window-height="1001"
     inkscape:window-x="-9"
     inkscape:window-y="-9"
     inkscape:window-maximized="1"
     inkscape:current-layer="svg36" />
  <path
     d="M 9.619241759901131 8.704017150225534 C 9.956114020057063 8.704017150225534 10.371109904274771 8.76399089929749 10.864229412554256 8.883939352346172 C 11.905261819800385 9.137163864337834 12.8056128816014 9.495897714329981 13.565284507766846 9.960140902322616 C 14.32495613393229 10.42438504522002 15.176070395910864 11.008207138114807 16.1186263387978 11.711606226102205 C 15.211383729261659 12.170969850713034 14.168207560803758 12.400651185566062 12.989095923614554 12.400651185566062 C 12.723796640788658 12.400651185566062 12.45161535927535 12.38902331016484 12.172553033979401 12.365768514267165 C 10.653210736553286 12.239155780818948 9.3484030744964 11.792497164191472 8.258132912523058 11.025791709479964 C 7.167863705454489 10.259086254768457 6.897054622097669 9.78780828332499 7.445706139904986 9.61195779514956 C 7.994358612617073 9.436108261878905 8.441018184149321 9.207503104703234 8.78568342214457 8.92614327852732 C 8.967086681565636 8.778059511294387 9.244939142516232 8.704017150225534 9.619241759901131 8.704017150225534 ZM 16.87829701005847 11.880422885731571 L 17.743478929129175 12.070340076094354 C 17.743478929129175 12.295428318996994 17.539492171864723 12.478311680813713 17.131522476954906 12.618992071354056 C 16.899402315315747 12.634818663035082 16.657389340244983 12.642731958875595 16.405485461552153 12.642731958875595 C 15.985642480714866 12.642731958875595 15.538322115080815 12.620750051038186 15.063526274459544 12.576788145172907 C 15.977946903162229 12.464244023721587 16.582870481695206 12.232122907177656 16.87829701005847 11.880422885731571 ZM 18.207723072026578 12.196952809542571 L 18.73527358164809 12.302462147543055 C 18.791544210016596 12.471278807172421 18.594593191107748 12.640094511897015 18.144416705302472 12.808910216621609 L 17.532460253128203 12.76670629044046 C 17.968567172031815 12.569755271531616 18.193655414934454 12.379837126264063 18.207723072026578 12.196952809542571 ZM 19.009598624373172 12.407972440448313 L 19.36833342927009 12.49238029281061 C 19.283925576907794 12.731536192805375 19.030702019820904 12.851114142802757 18.608660848199875 12.851114142802757 C 18.847816748194642 12.696366095170289 18.98146331018892 12.548652830988656 19.009598624373172 12.407972440448313 ZM 19.600455500718795 12.618992071354056 C 19.938086910167982 12.71746853571325 20.163175153070622 12.87925041189178 20.27571831961717 13.10433865479442 L 19.326128548184172 12.893318068983906 C 19.509013819810434 12.808910216621609 19.600455500718795 12.71746853571325 19.600455500718795 12.618992071354056 ZM 17.405847519679988 13.864010280959864 C 18.46094662911347 13.99062205950331 19.255788352914 14.28604954277135 19.790372691081576 14.750293685668755 L 17.173725448231284 14.138336278589716 C 17.20186267222508 13.983587276052475 17.279236696041313 13.892145595144116 17.405847519679988 13.864010280959864 ZM 5.187792747046841 0.40093762696942586 C 5.848988863757863 0.40093762696942586 6.3484031042903535 0.5838216154424017 6.686035468644312 0.9495895923883535 C 7.0236668780935005 1.3153575693343054 7.129177170998758 2.198124417859453 7.0025653924553115 3.5978901976453446 C 6.875952659007095 4.997655977431236 6.8337487328259465 5.947245271411848 6.875953136459481 6.446659034491953 C 6.918156585188243 6.946073275024443 7.048285755457107 7.315357867835686 7.266340169813683 7.554513290378066 C 7.4843936292654885 7.793669667825216 7.748168406623859 8.029308176094565 8.05766402443641 8.261430247543267 C 8.367160119701346 8.49355231899197 8.212412072068878 8.70105503562468 7.5934203589913905 8.883939352346172 C 6.974429123366289 9.06682271416289 6.629762930466267 9.33763179751971 6.559423212648482 9.69636660241663 C 6.48908301737831 10.055099497504006 6.577008261466024 10.385698033311902 6.823197990006852 10.688160300030777 C 7.069388196000066 10.99062256674965 7.656726725715499 11.398594171469009 8.585214534057924 11.912075114188854 C 9.513701864947961 12.42555701181347 10.333162943564483 12.752637678443564 11.043595860097945 12.893318068983906 C 11.754030686440949 13.033998459524248 13.931053141209826 13.10433865479442 17.57466322440458 13.10433865479442 C 18.700104438917776 13.315358285700162 19.445707453086325 13.596718111876076 19.811474176719763 13.94841813332216 L 17.405847519679988 13.399766138062459 C 17.18076118658689 13.47010633333263 17.00490974350669 13.60375194042214 16.87829701005847 13.800703914235756 C 16.87829701005847 14.166472547678739 16.083455286257944 14.37749217858448 14.493772793561655 14.433763761857755 C 14.254616893566888 14.433763761857755 14.092834062483586 14.103166180954629 14.008427165026061 13.441970064243609 L 13.755202653034399 13.652989695149351 C 13.881814431577844 14.187574033316928 13.91698452921293 14.658852004760394 13.860712945939655 15.066823609479753 C 13.663760972126038 14.588511809490223 13.319094779226017 14.271981885679224 12.826715322144361 14.117233838046756 C 12.038906471985122 13.976553447506413 11.335507383997724 13.846424754689936 10.71651519346785 13.726846804692553 C 10.097523002937978 13.607269809599941 9.471497938766813 13.350529338240019 8.838438091144814 12.956624435708015 C 8.275718438792987 12.520516561899633 7.371849507814169 12.049238590456165 6.126831775660745 11.542790521377611 C 4.881814043507322 11.03634340720383 4.259305416156803 10.283705609584448 4.259305416156803 9.284877128519467 C 4.259305416156803 8.286049602359258 4.593420388785345 7.459554695196674 5.261649856590044 6.805393361936487 C 5.929879801847128 6.151231551223914 6.2639942970232845 5.366941047694864 6.2639942970232845 4.452521373896952 C 6.2639942970232845 4.002345365544058 6.207722713750011 3.5767882345547704 6.095179069751077 3.175850219655281 C 5.993352799453844 2.8130966980279646 5.689997219321334 2.6317199372143065 5.185112329353548 2.6317199372143065 C 5.131966626849421 2.6317199372143065 5.076588356989783 2.6337295343056977 5.0189770423222475 2.6377489672146734 L 3.2464102329044677 2.869871038663376 C 3.3026820549039346 2.6869874381204633 3.387089668540039 2.5181714946696765 3.4996335512651657 2.363423447037208 C 3.6403134643531225 1.9273154538657298 3.795061511985591 1.6740914193264531 3.9638776941625706 1.6037515821455712 C 3.9884963327999836 1.6899181303705768 4.083125485835245 1.733001523846176 4.247764437089777 1.733001523846176 C 4.271284696513898 1.733001523846176 4.296233016023633 1.732122295277918 4.32261082797614 1.7303637187783059 C 4.603971609056825 1.7162955842337946 4.765753485235356 1.5756155517827413 4.8079574114165045 1.308323860151339 C 4.7798216197798675 1.0410321685199366 4.6180397436013365 0.9003521360688832 4.32261082797614 0.8862840612059201 C 4.069387270889249 0.9003521360688832 3.9287073578012923 1.0410321685199366 3.9005710887122693 1.308323860151339 C 3.6754838007144013 1.5193437297832741 3.4996337899913588 1.765533697050295 3.373021295269335 2.046893523226209 C 3.3320964640294637 2.0673559388461444 3.2921017100369276 2.0775870272930157 3.2530370332917253 2.0775870272930157 C 3.1846734908983327 2.0775870272930157 3.119158190711805 2.046253737029377 3.0564913714583355 1.9835869177759076 C 3.225307553635315 1.6459552696005268 3.471497998354722 1.2977725205167625 3.7950622281641695 0.9390390286139039 C 4.118625980521232 0.5803047608509185 4.582869168513866 0.40093762696942586 5.187792747046841 0.40093762696942586 ZM 9.977946007845366 14.159437764227905 L 10.653208826743741 14.328253468952498 L 9.89353815548307 15.425557459471902 L 9.977946007845366 14.159437764227905 ZM 11.286269629270512 14.391559835676606 C 11.84898928162234 14.391559835676606 12.32378416733884 14.451348333222912 12.71065428642001 14.570927238125066 C 13.09752440550118 14.690504233217677 13.336679350591174 15.144197633295988 13.428121986404305 15.932005528550455 C 13.517959427296729 16.705992132143816 13.400721948894024 17.092986388845265 13.07640859629142 17.092986388845265 C 13.070618053757709 17.092986388845265 13.064760667889999 17.092862251224986 13.058837393593063 17.09261588579397 L 11.03304511727885 17.09261588579397 C 10.988356528882543 17.089306185856326 10.942987093384234 17.087650380982737 10.896935855879153 17.087650380982737 C 10.551564943257846 17.087650380982737 10.167861288398607 17.180747866764687 9.745823936396663 17.366940928519046 C 9.858368057847983 16.382182014355735 10.3718499554726 15.390387361836815 11.286269629270512 14.391559835676606 ZM 5.187792747046841 0.0 C 4.231169147067781 0.0 3.443361967991892 0.5345838607151904 2.8243702549144043 1.6037515821455712 C 2.613350385282469 1.9554513648654634 1.9873244855696295 2.3071511475853557 0.946292317049693 2.6588511690314407 C 0.22882448278191372 2.869871038663376 -0.08067132899566878 3.165298999383801 0.017804894772284054 3.545135051192716 L 0.03890708726380924 3.798358369553414 C 1.3753664816751086 3.6717465910099687 2.493771957832701 3.5099647148314377 3.3941234970861016 3.3130129797440135 L 5.040079482865207 3.0175852577497815 C 5.048381902400062 3.0173546482474904 5.056615568791377 3.017239343496345 5.064780004586766 3.017239343496345 C 5.5546451974053515 3.017239343496345 5.796118651280282 3.432360558965298 5.789199888759171 4.2626027511770115 C 5.782166060213108 5.106682229704753 5.4269491244939925 5.862836941597166 4.723549559054208 6.5310668868542505 C 4.020149993614424 7.199296832111335 3.661415904896083 8.166471652361876 3.6473477703515713 9.432591347605873 C 3.6473477703515713 10.459556097759878 4.136210551886389 11.19460836910933 5.11393659240841 11.637750071463774 C 6.09166167802566 12.08089177381822 7.037734535185626 12.555685704629948 7.952154686435924 13.062133773708501 C 8.866573405329065 13.568581842787054 9.387089131499744 13.962486745319058 9.513701864947961 14.243845616590201 C 9.44336166967779 15.735053554736838 9.26047830786107 16.698711938166735 8.96504986968826 17.134818857070343 C 8.472670412606604 17.134818857070343 7.614522322081965 17.064478661800173 6.390606553019116 16.92379827125983 C 6.01077121738878 16.980070809437876 5.75051335430344 17.10316567370829 5.609832486310712 17.293084773880615 C 5.469153528127526 17.48300387405294 5.497289319764163 17.69050468087611 5.69424129357778 17.91559292377875 C 5.7882960713930505 17.77973671214347 5.878469161312617 17.711806696516287 5.9647610407888685 17.711806696516287 C 5.99463093949035 17.711806696516287 6.024035799568166 17.719946304787623 6.052975621022314 17.73622552133029 C 6.165519265021248 17.799531888054396 6.446879091197162 17.831185071416453 6.897054144645284 17.831185071416453 L 8.96504986968826 17.831185071416453 C 9.066651737364214 17.811645809984256 9.162826881224358 17.801877134172933 9.253573391459145 17.801877134172933 C 9.489516991802953 17.801877134172933 9.68877028611562 17.867918348162302 9.851334229301921 18.000000776141047 C 10.048286203115538 17.98593311904892 10.21710095293536 17.929660580870873 10.357781343475702 17.831185071416453 C 10.978782653644581 17.849272877596132 11.498366392758383 17.8583158257812 11.916529696102794 17.8583158257812 C 12.474082358736627 17.8583158257812 12.85133372205558 17.842239049050068 13.048285695869197 17.810083585778262 C 13.39295188876922 17.753811047600216 13.705964898307187 17.704574247777778 13.987324724483102 17.662369366691856 L 14.704792424467398 17.89449143814056 C 14.713104870502352 17.89513122433739 14.721098378343662 17.895450162531034 14.728771038181785 17.895450162531034 C 14.889915037973028 17.895450162531034 14.91005779922074 17.754450833797048 14.789201231734465 17.47245026651953 C 14.170209041204592 17.134818857070343 14.02952865066425 16.28370459509177 14.367161015018208 14.919109390393348 L 14.367161015018208 14.919109390393348 C 14.486100133723532 14.921667580275903 14.601202445057407 14.922946197764796 14.712467949019834 14.922946197764796 C 15.825117259215483 14.922946197764796 16.55409538131412 14.795054846827687 16.899400405506203 14.539274054763013 C 18.306200491290543 14.792496656945131 19.452741281632388 15.03868734039073 20.33902468634128 15.277843240385495 L 20.486738905427682 15.024620638203377 C 20.1209702719847 14.616648078579246 19.84664522925962 14.356389738041521 19.6637618674429 14.243845616590201 L 19.6637618674429 14.243845616590201 L 20.59224824342817 14.433763761857755 C 20.74230770863311 14.490035345131028 20.8462548224276 14.518171614220051 20.90408958481164 14.518171614220051 C 21.01975910957972 14.518171614220051 20.95098304832509 14.405627492768732 20.697759491238198 14.180540204770864 C 20.641486953060152 14.025792157138396 20.23351534834079 13.723330845324293 19.473842767270575 13.273154359519014 L 19.473842767270575 13.273154359519014 L 20.761063948152763 13.526377916605906 C 20.901744338693106 12.62602685480489 19.924019253075855 11.985932223732057 17.827886781491472 11.606096888101721 C 16.73058279097207 11.352873331014829 15.738790048262691 10.86049196412363 14.852506643553802 10.12895660704721 C 13.684862457764227 9.101993766702748 11.91932947689251 8.349355969083367 9.55590579112911 7.871043214189065 C 8.303853752977238 7.786635839279153 7.607488493535902 7.4032831119233995 7.466808580447945 6.72098550957419 C 7.326128667359988 6.038687429772594 7.32964558163302 4.95193465952467 7.477359800719425 3.4607274375566117 C 7.625073542353445 1.969519857499264 7.417570825720734 0.9988280632941434 6.854850695916521 0.5486519952597018 C 6.43281095665265 0.1828839884729759 5.877125132846886 0.0 5.187792747046841 0.0 Z"
     style="fill:#ffffff;stroke:none"
     id="path2" />
  <path
     d="M 27.177865186478382 7.937876256002994 C 26.496671245133623 7.991654064440127 26.120222241250442 8.332250793733436 26.04851793344977 8.959665719745715 C 26.138148499234912 9.640860143848613 26.514597503118093 9.999383372505463 27.177865186478382 10.035235888474404 C 27.84113286983867 9.999383372505463 28.190692728124215 9.640860143848613 28.226544278576878 8.959665719745715 C 28.172766470139745 8.332250793733436 27.8232066118542 7.991654064440127 27.177865186478382 7.937876256002994 ZM 27.25853214051315 5.679180301671352 C 27.742538692303153 5.679180301671352 28.190693210882355 5.768811229525099 28.602994730734476 5.948073085232593 C 29.01529576782846 6.127334940940088 29.378299957533752 6.373819539952137 29.692007299850356 6.687527123647811 C 30.0057151249251 7.001234707343485 30.252199844626684 7.3597576946212655 30.43146145895511 7.763095602723013 C 30.610722590525395 8.16643375220383 30.700352914931468 8.592179844854769 30.700352914931468 9.040334122054901 C 30.700352914931468 9.506413933102294 30.610722590525395 9.941123154745469 30.43146145895511 10.344461786984425 C 30.252199844626684 10.747799936465242 30.0057151249251 11.101841721315509 29.692007299850356 11.406586176018948 C 29.378299957533752 11.711330630722387 29.01529576782846 11.948851980052666 28.602994730734476 12.119151189526065 C 28.190693210882355 12.289449433483185 27.742538692303153 12.374598314082675 27.25853214051315 12.374598314082675 C 26.774526312860356 12.374598314082675 26.32189131599085 12.289449433483185 25.900626908525563 12.119151189526065 C 25.479361776923067 11.948851980052666 25.116357104459635 11.711330630722387 24.8116130118248 11.406586176018948 C 24.506868074363222 11.101841721315509 24.264865160536825 10.747799936465242 24.085604149656074 10.344461786984425 C 23.906342354293347 9.941123154745469 23.8167114264396 9.506413933102294 23.8167114264396 9.040334122054901 C 23.8167114264396 8.592179844854769 23.906342354293347 8.16643375220383 24.085604149656074 7.763095602723013 C 24.264865160536825 7.3597576946212655 24.506868074363222 7.001234707343485 24.8116130118248 6.687527123647811 C 25.116357104459635 6.373819539952137 25.479361776923067 6.127334940940088 25.900626908525563 5.948073085232593 C 26.32189131599085 5.768811229525099 26.774526312860356 5.679180301671352 27.25853214051315 5.679180301671352 ZM 27.204754814834157 4.764946937561035 C 26.61319119789547 4.764946937561035 26.057480338304796 4.876985476688684 25.53762175330399 5.101062554943983 C 25.017763409682257 5.325139663371665 24.569609615240264 5.629884118075104 24.193160490667548 6.015295949226683 C 23.8167114264396 6.400708564860238 23.516448355197976 6.848862238612696 23.292371276942678 7.359757211863126 C 23.068294998255546 7.870652909250765 22.956256866455078 8.421882083655788 22.956256866455078 9.013444493699126 C 22.956256866455078 9.605007145121533 23.068294998255546 10.156236319526556 23.292371276942678 10.667132016914195 C 23.516448355197976 11.178027714301834 23.8167114264396 11.621700306316313 24.193160490667548 11.998149310199494 C 24.569609615240264 12.374598314082675 25.017763409682257 12.67486180773767 25.53762175330399 12.898938825648202 C 26.057480338304796 13.123014878042454 26.61319119789547 13.23505338699772 27.204754814834157 13.23505338699772 C 27.796317466256564 13.23505338699772 28.347546157903448 13.123014878042454 28.85844088977481 12.898938825648202 C 29.369336587162447 12.67486180773767 29.81749062298351 12.374598314082675 30.202903479996134 11.998149310199494 C 30.58831537149248 11.621700306316313 30.89305982619592 11.178027714301834 31.11713636134831 10.667132016914195 C 31.34121434477512 10.156236319526556 31.453252853730387 9.605007145121533 31.453252853730387 9.013444493699126 C 31.453252853730387 8.421882083655788 31.34121434477512 7.870652909250765 31.11713636134831 7.359757211863126 C 30.89305982619592 6.848862238612696 30.58831537149248 6.400708564860238 30.202903479996134 6.015295949226683 C 29.81749062298351 5.629884118075104 29.369336587162447 5.325139663371665 28.85844088977481 5.101062554943983 C 28.347546157903448 4.876985476688684 27.796317466256564 4.764946937561035 27.204754814834157 4.764946937561035 Z"
     style="fill:#ffffff;stroke:none"
     id="path4" />
  <path
     d="M 42.791217630075664 2.9892379897054955 C 43.068835731278675 2.9892379897054955 43.408691041004865 3.095985977015074 43.50778172773154 3.340333519869274 L 43.47130011263709 11.279334014803599 L 43.47130011263709 11.279334014803599 C 43.33048932130826 10.960512872387417 42.91219094789365 10.367342335933275 41.66974612501964 9.632436990092634 L 42.61300693482894 3.06154244747758 C 42.65725846576657 3.0145252182361735 42.656098295835605 2.9892379897054955 42.791217630075664 2.9892379897054955 ZM 43.47130011263709 11.279334014803599 L 43.47130011263709 11.279334014803599 C 43.47130011263709 11.279334014803599 43.47130029167566 11.279334014803599 43.47130029167566 11.279334014803599 L 43.47130011263709 11.279334014803599 L 43.47130011263709 11.279334014803599 ZM 42.65921016521369 2.25 C 42.446704811000096 2.25 42.254900701876345 2.280338063237631 42.11910334857324 2.317373030601139 L 40.9532527923584 10.098160711168036 C 41.56997155571676 10.520569989179059 43.264807589744684 11.67797341616124 43.19722267818634 12.683307927520042 L 43.2098602946596 15.75000086141948 L 44.07063691646657 15.73816856043225 L 44.065809678553215 3.119482909369111 C 43.80984432291815 2.427915471835376 43.173828603490534 2.25 42.65921016521369 2.25 Z"
     style="fill:#ffffff;stroke:none"
     id="path6" />
  <path
     d="M 59.15687039899707 4.056679974908366 L 59.15687039899707 5.839270883484621 L 46.028329247996275 5.839270883484621 L 46.028329247996275 4.056679974908366 ZM 46.0765073806605 2.25 L 46.0765073806605 3.5989877145982474 L 45.57063698768616 3.5989877145982474 L 45.57063698768616 6.296963143794741 L 59.6145626593072 6.296963143794741 L 59.6145626593072 3.5989877145982474 L 59.2050485316613 3.5989877145982474 L 59.2050485316613 2.25 L 58.74735627135118 2.25 L 58.74735627135118 3.5989877145982474 L 57.615170153741936 3.5989877145982474 L 57.615170153741936 2.25 L 57.15747789343182 2.25 L 57.15747789343182 3.5989877145982474 L 56.02529177582257 3.5989877145982474 L 56.02529177582257 2.25 L 55.567599515512455 2.25 L 55.567599515512455 3.5989877145982474 L 54.45950246423532 3.5989877145982474 L 54.45950246423532 2.25 L 53.97772113759309 2.25 L 53.97772113759309 3.5989877145982474 L 52.86962408631596 3.5989877145982474 L 52.86962408631596 2.25 L 52.41193182600584 2.25 L 52.41193182600584 3.5989877145982474 L 51.2797457083966 3.5989877145982474 L 51.2797457083966 2.25 L 50.82205344808648 2.25 L 50.82205344808648 3.5989877145982474 L 49.689867330477234 3.5989877145982474 L 49.689867330477234 2.25 L 49.232175070167116 2.25 L 49.232175070167116 3.5989877145982474 L 48.12407801888998 3.5989877145982474 L 48.12407801888998 2.25 L 47.666385758579864 2.25 L 47.666385758579864 3.5989877145982474 L 46.53419964097062 3.5989877145982474 L 46.53419964097062 2.25 Z"
     style="fill:#ffffff;stroke:none"
     id="path8" />
  <path
     d="M 46.9196247022844 7.736277055008216 L 46.630555906299065 8.362592779643116 L 45.71517138567883 10.4101634178726 L 45.57063698768616 10.699232213857938 L 46.17286364598895 10.988301009843276 L 46.31739804398161 10.675143147525826 L 46.94371376861652 9.253888233931244 L 47.256871630933965 9.80793675956981 L 47.5459404269193 10.386074351540486 L 47.835009222904645 9.80793675956981 L 48.17225615155421 9.205710101267021 L 48.485414013871655 9.80793675956981 L 48.77448280985699 10.386074351540486 L 49.063551605842335 9.80793675956981 L 49.37670946815978 9.205710101267021 L 49.713956396809344 9.80793675956981 L 50.00302519279468 10.386074351540486 L 50.292093988780024 9.80793675956981 L 50.60525185109747 9.229799167599133 L 50.918409713414924 9.80793675956981 L 51.23156757573237 10.386074351540486 L 51.520636371717714 9.80793675956981 L 51.83379423403516 9.205710101267021 L 52.146952096352614 9.80793675956981 L 52.46010995867006 10.386074351540486 L 52.749178754655404 9.80793675956981 L 53.06233661697285 9.205710101267021 L 53.3754944792903 9.80793675956981 L 53.68865234160775 10.386074351540486 L 53.97772113759309 9.80793675956981 L 54.29087899991054 9.205710101267021 L 54.60403686222799 9.80793675956981 L 54.89310565821333 10.386074351540486 L 55.20626352053078 9.80793675956981 L 55.51942138284823 9.205710101267021 L 55.83257924516568 9.80793675956981 L 56.12164804115102 10.386074351540486 L 56.43480590346847 9.80793675956981 L 56.74796376578592 9.205710101267021 L 57.08521069443548 9.83202582590192 L 57.37427949042082 10.361985285208377 L 57.68743735273827 9.83202582590192 L 58.024684281387835 9.18162103493491 L 58.867801603011735 10.699232213857938 L 59.036425067336516 10.988301009843276 L 59.6145626593072 10.675143147525826 L 59.470028261314525 10.386074351540486 L 58.31375307737317 8.314414646978893 L 58.024684281387835 7.808544254004551 L 57.73561548540249 8.338503713311004 L 57.37427949042082 8.964819437945906 L 57.037032561771255 8.338503713311004 L 56.72387469945381 7.784455187672439 L 56.45889496980058 8.338503713311004 L 56.12164804115102 8.940730371613794 L 55.808490178833566 8.338503713311004 L 55.51942138284823 7.760366121340327 L 55.23035258686289 8.338503713311004 L 54.91719472454544 8.940730371613794 L 54.579947795895876 8.338503713311004 L 54.29087899991054 7.760366121340327 L 54.0018102039252 8.338503713311004 L 53.66456327527564 8.940730371613794 L 53.35140541295819 8.338503713311004 L 53.06233661697285 7.760366121340327 L 52.77326782098751 8.338503713311004 L 52.46010995867006 8.940730371613794 L 52.1228630300205 8.338503713311004 L 51.83379423403516 7.760366121340327 L 51.544725438049824 8.338503713311004 L 51.23156757573237 8.916641305281683 L 50.918409713414924 8.338503713311004 L 50.60525185109747 7.760366121340327 L 50.316183055112134 8.338503713311004 L 50.00302519279468 8.940730371613794 L 49.689867330477234 8.338503713311004 L 49.37670946815978 7.760366121340327 L 49.087640672174444 8.338503713311004 L 48.77448280985699 8.940730371613794 L 48.461324947539545 8.338503713311004 L 48.17225615155421 7.760366121340327 L 47.859098289236755 8.338503713311004 L 47.5459404269193 8.940730371613794 L 47.232782564601855 8.338503713311004 L 46.9196247022844 7.736277055008216 Z"
     style="fill:#ffffff;stroke:none"
     id="path10" />
  <path
     d="M 57.36750942077049 13.021470375459153 Q 57.078603087174926 13.310375015381036 57.078603087174926 14.080782003492336 Q 57.078603087174926 14.867237722175602 57.36750942077049 15.156141623829475 L 47.83370898094224 15.156141623829475 Q 48.122612187755635 14.867237722175602 48.122612187755635 14.080782003492336 Q 48.122612187755635 13.310375015381036 47.83370898094224 13.021470375459153 ZM 45.98794159079826 12.42761457984745 Q 45.57063698768616 12.42761457984745 45.586687163580606 12.700466841284847 Q 45.57063698768616 13.021470375459153 45.98794159079826 13.021470375459153 L 47.03120157861497 13.021470375459153 Q 47.41640950227868 13.310375015381036 47.41640950227868 14.080782003492336 Q 47.41640950227868 14.867237722175602 47.03120157861497 15.156141623829475 L 46.003992492746725 15.156141623829475 Q 45.57063698768616 15.156141623829475 45.57063698768616 15.428995405230422 Q 45.57063698768616 15.749998852549668 45.98794159079826 15.749998852549668 L 59.213278113740365 15.749998852549668 Q 59.61456238788513 15.749998852549668 59.61456238788513 15.428995405230422 Q 59.61456238788513 15.156141623829475 59.197225908966 15.156141623829475 L 58.170018212778714 15.156141623829475 Q 57.78481115766561 14.867237722175602 57.78481115766561 14.080782003492336 Q 57.78481115766561 13.310375015381036 58.170018212778714 13.021470375459153 L 59.213278113740365 13.021470375459153 Q 59.61456238788513 13.021470375459153 59.61456238788513 12.700466841284847 Q 59.61456238788513 12.42761457984745 59.213278113740365 12.42761457984745 Z"
     style="fill:#ffffff;stroke:none"
     id="path12" />
  <path
     d="M 62.560250317548864 2.477682933866099 C 62.893427724742985 2.477682933866099 63.15966047525367 2.5740939410118795 63.345747112969654 2.7076721101903294 C 63.34869859944802 2.73343111537359 63.355058458153835 2.7592612181529246 63.34978804385714 2.784448775698465 C 63.3261865925391 2.903655272267119 63.256215663557974 3.014033070221588 63.15986678878865 3.087514506843519 C 63.00810264324677 3.1868196344105013 62.82490416805288 3.2154531840607374 62.6520632451273 3.258578273576721 C 62.60868576765654 3.263031604566577 62.642884335529104 3.273401299600701 62.666879916058896 3.2774357619120096 C 62.77732188909809 3.296573328247476 63.006690223963865 3.3250064655199516 63.1335589759843 3.3250064655199516 C 63.142402087040146 3.3250064655199516 63.15074745818158 3.3248682422605444 63.15851973617029 3.32457919904075 C 63.29206383184001 3.309303259200438 63.4180478642132 3.253762929288418 63.5262396806124 3.1750668556538635 C 63.56424313308381 3.1431402900513787 63.5968980944092 3.103419373862512 63.624567712724954 3.0619223228354047 C 63.695463988551076 3.2280189039657827 63.73383036219128 3.4044170898547153 63.74983475449639 3.502377888414363 C 63.758531244492175 3.5551545475247934 63.79577844096959 3.598167968988842 63.846815960958175 3.6141754253563607 C 64.39372318246035 3.781847955914804 64.82592075941818 4.531728997860837 65.23014276575539 5.0311763894204535 C 66.06097894645369 6.057739429049925 66.76715862818483 7.205724225621822 67.58058639509576 8.278694419533538 C 67.13053600181867 8.059774650937758 66.68196952261383 7.838584298619305 66.23093318214649 7.6186840300553165 C 65.30797948337035 7.1332956916277865 64.34700984890561 6.746192034504032 63.53836224630727 6.134335541844008 C 63.53701156220755 6.1332115983619335 63.53567245345468 6.131419462308934 63.53432131541979 6.13029461095652 C 63.0683813754357 5.742412455015415 62.59156957463516 5.332905054520899 62.41095762204259 4.788723713717376 C 62.33958936712297 4.346609922960706 63.254983456537744 3.550632218389026 63.15178515398126 3.517194445862164 C 63.14269033587339 3.514247612219292 63.132409612132676 3.5128128366292417 63.12106486435239 3.5128128366292417 C 62.90061703648903 3.5128128366292417 62.27845632894322 4.05456074446769 62.150994510622574 4.570516396371641 C 62.14942866125205 4.563631107706013 62.14563796212729 4.555707442337945 62.144259701465955 4.548964916283429 C 62.10925097279791 4.3776817853790995 62.069968898435086 3.9453695897907144 62.176586808114486 3.5980119287739947 C 62.18154480153011 3.5817738733398796 62.183028829086155 3.5651198998058247 62.18197456465274 3.5481744998923315 C 62.17440587658798 3.4083609920995164 62.153169654475654 3.325399913828953 62.122708448345335 3.24376171612892 C 62.092247128731216 3.162123972364057 62.05581883130132 3.0783634007745104 61.9974412363482 2.876041941912505 C 61.982612082199424 2.8242730756224055 61.92948152388172 2.7185684267640906 61.89776626510108 2.7103659884594595 C 61.98706904467064 2.6441852762969775 62.07760420148612 2.5753916849223453 62.20756686214465 2.5298735059295616 L 62.20756686214465 2.5298735059295616 C 62.16961674705577 2.566537083632496 62.14425981494975 2.619537022104899 62.144259701465955 2.680732930305754 C 62.144259701465955 2.791034864344859 62.22285040539907 2.8800824188648226 62.31936439908665 2.8800828160580965 C 62.41587839277423 2.8800828160580965 62.49446909670734 2.791034864344859 62.49446909670734 2.680732930305754 L 62.49446909670734 2.6793859344292925 C 62.493975896144626 2.5909103665950646 62.441852449744495 2.5179008523247295 62.37189581972123 2.4921586711137245 C 62.39724571583211 2.488616473123838 62.41773407975109 2.483209679679366 62.445978493476446 2.481382987811515 C 62.48489401518911 2.478888670791701 62.52299075133806 2.477682933866099 62.560250317548864 2.477682933866099 ZM 62.88239324165171 6.207071389948448 C 62.91373984833203 6.238417429209804 62.94738370742628 6.266702129681536 62.9793743346297 6.297317787253612 C 63.08222526329698 6.671951845244667 63.17748537455994 7.085474983224711 63.312073294154146 7.404517870564654 C 63.54417738280853 7.95472724346438 63.89605884825032 8.433311093686626 64.19567830358119 8.919846980225094 C 64.1223439419545 8.95919181112523 64.05888062757717 9.004014277727379 64.01114480505096 9.049154498948852 C 63.971986995441064 9.08618380654444 63.94622322393851 9.11076212634932 63.91551065120754 9.142095001490732 C 63.766979204982135 8.946577860608322 63.576282855610074 8.794949895617583 63.345747112969654 8.711068123337522 C 63.367328552779114 8.363744167007209 63.29379468664499 7.888804962268634 63.18276509452763 7.372190877399922 C 63.09697066640682 6.972993479464614 62.98993479591921 6.575332198146162 62.88239324165171 6.207071389948448 ZM 63.36595154043951 6.643486024639919 C 63.91766207694796 7.097687201115757 64.53210463827413 7.478667726725096 65.13181450667524 7.863830810995109 C 65.12317612038127 8.300920447285062 65.12344802754839 8.718088230748776 65.17222336161495 9.148830037614935 C 64.97398397151525 8.982899029337984 64.75945874930476 8.862348373987684 64.48662146903138 8.795926310169254 C 64.48493963922479 8.79551277522896 64.48329843661598 8.79533619444765 64.48168651282565 8.79533619444765 C 64.47231456729621 8.79533619444765 64.46393083863288 8.801302718328254 64.45429424889906 8.801314520642686 C 64.14282640471626 8.290350566840763 63.7898870433597 7.811836168699599 63.57203629209037 7.295414552343165 C 63.497232542316866 7.11809113309303 63.43121879318427 6.887004086188079 63.36595154043951 6.643486024639919 ZM 63.56126055204626 9.167687412466432 C 63.639891429241956 9.241140932075378 63.711475416851336 9.325957356871427 63.772733060235375 9.427650637370231 C 63.79326114348177 9.46132763373193 63.82836758169527 9.484462893629898 63.867020161460445 9.492304623699697 C 63.87677681704685 9.4942842349781 63.886604286519855 9.495271543973862 63.8963604881711 9.495271543973862 C 63.92525595841469 9.495271543973862 63.953525679025795 9.4866100069862 63.97747098623546 9.469406317960713 C 64.08120311655242 9.394307737293996 64.14446965003334 9.313852721615785 64.20645381665771 9.25523970453488 C 64.22932465931889 9.233611963338031 64.25306206422047 9.216287981492368 64.27784283911139 9.19866712604522 L 64.34923163459747 10.50656420446886 C 64.2467600822489 10.49993947459108 64.14033929391728 10.489725933255595 64.04314405702262 10.489725933255595 C 63.916316386135115 10.489725933255595 63.80519714182159 10.507117097506487 63.739059241419874 10.572565470384268 C 63.658000945900106 10.508160240528218 63.5003567511276 10.4934699905416 63.31123532982947 10.4934699905416 C 63.26260480108228 10.4934699905416 63.21189297957851 10.494441411806397 63.15986678878865 10.49578869139234 L 63.56126055204626 9.167687412466432 ZM 64.11755469893849 6.849570776290776 L 64.11755469893849 6.849570776290776 C 64.7681143851352 7.227819973979422 65.4549963748995 7.529081312821874 66.10431886078909 7.8705658471193125 C 66.10529663714628 7.87106926122336 66.1060233873542 7.871432409359732 66.10701251209065 7.871912672770085 C 66.72926820557088 8.175290257377249 67.34972813151674 8.48726718985372 67.97793900049831 8.786498076678678 C 68.45068070507665 9.357813165329217 68.96374365510681 9.88907074486199 69.45689973217135 10.429788333347274 C 69.11250910491259 10.487532518511905 68.76817385774463 10.545800544863255 68.4237827765507 10.603545637898227 C 67.74071384221831 9.860765163372417 67.05677925351586 9.11980315313949 66.37371122705382 8.377021770743337 C 66.36834208185755 8.370607212849484 66.3626143278766 8.364880820674056 66.3562006778531 8.359511675477783 C 65.63589725722807 7.813370923510944 64.84162328483495 7.359236021569995 64.11755469893849 6.849570776290776 ZM 62.59221132548241 2.25 C 62.52727238134968 2.25 62.461382670002415 2.252172677353775 62.39479412546022 2.256440841804135 C 61.8735998347215 2.290145852703951 61.494971941616896 2.5091566423941476 61.36571747656619 2.8060000855609877 C 61.3461959945603 2.8505102447658555 61.29583591607174 2.95653735782089 61.36224722730082 2.95653735782089 C 61.369236892684704 2.95653735782089 61.37752007470778 2.9553629140511024 61.38726881479966 2.9528186074206406 C 61.44266544585928 2.9458761796654307 61.48836587982301 2.9429261684763652 61.5262603311116 2.9429261684763652 C 61.726980817369274 2.9429261684763652 61.70869250699585 3.0256939271062064 61.752294682376 3.036330082085394 C 61.795552774896926 3.171916942764104 61.891201908600976 3.443130610416526 61.89776626510108 3.549521439026896 C 61.78063901858075 3.9630563793213716 61.82409729651185 4.396678745295514 61.86678621107092 4.605537267805503 C 61.938676548178464 4.957266891932774 62.16966826869762 5.366521677504926 62.47291773010292 5.74910550213635 C 62.4662091357024 5.775439416213007 62.463904620325735 5.802188000067883 62.47291773010292 5.828575932429824 C 62.617582896997675 6.271477073739668 62.786093278397004 6.870566639730337 62.90663848652526 7.431457107191126 C 63.02718380813731 7.992347574651916 63.09529655349814 8.5253310157028 63.058844878406966 8.787844448394278 C 63.04837577157051 8.859980194203363 63.09448809495954 8.927966972554389 63.16525454532691 8.945438937265623 C 63.186456495333864 8.950698684085811 63.205422814626274 8.960300320811507 63.22586782773647 8.966990417353834 L 62.78002439213546 10.445951149026884 C 62.686871107482425 10.42609239318934 62.5906575053939 10.419560266086334 62.49536505125005 10.419560266086334 C 62.3121428579435 10.419560266086334 62.13232608628579 10.443708709284781 61.98421521099582 10.443708709284781 C 61.923914633176814 10.443708709284781 61.86886948979387 10.439705908951613 61.82098959959295 10.42844105376133 C 61.805199294462604 10.42458169694203 61.78474735884105 10.422665182652322 61.76080630727361 10.422665182652322 C 61.551309069607825 10.422665182652322 61.07464652481916 10.569387924191005 61.11653007327297 10.844650580080192 C 61.18925891729958 10.783412909843653 61.24054578955149 10.76865003022976 61.29727429477221 10.76865003022976 C 61.35008670127731 10.76865003022976 61.40761535234882 10.781444646944513 61.49155185218787 10.781444646944513 C 61.495784570684876 10.781444646944513 61.50008444321617 10.78141196361224 61.50445425013466 10.78134387333667 C 61.62680509888723 10.779429174787644 61.83965677560802 10.741455682037486 62.01079039161558 10.741455682037486 C 62.09716744552769 10.741455682037486 62.17291662877747 10.751129948390457 62.2210363669741 10.779997501621068 C 62.334466027821506 10.775467228619817 62.43685927635317 10.773619712476021 62.53259738135063 10.773619712476021 C 62.94074581342856 10.773619712476021 63.22794208449792 10.807198204905728 63.733671257914025 10.809630389549085 C 64.1124318135722 10.806228599381612 64.78938601419082 10.791015416078617 65.1627946741892 10.771915639846092 C 65.37884330283178 10.773216618044646 65.4974847068551 10.797774510766855 65.60570966052174 10.797774510766855 C 65.6121042452681 10.797774510766855 65.61846206126565 10.797689170954808 65.62480171985638 10.797507596886621 C 65.68915701684367 10.795632844632596 65.75207197753508 10.770463955170941 65.8553603862229 10.770463955170941 C 65.91444458801075 10.770463955170941 65.98674011899983 10.778699247033535 66.08007372939934 10.804242179075654 C 65.96012226847405 10.640036578381643 65.6591192187436 10.475079261045343 65.44110096539636 10.475079261045343 C 65.38608266093038 10.475079261045343 65.33634906971896 10.485584228760265 65.29614357773562 10.509257855770405 C 65.21884023394595 10.501425658339185 65.13686952873356 10.498540446395705 65.05199000694881 10.498540446395705 C 64.94680596498912 10.498540446395705 64.83715406611412 10.502971761529793 64.72638003949773 10.507911484054803 L 64.65095031312416 9.148830037614935 L 64.65095031312416 9.148830037614935 C 64.8849055494037 9.246180974273061 65.06251903322776 9.396659575412182 65.2665106898076 9.639122691624179 C 65.2941212965512 9.670949902166228 65.33358051911429 9.688034660177056 65.373771031237 9.688034660177056 C 65.39445186366827 9.688034660177056 65.4153265264173 9.683510742268192 65.4348802378203 9.674143790025628 C 65.49243331627817 9.646573583512208 65.52436039255771 9.583388077459201 65.51300429639817 9.520590685976941 C 65.42055222809971 9.021684158172935 65.41045035481616 8.551012851907082 65.4160228629688 8.05105864172964 L 65.4160228629688 8.05105864172964 C 65.67519941822218 8.220955227655782 65.93073450553808 8.393279912808746 66.17301423194122 8.576372394140332 C 66.87093547111607 9.335303882031322 67.56961432809044 10.093800953964177 68.26753511333013 10.852732441855167 C 68.29437493815426 10.882072995533404 68.33180552444054 10.897698351971183 68.37080445674079 10.897698351971183 C 68.37854768287859 10.897698351971183 68.38635309813476 10.897081908009689 68.3941494346875 10.89583540203159 C 68.85019994304783 10.819369114696261 69.30660906019281 10.744666819433363 69.76265956855312 10.668199624227691 C 69.81384529837487 10.659901689311575 69.85588514238205 10.624167912692496 69.87311016636056 10.575260029556153 C 69.8903360982094 10.52635033067913 69.87951337587515 10.471023804232399 69.84482455801849 10.432481984648819 C 69.48839012281692 10.03361732119346 69.12005441531608 9.648998051257665 68.7632159778128 9.257932901901254 L 68.7632159778128 9.257932901901254 C 69.37300434183618 9.633033151312379 70.14475949829283 10.101114757430725 70.24276228585575 10.101114757430725 C 70.25386554012535 10.101114757430725 70.25632042152722 10.095106471514438 70.24891129167489 10.082272816375024 C 70.20360856166238 10.00380558280828 69.81641638718038 9.719152370047667 69.39628667672937 9.4222624268968 L 69.39628667672937 9.4222624268968 C 69.46304873799049 9.450170361177047 69.5285688326252 9.479837294242849 69.5956368461912 9.507121067663705 C 69.59804996555741 9.508670348400505 69.60121480156589 9.511107980265908 69.60371870796618 9.512508824201966 C 69.65322669339787 9.529072010701928 69.68060806288038 9.540370911029996 69.7330266806251 9.542141712129983 C 69.73455553427924 9.542193460739416 69.73610254534019 9.542222512590325 69.7376822397334 9.542222512590325 C 69.74964706295654 9.542222512590325 69.76349934861848 9.540537505237555 69.78555787429211 9.534059850355007 C 69.81052884801944 9.52672743554647 69.85250514110277 9.50580057025282 69.8758038176621 9.461324002250567 C 69.89910340209178 9.416848342118655 69.8944859735378 9.371184733645633 69.88658023860896 9.346832927490816 C 69.87867359580979 9.322481121336 69.86837380679191 9.30982677058892 69.8609873736981 9.299689036426905 C 69.83143982558212 9.25913673797333 69.81148755909946 9.247652178160543 69.78286422299057 9.225606362671693 C 69.75423907114099 9.203559185377333 69.72133331063391 9.17942390629883 69.68453641784559 9.154217340218025 C 69.61094172439863 9.103803754121248 69.52284107864426 9.04701782610147 69.44747149868078 8.996623305281851 C 69.37210282658764 8.946229238397404 69.30364032417796 8.897383544379416 69.28987700980943 8.884825881823646 C 69.28569989837081 8.880616087052745 69.28107793046512 8.876357267283433 69.27640784543136 8.872703089161183 C 68.6531521327706 8.434121821901078 68.02992547196075 7.996405301140712 67.40682818267447 7.55807142854851 C 67.40282992169301 7.555243866371678 67.39753295218884 7.557735062587195 67.39335856436124 7.555377323311795 C 66.75266447819186 6.657619750107546 66.15014543198832 5.717489144480983 65.44969713571948 4.852030647428483 C 65.09209744893532 4.410188990806507 64.68157368759414 3.637342347232468 64.01518573593846 3.379804611428259 C 63.98305915515148 3.1895515297501578 63.91048717764358 2.8383176028290364 63.65285377500219 2.5877927682152526 C 63.43373064345005 2.3747159112789675 63.11678766020868 2.2769788389237267 62.761166903800174 2.255093883164543 C 62.7056980686775 2.2516804573619593 62.64932238456803 2.25 62.59221132548241 2.25 Z"
     style="fill:#ffffff;stroke:none"
     id="path14" />
  <path
     d="M 66.56870591593437 12.120609949778773 L 66.53895682060272 15.422759531592606 L 64.79863474370083 15.452508626924262 L 64.783760196035 12.135484497444601 L 66.56870591593437 12.120609949778773 ZM 66.86619686925094 11.83799354412804 L 64.50114379038428 11.852868091793868 L 64.5160183380501 15.749999580240823 L 66.82157322625346 15.705375937243339 L 66.86619686925094 11.83799354412804 Z"
     style="fill:#ffffff;stroke:none"
     id="path16" />
  <path
     d="M 75.95506529207961 6.154519950906135 Q 75.68475283752039 6.154519950906135 75.51956157122879 6.334728374635148 Q 75.35436994286857 6.51493752250137 75.35436994286857 6.740198504748392 Q 75.35436994286857 6.93542299970899 75.51956157122879 7.123141812499725 Q 75.68475283752039 7.310858452878833 75.94004849671083 7.310858452878833 Q 76.22537774663883 7.310858452878833 76.38306043421176 7.138158607868519 Q 76.54074312178466 6.9654584007896005 76.54074312178466 6.740198504748392 Q 76.54074312178466 6.499920002995367 76.35302575726834 6.327219433847844 Q 76.16530839275202 6.154519950906135 75.95506529207961 6.154519950906135 ZM 75.95506529207961 6.019363723626526 Q 76.22537774663883 6.019363723626526 76.45814730760455 6.229606824298941 Q 76.69091614443306 6.439850649108564 76.69091614443306 6.740198504748392 Q 76.69091614443306 7.010510597239005 76.48818270868517 7.235770855348818 Q 76.28544782466284 7.461032199664444 75.94004849671083 7.461032199664444 Q 75.62468203535917 7.461032199664444 75.42194715133687 7.2207536979114195 Q 75.21921371558895 6.980475196158395 75.21921371558895 6.740198504748392 Q 75.21921371558895 6.454867444477358 75.42194715133687 6.23711540301764 Q 75.62468203535917 6.019363723626526 75.95506529207961 6.019363723626526 ZM 75.95506529207961 2.25 Q 75.6697345938772 2.25 75.62468203535917 2.8356777844464727 L 75.62468203535917 5.4036504928408675 Q 75.63970064107099 5.703998348480695 75.45949149320478 5.959294369739723 Q 75.30180880563185 6.0193640856951305 75.15163469677765 6.0193640856951305 Q 75.00146094999204 6.0193640856951305 74.85879578192512 5.959294369739723 L 72.42598016072327 5.1633727152250515 Q 72.22324477885661 5.116587477400536 72.08169005257021 5.116587477400536 Q 71.81430994072238 5.116587477400536 71.76521469954427 5.283511241964355 Q 71.6751108327764 5.553824239626479 72.23075399119537 5.779085221873501 L 74.67858663405889 6.5599889948135655 Q 74.96391733226133 6.650093749780979 75.14412611805895 6.920406928477405 Q 75.14412611805895 7.250788374854821 74.94890053689252 7.491066876607846 L 73.4471618017963 9.563465740868821 Q 73.13179724130482 10.074057783386877 73.3570572278632 10.22423080603528 Q 73.41749317621198 10.268550175629315 73.4898196385646 10.268550175629315 Q 73.68707407115595 10.268550175629315 73.97277045864885 9.938900469901455 L 75.47450901271077 7.8665016056404795 Q 75.63970064107099 7.6112063085186605 75.95506529207961 7.506084758182453 Q 76.25541314771945 7.596188426944053 76.43562084731124 7.8665016056404795 L 77.93735940137319 9.938900469901455 Q 78.22305542679749 10.268550175629315 78.41226958292452 10.268550175629315 Q 78.48164844476847 10.268550175629315 78.53805511265284 10.22423080603528 Q 78.76331537076265 10.05903917767506 78.46296787719143 9.548447859294214 L 76.94621325189792 7.476050081239052 Q 76.75098622245707 7.235770855348818 76.76600374196309 6.920406928477405 Q 76.94621325189792 6.650093749780979 77.24656074546914 6.5599889948135655 L 79.67937645718814 5.779085221873501 Q 80.23501924788118 5.553824239626479 80.14491485498237 5.29852894250466 Q 80.08484550109557 5.118320337741345 79.81119622227791 5.118320337741345 Q 79.67437122080048 5.118320337741345 79.48415051395313 5.1633727152250515 L 77.0363154723851 5.959294369739723 Q 76.8936510284554 6.011855144907827 76.74723157102912 6.011855144907827 Q 76.60081211360287 6.011855144907827 76.45063836681726 5.959294369739723 Q 76.25541314771945 5.703998348480695 76.27042994308823 5.4036504928408675 L 76.27042994308823 2.8356777844464727 Q 76.22537774663883 2.25 75.95506529207961 2.25 Z"
     style="fill:#ffffff;stroke:none"
     id="path18" />
  <path
     d="M 75.95506467856467 12.878848205320537 C 76.76058078902817 12.878848205320537 77.76884518005235 13.2926455512671 78.25673190038651 13.78053227160126 C 78.68358218159143 14.207382190737576 78.73938491904362 14.773305557384845 78.75503098964691 15.299158067442477 L 73.17882689554244 15.299158067442477 C 73.19447314718005 14.773305557384845 73.25027588463223 14.207382190737576 73.67712598480284 13.78053227160126 C 74.1650128861713 13.2926455512671 75.14954893016977 12.878848205320537 75.95506467856467 12.878848205320537 ZM 75.95506467856467 12.428006172180176 C 74.99946407122656 12.428006172180176 73.97125603629877 12.869460490544839 73.3686551200226 13.472061406821012 C 72.75057961930023 14.090137135250586 72.68052780628204 14.903828392733544 72.68052780628204 15.512714819982648 L 72.68052780628204 15.750000100582838 L 79.22960155084729 15.750000100582838 L 79.22960155084729 15.512714819982648 C 79.22960155084729 14.903828392733544 79.18327849359633 14.090137135250586 78.56520276516676 13.472061406821012 C 77.96260221095919 12.869460490544839 76.91066546693709 12.428006172180176 75.95506467856467 12.428006172180176 Z"
     style="fill:#ffffff;stroke:none"
     id="path20" />
  <path
     d="M 86.20888946621781 2.9386859086427717 Q 86.2585437218976 2.9386859086427717 86.30832083048767 2.939857121442976 Q 86.33388218513255 2.939556402811849 86.35941101988942 2.939556402811849 Q 88.22302246111816 2.939556402811849 89.91337733363112 4.542105229022589 L 88.86746546861355 5.387735956384803 Q 87.88831837902151 4.453090888214528 86.30832083048767 4.453090888214528 Q 84.72832761793889 4.453090888214528 83.7491742050353 5.387735956384803 L 82.70326224968471 4.542105229022589 Q 84.37168706471489 2.9386859086427717 86.20888946621781 2.9386859086427717 ZM 86.30832083048767 5.098441923249741 Q 88.06634308598466 5.120695463285245 89.20126911114424 6.945476532228296 L 83.39311937112768 6.945476532228296 Q 84.28325844322322 5.120695463285245 86.30832083048767 5.098441923249741 ZM 86.30832083048767 2.25 Q 83.54889306737994 2.361266909763575 81.65735101699829 4.519850966322906 L 83.23734567487543 5.855056864475539 Q 82.5697419128019 6.745194491242716 82.41396826171615 7.524067489155131 L 90.18041836872881 7.524067489155131 Q 90.02464376914632 6.745194491242716 89.35704298806255 5.877312030505443 L 90.82577121042446 4.542105229022589 Q 89.0677482322633 2.361266909763575 86.30832083048767 2.25 Z"
     style="fill:#ffffff;stroke:none"
     id="path22" />
  <path
     d="M 86.25713744338398 9.53503599139539 Q 86.8646150941714 9.53503599139539 87.49545683917007 9.799833967217165 L 86.29607856395498 11.014789720457102 L 85.06554695868459 9.799833967217165 Q 85.64966015392866 9.53503599139539 86.25713744338398 9.53503599139539 ZM 83.63252295370677 11.123823484993956 L 84.84747798428253 12.338778425236693 L 83.63252295370677 13.553734810807786 Q 83.10292702464648 12.292049875482093 83.63252295370677 11.123823484993956 ZM 88.88175256539236 11.186129422440388 Q 89.41134833636987 12.447813635101904 88.88175256539236 13.616040025590038 L 87.66679726381753 12.401085085347303 L 88.88175256539236 11.186129422440388 ZM 87.93159478797419 10.15809012654441 Q 88.30542788332816 10.329429918860717 88.52349613506604 10.749991292970215 L 86.87240288468709 12.416661027710777 L 88.50792019270257 14.05217725172999 Q 88.30542788332816 14.457162231810901 87.90044290324725 14.644078598821839 L 86.26492523389967 13.008562013470538 L 84.66056143660555 14.612925991430714 Q 84.2555767275237 14.363704409637522 84.06866027017975 14.00544797931121 L 85.67302406747388 12.416661027710777 L 83.99077839036984 10.734414627942563 Q 84.16211818268614 10.329429918860717 84.59825622182329 10.15809012654441 L 86.26492523389967 11.824759138620793 L 87.93159478797419 10.15809012654441 ZM 86.29607856395498 13.771803062545672 L 87.51103350419773 14.98675800278841 Q 86.91913251843796 15.251556610941343 86.31165486765055 15.251556610941343 Q 85.70417739752918 15.251556610941343 85.08112362371224 14.98675800278841 L 86.29607856395498 13.771803062545672 ZM 86.26492523389967 9.0210163434474 Q 84.66056143660555 9.0210163434474 83.73376910839397 10.064631491373829 Q 82.80697605751823 11.108247542630481 82.80697605751823 12.354355090264345 Q 82.80697605751823 13.75622639751802 83.88953223568264 14.745323850178822 Q 84.97208913651122 15.734422748167981 86.23377334917274 15.749999051863544 Q 87.7602550859909 15.734422748167981 88.71820029259268 14.698596023088399 Q 89.67614622185862 13.66276857534464 89.67614622185862 12.354355090264345 L 89.67614622185862 12.354355090264345 L 89.66057064082723 12.385507697655472 Q 89.67614622185862 11.20170608746804 88.71820029259268 10.11136085412563 Q 87.7602550859909 9.0210163434474 86.26492523389967 9.0210163434474 Z"
     style="fill:#ffffff;stroke:none"
     id="path24" />
  <path
     d="M 40.9532527923584 0.375 C 31.328252851963043 0.375 31.328252851963043 17.625 40.9532527923584 17.625 "
     style="fill:none;stroke:#ffffff;stroke-width:1"
     id="path26" />
  <path
     d="M 40.9532527923584 0.375 L 90.82576942443848 0.375 "
     style="fill:none;stroke:#ffffff;stroke-width:1"
     id="path28" />
  <path
     d="M 40.9532527923584 17.625 L 90.82576942443848 17.625 "
     style="fill:none;stroke:#ffffff;stroke-width:1"
     id="path30" />
  <path
     d="M 98.51326942443848 0.375 L 98.51326942443848 17.625 "
     style="fill:none;stroke:#ffffff;stroke-width:1"
     id="path32" />
  <path
     d="M 90.82576942443848 0.375 C 100.45077133178711 0.375 100.45077133178711 17.625 90.82576942443848 17.625 "
     style="fill:none;stroke:#ffffff;stroke-width:1"
     id="path34" />
</svg>
