<?xml version="1.0" encoding="UTF-8" standalone="no"?>
<svg
   width="80.6585693359375"
   height="18.0"
   version="1.1"
   id="svg32"
   sodipodi:docname="hudjefa.svg"
   inkscape:version="1.1.1 (3bf5ae0d25, 2021-09-20)"
   xmlns:inkscape="http://www.inkscape.org/namespaces/inkscape"
   xmlns:sodipodi="http://sodipodi.sourceforge.net/DTD/sodipodi-0.dtd"
   xmlns="http://www.w3.org/2000/svg"
   xmlns:svg="http://www.w3.org/2000/svg">
  <defs
     id="defs36" />
  <sodipodi:namedview
     id="namedview34"
     pagecolor="#ffffff"
     bordercolor="#666666"
     borderopacity="1.0"
     inkscape:pageshadow="2"
     inkscape:pageopacity="0.0"
     inkscape:pagecheckerboard="0"
     showgrid="false"
     inkscape:zoom="17.047166"
     inkscape:cx="40.299954"
     inkscape:cy="9.0044294"
     inkscape:window-width="1920"
     inkscape:window-height="1001"
     inkscape:window-x="-9"
     inkscape:window-y="-9"
     inkscape:window-maximized="1"
     inkscape:current-layer="svg32" />
  <path
     d="M 1.2190420140847793 0.0 C 0.970800706632417 0.0 0.7230423028937335 0.01893070358296025 0.48290982680079 0.048905678499779795 C 0.15187998957905166 0.13255188916498697 0.3219916247400915 0.5118521231009919 0.6158947927962716 0.5118521231009919 C 0.6355981423211179 0.5118521231009919 0.6558578408244597 0.5101473851910305 0.6765601864318946 0.5065345630073116 C 1.2976180869590601 0.5780119512905144 2.0622053316712337 0.6175539511807123 2.531371224901928 0.9695623988344474 C 3.1537543888207784 1.6479367557428735 2.8741262715941502 3.0576933712068692 2.94658764204448 3.7269297850416896 C 2.951782632395561 3.7629649381631523 2.953952713884158 6.430591781037886 2.953952713884158 7.782422252231933 C 2.352510186605274 7.494257626556917 1.67335422808609 7.349215125535265 1.0039192969246102 7.349215125535265 C 0.7063920462481148 7.349215125535265 0.41078504023889434 7.377865539465801 0.12477432975315178 7.4353349446232855 C -0.20149863151174055 7.606724672263251 0.18154647682350566 7.8266562324049085 0.4376378670454302 7.8266562324049085 C 0.4681373192956425 7.8266562324049085 0.4968360674978842 7.823536850015894 0.5223214865886322 7.816844331348357 C 1.429843884416301 7.914926816832979 2.4617098179841825 8.158078494744517 2.9226503683594482 9.002292523011262 C 2.9681809889039896 9.155077638776014 2.9396896697969415 9.207577525716367 2.870237404087557 9.207577525716367 C 2.717627362869183 9.207577525716367 2.3672466519332462 8.954092059534803 2.1698535251191053 8.954092059534803 C 2.1594948014573196 8.954092059534803 2.1495575210365625 8.954790250504107 2.140092081444407 8.956259682604495 C 1.7610785167129768 8.874396440250864 1.3638924072290621 8.831466124503471 0.9703996331480379 8.831466124503471 C 0.6822712691518855 8.831466124503471 0.39612316158451694 8.854483949517657 0.1205398348885778 8.90208807080806 C -0.19080937123302597 9.107627344268586 0.19133570335568265 9.296978982841198 0.44461121617263977 9.296978982841198 C 0.47243301123084086 9.296978982841198 0.4986997685303211 9.294694058069421 0.5223214865886322 9.289895224364907 C 1.44862453664532 9.401605077048192 2.473672484380784 9.652726246647584 2.9226503683594482 10.498359836231193 C 2.9277747669676573 11.438445880183364 2.9223641381582497 12.059730482053933 2.9475081443234266 12.924290385186742 C 2.9366830234749024 13.190445840004433 3.1097205941872907 13.32271720601211 3.2850258807391146 13.32271720601211 C 3.4589948410141766 13.32271720601211 3.635197450466691 13.192454719453337 3.636159394664339 12.93350313443563 C 3.6297524037925992 12.081649745019838 3.5689455193688686 11.333930766029841 3.680643079957625 10.507654766912083 C 3.905950499841305 9.580679119782916 5.51430012614692 9.438421656179063 6.5132119200872856 9.209440304841713 C 6.73117182826633 8.953197897458422 6.302254993763335 8.858046549715155 6.0257896324592775 8.858046549715155 C 5.984500135730289 8.858046549715155 5.946610983551 8.860169218839136 5.914784994799312 8.86419400179096 C 5.786745621336966 8.854375779085794 5.657882677541108 8.84931073373403 5.528823762638173 8.84931073373403 C 4.87588245171773 8.84931073373403 4.21792069818853 8.978947377079876 3.636159394664339 9.278489565451865 C 3.6124626948293947 8.719755569414783 4.162693019870619 8.398265319455419 4.5568162027996815 8.173701395689454 C 5.178845705598769 7.90617273831141 5.863655500797704 7.879904181098088 6.5132119200872856 7.736389411825166 C 6.745102634598536 7.535056141910107 6.380132787867637 7.365650007124583 6.127413645979344 7.365650007124583 C 6.0940901289112 7.365650007124583 6.06271789404902 7.368595192973972 6.034923712303174 7.3748016471035225 C 5.875700348626306 7.359480780481324 5.715556482670491 7.35166300836024 5.555429474444318 7.35166300836024 C 4.887519202007935 7.35166300836024 4.219896213380853 7.487670468699637 3.6205083975033348 7.782422252231933 C 3.6327889023442115 5.672151988401518 3.6669749732456607 3.6298724602408705 3.6064121746990256 1.633623314068084 C 3.557780785508615 1.016382811297887 3.202148013782708 0.4498605441665941 2.6039100355477967 0.2652764822581205 C 2.1742288083663857 0.06980961445750675 1.6957449806778964 0.0 1.2190420140847793 0.0 Z"
     style="fill:#ffffff;stroke:none"
     id="path2" />
  <path
     d="M 3.29314921521244 15.21501288860129 C 4.074491287174412 15.21501288860129 5.052497037940845 15.616391919330065 5.5257419749406465 16.089636856329868 C 5.939782214238027 16.503676744424546 5.993910276899555 17.05261639954012 6.009086799211701 17.562687749346416 L 0.6002280514165623 17.562687749346416 C 0.615404749330059 17.05261639954012 0.6695328119915868 16.503676744424546 1.0835728756876173 16.089636856329868 C 1.5568179882887687 15.616391919330065 2.5118074944531683 15.21501288860129 3.29314921521244 15.21501288860129 ZM 3.29314921521244 14.777700904737003 C 2.3662267752924526 14.777700904737003 1.3688759017560481 15.205906904973462 0.7843594130436309 15.79042339368588 C 0.1848327417701466 16.38995028583294 0.11688322714550736 17.179222163577567 0.11688322714550736 17.769835531176867 L 0.11688322714550736 17.999999733210704 L 6.469415203279373 17.999999733210704 L 6.469415203279373 17.769835531176867 C 6.469415203279373 17.179222163577567 6.42448232973169 16.38995028583294 5.824955437584633 15.79042339368588 C 5.240439300074916 15.205906904973462 4.220071830733778 14.777700904737003 3.29314921521244 14.777700904737003 Z"
     style="fill:#ffffff;stroke:none"
     id="path4" />
  <path
     d="M 19.59558827849137 2.2331113889984504 Q 20.011497239301697 2.2331113889984504 20.406868373464476 2.6849636002931274 Q 17.14505908393548 6.568070899826414 16.329606932707488 7.024335296803508 Q 15.721254175199014 7.364724151693918 15.258781670883675 7.364724151693918 Q 15.101344397401952 7.364724151693918 14.960813057159163 7.325276517725049 Q 14.407469963604743 7.169951972435412 13.776464255096982 7.150536917736989 Q 13.760688966903167 7.150051524254103 13.744834947749503 7.150051524254103 Q 13.12652956999073 7.150051524254103 12.38825395561615 7.88832679632016 L 12.291175943655867 7.88832679632016 Q 12.815395428237089 6.665148911786697 13.75704954270708 6.140928742588433 Q 14.698701945634467 5.6167096003157315 19.2807685008913 2.2966530928403377 Q 19.439622247033235 2.2331113889984504 19.59558827849137 2.2331113889984504 ZM 13.822576293662692 0.46382689862325743 Q 13.87160069312572 0.46382689862325743 13.922081273037408 0.4715931515608784 L 13.922081273037408 5.461385397334616 Q 12.38825395561615 6.354500505824466 11.805788280014095 7.965988384347936 Q 12.698902703886905 1.79184917642032 13.058089773520756 1.0928900062739073 Q 13.381357725420997 0.46382689862325743 13.822576293662692 0.46382689862325743 ZM 9.823471846940608 8.280349468529765 Q 9.763159224955167 8.280349468529765 9.708909828226425 8.383422671928184 Q 9.611832586460313 8.567870141573977 9.883650198408658 8.897933602234632 Q 10.038974144658383 8.4902085535462 9.922481420308197 8.344591877914295 Q 9.871087133376625 8.280349468529765 9.823471846940608 8.280349468529765 ZM 9.850515161454094 8.003054920244196 Q 9.964842185368557 8.003054920244196 10.097221020296256 8.179560147583969 Q 10.388454200405805 8.567870141573977 9.922481420308197 9.732803546629212 Q 9.398261764572714 8.723195371480656 9.602124802379711 8.257221735611745 Q 9.713322784103013 8.003054920244196 9.850515161454094 8.003054920244196 ZM 14.931688078951879 9.926958201315696 L 14.931688078951879 10.218190867962463 Q 14.718118369566973 10.198775813264039 14.601625302908268 10.082282061988291 Q 14.640456096922156 10.024035528658937 14.756948478963821 9.926958201315696 ZM 15.378245975505326 10.587085807254049 L 17.183890562566404 10.839488364503968 L 17.552786186475032 11.499616655059363 Q 16.931489374550573 11.32487637045426 16.183991626309666 11.033644388424536 Q 15.43649319345172 10.742411037160727 15.378245975505326 10.587085807254049 ZM 11.39806151978306 10.315268879922746 L 11.747541404376221 10.490008479910806 L 11.864034128726408 11.32487637045426 L 11.553386065072697 12.276239381507548 L 11.067997716813883 12.276239381507548 L 11.39806151978306 11.32487637045426 L 11.39806151978306 10.315268879922746 ZM 12.232929752635034 10.606502231186555 L 12.562994240221252 10.703579558529796 L 12.679486964571439 11.32487637045426 L 12.368838216300684 12.276239381507548 L 11.883450552658914 12.276239381507548 L 12.21351435562809 11.32487637045426 L 12.232929752635034 10.606502231186555 ZM 13.37844604914072 10.72299461322822 L 13.494939115799427 11.32487637045426 L 13.184290367528675 12.276239381507548 L 12.698902703886905 12.276239381507548 L 13.028966164547558 11.32487637045426 L 13.028966164547558 10.742411037160727 L 13.37844604914072 10.72299461322822 ZM 12.635970993829574 8.307902566008263 Q 12.94616549869286 8.307902566008263 13.300783776495901 8.383422671928184 Q 14.349222745658347 8.606700935587865 14.621040357606692 9.441570195365404 L 15.43649319345172 9.441570195365404 L 15.747140914796912 8.936765765482605 Q 19.863233149567787 9.888126722684765 20.387455372617175 12.373316708850789 Q 19.261352076958786 11.752018527692242 18.018759137726903 11.538448133690293 L 17.475123229213175 10.451177001279875 L 15.319998757558931 10.159943650016068 L 15.378245975505326 9.635724850051886 L 14.640456096922156 9.635724850051886 Q 13.825002918768604 10.30727392210448 12.976631641685719 10.30727392210448 Q 12.794837747695311 10.30727392210448 12.611532561584353 10.276437401291815 Q 11.572801804388162 10.101698485920798 11.252445186459676 9.567771131681843 Q 10.93208856853119 9.033843092825846 11.592216516778063 8.596994435164216 Q 12.029066885982298 8.307902566008263 12.635970993829574 8.307902566008263 ZM 14.014203342229544 0.0 Q 13.306659502260182 0.0 12.902764885922597 0.4910087625106481 Q 12.407668668006053 1.0928900062739073 11.980527880002157 3.655740467965014 L 11.300984192439817 8.101897190322108 Q 10.97091987600786 8.451378444149354 10.7961802760198 8.4902085535462 L 10.563193800393865 8.4902085535462 Q 10.543778232232661 8.004819862978866 10.194298176485239 7.597094129673393 Q 9.883650198408658 4.626517849099683 10.466115788433582 2.3937311048006213 L 10.233129483961907 1.9471738928642175 Q 9.398261764572714 4.471192276884482 9.825403408347913 7.616509184371816 L 9.767156618287169 7.616509184371816 Q 8.427485014569381 4.607101425167175 9.378846196411509 1.9471738928642175 L 9.145859806362706 1.5976940082710553 L 9.145859806362706 1.5976940082710553 Q 7.90326545510817 4.4323618251791155 9.41767741831105 7.752417990345988 Q 8.99053577453585 8.684363892849726 9.330307190431368 9.286245650075767 Q 9.670079376521057 9.888126722684765 9.747741050125965 10.412346207265987 L 9.883650198408658 10.509424219226272 Q 10.407869083949969 9.732803546629212 10.485531356594787 9.16975258341706 L 10.679686695898312 9.16975258341706 Q 10.699102264059515 9.616309110736422 10.93208856853119 10.101698485920798 L 11.067997716813883 11.32487637045426 L 10.737933400381925 12.276239381507548 L 9.048781837190987 12.276239381507548 L 9.048781837190987 12.742211648142375 L 13.922081273037408 12.742211648142375 L 13.922081273037408 12.276239381507548 L 13.51435451280637 12.276239381507548 L 13.825003261077125 11.32487637045426 L 13.84441900039259 10.606502231186555 Q 14.19389820036871 10.490008479910806 14.368638484973811 10.33468393462117 Q 14.621040357606692 10.567671437172667 14.931688078951879 10.567671437172667 Q 14.912273708870499 10.76182609185915 15.009351720830782 10.89773421321628 Q 15.785971708810798 11.499616655059363 17.78577231979245 11.946173182378724 L 18.465315665046262 13.266429763489512 Q 18.465315665046262 12.942390932799807 18.666445882775246 12.942390932799807 Q 18.73044046079052 12.942390932799807 18.81479623425647 12.97519504299162 L 18.27116032574274 12.00442040032512 L 18.27116032574274 12.00442040032512 Q 19.39726088293296 12.256823642192083 19.97972758546058 12.645134320799134 Q 20.290376676039852 12.97519504299162 19.94089679144669 13.44116867886053 Q 20.71751746404375 13.11110658743396 20.814596160621075 12.509224145590878 Q 20.503945700807716 9.577479001339576 15.552985575493386 8.431961335599805 L 15.203506375517266 9.014428722744466 L 14.892857284937993 9.014428722744466 Q 14.640456096922156 8.198975202282393 12.893057700881908 7.88832679632016 Q 13.283009064230479 7.599008318923254 13.852256838599681 7.599008318923254 Q 14.161630487629424 7.599008318923254 14.523962345646407 7.684463587358902 Q 14.891470935427632 7.771140212597752 15.241644337084495 7.771140212597752 Q 15.87195550160299 7.771140212597752 16.446100683983236 7.490308248055377 Q 17.339214423239 7.053458905776705 20.989335075992095 2.665548716748965 Q 20.31660024722249 1.8173165880798985 19.56675152405883 1.8173165880798985 Q 19.321111613951302 1.8173165880798985 19.067196737655266 1.9083427565418083 L 14.349222745658347 5.286645797346556 L 14.349222745658347 0.025035944973045218 Q 14.173971736739798 0.0 14.014203342229544 0.0 Z"
     style="fill:#ffffff;stroke:none"
     id="path6" />
  <path
     d="M 14.787816725437374 15.285542133461169 C 15.549371373096287 15.285542133461169 16.502609207919512 15.676756272943992 16.963869255453197 16.13801632047768 C 17.367423959429352 16.541570682145313 17.42018123331472 17.07660848522664 17.434973411436005 17.573762319663377 L 12.163093570676018 17.573762319663377 C 12.177885919951562 17.07660848522664 12.230643193836931 16.541570682145313 12.634197726658826 16.13801632047768 C 13.095457945346773 15.676756272943992 14.02626242008698 15.285542133461169 14.787816725437374 15.285542133461169 ZM 14.787816725437374 14.859305039952915 C 13.884368520776045 14.859305039952915 12.912275476840618 15.276666758126694 12.34256182057423 15.846380414393082 C 11.758218113396996 16.430724336850286 11.69198941469321 17.200007968606588 11.69198941469321 17.775664100798863 L 11.69198941469321 17.99999941317163 L 17.883644036181536 17.99999941317163 L 17.883644036181536 17.775664100798863 C 17.883644036181536 17.200007968606588 17.839849083994995 16.430724336850286 17.25550516153779 15.846380414393082 C 16.685791847579925 15.276666758126694 15.691265101252963 14.859305039952915 14.787816725437374 14.859305039952915 Z"
     style="fill:#ffffff;stroke:none"
     id="path8" />
  <path
     d="M 32.370483461062214 2.771662648311301 Q 33.066033837895986 2.771662648311301 33.066033837895986 3.6885247976617497 Q 33.066033837895986 4.494730680197452 32.370483461062214 5.285129145019644 Q 31.67493299468576 4.494730680197452 31.67493299468576 3.6885247976617497 Q 31.67493299468576 2.771662648311301 32.370483461062214 2.771662648311301 ZM 32.370483461062214 6.296838263074965 Q 32.860530691919045 6.296838263074965 32.860530691919045 7.355972051923285 Q 32.860530691919045 7.956673803512528 32.370483461062214 8.462528720710925 Q 31.88043694654685 7.956673803512528 31.88043694654685 7.355972051923285 Q 31.88043694654685 6.296838263074965 32.370483461062214 6.296838263074965 ZM 32.370483461062214 9.490046778705384 Q 32.860530691919045 9.490046778705384 32.860530691919045 10.549179851212234 Q 32.860530691919045 11.149882319142948 32.370483461062214 11.655738310853552 Q 31.88043694654685 11.149882319142948 31.88043694654685 10.549179851212234 Q 31.88043694654685 9.490046778705384 32.370483461062214 9.490046778705384 ZM 32.370483461062214 2.25 Q 31.105846436694275 2.25 31.105846436694275 3.6885247976617497 Q 31.09003875035271 4.5895785891005065 31.5247578254165 5.103336901756264 Q 31.959476273681503 5.61709539349739 31.91205240877266 5.790983345876569 Q 31.358773537122737 6.4391097682588105 31.358773537122737 7.355972051923285 Q 31.358773537122737 8.114753890464776 32.006900049047665 8.984191503336252 Q 31.358773537122737 9.632317925718494 31.358773537122737 10.549179851212234 Q 31.358773537122737 11.307962406095196 32.006900049047665 12.161592153539742 Q 32.085940271609154 12.367095478602044 31.564277488983826 13.125878033485007 Q 31.042614840672528 13.884659155685027 30.489336013793945 15.749999453867837 L 31.184886480170398 15.749999453867837 Q 31.532661310416547 14.516978070811074 31.801396903070728 13.987411892728385 Q 32.070132406182225 13.457844998304225 32.370483461062214 13.125878033485007 Q 32.68664291862524 13.457844998304225 32.9474743099379 13.987411892728385 Q 33.2083055221652 14.516978070811074 33.55608053149671 15.749999453867837 L 34.26743877375741 15.749999453867837 Q 33.745775991132085 13.884659155685027 33.20040141036636 13.125878033485007 Q 32.655026650515275 12.367095478602044 32.74987455941833 12.161592153539742 Q 33.382193295459004 11.307962406095196 33.382193295459004 10.549179851212234 Q 33.382193295459004 9.632317925718494 32.781490648442926 8.984191503336252 Q 33.382193295459004 8.114753890464776 33.382193295459004 7.355972051923285 Q 33.382193295459004 6.4391097682588105 32.84472228923602 5.790983345876569 Q 32.797298334784486 5.61709539349739 33.22411320850676 5.103336901756264 Q 33.65092808222903 4.5895785891005065 33.65092808222903 3.6885247976617497 Q 33.65092808222903 2.25 32.370483461062214 2.25 Z"
     style="fill:#ffffff;stroke:none"
     id="path10" />
  <path
     d="M 36.887589081039586 2.657468350546833 C 36.77606979221491 2.657468350546833 36.501932206370796 2.789590957187499 36.75899260488626 2.790750501318198 C 36.800969691233014 2.7909398282267297 36.893612771177715 2.8035015355132895 36.96224710288248 2.8035015355132895 C 37.04411202485776 2.8035015355132895 37.09181957754977 2.7856300236461644 36.97865024981577 2.707575056152906 C 36.95125823970247 2.688682210461991 36.92651131616098 2.658570414495724 36.891534334386606 2.657525955504723 C 36.89024348422554 2.6574873996953627 36.88892801158428 2.657468350546833 36.887589081039586 2.657468350546833 ZM 36.93074821280384 2.5690206584016795 C 36.935274423588986 2.5690206584016795 36.938458293283205 2.569215205109644 36.94012155845723 2.569598226089579 C 37.13831655269352 2.6152389669621297 37.29462014015941 2.7820600967540177 37.50055175058852 2.8394382117269164 C 37.673843767996686 2.887722021957966 37.95845651389092 2.952075203102768 37.89900370540938 3.2057203554758282 C 37.81966857690608 3.5441901184909317 37.59207617136542 3.8717799894377025 37.66341847678737 4.226025608429497 C 37.70805969885448 4.447687656341422 37.95531282209513 4.467081020489558 38.1549805068361 4.467081020489558 C 38.18821686226556 4.467081020489558 38.22013458405969 4.466543651496099 38.249579909379584 4.466312399823992 C 39.55402184588235 4.456068616222064 40.58976148426811 4.401114235051395 41.420730927996686 4.401114235051395 C 42.783316688696004 4.401114235051395 43.59531750605982 4.548875236018336 44.13860587685195 5.28381650787964 C 45.039624945792205 6.502682182621961 44.73124768004267 7.721859963937574 44.50711855943601 9.260848492955176 C 44.569849318777656 8.352772088812902 44.87104480597932 6.922315126926775 43.93753537621227 5.686870204607326 C 43.54314113958041 5.164912221861426 42.87459688108826 4.9456488693512615 42.259423512101215 4.790472176274591 C 41.9771540610283 4.719270119168888 41.599737357227546 4.694425038442844 41.18358450103579 4.694425038442844 C 40.22232021230877 4.694425038442844 39.054380148599165 4.826987647140925 38.37501597374212 4.826987647140925 C 38.21339933751753 4.826987647140925 38.07943291471208 4.819485443614292 37.982477074266626 4.800911608773209 C 37.720739777050895 4.750770589744565 37.53398991053473 4.428340708895819 37.55701276135819 4.160896652790424 C 37.58754363859211 3.80623611173371 37.8671909618923 3.476999279687638 37.76223747369033 3.118852328529712 C 37.715554415816186 2.9595492072348524 37.57664286732604 2.9236779136882314 37.425503595529015 2.9236779136882314 C 37.31734236380913 2.9236779136882314 37.20291887008219 2.9420489873959474 37.11155374677008 2.946699641526951 C 37.01294770104719 2.9517188842043964 36.91611530573893 2.965772705472406 36.82149019932253 2.965772705472406 C 36.69642754818161 2.965772705472406 36.57522047797672 2.9412235520210106 36.458869817662176 2.838821526737287 C 36.23727741560006 2.6437946388168436 36.842008960546906 2.5690206584016795 36.93074821280384 2.5690206584016795 ZM 36.96071984363791 2.25 C 36.953921377214165 2.25 36.947056446730706 2.250165074857329 36.94012155845723 2.250502923646177 C 36.652399143045585 2.264519966839058 36.363156289481864 2.352963791250605 36.114036162521174 2.497788655036279 C 35.85387359665023 2.649032988294408 36.062879143846246 2.94224080982612 36.23892814077784 3.07162483101746 C 36.40103285944347 3.1907606182599455 36.58312583302453 3.30220545735565 36.787137264326624 3.30220545735565 C 36.826478996635956 3.30220545735565 36.86663576631338 3.298061144565696 36.9076215482801 3.2890283544323085 C 37.011685549385 3.266093845074958 37.19547938733282 3.222797043700152 37.32108681084807 3.222797043700152 C 37.39493012805908 3.222797043700152 37.44866336730654 3.2377610233028253 37.4542643160786 3.28062343754391 C 37.50037723044173 3.6335089140570602 37.12426485261891 4.061685359885428 37.275992069314654 4.469456923460326 C 37.400404137963655 4.803818392381168 37.68519073853224 5.107388118872503 38.065923657858264 5.134841851554408 C 38.23261784878266 5.146861947460719 38.39908777549554 5.151957137180119 38.56539482782929 5.151957137180119 C 39.44271592415802 5.151957137180119 40.31550498681778 5.010158769255146 41.192775673609354 4.995108943708007 C 41.22077143359178 4.994632132706382 41.24854193115404 4.99439638909532 41.27608783176857 4.99439638909532 C 42.95693112750024 4.99439638909532 43.802531648244525 5.872227570047565 43.99524115317669 6.417503041538723 C 44.18189020061855 6.945631284727159 44.316530580635295 7.498833531160213 44.269271389998195 8.0611487571554 C 44.212409432084804 8.737733253640084 44.11295590721248 9.420376876670204 44.16837179351871 10.097300764098126 C 44.21725274048653 10.69440921829083 44.42467384459937 11.273565888003606 44.56634028261356 11.852739194527327 C 44.59943356146892 11.988034399422792 44.69530751009875 12.055686327441371 44.785058446829126 12.055686327441371 C 44.8831437603695 12.055686327441371 44.97391553181933 11.974886660470768 44.967435826693254 11.8132740170808 C 44.93801462474923 11.06707910719333 44.7662828074713 10.42940877697674 44.78599210465924 9.741099987084311 C 44.80293104008896 9.149539576604877 44.954428502425586 8.580066196333359 44.98931323308329 7.986733632752277 C 45.02975998237545 7.298770888527463 45.22125433463634 4.9816848673262175 43.344574811723874 4.307148029532398 C 42.80450599658543 4.113030551290125 42.11945868711027 4.060428116082466 41.39322262657489 4.060428116082466 C 40.5339137063498 4.060428116082466 39.61693860477034 4.134074120715695 38.81423443736146 4.134074120715695 C 38.51408573830434 4.134074120715695 38.229914034268205 4.12377709931875 37.97070852694178 4.095482542211786 C 38.07410198138162 3.7272676585435995 38.271869409576674 3.4062148065366036 38.225827700764384 3.022228642014735 C 38.189443327968284 2.718782984541008 37.857684022647035 2.60525837770932 37.605310588102455 2.5363272660933482 C 37.36981386731467 2.472005715685351 37.21003418457035 2.25 36.96071984363791 2.25 Z"
     style="fill:#ffffff;stroke:none"
     id="path12" />
  <path
     d="M 36.62371469755013 14.44835816829382 Q 36.56960340497051 14.44835816829382 36.51856426849912 14.464870723055082 Q 36.319046273464615 14.52942089963846 36.34251899405398 14.658520732904872 Q 36.36238048686803 14.767758423481808 36.520889977691375 14.767758423481808 Q 36.549710133248055 14.767758423481808 36.583113860194615 14.764147195706496 Q 36.800236070733426 14.740674995017475 36.96454465994617 14.588102571136783 Q 36.78113018807888 14.44835816829382 36.62371469755013 14.44835816829382 ZM 36.72536099829627 14.329642044607374 Q 37.14893511473042 14.329642044607374 38.03255123718576 14.834565487449671 Q 38.47580267173781 15.064106557457086 39.0044646342193 15.064106557457086 Q 39.25968033273941 15.064106557457086 39.53480171560262 15.010610761894812 Q 40.22724580321307 14.869774308383546 40.990107532691276 14.764147195706496 Q 41.24919206960613 14.728274072110672 41.492032320336186 14.728274072110672 Q 41.964222967623236 14.728274072110672 42.37499518801184 14.863906193223748 Q 42.997020593953856 15.069292303418049 43.40779229444212 15.127973844941287 Q 43.818563994930386 15.186655516439611 44.71052529772483 15.233600957618338 Q 44.13544533296153 15.292282499141574 43.58383730893709 15.292282499141574 Q 43.032229804812985 15.292282499141574 42.28110430565438 15.16905078103496 Q 41.90554129612491 15.107435181931823 41.557852743430075 15.107435181931823 Q 41.21016315093456 15.107435181931823 40.89034801527368 15.16905078103496 Q 40.250718263852264 15.292282499141574 39.43504323798571 15.39790948184354 Q 39.231124286556444 15.424316260012802 39.03417381936075 15.424316260012802 Q 38.44332293767402 15.424316260012802 37.91518763423894 15.186655516439611 Q 37.40238588156462 14.836647688319255 36.850067153772706 14.836647688319255 Q 36.60601904457317 14.836647688319255 36.35425561429883 14.904983649217762 Q 36.13126486618119 14.893247028972908 36.15473761926433 14.658520732904872 Q 36.28383742003697 14.341639524848809 36.70634564328877 14.329902904603955 Q 36.71573452356438 14.329642044607374 36.72536099829627 14.329642044607374 ZM 37.03911266624385 13.132624427742428 Q 36.78522076396949 13.132624427742428 36.56550970967785 13.907395233746268 Q 36.38169114526976 13.22318211899199 36.09124209301841 13.22318211899199 Q 36.04789153524799 13.22318211899199 36.00216561780267 13.23842406981125 Q 35.650075613183056 13.461414289905104 36.2368919138707 14.095176608535919 Q 35.767438769340515 14.365112245438171 35.767438769340515 14.775883945926434 Q 35.767438769340515 15.186655516439611 36.45988266198834 15.233600957618338 Q 36.673988475730596 15.17744197255433 36.8781221460011 15.17744197255433 Q 37.35656043569758 15.17744197255433 37.780220335688156 15.485931989091025 Q 38.14287304995078 15.749999510833478 38.93014695993628 15.749999510833478 Q 39.45499545340944 15.749999510833478 40.16856413171475 15.632636427787002 Q 41.044975215280914 15.385879767780903 41.872034758885725 15.385879767780903 Q 42.18574678443224 15.385879767780903 42.492358011108145 15.421382202432902 Q 43.25888815739927 15.510138029112735 43.79798062049151 15.510138029112735 Q 44.04302212926945 15.510138029112735 44.24107244563858 15.491800104250823 Q 45.23866086111008 15.4683279035618 45.23866086111008 15.304018599486085 Q 44.968724444357306 15.057555683173197 44.475798611731534 14.975401421060596 Q 43.431265274981655 14.963665320716085 42.5686445479862 14.611575291726146 Q 42.13733418448847 14.435530277231177 41.51090730225135 14.435530277231177 Q 40.88448042001423 14.435530277231177 40.062937019037705 14.611575291726146 Q 39.533152071817554 14.745259216282781 39.076475510685015 14.745259216282781 Q 38.45065847154902 14.745259216282781 37.96213307541766 14.494211558804244 Q 37.457471142447375 14.189067035980575 36.89412701807842 13.989549560846411 Q 37.36358013011483 13.625722911611621 37.33423942434076 13.385128012977216 Q 37.3048985885916 13.14453311129652 37.04669905203386 13.1327970139983 Q 37.04290208986138 13.132624427742428 37.03911266624385 13.132624427742428 Z"
     style="fill:#ffffff;stroke:none"
     id="path14" />
  <path
     d="M 51.45697307814356 8.518575624487564 L 51.45697307814356 8.518575624487564 C 52.47669527430163 9.664441588265095 53.321000038806254 10.971956076034589 54.07348964348012 12.300054996027685 C 54.2315849896243 12.49509414015274 54.05368244028561 12.673621403926127 53.92317757966969 12.858866637881423 C 53.42738881543469 11.28443512185757 52.28622698799056 10.06961378334061 51.45697307814356 8.518575624487564 ZM 50.469975567523235 2.7356137393299305 C 50.55504504806409 3.1321860921393228 50.39843431470588 3.5898917789533438 50.09759446824429 3.7248867745686463 L 50.19373820294477 3.9301553885609612 C 50.56955889562883 3.751561371027414 50.93070475312072 3.2167940213813706 50.98446179662777 2.7367721403445606 C 51.497589592438096 2.767242025844689 51.63791675933444 3.1537137790390664 51.71820264023219 3.602096496018725 C 51.81440499916115 3.9085107967056043 51.71681764283445 4.652174477982248 52.105122548173156 4.780652222697902 C 53.25198924585085 5.224737623429651 54.12869809464374 5.738299375931231 54.915568061308015 6.514544388186927 C 56.27340320519194 8.212641882173564 57.692418227511894 9.8573464440722 59.050217647256595 11.557288769248686 C 59.57783112352189 12.218728535074487 60.060301195850016 12.82472810083348 60.45204019857242 13.281913726620669 C 58.389974182093134 11.740493147250168 56.08590002243675 10.561474724267727 53.82549633297707 9.336369413671097 C 52.624110476822146 8.683623895729344 51.47784330348098 8.149812739309867 51.47784330348098 6.712630618187373 C 51.47784330348098 5.939820848319829 52.90208916418705 5.2922228124393325 52.843318833141744 5.19165226148624 C 52.83823272331968 5.182948853566494 52.821770765162576 5.178576081524511 52.79582130002986 5.178576081524511 C 52.5034750966705 5.178576081524511 51.00697350036252 5.733577835529994 51.00697350036252 6.903998420004124 C 51.00697350036252 7.228067658997503 51.09370713038905 7.528859873273454 51.244518874146884 7.80917162173099 C 51.242253139316645 7.809010405102682 51.24000847256852 7.808844150454738 51.23771846364368 7.808708581926388 C 49.5963028125629 6.93897601632213 49.85691407224182 5.179560098359515 49.92054929824706 3.628507970452029 C 49.23848960505932 3.5907541963144385 48.67659355018472 3.218494009506726 48.02886269378658 3.063672460121497 C 48.53128985039336 2.9986744498050855 49.03210964973579 2.91481369322499 49.53573986253122 2.8628059875356255 L 49.53573986253122 2.8628059875356255 C 49.44124149924324 2.881737376816832 49.35481495941353 2.9366686224000933 49.29725650109125 3.0133980049371214 C 49.28905300211979 3.178820177386104 49.47606085594454 3.251616469594719 49.6583854125171 3.251616469594719 C 49.83631933497806 3.251616469594719 50.009792778055214 3.182284273886709 49.99300884464328 3.0620507903013716 C 49.91255762510115 2.936760909759764 49.76589537751513 2.855419563748554 49.61581323060075 2.855419563748554 C 49.61147984671228 2.855419563748554 49.6071434858122 2.85548734801273 49.60280597990766 2.855623889794873 C 49.853268607034366 2.819723877881941 50.18690893832912 2.766453346770974 50.469975567523235 2.7356137393299305 ZM 53.33693483690886 12.712907881037111 C 53.48394653985682 13.07022988162631 53.5602157451004 13.448678588552507 53.64342230338089 13.82381411056625 C 53.88251251718595 13.630222252081696 54.114352104733186 13.431367037084287 54.310566481438464 13.194570954220131 L 54.310566481438464 13.194570954220131 C 54.18274505328067 13.88937798208799 53.94422825771039 14.589978732535693 53.365777957319004 14.589978732535693 C 53.01567040084662 14.589978732535693 52.85349517480195 14.35343729866398 53.07805024395927 13.636152459193461 C 53.18382163418156 13.298292786454695 53.26803717039434 12.975135887016972 53.33693483690886 12.712907881037111 ZM 52.70848310764717 9.275242205440343 L 52.70848310764717 9.275242205440343 C 55.04904352150124 10.522090234774758 57.36664247386773 11.780691963916809 59.58018067267877 13.243918814543292 C 60.10155250061852 13.666499657465442 60.56606249095091 14.137476633001587 60.880700557188234 14.577700620684274 C 60.672049600013935 14.901936572327381 60.274939152357426 15.013271310231682 59.90777286140212 15.037816541891686 C 58.03412419924082 14.972486251280282 57.300731436992976 13.166157439484286 56.31105919594844 11.875616497865707 L 55.772654281625734 11.221817117816743 L 55.86551505953157 12.059571082790965 C 55.871914260471144 12.210441450777276 56.026425742647945 12.924304100910513 55.796112217048226 12.924304100910513 C 55.77649783260519 12.924304100910513 55.75409330128812 12.919126848733233 55.72856886181185 12.907983665304963 L 54.78167032346905 11.77437337129139 C 54.68039055675193 11.841126215446907 54.58505473720014 11.916976807059028 54.480576286016806 11.978945364568768 C 54.010851029358975 11.028381895942648 53.323331267891746 10.14346107514528 52.70848310764717 9.275242205440343 ZM 50.68851615724035 2.25 C 50.19658079102318 2.25 49.69259242083189 2.3383564448511183 49.21471358739717 2.3827652425502976 C 48.64487314806096 2.660954238609842 48.06768189457645 2.448949420239553 47.47005654795426 2.6661097357023342 C 47.03827021265559 2.859707948961656 46.91733986504187 3.2526324320542246 46.73866069316864 3.6454207168659885 C 46.993092601710124 3.560767330946782 47.224612704387226 3.526350099812684 47.44279845722144 3.526350099812684 C 48.13918353023941 3.526350099812684 48.6997318003613 3.8769579087346964 49.43584417720828 4.06383454504805 C 49.43457413825857 4.4331839015113985 49.37665202651902 4.85231530399006 49.349080319063944 5.274593636733236 C 49.23495635028919 6.419064756074647 49.83798989648873 7.42342419835954 50.70986591044664 8.138620549690604 C 51.334345390227305 9.529217477256864 52.198468349969275 10.596196755589721 52.82924901830753 11.681236876311006 C 52.75404375121043 12.168547111502683 52.300414051281734 14.008136928926623 52.07674842159082 14.668517794625577 C 51.63876772665091 14.742102193405676 51.17112500410933 14.783882032234027 50.71131457009249 14.783882032234027 C 50.52574873488771 14.783882032234027 50.34145866365497 14.777077041712973 50.160908634998265 14.76281211811836 C 50.146958129629034 14.760851870478696 50.13294945803311 14.759899226765963 50.11888582622299 14.759899226765963 C 49.7641503907144 14.759899226765963 49.37425507417739 15.365901540535667 48.991941519188735 15.689301180919422 L 56.76340374286852 15.750000157481232 C 56.56522362250215 15.049189642216012 55.184325340734375 14.677575237925105 54.69357917615187 14.677575237925105 C 54.665394662308515 14.677575237925105 54.640145939906795 14.678800850701679 54.61822597447823 14.681260320286958 C 54.791448661578116 14.18582421742638 55.007407495233366 13.720421123613294 55.06892904300098 13.028456454822946 C 55.28582861232256 13.222520971149589 55.52905870426194 13.43247540140391 55.83268549158506 13.454283614396946 C 56.203898686312336 13.426353749546028 56.35451348930263 13.172792969344902 56.40157500471524 12.841954463969696 C 57.242452541862946 14.23277581241059 58.18283188279851 15.368448946463658 59.90777286140212 15.535464793373661 C 60.50382737640232 15.506310231749737 61.246627495313405 15.245662331928015 61.407380625815755 14.61222113122088 C 62.1980236111846 14.567697861700571 61.61822815955077 13.797345271409378 61.324837712121685 13.495523927122605 C 59.17327539884894 11.166751563210042 57.397448589928246 8.508304934459657 55.2715343766137 6.162159646839685 C 54.4527829056978 5.354461820003095 53.528343400884474 4.808149733863811 52.383470384976754 4.355056125024417 C 52.298244496826335 4.145729386216393 52.270289441877246 3.8479579227131997 52.21486710388005 3.520313636286806 C 52.15439117418752 3.162890073801793 51.963674650909 2.5778154359684136 51.6150239981146 2.395739331051646 C 51.31802587062532 2.2867499201002746 51.00577765770197 2.25 50.68851615724035 2.25 Z"
     style="fill:#ffffff;stroke:none"
     id="path16" />
  <path
     d="M 65.11544388070038 3.425364247521509 Q 64.83476022185395 3.425364247521509 64.83476022185395 3.662191512607242 Q 64.83476022185395 3.899018777692974 65.08035842334458 3.899018777692974 Q 65.36104265276975 3.899018777692974 65.36104265276975 3.6797345265745145 Q 65.36981404563764 3.425364247521509 65.11544388070038 3.425364247521509 ZM 71.2378656038374 2.5833121583536696 Q 71.2290942109695 2.863996359249905 70.82561059550966 3.0613524134880157 Q 70.62608560030381 3.1589460271810803 70.73971841063468 3.1589460271810803 Q 70.8558763742412 3.1589460271810803 71.29926444098663 3.0569666599961973 L 71.29926444098663 3.0569666599961973 Q 71.03612356787598 3.2587084677261258 70.83438198837754 3.38150785376081 Q 69.56253230484874 3.7411339343024856 68.42225305787527 5.030526517682811 Q 69.22921983233199 3.6183345482678018 71.2378656038374 2.5833121583536696 ZM 72.18517420771734 3.2060799964030493 Q 72.11500306477423 3.477992718844586 71.71151990577737 3.5788638509410466 Q 71.36781240152766 3.6647904987719766 71.89610075906492 3.6647904987719766 Q 71.9879785431633 3.6647904987719766 72.10623167190634 3.662191512607242 L 72.10623167190634 3.662191512607242 Q 71.57994901275904 3.9604186418839387 71.45276381617467 3.969189692404582 Q 71.32557861959029 3.9779611993882185 71.44399242330678 4.034975367145239 Q 71.56240622702327 4.0919890784392665 71.98343217175591 4.0919890784392665 Q 71.62380597709848 4.320045293004355 71.38259267323157 4.333202154074691 Q 71.14138028229063 4.34635878691353 71.28172165525086 4.403373068786299 Q 71.42206394113707 4.460387122427571 71.79923292153026 4.460387122427571 Q 71.6114230490323 4.634782460495825 71.34154386922327 4.634782460495825 Q 71.25850412158972 4.634782460495825 71.1676944608943 4.618271509355067 L 71.1676944608943 4.618271509355067 L 71.57117761989116 4.828784709952883 Q 71.37820697679763 4.898955624664491 71.21155142523374 4.925270259731148 Q 70.76421084543443 4.942812589003931 71.21155142523374 5.153326017833244 Q 71.11798929269227 5.211801665977169 70.98544430764751 5.211801665977169 Q 70.91917135866214 5.211801665977169 70.84315338124543 5.197182982172684 Q 70.35195629356969 5.758550756328541 68.32576819279149 6.854973038962574 L 68.50996698655415 6.986543475517902 L 68.95730756635345 6.863744431830463 Q 69.30816236814299 7.451426384589983 69.95724407097772 7.960166258001503 Q 70.65895413101978 8.056651579548271 70.66772552388767 8.688191409573218 Q 70.66026052810491 8.986790784420467 70.30337037262579 8.986790784420467 Q 70.24091436718544 8.986790784420467 70.16775704334404 8.977646004824544 Q 70.13822069247485 8.982121168005058 70.10959772405405 8.982121168005058 Q 69.85771596712155 8.982121168005058 69.6765599556683 8.635562595902897 Q 69.44227895527163 8.236417204725742 69.06207403951393 8.236417204725742 Q 69.05794168004094 8.236417204725742 69.05379243143722 8.23646422041399 Q 68.66785160171314 8.240850373310927 68.42225305787527 8.363649873461359 L 67.76439996217265 8.118051329623487 Q 66.83463414402848 6.969000689782126 66.40922227463041 6.482189298540326 Q 65.98381040523232 5.995378135530021 65.79084021860177 5.219111007879412 Q 65.59786980373974 4.4428441084602985 65.21631501279684 4.232330907862482 Q 64.83476022185395 4.021818163727659 64.29970571337577 3.6271060552514376 L 64.38741964205465 3.477992718844586 Q 64.78162644599794 3.3235062424348127 65.07311184510384 3.3235062424348127 Q 65.74151802285064 3.3235062424348127 65.86978252618127 4.135846042778707 Q 66.05398131994393 5.302439240124348 66.26449474877325 5.727851109522429 Q 66.47500749290806 6.153262978920509 67.10216094180458 6.214662272532733 Q 67.13468005009963 6.217846101906876 67.16810729151867 6.217846101906876 Q 67.77934319116494 6.217846101906876 68.69416578031681 5.153326017833244 Q 69.65901716993253 4.0305896707112945 70.83876768481149 3.662191512607242 Q 72.01851774322746 3.2937939250819297 72.18517420771734 3.2060799964030493 ZM 71.37820697679763 2.25 Q 69.15904868938888 3.3551933328099013 68.47049571864865 4.486701072799739 Q 67.78194274790842 5.618208926905325 67.4310874896559 5.7673223774279245 Q 67.2582025876305 5.840798312438239 67.08425275744314 5.840798312438239 Q 66.9051864335705 5.840798312438239 66.72499196141138 5.762936452762484 Q 66.36975100672491 5.609437534037436 66.24256603837203 4.7542280988073315 Q 66.11538084178765 3.899018777692974 65.93995344089288 3.5569351405398297 Q 65.76452626822962 3.2148515033866856 65.27771442052482 3.096437870843819 Q 65.14494770858136 3.0641432282254355 65.00663542773947 3.0641432282254355 Q 64.6378028309821 3.0641432282254355 64.22953485572204 3.2937939250819297 Q 63.81728024679941 3.1359090816914414 63.46642514545604 3.1359090816914414 Q 63.212055401320605 3.2587084677261258 63.36116874485969 3.346422282289258 Q 64.39619114903829 4.013046656744022 64.8873881225983 4.3419735469425795 Q 65.37858566673702 4.670899866562395 65.57594109333853 5.504181047854276 Q 65.7732972046345 6.337461772683166 66.54517840761967 7.056714618461006 Q 67.3521454103079 7.916309293662063 67.34337401744 8.486448917148799 Q 67.27320333095989 8.837304175401329 66.87410518370248 9.319729870209185 Q 66.47500749290806 9.802155565017042 66.40483657819647 10.275809866957008 Q 66.39606495709708 10.530180260125762 66.50132144328023 10.652978847350209 Q 66.65043535026582 10.591580010200978 66.676749300638 10.460009117182658 Q 66.63289233629855 10.188095938278128 66.68990593347684 10.087225833223401 Q 66.7469202153496 9.986354815242688 66.81709113006121 9.846012529356482 Q 66.92234761624437 10.117924795335025 66.9048050587401 10.424923545711106 Q 67.11531780287491 10.267038474089121 67.09777524537064 10.082840136789457 L 67.03637595175842 9.574099806914944 Q 67.51880141833477 9.100445504974978 67.72931393423809 8.591705631563457 Q 67.93982736306741 8.635562595902897 68.02754129174629 8.758361639590337 Q 67.96614154167108 9.153073862182305 67.64598615845615 9.508314360405784 Q 67.32583123170423 9.863555315092258 67.20303173155379 10.275809866957008 Q 67.22934545369446 10.82840670470797 67.33460262457211 10.854720883311634 Q 67.48371584686322 10.661750240218097 67.43547318608984 10.53895165299365 Q 67.38723052531645 10.416152152843217 67.4310874896559 10.315281134862506 Q 67.47494445399533 10.214410116881794 67.53634420407055 10.109153402467136 Q 67.65914324775798 10.231952902617568 67.65914324775798 10.679293025953873 Q 67.81702831937997 10.565265831597314 67.85211389085153 10.381066581371666 Q 67.72931393423809 9.986354815242688 67.81702831937997 9.775841386413378 Q 68.28191122845206 9.30218708447341 68.50996698655415 8.64433353230779 Q 68.71170856605258 8.556620060091904 68.93537862772074 8.512763095752465 Q 68.97531959604572 8.504931560186563 69.01484107488042 8.504931560186563 Q 69.1966402426904 8.504931560186563 69.3695621182182 8.670648167374448 Q 69.55237600326097 9.266486200887686 70.14809489993311 9.266486200887686 Q 70.32410292175462 9.266486200887686 70.53615508733235 9.21447315579453 Q 70.66080098028829 9.422216310721094 70.9877238838331 9.422216310721094 Q 71.07490283788452 9.422216310721094 71.17646585376218 9.407443798888066 Q 71.19400863949797 8.951332282683872 70.88701034558487 8.793447211061888 Q 70.97189466017196 7.774835892479922 70.1613866458178 7.774835892479922 Q 70.13436951420536 7.774835892479922 70.10635774973181 7.775967464238847 Q 69.32570515387876 7.065486011328894 69.14150544719011 6.7058593602084775 Q 70.40458419431403 6.021692085902188 71.0185807821402 5.38138177593534 Q 71.03904766980727 5.385280198124567 71.06167910498576 5.385280198124567 Q 71.24273788982157 5.385280198124567 71.56240622702327 5.1357830038659715 L 71.35189279819396 5.030526517682811 Q 71.59749179849483 4.995441174442756 71.90448963594493 4.7410707812740025 L 71.62380597709848 4.697214501629052 Q 71.80800431439815 4.679671487661779 72.09746027903846 4.355130179781418 L 71.77291965585259 4.337587850508635 Q 72.07991749330269 4.249873921829755 72.25534535066045 3.9604186418839387 L 71.80800431439815 3.951647249016051 Q 72.290430009206 3.811304849014094 72.36060115214912 3.53939258303555 L 72.17640281484945 3.5130781762003895 Q 72.43954368796011 3.363964839793538 72.40445811648856 2.9166247735151076 L 72.40445811648856 2.9166247735151076 L 71.2290942109695 3.302565432065566 Q 71.48346369121228 3.1446805316172037 71.48346369121228 2.863996359249905 L 71.48346369121228 2.863996359249905 L 71.29926444098663 2.8815393161593033 Q 71.51854926268383 2.671026058503613 71.37820697679763 2.25 Z"
     style="fill:#ffffff;stroke:none"
     id="path18" />
  <path
     d="M 64.929230745908 12.15493549550581 C 64.92569764931037 12.15493549550581 64.92217872132402 12.154991001405724 64.91868331031104 12.15509266484346 C 64.85990679827937 12.155409924881912 64.79161379970753 12.180498591642753 64.77284886169656 12.241396743664541 C 64.75725111954829 12.300913090914802 64.81366585553864 12.35092098537359 64.86603333501638 12.364795123261407 C 64.88661725979478 12.372022575702758 64.90915732934064 12.375926685420874 64.9316112186735 12.375926685420874 C 64.97935856232424 12.375926685420874 65.02671634219847 12.35827288788527 65.05404759338397 12.31738023073752 C 65.08229746721304 12.28003644554844 65.08565046177227 12.21494087894794 65.04004739867608 12.189165691846066 C 65.01003433611582 12.161890092628639 64.96874189042055 12.15493549550581 64.929230745908 12.15493549550581 ZM 66.28773224176572 12.888752121719373 L 66.2917555431005 12.891345123654274 L 66.29446306247101 12.893089761729446 C 66.36094335520619 12.937535380744281 66.43384421987977 12.970819055422856 66.51059719400735 12.99420164610215 C 67.02884117468265 13.173732265872454 67.58125663229883 13.25482930700903 68.07850594453637 13.493549665629054 C 68.39612969270114 13.636591875341574 68.71235293937019 13.782772797626038 69.02852272509352 13.929037855169318 C 68.74316514082103 13.943505029777263 68.45717011510848 13.957564966361632 68.17131064064625 13.957564966361632 C 68.02416800561171 13.957564966361632 67.87706101120764 13.9538396440685 67.7300954107802 13.94452750688093 C 67.3841689121133 13.91857177953618 67.03592869382895 13.87016420781279 66.70803460136233 13.754933959592648 C 66.55665189984704 13.702855987203408 66.42909904970982 13.60169619247499 66.2923690293627 13.522496284570188 C 66.21189745207725 13.471236293863882 66.15424990083618 13.381980469712671 66.15580815594217 13.28482352677695 C 66.15684407131634 13.142764063629212 66.22307371109297 13.011660296579109 66.28773224176572 12.888752121719373 ZM 65.11146537941303 12.124401992099784 L 65.11623319014744 12.124822668393865 L 65.11686858663329 12.124878758566409 C 65.32778530964592 12.143251211437732 65.50334053843716 12.274750531058796 65.66937694359774 12.395326873849541 C 65.82245242899224 12.501954876128373 65.95559297043283 12.632341740660646 66.09986755719159 12.750396362777431 C 65.98999538113098 12.886309862123184 65.88733166865123 13.042026113740134 65.87862863568112 13.222291164207187 C 65.86614930263087 13.370161802939538 65.90112707580207 13.521962843658388 65.98589232658212 13.644249352439095 C 66.11600399870535 13.83758575019943 66.3288746754631 13.955501315430116 66.5414093954582 14.039124167149067 C 66.92693351098697 14.185801136896966 67.34027221723497 14.242906191000465 67.75020052413775 14.270045070422317 C 67.95539940911853 14.281392813455131 68.16080249738371 14.286041286504716 68.36624327123357 14.286041286504716 C 68.68996536498092 14.286041286504716 69.0137815266218 14.274500149231152 69.33704204499092 14.259446364902017 C 69.45781470338557 14.253416671353534 69.57854354133292 14.246516411585358 69.69921161492668 14.238655607612364 C 69.71195635381942 14.248092194870265 69.78288062418345 14.268227398268312 69.74374312201823 14.268227398268312 C 69.74314891675283 14.268227398268312 69.7425290034917 14.268222724087266 69.74188338223482 14.268213375725175 C 69.13437247622831 14.310298533312118 68.52536115810626 14.370176545320762 67.91604923171573 14.370176545320762 C 67.73284879555221 14.370176545320762 67.54962089857504 14.364763843670262 67.36639855218787 14.351826294809404 C 66.74866871787101 14.292402262634788 66.13118164883218 14.120243410645609 65.61106040019455 13.77333153618709 C 65.42584320097812 13.648331081036934 65.25356325848624 13.503100186049936 65.10659736592247 13.334268766692405 C 64.95959758554613 13.160903975993529 64.85497130129997 12.955413538970062 64.73425853084996 12.763483485431742 C 64.61562533276066 12.585892066522621 64.47766833988915 12.415093401217636 64.29525973920833 12.300179244490684 C 64.55800392771981 12.206363172457118 64.83222994983282 12.139408450345835 65.11146537941303 12.124401992099784 ZM 71.11612007037719 14.098981145343007 L 71.11941419946889 14.099103258322817 C 71.27763347503561 14.10608823762244 71.4485104328731 14.10035009611666 71.58722493521029 14.187613550597295 C 71.62461546220982 14.209329211461295 71.65597804847876 14.24149984677845 71.6676027367385 14.284425188408292 C 71.71502931471501 14.408690628589067 71.69385118467122 14.573416948443532 71.57965334618947 14.655069048579243 C 71.56978030727646 14.663350528846316 71.55844775533204 14.666067980851548 71.54651982957698 14.666067980851548 C 71.52629698528433 14.666067980851548 71.5043616379112 14.658257424324791 71.48491996612576 14.65650343788753 C 71.35620412131719 14.626740590081354 71.24063674778915 14.557073674418515 71.1155638428328 14.514588290079566 C 70.8644142525406 14.407533184507717 70.61467451210619 14.297934155901943 70.36601100185747 14.1857064847308 C 70.61676679239662 14.162489243205986 70.86684190532101 14.132913946914254 71.11612007037719 14.098981145343007 ZM 67.24216261777495 14.66464177136009 C 67.24749731902925 14.665189819087656 67.25283231241987 14.665738451087853 67.25816701367418 14.666287083088047 C 67.47278933977866 14.686417028032418 67.68837776067794 14.694632485492226 67.90392206899361 14.694632485492226 C 67.95377162556949 14.694632485492226 68.00361855291852 14.694193112473965 68.0534508734518 14.693359939702633 C 68.06304492218366 14.71803318862307 68.10499832629239 14.741101440627062 68.08985076620604 14.7670016620719 C 67.96728234588103 14.981423290527744 67.84471363341972 15.19584550325622 67.72214492095839 15.410267131712063 C 67.37653685087521 15.407353364102928 67.03091797174835 15.405924233248316 66.68529938475781 15.405032048941287 C 66.86617587653286 15.211161625996523 67.04948878517779 15.019397505885314 67.22855140257093 14.823937861385136 C 67.26220988814208 14.778694125956807 67.2654490956065 14.715242702539005 67.24216261777495 14.66464177136009 ZM 65.15031001492214 11.800251918650474 C 65.14496012257943 11.800251918650474 65.13959649982992 11.800318233594055 65.13421914667357 11.800452908435423 C 64.91264353805968 11.810479318913984 64.69695725149477 11.86970294557628 64.48545968845316 11.93230074668068 C 64.2226830728107 12.014716199008356 63.961038485390134 12.109240701606607 63.72014850339021 12.243042055392499 C 63.65698404912666 12.282440143151003 63.58456314159603 12.31941349949224 63.5469420437273 12.386034601931414 C 63.526173700482325 12.434946985207699 63.558957158478606 12.497410403607045 63.61170749400916 12.507189374626519 C 63.63396137951712 12.512382389767886 63.65628361579361 12.514338534535359 63.6786469428687 12.514338534535359 C 63.747027454525494 12.514338534535359 63.81579221672954 12.496045542741806 63.88416212018638 12.496045542741806 C 63.90998204066154 12.496045542741806 63.93574568837896 12.498654904310365 63.961411032226266 12.50584321048546 C 64.12238380211613 12.542042989863695 64.24611298957306 12.664096958137396 64.34491823863398 12.789435122868078 C 64.4988951836635 12.97849464497193 64.60038071038353 13.203923969789539 64.74214153718292 13.401855087517438 C 64.84845826821775 13.553212081036982 64.98048533209247 13.683316741888643 65.11761645560054 13.806536918333155 C 65.56531010039544 14.198386369361534 66.12532577639134 14.441951516635047 66.70220122341775 14.573551331148586 C 66.75340220258836 14.629729728859846 66.80873019148568 14.682059522752905 66.86314262517075 14.735390175662292 C 66.65378926964964 14.958653601838021 66.44443562199218 15.18191819655901 66.23508226647107 15.405181622734737 C 65.91996928386844 15.408022356265041 65.60415400556376 15.403340579675506 65.28967846440118 15.423835695014043 C 65.21467334184825 15.432779740444293 65.14348308136911 15.488834272357852 65.13481744184737 15.566721319661545 C 65.12067453854945 15.66059757177607 65.20511172024739 15.750000632630208 65.29773908961387 15.750000632630208 C 65.30591072662638 15.750000632630208 65.31414604935563 15.749305348199714 65.32238297883461 15.7478551835304 C 65.66068194437631 15.73362989779155 65.99945533929412 15.736247439176939 66.33798874422887 15.733383334741408 C 66.5204214461557 15.732574117147935 66.70286787848934 15.732303598919936 66.88531518723194 15.732303598919936 C 67.20441510019808 15.732303598919936 67.52351735025474 15.733130344692329 67.84255182468624 15.733346525565677 C 67.91248779789551 15.725944959880387 67.96273991831391 15.667792304950103 67.99012769787643 15.60735397548865 C 68.14225651554108 15.339610458212874 68.29724856123232 15.07326802670544 68.44757811133083 14.804642842029988 C 68.46518691987387 14.765456260963786 68.46142770976816 14.719239127332767 68.44428690360229 14.68064616725932 C 69.04821037565648 14.65105567987919 69.65049087307325 14.596186637133254 70.25382189267995 14.557404957000104 C 70.28855397920995 14.557366395006479 70.3244470154571 14.550957508520693 70.35919955152916 14.550957508520693 C 70.37057417110299 14.550957508520693 70.38182609342437 14.551644028861727 70.39287585741555 14.553465206651516 C 70.75285265216841 14.708890490498392 71.10685993345375 14.884768237781767 71.48419546806373 14.995429474030093 C 71.4997090749532 14.99735406807551 71.51518119848589 14.998285398648793 71.5305604226703 14.998285398648793 C 71.67368852045954 14.998285398648793 71.80878812803077 14.917616045077864 71.89461135047681 14.805959792539513 C 71.98139628567293 14.698045221927952 72.02565844308174 14.560062228924377 72.02373735467211 14.421883504589527 C 72.02619246826617 14.250991939936267 71.96854170352563 14.070711698380816 71.83452709022954 13.959401335239818 C 71.9380537733848 13.927810298372286 72.04806588274045 13.8991523101107 72.13427297230484 13.83136616804598 C 72.15646773672599 13.812187418944337 72.18353416634163 13.780359167388752 72.17121711501454 13.74925015544152 C 72.1428705440651 13.723446338980743 72.09867674655408 13.729492976435516 72.06307584662228 13.724570479522146 C 72.03704474810817 13.723997892344093 72.01101890804775 13.723730879751878 71.98499832644099 13.723730879751878 C 71.74809155006656 13.723730879751878 71.5116147983483 13.745884160816248 71.27536474441074 13.761633229575875 C 70.75302851823024 13.801690376861773 70.23113224934063 13.847374653853624 69.70863417964145 13.8853623074817 C 69.13947025493088 13.622848614523026 68.57188795623154 13.354757455032004 67.99749187011335 13.10540917726015 C 67.5285637129658 12.912592197868477 67.02178637480365 12.835211130662943 66.54670553471888 12.662116273919436 C 66.26444021334419 12.497217593638924 66.044982154812 12.248569274478609 65.77692166963409 12.063226310578429 C 65.5936838400222 11.928637941559028 65.38528416350248 11.800251918650474 65.15031001492214 11.800251918650474 Z"
     style="fill:#ffffff;stroke:none"
     id="path20" />
  <path
     d="M 30.489336013793945 0.375 C 20.86433607339859 0.375 20.86433607339859 17.625 30.489336013793945 17.625 "
     style="fill:none;stroke:#ffffff;stroke-width:1"
     id="path22" />
  <path
     d="M 30.489336013793945 0.375 L 72.4085693359375 0.375 "
     style="fill:none;stroke:#ffffff;stroke-width:1"
     id="path24" />
  <path
     d="M 30.489336013793945 17.625 L 72.4085693359375 17.625 "
     style="fill:none;stroke:#ffffff;stroke-width:1"
     id="path26" />
  <path
     d="M 80.0960693359375 0.375 L 80.0960693359375 17.625 "
     style="fill:none;stroke:#ffffff;stroke-width:1"
     id="path28" />
  <path
     d="M 72.4085693359375 0.375 C 82.03357124328613 0.375 82.03357124328613 17.625 72.4085693359375 17.625 "
     style="fill:none;stroke:#ffffff;stroke-width:1"
     id="path30" />
</svg>
