<?xml version="1.0" encoding="UTF-8" standalone="no"?>
<svg
   width="99.80826568603516"
   height="18.0"
   version="1.1"
   id="svg68"
   sodipodi:docname="hunuqeni.svg"
   inkscape:version="1.1.1 (3bf5ae0d25, 2021-09-20)"
   xmlns:inkscape="http://www.inkscape.org/namespaces/inkscape"
   xmlns:sodipodi="http://sodipodi.sourceforge.net/DTD/sodipodi-0.dtd"
   xmlns="http://www.w3.org/2000/svg"
   xmlns:svg="http://www.w3.org/2000/svg">
  <defs
     id="defs72" />
  <sodipodi:namedview
     id="namedview70"
     pagecolor="#ffffff"
     bordercolor="#666666"
     borderopacity="1.0"
     inkscape:pageshadow="2"
     inkscape:pageopacity="0.0"
     inkscape:pagecheckerboard="0"
     showgrid="false"
     inkscape:zoom="13.776414"
     inkscape:cx="49.904133"
     inkscape:cy="8.964597"
     inkscape:window-width="1920"
     inkscape:window-height="1001"
     inkscape:window-x="-9"
     inkscape:window-y="-9"
     inkscape:window-maximized="1"
     inkscape:current-layer="svg68" />
  <path
     d="M 3.009169848917976 0.4739171748132039 C 3.7026715218272255 0.4739171748132039 4.256829318471649 0.6745946316238001 4.644164689284773 0.9526347441559112 C 4.650308145491952 1.0062515645085024 4.663546055856558 1.060016372992199 4.652575800812965 1.1124437372646898 C 4.603449882852364 1.360569519526529 4.457806885291136 1.5903185537666114 4.257258755698066 1.7432685981716125 C 3.9413649209170813 1.94997010496389 3.5600411988456018 2.009570228366613 3.2002765010963685 2.0993341831784433 C 3.10998720613517 2.1086036967312767 3.181170796374544 2.130187995961788 3.231117085890341 2.138585643286511 C 3.4609996992016763 2.1784200797833564 3.9384250002790258 2.2376030490926513 4.202499603977515 2.2376030490926513 C 4.220906351189456 2.2376030490926513 4.23827706337661 2.2373153403237978 4.254454894379272 2.2367137030214415 C 4.532424083629077 2.2049171597812043 4.794657162235626 2.0893111466595644 5.019856122452685 1.9255069464391237 C 5.098959498900698 1.8590524805074944 5.166930105007111 1.7763742399315428 5.224523825878929 1.6899990125400517 C 5.3720929131784425 2.0357255065676374 5.451951702305268 2.4028945713681713 5.485264503827336 2.6067978859799568 C 5.503366062427325 2.716651377223197 5.580895308140001 2.8061828973646232 5.687128818362978 2.8395020766672823 C 6.825504545072815 3.188508875845171 7.72511459117944 4.749370284342509 8.566494083211595 5.78895938641794 C 10.295861887830181 7.925728476871466 11.765759846336513 10.315234366846607 13.458892408638075 12.548598959980612 C 12.522122105814729 12.092922126930452 11.58844053850988 11.632519122248745 10.649618007621019 11.174801399409672 C 8.72850955219054 10.164475916823728 6.728271736761494 9.358727903879377 5.045088984609069 8.085161653353607 C 5.042277564439204 8.082822188947427 5.039490238107126 8.07909189594436 5.036677873080877 8.076750541825415 C 4.066833817400553 7.2693821001829235 3.0743602151151883 6.41700117284651 2.698420284718348 5.284299308721125 C 2.5498687829938245 4.364048874911361 4.455242072637431 2.7072382455000326 4.240437005069874 2.637638234559833 C 4.2215063349931405 2.631504463130588 4.200107227613845 2.6285180083156328 4.1764933768710275 2.6285180083156328 C 3.7176359210190495 2.6285180083156328 2.422621666796125 3.756154733581801 2.15731260823226 4.830105427765268 C 2.154053326136495 4.815773846136464 2.1461630666898484 4.79928090552982 2.143294246494671 4.785246481233707 C 2.0704243238243896 4.4287242943794265 1.9886595231574336 3.528875672035904 2.2105824300779164 2.8058581029827074 C 2.22090238771539 2.7720589366371007 2.223991359447983 2.7373940456298778 2.2217969304967107 2.702122556824284 C 2.206042867582163 2.411103719844335 2.16184012380912 2.2384220033632714 2.098435772391302 2.068493834598567 C 2.035031184759387 1.8985666106902463 1.9592064599630061 1.724220765903293 1.8376947401217505 1.3030929608462967 C 1.806828171777225 1.1953371688820418 1.6962380468757994 0.9753151948986268 1.630223411590808 0.9582419943653084 C 1.8161052441811285 0.8204882523408192 2.0045522437462973 0.6772958579179091 2.2750667523423678 0.5825507383579678 L 2.2750667523423678 0.5825507383579678 C 2.1960743965194465 0.658865194028754 2.1432944827087668 0.7691834365057539 2.143294246494671 0.8965614153126038 C 2.143294246494671 1.1261525404295507 2.3068791219270324 1.3115031275181046 2.5077709430296933 1.3115039542674405 C 2.7086627641323537 1.3115039542674405 2.8722476395647156 1.1261525404295507 2.8722476395647156 0.8965614153126038 L 2.8722476395647156 0.8937576721008572 C 2.871221053103765 0.7095976631093593 2.7627272101967493 0.5576299150223198 2.6171139756116095 0.5040481134094518 C 2.669879244148341 0.49667510377938745 2.7125253370291467 0.4854209784459994 2.771315482296895 0.4816187582507192 C 2.852317311433968 0.47642689052903053 2.9316148558688426 0.4739171748132039 3.009169848917976 0.4739171748132039 ZM 3.6797034804227042 8.23655977114829 C 3.744950774217038 8.301805883872143 3.8149797499554623 8.36067988514395 3.8815675587442495 8.424405723946341 C 4.0956495749641375 9.204198532028927 4.293931466520769 10.064938131364233 4.57407335302502 10.7290191024102 C 5.057193067313169 11.874268186883667 5.789626838872777 12.870430272277117 6.413278350114227 13.883144351801198 C 6.260634439177563 13.965039778863208 6.128536902733854 14.058336787907995 6.029175805418124 14.152295196421411 C 5.947669659186221 14.229370911069886 5.8940429178416 14.280530159968329 5.830115352201277 14.345748871857053 C 5.520950312157207 13.938784109671408 5.124019924767046 13.62317373180555 4.644164689284773 13.448575610364134 C 4.689085996337662 12.725628196897432 4.536026821020337 11.737052363409154 4.30492109112023 10.66173115504105 C 4.1263418173058595 9.830810278320685 3.903548933870034 9.003086795602949 3.6797034804227042 8.23655977114829 ZM 4.686219774497539 9.144947533060002 C 5.834593499032087 10.09035760265641 7.113542596376112 10.88336044784028 8.36182590735716 11.685069199744076 C 8.343845290374292 12.594861963098435 8.344411259348162 13.463187814338914 8.445936077782692 14.359767706022835 C 8.033305011863666 14.014385848361224 7.586775333464642 13.763462228240035 7.018870348864767 13.625206117887009 C 7.015369655962953 13.624345353721408 7.011953527707485 13.623977804588126 7.008598342688769 13.623977804588126 C 6.989090837789752 13.623977804588126 6.971640285238172 13.63639699689621 6.951581929067426 13.636421563162186 C 6.30326824892538 12.572860982202688 5.56863248956343 11.57684345983595 5.115180793297013 10.501922870574559 C 4.9594783822461315 10.132827952249835 4.822072170210292 9.651825188689491 4.686219774497539 9.144947533060002 ZM 5.092751320031232 14.399018929916807 C 5.256419815253556 14.551910865654206 5.4054203599744595 14.728454446389774 5.5329268392495 14.94012684261699 C 5.575655607063885 15.01022479287143 5.648728910070769 15.058380343325913 5.729183431147552 15.07470273735529 C 5.7494917018318015 15.078823256044847 5.769947370111917 15.080878318679517 5.790254695939782 15.080878318679517 C 5.850400001475933 15.080878318679517 5.909242822487076 15.062849514021076 5.9590844691583715 15.027040401933126 C 6.175000687833224 14.870724306660996 6.306688629034575 14.703258906060551 6.435707350951817 14.58125716007727 C 6.483312522562763 14.536239477673238 6.5327214250102985 14.500179978643592 6.584302079855896 14.463502543538969 L 6.732896336331785 17.185862440383506 C 6.519603983834621 17.172073206318977 6.298091380798784 17.15081393768448 6.095781566478202 17.15081393768448 C 5.831792472282443 17.15081393768448 5.600500133246544 17.18701327545892 5.462835502989748 17.323242668868794 C 5.2941143882552915 17.189184555428792 4.96598135630733 17.158607113137695 4.572329148140608 17.158607113137695 C 4.471105738892494 17.158607113137695 4.365550163124863 17.160629105798932 4.257258755698066 17.16343343954592 L 5.092751320031232 14.399018929916807 ZM 6.25066573190075 9.573908551859477 L 6.25066573190075 9.573908551859477 C 7.604791854990093 10.361226196182292 9.034522078910209 10.988295252963786 10.386072995925625 11.699088033909858 C 10.388108216576233 11.700135879639442 10.389620931646625 11.700891764746446 10.39167977370683 11.70189142280046 C 11.686891739128056 12.333365400043023 12.978365852695143 12.98273873661945 14.285973389014858 13.605581450796405 C 15.269975172749374 14.794761632832586 16.33790476962736 15.90056296328426 17.36439863465213 17.026055100773398 C 16.647556883137256 17.146248391638174 15.930830404101199 17.267532046769798 15.213987707729942 17.38772722734734 C 13.79219427743337 15.841645498618801 12.36859900601298 14.299348864563587 10.946807465429178 12.75326524612228 C 10.935631704122118 12.739913480563432 10.92370950627189 12.727994117282355 10.910359630425809 12.716818355975295 C 9.41106341039531 11.580038019269429 7.757799063206311 10.634765898705052 6.25066573190075 9.573908551859477 ZM 3.0756960058277225 0.0 C 2.9405269774945206 0.0 2.803378947465543 0.004522381611119117 2.664776311033773 0.013406474957975922 C 1.5799215017535755 0.08356273687650426 0.791815610992612 0.5394290283949892 0.5227751964622482 1.157302329475107 C 0.4821416476788419 1.2499492773278713 0.3773182175015722 1.4706424536648965 0.5155519465690093 1.4706424536648965 C 0.5301007861125528 1.4706424536648965 0.5473420529751317 1.468197873986025 0.5676338477261894 1.4629019539550754 C 0.6829407547488466 1.4484514385289664 0.7780652341468658 1.4423110531050352 0.8569417269557291 1.4423110531050352 C 1.2747371416542677 1.4423110531050352 1.236670413344381 1.614590378873667 1.3274274122155385 1.6367293088014427 C 1.417468209947809 1.9189504698851962 1.6165598434253194 2.483475939414473 1.630223411590808 2.7049261819289825 C 1.386425543994761 3.5656903475302664 1.4768830233922678 4.468266061611404 1.565739089326357 4.903000625343815 C 1.7153772939992473 5.635118342443057 2.1961816377190027 6.48697345720191 2.8273889292472503 7.283313535133207 C 2.8134251329658233 7.338127016095824 2.8086283333195925 7.393803623365002 2.8273889292472503 7.448729542237286 C 3.1285063912567783 8.370618829444675 3.4792571591049843 9.617610994177321 3.7301694409495667 10.785092549360554 C 3.981081959008245 11.952574104543789 4.12285718696257 13.061967778966503 4.046983802062425 13.608383894830625 C 4.025192579283871 13.758532912485983 4.121174397743101 13.900045942793815 4.26847325611686 13.936413465004566 C 4.312604663232929 13.947361515923141 4.352082652659003 13.967347118152338 4.39463851175516 13.981272411536127 L 3.4666249016823647 17.0596976571734 C 3.272728324816838 17.01836208009686 3.0724617624261277 17.00476559673462 2.874112549852153 17.00476559673462 C 2.4927394590346226 17.00476559673462 2.118454680808026 17.055030066637645 1.8101650502035056 17.055030066637645 C 1.6846506825065655 17.055030066637645 1.570075389592555 17.04669832304569 1.4704144184820296 17.023250767026415 C 1.4375472348519498 17.015217598051724 1.3949769666959404 17.011228414399508 1.3451441780532423 17.011228414399508 C 0.9090801423353627 17.011228414399508 -0.08308278674200893 17.316628674182503 0.004096926806725951 17.889582026440785 C 0.15548046576267507 17.76211712084663 0.26223299740795364 17.73138850153413 0.38031217211407353 17.73138850153413 C 0.49024007079753446 17.73138850153413 0.6099847320405954 17.758020223566664 0.7846967677297779 17.758020223566664 C 0.7935070810801064 17.758020223566664 0.8024571741217066 17.757952193907034 0.8115528340999292 17.75781046544947 C 1.066223518424995 17.75382506122279 1.509269747551208 17.674784045296107 1.865480722334089 17.674784045296107 C 2.0452727193170093 17.674784045296107 2.202943030001157 17.694920824546703 2.3031032396034496 17.755008021415254 C 2.5392046614185677 17.745578354705373 2.7523340261895344 17.741732789223487 2.951610851518261 17.741732789223487 C 3.8011631150558056 17.741732789223487 4.398956033000731 17.81162570564265 5.451620530142762 17.816688246146814 C 6.240002555181878 17.80960749240695 7.649068297561068 17.777941575561766 8.426310465835707 17.73818579835887 C 8.876011082258614 17.740893756754712 9.122960636429726 17.792010487115885 9.3482285711628 17.792010487115885 C 9.361538763040762 17.792010487115885 9.374772421551643 17.79183285411574 9.387968285807172 17.791454911562237 C 9.52192246504496 17.78755265469733 9.652878614977093 17.73516414764362 9.867871236536825 17.73516414764362 C 9.990853743446445 17.73516414764362 10.141335350548884 17.752305732157712 10.335607271612858 17.805472800871634 C 10.085930861918229 17.463682342324677 9.45939942841909 17.120327201606223 9.005599080147068 17.120327201606223 C 8.891079651866747 17.120327201606223 8.787560241606108 17.142193068039095 8.703873366840497 17.191469218164713 C 8.542968104112466 17.175166666119395 8.37234782804666 17.169161158944245 8.19567291227375 17.169161158944245 C 7.976734570455455 17.169161158944245 7.748496479680046 17.178384846962466 7.517922703923993 17.188666774130493 L 7.360917335919913 14.359767706022835 L 7.360917335919913 14.359767706022835 C 7.847890174541017 14.562401606083045 8.21758885609496 14.875619607585232 8.642193142108937 15.380301416978874 C 8.699664031650867 15.44654907746951 8.781797562521582 15.482110637184917 8.86545325702653 15.482110637184917 C 8.908499969014047 15.482110637184917 8.951950134677428 15.472694198464408 8.992650768264083 15.453197086985613 C 9.112446274591294 15.395810289661837 9.178901803486355 15.264291005324987 9.155264331333942 15.133579573196247 C 8.962827321367223 14.095116267502062 8.941800487403126 13.115423973733854 8.95339954437011 12.074779939505962 L 8.95339954437011 12.074779939505962 C 9.492870020957247 12.42841606253606 10.024760859633895 12.787106222362869 10.5290609470485 13.16820932046874 C 11.981769133365166 14.7479090393313 13.43605428498632 16.326704530634608 14.888761526446602 17.906404249497168 C 14.944628049848916 17.96747598671759 15.022539017540629 17.999999833159222 15.103714464038218 17.999999833159222 C 15.11983182423232 17.999999833159222 15.136078629750996 17.99871671819008 15.152306538141996 17.99612214256029 C 16.10156595264582 17.836959195003903 17.051571803692816 17.68146795935479 18.00083121819664 17.52230312208564 C 18.107373224028915 17.50503114739059 18.194878263441282 17.430652052861355 18.23073178377927 17.328851336362764 C 18.266587193830023 17.227046840438643 18.244059927928525 17.11188585467375 18.171855892794696 17.031661878554605 C 17.42994521170602 16.20143358156353 16.66326228594804 15.400856767607475 15.920510682677822 14.586862993002091 L 15.920510682677822 14.586862993002091 C 17.1897721675192 15.367626168590794 18.796164079222855 16.341928056689678 19.00015479305014 16.341928056689678 C 19.023265980196797 16.341928056689678 19.02837576352015 16.32942193759429 19.01295381762449 16.302708957912753 C 18.91865715052569 16.139381083416772 18.112724890586506 15.546881487147742 17.238233851442022 14.928911397341812 L 17.238233851442022 14.928911397341812 C 17.377197659226482 14.987001167815102 17.513576339944986 15.048752256775444 17.6531769809321 15.10554284972107 C 17.658199837468143 15.108767644558828 17.664787376175685 15.113841523339595 17.669999203988482 15.116757350139865 C 17.773049020626395 15.151233269870335 17.830042757694528 15.174751690118395 17.93915099346508 15.178437574871426 C 17.94233326976557 15.178545288499173 17.945553340321407 15.178605759307734 17.948841440536878 15.178605759307734 C 17.973745965099905 15.178605759307734 18.00257920250659 15.175098452411234 18.048493553618805 15.161615351815042 C 18.100470103289197 15.146353086648238 18.187842862807837 15.102794262500725 18.236338561560473 15.01021723402036 C 18.28483615002588 14.91764209525276 18.275225070890315 14.822594267328872 18.25876945211083 14.771906501765924 C 18.242311943618578 14.721218736202974 18.220873152271164 14.694878974793022 18.205498449194693 14.67377749717461 C 18.143995857463278 14.58936875213181 18.102465639971687 14.565463885622796 18.0428867758376 14.519575990489324 C 17.983304132277976 14.473685260786702 17.91481149301954 14.423448191718805 17.838219544839546 14.370981261585245 C 17.6850337587668 14.266046456461739 17.50165414209476 14.147847757423074 17.344773967561526 14.042952636267687 C 17.18789568274106 13.938058459968683 17.045392442943054 13.83638718879467 17.016744397387587 13.810248681794459 C 17.00804982894427 13.80148608369151 16.99842930124487 13.792621441099115 16.988708618768793 13.785015347209884 C 15.691415134734154 12.872117785778505 14.394182121508075 11.96102017575818 13.097218392351367 11.048637561055948 C 13.088896097323248 11.042752050641536 13.077870568181206 11.047937422475586 13.06918166887619 11.04302983841836 C 11.735590582003198 9.174366581424614 10.481460027291279 7.217504760432826 9.023491825486246 5.41607134214063 C 8.27915569806047 4.496387349732927 7.424659237280828 2.887723530854533 6.037586916946315 2.3516642220268507 C 5.970716123670593 1.9556564868954267 5.819659099030447 1.224570552967246 5.283400661719887 0.7031084485192504 C 4.8273005330098036 0.25959351157317057 4.167590467595091 0.05615587828814758 3.427373441574297 0.0106028092539796 C 3.3119162433330986 0.0034978361875914604 3.1945714582512528 0.0 3.0756960058277225 0.0 Z"
     style="fill:#ffffff;stroke:none"
     id="path2" />
  <path
     d="M 25.9021511704128 2.771662648311301 Q 26.59770154724657 2.771662648311301 26.59770154724657 3.6885247976617497 Q 26.59770154724657 4.494730680197452 25.9021511704128 5.285129145019644 Q 25.206600704036347 4.494730680197452 25.206600704036347 3.6885247976617497 Q 25.206600704036347 2.771662648311301 25.9021511704128 2.771662648311301 ZM 25.9021511704128 6.296838263074965 Q 26.392198401269635 6.296838263074965 26.392198401269635 7.355972051923285 Q 26.392198401269635 7.956673803512528 25.9021511704128 8.462528720710925 Q 25.412104655897437 7.956673803512528 25.412104655897437 7.355972051923285 Q 25.412104655897437 6.296838263074965 25.9021511704128 6.296838263074965 ZM 25.9021511704128 9.490046778705384 Q 26.392198401269635 9.490046778705384 26.392198401269635 10.549179851212234 Q 26.392198401269635 11.149882319142948 25.9021511704128 11.655738310853552 Q 25.412104655897437 11.149882319142948 25.412104655897437 10.549179851212234 Q 25.412104655897437 9.490046778705384 25.9021511704128 9.490046778705384 ZM 25.9021511704128 2.25 Q 24.63751414604486 2.25 24.63751414604486 3.6885247976617497 Q 24.621706459703297 4.5895785891005065 25.056425534767087 5.103336901756264 Q 25.49114398303209 5.61709539349739 25.443720118123245 5.790983345876569 Q 24.890441246473323 6.4391097682588105 24.890441246473323 7.355972051923285 Q 24.890441246473323 8.114753890464776 25.538567758398248 8.984191503336252 Q 24.890441246473323 9.632317925718494 24.890441246473323 10.549179851212234 Q 24.890441246473323 11.307962406095196 25.538567758398248 12.161592153539742 Q 25.61760798095974 12.367095478602044 25.095945198334412 13.125878033485007 Q 24.574282550023113 13.884659155685027 24.02100372314453 15.749999453867837 L 24.716554189520984 15.749999453867837 Q 25.064329019767133 14.516978070811074 25.333064612421314 13.987411892728385 Q 25.60180011553281 13.457844998304225 25.9021511704128 13.125878033485007 Q 26.218310627975825 13.457844998304225 26.47914201928849 13.987411892728385 Q 26.739973231515783 14.516978070811074 27.0877482408473 15.749999453867837 L 27.799106483107998 15.749999453867837 Q 27.27744370048267 13.884659155685027 26.73206911971695 13.125878033485007 Q 26.18669435986586 12.367095478602044 26.281542268768913 12.161592153539742 Q 26.913861004809593 11.307962406095196 26.913861004809593 10.549179851212234 Q 26.913861004809593 9.632317925718494 26.31315835779351 8.984191503336252 Q 26.913861004809593 8.114753890464776 26.913861004809593 7.355972051923285 Q 26.913861004809593 6.4391097682588105 26.3763899985866 5.790983345876569 Q 26.328966044135072 5.61709539349739 26.755780917857344 5.103336901756264 Q 27.18259579157962 4.5895785891005065 27.18259579157962 3.6885247976617497 Q 27.18259579157962 2.25 25.9021511704128 2.25 Z"
     style="fill:#ffffff;stroke:none"
     id="path4" />
  <path
     d="M 38.901193566461195 2.6696410549919314 C 38.3046942303069 3.2020002546812254 37.604489032059725 3.468179786638009 36.80057724758246 3.468179786638009 C 36.48579263047814 3.468179786638009 36.1551074085416 3.4273681376837057 35.80852158177286 3.345744658740797 C 35.499404062465096 3.2729451537564866 35.18972461268326 3.2365454012643315 34.87948250829013 3.2365454012643315 C 33.953531155865996 3.2365454012643315 33.022571670505364 3.56079105203675 32.08660441427684 4.209282444098738 L 32.08660441427684 4.209282444098738 C 32.84526884732691 3.522022194148649 33.429886540158186 3.149384264050946 33.840457854839265 3.0913687443227804 C 34.13698154187909 3.049468626626405 34.56968031725139 3.028518522519642 35.13855490509338 3.028518522519642 C 35.357352600682695 3.028518522519642 35.59629434514816 3.0316176487392728 35.855380500558375 3.0378159011785346 C 35.927127653143906 3.039532377914993 35.99936359834542 3.0403905710246466 36.07208797409431 3.0403905710246466 C 36.944776138257744 3.0403905710246466 37.88781133571337 2.916807368841358 38.901193566461195 2.6696410549919314 ZM 34.697482931174996 3.6435535988092003 C 35.06206067103515 3.6435535988092003 35.46810830057246 3.6937853676792987 35.91562654392414 3.7942488149023443 C 36.68535760386866 3.9670453322300414 37.42398624655531 4.05344359089389 38.13151102370967 4.05344359089389 C 38.227992168869726 4.05344359089389 38.3238947283999 4.051837092496028 38.41921870230019 4.048623914666001 C 38.60986592596357 4.042197559005947 38.770824248200775 4.03898438117592 38.902092220737394 4.03898438117592 C 39.317775944113045 4.03898438117592 39.43573861957402 4.071205409387181 39.25598024712031 4.1356472847754 C 39.01945531058943 4.220439226075689 38.54640688580208 4.2739920692199345 37.836832800346635 4.296305633173835 C 37.12725871489119 4.318619378162039 36.522558524846524 4.497128613930455 36.02273295434984 4.831833159444782 C 35.681942397663626 5.060040655994667 35.28306300235685 5.17414440426961 34.8260944063609 5.17414440426961 C 34.61284179144845 5.17414440426961 34.38693922363438 5.149295092844573 34.148385616712865 5.0995964699945 C 33.39864726096784 4.943401160248589 32.894358651818635 4.771586210907506 32.63552015133385 4.5841512599026455 C 32.83188045550655 4.236059046705163 33.208981243222475 3.968295374086841 33.766822514481625 3.780860604116283 C 34.03925669106281 3.689322600578228 34.34947707133967 3.6435535988092003 34.697482931174996 3.6435535988092003 ZM 31.208374699605432 5.56224628446258 C 31.208374699605432 5.56224628446258 31.208374699605432 5.56224628446258 31.208374699605432 5.56224628446258 L 31.20837451857113 5.56224628446258 C 31.20837460908828 5.56224628446258 31.208374699605432 5.56224628446258 31.208374699605432 5.56224628446258 ZM 31.893251995035456 4.986025143602374 C 31.778727704076466 4.986025143602374 31.297760205290142 5.15495856995509 31.093283680763356 5.400066704822626 C 30.997819224244545 5.51450065966481 30.965641010645758 5.657503637739657 30.9684713009266 5.775513020050601 L 30.968471210409447 5.775513020050601 C 30.953125204162074 5.860476400835088 30.98282922195248 5.972203168721938 31.072988920830614 6.120776934344567 C 31.157362853927086 6.185740731626074 31.25049558863336 6.214606651114371 31.338154027074932 6.214606651114371 C 31.53408274547115 6.214606651114371 31.702662521314487 6.070396174243745 31.68495899586651 5.862724122731398 C 31.665867842492048 5.638773104695209 31.574975678827148 5.526453268434301 31.40302241927917 5.526453268434301 C 31.35944936359602 5.526453268434301 31.310671119138412 5.533665675034575 31.256537246401205 5.548101350293257 C 31.2399466293261 5.552525466570804 31.2238754901812 5.557229461879578 31.208374699605432 5.56224628446258 L 31.208374699605432 5.56224628446258 C 31.218386168069415 5.526516630440076 31.225224195732707 5.494267541911972 31.24162318799892 5.471768236763998 C 31.408473181084585 5.242849094372103 31.77821320458957 5.111876931885304 31.89377681347758 5.02437689845817 C 31.92833608073626 4.99821020041591 31.924009541947605 4.986025143602374 31.893251995035456 4.986025143602374 ZM 30.721984408813388 6.852667480302747 L 30.721984408813388 6.852667480302747 L 30.72198449933054 6.852667480302747 L 30.72198436355481 6.852667480302747 C 30.721984408813388 6.852667480302747 30.721984408813388 6.852667480302747 30.721984408813388 6.852667480302747 C 30.721984408813388 6.852667480302747 30.721984408813388 6.852667480302747 30.721984408813388 6.852667480302747 ZM 31.885311287437368 4.781427959713161 C 32.0644673587676 4.781427959713161 32.225282482871755 4.860707949613888 32.36775684078413 5.01926792941534 C 32.6444464096732 5.327196053357545 32.76717155452256 5.63735560610886 32.73593245636652 5.949746587669287 C 32.70469335821048 6.262138293366922 32.613207130482856 6.516513936233485 32.46147413525226 6.712873516268976 C 32.28742884330788 6.697254238742408 32.12621363339583 6.689444781013426 31.97782868655041 6.689444781013426 C 31.53267004429381 6.689444781013426 31.202984946359866 6.759732435054493 30.98877321171428 6.900308467273836 L 30.86781731510047 6.878709264676479 L 30.867817269841893 6.878709264676479 C 30.904033770361632 6.81508367295695 30.973477623520072 6.685944301745783 31.004190635993876 6.619943902049789 L 31.004190635993876 6.619943902049789 C 31.013799846238335 6.620559056608718 31.024095176488192 6.6208802114608485 31.035124872384987 6.6208802114608485 C 31.041940451794805 6.6208802114608485 31.049036543855905 6.620757470203946 31.056424282177876 6.620505832523866 L 31.250636523837635 6.576400807543655 C 31.307757643595703 6.563428975652689 30.841259492448273 6.337326908037573 30.83621700825293 6.337326908037573 C 30.83588729953002 6.337326908037573 30.837530683666962 6.3382939932800095 30.84142260435457 6.340350180884576 L 30.873098357247557 6.537810087408934 C 30.874515810575332 6.546646009631479 30.876989734832257 6.555405173309884 30.8811394936248 6.563735647760643 L 30.8811394936248 6.563735647760643 C 30.82786775149332 6.658776121943665 30.75277562810575 6.790571990505546 30.721984408813388 6.852667480302747 L 30.721984408813388 6.852667480302747 L 30.61390416961749 6.833367413343529 C 30.7567117211631 6.306765421274724 30.80803318075681 5.940821596570052 30.767868548398624 5.735536301298117 C 30.72770391604044 5.530250281888973 30.915138595493847 5.282568925449743 31.330172405724543 4.9924915078432175 C 31.531494769603825 4.851782415411746 31.71654097299095 4.781427959713161 31.885311287437368 4.781427959713161 ZM 33.20472910953203 5.868666030598723 C 33.22068474879212 5.868666030598723 33.24069700469625 5.891230508095495 33.264765877244436 5.936359463089039 C 34.41748876213328 6.90088234601186 35.353193880692196 7.383143968507573 36.07188123292118 7.383143968507573 C 36.171212220066714 7.383143968507573 36.266397159622905 7.37393149493642 36.357437137795564 7.355506909862717 C 36.88850198748259 7.248029379117474 37.34567587637725 7.194290432710551 37.72895952861675 7.194290432710551 C 37.88678233673958 7.194290432710551 38.03207684701187 7.203401889141068 38.16484305943363 7.221624802002102 C 38.6200407778853 7.284102636245583 38.92127533953738 7.54517184140227 39.06854529611545 8.004833141609373 C 39.215815252693524 8.464495165953684 39.24705525602108 8.752341154751099 39.16226313368649 8.868372556276034 C 39.077471735489105 8.98440323366376 38.73161077006643 9.062500707502414 38.12467878914405 9.102664977791994 C 37.97294452667334 9.112706588467296 37.82023412724508 9.117727031736342 37.666546866722065 9.117727031736342 C 37.20549232652511 9.117727031736342 36.73565182957302 9.072542318177716 36.25702610000301 8.982172166923254 C 36.04164343549069 8.941505345410723 35.85955623777328 8.921172296723062 35.710765230987995 8.921172296723062 C 35.418694625714075 8.921172296723062 35.254919771802996 8.999521046173191 35.21944066925476 9.156218545073449 C 35.19793850104339 9.25118624346698 35.136506320929506 9.298670816800955 35.035144490981715 9.298670816800955 C 34.88405796924433 9.298670816800955 34.64425594977474 9.193171266841722 34.315738432572935 8.982172166923254 C 33.766822514481625 8.629615828867435 33.3674079817775 8.23912701139975 33.11749555859776 7.810704990382993 C 32.86758277334942 7.38228333143484 32.811798682430364 7.060966996706574 32.95014292377199 6.846755624129591 C 33.088487708216526 6.632544975689816 33.157660190955944 6.393788972418426 33.157660190955944 6.1304876143154186 C 33.157660190955944 5.955939771148087 33.173349890826074 5.868666030598723 33.20472910953203 5.868666030598723 ZM 39.856092303809625 7.25070651437864 C 40.28038094963819 7.25070651437864 40.72074471736631 7.452992433331465 41.1771857794056 7.857563547099906 C 41.766265605717884 8.379703767756302 42.07196157671377 8.803662931154838 42.09427369239325 9.129442123501326 C 42.11658798048436 9.455221315847814 41.96485589042528 9.65604411557013 41.63907669807879 9.731910522668278 C 41.571537144745356 9.74763878284478 41.50284693738704 9.75550291293303 41.43300607600384 9.75550291293303 C 41.16596527335427 9.75550291293303 40.88209986679397 9.640533096556288 40.581409856322956 9.410594187940012 C 40.20207782083222 9.120516408264882 39.92538861401176 8.812588646391282 39.751342235861564 8.486809454044794 C 39.57729585771137 8.161029537561097 39.49027266863627 7.766077862475191 39.49027266863627 7.301954066718471 C 39.61085527251891 7.267788911135716 39.73279490953096 7.25070651437864 39.856092303809625 7.25070651437864 ZM 39.03518357076593 2.25 C 38.99345950892846 2.25 38.948796174160215 2.2515355666301384 38.901193566461195 2.2546066998904153 C 37.79840356280949 2.5402217368616755 36.60217161786333 2.683029265777993 35.3124973695541 2.683029265777993 C 35.151288133774024 2.683029265777993 34.988618675312274 2.6807978822274574 34.82448935623746 2.676335160384962 C 34.77543231895444 2.6750012996462367 34.72675653991188 2.6743343240182984 34.6784623811784 2.6743343240182984 C 33.2725655591211 2.6743343240182984 32.189939518118784 3.239536540522691 31.430583896102853 4.369940792497173 C 30.88613079037119 4.726959082999704 30.55142588278826 5.01257382402231 30.426469309129786 5.226785196599293 C 30.301513244630286 5.440996026073369 30.27919957884459 5.739998796847734 30.359528300458052 6.123793327888086 C 30.292443856045747 6.303483993512762 30.240633716982494 6.462755076053318 30.20409787761097 6.601607299646963 L 30.204097843667036 6.601607299646963 L 29.2991064786911 7.0288956838632455 L 29.672357481453258 7.018453263242838 L 30.160914701926927 6.793653556397862 L 30.160914704755587 6.793653556397862 C 30.149862848421574 6.8550426503478175 30.142907637113023 6.910955094587143 30.140049071095127 6.9613908891158385 L 30.140049070520554 6.9613908891158385 L 29.370330261108926 7.473696240270064 L 29.719497048665787 7.427842423930448 L 30.15238040123817 7.142028726209707 L 30.15238040123817 7.142028726209707 C 30.168826345033526 7.208255056714867 30.19994264818811 7.2548692171237885 30.245729312116246 7.281871569505077 C 30.383766168527355 7.363277988319629 30.57654203877476 7.403981016692603 30.8240569341731 7.403981016692603 C 30.888625443055723 7.403981016692603 30.956919049516458 7.401211191868702 31.02893775355531 7.395671180152297 C 31.214357159156453 7.243362676874957 31.49312690269513 7.167208063167683 31.865246893654195 7.167208063167683 C 31.99468026457216 7.167208063167683 32.13540727939955 7.17642162294465 32.28742830020497 7.194848380429979 C 32.474862708106926 8.096320274508505 33.188899108077685 8.912999684183836 34.429538043220155 9.64488733359318 C 33.50129008963811 9.586871632830713 32.76828672582421 9.557864144518083 32.23052777074415 9.557864144518083 C 31.692768996698398 9.557864144518083 31.350254450352182 9.586871632830713 31.20298449377411 9.64488733359318 C 30.908444490100816 9.760918010980907 30.7567117211631 9.979592241176112 30.747786232219532 10.300908575904378 C 30.97570470750593 10.354780039420524 31.20169924074553 10.381715771178596 31.425769831938332 10.381715771178596 C 31.684311617201786 10.381715771178596 31.94029194812319 10.345855048321289 32.19371082470254 10.274132878469464 L 36.357437137795564 10.274132878469464 C 36.41098998093981 10.095622918563839 36.205704685667875 9.792157290171252 35.74158052784255 9.363735269154494 L 35.74158052784255 9.363735269154494 C 36.21896544830518 9.494301552735726 36.74391351098894 9.559584694526341 37.316424353825234 9.559584694526341 C 37.99628202064057 9.559584694526341 38.743211448152415 9.467525131163603 39.55721263636077 9.283406004438126 L 40.280176742945294 9.604722339166392 C 40.01464431810178 9.712200231980239 39.67745924057849 9.765939178387162 39.26862295864985 9.765939178387162 C 39.10027916101945 9.765939178387162 38.91978651343596 9.75682808402525 38.72714574003658 9.738605171164215 C 38.65135247079653 9.731435488659264 38.578555681326755 9.727850285338183 38.50875609576446 9.727850285338183 C 37.97030866723308 9.727850285338183 37.610219853930666 9.941183279480816 37.42849255240606 10.367849267766081 C 37.785180817375654 10.423716453429853 38.10565860121606 10.451650046261738 38.38992662806448 10.451650046261738 C 38.696061426208935 10.451650046261738 38.960201335199805 10.41925359581163 39.18234563089988 10.354461419048624 C 39.80442366568284 10.300367645409358 40.32978883139891 10.273321120658329 40.758440403910875 10.273321120658329 C 41.037063057079 10.273321120658329 41.274824095825416 10.284748005814185 41.47172496842453 10.307602500263107 C 41.712536797231884 10.335553472388005 41.96647795777313 10.37654905219336 42.19510762631578 10.37654905219336 C 42.44101738107353 10.37654905219336 42.657645923653696 10.329122409836094 42.7971567500388 10.167026468043764 C 43.40080621699341 9.465657581301945 43.367349629669526 9.4299735479236 43.382863545232205 9.048684893694519 C 43.40746248621728 8.444152703482308 43.34446544559504 7.7163940844378995 42.96134472422754 7.7163940844378995 C 42.89166679371633 7.7163940844378995 42.81139908066272 7.74046585353492 42.719145448528 7.793728679727016 C 42.27877588770222 8.047976874444819 42.697752987103776 8.324571581359526 42.66990122177649 9.024959986320544 C 42.66990122177649 9.024959986320544 42.60800342143731 8.112465999785917 41.71271276257364 7.51616507722685 C 40.99976419772489 7.041312464583617 40.11951748937535 6.757501006245382 39.021687101467144 6.739649937841099 C 38.85904660849375 6.737005388754332 38.703360005137064 6.735683114210948 38.55462729139709 6.735683114210948 C 37.69940966153468 6.735683114210948 37.074118629956 6.779401087853023 36.67875347252383 6.866838121342985 C 36.52625596943498 6.900563363571356 36.37424001759002 6.917425984685542 36.22270634112616 6.917425984685542 C 35.9130493395978 6.917425984685542 35.605403991235654 6.847010882495715 35.299770658108336 6.7061803160474565 C 34.844572215519456 6.496431801088695 34.148386340850074 6.02115086128642 33.21121303410019 5.28033731560633 L 33.21121303410019 5.28033731560633 C 33.77960063966922 5.5023637579756635 34.31484991621766 5.613376888643179 34.81696122581412 5.613376888643179 C 35.32409261661102 5.613376888643179 35.79741983422378 5.500132691235157 36.23694287865241 5.273643934350508 C 37.1116376270216 4.822907625242641 37.935011323124264 4.586382869746059 38.70706469109761 4.564069848895064 C 39.47911661079653 4.541756103906861 39.92762112902668 4.316388311421532 40.05257752165085 3.8879661093704723 C 39.40101913695788 3.780860604116283 38.736072179410236 3.7183822267698954 38.057738097282346 3.700531339399914 C 38.691444327365225 3.459544178870866 39.12879206361843 3.149384264050946 39.36977985776753 2.7700518212330323 C 39.59003705190131 2.4233506077259124 39.47850471485504 2.25 39.03518357076593 2.25 Z"
     style="fill:#ffffff;stroke:none"
     id="path6" />
  <path
     d="M 30.652368437292118 12.487672090530396 L 30.362383731877614 13.115972285595152 L 29.444098831398353 15.17003061561455 L 29.2991064786911 15.460015321029054 L 29.903241281637982 15.750000026443558 L 30.048233634345234 15.435849928911178 L 30.67653382940999 14.010091793956537 L 30.99068392694237 14.56589581266767 L 31.280668632356875 15.145865223496676 L 31.570653337771375 14.56589581266767 L 31.90896882742163 13.961761009720787 L 32.22311892495401 14.56589581266767 L 32.51310363036851 15.145865223496676 L 32.803088335783016 14.56589581266767 L 33.11723843331539 13.961761009720787 L 33.45555392296565 14.56589581266767 L 33.74553862838015 15.145865223496676 L 34.03552333379466 14.56589581266767 L 34.349673431327034 13.985926401838663 L 34.66382352885941 14.56589581266767 L 34.97797362639179 15.145865223496676 L 35.26795833180629 14.56589581266767 L 35.582108429338675 13.961761009720787 L 35.89625852687105 14.56589581266767 L 36.21040862440343 15.145865223496676 L 36.50039332981793 14.56589581266767 L 36.81454342735031 13.961761009720787 L 37.12869352488269 14.56589581266767 L 37.44284362241507 15.145865223496676 L 37.73282832782957 14.56589581266767 L 38.04697842536195 13.961761009720787 L 38.361128522894326 14.56589581266767 L 38.65111322830883 15.145865223496676 L 38.96526332584121 14.56589581266767 L 39.27941342337359 13.961761009720787 L 39.59356352090597 14.56589581266767 L 39.88354822632047 15.145865223496676 L 40.19769832385285 14.56589581266767 L 40.511848421385224 13.961761009720787 L 40.85016391103548 14.590061204785545 L 41.140148616449984 15.1216998313788 L 41.45429871398236 14.590061204785545 L 41.79261420363262 13.937595617602913 L 42.63840292775825 15.460015321029054 L 42.80756067258338 15.750000026443558 L 43.387530083412386 15.435849928911178 L 43.24253773070514 15.145865223496676 L 42.08259890904712 13.067641501359402 L 41.79261420363262 12.560168266884022 L 41.50262949821811 13.091806893477278 L 41.140148616449984 13.720107088542035 L 40.801833126799735 13.091806893477278 L 40.48768302926735 12.536002874766146 L 40.22186371597073 13.091806893477278 L 39.88354822632047 13.695941696424159 L 39.569398128788094 13.091806893477278 L 39.27941342337359 12.511837482648271 L 38.989428717959086 13.091806893477278 L 38.67527862042671 13.695941696424159 L 38.336963130776454 13.091806893477278 L 38.04697842536195 12.511837482648271 L 37.756993719947445 13.091806893477278 L 37.41867823029719 13.695941696424159 L 37.10452813276481 13.091806893477278 L 36.81454342735031 12.511837482648271 L 36.524558721935804 13.091806893477278 L 36.21040862440343 13.695941696424159 L 35.87209313475317 13.091806893477278 L 35.582108429338675 12.511837482648271 L 35.29212372392417 13.091806893477278 L 34.97797362639179 13.671776304306285 L 34.66382352885941 13.091806893477278 L 34.349673431327034 12.511837482648271 L 34.05968872591253 13.091806893477278 L 33.74553862838015 13.695941696424159 L 33.43138853084777 13.091806893477278 L 33.11723843331539 12.511837482648271 L 32.82725372790089 13.091806893477278 L 32.51310363036851 13.695941696424159 L 32.198953532836136 13.091806893477278 L 31.90896882742163 12.511837482648271 L 31.59481872988925 13.091806893477278 L 31.280668632356875 13.695941696424159 L 30.966518534824495 13.091806893477278 L 30.652368437292118 12.487672090530396 Z"
     style="fill:#ffffff;stroke:none"
     id="path8" />
  <path
     d="M 49.0201580851966 2.684321042274879 L 49.0201580851966 3.105480380967199 L 46.79590858881689 3.105480380967199 L 46.79590858881689 2.684321042274879 ZM 47.901452665881536 3.5134795517385227 Q 49.296544285128824 3.5134795517385227 49.829574581284604 4.22418598094833 Q 50.36260487744038 4.934893223155434 50.36260487744038 5.500826423272114 Q 50.34944371585602 6.382629308074099 49.62557513139849 7.040691361945565 Q 48.90170763093735 7.6987534158170305 47.901452665881536 7.6987534158170305 Q 46.88803744257168 7.6987534158170305 46.16416921944628 7.040691361945565 Q 45.44030113182043 6.382629308074099 45.44030113182043 5.513987223524342 Q 45.44030113182043 4.934893223155434 45.87462212892879 4.22418598094833 Q 46.30894317120367 3.5134795517385227 47.901452665881536 3.5134795517385227 ZM 46.16416921944628 2.25 L 46.16416921944628 3.237093351806297 Q 45.69036469241832 3.5134795517385227 45.29552718006304 4.132058030523875 Q 44.90068969875974 4.750635696311928 44.8875287771225 5.500826423272114 Q 44.8875287771225 6.382629308074099 45.61797735520749 7.28417465791689 Q 46.34842665595676 8.185719646427549 47.901452665881536 8.251525815681482 Q 49.44131814655318 8.185719646427549 50.178348253927204 7.28417465791689 Q 50.915377277304835 6.382629308074099 50.915377277304835 5.513987223524342 Q 50.90221611572047 4.750635696311928 50.507379461529005 4.12547672706743 Q 50.11254208467327 3.500317848155964 49.62557513139849 3.2239316482237386 L 49.62557513139849 2.25 Z"
     style="fill:#ffffff;stroke:none"
     id="path10" />
  <path
     d="M 47.7388841387549 9.748474448704684 C 47.655529693833124 9.748474448704684 47.57217506824529 9.756052132573021 47.48882062332352 9.76362981644136 C 46.283968881200494 9.892450443614562 45.42769056596904 11.11245753935973 45.6171326655004 12.294576205883033 C 45.70048719087502 13.173587619297471 46.24608045197863 13.666137154015214 46.84471746205135 14.15110883125582 C 48.625473228980404 15.242295376046282 48.12534601745159 14.840677963061381 49.92125722833582 15.750000264386166 L 50.20920930848861 15.211984668802003 C 48.07230227977411 14.21173024574438 47.81466108753166 14.052598852045845 47.147824805493244 13.61309323567166 C 46.602231623431045 13.173587619297471 46.170303593534896 12.688615942056865 46.20819202275676 11.95358056871882 C 46.19303666913462 11.445875680378938 46.49614405774303 10.923015438416916 46.83713978524028 10.672951922985543 C 47.109936421437894 10.468354423254073 47.458509916079244 10.347111503943921 47.79950573390952 10.347111503943921 C 48.057146926151965 10.347111503943921 48.29963276477227 10.407732963598997 48.51180789614829 10.559286680486462 C 49.049823491732454 10.824505549539975 49.34535306803024 11.703516872621382 48.951313512522475 12.256687821827683 C 48.7694492690568 12.521906871547262 48.44360880484866 12.703771295679005 48.117768340640524 12.703771295679005 C 47.958636946941986 12.703771295679005 47.79950573390952 12.65830505414652 47.6631073706442 12.55979525560261 C 47.39031064411355 12.408241538715146 47.18571318954859 11.877803619942055 47.46608759289031 11.582274043644261 C 47.33726690643606 11.445875680378938 47.15540248230431 11.279166609869334 47.01900420937202 11.279166609869334 C 46.92807199730615 11.279166609869334 46.85987281567349 11.347365701168963 46.81440675480707 11.506497094867497 C 46.51129941136517 12.233954791394472 46.99627117893881 13.059922286465357 47.72372878513276 13.256942244885307 C 47.85254947158701 13.29483044827459 47.981370158041265 13.317563659373866 48.11019066382946 13.317563659373866 C 48.94373601637747 13.317563659373866 49.71665977377087 12.62041667009117 49.71665977377087 11.756560790964937 C 49.79243654188157 10.748728781429275 48.989202077243895 9.824251290210972 47.981370158041265 9.76362981644136 C 47.9055932092645 9.756052132573021 47.82223876434273 9.748474448704684 47.7388841387549 9.748474448704684 Z"
     style="fill:#ffffff;stroke:none"
     id="path12" />
  <path
     d="M 60.39784699616992 3.5460601742609743 C 60.398510523591625 3.5460601742609743 60.399173177950935 3.5460733793297283 60.39983321312305 3.5460997894672373 C 60.40446218995186 3.546284987828197 60.40902394097609 3.547077182820659 60.41346695551433 3.54855833317714 C 60.354221814317505 3.6433506463983054 60.37790013958606 3.6967380845753803 60.48454121912788 3.708587178294426 C 60.61488070437338 3.6730400062700888 60.63855990270433 3.6196526772258135 60.555615482741416 3.54855833317714 L 60.555615482741416 3.54855833317714 C 60.63855990270433 3.5841055052014763 60.721654489399526 3.619622556573118 60.80459890936245 3.6551697285974543 C 60.69795695675823 3.6907169006217915 60.591183171732084 3.708587178294426 60.48454121912788 3.708587178294426 C 60.47071103769728 3.7105629184987965 60.45737326345858 3.711550897733782 60.44452789641177 3.711550897733782 C 60.380341222048024 3.711550897733782 60.32846821973131 3.686879354855855 60.28897524220382 3.6375129146808822 C 60.3296014547226 3.576573159371511 60.365923469624256 3.5460601742609743 60.39784699616992 3.5460601742609743 ZM 60.482247684211 3.4580374777332104 C 60.47082540887128 3.4580374777332104 60.45974450092878 3.458529775792309 60.4490040873211 3.459603751673397 C 60.330512931865044 3.4714531727908415 60.235802249978 3.5485182814396783 60.16470703286693 3.6907068604042257 C 60.27134200097196 3.786677698728518 60.38033685673604 3.8346338157339654 60.49176144515092 3.8346338157339654 C 60.5041502005641 3.8346338157339654 60.51656951316117 3.834041006366414 60.52901850987975 3.8328553876313123 C 60.65343426676172 3.8210062939122666 60.78667843060198 3.773650189039145 60.92886711869933 3.6907068604042257 L 61.159970227430165 3.6907068604042257 L 61.159970227430165 3.619632596790683 L 60.92886711869933 3.619632596790683 C 60.74631762905189 3.5122506146722317 60.59785249538263 3.4583751346152436 60.48342369925974 3.4580392238580044 C 60.483030821181096 3.458038023397209 60.48263881616485 3.4580374777332104 60.482247684211 3.4580374777332104 ZM 61.66891496725187 3.432553113763693 C 61.71607168650009 3.432553113763693 61.73612331057158 3.4564025592620613 61.72878784031214 3.5040810424252684 C 61.716939510522685 3.5811000970326643 61.681422459151044 3.6521344180415456 61.62217644489182 3.717303833265898 C 61.562931303694995 3.782473685021449 61.506528853662736 3.82703762721622 61.45320744082943 3.8507357055215117 C 61.43902366912806 3.857039543426123 61.428613273106436 3.8601886794920395 61.42197625276458 3.8601886794920395 C 61.403660276738286 3.8601886794920395 61.4140715458223 3.8362123125477092 61.45320744082943 3.788378096879441 C 61.49509872076145 3.7371786622020036 61.50407816751441 3.7115886576824515 61.48014752721312 3.7115886576824515 C 61.47361789354609 3.7115886576824515 61.46463757373073 3.7134937889654664 61.45320744082943 3.717303833265898 C 61.44177730792814 3.7211139866991285 61.43239188716058 3.7230192271149436 61.42505030546435 3.7230192271149436 C 61.398143395451754 3.7230192271149436 61.39868294801309 3.697429004329792 61.42661046796776 3.6462295696523546 C 61.4621572034609 3.581060045295203 61.50348186589727 3.518849438534224 61.55087867730465 3.459603751673397 C 61.59975620253731 3.441830383926828 61.63866597438363 3.432837404706711 61.6675477515382 3.4325597708644704 C 61.66800610929661 3.4325554055524856 61.66846184786784 3.432553113763693 61.66891496725187 3.432553113763693 ZM 61.319999072547446 3.8507357055215117 C 61.37924421374427 3.886282877545849 61.391083812909756 3.9187845896639115 61.35553620435422 3.9484069419967263 C 61.33939328063401 3.961859851339029 61.3250759303859 3.9685812313349977 61.31259113810905 3.9685812313349977 C 61.29758406856732 3.9685812313349977 61.285224124213244 3.958870594824561 61.275521781795575 3.939466783051627 C 61.257750596705 3.9039198292928896 61.272602261140065 3.8744337838268033 61.319999072547446 3.8507357055215117 ZM 61.727809137365114 3.310487204323195 C 61.703019403665195 3.310487204323195 61.67369847612494 3.3158125575463884 61.639833258808395 3.326395383391411 C 61.54504225518082 3.3560178448570253 61.46216768020966 3.4240361718155308 61.39107333616099 3.53067801528694 C 61.319979865174716 3.637319422227151 61.30210827790849 3.714384858274387 61.33765588646402 3.7617811240177694 C 61.266561542415346 3.7973282960421058 61.2222221955222 3.8418923473696776 61.204447518182036 3.895212996273383 C 61.18667546002906 3.948533863442688 61.21035291223522 3.989858853277455 61.275521781795575 4.01948120561027 C 61.28856882625608 4.025411700207372 61.30280061638929 4.02837782056832 61.3182171521952 4.02837782056832 C 61.37980559286554 4.02837782056832 61.46031242261608 3.981041141333532 61.55981883624975 3.886272837328283 C 61.68423459313173 3.767782336669027 61.764314495370144 3.664023236099654 61.799862103925676 3.5751553060388117 C 61.83541058554361 3.486287703376368 61.84121819660834 3.415253382367487 61.81751891784225 3.3619325151981823 C 61.80270828733984 3.328606959575767 61.77405263334609 3.311452265670259 61.731469887995665 3.3105266012638586 C 61.73026069657584 3.3105003002591493 61.72904102840726 3.310487204323195 61.727809137365114 3.310487204323195 ZM 61.42936585289264 2.4858666471541646 C 61.55883314880356 2.4858666471541646 61.70608297961621 2.505431047841743 61.87093636753922 2.544354979668809 C 62.29750243183126 2.645071621483898 62.51362029758029 2.8642057541152957 62.519544899006206 3.2019036700808963 C 62.52546950043213 3.539601695179297 62.353691854638654 3.8418324334626845 62.00414473582121 4.108435787114013 C 61.846873894815985 4.228388230757016 61.75077766290493 4.288356485884146 61.71584730946406 4.288356485884146 C 61.67314233537806 4.288356485884146 61.72186358244167 4.198721788773153 61.86199620859412 4.01948120561027 C 62.1167514507216 3.6936326016293135 62.20565452154392 3.427142527823994 62.12863644913172 3.219783987971096 C 62.07777358000832 3.0828451877660035 61.95065918725727 3.0143720498650697 61.74733081256164 3.0143720498650697 C 61.64277111377424 3.0143720498650697 61.518056769552494 3.0324794731112843 61.37319301827079 3.06869530179891 C 60.89923101563377 2.938355707420608 60.757161064022405 2.793271398750869 60.94674743658953 2.6333095611725517 C 61.05931311755727 2.5383319131744266 61.2135133981123 2.4890983967493945 61.409624165972076 2.486020442552033 C 61.416158164951085 2.4859178850035875 61.42273843623715 2.4858666471541646 61.42936585289264 2.4858666471541646 ZM 59.848672414157654 4.470735728364181 C 59.849869382703915 4.487483466059894 59.85445470641287 4.505977765080772 59.862529660522554 4.526164713823799 C 59.88622893928864 4.585409855020627 59.89806679232933 4.659459515283087 59.89806679232933 4.748327663609528 C 59.89806679232933 4.837195157139172 59.95424748451275 4.890359200475419 60.06681229241809 4.908133004753187 C 60.11528209751136 4.915785833193936 60.16870303945792 4.919625998147063 60.22706813375859 4.919625998147063 C 60.304252961088615 4.919625998147063 60.39008285227355 4.912910402189474 60.48454121912788 4.899416349781714 L 60.48454121912788 4.899416349781714 C 60.53983226072877 5.131640034099069 60.50996130387841 5.247626810069381 60.394965890259876 5.247626810069381 C 60.3867425155427 5.247626810069381 60.378083482689426 5.24703356417063 60.36898966476246 5.24584750890433 C 60.34626908894339 5.242883898597773 60.32087868831435 5.241264367851371 60.29295902592125 5.241264367851371 C 60.15343928957147 5.241264367851371 59.950768330860775 5.281706364204389 59.70250081540527 5.396936195076516 L 57.632407011667425 6.911175616402788 C 57.919113718337265 6.24219286430862 58.16956781856601 5.672185922176359 58.372652172321686 5.206287305572264 C 58.69519721732526 5.0987722905710715 59.00412554465429 4.9391136239101066 59.314944925135194 4.892264222625634 C 59.43891367406992 4.873578504674218 59.38025173855428 4.649007430532013 59.40457001855982 4.50917841182811 C 59.43638746802425 4.508791863451846 59.6851906072603 4.484488862038245 59.848672414157654 4.470735728364181 ZM 60.59091252238902 3.0771714280800135 C 60.59158914574668 3.0771714280800135 60.59226489604195 3.077177102985594 60.59294064633721 3.077188452796755 C 60.59535291774007 3.077228941065415 60.59768574046481 3.0774503169494496 60.60009277349329 3.07763546074401 C 60.67711084590549 3.0835597347715336 60.89345396175293 3.15761004983079 61.24892480893391 3.299798410529739 C 61.26853029812054 3.352080551712234 61.30069740907496 3.378210981855518 61.34548638310255 3.378210981855518 C 61.38190356180549 3.378210981855518 61.426666343961166 3.3609352596752293 61.479804413691106 3.326395383391411 C 61.55317483140871 3.2787043499562474 61.62543733294455 3.2548486838883006 61.69655699580274 3.2548486838883006 C 61.74029218351717 3.2548486838883006 61.7835960784075 3.263870255901919 61.826459076787344 3.2819180926395397 C 61.93902563081748 3.3293146857813207 61.95387991443974 3.436089125604272 61.87093636753922 3.601975782874111 C 61.7879928206387 3.7678624401439498 61.67842523594221 3.9069155246425353 61.54216202233317 4.01948120561027 C 61.40589618953696 4.132047323109203 61.346478181985525 4.253453197377583 61.36425285932569 4.383792682623085 C 61.382026663603455 4.5141321678685875 61.46210831196667 4.609068099854056 61.60429612700162 4.668313241050885 C 61.63984286249476 4.8815960549313075 61.73757172108817 5.059405034028739 61.89753334040089 5.201593722126086 C 62.05749495971361 5.343782191957834 62.33303257913886 5.503721111648231 62.724051034875366 5.681456753504316 C 62.107899471078596 6.724173071999533 61.799862103925676 7.476510583383198 61.799862103925676 7.938623383168379 C 61.799862103925676 7.938623383168379 61.83216192036444 8.098331377854773 61.87369349858889 8.321107217443185 C 61.93923254660557 8.672662816304888 62.027761073659576 9.181276665478144 62.04862202657308 9.467167495338009 C 62.05896257760294 9.608864212774655 62.02720929822469 9.723293008897553 61.97754776295953 9.804881562957954 C 61.868242970044534 9.984454782894087 61.30435379439352 10.072579955120698 60.291397117293045 10.072579955120698 C 60.22727417648428 10.072579955120698 60.161352727137725 10.072227237912315 60.09363276925339 10.071521803495553 C 59.55876069542849 10.125685721541945 58.97360415631819 10.152765497909147 58.33815354823612 10.152765497909147 C 57.86150862485317 10.152765497909147 57.356566439590424 10.137529686019409 56.823322627135894 10.107058935302327 C 56.9536616758502 9.716039606503422 57.63496552102178 9.449326465255673 58.867266465959325 9.307138213689525 C 60.08771777151383 9.307138213689525 60.6977640099685 8.945712644429936 60.6977640099685 8.222920437622552 C 60.6977640099685 7.725260902344232 60.43127306310079 6.925566740423448 59.89806679232933 5.823605280731402 C 60.58531182711238 5.6340206542890705 60.86967261512153 5.426725520592754 60.751181459665474 5.201593722126086 C 60.798578271072856 4.869820407586408 60.71570544222649 4.692011210223377 60.50242153701807 4.668313241050885 C 60.47278281476532 4.6712770696230415 60.444719097076714 4.672759093041918 60.41823125701467 4.672759093041918 C 60.23293162081672 4.672759093041918 60.12473474408349 4.600229870943805 60.09363276925339 4.455090450210255 C 60.27136906590627 4.383996106161582 60.3363711805488 4.324577443813354 60.28897524220382 4.277181287202771 C 60.24157843079644 4.229785130592187 60.158705601950075 4.2002994125245 60.04021531955642 4.188450209672656 C 60.12315886645693 4.105506881037735 60.093448553087626 4.028441335857701 59.951260738052675 3.9573471009418264 L 60.271318428287245 3.459603751673397 C 60.32693599522461 3.417890576470372 60.39794914447037 3.397039118110442 60.48436922583567 3.397039118110442 C 60.61888456852594 3.397039118110442 60.79072769399919 3.44755843718063 60.999941382312876 3.54855833317714 C 61.11842991858174 3.536709348590894 61.08592929779167 3.486337795331395 60.90227014583766 3.3974696470049537 C 60.7402079383978 3.3190524921015903 60.58035457882231 3.2798279812611635 60.42288206040339 3.2798279812611635 C 60.40189538650473 3.2798279812611635 60.38095149266351 3.2805246850539556 60.36004950581736 3.2819180926395397 C 60.439675415609344 3.1454174060585323 60.51674412564057 3.0771714280800135 60.59091252238902 3.0771714280800135 ZM 61.575371569789596 2.25 C 61.4482126508563 2.25 61.31860129964988 2.2622792739001585 61.18656720029183 2.286654898076308 C 60.80147247291885 2.3577491670961823 60.454902496875114 2.636078342148582 60.14682671497673 3.1218892475222537 C 60.07573411705285 3.2996253259095374 59.90395472513458 3.5603072429861315 59.63142655179173 3.903929651244855 C 59.58578590539588 4.05226153376577 59.60066681742124 4.1264217455542465 59.67589554845083 4.1264217455542465 C 59.67878931376563 4.1264217455542465 59.681772131444916 4.126311957957826 59.6848444380199 4.126092601030584 C 59.696672250843015 4.125247694895905 59.7080172601606 4.124825569226964 59.71887946597266 4.124825569226964 C 59.78418977164133 4.124825569226964 59.83205279836869 4.140091720034999 59.862529660522554 4.170569891782455 C 59.823061128742175 4.20017216368014 59.80199413310299 4.231848395301856 59.79950153995961 4.265559080574141 L 59.35986922383432 4.264218056732376 C 59.02537762952164 4.276164169510286 58.65335701154347 4.426083825132913 58.28302707889706 4.7127905318027565 C 57.351230282220065 5.513180306188337 56.902566135598 6.453667347699293 56.914512248375914 7.516871384933297 C 56.914512248375914 7.660451734491435 56.99627672450931 7.724026828646098 57.1479136938668 7.724026828646098 C 57.17290728763641 7.724026828646098 57.199798919057066 7.722299474693668 57.22853533132254 7.718918977092552 C 57.91512033093347 7.419922607591586 59.32054169163106 6.846011548685618 59.79816051611784 6.573461112251644 C 60.06625353248402 7.031923201623844 60.200244164673705 7.747751862752896 60.200244164673705 8.72066378689098 L 59.45374089275787 8.862812314118067 C 57.65268563196213 9.04054861077095 56.609956217530964 9.324908525717706 56.32557927786746 9.715926981454212 C 55.934560822130955 9.941059216452079 55.64416913734905 10.72913771971221 55.45458429264112 12.079928510512216 C 55.17020735297763 13.501813645360897 54.63700348312776 14.242311994110281 53.854966353389145 14.301558008369508 L 52.53986897256497 14.799301357637935 L 52.415377259254456 15.030180962395137 C 52.51016962022122 15.113124509295657 52.59907418479874 15.154672675705653 52.68201749979205 15.154672675705653 L 55.099212974573405 15.030180962395137 C 55.265099413577644 14.485123742647042 55.59380042154234 13.806838947244227 56.08553601019153 12.995177282516805 C 56.577271380575134 12.183518236976575 56.76993573462282 11.463680909851778 56.663293782018606 10.835681889327956 L 56.663293782018606 10.835681889327956 C 56.88842601701647 11.641418079567059 57.09572115071279 12.684147057467031 57.28530534062392 13.963843504218364 C 57.32085294917946 14.271917539991955 56.94758821728559 14.550471589998777 56.16555043275018 14.799301357637935 C 55.81007914903801 14.822998890279232 55.63226995167498 14.935582905557302 55.63226995167498 15.137015861789079 L 57.462990999657784 15.06571809420191 C 57.86585865824613 15.06571809420191 58.067345744346525 14.905779174511515 58.067345744346525 14.585855062823681 C 57.937006259101025 14.30147855969138 57.92215153894757 13.720916511445202 58.022868453594654 12.84408859634462 C 58.12358536824174 11.967258935119242 58.014018220076444 11.256246522703142 57.69409410838861 10.711190176017443 L 60.822255723279014 10.586921966680556 C 61.841273199539344 10.586921966680556 62.35079939891745 10.32624037700236 62.35079939891745 9.804881562957954 L 62.26184481741371 8.063115096478892 C 62.26184481741371 7.399568903930734 62.43965445130794 6.830624260470001 62.79512529848891 6.3566622578329754 L 63.168376934446826 7.938623383168379 L 62.635096453371624 10.391355989756498 C 62.528455373829814 10.557243083557536 62.454406586629744 10.714165572666358 62.41293350358589 10.862278862189628 C 62.37146303972923 11.0103921517129 62.3447665377543 11.143860692589186 62.33291908102725 11.262350974982843 C 62.33291908102725 11.357144597797603 62.35961383687739 11.48435590047472 62.41293350358589 11.64431926591223 C 62.46625666254399 11.804281758287345 62.49897991424529 11.955397509393839 62.510828244034734 12.097585324428788 C 62.534526649738424 12.133132932984322 62.55820410194459 12.156810385190488 62.58190250764828 12.168659588042333 C 62.58665895158704 12.171037810011711 62.591170938054645 12.172227794058799 62.595441959300686 12.172227794058799 C 62.61245096091869 12.172227794058799 62.62562634555155 12.153350438911245 62.635096453371624 12.11546564231899 C 62.662002490321825 12.142371679269191 62.68401413947455 12.155815094057926 62.70113838532896 12.155815094057926 C 62.72172083133782 12.155815094057926 62.73524020255509 12.136392947974656 62.74170784879193 12.097585324428788 C 62.76866452336117 12.12454112593562 62.79075387506722 12.138029939968998 62.80794185447661 12.138029939968998 C 62.828530411922245 12.138029939968998 62.8420847056354 12.118675892752693 62.84854274818588 12.079928510512216 C 62.86748470995081 12.098870472277147 62.88641532190458 12.108309149850923 62.905352045295125 12.108309149850923 C 62.91010587004669 12.108309149850923 62.91486144092306 12.107714594358578 62.919617011799424 12.106525483373888 C 62.943316290565505 12.100601755010363 62.955154143606194 12.0681002611579 62.955154143606194 12.008854246898673 C 62.89590900240937 11.819269620456343 62.851345278480196 11.66815386934985 62.82172227135058 11.555588188382115 C 62.79210188340816 11.443023380476777 62.78930895680021 11.274038661291247 62.81300561637911 11.048904680168587 C 62.824855692293355 10.98965866590936 62.83669267227164 10.96017360263847 62.84854274818588 10.96017360263847 C 62.87224028082717 10.96017360263847 62.89592035222053 10.977820812868677 62.919617011799424 11.013367548361815 C 62.919617011799424 11.072612689558644 62.91358589676107 11.155710768503429 62.90173669390922 11.262350974982843 C 62.88988749105738 11.368994673711846 62.89871153270368 11.451864883371018 62.9283336667709 11.511110897630244 C 62.94684695489891 11.548135727761474 62.968839396678895 11.566646396702295 62.99430051536209 11.566646396702295 C 63.00958085343407 11.566646396702295 63.026109670733746 11.559979692238937 63.04388522113631 11.546648029437016 C 63.07943282969185 11.534799699647568 63.08847775612458 11.481410187947299 63.070705697971604 11.38661918431973 C 63.05293102063145 11.291825561504968 63.064770619796924 11.155566713207925 63.10624282977838 10.977830416555044 C 63.14771503975984 10.800094992964556 63.10314956970587 10.610669263878476 62.97281095752277 10.409236307646697 C 63.51786643114607 9.686444537370512 63.79642048115289 8.77394547538522 63.80826881094234 7.671983142630778 C 63.74902454280791 6.889946231157764 63.594894107244635 6.232321147785941 63.34606259348068 5.699113567420888 C 63.002440949151556 5.36734025288121 62.58785068175892 5.148206393081811 62.10203947627005 5.041564877008801 C 61.79396456743406 4.7808859065177955 61.841321217971185 4.517187886258026 62.244188003497136 4.250584314341099 C 62.64705653514788 3.9839809606897707 62.839496948690744 3.6404253417044163 62.82172227135058 3.219783987971096 C 62.80395108626 2.799142634237776 62.62334765269543 2.5205898938245492 62.279725135303906 2.384326134551523 C 62.054223594912116 2.294902715130201 61.81972078120744 2.250121801156679 61.57635813029818 2.2500002464013993 C 61.57602898577452 2.2500000822759 61.57570071431326 2.25 61.575371569789596 2.25 ZM 53.168138642431856 15.727513360112921 C 53.167170197968005 15.734545004658216 53.16879311183119 15.74266448495015 53.168138642431856 15.749863757475671 C 53.17262492812515 15.749963286588924 53.176352468029066 15.7499999552096 53.17965248019046 15.7499999552096 C 53.18826971518148 15.7499999552096 53.193972067660965 15.74975375161365 53.20265920221014 15.74975375161365 C 53.20568267185729 15.74975375161365 53.20906764390319 15.749783435735146 53.213062941130985 15.749863757475671 C 53.200468197558514 15.740237371486542 53.18057154206248 15.737158080412385 53.168138642431856 15.727513360112921 Z"
     style="fill:#ffffff;stroke:none"
     id="path14" />
  <path
     d="M 69.45861490522913 2.685336269119501 Q 69.59930047322419 2.685336269119501 69.75026670286928 2.7493049756904018 Q 70.08843207279578 2.892595766990521 70.08843207279578 5.024754814495034 L 70.08843207279578 7.065208687457777 L 66.25971609566389 7.065208687457777 Q 67.73847159299922 5.036218857361127 68.28870607510193 3.998796603287592 Q 68.83894040786325 2.9613751705917313 69.12552087040302 2.783695274856588 Q 69.28416414381309 2.685336269119501 69.45861490522913 2.685336269119501 ZM 69.29599676124269 2.25 Q 69.26553679158172 2.25 69.23442181056114 2.2506550649562738 Q 68.68991949923287 2.2621185046231376 68.00785703662962 3.580388906954257 Q 67.32579591809893 4.898659303451729 65.30826818943024 7.5122738028112295 L 70.53549718814924 7.5122738028112295 L 70.52403374264873 4.577689400458791 Q 70.46671770987733 2.6174782272563752 70.12282181193174 2.4283349233560685 Q 69.79857655345786 2.25 69.29599676124269 2.25 Z"
     style="fill:#ffffff;stroke:none"
     id="path16" />
  <path
     d="M 73.54614393581186 2.5513193213959653 C 73.47724184825444 2.5513193213959653 73.40833961135561 2.5575831533711972 73.3394375237982 2.563846985346429 C 72.34348823390268 2.670332130092102 71.63567518919976 3.678809072270798 71.79227099091402 4.655966846406226 C 71.86117314497503 5.382571425536912 72.31216906585941 5.789720572764038 72.8070117790687 6.1906057445081855 C 74.27901234108413 7.09259760494461 73.86559936771542 6.760614371416488 75.3501276566847 7.512274404454903 L 75.58815334874768 7.067542300378275 C 73.82175258472434 6.240716353640854 73.60878234656909 6.109175855326201 73.05756504874414 5.745873640431557 C 72.60656919319663 5.382571425536912 72.24953072977287 4.981686253792764 72.28084989781614 4.374094520693565 C 72.26832224553297 3.954417721183271 72.51887555254376 3.5222132693898103 72.80074795292713 3.315506857376153 C 73.02624591803622 3.146383364876649 73.31438221923186 3.046162071940612 73.59625469428592 3.046162071940612 C 73.80922493244117 3.046162071940612 74.00966751831324 3.0962727184086303 74.18505479961898 3.2215493905817 C 74.6297869036956 3.4407834548785243 74.87407627255877 4.167387959338512 74.54835701451363 4.624647715698308 C 74.3980251871156 4.843881929336527 74.12868036434472 4.994213906075932 73.85933554157383 4.994213906075932 C 73.72779504325918 4.994213906075932 73.59625469428592 4.956630799885035 73.48350567439601 4.875201060044446 C 73.25800763461622 4.749924387871378 73.08888417945207 4.311456109936333 73.32064604537345 4.067166741073173 C 73.21416085162514 3.954417721183271 73.06382887488573 3.8166133967270346 72.95107992966652 3.8166133967270346 C 72.87591394129682 3.8166133967270346 72.81953943135187 3.8729878320012876 72.78195647450237 4.0045283303159405 C 72.53140320482693 4.6058562372735565 72.93228845124177 5.288613884071761 73.53361628352869 5.451473662435728 C 73.64010147727701 5.4827926438022505 73.74658667102533 5.501584271568397 73.85307171543225 5.501584271568397 C 74.54209333771344 5.501584271568397 75.18100420152055 4.925311669177116 75.18100420152055 4.211234891670993 C 75.24364246293639 3.3781451934626876 74.57967629456293 2.613957643481744 73.74658667102533 2.563846985346429 C 73.6839482602681 2.5575831533711972 73.61504617271068 2.5513193213959653 73.54614393581186 2.5513193213959653 Z"
     style="fill:#ffffff;stroke:none"
     id="path18" />
  <path
     d="M 80.24165074206587 2.9103358862707016 L 80.24165074206587 3.258472781159016 L 78.40305132852603 3.258472781159016 L 78.40305132852603 2.9103358862707016 ZM 79.31691134964413 3.595731275462767 Q 80.47011589668679 3.595731275462767 80.91072707430249 4.183212322922146 Q 81.35133825191818 4.770694042417803 81.35133825191818 5.238503274939092 Q 81.34045902995595 5.967415327968011 80.74209793915666 6.511379711590536 Q 80.14373774440574 7.055344095213061 79.31691134964413 7.055344095213061 Q 78.47920647962727 7.055344095213061 77.88084568751077 6.511379711590536 Q 77.28248500740031 5.967415327968011 77.28248500740031 5.249382198218537 Q 77.28248500740031 4.770694042417803 77.6415015349397 4.183212322922146 Q 78.00051809981444 3.595731275462767 79.31691134964413 3.595731275462767 ZM 77.88084568751077 2.5513193213959653 L 77.88084568751077 3.367266120841846 Q 77.48919145674932 3.595731275462767 77.16281259509664 4.107057918527885 Q 76.83643375911203 4.618383889556725 76.82555473549382 5.238503274939092 Q 76.82555473549382 5.967415327968011 77.4293549519147 6.7126468113058655 Q 78.03315576570115 7.45787799596093 79.31691134964413 7.512274404454903 Q 80.58978823431977 7.45787799596093 81.19902884576408 6.7126468113058655 Q 81.80826856116002 5.967415327968011 81.80826856116002 5.249382198218537 Q 81.79738933919779 4.618383889556725 81.47101118691674 4.101617710181186 Q 81.1446324372701 3.584851605476345 80.74209793915666 3.3563864508554238 L 80.74209793915666 2.5513193213959653 Z"
     style="fill:#ffffff;stroke:none"
     id="path20" />
  <path
     d="M 78.58758648959079 10.822208008650591 C 79.2939142679389 10.85663493983435 79.68403015474402 10.870786029169949 79.85128267760066 10.870786029169949 C 79.88572843635185 10.870786029169949 79.91072130797855 10.870185719423802 79.92707667097793 10.869038686084963 L 79.92707667097793 10.869038686084963 L 79.83308366126752 14.55803548986026 C 79.22671433495643 14.310994632782268 78.85298856973671 14.060651710031863 78.42749858027864 13.724715045056655 L 78.58758648959079 10.822208008650591 ZM 68.33138463174613 9.904792785644531 C 68.31116291915434 9.904792785644531 68.29655743372018 9.905191785246615 68.28981517320275 9.905853646655515 C 68.05641905251707 9.948876810645686 67.74570978910707 10.090959048259464 67.78630202448709 10.377813693217945 C 67.78630202448709 11.064025664041054 67.78630202448709 11.7504939794361 67.78630202448709 12.436704501984792 C 67.32895674136681 12.412629836338937 66.85904463403355 12.391537891856387 66.71949207782745 12.384559381574576 L 66.71949207782745 12.384559381574576 C 66.71949207782745 12.643505054366273 66.92871748426965 12.997344563556197 67.5946615561246 12.997344563556197 C 67.60195615229809 13.580932533276467 67.70411561938144 14.29558933780092 67.81353691542958 14.660331456807484 C 67.8141887294347 14.659836146956621 67.81487774598894 14.659497250742874 67.81552965051121 14.659003389166429 L 67.9012198840191 15.61521353900011 C 67.9012198840191 15.72109688168004 68.08246210413091 15.750000094234593 68.28036301021547 15.750000094234593 C 68.51832608324315 15.750000094234593 68.78037486500914 15.708210135911116 68.78037486500914 15.708210135911116 L 68.74018687922596 14.748015783154273 L 68.74018687922596 14.748015783154273 C 72.48884426143366 14.777188374750523 79.64233288598328 14.966890599356333 79.99715722177726 14.966890599356333 C 80.18061738364267 14.966890599356333 80.30305160636837 14.770139623159452 80.30305160636837 14.496590999413826 L 80.39704461607877 10.375489212777495 L 78.14120007269656 10.352240063549743 L 77.95786301415666 13.566619961343292 C 76.32308198932779 13.57132757733811 73.49867894399526 13.839803619935651 71.57890684131492 13.839803619935651 C 70.96865179474106 13.839803619935651 70.4498071225222 13.81267526768002 70.08964155067565 13.741321683667508 C 70.01669377859783 13.653781460625282 69.31213090366202 12.626983863946066 68.86407227291822 12.515752043841474 C 68.82883575633495 12.507003742221201 68.72362803367089 12.497201096824824 68.59238775938252 12.486856072659009 C 68.51928900469665 11.86575200242197 68.4455886730245 11.2446616907919 68.37218397036789 10.623592379140888 C 68.51272144228086 10.450789344578311 68.82424020057321 10.497820608019538 68.90691748018932 10.258246329702132 C 68.99162994743094 10.14600144164234 68.93411227203386 9.958195732386542 68.7807070629537 9.954012391730942 C 68.68325376359074 9.915158085652195 68.43441740830337 9.904792785644531 68.33138463174613 9.904792785644531 Z"
     style="fill:#ffffff;stroke:none"
     id="path22" />
  <path
     d="M 21.39600372314453 0.375 L 21.39600372314453 17.625 "
     style="fill:none;stroke:#ffffff;stroke-width:1"
     id="path24" />
  <path
     d="M 21.39600372314453 0.375 L 24.02100372314453 0.375 "
     style="fill:none;stroke:#ffffff;stroke-width:1"
     id="path26" />
  <path
     d="M 21.39600372314453 17.625 L 24.02100372314453 17.625 "
     style="fill:none;stroke:#ffffff;stroke-width:1"
     id="path28" />
  <path
     d="M 24.02100372314453 0.375 L 81.80826568603516 0.375 "
     style="fill:none;stroke:#ffffff;stroke-width:1"
     id="path30" />
  <path
     d="M 24.02100372314453 17.625 L 81.80826568603516 17.625 "
     style="fill:none;stroke:#ffffff;stroke-width:1"
     id="path32" />
  <path
     d="M 81.80826568603516 0.375 L 99.43326568603516 0.375 "
     style="fill:none;stroke:#ffffff;stroke-width:1"
     id="path34" />
  <path
     d="M 81.80826568603516 17.625 L 99.43326568603516 17.625 "
     style="fill:none;stroke:#ffffff;stroke-width:1"
     id="path36" />
  <path
     d="M 83.57076568603514 0.375 L 83.57076568603514 17.625 "
     style="fill:none;stroke:#ffffff;stroke-width:1"
     id="path38" />
  <path
     d="M 87.09576568603515 0.375 L 87.09576568603515 17.625 "
     style="fill:none;stroke:#ffffff;stroke-width:1"
     id="path40" />
  <path
     d="M 88.85826568603517 0.375 L 88.85826568603517 17.625 "
     style="fill:none;stroke:#ffffff;stroke-width:1"
     id="path42" />
  <path
     d="M 90.62076568603516 2.1 L 99.43326568603516 2.1 "
     style="fill:none;stroke:#ffffff;stroke-width:1"
     id="path44" />
  <path
     d="M 90.62076568603516 5.550000000000001 L 99.43326568603516 5.550000000000001 "
     style="fill:none;stroke:#ffffff;stroke-width:1"
     id="path46" />
  <path
     d="M 90.62076568603516 2.1 L 90.62076568603516 5.550000000000001 "
     style="fill:none;stroke:#ffffff;stroke-width:1"
     id="path48" />
  <path
     d="M 92.38326568603514 3.825 L 99.43326568603516 3.825 "
     style="fill:none;stroke:#ffffff;stroke-width:1"
     id="path50" />
  <path
     d="M 90.62076568603516 7.275 L 99.43326568603516 7.275 "
     style="fill:none;stroke:#ffffff;stroke-width:1"
     id="path52" />
  <path
     d="M 90.62076568603516 10.725000000000001 L 99.43326568603516 10.725000000000001 "
     style="fill:none;stroke:#ffffff;stroke-width:1"
     id="path54" />
  <path
     d="M 90.62076568603516 7.275 L 90.62076568603516 10.725000000000001 "
     style="fill:none;stroke:#ffffff;stroke-width:1"
     id="path56" />
  <path
     d="M 92.38326568603514 9.000000000000002 L 99.43326568603516 9.000000000000002 "
     style="fill:none;stroke:#ffffff;stroke-width:1"
     id="path58" />
  <path
     d="M 90.62076568603516 12.450000000000001 L 99.43326568603516 12.450000000000001 "
     style="fill:none;stroke:#ffffff;stroke-width:1"
     id="path60" />
  <path
     d="M 90.62076568603516 15.900000000000002 L 99.43326568603516 15.900000000000002 "
     style="fill:none;stroke:#ffffff;stroke-width:1"
     id="path62" />
  <path
     d="M 90.62076568603516 12.450000000000001 L 90.62076568603516 15.900000000000002 "
     style="fill:none;stroke:#ffffff;stroke-width:1"
     id="path64" />
  <path
     d="M 92.38326568603514 14.175 L 99.43326568603516 14.175 "
     style="fill:none;stroke:#ffffff;stroke-width:1"
     id="path66" />
</svg>
