<?xml version="1.0" encoding="UTF-8" standalone="no"?>
<svg
   width="30.95302963256836"
   height="18.0"
   version="1.1"
   id="svg8"
   sodipodi:docname="iaretnebushen.svg"
   inkscape:version="1.1.1 (3bf5ae0d25, 2021-09-20)"
   xmlns:inkscape="http://www.inkscape.org/namespaces/inkscape"
   xmlns:sodipodi="http://sodipodi.sourceforge.net/DTD/sodipodi-0.dtd"
   xmlns="http://www.w3.org/2000/svg"
   xmlns:svg="http://www.w3.org/2000/svg">
  <defs
     id="defs12" />
  <sodipodi:namedview
     id="namedview10"
     pagecolor="#ffffff"
     bordercolor="#666666"
     borderopacity="1.0"
     inkscape:pageshadow="2"
     inkscape:pageopacity="0.0"
     inkscape:pagecheckerboard="0"
     showgrid="false"
     inkscape:zoom="44.422146"
     inkscape:cx="15.476515"
     inkscape:cy="8.9932621"
     inkscape:window-width="1920"
     inkscape:window-height="1001"
     inkscape:window-x="-9"
     inkscape:window-y="-9"
     inkscape:window-maximized="1"
     inkscape:current-layer="svg8" />
  <path
     d="M 1.7420087272147193 0.7351392718722817 Q 1.7049897717729248 0.7351392718722817 1.669653468990332 0.746917959874565 Q 1.42229743930624 0.8912098427523528 1.4841359393288096 1.0561135043781333 Q 1.5253616458064798 1.1797914595262438 1.7211855722404519 1.221017166003914 Q 1.7584856861193416 1.2288699032438029 1.7916725296656448 1.2288699032438029 Q 1.9327146149905874 1.2288699032438029 1.999460792241893 1.0870326946954825 Q 2.0819131603002043 0.9118226362972522 1.9376222922193234 0.8087574746940414 Q 1.8345571306161126 0.7351392718722817 1.7420087272147193 0.7351392718722817 ZM 1.9122081960390858 0.6151966050559752 Q 1.7971014543408173 0.6151966050559752 1.6387332041821403 0.6644666663070959 Q 1.1749415290100191 0.8087574746940414 1.42229743930624 1.2107107692314643 Q 1.5385249943410053 1.3995804715455384 1.8641021665339008 1.3995804715455384 Q 2.231419726317977 1.3995804715455384 2.865206717054408 1.1591786659813443 Q 3.4423711444809038 0.9324354895360873 3.875243629335676 0.6850794598519954 L 3.772179422835436 0.6644666663070959 L 2.823981129964609 1.035500710833234 Q 2.0844890730130565 1.288009759821744 1.7947799571818717 1.288009759821744 Q 1.7533931964657126 1.288009759821744 1.7211855722404519 1.2828566211294548 Q 1.4635231457839102 1.2416299595488134 1.432603955466561 1.0458071076056836 Q 1.4016836906583694 0.8499831811717116 1.5872011009320204 0.746917959874565 Q 1.690265784983746 0.689660133701027 1.7837879158640981 0.689660133701027 Q 1.858605548935657 0.689660133701027 1.9273158954468737 0.7263051663296656 Q 2.0819131603002043 0.8087574746940414 2.092219676460526 0.9221290927636376 Q 2.1025259538451038 1.035500710833234 2.0200735857867924 1.1591786659813443 Q 2.2880434835066263 1.0767262979230328 2.1952848380637366 0.7984510779215916 Q 2.1341997948974334 0.6151966050559752 1.9122081960390858 0.6151966050559752 ZM 2.122399258914688 0.4834304200916829 Q 2.465494213474879 0.4834304200916829 2.7209159683613984 0.6850794598519954 Q 3.2156280277295823 0.594382225090254 3.6724119930154284 0.594382225090254 Q 4.357588060332069 0.594382225090254 4.957426154739191 0.7984510779215916 Q 5.957156789635881 1.138565872436445 6.276658790605834 2.5711687534121634 Q 6.596160791575788 4.003772589490853 5.6788813308586965 5.4157626769216725 Q 4.761603302796061 6.827753958231205 4.1432132882797665 8.250050800598089 Q 3.091950072581472 10.723610858663266 3.091950072581472 11.774873596810075 Q 3.091950072581472 12.81593010460852 3.728712447848386 12.81593010460852 Q 3.7349552396427423 12.81593010460852 3.7412591580272445 12.815829818796564 Q 4.390569676127473 12.805523302636242 5.3284602589592645 12.321117998204121 Q 6.266352274445513 11.836712693772002 7.338227567361479 11.816099661451359 Q 9.605658734874691 11.816099661451359 9.481980540950838 13.753721834282812 Q 8.63684717090748 12.743684205674315 7.513438819638423 12.733378644616966 Q 7.495885459685456 12.733217232214862 7.478309654812671 12.733217232214862 Q 6.371027739657871 12.733217232214862 5.173862994105934 13.372380736350932 Q 4.303197333889674 13.837227442142419 3.46422604943962 13.837227442142419 Q 3.1313017476421217 13.837227442142419 2.8033683364197097 13.764028350443132 Q 1.64903960095459 13.506365446435105 1.7933315435263137 11.342000873179561 Q 1.8551700435488834 10.105220844146972 1.906702027411132 7.466756527516656 Q 1.9582352051520941 4.8282931659893125 2.380801173846545 3.3235432392368893 Q 2.8033683364197097 1.8187942675874376 3.566049099629014 1.5508254443584462 Q 3.806533521600202 1.4666559205461047 4.264456447178994 1.4666559205461047 Q 4.591544831047792 1.4666559205461047 5.029572245412925 1.5095998572686473 Q 5.256315600939988 1.4889859892329054 5.070797832502723 1.2622438275845553 Q 4.680942946687134 1.161419098775624 4.275744809193528 1.161419098775624 Q 3.4383372670827836 1.161419098775624 2.535399393802847 1.5920511508361164 Q 2.2788809419298492 1.665342290584236 1.8839247317581491 1.665342290584236 Q 1.8345559367373987 1.665342290584236 1.7830240722630215 1.6641971221219782 Q 1.319232277703029 1.653890605961657 1.1131019544966072 1.0561135043781333 Q 1.133714867429378 0.7056923130908305 1.7314919690129016 0.5407886514650498 Q 1.939414781720193 0.4834304200916829 2.122399258914688 0.4834304200916829 ZM 7.516719598343891 14.279166003173895 Q 8.159374958942024 14.279166003173895 8.53378200930427 14.825597604750262 Q 8.286426576559533 15.237857296060136 7.338227567361479 15.4646006515872 Q 6.637386378665587 15.4646006515872 5.89531817022544 14.866823669391547 Q 6.850262116604866 14.279166003173895 7.516719598343891 14.279166003173895 ZM 1.2573928225774882 11.898551790733928 Q 1.2573928225774882 12.723072128456645 1.4841359393288096 13.341462142972938 Q 2.0819131603002043 14.433950945761033 3.091950072581472 14.454563978081675 Q 3.122100524395018 14.455179064395015 3.1527466746505257 14.455179064395015 Q 4.148750497754279 14.455179064395015 5.6685752922498605 13.805254415084416 Q 6.686857847255722 13.369804823638079 7.46564307921095 13.369804823638079 Q 7.884988679462849 13.369804823638079 8.234893995757929 13.496058930274785 Q 9.234624153103132 13.856786995886022 9.420141443988912 14.918356250193153 Q 9.605658734874691 15.979925504500283 10.141596620108418 17.051802230070706 Q 9.296462294962089 16.206667904924377 9.080026410698316 15.093567024918611 Q 8.863590526434544 13.980464234706904 7.874166407698175 13.8464804797257 Q 7.715369555081252 13.824976336333094 7.548608576340444 13.824976336333094 Q 6.67632162883087 13.824976336333094 5.586122685415806 14.41333791344039 Q 4.306325296119778 15.104022537142413 2.6161194438474635 15.104022537142413 Q 2.5912633665780467 15.104022537142413 2.5663187035080677 15.103873541078933 Q 0.8451331312676157 15.093567024918611 0.6493092645275793 13.970158673649555 Q 0.453486323043546 12.846749367277527 1.2573928225774882 11.898551790733928 ZM 2.39952572881773 0.0 Q 2.160728496244856 0.0 1.8551700435488834 0.08730232842150386 Q 1.42229743930624 0.21098032834006597 1.0924891609517078 0.43772348986183895 Q 0.7214551761195054 0.7056923130908305 0.7420679696644048 1.0561135043781333 Q 0.7214551761195054 1.5302126508135467 1.1543276609742774 1.8291007837477586 Q 1.4936066210016132 2.0633648588444093 1.9595142074181668 2.0633648588444093 Q 2.0880408621865523 2.0633648588444093 2.2262039089932144 2.045537384338759 L 2.2262039089932144 2.045537384338759 Q 1.3604579841806992 3.61212569172588 1.3089258809305793 6.807140925910563 Q 1.2573928225774882 10.00215568254376 1.1543276609742774 11.197709646935065 Q 0.0 12.166520255799306 0.0 13.4548328656335 Q 0.0 14.743145475467694 0.5977771612774593 15.17601915420118 Q 1.1955543225549186 15.608891877831695 2.5147856451549764 15.608891877831695 Q 3.8134052487009775 15.608891877831695 5.256315600939988 15.114180057239254 Q 6.10144753832889 15.938699439858999 7.338227567361479 15.938699439858999 Q 8.100909285673755 15.938699439858999 8.657460203228123 15.340922457663346 Q 9.007880797576068 17.07241526239135 10.739374557407041 17.999999806614305 Q 9.97669236154328 15.17601915420118 9.997305393863922 14.537016107364243 Q 10.182822684749702 12.434489675967654 9.286156733904738 11.816099661451359 Q 8.418415121434268 11.217657927587874 7.405890404689225 11.217657927587874 Q 7.372139453450661 11.217657927587874 7.338227567361479 11.218322679255706 Q 6.204512699932101 11.218322679255706 5.039878761573245 11.785180112970396 Q 4.411889007095188 12.090837896375355 4.080568084410296 12.090837896375355 Q 3.7974397474373385 12.090837896375355 3.730952880642666 11.867632242252965 Q 3.5866618931739134 11.383226937820845 4.153519804440088 9.878477488619907 Q 4.720376760603291 8.373728994521942 6.04991543507877 6.137217853041178 Q 7.379454109554249 3.9007074278876424 6.895048805122129 2.292893533410722 Q 6.4106430231385225 0.6850794598519954 5.2666216395488235 0.35527115165049533 Q 4.588682864995119 0.1598296394920309 3.9577943730000027 0.1598296394920309 Q 3.5240594301623958 0.1598296394920309 3.1125628661263716 0.25220599004728445 Q 2.88581974937505 0.06668949010615266 2.586931497052967 0.015156408435118066 Q 2.4990238195999086 0.0 2.39952572881773 0.0 Z"
     style="fill:#ffffff;stroke:none"
     id="path2" />
  <path
     d="M 16.72656482892809 1.5065217748089343 C 16.72740675912293 1.5065217748089343 16.728248998282975 1.5065217748089343 16.729091237443022 1.5065217748089343 C 18.024121383169508 1.506662662944291 19.494505351259537 1.5898509275680408 21.850884132311435 1.5898509275680408 C 24.2091599597473 1.5898509275680408 25.67700546967924 1.5067417580378242 26.97000880363393 1.5067417580378242 C 27.10485728708252 1.5067417580378242 27.237803780703793 1.5076464081701124 27.36966148092815 1.5096423234209941 C 26.51285028575843 1.9548537745904468 25.257571603836656 2.567175856344256 24.430663297465905 2.7926660811212787 C 23.401887010346215 3.073200311693363 22.58312426274857 3.1122510424038046 21.909245806521973 3.1122510424038046 C 21.235367968225795 3.1122510424038046 20.416605838558567 3.0731990758325263 19.387829551438877 2.7926660811212787 C 18.559931320538123 2.566906438681908 17.302591222741135 1.9534251194635 16.445708656608108 1.5080826670453826 C 16.538517788878487 1.5071384693663277 16.632166997552446 1.5065217748089343 16.72656482892809 1.5065217748089343 ZM 18.946640209361682 3.5178519179038994 C 18.94518127564424 3.5178519179038994 18.943686501962542 3.5178927013115024 18.942157742107845 3.517974268126709 C 18.737777256278385 3.528864673817589 17.900472888551334 4.265677489349619 17.59546706859131 4.665860350942676 C 17.397805340199263 4.9252045116128285 17.344075363438563 5.25680204022574 17.53960214223563 5.411143756647799 C 17.59514574477383 5.454987155682029 17.659814634763237 5.474953723355866 17.728467631124182 5.474953723355866 C 17.89797583173127 5.474953723355866 18.091769933635618 5.353231317851314 18.23245353402355 5.168645615039423 C 18.55779266336063 4.741782989708882 19.096741687253846 3.6224242825809054 18.974303718324986 3.525777493448113 C 18.96751019130697 3.520415093278716 18.958181913713375 3.5178519179038994 18.946640209361682 3.5178519179038994 ZM 24.808072951425526 3.5179186543890686 C 24.807091677921377 3.5179186543890686 24.806125234747263 3.517937192301615 24.805176093624866 3.517974268126709 C 24.794974062419893 3.5183771587593946 24.786738285805725 3.520868654205697 24.780520669937502 3.525777493448113 C 24.658083936869474 3.6224242825809054 25.19734316183265 4.741782989708882 25.52268229116973 5.168645615039423 C 25.663366509488075 5.353231317851314 25.857002421205358 5.474953723355866 26.02641916811055 5.474953723355866 C 26.095035397611607 5.474953723355866 26.15967833452345 5.454987155682029 26.215221628096437 5.411143756647799 C 26.41074964275434 5.25680204022574 26.357333265680897 4.9252045116128285 26.15966968349759 4.665860350942676 C 25.852388952702853 4.262691649568733 25.00439933218378 3.5179186543890686 24.808072951425526 3.5179186543890686 ZM 19.90496315984692 3.7558898377534935 C 19.90354809918917 3.7558898377534935 19.902094726845494 3.7559602818211717 19.900601806955052 3.7561036416782008 C 19.723148874960785 3.77313751158712 19.056148602219505 4.727273983488849 18.849153034860095 5.201727137909766 C 18.71827969779198 5.501701459439356 18.74439838070971 5.836705020517547 18.970558442060096 5.938895881362696 C 19.009640687221868 5.9565550968548635 19.04991739188208 5.9648180624074305 19.090473401091327 5.9648180624074305 C 19.28119144537373 5.9648180624074305 19.478086322116756 5.782103452901938 19.58600972345182 5.53473354787624 C 19.801419031385844 5.040993549241539 20.061258772251417 3.8229031557496636 19.919639625210287 3.758912753359473 C 19.915252319240857 3.756930432577792 19.910387353058137 3.7558898377534935 19.90496315984692 3.7558898377534935 ZM 23.849686354107213 3.7559541025169896 C 23.848466559461627 3.7559541025169896 23.847273953754446 3.7560035369504474 23.846107301124825 3.7561036416782008 C 23.842174791943215 3.756439795825718 23.838504285258928 3.7574124183040114 23.835185998913033 3.758912753359473 C 23.69356623394149 3.8229031557496636 23.953716175877013 5.040993549241539 24.169126719671873 5.53473354787624 C 24.27704950307652 5.782103452901938 24.473944379819546 5.9648180624074305 24.664663659962784 5.9648180624074305 C 24.7052184333112 5.9648180624074305 24.745495137971407 5.9565550968548635 24.784578001063597 5.938895881362696 C 25.010739298274817 5.836705020517547 25.036545308400925 5.501701459439356 24.905670117541554 5.201727137909766 C 24.696808400319092 4.722990489829681 24.01974574864736 3.7559541025169896 23.849686354107213 3.7559541025169896 ZM 21.072067496600244 3.9342344433412655 C 21.071390862792285 3.9342344433412655 21.07070866761056 3.9342579246971585 21.070022146915903 3.934308594991453 C 20.905963474667182 3.9463631815902773 20.378074787329858 5.020470844191296 20.243906645271743 5.530052107027732 C 20.160434750586024 5.84708130810046 20.237399220037364 6.173954140735586 20.476417177530273 6.239132205389614 C 20.502040898183 6.246119762558956 20.527564514107976 6.249461530260742 20.552815622718512 6.249461530260742 C 20.759680806759675 6.249461530260742 20.948192839449 6.025129307087481 21.02258362870841 5.742589274377824 C 21.159972424106343 5.220777932703786 21.230929374031653 3.97636988269951 21.081257357780157 3.9355568144362767 C 21.078361117909914 3.9347683352226164 21.0752727016796 3.9342344433412655 21.072067496600244 3.9342344433412655 ZM 22.68218530602538 3.934178829603625 C 22.681170046348228 3.934178829603625 22.680169617001116 3.934222084732901 22.67918463591446 3.934308594991453 C 22.677322193633913 3.934474200343539 22.675632771870475 3.93508100801424 22.673879085343536 3.9355568144362767 C 22.52420768702246 3.97636988269951 22.59485196415615 5.220777932703786 22.732240141623656 5.742589274377824 C 22.806631548813492 6.025129307087481 22.995142963572395 6.249461530260742 23.202010001404812 6.249461530260742 C 23.227259874154512 6.249461530260742 23.25278534387074 6.246119762558956 23.278408446593055 6.239132205389614 C 23.517423932364288 6.173954140735586 23.594389637676464 5.84708130810046 23.51091712506033 5.530052107027732 C 23.37599325410072 5.017590052581508 22.84301034839551 3.934178829603625 22.68218530602538 3.934178829603625 ZM 21.83902110414226 3.9498483091490924 C 21.838600911457867 3.9498483091490924 21.838183190495144 3.9498643753399665 21.83777597434953 3.949913809773425 C 21.682611174610386 3.9687223758434995 21.438294463781162 5.17475818273655 21.438294463781162 5.7107534992306315 C 21.438294463781162 6.038968476734153 21.5956319068708 6.334320678735384 21.84308152492045 6.334321914596221 C 22.086933552075166 6.334320678735384 22.24443660051689 6.038968476734153 22.24443598258647 5.7107534992306315 C 22.24443598258647 5.170537717980042 21.99647286435927 3.949913809773425 21.84152125061442 3.949913809773425 C 21.840714233488214 3.949913809773425 21.839862107441476 3.9498483091490924 21.83902110414226 3.9498483091490924 ZM 21.580904771213135 0.5992219568873406 C 21.668777566337482 0.5992219568873406 21.75722256502911 0.5992615044341074 21.846202691462928 0.5992615044341074 C 23.600109201627596 0.5992615044341074 25.138354288247605 0.6000314457352215 26.341620531006154 0.6232928183990589 C 27.544888009625534 0.6465529552020599 28.431136174058878 0.6987816700116674 28.80093045354424 0.7762194741633721 C 29.121898343102764 0.8434317657542124 29.504257619712405 1.0162224127429365 29.79339220584541 1.2549734242951671 C 30.08252926370009 1.4937244358473982 30.271580131714106 1.7836845770191576 30.293681031052504 2.0998153072637797 C 30.393707899573016 3.530593643127795 30.3524276759136 4.970796653730649 30.302419803027114 6.4198348334533515 L 30.244682856469403 6.4198348334533515 C 30.288445924549265 5.720933284940547 30.312087942350733 4.919271143736988 30.3008601466515 4.1686920743476366 C 30.287898438198717 3.302168248864182 30.238963292518267 2.5294240153729337 30.09987086295728 2.0364589014826926 C 29.9325662022216 1.4435237686704203 29.456018263682886 1.0439959133206866 28.908603593059922 0.9918759542646876 C 28.237421167248066 0.9279757697155583 27.617593702634437 0.9067226709109674 26.95838676832787 0.9067226709109674 C 25.64859550077071 0.9067226709109674 24.18333788343032 0.9906277348198638 21.850884132311435 0.9906277348198638 C 21.850873009563905 0.9906277348198638 21.850861268885964 0.9906277348198638 21.850850146138434 0.9906277348198638 C 19.518412461210424 0.9906277348198638 18.050092998647703 0.9067053688592569 16.737535874538548 0.9067053688592569 C 16.07693797886055 0.9067053688592569 15.4557946314213 0.9279621752463573 14.783802253313748 0.9918759542646876 C 14.20668490334732 1.046767949176865 13.757979673593196 1.5140877148497385 13.592535215140293 2.100438181125355 C 13.453975287117215 2.5915099562141406 13.40451366472044 3.3501493099788786 13.391545931446077 4.200839286425616 C 13.380322461259771 4.937103379746259 13.403727039298033 5.7249733140149335 13.44741093504306 6.4198348334533515 L 13.389985425416139 6.4198348334533515 C 13.339978711149184 4.970796653730649 13.298698719213677 3.5305924072669588 13.398724120149442 2.0998153072637797 C 13.420896158727242 1.7826625201074058 13.611198876527292 1.4820455509428576 13.898700504288822 1.2403037561663952 C 14.186202209291656 0.9985619613899326 14.564892524043058 0.8294467645288387 14.877742970662508 0.7790285858446441 C 15.789379424259238 0.6321082137455233 18.22848765659935 0.6014230250370747 21.449529674645415 0.5992615044341074 C 21.493175335945814 0.5992318437740323 21.536968682616166 0.5992219568873406 21.580904771213135 0.5992219568873406 ZM 21.475739193334626 0.0 C 21.41458385570327 0.0 21.35372574260309 9.886886691674591E-6 21.293170415407836 3.8311685930239033E-5 C 18.15292588919739 0.0015522412105929107 15.820166880451904 0.02007285170577234 14.78255387938632 0.18729594562624696 C 14.34533582162448 0.2577560794953024 13.888365077354816 0.46586268574668793 13.512950952439565 0.781525024734292 C 13.137536827524315 1.097187363721896 12.83768951966116 1.5340678769927765 12.801061974120318 2.0579925406971595 C 12.691466725831871 3.6256610021115923 12.746366992804765 5.183181810197857 12.800437787156604 6.730056913038862 L 12.810736929988865 7.019056790340692 L 14.090014851424817 7.019056790340692 L 14.06567148259866 6.696974154307681 C 14.00936288220269 5.954378745921859 13.978130902315412 5.038930897505488 13.990768583505137 4.209889495331009 C 14.003406341936167 3.380848093156528 14.067762404651344 2.6231652956792093 14.169286982023037 2.2633530641699324 C 14.28050132628299 1.869196260015451 14.564858537870055 1.6145174740029324 14.840603653218254 1.5882900353315927 C 14.982691345999006 1.57477589708491 15.12255278996548 1.56309330459786 15.261307829518115 1.5533349474331772 C 15.611330807341798 1.7519167742179707 17.81351741113285 2.9843456251344467 19.230221454826058 3.37066583572494 C 20.323864987599404 3.668888942449266 21.211609779505704 3.711472999291145 21.909245806521973 3.711474235151982 C 22.60688245146866 3.711474235151982 23.494628479235793 3.66888770658843 24.588270158217888 3.37066583572494 C 25.986535467196333 2.989374342878 28.150207703879964 1.7840096084191464 28.542828333014725 1.5617622824769934 C 28.64493391946216 1.5696186498143652 28.74774518244721 1.5783833748665348 28.851800957294575 1.5882900353315927 C 29.157235311999646 1.617371076674317 29.41376047410183 1.8114877382569832 29.523119327798447 2.1990598758748092 C 29.624108931910555 2.5569800044434667 29.68899286168551 3.3324505469399446 29.701636953903325 4.177742283253028 C 29.7142798102603 5.023036491287785 29.683017474541227 5.954700069739338 29.626733900327196 6.696974154307681 L 29.602391149431455 7.019056790340692 L 30.8816677770756 7.019056790340692 L 30.89196744128665 6.730056913038862 C 30.946037588742577 5.183181810197857 31.00093947054145 3.6256622379724286 30.891343331564233 2.0579925406971595 C 30.854643208164738 1.5330433483593515 30.55042494052275 1.1030057965399465 30.175085353464198 0.7930716725293314 C 29.799745766405643 0.4831387843795528 29.346449313644076 0.27834181344820536 28.92358469811948 0.1897923845158948 C 28.433710472181225 0.08720851992475218 27.565986625825566 0.04782781437097583 26.35316841466203 0.02438106258166954 C 25.14034896763765 9.355466531997081E-4 23.600301995918088 3.8311685930239033E-5 21.846202691462928 3.8311685930239033E-5 C 21.72155067784555 3.8311685930239033E-5 21.598049868597332 0.0 21.475739193334626 0.0 Z"
     style="fill:#ffffff;stroke:none"
     id="path4" />
  <path
     d="M 21.854112284258008 10.897260393947363 Q 24.321879202499986 11.118726655840874 24.527526445686817 13.570674555376172 Q 24.274422146379948 15.990984417498112 21.854112284258008 16.24408871680498 Q 19.43380242213607 15.990984417498112 19.1806981228292 13.570674555376172 Q 19.40216438472271 11.118726655840874 21.854112284258008 10.897260393947363 ZM 21.854112284258008 9.979757308959961 Q 18.46884228102863 10.185404552146792 18.263195037841797 13.570674555376172 Q 18.46884228102863 16.354821847751737 20.746780974790454 16.95594455860555 L 18.263195037841797 16.95594455860555 L 18.263195037841797 17.99999979324639 L 25.42921051196754 17.99999979324639 L 25.42921051196754 16.95594455860555 L 22.945624575018883 16.95594455860555 Q 25.22356326878071 16.354821847751737 25.42921051196754 13.570674555376172 Q 25.22356326878071 10.201223570853472 21.854112284258008 9.979757308959961 Z"
     style="fill:#ffffff;stroke:none"
     id="path6" />
</svg>
