<?xml version="1.0" encoding="UTF-8" standalone="no"?>
<svg
   width="73.56739044189453"
   height="18.0"
   version="1.1"
   id="svg26"
   sodipodi:docname="ibiau.svg"
   inkscape:version="1.1.1 (3bf5ae0d25, 2021-09-20)"
   xmlns:inkscape="http://www.inkscape.org/namespaces/inkscape"
   xmlns:sodipodi="http://sodipodi.sourceforge.net/DTD/sodipodi-0.dtd"
   xmlns="http://www.w3.org/2000/svg"
   xmlns:svg="http://www.w3.org/2000/svg">
  <defs
     id="defs30" />
  <sodipodi:namedview
     id="namedview28"
     pagecolor="#ffffff"
     bordercolor="#666666"
     borderopacity="1.0"
     inkscape:pageshadow="2"
     inkscape:pageopacity="0.0"
     inkscape:pagecheckerboard="0"
     showgrid="false"
     inkscape:zoom="18.690346"
     inkscape:cx="36.783695"
     inkscape:cy="9.0153493"
     inkscape:window-width="1920"
     inkscape:window-height="1001"
     inkscape:window-x="-9"
     inkscape:window-y="-9"
     inkscape:window-maximized="1"
     inkscape:current-layer="svg26" />
  <path
     d="M 9.619241759901131 8.704017150225534 C 9.956114020057063 8.704017150225534 10.371109904274771 8.76399089929749 10.864229412554256 8.883939352346172 C 11.905261819800385 9.137163864337834 12.8056128816014 9.495897714329981 13.565284507766846 9.960140902322616 C 14.32495613393229 10.42438504522002 15.176070395910864 11.008207138114807 16.1186263387978 11.711606226102205 C 15.211383729261659 12.170969850713034 14.168207560803758 12.400651185566062 12.989095923614554 12.400651185566062 C 12.723796640788658 12.400651185566062 12.45161535927535 12.38902331016484 12.172553033979401 12.365768514267165 C 10.653210736553286 12.239155780818948 9.3484030744964 11.792497164191472 8.258132912523058 11.025791709479964 C 7.167863705454489 10.259086254768457 6.897054622097669 9.78780828332499 7.445706139904986 9.61195779514956 C 7.994358612617073 9.436108261878905 8.441018184149321 9.207503104703234 8.78568342214457 8.92614327852732 C 8.967086681565636 8.778059511294387 9.244939142516232 8.704017150225534 9.619241759901131 8.704017150225534 ZM 16.87829701005847 11.880422885731571 L 17.743478929129175 12.070340076094354 C 17.743478929129175 12.295428318996994 17.539492171864723 12.478311680813713 17.131522476954906 12.618992071354056 C 16.899402315315747 12.634818663035082 16.657389340244983 12.642731958875595 16.405485461552153 12.642731958875595 C 15.985642480714866 12.642731958875595 15.538322115080815 12.620750051038186 15.063526274459544 12.576788145172907 C 15.977946903162229 12.464244023721587 16.582870481695206 12.232122907177656 16.87829701005847 11.880422885731571 ZM 18.207723072026578 12.196952809542571 L 18.73527358164809 12.302462147543055 C 18.791544210016596 12.471278807172421 18.594593191107748 12.640094511897015 18.144416705302472 12.808910216621609 L 17.532460253128203 12.76670629044046 C 17.968567172031815 12.569755271531616 18.193655414934454 12.379837126264063 18.207723072026578 12.196952809542571 ZM 19.009598624373172 12.407972440448313 L 19.36833342927009 12.49238029281061 C 19.283925576907794 12.731536192805375 19.030702019820904 12.851114142802757 18.608660848199875 12.851114142802757 C 18.847816748194642 12.696366095170289 18.98146331018892 12.548652830988656 19.009598624373172 12.407972440448313 ZM 19.600455500718795 12.618992071354056 C 19.938086910167982 12.71746853571325 20.163175153070622 12.87925041189178 20.27571831961717 13.10433865479442 L 19.326128548184172 12.893318068983906 C 19.509013819810434 12.808910216621609 19.600455500718795 12.71746853571325 19.600455500718795 12.618992071354056 ZM 17.405847519679988 13.864010280959864 C 18.46094662911347 13.99062205950331 19.255788352914 14.28604954277135 19.790372691081576 14.750293685668755 L 17.173725448231284 14.138336278589716 C 17.20186267222508 13.983587276052475 17.279236696041313 13.892145595144116 17.405847519679988 13.864010280959864 ZM 5.187792747046841 0.40093762696942586 C 5.848988863757863 0.40093762696942586 6.3484031042903535 0.5838216154424017 6.686035468644312 0.9495895923883535 C 7.0236668780935005 1.3153575693343054 7.129177170998758 2.198124417859453 7.0025653924553115 3.5978901976453446 C 6.875952659007095 4.997655977431236 6.8337487328259465 5.947245271411848 6.875953136459481 6.446659034491953 C 6.918156585188243 6.946073275024443 7.048285755457107 7.315357867835686 7.266340169813683 7.554513290378066 C 7.4843936292654885 7.793669667825216 7.748168406623859 8.029308176094565 8.05766402443641 8.261430247543267 C 8.367160119701346 8.49355231899197 8.212412072068878 8.70105503562468 7.5934203589913905 8.883939352346172 C 6.974429123366289 9.06682271416289 6.629762930466267 9.33763179751971 6.559423212648482 9.69636660241663 C 6.48908301737831 10.055099497504006 6.577008261466024 10.385698033311902 6.823197990006852 10.688160300030777 C 7.069388196000066 10.99062256674965 7.656726725715499 11.398594171469009 8.585214534057924 11.912075114188854 C 9.513701864947961 12.42555701181347 10.333162943564483 12.752637678443564 11.043595860097945 12.893318068983906 C 11.754030686440949 13.033998459524248 13.931053141209826 13.10433865479442 17.57466322440458 13.10433865479442 C 18.700104438917776 13.315358285700162 19.445707453086325 13.596718111876076 19.811474176719763 13.94841813332216 L 17.405847519679988 13.399766138062459 C 17.18076118658689 13.47010633333263 17.00490974350669 13.60375194042214 16.87829701005847 13.800703914235756 C 16.87829701005847 14.166472547678739 16.083455286257944 14.37749217858448 14.493772793561655 14.433763761857755 C 14.254616893566888 14.433763761857755 14.092834062483586 14.103166180954629 14.008427165026061 13.441970064243609 L 13.755202653034399 13.652989695149351 C 13.881814431577844 14.187574033316928 13.91698452921293 14.658852004760394 13.860712945939655 15.066823609479753 C 13.663760972126038 14.588511809490223 13.319094779226017 14.271981885679224 12.826715322144361 14.117233838046756 C 12.038906471985122 13.976553447506413 11.335507383997724 13.846424754689936 10.71651519346785 13.726846804692553 C 10.097523002937978 13.607269809599941 9.471497938766813 13.350529338240019 8.838438091144814 12.956624435708015 C 8.275718438792987 12.520516561899633 7.371849507814169 12.049238590456165 6.126831775660745 11.542790521377611 C 4.881814043507322 11.03634340720383 4.259305416156803 10.283705609584448 4.259305416156803 9.284877128519467 C 4.259305416156803 8.286049602359258 4.593420388785345 7.459554695196674 5.261649856590044 6.805393361936487 C 5.929879801847128 6.151231551223914 6.2639942970232845 5.366941047694864 6.2639942970232845 4.452521373896952 C 6.2639942970232845 4.002345365544058 6.207722713750011 3.5767882345547704 6.095179069751077 3.175850219655281 C 5.993352799453844 2.8130966980279646 5.689997219321334 2.6317199372143065 5.185112329353548 2.6317199372143065 C 5.131966626849421 2.6317199372143065 5.076588356989783 2.6337295343056977 5.0189770423222475 2.6377489672146734 L 3.2464102329044677 2.869871038663376 C 3.3026820549039346 2.6869874381204633 3.387089668540039 2.5181714946696765 3.4996335512651657 2.363423447037208 C 3.6403134643531225 1.9273154538657298 3.795061511985591 1.6740914193264531 3.9638776941625706 1.6037515821455712 C 3.9884963327999836 1.6899181303705768 4.083125485835245 1.733001523846176 4.247764437089777 1.733001523846176 C 4.271284696513898 1.733001523846176 4.296233016023633 1.732122295277918 4.32261082797614 1.7303637187783059 C 4.603971609056825 1.7162955842337946 4.765753485235356 1.5756155517827413 4.8079574114165045 1.308323860151339 C 4.7798216197798675 1.0410321685199366 4.6180397436013365 0.9003521360688832 4.32261082797614 0.8862840612059201 C 4.069387270889249 0.9003521360688832 3.9287073578012923 1.0410321685199366 3.9005710887122693 1.308323860151339 C 3.6754838007144013 1.5193437297832741 3.4996337899913588 1.765533697050295 3.373021295269335 2.046893523226209 C 3.3320964640294637 2.0673559388461444 3.2921017100369276 2.0775870272930157 3.2530370332917253 2.0775870272930157 C 3.1846734908983327 2.0775870272930157 3.119158190711805 2.046253737029377 3.0564913714583355 1.9835869177759076 C 3.225307553635315 1.6459552696005268 3.471497998354722 1.2977725205167625 3.7950622281641695 0.9390390286139039 C 4.118625980521232 0.5803047608509185 4.582869168513866 0.40093762696942586 5.187792747046841 0.40093762696942586 ZM 9.977946007845366 14.159437764227905 L 10.653208826743741 14.328253468952498 L 9.89353815548307 15.425557459471902 L 9.977946007845366 14.159437764227905 ZM 11.286269629270512 14.391559835676606 C 11.84898928162234 14.391559835676606 12.32378416733884 14.451348333222912 12.71065428642001 14.570927238125066 C 13.09752440550118 14.690504233217677 13.336679350591174 15.144197633295988 13.428121986404305 15.932005528550455 C 13.517959427296729 16.705992132143816 13.400721948894024 17.092986388845265 13.07640859629142 17.092986388845265 C 13.070618053757709 17.092986388845265 13.064760667889999 17.092862251224986 13.058837393593063 17.09261588579397 L 11.03304511727885 17.09261588579397 C 10.988356528882543 17.089306185856326 10.942987093384234 17.087650380982737 10.896935855879153 17.087650380982737 C 10.551564943257846 17.087650380982737 10.167861288398607 17.180747866764687 9.745823936396663 17.366940928519046 C 9.858368057847983 16.382182014355735 10.3718499554726 15.390387361836815 11.286269629270512 14.391559835676606 ZM 5.187792747046841 0.0 C 4.231169147067781 0.0 3.443361967991892 0.5345838607151904 2.8243702549144043 1.6037515821455712 C 2.613350385282469 1.9554513648654634 1.9873244855696295 2.3071511475853557 0.946292317049693 2.6588511690314407 C 0.22882448278191372 2.869871038663376 -0.08067132899566878 3.165298999383801 0.017804894772284054 3.545135051192716 L 0.03890708726380924 3.798358369553414 C 1.3753664816751086 3.6717465910099687 2.493771957832701 3.5099647148314377 3.3941234970861016 3.3130129797440135 L 5.040079482865207 3.0175852577497815 C 5.048381902400062 3.0173546482474904 5.056615568791377 3.017239343496345 5.064780004586766 3.017239343496345 C 5.5546451974053515 3.017239343496345 5.796118651280282 3.432360558965298 5.789199888759171 4.2626027511770115 C 5.782166060213108 5.106682229704753 5.4269491244939925 5.862836941597166 4.723549559054208 6.5310668868542505 C 4.020149993614424 7.199296832111335 3.661415904896083 8.166471652361876 3.6473477703515713 9.432591347605873 C 3.6473477703515713 10.459556097759878 4.136210551886389 11.19460836910933 5.11393659240841 11.637750071463774 C 6.09166167802566 12.08089177381822 7.037734535185626 12.555685704629948 7.952154686435924 13.062133773708501 C 8.866573405329065 13.568581842787054 9.387089131499744 13.962486745319058 9.513701864947961 14.243845616590201 C 9.44336166967779 15.735053554736838 9.26047830786107 16.698711938166735 8.96504986968826 17.134818857070343 C 8.472670412606604 17.134818857070343 7.614522322081965 17.064478661800173 6.390606553019116 16.92379827125983 C 6.01077121738878 16.980070809437876 5.75051335430344 17.10316567370829 5.609832486310712 17.293084773880615 C 5.469153528127526 17.48300387405294 5.497289319764163 17.69050468087611 5.69424129357778 17.91559292377875 C 5.7882960713930505 17.77973671214347 5.878469161312617 17.711806696516287 5.9647610407888685 17.711806696516287 C 5.99463093949035 17.711806696516287 6.024035799568166 17.719946304787623 6.052975621022314 17.73622552133029 C 6.165519265021248 17.799531888054396 6.446879091197162 17.831185071416453 6.897054144645284 17.831185071416453 L 8.96504986968826 17.831185071416453 C 9.066651737364214 17.811645809984256 9.162826881224358 17.801877134172933 9.253573391459145 17.801877134172933 C 9.489516991802953 17.801877134172933 9.68877028611562 17.867918348162302 9.851334229301921 18.000000776141047 C 10.048286203115538 17.98593311904892 10.21710095293536 17.929660580870873 10.357781343475702 17.831185071416453 C 10.978782653644581 17.849272877596132 11.498366392758383 17.8583158257812 11.916529696102794 17.8583158257812 C 12.474082358736627 17.8583158257812 12.85133372205558 17.842239049050068 13.048285695869197 17.810083585778262 C 13.39295188876922 17.753811047600216 13.705964898307187 17.704574247777778 13.987324724483102 17.662369366691856 L 14.704792424467398 17.89449143814056 C 14.713104870502352 17.89513122433739 14.721098378343662 17.895450162531034 14.728771038181785 17.895450162531034 C 14.889915037973028 17.895450162531034 14.91005779922074 17.754450833797048 14.789201231734465 17.47245026651953 C 14.170209041204592 17.134818857070343 14.02952865066425 16.28370459509177 14.367161015018208 14.919109390393348 L 14.367161015018208 14.919109390393348 C 14.486100133723532 14.921667580275903 14.601202445057407 14.922946197764796 14.712467949019834 14.922946197764796 C 15.825117259215483 14.922946197764796 16.55409538131412 14.795054846827687 16.899400405506203 14.539274054763013 C 18.306200491290543 14.792496656945131 19.452741281632388 15.03868734039073 20.33902468634128 15.277843240385495 L 20.486738905427682 15.024620638203377 C 20.1209702719847 14.616648078579246 19.84664522925962 14.356389738041521 19.6637618674429 14.243845616590201 L 19.6637618674429 14.243845616590201 L 20.59224824342817 14.433763761857755 C 20.74230770863311 14.490035345131028 20.8462548224276 14.518171614220051 20.90408958481164 14.518171614220051 C 21.01975910957972 14.518171614220051 20.95098304832509 14.405627492768732 20.697759491238198 14.180540204770864 C 20.641486953060152 14.025792157138396 20.23351534834079 13.723330845324293 19.473842767270575 13.273154359519014 L 19.473842767270575 13.273154359519014 L 20.761063948152763 13.526377916605906 C 20.901744338693106 12.62602685480489 19.924019253075855 11.985932223732057 17.827886781491472 11.606096888101721 C 16.73058279097207 11.352873331014829 15.738790048262691 10.86049196412363 14.852506643553802 10.12895660704721 C 13.684862457764227 9.101993766702748 11.91932947689251 8.349355969083367 9.55590579112911 7.871043214189065 C 8.303853752977238 7.786635839279153 7.607488493535902 7.4032831119233995 7.466808580447945 6.72098550957419 C 7.326128667359988 6.038687429772594 7.32964558163302 4.95193465952467 7.477359800719425 3.4607274375566117 C 7.625073542353445 1.969519857499264 7.417570825720734 0.9988280632941434 6.854850695916521 0.5486519952597018 C 6.43281095665265 0.1828839884729759 5.877125132846886 0.0 5.187792747046841 0.0 Z"
     style="fill:#ffffff;stroke:none"
     id="path2" />
  <path
     d="M 27.177865186478382 7.937876256002994 C 26.496671245133623 7.991654064440127 26.120222241250442 8.332250793733436 26.04851793344977 8.959665719745715 C 26.138148499234912 9.640860143848613 26.514597503118093 9.999383372505463 27.177865186478382 10.035235888474404 C 27.84113286983867 9.999383372505463 28.190692728124215 9.640860143848613 28.226544278576878 8.959665719745715 C 28.172766470139745 8.332250793733436 27.8232066118542 7.991654064440127 27.177865186478382 7.937876256002994 ZM 27.25853214051315 5.679180301671352 C 27.742538692303153 5.679180301671352 28.190693210882355 5.768811229525099 28.602994730734476 5.948073085232593 C 29.01529576782846 6.127334940940088 29.378299957533752 6.373819539952137 29.692007299850356 6.687527123647811 C 30.0057151249251 7.001234707343485 30.252199844626684 7.3597576946212655 30.43146145895511 7.763095602723013 C 30.610722590525395 8.16643375220383 30.700352914931468 8.592179844854769 30.700352914931468 9.040334122054901 C 30.700352914931468 9.506413933102294 30.610722590525395 9.941123154745469 30.43146145895511 10.344461786984425 C 30.252199844626684 10.747799936465242 30.0057151249251 11.101841721315509 29.692007299850356 11.406586176018948 C 29.378299957533752 11.711330630722387 29.01529576782846 11.948851980052666 28.602994730734476 12.119151189526065 C 28.190693210882355 12.289449433483185 27.742538692303153 12.374598314082675 27.25853214051315 12.374598314082675 C 26.774526312860356 12.374598314082675 26.32189131599085 12.289449433483185 25.900626908525563 12.119151189526065 C 25.479361776923067 11.948851980052666 25.116357104459635 11.711330630722387 24.8116130118248 11.406586176018948 C 24.506868074363222 11.101841721315509 24.264865160536825 10.747799936465242 24.085604149656074 10.344461786984425 C 23.906342354293347 9.941123154745469 23.8167114264396 9.506413933102294 23.8167114264396 9.040334122054901 C 23.8167114264396 8.592179844854769 23.906342354293347 8.16643375220383 24.085604149656074 7.763095602723013 C 24.264865160536825 7.3597576946212655 24.506868074363222 7.001234707343485 24.8116130118248 6.687527123647811 C 25.116357104459635 6.373819539952137 25.479361776923067 6.127334940940088 25.900626908525563 5.948073085232593 C 26.32189131599085 5.768811229525099 26.774526312860356 5.679180301671352 27.25853214051315 5.679180301671352 ZM 27.204754814834157 4.764946937561035 C 26.61319119789547 4.764946937561035 26.057480338304796 4.876985476688684 25.53762175330399 5.101062554943983 C 25.017763409682257 5.325139663371665 24.569609615240264 5.629884118075104 24.193160490667548 6.015295949226683 C 23.8167114264396 6.400708564860238 23.516448355197976 6.848862238612696 23.292371276942678 7.359757211863126 C 23.068294998255546 7.870652909250765 22.956256866455078 8.421882083655788 22.956256866455078 9.013444493699126 C 22.956256866455078 9.605007145121533 23.068294998255546 10.156236319526556 23.292371276942678 10.667132016914195 C 23.516448355197976 11.178027714301834 23.8167114264396 11.621700306316313 24.193160490667548 11.998149310199494 C 24.569609615240264 12.374598314082675 25.017763409682257 12.67486180773767 25.53762175330399 12.898938825648202 C 26.057480338304796 13.123014878042454 26.61319119789547 13.23505338699772 27.204754814834157 13.23505338699772 C 27.796317466256564 13.23505338699772 28.347546157903448 13.123014878042454 28.85844088977481 12.898938825648202 C 29.369336587162447 12.67486180773767 29.81749062298351 12.374598314082675 30.202903479996134 11.998149310199494 C 30.58831537149248 11.621700306316313 30.89305982619592 11.178027714301834 31.11713636134831 10.667132016914195 C 31.34121434477512 10.156236319526556 31.453252853730387 9.605007145121533 31.453252853730387 9.013444493699126 C 31.453252853730387 8.421882083655788 31.34121434477512 7.870652909250765 31.11713636134831 7.359757211863126 C 30.89305982619592 6.848862238612696 30.58831537149248 6.400708564860238 30.202903479996134 6.015295949226683 C 29.81749062298351 5.629884118075104 29.369336587162447 5.325139663371665 28.85844088977481 5.101062554943983 C 28.347546157903448 4.876985476688684 27.796317466256564 4.764946937561035 27.204754814834157 4.764946937561035 Z"
     style="fill:#ffffff;stroke:none"
     id="path4" />
  <path
     d="M 44.79018351210574 2.5980340559278954 C 45.30949539973832 2.604494551383393 45.8347852282831 2.6022800402548234 46.345717023443534 2.705545119344086 C 46.34607885084136 2.705544057228437 46.34644032420063 2.705543526170612 46.34680073544426 2.705543526170612 C 46.59950035281615 2.705543526170612 46.50550453401668 2.976186879358535 46.449739922048494 3.1278771742607754 C 46.402631552621244 3.3505521983841495 46.14831079273013 3.2924870439198117 45.98058750806476 3.3130262363439256 C 45.59819825934803 3.3249435279664326 45.21546984170067 3.3316861921460657 44.83275346136399 3.3316861921460657 C 44.35911219260821 3.3316861921460657 43.88548862577992 3.321359241688952 43.41254711421768 3.2977321250340816 C 43.397054918339265 3.3005074332254254 43.382365681891635 3.3018279970159234 43.36843337986333 3.3018279970159234 C 43.188958139578176 3.3018279970159234 43.13508108413789 3.0827163708955956 43.10788561294027 2.9321820118582282 C 43.01290114149068 2.6873650627961068 43.33714717024285 2.6952813647680998 43.49761461185076 2.6626622000078775 C 43.92602108318446 2.6087607159076556 44.35885763889095 2.5994953500419116 44.79018351210574 2.5980340559278954 ZM 41.60820964868997 4.671555704760809 C 41.866636990229054 4.744304608075254 42.12506442027777 4.817053157351149 42.383491761816856 4.889802060665594 C 42.268721049428784 5.130429671568745 42.25930769544925 5.4079307514649635 42.33038031474036 5.662728047244011 C 42.0032314354093 5.533801014935298 41.673846625617415 5.409694217481176 41.34809310072049 5.277758919615394 C 41.22634674465965 5.073399371785271 41.3596051288406 4.779963016765645 41.56531863072194 4.682292985897062 L 41.60820964868997 4.671555704760809 ZM 47.8307685403008 4.671555704760809 C 48.06511798560157 4.736266162803604 48.202939528395184 5.043560294736816 48.103995666824666 5.264118876409895 C 47.984571383229294 5.334716995534722 47.843028895277996 5.3700036637478945 47.71478905179431 5.426496178974325 C 47.50565564815962 5.508019219666762 47.29652295260202 5.589542614397748 47.087389548967316 5.671065655090184 C 47.15736668447591 5.41538149274406 47.15426955524286 5.136721998713119 47.038265992114994 4.894515021839618 C 47.30243327215123 4.820195249480015 47.56660126026457 4.745875477120412 47.8307685403008 4.671555704760809 ZM 44.885243570785704 3.6661850002791825 C 45.50706802857009 3.6661850002791825 46.09064357759569 4.027349283900964 46.43428790954547 4.535640305518949 C 46.59055592289574 4.774674388909759 46.75923723587668 5.028908763394734 46.78775397894189 5.319587866189052 C 46.752909858915885 5.6583039815265685 46.60859277085035 5.976977266486694 46.58601821080383 6.318782368170616 C 46.50349147082291 6.958927966865044 46.55845843393854 7.622194407088227 46.35927245143564 8.24357950303239 C 46.123972058590304 8.809629789807744 45.85113614466389 9.391696072495845 45.38037887393423 9.801543134975535 C 45.19680492935883 9.966552714157217 44.95149834498243 10.061987345622796 44.70687293077572 10.061987345622796 C 44.57355369621903 10.061987345622796 44.4404369717128 10.033642311254205 44.317625601312145 9.972764674550803 C 43.82884298888073 9.731846397998323 43.53760893065971 9.23681057968228 43.295772632147774 8.77022105076005 C 43.12469182289602 8.43689942080479 42.97578745734162 8.08560537791097 42.94358021643401 7.708215861593549 C 42.858590076224054 7.02116015505972 42.90475086147295 6.313078099057345 42.69343339402496 5.645577357779376 C 42.63426983496008 5.451811705472864 42.599094511870796 5.238752722398743 42.69834213851698 5.0505766307153905 C 42.94979341596252 4.453902009388276 43.42463062693929 3.912024766711477 44.065756912416475 3.734366098224993 C 44.32039807719509 3.655056860584027 44.59443843026769 3.6904716907522026 44.85743384270431 3.6664261005315493 C 44.86671177693857 3.6662650129914214 44.87598192232473 3.6661850002791825 44.885243570785704 3.6661850002791825 ZM 44.79018351210574 2.25 C 44.20500558460405 2.258465415762626 43.609583728685166 2.253742718528485 43.038994136644426 2.3993262024864093 C 42.828324913780996 2.451939163284884 42.70608372246468 2.667270011732631 42.75084286909519 2.8768687990409525 C 42.77967187416127 3.146853640526375 42.86325807450226 3.4687578812913493 43.12559586033276 3.6004453521723185 C 43.215376673178405 3.6557249313273696 43.52397189678188 3.6276521526035226 43.304210963961346 3.7297285472620625 C 42.99282520850889 3.9500396559888795 42.73880485032723 4.2454738505446405 42.548082867432754 4.574577465218401 C 42.24359927052659 4.492574348252529 41.942276264263505 4.396481205084449 41.63570388416874 4.3237815131284165 C 41.62724121220488 4.323326219553463 41.61882814989279 4.323102113151482 41.610466378915596 4.323102113151482 C 41.33846358407894 4.323102113151482 41.120756484203916 4.560250941264973 41.01689614737773 4.7934837489798845 C 40.910508932316915 5.0535951633903995 40.919265179684444 5.423929753527323 41.18474450445857 5.585277866027685 C 41.60081927098361 5.7577374784113635 42.02406589598389 5.914048330426148 42.44294757970454 6.080187292581474 C 42.58637319870185 6.845474189372338 42.46682606372971 7.653459551415001 42.74484032250377 8.394688112597422 C 43.005945346104106 9.015979034287357 43.31575899337648 9.655804582132827 43.85059759564607 10.088827716155029 C 44.095309926316745 10.291675519377797 44.41332540765147 10.410303924313377 44.730125474644964 10.410303924313377 C 44.89464966697497 10.410303924313377 45.05884601960792 10.378309460574156 45.21227712205919 10.309499944202573 C 45.75491519357936 10.06967989523136 46.10320097091611 9.552133597846296 46.37426669209387 9.04649574112 C 46.59304268966905 8.628410909665163 46.79022658417322 8.188372147741484 46.834792956813395 7.713001754708817 C 46.90940799732348 7.173965317355064 46.872643926242276 6.6237915353038614 46.9750035517406 6.088344340767284 C 47.40088643629182 5.919468660622535 47.831161523091005 5.7604841094801795 48.25423334155736 5.585277866027685 C 48.52838238446472 5.41721222608472 48.529625059774276 5.030128072160008 48.41008181922619 4.76586909613939 C 48.30357215384792 4.54850075583794 48.092182108497234 4.3236629102142565 47.83610744163075 4.3236629102142565 C 47.81444807123529 4.3236629102142565 47.79246935806797 4.3252713073456865 47.77020741406086 4.328629008951339 C 47.47087631718821 4.40930341924007 47.17311644339926 4.496059503736085 46.87439960341039 4.579109158654962 C 46.668917045300525 4.222839103944667 46.38900637903483 3.9053638854368318 46.04328738118363 3.67983991310377 C 46.26756230551324 3.651312194843518 46.54489167671284 3.653899508564955 46.678608142522314 3.4355306553219638 C 46.82795364010969 3.20062607757522 46.90116881219413 2.9012716141582846 46.84256233278725 2.626758796641073 C 46.73080192167791 2.3765135515151954 46.42189833049762 2.3634050971921177 46.1880176322367 2.3224642563204605 C 45.72499858208851 2.2618854281530307 45.2566144317577 2.2517503665898717 44.79018351210574 2.25 Z"
     style="fill:#ffffff;stroke:none"
     id="path6" />
  <path
     d="M 44.36848659365125 11.556187922293248 L 44.36848659365125 15.749998307288092 L 45.07035529523325 15.749998307288092 L 45.07035529523325 11.556187922293248 Z"
     style="fill:#ffffff;stroke:none"
     id="path8" />
  <path
     d="M 51.82355434195921 2.9892379897054955 C 52.10117244316222 2.9892379897054955 52.44102775288841 3.095985977015074 52.540118439615085 3.340333519869274 L 52.50363682452063 11.279334014803599 L 52.50363682452063 11.279334014803599 C 52.3628260331918 10.960512872387417 51.944527659777194 10.367342335933275 50.70208283690319 9.632436990092634 L 51.64534364671248 3.06154244747758 C 51.68959517765011 3.0145252182361735 51.68843500771915 2.9892379897054955 51.82355434195921 2.9892379897054955 ZM 52.50363682452063 11.279334014803599 L 52.50363682452063 11.279334014803599 C 52.50363682452063 11.279334014803599 52.503637003559206 11.279334014803599 52.503637003559206 11.279334014803599 L 52.50363682452063 11.279334014803599 L 52.50363682452063 11.279334014803599 ZM 51.69154687709724 2.25 C 51.47904152288364 2.25 51.28723741375989 2.280338063237631 51.151440060456785 2.317373030601139 L 49.98558950424194 10.098160711168036 C 50.60230826760031 10.520569989179059 52.29714430162823 11.67797341616124 52.22955939006989 12.683307927520042 L 52.242197006543144 15.75000086141948 L 53.102973628350114 15.73816856043225 L 53.09814639043676 3.119482909369111 C 52.8421810348017 2.427915471835376 52.20616531537408 2.25 51.69154687709724 2.25 Z"
     style="fill:#ffffff;stroke:none"
     id="path10" />
  <path
     d="M 64.74226487377295 2.5375638405236924 Q 64.96592569518882 2.5375638405236924 64.96592569518882 2.771875231115659 L 64.96592569518882 4.571812767567474 L 64.28429288802155 4.571812767567474 L 64.50795370943742 2.676020759018034 Q 64.51860405235708 2.5375638405236924 64.74226487377295 2.5375638405236924 ZM 64.75291521669261 2.25 Q 64.20973867753243 2.25 64.17778764877345 2.5588648374656153 Q 63.95412682735757 4.571812767567474 63.698514072156975 4.582462657974267 L 58.75667486265565 4.763521655198616 L 58.2454502572802 4.742220743102857 Q 57.670322010591725 4.135141467655398 57.22300082027286 4.135141467655398 Q 57.063242961400704 4.1244910116075175 56.89283453335245 4.113840442431421 Q 55.98754090476931 4.284248304838585 55.80648202067318 4.284248304838585 Q 55.67867564307288 4.284248304838585 55.67867564307288 4.454656732886838 Q 55.67867564307288 4.688968123478805 56.04079341126514 4.688968123478805 Q 56.66262200434131 4.589836355198769 56.99467866377815 4.589836355198769 Q 57.05505112090637 4.589836355198769 57.10584478559222 4.593113227150363 Q 57.28690378281657 4.593113227150363 57.4040591387279 4.742220743102857 Q 57.19637405794796 4.999354620317579 56.47442088335392 4.999354620317579 Q 56.41888635445225 4.999354620317579 56.3603087896248 4.997833045790584 Q 55.54021920537346 4.976532133694824 54.911838537035315 4.784822567294376 Q 54.6029736995697 4.784822567294376 54.6029736995697 5.146940335486642 Q 54.63492518437682 5.47710616989418 56.91413544544821 5.487756739070277 L 57.925934313279456 5.381251726078609 L 63.698514072156975 5.3492997922938805 L 65.31739244169212 5.370601383158947 L 65.31739244169212 2.771875231115659 Q 65.30674209877245 2.25 64.75291521669261 2.25 Z"
     style="fill:#ffffff;stroke:none"
     id="path12" />
  <path
     d="M 56.18949171484036 6.499920252855873 L 55.99735456755511 6.916217397672415 L 55.38892027163588 8.277188796530886 L 55.29285169799326 8.469325943816141 L 55.693137417686785 8.661463213258905 L 55.78920599132941 8.453314514875704 L 56.205503143780795 7.508640268468619 L 56.41365165892773 7.876903073019937 L 56.60578880621299 8.261177367590449 L 56.79792595349825 7.876903073019937 L 57.02208595866438 7.4766174105877425 L 57.23023453489007 7.876903073019937 L 57.422371682175324 8.261177367590449 L 57.61450882946058 7.876903073019937 L 57.82265740568628 7.4766174105877425 L 58.046817410852405 7.876903073019937 L 58.238954558137664 8.261177367590449 L 58.431091705422915 7.876903073019937 L 58.63924028164861 7.492628839528181 L 58.84738885787431 7.876903073019937 L 59.055537434099996 8.261177367590449 L 59.247674581385255 7.876903073019937 L 59.45582340192596 7.4766174105877425 L 59.66397197815166 7.876903073019937 L 59.87212055437735 8.261177367590449 L 60.064257701662605 7.876903073019937 L 60.272406277888294 7.4766174105877425 L 60.480554365483954 7.876903073019937 L 60.68870294170965 8.261177367590449 L 60.88084008899491 7.876903073019937 L 61.0889886652206 7.4766174105877425 L 61.29713724144629 7.876903073019937 L 61.489274388731545 8.261177367590449 L 61.69742296495724 7.876903073019937 L 61.90557154118294 7.4766174105877425 L 62.113720117408626 7.876903073019937 L 62.305857264693884 8.261177367590449 L 62.51400584091958 7.876903073019937 L 62.72215441714527 7.4766174105877425 L 62.9463144223114 7.892914501960375 L 63.138451569596654 8.24516593865001 L 63.34660014582235 7.892914501960375 L 63.57075966235845 7.460605981647305 L 64.13115967527378 8.469325943816141 L 64.24323967785683 8.661463213258905 L 64.62751397242735 8.453314514875704 L 64.53144539878473 8.261177367590449 L 63.762896809643706 6.884194539791539 L 63.57075966235845 6.547954539677186 L 63.378623003703225 6.900205968731977 L 63.138451569596654 7.316503121183364 L 62.91429156443053 6.900205968731977 L 62.70614298820483 6.53194311025957 L 62.53001726986001 6.900205968731977 L 62.305857264693884 7.300491692242925 L 62.09770868846819 6.900205968731977 L 61.90557154118294 6.515931680841955 L 61.71343439389768 6.900205968731977 L 61.50528581767199 7.300491692242925 L 61.281125812505856 6.900205968731977 L 61.0889886652206 6.515931680841955 L 60.896851517935346 6.900205968731977 L 60.67269151276921 7.300491692242925 L 60.46454293654352 6.900205968731977 L 60.272406277888294 6.515931680841955 L 60.08026913060304 6.900205968731977 L 59.87212055437735 7.300491692242925 L 59.64796054921122 6.900205968731977 L 59.45582340192596 6.515931680841955 L 59.26368601032569 6.900205968731977 L 59.055537434099996 7.284480263302488 L 58.84738885787431 6.900205968731977 L 58.63924028164861 6.515931680841955 L 58.44710313436335 6.900205968731977 L 58.238954558137664 7.300491692242925 L 58.03080598191197 6.900205968731977 L 57.82265740568628 6.515931680841955 L 57.63052025840102 6.900205968731977 L 57.422371682175324 7.300491692242925 L 57.214223105949635 6.900205968731977 L 57.02208595866438 6.515931680841955 L 56.81393738243869 6.900205968731977 L 56.60578880621299 7.300491692242925 L 56.397640229987296 6.900205968731977 L 56.18949171484036 6.499920252855873 ZM 56.189491775919116 10.044188482291233 L 55.99735462863386 10.460485634742618 L 55.38892026781846 11.821457094679843 L 55.29285169799326 12.013594241965098 L 55.693137417686785 12.205731389250355 L 55.789205960790035 11.99758281302466 L 56.20550320485955 11.052908505538824 L 56.41365178108524 11.421171371168896 L 56.6057889283705 11.805445665739406 L 56.79792607565575 11.421171371168896 L 57.022086080821886 11.020885647657947 L 57.23023465704758 11.421171371168896 L 57.422371682175324 11.805445665739406 L 57.61450882946058 11.421171371168896 L 57.82265740568628 11.020885647657947 L 58.046817410852405 11.421171371168896 L 58.238954558137664 11.805445665739406 L 58.431091705422915 11.421171371168896 L 58.63924028164861 11.036897076598384 L 58.84738885787431 11.421171371168896 L 59.055537434099996 11.805445665739406 L 59.247674581385255 11.421171371168896 L 59.45582340192596 11.020885647657947 L 59.66397197815166 11.421171371168896 L 59.87212055437735 11.805445665739406 L 60.064257701662605 11.421171371168896 L 60.272406277888294 11.020885647657947 L 60.48055485411399 11.421171371168896 L 60.688703430339686 11.805445665739406 L 60.88084057762494 11.421171371168896 L 61.08898915385063 11.020885647657947 L 61.29713773007633 11.421171371168896 L 61.48927487736158 11.805445665739406 L 61.69742345358728 11.421171371168896 L 61.905572029812966 11.020885647657947 L 62.11372060603866 11.421171371168896 L 62.30585775332392 11.805445665739406 L 62.51400632954961 11.421171371168896 L 62.722154905775305 11.020885647657947 L 62.94631491094143 11.437182800109333 L 63.13845205822669 11.789434236798968 L 63.346600634452386 11.437182800109333 L 63.57076063961851 11.004874218717509 L 64.13116065253384 12.013594241965098 L 64.2432406551169 12.205731389250355 L 64.62751494968742 11.99758281302466 L 64.53144637604478 11.805445665739406 L 63.76289778690377 10.428462776861743 L 63.57076063961851 10.092222769112546 L 63.37862349233326 10.44447420580218 L 63.13845205822669 10.860771358253567 L 62.91429205306056 10.44447420580218 L 62.70614347683487 10.076211340172108 L 62.53001775849005 10.44447420580218 L 62.30585775332392 10.84475992931313 L 62.097709177098224 10.44447420580218 L 61.905572029812966 10.06019991123167 L 61.713434882527714 10.44447420580218 L 61.50528630630202 10.84475992931313 L 61.281126301135885 10.44447420580218 L 61.08898915385063 10.06019991123167 L 60.896852006565375 10.44447420580218 L 60.67269200139925 10.84475992931313 L 60.46454342517355 10.44447420580218 L 60.272406277888294 10.06019991123167 L 60.08026913060304 10.44447420580218 L 59.87212055437735 10.84475992931313 L 59.64796054921122 10.44447420580218 L 59.45582340192596 10.06019991123167 L 59.26368601032569 10.44447420580218 L 59.055537434099996 10.82874850037269 L 58.84738885787431 10.44447420580218 L 58.63924028164861 10.06019991123167 L 58.44710313436335 10.44447420580218 L 58.238954558137664 10.84475992931313 L 58.03080598191197 10.44447420580218 L 57.82265740568628 10.06019991123167 L 57.63052025840102 10.44447420580218 L 57.422371682175324 10.84475992931313 L 57.214223228107144 10.44447420580218 L 57.022086080821886 10.06019991123167 L 56.8139375045962 10.44447420580218 L 56.6057889283705 10.84475992931313 L 56.397640352144805 10.44447420580218 L 56.189491775919116 10.044188482291233 ZM 56.18949171484036 13.58845665828268 L 55.99735456755511 14.00475381073407 L 55.38892027163588 15.365725270671293 L 55.29285169799326 15.55786241795655 L 55.693137417686785 15.749999565241804 L 55.78920599132941 15.54185098901611 L 56.205503143780795 14.597176681530271 L 56.41365165892773 14.965439547160345 L 56.60578880621299 15.349713841730855 L 56.79792595349825 14.965439547160345 L 57.02208595866438 14.565153823649396 L 57.23023453489007 14.965439547160345 L 57.422371682175324 15.349713841730855 L 57.61450882946058 14.965439547160345 L 57.82265740568628 14.565153823649396 L 58.046817410852405 14.965439547160345 L 58.238954558137664 15.349713841730855 L 58.431091705422915 14.965439547160345 L 58.63924028164861 14.581165252589834 L 58.84738885787431 14.965439547160345 L 59.055537434099996 15.349713841730855 L 59.247674581385255 14.965439547160345 L 59.45582340192596 14.565153823649396 L 59.66397197815166 14.965439547160345 L 59.87212055437735 15.349713841730855 L 60.064257701662605 14.965439547160345 L 60.272406277888294 14.565153823649396 L 60.48055485411399 14.965439547160345 L 60.688703430339686 15.349713841730855 L 60.88084057762494 14.965439547160345 L 61.08898915385063 14.565153823649396 L 61.29713773007633 14.965439547160345 L 61.48927487736158 15.349713841730855 L 61.69742345358728 14.965439547160345 L 61.905572029812966 14.565153823649396 L 62.11372060603866 14.965439547160345 L 62.30585775332392 15.349713841730855 L 62.51400632954961 14.965439547160345 L 62.722154905775305 14.565153823649396 L 62.94631491094143 14.981450976100783 L 63.13845205822669 15.333702412790418 L 63.346600634452386 14.981450976100783 L 63.57076063961851 14.549142394708959 L 64.13116065253384 15.55786241795655 L 64.2432406551169 15.749999565241804 L 64.62751494968742 15.54185098901611 L 64.53144637604478 15.349713841730855 L 63.76289778690377 13.972730952853192 L 63.57076063961851 13.636490945103995 L 63.37862349233326 13.98874238179363 L 63.13845205822669 14.405039534245017 L 62.91429205306056 13.98874238179363 L 62.70614347683487 13.620479516163558 L 62.53001775849005 13.98874238179363 L 62.30585775332392 14.389028105304579 L 62.097709177098224 13.98874238179363 L 61.905572029812966 13.604468087223118 L 61.713434882527714 13.98874238179363 L 61.50528630630202 14.389028105304579 L 61.281126301135885 13.98874238179363 L 61.08898915385063 13.604468087223118 L 60.896852006565375 13.98874238179363 L 60.67269200139925 14.389028105304579 L 60.46454342517355 13.98874238179363 L 60.272406277888294 13.604468087223118 L 60.08026913060304 13.98874238179363 L 59.87212055437735 14.389028105304579 L 59.64796054921122 13.98874238179363 L 59.45582340192596 13.604468087223118 L 59.26368601032569 13.98874238179363 L 59.055537434099996 14.373016676364141 L 58.84738885787431 13.98874238179363 L 58.63924028164861 13.604468087223118 L 58.44710313436335 13.98874238179363 L 58.238954558137664 14.389028105304579 L 58.03080598191197 13.98874238179363 L 57.82265740568628 13.604468087223118 L 57.63052025840102 13.98874238179363 L 57.422371682175324 14.389028105304579 L 57.214223105949635 13.98874238179363 L 57.02208595866438 13.604468087223118 L 56.81393738243869 13.98874238179363 L 56.60578880621299 14.389028105304579 L 56.397640229987296 13.98874238179363 L 56.18949171484036 13.58845665828268 Z"
     style="fill:#ffffff;stroke:none"
     id="path14" />
  <path
     d="M 40.9532527923584 0.375 C 31.328252851963043 0.375 31.328252851963043 17.625 40.9532527923584 17.625 "
     style="fill:none;stroke:#ffffff;stroke-width:1"
     id="path16" />
  <path
     d="M 40.9532527923584 0.375 L 65.31739234924316 0.375 "
     style="fill:none;stroke:#ffffff;stroke-width:1"
     id="path18" />
  <path
     d="M 40.9532527923584 17.625 L 65.31739234924316 17.625 "
     style="fill:none;stroke:#ffffff;stroke-width:1"
     id="path20" />
  <path
     d="M 73.00489234924316 0.375 L 73.00489234924316 17.625 "
     style="fill:none;stroke:#ffffff;stroke-width:1"
     id="path22" />
  <path
     d="M 65.31739234924316 0.375 C 74.94239139556885 0.375 74.94239139556885 17.625 65.31739234924316 17.625 "
     style="fill:none;stroke:#ffffff;stroke-width:1"
     id="path24" />
</svg>
