<?xml version="1.0" encoding="UTF-8" standalone="no"?>
<svg
   width="95.84232330322266"
   height="18.0"
   version="1.1"
   id="svg28"
   sodipodi:docname="imenhetephekawaset.svg"
   inkscape:version="1.1.1 (3bf5ae0d25, 2021-09-20)"
   xmlns:inkscape="http://www.inkscape.org/namespaces/inkscape"
   xmlns:sodipodi="http://sodipodi.sourceforge.net/DTD/sodipodi-0.dtd"
   xmlns="http://www.w3.org/2000/svg"
   xmlns:svg="http://www.w3.org/2000/svg">
  <defs
     id="defs32" />
  <sodipodi:namedview
     id="namedview30"
     pagecolor="#ffffff"
     bordercolor="#666666"
     borderopacity="1.0"
     inkscape:pageshadow="2"
     inkscape:pageopacity="0.0"
     inkscape:pagecheckerboard="0"
     showgrid="false"
     inkscape:zoom="14.34648"
     inkscape:cx="47.921162"
     inkscape:cy="9.0266043"
     inkscape:window-width="1920"
     inkscape:window-height="1001"
     inkscape:window-x="-9"
     inkscape:window-y="-9"
     inkscape:window-maximized="1"
     inkscape:current-layer="svg28" />
  <path
     d="M 9.619241759901131 8.704017150225534 C 9.956114020057063 8.704017150225534 10.371109904274771 8.76399089929749 10.864229412554256 8.883939352346172 C 11.905261819800385 9.137163864337834 12.8056128816014 9.495897714329981 13.565284507766846 9.960140902322616 C 14.32495613393229 10.42438504522002 15.176070395910864 11.008207138114807 16.1186263387978 11.711606226102205 C 15.211383729261659 12.170969850713034 14.168207560803758 12.400651185566062 12.989095923614554 12.400651185566062 C 12.723796640788658 12.400651185566062 12.45161535927535 12.38902331016484 12.172553033979401 12.365768514267165 C 10.653210736553286 12.239155780818948 9.3484030744964 11.792497164191472 8.258132912523058 11.025791709479964 C 7.167863705454489 10.259086254768457 6.897054622097669 9.78780828332499 7.445706139904986 9.61195779514956 C 7.994358612617073 9.436108261878905 8.441018184149321 9.207503104703234 8.78568342214457 8.92614327852732 C 8.967086681565636 8.778059511294387 9.244939142516232 8.704017150225534 9.619241759901131 8.704017150225534 ZM 16.87829701005847 11.880422885731571 L 17.743478929129175 12.070340076094354 C 17.743478929129175 12.295428318996994 17.539492171864723 12.478311680813713 17.131522476954906 12.618992071354056 C 16.899402315315747 12.634818663035082 16.657389340244983 12.642731958875595 16.405485461552153 12.642731958875595 C 15.985642480714866 12.642731958875595 15.538322115080815 12.620750051038186 15.063526274459544 12.576788145172907 C 15.977946903162229 12.464244023721587 16.582870481695206 12.232122907177656 16.87829701005847 11.880422885731571 ZM 18.207723072026578 12.196952809542571 L 18.73527358164809 12.302462147543055 C 18.791544210016596 12.471278807172421 18.594593191107748 12.640094511897015 18.144416705302472 12.808910216621609 L 17.532460253128203 12.76670629044046 C 17.968567172031815 12.569755271531616 18.193655414934454 12.379837126264063 18.207723072026578 12.196952809542571 ZM 19.009598624373172 12.407972440448313 L 19.36833342927009 12.49238029281061 C 19.283925576907794 12.731536192805375 19.030702019820904 12.851114142802757 18.608660848199875 12.851114142802757 C 18.847816748194642 12.696366095170289 18.98146331018892 12.548652830988656 19.009598624373172 12.407972440448313 ZM 19.600455500718795 12.618992071354056 C 19.938086910167982 12.71746853571325 20.163175153070622 12.87925041189178 20.27571831961717 13.10433865479442 L 19.326128548184172 12.893318068983906 C 19.509013819810434 12.808910216621609 19.600455500718795 12.71746853571325 19.600455500718795 12.618992071354056 ZM 17.405847519679988 13.864010280959864 C 18.46094662911347 13.99062205950331 19.255788352914 14.28604954277135 19.790372691081576 14.750293685668755 L 17.173725448231284 14.138336278589716 C 17.20186267222508 13.983587276052475 17.279236696041313 13.892145595144116 17.405847519679988 13.864010280959864 ZM 5.187792747046841 0.40093762696942586 C 5.848988863757863 0.40093762696942586 6.3484031042903535 0.5838216154424017 6.686035468644312 0.9495895923883535 C 7.0236668780935005 1.3153575693343054 7.129177170998758 2.198124417859453 7.0025653924553115 3.5978901976453446 C 6.875952659007095 4.997655977431236 6.8337487328259465 5.947245271411848 6.875953136459481 6.446659034491953 C 6.918156585188243 6.946073275024443 7.048285755457107 7.315357867835686 7.266340169813683 7.554513290378066 C 7.4843936292654885 7.793669667825216 7.748168406623859 8.029308176094565 8.05766402443641 8.261430247543267 C 8.367160119701346 8.49355231899197 8.212412072068878 8.70105503562468 7.5934203589913905 8.883939352346172 C 6.974429123366289 9.06682271416289 6.629762930466267 9.33763179751971 6.559423212648482 9.69636660241663 C 6.48908301737831 10.055099497504006 6.577008261466024 10.385698033311902 6.823197990006852 10.688160300030777 C 7.069388196000066 10.99062256674965 7.656726725715499 11.398594171469009 8.585214534057924 11.912075114188854 C 9.513701864947961 12.42555701181347 10.333162943564483 12.752637678443564 11.043595860097945 12.893318068983906 C 11.754030686440949 13.033998459524248 13.931053141209826 13.10433865479442 17.57466322440458 13.10433865479442 C 18.700104438917776 13.315358285700162 19.445707453086325 13.596718111876076 19.811474176719763 13.94841813332216 L 17.405847519679988 13.399766138062459 C 17.18076118658689 13.47010633333263 17.00490974350669 13.60375194042214 16.87829701005847 13.800703914235756 C 16.87829701005847 14.166472547678739 16.083455286257944 14.37749217858448 14.493772793561655 14.433763761857755 C 14.254616893566888 14.433763761857755 14.092834062483586 14.103166180954629 14.008427165026061 13.441970064243609 L 13.755202653034399 13.652989695149351 C 13.881814431577844 14.187574033316928 13.91698452921293 14.658852004760394 13.860712945939655 15.066823609479753 C 13.663760972126038 14.588511809490223 13.319094779226017 14.271981885679224 12.826715322144361 14.117233838046756 C 12.038906471985122 13.976553447506413 11.335507383997724 13.846424754689936 10.71651519346785 13.726846804692553 C 10.097523002937978 13.607269809599941 9.471497938766813 13.350529338240019 8.838438091144814 12.956624435708015 C 8.275718438792987 12.520516561899633 7.371849507814169 12.049238590456165 6.126831775660745 11.542790521377611 C 4.881814043507322 11.03634340720383 4.259305416156803 10.283705609584448 4.259305416156803 9.284877128519467 C 4.259305416156803 8.286049602359258 4.593420388785345 7.459554695196674 5.261649856590044 6.805393361936487 C 5.929879801847128 6.151231551223914 6.2639942970232845 5.366941047694864 6.2639942970232845 4.452521373896952 C 6.2639942970232845 4.002345365544058 6.207722713750011 3.5767882345547704 6.095179069751077 3.175850219655281 C 5.993352799453844 2.8130966980279646 5.689997219321334 2.6317199372143065 5.185112329353548 2.6317199372143065 C 5.131966626849421 2.6317199372143065 5.076588356989783 2.6337295343056977 5.0189770423222475 2.6377489672146734 L 3.2464102329044677 2.869871038663376 C 3.3026820549039346 2.6869874381204633 3.387089668540039 2.5181714946696765 3.4996335512651657 2.363423447037208 C 3.6403134643531225 1.9273154538657298 3.795061511985591 1.6740914193264531 3.9638776941625706 1.6037515821455712 C 3.9884963327999836 1.6899181303705768 4.083125485835245 1.733001523846176 4.247764437089777 1.733001523846176 C 4.271284696513898 1.733001523846176 4.296233016023633 1.732122295277918 4.32261082797614 1.7303637187783059 C 4.603971609056825 1.7162955842337946 4.765753485235356 1.5756155517827413 4.8079574114165045 1.308323860151339 C 4.7798216197798675 1.0410321685199366 4.6180397436013365 0.9003521360688832 4.32261082797614 0.8862840612059201 C 4.069387270889249 0.9003521360688832 3.9287073578012923 1.0410321685199366 3.9005710887122693 1.308323860151339 C 3.6754838007144013 1.5193437297832741 3.4996337899913588 1.765533697050295 3.373021295269335 2.046893523226209 C 3.3320964640294637 2.0673559388461444 3.2921017100369276 2.0775870272930157 3.2530370332917253 2.0775870272930157 C 3.1846734908983327 2.0775870272930157 3.119158190711805 2.046253737029377 3.0564913714583355 1.9835869177759076 C 3.225307553635315 1.6459552696005268 3.471497998354722 1.2977725205167625 3.7950622281641695 0.9390390286139039 C 4.118625980521232 0.5803047608509185 4.582869168513866 0.40093762696942586 5.187792747046841 0.40093762696942586 ZM 9.977946007845366 14.159437764227905 L 10.653208826743741 14.328253468952498 L 9.89353815548307 15.425557459471902 L 9.977946007845366 14.159437764227905 ZM 11.286269629270512 14.391559835676606 C 11.84898928162234 14.391559835676606 12.32378416733884 14.451348333222912 12.71065428642001 14.570927238125066 C 13.09752440550118 14.690504233217677 13.336679350591174 15.144197633295988 13.428121986404305 15.932005528550455 C 13.517959427296729 16.705992132143816 13.400721948894024 17.092986388845265 13.07640859629142 17.092986388845265 C 13.070618053757709 17.092986388845265 13.064760667889999 17.092862251224986 13.058837393593063 17.09261588579397 L 11.03304511727885 17.09261588579397 C 10.988356528882543 17.089306185856326 10.942987093384234 17.087650380982737 10.896935855879153 17.087650380982737 C 10.551564943257846 17.087650380982737 10.167861288398607 17.180747866764687 9.745823936396663 17.366940928519046 C 9.858368057847983 16.382182014355735 10.3718499554726 15.390387361836815 11.286269629270512 14.391559835676606 ZM 5.187792747046841 0.0 C 4.231169147067781 0.0 3.443361967991892 0.5345838607151904 2.8243702549144043 1.6037515821455712 C 2.613350385282469 1.9554513648654634 1.9873244855696295 2.3071511475853557 0.946292317049693 2.6588511690314407 C 0.22882448278191372 2.869871038663376 -0.08067132899566878 3.165298999383801 0.017804894772284054 3.545135051192716 L 0.03890708726380924 3.798358369553414 C 1.3753664816751086 3.6717465910099687 2.493771957832701 3.5099647148314377 3.3941234970861016 3.3130129797440135 L 5.040079482865207 3.0175852577497815 C 5.048381902400062 3.0173546482474904 5.056615568791377 3.017239343496345 5.064780004586766 3.017239343496345 C 5.5546451974053515 3.017239343496345 5.796118651280282 3.432360558965298 5.789199888759171 4.2626027511770115 C 5.782166060213108 5.106682229704753 5.4269491244939925 5.862836941597166 4.723549559054208 6.5310668868542505 C 4.020149993614424 7.199296832111335 3.661415904896083 8.166471652361876 3.6473477703515713 9.432591347605873 C 3.6473477703515713 10.459556097759878 4.136210551886389 11.19460836910933 5.11393659240841 11.637750071463774 C 6.09166167802566 12.08089177381822 7.037734535185626 12.555685704629948 7.952154686435924 13.062133773708501 C 8.866573405329065 13.568581842787054 9.387089131499744 13.962486745319058 9.513701864947961 14.243845616590201 C 9.44336166967779 15.735053554736838 9.26047830786107 16.698711938166735 8.96504986968826 17.134818857070343 C 8.472670412606604 17.134818857070343 7.614522322081965 17.064478661800173 6.390606553019116 16.92379827125983 C 6.01077121738878 16.980070809437876 5.75051335430344 17.10316567370829 5.609832486310712 17.293084773880615 C 5.469153528127526 17.48300387405294 5.497289319764163 17.69050468087611 5.69424129357778 17.91559292377875 C 5.7882960713930505 17.77973671214347 5.878469161312617 17.711806696516287 5.9647610407888685 17.711806696516287 C 5.99463093949035 17.711806696516287 6.024035799568166 17.719946304787623 6.052975621022314 17.73622552133029 C 6.165519265021248 17.799531888054396 6.446879091197162 17.831185071416453 6.897054144645284 17.831185071416453 L 8.96504986968826 17.831185071416453 C 9.066651737364214 17.811645809984256 9.162826881224358 17.801877134172933 9.253573391459145 17.801877134172933 C 9.489516991802953 17.801877134172933 9.68877028611562 17.867918348162302 9.851334229301921 18.000000776141047 C 10.048286203115538 17.98593311904892 10.21710095293536 17.929660580870873 10.357781343475702 17.831185071416453 C 10.978782653644581 17.849272877596132 11.498366392758383 17.8583158257812 11.916529696102794 17.8583158257812 C 12.474082358736627 17.8583158257812 12.85133372205558 17.842239049050068 13.048285695869197 17.810083585778262 C 13.39295188876922 17.753811047600216 13.705964898307187 17.704574247777778 13.987324724483102 17.662369366691856 L 14.704792424467398 17.89449143814056 C 14.713104870502352 17.89513122433739 14.721098378343662 17.895450162531034 14.728771038181785 17.895450162531034 C 14.889915037973028 17.895450162531034 14.91005779922074 17.754450833797048 14.789201231734465 17.47245026651953 C 14.170209041204592 17.134818857070343 14.02952865066425 16.28370459509177 14.367161015018208 14.919109390393348 L 14.367161015018208 14.919109390393348 C 14.486100133723532 14.921667580275903 14.601202445057407 14.922946197764796 14.712467949019834 14.922946197764796 C 15.825117259215483 14.922946197764796 16.55409538131412 14.795054846827687 16.899400405506203 14.539274054763013 C 18.306200491290543 14.792496656945131 19.452741281632388 15.03868734039073 20.33902468634128 15.277843240385495 L 20.486738905427682 15.024620638203377 C 20.1209702719847 14.616648078579246 19.84664522925962 14.356389738041521 19.6637618674429 14.243845616590201 L 19.6637618674429 14.243845616590201 L 20.59224824342817 14.433763761857755 C 20.74230770863311 14.490035345131028 20.8462548224276 14.518171614220051 20.90408958481164 14.518171614220051 C 21.01975910957972 14.518171614220051 20.95098304832509 14.405627492768732 20.697759491238198 14.180540204770864 C 20.641486953060152 14.025792157138396 20.23351534834079 13.723330845324293 19.473842767270575 13.273154359519014 L 19.473842767270575 13.273154359519014 L 20.761063948152763 13.526377916605906 C 20.901744338693106 12.62602685480489 19.924019253075855 11.985932223732057 17.827886781491472 11.606096888101721 C 16.73058279097207 11.352873331014829 15.738790048262691 10.86049196412363 14.852506643553802 10.12895660704721 C 13.684862457764227 9.101993766702748 11.91932947689251 8.349355969083367 9.55590579112911 7.871043214189065 C 8.303853752977238 7.786635839279153 7.607488493535902 7.4032831119233995 7.466808580447945 6.72098550957419 C 7.326128667359988 6.038687429772594 7.32964558163302 4.95193465952467 7.477359800719425 3.4607274375566117 C 7.625073542353445 1.969519857499264 7.417570825720734 0.9988280632941434 6.854850695916521 0.5486519952597018 C 6.43281095665265 0.1828839884729759 5.877125132846886 0.0 5.187792747046841 0.0 Z"
     style="fill:#ffffff;stroke:none"
     id="path2" />
  <path
     d="M 27.177865186478382 7.937876256002994 C 26.496671245133623 7.991654064440127 26.120222241250442 8.332250793733436 26.04851793344977 8.959665719745715 C 26.138148499234912 9.640860143848613 26.514597503118093 9.999383372505463 27.177865186478382 10.035235888474404 C 27.84113286983867 9.999383372505463 28.190692728124215 9.640860143848613 28.226544278576878 8.959665719745715 C 28.172766470139745 8.332250793733436 27.8232066118542 7.991654064440127 27.177865186478382 7.937876256002994 ZM 27.25853214051315 5.679180301671352 C 27.742538692303153 5.679180301671352 28.190693210882355 5.768811229525099 28.602994730734476 5.948073085232593 C 29.01529576782846 6.127334940940088 29.378299957533752 6.373819539952137 29.692007299850356 6.687527123647811 C 30.0057151249251 7.001234707343485 30.252199844626684 7.3597576946212655 30.43146145895511 7.763095602723013 C 30.610722590525395 8.16643375220383 30.700352914931468 8.592179844854769 30.700352914931468 9.040334122054901 C 30.700352914931468 9.506413933102294 30.610722590525395 9.941123154745469 30.43146145895511 10.344461786984425 C 30.252199844626684 10.747799936465242 30.0057151249251 11.101841721315509 29.692007299850356 11.406586176018948 C 29.378299957533752 11.711330630722387 29.01529576782846 11.948851980052666 28.602994730734476 12.119151189526065 C 28.190693210882355 12.289449433483185 27.742538692303153 12.374598314082675 27.25853214051315 12.374598314082675 C 26.774526312860356 12.374598314082675 26.32189131599085 12.289449433483185 25.900626908525563 12.119151189526065 C 25.479361776923067 11.948851980052666 25.116357104459635 11.711330630722387 24.8116130118248 11.406586176018948 C 24.506868074363222 11.101841721315509 24.264865160536825 10.747799936465242 24.085604149656074 10.344461786984425 C 23.906342354293347 9.941123154745469 23.8167114264396 9.506413933102294 23.8167114264396 9.040334122054901 C 23.8167114264396 8.592179844854769 23.906342354293347 8.16643375220383 24.085604149656074 7.763095602723013 C 24.264865160536825 7.3597576946212655 24.506868074363222 7.001234707343485 24.8116130118248 6.687527123647811 C 25.116357104459635 6.373819539952137 25.479361776923067 6.127334940940088 25.900626908525563 5.948073085232593 C 26.32189131599085 5.768811229525099 26.774526312860356 5.679180301671352 27.25853214051315 5.679180301671352 ZM 27.204754814834157 4.764946937561035 C 26.61319119789547 4.764946937561035 26.057480338304796 4.876985476688684 25.53762175330399 5.101062554943983 C 25.017763409682257 5.325139663371665 24.569609615240264 5.629884118075104 24.193160490667548 6.015295949226683 C 23.8167114264396 6.400708564860238 23.516448355197976 6.848862238612696 23.292371276942678 7.359757211863126 C 23.068294998255546 7.870652909250765 22.956256866455078 8.421882083655788 22.956256866455078 9.013444493699126 C 22.956256866455078 9.605007145121533 23.068294998255546 10.156236319526556 23.292371276942678 10.667132016914195 C 23.516448355197976 11.178027714301834 23.8167114264396 11.621700306316313 24.193160490667548 11.998149310199494 C 24.569609615240264 12.374598314082675 25.017763409682257 12.67486180773767 25.53762175330399 12.898938825648202 C 26.057480338304796 13.123014878042454 26.61319119789547 13.23505338699772 27.204754814834157 13.23505338699772 C 27.796317466256564 13.23505338699772 28.347546157903448 13.123014878042454 28.85844088977481 12.898938825648202 C 29.369336587162447 12.67486180773767 29.81749062298351 12.374598314082675 30.202903479996134 11.998149310199494 C 30.58831537149248 11.621700306316313 30.89305982619592 11.178027714301834 31.11713636134831 10.667132016914195 C 31.34121434477512 10.156236319526556 31.453252853730387 9.605007145121533 31.453252853730387 9.013444493699126 C 31.453252853730387 8.421882083655788 31.34121434477512 7.870652909250765 31.11713636134831 7.359757211863126 C 30.89305982619592 6.848862238612696 30.58831537149248 6.400708564860238 30.202903479996134 6.015295949226683 C 29.81749062298351 5.629884118075104 29.369336587162447 5.325139663371665 28.85844088977481 5.101062554943983 C 28.347546157903448 4.876985476688684 27.796317466256564 4.764946937561035 27.204754814834157 4.764946937561035 Z"
     style="fill:#ffffff;stroke:none"
     id="path4" />
  <path
     d="M 42.791217630075664 2.9892379897054955 C 43.068835731278675 2.9892379897054955 43.408691041004865 3.095985977015074 43.50778172773154 3.340333519869274 L 43.47130011263709 11.279334014803599 L 43.47130011263709 11.279334014803599 C 43.33048932130826 10.960512872387417 42.91219094789365 10.367342335933275 41.66974612501964 9.632436990092634 L 42.61300693482894 3.06154244747758 C 42.65725846576657 3.0145252182361735 42.656098295835605 2.9892379897054955 42.791217630075664 2.9892379897054955 ZM 43.47130011263709 11.279334014803599 L 43.47130011263709 11.279334014803599 C 43.47130011263709 11.279334014803599 43.47130029167566 11.279334014803599 43.47130029167566 11.279334014803599 L 43.47130011263709 11.279334014803599 L 43.47130011263709 11.279334014803599 ZM 42.65921016521369 2.25 C 42.446704811000096 2.25 42.254900701876345 2.280338063237631 42.11910334857324 2.317373030601139 L 40.9532527923584 10.098160711168036 C 41.56997155571676 10.520569989179059 43.264807589744684 11.67797341616124 43.19722267818634 12.683307927520042 L 43.2098602946596 15.75000086141948 L 44.07063691646657 15.73816856043225 L 44.065809678553215 3.119482909369111 C 43.80984432291815 2.427915471835376 43.173828603490534 2.25 42.65921016521369 2.25 Z"
     style="fill:#ffffff;stroke:none"
     id="path6" />
  <path
     d="M 58.95352681353688 4.029639604501426 L 58.95352681353688 5.785550680942833 L 46.02147902082652 5.785550680942833 L 46.02147902082652 4.029639604501426 ZM 46.06893607694656 2.25 L 46.06893607694656 3.578797571361065 L 45.57063698768616 3.578797571361065 L 45.57063698768616 6.236392714083195 L 59.404368846677244 6.236392714083195 L 59.404368846677244 3.578797571361065 L 59.00098386965692 3.578797571361065 L 59.00098386965692 2.25 L 58.55014183651656 2.25 L 58.55014183651656 3.578797571361065 L 57.434901017695665 3.578797571361065 L 57.434901017695665 2.25 L 56.984058984555304 2.25 L 56.984058984555304 3.578797571361065 L 55.86881816573441 3.578797571361065 L 55.86881816573441 2.25 L 55.41797613259405 2.25 L 55.41797613259405 3.578797571361065 L 54.326463841833174 3.578797571361065 L 54.326463841833174 2.25 L 53.851893280632794 2.25 L 53.851893280632794 3.578797571361065 L 52.76038098987192 3.578797571361065 L 52.76038098987192 2.25 L 52.30953895673156 2.25 L 52.30953895673156 3.578797571361065 L 51.194298137910664 3.578797571361065 L 51.194298137910664 2.25 L 50.7434561047703 2.25 L 50.7434561047703 3.578797571361065 L 49.62821528594941 3.578797571361065 L 49.62821528594941 2.25 L 49.17737325280905 2.25 L 49.17737325280905 3.578797571361065 L 48.08586096204817 3.578797571361065 L 48.08586096204817 2.25 L 47.63501892890781 2.25 L 47.63501892890781 3.578797571361065 L 46.51977811008692 3.578797571361065 L 46.51977811008692 2.25 Z"
     style="fill:#ffffff;stroke:none"
     id="path8" />
  <path
     d="M 46.89943455904722 12.54664921760559 L 46.614692222326994 13.163590947166085 L 45.71300815604627 15.180515832267702 L 45.57063698768616 15.46525816898793 L 46.16385018918663 15.750000505708158 L 46.30622135754675 15.44152964092791 L 46.92316308710724 14.041546485386789 L 47.23163395188749 14.587302630767226 L 47.51637628860772 15.156787304207683 L 47.801118625327945 14.587302630767226 L 48.13331801816821 13.99408942926675 L 48.44178888294846 14.587302630767226 L 48.726531219668686 15.156787304207683 L 49.011273556388915 14.587302630767226 L 49.31974442116916 13.99408942926675 L 49.65194381400943 14.587302630767226 L 49.936686150729656 15.156787304207683 L 50.221428487449884 14.587302630767226 L 50.52989935223013 14.01781795732677 L 50.83837021701038 14.587302630767226 L 51.146841081790626 15.156787304207683 L 51.431583418510854 14.587302630767226 L 51.7400542832911 13.99408942926675 L 52.04852514807135 14.587302630767226 L 52.356996012851596 15.156787304207683 L 52.641738349571824 14.587302630767226 L 52.95020921435207 13.99408942926675 L 53.25868007913232 14.587302630767226 L 53.567150943912566 15.156787304207683 L 53.851893280632794 14.587302630767226 L 54.16036414541304 13.99408942926675 L 54.46883501019329 14.587302630767226 L 54.75357734691352 15.156787304207683 L 55.062048211693764 14.587302630767226 L 55.37051907647401 13.99408942926675 L 55.67898994125426 14.587302630767226 L 55.963732277974486 15.156787304207683 L 56.272203142754734 14.587302630767226 L 56.58067400753498 13.99408942926675 L 56.91287340037525 14.611031158827245 L 57.197615737095475 15.133058776147664 L 57.50608660187572 14.611031158827245 L 57.83828599471599 13.970360901206732 L 58.668784476816654 15.46525816898793 L 58.83488417323679 15.750000505708158 L 59.404368846677244 15.44152964092791 L 59.26199767831713 15.156787304207683 L 58.12302833143622 13.116133891046047 L 57.83828599471599 12.617834801785648 L 57.55354365799576 13.139862419106066 L 57.197615737095475 13.75680414866656 L 56.86541634425521 13.139862419106066 L 56.55694547947496 12.594106273725629 L 56.29593167081475 13.139862419106066 L 55.963732277974486 13.733075620606542 L 55.65526141319424 13.139862419106066 L 55.37051907647401 12.57037774566561 L 55.08577673975378 13.139862419106066 L 54.777305874973536 13.733075620606542 L 54.44510648213327 13.139862419106066 L 54.16036414541304 12.57037774566561 L 53.87562180869281 13.139862419106066 L 53.54342241585255 13.733075620606542 L 53.2349515510723 13.139862419106066 L 52.95020921435207 12.57037774566561 L 52.66546687763184 13.139862419106066 L 52.356996012851596 13.733075620606542 L 52.02479662001133 13.139862419106066 L 51.7400542832911 12.57037774566561 L 51.45531194657087 13.139862419106066 L 51.146841081790626 13.709347092546523 L 50.83837021701038 13.139862419106066 L 50.52989935223013 12.57037774566561 L 50.2451570155099 13.139862419106066 L 49.936686150729656 13.733075620606542 L 49.62821528594941 13.139862419106066 L 49.31974442116916 12.57037774566561 L 49.035002084448934 13.139862419106066 L 48.726531219668686 13.733075620606542 L 48.41806035488844 13.139862419106066 L 48.13331801816821 12.57037774566561 L 47.824847153387964 13.139862419106066 L 47.51637628860772 13.733075620606542 L 47.20790542382747 13.139862419106066 L 46.89943455904722 12.54664921760559 Z"
     style="fill:#ffffff;stroke:none"
     id="path10" />
  <path
     d="M 67.80652252011544 6.790399429477899 Q 68.7556636425162 7.352290935921946 68.7556636425162 8.476074129844342 L 66.86497433841821 8.476074129844342 Q 66.86497433841821 7.352290935921946 67.80652252011544 6.790399429477899 ZM 68.7556636425162 8.999999891823492 Q 68.54305623385684 9.751719849040569 67.80652252011544 9.751719849040569 Q 67.06998880637403 9.751719849040569 66.88016058189388 8.999999891823492 ZM 74.20753048131007 10.31361121970889 L 74.20753048131007 11.209600670979114 L 61.41310781643436 11.209600670979114 L 61.41310781643436 10.31361121970889 ZM 67.80652252011544 6.2664735317230225 Q 66.35623463888042 6.813178839949977 66.35623463888042 8.612750321125354 Q 66.35623463888042 9.296132001667623 66.65236692975886 9.751719849040569 L 60.90436816215515 9.751719849040569 L 60.90436816215515 11.733526251923962 L 74.70867687807572 11.733526251923962 L 74.70867687807572 9.751719849040569 L 68.98345765671982 9.751719849040569 Q 69.27958922346104 9.296132001667623 69.27958922346104 8.612750321125354 Q 69.27958922346104 6.813178839949977 67.80652252011544 6.2664735317230225 Z"
     style="fill:#ffffff;stroke:none"
     id="path12" />
  <path
     d="M 78.32703569377529 2.25 C 78.2376025953029 2.25 78.14816607413923 2.253970136522819 78.05911586073464 2.2616940936950685 C 78.04505544483669 2.261314854150061 78.03101967231619 2.2611265098648654 78.01701128132615 2.2611265098648654 C 77.01175851528387 2.2611265098648654 76.1460710215801 3.2310118757226345 76.21951708547785 4.227486864678362 C 76.16519627903244 5.010703370562885 76.32823077454313 5.7853252703907465 76.37134755786144 6.564726844542106 C 76.44013769198772 6.696246724428149 76.56488726028486 6.751571563107875 76.69725916212747 6.751571563107875 C 76.87325531831979 6.751571563107875 77.06272569747851 6.653772037999446 77.15206410149133 6.50722197967788 C 77.38845421628193 6.176301580427631 77.28412921610293 5.749019186418789 77.18772683358688 5.3887868587970935 C 77.08172300332075 4.745978962128442 77.04268886324084 4.030068083582146 77.39631054782322 3.4528006182538893 C 77.62387662214972 3.1480696260937604 77.99860427564504 2.9958286589324934 78.37270694570731 2.9958286589324934 C 78.78010989223384 2.9958286589324934 79.18677171200223 3.1763791052256156 79.40182351418485 3.5371584359633665 C 79.74656770727387 4.042562504116439 79.6539836791823 4.77819150729467 79.21147053702722 5.195713526586957 C 78.78481769003984 5.700777493313611 78.14460921333077 6.0338350210172855 77.8709672108698 6.659532199293302 C 77.69672164719238 7.2902214869334045 77.84294301305854 7.947675764252113 77.78438452971966 8.58979227727632 C 77.7284016215909 10.931873768086549 77.69908512963104 13.274474138899242 77.65476025037033 15.616783352771236 C 77.7756173059313 15.718249264810014 77.91795654122495 15.736942635663993 78.0654154381788 15.736942635663993 C 78.15145482412846 15.736942635663993 78.23923727267216 15.730578255264366 78.3255123679633 15.730578255264366 C 78.39559471067092 15.730578255264366 78.46468264746352 15.734778582038938 78.53103357210593 15.74999997482893 C 78.84979543092902 15.586587913683193 78.82436871355227 15.177060616750788 78.80072613106529 14.873842111880167 C 78.68795986140027 12.417005083216047 78.7701272707616 9.956825682398843 78.70862949421614 7.498899781539577 C 78.71527476348254 7.218658031606611 78.62442467080818 6.897188823957991 78.92024240435077 6.736883653803267 C 79.5094835847755 6.164884394938033 80.13726130300861 5.595112167217945 80.49961341744778 4.8434820821694995 C 80.86829431629694 3.752547829598784 80.04314139923693 2.4460932511888633 78.90064955022075 2.3073502733067626 C 78.71205674911369 2.268397472059699 78.51955477817276 2.25 78.32703569377529 2.25 Z"
     style="fill:#ffffff;stroke:none"
     id="path14" />
  <path
     d="M 87.08488538296545 2.4804785618510654 Q 87.15234989548951 2.4804785618510654 87.21231854994727 2.5104628219576677 Q 87.31512088363269 2.5618636755630804 87.35917958918935 2.6866961227459876 Q 87.40323793676052 2.81152780920974 87.35917958918935 2.8849586868162653 Q 87.25637689751844 3.0024473302675503 87.15357384786205 3.009790418028203 Q 87.138887493348 3.010839404995047 87.1236018711324 3.010839404995047 Q 87.03188885380972 3.010839404995047 86.91859575549213 2.97307569519591 Q 86.8304787023643 3.061191942856399 86.71299001416483 3.1933675225481446 Q 86.56612933290823 3.3842869988577697 86.31646524400976 3.795498302519629 Q 86.0374284460832 4.250768132745405 85.90525376135517 4.441687519558658 Q 85.59684497037146 4.26545430826671 85.39123922904416 4.26545430826671 Q 86.31646524400976 3.1199366449416193 86.58815832770108 2.826213984731045 Q 86.85985105340691 2.5324920852396255 86.98468345584163 2.495776646436363 Q 87.03669659887062 2.4804785618510654 87.08488538296545 2.4804785618510654 ZM 85.09751679257452 4.720724138492485 Q 85.50872791724363 4.9263297008270435 85.59684497037146 5.08787691559043 Q 85.6849620234993 5.249423951361073 85.61153096690003 5.249423951361073 Q 85.53810026828624 5.249423951361073 85.43529793460083 5.337540825496161 Q 85.36186687800156 5.0731907400691245 85.09751679257452 4.720724138492485 ZM 84.99471410090361 5.146621438682907 L 85.64090331794264 7.569831629053863 Q 85.33249452695895 7.569831629053863 84.99471410090361 7.80480936343829 L 84.99471410090361 5.146621438682907 ZM 87.05727503647904 2.25 Q 86.85985105340691 2.25 86.63955931555105 2.4443750544858878 L 84.90659722676853 4.515118397165184 Q 84.34852488386458 4.427001344037353 84.0401160928809 3.8983008151977954 Q 84.24572165521545 3.648636547306579 84.73770701374086 3.1933675225481446 Q 85.22969219327352 2.7380977370705555 85.14157514014569 2.5912360042315976 Q 85.09932748315666 2.5025159245546167 84.99752786681417 2.5025159245546167 Q 84.7454525666828 2.5025159245546167 84.12823314600872 3.0465057673350944 Q 83.46735766395201 3.5164617730821743 83.07083253581146 3.8101844780409344 Q 82.86522688398053 4.001103864854188 82.73305134903697 4.478403047858292 Q 82.60087657481256 4.955702051869654 82.33652624327051 5.477058866473961 Q 82.0721759159236 5.998416397049237 82.08686208724976 6.2921391915043685 Q 82.12357751486597 6.475715580053341 82.20802262137981 6.475715580053341 Q 82.29246773908069 6.475715580053341 82.42464251330509 6.2921391915043685 Q 82.61556275033386 5.969044046006626 82.87991234353086 5.557832921337509 Q 83.14426260795065 5.146621438682907 83.5407877360912 4.794154121135298 Q 83.81982417603228 4.603234734322044 84.0694884439235 4.559176207758129 Q 84.34852488386458 4.661979436407265 84.49538592310667 4.955702051869654 L 84.49538592310667 13.062440868849318 Q 83.62890478921904 13.29741896121923 83.59953243817642 14.193272625142217 Q 83.55547391161251 14.531053409183038 83.80513817950371 15.2359869703218 Q 83.98137139079567 15.750001144647312 84.46601357206406 15.750001144647312 Q 84.14291932153003 14.531053409183038 84.14291932153003 14.193272625142217 Q 84.17229167257264 13.517711057060579 84.73036383648383 13.517711057060579 Q 85.33249452695895 13.517711057060579 85.36186687800156 14.193272625142217 Q 85.36186687800156 14.531053409183038 85.05345880298883 15.750001144647312 Q 85.53810026828624 15.750001144647312 85.69964802002787 15.2359869703218 Q 85.94931246691182 14.531053409183038 85.8905677648266 14.193272625142217 Q 85.90525376135517 13.29741896121923 84.99471410090361 13.062440868849318 L 84.99471410090361 8.421626587420192 Q 85.44998393112938 8.09853215789342 86.18428948532528 7.995728750251543 Q 85.8905677648266 6.497744574846185 85.60418796863576 5.939671694964017 Q 85.35110869821226 5.446491201897593 85.83780034638113 5.446491201897593 Q 85.90183822184466 5.446491201897593 85.97868374399798 5.4550295136956315 Q 85.80245071169877 4.7647817700926876 85.2737505408447 4.573862383279434 L 85.2737505408447 4.500432221643878 Q 85.30606016279012 4.4974949507410695 85.3389572389161 4.4974949507410695 Q 85.6350291341225 4.4974949507410695 85.97868374399798 4.735410135021047 Q 86.19897583983932 4.441687519558658 86.47801227978042 3.957045338290273 Q 86.77173471625005 3.457717070996954 86.87453812389194 3.325542296772549 Q 86.97734045757736 3.1933675225481446 87.02139916313402 3.17868134702684 Q 87.1053195524235 3.208053340083965 87.1802480623057 3.208053340083965 Q 87.36757112693861 3.208053340083965 87.49869727218166 3.0244765935495077 Q 87.6822743767016 2.7674693273940103 87.50604027044595 2.525148997478973 Q 87.32980723814674 2.282827920828588 87.10951514230538 2.253455579924239 Q 87.08359842514758 2.25 87.05727503647904 2.25 Z"
     style="fill:#ffffff;stroke:none"
     id="path16" />
  <path
     d="M 40.9532527923584 0.375 C 31.328252851963043 0.375 31.328252851963043 17.625 40.9532527923584 17.625 "
     style="fill:none;stroke:#ffffff;stroke-width:1"
     id="path18" />
  <path
     d="M 40.9532527923584 0.375 L 87.59232139587402 0.375 "
     style="fill:none;stroke:#ffffff;stroke-width:1"
     id="path20" />
  <path
     d="M 40.9532527923584 17.625 L 87.59232139587402 17.625 "
     style="fill:none;stroke:#ffffff;stroke-width:1"
     id="path22" />
  <path
     d="M 95.27982139587402 0.375 L 95.27982139587402 17.625 "
     style="fill:none;stroke:#ffffff;stroke-width:1"
     id="path24" />
  <path
     d="M 87.59232139587402 0.375 C 97.21732330322266 0.375 97.21732330322266 17.625 87.59232139587402 17.625 "
     style="fill:none;stroke:#ffffff;stroke-width:1"
     id="path26" />
</svg>
