<?xml version="1.0" encoding="UTF-8" standalone="no"?>
<svg
   width="72.76091766357422"
   height="18.0"
   version="1.1"
   id="svg30"
   sodipodi:docname="imhotep.svg"
   inkscape:version="1.1.1 (3bf5ae0d25, 2021-09-20)"
   xmlns:inkscape="http://www.inkscape.org/namespaces/inkscape"
   xmlns:sodipodi="http://sodipodi.sourceforge.net/DTD/sodipodi-0.dtd"
   xmlns="http://www.w3.org/2000/svg"
   xmlns:svg="http://www.w3.org/2000/svg">
  <defs
     id="defs34" />
  <sodipodi:namedview
     id="namedview32"
     pagecolor="#ffffff"
     bordercolor="#666666"
     borderopacity="1.0"
     inkscape:pageshadow="2"
     inkscape:pageopacity="0.0"
     inkscape:pagecheckerboard="0"
     showgrid="false"
     inkscape:zoom="18.897508"
     inkscape:cx="36.380459"
     inkscape:cy="9.0223538"
     inkscape:window-width="1920"
     inkscape:window-height="1001"
     inkscape:window-x="-9"
     inkscape:window-y="-9"
     inkscape:window-maximized="1"
     inkscape:current-layer="svg30" />
  <path
     d="M 1.2190420140847793 0.0 C 0.970800706632417 0.0 0.7230423028937335 0.01893070358296025 0.48290982680079 0.048905678499779795 C 0.15187998957905166 0.13255188916498697 0.3219916247400915 0.5118521231009919 0.6158947927962716 0.5118521231009919 C 0.6355981423211179 0.5118521231009919 0.6558578408244597 0.5101473851910305 0.6765601864318946 0.5065345630073116 C 1.2976180869590601 0.5780119512905144 2.0622053316712337 0.6175539511807123 2.531371224901928 0.9695623988344474 C 3.1537543888207784 1.6479367557428735 2.8741262715941502 3.0576933712068692 2.94658764204448 3.7269297850416896 C 2.951782632395561 3.7629649381631523 2.953952713884158 6.430591781037886 2.953952713884158 7.782422252231933 C 2.352510186605274 7.494257626556917 1.67335422808609 7.349215125535265 1.0039192969246102 7.349215125535265 C 0.7063920462481148 7.349215125535265 0.41078504023889434 7.377865539465801 0.12477432975315178 7.4353349446232855 C -0.20149863151174055 7.606724672263251 0.18154647682350566 7.8266562324049085 0.4376378670454302 7.8266562324049085 C 0.4681373192956425 7.8266562324049085 0.4968360674978842 7.823536850015894 0.5223214865886322 7.816844331348357 C 1.429843884416301 7.914926816832979 2.4617098179841825 8.158078494744517 2.9226503683594482 9.002292523011262 C 2.9681809889039896 9.155077638776014 2.9396896697969415 9.207577525716367 2.870237404087557 9.207577525716367 C 2.717627362869183 9.207577525716367 2.3672466519332462 8.954092059534803 2.1698535251191053 8.954092059534803 C 2.1594948014573196 8.954092059534803 2.1495575210365625 8.954790250504107 2.140092081444407 8.956259682604495 C 1.7610785167129768 8.874396440250864 1.3638924072290621 8.831466124503471 0.9703996331480379 8.831466124503471 C 0.6822712691518855 8.831466124503471 0.39612316158451694 8.854483949517657 0.1205398348885778 8.90208807080806 C -0.19080937123302597 9.107627344268586 0.19133570335568265 9.296978982841198 0.44461121617263977 9.296978982841198 C 0.47243301123084086 9.296978982841198 0.4986997685303211 9.294694058069421 0.5223214865886322 9.289895224364907 C 1.44862453664532 9.401605077048192 2.473672484380784 9.652726246647584 2.9226503683594482 10.498359836231193 C 2.9277747669676573 11.438445880183364 2.9223641381582497 12.059730482053933 2.9475081443234266 12.924290385186742 C 2.9366830234749024 13.190445840004433 3.1097205941872907 13.32271720601211 3.2850258807391146 13.32271720601211 C 3.4589948410141766 13.32271720601211 3.635197450466691 13.192454719453337 3.636159394664339 12.93350313443563 C 3.6297524037925992 12.081649745019838 3.5689455193688686 11.333930766029841 3.680643079957625 10.507654766912083 C 3.905950499841305 9.580679119782916 5.51430012614692 9.438421656179063 6.5132119200872856 9.209440304841713 C 6.73117182826633 8.953197897458422 6.302254993763335 8.858046549715155 6.0257896324592775 8.858046549715155 C 5.984500135730289 8.858046549715155 5.946610983551 8.860169218839136 5.914784994799312 8.86419400179096 C 5.786745621336966 8.854375779085794 5.657882677541108 8.84931073373403 5.528823762638173 8.84931073373403 C 4.87588245171773 8.84931073373403 4.21792069818853 8.978947377079876 3.636159394664339 9.278489565451865 C 3.6124626948293947 8.719755569414783 4.162693019870619 8.398265319455419 4.5568162027996815 8.173701395689454 C 5.178845705598769 7.90617273831141 5.863655500797704 7.879904181098088 6.5132119200872856 7.736389411825166 C 6.745102634598536 7.535056141910107 6.380132787867637 7.365650007124583 6.127413645979344 7.365650007124583 C 6.0940901289112 7.365650007124583 6.06271789404902 7.368595192973972 6.034923712303174 7.3748016471035225 C 5.875700348626306 7.359480780481324 5.715556482670491 7.35166300836024 5.555429474444318 7.35166300836024 C 4.887519202007935 7.35166300836024 4.219896213380853 7.487670468699637 3.6205083975033348 7.782422252231933 C 3.6327889023442115 5.672151988401518 3.6669749732456607 3.6298724602408705 3.6064121746990256 1.633623314068084 C 3.557780785508615 1.016382811297887 3.202148013782708 0.4498605441665941 2.6039100355477967 0.2652764822581205 C 2.1742288083663857 0.06980961445750675 1.6957449806778964 0.0 1.2190420140847793 0.0 Z"
     style="fill:#ffffff;stroke:none"
     id="path2" />
  <path
     d="M 3.29314921521244 15.21501288860129 C 4.074491287174412 15.21501288860129 5.052497037940845 15.616391919330065 5.5257419749406465 16.089636856329868 C 5.939782214238027 16.503676744424546 5.993910276899555 17.05261639954012 6.009086799211701 17.562687749346416 L 0.6002280514165623 17.562687749346416 C 0.615404749330059 17.05261639954012 0.6695328119915868 16.503676744424546 1.0835728756876173 16.089636856329868 C 1.5568179882887687 15.616391919330065 2.5118074944531683 15.21501288860129 3.29314921521244 15.21501288860129 ZM 3.29314921521244 14.777700904737003 C 2.3662267752924526 14.777700904737003 1.3688759017560481 15.205906904973462 0.7843594130436309 15.79042339368588 C 0.1848327417701466 16.38995028583294 0.11688322714550736 17.179222163577567 0.11688322714550736 17.769835531176867 L 0.11688322714550736 17.999999733210704 L 6.469415203279373 17.999999733210704 L 6.469415203279373 17.769835531176867 C 6.469415203279373 17.179222163577567 6.42448232973169 16.38995028583294 5.824955437584633 15.79042339368588 C 5.240439300074916 15.205906904973462 4.220071830733778 14.777700904737003 3.29314921521244 14.777700904737003 Z"
     style="fill:#ffffff;stroke:none"
     id="path4" />
  <path
     d="M 19.59558827849137 2.2331113889984504 Q 20.011497239301697 2.2331113889984504 20.406868373464476 2.6849636002931274 Q 17.14505908393548 6.568070899826414 16.329606932707488 7.024335296803508 Q 15.721254175199014 7.364724151693918 15.258781670883675 7.364724151693918 Q 15.101344397401952 7.364724151693918 14.960813057159163 7.325276517725049 Q 14.407469963604743 7.169951972435412 13.776464255096982 7.150536917736989 Q 13.760688966903167 7.150051524254103 13.744834947749503 7.150051524254103 Q 13.12652956999073 7.150051524254103 12.38825395561615 7.88832679632016 L 12.291175943655867 7.88832679632016 Q 12.815395428237089 6.665148911786697 13.75704954270708 6.140928742588433 Q 14.698701945634467 5.6167096003157315 19.2807685008913 2.2966530928403377 Q 19.439622247033235 2.2331113889984504 19.59558827849137 2.2331113889984504 ZM 13.822576293662692 0.46382689862325743 Q 13.87160069312572 0.46382689862325743 13.922081273037408 0.4715931515608784 L 13.922081273037408 5.461385397334616 Q 12.38825395561615 6.354500505824466 11.805788280014095 7.965988384347936 Q 12.698902703886905 1.79184917642032 13.058089773520756 1.0928900062739073 Q 13.381357725420997 0.46382689862325743 13.822576293662692 0.46382689862325743 ZM 9.823471846940608 8.280349468529765 Q 9.763159224955167 8.280349468529765 9.708909828226425 8.383422671928184 Q 9.611832586460313 8.567870141573977 9.883650198408658 8.897933602234632 Q 10.038974144658383 8.4902085535462 9.922481420308197 8.344591877914295 Q 9.871087133376625 8.280349468529765 9.823471846940608 8.280349468529765 ZM 9.850515161454094 8.003054920244196 Q 9.964842185368557 8.003054920244196 10.097221020296256 8.179560147583969 Q 10.388454200405805 8.567870141573977 9.922481420308197 9.732803546629212 Q 9.398261764572714 8.723195371480656 9.602124802379711 8.257221735611745 Q 9.713322784103013 8.003054920244196 9.850515161454094 8.003054920244196 ZM 14.931688078951879 9.926958201315696 L 14.931688078951879 10.218190867962463 Q 14.718118369566973 10.198775813264039 14.601625302908268 10.082282061988291 Q 14.640456096922156 10.024035528658937 14.756948478963821 9.926958201315696 ZM 15.378245975505326 10.587085807254049 L 17.183890562566404 10.839488364503968 L 17.552786186475032 11.499616655059363 Q 16.931489374550573 11.32487637045426 16.183991626309666 11.033644388424536 Q 15.43649319345172 10.742411037160727 15.378245975505326 10.587085807254049 ZM 11.39806151978306 10.315268879922746 L 11.747541404376221 10.490008479910806 L 11.864034128726408 11.32487637045426 L 11.553386065072697 12.276239381507548 L 11.067997716813883 12.276239381507548 L 11.39806151978306 11.32487637045426 L 11.39806151978306 10.315268879922746 ZM 12.232929752635034 10.606502231186555 L 12.562994240221252 10.703579558529796 L 12.679486964571439 11.32487637045426 L 12.368838216300684 12.276239381507548 L 11.883450552658914 12.276239381507548 L 12.21351435562809 11.32487637045426 L 12.232929752635034 10.606502231186555 ZM 13.37844604914072 10.72299461322822 L 13.494939115799427 11.32487637045426 L 13.184290367528675 12.276239381507548 L 12.698902703886905 12.276239381507548 L 13.028966164547558 11.32487637045426 L 13.028966164547558 10.742411037160727 L 13.37844604914072 10.72299461322822 ZM 12.635970993829574 8.307902566008263 Q 12.94616549869286 8.307902566008263 13.300783776495901 8.383422671928184 Q 14.349222745658347 8.606700935587865 14.621040357606692 9.441570195365404 L 15.43649319345172 9.441570195365404 L 15.747140914796912 8.936765765482605 Q 19.863233149567787 9.888126722684765 20.387455372617175 12.373316708850789 Q 19.261352076958786 11.752018527692242 18.018759137726903 11.538448133690293 L 17.475123229213175 10.451177001279875 L 15.319998757558931 10.159943650016068 L 15.378245975505326 9.635724850051886 L 14.640456096922156 9.635724850051886 Q 13.825002918768604 10.30727392210448 12.976631641685719 10.30727392210448 Q 12.794837747695311 10.30727392210448 12.611532561584353 10.276437401291815 Q 11.572801804388162 10.101698485920798 11.252445186459676 9.567771131681843 Q 10.93208856853119 9.033843092825846 11.592216516778063 8.596994435164216 Q 12.029066885982298 8.307902566008263 12.635970993829574 8.307902566008263 ZM 14.014203342229544 0.0 Q 13.306659502260182 0.0 12.902764885922597 0.4910087625106481 Q 12.407668668006053 1.0928900062739073 11.980527880002157 3.655740467965014 L 11.300984192439817 8.101897190322108 Q 10.97091987600786 8.451378444149354 10.7961802760198 8.4902085535462 L 10.563193800393865 8.4902085535462 Q 10.543778232232661 8.004819862978866 10.194298176485239 7.597094129673393 Q 9.883650198408658 4.626517849099683 10.466115788433582 2.3937311048006213 L 10.233129483961907 1.9471738928642175 Q 9.398261764572714 4.471192276884482 9.825403408347913 7.616509184371816 L 9.767156618287169 7.616509184371816 Q 8.427485014569381 4.607101425167175 9.378846196411509 1.9471738928642175 L 9.145859806362706 1.5976940082710553 L 9.145859806362706 1.5976940082710553 Q 7.90326545510817 4.4323618251791155 9.41767741831105 7.752417990345988 Q 8.99053577453585 8.684363892849726 9.330307190431368 9.286245650075767 Q 9.670079376521057 9.888126722684765 9.747741050125965 10.412346207265987 L 9.883650198408658 10.509424219226272 Q 10.407869083949969 9.732803546629212 10.485531356594787 9.16975258341706 L 10.679686695898312 9.16975258341706 Q 10.699102264059515 9.616309110736422 10.93208856853119 10.101698485920798 L 11.067997716813883 11.32487637045426 L 10.737933400381925 12.276239381507548 L 9.048781837190987 12.276239381507548 L 9.048781837190987 12.742211648142375 L 13.922081273037408 12.742211648142375 L 13.922081273037408 12.276239381507548 L 13.51435451280637 12.276239381507548 L 13.825003261077125 11.32487637045426 L 13.84441900039259 10.606502231186555 Q 14.19389820036871 10.490008479910806 14.368638484973811 10.33468393462117 Q 14.621040357606692 10.567671437172667 14.931688078951879 10.567671437172667 Q 14.912273708870499 10.76182609185915 15.009351720830782 10.89773421321628 Q 15.785971708810798 11.499616655059363 17.78577231979245 11.946173182378724 L 18.465315665046262 13.266429763489512 Q 18.465315665046262 12.942390932799807 18.666445882775246 12.942390932799807 Q 18.73044046079052 12.942390932799807 18.81479623425647 12.97519504299162 L 18.27116032574274 12.00442040032512 L 18.27116032574274 12.00442040032512 Q 19.39726088293296 12.256823642192083 19.97972758546058 12.645134320799134 Q 20.290376676039852 12.97519504299162 19.94089679144669 13.44116867886053 Q 20.71751746404375 13.11110658743396 20.814596160621075 12.509224145590878 Q 20.503945700807716 9.577479001339576 15.552985575493386 8.431961335599805 L 15.203506375517266 9.014428722744466 L 14.892857284937993 9.014428722744466 Q 14.640456096922156 8.198975202282393 12.893057700881908 7.88832679632016 Q 13.283009064230479 7.599008318923254 13.852256838599681 7.599008318923254 Q 14.161630487629424 7.599008318923254 14.523962345646407 7.684463587358902 Q 14.891470935427632 7.771140212597752 15.241644337084495 7.771140212597752 Q 15.87195550160299 7.771140212597752 16.446100683983236 7.490308248055377 Q 17.339214423239 7.053458905776705 20.989335075992095 2.665548716748965 Q 20.31660024722249 1.8173165880798985 19.56675152405883 1.8173165880798985 Q 19.321111613951302 1.8173165880798985 19.067196737655266 1.9083427565418083 L 14.349222745658347 5.286645797346556 L 14.349222745658347 0.025035944973045218 Q 14.173971736739798 0.0 14.014203342229544 0.0 Z"
     style="fill:#ffffff;stroke:none"
     id="path6" />
  <path
     d="M 14.787816725437374 15.285542133461169 C 15.549371373096287 15.285542133461169 16.502609207919512 15.676756272943992 16.963869255453197 16.13801632047768 C 17.367423959429352 16.541570682145313 17.42018123331472 17.07660848522664 17.434973411436005 17.573762319663377 L 12.163093570676018 17.573762319663377 C 12.177885919951562 17.07660848522664 12.230643193836931 16.541570682145313 12.634197726658826 16.13801632047768 C 13.095457945346773 15.676756272943992 14.02626242008698 15.285542133461169 14.787816725437374 15.285542133461169 ZM 14.787816725437374 14.859305039952915 C 13.884368520776045 14.859305039952915 12.912275476840618 15.276666758126694 12.34256182057423 15.846380414393082 C 11.758218113396996 16.430724336850286 11.69198941469321 17.200007968606588 11.69198941469321 17.775664100798863 L 11.69198941469321 17.99999941317163 L 17.883644036181536 17.99999941317163 L 17.883644036181536 17.775664100798863 C 17.883644036181536 17.200007968606588 17.839849083994995 16.430724336850286 17.25550516153779 15.846380414393082 C 16.685791847579925 15.276666758126694 15.691265101252963 14.859305039952915 14.787816725437374 14.859305039952915 Z"
     style="fill:#ffffff;stroke:none"
     id="path8" />
  <path
     d="M 34.11874830152436 2.9825034544503817 Q 34.735604689157014 2.9825034544503817 34.893405052163075 3.298104538516232 L 34.893405052163075 11.231167370417895 Q 33.760110592068806 9.968763034154492 33.1145633595455 9.624471463251709 L 34.11874830152436 2.9825034544503817 ZM 33.67212533440412 2.25 Q 33.6234966259556 2.25 33.57361866806463 2.2508827921207937 L 32.38294269721591 10.112217974715229 Q 33.01414414924017 10.49954688711517 33.57361866806463 11.00163917907774 L 32.15341414782203 14.831888097150209 L 30.489336013793945 15.750000862510827 L 32.75592547106307 15.750000862510827 L 34.24785781963977 11.690223753098204 Q 34.62084059348693 12.048861104500041 34.62084059348693 12.622681582850428 L 34.62084059348693 14.831888097150209 L 33.24367269863404 15.750000862510827 L 35.49591637540412 15.750000862510827 L 35.49591637540412 3.125958574037978 Q 35.20393036663988 2.25 33.67212533440412 2.25 Z"
     style="fill:#ffffff;stroke:none"
     id="path10" />
  <path
     d="M 39.76062681323458 4.553593152303819 C 39.55803068114285 4.651139438125763 39.31041318636407 4.921267614248069 39.685591208756165 4.96628897693512 C 39.865676659504366 4.958785416487278 40.278372484135666 4.771196405291232 40.20333687965725 4.59861451499087 L 40.20333687965725 4.59861451499087 C 40.164454752065616 4.635450154553867 40.12501457464453 4.648844953394093 40.085168397080814 4.648844953394093 C 39.97891222889821 4.648844953394093 39.86976940657115 4.553593152303819 39.76062681323458 4.553593152303819 ZM 38.28242551950498 4.621125196334395 C 38.0348080247262 4.681153679917131 37.90724749711289 4.9512818560394365 38.22239703592225 5.01131033962217 C 38.22753764348126 5.011777709216716 38.233042116932346 5.012004867784961 38.238870039453644 5.012004867784961 C 38.420191695373894 5.012004867784961 38.91464651432459 4.792071407549097 38.507532332940244 4.7411821634998645 C 38.440000288909665 4.696160800812814 38.37246824487909 4.621125196334395 38.28242551950498 4.621125196334395 ZM 40.25586180279214 2.737731409430849 C 40.69857186921481 3.2554770803319357 41.08875724149308 3.8557619161592824 41.1637928459715 4.546089591855977 C 41.238828450449915 5.041324581413538 41.26133913179344 5.536559570971099 41.33637473627186 6.024291000080819 C 40.98370739522329 5.994276758289452 41.08875724149308 5.446516845596998 41.156289285523656 5.183892229922533 C 41.21631776910639 4.666146559021446 40.93868603253624 4.1859186903595695 40.74359323190186 3.728201388545971 C 40.60852914384071 3.4805838937671902 40.4809686162274 3.090398750479415 40.13580483562667 3.0828951900315733 C 39.753123252786736 3.1504272340621498 39.505505758007956 3.4730803333193485 39.25788826322918 3.750712069889497 C 39.00276720800255 3.495591014662874 38.7326391463755 3.217959278092726 38.37997180532693 3.1129094318229407 C 38.36157951798531 3.1061333169211403 38.34081443116369 3.103478286659528 38.31901373484118 3.103478286659528 C 38.24005288984101 3.103478286659528 38.14750706939686 3.138308198501497 38.10491208996498 3.138308198501497 C 38.06810816558515 3.138308198501497 38.06859614432399 3.1123050686664477 38.147361431443834 3.015363146000997 C 38.19500782663802 2.847199398256807 38.293951068957526 2.797332539507548 38.41642823663487 2.797332539507548 C 38.59493319500603 2.797332539507548 38.823428266258865 2.9032586751432934 39.01596186915261 2.9032586751432934 C 39.04499511567547 2.9032586751432934 39.07321040816025 2.900849981403647 39.1003134938245 2.8953061788355274 C 39.16363188380842 2.8989591496620717 39.22714766359661 2.900833723078702 39.29070099782551 2.900833723078702 C 39.61878025578547 2.900833723078702 39.947852645510025 2.850877615285114 40.25586180279214 2.737731409430849 ZM 40.13580483562667 3.3080020034668283 C 40.428443693092504 3.383037607945247 40.49597573712308 3.7882298721287055 40.638543385632076 4.028343806459644 C 40.81862883638028 4.448543306034033 41.03623231835819 4.906260493352385 40.89366466984919 5.378984801566421 C 40.78111103414107 5.604091615001676 40.92367891164056 5.889226912019666 40.908671790744876 6.054305241872186 C 40.6584147225627 6.230161009239284 40.43864178466186 6.601114615031589 40.10646611578724 6.601114615031589 C 40.070130591459176 6.601114615031589 40.03244974798953 6.596675863331121 39.99323718711768 6.587057804678464 C 39.66308052741264 6.519525760647888 39.49800219756012 6.204376221838531 39.242881142333495 6.054305241872186 C 39.05816481686188 6.232424351264017 38.94884841974175 6.601943560613291 38.644670960365325 6.601943560613291 C 38.60287149390328 6.601943560613291 38.5573924937176 6.594965762335501 38.507532332940244 6.579554244230622 C 38.22990059637009 6.519525760647888 37.862226134425846 6.549540002439255 37.779686969499586 6.211879782286372 C 37.63711926374297 5.86671623067614 37.62211214284728 5.484034647836206 37.59960146150375 5.108856625444115 L 37.59960146150375 5.108856625444115 C 37.616124728448185 5.112034097513641 37.6313562600262 5.113543144857125 37.645405341950216 5.113543144857125 C 37.79723611384899 5.113543144857125 37.810972223017814 4.93730061254873 37.82470833218663 4.786203526186916 C 37.88297948548474 4.566566150657444 38.04032360421616 4.464745070327433 38.21516379875043 4.464745070327433 C 38.333007229323215 4.464745070327433 38.45879891987966 4.51100069176735 38.56756081652298 4.59861451499087 C 38.69512134413629 4.7411821634998645 39.08530637292882 4.853735570217492 39.00276720800255 5.078842383652747 C 38.965249405763345 5.2139064717139005 38.92022815757154 5.356474120222895 38.87520679488449 5.499041768731891 L 39.190356219198605 5.919241153811033 C 39.22037046098997 5.70163790082362 39.54302356024717 5.521552450075415 39.355434549051125 5.303949197088002 C 39.325420307259755 5.206402911266059 39.212866900542124 5.078842383652747 39.22787402143781 5.0038067791743295 C 39.36293810949896 4.763692844843391 39.54302356024717 4.553593152303819 39.753123252786736 4.373507701555615 C 39.80995205222221 4.31835030372259 39.86752575772874 4.296701313601148 39.92518029687902 4.296701313601148 C 40.12635394003331 4.296701313601148 40.32851567716137 4.560278987704077 40.50347929757092 4.5836073940951865 C 40.676061187871284 4.396018382899141 40.48847217667524 4.320982778420722 40.31589028637488 4.223436492598778 C 40.209001875443356 4.122656059560493 40.079740406454114 4.076565769255932 39.95087028221601 4.076565769255932 C 39.763106551274426 4.076565769255932 39.57617428480996 4.174408254279515 39.46048439532091 4.343493459764248 C 39.31789842757254 4.429044994615171 39.21866425283272 4.714014273526328 39.09358346325925 4.714014273526328 C 39.054105502406955 4.714014273526328 39.01205254347007 4.685626551200935 38.965249405763345 4.613621635886554 C 38.73624689157983 4.430419624539743 38.46160199249447 4.224396420742008 38.16121432576367 4.224396420742008 C 38.11711167293126 4.224396420742008 38.07245406164104 4.228837233356907 38.027304464278366 4.2384436134944625 C 37.81500216944211 4.28236834071445 37.62412708743562 4.711984043822637 37.60798497516543 4.711984043822637 C 37.60758195189919 4.711984043822637 37.60728781361198 4.711716353937275 37.6071050219516 4.711167921708498 C 37.59960146150375 4.358500580659931 37.7646798486039 4.043350927355329 37.862226134425846 3.698187146754604 C 37.91666753623743 3.471348134741233 38.11100266458081 3.3405145315279086 38.309236756786945 3.3405145315279086 C 38.438869762849755 3.3405145315279086 38.570170163181395 3.396463778482901 38.66510710234492 3.5181016960063998 C 38.88848343463075 3.6010701036102564 39.05214740470831 3.993456532499384 39.262293353327294 3.993456532499384 C 39.29921692523929 3.993456532499384 39.3375755805658 3.9813427064724283 39.377945230394644 3.9533082019812262 C 39.61055560427774 3.7056907072024456 39.79814461547379 3.413051849736614 40.13580483562667 3.3080020034668283 ZM 39.07029925203313 8.5154732977548 C 40.02325142890905 9.49843971642208 40.90116823029703 11.98962178510557 41.126275043732285 13.010106006012059 C 40.758600352797544 12.709963588098386 40.25586180279214 12.514871016454498 40.14330839607452 12.327282005258452 C 40.02325142890905 12.132189433614565 39.693094769204 10.233788640310578 39.07029925203313 8.5154732977548 ZM 42.46190880344813 6.729625453187459 C 44.262763310930175 7.765117252970617 47.39925112014708 12.860034797055222 48.067068000005 13.677922885869982 C 46.941533932828726 12.965084643325008 45.83100698654813 12.244742840332192 44.6229337544456 11.659465125400528 C 42.92712955121433 10.826569915690085 41.47894238478085 9.475929035078554 40.098287033387464 8.215330879841126 C 41.238828450449915 7.832649297001193 42.05671653926468 7.187342640505811 42.46190880344813 6.729625453187459 ZM 40.593522022945024 13.197695017208105 C 40.833635957275966 13.3402626657171 41.05123943925387 13.535355237360987 41.31386405492833 13.640405083630773 C 41.156289285523656 14.030590226918548 41.058742999701714 14.465796732893377 40.73608967145402 14.773442711254893 C 40.6754923754887 14.870924879739023 40.58899282000014 14.901801041742965 40.49023311356012 14.901801041742965 C 40.31954543261109 14.901801041742965 40.112235989218775 14.809571915149503 39.93873493108279 14.809571915149503 C 39.926717968034026 14.809571915149503 39.91486358823471 14.8100143247804 39.903194461743574 14.810960513494098 C 40.113294154283146 14.28571128214517 40.428443693092504 14.053100908262074 40.593522022945024 13.197695017208105 ZM 41.10376436238876 6.174361980047164 C 41.14917226102662 6.268421198654149 41.20719799376472 6.299391704740871 41.26875109604441 6.299391704740871 C 41.34959939517639 6.299391704740871 41.436534261590594 6.2459608952189045 41.50895662657222 6.211879782286372 C 41.68904207732042 6.339440309899683 42.311837594491294 6.324433189004 41.94416313254705 6.594561365126306 C 41.71155275866395 6.909710903935663 40.4683727652144 7.769121838697908 39.60489083748213 7.92070438490315 C 39.23206935624509 7.986152157473879 39.85817309905652 8.575501781337536 40.06076923114826 8.785601473877106 C 41.23132489000207 9.836099936574964 42.37936963852187 10.946626882855554 43.7825354422683 11.70448648808758 C 44.660451556684805 12.199721477645141 45.58338949176935 12.64243154406781 46.43129182237548 13.190191456760264 C 46.83648408655894 13.775469171691926 47.31671195522082 14.315725523936537 47.62435793358233 14.961031722450938 C 47.31671195522082 15.051074447825037 47.01656953730715 15.17863497543835 46.701419998497784 15.253670579916767 C 46.53515275000986 15.295737965254663 46.35498028287462 15.315344131195342 46.174467077887016 15.315344131195342 C 45.67882265332943 15.315344131195342 45.180607123525625 15.167531684453397 44.96059397459848 14.931017480659568 C 44.55540171041502 14.503314535132583 44.11269210197334 12.67994934630702 43.88008172809024 12.012132466449096 C 43.84692207289825 11.936970459218992 43.800085273589175 11.911957369776895 43.74916557380448 11.911957369776895 C 43.64782354158412 11.911957369776895 43.530308368881876 12.011034228048587 43.47225057747487 12.011034228048587 C 43.46046397886124 12.011034228048587 43.45112757851397 12.006950869591986 43.444875222115414 11.997125345553412 C 43.42979528224322 11.812395967623743 43.287807895641414 11.714797471969582 43.15500119585219 11.714797471969582 C 43.02347730080019 11.714797471969582 42.90095822786277 11.810519161549815 42.919625990766484 12.012132466449096 C 42.87460462807944 12.48485677466313 42.784561902705335 12.957581082877166 42.55945508927008 13.38528402840415 C 42.53187272650569 13.458180861685584 42.47428619753159 13.486071903633434 42.39837722331599 13.486071903633434 C 42.18518295326506 13.486071903633434 41.827460876092054 13.26606608240204 41.58399223105064 13.205198577655947 C 41.681538516872585 12.627424423172126 40.89366466984919 9.67102160672244 38.58256793741866 7.194846200953653 C 38.50182863776096 7.107378702654637 38.1496002714859 6.7363559417336925 38.18046097663162 6.7363559417336925 C 38.184016969984725 6.7363559417336925 38.19265941464544 6.7412819852015256 38.20738991502657 6.752136134530985 C 38.32566144332449 6.78298939748571 38.45890998026837 6.804151782811264 38.59083403620547 6.804151782811264 C 38.8439176485279 6.804151782811264 39.09212708372897 6.7262689105530455 39.22037046098997 6.489511518856521 C 39.23989785420134 6.430929339222412 39.26436571728155 6.407990903639488 39.29285602734744 6.407990903639488 C 39.39573756264675 6.407990903639488 39.551069599170994 6.7071147718439335 39.71560545054753 6.7071147718439335 C 39.83494613545345 6.786675228447882 39.96827493356484 6.823196006084127 40.10092294294298 6.823196006084127 C 40.31856604027603 6.823196006084127 40.53437698468113 6.724879854227465 40.68356474831913 6.557043562887097 C 40.82613239682812 6.429483035273786 40.961196713879765 6.301922507660475 41.10376436238876 6.174361980047164 ZM 40.32339384682272 2.25 C 40.08760668784157 2.354794316137357 39.674592566426135 2.4595886376416782 39.30392038994872 2.4595886376416782 C 39.24993427848321 2.4595886376416782 39.19684626772804 2.4573657267507203 39.14533485651155 2.4525961410366706 C 39.11016191691229 2.458927270164537 39.074461383219045 2.461697139157979 39.03836927578416 2.461697139157979 C 38.78572463823525 2.461697139157979 38.51389277285111 2.3259735584793395 38.26952877498526 2.3259735584793395 C 38.17643772817922 2.3259735584793395 38.0873329478611 2.3456704046549244 38.00479378293484 2.400071217901778 C 37.592097901055915 3.000356025105313 37.21691990728763 3.668172904963236 37.17189854460058 4.411025503794824 C 37.08935937967432 5.836701988884773 37.126877181913535 6.331936749451842 38.25241127771362 7.502492179315168 C 38.69512134413629 8.507969737306958 39.520512878903645 11.78702565301384 39.768130373682425 12.67994934630702 C 40.03825854980473 12.935070401533642 39.43047015352954 14.330732644832224 39.17534909830292 14.675896425432946 C 39.036533230017845 14.867237216852915 38.6707347726808 14.876616667412716 38.27773579422509 14.876616667412716 C 38.23501841937513 14.876616667412716 38.19197988535989 14.876505836014498 38.14887643254011 14.876505836014498 C 37.795428119417956 14.876505836014498 37.437622432091494 14.883957186630123 37.21691990728763 15.02106020603367 C 37.006820215642556 15.156124294094823 36.931784610269645 15.658862844100229 37.05184157743511 15.726394888130805 C 37.16439498415274 15.553812997830441 37.389501797588 15.321202623947343 37.54707653836886 15.298691942603819 L 37.54707653836886 15.298691942603819 C 37.39700535803584 15.4562667120085 37.92225461800858 15.381231107530079 38.0348080247262 15.41874890976929 C 38.33832667845662 15.423807767722588 38.645255573091866 15.449328300095363 38.953295644090424 15.449328300095363 C 39.10217610248792 15.449328300095363 39.25131600711304 15.443367219602862 39.40045591173817 15.426252470217129 C 39.46800009226484 15.39670170518194 39.54029422257084 15.350526230414289 39.57190796295011 15.350526230414289 C 39.59648642843804 15.350526230414289 39.596475894875404 15.378436507563482 39.55052712069501 15.463770272456339 C 39.762935495376766 15.519181391754703 40.001628772694204 15.546886493422901 40.234911920643334 15.546886493422901 C 40.759799347014614 15.546886493422901 41.25729882354937 15.406627985037074 41.36638897806323 15.126110052303456 C 41.59149579149848 14.713414227672155 41.80159548403805 14.278207721697331 41.95166669299489 13.827994094826819 C 42.14319479863746 13.86862158794987 42.38410470391923 14.00352171881862 42.57716979374533 14.00352171881862 C 42.63370937818917 14.00352171881862 42.68614591099408 13.991952203191582 42.73203697957044 13.963058182887972 C 42.94213667211001 13.820490534378978 43.159739925097426 13.152673654521054 43.279796892262894 12.709963588098386 C 43.2912972527613 12.663963062066763 43.35371502313946 12.641463372266863 43.41702631441812 12.641463372266863 C 43.4776423876038 12.641463372266863 43.539077788770506 12.662088087916771 43.557428628833044 12.702460027650543 C 43.7825354422683 13.152673654521054 44.15771346466039 14.533328776923954 44.51788390817581 15.111102931407773 C 44.78956555579708 15.539346294496308 45.44838768912207 15.750000144026963 46.14925339277377 15.750000144026963 C 46.59046128156772 15.750000144026963 47.04833051857288 15.666519370196848 47.436768922386285 15.501288074695548 C 47.92450035149601 15.291188382155976 48.28467125299241 15.33620974484303 48.17962140672263 15.06608156872072 C 48.01454307687011 14.615867941850212 47.72940777985212 14.188164996323227 47.42926536193845 13.805483413483294 L 47.42926536193845 13.805483413483294 C 47.86447186791327 14.0756115896056 48.2996783738881 14.353243326175747 48.734884879862925 14.623371502298053 C 48.770782345379445 14.7541415606498 48.86100459929942 14.806051873303671 48.9531540372016 14.806051873303671 C 49.13066838270358 14.806051873303671 49.31533272733347 14.613414079735982 49.13257358359854 14.420775370206323 C 47.42926536193845 11.959607543314203 44.720480040267546 7.765117252970617 42.84459038628807 6.40697235393026 C 42.54444796837439 6.144347738255796 42.19178062732583 5.941751835154559 41.80159548403805 5.8442055493326155 C 41.67403495642474 5.514048889627574 41.71155275866395 5.071338823204906 41.63651715418553 4.696160800812814 C 41.56148154970711 3.9533082019812262 41.1112679228366 2.722724288535165 40.32339384682272 2.25 Z"
     style="fill:#ffffff;stroke:none"
     id="path12" />
  <path
     d="M 57.60875955395943 2.773925897754877 Q 58.55790067636019 3.3358174041989237 58.55790067636019 4.45960059812132 L 56.6672113722622 4.45960059812132 Q 56.6672113722622 3.3358174041989237 57.60875955395943 2.773925897754877 ZM 58.55790067636019 4.98352636010047 Q 58.34529326770084 5.7352463173175465 57.60875955395943 5.7352463173175465 Q 56.87222584021802 5.7352463173175465 56.68239761573787 4.98352636010047 ZM 64.00976751515407 6.297137687985867 L 64.00976751515407 7.193127139256092 L 51.215344850278356 7.193127139256092 L 51.215344850278356 6.297137687985867 ZM 57.60875955395943 2.25 Q 56.15847167272442 2.7967053082269544 56.15847167272442 4.5962767894023315 Q 56.15847167272442 5.2796584699446 56.45460396360285 5.7352463173175465 L 50.706605195999146 5.7352463173175465 L 50.706605195999146 7.71705272020094 L 64.51091391191972 7.71705272020094 L 64.51091391191972 5.7352463173175465 L 58.785694690563815 5.7352463173175465 Q 59.08182625730504 5.2796584699446 59.08182625730504 4.5962767894023315 Q 59.08182625730504 2.7967053082269544 57.60875955395943 2.25 Z"
     style="fill:#ffffff;stroke:none"
     id="path14" />
  <path
     d="M 53.98114206828177 12.878848920576274 C 54.78665817874527 12.878848920576274 55.794922569769454 13.292646266522837 56.282809290103614 13.780532986856997 C 56.709659571308535 14.207382905993313 56.76546230876072 14.773306272640582 56.781108379364014 15.299158782698214 L 51.204904285259545 15.299158782698214 C 51.22055053689714 14.773306272640582 51.276353274349326 14.207382905993313 51.703203374519944 13.780532986856997 C 52.191090275888406 13.292646266522837 53.175626319886874 12.878848920576274 53.98114206828177 12.878848920576274 ZM 53.98114206828177 12.428006887435913 C 53.02554146094365 12.428006887435913 51.99733342601587 12.869461205800576 51.3947325097397 13.47206212207675 C 50.776657009017335 14.090137850506324 50.706605195999146 14.903829107989282 50.706605195999146 15.512715535238385 L 50.706605195999146 15.750000815838575 L 57.255678940564394 15.750000815838575 L 57.255678940564394 15.512715535238385 C 57.255678940564394 14.903829107989282 57.209355883313435 14.090137850506324 56.59128015488386 13.47206212207675 C 55.98867960067629 12.869461205800576 54.93674285665419 12.428006887435913 53.98114206828177 12.428006887435913 Z"
     style="fill:#ffffff;stroke:none"
     id="path16" />
  <path
     d="M 64.03634304087609 9.960240016691387 L 63.98888598475605 15.227973246015608 L 61.21264820173383 15.275430302135646 L 61.18891967367381 9.983968544751406 L 64.03634304087609 9.960240016691387 ZM 64.51091360207647 9.509397983551025 L 60.73807764053345 9.533126511611044 L 60.761806168593466 15.750000863336027 L 64.43972801789641 15.67881527915597 L 64.51091360207647 9.509397983551025 Z"
     style="fill:#ffffff;stroke:none"
     id="path18" />
  <path
     d="M 30.489336013793945 0.375 C 20.86433607339859 0.375 20.86433607339859 17.625 30.489336013793945 17.625 "
     style="fill:none;stroke:#ffffff;stroke-width:1"
     id="path20" />
  <path
     d="M 30.489336013793945 0.375 L 64.51091575622559 0.375 "
     style="fill:none;stroke:#ffffff;stroke-width:1"
     id="path22" />
  <path
     d="M 30.489336013793945 17.625 L 64.51091575622559 17.625 "
     style="fill:none;stroke:#ffffff;stroke-width:1"
     id="path24" />
  <path
     d="M 72.19841575622559 0.375 L 72.19841575622559 17.625 "
     style="fill:none;stroke:#ffffff;stroke-width:1"
     id="path26" />
  <path
     d="M 64.51091575622559 0.375 C 74.13591766357422 0.375 74.13591766357422 17.625 64.51091575622559 17.625 "
     style="fill:none;stroke:#ffffff;stroke-width:1"
     id="path28" />
</svg>
