<?xml version="1.0" encoding="UTF-8" standalone="no"?>
<svg
   width="69.14111328125"
   height="18.0"
   version="1.1"
   id="svg24"
   sodipodi:docname="imyremeshaw.svg"
   inkscape:version="1.1.1 (3bf5ae0d25, 2021-09-20)"
   xmlns:inkscape="http://www.inkscape.org/namespaces/inkscape"
   xmlns:sodipodi="http://sodipodi.sourceforge.net/DTD/sodipodi-0.dtd"
   xmlns="http://www.w3.org/2000/svg"
   xmlns:svg="http://www.w3.org/2000/svg">
  <defs
     id="defs28" />
  <sodipodi:namedview
     id="namedview26"
     pagecolor="#ffffff"
     bordercolor="#666666"
     borderopacity="1.0"
     inkscape:pageshadow="2"
     inkscape:pageopacity="0.0"
     inkscape:pagecheckerboard="0"
     showgrid="false"
     inkscape:zoom="19.886865"
     inkscape:cx="34.570557"
     inkscape:cy="8.9757736"
     inkscape:window-width="1920"
     inkscape:window-height="1001"
     inkscape:window-x="-9"
     inkscape:window-y="-9"
     inkscape:window-maximized="1"
     inkscape:current-layer="svg24" />
  <path
     d="M 9.619241759901131 8.704017150225534 C 9.956114020057063 8.704017150225534 10.371109904274771 8.76399089929749 10.864229412554256 8.883939352346172 C 11.905261819800385 9.137163864337834 12.8056128816014 9.495897714329981 13.565284507766846 9.960140902322616 C 14.32495613393229 10.42438504522002 15.176070395910864 11.008207138114807 16.1186263387978 11.711606226102205 C 15.211383729261659 12.170969850713034 14.168207560803758 12.400651185566062 12.989095923614554 12.400651185566062 C 12.723796640788658 12.400651185566062 12.45161535927535 12.38902331016484 12.172553033979401 12.365768514267165 C 10.653210736553286 12.239155780818948 9.3484030744964 11.792497164191472 8.258132912523058 11.025791709479964 C 7.167863705454489 10.259086254768457 6.897054622097669 9.78780828332499 7.445706139904986 9.61195779514956 C 7.994358612617073 9.436108261878905 8.441018184149321 9.207503104703234 8.78568342214457 8.92614327852732 C 8.967086681565636 8.778059511294387 9.244939142516232 8.704017150225534 9.619241759901131 8.704017150225534 ZM 16.87829701005847 11.880422885731571 L 17.743478929129175 12.070340076094354 C 17.743478929129175 12.295428318996994 17.539492171864723 12.478311680813713 17.131522476954906 12.618992071354056 C 16.899402315315747 12.634818663035082 16.657389340244983 12.642731958875595 16.405485461552153 12.642731958875595 C 15.985642480714866 12.642731958875595 15.538322115080815 12.620750051038186 15.063526274459544 12.576788145172907 C 15.977946903162229 12.464244023721587 16.582870481695206 12.232122907177656 16.87829701005847 11.880422885731571 ZM 18.207723072026578 12.196952809542571 L 18.73527358164809 12.302462147543055 C 18.791544210016596 12.471278807172421 18.594593191107748 12.640094511897015 18.144416705302472 12.808910216621609 L 17.532460253128203 12.76670629044046 C 17.968567172031815 12.569755271531616 18.193655414934454 12.379837126264063 18.207723072026578 12.196952809542571 ZM 19.009598624373172 12.407972440448313 L 19.36833342927009 12.49238029281061 C 19.283925576907794 12.731536192805375 19.030702019820904 12.851114142802757 18.608660848199875 12.851114142802757 C 18.847816748194642 12.696366095170289 18.98146331018892 12.548652830988656 19.009598624373172 12.407972440448313 ZM 19.600455500718795 12.618992071354056 C 19.938086910167982 12.71746853571325 20.163175153070622 12.87925041189178 20.27571831961717 13.10433865479442 L 19.326128548184172 12.893318068983906 C 19.509013819810434 12.808910216621609 19.600455500718795 12.71746853571325 19.600455500718795 12.618992071354056 ZM 17.405847519679988 13.864010280959864 C 18.46094662911347 13.99062205950331 19.255788352914 14.28604954277135 19.790372691081576 14.750293685668755 L 17.173725448231284 14.138336278589716 C 17.20186267222508 13.983587276052475 17.279236696041313 13.892145595144116 17.405847519679988 13.864010280959864 ZM 5.187792747046841 0.40093762696942586 C 5.848988863757863 0.40093762696942586 6.3484031042903535 0.5838216154424017 6.686035468644312 0.9495895923883535 C 7.0236668780935005 1.3153575693343054 7.129177170998758 2.198124417859453 7.0025653924553115 3.5978901976453446 C 6.875952659007095 4.997655977431236 6.8337487328259465 5.947245271411848 6.875953136459481 6.446659034491953 C 6.918156585188243 6.946073275024443 7.048285755457107 7.315357867835686 7.266340169813683 7.554513290378066 C 7.4843936292654885 7.793669667825216 7.748168406623859 8.029308176094565 8.05766402443641 8.261430247543267 C 8.367160119701346 8.49355231899197 8.212412072068878 8.70105503562468 7.5934203589913905 8.883939352346172 C 6.974429123366289 9.06682271416289 6.629762930466267 9.33763179751971 6.559423212648482 9.69636660241663 C 6.48908301737831 10.055099497504006 6.577008261466024 10.385698033311902 6.823197990006852 10.688160300030777 C 7.069388196000066 10.99062256674965 7.656726725715499 11.398594171469009 8.585214534057924 11.912075114188854 C 9.513701864947961 12.42555701181347 10.333162943564483 12.752637678443564 11.043595860097945 12.893318068983906 C 11.754030686440949 13.033998459524248 13.931053141209826 13.10433865479442 17.57466322440458 13.10433865479442 C 18.700104438917776 13.315358285700162 19.445707453086325 13.596718111876076 19.811474176719763 13.94841813332216 L 17.405847519679988 13.399766138062459 C 17.18076118658689 13.47010633333263 17.00490974350669 13.60375194042214 16.87829701005847 13.800703914235756 C 16.87829701005847 14.166472547678739 16.083455286257944 14.37749217858448 14.493772793561655 14.433763761857755 C 14.254616893566888 14.433763761857755 14.092834062483586 14.103166180954629 14.008427165026061 13.441970064243609 L 13.755202653034399 13.652989695149351 C 13.881814431577844 14.187574033316928 13.91698452921293 14.658852004760394 13.860712945939655 15.066823609479753 C 13.663760972126038 14.588511809490223 13.319094779226017 14.271981885679224 12.826715322144361 14.117233838046756 C 12.038906471985122 13.976553447506413 11.335507383997724 13.846424754689936 10.71651519346785 13.726846804692553 C 10.097523002937978 13.607269809599941 9.471497938766813 13.350529338240019 8.838438091144814 12.956624435708015 C 8.275718438792987 12.520516561899633 7.371849507814169 12.049238590456165 6.126831775660745 11.542790521377611 C 4.881814043507322 11.03634340720383 4.259305416156803 10.283705609584448 4.259305416156803 9.284877128519467 C 4.259305416156803 8.286049602359258 4.593420388785345 7.459554695196674 5.261649856590044 6.805393361936487 C 5.929879801847128 6.151231551223914 6.2639942970232845 5.366941047694864 6.2639942970232845 4.452521373896952 C 6.2639942970232845 4.002345365544058 6.207722713750011 3.5767882345547704 6.095179069751077 3.175850219655281 C 5.993352799453844 2.8130966980279646 5.689997219321334 2.6317199372143065 5.185112329353548 2.6317199372143065 C 5.131966626849421 2.6317199372143065 5.076588356989783 2.6337295343056977 5.0189770423222475 2.6377489672146734 L 3.2464102329044677 2.869871038663376 C 3.3026820549039346 2.6869874381204633 3.387089668540039 2.5181714946696765 3.4996335512651657 2.363423447037208 C 3.6403134643531225 1.9273154538657298 3.795061511985591 1.6740914193264531 3.9638776941625706 1.6037515821455712 C 3.9884963327999836 1.6899181303705768 4.083125485835245 1.733001523846176 4.247764437089777 1.733001523846176 C 4.271284696513898 1.733001523846176 4.296233016023633 1.732122295277918 4.32261082797614 1.7303637187783059 C 4.603971609056825 1.7162955842337946 4.765753485235356 1.5756155517827413 4.8079574114165045 1.308323860151339 C 4.7798216197798675 1.0410321685199366 4.6180397436013365 0.9003521360688832 4.32261082797614 0.8862840612059201 C 4.069387270889249 0.9003521360688832 3.9287073578012923 1.0410321685199366 3.9005710887122693 1.308323860151339 C 3.6754838007144013 1.5193437297832741 3.4996337899913588 1.765533697050295 3.373021295269335 2.046893523226209 C 3.3320964640294637 2.0673559388461444 3.2921017100369276 2.0775870272930157 3.2530370332917253 2.0775870272930157 C 3.1846734908983327 2.0775870272930157 3.119158190711805 2.046253737029377 3.0564913714583355 1.9835869177759076 C 3.225307553635315 1.6459552696005268 3.471497998354722 1.2977725205167625 3.7950622281641695 0.9390390286139039 C 4.118625980521232 0.5803047608509185 4.582869168513866 0.40093762696942586 5.187792747046841 0.40093762696942586 ZM 9.977946007845366 14.159437764227905 L 10.653208826743741 14.328253468952498 L 9.89353815548307 15.425557459471902 L 9.977946007845366 14.159437764227905 ZM 11.286269629270512 14.391559835676606 C 11.84898928162234 14.391559835676606 12.32378416733884 14.451348333222912 12.71065428642001 14.570927238125066 C 13.09752440550118 14.690504233217677 13.336679350591174 15.144197633295988 13.428121986404305 15.932005528550455 C 13.517959427296729 16.705992132143816 13.400721948894024 17.092986388845265 13.07640859629142 17.092986388845265 C 13.070618053757709 17.092986388845265 13.064760667889999 17.092862251224986 13.058837393593063 17.09261588579397 L 11.03304511727885 17.09261588579397 C 10.988356528882543 17.089306185856326 10.942987093384234 17.087650380982737 10.896935855879153 17.087650380982737 C 10.551564943257846 17.087650380982737 10.167861288398607 17.180747866764687 9.745823936396663 17.366940928519046 C 9.858368057847983 16.382182014355735 10.3718499554726 15.390387361836815 11.286269629270512 14.391559835676606 ZM 5.187792747046841 0.0 C 4.231169147067781 0.0 3.443361967991892 0.5345838607151904 2.8243702549144043 1.6037515821455712 C 2.613350385282469 1.9554513648654634 1.9873244855696295 2.3071511475853557 0.946292317049693 2.6588511690314407 C 0.22882448278191372 2.869871038663376 -0.08067132899566878 3.165298999383801 0.017804894772284054 3.545135051192716 L 0.03890708726380924 3.798358369553414 C 1.3753664816751086 3.6717465910099687 2.493771957832701 3.5099647148314377 3.3941234970861016 3.3130129797440135 L 5.040079482865207 3.0175852577497815 C 5.048381902400062 3.0173546482474904 5.056615568791377 3.017239343496345 5.064780004586766 3.017239343496345 C 5.5546451974053515 3.017239343496345 5.796118651280282 3.432360558965298 5.789199888759171 4.2626027511770115 C 5.782166060213108 5.106682229704753 5.4269491244939925 5.862836941597166 4.723549559054208 6.5310668868542505 C 4.020149993614424 7.199296832111335 3.661415904896083 8.166471652361876 3.6473477703515713 9.432591347605873 C 3.6473477703515713 10.459556097759878 4.136210551886389 11.19460836910933 5.11393659240841 11.637750071463774 C 6.09166167802566 12.08089177381822 7.037734535185626 12.555685704629948 7.952154686435924 13.062133773708501 C 8.866573405329065 13.568581842787054 9.387089131499744 13.962486745319058 9.513701864947961 14.243845616590201 C 9.44336166967779 15.735053554736838 9.26047830786107 16.698711938166735 8.96504986968826 17.134818857070343 C 8.472670412606604 17.134818857070343 7.614522322081965 17.064478661800173 6.390606553019116 16.92379827125983 C 6.01077121738878 16.980070809437876 5.75051335430344 17.10316567370829 5.609832486310712 17.293084773880615 C 5.469153528127526 17.48300387405294 5.497289319764163 17.69050468087611 5.69424129357778 17.91559292377875 C 5.7882960713930505 17.77973671214347 5.878469161312617 17.711806696516287 5.9647610407888685 17.711806696516287 C 5.99463093949035 17.711806696516287 6.024035799568166 17.719946304787623 6.052975621022314 17.73622552133029 C 6.165519265021248 17.799531888054396 6.446879091197162 17.831185071416453 6.897054144645284 17.831185071416453 L 8.96504986968826 17.831185071416453 C 9.066651737364214 17.811645809984256 9.162826881224358 17.801877134172933 9.253573391459145 17.801877134172933 C 9.489516991802953 17.801877134172933 9.68877028611562 17.867918348162302 9.851334229301921 18.000000776141047 C 10.048286203115538 17.98593311904892 10.21710095293536 17.929660580870873 10.357781343475702 17.831185071416453 C 10.978782653644581 17.849272877596132 11.498366392758383 17.8583158257812 11.916529696102794 17.8583158257812 C 12.474082358736627 17.8583158257812 12.85133372205558 17.842239049050068 13.048285695869197 17.810083585778262 C 13.39295188876922 17.753811047600216 13.705964898307187 17.704574247777778 13.987324724483102 17.662369366691856 L 14.704792424467398 17.89449143814056 C 14.713104870502352 17.89513122433739 14.721098378343662 17.895450162531034 14.728771038181785 17.895450162531034 C 14.889915037973028 17.895450162531034 14.91005779922074 17.754450833797048 14.789201231734465 17.47245026651953 C 14.170209041204592 17.134818857070343 14.02952865066425 16.28370459509177 14.367161015018208 14.919109390393348 L 14.367161015018208 14.919109390393348 C 14.486100133723532 14.921667580275903 14.601202445057407 14.922946197764796 14.712467949019834 14.922946197764796 C 15.825117259215483 14.922946197764796 16.55409538131412 14.795054846827687 16.899400405506203 14.539274054763013 C 18.306200491290543 14.792496656945131 19.452741281632388 15.03868734039073 20.33902468634128 15.277843240385495 L 20.486738905427682 15.024620638203377 C 20.1209702719847 14.616648078579246 19.84664522925962 14.356389738041521 19.6637618674429 14.243845616590201 L 19.6637618674429 14.243845616590201 L 20.59224824342817 14.433763761857755 C 20.74230770863311 14.490035345131028 20.8462548224276 14.518171614220051 20.90408958481164 14.518171614220051 C 21.01975910957972 14.518171614220051 20.95098304832509 14.405627492768732 20.697759491238198 14.180540204770864 C 20.641486953060152 14.025792157138396 20.23351534834079 13.723330845324293 19.473842767270575 13.273154359519014 L 19.473842767270575 13.273154359519014 L 20.761063948152763 13.526377916605906 C 20.901744338693106 12.62602685480489 19.924019253075855 11.985932223732057 17.827886781491472 11.606096888101721 C 16.73058279097207 11.352873331014829 15.738790048262691 10.86049196412363 14.852506643553802 10.12895660704721 C 13.684862457764227 9.101993766702748 11.91932947689251 8.349355969083367 9.55590579112911 7.871043214189065 C 8.303853752977238 7.786635839279153 7.607488493535902 7.4032831119233995 7.466808580447945 6.72098550957419 C 7.326128667359988 6.038687429772594 7.32964558163302 4.95193465952467 7.477359800719425 3.4607274375566117 C 7.625073542353445 1.969519857499264 7.417570825720734 0.9988280632941434 6.854850695916521 0.5486519952597018 C 6.43281095665265 0.1828839884729759 5.877125132846886 0.0 5.187792747046841 0.0 Z"
     style="fill:#ffffff;stroke:none"
     id="path2" />
  <path
     d="M 27.177865186478382 7.937876256002994 C 26.496671245133623 7.991654064440127 26.120222241250442 8.332250793733436 26.04851793344977 8.959665719745715 C 26.138148499234912 9.640860143848613 26.514597503118093 9.999383372505463 27.177865186478382 10.035235888474404 C 27.84113286983867 9.999383372505463 28.190692728124215 9.640860143848613 28.226544278576878 8.959665719745715 C 28.172766470139745 8.332250793733436 27.8232066118542 7.991654064440127 27.177865186478382 7.937876256002994 ZM 27.25853214051315 5.679180301671352 C 27.742538692303153 5.679180301671352 28.190693210882355 5.768811229525099 28.602994730734476 5.948073085232593 C 29.01529576782846 6.127334940940088 29.378299957533752 6.373819539952137 29.692007299850356 6.687527123647811 C 30.0057151249251 7.001234707343485 30.252199844626684 7.3597576946212655 30.43146145895511 7.763095602723013 C 30.610722590525395 8.16643375220383 30.700352914931468 8.592179844854769 30.700352914931468 9.040334122054901 C 30.700352914931468 9.506413933102294 30.610722590525395 9.941123154745469 30.43146145895511 10.344461786984425 C 30.252199844626684 10.747799936465242 30.0057151249251 11.101841721315509 29.692007299850356 11.406586176018948 C 29.378299957533752 11.711330630722387 29.01529576782846 11.948851980052666 28.602994730734476 12.119151189526065 C 28.190693210882355 12.289449433483185 27.742538692303153 12.374598314082675 27.25853214051315 12.374598314082675 C 26.774526312860356 12.374598314082675 26.32189131599085 12.289449433483185 25.900626908525563 12.119151189526065 C 25.479361776923067 11.948851980052666 25.116357104459635 11.711330630722387 24.8116130118248 11.406586176018948 C 24.506868074363222 11.101841721315509 24.264865160536825 10.747799936465242 24.085604149656074 10.344461786984425 C 23.906342354293347 9.941123154745469 23.8167114264396 9.506413933102294 23.8167114264396 9.040334122054901 C 23.8167114264396 8.592179844854769 23.906342354293347 8.16643375220383 24.085604149656074 7.763095602723013 C 24.264865160536825 7.3597576946212655 24.506868074363222 7.001234707343485 24.8116130118248 6.687527123647811 C 25.116357104459635 6.373819539952137 25.479361776923067 6.127334940940088 25.900626908525563 5.948073085232593 C 26.32189131599085 5.768811229525099 26.774526312860356 5.679180301671352 27.25853214051315 5.679180301671352 ZM 27.204754814834157 4.764946937561035 C 26.61319119789547 4.764946937561035 26.057480338304796 4.876985476688684 25.53762175330399 5.101062554943983 C 25.017763409682257 5.325139663371665 24.569609615240264 5.629884118075104 24.193160490667548 6.015295949226683 C 23.8167114264396 6.400708564860238 23.516448355197976 6.848862238612696 23.292371276942678 7.359757211863126 C 23.068294998255546 7.870652909250765 22.956256866455078 8.421882083655788 22.956256866455078 9.013444493699126 C 22.956256866455078 9.605007145121533 23.068294998255546 10.156236319526556 23.292371276942678 10.667132016914195 C 23.516448355197976 11.178027714301834 23.8167114264396 11.621700306316313 24.193160490667548 11.998149310199494 C 24.569609615240264 12.374598314082675 25.017763409682257 12.67486180773767 25.53762175330399 12.898938825648202 C 26.057480338304796 13.123014878042454 26.61319119789547 13.23505338699772 27.204754814834157 13.23505338699772 C 27.796317466256564 13.23505338699772 28.347546157903448 13.123014878042454 28.85844088977481 12.898938825648202 C 29.369336587162447 12.67486180773767 29.81749062298351 12.374598314082675 30.202903479996134 11.998149310199494 C 30.58831537149248 11.621700306316313 30.89305982619592 11.178027714301834 31.11713636134831 10.667132016914195 C 31.34121434477512 10.156236319526556 31.453252853730387 9.605007145121533 31.453252853730387 9.013444493699126 C 31.453252853730387 8.421882083655788 31.34121434477512 7.870652909250765 31.11713636134831 7.359757211863126 C 30.89305982619592 6.848862238612696 30.58831537149248 6.400708564860238 30.202903479996134 6.015295949226683 C 29.81749062298351 5.629884118075104 29.369336587162447 5.325139663371665 28.85844088977481 5.101062554943983 C 28.347546157903448 4.876985476688684 27.796317466256564 4.764946937561035 27.204754814834157 4.764946937561035 Z"
     style="fill:#ffffff;stroke:none"
     id="path4" />
  <path
     d="M 43.276444287339075 3.9234007553424233 C 43.12927223999525 3.9942613707301877 42.9493952932417 4.190490767188612 43.22193612165618 4.223195666598349 C 43.352755719295125 4.21774485003006 43.652550630551055 4.081474435822821 43.59804246486816 3.956105654752161 L 43.59804246486816 3.956105654752161 C 43.56979729422416 3.9828641936923352 43.541146739059386 3.9925945866111006 43.51220125293222 3.9925945866111006 C 43.43501351172074 3.9925945866111006 43.35572881635705 3.9234007553424233 43.276444287339075 3.9234007553424233 ZM 42.20263350655889 3.9724581044570293 C 42.02275655980533 4.016064637003346 41.93009267814441 4.21229403346177 42.15902697401257 4.255900566008087 C 42.162761269091355 4.256240077623563 42.16675988751996 4.256405092578266 42.17099346927873 4.256405092578266 C 42.30271108428962 4.256405092578266 42.6618982379271 4.096638678046388 42.36615800360757 4.059671169549663 C 42.31710065449297 4.026966270139925 42.26804330537836 3.9724581044570293 42.20263350655889 3.9724581044570293 ZM 43.636198180846186 2.6043030626434867 C 43.95779635837527 2.9804094058554673 44.241238986272045 3.416474731318633 44.29574715195494 3.9179499387741337 C 44.35025531763784 4.2777038322812455 44.36660776734271 4.637457725788357 44.421115933025604 4.99176080272718 C 44.164927554315994 4.969957536454022 44.241238986272045 4.5720479269688825 44.29029633538666 4.381269347078748 C 44.33390286793297 4.005163003866767 44.13222265490626 3.6563107434962343 43.990501257785006 3.3238108496577103 C 43.892386559555796 3.1439339029041546 43.79972267789487 2.860491441353097 43.54898511575355 2.8550406247848072 C 43.27099347077078 2.9040979738994133 43.091116524017224 3.1384830863358646 42.91123957726367 3.3401632993625787 C 42.72591181394183 3.1548355360407334 42.529682500656264 2.9531553230140193 42.273494121946655 2.8768438910579652 C 42.260133400024394 2.8719215132571723 42.24504900374665 2.869992817801208 42.2292123089481 2.869992817801208 C 42.171852728097804 2.869992817801208 42.10462460420789 2.895294334575804 42.073682304052234 2.895294334575804 C 42.046946803994345 2.895294334575804 42.04730128672466 2.8764048631152206 42.10451880832967 2.805983275670201 C 42.139130611906 2.683823968930247 42.21100601936148 2.64759915248898 42.29997719237373 2.64759915248898 C 42.42964867185001 2.64759915248898 42.595634503351604 2.7245471479308345 42.7354968207009 2.7245471479308345 C 42.75658746190758 2.7245471479308345 42.77708391620074 2.722797398883664 42.79677242932959 2.718770210577568 C 42.84276885084187 2.7214238406833307 42.88890866236519 2.7227855883375103 42.93507575458667 2.7227855883375103 C 43.17340259521532 2.7227855883375103 43.41245087723365 2.6864959386516913 43.636198180846186 2.6043030626434867 ZM 43.54898511575355 3.018565121833494 C 43.76156696191684 3.0730732875163898 43.810624311031454 3.3674173822040268 43.914189825828956 3.5418435123892933 C 44.0450094234679 3.8470893233863697 44.20308327029402 4.1795891340520335 44.09951775549652 4.5229905778542765 C 44.01775534062645 4.686515074902964 44.121321021769674 4.893646104497967 44.1104193886331 5.013564069000338 C 43.92862497475971 5.141311094836526 43.76897516857788 5.410783177399814 43.52767256935577 5.410783177399814 C 43.5012773294691 5.410783177399814 43.47390480847468 5.407558731954266 43.44541960095605 5.400571879003177 C 43.20558367195131 5.35151452988857 43.08566570744894 5.122580234020409 42.900337944127095 5.013564069000338 C 42.76615433698312 5.142955255937631 42.68674355156331 5.411385348907908 42.46577971089137 5.411385348907908 C 42.43541529576861 5.411385348907908 42.40237795443652 5.4063164621138124 42.36615800360757 5.395121062434887 C 42.16447779058086 5.35151452988857 41.89738777873467 5.373317796161729 41.837428796483486 5.128031050588698 C 41.73386324009955 4.877293654793098 41.722961606962976 4.59930200981033 41.70660915725811 4.3267611813958515 L 41.70660915725811 4.3267611813958515 C 41.7186121654099 4.329069394613063 41.72967681735254 4.330165612910946 41.739882501581114 4.330165612910946 C 41.85017703346298 4.330165612910946 41.8601553646781 4.202137629152888 41.87013369589322 4.0923760689594 C 41.91246364979424 3.932824739444087 42.02676324600138 3.858858782146629 42.153772528567295 3.858858782146629 C 42.239377612753024 3.858858782146629 42.33075655689619 3.8924602849896885 42.409764536153894 3.956105654752161 C 42.50242841781481 4.059671169549663 42.78587079619301 4.141433418074007 42.72591181394183 4.304957915122693 C 42.698657731100376 4.403072613351906 42.6659529148635 4.506638128149408 42.633248015453766 4.610203642946909 L 42.86218222814907 4.9154493707711255 C 42.88398549442223 4.757375690290727 43.118370606858676 4.626556092651778 42.98210019265144 4.46848241217138 C 42.96029692637828 4.397621796783616 42.878534677853935 4.304957915122693 42.88943631099051 4.250449749439798 C 42.98755100921973 4.076023619254531 43.118370606858676 3.9234007553424233 43.27099347077078 3.7925811577034736 C 43.312275654565 3.7525131313229485 43.354098960987905 3.7367866405642003 43.39598098745013 3.7367866405642003 C 43.54211969517841 3.7367866405642003 43.688976184690496 3.9282575513429223 43.81607512759974 3.9452040216155817 C 43.9414439086704 3.8089336074083424 43.80517349446316 3.754425441725447 43.6798047133925 3.6835648263376823 C 43.60215769164681 3.6103548271668906 43.50825819397426 3.576873425934009 43.41464298113797 3.576873425934009 C 43.278245645146015 3.576873425934009 43.14245231046508 3.647949209511199 43.05841162460749 3.770777891430315 C 42.95483280215235 3.832925151634255 42.88274605245902 4.039935580581919 42.79188352860504 4.039935580581919 C 42.76320552639639 4.039935580581919 42.73265696656107 4.019313867961245 42.698657731100376 3.96700728788874 C 42.532303277482235 3.8339237249942233 42.33279279486044 3.6842621475978836 42.11458197586224 3.6842621475978836 C 42.08254445548302 3.6842621475978836 42.05010379625024 3.6874880901549156 42.01730574323704 3.6944664594742616 C 41.863082841426184 3.726374729228678 41.7244253245438 4.038460759424252 41.71269919884372 4.038460759424252 C 41.7124064303757 4.038460759424252 41.71219275929776 4.038266301277025 41.7120599738264 4.037867903276505 C 41.70660915725811 3.7816795245668944 41.82652716334691 3.552745145525872 41.89738777873467 3.302007583384552 C 41.93693568363372 3.137224764133386 42.07810668435238 3.0421832199169563 42.222110012067 3.0421832199169563 C 42.31627940567102 3.0421832199169563 42.41166004563862 3.082826469798859 42.48062515154166 3.1711879857456022 C 42.64289257398077 3.2314587830498045 42.76178310414067 3.5165003260117196 42.91443956988831 3.5165003260117196 C 42.94126198558514 3.5165003260117196 42.969126889912154 3.5077004710532513 42.998452642356305 3.4873353467063977 C 43.16742795597328 3.3074583999528415 43.30369837018052 3.094876553789548 43.54898511575355 3.018565121833494 ZM 42.77496916305643 6.8014320697450374 C 43.46722286722921 7.515489040190972 44.104968572064806 9.32516014086311 44.2684930691135 10.066471194150491 C 44.00140289092158 9.848438531418907 43.636198180846186 9.70671730064338 43.55443593232184 9.570446886436141 C 43.46722286722921 9.42872565566061 43.22738693822447 8.04966906388335 42.77496916305643 6.8014320697450374 ZM 45.23873841826904 5.504137393800678 C 46.546934394658535 6.25635041291608 48.82537538751214 9.9574548627847 49.310498062089906 10.551593868728263 C 48.49287557684647 10.033766294740754 47.686154724739616 9.510487904184956 46.808573257244994 9.085324211858367 C 45.576689045502995 8.480283572778227 44.524681447823106 7.499136590486103 43.5217310329121 6.583399407013455 C 44.35025531763784 6.305407762030686 44.9443943235814 5.836637204466342 45.23873841826904 5.504137393800678 ZM 43.88148492641921 10.20274160835773 C 44.05591105660448 10.306307123155232 44.2139849034306 10.448028353930761 44.404763483320735 10.524339785886815 C 44.29029633538666 10.807782247437872 44.21943571999889 11.123929608398669 43.985050441216714 11.347413087698541 C 43.94103070590076 11.418227126284574 43.878194774414084 11.440656517849572 43.80645269305356 11.440656517849572 C 43.68245992378261 11.440656517849572 43.5318639824744 11.373658450091071 43.40582748968178 11.373658450091071 C 43.39709799896307 11.373658450091071 43.38848661370589 11.373979830023016 43.38000980213658 11.374667170539988 C 43.532632666048684 10.993110010759718 43.76156696191684 10.824134697142743 43.88148492641921 10.20274160835773 ZM 44.25214061940863 5.100776967747251 C 44.28512631039451 5.169104470503731 44.32727798326962 5.191602396505562 44.37199204562281 5.191602396505562 C 44.43072273107406 5.191602396505562 44.49387488577535 5.152788616857365 44.546484714096266 5.128031050588698 C 44.67730431173521 5.2206949322496214 45.12972208690325 5.209793299113041 44.86263207505706 5.406022695571466 C 44.69365676144008 5.634956991439628 43.790572665194816 6.259259466875622 43.16331289554035 6.369373679996501 C 42.89248393093521 6.416916950363409 43.34730490272684 6.845038602291354 43.494476950070656 6.9976614662034615 C 44.34480450106955 7.760775785764002 45.178779436017855 8.567496637870859 46.198082134288 9.118029111268106 C 46.83582734008644 9.477783004775217 47.50627777798606 9.799381182304302 48.122220050202785 10.197290791789442 C 48.416564144890415 10.622454484116027 48.76541640526095 11.014913277032877 48.98889988456082 11.48368350190578 C 48.76541640526095 11.549093300725254 48.54738374252937 11.641757182386177 48.318449446661205 11.696265348069073 C 48.197667815178164 11.726824387684776 48.06678500616544 11.74106690827123 47.93565467472065 11.74106690827123 C 47.57560335506535 11.74106690827123 47.21368430566063 11.633691411092133 47.05386000281803 11.46188023563262 C 46.75951590813039 11.151183691240115 46.43791806329274 9.82663526514575 46.268942749675766 9.341512590567978 C 46.24485455858626 9.286912602047384 46.210830870304655 9.268742326309244 46.17384123782711 9.268742326309244 C 46.10022327577687 9.268742326309244 46.01485664818143 9.340714796492614 45.97268168690546 9.340714796492614 C 45.96411953998154 9.340714796492614 45.95733729226663 9.337748519605231 45.952795388714975 9.3306109574314 C 45.941840857639285 9.196417868581362 45.83869686289745 9.125519326369332 45.74222200078061 9.125519326369332 C 45.64667900738983 9.125519326369332 45.55767739311072 9.195054499056408 45.5712382289347 9.341512590567978 C 45.53853332952497 9.684914034370221 45.47312353070549 10.028315478172464 45.3095990336568 10.339012022564969 C 45.289562358935015 10.391966519218697 45.247729737151765 10.412227427971677 45.192587128891006 10.412227427971677 C 45.0377162689125 10.412227427971677 44.77785597476928 10.252408448192131 44.600992879779156 10.20819242492602 C 44.67185349516692 9.788479549167723 44.09951775549652 7.640857821261632 42.42066616929047 5.842088021034632 C 42.36201466440216 5.778548946187538 42.10614517043869 5.509026627216668 42.12856333366756 5.509026627216668 C 42.1311465163607 5.509026627216668 42.137424653369735 5.512605056355373 42.14812534087599 5.520489843505548 C 42.23404140838614 5.5429026004985005 42.33083723457062 5.558275606601255 42.42667091710792 5.558275606601255 C 42.6105186193819 5.558275606601255 42.790825569822864 5.501699098230061 42.88398549442223 5.329711263615413 C 42.89817079208084 5.287155370639571 42.915944998658546 5.270492187128868 42.93664123416199 5.270492187128868 C 43.01137753849093 5.270492187128868 43.12421549643875 5.48778494409581 43.24373938792934 5.48778494409581 C 43.33043212360835 5.545580101215149 43.42728625396785 5.572109914789681 43.52364583850041 5.572109914789681 C 43.68174846313617 5.572109914789681 43.838520155662465 5.500690045089703 43.94689472523869 5.378768612730019 C 44.050460240036195 5.286104731069096 44.148575104611126 5.193440849408173 44.25214061940863 5.100776967747251 ZM 43.68525552996079 2.25 C 43.51397250216377 2.326125807026499 43.21394637035639 2.402251617951726 42.944678726683556 2.402251617951726 C 42.90546155866322 2.402251617951726 42.866896798558564 2.4006368272668923 42.82947732873933 2.397172053841698 C 42.80392662607547 2.4017711803211923 42.777992662871654 2.4037832981559712 42.75177424848584 2.4037832981559712 C 42.568245430957994 2.4037832981559712 42.37077842233929 2.3051895242518117 42.19326491558214 2.3051895242518117 C 42.1256407225318 2.3051895242518117 42.06091227578336 2.319497917743572 42.00095329353217 2.3590163378636713 C 41.701158340689815 2.7950816425336216 41.428617533068554 3.2802043171113935 41.39591263365882 3.8198352405449216 C 41.33595365140763 4.85549038851994 41.36320773424908 5.215244115681331 42.18083024028573 6.065571500334505 C 42.50242841781481 6.795981253176748 43.10201815715381 9.17798809351929 43.28189510390736 9.82663526514575 C 43.47812450036579 10.011963028467596 43.036608358334334 11.025814910169457 42.85128059501248 11.276552472310776 C 42.75044048849913 11.41554829480216 42.484713263967876 11.422361815512522 42.199226746203706 11.422361815512522 C 42.168195534260455 11.422361815512522 42.13693102244425 11.422281304183814 42.10561935161629 11.422281304183814 C 41.84886365082703 11.422281304183814 41.58894261970262 11.427694193927838 41.428617533068554 11.527290034452097 C 41.27599466980623 11.625404732681309 41.22148650347355 11.99060944275671 41.30869956856618 12.039666791871317 C 41.390461817090525 11.914298010800657 41.553986314139216 11.745322697183678 41.66845344128008 11.728970247478811 L 41.66845344128008 11.728970247478811 C 41.5594371307075 11.843437395412892 41.94099431128099 11.788929229729996 42.02275655980533 11.816183312571445 C 42.24324182383949 11.819858222228017 42.46620439151572 11.838397120082718 42.68997415180052 11.838397120082718 C 42.798125485419874 11.838397120082718 42.90646528874053 11.834066808287497 43.014805092061174 11.821634129139733 C 43.06387125749897 11.8001675466048 43.11638793221642 11.766624264763907 43.13935312334704 11.766624264763907 C 43.15720767490774 11.766624264763907 43.1572000230046 11.786899146557406 43.12382142342697 11.848888211981182 C 43.27812138489283 11.889140549419984 43.45151550622831 11.909266385447946 43.62097954357203 11.909266385447946 C 44.00227387711396 11.909266385447946 44.36367276345077 11.80737830089564 44.442919199298764 11.60360146640815 C 44.60644369634745 11.303806555152224 44.759066560259555 10.98765919419143 44.86808289162535 10.660610200094053 C 45.00721478491607 10.690123257819456 45.182219132825686 10.788118852512813 45.32246753859219 10.788118852512813 C 45.36353962774146 10.788118852512813 45.40163113427139 10.779714401331896 45.434967814727464 10.758724898323267 C 45.58759067863957 10.655159383525765 45.74566435911997 10.170036708947993 45.832877424212604 9.848438531418907 C 45.84123163898594 9.81502233770845 45.88657382277962 9.798677872598166 45.93256508757456 9.798677872598166 C 45.9765984632396 9.798677872598166 46.021227023892465 9.81366029894926 46.03455763723932 9.842987714850619 C 46.198082134288 10.170036708947993 46.47062296270248 11.172986957513276 46.732261825288944 11.592699833271572 C 46.929619711115016 11.903788953564382 47.40820832579281 12.056814374120021 47.91733868013139 12.056814374120021 C 48.2378456297342 12.056814374120021 48.570455893958254 11.996171378266272 48.852629470353584 11.876142294822628 C 49.2069325472924 11.723519430910521 49.468571742570305 11.75622433032026 49.39226031061425 11.559994933861834 C 49.272342346111884 11.232945939764459 49.06521131651688 10.922249395371955 48.84717865378529 10.644257750389185 L 48.84717865378529 10.644257750389185 C 49.16332601474609 10.840487146847611 49.47947337570689 11.042167359874323 49.79562073666768 11.238396756332747 C 49.821697757191096 11.33339213961175 49.88723797105542 11.37110138367604 49.954178150503196 11.37110138367604 C 50.08313001839274 11.37110138367604 50.217275865058156 11.231163379023926 50.084514014787025 11.09122470898893 C 48.84717865378529 9.303356874589952 46.87943387263276 6.25635041291608 45.516730063251806 5.269752281364227 C 45.298697400520226 5.0789737014740926 45.042509021810616 4.931801820475995 44.759066560259555 4.8609412050882295 C 44.66640267859864 4.6211052760834885 44.69365676144008 4.299507098554404 44.639148595757185 4.026966270139925 C 44.58464043007429 3.4873353467063977 44.25759143597691 2.5934014295069074 43.68525552996079 2.25 Z"
     style="fill:#ffffff;stroke:none"
     id="path6" />
  <path
     d="M 45.70318310372509 13.650147655339577 Q 47.376326827638295 13.650147655339577 49.25159463734006 14.458646597645728 Q 47.376326827638295 15.244687048282408 45.70318310372509 15.244687048282408 Q 44.0412690155194 15.244687048282408 42.15477195998289 14.458646597645728 Q 44.0412690155194 13.650147655339577 45.70318310372509 13.650147655339577 ZM 45.70318310372509 13.133607025415074 Q 43.637019544366325 13.133607025415074 40.9532527923584 14.447417351810993 Q 43.637019544366325 15.749999082160144 45.70318310372509 15.749999082160144 Q 47.76934666308385 15.749999082160144 50.45311341509178 14.447417351810993 Q 47.78057603887618 13.133607025415074 45.70318310372509 13.133607025415074 Z"
     style="fill:#ffffff;stroke:none"
     id="path8" />
  <path
     d="M 58.96601934055574 2.4364779867993844 C 59.00078564787052 2.4364779867993844 59.03775918192599 2.4515161544253736 59.101626218197794 2.480678223189029 C 59.23598481227657 2.542026923732201 59.196533653181994 2.636843584681674 59.13823890548725 2.695138213988372 C 59.105669406765045 2.727707949486664 59.07459017677337 2.75025379867691 59.02413177065873 2.75025379867691 C 58.984278092205734 2.75025379867691 58.932335099986815 2.7361889731744937 58.85801913472269 2.7018894995244382 L 58.41109526134131 3.4193167407163436 C 58.37870950086742 3.2573880567349596 58.34912290736719 3.2265389139118312 58.15480834452387 3.2071073510782577 L 58.77507931059252 2.5217912396891533 C 58.875753190550185 2.4641548035259975 58.91885496344951 2.4364779867993844 58.96601934055574 2.4364779867993844 ZM 57.35098878779302 3.4558615916551005 C 57.44380241178517 3.4558615916551005 57.53310819795676 3.474929052051376 57.61890638308388 3.5082950655510547 L 57.4940837093821 3.640583052694913 L 57.24970876103679 3.463449081561267 C 57.283920538741334 3.4583173149055857 57.317680547660075 3.4558615916551005 57.35098878779302 3.4558615916551005 ZM 57.82216871448872 3.6398143591083825 C 57.938757262773834 3.704585998444201 57.99655762198601 3.8774930427622785 57.98360360192776 4.11067049449665 L 57.68614842578796 3.79153349472765 L 57.82216871448872 3.6398143591083825 ZM 56.70567377757193 3.964713897045312 C 56.63639901210784 3.964713897045312 56.58630453084843 3.9971731764961325 56.55539080734589 4.062091972173867 C 56.58939587952108 4.1335024579985005 56.646609507574325 4.1692077009108175 56.727031454729556 4.1692077009108175 C 56.79979416882237 4.1692077009108175 56.891555086304216 4.139979468027621 57.00231444395117 4.081523120649278 C 56.88042637314835 4.0036503049133 56.781546072096575 3.964713897045312 56.70567377757193 3.964713897045312 ZM 56.99259881051944 3.51801117253497 C 57.36179690611871 3.71232561699024 57.672700017247145 3.9681730773787223 57.925308854233016 4.285553790476509 C 57.87349182689567 4.415096832372054 57.79414673741226 4.51549273719632 57.68727358578278 4.586741504949307 C 57.64935105314582 4.6120232722993135 57.61611763425832 4.624664274362363 57.5875733291203 4.624664274362363 C 57.53567532435909 4.624664274362363 57.49927952397099 4.582876135228034 57.47838545440383 4.49930009373547 C 57.6074341078168 4.338853272933294 57.698882717631726 4.3484036366519785 57.68093319555943 4.1569989336058795 C 57.66823347302527 4.021572597734879 57.588496755883725 3.961695830573508 57.43952244712472 3.9552188205443866 C 57.38122817298217 3.9552188205443866 57.32293366206352 3.9778889475865444 57.26463938792096 4.023229083282812 C 57.29702491161875 3.7890087512460013 57.144811979457145 3.7447112590760803 56.807999881107854 3.6928939949626436 C 56.84686265161086 3.6151682171805355 56.908395785932115 3.5568739430379774 56.99259881051944 3.51801117253497 ZM 54.09731068762877 3.323696136139467 L 54.09731068762877 5.189116933894901 L 53.92242733245489 4.98508626406767 C 53.741067056042915 4.771340434360895 53.65038693263544 4.499299856959377 53.65038693263544 4.168965123803347 C 53.65038693263544 3.8386302722592713 53.79936150776754 3.5568739430379774 54.09731068762877 3.323696136139467 ZM 56.62340095169626 3.8580617758988214 C 56.707603976283586 3.8710159143451106 56.9854621422947 3.8854522711347483 57.08004045850937 3.9552188205443866 C 57.099960431229164 4.0909307083837705 57.12649000859027 4.206106176944748 57.21877893675991 4.206106176944748 C 57.23253870586327 4.206106176944748 57.247760093789864 4.203546035437167 57.26463938792096 4.198111905710486 C 57.32012881246363 4.180247623031739 57.38446679638478 4.168964768639207 57.44923831733255 4.11067049449665 C 57.475146357449034 4.11067049449665 57.50105534466989 4.12686349312164 57.52696433189075 4.159249490371619 C 57.52696433189075 4.230497902960465 57.44276107052733 4.337370817813853 57.27435502135269 4.4798683533198265 L 57.27435502135269 4.489583986751555 C 57.293786524992235 4.722761793650066 57.39418219304041 4.962416610577698 57.575542735825486 5.208548674310545 C 57.47190820759861 5.2699615263764645 57.369410914947316 5.300667834021377 57.26805109464769 5.300667834021377 C 57.19836599621411 5.300667834021377 57.12921861628815 5.286154169837314 57.060608718093725 5.257127078245281 C 57.131857485846716 5.127583799573643 57.13509610924932 5.002898456005916 57.07032482507764 4.883071521094287 C 57.03657049878514 4.82062608848598 56.97994881096485 4.789403372181827 56.900459998392876 4.789403372181827 C 56.827416231077436 4.789403372181827 56.73506337336263 4.815768153382069 56.62340095169626 4.868497479006461 C 56.59533304005773 4.877133887005444 56.57086365148345 4.8814519726168895 56.549992785973416 4.8814519726168895 C 56.508251291729444 4.8814519726168895 56.48090365296638 4.864179630171108 56.46794939613205 4.829634708503454 C 56.487380662995506 4.745431683916131 56.474426169385076 4.683898786370966 56.42908591530076 4.645035542315771 C 56.57806093438804 4.625604512228407 56.652548325543634 4.606173008588858 56.652548325543634 4.586741504949307 C 56.652548325543634 4.541401487641085 56.57482231098543 4.51549273719632 56.419370281869035 4.509015727167199 C 56.49061904962202 4.4183354557746615 56.45175627911901 4.356802321453403 56.302781496807825 4.32441679775561 C 56.34164474086302 4.188396272278758 56.4485178924925 4.032944598326495 56.62340095169626 3.8580617758988214 ZM 58.2161271964808 5.455499036221445 C 58.3215574345984 5.497908712600388 58.41893302357798 5.54837327489345 58.50825301631516 5.606893433428907 C 58.30098395986141 5.820639263135682 58.17445933960181 6.220246749159009 58.044916297706266 6.757850657156831 C 57.9107693814548 6.619232461161627 57.78880364809341 6.50361564196295 57.682464189777974 6.412969703103925 L 57.682464189777974 6.412969703103925 L 58.2161271964808 5.455499036221445 ZM 58.48882127589951 6.092680077313293 L 58.974608156559995 7.035105991234692 L 58.24592830912146 6.879654435670476 C 58.32365385012747 6.432730562289098 58.40461848808828 6.170405855095401 58.48882127589951 6.092680077313293 ZM 53.88356441396682 5.810923629703954 C 53.941858658512366 5.88217239745694 54.01310742626536 5.943705295002105 54.09731068762877 5.995522559115542 L 54.09731068762877 7.433450987129149 C 53.79936150776754 7.200273417006731 53.65038693263544 6.931471936560006 53.65038693263544 6.627045125132415 C 53.65038693263544 6.32261878725701 53.72811274001456 6.050578446631585 53.88356441396682 5.810923629703954 ZM 57.83786744301918 5.344568489459117 C 57.86996812507687 5.350988673225874 57.90152138080711 5.3579555729917985 57.93252815731428 5.365469425532984 L 57.93252815731428 5.365469425532984 L 57.44457572250552 6.235522595587041 L 57.44457572250552 6.235522595587041 C 57.38007554696053 6.1967900519352845 57.32867382489064 6.176841666084308 57.292407067473334 6.176841666084308 C 57.28393592918739 6.176841666084308 57.27629066591449 6.177929889008594 57.269497086248776 6.18012148852713 C 57.16910118142451 6.212507249001016 57.09623310197022 6.26756313651706 57.050893084662 6.345289151075261 C 57.005552830577685 6.423015165633463 56.97964431690901 6.516933823652514 56.97316730687989 6.627045125132415 C 56.96507690455179 6.703905486293926 57.01193655082609 6.770028051629422 57.11374695603105 6.825413294691088 L 57.11374695603105 6.825413294691088 L 56.96345167344816 7.093400265377251 L 57.211614092180085 7.257745131001558 L 57.39758655970825 6.924083101796023 L 57.39758655970825 6.924083101796023 C 57.64811081996971 6.989185162169884 57.85428123535107 7.058600335857233 57.964940436710606 7.10163439079391 C 57.91312293582107 7.425491995532772 57.89994871399617 7.6486790351792715 57.84165443985361 7.842993598022588 L 56.88649399731235 8.129250685611222 C 56.89944849092278 7.677771240196931 56.79603132314945 6.083018665606904 56.18547906860175 5.728696975166459 C 56.41217962869504 5.5408594223522645 56.60073082465411 5.451441641088598 56.84686288838695 5.412578870585591 C 56.971860539621595 5.483600096513025 57.105579838248765 5.519110827864789 57.24802125782065 5.519110827864789 C 57.43034642640937 5.519110827864789 57.626961979326275 5.460929969470867 57.83786744301918 5.344568489459117 ZM 54.612244113420296 8.171846704775502 C 55.29882280372931 8.275481233002376 55.90767536109207 8.388831631437071 56.438802022284676 8.511897426527401 C 55.99187838567939 8.783938003928919 55.53847750226889 9.13694274573906 55.07859960882927 9.57091212551001 C 55.059167986801675 8.813085141000197 54.90371619446137 8.346730000755361 54.612244113420296 8.171846704775502 ZM 57.83786744301918 8.16213083456768 C 58.03865925266771 8.498942932916972 57.89940034056435 8.903764702064455 57.4200902331569 9.376597562666692 C 57.07032435152546 9.551480858646551 56.675217979033604 9.7182673593438 56.23477135245744 9.876957538310624 C 55.79432496265737 10.035648190829633 55.48018299135024 10.260729439221626 55.292345320147994 10.552200809934416 L 54.89400067941768 10.114993280313044 C 55.535239115642376 9.402506076335364 56.15704604822752 8.874618038545362 56.75942147717311 8.531328693390858 C 57.11566484238586 8.356445397410997 57.47514683100122 8.233379602320667 57.83786744301918 8.16213083456768 ZM 58.96497515798478 2.25 C 58.86286073227617 2.25 58.757951875115765 2.3015397019508383 58.634557434808094 2.4104174036848636 L 57.7309942913897 3.3722751320144355 C 57.54906453887661 3.3261519777779984 57.38994248031581 3.3030904598538036 57.25362906281168 3.3030904598538036 C 57.045372413273256 3.3030904598538036 56.89035202697473 3.356918426550581 56.788568140692206 3.4645743599441365 C 56.620162091517564 3.6426960425505106 56.48414180281681 3.7932898997869096 56.38050751136603 3.9163559316533325 C 56.160284198077946 4.220782151140691 56.076080936714526 4.381091760196864 56.127898200827964 4.397284640433807 C 56.17971570171749 4.413477757446843 56.218578708996596 4.428051325982484 56.244486985889175 4.441005582816819 C 56.2963044867787 4.453959602875061 56.318974613820856 4.492822610154162 56.31249713023955 4.557594131101935 C 56.28658885334697 4.6353201456601365 56.30602059376262 4.719523170247459 56.370791877934295 4.810203441639995 L 56.244486985889175 5.208548674310545 C 56.263918726304816 5.279796968511345 56.30925898038913 5.315421352387839 56.38050751136603 5.315421352387839 C 56.419370518645124 5.315421352387839 56.51328941344027 5.211786824160965 56.662263958975366 5.004518004483312 C 56.688172472644034 4.946223730340755 56.76589825042615 4.917076593269476 56.89544129232169 4.917076593269476 C 56.96021305004555 4.955939363772483 56.96345167344816 5.049858021791534 56.90515692575342 5.19883256732663 C 56.59425357784889 5.224741080995301 56.29954311018131 5.35428435966694 56.02102552275067 5.58746216656545 L 55.3312083274271 6.588182117853314 L 55.3312083274271 6.607613858268958 C 55.29882256695321 6.607613858268958 54.96848771540914 6.312903390601375 54.34020377279487 5.7234819817140234 L 54.34020377279487 2.8087626511539185 C 53.71191974138957 3.1520516411442836 53.397777740485424 3.595736595152938 53.397777740485424 4.139817749955975 C 53.397777740485424 4.5847549535274705 53.48822276743013 4.917415419858827 53.66911281392028 5.137799267338089 L 53.66911281392028 5.137799267338089 C 53.55580980030123 5.218193748466504 53.54632912274648 5.381035559451263 53.640670825651526 5.626324463516271 L 53.65038693263544 5.665187470795372 C 53.48198080206901 5.885410784083454 53.397777740485424 6.2027916155692875 53.397777740485424 6.61732972847678 C 53.397777740485424 7.16141040972763 53.71191974138957 7.59537978949858 54.34020377279487 7.919237867789628 L 54.34020377279487 6.218984259030138 L 55.010589346090846 7.035105991234692 C 55.08933787820747 7.12791653713763 55.17236057397026 7.174321810089099 55.259657551767255 7.174321810089099 C 55.37340798341138 7.174321810089099 55.49441560231169 7.095530776663744 55.62268029008012 6.937948709813035 C 55.888243857452515 6.6205683518793865 56.07608141026671 6.342050527672654 56.18619294852271 6.1023957107450215 C 56.47272422282725 6.1280866271840555 56.75426094222211 7.668056317093482 56.67197959240709 8.30786699347626 C 56.0696041634615 8.210709712054603 55.467228734515906 8.103836560425123 54.86485330557031 7.9872475385878206 C 54.729601592068036 7.960680313827904 54.61191144300937 7.947396701447945 54.51178250323017 7.947396701447945 C 54.34338391250246 7.947396701447945 54.22465798642415 7.984969752571365 54.15560478418926 8.060115854818203 C 54.045493245933265 8.179943026505928 54.02606191987579 8.359684020813605 54.09731068762877 8.599338837741236 L 54.64139148726767 10.114993280313044 C 54.498893951761694 10.276922082682477 54.4632695678852 10.458282151915364 54.53451833563819 10.659073961563896 L 53.78640686617206 10.979693416452337 L 53.78640686617206 11.174007979295654 L 55.21461954236589 11.174007979295654 L 57.79900443574008 9.774942558561147 L 57.7309942913897 10.94082993562105 L 57.3520807991348 10.989408813107971 L 57.3520807991348 11.174007979295654 L 58.090476280005056 11.174007979295654 L 58.119623890628525 10.863104868167222 L 58.31393845347184 9.677785277139488 C 58.33337019388748 9.412221946543184 58.300984433413596 9.247054520771147 58.21678164560237 9.182282999823375 C 58.185594919264375 9.158293319613888 58.14996627341821 9.146298716285237 58.109894760959484 9.146298716285237 C 58.04965844930061 9.146298716285237 57.97938377839499 9.173402949224503 57.89907074824263 9.22761141510303 L 57.89907074824263 9.22761141510303 C 57.899070274690445 9.227611888655217 57.89906980113826 9.227611888655217 57.89906932758607 9.227612362207402 L 57.89906932758607 9.227612362207402 C 57.89906980113826 9.227611888655217 57.899070274690445 9.227611888655217 57.89907074824263 9.22761141510303 L 57.89907074824263 9.22761141510303 C 58.20175914959405 9.000379766232715 58.26234494276646 8.56433386012452 58.0808276542077 7.919474643882814 L 58.0808276542077 7.919474643882814 C 58.08263993842495 7.787740002468734 58.12148068875129 7.548006102325977 58.197349431634535 7.200273417006731 L 59.11062844526075 7.520892398342985 C 59.13856897136115 7.524067565752619 59.164766351863506 7.5256549126813415 59.189221060320016 7.5256549126813415 C 59.41420049499194 7.5256549126813415 59.491637642716455 7.391285900454466 59.42153202994137 7.12254740244853 C 59.07824315833905 6.157451598261066 58.832111094606205 5.610132056831515 58.68313631229502 5.48058901493597 C 58.546864567383295 5.413648624974607 58.41941746746463 5.35464994195482 58.300794538986864 5.303593202652699 L 58.300794538986864 5.303593202652699 L 59.05233417111819 3.9552188205443866 L 58.79972438702794 3.8191988870077673 L 58.02836233392721 5.194591197169377 L 58.02836233392721 5.194591197169377 C 57.93513600920464 5.160505621122503 57.84896750626777 5.132772274103642 57.7698572986688 5.111391156112793 C 57.60792849629937 4.988325124246369 57.62412161331241 4.862020705753432 57.81843617615573 4.732477663857887 C 58.012750738999046 4.602934621962343 58.13257791068676 4.436147647712908 58.17791816477108 4.232116977885676 C 58.22325794530321 4.0280866632225845 58.211923000170174 3.8612999257492424 58.1439128558198 3.7317568838536976 C 58.0759031850216 3.6022139603462 58.01922798580426 3.5212495591614843 57.97388773171994 3.488863917075644 L 58.0710450131416 3.3819907654461643 C 58.17467954136847 3.3819907654461643 58.278314069595346 3.5244880641760448 58.381948597822216 3.8094827800238527 L 58.92602927907307 2.8962040623677554 C 58.97258372096324 2.916445103469911 59.01676661350406 2.9265656240209887 59.058577009591154 2.9265656240209887 C 59.150560259824495 2.9265656240209887 59.231062710851404 2.8775822145788568 59.30008530977625 2.7796153365005694 C 59.40048121460052 2.637117800994596 59.41439465138835 2.491154514618626 59.20778572668241 2.342407185341955 C 59.12351474735634 2.2817362970614212 59.045104923441016 2.25 58.96497515798478 2.25 Z"
     style="fill:#ffffff;stroke:none"
     id="path10" />
  <path
     d="M 51.9531135559082 12.154938162697135 L 51.9531135559082 15.749999560465737 L 52.55394567827841 15.749999560465737 L 52.55394567827841 12.154938162697135 ZM 56.084454809761525 12.159903717159933 L 56.084454809761525 15.749999560465737 L 56.68528693213173 15.749999560465737 L 56.68528693213173 12.159903717159933 ZM 60.29028013990514 12.159903717159933 L 60.29028013990514 15.749999560465737 L 60.89111178872316 15.749999560465737 L 60.89111178872316 12.159903717159933 Z"
     style="fill:#ffffff;stroke:none"
     id="path12" />
  <path
     d="M 40.9532527923584 0.375 C 31.328252851963043 0.375 31.328252851963043 17.625 40.9532527923584 17.625 "
     style="fill:none;stroke:#ffffff;stroke-width:1"
     id="path14" />
  <path
     d="M 40.9532527923584 0.375 L 60.891112327575684 0.375 "
     style="fill:none;stroke:#ffffff;stroke-width:1"
     id="path16" />
  <path
     d="M 40.9532527923584 17.625 L 60.891112327575684 17.625 "
     style="fill:none;stroke:#ffffff;stroke-width:1"
     id="path18" />
  <path
     d="M 68.57861232757568 0.375 L 68.57861232757568 17.625 "
     style="fill:none;stroke:#ffffff;stroke-width:1"
     id="path20" />
  <path
     d="M 60.891112327575684 0.375 C 70.51611137390137 0.375 70.51611137390137 17.625 60.891112327575684 17.625 "
     style="fill:none;stroke:#ffffff;stroke-width:1"
     id="path22" />
</svg>
