<?xml version="1.0" encoding="UTF-8" standalone="no"?>
<svg
   width="77.70964050292969"
   height="18.0"
   version="1.1"
   id="svg14"
   sodipodi:docname="ineqtawy.svg"
   inkscape:version="1.1.1 (3bf5ae0d25, 2021-09-20)"
   xmlns:inkscape="http://www.inkscape.org/namespaces/inkscape"
   xmlns:sodipodi="http://sodipodi.sourceforge.net/DTD/sodipodi-0.dtd"
   xmlns="http://www.w3.org/2000/svg"
   xmlns:svg="http://www.w3.org/2000/svg">
  <defs
     id="defs18" />
  <sodipodi:namedview
     id="namedview16"
     pagecolor="#ffffff"
     bordercolor="#666666"
     borderopacity="1.0"
     inkscape:pageshadow="2"
     inkscape:pageopacity="0.0"
     inkscape:pagecheckerboard="0"
     showgrid="false"
     inkscape:zoom="17.694072"
     inkscape:cx="38.85482"
     inkscape:cy="9.0143183"
     inkscape:window-width="1920"
     inkscape:window-height="1001"
     inkscape:window-x="-9"
     inkscape:window-y="-9"
     inkscape:window-maximized="1"
     inkscape:current-layer="svg14" />
  <path
     d="M 5.454143572319105 0.38638405261740716 C 5.6751986350969625 0.38638405261740716 6.0198472107908465 0.43846304248784007 6.211377729173311 0.48978353459751095 C 7.043040107707465 0.7126268987793605 6.2060781548689725 1.4576656313354053 5.670499150679329 1.4576656313354053 C 5.645675310396461 1.4576656313354053 5.621499128101075 1.4560650867138016 5.598166364823283 1.4527377590493051 L 5.598166364823283 1.4527377590493051 C 5.2452836289156854 1.5270191599566676 5.657208135444718 1.6516913405425198 6.100369028149615 1.6516913405425198 C 6.371794440716527 1.6516913405425198 6.654937462107786 1.6049233596160355 6.781255773411818 1.4711656717820771 C 6.852830518892686 1.3953753558318478 6.912108910323108 1.3639720239176871 6.9629476229505665 1.3639720239176871 C 7.148321731367289 1.3639720239176871 7.221486349139459 1.7814996563172263 7.369436559194839 1.9870992028133305 C 8.109766964545285 2.2320299455576382 8.572153297980249 2.899799787031018 9.050509706479392 3.4727819547688448 C 10.427930052921685 5.122675736613722 11.668260962471539 6.8783423742360466 12.967744634877972 8.588242400437956 C 12.611392476850998 8.48312787497829 12.224502817821092 8.278009345655091 11.870752268998066 8.107222788142833 C 10.250106465731893 7.324793393911243 8.524267466685542 6.706575791878325 7.056547618785348 5.653163124478057 C 6.324634327882369 5.1278539512763395 5.345499249842926 4.51876911966858 5.264370024428102 3.5973664697843573 C 5.202570523656583 2.8954927394447814 6.490844590161053 2.259560441267 6.397605624014208 1.8800112110189322 C 6.386753388715507 1.8358343194279554 6.355336487695676 1.8161086513304385 6.30878866169714 1.8161086513304385 C 6.033909073196996 1.8161086513304385 5.231366300354198 2.503995530499702 5.02003007139695 2.906660570796704 C 4.938768814010101 3.0614904698885916 4.879530977434828 3.123278383558639 4.83783143863071 3.123278383558639 C 4.6918117006651325 3.123278383558639 4.760840637983347 2.365644014318102 4.852316840087996 2.1923293342191177 C 5.162809689882786 1.604057223781083 4.223751651517808 0.8679923201596249 4.752486337822802 0.5290855725147102 L 4.752486337822802 0.5290855725147102 C 4.736400696667635 0.6173537864769199 4.7540868824444065 0.8663049485079197 5.0637960782712925 0.8663049485079197 C 5.3886697406864075 0.8663049485079197 5.369079611183729 0.4656883095505593 5.2689176568317215 0.41293273205443365 C 5.301349953848873 0.39420801419286505 5.36846244556854 0.38638405261740716 5.454143572319105 0.38638405261740716 ZM 6.069788227978029 5.863214709790646 C 6.323975692640863 6.762449405018629 6.696283899240764 7.629413412802606 7.135400893532303 8.452206779931927 C 7.351771108231227 8.857629702840873 8.265934259085897 9.502025616333867 7.620163139602537 9.830196723888633 C 7.602866036496212 9.834973658931888 7.585570762932224 9.837214848295345 7.568255974249969 9.837214848295345 C 7.310987560290759 9.837214848295345 7.049406915042022 9.342463910909716 6.712954689020212 9.320119100494184 C 6.67903192484543 8.693869197752123 6.575001708144468 8.06546836306859 6.448145511393205 7.446592735641611 C 6.344633665021206 6.9416012399454585 6.088178787554743 6.271072143703381 6.069788227978029 5.863214709790646 ZM 6.774795659418047 6.459697958701316 L 6.774795659418047 6.459697958701316 C 7.569842797304042 7.0356641099916315 8.405933278142431 7.553192239631892 9.246634815518807 8.060175497086155 C 9.468879080816052 8.556551677914943 9.280516719914718 9.282423820019444 9.395827284821362 9.864688475730382 C 8.857778398476073 9.501763991779603 8.28369911518318 9.486578790378216 7.938584616040677 8.798798329588251 C 7.554208138335073 8.032772611954833 6.9204552824668575 7.305266688542932 6.774795659418047 6.459697958701316 ZM 7.000934410504418 10.059063322600238 C 7.135474685073249 10.295082212156643 7.336466376730457 10.443322709596242 7.539293099352194 10.443322709596242 C 7.698827361641281 10.443322709596242 7.8594965500270755 10.351611411301223 7.9898569302021265 10.138767334534139 C 8.175012103385795 10.34420664361385 8.218963808807393 11.064965824732438 8.219863943637453 11.464443954739346 C 8.22078908221279 11.875067656666406 8.005229354769385 11.909575264541749 7.754371047313386 11.909575264541749 C 7.7036902851744005 11.909575264541749 7.6515684535208965 11.908167736636754 7.599499678595182 11.908167736636754 C 7.503209645676805 11.908167736636754 7.407101347297289 11.912984311763987 7.320625589324795 11.940433545301191 C 7.276695228563797 11.95437831699774 7.230527337524019 11.959987693804566 7.182692123567317 11.959987693804566 C 6.98565285320659 11.959987693804566 6.760333737087427 11.864796605983589 6.546653559472097 11.864796605983589 C 6.526873767413762 11.864796605983589 6.507193990336545 11.865612581866122 6.487645330460182 11.867394556102862 C 6.488004530605782 11.347772820181039 6.847494963589043 10.641789022980232 7.000934410504418 10.059063322600238 ZM 8.603951963501176 7.092214653796816 C 10.294832067562263 7.858253788074042 11.963344187004877 8.682241846349761 13.658331003766241 9.443264375537517 C 14.306199998463287 10.121921518537734 14.89692628748524 10.890737288235863 15.617332976780133 11.491755362753791 C 16.156479588527933 11.941553225211752 15.463364792129216 11.850415183515821 15.144459706666524 11.910077778837119 C 14.899576684484854 11.955893178053204 14.652335992077571 11.9891323032412 14.405890540739662 12.026157361372965 C 13.536195636093217 11.155342776815962 12.661034058942274 10.288166542120832 11.825686982140361 9.38497027788468 C 10.917455817391367 8.402968916849794 9.68127857879512 7.847318613522707 8.603951963501176 7.092214653796816 ZM 8.091606927303099 12.784580720746556 C 9.197498187112684 12.784580720746556 10.303223568417005 12.797552175919549 11.407920746927639 12.826530906850914 C 11.963618618355504 12.841107480501353 12.604689033726338 12.804320262873466 13.102683139828937 12.991104338584968 C 12.444715071428801 13.03259835879984 10.798614845620763 13.0486666193028 9.061392434150386 13.0486666193028 C 7.040896493935342 13.0486666193028 4.8971381879673626 13.026930436638214 4.041370674365262 12.998177349261805 C 4.035477718496122 12.998220038583016 4.0297003287179685 12.998241993091064 4.024036980412186 12.998241993091064 C 3.5148780921948943 12.998241993091064 3.9273603042131473 12.826321119329545 4.211845294908974 12.826321119329545 C 4.238601131900259 12.826321119329545 4.264224787108344 12.827842078859469 4.287843263914512 12.831169406523964 C 5.555116623774078 12.801636934111775 6.823471243155116 12.784580720746556 8.091606927303099 12.784580720746556 ZM 3.229631402039215 13.527964022410872 C 3.9800867996092 13.538300936617839 4.730666606058136 13.547631602539173 5.48073658004235 13.573154937842418 C 5.974628852224238 13.589961113754843 6.468692491538405 13.596169360753482 6.962812846665035 13.596169360753482 C 8.360743582405776 13.596169360753482 9.759126824951332 13.546476551476754 11.155349987843726 13.546476551476754 C 11.342591449139606 13.546476551476754 11.529792660504063 13.547370587832354 11.716949962852416 13.549397720742322 C 10.555885804617795 14.183214610592351 9.295635447944509 14.718425266924708 7.950956591174409 14.762796547389044 C 7.799163122515353 14.767805834309163 7.651256821476073 14.770698950592223 7.506199727703753 14.770698950592223 C 6.745573599355791 14.770698950592223 6.06331774657768 14.691151669451905 5.310047598121426 14.420004957167741 C 4.653584023370175 14.183703708243913 3.8042879059395918 13.89691074988931 3.229631402039215 13.527964022410872 ZM 9.878584352489678 15.08641697330296 C 9.849530000475026 15.08641697330296 9.823518177367665 15.092904530431793 9.801197760849965 15.106699279656667 C 9.544953890599764 15.265069343171648 10.169278504955312 16.43707782366929 10.695870187335629 16.718978585813375 C 10.73537854426685 16.740128095235065 10.774061167756402 16.749551457968167 10.810766665826547 16.749551457968167 C 11.003336974104167 16.749551457968167 11.141447905468382 16.490179680168257 11.058481819546692 16.304211580339288 C 10.844383896430964 15.824310428259835 10.18845698743205 15.08641697330296 9.878584352489678 15.08641697330296 ZM 5.031377807745396 15.140798289743296 C 4.989399568658528 15.140798289743296 4.926357808639836 15.166799745444079 4.836820006641786 15.226750188759814 C 4.404607095284589 15.5161398775388 3.394055116225315 16.294390597071498 4.0142925329988515 16.722726708215504 C 4.056939164886357 16.752178680764843 4.100021532773916 16.765133060209347 4.142866670005041 16.765133060209347 C 4.367006341163952 16.765133060209347 4.58465113702468 16.41059092940162 4.699421682018032 16.208593599306226 C 4.818436155386976 15.999129297083979 5.2725627150155 15.140798289743296 5.031377807745396 15.140798289743296 ZM 9.090395558979587 15.318185836009313 C 8.817462603526561 15.318185836009313 9.117006862126209 16.79410813205604 9.59252321107008 17.108873573056375 C 9.624085865629468 17.129766946550816 9.662353183008404 17.139328134806675 9.7019237443791 17.139328134806675 C 9.808466532556917 17.139328134806675 9.924459516755453 17.07001409380753 9.944487516724246 16.965927771141548 C 10.06708575860866 16.328790871796375 9.471438610546237 15.35620982425736 9.098430299078512 15.3185980928827 C 9.095698792368601 15.318322441837182 9.093020952233923 15.318185836009313 9.090395558979587 15.318185836009313 ZM 5.813290051342912 15.334595611081944 C 5.762056157570551 15.334595611081944 5.6837980939307355 15.397157421160761 5.569301065516842 15.551481756720047 C 5.266789289245744 15.95922088022829 4.5258087865180325 16.80730645047888 5.132767994853322 17.12234144405028 C 5.172965479398338 17.143205544867318 5.210868717852111 17.152645983328902 5.2466228539067465 17.152645983328902 C 5.501107314275703 17.152645983328902 5.646734005562437 16.67436092698092 5.736180330443612 16.43252348294377 C 5.81843167515878 16.21013773303909 6.004955346010909 15.334595611081944 5.813290051342912 15.334595611081944 ZM 8.084197280836158 15.497188258311914 C 8.061304827414261 15.497188258311914 8.040999346857612 15.508953435237036 8.024002288694641 15.534490187184089 C 7.779368084270872 15.902031826147313 7.859889291782196 17.025052481015617 8.44457443200567 17.350611002112412 C 8.477321410304873 17.36884544074299 8.5095817303423 17.37699910109386 8.54061320777636 17.37699910109386 C 8.712565793605062 17.37699910109386 8.846783458875045 17.126639648848553 8.816920449147212 16.95369179198824 C 8.746119600075112 16.543659642083643 8.300101572086461 15.497188258311914 8.084197280836158 15.497188258311914 ZM 6.75532262062497 15.485684096093609 C 6.738393255528486 15.485684096093609 6.719172693577984 15.49322303021907 6.697420045032361 15.509370570889988 C 6.3057388146205 15.800128757337436 5.679560264029602 16.97476811971643 6.318469380052385 17.354321313972893 C 6.352644621069744 17.374624355139762 6.386393578722462 17.383708642692973 6.419196662986684 17.383708642692973 C 6.610484462085705 17.383708642692973 6.7696040281116225 17.07479041900334 6.793552127462265 16.88013443246095 C 6.834695485395779 16.54571360828123 6.956077691473192 15.485684096093609 6.75532262062497 15.485684096093609 ZM 7.409580377164622 15.468416875512132 C 7.39733464045218 15.468416875512132 7.384780930779589 15.471718589583901 7.371922907231523 15.478607426332097 C 7.04806464081373 15.652117562537471 6.752394743037498 17.05085024766949 7.3581062034986005 17.423058439288273 C 7.389001684952238 17.442042990277237 7.419877041440165 17.450504013740805 7.449994967400358 17.450504013740805 C 7.6143226306137395 17.450504013740805 7.756113991313593 17.19863701860939 7.755634651221164 17.030030055868558 C 7.75432652844984 16.56993308974527 7.633263882434045 15.468416875512132 7.409580377164622 15.468416875512132 ZM 5.632034852575385 0.0 C 5.427092569164034 0.0 5.224417088708866 0.019432907972482025 5.033733343504948 0.05443384431604181 C 4.467006076095366 0.1584592489395021 3.5938344311601953 0.3646307561088724 3.603155949369841 1.0504667564332457 C 3.67258220229902 1.0309202310229437 3.7366997332121716 1.0218254998322194 3.7957738257482365 1.0218254998322194 C 4.346064179873848 1.0218254998322194 4.458737154577238 1.8110103266832265 4.348558760851052 2.292443415546627 C 4.124233391144884 3.272651977552607 4.609814357411156 4.257232688359666 5.247062553915197 4.998988307191039 C 5.671593826844609 6.267997902728908 6.207430796503842 7.594017867046124 6.200945678764793 8.927216345648308 C 6.198242225037389 9.48290994814405 6.608764082440994 9.519405658692827 6.457257851928928 10.084834255966495 C 6.320555668164599 10.595013723884398 6.084080612718707 11.65061086483566 5.574068852848409 11.775453955168208 C 5.5141812238195955 11.78026809090566 5.453413584926436 11.78228912534117 5.392016583469171 11.78228912534117 C 5.069385635036129 11.78228912534117 4.729385926421875 11.726455152284846 4.408483590574062 11.726455152284846 C 4.153773486650145 11.726455152284846 3.9110950629851815 11.761631152960828 3.698682758209751 11.887824445538461 C 3.254193922691541 12.151893268366223 2.920155472860361 12.347759192241154 2.3871648136927193 12.347759192241154 C 2.364082850177029 12.347759192241154 2.3406278124863467 12.34739206407876 2.31677439195167 12.346646830499944 C 2.290907712536418 12.345839392481654 2.2648745447684524 12.34543567347251 2.2387011120879436 12.34543567347251 C 1.3440312774539256 12.34543567347251 0.28566830681618954 12.817335627062558 0.12083169732265768 13.756412875622079 C -0.12329519978597013 15.147207786399061 0.07662177391650889 16.583104574880497 0.08494513861247754 17.989033459873415 C 0.2900051035231433 17.99360365663253 0.4966322048500206 17.999999736644487 0.702869308735284 17.999999736644487 C 0.8657836504929329 17.999999736644487 1.0284545868887616 17.996007675264025 1.1899174917253144 17.98397172607295 C 1.1137838316630781 17.140422201124508 1.057380489785133 16.29003262722354 1.1114740344619638 15.445312195179083 C 1.150002671471443 14.84365012175835 0.997819586525427 14.00504767929055 1.5763723295263372 13.66371240476991 C 1.7040717928333333 13.58837307100588 1.83171911418371 13.55691470035973 1.9589124041106598 13.55691470035973 C 2.4652981635298614 13.55691470035973 2.9644861984695505 14.055524752382627 3.4311076174921418 14.268706684634704 C 4.73678032670267 14.865220425917668 6.127831678330627 15.305327812461249 7.577851313962796 15.305327812461249 C 7.611054458151489 15.305327812461249 7.644288094712474 15.305097290126723 7.677552223645749 15.304632586372993 C 9.433900060865076 15.280083787288198 11.05346399476233 14.553760358073777 12.55629032072968 13.72891485428921 C 12.670762345398295 13.628126586610326 12.818380798443139 13.581008553249928 12.96633954636276 13.581008553249928 C 13.24669495507909 13.581008553249928 13.528272498076879 13.750179015030715 13.587881426822944 14.043930332742338 C 13.850096313415355 15.336104373662948 13.742097209536873 16.675576962787922 13.65541349358535 17.983352121067977 C 13.812261377875515 17.996239417293445 13.969778874661216 17.999448434553447 14.127512257442742 17.999448434553447 C 14.284036922586616 17.999448434553447 14.44077381464164 17.99628820508911 14.597282623751921 17.99628820508911 C 14.650358866658163 17.99628820508911 14.703408276276786 17.99665167416683 14.7564149965742 17.99762499069039 C 14.763825862736033 17.086932481649992 14.844901421575624 16.174760482705985 14.803086621604242 15.264876631378764 C 14.769945072007578 14.543717390335702 14.910211204245392 13.715322574416355 14.386286384745727 13.121748297822336 C 13.705550271802647 12.350515702696345 12.623079593303054 12.361563699025162 11.682409423214999 12.296510052282647 C 11.644045140092175 12.293857215893247 11.604677048073496 12.292852187302506 11.564630805695048 12.292852187302506 C 11.439513284011872 12.292852187302506 11.307763061507753 12.302662193316268 11.179225515348314 12.302662193316268 C 11.022081245199468 12.302662193316268 10.869737694144266 12.28799902132852 10.740179263360492 12.222823405096838 C 10.44570344688321 11.920581791244247 10.080689625582988 11.8638281682396 9.700766253926899 11.8638281682396 C 9.472275931089374 11.8638281682396 9.238393337135744 11.88435563326653 9.011219065086339 11.88435563326653 C 8.936831703185263 11.88435563326653 8.863163961270274 11.882155303681946 8.79064029316368 11.876311745455919 C 8.748275410796152 11.287905316117937 8.716179749569102 10.698756092590925 8.6841725162217 10.109697736333342 C 8.716601154154176 10.078576001477298 8.754075060006079 10.064937373198559 8.795398322936116 10.064937373198559 C 9.088549550761034 10.064937373198559 9.575443823501919 10.751298109134611 9.829342220475425 10.751298109134611 C 9.9047779101359 10.751298109134611 9.959645884838014 10.690709765390528 9.982754224255737 10.533531343784716 C 10.077034809840075 9.89225845906186 9.828121305888857 9.191179055020491 9.837226938102676 8.515557122758214 C 9.842454550408405 8.515291839119273 9.84775473456019 8.515160721918418 9.8531244413208 8.515160721918418 C 10.13787319103695 8.515160721918418 10.618515917610546 8.883683605421998 10.906077283746905 9.132975214789639 C 11.80432402611263 9.911679050974598 12.57521510666895 10.850011675802751 13.418602412196801 11.698699775329832 C 13.753165940678848 12.0785896053764 14.10034965220508 12.50165297550368 14.581990089200067 12.50165297550368 C 14.7115546184583 12.50165297550368 14.850847434172552 12.471038633722571 15.00224206260203 12.400734200471387 C 15.482807948397447 12.177569065530927 16.501952068121145 12.466298899373513 16.611020844419624 11.85703812677763 C 16.148715010847514 11.316222972418016 15.616514561507817 10.838956361304586 15.141690999262417 10.30954047540259 L 15.141690999262417 10.30954047540259 C 15.720475255599954 10.584491416053895 16.284632930796494 10.987831100087856 16.88805136486124 11.251485226652445 C 17.013493325385603 11.306294655999759 17.089085135992214 11.329256632030482 17.12721035891627 11.329256632030482 C 17.308927822047742 11.329256632030482 16.63947510654757 10.807612641978256 16.459826245952385 10.726662711712507 C 15.79457415965915 10.42689585879513 17.084456393878295 10.539115106998816 16.55768114741678 10.121722708270392 C 15.402974038957586 9.206783221617167 14.091566629290112 8.473895394495738 12.859382061921773 7.648877913731442 C 12.06805133437072 6.650734500652652 11.353425998862377 5.582082965275763 10.559610752816978 4.581358372882461 C 9.89897704123108 3.80707897991706 9.337823474552744 2.944969967649405 8.617586932695238 2.225430481422494 C 8.174952338336102 1.7832239999703352 7.524531741925666 1.6598222840760268 7.480633703079299 0.9374621771811809 C 7.138186066817449 0.2522410174286094 6.370398499913002 0.0 5.632034852575385 0.0 Z"
     style="fill:#ffffff;stroke:none"
     id="path2" />
  <path
     d="M 21.608695116264624 0.9856506529406607 C 21.978852584535304 0.9856506529406607 22.431992997503556 1.1279813026867649 22.564113913139124 1.4537780264923652 L 22.51547175967986 12.039112019738132 L 22.51547175967986 12.039112019738132 C 22.32772403790808 11.614017163183222 21.769992873355267 10.823123114577701 20.113399776189926 9.843249320123512 L 21.37108085593566 1.0820565966367734 C 21.430082897185827 1.0193669576482312 21.428536003944547 0.9856506529406607 21.608695116264624 0.9856506529406607 ZM 22.51547175967986 12.039112019738132 L 22.51547175967986 12.039112019738132 C 22.51547175967986 12.039112019738132 22.51547199839795 12.039112019738132 22.51547199839795 12.039112019738132 L 22.51547175967986 12.039112019738132 L 22.51547175967986 12.039112019738132 ZM 21.43268516311533 0.0 C 21.14934469083053 0.0 20.89360587866553 0.04045075098350828 20.712542740928058 0.08983070746818508 L 19.1580753326416 10.464214281557382 C 19.980367017119423 11.027426652238745 22.240148395823315 12.570631221548322 22.150035180412196 13.911077236693389 L 22.16688533570987 18.000001148559306 L 23.31458749811916 17.984224747243 L 23.308151180901355 1.1593105458254815 C 22.96686404005461 0.23722062911383482 22.118843080817786 0.0 21.43268516311533 0.0 Z"
     style="fill:#ffffff;stroke:none"
     id="path4" />
  <path
     d="M 27.0863176882267 0.0 L 26.706661239266396 0.8225889727473259 L 25.504415817558765 3.5118221528828144 L 25.314587593078613 3.8914786018431187 L 26.10553852841258 4.271135050803423 L 26.295366752892733 3.85984056442976 L 27.11795572564006 1.9931963570415974 L 27.52925021201372 2.720871217548847 L 27.908906660974026 3.4801841154694557 L 28.28856310993433 2.720871217548847 L 28.73149563372135 1.92992028221488 L 29.142790120095015 2.720871217548847 L 29.52244656905532 3.4801841154694557 L 29.902103018015623 2.720871217548847 L 30.313397504389286 1.92992028221488 L 30.756330028176308 2.720871217548847 L 31.135986477136612 3.4801841154694557 L 31.515642926096916 2.720871217548847 L 31.92693741247058 1.9615583196282387 L 32.33823189884424 2.720871217548847 L 32.749526385217905 3.4801841154694557 L 33.12918283417821 2.720871217548847 L 33.54047732055187 1.92992028221488 L 33.951771806925535 2.720871217548847 L 34.3630662932992 3.4801841154694557 L 34.7427227422595 2.720871217548847 L 35.154017228633165 1.92992028221488 L 35.56531171500683 2.720871217548847 L 35.97660620138049 3.4801841154694557 L 36.356262650340796 2.720871217548847 L 36.76755713671446 1.92992028221488 L 37.17885162308812 2.720871217548847 L 37.558508072048426 3.4801841154694557 L 37.96980255842209 2.720871217548847 L 38.38109704479575 1.92992028221488 L 38.792391531169415 2.720871217548847 L 39.17204798012972 3.4801841154694557 L 39.58334246650338 2.720871217548847 L 39.994636952877045 1.92992028221488 L 40.437569476664066 2.752509254962206 L 40.81722592562437 3.448546078056097 L 41.22852041199803 2.752509254962206 L 41.671452935785055 1.8982822448015213 L 42.77878424525261 3.8914786018431187 L 43.00025050714612 4.271135050803423 L 43.75956340506673 3.85984056442976 L 43.56973518058658 3.4801841154694557 L 42.05110938474536 0.7593128979206085 L 41.671452935785055 0.09491411224007607 L 41.29179648682475 0.7909509353339672 L 40.81722592562437 1.613539908081293 L 40.37429340183735 0.7909509353339672 L 39.962998915463686 0.06327607482671738 L 39.61498050391674 0.7909509353339672 L 39.17204798012972 1.5819018706679344 L 38.760753493756056 0.7909509353339672 L 38.38109704479575 0.03163803741335869 L 38.00144059583545 0.7909509353339672 L 37.590146109461784 1.5819018706679344 L 37.14721358567476 0.7909509353339672 L 36.76755713671446 0.03163803741335869 L 36.387900687754154 0.7909509353339672 L 35.94496816396713 1.5819018706679344 L 35.53367367759347 0.7909509353339672 L 35.154017228633165 0.03163803741335869 L 34.77436077967286 0.7909509353339672 L 34.3630662932992 1.5819018706679344 L 33.92013376951218 0.7909509353339672 L 33.54047732055187 0.03163803741335869 L 33.16082087159157 0.7909509353339672 L 32.749526385217905 1.5502638332545757 L 32.33823189884424 0.7909509353339672 L 31.92693741247058 0.03163803741335869 L 31.547280963510275 0.7909509353339672 L 31.135986477136612 1.5819018706679344 L 30.72469199076295 0.7909509353339672 L 30.313397504389286 0.03163803741335869 L 29.933741055428982 0.7909509353339672 L 29.52244656905532 1.5819018706679344 L 29.111152082681656 0.7909509353339672 L 28.73149563372135 0.03163803741335869 L 28.32020114734769 0.7909509353339672 L 27.908906660974026 1.5819018706679344 L 27.497612174600363 0.7909509353339672 L 27.0863176882267 0.0 Z"
     style="fill:#ffffff;stroke:none"
     id="path6" />
  <path
     d="M 37.020880777394495 10.198266386069697 Q 37.248269516140226 10.198266386069697 37.492274790038664 10.301658395027303 Q 38.03884824494884 10.533257931297804 38.03884824494884 13.979446218601844 L 38.03884824494884 17.277412308898157 L 31.850531209571642 17.277412308898157 Q 34.24062958458168 13.997975441502227 35.12996831834664 12.321199768898843 Q 36.01930681073253 10.644425423880342 36.48250407293051 10.35724310683485 Q 36.73891767928188 10.198266386069697 37.020880777394495 10.198266386069697 ZM 36.75804262572609 9.494636535644531 Q 36.70881046792806 9.494636535644531 36.65851962153067 9.49569531087163 Q 35.778445740594975 9.514223558826867 34.676034702082575 11.64493140884877 Q 33.5736258359818 13.775639249441802 30.31271505355835 17.999999381375936 L 38.76143531742662 17.999999381375936 L 38.74290706004251 13.256858663365925 Q 38.650267704154544 10.088588081657186 38.094432051584874 9.782877567572354 Q 37.57035753975407 9.494636535644531 36.75804262572609 9.494636535644531 Z"
     style="fill:#ffffff;stroke:none"
     id="path8" />
  <path
     d="M 52.609276043062565 0.0 Q 50.08105580675556 0.0 49.76747837327187 0.11759176887209691 Q 48.90513887913791 0.8427398001952384 48.06239919833143 2.342033471016531 Q 47.21965927874743 3.84132726122658 46.729693792749444 4.782060278010171 Q 46.23972827690427 5.722793533571275 45.906552447834585 6.7419217444470805 Q 45.592974074164445 7.2514853723299595 45.94574937331894 7.917837955732192 Q 46.29852464262625 8.58419101668945 46.465112072144265 9.338737506960076 Q 46.631700516466715 10.093283997230701 47.47444133146638 11.945352221026761 Q 48.31718125105038 13.79742139993287 48.454371348352296 14.973338566328032 Q 48.49356834845462 15.737683530597325 48.61116006509414 16.17865306493929 Q 48.728751781733656 16.619621644171207 48.92473845368787 16.97239536142468 Q 49.12072393175453 17.325170988898254 50.179049142732666 17.991524527410537 Q 50.232017635862405 18.000000173990532 50.275137034160856 18.000000173990532 Q 50.630876845673306 18.000000173990532 50.316239240034584 17.423163369765312 Q 49.80667513459668 17.011593077859544 49.55189308187773 16.649019931497357 Q 49.297111267936295 16.286444874915066 49.25791426783397 15.688687340163794 Q 49.246135850702515 15.509065523799123 49.336998335049444 15.509065523799123 Q 49.548514380077336 15.509065523799123 50.316239240034584 16.482431546869286 Q 50.46742838533324 16.663858521227667 50.623801390426 16.663858521227667 Q 50.77148671450776 16.663858521227667 50.923796203894575 16.502030405086717 Q 50.55142267331362 15.992465822093788 50.21824685916753 15.149725424954768 Q 49.963463612561014 14.698957416614137 49.21871726773164 14.052203691429336 Q 48.76794878183598 13.052674338770961 48.581761777767994 12.004148795679058 Q 48.39557596758757 10.955623252587154 48.17999091497094 9.946294470820064 Q 47.96440586235431 8.936965689052974 47.08246906205675 7.310281946982254 Q 47.08246906205675 6.4871394529506174 47.96440586235431 5.399417626088924 Q 48.84634349837317 4.311694366562157 49.375505984473484 2.7242071470387392 Q 49.904668470573796 1.1367196887378095 51.33536697335537 1.0779233528630268 Q 52.78566433435437 1.1367196887378095 53.314826820454684 2.7242071470387392 Q 53.843989306554995 4.311694366562157 54.72592646501883 5.399417626088924 Q 55.60786362348266 6.4871394529506174 55.60786362348266 7.310281946982254 Q 54.706327606801395 8.936965689052974 54.50054246084851 9.946294470820064 Q 54.29475731489563 10.955623252587154 54.10857007205013 12.004148795679058 Q 53.922383784314675 13.052674338770961 53.47161529841902 14.052203691429336 Q 52.72686775970208 14.698957416614137 52.47208690087069 15.149725424954768 Q 52.13891013161455 15.992465822093788 51.766536123478566 16.502030405086717 Q 51.918845135310356 16.663858521227667 52.06653045939212 16.663858521227667 Q 52.222903942039906 16.663858521227667 52.374093564893585 16.482431546869286 Q 53.14181818607332 15.509065523799123 53.3485393398748 15.509065523799123 Q 53.437341651844775 15.509065523799123 53.42261863043046 15.688687340163794 Q 53.3736219624419 16.286444874915066 53.12863957760918 16.649019931497357 Q 52.88365767033148 17.011593077859544 52.374093564893585 17.423163369765312 Q 52.0419755351274 18.000000173990532 52.411416400301114 18.000000173990532 Q 52.456196257420764 18.000000173990532 52.5112836621955 17.991524527410537 Q 53.569608634396126 17.325170988898254 53.76559530635034 16.97239536142468 Q 53.961580545639485 16.619621644171207 54.07917273983403 16.17865306493929 Q 54.19676397891852 15.737683530597325 54.21636283713595 14.973338566328032 Q 54.37315179265531 13.79742139993287 55.215892189794324 11.945352221026761 Q 56.058631631823296 10.093283997230701 56.22522001645136 9.338737506960076 Q 56.39180840107943 8.58419101668945 56.73478364433424 7.917837955732192 Q 57.077759842699095 7.2514853723299595 56.783780789877824 6.7419217444470805 Q 56.45060402062168 5.722793533571275 55.960639250956234 4.782060278010171 Q 55.47067352618074 3.84132726122658 54.62793312904172 2.342033471016531 Q 53.7851927319027 0.8427398001952384 52.9228544316563 0.11759176887209691 L 52.609276043062565 0.0 Z"
     style="fill:#ffffff;stroke:none"
     id="path10" />
  <path
     d="M 75.72819602545155 4.307662836085662 Q 76.25077205601815 4.307662836085662 76.62093747996096 4.775807584728895 Q 76.9910971108061 5.243951307511082 76.9910971108061 5.701210644596387 Q 76.9910971108061 6.202016938252939 76.70803284137787 6.593948961177887 Q 76.25077205601815 7.051207091367843 75.70641977130663 7.051207091367843 L 60.87819817996788 7.051207091367843 Q 60.35561575285594 7.051207091367843 59.876584506448964 6.593948961177887 Q 59.59352071977888 6.202016938252939 59.59352071977888 5.701210644596387 Q 59.61529377565113 5.243951307511082 59.9854557599422 4.775807584728895 Q 60.35561575285594 4.307662836085662 60.856424098234584 4.307662836085662 ZM 60.943520425167776 3.6544370651245117 Q 59.94190771716514 3.6544370651245117 59.41932728143052 4.307662836085662 Q 58.9185209274292 4.960888607046812 58.9185209274292 5.722984484950615 Q 58.94029498464744 6.485077586995118 59.39755319969722 7.051207091367843 Q 59.94190771716514 7.682660771973019 60.943520425167776 7.682660771973019 L 75.64110066403464 7.682660771973019 Q 76.64270794100821 7.682660771973019 77.18706408778485 7.051207091367843 Q 77.66609726522438 6.485077586995118 77.68786965730419 5.722984484950615 Q 77.66609726522438 4.960888607046812 77.1652936267376 4.307662836085662 Q 76.64270794100821 3.6544370651245117 75.64110066403464 3.6544370651245117 ZM 75.74996841753136 10.948779307823543 Q 76.27255024119563 10.948779307823543 76.64270794100821 11.427820692151442 Q 77.01287336495102 11.906854352349114 77.01287336495102 12.364110310127444 Q 77.01287336495102 12.843143487566977 76.72980523345768 13.235080338073317 Q 76.27255024119563 13.692336295851646 75.72819602545155 13.692336295851646 L 60.92174634343448 13.692336295851646 Q 60.37738983458924 13.692336295851646 59.92013363543184 13.235080338073317 Q 59.63706785738443 12.843143487566977 59.63706785738443 12.364110310127444 Q 59.63706785738443 11.906854352349114 60.007229841675496 11.427820692151442 Q 60.37738983458924 10.948779307823543 60.89997226170118 10.948779307823543 ZM 60.965294506901074 10.317328765146272 Q 59.9636816782089 10.317328765146272 59.44110130281905 10.948779307823543 Q 58.94029498464744 11.602013346017827 58.94029498464744 12.364110310127444 Q 58.962069041865675 13.1262077569952 59.41932728143052 13.692336295851646 Q 59.9636816782089 14.345563092673842 60.9870683472553 14.345563092673842 L 75.66286919404934 14.345563092673842 Q 76.68626044929806 14.345563092673842 77.23061273400958 13.692336295851646 Q 77.68786965730419 13.1262077569952 77.70964398041656 12.364110310127444 Q 77.68786965730419 11.602013346017827 77.20883647986466 10.948779307823543 Q 76.68626044929806 10.317328765146272 75.6846435171617 10.317328765146272 Z"
     style="fill:#ffffff;stroke:none"
     id="path12" />
</svg>
