<?xml version="1.0" encoding="UTF-8" standalone="no"?>
<svg
   width="84.93543243408203"
   height="18.0"
   version="1.1"
   id="svg18"
   sodipodi:docname="iritashef.svg"
   inkscape:version="1.1.1 (3bf5ae0d25, 2021-09-20)"
   xmlns:inkscape="http://www.inkscape.org/namespaces/inkscape"
   xmlns:sodipodi="http://sodipodi.sourceforge.net/DTD/sodipodi-0.dtd"
   xmlns="http://www.w3.org/2000/svg"
   xmlns:svg="http://www.w3.org/2000/svg">
  <defs
     id="defs22" />
  <sodipodi:namedview
     id="namedview20"
     pagecolor="#ffffff"
     bordercolor="#666666"
     borderopacity="1.0"
     inkscape:pageshadow="2"
     inkscape:pageopacity="0.0"
     inkscape:pagecheckerboard="0"
     showgrid="false"
     inkscape:zoom="16.188768"
     inkscape:cx="42.467716"
     inkscape:cy="8.987713"
     inkscape:window-width="1920"
     inkscape:window-height="1001"
     inkscape:window-x="-9"
     inkscape:window-y="-9"
     inkscape:window-maximized="1"
     inkscape:current-layer="svg18" />
  <path
     d="M 5.454143572319105 0.38638405261740716 C 5.6751986350969625 0.38638405261740716 6.0198472107908465 0.43846304248784007 6.211377729173311 0.48978353459751095 C 7.043040107707465 0.7126268987793605 6.2060781548689725 1.4576656313354053 5.670499150679329 1.4576656313354053 C 5.645675310396461 1.4576656313354053 5.621499128101075 1.4560650867138016 5.598166364823283 1.4527377590493051 L 5.598166364823283 1.4527377590493051 C 5.2452836289156854 1.5270191599566676 5.657208135444718 1.6516913405425198 6.100369028149615 1.6516913405425198 C 6.371794440716527 1.6516913405425198 6.654937462107786 1.6049233596160355 6.781255773411818 1.4711656717820771 C 6.852830518892686 1.3953753558318478 6.912108910323108 1.3639720239176871 6.9629476229505665 1.3639720239176871 C 7.148321731367289 1.3639720239176871 7.221486349139459 1.7814996563172263 7.369436559194839 1.9870992028133305 C 8.109766964545285 2.2320299455576382 8.572153297980249 2.899799787031018 9.050509706479392 3.4727819547688448 C 10.427930052921685 5.122675736613722 11.668260962471539 6.8783423742360466 12.967744634877972 8.588242400437956 C 12.611392476850998 8.48312787497829 12.224502817821092 8.278009345655091 11.870752268998066 8.107222788142833 C 10.250106465731893 7.324793393911243 8.524267466685542 6.706575791878325 7.056547618785348 5.653163124478057 C 6.324634327882369 5.1278539512763395 5.345499249842926 4.51876911966858 5.264370024428102 3.5973664697843573 C 5.202570523656583 2.8954927394447814 6.490844590161053 2.259560441267 6.397605624014208 1.8800112110189322 C 6.386753388715507 1.8358343194279554 6.355336487695676 1.8161086513304385 6.30878866169714 1.8161086513304385 C 6.033909073196996 1.8161086513304385 5.231366300354198 2.503995530499702 5.02003007139695 2.906660570796704 C 4.938768814010101 3.0614904698885916 4.879530977434828 3.123278383558639 4.83783143863071 3.123278383558639 C 4.6918117006651325 3.123278383558639 4.760840637983347 2.365644014318102 4.852316840087996 2.1923293342191177 C 5.162809689882786 1.604057223781083 4.223751651517808 0.8679923201596249 4.752486337822802 0.5290855725147102 L 4.752486337822802 0.5290855725147102 C 4.736400696667635 0.6173537864769199 4.7540868824444065 0.8663049485079197 5.0637960782712925 0.8663049485079197 C 5.3886697406864075 0.8663049485079197 5.369079611183729 0.4656883095505593 5.2689176568317215 0.41293273205443365 C 5.301349953848873 0.39420801419286505 5.36846244556854 0.38638405261740716 5.454143572319105 0.38638405261740716 ZM 6.069788227978029 5.863214709790646 C 6.323975692640863 6.762449405018629 6.696283899240764 7.629413412802606 7.135400893532303 8.452206779931927 C 7.351771108231227 8.857629702840873 8.265934259085897 9.502025616333867 7.620163139602537 9.830196723888633 C 7.602866036496212 9.834973658931888 7.585570762932224 9.837214848295345 7.568255974249969 9.837214848295345 C 7.310987560290759 9.837214848295345 7.049406915042022 9.342463910909716 6.712954689020212 9.320119100494184 C 6.67903192484543 8.693869197752123 6.575001708144468 8.06546836306859 6.448145511393205 7.446592735641611 C 6.344633665021206 6.9416012399454585 6.088178787554743 6.271072143703381 6.069788227978029 5.863214709790646 ZM 6.774795659418047 6.459697958701316 L 6.774795659418047 6.459697958701316 C 7.569842797304042 7.0356641099916315 8.405933278142431 7.553192239631892 9.246634815518807 8.060175497086155 C 9.468879080816052 8.556551677914943 9.280516719914718 9.282423820019444 9.395827284821362 9.864688475730382 C 8.857778398476073 9.501763991779603 8.28369911518318 9.486578790378216 7.938584616040677 8.798798329588251 C 7.554208138335073 8.032772611954833 6.9204552824668575 7.305266688542932 6.774795659418047 6.459697958701316 ZM 7.000934410504418 10.059063322600238 C 7.135474685073249 10.295082212156643 7.336466376730457 10.443322709596242 7.539293099352194 10.443322709596242 C 7.698827361641281 10.443322709596242 7.8594965500270755 10.351611411301223 7.9898569302021265 10.138767334534139 C 8.175012103385795 10.34420664361385 8.218963808807393 11.064965824732438 8.219863943637453 11.464443954739346 C 8.22078908221279 11.875067656666406 8.005229354769385 11.909575264541749 7.754371047313386 11.909575264541749 C 7.7036902851744005 11.909575264541749 7.6515684535208965 11.908167736636754 7.599499678595182 11.908167736636754 C 7.503209645676805 11.908167736636754 7.407101347297289 11.912984311763987 7.320625589324795 11.940433545301191 C 7.276695228563797 11.95437831699774 7.230527337524019 11.959987693804566 7.182692123567317 11.959987693804566 C 6.98565285320659 11.959987693804566 6.760333737087427 11.864796605983589 6.546653559472097 11.864796605983589 C 6.526873767413762 11.864796605983589 6.507193990336545 11.865612581866122 6.487645330460182 11.867394556102862 C 6.488004530605782 11.347772820181039 6.847494963589043 10.641789022980232 7.000934410504418 10.059063322600238 ZM 8.603951963501176 7.092214653796816 C 10.294832067562263 7.858253788074042 11.963344187004877 8.682241846349761 13.658331003766241 9.443264375537517 C 14.306199998463287 10.121921518537734 14.89692628748524 10.890737288235863 15.617332976780133 11.491755362753791 C 16.156479588527933 11.941553225211752 15.463364792129216 11.850415183515821 15.144459706666524 11.910077778837119 C 14.899576684484854 11.955893178053204 14.652335992077571 11.9891323032412 14.405890540739662 12.026157361372965 C 13.536195636093217 11.155342776815962 12.661034058942274 10.288166542120832 11.825686982140361 9.38497027788468 C 10.917455817391367 8.402968916849794 9.68127857879512 7.847318613522707 8.603951963501176 7.092214653796816 ZM 8.091606927303099 12.784580720746556 C 9.197498187112684 12.784580720746556 10.303223568417005 12.797552175919549 11.407920746927639 12.826530906850914 C 11.963618618355504 12.841107480501353 12.604689033726338 12.804320262873466 13.102683139828937 12.991104338584968 C 12.444715071428801 13.03259835879984 10.798614845620763 13.0486666193028 9.061392434150386 13.0486666193028 C 7.040896493935342 13.0486666193028 4.8971381879673626 13.026930436638214 4.041370674365262 12.998177349261805 C 4.035477718496122 12.998220038583016 4.0297003287179685 12.998241993091064 4.024036980412186 12.998241993091064 C 3.5148780921948943 12.998241993091064 3.9273603042131473 12.826321119329545 4.211845294908974 12.826321119329545 C 4.238601131900259 12.826321119329545 4.264224787108344 12.827842078859469 4.287843263914512 12.831169406523964 C 5.555116623774078 12.801636934111775 6.823471243155116 12.784580720746556 8.091606927303099 12.784580720746556 ZM 3.229631402039215 13.527964022410872 C 3.9800867996092 13.538300936617839 4.730666606058136 13.547631602539173 5.48073658004235 13.573154937842418 C 5.974628852224238 13.589961113754843 6.468692491538405 13.596169360753482 6.962812846665035 13.596169360753482 C 8.360743582405776 13.596169360753482 9.759126824951332 13.546476551476754 11.155349987843726 13.546476551476754 C 11.342591449139606 13.546476551476754 11.529792660504063 13.547370587832354 11.716949962852416 13.549397720742322 C 10.555885804617795 14.183214610592351 9.295635447944509 14.718425266924708 7.950956591174409 14.762796547389044 C 7.799163122515353 14.767805834309163 7.651256821476073 14.770698950592223 7.506199727703753 14.770698950592223 C 6.745573599355791 14.770698950592223 6.06331774657768 14.691151669451905 5.310047598121426 14.420004957167741 C 4.653584023370175 14.183703708243913 3.8042879059395918 13.89691074988931 3.229631402039215 13.527964022410872 ZM 9.878584352489678 15.08641697330296 C 9.849530000475026 15.08641697330296 9.823518177367665 15.092904530431793 9.801197760849965 15.106699279656667 C 9.544953890599764 15.265069343171648 10.169278504955312 16.43707782366929 10.695870187335629 16.718978585813375 C 10.73537854426685 16.740128095235065 10.774061167756402 16.749551457968167 10.810766665826547 16.749551457968167 C 11.003336974104167 16.749551457968167 11.141447905468382 16.490179680168257 11.058481819546692 16.304211580339288 C 10.844383896430964 15.824310428259835 10.18845698743205 15.08641697330296 9.878584352489678 15.08641697330296 ZM 5.031377807745396 15.140798289743296 C 4.989399568658528 15.140798289743296 4.926357808639836 15.166799745444079 4.836820006641786 15.226750188759814 C 4.404607095284589 15.5161398775388 3.394055116225315 16.294390597071498 4.0142925329988515 16.722726708215504 C 4.056939164886357 16.752178680764843 4.100021532773916 16.765133060209347 4.142866670005041 16.765133060209347 C 4.367006341163952 16.765133060209347 4.58465113702468 16.41059092940162 4.699421682018032 16.208593599306226 C 4.818436155386976 15.999129297083979 5.2725627150155 15.140798289743296 5.031377807745396 15.140798289743296 ZM 9.090395558979587 15.318185836009313 C 8.817462603526561 15.318185836009313 9.117006862126209 16.79410813205604 9.59252321107008 17.108873573056375 C 9.624085865629468 17.129766946550816 9.662353183008404 17.139328134806675 9.7019237443791 17.139328134806675 C 9.808466532556917 17.139328134806675 9.924459516755453 17.07001409380753 9.944487516724246 16.965927771141548 C 10.06708575860866 16.328790871796375 9.471438610546237 15.35620982425736 9.098430299078512 15.3185980928827 C 9.095698792368601 15.318322441837182 9.093020952233923 15.318185836009313 9.090395558979587 15.318185836009313 ZM 5.813290051342912 15.334595611081944 C 5.762056157570551 15.334595611081944 5.6837980939307355 15.397157421160761 5.569301065516842 15.551481756720047 C 5.266789289245744 15.95922088022829 4.5258087865180325 16.80730645047888 5.132767994853322 17.12234144405028 C 5.172965479398338 17.143205544867318 5.210868717852111 17.152645983328902 5.2466228539067465 17.152645983328902 C 5.501107314275703 17.152645983328902 5.646734005562437 16.67436092698092 5.736180330443612 16.43252348294377 C 5.81843167515878 16.21013773303909 6.004955346010909 15.334595611081944 5.813290051342912 15.334595611081944 ZM 8.084197280836158 15.497188258311914 C 8.061304827414261 15.497188258311914 8.040999346857612 15.508953435237036 8.024002288694641 15.534490187184089 C 7.779368084270872 15.902031826147313 7.859889291782196 17.025052481015617 8.44457443200567 17.350611002112412 C 8.477321410304873 17.36884544074299 8.5095817303423 17.37699910109386 8.54061320777636 17.37699910109386 C 8.712565793605062 17.37699910109386 8.846783458875045 17.126639648848553 8.816920449147212 16.95369179198824 C 8.746119600075112 16.543659642083643 8.300101572086461 15.497188258311914 8.084197280836158 15.497188258311914 ZM 6.75532262062497 15.485684096093609 C 6.738393255528486 15.485684096093609 6.719172693577984 15.49322303021907 6.697420045032361 15.509370570889988 C 6.3057388146205 15.800128757337436 5.679560264029602 16.97476811971643 6.318469380052385 17.354321313972893 C 6.352644621069744 17.374624355139762 6.386393578722462 17.383708642692973 6.419196662986684 17.383708642692973 C 6.610484462085705 17.383708642692973 6.7696040281116225 17.07479041900334 6.793552127462265 16.88013443246095 C 6.834695485395779 16.54571360828123 6.956077691473192 15.485684096093609 6.75532262062497 15.485684096093609 ZM 7.409580377164622 15.468416875512132 C 7.39733464045218 15.468416875512132 7.384780930779589 15.471718589583901 7.371922907231523 15.478607426332097 C 7.04806464081373 15.652117562537471 6.752394743037498 17.05085024766949 7.3581062034986005 17.423058439288273 C 7.389001684952238 17.442042990277237 7.419877041440165 17.450504013740805 7.449994967400358 17.450504013740805 C 7.6143226306137395 17.450504013740805 7.756113991313593 17.19863701860939 7.755634651221164 17.030030055868558 C 7.75432652844984 16.56993308974527 7.633263882434045 15.468416875512132 7.409580377164622 15.468416875512132 ZM 5.632034852575385 0.0 C 5.427092569164034 0.0 5.224417088708866 0.019432907972482025 5.033733343504948 0.05443384431604181 C 4.467006076095366 0.1584592489395021 3.5938344311601953 0.3646307561088724 3.603155949369841 1.0504667564332457 C 3.67258220229902 1.0309202310229437 3.7366997332121716 1.0218254998322194 3.7957738257482365 1.0218254998322194 C 4.346064179873848 1.0218254998322194 4.458737154577238 1.8110103266832265 4.348558760851052 2.292443415546627 C 4.124233391144884 3.272651977552607 4.609814357411156 4.257232688359666 5.247062553915197 4.998988307191039 C 5.671593826844609 6.267997902728908 6.207430796503842 7.594017867046124 6.200945678764793 8.927216345648308 C 6.198242225037389 9.48290994814405 6.608764082440994 9.519405658692827 6.457257851928928 10.084834255966495 C 6.320555668164599 10.595013723884398 6.084080612718707 11.65061086483566 5.574068852848409 11.775453955168208 C 5.5141812238195955 11.78026809090566 5.453413584926436 11.78228912534117 5.392016583469171 11.78228912534117 C 5.069385635036129 11.78228912534117 4.729385926421875 11.726455152284846 4.408483590574062 11.726455152284846 C 4.153773486650145 11.726455152284846 3.9110950629851815 11.761631152960828 3.698682758209751 11.887824445538461 C 3.254193922691541 12.151893268366223 2.920155472860361 12.347759192241154 2.3871648136927193 12.347759192241154 C 2.364082850177029 12.347759192241154 2.3406278124863467 12.34739206407876 2.31677439195167 12.346646830499944 C 2.290907712536418 12.345839392481654 2.2648745447684524 12.34543567347251 2.2387011120879436 12.34543567347251 C 1.3440312774539256 12.34543567347251 0.28566830681618954 12.817335627062558 0.12083169732265768 13.756412875622079 C -0.12329519978597013 15.147207786399061 0.07662177391650889 16.583104574880497 0.08494513861247754 17.989033459873415 C 0.2900051035231433 17.99360365663253 0.4966322048500206 17.999999736644487 0.702869308735284 17.999999736644487 C 0.8657836504929329 17.999999736644487 1.0284545868887616 17.996007675264025 1.1899174917253144 17.98397172607295 C 1.1137838316630781 17.140422201124508 1.057380489785133 16.29003262722354 1.1114740344619638 15.445312195179083 C 1.150002671471443 14.84365012175835 0.997819586525427 14.00504767929055 1.5763723295263372 13.66371240476991 C 1.7040717928333333 13.58837307100588 1.83171911418371 13.55691470035973 1.9589124041106598 13.55691470035973 C 2.4652981635298614 13.55691470035973 2.9644861984695505 14.055524752382627 3.4311076174921418 14.268706684634704 C 4.73678032670267 14.865220425917668 6.127831678330627 15.305327812461249 7.577851313962796 15.305327812461249 C 7.611054458151489 15.305327812461249 7.644288094712474 15.305097290126723 7.677552223645749 15.304632586372993 C 9.433900060865076 15.280083787288198 11.05346399476233 14.553760358073777 12.55629032072968 13.72891485428921 C 12.670762345398295 13.628126586610326 12.818380798443139 13.581008553249928 12.96633954636276 13.581008553249928 C 13.24669495507909 13.581008553249928 13.528272498076879 13.750179015030715 13.587881426822944 14.043930332742338 C 13.850096313415355 15.336104373662948 13.742097209536873 16.675576962787922 13.65541349358535 17.983352121067977 C 13.812261377875515 17.996239417293445 13.969778874661216 17.999448434553447 14.127512257442742 17.999448434553447 C 14.284036922586616 17.999448434553447 14.44077381464164 17.99628820508911 14.597282623751921 17.99628820508911 C 14.650358866658163 17.99628820508911 14.703408276276786 17.99665167416683 14.7564149965742 17.99762499069039 C 14.763825862736033 17.086932481649992 14.844901421575624 16.174760482705985 14.803086621604242 15.264876631378764 C 14.769945072007578 14.543717390335702 14.910211204245392 13.715322574416355 14.386286384745727 13.121748297822336 C 13.705550271802647 12.350515702696345 12.623079593303054 12.361563699025162 11.682409423214999 12.296510052282647 C 11.644045140092175 12.293857215893247 11.604677048073496 12.292852187302506 11.564630805695048 12.292852187302506 C 11.439513284011872 12.292852187302506 11.307763061507753 12.302662193316268 11.179225515348314 12.302662193316268 C 11.022081245199468 12.302662193316268 10.869737694144266 12.28799902132852 10.740179263360492 12.222823405096838 C 10.44570344688321 11.920581791244247 10.080689625582988 11.8638281682396 9.700766253926899 11.8638281682396 C 9.472275931089374 11.8638281682396 9.238393337135744 11.88435563326653 9.011219065086339 11.88435563326653 C 8.936831703185263 11.88435563326653 8.863163961270274 11.882155303681946 8.79064029316368 11.876311745455919 C 8.748275410796152 11.287905316117937 8.716179749569102 10.698756092590925 8.6841725162217 10.109697736333342 C 8.716601154154176 10.078576001477298 8.754075060006079 10.064937373198559 8.795398322936116 10.064937373198559 C 9.088549550761034 10.064937373198559 9.575443823501919 10.751298109134611 9.829342220475425 10.751298109134611 C 9.9047779101359 10.751298109134611 9.959645884838014 10.690709765390528 9.982754224255737 10.533531343784716 C 10.077034809840075 9.89225845906186 9.828121305888857 9.191179055020491 9.837226938102676 8.515557122758214 C 9.842454550408405 8.515291839119273 9.84775473456019 8.515160721918418 9.8531244413208 8.515160721918418 C 10.13787319103695 8.515160721918418 10.618515917610546 8.883683605421998 10.906077283746905 9.132975214789639 C 11.80432402611263 9.911679050974598 12.57521510666895 10.850011675802751 13.418602412196801 11.698699775329832 C 13.753165940678848 12.0785896053764 14.10034965220508 12.50165297550368 14.581990089200067 12.50165297550368 C 14.7115546184583 12.50165297550368 14.850847434172552 12.471038633722571 15.00224206260203 12.400734200471387 C 15.482807948397447 12.177569065530927 16.501952068121145 12.466298899373513 16.611020844419624 11.85703812677763 C 16.148715010847514 11.316222972418016 15.616514561507817 10.838956361304586 15.141690999262417 10.30954047540259 L 15.141690999262417 10.30954047540259 C 15.720475255599954 10.584491416053895 16.284632930796494 10.987831100087856 16.88805136486124 11.251485226652445 C 17.013493325385603 11.306294655999759 17.089085135992214 11.329256632030482 17.12721035891627 11.329256632030482 C 17.308927822047742 11.329256632030482 16.63947510654757 10.807612641978256 16.459826245952385 10.726662711712507 C 15.79457415965915 10.42689585879513 17.084456393878295 10.539115106998816 16.55768114741678 10.121722708270392 C 15.402974038957586 9.206783221617167 14.091566629290112 8.473895394495738 12.859382061921773 7.648877913731442 C 12.06805133437072 6.650734500652652 11.353425998862377 5.582082965275763 10.559610752816978 4.581358372882461 C 9.89897704123108 3.80707897991706 9.337823474552744 2.944969967649405 8.617586932695238 2.225430481422494 C 8.174952338336102 1.7832239999703352 7.524531741925666 1.6598222840760268 7.480633703079299 0.9374621771811809 C 7.138186066817449 0.2522410174286094 6.370398499913002 0.0 5.632034852575385 0.0 Z"
     style="fill:#ffffff;stroke:none"
     id="path2" />
  <path
     d="M 23.70382831646907 7.697868710704474 Q 23.622835017932175 7.849731266150688 23.521593394761055 8.031966308548238 L 23.34948239399108 9.034259343458604 Q 23.34948239399108 9.560716266706567 23.521593394761055 10.016304053734746 Q 23.70382831646907 10.411146866860253 23.977181423168304 10.724996140069795 Q 22.144706112738476 10.39089854222603 20.67670112848282 10.228911703773168 Q 21.59800086485629 9.68220645589098 22.12445778810425 9.01401101882438 Q 22.661038873669327 8.345815702447315 23.70382831646907 7.697868710704474 ZM 28.026850212078216 7.616875291478043 Q 28.583679863656585 7.657371940746491 29.899821447639283 8.457181608625081 Q 31.21596399713826 9.246866993497026 32.61309984517413 9.763199754427877 Q 31.590558244250474 9.823944728330549 30.385782204376937 10.198539216821832 Q 29.17088176080722 10.563009542996003 27.83449040391588 10.745244464704019 Q 28.0470980539543 10.49214016539715 28.259705703992722 10.026428216051858 Q 28.462188950334962 9.560716266706567 28.462188950334962 9.034259343458604 Q 28.462188950334962 8.49767825789353 28.269830107688904 8.031966308548238 Q 28.168588001759645 7.80923461688224 28.026850212078216 7.616875291478043 ZM 25.89685854318475 7.150530627246508 Q 26.2462610223169 7.150530627246508 26.56896939013967 7.292901795606622 Q 26.91319090892148 7.434640188735725 27.17641961192453 7.67762038607025 Q 27.43964831492758 7.91047624005336 27.601634912001373 8.24457395858666 Q 27.7332492635029 8.578671556430425 27.753497105378983 8.96339020723882 Q 27.773745912771346 9.348108616668146 27.63200715757364 9.68220645589098 Q 27.48014496419603 10.016304053734746 27.247288506765244 10.279532515358728 Q 27.004308611154556 10.552885139299821 26.67021101331079 10.70474781543557 Q 26.336113415467025 10.846486087875139 25.95139476465863 10.85661049157132 Q 25.926422168873785 10.85728538744998 25.901584745367927 10.85728538744998 Q 25.55385309215569 10.85728538744998 25.23257851600647 10.724996140069795 Q 24.888356514466523 10.583257867630227 24.62512829422161 10.350401651578512 Q 24.37202399491474 10.117545676905866 24.22016131877899 9.7834480790621 Q 24.078423046339424 9.449350481218335 24.0581747217052 9.054507668092828 Q 24.0581747217052 8.679913420980615 24.199912994144768 8.345815702447315 Q 24.331527345646293 8.011717983914014 24.56438332031894 7.748489522290034 Q 24.807363215929627 7.47513689834894 25.141460813773392 7.343522667536949 Q 25.475558411617158 7.161287564794631 25.85015314148751 7.151163402477519 Q 25.873565462966326 7.150530627246508 25.89685854318475 7.150530627246508 ZM 25.840927150688458 6.464277267456055 Q 25.17884270752745 6.464277267456055 24.534010591988533 6.604458109336757 Q 23.13687498533173 6.908183265487762 21.69924248802741 8.416684838667098 Q 20.261610111412622 9.915062430563626 19.178323676133566 10.016304053734746 L 19.1580753326416 10.724996140069795 Q 21.618249189490513 10.937603790108216 23.987305344106346 11.372943011123102 Q 24.87312646068972 11.535722297061529 25.850953554482373 11.535722297061529 Q 27.48824468025623 11.535722297061529 29.38348941084564 11.079342062547784 Q 32.40049219513571 10.350401651578512 33.21042614602095 10.198539216821832 L 34.54681653739601 10.198539216821832 L 34.54681653739601 9.327860292033922 L 33.1699294967525 9.327860292033922 Q 32.18788454509729 8.993762694190156 30.537644397754548 8.001593821596902 Q 28.897528654107987 7.0094250093484165 27.409275103839036 6.655078966180892 Q 26.613359483801105 6.464277267456055 25.840927150688458 6.464277267456055 Z"
     style="fill:#ffffff;stroke:none"
     id="path4" />
  <path
     d="M 40.82120937071603 0.5885034526952848 C 41.87268411655425 0.5885034526952848 43.18881489347918 1.128650885509921 43.82567436605512 1.7655103580858544 C 44.38286035539884 2.3226958748058935 44.455702063239855 3.0614199305754872 44.47612555061306 3.747837777691024 L 37.19726705675033 3.747837777691024 C 37.21769078043538 3.0614199305754872 37.29053248827639 2.3226958748058935 37.84771824130828 1.7655103580858544 C 38.484577950196055 1.128650885509921 39.7697350975015 0.5885034526952848 40.82120937071603 0.5885034526952848 ZM 40.82120937071603 0.0 C 39.573822890580296 0.0 38.23165881943291 0.5762492657466223 37.44505798420098 1.3628501009785543 C 36.63825750983563 2.1696508725798873 36.54681587219238 3.231796988640021 36.54681587219238 4.026602571073001 L 36.54681587219238 4.336341230386309 L 45.09560286923968 4.336341230386309 L 45.09560286923968 4.026602571073001 C 45.09560286923968 3.231796988640021 45.03513539476375 2.1696508725798873 44.22833462316242 1.3628501009785543 C 43.44173426055417 0.5762492657466223 42.06859608716361 0.0 40.82120937071603 0.0 Z"
     style="fill:#ffffff;stroke:none"
     id="path6" />
  <path
     d="M 41.50511245751821 6.938611855842636 C 42.0502526869591 6.938611855842636 42.466541520695976 7.156667900356625 42.942299647682475 7.374723944870615 C 43.26938406892123 7.612603244675709 43.54690964299669 7.959510448581877 43.81452382573844 8.435269166347986 L 38.957821789492876 8.44518079399354 C 39.22543597223463 7.959510448581877 39.50296178262193 7.612603244675709 39.83004573123699 7.374723944870615 C 40.31571595849273 6.988170053148357 40.870767815579185 6.988170053148357 41.44564269164489 6.948523542566148 L 41.44564269164489 6.938611855842636 ZM 43.93346335748507 8.752441487317498 C 43.39823499200156 11.170880995950647 43.04141639676169 15.016596303414362 42.90265313710027 17.296273025009782 L 38.03603947320916 17.296273025009782 C 38.511798072819346 16.642104182532282 39.23534759988018 16.235727212752803 39.91925061635881 15.859084889598135 C 39.83995735888254 13.460469108879776 39.3641989955842 11.101499366119938 38.84879376723588 8.772264742608602 L 43.93346335748507 8.752441487317498 ZM 41.39608431710529 6.29435546810214 C 40.31571595849273 6.304267104978623 40.07783665868764 6.512411483077149 39.45340364439417 6.849407147954706 C 38.90826353310919 7.255784294968068 38.491974817528245 7.850482544480803 38.1351558678206 8.64341334690458 L 38.1549791231117 8.64341334690458 C 38.75958900026999 11.121322621411043 39.12631969577911 13.35144096846686 39.245259227525736 15.492354430400864 C 38.10542098488394 15.968113502634738 37.21337362538433 16.96918907639472 37.005229252824364 17.940529058282515 L 43.51717499637188 17.999999296779514 C 43.626202664161106 15.789703732391114 44.022668242606876 11.160969131993252 44.63718962925479 8.64341334690458 C 44.00284498731577 7.107109703050904 42.98194663088837 6.314178741855106 41.39608431710529 6.29435546810214 Z"
     style="fill:#ffffff;stroke:none"
     id="path8" />
  <path
     d="M 53.38668616916334 8.358100832650086 L 53.38668616916334 8.358100832650086 C 54.74631576404077 9.885922117686794 55.87205545004693 11.62927476804612 56.875374922945426 13.400073328036912 C 57.08616871780433 13.660125520203652 56.848965318686076 13.898161871901502 56.67495883786484 14.145155517175231 C 56.013907152218174 12.045913495810092 54.49235804895934 10.426151711120813 53.38668616916334 8.358100832650086 ZM 52.070689488336235 0.6474849857732407 C 52.18411546239071 1.1762481228524306 51.97530115124643 1.7865223719377918 51.57418135596431 1.966515699424862 L 51.702373002231624 2.240207184747948 C 52.20346725914369 2.002081828036552 52.68499506913289 1.289058695175161 52.75667112714228 0.6490295204594144 C 53.44084152155605 0.6896560344595853 53.62794441075118 1.204951705385422 53.73499225194818 1.8027953280249667 C 53.863262063853455 2.211347728940806 53.733145588751185 3.20289930397633 54.25088546253614 3.374202963597202 C 55.78004105943972 3.966316831239535 56.94898619116357 4.651065834574974 57.99814614671594 5.6860591842492365 C 59.80859300522785 7.950189176231418 61.70061303498778 10.143128592096264 63.51101226131405 12.409718358998248 C 64.21449689633444 13.291638046765982 64.85779032610529 14.099637467777974 65.38010899640182 14.709218302160892 C 62.6306876410961 12.653990863000223 59.55858876155426 11.081966299023636 56.544717175608014 9.448492551561461 C 54.94286936740146 8.578165194305791 53.4145131362799 7.86641698574649 53.4145131362799 5.950174157583164 C 53.4145131362799 4.9197611310931055 55.31350761722133 4.056297083252443 55.235147175827585 3.922203015314987 C 55.22836569606483 3.9105984714219915 55.206416418522025 3.9047681086993484 55.171817131678395 3.9047681086993484 C 54.78202219386593 3.9047681086993484 52.78668673212195 4.644770447373326 52.78668673212195 6.205331226672165 C 52.78668673212195 6.637423545330004 52.90233157215732 7.038479831031272 53.10341389716777 7.412228828974654 C 53.10039291739412 7.412013873470243 53.09740002839661 7.4117922006063175 53.094346683163494 7.411611442568518 C 50.90579248172246 6.25196802176284 51.25327416129435 3.90608013114602 51.338121129301335 1.8380106272693715 C 50.428708205051024 1.7876722617525846 49.679513465218214 1.2913253460089678 48.81587232335403 1.0848966134953295 C 49.48577519882973 0.998232599740114 50.1535349312863 0.8864182576333198 50.82504188168022 0.817074650047501 L 50.82504188168022 0.817074650047501 C 50.69904406396291 0.8423165024224426 50.583808677523294 0.9155581632001241 50.50706406642692 1.0178640065828284 C 50.496126067798315 1.2384269031814716 50.74546987289798 1.3354886261262924 50.988569281661384 1.3354886261262924 C 51.225814511609336 1.3354886261262924 51.45711243571221 1.2430456985156122 51.43473385782963 1.0827343870684956 C 51.32746556510679 0.9156812130130187 51.131915901658765 0.8072260849980724 50.93180637243959 0.8072260849980724 C 50.92602852725496 0.8072260849980724 50.92024671272152 0.8073164640169728 50.91446337151547 0.8074985197264976 C 51.24841354101775 0.7596318371759216 51.69326731607741 0.6886044623612988 52.070689488336235 0.6474849857732407 ZM 55.89330184751707 13.950543841382816 C 56.08931745144768 14.426973175501745 56.191009725105786 14.931571451403345 56.30195180281311 15.431752147421667 C 56.620738754553194 15.17362966944226 56.92985820461617 14.90848938277905 57.191477373556545 14.592761272293508 L 57.191477373556545 14.592761272293508 C 57.02104880267949 15.519170642783987 56.70302640858578 16.453304976714257 55.93175934139727 16.453304976714257 C 55.46494926610076 16.453304976714257 55.24871563137452 16.137916398218643 55.548122390250946 15.181536612257949 C 55.68915091054734 14.73105704860626 55.80143829216438 14.300181182689297 55.89330184751707 13.950543841382816 ZM 55.05536620850148 9.366989607253789 L 55.05536620850148 9.366989607253789 C 58.17611342697358 11.029453646366344 61.266245363462225 12.707589285222411 64.21762962854362 14.658558419391058 C 64.91279206579661 15.221999543287255 65.53213871957314 15.849968844002117 65.9516561412229 16.436934160912365 C 65.6734548649905 16.869248763103172 65.14397426811516 17.01769508030891 64.65441921350809 17.05042205585558 C 62.15622099729302 16.96331500170704 61.178363980962565 14.554876585979049 59.85880099290318 12.83415533048761 L 59.14092777380624 11.962422823755658 L 59.264742144347345 13.079428110387955 C 59.27327441226678 13.280588601036367 59.479289721835855 14.232405467880684 59.17220502103623 14.232405467880684 C 59.14605250844551 14.232405467880684 59.11617980002275 14.225502464977644 59.0821472140544 14.210644887073284 L 57.819615829597325 12.699164495055188 C 57.68457614064117 12.788168287262543 57.557461714572106 12.889302409412037 57.41815711299433 12.971927152758358 C 56.79185677078389 11.704509194590196 55.87516375549425 10.524614766860374 55.05536620850148 9.366989607253789 ZM 52.36207694129239 0.0 C 51.7061631196695 0.0 51.034178626081115 0.11780859313482456 50.397006848168154 0.1770203234003966 C 49.63721959571986 0.5479389848131228 48.86763125774053 0.2652658936527374 48.07079746224427 0.5548129809364458 C 47.49508234851272 0.8129439319488746 47.33384188502775 1.336843242738966 47.09560298919678 1.8605609558213176 C 47.434845533918754 1.7476897745957098 47.7435390041549 1.701800133083579 48.03445334126718 1.701800133083579 C 48.9629667719578 1.701800133083579 49.71036446545366 2.1692772116462615 50.69184763458297 2.4184460600640674 C 50.69015424931668 2.910911868681865 50.61292476699728 3.469753738653413 50.576162490390516 4.032791515644314 C 50.42399719869084 5.558753008099529 51.22804192695689 6.897898931146053 52.39054327890077 7.851494066254139 C 53.223182585275 9.705623303009151 54.37534653159762 11.128262340786295 55.2163874227153 12.574982501748009 C 55.1161137332525 13.224729482003577 54.51127413334756 15.677515905235497 54.213053293759685 16.558023726167434 C 53.6290790338398 16.656136257874234 53.00555540378436 16.711842709645367 52.39247482509524 16.711842709645367 C 52.14505371148888 16.711842709645367 51.89933361651188 16.70276938895063 51.65860024496961 16.68374949082448 C 51.639999571143974 16.681135827304928 51.621321342349404 16.679865635687953 51.60256983326924 16.679865635687953 C 51.129589252591124 16.679865635687953 50.609728830541776 17.48786872071422 50.09997742389024 17.919068241225897 L 60.461927055463285 18.000000209974974 C 60.197686894974794 17.06558618962135 58.35648918595109 16.57010031723347 57.702160966507755 16.57010031723347 C 57.66458161471661 16.57010031723347 57.63091665151432 16.571734467602237 57.60169003094289 16.57501376038261 C 57.83265361374274 15.91443228990184 58.12059872528308 15.29389483148439 58.2026274556399 14.371275273097261 C 58.491826881402 14.630027961532786 58.816133670654516 14.909967201871881 59.22096938708534 14.93904481919593 C 59.715920313388374 14.901804999394704 59.91674005070877 14.563723959126536 59.97948873792557 14.122605951959596 C 61.10065878745584 15.977034416547452 62.35449790870328 17.491265261951543 64.65441921350809 17.713953057831546 C 65.44915856684169 17.67508030899965 66.4395587253898 17.32754977590402 66.65389623272627 16.48296150829451 C 67.70808687988472 16.423597148934096 66.93502627770627 15.396460361879171 66.5438390144675 14.994031902830141 C 63.67508926343717 11.889002084280055 61.30732018487625 8.344406579279543 58.472767900456866 5.216212862452914 C 57.381099272568996 4.139282426670794 56.14851326615123 3.4108663118184137 54.6220159116076 2.8067415000325564 C 54.50838139407371 2.5276391816218586 54.471107987474916 2.1306105636175996 54.397211536811994 1.6937515150490747 C 54.31657696388862 1.2171867650690573 54.06228826618392 0.43708724795788506 53.59742072912472 0.1943191080688612 C 53.20142322580569 0.04899989346703298 52.78509227524121 0.0 52.36207694129239 0.0 Z"
     style="fill:#ffffff;stroke:none"
     id="path10" />
  <path
     d="M 69.18548679351807 0.0 L 69.18548679351807 3.8832463444956424 L 84.93543040940072 3.8832463444956424 L 84.93543040940072 0.0 L 69.18548679351807 0.0 M 84.28799947725443 0.6466656473565192 L 84.28799947725443 3.235815412349352 L 69.83291772566436 3.235815412349352 L 69.83291772566436 0.6466656473565192 L 84.28799947725443 0.6466656473565192 Z"
     style="fill:#ffffff;stroke:none"
     id="path12" />
  <path
     d="M 77.06265852380697 7.980094695294533 L 74.77943135352511 5.677735405268393 L 73.95445435015195 6.414322015423009 L 76.28206803824052 8.756093472122355 L 73.94048790273862 11.08370716021094 L 74.71629535836901 11.86429764577739 L 77.05806681506836 9.536683957688805 L 79.38568050315693 11.878264093190712 L 80.16627098872338 11.10245663756033 L 77.88304381844152 8.664833260942162 L 80.18042875733416 6.433071492772399 L 79.40442998050632 5.6524810072059495 L 77.06265852380697 7.980094695294533 Z"
     style="fill:#ffffff;stroke:none"
     id="path14" />
  <path
     d="M 70.60941042555342 15.83546671381151 Q 70.51942734215038 15.83546671381151 70.43455302747445 15.86292587291575 Q 70.1027693362758 15.97026804949814 70.14180273713905 16.184951538107047 Q 70.17483093290365 16.366605750256507 70.43842051010591 16.366605750256507 Q 70.486346300408 16.366605750256507 70.54189423143148 16.36060054515786 Q 70.90295243293016 16.321568008850488 71.17618548248653 16.067851335517297 Q 70.87118076105848 15.83546671381151 70.60941042555342 15.83546671381151 ZM 70.77844071704372 15.638050567389858 Q 71.48281319142845 15.638050567389858 72.95220154740196 16.477700963886583 Q 73.68929594863303 16.85941081154007 74.56842175018343 16.85941081154007 Q 74.99282660896421 16.85941081154007 75.45033315075885 16.770451254221992 Q 76.60181653097402 16.53625063290352 77.87039924922307 16.36060054515786 Q 78.3012377005379 16.30094618987332 78.70506310357932 16.30094618987332 Q 79.49028127840755 16.30094618987332 80.17336514509753 16.52649239075719 Q 81.20774745816706 16.86803432410218 81.89083046030117 16.96561739398237 Q 82.57391346243527 17.063200680001525 84.05717923701529 17.141267481728026 Q 83.10086372567224 17.238850551608216 82.18358031835865 17.238850551608216 Q 81.26629777560092 17.238850551608216 80.01723154164452 17.033925305145637 Q 79.39269799238839 16.931463114192283 78.8145176063001 16.931463114192283 Q 78.23633549110006 16.931463114192283 77.70450653906786 17.033925305145637 Q 76.64084949955934 17.238850551608216 75.28444216971539 17.414500423214903 Q 74.94534001304596 17.45841294515132 74.61782593102951 17.45841294515132 Q 73.63528454953605 17.45841294515132 72.7570345430857 17.063200680001525 Q 71.90428309915703 16.481163510160705 70.98581784396409 16.481163510160705 Q 70.57998386148913 16.481163510160705 70.16131986984861 16.594801166476334 Q 69.79050272375196 16.57528403376677 69.82953617864995 16.184951538107047 Q 70.04421961322412 15.658001491009042 70.74681958596355 15.63848435829948 Q 70.7624326004865 15.638050567389858 70.77844071704372 15.638050567389858 ZM 71.30018657006006 13.647498671133121 Q 70.87798308667267 13.647498671133121 70.51261982920096 14.93588530415066 Q 70.20694313172008 13.798089423932195 69.72394780769208 13.798089423932195 Q 69.65185903158894 13.798089423932195 69.5758202077684 13.82343566251588 Q 68.99032053217952 14.194251930547972 69.96615270342814 15.248151862639757 Q 69.18548679351807 15.697034891872292 69.18548679351807 16.380117894006393 Q 69.18548679351807 17.063200680001525 70.33696984952478 17.141267481728026 Q 70.6930120059138 17.047879236946976 71.03247122415907 17.047879236946976 Q 71.82807876692142 17.047879236946976 72.53259389302531 17.56087535224364 Q 73.13565857468701 18.00000013932985 74.44483694626307 18.00000013932985 Q 75.31762123047996 18.00000013932985 76.50423324495486 17.80483399956947 Q 77.96164015335285 17.394495897131552 79.33697909544088 17.394495897131552 Q 79.85865902607185 17.394495897131552 80.36853085257997 17.453533824078157 Q 81.64321387707376 17.60112820916673 82.53968483084005 17.60112820916673 Q 82.94717076345067 17.60112820916673 83.2765138134179 17.570633594389967 Q 84.93542967574358 17.531601058082593 84.93542967574358 17.258366819761903 Q 84.48654534967723 16.848517191392617 83.66684609293866 16.71190072064918 Q 81.92986429344236 16.69238445249549 80.49538972959398 16.106884736380547 Q 79.7781524476698 15.814134878323074 78.73645080457361 15.814134878323074 Q 77.6947491614774 15.814134878323074 76.32858315720921 16.106884736380547 Q 75.44758991497164 16.32919123026674 74.68817051969222 16.32919123026674 Q 73.64748300063587 16.32919123026674 72.8351013448122 15.911717515925327 Q 71.99588581991993 15.404284709606369 71.05908614445265 15.072501882963582 Q 71.83975200032798 14.467485034139077 71.79096057345735 14.067393485811893 Q 71.74216893044778 13.667301932418953 71.31280216936894 13.647785669331022 Q 71.30648810168441 13.647498671133121 71.30018657006006 13.647498671133121 Z"
     style="fill:#ffffff;stroke:none"
     id="path16" />
</svg>
