<?xml version="1.0" encoding="UTF-8" standalone="no"?>
<svg
   width="32.99525833129883"
   height="18.0"
   version="1.1"
   id="svg20"
   sodipodi:docname="itty.svg"
   inkscape:version="1.1.1 (3bf5ae0d25, 2021-09-20)"
   xmlns:inkscape="http://www.inkscape.org/namespaces/inkscape"
   xmlns:sodipodi="http://sodipodi.sourceforge.net/DTD/sodipodi-0.dtd"
   xmlns="http://www.w3.org/2000/svg"
   xmlns:svg="http://www.w3.org/2000/svg">
  <defs
     id="defs24" />
  <sodipodi:namedview
     id="namedview22"
     pagecolor="#ffffff"
     bordercolor="#666666"
     borderopacity="1.0"
     inkscape:pageshadow="2"
     inkscape:pageopacity="0.0"
     inkscape:pagecheckerboard="0"
     showgrid="false"
     inkscape:zoom="10.418164"
     inkscape:cx="-3.9354344"
     inkscape:cy="7.6309034"
     inkscape:window-width="1920"
     inkscape:window-height="1001"
     inkscape:window-x="-9"
     inkscape:window-y="-9"
     inkscape:window-maximized="1"
     inkscape:current-layer="svg20" />
  <path
     d="M 9.337964837717267 2.9892379897054955 C 9.615582938920275 2.9892379897054955 9.955438248646466 3.095985977015074 10.054528935373142 3.340333519869274 L 10.018047320278692 11.279334014803599 L 10.018047320278692 11.279334014803599 C 9.877236528949858 10.960512872387417 9.458938155535249 10.367342335933275 8.216493332661244 9.632436990092634 L 9.159754142470543 3.06154244747758 C 9.204005673408169 3.0145252182361735 9.20284550347721 2.9892379897054955 9.337964837717267 2.9892379897054955 ZM 10.018047320278692 11.279334014803599 L 10.018047320278692 11.279334014803599 C 10.018047320278692 11.279334014803599 10.01804749931726 11.279334014803599 10.01804749931726 11.279334014803599 L 10.018047320278692 11.279334014803599 L 10.018047320278692 11.279334014803599 ZM 9.205957372855298 2.25 C 8.993452018641696 2.25 8.801647909517946 2.280338063237631 8.665850556214842 2.317373030601139 L 7.5 10.098160711168036 C 8.116718763358367 10.520569989179059 9.811554797386286 11.67797341616124 9.743969885827944 12.683307927520042 L 9.756607502301202 15.75000086141948 L 10.617384124108169 15.73816856043225 L 10.612556886194815 3.119482909369111 C 10.356591530559756 2.427915471835376 9.720575811132138 2.25 9.205957372855298 2.25 Z"
     style="fill:#ffffff;stroke:none"
     id="path2" />
  <path
     d="M 14.763229721803107 4.8766974133516205 Q 14.961759325274315 4.8766974133516205 14.992302410053952 5.1210404802415805 L 15.328275447437097 8.160068195329014 Q 15.587891399506148 10.252262788787709 15.633705579079177 12.161199947800007 Q 15.633705579079177 13.47454811736011 15.412269243898592 14.245758188188443 Q 15.190832192563729 15.016969691325334 14.717415542230077 15.016969691325334 Q 14.243999070934994 15.016969691325334 14.068376915327438 14.245758188188443 Q 13.892754938758452 13.47454811736011 13.908026033551847 12.161199947800007 Q 13.938569118331483 10.252262788787709 14.198184891361963 8.160068195329014 L 14.53415792874511 5.1210404802415805 Q 14.564701013524745 4.8766974133516205 14.763229721803107 4.8766974133516205 ZM 12.45723429580088 2.25 Q 11.815832044348323 2.570701136916189 12.380876986688573 2.921946074766293 Q 14.243999070934994 4.006221735114119 14.014927098838427 5.227941545528161 L 13.663682250507607 8.160068195329014 Q 13.419338377944085 10.252262788787709 13.312438028811783 12.161199947800007 Q 13.312438028811783 14.024321853007859 13.663682250507607 14.88716099913653 Q 14.014927098838427 15.75000086141948 14.763229721803107 15.75000086141948 Q 15.511533956114913 15.75000086141948 15.862778267330022 14.88716099913653 Q 16.214022220467992 14.024321853007859 16.214022220467992 12.161199947800007 Q 16.107121871335693 10.252262788787709 15.862778267330022 8.160068195329014 L 15.542076145701701 5.350112989453857 Q 15.053388579613223 2.8455880047400637 12.45723429580088 2.25 Z"
     style="fill:#ffffff;stroke:none"
     id="path4" />
  <path
     d="M 21.229640984907746 2.7008420331403613 C 22.035157095371247 2.7008420331403613 23.04342148639543 3.114639379086924 23.53130820672959 3.602526099421084 C 23.95815848793451 4.0293760185574 24.013961225386694 4.595299385204669 24.02960729598999 5.121151895262301 L 18.45340320188552 5.121151895262301 C 18.46904945352312 4.595299385204669 18.524852190975302 4.0293760185574 18.95170229114592 3.602526099421084 C 19.439589192514383 3.114639379086924 20.42412523651285 2.7008420331403613 21.229640984907746 2.7008420331403613 ZM 21.229640984907746 2.25 C 20.274040377569627 2.25 19.245832342641847 2.691454318364663 18.643231426365674 3.2940552346408367 C 18.025155925643308 3.9121309630704104 17.955104112625122 4.725822220553368 17.955104112625122 5.334708647802472 L 17.955104112625122 5.571993928402662 L 24.50417785719037 5.571993928402662 L 24.50417785719037 5.334708647802472 C 24.50417785719037 4.725822220553368 24.457854799939412 3.9121309630704104 23.839779071509838 3.2940552346408367 C 23.23717851730227 2.691454318364663 22.18524177328017 2.25 21.229640984907746 2.25 Z"
     style="fill:#ffffff;stroke:none"
     id="path6" />
  <path
     d="M 21.017033193117342 10.518334150314331 L 21.001846949641674 10.525927279123817 L 23.720187066266476 15.734813672132447 L 24.74525976811418 15.734813672132447 L 22.026919289420775 10.518334150314331 ZM 18.739094589872668 10.525927279123817 L 17.714022159576416 10.533520407933304 L 20.432362276201218 15.749999915608115 L 21.45743461598032 15.742406974904583 L 18.739094589872668 10.525927279123817 Z"
     style="fill:#ffffff;stroke:none"
     id="path8" />
  <path
     d="M 7.5 0.375 C -2.1249999403953552 0.375 -2.1249999403953552 17.625 7.5 17.625 "
     style="fill:none;stroke:#ffffff;stroke-width:1"
     id="path10" />
  <path
     d="M 7.5 0.375 L 24.745259284973145 0.375 "
     style="fill:none;stroke:#ffffff;stroke-width:1"
     id="path12" />
  <path
     d="M 7.5 17.625 L 24.745259284973145 17.625 "
     style="fill:none;stroke:#ffffff;stroke-width:1"
     id="path14" />
  <path
     d="M 32.432759284973145 0.375 L 32.432759284973145 17.625 "
     style="fill:none;stroke:#ffffff;stroke-width:1"
     id="path16" />
  <path
     d="M 24.745259284973145 0.375 C 34.37025833129883 0.375 34.37025833129883 17.625 24.745259284973145 17.625 "
     style="fill:none;stroke:#ffffff;stroke-width:1"
     id="path18" />
</svg>
