<?xml version="1.0" encoding="UTF-8" standalone="no"?>
<svg
   width="147.96151733398438"
   height="18.0"
   version="1.1"
   id="svg52"
   sodipodi:docname="iwaennetjerwymerwyitsetepenptahuserkaresekhemankhamun.svg"
   inkscape:version="1.1.1 (3bf5ae0d25, 2021-09-20)"
   xmlns:inkscape="http://www.inkscape.org/namespaces/inkscape"
   xmlns:sodipodi="http://sodipodi.sourceforge.net/DTD/sodipodi-0.dtd"
   xmlns="http://www.w3.org/2000/svg"
   xmlns:svg="http://www.w3.org/2000/svg">
  <defs
     id="defs56" />
  <sodipodi:namedview
     id="namedview54"
     pagecolor="#ffffff"
     bordercolor="#666666"
     borderopacity="1.0"
     inkscape:pageshadow="2"
     inkscape:pageopacity="0.0"
     inkscape:pagecheckerboard="0"
     showgrid="false"
     inkscape:zoom="9.2929569"
     inkscape:cx="73.980759"
     inkscape:cy="8.9852994"
     inkscape:window-width="1920"
     inkscape:window-height="1001"
     inkscape:window-x="-9"
     inkscape:window-y="-9"
     inkscape:window-maximized="1"
     inkscape:current-layer="svg52" />
  <path
     d="M 1.2190420140847793 0.0 C 0.970800706632417 0.0 0.7230423028937335 0.01893070358296025 0.48290982680079 0.048905678499779795 C 0.15187998957905166 0.13255188916498697 0.3219916247400915 0.5118521231009919 0.6158947927962716 0.5118521231009919 C 0.6355981423211179 0.5118521231009919 0.6558578408244597 0.5101473851910305 0.6765601864318946 0.5065345630073116 C 1.2976180869590601 0.5780119512905144 2.0622053316712337 0.6175539511807123 2.531371224901928 0.9695623988344474 C 3.1537543888207784 1.6479367557428735 2.8741262715941502 3.0576933712068692 2.94658764204448 3.7269297850416896 C 2.951782632395561 3.7629649381631523 2.953952713884158 6.430591781037886 2.953952713884158 7.782422252231933 C 2.352510186605274 7.494257626556917 1.67335422808609 7.349215125535265 1.0039192969246102 7.349215125535265 C 0.7063920462481148 7.349215125535265 0.41078504023889434 7.377865539465801 0.12477432975315178 7.4353349446232855 C -0.20149863151174055 7.606724672263251 0.18154647682350566 7.8266562324049085 0.4376378670454302 7.8266562324049085 C 0.4681373192956425 7.8266562324049085 0.4968360674978842 7.823536850015894 0.5223214865886322 7.816844331348357 C 1.429843884416301 7.914926816832979 2.4617098179841825 8.158078494744517 2.9226503683594482 9.002292523011262 C 2.9681809889039896 9.155077638776014 2.9396896697969415 9.207577525716367 2.870237404087557 9.207577525716367 C 2.717627362869183 9.207577525716367 2.3672466519332462 8.954092059534803 2.1698535251191053 8.954092059534803 C 2.1594948014573196 8.954092059534803 2.1495575210365625 8.954790250504107 2.140092081444407 8.956259682604495 C 1.7610785167129768 8.874396440250864 1.3638924072290621 8.831466124503471 0.9703996331480379 8.831466124503471 C 0.6822712691518855 8.831466124503471 0.39612316158451694 8.854483949517657 0.1205398348885778 8.90208807080806 C -0.19080937123302597 9.107627344268586 0.19133570335568265 9.296978982841198 0.44461121617263977 9.296978982841198 C 0.47243301123084086 9.296978982841198 0.4986997685303211 9.294694058069421 0.5223214865886322 9.289895224364907 C 1.44862453664532 9.401605077048192 2.473672484380784 9.652726246647584 2.9226503683594482 10.498359836231193 C 2.9277747669676573 11.438445880183364 2.9223641381582497 12.059730482053933 2.9475081443234266 12.924290385186742 C 2.9366830234749024 13.190445840004433 3.1097205941872907 13.32271720601211 3.2850258807391146 13.32271720601211 C 3.4589948410141766 13.32271720601211 3.635197450466691 13.192454719453337 3.636159394664339 12.93350313443563 C 3.6297524037925992 12.081649745019838 3.5689455193688686 11.333930766029841 3.680643079957625 10.507654766912083 C 3.905950499841305 9.580679119782916 5.51430012614692 9.438421656179063 6.5132119200872856 9.209440304841713 C 6.73117182826633 8.953197897458422 6.302254993763335 8.858046549715155 6.0257896324592775 8.858046549715155 C 5.984500135730289 8.858046549715155 5.946610983551 8.860169218839136 5.914784994799312 8.86419400179096 C 5.786745621336966 8.854375779085794 5.657882677541108 8.84931073373403 5.528823762638173 8.84931073373403 C 4.87588245171773 8.84931073373403 4.21792069818853 8.978947377079876 3.636159394664339 9.278489565451865 C 3.6124626948293947 8.719755569414783 4.162693019870619 8.398265319455419 4.5568162027996815 8.173701395689454 C 5.178845705598769 7.90617273831141 5.863655500797704 7.879904181098088 6.5132119200872856 7.736389411825166 C 6.745102634598536 7.535056141910107 6.380132787867637 7.365650007124583 6.127413645979344 7.365650007124583 C 6.0940901289112 7.365650007124583 6.06271789404902 7.368595192973972 6.034923712303174 7.3748016471035225 C 5.875700348626306 7.359480780481324 5.715556482670491 7.35166300836024 5.555429474444318 7.35166300836024 C 4.887519202007935 7.35166300836024 4.219896213380853 7.487670468699637 3.6205083975033348 7.782422252231933 C 3.6327889023442115 5.672151988401518 3.6669749732456607 3.6298724602408705 3.6064121746990256 1.633623314068084 C 3.557780785508615 1.016382811297887 3.202148013782708 0.4498605441665941 2.6039100355477967 0.2652764822581205 C 2.1742288083663857 0.06980961445750675 1.6957449806778964 0.0 1.2190420140847793 0.0 Z"
     style="fill:#ffffff;stroke:none"
     id="path2" />
  <path
     d="M 3.29314921521244 15.21501288860129 C 4.074491287174412 15.21501288860129 5.052497037940845 15.616391919330065 5.5257419749406465 16.089636856329868 C 5.939782214238027 16.503676744424546 5.993910276899555 17.05261639954012 6.009086799211701 17.562687749346416 L 0.6002280514165623 17.562687749346416 C 0.615404749330059 17.05261639954012 0.6695328119915868 16.503676744424546 1.0835728756876173 16.089636856329868 C 1.5568179882887687 15.616391919330065 2.5118074944531683 15.21501288860129 3.29314921521244 15.21501288860129 ZM 3.29314921521244 14.777700904737003 C 2.3662267752924526 14.777700904737003 1.3688759017560481 15.205906904973462 0.7843594130436309 15.79042339368588 C 0.1848327417701466 16.38995028583294 0.11688322714550736 17.179222163577567 0.11688322714550736 17.769835531176867 L 0.11688322714550736 17.999999733210704 L 6.469415203279373 17.999999733210704 L 6.469415203279373 17.769835531176867 C 6.469415203279373 17.179222163577567 6.42448232973169 16.38995028583294 5.824955437584633 15.79042339368588 C 5.240439300074916 15.205906904973462 4.220071830733778 14.777700904737003 3.29314921521244 14.777700904737003 Z"
     style="fill:#ffffff;stroke:none"
     id="path4" />
  <path
     d="M 19.59558827849137 2.2331113889984504 Q 20.011497239301697 2.2331113889984504 20.406868373464476 2.6849636002931274 Q 17.14505908393548 6.568070899826414 16.329606932707488 7.024335296803508 Q 15.721254175199014 7.364724151693918 15.258781670883675 7.364724151693918 Q 15.101344397401952 7.364724151693918 14.960813057159163 7.325276517725049 Q 14.407469963604743 7.169951972435412 13.776464255096982 7.150536917736989 Q 13.760688966903167 7.150051524254103 13.744834947749503 7.150051524254103 Q 13.12652956999073 7.150051524254103 12.38825395561615 7.88832679632016 L 12.291175943655867 7.88832679632016 Q 12.815395428237089 6.665148911786697 13.75704954270708 6.140928742588433 Q 14.698701945634467 5.6167096003157315 19.2807685008913 2.2966530928403377 Q 19.439622247033235 2.2331113889984504 19.59558827849137 2.2331113889984504 ZM 13.822576293662692 0.46382689862325743 Q 13.87160069312572 0.46382689862325743 13.922081273037408 0.4715931515608784 L 13.922081273037408 5.461385397334616 Q 12.38825395561615 6.354500505824466 11.805788280014095 7.965988384347936 Q 12.698902703886905 1.79184917642032 13.058089773520756 1.0928900062739073 Q 13.381357725420997 0.46382689862325743 13.822576293662692 0.46382689862325743 ZM 9.823471846940608 8.280349468529765 Q 9.763159224955167 8.280349468529765 9.708909828226425 8.383422671928184 Q 9.611832586460313 8.567870141573977 9.883650198408658 8.897933602234632 Q 10.038974144658383 8.4902085535462 9.922481420308197 8.344591877914295 Q 9.871087133376625 8.280349468529765 9.823471846940608 8.280349468529765 ZM 9.850515161454094 8.003054920244196 Q 9.964842185368557 8.003054920244196 10.097221020296256 8.179560147583969 Q 10.388454200405805 8.567870141573977 9.922481420308197 9.732803546629212 Q 9.398261764572714 8.723195371480656 9.602124802379711 8.257221735611745 Q 9.713322784103013 8.003054920244196 9.850515161454094 8.003054920244196 ZM 14.931688078951879 9.926958201315696 L 14.931688078951879 10.218190867962463 Q 14.718118369566973 10.198775813264039 14.601625302908268 10.082282061988291 Q 14.640456096922156 10.024035528658937 14.756948478963821 9.926958201315696 ZM 15.378245975505326 10.587085807254049 L 17.183890562566404 10.839488364503968 L 17.552786186475032 11.499616655059363 Q 16.931489374550573 11.32487637045426 16.183991626309666 11.033644388424536 Q 15.43649319345172 10.742411037160727 15.378245975505326 10.587085807254049 ZM 11.39806151978306 10.315268879922746 L 11.747541404376221 10.490008479910806 L 11.864034128726408 11.32487637045426 L 11.553386065072697 12.276239381507548 L 11.067997716813883 12.276239381507548 L 11.39806151978306 11.32487637045426 L 11.39806151978306 10.315268879922746 ZM 12.232929752635034 10.606502231186555 L 12.562994240221252 10.703579558529796 L 12.679486964571439 11.32487637045426 L 12.368838216300684 12.276239381507548 L 11.883450552658914 12.276239381507548 L 12.21351435562809 11.32487637045426 L 12.232929752635034 10.606502231186555 ZM 13.37844604914072 10.72299461322822 L 13.494939115799427 11.32487637045426 L 13.184290367528675 12.276239381507548 L 12.698902703886905 12.276239381507548 L 13.028966164547558 11.32487637045426 L 13.028966164547558 10.742411037160727 L 13.37844604914072 10.72299461322822 ZM 12.635970993829574 8.307902566008263 Q 12.94616549869286 8.307902566008263 13.300783776495901 8.383422671928184 Q 14.349222745658347 8.606700935587865 14.621040357606692 9.441570195365404 L 15.43649319345172 9.441570195365404 L 15.747140914796912 8.936765765482605 Q 19.863233149567787 9.888126722684765 20.387455372617175 12.373316708850789 Q 19.261352076958786 11.752018527692242 18.018759137726903 11.538448133690293 L 17.475123229213175 10.451177001279875 L 15.319998757558931 10.159943650016068 L 15.378245975505326 9.635724850051886 L 14.640456096922156 9.635724850051886 Q 13.825002918768604 10.30727392210448 12.976631641685719 10.30727392210448 Q 12.794837747695311 10.30727392210448 12.611532561584353 10.276437401291815 Q 11.572801804388162 10.101698485920798 11.252445186459676 9.567771131681843 Q 10.93208856853119 9.033843092825846 11.592216516778063 8.596994435164216 Q 12.029066885982298 8.307902566008263 12.635970993829574 8.307902566008263 ZM 14.014203342229544 0.0 Q 13.306659502260182 0.0 12.902764885922597 0.4910087625106481 Q 12.407668668006053 1.0928900062739073 11.980527880002157 3.655740467965014 L 11.300984192439817 8.101897190322108 Q 10.97091987600786 8.451378444149354 10.7961802760198 8.4902085535462 L 10.563193800393865 8.4902085535462 Q 10.543778232232661 8.004819862978866 10.194298176485239 7.597094129673393 Q 9.883650198408658 4.626517849099683 10.466115788433582 2.3937311048006213 L 10.233129483961907 1.9471738928642175 Q 9.398261764572714 4.471192276884482 9.825403408347913 7.616509184371816 L 9.767156618287169 7.616509184371816 Q 8.427485014569381 4.607101425167175 9.378846196411509 1.9471738928642175 L 9.145859806362706 1.5976940082710553 L 9.145859806362706 1.5976940082710553 Q 7.90326545510817 4.4323618251791155 9.41767741831105 7.752417990345988 Q 8.99053577453585 8.684363892849726 9.330307190431368 9.286245650075767 Q 9.670079376521057 9.888126722684765 9.747741050125965 10.412346207265987 L 9.883650198408658 10.509424219226272 Q 10.407869083949969 9.732803546629212 10.485531356594787 9.16975258341706 L 10.679686695898312 9.16975258341706 Q 10.699102264059515 9.616309110736422 10.93208856853119 10.101698485920798 L 11.067997716813883 11.32487637045426 L 10.737933400381925 12.276239381507548 L 9.048781837190987 12.276239381507548 L 9.048781837190987 12.742211648142375 L 13.922081273037408 12.742211648142375 L 13.922081273037408 12.276239381507548 L 13.51435451280637 12.276239381507548 L 13.825003261077125 11.32487637045426 L 13.84441900039259 10.606502231186555 Q 14.19389820036871 10.490008479910806 14.368638484973811 10.33468393462117 Q 14.621040357606692 10.567671437172667 14.931688078951879 10.567671437172667 Q 14.912273708870499 10.76182609185915 15.009351720830782 10.89773421321628 Q 15.785971708810798 11.499616655059363 17.78577231979245 11.946173182378724 L 18.465315665046262 13.266429763489512 Q 18.465315665046262 12.942390932799807 18.666445882775246 12.942390932799807 Q 18.73044046079052 12.942390932799807 18.81479623425647 12.97519504299162 L 18.27116032574274 12.00442040032512 L 18.27116032574274 12.00442040032512 Q 19.39726088293296 12.256823642192083 19.97972758546058 12.645134320799134 Q 20.290376676039852 12.97519504299162 19.94089679144669 13.44116867886053 Q 20.71751746404375 13.11110658743396 20.814596160621075 12.509224145590878 Q 20.503945700807716 9.577479001339576 15.552985575493386 8.431961335599805 L 15.203506375517266 9.014428722744466 L 14.892857284937993 9.014428722744466 Q 14.640456096922156 8.198975202282393 12.893057700881908 7.88832679632016 Q 13.283009064230479 7.599008318923254 13.852256838599681 7.599008318923254 Q 14.161630487629424 7.599008318923254 14.523962345646407 7.684463587358902 Q 14.891470935427632 7.771140212597752 15.241644337084495 7.771140212597752 Q 15.87195550160299 7.771140212597752 16.446100683983236 7.490308248055377 Q 17.339214423239 7.053458905776705 20.989335075992095 2.665548716748965 Q 20.31660024722249 1.8173165880798985 19.56675152405883 1.8173165880798985 Q 19.321111613951302 1.8173165880798985 19.067196737655266 1.9083427565418083 L 14.349222745658347 5.286645797346556 L 14.349222745658347 0.025035944973045218 Q 14.173971736739798 0.0 14.014203342229544 0.0 Z"
     style="fill:#ffffff;stroke:none"
     id="path6" />
  <path
     d="M 14.787816725437374 15.285542133461169 C 15.549371373096287 15.285542133461169 16.502609207919512 15.676756272943992 16.963869255453197 16.13801632047768 C 17.367423959429352 16.541570682145313 17.42018123331472 17.07660848522664 17.434973411436005 17.573762319663377 L 12.163093570676018 17.573762319663377 C 12.177885919951562 17.07660848522664 12.230643193836931 16.541570682145313 12.634197726658826 16.13801632047768 C 13.095457945346773 15.676756272943992 14.02626242008698 15.285542133461169 14.787816725437374 15.285542133461169 ZM 14.787816725437374 14.859305039952915 C 13.884368520776045 14.859305039952915 12.912275476840618 15.276666758126694 12.34256182057423 15.846380414393082 C 11.758218113396996 16.430724336850286 11.69198941469321 17.200007968606588 11.69198941469321 17.775664100798863 L 11.69198941469321 17.99999941317163 L 17.883644036181536 17.99999941317163 L 17.883644036181536 17.775664100798863 C 17.883644036181536 17.200007968606588 17.839849083994995 16.430724336850286 17.25550516153779 15.846380414393082 C 16.685791847579925 15.276666758126694 15.691265101252963 14.859305039952915 14.787816725437374 14.859305039952915 Z"
     style="fill:#ffffff;stroke:none"
     id="path8" />
  <path
     d="M 33.76387288607657 7.789845119230449 C 34.56938899654007 7.789845119230449 35.577653387564254 8.203642465177012 36.065540107898414 8.691529185511172 C 36.492390389103335 9.118379104647488 36.54819312655552 9.684302471294757 36.56383919715881 10.210154981352389 L 30.987635103054345 10.210154981352389 C 31.003281354691943 9.684302471294757 31.059084092144126 9.118379104647488 31.485934192314744 8.691529185511172 C 31.973821093683206 8.203642465177012 32.95835713768167 7.789845119230449 33.76387288607657 7.789845119230449 ZM 33.76387288607657 7.339003086090088 C 32.80827227873845 7.339003086090088 31.78006424381067 7.780457404454751 31.177463327534497 8.383058320730925 C 30.55938782681213 9.001134049160498 30.489336013793945 9.814825306643456 30.489336013793945 10.42371173389256 L 30.489336013793945 10.66099701449275 L 37.038409758359194 10.66099701449275 L 37.038409758359194 10.42371173389256 C 37.038409758359194 9.814825306643456 36.992086701108235 9.001134049160498 36.37401097267866 8.383058320730925 C 35.77141041847109 7.780457404454751 34.71947367444899 7.339003086090088 33.76387288607657 7.339003086090088 Z"
     style="fill:#ffffff;stroke:none"
     id="path10" />
  <path
     d="M 43.70330827574527 2.701834964452948 L 43.68616508613826 5.309998768668603 L 43.683716160251016 5.309998768668603 C 41.99527562349798 5.164899024353775 40.535379129372814 5.055389993875436 38.98167525225231 4.877755203012128 L 38.98167525225231 2.8989805380643654 L 43.70330827574527 2.701834964452948 ZM 43.91759389545527 2.25 L 43.69596114388539 2.259795750590935 L 38.75147139290136 2.4655101629016385 C 38.63282522388903 2.469930776967526 38.538807516382384 2.5671904184722165 38.538409948349 2.6859202225185546 L 38.538409948349 5.076124044148473 C 38.538122012939105 5.188738329653354 38.62245399264969 5.283613487193504 38.73432829184388 5.296530384684999 C 40.375013799750704 5.489554198904721 41.889096940959305 5.599853268317325 43.64575674640426 5.750814991722979 L 43.68249205150552 5.754491922535177 L 43.616369281559145 15.749999700598574 L 44.941267230807654 15.749999700598574 L 44.61187996920816 2.2671415597421634 L 43.918818358398894 2.2671415597421634 L 43.91759389545527 2.25 Z"
     style="fill:#ffffff;stroke:none"
     id="path12" />
  <path
     d="M 49.71580388583243 7.789845119230449 C 50.52131999629593 7.789845119230449 51.529584387320114 8.203642465177012 52.01747110765427 8.691529185511172 C 52.444321388859194 9.118379104647488 52.50012412631138 9.684302471294757 52.51577019691467 10.210154981352389 L 46.939566102810204 10.210154981352389 C 46.9552123544478 9.684302471294757 47.011015091899985 9.118379104647488 47.4378651920706 8.691529185511172 C 47.925752093439066 8.203642465177012 48.91028813743753 7.789845119230449 49.71580388583243 7.789845119230449 ZM 49.71580388583243 7.339003086090088 C 48.76020327849431 7.339003086090088 47.73199524356653 7.780457404454751 47.129394327290356 8.383058320730925 C 46.511318826567994 9.001134049160498 46.441267013549805 9.814825306643456 46.441267013549805 10.42371173389256 L 46.441267013549805 10.66099701449275 L 52.99034075811505 10.66099701449275 L 52.99034075811505 10.42371173389256 C 52.99034075811505 9.814825306643456 52.944017700864094 9.001134049160498 52.32594197243452 8.383058320730925 C 51.72334141822695 7.780457404454751 50.67140467420485 7.339003086090088 49.71580388583243 7.339003086090088 Z"
     style="fill:#ffffff;stroke:none"
     id="path14" />
  <path
     d="M 59.65523927550113 2.701834964452948 L 59.63809608589412 5.309998768668603 L 59.635647160006876 5.309998768668603 C 57.94720662325384 5.164899024353775 56.48731012912867 5.055389993875436 54.93360625200817 4.877755203012128 L 54.93360625200817 2.8989805380643654 L 59.65523927550113 2.701834964452948 ZM 59.86952489521113 2.25 L 59.64789214364125 2.259795750590935 L 54.70340239265722 2.4655101629016385 C 54.58475622364489 2.469930776967526 54.490738516138244 2.5671904184722165 54.49034094810486 2.6859202225185546 L 54.49034094810486 5.076124044148473 C 54.490053012694965 5.188738329653354 54.57438499240555 5.283613487193504 54.68625929159974 5.296530384684999 C 56.32694479950656 5.489554198904721 57.841027940715165 5.599853268317325 59.59768774616012 5.750814991722979 L 59.63442305126138 5.754491922535177 L 59.568300281315004 15.749999700598574 L 60.89319823056351 15.749999700598574 L 60.56381096896402 2.2671415597421634 L 59.870749358154754 2.2671415597421634 L 59.86952489521113 2.25 Z"
     style="fill:#ffffff;stroke:none"
     id="path16" />
  <path
     d="M 72.6390606010214 2.7657777973161712 Q 72.38813862051077 3.0166983068311826 72.38813862051077 3.6858149885261597 Q 72.38813862051077 4.368870372116945 72.6390606010214 4.6197902404287365 L 64.35872953876164 4.6197902404287365 Q 64.60964880358804 4.368870372116945 64.60964880358804 3.6858149885261597 Q 64.60964880358804 3.0166983068311826 64.35872953876164 2.7657777973161712 ZM 62.75563692624303 2.25 Q 62.393198013305664 2.25 62.40713797049822 2.4869786393209417 Q 62.393198013305664 2.7657777973161712 62.75563692624303 2.7657777973161712 L 63.66173288846217 2.7657777973161712 Q 63.99629507652897 3.0166983068311826 63.99629507652897 3.6858149885261597 Q 63.99629507652897 4.368870372116945 63.66173288846217 4.6197902404287365 L 62.76957751403066 4.6197902404287365 Q 62.393198013305664 4.6197902404287365 62.393198013305664 4.856770199873953 Q 62.393198013305664 5.13556928243351 62.75563692624303 5.13556928243351 L 74.24215434507511 5.13556928243351 Q 74.5906792235817 5.13556928243351 74.5906792235817 4.856770199873953 Q 74.5906792235817 4.6197902404287365 74.22821262575238 4.6197902404287365 L 73.33605845829163 4.6197902404287365 Q 73.00149702458155 4.368870372116945 73.00149702458155 3.6858149885261597 Q 73.00149702458155 3.0166983068311826 73.33605845829163 2.7657777973161712 L 74.24215434507511 2.7657777973161712 Q 74.5906792235817 2.7657777973161712 74.5906792235817 2.4869786393209417 Q 74.5906792235817 2.25 74.24215434507511 2.25 Z"
     style="fill:#ffffff;stroke:none"
     id="path18" />
  <path
     d="M 63.29308828032042 10.380199273835723 L 63.29308828032042 11.477712275375376 L 65.71552681188668 11.477712275375376 L 65.71552681188668 10.380199273835723 L 65.24092659500467 10.380199273835723 C 65.10250153174742 10.62409095137475 64.94430153488909 10.782291023668753 64.76632645355834 10.854799490717735 C 64.67733891289295 10.891053875113572 64.58876332643729 10.909180765568799 64.50059984506267 10.909180765568799 C 64.41243628825238 10.909180765568799 64.32468476108747 10.891053875113572 64.23734526356795 10.854799490717735 C 64.06266581591485 10.782291023668753 63.90611354160077 10.62409095137475 63.767688483058244 10.380199273835723 ZM 64.76237143666384 6.385647448412122 L 64.76237143666384 8.204948279793168 L 64.21262620052931 8.204948279793168 L 64.21262620052931 10.4296367964276 L 64.80587647163183 10.4296367964276 L 64.80587647163183 9.035498659336689 L 65.49404677102362 9.035498659336689 L 65.49404677102362 7.127210287290266 L 66.34437215960389 7.127210287290266 C 66.49598066279987 8.313710829495296 66.90795991715127 9.195346548469526 67.58031022440079 9.772117444212954 C 68.2526605316503 10.348888641699073 69.08321091119383 10.683415978485002 70.07196136303136 10.775699454570734 C 71.06071181486888 10.867982930656467 71.70999147940398 10.998168306234177 72.01979975315128 11.166256184789248 C 72.32960802689857 11.334343459858935 72.48451246551491 11.504079155252839 72.48451246551491 11.67546236574288 L 73.6907880167567 11.67546236574288 C 73.50622106458523 11.23382059783635 73.25903345162585 10.89764544421159 72.94922517787856 10.666936904868606 C 72.63941690413125 10.436228365525618 72.06429291999859 10.291211733170346 71.2238550359367 10.231886706060095 C 70.3834171518748 10.172561678949844 69.71106744811065 10.062151312408883 69.20680411418815 9.900655606437216 C 68.70254198723639 9.739159598722855 68.2526605316503 9.452421665947282 67.8571603509153 9.040442109853185 C 67.4616601701803 8.628463006373126 67.15844346553101 7.743531351978541 66.94750993522477 6.385647448412122 Z"
     style="fill:#ffffff;stroke:none"
     id="path20" />
  <path
     d="M 63.56482573367737 12.925540360043037 L 63.31376265074057 13.469510373072755 L 62.51872955477406 15.24787387720837 L 62.393198013305664 15.498936960145162 L 62.91624610275731 15.750000043081954 L 63.04177764422571 15.478015036567097 L 63.58574765725543 14.243621545461199 L 63.857732663770285 14.724825787756718 L 64.10879574670707 15.226951953630303 L 64.35985882964387 14.724825787756718 L 64.6527657597368 14.201777698305067 L 64.92475076625166 14.724825787756718 L 65.17581384918844 15.226951953630303 L 65.42687693212524 14.724825787756718 L 65.6988619386401 14.201777698305067 L 65.99176886873303 14.724825787756718 L 66.24283195166981 15.226951953630303 L 66.49389503460661 14.724825787756718 L 66.76588004112148 14.222699621883132 L 67.03786504763633 14.724825787756718 L 67.30985005415118 15.226951953630303 L 67.56091313708798 14.724825787756718 L 67.83289814360283 14.201777698305067 L 68.1048831501177 14.724825787756718 L 68.37686815663255 15.226951953630303 L 68.62793123956935 14.724825787756718 L 68.8999162460842 14.201777698305067 L 69.17190125259907 14.724825787756718 L 69.44388625911392 15.226951953630303 L 69.69494934205072 14.724825787756718 L 69.96693434856557 14.201777698305067 L 70.23891935508044 14.724825787756718 L 70.48998243801722 15.226951953630303 L 70.76196744453209 14.724825787756718 L 71.03395245104694 14.201777698305067 L 71.30593745756181 14.724825787756718 L 71.55700054049859 15.226951953630303 L 71.82898554701346 14.724825787756718 L 72.10097055352831 14.201777698305067 L 72.39387748362124 14.745747711334785 L 72.64494056655803 15.206030030052236 L 72.91692557307289 14.745747711334785 L 73.20983250316581 14.180855774727 L 73.94209982839813 15.498936960145162 L 74.08855329344459 15.750000043081954 L 74.59067945931818 15.478015036567097 L 74.46514791784978 15.226951953630303 L 73.46089558610261 13.427666525916623 L 73.20983250316581 12.988306130777236 L 72.95876942022902 13.448588449494688 L 72.64494056655803 13.992558462524405 L 72.35203363646511 13.448588449494688 L 72.08004862995026 12.967384207199169 L 71.84990747059152 13.448588449494688 L 71.55700054049859 13.97163653894634 L 71.28501553398374 13.448588449494688 L 71.03395245104694 12.946462283621104 L 70.78288936811015 13.448588449494688 L 70.5109043615953 13.97163653894634 L 70.21799743150237 13.448588449494688 L 69.96693434856557 12.946462283621104 L 69.71587126562878 13.448588449494688 L 69.42296433553587 13.97163653894634 L 69.150979329021 13.448588449494688 L 68.8999162460842 12.946462283621104 L 68.64885316314742 13.448588449494688 L 68.37686815663255 13.97163653894634 L 68.08396122653963 13.448588449494688 L 67.83289814360283 12.946462283621104 L 67.58183506066605 13.448588449494688 L 67.30985005415118 13.950714615368273 L 67.03786504763633 13.448588449494688 L 66.76588004112148 12.946462283621104 L 66.51481695818468 13.448588449494688 L 66.24283195166981 13.97163653894634 L 65.97084694515496 13.448588449494688 L 65.6988619386401 12.946462283621104 L 65.44779885570331 13.448588449494688 L 65.17581384918844 13.97163653894634 L 64.90382884267359 13.448588449494688 L 64.6527657597368 12.946462283621104 L 64.38078075322194 13.448588449494688 L 64.10879574670707 13.97163653894634 L 63.83681074019222 13.448588449494688 L 63.56482573367737 12.925540360043037 Z"
     style="fill:#ffffff;stroke:none"
     id="path22" />
  <path
     d="M 80.77706307452172 2.7008420331403613 L 80.72960601840168 7.968575262464583 L 77.95336823537946 8.016032318584621 L 77.92963970731944 2.7245705612003803 L 80.77706307452172 2.7008420331403613 ZM 81.2516336357221 2.25 L 77.47879767417908 2.273728528060019 L 77.5025262022391 8.490602879785001 L 81.18044805154204 8.419417295604944 L 81.2516336357221 2.25 Z"
     style="fill:#ffffff;stroke:none"
     id="path24" />
  <path
     d="M 79.36521556414664 12.878848205320537 C 80.17073167461014 12.878848205320537 81.17899606563432 13.2926455512671 81.66688278596848 13.78053227160126 C 82.0937330671734 14.207382190737576 82.14953580462559 14.773305557384845 82.16518187522888 15.299158067442477 L 76.58897778112441 15.299158067442477 C 76.60462403276202 14.773305557384845 76.6604267702142 14.207382190737576 77.08727687038481 13.78053227160126 C 77.57516377175327 13.2926455512671 78.55969981575174 12.878848205320537 79.36521556414664 12.878848205320537 ZM 79.36521556414664 12.428006172180176 C 78.40961495680853 12.428006172180176 77.38140692188074 12.869460490544839 76.77880600560457 13.472061406821012 C 76.1607305048822 14.090137135250586 76.09067869186401 14.903828392733544 76.09067869186401 15.512714819982648 L 76.09067869186401 15.750000100582838 L 82.63975243642926 15.750000100582838 L 82.63975243642926 15.512714819982648 C 82.63975243642926 14.903828392733544 82.5934293791783 14.090137135250586 81.97535365074873 13.472061406821012 C 81.37275309654116 12.869460490544839 80.32081635251906 12.428006172180176 79.36521556414664 12.428006172180176 Z"
     style="fill:#ffffff;stroke:none"
     id="path26" />
  <path
     d="M 86.02090007368733 2.771662648311301 Q 86.71645045052111 2.771662648311301 86.71645045052111 3.6885247976617497 Q 86.71645045052111 4.494730680197452 86.02090007368733 5.285129145019644 Q 85.32534960731088 4.494730680197452 85.32534960731088 3.6885247976617497 Q 85.32534960731088 2.771662648311301 86.02090007368733 2.771662648311301 ZM 86.02090007368733 6.296838263074965 Q 86.51094730454417 6.296838263074965 86.51094730454417 7.355972051923285 Q 86.51094730454417 7.956673803512528 86.02090007368733 8.462528720710925 Q 85.53085355917197 7.956673803512528 85.53085355917197 7.355972051923285 Q 85.53085355917197 6.296838263074965 86.02090007368733 6.296838263074965 ZM 86.02090007368733 9.490046778705384 Q 86.51094730454417 9.490046778705384 86.51094730454417 10.549179851212234 Q 86.51094730454417 11.149882319142948 86.02090007368733 11.655738310853552 Q 85.53085355917197 11.149882319142948 85.53085355917197 10.549179851212234 Q 85.53085355917197 9.490046778705384 86.02090007368733 9.490046778705384 ZM 86.02090007368733 2.25 Q 84.7562630493194 2.25 84.7562630493194 3.6885247976617497 Q 84.74045536297784 4.5895785891005065 85.17517443804162 5.103336901756264 Q 85.60989288630662 5.61709539349739 85.56246902139779 5.790983345876569 Q 85.00919014974787 6.4391097682588105 85.00919014974787 7.355972051923285 Q 85.00919014974787 8.114753890464776 85.65731666167278 8.984191503336252 Q 85.00919014974787 9.632317925718494 85.00919014974787 10.549179851212234 Q 85.00919014974787 11.307962406095196 85.65731666167278 12.161592153539742 Q 85.73635688423428 12.367095478602044 85.21469410160896 13.125878033485007 Q 84.69303145329765 13.884659155685027 84.13975262641907 15.749999453867837 L 84.83530309279553 15.749999453867837 Q 85.18307792304167 14.516978070811074 85.45181351569585 13.987411892728385 Q 85.72054901880735 13.457844998304225 86.02090007368733 13.125878033485007 Q 86.33705953125036 13.457844998304225 86.59789092256302 13.987411892728385 Q 86.85872213479031 14.516978070811074 87.20649714412184 15.749999453867837 L 87.91785538638254 15.749999453867837 Q 87.39619260375721 13.884659155685027 86.85081802299149 13.125878033485007 Q 86.30544326314039 12.367095478602044 86.40029117204345 12.161592153539742 Q 87.03260990808413 11.307962406095196 87.03260990808413 10.549179851212234 Q 87.03260990808413 9.632317925718494 86.43190726106805 8.984191503336252 Q 87.03260990808413 8.114753890464776 87.03260990808413 7.355972051923285 Q 87.03260990808413 6.4391097682588105 86.49513890186114 5.790983345876569 Q 86.44771494740961 5.61709539349739 86.87452982113189 5.103336901756264 Q 87.30134469485415 4.5895785891005065 87.30134469485415 3.6885247976617497 Q 87.30134469485415 2.25 86.02090007368733 2.25 Z"
     style="fill:#ffffff;stroke:none"
     id="path28" />
  <path
     d="M 93.47155273503525 2.25 C 93.38190165122083 2.25 93.37569098151042 2.5326321821796447 93.2471317706448 2.9511178163474594 C 93.10088961330669 3.4271629763966462 92.99354158572235 4.422568621794706 92.65577004778751 4.615833437809297 C 92.60437426625057 4.645240841861541 92.55375613784483 4.6549974171004855 92.50284452512075 4.6549974171004855 C 92.40244145170236 4.6549974171004855 92.30089702488343 4.617052579469367 92.18999528999822 4.617052579469367 C 92.14917136890976 4.617052579469367 92.10707943035216 4.622194176905314 92.06330988127755 4.636263067073242 C 91.904922659045 4.687173303013964 91.82148178601322 4.934020003067939 91.65471660760699 4.963137594224142 C 90.96343609487614 5.083837437312795 90.0176557449876 5.0382046414322925 89.48917229874328 5.085715828735594 C 89.14975380523333 5.116229707676762 90.05616626847934 5.783655727818353 90.96255472406561 5.783655727818353 C 90.97536018604225 5.783655727818353 90.98816564801888 5.783522409296895 91.00096755330519 5.783252330295596 C 91.18923212164152 5.7791896720814915 91.38778630983873 5.770541407442611 91.58510231087281 5.770541407442611 C 91.91591053753031 5.770541407442611 92.2432384853325 5.794849894342885 92.51276241347601 5.905830564807049 C 92.77708508357158 6.014668960372207 93.08854124340361 6.330742392646173 93.08479295072203 6.641298365628519 L 92.974858635607 15.749999743770545 L 93.9936409150385 15.749999743770545 L 93.9418174128062 5.4611038414715924 C 93.94042548483519 5.1847322518524885 94.73738524899323 4.997374983746517 94.84174405045188 4.758841072120802 C 95.02340051761624 4.343625929444718 94.93052225361978 2.512227277650101 94.63744729888465 2.26642228540509 C 94.63407417966707 2.263593268997097 94.6306193713038 2.2622118300357275 94.62708195593929 2.2622118300357275 C 94.49519069989282 2.2622118300357275 94.24873684202254 4.182658844670444 93.86112001007139 4.595403808545353 C 93.82153289936271 4.6375572434261105 93.74351425810723 4.656736753404518 93.67592566861474 4.656736753404518 C 93.6035408248443 4.656736753404518 93.5431179337822 4.634738738436343 93.55467511218444 4.595403808545353 C 93.80105095233131 3.756873447793133 93.90025232334544 2.5335324263953174 93.51381585365655 2.26642228540509 C 93.49779239005356 2.255346789135237 93.48388320675471 2.25 93.47155273503525 2.25 Z"
     style="fill:#ffffff;stroke:none"
     id="path30" />
  <path
     d="M 97.18447080232902 3.896978974342346 Q 97.0943283017096 3.896978974342346 96.96859119865712 4.006999075465781 Q 96.47237793571095 4.674977984192287 96.43420803546906 5.915509203924939 Q 96.58688915259893 6.8888511728802 97.12127154639121 8.663765601059493 Q 96.93042052336212 10.095148432182723 96.83499539654547 12.595295869856214 Q 96.75865483798053 13.435042308251267 97.29303802379788 13.683150543575122 Q 98.87710210782672 14.103021228292418 101.30091009577036 14.103021228292418 Q 103.7438032629565 14.103021228292418 105.30878325394866 13.683150543575122 Q 105.86225363301511 13.435042308251267 105.78591146777075 12.595295869856214 Q 105.69048611466121 10.095148432182723 105.49963323603052 8.663765601059493 Q 106.0340197030946 6.8888511728802 106.18669679221125 5.915509203924939 Q 106.14853041648092 4.674977984192287 105.65231394583321 4.006999075465781 Q 105.52657693329789 3.896978974342346 105.43643488526422 3.896978974342346 Q 105.30766011713771 3.896978974342346 105.2515278972555 4.121509528615294 Q 105.3851225226442 4.503212321439982 105.49963323603052 4.865829052479958 Q 105.65231394583321 5.323871634473798 105.61414539769126 5.724659040808779 Q 105.5759761254121 6.37355260057314 105.49009055589212 6.78388223446076 Q 105.4042086070582 7.194212049382683 105.13701573559476 7.194212049382683 Q 105.12277340497084 7.195351479280829 105.10895541875132 7.195351479280829 Q 104.65988897004709 7.195351479280829 104.65988897004709 5.991849739860589 Q 104.65988897004709 5.55289260866069 104.77440040757062 4.923084228138817 Q 104.67608212631168 4.7559449422382105 104.56256999813638 4.7559449422382105 Q 104.45573586330121 4.7559449422382105 104.33544219016491 4.903998958379178 Q 104.27818683347175 5.362041540373019 104.25910147319496 5.915509203924939 Q 104.18276075622501 6.755254737148482 104.65988897004709 8.282062740346943 Q 104.4881228999676 10.438680572341694 104.4881228999676 12.595295869856214 Q 103.1903365045761 12.80523266048928 101.30091009577036 12.86248874131965 Q 99.43056995241292 12.80523266048928 98.13278265184991 12.595295869856214 Q 98.13278265184991 10.438680572341694 97.96101621970182 8.282062740346943 Q 98.4381440714553 6.755254737148482 98.36180353551964 5.915509203924939 Q 98.34271817524285 5.362041540373019 98.285462999584 4.903998958379178 Q 98.16516914541339 4.7559449422382105 98.05833464850963 4.7559449422382105 Q 97.94482297292008 4.7559449422382105 97.8465056873498 4.923084228138817 Q 97.96101621970182 5.55289260866069 97.96101621970182 5.991849739860589 Q 97.96101621970182 7.195351479280829 97.51194913737753 7.195351479280829 Q 97.49813169426092 7.195351479280829 97.4838890015684 7.194212049382683 Q 97.21669739734507 7.194212049382683 97.13081458859821 6.78388223446076 Q 97.04493173459277 6.37355260057314 97.00676110455635 5.724659040808779 Q 96.96859119865712 5.323871634473798 97.12127154639121 4.865829052479958 Q 97.23578275762186 4.503212321439982 97.36937855973352 4.121509528615294 Q 97.31324570623126 3.896978974342346 97.18447080232902 3.896978974342346 Z"
     style="fill:#ffffff;stroke:none"
     id="path32" />
  <path
     d="M 110.06567790313979 2.6799362565080806 Q 109.67873566179284 2.6799362565080806 109.34911787856802 2.988057502250985 Q 109.01950009534323 3.296178703222589 109.01950009534323 3.7117832631732135 Q 109.01950009534323 4.098725952233178 109.29895826137033 4.421177999107508 Q 109.57841714373826 4.7436302250670455 110.06567790313979 4.7436302250670455 Q 110.52427714982106 4.7436302250670455 110.82523234581438 4.406847063662179 Q 111.12618754180771 4.070063902257312 111.12618754180771 3.7117832631732135 Q 111.12618754180771 3.324840663655852 110.82523234581438 3.0023884376963155 Q 110.52427714982106 2.6799362565080806 110.06567790313979 2.6799362565080806 ZM 111.34115569244739 5.589171892180479 Q 111.42714309597143 5.589171892180479 111.44147456867239 5.689490768405468 Q 111.44147456867239 5.77547817192951 111.34115569244739 5.77547817192951 Q 111.25516828892336 5.77547817192951 111.24083753256323 5.689490768405468 Q 111.25516828892336 5.589171892180479 111.34115569244739 5.589171892180479 ZM 111.34115569244739 5.546178190418458 Q 111.1978438308012 5.546178190418458 111.1978438308012 5.689490768405468 Q 111.1978438308012 5.80414004282017 111.34115569244739 5.8471333864117785 Q 111.42714309597143 5.8328026300516544 111.51313014132506 5.761147057398974 Q 111.47013643956305 5.546178190418458 111.34115569244739 5.546178190418458 ZM 110.97052417349887 5.391527369864752 Q 111.07689469700738 5.391527369864752 111.1978438308012 5.402866328772273 Q 111.06886308368556 5.4745219014249535 111.14051937267907 5.589171892180479 Q 111.21217494533174 5.4745219014249535 111.34115569244739 5.4745219014249535 Q 111.58478643031857 5.4745219014249535 111.58478643031857 5.77547817192951 Q 111.44147456867239 5.8757963318136746 111.45580568320293 5.961783377167304 Q 111.47013643956305 6.047770780691346 111.49879938496494 6.076432651582006 Q 111.39848086691036 6.176751527806996 111.31249382155673 6.592357072726253 Q 111.25516828892336 6.592357072726253 111.24083753256323 6.549363370964232 Q 111.25516828892336 6.10509523881349 111.21217494533174 5.961783377167304 Q 111.08319384004568 5.703821882936005 110.85389493304586 5.696655967500325 Q 110.84392597596478 5.696344359241763 110.83413288055606 5.696344359241763 Q 110.61867654364463 5.696344359241763 110.48844793081308 5.8471333864117785 Q 110.35230234277299 6.004777078929324 110.39529640270541 6.205414115038479 Q 110.43828974629702 6.406051509318047 111.01153826739301 6.649681530848398 L 111.01153826739301 6.678344118079883 Q 110.12300307760276 6.449044136568831 110.20182492386152 5.882962247249355 Q 110.27025194841917 5.391527369864752 110.97052417349887 5.391527369864752 ZM 110.58160160794321 5.2452228153399325 Q 110.02268455954818 5.2452228153399325 109.95102827055467 5.93312078993582 Q 109.87937269790199 6.621019659957738 111.06886308368556 6.850318566957553 Q 110.86822568940599 6.936305970481594 110.73924494229034 7.165604877481409 Q 110.6102645533451 7.394904858992461 110.59593200613293 7.638535596863636 Q 110.655549829404 7.656879294521374 110.71076502196905 7.656879294521374 Q 110.82809842545232 7.656879294521374 110.92555122203937 7.574044506964987 Q 111.06886308368556 7.452229317114605 111.26949940345389 6.964968557713078 Q 111.57461582329545 6.1328333882112425 112.00052628914239 6.1328333882112425 Q 112.01472308976837 6.1328333882112425 112.02905456246931 6.133757826044975 L 112.15803530958496 6.133757826044975 Q 112.13993266061459 6.0251422903931795 112.07609702257017 6.0251422903931795 Q 112.03885983567206 6.0251422903931795 111.9860608607073 6.06210153705147 Q 111.95330331115382 5.996587870626161 111.85971194978005 5.996587870626161 Q 111.7895180705793 5.996587870626161 111.68510459020274 6.03343966616081 Q 111.88574198448231 5.818471515521118 111.88574198448231 5.603503364881427 L 111.88574198448231 5.603503364881427 Q 111.87300329560414 5.605095790533801 111.86114928764397 5.605095790533801 Q 111.76631543311048 5.605095790533801 111.72809829196476 5.503184488656437 Q 111.72093273469949 5.507961765613558 111.70719833207558 5.507961765613558 Q 111.63852775163767 5.507961765613558 111.40564606600522 5.388535214241736 Q 111.12618754180771 5.2452228153399325 110.58160160794321 5.2452228153399325 ZM 115.8458477737494 6.423376928494071 Q 115.7630831875938 6.423376928494071 115.66201573520743 6.470541882875872 Q 115.33956359879049 6.621019659957738 115.43988175867466 7.710191169516317 Q 116.25676142058353 6.979299672243615 116.1206146684896 6.649681530848398 Q 116.02714092132491 6.423376928494071 115.8458477737494 6.423376928494071 ZM 111.09074299782235 7.911322122623813 Q 111.00363129737461 7.911322122623813 110.8968886348079 7.982483778278152 Q 111.26949940345389 8.240446347020688 111.24083753256323 9.28662451298766 L 111.42714309597143 9.28662451298766 Q 111.44147456867239 8.297770446972422 111.29816199068537 8.054140067271657 Q 111.21415168783635 7.911322122623813 111.09074299782235 7.911322122623813 ZM 109.76472306531687 5.359872627010252 Q 109.263130475044 5.3742037415407875 108.66121936671652 6.370223006650882 Q 108.05930897472989 7.366242271760976 108.05930897472989 9.28662451298766 L 108.48924527600927 9.28662451298766 Q 108.5035763905398 7.767515627638462 109.80771640890849 7.767515627638462 L 109.80771640890849 9.28662451298766 L 110.09434084854168 9.28662451298766 L 110.09434084854168 7.151274121121285 Q 109.27746158957453 6.535031540092872 109.76472306531687 5.359872627010252 ZM 110.45544969074264 8.118088887166326 Q 110.41950227549864 8.118088887166326 110.38096457183406 8.125796356265163 L 110.38096457183406 9.601911181681928 L 109.49242974021422 9.601911181681928 L 109.49242974021422 8.125796356265163 Q 109.46156261409601 8.119794494668938 109.43254149828198 8.119794494668938 Q 108.9765060354108 8.119794494668938 108.9765060354108 9.601911181681928 Q 109.13414972792835 13.514331236787974 109.52109196927529 14.517515700992924 L 109.19147418605048 15.234077158246327 L 113.93510497282463 15.234077158246327 L 112.94625162315022 14.804140856966946 Q 113.43351309889258 12.668789748759746 114.03542384904962 11.658439727289528 Q 114.63733459920668 10.648088273137661 114.30771663689667 10.418789724308258 Q 114.22531219109047 10.361465266186114 114.13663779313455 10.361465266186114 Q 113.87061459926682 10.361465266186114 113.54816237330728 10.877388970989537 L 111.57045567395845 13.542993465849047 L 111.06886308368556 13.542993465849047 L 110.95421380927085 9.601911181681928 Q 110.95421380927085 8.118088887166326 110.45544969074264 8.118088887166326 ZM 110.06567790313979 2.25 Q 110.73924494229034 2.264330957830981 111.14768421360351 2.715764042834421 Q 111.55612455942791 3.167197060680909 111.55612455942791 3.726115004501971 Q 111.55612455942791 4.199044828458168 111.34115569244739 4.47133761630521 Q 111.16918195991055 4.757962055938405 110.92555122203937 4.915605569370745 Q 110.9417938920595 4.914650149796363 110.95829122124266 4.914650149796363 Q 111.1892463082282 4.914650149796363 111.47013643956305 5.101910953693746 Q 111.78542382459814 5.316878925248231 111.75676087919624 5.388535214241736 Q 111.79770727888247 5.35577802285867 111.84333353317372 5.35577802285867 Q 111.87755277617914 5.35577802285867 111.91440457171379 5.3742037415407875 Q 112.00039161706742 5.4171974433028085 111.9860608607073 5.546178190418458 Q 112.40166533111531 5.689490768405468 112.40166533111531 6.434713380208707 Q 112.21822620551546 6.342993459238369 112.13567831245919 6.342993459238369 Q 112.11504160782295 6.342993459238369 112.100710135122 6.3487259766846655 Q 111.81408641182962 6.3487259766846655 111.32682457791685 7.495223018876626 Q 111.42714309597143 7.581210422400667 111.59911826118993 7.824841160271842 Q 111.7710927100676 8.068471898143018 111.7710927100676 8.670382290129659 L 111.7710927100676 9.601911181681928 L 111.4128119814409 9.601911181681928 Q 111.42714309597143 10.390127495247187 111.51313014132506 12.812102326746757 L 113.50516867154525 10.089171941083453 Q 113.9211071358626 9.747889263876083 114.16243591249494 9.747889263876083 Q 114.24539247799146 9.747889263876083 114.30771663689667 9.788216386919721 L 115.06727090048606 8.269108217911349 Q 114.53701572298169 8.011146365509637 113.90644220650795 7.968153021918028 Q 113.93510497282463 7.581210422400667 114.1787357106958 7.280254868236935 Q 114.69465923641403 7.6671974677542964 115.18191999581555 7.867834862033863 Q 114.8666336852917 6.420382265678171 115.51870396310385 6.133757826044975 Q 115.71630093829737 6.046901859271495 115.88099799119857 6.046901859271495 Q 116.25980125764266 6.046901859271495 116.46456367817319 6.506369669202212 Q 116.75835320497299 7.165604877481409 115.54020072444226 7.996815609149513 Q 116.08478692693456 8.254777461551225 116.65803500031753 8.254777461551225 Q 116.64370404248655 8.656051175599123 116.37141058306997 8.97133784429339 Q 115.98446796116697 8.57006377207508 115.35389453423583 8.369426735965927 L 114.85230274984637 10.117834170144526 Q 115.00994554693789 10.175159344607495 115.0529392486999 10.476114898771227 Q 115.09593277137672 10.77707045293496 114.51551887210067 11.851911206133416 Q 113.93510497282463 12.92675195933187 113.57682496053876 14.488853471931852 L 114.62300294742052 15.07643346572878 L 114.55134737476784 15.750000146708926 L 108.41758898701576 15.750000146708926 L 108.91918157728865 14.517515700992924 Q 108.48924527600927 12.625796405168138 108.47491416147874 9.616242296212464 L 107.68669713157264 9.601911181681928 Q 107.68669713157264 7.065286717597243 108.38892675795469 5.968948576262161 Q 109.0172364583385 4.9880156279965995 109.34725109437996 4.9880156279965995 Q 109.38607676705591 4.9880156279965995 109.42077345122071 5.00159279380958 Q 108.60389490859438 4.571655776189374 108.56090084866194 3.7117832631732135 Q 108.56090084866194 3.095541577570831 109.01233453807797 2.6799362565080806 Q 109.46376822749397 2.264330957830981 110.06567790313979 2.25 Z"
     style="fill:#ffffff;stroke:none"
     id="path34" />
  <path
     d="M 124.32632022648554 2.542654670692597 C 124.35013895575885 2.542654670692597 124.37520144758719 2.546242079342835 124.40150912585439 2.5534168743951255 C 124.54473760371204 2.5924790591166946 124.58597043263937 2.711836279735364 124.52520618875256 2.91148860299569 L 123.48354223397526 5.606794944761905 L 122.97573114056443 5.606794944761905 L 124.08249933724535 2.755238974181999 C 124.13918842551402 2.6135160977730023 124.22046229257474 2.542654670692597 124.32632022648554 2.542654670692597 ZM 125.18666289436845 2.760447496859336 C 125.21617644715495 2.760447496859336 125.24742642631334 2.7652218239509616 125.28041283184359 2.774770478134213 C 125.44534343561105 2.8225132150940198 125.47572555755445 2.9462106784595306 125.3715584857319 3.1458630017198566 L 124.42104054081386 5.606794944761905 L 123.91322873546109 5.606794944761905 L 124.91583021629042 2.989613372906165 C 124.97833088654912 2.8368361073761554 125.0686079712805 2.760447496859336 125.18666289436845 2.760447496859336 ZM 122.61534649061264 6.73605338707123 C 122.53442361092435 6.73605338707123 122.44187863516893 6.750258052496301 122.33771191931733 6.778667027375477 L 122.33771191931733 6.908875155211752 C 122.4405430321047 6.876156083876913 122.53393628667197 6.859796370224012 122.61789097107722 6.859796370224012 C 122.68985192572687 6.859796370224012 122.75487856595991 6.871815729889145 122.81297124774731 6.895853737277482 C 122.93883902159581 6.947936917217799 123.1059392684007 6.98265903717801 123.3142727001039 7.0000200971581155 L 123.24916845820029 6.934916211225461 C 123.05819644244815 6.865471971305039 122.906286900644 6.809048437376955 122.79343983278784 6.765645609441208 C 122.74214619645 6.745917342537568 122.68278163040127 6.73605338707123 122.61534649061264 6.73605338707123 ZM 122.71531488489188 7.026062221084723 L 122.94968937260879 7.1041864570387485 C 122.86288407270825 7.138908932969926 122.78475948078326 7.164950700925567 122.71531488489188 7.182312116876639 C 122.7673980648322 7.138909288940892 122.7673980648322 7.086826109000575 122.71531488489188 7.026062221084723 ZM 122.52000322709392 7.026062221084723 C 122.49396145913828 7.0781450450540735 122.50264181114285 7.134568578982158 122.54604463907859 7.195332822868976 C 122.47660039915817 7.177971406917905 122.42451721921786 7.160609990966833 122.38979509925764 7.1432489309867275 C 122.39847545126221 7.099846814992913 122.44187827919797 7.060784341044934 122.52000322709392 7.026062221084723 ZM 122.58510711302657 6.934916211225461 C 122.4722600451704 6.934916211225461 122.39413545324541 6.9783190391612075 122.35073262530966 7.0651239830907695 L 122.23354555943669 7.130228936936322 L 122.22052449747339 7.195332822868976 L 122.33771191931733 7.221374234853651 C 122.40136913924438 7.260275809925023 122.47799366951888 7.279726419475226 122.56758515416986 7.279726419475226 C 122.69790042926688 7.279726419475226 122.85565038670929 7.23857439595715 123.04083502649708 7.156270348920997 L 123.32729269415431 7.156270348920997 L 123.32729269415431 7.0651239830907695 L 123.02781432050475 7.0651239830907695 C 122.84552301272815 6.9783190391612075 122.69795382491178 6.934916211225461 122.58510711302657 6.934916211225461 ZM 124.94187234021702 5.854189782500184 L 124.0564575692897 7.4817904905262 C 123.99858772532698 7.562808414462394 123.94457589469319 7.603317198445008 123.89442136544635 7.603317198445008 C 123.86934427880843 7.603317198445008 123.84523151751723 7.593189824463871 123.8220830815728 7.572935432472564 L 123.53562541391557 7.390644836637905 C 123.55298682986664 7.329880948722052 123.6224307138161 7.238735294833757 123.74395848964781 7.117207874973018 C 123.86548626547952 6.995680099141313 123.89152803343515 6.850280910333335 123.8220830815728 6.681010664520047 C 123.78283229898383 6.585336348002999 123.70752984487686 6.537499189744475 123.59617607522283 6.537499189744475 C 123.51051913765843 6.537499189744475 123.4035306399598 6.565804933043526 123.275209514214 6.622416775612596 C 122.9978098837562 6.455977210920503 122.75297447726307 6.372757250588974 122.54070329473458 6.372757250588974 C 122.52048699163663 6.372757250588974 122.50056614444043 6.373511909036777 122.48094075314594 6.37502158190335 C 122.46357969316583 6.175369214146654 122.43319757122242 6.001758614345598 122.38979509925764 5.854189782500184 ZM 122.44443308282055 6.595833219846786 C 122.66661556495384 6.595833219846786 122.95656210404829 6.691500060973549 123.3142727001039 6.8828333872561105 C 123.39239693605793 6.7960277313846165 123.47052152798292 6.75262490344887 123.54864647587888 6.75262490344887 C 123.62677106780387 6.75262490344887 123.66800354076025 6.791687377396849 123.67234353877706 6.869811969321841 C 123.67668424873578 6.9479372731887645 123.6072396528444 7.049933634060997 123.46401081901578 7.175801051938538 C 123.3207826971291 7.301668825787044 123.25350845621709 7.408005540647045 123.26218880822165 7.494811196518538 L 123.3012516381406 7.50783154653991 C 123.27520987018495 7.698803206321071 123.18840421431346 7.848542393145852 123.04083502649708 7.957049462985219 C 122.8932658386807 8.065556176853619 122.69361382689497 8.124149709790105 122.44187827919797 8.13282970582371 C 122.4245168632469 8.13374348329329 122.40816569289717 8.134200194042599 122.39282405620688 8.134200194042599 C 122.26242406001995 8.134200194042599 122.20499099243244 8.101191362341481 122.22052449747339 8.035174054910211 C 122.2378855574535 7.961389461002021 122.22486485146116 7.898455574077768 122.18146237949638 7.846372038166485 L 122.18146237949638 7.846372038166485 C 122.20788183264689 7.847127052585254 122.23267663430882 7.847504381809156 122.25584714045316 7.847504381809156 C 122.49913051353477 7.847504381809156 122.56331136675273 7.805894579628874 122.44838898816509 7.722674975268311 C 122.36312326269228 7.660930743312246 122.29478787233077 7.630058805319696 122.24338210513865 7.630058805319696 C 122.21890340569448 7.630058805319696 122.19826349714705 7.637059330335972 122.18146237949638 7.651060024397556 C 122.21618414348562 7.520852252532247 122.1467399035652 7.451408012611825 121.97312930376414 7.442727304636289 C 122.16410096354531 7.121547517018854 122.31167015136168 6.8394305593203635 122.41583651124232 6.596375719598886 C 122.42524055222066 6.596014053097486 122.43477274274673 6.595833219846786 122.44443308282055 6.595833219846786 ZM 123.37937658603656 7.559915082451193 L 123.75697919564014 7.794288858226168 C 123.78302131956676 8.193593949710529 123.86548662145047 8.471370909392217 124.00437510129132 8.6276200932422 C 123.92997076193143 8.617699894363245 123.85981813978877 8.612739794923765 123.79391723486336 8.612739794923765 C 123.7444906662419 8.612739794923765 123.69745622251158 8.615529895354843 123.65281319173047 8.621110096216997 C 123.54864647587888 8.634130802209334 123.44882011401505 8.684044339112216 123.35333446210996 8.77084999498371 C 123.25784845423388 8.493072323360089 123.14934174036549 8.271718897606485 123.02781432050475 8.106789005780966 C 123.25350810024612 7.941858402013514 123.37069552209006 7.759567094236923 123.37937658603656 7.559915082451193 ZM 119.4878192230758 10.329554302405894 C 119.67691331399709 10.329554302405894 119.85431002099193 10.421963653223294 120.02000916607486 10.606782354858096 C 119.70751008643296 10.61546306283363 119.4991771886862 10.715289424697461 119.39501073981283 10.906260728507657 C 119.30820552890505 10.689247300770855 119.19969881503664 10.567720236881081 119.0694907761931 10.541678824896406 C 118.93928273734959 10.5156367009698 119.00872706626275 10.457043168033314 119.27782358494711 10.365897514145018 C 119.34935559458282 10.341668706318936 119.41935417028995 10.329554302405894 119.4878192230758 10.329554302405894 ZM 123.88718732347643 8.914078472841357 C 124.225727815103 8.914078472841357 124.438401244823 9.105049776651551 124.52520618875256 9.486993808155805 C 124.64673396458426 10.016506315534507 124.6640946685934 10.841156486604037 124.57728972466384 11.960946457190191 C 124.4731233647832 13.245664895718 124.35159630089343 14.309030620434138 124.21270782105259 15.151041495512807 L 124.36895700490257 15.38541562725875 L 120.0460509340305 15.38541562725875 L 120.94448605497918 15.020834435589432 C 120.6840701552776 13.744795993095225 120.3585500136724 12.809468753177928 119.96792598613455 12.214851291953673 C 119.57730204758943 11.620235254613283 119.51219798367129 11.23612193604256 119.7726139723656 11.062510624299573 C 119.85528573740959 11.007395639642302 119.93752001413641 10.979838503284633 120.01931698053157 10.979838503284633 C 120.19518034259062 10.979838503284633 120.36902178956309 11.107222713448065 120.540841321449 11.361988997949135 L 122.29864944536935 13.861982347026265 L 122.61114852501125 13.835940935041588 C 122.80212054076337 11.891501505327836 123.00611290653687 10.441852463032575 123.22312633427367 9.486993808155805 C 123.32729305012528 9.105049776651551 123.54864683184985 8.914078472841357 123.88718732347643 8.914078472841357 ZM 124.2632001667461 2.25 C 124.01295364559964 2.25 123.84421344055464 2.396711658365488 123.75697919564014 2.6901349547602322 L 122.63719029296689 5.606794944761905 L 122.07729566364478 5.606794944761905 C 122.18146237949638 5.954016500334982 122.23354555943669 6.262175225989113 122.23354555943669 6.531271833666231 C 122.17278167152084 6.774326317416744 122.05776460465627 7.017381513109187 121.88849435884299 7.26043670880163 C 121.72506061298733 7.495110212129932 121.7578629815282 7.612447141779565 121.98690075252367 7.612447141779565 C 121.99508060935011 7.612447141779565 122.00351106973659 7.612297633973869 122.01219177771212 7.611998262391509 L 122.01219177771212 7.611998262391509 C 121.95142824576723 7.698803562292037 121.96010859777181 7.750887098203319 122.03823354566777 7.768248158183424 C 121.96878930574735 7.802970278143635 121.96010859777181 7.839862397112248 122.01219177771212 7.878924515089261 C 122.06427495765244 7.917986633066274 122.08597637162032 8.002621933958402 122.07729566364478 8.13282970582371 C 122.0512542516601 8.514773737327964 121.94925789078788 8.825102817961461 121.77130729297001 9.063817659666137 C 121.62522784364612 9.259777540593085 121.49231042078803 9.357757125085595 121.37255431245383 9.357757125085595 C 121.34642533161154 9.357757125085595 121.32092321564026 9.353093193489784 121.29604760856907 9.343764618356227 C 121.23431975127743 9.320616538382753 121.18287981087258 9.309043210337947 121.1417277873545 9.309043210337947 C 121.0902873129932 9.309043210337947 121.05492195349753 9.327127247349887 121.03563170886748 9.363296745257632 C 121.00090958890726 9.42840027521932 121.04648241585141 9.495673804189408 121.1723505456709 9.565118756051763 C 121.2171032155095 9.589810326133573 121.27008629005172 9.602155399232547 121.33130012526853 9.602155399232547 C 121.44224986787621 9.602155399232547 121.58023845311514 9.561598203198567 121.7452651690434 9.480483099188671 C 122.00134107072819 9.354615325340163 122.23354555943669 8.966162008752638 122.44187827919797 8.315121725542232 L 122.80646053878017 8.315121725542232 C 122.91930760663635 8.419287373480934 123.00611290653687 8.571197271256047 123.06687679445272 8.77084999498371 C 122.75437735883986 9.777791473829831 122.49830181312605 11.253481928109768 122.29864944536935 13.197922069765452 L 120.540841321449 10.723969420731066 C 120.4453554915584 10.576400232914686 120.32382789371219 10.454873169024912 120.17625888388129 10.359387517119815 C 120.0117855248196 10.153795773796325 119.80673503534983 10.050999902134581 119.5611072374865 10.050999902134581 C 119.49560644392682 10.050999902134581 119.42722014971719 10.058310121891228 119.3559483548576 10.072929849462591 L 119.3559483548576 7.273457058823002 C 119.3559483548576 6.89151373926068 119.22140005101903 6.696201725491751 118.95230353233465 6.687521017516215 C 119.11723369113841 6.435785469819202 119.32990676488744 6.20141133807326 119.59032284257451 5.984398266307425 C 119.66442496258432 5.852072823165709 119.66268212873504 5.785909923609368 119.58509425203395 5.785909923609368 C 119.53543799314672 5.785909923609368 119.45471579209048 5.813009993246764 119.34292755987252 5.867210488492521 C 119.06515051119808 6.092904268233894 118.87417871792782 6.257834516030379 118.77001231355081 6.362001587852944 C 118.55299897480675 6.587695367594316 118.42930148919305 6.754795614399203 118.39891981221335 6.863301972296638 C 118.3685377347663 6.971809042136005 118.28824269886921 7.256096354813862 118.15803468227386 7.716164266301177 C 118.16287574662142 7.8565552995892745 118.18526565745296 7.926750994218807 118.22520441789715 7.926750994218807 C 118.25688002152783 7.926750994218807 118.29959412351312 7.88259671157395 118.35334669604279 7.794288858226168 C 118.38806883825119 7.681442502311931 118.43581177544466 7.538213668483319 118.49657550762322 7.364602356740332 C 118.55733923980178 7.190991756939276 118.67452643916386 7.065124339061736 118.84813712795766 6.9869997471367435 C 118.99570627127767 6.9869997471367435 119.0694907761931 7.0824853990418415 119.0694907761931 7.273457058823002 L 119.0694907761931 10.125013385373874 C 118.56601976979182 10.394109637080026 118.42496120194984 10.576400232914686 118.64631502817078 10.671886596761714 C 118.85162631086948 10.760452885030773 119.01773099587535 10.916229339437981 119.14462930567028 11.139218095809138 L 119.14462921667753 11.139218095809138 C 119.20740327263808 11.568843014317865 119.38417925526106 12.029384011218921 119.67495760951019 12.52084037457037 C 119.98311686912076 13.041671462031605 120.26306418378182 13.80555881309818 120.51479973147883 14.812500291944302 L 119.52521877865637 15.242187149401103 L 119.59032284257451 15.749999666695796 L 125.15020505997829 15.749999666695796 L 124.57728972466384 15.072918683442646 C 124.85506668434553 12.373271898695922 124.95272233525903 10.648015183785441 124.8702581012882 9.897149250653136 C 124.7877924434335 9.146282605578897 124.59899042668978 8.731787165064766 124.30385276299896 8.653662217168808 C 124.09552039920865 8.445329497407542 124.01305545329589 8.219635361695204 124.0564575692897 7.976580877944691 L 124.38197771089492 7.390644836637905 C 124.89412951426448 7.763907804195657 125.15020505997829 8.26737818764775 125.15020505997829 8.901057054907087 L 125.15020505997829 15.749999666695796 L 125.43666272763551 15.749999666695796 L 125.43666272763551 8.901057054907087 C 125.43666272763551 8.145851123757978 125.12850364601042 7.555574728463425 124.51218548276022 7.130228936936322 L 125.35853777973955 5.606794944761905 L 124.75958174438236 5.606794944761905 L 125.68405756537379 3.210967065637994 C 125.81426676112297 2.881106703534135 125.75567251624454 2.6684336297851003 125.50827696656434 2.572947755398149 C 125.38995791301966 2.527280596148026 125.2790843481987 2.504447016522964 125.17565627210142 2.504447016522964 C 125.0628255789097 2.504447016522964 124.95885571500226 2.531620861143052 124.86374739232106 2.585968550383228 C 124.80298386037617 2.394996801609326 124.62720326156672 2.2843200998566164 124.33640488395076 2.253938442691705 C 124.31127404569698 2.2513128142305683 124.28687223598145 2.25 124.2632001667461 2.25 Z"
     style="fill:#ffffff;stroke:none"
     id="path36" />
  <path
     d="M 129.7295702988128 2.5953820110450616 Q 129.646979028609 3.466345324760725 129.646979028609 4.5475411192669455 Q 129.646979028609 5.628737003279129 129.75209519068656 6.732457600153148 Q 129.5118294983545 6.6048167252137535 129.00126474551342 6.6048167252137535 Q 128.48319178488705 6.6048167252137535 128.25043438984625 6.732457600153148 Q 128.36305893872103 5.628737003279129 128.35555064142977 4.5475411192669455 Q 128.34804234413852 3.466345324760725 128.27295928172 2.5953820110450616 ZM 129.00126474551342 7.070331515295375 Q 129.5118294983545 7.077839633574701 130.03741084577808 7.340630575804385 L 129.9022613155236 7.5884045654277035 Q 129.79607233496222 7.569863584009007 129.70350544606512 7.569863584009007 Q 129.38372874177236 7.569863584009007 129.2265140222749 7.791128771303497 Q 129.13641427576792 7.393188477831236 129.00126474551342 7.303088910336185 Q 128.86611539427085 7.393188477831236 128.76850735047262 7.791128771303497 Q 128.61129272048112 7.569863584009007 128.2915159266824 7.569863584009007 Q 128.19894894827937 7.569863584009007 128.092759967718 7.5884045654277035 L 127.95761048221645 7.340630575804385 Q 128.49820837946956 7.077839633574701 129.00126474551342 7.070331515295375 ZM 129.00126474551342 7.791128771303497 Q 129.11388938389416 7.8812283387985484 129.0763478974379 8.053919355509326 Q 129.03880641098164 8.226610372220101 129.00126474551342 8.38428479434837 Q 128.9562149617659 8.226610372220101 128.91867347530962 8.053919355509326 Q 128.88113198885335 7.8812283387985484 129.00126474551342 7.791128771303497 ZM 129.68503248917904 7.792493916265543 Q 129.72752258136973 7.792493916265543 129.77462008256032 7.7986368895828235 Q 129.2640555087312 9.014982482861441 129.00126474551342 9.014982482861441 Q 128.74598245859886 9.014982482861441 128.21289281388403 7.7986368895828235 Q 128.26101417379616 7.792493916265543 128.30424895560685 7.792493916265543 Q 128.57806944925522 7.792493916265543 128.65588280159784 8.038902760926817 Q 128.7534907558901 8.316709939715153 128.8586070969796 8.489401314449784 Q 128.9712315563484 8.669600449439887 129.00126474551342 8.669600449439887 Q 129.03880641098164 8.669600449439887 129.13641427576792 8.489401314449784 Q 129.24153061685743 8.316709939715153 129.33163018435246 8.038902760926817 Q 129.4159279752648 7.792493916265543 129.68503248917904 7.792493916265543 ZM 127.82996929400619 2.25 Q 128.19036792201024 4.802823585193447 127.82246099671494 6.852590714837072 Q 127.15422191125155 7.167939559093608 127.26684647411165 7.38568035955191 Q 127.3492547465751 7.5504966415550525 127.45578251839824 7.5504966415550525 Q 127.49484260779174 7.5504966415550525 127.53714543112937 7.5283381870976696 Q 128.19036792201024 8.264152037688302 128.61083292834434 9.26275647248476 Q 128.77601564776387 10.907074832352942 128.56578314459682 14.94654271331016 Q 128.56578314459682 15.749999801090459 128.98593953436725 15.749999801090459 Q 128.98983000059596 15.749999801090459 128.99375644822217 15.749931060510152 L 129.00126474551342 15.749931060510152 Q 129.00519119313964 15.749999801090459 129.00908165936835 15.749999801090459 Q 129.4292382281507 15.749999801090459 129.4292382281507 14.94654271331016 Q 129.2265140222749 10.907074832352942 129.38418826539126 9.26275647248476 Q 129.79714515344602 8.264152037688302 130.45036773383285 7.5283381870976696 Q 130.49267040053508 7.5504966415550525 130.53173044517558 7.5504966415550525 Q 130.63825829531643 7.5504966415550525 130.720666436318 7.38568035955191 Q 130.83329107469876 7.167939559093608 130.17256037603258 6.852590714837072 Q 129.79714515344602 4.802823585193447 130.17256037603258 2.25 Z"
     style="fill:#ffffff;stroke:none"
     id="path38" />
  <path
     d="M 135.9741259724389 2.913648174181388 Q 138.69857558017094 3.245472261272082 135.9741259724389 7.960867376260402 Q 133.24967537999476 3.245472261272082 135.9741259724389 2.913648174181388 ZM 135.9741259724389 2.25 Q 132.20180987037733 2.511966191372091 135.45019287354046 8.310155512064144 L 132.23673844337463 8.310155512064144 L 132.23673844337463 9.13098361591507 L 135.41526423899865 9.13098361591507 L 135.41526423899865 15.75000086141948 L 136.4980583551831 15.75000086141948 L 136.4980583551831 9.096054623296126 L 139.7115127853489 9.096054623296126 L 139.7115127853489 8.310155512064144 L 136.4980583551831 8.310155512064144 Q 139.74644106181358 2.4945022769379706 135.9741259724389 2.25 Z"
     style="fill:#ffffff;stroke:none"
     id="path40" />
  <path
     d="M 30.489336013793945 0.375 C 20.86433607339859 0.375 20.86433607339859 17.625 30.489336013793945 17.625 "
     style="fill:none;stroke:#ffffff;stroke-width:1"
     id="path42" />
  <path
     d="M 30.489336013793945 0.375 L 139.711519241333 0.375 "
     style="fill:none;stroke:#ffffff;stroke-width:1"
     id="path44" />
  <path
     d="M 30.489336013793945 17.625 L 139.711519241333 17.625 "
     style="fill:none;stroke:#ffffff;stroke-width:1"
     id="path46" />
  <path
     d="M 147.399019241333 0.375 L 147.399019241333 17.625 "
     style="fill:none;stroke:#ffffff;stroke-width:1"
     id="path48" />
  <path
     d="M 139.711519241333 0.375 C 149.33651542663574 0.375 149.33651542663574 17.625 139.711519241333 17.625 "
     style="fill:none;stroke:#ffffff;stroke-width:1"
     id="path50" />
</svg>
