<?xml version="1.0" encoding="UTF-8" standalone="no"?>
<svg
   width="139.42739868164062"
   height="18.0"
   version="1.1"
   id="svg82"
   sodipodi:docname="kanakhtmeryhapisankhtanebemkafraneb.svg"
   inkscape:version="1.1.1 (3bf5ae0d25, 2021-09-20)"
   xmlns:inkscape="http://www.inkscape.org/namespaces/inkscape"
   xmlns:sodipodi="http://sodipodi.sourceforge.net/DTD/sodipodi-0.dtd"
   xmlns="http://www.w3.org/2000/svg"
   xmlns:svg="http://www.w3.org/2000/svg">
  <defs
     id="defs86" />
  <sodipodi:namedview
     id="namedview84"
     pagecolor="#ffffff"
     bordercolor="#666666"
     borderopacity="1.0"
     inkscape:pageshadow="2"
     inkscape:pageopacity="0.0"
     inkscape:pagecheckerboard="0"
     showgrid="false"
     inkscape:zoom="9.8617633"
     inkscape:cx="69.713699"
     inkscape:cy="8.9740544"
     inkscape:window-width="1920"
     inkscape:window-height="1001"
     inkscape:window-x="-9"
     inkscape:window-y="-9"
     inkscape:window-maximized="1"
     inkscape:current-layer="svg82" />
  <path
     d="M 3.009169848917976 0.4739171748132039 C 3.7026715218272255 0.4739171748132039 4.256829318471649 0.6745946316238001 4.644164689284773 0.9526347441559112 C 4.650308145491952 1.0062515645085024 4.663546055856558 1.060016372992199 4.652575800812965 1.1124437372646898 C 4.603449882852364 1.360569519526529 4.457806885291136 1.5903185537666114 4.257258755698066 1.7432685981716125 C 3.9413649209170813 1.94997010496389 3.5600411988456018 2.009570228366613 3.2002765010963685 2.0993341831784433 C 3.10998720613517 2.1086036967312767 3.181170796374544 2.130187995961788 3.231117085890341 2.138585643286511 C 3.4609996992016763 2.1784200797833564 3.9384250002790258 2.2376030490926513 4.202499603977515 2.2376030490926513 C 4.220906351189456 2.2376030490926513 4.23827706337661 2.2373153403237978 4.254454894379272 2.2367137030214415 C 4.532424083629077 2.2049171597812043 4.794657162235626 2.0893111466595644 5.019856122452685 1.9255069464391237 C 5.098959498900698 1.8590524805074944 5.166930105007111 1.7763742399315428 5.224523825878929 1.6899990125400517 C 5.3720929131784425 2.0357255065676374 5.451951702305268 2.4028945713681713 5.485264503827336 2.6067978859799568 C 5.503366062427325 2.716651377223197 5.580895308140001 2.8061828973646232 5.687128818362978 2.8395020766672823 C 6.825504545072815 3.188508875845171 7.72511459117944 4.749370284342509 8.566494083211595 5.78895938641794 C 10.295861887830181 7.925728476871466 11.765759846336513 10.315234366846607 13.458892408638075 12.548598959980612 C 12.522122105814729 12.092922126930452 11.58844053850988 11.632519122248745 10.649618007621019 11.174801399409672 C 8.72850955219054 10.164475916823728 6.728271736761494 9.358727903879377 5.045088984609069 8.085161653353607 C 5.042277564439204 8.082822188947427 5.039490238107126 8.07909189594436 5.036677873080877 8.076750541825415 C 4.066833817400553 7.2693821001829235 3.0743602151151883 6.41700117284651 2.698420284718348 5.284299308721125 C 2.5498687829938245 4.364048874911361 4.455242072637431 2.7072382455000326 4.240437005069874 2.637638234559833 C 4.2215063349931405 2.631504463130588 4.200107227613845 2.6285180083156328 4.1764933768710275 2.6285180083156328 C 3.7176359210190495 2.6285180083156328 2.422621666796125 3.756154733581801 2.15731260823226 4.830105427765268 C 2.154053326136495 4.815773846136464 2.1461630666898484 4.79928090552982 2.143294246494671 4.785246481233707 C 2.0704243238243896 4.4287242943794265 1.9886595231574336 3.528875672035904 2.2105824300779164 2.8058581029827074 C 2.22090238771539 2.7720589366371007 2.223991359447983 2.7373940456298778 2.2217969304967107 2.702122556824284 C 2.206042867582163 2.411103719844335 2.16184012380912 2.2384220033632714 2.098435772391302 2.068493834598567 C 2.035031184759387 1.8985666106902463 1.9592064599630061 1.724220765903293 1.8376947401217505 1.3030929608462967 C 1.806828171777225 1.1953371688820418 1.6962380468757994 0.9753151948986268 1.630223411590808 0.9582419943653084 C 1.8161052441811285 0.8204882523408192 2.0045522437462973 0.6772958579179091 2.2750667523423678 0.5825507383579678 L 2.2750667523423678 0.5825507383579678 C 2.1960743965194465 0.658865194028754 2.1432944827087668 0.7691834365057539 2.143294246494671 0.8965614153126038 C 2.143294246494671 1.1261525404295507 2.3068791219270324 1.3115031275181046 2.5077709430296933 1.3115039542674405 C 2.7086627641323537 1.3115039542674405 2.8722476395647156 1.1261525404295507 2.8722476395647156 0.8965614153126038 L 2.8722476395647156 0.8937576721008572 C 2.871221053103765 0.7095976631093593 2.7627272101967493 0.5576299150223198 2.6171139756116095 0.5040481134094518 C 2.669879244148341 0.49667510377938745 2.7125253370291467 0.4854209784459994 2.771315482296895 0.4816187582507192 C 2.852317311433968 0.47642689052903053 2.9316148558688426 0.4739171748132039 3.009169848917976 0.4739171748132039 ZM 3.6797034804227042 8.23655977114829 C 3.744950774217038 8.301805883872143 3.8149797499554623 8.36067988514395 3.8815675587442495 8.424405723946341 C 4.0956495749641375 9.204198532028927 4.293931466520769 10.064938131364233 4.57407335302502 10.7290191024102 C 5.057193067313169 11.874268186883667 5.789626838872777 12.870430272277117 6.413278350114227 13.883144351801198 C 6.260634439177563 13.965039778863208 6.128536902733854 14.058336787907995 6.029175805418124 14.152295196421411 C 5.947669659186221 14.229370911069886 5.8940429178416 14.280530159968329 5.830115352201277 14.345748871857053 C 5.520950312157207 13.938784109671408 5.124019924767046 13.62317373180555 4.644164689284773 13.448575610364134 C 4.689085996337662 12.725628196897432 4.536026821020337 11.737052363409154 4.30492109112023 10.66173115504105 C 4.1263418173058595 9.830810278320685 3.903548933870034 9.003086795602949 3.6797034804227042 8.23655977114829 ZM 4.686219774497539 9.144947533060002 C 5.834593499032087 10.09035760265641 7.113542596376112 10.88336044784028 8.36182590735716 11.685069199744076 C 8.343845290374292 12.594861963098435 8.344411259348162 13.463187814338914 8.445936077782692 14.359767706022835 C 8.033305011863666 14.014385848361224 7.586775333464642 13.763462228240035 7.018870348864767 13.625206117887009 C 7.015369655962953 13.624345353721408 7.011953527707485 13.623977804588126 7.008598342688769 13.623977804588126 C 6.989090837789752 13.623977804588126 6.971640285238172 13.63639699689621 6.951581929067426 13.636421563162186 C 6.30326824892538 12.572860982202688 5.56863248956343 11.57684345983595 5.115180793297013 10.501922870574559 C 4.9594783822461315 10.132827952249835 4.822072170210292 9.651825188689491 4.686219774497539 9.144947533060002 ZM 5.092751320031232 14.399018929916807 C 5.256419815253556 14.551910865654206 5.4054203599744595 14.728454446389774 5.5329268392495 14.94012684261699 C 5.575655607063885 15.01022479287143 5.648728910070769 15.058380343325913 5.729183431147552 15.07470273735529 C 5.7494917018318015 15.078823256044847 5.769947370111917 15.080878318679517 5.790254695939782 15.080878318679517 C 5.850400001475933 15.080878318679517 5.909242822487076 15.062849514021076 5.9590844691583715 15.027040401933126 C 6.175000687833224 14.870724306660996 6.306688629034575 14.703258906060551 6.435707350951817 14.58125716007727 C 6.483312522562763 14.536239477673238 6.5327214250102985 14.500179978643592 6.584302079855896 14.463502543538969 L 6.732896336331785 17.185862440383506 C 6.519603983834621 17.172073206318977 6.298091380798784 17.15081393768448 6.095781566478202 17.15081393768448 C 5.831792472282443 17.15081393768448 5.600500133246544 17.18701327545892 5.462835502989748 17.323242668868794 C 5.2941143882552915 17.189184555428792 4.96598135630733 17.158607113137695 4.572329148140608 17.158607113137695 C 4.471105738892494 17.158607113137695 4.365550163124863 17.160629105798932 4.257258755698066 17.16343343954592 L 5.092751320031232 14.399018929916807 ZM 6.25066573190075 9.573908551859477 L 6.25066573190075 9.573908551859477 C 7.604791854990093 10.361226196182292 9.034522078910209 10.988295252963786 10.386072995925625 11.699088033909858 C 10.388108216576233 11.700135879639442 10.389620931646625 11.700891764746446 10.39167977370683 11.70189142280046 C 11.686891739128056 12.333365400043023 12.978365852695143 12.98273873661945 14.285973389014858 13.605581450796405 C 15.269975172749374 14.794761632832586 16.33790476962736 15.90056296328426 17.36439863465213 17.026055100773398 C 16.647556883137256 17.146248391638174 15.930830404101199 17.267532046769798 15.213987707729942 17.38772722734734 C 13.79219427743337 15.841645498618801 12.36859900601298 14.299348864563587 10.946807465429178 12.75326524612228 C 10.935631704122118 12.739913480563432 10.92370950627189 12.727994117282355 10.910359630425809 12.716818355975295 C 9.41106341039531 11.580038019269429 7.757799063206311 10.634765898705052 6.25066573190075 9.573908551859477 ZM 3.0756960058277225 0.0 C 2.9405269774945206 0.0 2.803378947465543 0.004522381611119117 2.664776311033773 0.013406474957975922 C 1.5799215017535755 0.08356273687650426 0.791815610992612 0.5394290283949892 0.5227751964622482 1.157302329475107 C 0.4821416476788419 1.2499492773278713 0.3773182175015722 1.4706424536648965 0.5155519465690093 1.4706424536648965 C 0.5301007861125528 1.4706424536648965 0.5473420529751317 1.468197873986025 0.5676338477261894 1.4629019539550754 C 0.6829407547488466 1.4484514385289664 0.7780652341468658 1.4423110531050352 0.8569417269557291 1.4423110531050352 C 1.2747371416542677 1.4423110531050352 1.236670413344381 1.614590378873667 1.3274274122155385 1.6367293088014427 C 1.417468209947809 1.9189504698851962 1.6165598434253194 2.483475939414473 1.630223411590808 2.7049261819289825 C 1.386425543994761 3.5656903475302664 1.4768830233922678 4.468266061611404 1.565739089326357 4.903000625343815 C 1.7153772939992473 5.635118342443057 2.1961816377190027 6.48697345720191 2.8273889292472503 7.283313535133207 C 2.8134251329658233 7.338127016095824 2.8086283333195925 7.393803623365002 2.8273889292472503 7.448729542237286 C 3.1285063912567783 8.370618829444675 3.4792571591049843 9.617610994177321 3.7301694409495667 10.785092549360554 C 3.981081959008245 11.952574104543789 4.12285718696257 13.061967778966503 4.046983802062425 13.608383894830625 C 4.025192579283871 13.758532912485983 4.121174397743101 13.900045942793815 4.26847325611686 13.936413465004566 C 4.312604663232929 13.947361515923141 4.352082652659003 13.967347118152338 4.39463851175516 13.981272411536127 L 3.4666249016823647 17.0596976571734 C 3.272728324816838 17.01836208009686 3.0724617624261277 17.00476559673462 2.874112549852153 17.00476559673462 C 2.4927394590346226 17.00476559673462 2.118454680808026 17.055030066637645 1.8101650502035056 17.055030066637645 C 1.6846506825065655 17.055030066637645 1.570075389592555 17.04669832304569 1.4704144184820296 17.023250767026415 C 1.4375472348519498 17.015217598051724 1.3949769666959404 17.011228414399508 1.3451441780532423 17.011228414399508 C 0.9090801423353627 17.011228414399508 -0.08308278674200893 17.316628674182503 0.004096926806725951 17.889582026440785 C 0.15548046576267507 17.76211712084663 0.26223299740795364 17.73138850153413 0.38031217211407353 17.73138850153413 C 0.49024007079753446 17.73138850153413 0.6099847320405954 17.758020223566664 0.7846967677297779 17.758020223566664 C 0.7935070810801064 17.758020223566664 0.8024571741217066 17.757952193907034 0.8115528340999292 17.75781046544947 C 1.066223518424995 17.75382506122279 1.509269747551208 17.674784045296107 1.865480722334089 17.674784045296107 C 2.0452727193170093 17.674784045296107 2.202943030001157 17.694920824546703 2.3031032396034496 17.755008021415254 C 2.5392046614185677 17.745578354705373 2.7523340261895344 17.741732789223487 2.951610851518261 17.741732789223487 C 3.8011631150558056 17.741732789223487 4.398956033000731 17.81162570564265 5.451620530142762 17.816688246146814 C 6.240002555181878 17.80960749240695 7.649068297561068 17.777941575561766 8.426310465835707 17.73818579835887 C 8.876011082258614 17.740893756754712 9.122960636429726 17.792010487115885 9.3482285711628 17.792010487115885 C 9.361538763040762 17.792010487115885 9.374772421551643 17.79183285411574 9.387968285807172 17.791454911562237 C 9.52192246504496 17.78755265469733 9.652878614977093 17.73516414764362 9.867871236536825 17.73516414764362 C 9.990853743446445 17.73516414764362 10.141335350548884 17.752305732157712 10.335607271612858 17.805472800871634 C 10.085930861918229 17.463682342324677 9.45939942841909 17.120327201606223 9.005599080147068 17.120327201606223 C 8.891079651866747 17.120327201606223 8.787560241606108 17.142193068039095 8.703873366840497 17.191469218164713 C 8.542968104112466 17.175166666119395 8.37234782804666 17.169161158944245 8.19567291227375 17.169161158944245 C 7.976734570455455 17.169161158944245 7.748496479680046 17.178384846962466 7.517922703923993 17.188666774130493 L 7.360917335919913 14.359767706022835 L 7.360917335919913 14.359767706022835 C 7.847890174541017 14.562401606083045 8.21758885609496 14.875619607585232 8.642193142108937 15.380301416978874 C 8.699664031650867 15.44654907746951 8.781797562521582 15.482110637184917 8.86545325702653 15.482110637184917 C 8.908499969014047 15.482110637184917 8.951950134677428 15.472694198464408 8.992650768264083 15.453197086985613 C 9.112446274591294 15.395810289661837 9.178901803486355 15.264291005324987 9.155264331333942 15.133579573196247 C 8.962827321367223 14.095116267502062 8.941800487403126 13.115423973733854 8.95339954437011 12.074779939505962 L 8.95339954437011 12.074779939505962 C 9.492870020957247 12.42841606253606 10.024760859633895 12.787106222362869 10.5290609470485 13.16820932046874 C 11.981769133365166 14.7479090393313 13.43605428498632 16.326704530634608 14.888761526446602 17.906404249497168 C 14.944628049848916 17.96747598671759 15.022539017540629 17.999999833159222 15.103714464038218 17.999999833159222 C 15.11983182423232 17.999999833159222 15.136078629750996 17.99871671819008 15.152306538141996 17.99612214256029 C 16.10156595264582 17.836959195003903 17.051571803692816 17.68146795935479 18.00083121819664 17.52230312208564 C 18.107373224028915 17.50503114739059 18.194878263441282 17.430652052861355 18.23073178377927 17.328851336362764 C 18.266587193830023 17.227046840438643 18.244059927928525 17.11188585467375 18.171855892794696 17.031661878554605 C 17.42994521170602 16.20143358156353 16.66326228594804 15.400856767607475 15.920510682677822 14.586862993002091 L 15.920510682677822 14.586862993002091 C 17.1897721675192 15.367626168590794 18.796164079222855 16.341928056689678 19.00015479305014 16.341928056689678 C 19.023265980196797 16.341928056689678 19.02837576352015 16.32942193759429 19.01295381762449 16.302708957912753 C 18.91865715052569 16.139381083416772 18.112724890586506 15.546881487147742 17.238233851442022 14.928911397341812 L 17.238233851442022 14.928911397341812 C 17.377197659226482 14.987001167815102 17.513576339944986 15.048752256775444 17.6531769809321 15.10554284972107 C 17.658199837468143 15.108767644558828 17.664787376175685 15.113841523339595 17.669999203988482 15.116757350139865 C 17.773049020626395 15.151233269870335 17.830042757694528 15.174751690118395 17.93915099346508 15.178437574871426 C 17.94233326976557 15.178545288499173 17.945553340321407 15.178605759307734 17.948841440536878 15.178605759307734 C 17.973745965099905 15.178605759307734 18.00257920250659 15.175098452411234 18.048493553618805 15.161615351815042 C 18.100470103289197 15.146353086648238 18.187842862807837 15.102794262500725 18.236338561560473 15.01021723402036 C 18.28483615002588 14.91764209525276 18.275225070890315 14.822594267328872 18.25876945211083 14.771906501765924 C 18.242311943618578 14.721218736202974 18.220873152271164 14.694878974793022 18.205498449194693 14.67377749717461 C 18.143995857463278 14.58936875213181 18.102465639971687 14.565463885622796 18.0428867758376 14.519575990489324 C 17.983304132277976 14.473685260786702 17.91481149301954 14.423448191718805 17.838219544839546 14.370981261585245 C 17.6850337587668 14.266046456461739 17.50165414209476 14.147847757423074 17.344773967561526 14.042952636267687 C 17.18789568274106 13.938058459968683 17.045392442943054 13.83638718879467 17.016744397387587 13.810248681794459 C 17.00804982894427 13.80148608369151 16.99842930124487 13.792621441099115 16.988708618768793 13.785015347209884 C 15.691415134734154 12.872117785778505 14.394182121508075 11.96102017575818 13.097218392351367 11.048637561055948 C 13.088896097323248 11.042752050641536 13.077870568181206 11.047937422475586 13.06918166887619 11.04302983841836 C 11.735590582003198 9.174366581424614 10.481460027291279 7.217504760432826 9.023491825486246 5.41607134214063 C 8.27915569806047 4.496387349732927 7.424659237280828 2.887723530854533 6.037586916946315 2.3516642220268507 C 5.970716123670593 1.9556564868954267 5.819659099030447 1.224570552967246 5.283400661719887 0.7031084485192504 C 4.8273005330098036 0.25959351157317057 4.167590467595091 0.05615587828814758 3.427373441574297 0.0106028092539796 C 3.3119162433330986 0.0034978361875914604 3.1945714582512528 0.0 3.0756960058277225 0.0 Z"
     style="fill:#ffffff;stroke:none"
     id="path2" />
  <path
     d="M 25.516092657402645 4.324689915636842 Q 25.18385068336638 4.324689915636842 25.1309938036216 4.581422893583586 L 25.1309938036216 4.596524713239459 Q 25.16874886371051 4.664483003880734 25.289563931906716 4.664483003880734 Q 25.636908134358237 4.513463785423552 25.636908134358237 4.385097807399405 L 25.636908134358237 4.369996396502911 Q 25.636908134358237 4.339791735292716 25.516092657402645 4.324689915636842 ZM 26.724245587541336 3.856530644989115 Q 26.671388707796556 4.151017661126317 26.203229845908208 4.4908109537498975 L 26.369350475261882 4.558769244391172 L 26.59587920075781 4.475709542853403 L 26.709143767885465 4.55121884551246 Q 27.577502996641197 4.9665212364154065 29.012184652275817 4.989174068089062 L 31.26236906568077 5.011826695383027 Q 31.277846330826726 5.010982607264328 31.292730077353628 5.010982607264328 Q 31.677249208144676 5.010982607264328 31.666344325417974 5.574373207493644 Q 31.65502005556789 6.159571529379468 31.26992048645793 6.74854678793201 Q 31.02828891940768 6.74854678793201 30.77910756661779 6.563548424154191 Q 30.529927031346656 6.378550060376372 30.371357005251383 6.129367481308341 Q 30.212786979156107 5.880186946037208 29.963604808847457 5.479985966030755 L 29.963604808847457 5.479985966030755 Q 30.039114111506514 6.272836709646191 30.416661851079933 6.7258941606380445 Q 29.956054614348435 6.7258941606380445 29.59738297416164 6.812728959425325 Q 29.418048380346384 6.856146971958034 29.298177239747318 6.856146971958034 Q 29.17830569038887 6.856146971958034 29.11789759424662 6.812728959425325 Q 29.042796642207698 6.758750648322844 28.744486908353274 6.758750648322844 Q 28.56290454671006 6.758750648322844 28.298618717328328 6.778750836003136 Q 28.094901217765617 6.794167196001546 27.926191506502093 6.794167196001546 Q 27.51646663733263 6.794167196001546 27.31322002857512 6.703240715825321 Q 27.124446158788412 6.544670689730047 27.07536498943221 6.148245624491865 Q 27.02628341131663 5.751820559253682 27.298117595780177 5.0495813467125545 L 27.298117595780177 5.0495813467125545 Q 26.73934740719721 5.449782326719008 26.73934740719721 6.26528447135027 L 26.73934740719721 6.537120086471646 Q 26.459962210715883 6.2501840823522254 26.30139218462061 5.902839573331173 Q 25.991802940068155 5.132642274528461 25.45568537877915 5.132642274528461 Q 25.251809382767036 5.132642274528461 24.670385851561186 5.389374639336136 Q 24.47406122523131 5.306314120279608 24.51181577437099 5.12509126251068 L 24.889363667229176 4.619176931774044 Q 25.16119795388257 4.158569490662857 25.28201302207878 4.105712610918076 Q 25.342420709461653 3.992448043790423 25.87098736092272 3.992448043790423 Q 26.097516086418647 4.052855731173295 26.097516086418647 4.158569490662857 Q 26.097516086418647 4.302037697102257 25.946497072341156 4.445505494782278 Q 26.233433893979335 4.385097807399405 26.36179987200348 4.105712610918076 Q 26.36179987200348 4.037753911517422 26.724245587541336 3.856530644989115 ZM 27.049510958677885 2.25 Q 27.012743870009263 2.25 26.96587613269314 2.3085849012417388 Q 26.392003511315227 3.2222508471775564 25.9238442406675 3.577145550697631 Q 25.742621382898573 3.735715576792904 25.433032138346118 3.7432664866208407 Q 25.28201302207878 3.7432664866208407 24.972424186285707 3.5167377611249133 Q 24.51181577437099 3.0712316287203745 24.330592967696987 2.76164238416792 Q 24.126716965298 2.3991967452724476 24.066309645159887 2.3614417362784623 Q 24.036105553977418 2.3614417362784623 24.02100372314453 2.436951319959592 Q 24.02100372314453 2.867355632708257 24.896914168297734 4.030202695119951 Q 24.730793641133904 4.271833240271752 24.587325383599584 4.581422893583586 Q 24.44385712606526 4.891011320617281 24.24753247418792 5.053357465860515 Q 24.051207384810308 5.215702793584989 24.285287048875063 5.374272819680263 Q 24.285287048875063 5.570597905864443 24.609978113083393 5.69141246311143 Q 24.874261438813924 5.615902956072683 25.417930318690242 5.45733292997741 Q 25.742621382898573 5.45733292997741 25.863436962044005 5.729167523200337 Q 26.2636371245317 6.333243988269683 26.2636371245317 6.9901775374635005 Q 26.3089429922587 7.866087982616704 25.65956096603189 8.666488716351473 Q 25.45568537877915 8.80240529763402 25.45568537877915 9.044036864684271 Q 25.45568537877915 9.142198794637292 25.70486683375889 9.142198794637292 Q 26.1126183148339 9.142198794637292 26.1126183148339 9.044036864684271 L 26.082414266762772 8.840161175241688 Q 26.082414266762772 8.734447824511506 26.240984292858045 8.681591149146415 L 26.240984292858045 8.666488716351473 Q 26.240984292858045 8.52302112305114 26.754449226853083 7.2242568662178295 Q 26.988529373126173 7.2242568662178295 27.124446158788412 7.450785182954378 Q 27.298117595780177 8.024658417471358 27.298117595780177 8.402205339526017 Q 27.298117595780177 8.485265654202856 27.192404449429688 8.75710004304609 Q 27.06403847140554 8.855262381758493 27.03383442333441 9.111995564084925 L 27.63791068402407 9.111995564084925 L 27.59260542943614 8.923221489918525 Q 27.562401381365014 8.809956718411183 27.675666152872356 8.726896403734344 L 27.622809477507264 8.447511820392085 Q 27.524646321276105 7.382826892313103 27.524646321276105 7.194052818146703 L 27.524646321276105 7.178950794111141 Q 28.12117218308705 7.035482792051431 28.442087945666177 7.035482792051431 Q 28.763003708245304 7.035482792051431 28.93667494085738 7.152522865187975 Q 29.00569845844167 7.199038047539269 29.130182857397944 7.199038047539269 Q 29.31891769066391 7.199038047539269 29.63513844300993 7.092115177805102 Q 29.977711095034522 6.976281353597507 30.161011472349834 6.976281353597507 Q 30.25851162086742 6.976281353597507 30.31094850034975 7.009054454368885 Q 30.461967514427243 7.103440673933325 30.461967514427243 7.329970216948012 Q 30.461967514427243 8.160574589994527 30.039114111506514 8.741998836529287 Q 29.903197938983343 8.877915417811836 29.83523842206393 9.119546984862087 L 30.35625416369706 9.119546984862087 Q 30.492171971257747 9.074240095236638 30.416661851079933 8.893017850606778 Q 30.431764692634253 8.69669235566322 30.59788532198793 8.643835680298128 Q 30.59788532198793 7.956698491792564 31.20196096953852 7.284664553600702 Q 31.624814372459245 7.518744291114412 31.632365793236406 8.009555167157655 Q 31.632365793236406 8.198329650083434 31.556854855539832 8.52302112305114 L 31.46624352884521 8.772202067081654 Q 31.383185257965273 8.870365223312813 31.31522574104586 9.142198794637292 L 31.81359089918192 9.142198794637292 Q 31.90420059083902 9.104444552067143 31.926853218132987 9.059139297479213 L 31.851343915473933 8.817508139188345 Q 31.81359089918192 8.71179478845816 31.957057266204114 8.628734473781325 Q 31.8815471460263 8.22853369815456 32.05521919615713 8.024658417471358 Q 31.70032612767458 7.194052818146703 31.70032612767458 6.7183427398608835 Q 31.88909693176594 5.9405942246607015 31.941953607131033 5.2610082525526085 Q 32.03256656886317 5.7367185352181185 31.964609504500032 6.401202687670337 Q 31.896649170061863 7.065686840122557 32.191136594958444 7.775476247162706 Q 32.24875449957612 7.895142599312634 32.29596620791011 7.895142599312634 Q 32.32918853523958 7.895142599312634 32.35725722431212 7.835884343304958 Q 32.43276734448993 7.405479110847688 32.38746290742076 5.45733292997741 Q 32.32705399375975 5.215702793584989 32.25909365932158 5.087336406801462 Q 32.017466179865124 4.717339270486445 31.84379249469677 4.702237859589951 L 29.40483400712542 4.702237859589951 Q 27.600156032694542 4.702237859589951 26.73179639517943 4.188772721215225 Q 26.87526419285945 3.9320402542177053 26.890366625654394 3.837653625893885 Q 26.905468445310266 3.7432664866208407 26.890366625654394 3.6073491900093773 Q 26.52792050135716 3.7130624385497146 26.34669764358823 3.886734386490706 L 26.195678425131046 3.773470636881812 Q 26.35424906436539 3.6753078894100315 26.701592347108303 3.139189919361649 Q 27.048936651749667 2.603072306977724 27.109343930373157 2.3010339882203694 Q 27.083826717347552 2.25 27.049510958677885 2.25 Z"
     style="fill:#ffffff;stroke:none"
     id="path4" />
  <path
     d="M 25.882758979949827 9.988915850081185 Q 25.83187553939442 9.988915850081185 25.760899735918645 10.051019754864669 Q 25.480798364263514 10.428079020592701 25.45925230289825 11.12833135597985 Q 25.54543740419925 11.677761290551054 25.847084402912806 12.67966108450606 Q 25.73935323705311 13.4876449178699 25.68548787127668 14.898922646471007 Q 25.642395320626182 15.372940869685014 25.944042766420306 15.51299246085074 Q 26.838211777727533 15.750000141799912 28.206397581590938 15.750000141799912 Q 29.585356545471 15.750000141799912 30.46875300990064 15.51299246085074 Q 30.781174752573445 15.372940869685014 30.73808129498807 14.898922646471007 Q 30.684215801474338 13.4876449178699 30.57648358816873 12.67966108450606 Q 30.878132886153793 11.677761290551054 30.96431571373075 11.12833135597985 Q 30.942771641874028 10.428079020592701 30.66266845954258 10.051019754864669 Q 30.591692707161727 9.988915850081185 30.540809522080934 9.988915850081185 Q 30.468119024103014 9.988915850081185 30.436433632040526 10.115658363686999 Q 30.511844832448496 10.331121116939503 30.57648358816873 10.53581021199986 Q 30.66266845954258 10.794365081596023 30.641123161407723 11.020600675521916 Q 30.619577454513482 11.386886685430316 30.571096957065482 11.618508654984845 Q 30.522618503414375 11.85013072672922 30.371794058801534 11.85013072672922 Q 30.36375457932523 11.850773909612888 30.355954632845325 11.850773909612888 Q 30.10246659123286 11.850773909612888 30.10246659123286 11.17142389385662 Q 30.10246659123286 10.923642337561876 30.167105755712473 10.56812948767013 Q 30.111607268477577 10.47378307105027 30.047532191941695 10.47378307105027 Q 29.987226694403702 10.47378307105027 29.91932358627866 10.557356276558554 Q 29.887004208418546 10.815911146154718 29.876230946212047 11.12833135597985 Q 29.833138306145432 11.602349068244633 30.10246659123286 12.464198292932364 Q 30.00550845765251 13.6815611850306 30.00550845765251 14.898922646471007 Q 29.27293684659509 15.017427304464356 28.206397581590938 15.049747091083852 Q 27.15063208974251 15.017427304464356 26.418059967735864 14.898922646471007 Q 26.418059967735864 13.6815611850306 26.321101629775825 12.464198292932364 Q 26.590429710483566 11.602349068244633 26.547337172606795 11.12833135597985 Q 26.536563910400297 10.815911146154718 26.504244634730025 10.557356276558554 Q 26.43634142441514 10.47378307105027 26.376035722497456 10.47378307105027 Q 26.311960901436187 10.47378307105027 26.256462976245437 10.56812948767013 Q 26.321101629775825 10.923642337561876 26.321101629775825 11.17142389385662 Q 26.321101629775825 11.850773909612888 26.067613230498907 11.850773909612888 Q 26.059813590588533 11.850773909612888 26.051773906732542 11.85013072672922 Q 25.900950177448614 11.85013072672922 25.852471238395747 11.618508654984845 Q 25.803992273795416 11.386886685430316 25.78244580047734 11.020600675521916 Q 25.760899735918645 10.794365081596023 25.847084402912806 10.53581021199986 Q 25.911723439655113 10.331121116939503 25.987135304297077 10.115658363686999 Q 25.95544955457013 9.988915850081185 25.882758979949827 9.988915850081185 Z"
     style="fill:#ffffff;stroke:none"
     id="path6" />
  <path
     d="M 35.0595550812491 3.8079226298344873 L 37.79573821025174 6.214445734154038 Q 37.21883366490067 7.1045305706231945 36.26281685970176 8.01109676996607 Q 35.35624975518737 5.868301631082699 35.0595550812491 3.8079226298344873 ZM 34.33121398433732 2.6209824085235596 Q 33.80312785042966 2.6209824085235596 33.922225810386124 3.3463978530375273 Q 34.43319934168051 3.5936430073255687 34.35078429025117 3.906820854480576 Q 34.26836921619253 4.219998792152734 34.41671693785956 4.945252620591686 Q 34.56506391276009 5.670505724893428 35.60349499999256 8.390206495333683 Q 35.287764026073404 9.463692114417125 35.96992128111264 9.463692114417125 Q 36.000016604547284 9.463692114417125 36.0320540639761 9.461602978569555 Q 37.87815407633545 12.857109144004351 40.10336363302811 15.379016904804171 L 40.49895616954386 15.379016904804171 L 40.40006002679225 14.274649730311562 Q 38.61989035385393 12.60986408023346 36.59247724645345 8.88469879528709 Q 37.18586659432998 7.631986320461249 38.25726380170306 6.692454498822099 L 41.537388478757876 9.642917521885106 Q 41.785519886472414 9.75369023899928 41.95384702894701 9.75369023899928 Q 42.411698710269164 9.75369023899928 42.279124394207756 8.934145780457083 L 38.982516906004804 6.115547418990798 Q 38.99589461680134 5.36640593334018 38.357844649671094 5.36640593334018 Q 38.20972564221563 5.36640593334018 38.026501187011704 5.406777487905797 L 35.0595550812491 2.8189403833736018 Q 34.60707980189273 2.6209824085235596 34.33121398433732 2.6209824085235596 Z"
     style="fill:#ffffff;stroke:none"
     id="path8" />
  <path
     d="M 53.979047247152046 2.5384500393270857 Q 54.203397334478204 2.5384500393270857 54.203397334478204 2.7734835181815614 L 54.203397334478204 4.57896800548812 L 53.51966390792511 4.57896800548812 L 53.744013995251265 2.677333646918595 Q 53.75469715982589 2.5384500393270857 53.979047247152046 2.5384500393270857 ZM 53.98973041172666 2.25 Q 53.44487994027319 2.25 53.412830446549336 2.5598166805376574 Q 53.18848035922318 4.57896800548812 52.93207987035837 4.589650716155337 L 47.97501116612625 4.771267691275627 L 47.46221109621143 4.749901135172694 Q 46.885310450173016 4.140950995410421 46.4366107294281 4.140950995410421 Q 46.27636053736444 4.1302677173589535 46.105426953772465 4.119584325830637 Q 45.19734343989322 4.29051734203836 45.015726578249776 4.29051734203836 Q 44.88752633381737 4.29051734203836 44.88752633381737 4.4614509256303325 Q 44.88752633381737 4.696484404484808 45.25076005710425 4.696484404484808 Q 45.874504968150355 4.597047137244026 46.20758494197094 4.597047137244026 Q 46.26814345169592 4.597047137244026 46.319093649570306 4.600334107683654 Q 46.5007106246906 4.600334107683654 46.61822702368728 4.749901135172694 Q 46.40990191017676 5.007827433763777 45.6857238590535 5.007827433763777 Q 45.63001818682251 5.007827433763777 45.57126010080101 5.006301170130103 Q 44.74864320850247 4.984934614027169 44.118326030360656 4.792634247378562 Q 43.808509349823 4.792634247378562 43.808509349823 5.155867970665442 Q 43.840559301000404 5.487051292413671 46.1267935098754 5.497734683941988 L 47.141710485130425 5.390901449519918 L 52.93207987035837 5.358851047981266 L 54.555947212329365 5.3802182849453 L 54.555947212329365 2.7734835181815614 Q 54.54526404775475 2.25 53.98973041172666 2.25 Z"
     style="fill:#ffffff;stroke:none"
     id="path10" />
  <path
     d="M 49.17681989619533 6.86994995997392 Q 49.65273006016428 6.86994995997392 49.65273006016428 7.497286282930981 Q 49.65273006016428 8.048909266009307 49.17681989619533 8.589716482169056 Q 48.7009096709594 8.048909266009307 48.7009096709594 7.497286282930981 Q 48.7009096709594 6.86994995997392 49.17681989619533 6.86994995997392 ZM 49.17681989619533 9.281949091479623 Q 49.51212049519902 9.281949091479623 49.51212049519902 10.006630655754474 Q 49.51212049519902 10.417643399930725 49.17681989619533 10.763759949653942 Q 48.841519787327506 10.417643399930725 48.841519787327506 10.006630655754474 Q 48.841519787327506 9.281949091479623 49.17681989619533 9.281949091479623 ZM 49.17681989619533 11.466809367421805 Q 49.51212049519902 11.466809367421805 49.51212049519902 12.191490441560788 Q 49.51212049519902 12.602503675872907 49.17681989619533 12.948620960799925 Q 48.841519787327506 12.602503675872907 48.841519787327506 12.191490441560788 Q 48.841519787327506 11.466809367421805 49.17681989619533 11.466809367421805 ZM 49.17681989619533 6.513017428897683 Q 48.31152870568824 6.513017428897683 48.31152870568824 7.497286282930981 Q 48.30071275496871 8.11380619566614 48.598156668716285 8.465330414414204 Q 48.89560015359498 8.816854755696234 48.863151750033545 8.935832541756405 Q 48.48458673548191 9.37929424089694 48.48458673548191 10.006630655754474 Q 48.48458673548191 10.525805112737402 48.92804849588943 11.120692572630652 Q 48.48458673548191 11.564154271771187 48.48458673548191 12.191490441560788 Q 48.48458673548191 12.710665388679583 48.92804849588943 13.29473677531934 Q 48.982129474826735 13.435346462818567 48.62519685185002 13.95452140993736 Q 48.26826432077378 14.473695376784418 47.88969933685564 15.75000035300648 L 48.36560956209158 15.75000035300648 Q 48.603564399008114 14.906341247739391 48.78743893092417 14.544000955737832 Q 48.97131340157324 14.181660173600406 49.17681989619533 13.95452140993736 Q 49.39314283167282 14.181660173600406 49.57160914316117 14.544000955737832 Q 49.750075332115564 14.906341247739391 49.98803029156607 15.75000035300648 L 50.47475652878851 15.75000035300648 Q 50.117823905811804 14.473695376784418 49.74466717295485 13.95452140993736 Q 49.371510317563924 13.435346462818567 49.43640724722076 13.29473677531934 Q 49.869052995641766 12.710665388679583 49.869052995641766 12.191490441560788 Q 49.869052995641766 11.564154271771187 49.45803963879568 11.120692572630652 Q 49.869052995641766 10.525805112737402 49.869052995641766 10.006630655754474 Q 49.869052995641766 9.37929424089694 49.50130405434363 8.935832541756405 Q 49.46885558951521 8.816854755696234 49.76089128283509 8.465330414414204 Q 50.05292697615497 8.11380619566614 50.05292697615497 7.497286282930981 Q 50.05292697615497 6.513017428897683 49.17681989619533 6.513017428897683 Z"
     style="fill:#ffffff;stroke:none"
     id="path12" />
  <path
     d="M 59.3542117504403 6.330540667288005 L 59.30675469432026 11.598273896612227 L 56.53051691129804 11.645730952732265 L 56.50678838323802 6.354269195348024 L 59.3542117504403 6.330540667288005 ZM 59.82878231164068 5.879698634147644 L 56.055946350097656 5.903427162207663 L 56.079674878157675 12.120301513932645 L 59.75759672746062 12.049115929752588 L 59.82878231164068 5.879698634147644 Z"
     style="fill:#ffffff;stroke:none"
     id="path14" />
  <path
     d="M 62.63738007593792 2.25 L 62.35696611663598 2.857563567344893 L 61.468988584417815 4.843829023259124 L 61.328781604766846 5.124242982561067 L 61.91297734774123 5.404657120145403 L 62.05318432739221 5.100875152619238 L 62.66074790587975 3.7221732751925503 L 62.96452960598232 4.25963327471341 L 63.24494356528427 4.820461193317296 L 63.52535752458621 4.25963327471341 L 63.85250714377181 3.6754376153088932 L 64.15628893301557 4.25963327471341 L 64.43670289231753 4.820461193317296 L 64.71711685161947 4.25963327471341 L 65.02089864086324 3.6754376153088932 L 65.34804826004884 4.25963327471341 L 65.62846221935078 4.820461193317296 L 65.90887617865272 4.25963327471341 L 66.21265796789649 3.6988054452507217 L 66.51643975714026 4.25963327471341 L 66.82022154638403 4.820461193317296 L 67.10063550568599 4.25963327471341 L 67.40441765149454 3.6754376153088932 L 67.70819944073831 4.25963327471341 L 68.01198122998208 4.820461193317296 L 68.29239518928402 4.25963327471341 L 68.5961769785278 3.6754376153088932 L 68.89995805464198 4.25963327471341 L 69.20373984388576 4.820461193317296 L 69.48415380318771 4.25963327471341 L 69.78793559243148 3.6754376153088932 L 70.09171738167525 4.25963327471341 L 70.37213134097719 4.820461193317296 L 70.67591313022096 4.25963327471341 L 70.97969491946473 3.6754376153088932 L 71.2834767087085 4.25963327471341 L 71.56389066801044 4.820461193317296 L 71.86767245725422 4.25963327471341 L 72.17145424649799 3.6754376153088932 L 72.49860386568359 4.283001104655239 L 72.77901782498553 4.797093363375467 L 73.0827996142293 4.283001104655239 L 73.40994852028533 3.6520697853670643 L 74.22782256824932 5.124242982561067 L 74.39139737784213 5.404657120145403 L 74.95222529644602 5.100875152619238 L 74.81201831679505 4.820461193317296 L 73.69036247958726 2.810827907461236 L 73.40994852028533 2.3201034898254855 L 73.12953527411297 2.8341957374030646 L 72.77901782498553 3.4417593158906072 L 72.45186820579994 2.8341957374030646 L 72.14808641655617 2.2967356591872417 L 71.89104028719605 2.8341957374030646 L 71.56389066801044 3.4183914859487787 L 71.26010887876667 2.8341957374030646 L 70.97969491946473 2.2733678285489973 L 70.6992809601628 2.8341957374030646 L 70.39549917091902 3.4183914859487787 L 70.06834955173342 2.8341957374030646 L 69.78793559243148 2.2733678285489973 L 69.50752163312953 2.8341957374030646 L 69.18037201394394 3.4183914859487787 L 68.87659022470017 2.8341957374030646 L 68.5961769785278 2.2733678285489973 L 68.31576301922586 2.8341957374030646 L 68.01198122998208 3.4183914859487787 L 67.68483161079648 2.8341957374030646 L 67.40441765149454 2.2733678285489973 L 67.1240033356278 2.8341957374030646 L 66.82022154638403 3.39502365600695 L 66.51643975714026 2.8341957374030646 L 66.21265796789649 2.2733678285489973 L 65.93224400859455 2.8341957374030646 L 65.62846221935078 3.4183914859487787 L 65.32468043010701 2.8341957374030646 L 65.02089864086324 2.2733678285489973 L 64.7404846815613 2.8341957374030646 L 64.43670289231753 3.4183914859487787 L 64.13292110307376 2.8341957374030646 L 63.85250714377181 2.2733678285489973 L 63.54872535452804 2.8341957374030646 L 63.24494356528427 3.4183914859487787 L 62.941161776040495 2.8341957374030646 L 62.63738007593792 2.25 ZM 62.637380165079115 7.422671193918185 L 62.35696620577718 8.030234772405727 L 61.46898857884649 10.016500317461155 L 61.328781604766846 10.296914276763099 L 61.91297734774123 10.577328236065041 L 62.05318428282161 10.27354644682127 L 62.66074799502095 8.894844480253383 L 62.96452978426472 9.432304568915441 L 63.24494374356666 9.993132487519325 L 63.525357702868604 9.432304568915441 L 63.8525073220542 8.848108820369728 L 64.15628911129798 9.432304568915441 L 64.43670289231753 9.993132487519325 L 64.71711685161947 9.432304568915441 L 65.02089864086324 8.848108820369728 L 65.34804826004884 9.432304568915441 L 65.62846221935078 9.993132487519325 L 65.90887617865272 9.432304568915441 L 66.21265796789649 8.871476650311555 L 66.51643975714026 9.432304568915441 L 66.82022154638403 9.993132487519325 L 67.10063550568599 9.432304568915441 L 67.40441765149454 8.848108820369728 L 67.70819944073831 9.432304568915441 L 68.01198122998208 9.993132487519325 L 68.29239518928402 9.432304568915441 L 68.5961769785278 8.848108820369728 L 68.89995876777157 9.432304568915441 L 69.20374055701534 9.993132487519325 L 69.48415451631728 9.432304568915441 L 69.78793630556105 8.848108820369728 L 70.09171809480482 9.432304568915441 L 70.37213205410677 9.993132487519325 L 70.67591384335054 9.432304568915441 L 70.97969563259431 8.848108820369728 L 71.28347742183809 9.432304568915441 L 71.56389138114002 9.993132487519325 L 71.8676731703838 9.432304568915441 L 72.17145495962757 8.848108820369728 L 72.49860457881317 9.45567239885727 L 72.77901853811511 9.969764657577498 L 73.08280032735888 9.45567239885727 L 73.40994994654449 8.824740990427898 L 74.22782399450848 10.296914276763099 L 74.39139880410129 10.577328236065041 L 74.95222672270516 10.27354644682127 L 74.8120197430542 9.993132487519325 L 73.69036390584643 7.98349911252207 L 73.40994994654449 7.49277468374367 L 73.12953598724253 8.006866942463898 L 72.77901853811511 8.61443052095144 L 72.4518689189295 8.006866942463898 L 72.14808712968573 7.469406853801842 L 71.89104100032563 8.006866942463898 L 71.56389138114002 8.591062691009613 L 71.26010959189625 8.006866942463898 L 70.97969563259431 7.446039023860013 L 70.69928167329236 8.006866942463898 L 70.39549988404859 8.591062691009613 L 70.068350264863 8.006866942463898 L 69.78793630556105 7.446039023860013 L 69.50752234625911 8.006866942463898 L 69.1803727270735 8.591062691009613 L 68.87659093782973 8.006866942463898 L 68.5961769785278 7.446039023860013 L 68.31576301922586 8.006866942463898 L 68.01198122998208 8.591062691009613 L 67.68483161079648 8.006866942463898 L 67.40441765149454 7.446039023860013 L 67.1240033356278 8.006866942463898 L 66.82022154638403 8.567694861067785 L 66.51643975714026 8.006866942463898 L 66.21265796789649 7.446039023860013 L 65.93224400859455 8.006866942463898 L 65.62846221935078 8.591062691009613 L 65.32468043010701 8.006866942463898 L 65.02089864086324 7.446039023860013 L 64.7404846815613 8.006866942463898 L 64.43670289231753 8.591062691009613 L 64.13292128135615 8.006866942463898 L 63.8525073220542 7.446039023860013 L 63.54872553281043 8.006866942463898 L 63.24494374356666 8.591062691009613 L 62.94116195432289 8.006866942463898 L 62.637380165079115 7.422671193918185 ZM 62.63738007593792 12.595342309837822 L 62.35696611663598 13.202905888325365 L 61.468988584417815 15.189171433380793 L 61.328781604766846 15.469585392682735 L 61.91297734774123 15.749999351984679 L 62.05318432739221 15.446217562740907 L 62.66074790587975 14.06751559617302 L 62.96452960598232 14.604975684835079 L 63.24494356528427 15.165803603438963 L 63.52535752458621 14.604975684835079 L 63.85250714377181 14.020779936289363 L 64.15628893301557 14.604975684835079 L 64.43670289231753 15.165803603438963 L 64.71711685161947 14.604975684835079 L 65.02089864086324 14.020779936289363 L 65.34804826004884 14.604975684835079 L 65.62846221935078 15.165803603438963 L 65.90887617865272 14.604975684835079 L 66.21265796789649 14.044147766231193 L 66.51643975714026 14.604975684835079 L 66.82022154638403 15.165803603438963 L 67.10063550568599 14.604975684835079 L 67.40441765149454 14.020779936289363 L 67.70819944073831 14.604975684835079 L 68.01198122998208 15.165803603438963 L 68.29239518928402 14.604975684835079 L 68.5961769785278 14.020779936289363 L 68.89995876777157 14.604975684835079 L 69.20374055701534 15.165803603438963 L 69.48415451631728 14.604975684835079 L 69.78793630556105 14.020779936289363 L 70.09171809480482 14.604975684835079 L 70.37213205410677 15.165803603438963 L 70.67591384335054 14.604975684835079 L 70.97969563259431 14.020779936289363 L 71.28347742183809 14.604975684835079 L 71.56389138114002 15.165803603438963 L 71.8676731703838 14.604975684835079 L 72.17145495962757 14.020779936289363 L 72.49860457881317 14.628343514776907 L 72.77901853811511 15.142435773497136 L 73.08280032735888 14.628343514776907 L 73.40994994654449 13.997412106347536 L 74.22782399450848 15.469585392682735 L 74.39139880410129 15.749999351984679 L 74.95222672270516 15.446217562740907 L 74.8120197430542 15.165803603438963 L 73.69036390584643 13.156170228441708 L 73.40994994654449 12.665445799663308 L 73.12953598724253 13.179538058383535 L 72.77901853811511 13.787101636871078 L 72.4518689189295 13.179538058383535 L 72.14808712968573 12.642077969721479 L 71.89104100032563 13.179538058383535 L 71.56389138114002 13.76373380692925 L 71.26010959189625 13.179538058383535 L 70.97969563259431 12.61871013977965 L 70.69928167329236 13.179538058383535 L 70.39549988404859 13.76373380692925 L 70.068350264863 13.179538058383535 L 69.78793630556105 12.61871013977965 L 69.50752234625911 13.179538058383535 L 69.1803727270735 13.76373380692925 L 68.87659093782973 13.179538058383535 L 68.5961769785278 12.61871013977965 L 68.31576301922586 13.179538058383535 L 68.01198122998208 13.76373380692925 L 67.68483161079648 13.179538058383535 L 67.40441765149454 12.61871013977965 L 67.1240033356278 13.179538058383535 L 66.82022154638403 13.740365976987421 L 66.51643975714026 13.179538058383535 L 66.21265796789649 12.61871013977965 L 65.93224400859455 13.179538058383535 L 65.62846221935078 13.76373380692925 L 65.32468043010701 13.179538058383535 L 65.02089864086324 12.61871013977965 L 64.7404846815613 13.179538058383535 L 64.43670289231753 13.76373380692925 L 64.13292110307376 13.179538058383535 L 63.85250714377181 12.61871013977965 L 63.54872535452804 13.179538058383535 L 63.24494356528427 13.76373380692925 L 62.941161776040495 13.179538058383535 L 62.63738007593792 12.595342309837822 Z"
     style="fill:#ffffff;stroke:none"
     id="path16" />
  <path
     d="M 77.76110138119797 2.25 C 77.06373097804205 2.25 76.45222616195679 2.7629982188611715 76.45222616195679 3.42148077115561 L 76.45222616195679 15.749999288300122 L 77.30421217734269 15.749999288300122 L 77.30421217734269 3.42148077115561 C 77.30421217734269 3.098508113273651 77.58810549459977 2.994011903683932 77.76648480931718 2.994011903683932 C 77.95365596708241 2.994011903683932 78.24186491845145 3.1252137636833535 78.24186491845145 3.5209571603146776 L 78.24186491845145 11.62395272807413 L 79.09385093383734 11.62395272807413 L 79.09385093383734 3.5209571603146776 C 79.09385093383734 2.861641676122041 78.44090021280012 2.25 77.76110138119797 2.25 Z"
     style="fill:#ffffff;stroke:none"
     id="path18" />
  <path
     d="M 94.09206026043978 2.8360817172332915 Q 94.34847869437255 2.8360817172332915 94.47668139410405 2.9734444811054566 Q 94.60488699038439 3.1108086932520393 94.60488699038439 3.3672196142612627 Q 94.60488699038439 3.623628905961766 94.48583883324733 3.7884658881239446 Q 94.36679212438469 3.953302870286123 94.09206026043978 3.953302870286123 L 81.69275505281223 3.953302870286123 Q 81.45465882905526 3.953302870286123 81.31729461690868 3.7884658881239446 Q 81.17993185303652 3.623628905961766 81.17993185303652 3.3672196142612627 Q 81.17993185303652 3.1108086932520393 81.31729461690868 2.9734444811054566 Q 81.45465882905526 2.8360817172332915 81.69275505281223 2.8360817172332915 ZM 81.17993185303652 2.25 Q 80.59385013580322 2.634616290996684 80.59385013580322 3.3672196142612627 Q 80.59385013580322 4.136453644529048 81.17993185303652 4.539380785799068 L 94.67815084835388 4.539380785799068 Q 95.20928956003621 4.136453644529048 95.20928956003621 3.3672196142612627 Q 95.20928956003621 2.634616290996684 94.67815084835388 2.25 ZM 89.31182633804298 5.088832565424937 L 89.00047123475983 5.711551099569135 L 89.62318433787496 5.876386452422594 Q 90.0993610354046 5.18040713789204 89.31182633804298 5.088832565424937 ZM 86.4546644115873 5.107147081642893 L 86.14330894623555 5.729865615787091 L 86.76602856658556 5.894702054846363 Q 87.26053607342035 5.198723283418715 86.4546644115873 5.107147081642893 ZM 87.88325424549595 5.107147081642893 L 87.5718991422128 5.729865615787091 L 88.19460790050468 5.894702054846363 Q 88.67080052905291 5.198723283418715 87.88325424549595 5.107147081642893 Z"
     style="fill:#ffffff;stroke:none"
     id="path20" />
  <path
     d="M 94.7079641131043 11.038294436262172 C 94.56603074529832 11.88387225670481 93.70843843004168 12.914007993216 92.49088204400125 13.73069769780515 C 91.15548671927172 14.626429514565086 89.42055596717039 15.26992823997255 87.90144464934845 15.26992823997255 C 86.38233333152652 15.26992823997255 84.64740282360238 14.626429514565086 83.31200725469566 13.73069769780515 C 82.09445074656664 12.914007993216 81.23685824817709 11.88387225670481 81.09492518559261 11.038294436262172 ZM 80.83388608779813 10.558222532272339 C 80.70132338238756 10.558236206195385 80.5938633900467 10.665695660583344 80.59385013580322 10.798258484267254 C 80.59385013580322 11.98362450203844 81.63915110759326 13.186708017242843 83.04471722065132 14.129507430546703 C 84.45028345579796 15.072306843850564 86.24901111675914 15.750000143962382 87.90144464934845 15.750000143962382 C 89.55387769358339 15.750000143962382 91.35285612452614 15.072306843850564 92.75842211549559 14.129507430546703 C 94.16398810646504 13.186708017242843 95.20928920034368 11.98362450203844 95.20928920034368 10.798258484267254 C 95.20927552642064 10.665695660583344 95.10181607203268 10.558236206195385 94.96925324834876 10.558222532272339 Z"
     style="fill:#ffffff;stroke:none"
     id="path22" />
  <path
     d="M 99.85548746070815 2.25 Q 98.57042066904661 2.2795420240101505 97.72847974239563 3.1805657175536046 Q 96.79791399499051 4.199756862842309 96.70928859710693 5.218948644963486 Q 96.70928859710693 5.455282906646262 96.97516480070817 5.455282906646262 L 109.32362798353172 5.455282906646262 Q 109.58950426673702 5.455282906646262 109.58950426673702 5.174634975847228 Q 109.58950426673702 4.893987681880667 109.32362798353172 4.893987681880667 L 97.3739781110593 4.893987681880667 Q 98.11252267881797 3.0033155785199357 99.58961117750285 2.796522741329242 L 109.32362798353172 2.796522741329242 Q 109.58950426673702 2.796522741329242 109.58950426673702 2.5158762036012403 Q 109.58950426673702 2.25 109.32362798353172 2.25 Z"
     style="fill:#ffffff;stroke:none"
     id="path24" />
  <path
     d="M 97.36909682996694 6.774437323233528 Q 97.28982225222371 6.774437323233528 97.1792444927579 6.8711929823276705 Q 96.74285658893525 7.458637812089359 96.70928859710693 8.549605867621603 Q 96.8435618977882 9.405598025132877 97.31351711680468 10.966522016118123 Q 97.14567581931983 12.225331886561598 97.06175550889466 14.424052035829902 Q 96.99461885855402 15.162555448290103 97.46457477410601 15.380750810685848 Q 98.85765806463685 15.750000288002298 100.98924253871424 15.750000288002298 Q 103.13761121020356 15.750000288002298 104.51391125857117 15.380750810685848 Q 105.00065314272541 15.162555448290103 104.93351507941273 14.424052035829902 Q 104.8495945699774 12.225331886561598 104.68175164060935 10.966522016118123 Q 105.15171044180846 9.405598025132877 105.28598020010912 8.549605867621603 Q 105.25241530786384 7.458637812089359 104.81602458307235 6.8711929823276705 Q 104.7054469032106 6.774437323233528 104.62617272348768 6.774437323233528 Q 104.51292353140781 6.774437323233528 104.46355882554349 6.971897619521376 Q 104.58104677455397 7.307580871224562 104.68175164060935 7.626479149376237 Q 104.81602458307235 8.02929837478556 104.78245778032966 8.381765326375312 Q 104.7488903407545 8.952425809467455 104.67335946229932 9.313284541346938 Q 104.59783176800649 9.67414343243454 104.36285268582317 9.67414343243454 Q 104.3503274647728 9.675145488328518 104.33817542755078 9.675145488328518 Q 103.94325013864656 9.675145488328518 103.94325013864656 8.616742498061225 Q 103.94325013864656 8.230707708876015 104.04395564153441 7.676831423195807 Q 103.95749098637526 7.529843085585626 103.85766431229814 7.529843085585626 Q 103.76371050727363 7.529843085585626 103.65791989710048 7.660047146179814 Q 103.6075674640728 8.062866371589134 103.59078310745275 8.549605867621603 Q 103.523646317805 9.288108484041214 103.94325013864656 10.630838704711893 Q 103.7921928395635 12.527446484727722 103.7921928395635 14.424052035829902 Q 102.65087251021168 14.60867804815307 100.98924253871424 14.65903111801323 Q 99.34439771987743 14.60867804815307 98.20307659448503 14.424052035829902 Q 98.20307659448503 12.527446484727722 98.05201897698574 10.630838704711893 Q 98.47162247941105 9.288108484041214 98.40448584897142 8.549605867621603 Q 98.38770149235137 8.062866371589134 98.3373492185318 7.660047146179814 Q 98.23155844915055 7.529843085585626 98.13760432570979 7.529843085585626 Q 98.03777804965297 7.529843085585626 97.95131427013847 7.676831423195807 Q 98.05201897698574 8.230707708876015 98.05201897698574 8.616742498061225 Q 98.05201897698574 9.675145488328518 97.6570931308531 9.675145488328518 Q 97.64494157125542 9.675145488328518 97.63241603178882 9.67414343243454 Q 97.39743806406233 9.67414343243454 97.32190961353095 9.313284541346938 Q 97.24638112319752 8.952425809467455 97.21281248956149 8.381765326375312 Q 97.1792444927579 8.02929837478556 97.31351711680468 7.626479149376237 Q 97.41422242068238 7.307580871224562 97.53171140454563 6.971897619521376 Q 97.4823461414529 6.774437323233528 97.36909682996694 6.774437323233528 Z"
     style="fill:#ffffff;stroke:none"
     id="path26" />
  <path
     d="M 108.7815061265949 10.922042792199505 L 108.7815061265949 15.749999991226304 L 109.58950451934498 15.749999991226304 L 109.58950451934498 10.922042792199505 Z"
     style="fill:#ffffff;stroke:none"
     id="path28" />
  <path
     d="M 112.02413419829581 3.6861292583487026 Q 111.96507148060029 3.6861292583487026 111.90936203502758 3.7041527856717864 Q 111.69158725172224 3.774609591912929 111.71720783115444 3.915522636921669 Q 111.73888673932987 4.0347560644130365 111.91190055700545 4.0347560644130365 Q 111.94335788560429 4.0347560644130365 111.979818202861 4.03081439315627 Q 112.21680806606953 4.0051943811976125 112.3961516255556 3.8386608986250548 Q 112.19595390976032 3.6861292583487026 112.02413419829581 3.6861292583487026 ZM 112.13508158985792 3.5565500787554187 Q 112.59741463106683 3.5565500787554187 113.56188557795835 4.107676273321271 Q 114.0456964998387 4.358221377144607 114.62273339468761 4.358221377144607 Q 114.90130247028266 4.358221377144607 115.20159868930463 4.29983047719442 Q 115.95740450573919 4.1461068587328045 116.79007149299682 4.03081439315627 Q 117.07286342299112 3.991658718420185 117.33792464201254 3.991658718420185 Q 117.85332284393397 3.991658718420185 118.30168255839239 4.139701784808947 Q 118.98062606905678 4.363881642038159 119.42898521604167 4.427932806881897 Q 119.87734436302654 4.491984113594022 120.85092411155614 4.543225272458431 Q 120.22322175975614 4.60727643730217 119.62113913617804 4.60727643730217 Q 119.01905708007348 4.60727643730217 118.19920024066357 4.472768466217288 Q 117.78927153722184 4.40551476441162 117.40976792799714 4.40551476441162 Q 117.03026318382535 4.40551476441162 116.6811835338706 4.472768466217288 Q 115.98302480143462 4.60727643730217 115.0927118651255 4.722568761010319 Q 114.87013341824564 4.751391877404451 114.65516110305165 4.751391877404451 Q 114.01024472494323 4.751391877404451 113.43378268079734 4.491984113594022 Q 112.87405727583852 4.109949004876604 112.27119891592181 4.109949004876604 Q 112.00481931398257 4.109949004876604 111.7300184046073 4.184538011617885 Q 111.48662300640265 4.17172743816501 111.51224362130196 3.915522636921669 Q 111.6531566308436 3.5696453820604517 112.11432624488006 3.556834808607576 Q 112.12457424966352 3.5565500787554187 112.13508158985792 3.5565500787554187 ZM 112.47754293770357 2.25 Q 112.20041879162733 2.25 111.960603193892 3.0956657975117574 Q 111.75996440928238 2.348844124737199 111.4429379706178 2.348844124737199 Q 111.39562064306052 2.348844124737199 111.34571059980166 2.3654807821787567 Q 110.96140278612923 2.6088756040430905 111.601915401045 3.3006300073642354 Q 111.08950519561768 3.5952659614926565 111.08950519561768 4.043625108477532 Q 111.08950519561768 4.491984113594022 111.84531079924966 4.543225272458431 Q 112.07900825187328 4.481927489264251 112.30182106532801 4.481927489264251 Q 112.82403859686254 4.481927489264251 113.28646527120667 4.818645721078505 Q 113.68230232966339 5.106876601283069 114.54161532105248 5.106876601283069 Q 115.11448979743487 5.106876601283069 115.89335319902706 4.978774271595592 Q 116.84995981376889 4.709438274345377 117.75269900207124 4.709438274345377 Q 118.09511708005894 4.709438274345377 118.4297846043431 4.748189340442522 Q 119.26645568494764 4.845066721948612 119.85487751783123 4.845066721948612 Q 120.12234141985022 4.845066721948612 120.33851422533267 4.825050795002364 Q 121.4273864394388 4.7994307830437055 121.4273864394388 4.620086443281499 Q 121.13274963410007 4.3510710685852825 120.59471888470763 4.261399324309339 Q 119.45460607921063 4.24858931833001 118.51305170030034 3.8642814780572596 Q 118.04227451084519 3.672127557920884 117.35852676913274 3.672127557920884 Q 116.67477902742029 3.672127557920884 115.77806073345053 3.8642814780572596 Q 115.19979809574032 4.0101980791974015 114.70133358819515 4.0101980791974015 Q 114.01825149295321 4.0101980791974015 113.48502383966174 3.736178439027849 Q 112.93418308428997 3.4031118285537008 112.31929045473254 3.185337612721894 Q 112.83170062469277 2.7882191989962672 112.7996751132051 2.5256087918226187 Q 112.76764945984904 2.26299838132393 112.48582351169993 2.250188378669641 Q 112.48167911051854 2.25 112.47754293770357 2.25 Z"
     style="fill:#ffffff;stroke:none"
     id="path30" />
  <path
     d="M 113.44940249101163 7.998566649237991 C 113.06861213388788 8.0286286765656 112.85817551381965 8.21902372019553 112.81809249587496 8.569751375331949 C 112.86819636950477 8.95054200231958 113.07863298957301 9.150958036566578 113.44940249101163 9.170999747936833 C 113.82017199245024 9.150958036566578 114.01557746392274 8.95054200231958 114.03561863556521 8.569751375331949 C 114.00555660823761 8.21902372019553 113.81015113676511 8.0286286765656 113.44940249101163 7.998566649237991 ZM 113.49449566693498 6.735945849373004 C 113.765057421114 6.735945849373004 114.01557773378663 6.786049925400725 114.24605606522512 6.886258077456168 C 114.47653412679973 6.986466229511611 114.67945503763815 7.124252185590452 114.85481879774039 7.299616080624633 C 115.03018282770651 7.4749799756588144 115.16796885125133 7.67539587497387 115.26817686837482 7.900863508705916 C 115.36838461563444 8.126331277369903 115.4184883543323 8.364325183106272 115.4184883543323 8.614845360846964 C 115.4184883543323 8.875385989476953 115.36838461563444 9.118390323055888 115.26817686837482 9.343858361583761 C 115.16796885125133 9.569326130247749 115.03018282770651 9.767237018039438 114.85481879774039 9.937590485231055 C 114.67945503763815 10.107943952422673 114.47653412679973 10.240719413192979 114.24605606522512 10.335917407269744 C 114.01557773378663 10.431114861618738 113.765057421114 10.47871345386129 113.49449566693498 10.47871345386129 C 113.22393431755181 10.47871345386129 112.97090939815163 10.431114861618738 112.73542077380252 10.335917407269744 C 112.49993174465757 10.240719413192979 112.29701056395527 10.107943952422673 112.12665729916156 9.937590485231055 C 111.95630356210606 9.767237018039438 111.82102288741447 9.569326130247749 111.72081520762083 9.343858361583761 C 111.62060708929837 9.118390323055888 111.57050301327065 8.875385989476953 111.57050301327065 8.614845360846964 C 111.57050301327065 8.364325183106272 111.62060708929837 8.126331277369903 111.72081520762083 7.900863508705916 C 111.82102288741447 7.67539587497387 111.95630356210606 7.4749799756588144 112.12665729916156 7.299616080624633 C 112.29701056395527 7.124252185590452 112.49993174465757 6.986466229511611 112.73542077380252 6.886258077456168 C 112.97090939815163 6.786049925400725 113.22393431755181 6.735945849373004 113.49449566693498 6.735945849373004 ZM 113.46443390947127 6.224885447798151 C 113.13374729104538 6.224885447798151 112.8231025189217 6.287515475366831 112.53249932323632 6.412775530504192 C 112.2418962624829 6.538035602508045 111.99137635460609 6.708389069699662 111.78093966707188 6.923835948945538 C 111.57050301327065 7.139283266720228 111.40265465880137 7.389803107131062 111.277394603664 7.675395605109984 C 111.15213499548871 7.9609885078847356 111.08950519561768 8.269127998621165 111.08950519561768 8.59981394238733 C 111.08950519561768 8.93050002108544 111.15213499548871 9.23863951182187 111.277394603664 9.52423241459662 C 111.40265465880137 9.80982531737137 111.57050301327065 10.057840213724809 111.78093966707188 10.268276833793049 C 111.99137635460609 10.47871345386129 112.2418962624829 10.646562044461483 112.53249932323632 10.771822065865859 C 112.8231025189217 10.897081547542461 113.13374729104538 10.95971155824465 113.46443390947127 10.95971155824465 C 113.79511998816938 10.95971155824465 114.10325920904191 10.897081547542461 114.3888515720889 10.771822065865859 C 114.67444447486365 10.646562044461483 114.9249645176724 10.47871345386129 115.14041197037903 10.268276833793049 C 115.35585888335788 10.057840213724809 115.5262123505495 9.80982531737137 115.65147210209 9.52423241459662 C 115.77673266322213 9.23863951182187 115.83936267392433 8.93050002108544 115.83936267392433 8.59981394238733 C 115.83936267392433 8.269127998621165 115.77673266322213 7.9609885078847356 115.65147210209 7.675395605109984 C 115.5262123505495 7.389803107131062 115.35585888335788 7.139283266720228 115.14041197037903 6.923835948945538 C 114.9249645176724 6.708389069699662 114.67444447486365 6.538035602508045 114.3888515720889 6.412775530504192 C 114.10325920904191 6.287515475366831 113.79511998816938 6.224885447798151 113.46443390947127 6.224885447798151 Z"
     style="fill:#ffffff;stroke:none"
     id="path32" />
  <path
     d="M 120.74259207508456 6.867924659893724 L 120.74259207508456 10.959711276323148 L 121.42738625888919 10.959711276323148 L 121.42738625888919 6.867924659893724 Z"
     style="fill:#ffffff;stroke:none"
     id="path34" />
  <path
     d="M 121.07278537866043 12.417287373368369 C 120.97239221332191 13.015386574750877 120.36579484704015 13.744028393904081 119.50458552422732 14.321694279033837 C 118.56002565292823 14.955268707436627 117.3328639746068 15.410432105118218 116.25835699957189 15.410432105118218 C 115.18385002453698 15.410432105118218 113.95668851892844 14.955268707436627 113.01212847491647 14.321694279033837 C 112.15091906574719 13.744028393904081 111.54432156993076 13.015386574750877 111.44392862048335 12.417287373368369 ZM 111.25928887220003 12.07772002020365 C 111.16552382027652 12.07772969212533 111.08951457068908 12.153738561204694 111.08950519561768 12.247503696786008 C 111.08950519561768 13.085943934260289 111.82887378040945 13.936916218826056 112.82306727672214 14.60378278335557 C 113.81726085939128 15.270649347885085 115.08954775187664 15.74999945828294 116.25835699957189 15.74999945828294 C 117.42716590184136 15.74999945828294 118.69963017046182 15.270649347885085 119.69382358041807 14.60378278335557 C 120.68801699037432 13.936916218826056 121.42738566152255 13.085943934260289 121.42738566152255 12.247503696786008 C 121.42737598960086 12.153738561204694 121.3513671205215 12.07772969212533 121.25760198494018 12.07772002020365 Z"
     style="fill:#ffffff;stroke:none"
     id="path36" />
  <path
     d="M 21.39600372314453 0.375 L 21.39600372314453 17.625 "
     style="fill:none;stroke:#ffffff;stroke-width:1"
     id="path38" />
  <path
     d="M 21.39600372314453 0.375 L 24.02100372314453 0.375 "
     style="fill:none;stroke:#ffffff;stroke-width:1"
     id="path40" />
  <path
     d="M 21.39600372314453 17.625 L 24.02100372314453 17.625 "
     style="fill:none;stroke:#ffffff;stroke-width:1"
     id="path42" />
  <path
     d="M 24.02100372314453 0.375 L 121.4273910522461 0.375 "
     style="fill:none;stroke:#ffffff;stroke-width:1"
     id="path44" />
  <path
     d="M 24.02100372314453 17.625 L 121.4273910522461 17.625 "
     style="fill:none;stroke:#ffffff;stroke-width:1"
     id="path46" />
  <path
     d="M 121.4273910522461 0.375 L 139.0523910522461 0.375 "
     style="fill:none;stroke:#ffffff;stroke-width:1"
     id="path48" />
  <path
     d="M 121.4273910522461 17.625 L 139.0523910522461 17.625 "
     style="fill:none;stroke:#ffffff;stroke-width:1"
     id="path50" />
  <path
     d="M 123.18989105224608 0.375 L 123.18989105224608 17.625 "
     style="fill:none;stroke:#ffffff;stroke-width:1"
     id="path52" />
  <path
     d="M 126.7148910522461 0.375 L 126.7148910522461 17.625 "
     style="fill:none;stroke:#ffffff;stroke-width:1"
     id="path54" />
  <path
     d="M 128.4773910522461 0.375 L 128.4773910522461 17.625 "
     style="fill:none;stroke:#ffffff;stroke-width:1"
     id="path56" />
  <path
     d="M 130.2398910522461 2.1 L 139.0523910522461 2.1 "
     style="fill:none;stroke:#ffffff;stroke-width:1"
     id="path58" />
  <path
     d="M 130.2398910522461 5.550000000000001 L 139.0523910522461 5.550000000000001 "
     style="fill:none;stroke:#ffffff;stroke-width:1"
     id="path60" />
  <path
     d="M 130.2398910522461 2.1 L 130.2398910522461 5.550000000000001 "
     style="fill:none;stroke:#ffffff;stroke-width:1"
     id="path62" />
  <path
     d="M 132.00239105224608 3.825 L 139.0523910522461 3.825 "
     style="fill:none;stroke:#ffffff;stroke-width:1"
     id="path64" />
  <path
     d="M 130.2398910522461 7.275 L 139.0523910522461 7.275 "
     style="fill:none;stroke:#ffffff;stroke-width:1"
     id="path66" />
  <path
     d="M 130.2398910522461 10.725000000000001 L 139.0523910522461 10.725000000000001 "
     style="fill:none;stroke:#ffffff;stroke-width:1"
     id="path68" />
  <path
     d="M 130.2398910522461 7.275 L 130.2398910522461 10.725000000000001 "
     style="fill:none;stroke:#ffffff;stroke-width:1"
     id="path70" />
  <path
     d="M 132.00239105224608 9.000000000000002 L 139.0523910522461 9.000000000000002 "
     style="fill:none;stroke:#ffffff;stroke-width:1"
     id="path72" />
  <path
     d="M 130.2398910522461 12.450000000000001 L 139.0523910522461 12.450000000000001 "
     style="fill:none;stroke:#ffffff;stroke-width:1"
     id="path74" />
  <path
     d="M 130.2398910522461 15.900000000000002 L 139.0523910522461 15.900000000000002 "
     style="fill:none;stroke:#ffffff;stroke-width:1"
     id="path76" />
  <path
     d="M 130.2398910522461 12.450000000000001 L 130.2398910522461 15.900000000000002 "
     style="fill:none;stroke:#ffffff;stroke-width:1"
     id="path78" />
  <path
     d="M 132.00239105224608 14.175 L 139.0523910522461 14.175 "
     style="fill:none;stroke:#ffffff;stroke-width:1"
     id="path80" />
</svg>
