<?xml version="1.0" encoding="UTF-8" standalone="no"?>
<svg
   width="101.68570709228516"
   height="18.0"
   version="1.1"
   id="svg64"
   sodipodi:docname="kanakhtanemnesu.svg"
   inkscape:version="1.1.1 (3bf5ae0d25, 2021-09-20)"
   xmlns:inkscape="http://www.inkscape.org/namespaces/inkscape"
   xmlns:sodipodi="http://sodipodi.sourceforge.net/DTD/sodipodi-0.dtd"
   xmlns="http://www.w3.org/2000/svg"
   xmlns:svg="http://www.w3.org/2000/svg">
  <defs
     id="defs68" />
  <sodipodi:namedview
     id="namedview66"
     pagecolor="#ffffff"
     bordercolor="#666666"
     borderopacity="1.0"
     inkscape:pageshadow="2"
     inkscape:pageopacity="0.0"
     inkscape:pagecheckerboard="0"
     showgrid="false"
     inkscape:zoom="13.522058"
     inkscape:cx="50.842854"
     inkscape:cy="8.9853188"
     inkscape:window-width="1920"
     inkscape:window-height="1001"
     inkscape:window-x="-9"
     inkscape:window-y="-9"
     inkscape:window-maximized="1"
     inkscape:current-layer="svg64" />
  <path
     d="M 3.009169848917976 0.4739171748132039 C 3.7026715218272255 0.4739171748132039 4.256829318471649 0.6745946316238001 4.644164689284773 0.9526347441559112 C 4.650308145491952 1.0062515645085024 4.663546055856558 1.060016372992199 4.652575800812965 1.1124437372646898 C 4.603449882852364 1.360569519526529 4.457806885291136 1.5903185537666114 4.257258755698066 1.7432685981716125 C 3.9413649209170813 1.94997010496389 3.5600411988456018 2.009570228366613 3.2002765010963685 2.0993341831784433 C 3.10998720613517 2.1086036967312767 3.181170796374544 2.130187995961788 3.231117085890341 2.138585643286511 C 3.4609996992016763 2.1784200797833564 3.9384250002790258 2.2376030490926513 4.202499603977515 2.2376030490926513 C 4.220906351189456 2.2376030490926513 4.23827706337661 2.2373153403237978 4.254454894379272 2.2367137030214415 C 4.532424083629077 2.2049171597812043 4.794657162235626 2.0893111466595644 5.019856122452685 1.9255069464391237 C 5.098959498900698 1.8590524805074944 5.166930105007111 1.7763742399315428 5.224523825878929 1.6899990125400517 C 5.3720929131784425 2.0357255065676374 5.451951702305268 2.4028945713681713 5.485264503827336 2.6067978859799568 C 5.503366062427325 2.716651377223197 5.580895308140001 2.8061828973646232 5.687128818362978 2.8395020766672823 C 6.825504545072815 3.188508875845171 7.72511459117944 4.749370284342509 8.566494083211595 5.78895938641794 C 10.295861887830181 7.925728476871466 11.765759846336513 10.315234366846607 13.458892408638075 12.548598959980612 C 12.522122105814729 12.092922126930452 11.58844053850988 11.632519122248745 10.649618007621019 11.174801399409672 C 8.72850955219054 10.164475916823728 6.728271736761494 9.358727903879377 5.045088984609069 8.085161653353607 C 5.042277564439204 8.082822188947427 5.039490238107126 8.07909189594436 5.036677873080877 8.076750541825415 C 4.066833817400553 7.2693821001829235 3.0743602151151883 6.41700117284651 2.698420284718348 5.284299308721125 C 2.5498687829938245 4.364048874911361 4.455242072637431 2.7072382455000326 4.240437005069874 2.637638234559833 C 4.2215063349931405 2.631504463130588 4.200107227613845 2.6285180083156328 4.1764933768710275 2.6285180083156328 C 3.7176359210190495 2.6285180083156328 2.422621666796125 3.756154733581801 2.15731260823226 4.830105427765268 C 2.154053326136495 4.815773846136464 2.1461630666898484 4.79928090552982 2.143294246494671 4.785246481233707 C 2.0704243238243896 4.4287242943794265 1.9886595231574336 3.528875672035904 2.2105824300779164 2.8058581029827074 C 2.22090238771539 2.7720589366371007 2.223991359447983 2.7373940456298778 2.2217969304967107 2.702122556824284 C 2.206042867582163 2.411103719844335 2.16184012380912 2.2384220033632714 2.098435772391302 2.068493834598567 C 2.035031184759387 1.8985666106902463 1.9592064599630061 1.724220765903293 1.8376947401217505 1.3030929608462967 C 1.806828171777225 1.1953371688820418 1.6962380468757994 0.9753151948986268 1.630223411590808 0.9582419943653084 C 1.8161052441811285 0.8204882523408192 2.0045522437462973 0.6772958579179091 2.2750667523423678 0.5825507383579678 L 2.2750667523423678 0.5825507383579678 C 2.1960743965194465 0.658865194028754 2.1432944827087668 0.7691834365057539 2.143294246494671 0.8965614153126038 C 2.143294246494671 1.1261525404295507 2.3068791219270324 1.3115031275181046 2.5077709430296933 1.3115039542674405 C 2.7086627641323537 1.3115039542674405 2.8722476395647156 1.1261525404295507 2.8722476395647156 0.8965614153126038 L 2.8722476395647156 0.8937576721008572 C 2.871221053103765 0.7095976631093593 2.7627272101967493 0.5576299150223198 2.6171139756116095 0.5040481134094518 C 2.669879244148341 0.49667510377938745 2.7125253370291467 0.4854209784459994 2.771315482296895 0.4816187582507192 C 2.852317311433968 0.47642689052903053 2.9316148558688426 0.4739171748132039 3.009169848917976 0.4739171748132039 ZM 3.6797034804227042 8.23655977114829 C 3.744950774217038 8.301805883872143 3.8149797499554623 8.36067988514395 3.8815675587442495 8.424405723946341 C 4.0956495749641375 9.204198532028927 4.293931466520769 10.064938131364233 4.57407335302502 10.7290191024102 C 5.057193067313169 11.874268186883667 5.789626838872777 12.870430272277117 6.413278350114227 13.883144351801198 C 6.260634439177563 13.965039778863208 6.128536902733854 14.058336787907995 6.029175805418124 14.152295196421411 C 5.947669659186221 14.229370911069886 5.8940429178416 14.280530159968329 5.830115352201277 14.345748871857053 C 5.520950312157207 13.938784109671408 5.124019924767046 13.62317373180555 4.644164689284773 13.448575610364134 C 4.689085996337662 12.725628196897432 4.536026821020337 11.737052363409154 4.30492109112023 10.66173115504105 C 4.1263418173058595 9.830810278320685 3.903548933870034 9.003086795602949 3.6797034804227042 8.23655977114829 ZM 4.686219774497539 9.144947533060002 C 5.834593499032087 10.09035760265641 7.113542596376112 10.88336044784028 8.36182590735716 11.685069199744076 C 8.343845290374292 12.594861963098435 8.344411259348162 13.463187814338914 8.445936077782692 14.359767706022835 C 8.033305011863666 14.014385848361224 7.586775333464642 13.763462228240035 7.018870348864767 13.625206117887009 C 7.015369655962953 13.624345353721408 7.011953527707485 13.623977804588126 7.008598342688769 13.623977804588126 C 6.989090837789752 13.623977804588126 6.971640285238172 13.63639699689621 6.951581929067426 13.636421563162186 C 6.30326824892538 12.572860982202688 5.56863248956343 11.57684345983595 5.115180793297013 10.501922870574559 C 4.9594783822461315 10.132827952249835 4.822072170210292 9.651825188689491 4.686219774497539 9.144947533060002 ZM 5.092751320031232 14.399018929916807 C 5.256419815253556 14.551910865654206 5.4054203599744595 14.728454446389774 5.5329268392495 14.94012684261699 C 5.575655607063885 15.01022479287143 5.648728910070769 15.058380343325913 5.729183431147552 15.07470273735529 C 5.7494917018318015 15.078823256044847 5.769947370111917 15.080878318679517 5.790254695939782 15.080878318679517 C 5.850400001475933 15.080878318679517 5.909242822487076 15.062849514021076 5.9590844691583715 15.027040401933126 C 6.175000687833224 14.870724306660996 6.306688629034575 14.703258906060551 6.435707350951817 14.58125716007727 C 6.483312522562763 14.536239477673238 6.5327214250102985 14.500179978643592 6.584302079855896 14.463502543538969 L 6.732896336331785 17.185862440383506 C 6.519603983834621 17.172073206318977 6.298091380798784 17.15081393768448 6.095781566478202 17.15081393768448 C 5.831792472282443 17.15081393768448 5.600500133246544 17.18701327545892 5.462835502989748 17.323242668868794 C 5.2941143882552915 17.189184555428792 4.96598135630733 17.158607113137695 4.572329148140608 17.158607113137695 C 4.471105738892494 17.158607113137695 4.365550163124863 17.160629105798932 4.257258755698066 17.16343343954592 L 5.092751320031232 14.399018929916807 ZM 6.25066573190075 9.573908551859477 L 6.25066573190075 9.573908551859477 C 7.604791854990093 10.361226196182292 9.034522078910209 10.988295252963786 10.386072995925625 11.699088033909858 C 10.388108216576233 11.700135879639442 10.389620931646625 11.700891764746446 10.39167977370683 11.70189142280046 C 11.686891739128056 12.333365400043023 12.978365852695143 12.98273873661945 14.285973389014858 13.605581450796405 C 15.269975172749374 14.794761632832586 16.33790476962736 15.90056296328426 17.36439863465213 17.026055100773398 C 16.647556883137256 17.146248391638174 15.930830404101199 17.267532046769798 15.213987707729942 17.38772722734734 C 13.79219427743337 15.841645498618801 12.36859900601298 14.299348864563587 10.946807465429178 12.75326524612228 C 10.935631704122118 12.739913480563432 10.92370950627189 12.727994117282355 10.910359630425809 12.716818355975295 C 9.41106341039531 11.580038019269429 7.757799063206311 10.634765898705052 6.25066573190075 9.573908551859477 ZM 3.0756960058277225 0.0 C 2.9405269774945206 0.0 2.803378947465543 0.004522381611119117 2.664776311033773 0.013406474957975922 C 1.5799215017535755 0.08356273687650426 0.791815610992612 0.5394290283949892 0.5227751964622482 1.157302329475107 C 0.4821416476788419 1.2499492773278713 0.3773182175015722 1.4706424536648965 0.5155519465690093 1.4706424536648965 C 0.5301007861125528 1.4706424536648965 0.5473420529751317 1.468197873986025 0.5676338477261894 1.4629019539550754 C 0.6829407547488466 1.4484514385289664 0.7780652341468658 1.4423110531050352 0.8569417269557291 1.4423110531050352 C 1.2747371416542677 1.4423110531050352 1.236670413344381 1.614590378873667 1.3274274122155385 1.6367293088014427 C 1.417468209947809 1.9189504698851962 1.6165598434253194 2.483475939414473 1.630223411590808 2.7049261819289825 C 1.386425543994761 3.5656903475302664 1.4768830233922678 4.468266061611404 1.565739089326357 4.903000625343815 C 1.7153772939992473 5.635118342443057 2.1961816377190027 6.48697345720191 2.8273889292472503 7.283313535133207 C 2.8134251329658233 7.338127016095824 2.8086283333195925 7.393803623365002 2.8273889292472503 7.448729542237286 C 3.1285063912567783 8.370618829444675 3.4792571591049843 9.617610994177321 3.7301694409495667 10.785092549360554 C 3.981081959008245 11.952574104543789 4.12285718696257 13.061967778966503 4.046983802062425 13.608383894830625 C 4.025192579283871 13.758532912485983 4.121174397743101 13.900045942793815 4.26847325611686 13.936413465004566 C 4.312604663232929 13.947361515923141 4.352082652659003 13.967347118152338 4.39463851175516 13.981272411536127 L 3.4666249016823647 17.0596976571734 C 3.272728324816838 17.01836208009686 3.0724617624261277 17.00476559673462 2.874112549852153 17.00476559673462 C 2.4927394590346226 17.00476559673462 2.118454680808026 17.055030066637645 1.8101650502035056 17.055030066637645 C 1.6846506825065655 17.055030066637645 1.570075389592555 17.04669832304569 1.4704144184820296 17.023250767026415 C 1.4375472348519498 17.015217598051724 1.3949769666959404 17.011228414399508 1.3451441780532423 17.011228414399508 C 0.9090801423353627 17.011228414399508 -0.08308278674200893 17.316628674182503 0.004096926806725951 17.889582026440785 C 0.15548046576267507 17.76211712084663 0.26223299740795364 17.73138850153413 0.38031217211407353 17.73138850153413 C 0.49024007079753446 17.73138850153413 0.6099847320405954 17.758020223566664 0.7846967677297779 17.758020223566664 C 0.7935070810801064 17.758020223566664 0.8024571741217066 17.757952193907034 0.8115528340999292 17.75781046544947 C 1.066223518424995 17.75382506122279 1.509269747551208 17.674784045296107 1.865480722334089 17.674784045296107 C 2.0452727193170093 17.674784045296107 2.202943030001157 17.694920824546703 2.3031032396034496 17.755008021415254 C 2.5392046614185677 17.745578354705373 2.7523340261895344 17.741732789223487 2.951610851518261 17.741732789223487 C 3.8011631150558056 17.741732789223487 4.398956033000731 17.81162570564265 5.451620530142762 17.816688246146814 C 6.240002555181878 17.80960749240695 7.649068297561068 17.777941575561766 8.426310465835707 17.73818579835887 C 8.876011082258614 17.740893756754712 9.122960636429726 17.792010487115885 9.3482285711628 17.792010487115885 C 9.361538763040762 17.792010487115885 9.374772421551643 17.79183285411574 9.387968285807172 17.791454911562237 C 9.52192246504496 17.78755265469733 9.652878614977093 17.73516414764362 9.867871236536825 17.73516414764362 C 9.990853743446445 17.73516414764362 10.141335350548884 17.752305732157712 10.335607271612858 17.805472800871634 C 10.085930861918229 17.463682342324677 9.45939942841909 17.120327201606223 9.005599080147068 17.120327201606223 C 8.891079651866747 17.120327201606223 8.787560241606108 17.142193068039095 8.703873366840497 17.191469218164713 C 8.542968104112466 17.175166666119395 8.37234782804666 17.169161158944245 8.19567291227375 17.169161158944245 C 7.976734570455455 17.169161158944245 7.748496479680046 17.178384846962466 7.517922703923993 17.188666774130493 L 7.360917335919913 14.359767706022835 L 7.360917335919913 14.359767706022835 C 7.847890174541017 14.562401606083045 8.21758885609496 14.875619607585232 8.642193142108937 15.380301416978874 C 8.699664031650867 15.44654907746951 8.781797562521582 15.482110637184917 8.86545325702653 15.482110637184917 C 8.908499969014047 15.482110637184917 8.951950134677428 15.472694198464408 8.992650768264083 15.453197086985613 C 9.112446274591294 15.395810289661837 9.178901803486355 15.264291005324987 9.155264331333942 15.133579573196247 C 8.962827321367223 14.095116267502062 8.941800487403126 13.115423973733854 8.95339954437011 12.074779939505962 L 8.95339954437011 12.074779939505962 C 9.492870020957247 12.42841606253606 10.024760859633895 12.787106222362869 10.5290609470485 13.16820932046874 C 11.981769133365166 14.7479090393313 13.43605428498632 16.326704530634608 14.888761526446602 17.906404249497168 C 14.944628049848916 17.96747598671759 15.022539017540629 17.999999833159222 15.103714464038218 17.999999833159222 C 15.11983182423232 17.999999833159222 15.136078629750996 17.99871671819008 15.152306538141996 17.99612214256029 C 16.10156595264582 17.836959195003903 17.051571803692816 17.68146795935479 18.00083121819664 17.52230312208564 C 18.107373224028915 17.50503114739059 18.194878263441282 17.430652052861355 18.23073178377927 17.328851336362764 C 18.266587193830023 17.227046840438643 18.244059927928525 17.11188585467375 18.171855892794696 17.031661878554605 C 17.42994521170602 16.20143358156353 16.66326228594804 15.400856767607475 15.920510682677822 14.586862993002091 L 15.920510682677822 14.586862993002091 C 17.1897721675192 15.367626168590794 18.796164079222855 16.341928056689678 19.00015479305014 16.341928056689678 C 19.023265980196797 16.341928056689678 19.02837576352015 16.32942193759429 19.01295381762449 16.302708957912753 C 18.91865715052569 16.139381083416772 18.112724890586506 15.546881487147742 17.238233851442022 14.928911397341812 L 17.238233851442022 14.928911397341812 C 17.377197659226482 14.987001167815102 17.513576339944986 15.048752256775444 17.6531769809321 15.10554284972107 C 17.658199837468143 15.108767644558828 17.664787376175685 15.113841523339595 17.669999203988482 15.116757350139865 C 17.773049020626395 15.151233269870335 17.830042757694528 15.174751690118395 17.93915099346508 15.178437574871426 C 17.94233326976557 15.178545288499173 17.945553340321407 15.178605759307734 17.948841440536878 15.178605759307734 C 17.973745965099905 15.178605759307734 18.00257920250659 15.175098452411234 18.048493553618805 15.161615351815042 C 18.100470103289197 15.146353086648238 18.187842862807837 15.102794262500725 18.236338561560473 15.01021723402036 C 18.28483615002588 14.91764209525276 18.275225070890315 14.822594267328872 18.25876945211083 14.771906501765924 C 18.242311943618578 14.721218736202974 18.220873152271164 14.694878974793022 18.205498449194693 14.67377749717461 C 18.143995857463278 14.58936875213181 18.102465639971687 14.565463885622796 18.0428867758376 14.519575990489324 C 17.983304132277976 14.473685260786702 17.91481149301954 14.423448191718805 17.838219544839546 14.370981261585245 C 17.6850337587668 14.266046456461739 17.50165414209476 14.147847757423074 17.344773967561526 14.042952636267687 C 17.18789568274106 13.938058459968683 17.045392442943054 13.83638718879467 17.016744397387587 13.810248681794459 C 17.00804982894427 13.80148608369151 16.99842930124487 13.792621441099115 16.988708618768793 13.785015347209884 C 15.691415134734154 12.872117785778505 14.394182121508075 11.96102017575818 13.097218392351367 11.048637561055948 C 13.088896097323248 11.042752050641536 13.077870568181206 11.047937422475586 13.06918166887619 11.04302983841836 C 11.735590582003198 9.174366581424614 10.481460027291279 7.217504760432826 9.023491825486246 5.41607134214063 C 8.27915569806047 4.496387349732927 7.424659237280828 2.887723530854533 6.037586916946315 2.3516642220268507 C 5.970716123670593 1.9556564868954267 5.819659099030447 1.224570552967246 5.283400661719887 0.7031084485192504 C 4.8273005330098036 0.25959351157317057 4.167590467595091 0.05615587828814758 3.427373441574297 0.0106028092539796 C 3.3119162433330986 0.0034978361875914604 3.1945714582512528 0.0 3.0756960058277225 0.0 Z"
     style="fill:#ffffff;stroke:none"
     id="path2" />
  <path
     d="M 25.849501496804585 4.787351327303721 Q 25.443168672099958 4.787351327303721 25.378524566507732 5.101336447415441 L 25.378524566507732 5.119806013329713 Q 25.424699106185685 5.202919184922394 25.572456258392137 5.202919184922394 Q 25.997259148924854 5.018222275995125 25.997259148924854 4.861230340831537 L 25.997259148924854 4.842761274831082 Q 25.997259148924854 4.805820893217994 25.849501496804585 4.787351327303721 ZM 27.327075768395098 4.214791284564551 Q 27.262431662802875 4.574949694569682 26.689872119977522 4.990517802145263 L 26.893038094905243 5.073630973737943 L 27.17008333331769 4.9720487361448065 L 27.308606202480824 5.064396815673078 Q 28.370611866581942 5.572312752820023 30.125231376584907 5.600017226669886 L 32.87721294501058 5.627721450562841 Q 32.89614168176547 5.62668912853139 32.914344543658544 5.62668912853139 Q 33.38461247118489 5.62668912853139 33.371275770383406 6.315717342583075 Q 33.357426158006014 7.031416458668631 32.886448352859986 7.7517347784203405 Q 32.59093229874872 7.7517347784203405 32.28618283644332 7.525481283696731 Q 31.98143437396555 7.2992277889731225 31.787502807059596 6.9944768269262685 Q 31.593571240153643 6.689728364448499 31.288820778020607 6.20028149330201 L 31.288820778020607 6.20028149330201 Q 31.38116885754888 7.169940077702488 31.842910754931687 7.724030554527386 Q 31.279586869912652 7.724030554527386 30.84093049267046 7.830229746174501 Q 30.621603803790816 7.883330091868784 30.475001077565537 7.883330091868784 Q 30.328397851426445 7.883330091868784 30.25451858794172 7.830229746174501 Q 30.16266992231632 7.7642141270262055 29.797836318297566 7.7642141270262055 Q 29.57576060333998 7.7642141270262055 29.252538325680494 7.788674410162702 Q 29.003391277721875 7.807528659758913 28.797058848679278 7.807528659758913 Q 28.295964235560977 7.807528659758913 28.047393088319176 7.696325330806797 Q 27.81652213962777 7.502393763900846 27.75649573796025 7.01756484663597 Q 27.696468836378912 6.532735929371094 28.028922772534177 5.673895490326977 L 28.028922772534177 5.673895490326977 Q 27.34554533430937 6.163342361473465 27.34554533430937 7.160703670025448 L 27.34554533430937 7.493159355879072 Q 27.003856490218514 7.142235853809534 26.809924923312565 6.717432588341453 Q 26.431296447479344 5.775479227661563 25.775623233147495 5.775479227661563 Q 25.526282343606454 5.775479227661563 24.815199806639516 6.089463597902558 Q 24.575094262458656 5.987880360481787 24.621268177244335 5.766244319725973 L 25.083010262094827 5.147509737308852 Q 25.415464323228548 4.584185602332905 25.563221475435 4.519541496740681 Q 25.637100239005907 4.381018627577548 26.283538670380622 4.381018627577548 Q 26.56058390879307 4.454897391148455 26.56058390879307 4.584185602332905 Q 26.56058390879307 4.759647603324583 26.37588724982271 4.935109104402445 Q 26.726811751719882 4.861230340831537 26.88380368688347 4.519541496740681 Q 26.88380368688347 4.436427825234182 27.327075768395098 4.214791284564551 ZM 27.72487618905503 2.25 Q 27.679909941072 2.25 27.62259057272182 2.3216494912349606 Q 26.920742818712018 3.4390653918761123 26.348182775972848 3.873102565452149 Q 26.126546735217033 4.067034132358099 25.747918259383813 4.076268915315236 Q 25.563221475435 4.076268915315236 25.184593499515596 3.7992236769027876 Q 24.621268177244335 3.2543684829488435 24.39963219897775 2.8757400071156245 Q 24.150291301625558 2.4324680193378376 24.07641298719597 2.386293542149112 Q 24.03947330272832 2.386293542149112 24.02100372314453 2.4786419653681326 Q 24.02100372314453 3.005027593407804 25.092244545138147 4.427192667341684 Q 24.889078695188875 4.7227074716684045 24.71361663170797 5.101336447415441 Q 24.538154568227068 5.4799639234210265 24.298048992801593 5.678513694165497 Q 24.057942882312112 5.877062465082334 24.344222938831887 6.070994031988285 Q 24.344222938831887 6.311100138572188 24.74132098057938 6.458856665886369 Q 25.064540196266737 6.366508336401189 25.729448693469543 6.1725767694952385 Q 26.126546735217033 6.1725767694952385 26.274304512315755 6.505031205564322 Q 26.763750383634612 7.243818341359579 26.763750383634612 8.047249832703969 Q 26.819159581291245 9.118490654697585 26.024963622774717 10.097382897249112 Q 25.775623233147495 10.263609240434475 25.775623233147495 10.559125294545737 Q 25.775623233147495 10.679177597966964 26.08037282043135 10.679177597966964 Q 26.57905397462116 10.679177597966964 26.57905397462116 10.559125294545737 L 26.542114342878797 10.30978477994006 Q 26.542114342878797 10.180497068669426 26.73604590978475 10.115853213034109 L 26.73604590978475 10.097382897249112 Q 26.73604590978475 9.921921646128158 27.364014900223644 8.333529479138193 Q 27.6502955464855 8.333529479138193 27.81652213962777 8.610574217636824 Q 28.028922772534177 9.312422721517352 28.028922772534177 9.774163619072528 Q 28.028922772534177 9.875746606536389 27.89963531122045 10.208200792648565 Q 27.74264337605686 10.328253595983607 27.7057037443145 10.642238966052235 L 28.44449063015285 10.642238966052235 L 28.38908218236694 10.411367767403922 Q 28.352142550624578 10.27284464828388 28.49066566974462 10.171261660820019 L 28.4260218141093 9.829573566599887 Q 28.305968010946625 8.527461046044142 28.305968010946625 8.296589847395829 L 28.305968010946625 8.278120031524649 Q 29.03552073872011 8.10265828048988 29.428001576456715 8.10265828048988 Q 29.820482414193318 8.10265828048988 30.03288279714282 8.245798603620807 Q 30.117298744141774 8.3026867963041 30.269543497702138 8.3026867963041 Q 30.50036670462405 8.3026867963041 30.88710553226223 8.171919840049899 Q 31.306072803834347 8.030254762592005 31.530249656563456 8.030254762592005 Q 31.649492599515472 8.030254762592005 31.713623043661055 8.070336352672221 Q 31.898319702631415 8.185770952168744 31.898319702631415 8.462817190408826 Q 31.898319702631415 9.478648564788898 31.38116885754888 10.189731976605017 Q 31.214943014277335 10.355958319790378 31.1318283429432 10.651474373901642 L 31.76903199136078 10.651474373901642 Q 31.935259834287592 10.596063926460465 31.842910754931687 10.374428635575377 Q 31.861381570630503 10.134322029077657 32.06454754555823 10.069678173442341 Q 32.06454754555823 9.229307550269404 32.80333368152585 8.4074082427091 Q 33.32048452660838 8.693688389057138 33.32971993445779 9.293951405904721 Q 33.32971993445779 9.52482310446685 33.23736985527425 9.921921646128158 L 33.1265519598748 10.226670608519745 Q 33.024971471980024 10.346724411682422 32.941856800645894 10.679177597966964 L 33.5513587247396 10.679177597966964 Q 33.66217462048378 10.633004058116644 33.689878844376736 10.577595610330734 L 33.59753076484847 10.282080056133289 Q 33.5513587247396 10.152792344862654 33.7268184761191 10.051209357398793 Q 33.634469396763194 9.561762736209213 33.846870779540325 9.312422721517352 Q 33.412835605619556 8.296589847395829 33.412835605619556 7.714795146677978 Q 33.643702804957336 6.763606628105589 33.70834666059265 5.932471162825152 Q 33.81916655564737 6.514266113499913 33.73605488379614 7.326932012866077 Q 33.65293921263438 8.13959791223224 34.01309812255332 9.007672259384314 Q 34.08356497432537 9.154024528787433 34.14130502015229 9.154024528787433 Q 34.18193601551704 9.154024528787433 34.216264097481044 9.08155152286904 Q 34.30861317683696 8.555164770023282 34.253205728878676 6.1725767694952385 Q 34.17932546556632 5.877062465082334 34.09620979440456 5.720070030004929 Q 33.80069873943146 5.267562540643894 33.58829535699906 5.249093474643439 L 30.605442589925076 5.249093474643439 Q 28.398316590388713 5.249093474643439 27.33631042637378 4.621124234247635 Q 27.51177192745164 4.307139739028186 27.53024224323664 4.191704639617846 Q 27.548711809150912 4.076268915315236 27.53024224323664 3.910041697280694 Q 27.086969661811196 4.039329283572874 26.86533362105538 4.251730541371551 L 26.680636712128113 4.113208672036052 Q 26.874569028904787 3.9931553687871926 27.299370794631418 3.3374816545415245 Q 27.72417381014259 2.6818083777204467 27.79805207379968 2.3124147043722476 Q 27.766844453879408 2.25 27.72487618905503 2.25 Z"
     style="fill:#ffffff;stroke:none"
     id="path4" />
  <path
     d="M 32.618368797435664 12.348059639770032 C 33.105987733711444 12.371826542442788 33.37530730400087 12.381595858248414 33.490771398412576 12.381595858248414 C 33.514551298844566 12.381595858248414 33.53180532431358 12.381181429694383 33.54309637777719 12.380389566208757 L 33.54309637777719 12.380389566208757 L 33.478207564371694 14.927117519608233 C 33.05959573152324 14.756570921219094 32.80159121056062 14.58374471582588 32.50785085032622 14.351828197386881 L 32.618368797435664 12.348059639770032 ZM 25.537919191095575 11.714714826103432 C 25.52395897278624 11.714714826103432 25.513875961060645 11.714990278616424 25.509221388491962 11.715447199844872 C 25.34809454117213 11.745148579435478 25.133593957789518 11.84323616949309 25.161617126697518 12.041268529437293 C 25.161617126697518 12.515000359799433 25.161617126697518 12.988909159652682 25.161617126697518 13.462639990187188 C 24.845885213976466 13.446019855437736 24.5214776953357 13.4314588656992 24.42513649073105 13.426641196247825 L 24.42513649073105 13.426641196247825 C 24.42513649073105 13.605406377783236 24.56957689539673 13.849682265512095 25.029316622321414 13.849682265512095 C 25.034352504153773 14.252566809687696 25.104879095626913 14.745935754682973 25.1804189478322 14.997738344835817 C 25.180868932756447 14.997396403785205 25.181344600753018 14.997162444118997 25.181794648166488 14.996821502896019 L 25.240951574728342 15.65694869937761 C 25.240951574728342 15.730046097653041 25.36607356665378 15.749999657732138 25.502696013442794 15.749999657732138 C 25.666975692225993 15.749999657732138 25.847883129444348 15.721149631371345 25.847883129444348 15.721149631371345 L 25.82013903742451 15.058271909070363 L 25.82013903742451 15.058271909070363 C 28.4080541403098 15.078411437089265 33.34652126660861 15.209373859645789 33.59147703712816 15.209373859645789 C 33.718130202584874 15.209373859645789 33.80265363105442 15.07354527599767 33.80265363105442 14.884698832435022 L 33.867542444459914 12.03966380608574 L 32.31020242419323 12.023613573087307 L 32.18363424408535 14.24268601310095 C 31.05505030783526 14.24593595282321 29.105201454658236 14.43128050009999 27.77987168667118 14.43128050009999 C 27.3585773162824 14.43128050009999 27.00038881667191 14.412552228785584 26.751745681840507 14.36329272094488 C 26.701385613732374 14.302858639559853 26.214985092406298 13.594000844055607 25.90566429318269 13.517211082330153 C 25.88133848686288 13.511171623510803 25.808707508178415 13.50440429017436 25.71810475276264 13.497262521389223 C 25.667640452623726 13.068478442198895 25.616760849081604 12.639703861371082 25.566085335355144 12.210943778043955 C 25.663106484263317 12.091647844227369 25.878165908803755 12.124116246793315 25.935242818952844 11.958724259767997 C 25.99372473688372 11.881235118613004 25.95401695735993 11.751581970342375 25.84811246490775 11.748693968223396 C 25.780834813329236 11.721870592475437 25.60904867863163 11.714714826103432 25.537919191095575 11.714714826103432 Z"
     style="fill:#ffffff;stroke:none"
     id="path6" />
  <path
     d="M 48.38899126823861 2.6005934095500525 Q 48.66167510018407 2.6005934095500525 48.66167510018407 2.8862622515520555 L 48.66167510018407 5.080718399906955 L 47.8306388701395 5.080718399906955 L 48.10332270208497 2.7693979541072657 Q 48.11630743629314 2.6005934095500525 48.38899126823861 2.6005934095500525 ZM 48.40197600244678 2.25 Q 47.73974352389538 2.25 47.70078932127086 2.6265632572579 Q 47.42810548932539 5.080718399906955 47.11646635136195 5.093702582418398 L 41.091452028448636 5.314446925834442 L 40.46817485591521 5.288477181569732 Q 39.766987347194195 4.548335470224196 39.22162023499999 4.548335470224196 Q 39.02684591169702 4.535350598091841 38.81908657833751 4.522365588035304 Q 37.71536651634748 4.7301242317739 37.49462231085562 4.7301242317739 Q 37.3388027418739 4.7301242317739 37.3388027418739 4.937883565133406 Q 37.3388027418739 5.22355240713541 37.78029115285762 5.22355240713541 Q 38.53841500530465 5.102692480613596 38.94325337505153 5.102692480613596 Q 39.01685854581622 5.102692480613596 39.078785400226444 5.106687592474936 Q 39.29952974364249 5.106687592474936 39.44236375087094 5.288477181569732 Q 39.1891572960861 5.601970848086912 38.30896309449435 5.601970848086912 Q 38.24125625138106 5.601970848086912 38.16983938569101 5.600115767836446 Q 37.16999878349446 5.5741460235717355 36.40388674170644 5.340416670099153 Q 36.02732348444854 5.340416670099153 36.02732348444854 5.781905081082877 Q 36.066278243079914 6.184438186048625 38.845056322602225 6.197423196105162 L 40.078625933460906 6.067573923084881 L 47.11646635136195 6.028618617066904 L 49.09017794941453 6.054589188876707 L 49.09017794941453 2.8862622515520555 Q 49.07719321520636 2.25 48.40197600244678 2.25 Z"
     style="fill:#ffffff;stroke:none"
     id="path8" />
  <path
     d="M 37.07553856055104 7.43143737770049 L 36.79613919859968 8.036802661928432 L 35.911374552420384 10.015881475750547 L 35.7716748714447 10.295280837701904 L 36.35375687551003 10.574680199653262 L 36.49345655648571 10.27199755753929 L 37.09882184071365 8.898284027945117 L 37.40150448282762 9.43379947168522 L 37.680903844778975 9.992598195587933 L 37.96030320673034 9.43379947168522 L 38.28626912900692 8.85171746761989 L 38.58895177112089 9.43379947168522 L 38.868351133072245 9.992598195587933 L 39.1477504950236 9.43379947168522 L 39.45043313713757 8.85171746761989 L 39.77639905941416 9.43379947168522 L 40.055798421365516 9.992598195587933 L 40.33519778331687 9.43379947168522 L 40.63788042543084 8.875000747782504 L 40.940563067544815 9.43379947168522 L 41.24324570965879 9.992598195587933 L 41.52264507161014 9.43379947168522 L 41.825327713724114 8.85171746761989 L 42.128010355838086 9.43379947168522 L 42.43069299795205 9.992598195587933 L 42.71009235990341 9.43379947168522 L 43.01277500201738 8.85171746761989 L 43.31545764413135 9.43379947168522 L 43.61814028624532 9.992598195587933 L 43.897539648196684 9.43379947168522 L 44.20022229031065 8.85171746761989 L 44.50290493242462 9.43379947168522 L 44.782304294375976 9.992598195587933 L 45.08498693648995 9.43379947168522 L 45.38766957860392 8.85171746761989 L 45.69035222071789 9.43379947168522 L 45.96975158266925 9.992598195587933 L 46.27243422478322 9.43379947168522 L 46.57511686689719 8.85171746761989 L 46.90108278917377 9.457082751847832 L 47.18048215112513 9.96931491542532 L 47.4831647932391 9.457082751847832 L 47.809130715515685 8.828434187457278 L 48.624045521207144 10.295280837701904 L 48.787028482345434 10.574680199653262 L 49.345827206248146 10.27199755753929 L 49.20612752527247 9.992598195587933 L 48.08853007746704 7.990236101603205 L 47.809130715515685 7.501287218188329 L 47.52973135356433 8.013519381765818 L 47.18048215112513 8.61888466599376 L 46.854516228848546 8.013519381765818 L 46.551833586734574 7.478003938025717 L 46.29571750494583 8.013519381765818 L 45.96975158266925 8.595601385831147 L 45.667068940555275 8.013519381765818 L 45.38766957860392 7.454720657863104 L 45.10827021665256 8.013519381765818 L 44.80558757453859 8.595601385831147 L 44.47962165226201 8.013519381765818 L 44.20022229031065 7.454720657863104 L 43.92082292835929 8.013519381765818 L 43.59485700608271 8.595601385831147 L 43.29217436396874 8.013519381765818 L 43.01277500201738 7.454720657863104 L 42.73337564006602 8.013519381765818 L 42.43069299795205 8.595601385831147 L 42.10472707567547 8.013519381765818 L 41.825327713724114 7.454720657863104 L 41.54592835177276 8.013519381765818 L 41.24324570965879 8.572318105668533 L 40.940563067544815 8.013519381765818 L 40.63788042543084 7.454720657863104 L 40.35848106347949 8.013519381765818 L 40.055798421365516 8.595601385831147 L 39.753115779251544 8.013519381765818 L 39.45043313713757 7.454720657863104 L 39.17103377518622 8.013519381765818 L 38.868351133072245 8.595601385831147 L 38.565668490958274 8.013519381765818 L 38.28626912900692 7.454720657863104 L 37.983586486892946 8.013519381765818 L 37.680903844778975 8.595601385831147 L 37.37822120266501 8.013519381765818 L 37.07553856055104 7.43143737770049 Z"
     style="fill:#ffffff;stroke:none"
     id="path10" />
  <path
     d="M 41.9788712187655 12.191275401824068 Q 43.3348351084576 12.191275401824068 44.95747733249405 13.082544439962865 L 44.55768993177433 13.725952883726391 Q 43.67066074283211 13.213724829756579 42.87108504779734 13.020077658600409 Q 42.42703191320891 12.916576533005712 41.99903936743999 12.916576533005712 Q 41.62627190650021 12.916576533005712 41.2656874263892 12.995090871589149 Q 40.67225225878309 13.12002450878034 39.8227032875909 13.857133273520105 L 39.29798180288232 13.288684967391529 Q 40.4742471721477 12.191275401824068 41.9788712187655 12.191275401824068 ZM 40.8034326485768 13.601019172068922 Q 40.753459223486836 13.688472814908916 40.70973247653312 13.782173135885156 Q 40.597292121148136 14.050780444676276 40.597292121148136 14.356867971217424 Q 40.597292121148136 14.644215463349836 40.70973247653312 14.900329415868464 Q 40.8034326485768 15.118963597434727 40.94710639464301 15.300117412318407 Q 39.92889696483963 15.106470241162235 39.10433463172615 15.025263276458487 Q 39.61656276016224 14.706682244712292 39.910156930430894 14.331881258672441 Q 40.2099977788358 13.95708027263259 40.8034326485768 13.601019172068922 ZM 43.233392677564694 13.557292425115202 Q 43.5332335259696 13.576032459523939 44.27034243964192 14.019547053995048 Q 45.00745135331424 14.463061648466155 45.78204003793893 14.756655669802258 Q 45.22608493915028 14.794136036484842 44.54519627763673 15.000276563913504 Q 43.86430761612318 15.206417091342166 43.10845911483978 15.300117412318407 Q 43.233392677564694 15.168937022524693 43.34583288401712 14.906576242937264 Q 43.464520215403454 14.644215463349836 43.464520215403454 14.356867971217424 Q 43.464520215403454 14.050780444676276 43.35207971108592 13.782173135885156 Q 43.295859458927154 13.663486102363933 43.233392677564694 13.557292425115202 ZM 42.0353601452527 13.306944694311783 Q 42.230079332936654 13.306944694311783 42.408830567850046 13.376138610231521 Q 42.60247773900622 13.457345574935271 42.746151485072424 13.58852581579643 Q 42.88982523113863 13.725952883726391 42.97727872504607 13.90710669861007 Q 43.06473221895351 14.100754018698796 43.07097904602231 14.31314137319626 Q 43.077225575226 14.525528429828613 42.996018908387356 14.719175600984784 Q 42.91481194368361 14.912822772140956 42.7836315538899 15.056496518207162 Q 42.652451164096185 15.193923735069674 42.45255716587121 15.281377228977115 Q 42.27140335098753 15.362584193680863 42.059016294355175 15.368830722884555 Q 42.04384542861666 15.36927692481804 42.02877017757818 15.36927692481804 Q 41.83279667991966 15.36927692481804 41.652981768701544 15.293870585249607 Q 41.45933459754537 15.218910447614657 41.32190738068286 15.081483230752143 Q 41.17823363461665 14.95030313882354 41.097026967778014 14.762902496871058 Q 41.00957317600546 14.575501854918578 40.997079819732974 14.369361327489916 Q 40.997079819732974 14.150727443788762 41.07204025523303 13.963326950768836 Q 41.14700039286798 13.775926457748911 41.284427311865386 13.62600603354646 Q 41.4218545287279 13.482332287480254 41.60300834361158 13.39487864464026 Q 41.79040868769895 13.313671828869065 42.00279604219641 13.30742515073282 Q 42.019133645567415 13.306944694311783 42.0353601452527 13.306944694311783 ZM 41.91724560847124 11.80869381138362 Q 40.10412445551194 11.80869381138362 38.71704021494753 13.238711542301562 L 38.72953357122002 13.251204898574054 L 38.71704021494753 13.251204898574054 L 39.51661576104975 14.13823408751627 Q 39.46664233595978 14.188207512606237 39.42291551453979 14.23193440849251 Q 38.87320731728622 14.844109461574806 38.26727895397553 14.912822772140956 L 38.25478558606768 15.300117412318407 Q 39.629056116434725 15.42505097504332 40.9595997509155 15.662425042085767 Q 41.452784543795474 15.750000064957733 41.992732669484255 15.750000064957733 Q 42.91632807708911 15.750000064957733 43.9767481204407 15.493764583474578 Q 45.663352706552594 15.081483230752143 46.1193609551613 15.000276563913504 L 46.8627161001722 15.000276563913504 L 46.8627161001722 14.513035073556122 L 46.08812741554752 14.513035073556122 Q 45.63836599400761 14.356867971217424 44.90750390740409 13.944586916360098 L 45.48844571873771 12.945117446499182 Q 43.53356177331987 11.80869381138362 41.91724560847124 11.80869381138362 Z"
     style="fill:#ffffff;stroke:none"
     id="path12" />
  <path
     d="M 53.61053707248141 4.553593152303819 C 53.40794094038968 4.651139438125763 53.1603234456109 4.921267614248069 53.53550146800299 4.96628897693512 C 53.71558691875119 4.958785416487278 54.12828274338249 4.771196405291232 54.05324713890408 4.59861451499087 L 54.05324713890408 4.59861451499087 C 54.01436501131244 4.635450154553867 53.97492483389136 4.648844953394093 53.93507865632764 4.648844953394093 C 53.828822488145036 4.648844953394093 53.71967966581798 4.553593152303819 53.61053707248141 4.553593152303819 ZM 52.13233577875181 4.621125196334395 C 51.88471828397303 4.681153679917131 51.75715775635972 4.9512818560394365 52.072307295169075 5.01131033962217 C 52.07744790272809 5.011777709216716 52.08295237617917 5.012004867784961 52.08878029870047 5.012004867784961 C 52.27010195462072 5.012004867784961 52.764556773571414 4.792071407549097 52.35744259218707 4.7411821634998645 C 52.28991054815649 4.696160800812814 52.22237850412591 4.621125196334395 52.13233577875181 4.621125196334395 ZM 54.105772062038966 2.737731409430849 C 54.548482128461636 3.2554770803319357 54.9386675007399 3.8557619161592824 55.013703105218326 4.546089591855977 C 55.08873870969674 5.041324581413538 55.11124939104027 5.536559570971099 55.18628499551868 6.024291000080819 C 54.83361765447012 5.994276758289452 54.9386675007399 5.446516845596998 55.00619954477048 5.183892229922533 C 55.066228028353216 4.666146559021446 54.788596291783065 4.1859186903595695 54.59350349114869 3.728201388545971 C 54.45843940308754 3.4805838937671902 54.33087887547423 3.090398750479415 53.9857150948735 3.0828951900315733 C 53.60303351203356 3.1504272340621498 53.35541601725478 3.4730803333193485 53.107798522476 3.750712069889497 C 52.85267746724938 3.495591014662874 52.58254940562232 3.217959278092726 52.22988206457376 3.1129094318229407 C 52.21148977723214 3.1061333169211403 52.19072469041052 3.103478286659528 52.168923994088004 3.103478286659528 C 52.089963149087836 3.103478286659528 51.997417328643685 3.138308198501497 51.9548223492118 3.138308198501497 C 51.91801842483198 3.138308198501497 51.91850640357082 3.1123050686664477 51.99727169069066 3.015363146000997 C 52.044918085884845 2.847199398256807 52.14386132820435 2.797332539507548 52.2663384958817 2.797332539507548 C 52.444843454252855 2.797332539507548 52.67333852550569 2.9032586751432934 52.86587212839944 2.9032586751432934 C 52.894905374922295 2.9032586751432934 52.923120667407076 2.900849981403647 52.95022375307133 2.8953061788355274 C 53.01354214305525 2.8989591496620717 53.07705792284344 2.900833723078702 53.14061125707234 2.900833723078702 C 53.46869051503229 2.900833723078702 53.79776290475685 2.850877615285114 54.105772062038966 2.737731409430849 ZM 53.9857150948735 3.3080020034668283 C 54.27835395233933 3.383037607945247 54.34588599636991 3.7882298721287055 54.4884536448789 4.028343806459644 C 54.668539095627104 4.448543306034033 54.886142577605014 4.906260493352385 54.74357492909601 5.378984801566421 C 54.631021293387896 5.604091615001676 54.773589170887384 5.889226912019666 54.7585820499917 6.054305241872186 C 54.50832498180953 6.230161009239284 54.28855204390869 6.601114615031589 53.95637637503407 6.601114615031589 C 53.920040850706 6.601114615031589 53.88236000723636 6.596675863331121 53.843147446364505 6.587057804678464 C 53.512990786659465 6.519525760647888 53.347912456806945 6.204376221838531 53.09279140158032 6.054305241872186 C 52.90807507610871 6.232424351264017 52.79875867898858 6.601943560613291 52.49458121961215 6.601943560613291 C 52.452781753150106 6.601943560613291 52.407302752964426 6.594965762335501 52.35744259218707 6.579554244230622 C 52.07981085561692 6.519525760647888 51.71213639367267 6.549540002439255 51.62959722874641 6.211879782286372 C 51.48702952298979 5.86671623067614 51.472022402094105 5.484034647836206 51.44951172075058 5.108856625444115 L 51.44951172075058 5.108856625444115 C 51.46603498769501 5.112034097513641 51.48126651927303 5.113543144857125 51.49531560119704 5.113543144857125 C 51.647146373095815 5.113543144857125 51.66088248226464 4.93730061254873 51.67461859143346 4.786203526186916 C 51.732889744731565 4.566566150657444 51.89023386346299 4.464745070327433 52.06507405799726 4.464745070327433 C 52.18291748857004 4.464745070327433 52.30870917912649 4.51100069176735 52.417471075769804 4.59861451499087 C 52.545031603383116 4.7411821634998645 52.935216632175646 4.853735570217492 52.85267746724938 5.078842383652747 C 52.81515966501017 5.2139064717139005 52.77013841681837 5.356474120222895 52.72511705413132 5.499041768731891 L 53.04026647844543 5.919241153811033 C 53.070280720236795 5.70163790082362 53.392933819494 5.521552450075415 53.20534480829795 5.303949197088002 C 53.17533056650658 5.206402911266059 53.06277715978895 5.078842383652747 53.07778428068464 5.0038067791743295 C 53.21284836874579 4.763692844843391 53.392933819494 4.553593152303819 53.60303351203356 4.373507701555615 C 53.659862311469034 4.31835030372259 53.71743601697557 4.296701313601148 53.775090556125846 4.296701313601148 C 53.97626419928014 4.296701313601148 54.178425936408196 4.560278987704077 54.353389556817746 4.5836073940951865 C 54.52597144711811 4.396018382899141 54.338382435922064 4.320982778420722 54.16580054562171 4.223436492598778 C 54.05891213469018 4.122656059560493 53.92965066570094 4.076565769255932 53.800780541462835 4.076565769255932 C 53.61301681052125 4.076565769255932 53.426084544056785 4.174408254279515 53.31039465456774 4.343493459764248 C 53.16780868681936 4.429044994615171 53.06857451207954 4.714014273526328 52.943493722506076 4.714014273526328 C 52.90401576165378 4.714014273526328 52.861962802716896 4.685626551200935 52.81515966501017 4.613621635886554 C 52.58615715082666 4.430419624539743 52.3115122517413 4.224396420742008 52.0111245850105 4.224396420742008 C 51.967021932178085 4.224396420742008 51.922364320887866 4.228837233356907 51.87721472352519 4.2384436134944625 C 51.664912428688936 4.28236834071445 51.474037346682444 4.711984043822637 51.457895234412256 4.711984043822637 C 51.45749221114602 4.711984043822637 51.45719807285881 4.711716353937275 51.45701528119842 4.711167921708498 C 51.44951172075058 4.358500580659931 51.614590107850724 4.043350927355329 51.71213639367267 3.698187146754604 C 51.76657779548426 3.471348134741233 51.960912923827635 3.3405145315279086 52.15914701603377 3.3405145315279086 C 52.28878002209658 3.3405145315279086 52.42008042242822 3.396463778482901 52.515017361591745 3.5181016960063998 C 52.738393693877576 3.6010701036102564 52.902057663955134 3.993456532499384 53.11220361257412 3.993456532499384 C 53.14912718448612 3.993456532499384 53.187485839812624 3.9813427064724283 53.22785548964147 3.9533082019812262 C 53.46046586352457 3.7056907072024456 53.648054874720614 3.413051849736614 53.9857150948735 3.3080020034668283 ZM 52.92020951127996 8.5154732977548 C 53.873161688155875 9.49843971642208 54.75107848954386 11.98962178510557 54.97618530297911 13.010106006012059 C 54.60851061204437 12.709963588098386 54.105772062038966 12.514871016454498 53.99321865532134 12.327282005258452 C 53.873161688155875 12.132189433614565 53.54300502845083 10.233788640310578 52.92020951127996 8.5154732977548 ZM 56.31181906269496 6.729625453187459 C 58.112673570177 7.765117252970617 61.249161379393904 12.860034797055222 61.91697825925183 13.677922885869982 C 60.79144419207555 12.965084643325008 59.68091724579496 12.244742840332192 58.47284401369242 11.659465125400528 C 56.777039810461154 10.826569915690085 55.32885264402768 9.475929035078554 53.94819729263429 8.215330879841126 C 55.08873870969674 7.832649297001193 55.9066267985115 7.187342640505811 56.31181906269496 6.729625453187459 ZM 54.44343228219185 13.197695017208105 C 54.68354621652279 13.3402626657171 54.901149698500696 13.535355237360987 55.16377431417516 13.640405083630773 C 55.00619954477048 14.030590226918548 54.90865325894854 14.465796732893377 54.585999930700844 14.773442711254893 C 54.52540263473553 14.870924879739023 54.43890307924697 14.901801041742965 54.34014337280695 14.901801041742965 C 54.16945569185792 14.901801041742965 53.9621462484656 14.809571915149503 53.78864519032962 14.809571915149503 C 53.77662822728085 14.809571915149503 53.764773847481536 14.8100143247804 53.7531047209904 14.810960513494098 C 53.96320441352997 14.28571128214517 54.27835395233933 14.053100908262074 54.44343228219185 13.197695017208105 ZM 54.953674621635585 6.174361980047164 C 54.99908252027345 6.268421198654149 55.05710825301155 6.299391704740871 55.11866135529124 6.299391704740871 C 55.19950965442322 6.299391704740871 55.28644452083742 6.2459608952189045 55.35886688581905 6.211879782286372 C 55.53895233656725 6.339440309899683 56.16174785373812 6.324433189004 55.79407339179387 6.594561365126306 C 55.561463017910775 6.909710903935663 54.31828302446122 7.769121838697908 53.45480109672896 7.92070438490315 C 53.08197961549192 7.986152157473879 53.70808335830335 8.575501781337536 53.91067949039508 8.785601473877106 C 55.0812351492489 9.836099936574964 56.2292798977687 10.946626882855554 57.632445701515124 11.70448648808758 C 58.51036181593163 12.199721477645141 59.43329975101618 12.64243154406781 60.281202081622304 13.190191456760264 C 60.686394345805766 13.775469171691926 61.166622214467644 14.315725523936537 61.47426819282916 14.961031722450938 C 61.166622214467644 15.051074447825037 60.866479796553975 15.17863497543835 60.55133025774461 15.253670579916767 C 60.38506300925668 15.295737965254663 60.20489054212145 15.315344131195342 60.02437733713384 15.315344131195342 C 59.52873291257626 15.315344131195342 59.03051738277245 15.167531684453397 58.81050423384531 14.931017480659568 C 58.405311969661845 14.503314535132583 57.96260236122016 12.67994934630702 57.729991987337065 12.012132466449096 C 57.69683233214508 11.936970459218992 57.649995532836 11.911957369776895 57.59907583305131 11.911957369776895 C 57.49773380083094 11.911957369776895 57.3802186281287 12.011034228048587 57.32216083672169 12.011034228048587 C 57.31037423810807 12.011034228048587 57.301037837760795 12.006950869591986 57.29478548136224 11.997125345553412 C 57.279705541490046 11.812395967623743 57.13771815488824 11.714797471969582 57.00491145509902 11.714797471969582 C 56.873387560047014 11.714797471969582 56.7508684871096 11.810519161549815 56.76953625001331 12.012132466449096 C 56.724514887326265 12.48485677466313 56.63447216195216 12.957581082877166 56.40936534851691 13.38528402840415 C 56.381782985752515 13.458180861685584 56.32419645677842 13.486071903633434 56.248287482562816 13.486071903633434 C 56.03509321251189 13.486071903633434 55.67737113533888 13.26606608240204 55.43390249029746 13.205198577655947 C 55.53144877611941 12.627424423172126 54.74357492909601 9.67102160672244 52.432478196665485 7.194846200953653 C 52.351738897007785 7.107378702654637 51.99951053073273 6.7363559417336925 52.03037123587845 6.7363559417336925 C 52.03392722923155 6.7363559417336925 52.04256967389227 6.7412819852015256 52.057300174273394 6.752136134530985 C 52.17557170257132 6.78298939748571 52.3088202395152 6.804151782811264 52.4407442954523 6.804151782811264 C 52.693827907774725 6.804151782811264 52.942037342975794 6.7262689105530455 53.070280720236795 6.489511518856521 C 53.089808113448164 6.430929339222412 53.114275976528376 6.407990903639488 53.14276628659427 6.407990903639488 C 53.24564782189358 6.407990903639488 53.40097985841782 6.7071147718439335 53.565515709794354 6.7071147718439335 C 53.684856394700276 6.786675228447882 53.81818519281167 6.823196006084127 53.950833202189806 6.823196006084127 C 54.16847629952286 6.823196006084127 54.38428724392796 6.724879854227465 54.533475007565954 6.557043562887097 C 54.67604265607495 6.429483035273786 54.81110697312659 6.301922507660475 54.953674621635585 6.174361980047164 ZM 54.173304106069544 2.25 C 53.9375169470884 2.354794316137357 53.52450282567296 2.4595886376416782 53.15383064919555 2.4595886376416782 C 53.099844537730036 2.4595886376416782 53.04675652697487 2.4573657267507203 52.99524511575838 2.4525961410366706 C 52.960072176159116 2.458927270164537 52.92437164246587 2.461697139157979 52.88827953503099 2.461697139157979 C 52.63563489748208 2.461697139157979 52.363803032097934 2.3259735584793395 52.11943903423209 2.3259735584793395 C 52.02634798742605 2.3259735584793395 51.937243207107926 2.3456704046549244 51.854704042181666 2.400071217901778 C 51.44200816030274 3.000356025105313 51.06683016653446 3.668172904963236 51.02180880384741 4.411025503794824 C 50.93926963892115 5.836701988884773 50.97678744116036 6.331936749451842 52.102321536960446 7.502492179315168 C 52.545031603383116 8.507969737306958 53.37042313815047 11.78702565301384 53.61804063292925 12.67994934630702 C 53.88816880905156 12.935070401533642 53.28038041277637 14.330732644832224 53.02525935754974 14.675896425432946 C 52.88644348926467 14.867237216852915 52.52064503192763 14.876616667412716 52.12764605347191 14.876616667412716 C 52.08492867862196 14.876616667412716 52.04189014460672 14.876505836014498 51.99878669178694 14.876505836014498 C 51.64533837866478 14.876505836014498 51.28753269133832 14.883957186630123 51.06683016653446 15.02106020603367 C 50.85673047488938 15.156124294094823 50.78169486951647 15.658862844100229 50.90175183668194 15.726394888130805 C 51.01430524339957 15.553812997830441 51.23941205683482 15.321202623947343 51.39698679761569 15.298691942603819 L 51.39698679761569 15.298691942603819 C 51.24691561728267 15.4562667120085 51.772164877255406 15.381231107530079 51.88471828397303 15.41874890976929 C 52.188236937703444 15.423807767722588 52.49516583233869 15.449328300095363 52.80320590333725 15.449328300095363 C 52.95208636173474 15.449328300095363 53.101226266359866 15.443367219602862 53.250366170985 15.426252470217129 C 53.317910351511664 15.39670170518194 53.39020448181767 15.350526230414289 53.42181822219693 15.350526230414289 C 53.44639668768487 15.350526230414289 53.44638615412223 15.378436507563482 53.400437379941835 15.463770272456339 C 53.61284575462359 15.519181391754703 53.85153903194103 15.546886493422901 54.08482217989016 15.546886493422901 C 54.60970960626144 15.546886493422901 55.107209082796196 15.406627985037074 55.216299237310054 15.126110052303456 C 55.44140605074531 14.713414227672155 55.65150574328488 14.278207721697331 55.80157695224172 13.827994094826819 C 55.993105057884286 13.86862158794987 56.234014963166054 14.00352171881862 56.42708005299215 14.00352171881862 C 56.48361963743599 14.00352171881862 56.536056170240904 13.991952203191582 56.581947238817264 13.963058182887972 C 56.792046931356836 13.820490534378978 57.00965018434425 13.152673654521054 57.12970715150972 12.709963588098386 C 57.14120751200812 12.663963062066763 57.203625282386284 12.641463372266863 57.26693657366495 12.641463372266863 C 57.32755264685063 12.641463372266863 57.38898804801733 12.662088087916771 57.40733888807987 12.702460027650543 C 57.632445701515124 13.152673654521054 58.007623723907216 14.533328776923954 58.36779416742264 15.111102931407773 C 58.63947581504391 15.539346294496308 59.2982979483689 15.750000144026963 59.9991636520206 15.750000144026963 C 60.440371540814546 15.750000144026963 60.89824077781971 15.666519370196848 61.28667918163311 15.501288074695548 C 61.774410610742834 15.291188382155976 62.13458151223924 15.33620974484303 62.02953166596946 15.06608156872072 C 61.86445333611694 14.615867941850212 61.57931803909894 14.188164996323227 61.279175621185274 13.805483413483294 L 61.279175621185274 13.805483413483294 C 61.71438212716009 14.0756115896056 62.149588633134925 14.353243326175747 62.58479513910975 14.623371502298053 C 62.62069260462627 14.7541415606498 62.710914858546246 14.806051873303671 62.803064296448426 14.806051873303671 C 62.98057864195041 14.806051873303671 63.165242986580296 14.613414079735982 62.98248384284537 14.420775370206323 C 61.279175621185274 11.959607543314203 58.57039029951437 7.765117252970617 56.694500645534895 6.40697235393026 C 56.39435822762122 6.144347738255796 56.04169088657265 5.941751835154559 55.65150574328488 5.8442055493326155 C 55.52394521567157 5.514048889627574 55.561463017910775 5.071338823204906 55.48642741343236 4.696160800812814 C 55.41139180895394 3.9533082019812262 54.96117818208343 2.722724288535165 54.173304106069544 2.25 Z"
     style="fill:#ffffff;stroke:none"
     id="path14" />
  <path
     d="M 65.79177905592914 2.25 C 65.54023444324233 2.25 65.28917916018752 2.269182611264559 65.0458512817122 2.2995564581199823 C 64.7104164862453 2.3843157348110164 64.88279176826123 2.7686632530247515 65.1806058562341 2.7686632530247515 C 65.20057139490984 2.7686632530247515 65.22110068580618 2.766935830454775 65.242078514037 2.7632749330552384 C 65.8714007273603 2.83570345889602 66.6461622056582 2.8757716375135147 67.12157121034701 3.232464202245255 C 67.75223632211855 3.919865572373549 67.4688872406704 5.348381581489431 67.54231284236315 6.02652341147594 C 67.54757696157516 6.0630380783058655 67.54977591997233 8.766162581920678 67.54977591997233 10.135981633328903 C 66.94033009836275 9.84398244955337 66.25213672598281 9.697009892419143 65.57379373703304 9.697009892419143 C 65.27230734138331 9.697009892419143 64.97276674277296 9.726041552578508 64.68295013597306 9.784275693423318 C 64.35233551540954 9.957946075279352 64.7404777404349 10.180804227619914 64.99997689561947 10.180804227619914 C 65.03088219893975 10.180804227619914 65.05996283654683 10.177643336135256 65.08578738581356 10.17086176124991 C 66.00538603121618 10.270249413835984 67.05098283082961 10.516636670139583 67.51805703941208 11.372084512178846 C 67.56419352824952 11.526902713725455 67.53532307996164 11.580101207811888 67.46494662465942 11.580101207811888 C 67.31030582734665 11.580101207811888 66.95526265935085 11.32324265325963 66.75524285547098 11.32324265325963 C 66.74474629001952 11.32324265325963 66.73467677588323 11.323950134938475 66.72508538128193 11.325439120524132 C 66.34102834693155 11.242486537803458 65.93855694883885 11.198984955580794 65.5398280327407 11.198984955580794 C 65.24786559317208 11.198984955580794 64.95790976097075 11.222309074912536 64.6786592933991 11.270546656220748 C 64.36316701587297 11.47882100614729 64.75039723055446 11.670692315057073 65.00704303792807 11.670692315057073 C 65.03523505292344 11.670692315057073 65.06185133753476 11.668376985176506 65.08578738581356 11.663514294200782 C 66.02441659441872 11.776710651063793 67.0631046824115 12.031173447737789 67.51805703941208 12.888059740957079 C 67.5232496275288 13.840655351434203 67.51776700039385 14.470207282777462 67.54324559361076 15.346271738810112 C 67.5322764247038 15.615968879401612 67.70761657720226 15.750000358180948 67.88525462165258 15.750000358180948 C 68.06153855755763 15.750000358180948 68.24008586543323 15.618004490670723 68.24106061006016 15.355607080560343 C 68.23456836244087 14.49241822168092 68.17295233105578 13.734749472273819 68.28613623225543 12.897478357713775 C 68.51444177999744 11.958167601900273 70.14419344367516 11.814017142207314 71.15639758847983 11.581988774625064 C 71.37725785241747 11.322336592719218 70.94263349389642 11.225919082030344 70.6624892546308 11.225919082030344 C 70.62065032552863 11.225919082030344 70.58225698878793 11.22806999715456 70.55000749696855 11.232148337214703 C 70.420264325146 11.222199465074969 70.28968662387832 11.217067020018478 70.15891034374908 11.217067020018478 C 69.49728045286471 11.217067020018478 68.83056331318804 11.348428716325635 68.24106061006016 11.651956862107136 C 68.21704858223485 11.085787886965592 68.77460072946398 10.760019620440762 69.17396844315446 10.53246746239398 C 69.80427518769733 10.261378846267126 70.4981976314087 10.234760737790822 71.15639758847983 10.08933624167419 C 71.39137403364134 9.885323863873325 71.0215475946797 9.71366347020749 70.76546556176892 9.71366347020749 C 70.7316986142762 9.71366347020749 70.69990891437284 9.716647847148533 70.67174488013552 9.722936889517019 C 70.51040275799707 9.70741215070518 70.348127884611 9.699490348808254 70.18587009327754 9.699490348808254 C 69.50907205142953 9.699490348808254 68.83256511622803 9.837307637496822 68.22520134771808 10.135981633328903 C 68.23764526716687 7.997630358807127 68.27228624635136 5.9281745612140835 68.21091754885299 3.9053616641430824 C 68.161639029964 3.2799076460452463 67.80127391289057 2.705846762598841 67.19507528271892 2.5188064716922396 C 66.75967635987494 2.320738559229909 66.27482542854514 2.25 65.79177905592914 2.25 Z"
     style="fill:#ffffff;stroke:none"
     id="path16" />
  <path
     d="M 79.91227699145584 4.1514745885121425 C 79.82911667606159 4.1514745885121425 79.75599824751346 4.169733427233932 79.6929224219637 4.206251104677509 C 79.57823923299182 4.27264611686684 79.52089763850589 4.336023442513748 79.52089763850589 4.396383081618236 C 79.68645485099613 4.341197463480194 79.83328826291644 4.313604654411172 79.96139859041905 4.313604654411172 C 80.05748115700794 4.313604654411172 80.14303127245964 4.329125464044071 80.21804965292637 4.360167441385993 C 80.39309158581243 4.432598721850478 80.62547654548892 4.480886182480781 80.91520166734686 4.5050298232769 L 80.80655420953596 4.41449117029145 C 80.54097272847413 4.317915890954721 80.31764279784359 4.242466386833627 80.13656441764431 4.188142836966232 C 80.05507918236225 4.163697337996839 79.98031646824867 4.1514745885121425 79.91227699145584 4.1514745885121425 ZM 80.08224068873885 4.5412461796613925 L 80.39007372023195 4.668001009993272 C 80.28142697857328 4.716288470623574 80.17277952076236 4.746468021618725 80.0641327791037 4.7585396629787216 C 80.1486365961185 4.698180560988422 80.15467232727947 4.625749459562 80.08224068873885 4.5412461796613925 ZM 79.81062276036381 4.5412461796613925 C 79.76233547877158 4.625749459562 79.76837120993255 4.704216650225515 79.82873138615122 4.776647751651937 C 79.74422756913643 4.752504110855817 79.67179664674806 4.728360291021634 79.6114364705294 4.704216650225515 C 79.63558011132551 4.6438570111210264 79.70197601870515 4.589533640291695 79.81062276036381 4.5412461796613925 ZM 79.88501522376427 4.4189075021776505 C 79.73119001742957 4.4189075021776505 79.62188942876688 4.477794732256633 79.55711345777618 4.595569192414599 L 79.39414298721206 4.704216650225515 L 79.39414298721206 4.794756019363214 L 79.53900554814103 4.8128633918841786 C 79.62753270849497 4.8669633232115865 79.7350951956475 4.894013288875291 79.86169229344637 4.894013288875291 C 80.04583437297012 4.894013288875291 80.27024927425904 4.8367835931783745 80.53493699731317 4.722324022746479 L 80.91520166734686 4.776647751651937 L 80.93330957698203 4.631784653608779 L 80.51682908767802 4.613677281087815 C 80.25713581041371 4.483830642455663 80.04653118910913 4.4189075021776505 79.88501522376427 4.4189075021776505 ZM 81.02731028898087 3.040200911260286 C 81.30900949257575 3.040200911260286 81.60059947489206 3.0938892340821447 81.9020788036253 3.2012657006877996 C 82.34270293372543 3.35820017153386 82.66864459100591 3.669051247645498 82.87990234316229 4.133819108060775 C 83.0911608114709 4.598587416071208 83.06098072336155 5.093535275076792 82.78936351113877 5.618662685077525 C 82.59078595071664 6.002579373508871 82.39543394002742 6.1945375386864825 82.20330891137561 6.1945375386864825 C 82.13264187197841 6.1945375386864825 82.06241168545355 6.168568067729602 81.99261835180106 6.116628409663592 C 81.73307188574796 5.923477850990133 81.60329936887366 5.688076099961526 81.60329936887366 5.410422440425522 C 81.84473720913935 5.1931284199940055 81.99563621738154 4.981870130723456 82.05599567744797 4.776647751651937 C 82.11635513751439 4.571425372580418 82.11333727193391 4.38431090314405 82.04694136455427 4.2153043433428365 C 81.98054617332687 4.046297783541622 81.8537908058808 3.9467048176624706 81.66667669452056 3.9165256247434455 C 81.63441546797343 3.9113222415347604 81.60206472239507 3.9087204604113865 81.5696244577855 3.9087204604113865 C 81.41391004181594 3.9087204604113865 81.25612881045356 3.9686636569826392 81.09628004754614 4.088550229163206 C 80.79448274721402 3.919543669361992 80.39610945139292 3.7746807503568975 79.90116230853958 3.653961651185986 C 79.99773687172406 3.3400921723796766 80.24521044315073 3.146941971782342 80.64358373897183 3.0745107808368886 C 80.76938590777347 3.051637594131841 80.8972949964939 3.040200911260286 81.02731028898087 3.040200911260286 ZM 79.6476522897997 3.9436871311200496 C 80.11845650800916 4.028190411020657 80.60133290469281 4.197196970821871 81.09628004754614 4.450706810523693 L 81.24114260847512 4.41449117029145 C 81.34293792156033 4.320526086867029 81.43203585525733 4.273543455635787 81.5084349772616 4.273543455635787 C 81.54981783501393 4.273543455635787 81.58747526876299 4.287328312215271 81.62140727850881 4.314897846336175 C 81.71798184169329 4.39336503699969 81.74212619864166 4.511066091552054 81.69383891704942 4.668001009993272 C 81.64555091930494 4.824935570358364 81.4584368079447 5.03619368059085 81.13249586681644 5.301775698766857 C 81.24114260847512 5.941585760625285 81.54293990880723 6.376173801488319 82.03788776781282 6.605539821355958 C 81.88688706595117 6.949486620423763 81.65427150525025 7.121460198995729 81.34004180186231 7.121460198995729 C 81.20208724553451 7.121460198995729 81.04840168888852 7.088313450191765 80.87898584807657 7.022020310659964 C 80.8427707449585 6.575360091322746 80.6858352894031 6.225275151322256 80.4081816298671 5.971765132582373 C 80.81862638801013 5.754471291188918 81.04195631864069 5.362134800757158 81.078172137911 4.794756019363214 L 80.98763258973523 4.794756019363214 C 80.9272731296688 5.301775340690732 80.74317688388905 5.633752371056069 80.43534385239596 5.790687110459222 C 80.12751082090286 5.947621849862378 79.87701866774346 6.0381606818858895 79.68386810907 6.0623046807581344 C 79.62954438016455 6.071358635575711 79.58276603136255 6.075885792022561 79.54353234651175 6.075885792022561 C 79.4258312919594 6.075885792022561 79.37603507757692 6.035142816305406 79.39414298721206 5.95365793909947 C 79.41828662800819 5.84501083936468 79.40017871837303 5.754471291188918 79.3398192583066 5.682039652648308 L 79.3398192583066 5.682039652648308 C 79.40296526677685 5.685754334367807 79.45918250223066 5.687611675227558 79.50847096466806 5.687611675227558 C 79.77955106270353 5.687611675227558 79.84103488180207 5.63143060546235 79.6929224219637 5.519069182084186 C 79.57258091406648 5.427775525589428 79.47648832134608 5.382129055418174 79.40464679225927 5.382129055418174 C 79.37199096582252 5.382129055418174 79.34434605667732 5.391560064395248 79.32171134867146 5.410422440425522 C 79.36999934641594 5.229343702150123 79.27342406707922 5.138804512050486 79.03198622681352 5.138804512050486 C 79.30963917019727 4.692144292713267 79.51486190734491 4.293771892082476 79.6476522897997 3.9436871311200496 ZM 82.65355454695126 6.949589030195479 L 82.65355454695126 6.949589030195479 C 83.00363912887562 7.577327271655847 83.22696905950616 8.253353510860705 83.3235443388429 8.977667389733927 L 82.96138757844435 9.050099028274538 C 82.93724393764822 8.34992914827356 82.83463221099828 7.649758910196456 82.65355454695126 6.949589030195479 ZM 76.44256445896596 8.724157370994043 C 76.26042080229517 8.982993414015382 76.08208385290797 9.112410719373804 75.90755325272825 9.112410719373804 C 75.8623042470556 9.112410719373804 75.81731126581226 9.103712334148234 75.77257395092208 9.08631413139259 C 75.49492047042413 8.977666673581677 75.71825058009274 8.856947753448829 76.44256445896596 8.724157370994043 ZM 74.88528960148473 5.482853720890007 L 73.87125095882969 10.480618160233579 L 73.18315254115065 10.281431870399153 C 73.19522467486532 10.281431870399153 73.76260368005684 8.68190582056277 74.88528960148473 5.482853720890007 ZM 82.10499409822422 6.985804491389659 C 82.37057557928604 7.553183988935852 82.50336596174083 8.736229549468227 82.50336596174083 10.534941889139036 C 82.50336596174083 12.333654228809845 82.32832331270252 13.83056926814853 81.9782394469304 15.02568700715509 L 82.58112290841063 15.237656614647713 L 76.22526990142026 15.237656614647713 L 76.22526990142026 15.20143936307291 L 78.09570345659992 14.697083411962243 C 77.6490432372627 12.946658353883674 77.2295448823782 11.612714501261362 76.83720803387033 10.695250421790805 C 76.44487154343857 9.777786342320248 76.14112237014972 9.426990621211875 76.37652447925446 9.34248680419708 C 76.41397494500335 9.329043194164605 76.44975391140129 9.32232138914837 76.4844658109471 9.32232138914837 C 76.66794401733532 9.32232138914837 76.8216191897737 9.51012157436388 77.03479766226391 9.885722660947152 L 79.55178814964698 13.253780246192756 L 80.17810482889158 13.178686669739792 C 80.40747120683534 10.402150790532001 80.66701695673619 8.476683799567375 80.95674207859413 7.402284980693665 C 81.15954995035558 7.48418809081346 81.31588455417344 7.52513982491142 81.44600440488888 7.52513982491142 C 81.71863640484958 7.52513982491142 81.87618488673077 7.345361261045459 82.10499409822422 6.985804491389659 ZM 79.42001613569136 2.25 C 79.39673116144269 2.25 79.37301649584418 2.253219149958144 79.34887285504806 2.2596574496012423 C 79.25833402302455 2.2838011736220865 79.17684878774249 2.316998981843482 79.10441714920188 2.3592508791610003 C 79.03198622681352 2.401502272933968 79.00784186986515 2.4497897111845126 79.03198622681352 2.504113216292392 C 79.05173985431861 2.548560041926269 79.10179818042451 2.570783477122965 79.1821612051312 2.570783477122965 C 79.20001917763118 2.570783477122965 79.21937462448541 2.5696859961799676 79.2402261133894 2.56749105667373 C 79.25660952840713 2.5657664501575215 79.27052937968568 2.5649041357095386 79.28198566722509 2.5649041357095386 C 79.35072124400469 2.5649041357095386 79.33076494541291 2.5959462249502496 79.22211820375423 2.658030381051914 C 79.09536355246043 2.7304615719973677 79.05009342029642 2.9115399969561575 79.08630923956672 3.2012657006877996 C 79.12252505883703 3.49099091206477 79.23117180049569 3.678105112944043 79.41225089684721 3.7626083928446503 C 79.31567561751048 4.1609811515515664 79.14968656521363 4.529174001187208 78.91428517226115 4.8671871207896364 C 78.6870002908313 5.193544325413052 78.73824492313892 5.3567231962818544 79.06801799495562 5.3567231962818544 C 79.07979583485516 5.3567231962818544 79.09192888627058 5.3565151540533 79.10441714920188 5.3560987115200644 L 79.10441714920188 5.3560987115200644 C 79.01991404833933 5.476817989729039 79.03198551066126 5.549249270193524 79.14063296847218 5.573392910989644 C 79.04405768913544 5.633752729132194 79.03198622681352 5.688076099961526 79.10441714920188 5.736363381553765 C 79.17684878774249 5.78465102122213 79.2009924285386 5.899333852117888 79.17684878774249 6.080412590393287 C 79.03198622681352 6.937517209797419 78.83883566814005 7.532057855644091 78.59739746979822 7.864034886009427 C 78.39920197660135 8.13655373391466 78.21524287397742 8.272813157867276 78.04551944577419 8.272813157867276 C 78.00848900331978 8.272813157867276 77.97213639896978 8.26632625078896 77.93646127464804 8.25335386893683 C 77.8479341142941 8.22116210915792 77.77490627900556 8.205066229268464 77.71737848493468 8.205066229268464 C 77.64546892138415 8.205066229268464 77.59777747846371 8.23021570589937 77.57430451424949 8.280515375313433 C 77.53205332189435 8.371054923489195 77.59543064754125 8.461593755512707 77.76443649119022 8.55213330368847 C 77.82339229284712 8.583716334055085 77.89409979484643 8.599508207314518 77.97655935526429 8.599508207314518 C 78.13048446483783 8.599508207314518 78.32535844390034 8.544482649204296 78.56118165052793 8.434432249136105 C 78.9233387690026 8.265425331258765 79.32171134867146 7.535075721224574 79.75629974761061 6.2433830609574095 L 80.0641327791037 6.152843870857772 C 80.31764279784359 6.345994071455106 80.47457682109449 6.64779137178723 80.53493699731317 7.058235771854144 C 80.17278023691462 8.301641150529068 79.89512657737862 10.14260504063115 79.70197601870515 12.581127800236512 L 77.09444634122245 9.08631413139259 C 76.99787141996185 8.736228833315977 76.81075730860161 8.494791709202529 76.53310364906561 8.362000610595494 L 75.17501579757105 4.704216650225515 C 75.12258915597519 4.579703555473442 75.05771113328892 4.517447008097406 74.98038190855027 4.517447008097406 C 74.91526254255582 4.517447008097406 74.84131355643603 4.56159564583829 74.75853477115285 4.649892921320057 L 72.73045659065247 10.480618160233579 L 74.12476079853151 10.969530288078195 L 75.15690770889783 5.971765132582373 L 76.08040769856741 8.416324339500951 C 75.75446604128692 8.524971081159617 75.49492029138607 8.651726448605682 75.30176991175067 8.796589009534653 C 75.10861971115334 8.94145228661587 75.12974566540704 9.07726053465114 75.36514777451177 9.204015185944957 C 75.60054952554037 9.330770553391023 75.92950869032524 9.895132185356733 76.3520249107902 10.897098649537584 C 76.7745414893313 11.899065829870686 77.085748314073 12.80587929308283 77.43583361214962 14.21829051540672 L 75.75180374529845 14.797742907579348 L 75.9174372280033 15.750000527952189 L 83.3597601581132 15.750000527952189 L 82.56301499877549 14.862716536590968 C 82.8768844775818 13.848676461631433 83.03381921698495 12.11902196725262 83.03381921698495 9.523565184396354 L 83.68570109924144 9.433025636220592 C 83.68570109924144 8.43105845588749 83.37183233658737 7.366069519499485 82.74409337897477 6.388246338038628 C 83.33561651731708 5.4707819004919465 83.50462343519442 4.707234157729873 83.25111341645453 4.097603467828533 C 82.99760339771464 3.4879728674462234 82.63846521904884 3.0956361979764 82.17369673200034 2.9205935936976086 C 81.76526436167912 2.7667687006795165 81.34284768637687 2.6898562317907126 80.90644670609356 2.6898562317907126 C 80.84625339334909 2.6898562317907126 80.78579438811994 2.691319465115517 80.72506897425389 2.6942459765246407 C 80.22408538408735 2.7183897068397918 79.83476711731218 2.983971411699189 79.55711345777618 3.4909911806218634 C 79.44846671611752 3.321984531301618 79.46355604401994 3.171085970654587 79.60238287378795 3.0382951406046463 C 79.74120970355594 2.905503952478581 79.76837120993255 2.7485692578349417 79.68386810907 2.56749105667373 C 79.70801246601837 2.4709156654382114 79.68085024348952 2.3894304077763926 79.60238287378795 2.323035289283213 C 79.54484004051982 2.2743450965188012 79.48405160525579 2.25 79.42001613569136 2.25 Z"
     style="fill:#ffffff;stroke:none"
     id="path18" />
  <path
     d="M 21.39600372314453 0.375 L 21.39600372314453 17.625 "
     style="fill:none;stroke:#ffffff;stroke-width:1"
     id="path20" />
  <path
     d="M 21.39600372314453 0.375 L 24.02100372314453 0.375 "
     style="fill:none;stroke:#ffffff;stroke-width:1"
     id="path22" />
  <path
     d="M 21.39600372314453 17.625 L 24.02100372314453 17.625 "
     style="fill:none;stroke:#ffffff;stroke-width:1"
     id="path24" />
  <path
     d="M 24.02100372314453 0.375 L 83.68570327758789 0.375 "
     style="fill:none;stroke:#ffffff;stroke-width:1"
     id="path26" />
  <path
     d="M 24.02100372314453 17.625 L 83.68570327758789 17.625 "
     style="fill:none;stroke:#ffffff;stroke-width:1"
     id="path28" />
  <path
     d="M 83.68570327758789 0.375 L 101.31070327758789 0.375 "
     style="fill:none;stroke:#ffffff;stroke-width:1"
     id="path30" />
  <path
     d="M 83.68570327758789 17.625 L 101.31070327758789 17.625 "
     style="fill:none;stroke:#ffffff;stroke-width:1"
     id="path32" />
  <path
     d="M 85.44820327758788 0.375 L 85.44820327758788 17.625 "
     style="fill:none;stroke:#ffffff;stroke-width:1"
     id="path34" />
  <path
     d="M 88.97320327758788 0.375 L 88.97320327758788 17.625 "
     style="fill:none;stroke:#ffffff;stroke-width:1"
     id="path36" />
  <path
     d="M 90.7357032775879 0.375 L 90.7357032775879 17.625 "
     style="fill:none;stroke:#ffffff;stroke-width:1"
     id="path38" />
  <path
     d="M 92.49820327758789 2.1 L 101.31070327758789 2.1 "
     style="fill:none;stroke:#ffffff;stroke-width:1"
     id="path40" />
  <path
     d="M 92.49820327758789 5.550000000000001 L 101.31070327758789 5.550000000000001 "
     style="fill:none;stroke:#ffffff;stroke-width:1"
     id="path42" />
  <path
     d="M 92.49820327758789 2.1 L 92.49820327758789 5.550000000000001 "
     style="fill:none;stroke:#ffffff;stroke-width:1"
     id="path44" />
  <path
     d="M 94.26070327758788 3.825 L 101.31070327758789 3.825 "
     style="fill:none;stroke:#ffffff;stroke-width:1"
     id="path46" />
  <path
     d="M 92.49820327758789 7.275 L 101.31070327758789 7.275 "
     style="fill:none;stroke:#ffffff;stroke-width:1"
     id="path48" />
  <path
     d="M 92.49820327758789 10.725000000000001 L 101.31070327758789 10.725000000000001 "
     style="fill:none;stroke:#ffffff;stroke-width:1"
     id="path50" />
  <path
     d="M 92.49820327758789 7.275 L 92.49820327758789 10.725000000000001 "
     style="fill:none;stroke:#ffffff;stroke-width:1"
     id="path52" />
  <path
     d="M 94.26070327758788 9.000000000000002 L 101.31070327758789 9.000000000000002 "
     style="fill:none;stroke:#ffffff;stroke-width:1"
     id="path54" />
  <path
     d="M 92.49820327758789 12.450000000000001 L 101.31070327758789 12.450000000000001 "
     style="fill:none;stroke:#ffffff;stroke-width:1"
     id="path56" />
  <path
     d="M 92.49820327758789 15.900000000000002 L 101.31070327758789 15.900000000000002 "
     style="fill:none;stroke:#ffffff;stroke-width:1"
     id="path58" />
  <path
     d="M 92.49820327758789 12.450000000000001 L 92.49820327758789 15.900000000000002 "
     style="fill:none;stroke:#ffffff;stroke-width:1"
     id="path60" />
  <path
     d="M 94.26070327758788 14.175 L 101.31070327758789 14.175 "
     style="fill:none;stroke:#ffffff;stroke-width:1"
     id="path62" />
</svg>
