<?xml version="1.0" encoding="UTF-8" standalone="no"?>
<svg
   width="96.70574951171875"
   height="18.0"
   version="1.1"
   id="svg66"
   sodipodi:docname="kanakhtwadjneswt.svg"
   inkscape:version="1.1.1 (3bf5ae0d25, 2021-09-20)"
   xmlns:inkscape="http://www.inkscape.org/namespaces/inkscape"
   xmlns:sodipodi="http://sodipodi.sourceforge.net/DTD/sodipodi-0.dtd"
   xmlns="http://www.w3.org/2000/svg"
   xmlns:svg="http://www.w3.org/2000/svg">
  <defs
     id="defs70" />
  <sodipodi:namedview
     id="namedview68"
     pagecolor="#ffffff"
     bordercolor="#666666"
     borderopacity="1.0"
     inkscape:pageshadow="2"
     inkscape:pageopacity="0.0"
     inkscape:pagecheckerboard="0"
     showgrid="false"
     inkscape:zoom="14.218389"
     inkscape:cx="48.352875"
     inkscape:cy="8.9672604"
     inkscape:window-width="1920"
     inkscape:window-height="1001"
     inkscape:window-x="-9"
     inkscape:window-y="-9"
     inkscape:window-maximized="1"
     inkscape:current-layer="svg66" />
  <path
     d="M 3.009169848917976 0.4739171748132039 C 3.7026715218272255 0.4739171748132039 4.256829318471649 0.6745946316238001 4.644164689284773 0.9526347441559112 C 4.650308145491952 1.0062515645085024 4.663546055856558 1.060016372992199 4.652575800812965 1.1124437372646898 C 4.603449882852364 1.360569519526529 4.457806885291136 1.5903185537666114 4.257258755698066 1.7432685981716125 C 3.9413649209170813 1.94997010496389 3.5600411988456018 2.009570228366613 3.2002765010963685 2.0993341831784433 C 3.10998720613517 2.1086036967312767 3.181170796374544 2.130187995961788 3.231117085890341 2.138585643286511 C 3.4609996992016763 2.1784200797833564 3.9384250002790258 2.2376030490926513 4.202499603977515 2.2376030490926513 C 4.220906351189456 2.2376030490926513 4.23827706337661 2.2373153403237978 4.254454894379272 2.2367137030214415 C 4.532424083629077 2.2049171597812043 4.794657162235626 2.0893111466595644 5.019856122452685 1.9255069464391237 C 5.098959498900698 1.8590524805074944 5.166930105007111 1.7763742399315428 5.224523825878929 1.6899990125400517 C 5.3720929131784425 2.0357255065676374 5.451951702305268 2.4028945713681713 5.485264503827336 2.6067978859799568 C 5.503366062427325 2.716651377223197 5.580895308140001 2.8061828973646232 5.687128818362978 2.8395020766672823 C 6.825504545072815 3.188508875845171 7.72511459117944 4.749370284342509 8.566494083211595 5.78895938641794 C 10.295861887830181 7.925728476871466 11.765759846336513 10.315234366846607 13.458892408638075 12.548598959980612 C 12.522122105814729 12.092922126930452 11.58844053850988 11.632519122248745 10.649618007621019 11.174801399409672 C 8.72850955219054 10.164475916823728 6.728271736761494 9.358727903879377 5.045088984609069 8.085161653353607 C 5.042277564439204 8.082822188947427 5.039490238107126 8.07909189594436 5.036677873080877 8.076750541825415 C 4.066833817400553 7.2693821001829235 3.0743602151151883 6.41700117284651 2.698420284718348 5.284299308721125 C 2.5498687829938245 4.364048874911361 4.455242072637431 2.7072382455000326 4.240437005069874 2.637638234559833 C 4.2215063349931405 2.631504463130588 4.200107227613845 2.6285180083156328 4.1764933768710275 2.6285180083156328 C 3.7176359210190495 2.6285180083156328 2.422621666796125 3.756154733581801 2.15731260823226 4.830105427765268 C 2.154053326136495 4.815773846136464 2.1461630666898484 4.79928090552982 2.143294246494671 4.785246481233707 C 2.0704243238243896 4.4287242943794265 1.9886595231574336 3.528875672035904 2.2105824300779164 2.8058581029827074 C 2.22090238771539 2.7720589366371007 2.223991359447983 2.7373940456298778 2.2217969304967107 2.702122556824284 C 2.206042867582163 2.411103719844335 2.16184012380912 2.2384220033632714 2.098435772391302 2.068493834598567 C 2.035031184759387 1.8985666106902463 1.9592064599630061 1.724220765903293 1.8376947401217505 1.3030929608462967 C 1.806828171777225 1.1953371688820418 1.6962380468757994 0.9753151948986268 1.630223411590808 0.9582419943653084 C 1.8161052441811285 0.8204882523408192 2.0045522437462973 0.6772958579179091 2.2750667523423678 0.5825507383579678 L 2.2750667523423678 0.5825507383579678 C 2.1960743965194465 0.658865194028754 2.1432944827087668 0.7691834365057539 2.143294246494671 0.8965614153126038 C 2.143294246494671 1.1261525404295507 2.3068791219270324 1.3115031275181046 2.5077709430296933 1.3115039542674405 C 2.7086627641323537 1.3115039542674405 2.8722476395647156 1.1261525404295507 2.8722476395647156 0.8965614153126038 L 2.8722476395647156 0.8937576721008572 C 2.871221053103765 0.7095976631093593 2.7627272101967493 0.5576299150223198 2.6171139756116095 0.5040481134094518 C 2.669879244148341 0.49667510377938745 2.7125253370291467 0.4854209784459994 2.771315482296895 0.4816187582507192 C 2.852317311433968 0.47642689052903053 2.9316148558688426 0.4739171748132039 3.009169848917976 0.4739171748132039 ZM 3.6797034804227042 8.23655977114829 C 3.744950774217038 8.301805883872143 3.8149797499554623 8.36067988514395 3.8815675587442495 8.424405723946341 C 4.0956495749641375 9.204198532028927 4.293931466520769 10.064938131364233 4.57407335302502 10.7290191024102 C 5.057193067313169 11.874268186883667 5.789626838872777 12.870430272277117 6.413278350114227 13.883144351801198 C 6.260634439177563 13.965039778863208 6.128536902733854 14.058336787907995 6.029175805418124 14.152295196421411 C 5.947669659186221 14.229370911069886 5.8940429178416 14.280530159968329 5.830115352201277 14.345748871857053 C 5.520950312157207 13.938784109671408 5.124019924767046 13.62317373180555 4.644164689284773 13.448575610364134 C 4.689085996337662 12.725628196897432 4.536026821020337 11.737052363409154 4.30492109112023 10.66173115504105 C 4.1263418173058595 9.830810278320685 3.903548933870034 9.003086795602949 3.6797034804227042 8.23655977114829 ZM 4.686219774497539 9.144947533060002 C 5.834593499032087 10.09035760265641 7.113542596376112 10.88336044784028 8.36182590735716 11.685069199744076 C 8.343845290374292 12.594861963098435 8.344411259348162 13.463187814338914 8.445936077782692 14.359767706022835 C 8.033305011863666 14.014385848361224 7.586775333464642 13.763462228240035 7.018870348864767 13.625206117887009 C 7.015369655962953 13.624345353721408 7.011953527707485 13.623977804588126 7.008598342688769 13.623977804588126 C 6.989090837789752 13.623977804588126 6.971640285238172 13.63639699689621 6.951581929067426 13.636421563162186 C 6.30326824892538 12.572860982202688 5.56863248956343 11.57684345983595 5.115180793297013 10.501922870574559 C 4.9594783822461315 10.132827952249835 4.822072170210292 9.651825188689491 4.686219774497539 9.144947533060002 ZM 5.092751320031232 14.399018929916807 C 5.256419815253556 14.551910865654206 5.4054203599744595 14.728454446389774 5.5329268392495 14.94012684261699 C 5.575655607063885 15.01022479287143 5.648728910070769 15.058380343325913 5.729183431147552 15.07470273735529 C 5.7494917018318015 15.078823256044847 5.769947370111917 15.080878318679517 5.790254695939782 15.080878318679517 C 5.850400001475933 15.080878318679517 5.909242822487076 15.062849514021076 5.9590844691583715 15.027040401933126 C 6.175000687833224 14.870724306660996 6.306688629034575 14.703258906060551 6.435707350951817 14.58125716007727 C 6.483312522562763 14.536239477673238 6.5327214250102985 14.500179978643592 6.584302079855896 14.463502543538969 L 6.732896336331785 17.185862440383506 C 6.519603983834621 17.172073206318977 6.298091380798784 17.15081393768448 6.095781566478202 17.15081393768448 C 5.831792472282443 17.15081393768448 5.600500133246544 17.18701327545892 5.462835502989748 17.323242668868794 C 5.2941143882552915 17.189184555428792 4.96598135630733 17.158607113137695 4.572329148140608 17.158607113137695 C 4.471105738892494 17.158607113137695 4.365550163124863 17.160629105798932 4.257258755698066 17.16343343954592 L 5.092751320031232 14.399018929916807 ZM 6.25066573190075 9.573908551859477 L 6.25066573190075 9.573908551859477 C 7.604791854990093 10.361226196182292 9.034522078910209 10.988295252963786 10.386072995925625 11.699088033909858 C 10.388108216576233 11.700135879639442 10.389620931646625 11.700891764746446 10.39167977370683 11.70189142280046 C 11.686891739128056 12.333365400043023 12.978365852695143 12.98273873661945 14.285973389014858 13.605581450796405 C 15.269975172749374 14.794761632832586 16.33790476962736 15.90056296328426 17.36439863465213 17.026055100773398 C 16.647556883137256 17.146248391638174 15.930830404101199 17.267532046769798 15.213987707729942 17.38772722734734 C 13.79219427743337 15.841645498618801 12.36859900601298 14.299348864563587 10.946807465429178 12.75326524612228 C 10.935631704122118 12.739913480563432 10.92370950627189 12.727994117282355 10.910359630425809 12.716818355975295 C 9.41106341039531 11.580038019269429 7.757799063206311 10.634765898705052 6.25066573190075 9.573908551859477 ZM 3.0756960058277225 0.0 C 2.9405269774945206 0.0 2.803378947465543 0.004522381611119117 2.664776311033773 0.013406474957975922 C 1.5799215017535755 0.08356273687650426 0.791815610992612 0.5394290283949892 0.5227751964622482 1.157302329475107 C 0.4821416476788419 1.2499492773278713 0.3773182175015722 1.4706424536648965 0.5155519465690093 1.4706424536648965 C 0.5301007861125528 1.4706424536648965 0.5473420529751317 1.468197873986025 0.5676338477261894 1.4629019539550754 C 0.6829407547488466 1.4484514385289664 0.7780652341468658 1.4423110531050352 0.8569417269557291 1.4423110531050352 C 1.2747371416542677 1.4423110531050352 1.236670413344381 1.614590378873667 1.3274274122155385 1.6367293088014427 C 1.417468209947809 1.9189504698851962 1.6165598434253194 2.483475939414473 1.630223411590808 2.7049261819289825 C 1.386425543994761 3.5656903475302664 1.4768830233922678 4.468266061611404 1.565739089326357 4.903000625343815 C 1.7153772939992473 5.635118342443057 2.1961816377190027 6.48697345720191 2.8273889292472503 7.283313535133207 C 2.8134251329658233 7.338127016095824 2.8086283333195925 7.393803623365002 2.8273889292472503 7.448729542237286 C 3.1285063912567783 8.370618829444675 3.4792571591049843 9.617610994177321 3.7301694409495667 10.785092549360554 C 3.981081959008245 11.952574104543789 4.12285718696257 13.061967778966503 4.046983802062425 13.608383894830625 C 4.025192579283871 13.758532912485983 4.121174397743101 13.900045942793815 4.26847325611686 13.936413465004566 C 4.312604663232929 13.947361515923141 4.352082652659003 13.967347118152338 4.39463851175516 13.981272411536127 L 3.4666249016823647 17.0596976571734 C 3.272728324816838 17.01836208009686 3.0724617624261277 17.00476559673462 2.874112549852153 17.00476559673462 C 2.4927394590346226 17.00476559673462 2.118454680808026 17.055030066637645 1.8101650502035056 17.055030066637645 C 1.6846506825065655 17.055030066637645 1.570075389592555 17.04669832304569 1.4704144184820296 17.023250767026415 C 1.4375472348519498 17.015217598051724 1.3949769666959404 17.011228414399508 1.3451441780532423 17.011228414399508 C 0.9090801423353627 17.011228414399508 -0.08308278674200893 17.316628674182503 0.004096926806725951 17.889582026440785 C 0.15548046576267507 17.76211712084663 0.26223299740795364 17.73138850153413 0.38031217211407353 17.73138850153413 C 0.49024007079753446 17.73138850153413 0.6099847320405954 17.758020223566664 0.7846967677297779 17.758020223566664 C 0.7935070810801064 17.758020223566664 0.8024571741217066 17.757952193907034 0.8115528340999292 17.75781046544947 C 1.066223518424995 17.75382506122279 1.509269747551208 17.674784045296107 1.865480722334089 17.674784045296107 C 2.0452727193170093 17.674784045296107 2.202943030001157 17.694920824546703 2.3031032396034496 17.755008021415254 C 2.5392046614185677 17.745578354705373 2.7523340261895344 17.741732789223487 2.951610851518261 17.741732789223487 C 3.8011631150558056 17.741732789223487 4.398956033000731 17.81162570564265 5.451620530142762 17.816688246146814 C 6.240002555181878 17.80960749240695 7.649068297561068 17.777941575561766 8.426310465835707 17.73818579835887 C 8.876011082258614 17.740893756754712 9.122960636429726 17.792010487115885 9.3482285711628 17.792010487115885 C 9.361538763040762 17.792010487115885 9.374772421551643 17.79183285411574 9.387968285807172 17.791454911562237 C 9.52192246504496 17.78755265469733 9.652878614977093 17.73516414764362 9.867871236536825 17.73516414764362 C 9.990853743446445 17.73516414764362 10.141335350548884 17.752305732157712 10.335607271612858 17.805472800871634 C 10.085930861918229 17.463682342324677 9.45939942841909 17.120327201606223 9.005599080147068 17.120327201606223 C 8.891079651866747 17.120327201606223 8.787560241606108 17.142193068039095 8.703873366840497 17.191469218164713 C 8.542968104112466 17.175166666119395 8.37234782804666 17.169161158944245 8.19567291227375 17.169161158944245 C 7.976734570455455 17.169161158944245 7.748496479680046 17.178384846962466 7.517922703923993 17.188666774130493 L 7.360917335919913 14.359767706022835 L 7.360917335919913 14.359767706022835 C 7.847890174541017 14.562401606083045 8.21758885609496 14.875619607585232 8.642193142108937 15.380301416978874 C 8.699664031650867 15.44654907746951 8.781797562521582 15.482110637184917 8.86545325702653 15.482110637184917 C 8.908499969014047 15.482110637184917 8.951950134677428 15.472694198464408 8.992650768264083 15.453197086985613 C 9.112446274591294 15.395810289661837 9.178901803486355 15.264291005324987 9.155264331333942 15.133579573196247 C 8.962827321367223 14.095116267502062 8.941800487403126 13.115423973733854 8.95339954437011 12.074779939505962 L 8.95339954437011 12.074779939505962 C 9.492870020957247 12.42841606253606 10.024760859633895 12.787106222362869 10.5290609470485 13.16820932046874 C 11.981769133365166 14.7479090393313 13.43605428498632 16.326704530634608 14.888761526446602 17.906404249497168 C 14.944628049848916 17.96747598671759 15.022539017540629 17.999999833159222 15.103714464038218 17.999999833159222 C 15.11983182423232 17.999999833159222 15.136078629750996 17.99871671819008 15.152306538141996 17.99612214256029 C 16.10156595264582 17.836959195003903 17.051571803692816 17.68146795935479 18.00083121819664 17.52230312208564 C 18.107373224028915 17.50503114739059 18.194878263441282 17.430652052861355 18.23073178377927 17.328851336362764 C 18.266587193830023 17.227046840438643 18.244059927928525 17.11188585467375 18.171855892794696 17.031661878554605 C 17.42994521170602 16.20143358156353 16.66326228594804 15.400856767607475 15.920510682677822 14.586862993002091 L 15.920510682677822 14.586862993002091 C 17.1897721675192 15.367626168590794 18.796164079222855 16.341928056689678 19.00015479305014 16.341928056689678 C 19.023265980196797 16.341928056689678 19.02837576352015 16.32942193759429 19.01295381762449 16.302708957912753 C 18.91865715052569 16.139381083416772 18.112724890586506 15.546881487147742 17.238233851442022 14.928911397341812 L 17.238233851442022 14.928911397341812 C 17.377197659226482 14.987001167815102 17.513576339944986 15.048752256775444 17.6531769809321 15.10554284972107 C 17.658199837468143 15.108767644558828 17.664787376175685 15.113841523339595 17.669999203988482 15.116757350139865 C 17.773049020626395 15.151233269870335 17.830042757694528 15.174751690118395 17.93915099346508 15.178437574871426 C 17.94233326976557 15.178545288499173 17.945553340321407 15.178605759307734 17.948841440536878 15.178605759307734 C 17.973745965099905 15.178605759307734 18.00257920250659 15.175098452411234 18.048493553618805 15.161615351815042 C 18.100470103289197 15.146353086648238 18.187842862807837 15.102794262500725 18.236338561560473 15.01021723402036 C 18.28483615002588 14.91764209525276 18.275225070890315 14.822594267328872 18.25876945211083 14.771906501765924 C 18.242311943618578 14.721218736202974 18.220873152271164 14.694878974793022 18.205498449194693 14.67377749717461 C 18.143995857463278 14.58936875213181 18.102465639971687 14.565463885622796 18.0428867758376 14.519575990489324 C 17.983304132277976 14.473685260786702 17.91481149301954 14.423448191718805 17.838219544839546 14.370981261585245 C 17.6850337587668 14.266046456461739 17.50165414209476 14.147847757423074 17.344773967561526 14.042952636267687 C 17.18789568274106 13.938058459968683 17.045392442943054 13.83638718879467 17.016744397387587 13.810248681794459 C 17.00804982894427 13.80148608369151 16.99842930124487 13.792621441099115 16.988708618768793 13.785015347209884 C 15.691415134734154 12.872117785778505 14.394182121508075 11.96102017575818 13.097218392351367 11.048637561055948 C 13.088896097323248 11.042752050641536 13.077870568181206 11.047937422475586 13.06918166887619 11.04302983841836 C 11.735590582003198 9.174366581424614 10.481460027291279 7.217504760432826 9.023491825486246 5.41607134214063 C 8.27915569806047 4.496387349732927 7.424659237280828 2.887723530854533 6.037586916946315 2.3516642220268507 C 5.970716123670593 1.9556564868954267 5.819659099030447 1.224570552967246 5.283400661719887 0.7031084485192504 C 4.8273005330098036 0.25959351157317057 4.167590467595091 0.05615587828814758 3.427373441574297 0.0106028092539796 C 3.3119162433330986 0.0034978361875914604 3.1945714582512528 0.0 3.0756960058277225 0.0 Z"
     style="fill:#ffffff;stroke:none"
     id="path2" />
  <path
     d="M 25.500150932003493 4.293620498899901 Q 25.17288443129991 4.293620498899901 25.12081910715668 4.546508784769132 L 25.12081910715668 4.561384447867903 Q 25.15800876820114 4.62832503247188 25.27701457628884 4.62832503247188 Q 25.619157142729215 4.4795673948891075 25.619157142729215 4.353123755252021 L 25.619157142729215 4.338248494791274 Q 25.619157142729215 4.308496161998672 25.500150932003493 4.293620498899901 ZM 26.690211227389625 3.8324721243718236 Q 26.638145903246397 4.122549064690453 26.176997931356343 4.457253799581444 L 26.340630829399863 4.524194384185422 L 26.563767185114514 4.442378539120696 L 26.675335564290855 4.5167570559335655 Q 27.530690722147973 4.925840106318414 28.943887373248756 4.948153701626076 L 31.16037426070146 4.970467095614728 Q 31.17561974682485 4.969635648096114 31.190280602538063 4.969635648096114 Q 31.56904138600799 4.969635648096114 31.55829980881593 5.524589220115926 Q 31.547145125011724 6.101023933329728 31.167812595548373 6.681179021881059 Q 30.92979957013989 6.681179021881059 30.684349820436587 6.498951091996298 Q 30.438900876009328 6.316723162111536 30.282705507536676 6.0712722044941625 Q 30.126510139064024 5.825823260066905 29.881059584084674 5.431615470142805 L 29.881059584084674 5.431615470142805 Q 29.955438100897542 6.212592916463102 30.327331892875954 6.658865627892408 Q 29.87362245715183 6.658865627892408 29.52032208646256 6.744400036423555 Q 29.343673109031997 6.787167844646164 29.22559709280016 6.787167844646164 Q 29.107520673930303 6.787167844646164 29.04801721625917 6.744400036423555 Q 28.97404093483182 6.691230074862738 28.680198523717024 6.691230074862738 Q 28.501335439795003 6.691230074862738 28.241007409845775 6.710930750716625 Q 28.040340671672908 6.726116243774512 27.874157464388272 6.726116243774512 Q 27.470568409834655 6.726116243774512 27.27036551066491 6.636551428627709 Q 27.0844186146757 6.480356060155057 27.03607245795593 6.089867638973426 Q 26.987725898598136 5.699379217791796 27.2554892436091 5.007656354021162 L 27.2554892436091 5.007656354021162 Q 26.705086890488396 5.401864143945263 26.705086890488396 6.20515377634014 L 26.705086890488396 6.472918530584189 Q 26.42988561326854 6.190279522474451 26.273690244795887 5.848136654055557 Q 25.96873723874046 5.089473406999957 25.440648279608407 5.089473406999957 Q 25.239825418541912 5.089473406999957 24.667108966816013 5.342361088912153 Q 24.47372439026668 5.260544438571381 24.510913548013608 5.082035474791066 L 24.88280749098128 4.583697439218531 Q 25.150570936651754 4.129987802175393 25.269576744739453 4.077922478032163 Q 25.32907979977256 3.966354098855825 25.849730927355232 3.966354098855825 Q 26.072867283069883 4.025857153888934 26.072867283069883 4.129987802175393 Q 26.072867283069883 4.271307507549273 25.92410984680612 4.412626810285131 Q 26.20674966019191 4.353123755252021 26.333193299828995 4.077922478032163 Q 26.333193299828995 4.010981490790162 26.690211227389625 3.8324721243718236 ZM 27.010605602966898 2.25 Q 26.974389118025343 2.25 26.92822324620305 2.3077075659361332 Q 26.362944626026536 3.207690952459732 25.90179625149846 3.557270947811471 Q 25.723287287718144 3.7134663162841233 25.41833428166272 3.720904147833509 Q 25.269576744739453 3.720904147833509 24.96462414132205 3.497767792118856 Q 24.510913548013608 3.0589333148769593 24.332404634563044 2.7539803088215344 Q 24.13158176720533 2.396962456755533 24.07207907391732 2.3597728460408285 Q 24.042327302616027 2.3597728460408285 24.02745162850762 2.434151639667338 Q 24.02745162850762 2.858110453810464 24.89024491989264 4.003543357262259 Q 24.726612122508627 4.2415553760756834 24.585292366804993 4.546508784769132 Q 24.44397261110136 4.85146098554851 24.25058800938715 5.0113759240826425 Q 24.05720297672443 5.171290057340729 24.287777192298954 5.327485425813382 Q 24.287777192298954 5.520870455330492 24.607605861453152 5.639875760120663 Q 24.867931425244485 5.565497041988783 25.40345861856395 5.40930167351613 Q 25.723287287718144 5.40930167351613 25.842293599103375 5.677065421165121 Q 26.23650058375143 6.272095568858187 26.23650058375143 6.919191242013495 Q 26.281127975685767 7.781984533398517 25.64147073803688 8.570398905332645 Q 25.440648279608407 8.7042800745406 25.440648279608407 8.942293099949083 Q 25.440648279608407 9.038985010750604 25.686098129971217 9.038985010750604 Q 26.08774334880668 9.038985010750604 26.08774334880668 8.942293099949083 L 26.057991619971112 8.741470540861105 Q 26.057991619971112 8.63734029521267 26.214186988443764 8.585275172388453 L 26.214186988443764 8.570398905332645 Q 26.214186988443764 8.429079803915801 26.719962553587166 7.149765127299016 Q 26.950537244148737 7.149765127299016 27.0844186146757 7.372901080375645 Q 27.2554892436091 7.938180304509193 27.2554892436091 8.310073291211559 Q 27.2554892436091 8.391889740233319 27.15135919927968 8.659653286563298 Q 27.024915559642594 8.756345600002842 26.995163830807027 9.009234087191084 L 27.59019377718108 9.009234087191084 L 27.545566989203778 8.823286989882867 Q 27.515815260368214 8.711718409387515 27.627383840863562 8.629901960365755 L 27.575318718039345 8.354701287102932 Q 27.478625599323756 7.305960495771668 27.478625599323756 7.12001339846345 L 27.478625599323756 7.105137534045666 Q 28.066218217445954 6.963818029990797 28.382328121814716 6.963818029990797 Q 28.698438026183478 6.963818029990797 28.869508453797867 7.079105375271581 Q 28.937498313091194 7.124923971798568 29.060118502056724 7.124923971798568 Q 29.246026946114682 7.124923971798568 29.557512150145044 7.019602320238472 Q 29.89495462227711 6.905503159765161 30.075509993812076 6.905503159765161 Q 30.17155003365348 6.905503159765161 30.22320164722752 6.937785468578689 Q 30.37195908349128 7.03075821195675 30.37195908349128 7.253895372947451 Q 30.37195908349128 8.072061071079123 29.955438100897542 8.644778227421561 Q 29.82155733432761 8.778659396629516 29.754615541809564 9.016672422037999 L 30.267828837842846 9.016672422037999 Q 30.40171121496487 8.972044023508602 30.327331892875954 8.793535663685322 Q 30.342208562569784 8.60015023153019 30.505841460613304 8.548085108705973 Q 30.505841460613304 7.871238109353121 31.100870803030325 7.209268182332125 Q 31.517391785624064 7.43984247025567 31.52483012047098 7.9233032321773385 Q 31.52483012047098 8.10925073212358 31.450449993106016 8.429079803915801 L 31.361195611875367 8.674529150981082 Q 31.27938117604372 8.771222269696672 31.212439383525677 9.038985010750604 L 31.703341298760424 9.038985010750604 Q 31.792594069438984 9.001796154982193 31.814907463427634 8.95716936700489 L 31.740528946614766 8.71915674423443 Q 31.703341298760424 8.615026498585996 31.8446591922632 8.533210049564236 Q 31.770279870174285 8.139002460959148 31.94135110306472 7.938180304509193 Q 31.591772718265073 7.12001339846345 31.591772718265073 6.651427293045493 Q 31.777716594469105 5.88532591246199 31.829781717293322 5.215917046637044 Q 31.91903770907607 5.684503353374012 31.852098332386163 6.339036556100188 Q 31.785155734592067 6.9935697588263634 32.07523307754872 7.692729749529842 Q 32.13198812807116 7.810604044111883 32.17849281979026 7.810604044111883 Q 32.211217627791655 7.810604044111883 32.23886597559224 7.752233207200974 Q 32.313245297681156 7.328273487122296 32.2686193149799 5.40930167351613 Q 32.20911505203272 5.171290057340729 32.142172454238626 5.04484601506562 Q 31.90416345521038 4.680389752658074 31.73309061176785 4.665514492197326 L 29.33065662700693 4.665514492197326 Q 27.553004518774646 4.665514492197326 26.697648958279505 4.159738725734911 Q 26.838968261015363 3.90685094316321 26.853844528071168 3.813877797147124 Q 26.868720191169942 3.720904147833509 26.853844528071168 3.587022274009014 Q 26.496826197872515 3.6911524189979428 26.3183172340922 3.8622235512288725 L 26.169559596509426 3.750655977328581 Q 26.325755568939115 3.6539632612510142 26.667897229443938 3.1258738994809363 Q 27.010039896543823 2.5977848900191294 27.069542548938905 2.300269731241138 Q 27.044407467681275 2.25 27.010605602966898 2.25 Z"
     style="fill:#ffffff;stroke:none"
     id="path4" />
  <path
     d="M 24.89448322899337 10.105950423013738 C 24.98410461478248 10.358458996061893 25.100327288191952 10.632651212065001 25.24387539370713 10.932844785033396 C 25.387422693946252 11.233038408331542 25.554590149879438 11.537829251922986 25.733023417711326 11.829617403841668 C 25.73008073771627 11.829544325040397 25.727100813704034 11.829507483661242 25.724083041717588 11.829507483661242 C 25.63827584592549 11.829507483661242 25.522284890698568 11.859059705356144 25.3836317562951 11.922788043808302 C 25.23691337964206 11.99022306790519 25.143004200880746 12.0555941694934 25.092471921012155 12.12077663516758 C 24.977829098547556 11.799669187650615 24.841636887743974 11.488525521323725 24.69649458730434 11.18906530318546 C 24.551352286864702 10.889604682409171 24.414688083638026 10.627628755689091 24.277224266461474 10.397110686099584 L 24.89448322899337 10.105950423013738 ZM 25.944625804603596 12.027332805301974 C 25.95556870080742 12.027332805301974 25.966560316212092 12.027424808090352 25.977598234989475 12.027605592562923 L 25.96595092356346 12.155715549660439 C 25.821523859242895 12.195397942708645 25.741406542680483 12.260788169602973 25.721377112880376 12.365351049807703 C 25.643525843114457 12.2676332173222 25.57362526508041 12.221372322926351 25.523388521521095 12.213947879091249 C 25.497076428661146 12.2565556386995 25.499759004492994 12.335882979459722 25.523388521521095 12.45852209241236 C 25.48678449748188 12.438524873654135 25.448239254871662 12.428472814077397 25.407599388603472 12.428472814077397 C 25.34299410453604 12.428472814077397 25.27309604298964 12.45387504566365 25.197289369107267 12.505107714374194 L 25.092471921012155 12.423582775281478 C 25.211177965091327 12.281294121503944 25.334769216310136 12.178226638918648 25.476802899559264 12.109130531655639 C 25.613141569943906 12.050051655780331 25.772854786828244 12.027332805301974 25.944625804603596 12.027332805301974 ZM 25.61655966478526 12.411937074407561 C 25.660417112159077 12.42229272305405 25.697717297340997 12.451507735404235 25.709730506070905 12.505107714374194 C 25.721744520076857 12.558707290706131 25.73330466037077 12.608334842935825 25.744670125180303 12.656511287728673 C 25.71097757668932 12.618596676922827 25.674193372134567 12.583384773850009 25.639852274447165 12.540046628867053 C 25.605512082695313 12.496709087841133 25.593437270347806 12.453078828972096 25.61655966478526 12.411937074407561 ZM 25.954305222689545 12.260533501053082 C 25.969078213092313 12.665686401690136 25.934493620060174 12.890660196025223 25.861133978765878 12.924378110711691 C 25.852798969040535 12.92820901018668 25.843010234731192 12.930128788282929 25.831750663721852 12.930128788282929 C 25.74390813272075 12.930128788282929 25.566478742141058 12.813260082164684 25.290460613030938 12.574986348635957 C 25.333991118329642 12.547829017905084 25.373710956714035 12.534251057156188 25.410268979359063 12.534251057156188 C 25.451726100155536 12.534251057156188 25.489117180871272 12.551712260323136 25.523388521521095 12.58663265346691 C 25.587881570239468 12.652346601332166 25.64460702686717 12.703494112100731 25.698084603877973 12.73803522022633 C 25.741070943887863 12.76580154096781 25.76896892726304 12.774346727741444 25.783229762099865 12.774346727741444 C 25.78670996385635 12.774346727741444 25.78937824603836 12.773837994598697 25.791255344504115 12.772974939995235 C 25.800824439771613 12.768576924864085 25.809019331464764 12.741466501462956 25.814548356804043 12.67980389739058 C 25.8200769795053 12.61814109199919 25.824819652784598 12.537512223827868 25.814548356804043 12.446875787581408 C 25.80427766478052 12.35623955265396 25.849448014089607 12.293471103249924 25.954305222689545 12.260533501053082 ZM 31.730916306386636 12.528400324036099 C 31.749512546141947 12.528400324036099 31.766996699676234 12.540046628867053 31.78914823317942 12.540046628867053 C 31.922052602542262 12.540046628867053 31.987135817943642 12.610447082007326 31.987136623219687 12.749681927695306 L 31.987136623219687 14.20548130542905 L 31.428109964953723 14.20548130542905 L 31.63774506246297 12.668157592559627 C 31.64249135948448 12.601704199964136 31.618881471060025 12.558032268059662 31.695976989255755 12.540046628867053 C 31.704543515844634 12.538048738994238 31.72161939442305 12.528400324036099 31.730916306386636 12.528400324036099 ZM 25.01094698191944 9.873022891996726 L 24.02100372314453 10.338878809636551 C 24.462498882775748 11.001800069647672 24.762534168671134 11.631393067919607 24.929422143486228 12.24888719622213 C 24.783108216727836 12.422936541253694 24.740258622656697 12.540315993704802 24.801312085729208 12.58663265346691 C 24.83116809781287 12.609282652843243 24.85985469808691 12.619922362615341 24.885373946348757 12.619922362615341 C 24.912039454733872 12.619922362615341 24.935246705134787 12.60830484640307 24.952715155786155 12.58663265346691 C 25.234901598757435 12.704861672147693 25.493576799620023 12.875011065283228 25.744670125180303 13.09907368977104 C 25.82725319699889 13.233908909775776 25.921377283805267 13.419403039307511 26.024183655632296 13.623161634863157 L 26.01253694816332 13.623161634863157 L 25.53503482635205 13.646454244525062 L 25.546681533821026 13.727979183617778 C 25.61528893918296 13.869482290611382 25.75583930395336 13.949260585957973 25.96595092356346 13.949260585957973 C 25.782972275083807 14.26925192087368 26.015144834641802 14.915911134411468 26.31534308827722 14.915911134411468 L 26.315358388522114 14.915911134411468 C 26.316964310279012 14.915911134411468 26.320533293719688 14.915948579747656 26.323444165310885 14.915948579747656 C 26.32489950044698 14.915948579747656 26.326190559269463 14.915939319073116 26.326989795746194 14.915911134411468 L 26.61814922839112 14.915911134411468 C 26.70258061005677 15.112049805371582 26.77039673104294 15.26353632215891 26.862724045669264 15.486584500146407 C 26.947458009809612 15.663785091669222 27.03387479956935 15.74999915318411 27.125198538921996 15.74999915318411 C 27.149908837064793 15.74999915318411 27.174977684367555 15.743687802165088 27.200469301595035 15.731158914786532 L 27.212115606425986 15.731158914786532 C 27.334812699254016 15.678578817930203 27.343069194564766 15.53703383658215 27.23540821608789 15.311888719768048 C 27.15162387372607 15.157323230014693 27.101197085019646 15.058167174509096 27.025772917259637 14.915911134411468 L 32.289942964652596 14.915911134411468 L 32.289942964652596 12.749681927695306 C 32.289942964652596 12.439568511411156 32.129893545018604 12.283826513353011 31.80079413537235 12.283826513353011 C 31.471693115174006 12.283826513353011 31.359244367959192 12.379803137705709 31.346585428499033 12.563339641166982 C 31.207350784130064 13.759490843254246 31.11946376162736 14.14092071418223 30.973900452804358 14.147249378636262 L 30.973900452804358 14.158895683467215 C 30.07479968028446 14.17611006952573 29.291626447502775 14.283650256595543 27.864313307296605 14.356884476145504 C 27.401209923845222 14.348307883606036 27.165529581826128 14.329885986114919 27.165529581826128 14.28700584188374 C 26.927882755700058 13.934367005467154 26.6715221195158 13.736345599108958 26.396868027369933 13.68139315901792 C 26.261680297775587 13.394489408962825 26.151344796227335 13.137029973612321 26.082415582425085 12.947670720373596 C 26.06734745835106 12.615124527926813 26.09943348112811 12.304242676974733 26.187233131179706 12.01595928773197 C 26.18840682101833 12.015988478988678 26.18956661984514 12.016003175276536 26.19071232634113 12.016003175276536 C 26.24335181230593 12.016003175276536 26.266078312906735 11.985167544881595 26.268757466315385 11.91114173897735 C 26.271494599599425 11.8355047770219 26.16106246492552 11.795741453730962 25.931012210389618 11.794678086710787 C 25.553615262564936 11.273938278103433 25.24512296762307 10.631233020286581 25.01094698191944 9.873022891996726 Z"
     style="fill:#ffffff;stroke:none"
     id="path6" />
  <path
     d="M 35.90951154010976 2.790560862150973 C 36.41213855164309 2.8284952890530217 36.8436393622811 2.9422977039797806 37.20401379886792 3.1319680203533107 C 36.72983681748743 3.6914962177055344 36.298336699472934 4.454920395842253 35.90951154010976 5.422240121873769 C 35.511203325955435 4.454920395842253 35.07496081476597 3.6914962177055344 34.600784612586935 3.1319680203533107 C 34.9706425368546 2.9517813215275353 35.40688435542055 2.8379789066007763 35.90951154010976 2.790560862150973 ZM 35.90951154010976 6.460687087735869 C 36.20350130319684 9.201427061833972 36.35997949926534 11.422612478963103 36.3789459551594 12.238196055789324 C 36.35997949926534 13.622790625025102 36.20350130319684 14.542693691853836 35.90951154010976 14.997902485781484 C 35.60603872223153 14.542693691853836 35.4495606993189 13.622790625025102 35.44007695190424 12.238196055789324 C 35.4495606993189 11.413128385236686 35.60603872223153 9.191942968107554 35.90951154010976 6.460687087735869 ZM 35.90951154010976 2.25 C 34.9421917275003 2.25 34.23566916807218 2.5439893166695784 33.78994297981262 3.1319680203533107 C 34.46327365161394 3.6914962177055344 35.003835219916226 4.559239193221257 35.41162622912788 5.735196514010783 C 35.41162622912788 6.2662742483204665 35.30493658147315 7.70981038565852 35.09155754589751 9.179757642691 C 34.878178423743925 10.649704207099967 34.828389788752204 12.280871360752407 34.9421917275003 14.073258411024806 C 35.18671708997642 15.191086264777875 35.479493982719035 15.75000157690143 35.820522405728155 15.75000157690143 C 35.84982903800735 15.75000157690143 35.879492198238474 15.745873540780094 35.90951154010976 15.737618853784443 C 35.939531055136925 15.745873540780094 35.969194042212166 15.75000157690143 35.99850084764724 15.75000157690143 C 36.339529616968115 15.75000157690143 36.63230590366516 15.191086264777875 36.876831266141274 14.073258411024806 C 36.98115040983204 12.280871360752407 36.92661981455505 10.649704207099967 36.713240865557346 9.179757642691 C 36.49986174340376 7.70981038565852 36.39317140312552 6.2662742483204665 36.39317140312552 5.735196514010783 C 36.810446765797415 4.559239193221257 37.35574994807322 3.6914962177055344 38.029080084173536 3.1319680203533107 C 37.57387094393413 2.5439893166695784 36.86734855766188 2.25 35.90951154010976 2.25 Z"
     style="fill:#ffffff;stroke:none"
     id="path8" />
  <path
     d="M 40.764343872404055 2.25 C 40.51279925971725 2.25 40.26174397666244 2.269182611264559 40.01841609818711 2.2995564581199823 C 39.682981302720215 2.3843157348110164 39.855356584736136 2.7686632530247515 40.15317067270901 2.7686632530247515 C 40.173136211384765 2.7686632530247515 40.19366550228109 2.766935830454775 40.21464333051192 2.7632749330552384 C 40.84396554383521 2.83570345889602 41.618727022133115 2.8757716375135147 42.09413602682192 3.232464202245255 C 42.72480113859346 3.919865572373549 42.44145205714532 5.348381581489431 42.51487765883807 6.02652341147594 C 42.520141778050075 6.0630380783058655 42.52234073644725 8.766162581920678 42.52234073644725 10.135981633328903 C 41.912894914837665 9.84398244955337 41.22470154245772 9.697009892419143 40.54635855350796 9.697009892419143 C 40.24487215785822 9.697009892419143 39.94533155924787 9.726041552578508 39.655514952447966 9.784275693423318 C 39.32490033188444 9.957946075279352 39.71304255690981 10.180804227619914 39.97254171209438 10.180804227619914 C 40.003447015414665 10.180804227619914 40.032527653021745 10.177643336135256 40.05835220228848 10.17086176124991 C 40.97795084769109 10.270249413835984 42.023547647304525 10.516636670139583 42.490621855887 11.372084512178846 C 42.53675834472443 11.526902713725455 42.50788789643656 11.580101207811888 42.437511441134326 11.580101207811888 C 42.282870643821575 11.580101207811888 41.927827475825765 11.32324265325963 41.727807671945904 11.32324265325963 C 41.71731110649443 11.32324265325963 41.70724159235815 11.323950134938475 41.69765019775685 11.325439120524132 C 41.31359316340647 11.242486537803458 40.91112176531377 11.198984955580794 40.512392849215615 11.198984955580794 C 40.220430409646994 11.198984955580794 39.930474577445665 11.222309074912536 39.651224109874 11.270546656220748 C 39.335731832347896 11.47882100614729 39.72296204702937 11.670692315057073 39.97960785440299 11.670692315057073 C 40.00779986939836 11.670692315057073 40.03441615400967 11.668376985176506 40.05835220228848 11.663514294200782 C 40.99698141089363 11.776710651063793 42.03566949888643 12.031173447737789 42.490621855887 12.888059740957079 C 42.49581444400371 13.840655351434203 42.49033181686876 14.470207282777462 42.51581041008568 15.346271738810112 C 42.50484124117872 15.615968879401612 42.680181393677174 15.750000358180948 42.85781943812749 15.750000358180948 C 43.03410337403254 15.750000358180948 43.21265068190814 15.618004490670723 43.21362542653508 15.355607080560343 C 43.207133178915775 14.49241822168092 43.1455171475307 13.734749472273819 43.258701048730344 12.897478357713775 C 43.487006596472355 11.958167601900273 45.11675826015007 11.814017142207314 46.128962404954756 11.581988774625064 C 46.34982266889238 11.322336592719218 45.91519831037134 11.225919082030344 45.635054071105706 11.225919082030344 C 45.593215142003544 11.225919082030344 45.55482180526285 11.22806999715456 45.52257231344346 11.232148337214703 C 45.39282914162091 11.222199465074969 45.26225144035323 11.217067020018478 45.131475160224 11.217067020018478 C 44.46984526933962 11.217067020018478 43.80312812966295 11.348428716325635 43.21362542653508 11.651956862107136 C 43.189613398709774 11.085787886965592 43.747165545938905 10.760019620440762 44.14653325962937 10.53246746239398 C 44.77684000417224 10.261378846267126 45.470762447883615 10.234760737790822 46.128962404954756 10.08933624167419 C 46.363938850116256 9.885323863873325 45.99411241115462 9.71366347020749 45.738030378243835 9.71366347020749 C 45.70426343075111 9.71366347020749 45.672473730847756 9.716647847148533 45.644309696610435 9.722936889517019 C 45.482967574471985 9.70741215070518 45.32069270108592 9.699490348808254 45.15843490975246 9.699490348808254 C 44.48163686790444 9.699490348808254 43.80512993270295 9.837307637496822 43.197766164193 10.135981633328903 C 43.21021008364178 7.997630358807127 43.24485106282627 5.9281745612140835 43.18348236532791 3.9053616641430824 C 43.1342038464389 3.2799076460452463 42.77383872936548 2.705846762598841 42.16764009919384 2.5188064716922396 C 41.73224117634985 2.320738559229909 41.247390245020064 2.25 40.764343872404055 2.25 Z"
     style="fill:#ffffff;stroke:none"
     id="path10" />
  <path
     d="M 50.977558279410005 7.789845119230449 C 51.783074389873505 7.789845119230449 52.79133878089769 8.203642465177012 53.27922550123185 8.691529185511172 C 53.70607578243677 9.118379104647488 53.76187851988895 9.684302471294757 53.77752459049225 10.210154981352389 L 48.20132049638778 10.210154981352389 C 48.21696674802538 9.684302471294757 48.27276948547756 9.118379104647488 48.69961958564818 8.691529185511172 C 49.18750648701664 8.203642465177012 50.17204253101511 7.789845119230449 50.977558279410005 7.789845119230449 ZM 50.977558279410005 7.339003086090088 C 50.021957672071885 7.339003086090088 48.993749637144106 7.780457404454751 48.39114872086793 8.383058320730925 C 47.77307322014557 9.001134049160498 47.70302140712738 9.814825306643456 47.70302140712738 10.42371173389256 L 47.70302140712738 10.66099701449275 L 54.25209515169263 10.66099701449275 L 54.25209515169263 10.42371173389256 C 54.25209515169263 9.814825306643456 54.20577209444167 9.001134049160498 53.587696366012096 8.383058320730925 C 52.98509581180453 7.780457404454751 51.93315906778243 7.339003086090088 50.977558279410005 7.339003086090088 Z"
     style="fill:#ffffff;stroke:none"
     id="path12" />
  <path
     d="M 57.5900601793997 2.9892379897054955 C 57.86767828060271 2.9892379897054955 58.2075335903289 3.095985977015074 58.306624277055576 3.340333519869274 L 58.270142661961124 11.279334014803599 L 58.270142661961124 11.279334014803599 C 58.12933187063229 10.960512872387417 57.711033497217684 10.367342335933275 56.46858867434368 9.632436990092634 L 57.411849484152974 3.06154244747758 C 57.4561010150906 3.0145252182361735 57.45494084515964 2.9892379897054955 57.5900601793997 2.9892379897054955 ZM 58.270142661961124 11.279334014803599 L 58.270142661961124 11.279334014803599 C 58.270142661961124 11.279334014803599 58.270142840999696 11.279334014803599 58.270142840999696 11.279334014803599 L 58.270142661961124 11.279334014803599 L 58.270142661961124 11.279334014803599 ZM 57.45805271453773 2.25 C 57.24554736032413 2.25 57.05374325120038 2.280338063237631 56.917945897897276 2.317373030601139 L 55.752095341682434 10.098160711168036 C 56.3688141050408 10.520569989179059 58.06365013906872 11.67797341616124 57.99606522751038 12.683307927520042 L 58.008702843983635 15.75000086141948 L 58.869479465790604 15.73816856043225 L 58.86465222787725 3.119482909369111 C 58.60868687224219 2.427915471835376 57.97267115281457 2.25 57.45805271453773 2.25 Z"
     style="fill:#ffffff;stroke:none"
     id="path14" />
  <path
     d="M 62.20744437472746 2.9892379897054955 C 62.48506247593047 2.9892379897054955 62.82491778565666 3.095985977015074 62.924008472383335 3.340333519869274 L 62.88752685728888 11.279334014803599 L 62.88752685728888 11.279334014803599 C 62.74671606596005 10.960512872387417 62.32841769254544 10.367342335933275 61.08597286967144 9.632436990092634 L 62.02923367948073 3.06154244747758 C 62.07348521041836 3.0145252182361735 62.0723250404874 2.9892379897054955 62.20744437472746 2.9892379897054955 ZM 62.88752685728888 11.279334014803599 L 62.88752685728888 11.279334014803599 C 62.88752685728888 11.279334014803599 62.887527036327455 11.279334014803599 62.887527036327455 11.279334014803599 L 62.88752685728888 11.279334014803599 L 62.88752685728888 11.279334014803599 ZM 62.07543690986549 2.25 C 61.86293155565189 2.25 61.67112744652814 2.280338063237631 61.535330093225035 2.317373030601139 L 60.36947953701019 10.098160711168036 C 60.98619830036856 10.520569989179059 62.68103433439648 11.67797341616124 62.61344942283814 12.683307927520042 L 62.62608703931139 15.75000086141948 L 63.48686366111836 15.73816856043225 L 63.48203642320501 3.119482909369111 C 63.22607106756995 2.427915471835376 62.59005534814233 2.25 62.07543690986549 2.25 Z"
     style="fill:#ffffff;stroke:none"
     id="path16" />
  <path
     d="M 71.93220389550552 2.9431103046331555 C 72.15459767095679 2.9431103046331555 72.28857533596349 2.9808275415010574 72.35789368890227 3.0202280208282173 C 72.55975857999911 3.1491239805579974 72.46349676151686 3.4574567378897703 72.43097755532712 3.649983155541122 L 71.43343023568391 3.649983155541122 C 71.40946164165642 3.4530725215724303 71.30056577232567 3.152567397813582 71.50675138738937 3.0202280208282173 C 71.57606974032815 2.9808275415010574 71.70981012005424 2.9431103046331555 71.93220389550552 2.9431103046331555 ZM 66.39016888180748 4.106757320696488 L 66.39016888180748 4.799867625329643 L 65.44363789749332 4.799867625329643 L 65.44363789749332 4.106757320696488 ZM 71.30695718112402 4.106757320696488 L 71.30695718112402 4.799867625329643 L 66.61796275118365 4.799867625329643 L 66.61796275118365 4.106757320696488 ZM 72.44711295440793 4.106757320696488 L 72.44711295440793 4.799867625329643 L 71.5347510505002 4.799867625329643 L 71.5347510505002 4.106757320696488 ZM 77.025295158308 4.106757320696488 L 77.025295158308 4.799867625329643 L 72.67490682378411 4.799867625329643 L 72.67490682378411 4.106757320696488 ZM 78.24921263564377 4.106757320696488 L 78.24921263564377 4.799867625329643 L 77.25308902768418 4.799867625329643 L 77.25308902768418 4.106757320696488 ZM 69.92927884195932 2.25 L 69.60680814562366 2.5734198374580592 L 70.68621888707392 3.649983155541122 L 64.98686373233795 3.649983155541122 L 64.98686373233795 5.256641790485009 L 78.70574951551855 5.256641790485009 L 78.70574951551855 3.649983155541122 L 73.17842618921772 3.649983155541122 L 74.25783693066798 2.5734198374580592 L 73.93512894905172 2.25 L 72.93710705884732 3.2454117521177976 C 72.87723887027714 2.642059239349801 72.4638707639025 2.5035921553720617 71.93220389550552 2.4863361394777894 C 71.36427733361462 2.501513128479928 71.01562044546304 2.6299345176485076 70.92730073216372 3.2454117521177976 L 69.92927884195932 2.25 Z"
     style="fill:#ffffff;stroke:none"
     id="path18" />
  <path
     d="M 65.01249063014984 10.252574443817139 L 65.01249063014984 15.749999650969414 L 65.93125926559927 15.749999650969414 L 65.93125926559927 10.252574443817139 ZM 71.3299737091254 10.260167572626624 L 71.3299737091254 15.749999650969414 L 72.24874234457482 15.749999650969414 L 72.24874234457482 10.260167572626624 ZM 77.76135488140858 10.260167572626624 L 77.76135488140858 15.749999650969414 L 78.6801227927208 15.749999650969414 L 78.6801227927208 10.260167572626624 Z"
     style="fill:#ffffff;stroke:none"
     id="path20" />
  <path
     d="M 21.39600372314453 0.375 L 21.39600372314453 17.625 "
     style="fill:none;stroke:#ffffff;stroke-width:1"
     id="path22" />
  <path
     d="M 21.39600372314453 0.375 L 24.02100372314453 0.375 "
     style="fill:none;stroke:#ffffff;stroke-width:1"
     id="path24" />
  <path
     d="M 21.39600372314453 17.625 L 24.02100372314453 17.625 "
     style="fill:none;stroke:#ffffff;stroke-width:1"
     id="path26" />
  <path
     d="M 24.02100372314453 0.375 L 78.70574951171875 0.375 "
     style="fill:none;stroke:#ffffff;stroke-width:1"
     id="path28" />
  <path
     d="M 24.02100372314453 17.625 L 78.70574951171875 17.625 "
     style="fill:none;stroke:#ffffff;stroke-width:1"
     id="path30" />
  <path
     d="M 78.70574951171875 0.375 L 96.33074951171875 0.375 "
     style="fill:none;stroke:#ffffff;stroke-width:1"
     id="path32" />
  <path
     d="M 78.70574951171875 17.625 L 96.33074951171875 17.625 "
     style="fill:none;stroke:#ffffff;stroke-width:1"
     id="path34" />
  <path
     d="M 80.46824951171874 0.375 L 80.46824951171874 17.625 "
     style="fill:none;stroke:#ffffff;stroke-width:1"
     id="path36" />
  <path
     d="M 83.99324951171874 0.375 L 83.99324951171874 17.625 "
     style="fill:none;stroke:#ffffff;stroke-width:1"
     id="path38" />
  <path
     d="M 85.75574951171876 0.375 L 85.75574951171876 17.625 "
     style="fill:none;stroke:#ffffff;stroke-width:1"
     id="path40" />
  <path
     d="M 87.51824951171875 2.1 L 96.33074951171875 2.1 "
     style="fill:none;stroke:#ffffff;stroke-width:1"
     id="path42" />
  <path
     d="M 87.51824951171875 5.550000000000001 L 96.33074951171875 5.550000000000001 "
     style="fill:none;stroke:#ffffff;stroke-width:1"
     id="path44" />
  <path
     d="M 87.51824951171875 2.1 L 87.51824951171875 5.550000000000001 "
     style="fill:none;stroke:#ffffff;stroke-width:1"
     id="path46" />
  <path
     d="M 89.28074951171874 3.825 L 96.33074951171875 3.825 "
     style="fill:none;stroke:#ffffff;stroke-width:1"
     id="path48" />
  <path
     d="M 87.51824951171875 7.275 L 96.33074951171875 7.275 "
     style="fill:none;stroke:#ffffff;stroke-width:1"
     id="path50" />
  <path
     d="M 87.51824951171875 10.725000000000001 L 96.33074951171875 10.725000000000001 "
     style="fill:none;stroke:#ffffff;stroke-width:1"
     id="path52" />
  <path
     d="M 87.51824951171875 7.275 L 87.51824951171875 10.725000000000001 "
     style="fill:none;stroke:#ffffff;stroke-width:1"
     id="path54" />
  <path
     d="M 89.28074951171874 9.000000000000002 L 96.33074951171875 9.000000000000002 "
     style="fill:none;stroke:#ffffff;stroke-width:1"
     id="path56" />
  <path
     d="M 87.51824951171875 12.450000000000001 L 96.33074951171875 12.450000000000001 "
     style="fill:none;stroke:#ffffff;stroke-width:1"
     id="path58" />
  <path
     d="M 87.51824951171875 15.900000000000002 L 96.33074951171875 15.900000000000002 "
     style="fill:none;stroke:#ffffff;stroke-width:1"
     id="path60" />
  <path
     d="M 87.51824951171875 12.450000000000001 L 87.51824951171875 15.900000000000002 "
     style="fill:none;stroke:#ffffff;stroke-width:1"
     id="path62" />
  <path
     d="M 89.28074951171874 14.175 L 96.33074951171875 14.175 "
     style="fill:none;stroke:#ffffff;stroke-width:1"
     id="path64" />
</svg>
