<?xml version="1.0" encoding="UTF-8" standalone="no"?>
<svg
   width="74.26197814941406"
   height="18.0"
   version="1.1"
   id="svg52"
   sodipodi:docname="khabaw.svg"
   inkscape:version="1.1.1 (3bf5ae0d25, 2021-09-20)"
   xmlns:inkscape="http://www.inkscape.org/namespaces/inkscape"
   xmlns:sodipodi="http://sodipodi.sourceforge.net/DTD/sodipodi-0.dtd"
   xmlns="http://www.w3.org/2000/svg"
   xmlns:svg="http://www.w3.org/2000/svg">
  <defs
     id="defs56" />
  <sodipodi:namedview
     id="namedview54"
     pagecolor="#ffffff"
     bordercolor="#666666"
     borderopacity="1.0"
     inkscape:pageshadow="2"
     inkscape:pageopacity="0.0"
     inkscape:pagecheckerboard="0"
     showgrid="false"
     inkscape:zoom="18.515532"
     inkscape:cx="37.130989"
     inkscape:cy="8.9924504"
     inkscape:window-width="1920"
     inkscape:window-height="1001"
     inkscape:window-x="-9"
     inkscape:window-y="-9"
     inkscape:window-maximized="1"
     inkscape:current-layer="svg52" />
  <path
     d="M 3.009169848917976 0.4739171748132039 C 3.7026715218272255 0.4739171748132039 4.256829318471649 0.6745946316238001 4.644164689284773 0.9526347441559112 C 4.650308145491952 1.0062515645085024 4.663546055856558 1.060016372992199 4.652575800812965 1.1124437372646898 C 4.603449882852364 1.360569519526529 4.457806885291136 1.5903185537666114 4.257258755698066 1.7432685981716125 C 3.9413649209170813 1.94997010496389 3.5600411988456018 2.009570228366613 3.2002765010963685 2.0993341831784433 C 3.10998720613517 2.1086036967312767 3.181170796374544 2.130187995961788 3.231117085890341 2.138585643286511 C 3.4609996992016763 2.1784200797833564 3.9384250002790258 2.2376030490926513 4.202499603977515 2.2376030490926513 C 4.220906351189456 2.2376030490926513 4.23827706337661 2.2373153403237978 4.254454894379272 2.2367137030214415 C 4.532424083629077 2.2049171597812043 4.794657162235626 2.0893111466595644 5.019856122452685 1.9255069464391237 C 5.098959498900698 1.8590524805074944 5.166930105007111 1.7763742399315428 5.224523825878929 1.6899990125400517 C 5.3720929131784425 2.0357255065676374 5.451951702305268 2.4028945713681713 5.485264503827336 2.6067978859799568 C 5.503366062427325 2.716651377223197 5.580895308140001 2.8061828973646232 5.687128818362978 2.8395020766672823 C 6.825504545072815 3.188508875845171 7.72511459117944 4.749370284342509 8.566494083211595 5.78895938641794 C 10.295861887830181 7.925728476871466 11.765759846336513 10.315234366846607 13.458892408638075 12.548598959980612 C 12.522122105814729 12.092922126930452 11.58844053850988 11.632519122248745 10.649618007621019 11.174801399409672 C 8.72850955219054 10.164475916823728 6.728271736761494 9.358727903879377 5.045088984609069 8.085161653353607 C 5.042277564439204 8.082822188947427 5.039490238107126 8.07909189594436 5.036677873080877 8.076750541825415 C 4.066833817400553 7.2693821001829235 3.0743602151151883 6.41700117284651 2.698420284718348 5.284299308721125 C 2.5498687829938245 4.364048874911361 4.455242072637431 2.7072382455000326 4.240437005069874 2.637638234559833 C 4.2215063349931405 2.631504463130588 4.200107227613845 2.6285180083156328 4.1764933768710275 2.6285180083156328 C 3.7176359210190495 2.6285180083156328 2.422621666796125 3.756154733581801 2.15731260823226 4.830105427765268 C 2.154053326136495 4.815773846136464 2.1461630666898484 4.79928090552982 2.143294246494671 4.785246481233707 C 2.0704243238243896 4.4287242943794265 1.9886595231574336 3.528875672035904 2.2105824300779164 2.8058581029827074 C 2.22090238771539 2.7720589366371007 2.223991359447983 2.7373940456298778 2.2217969304967107 2.702122556824284 C 2.206042867582163 2.411103719844335 2.16184012380912 2.2384220033632714 2.098435772391302 2.068493834598567 C 2.035031184759387 1.8985666106902463 1.9592064599630061 1.724220765903293 1.8376947401217505 1.3030929608462967 C 1.806828171777225 1.1953371688820418 1.6962380468757994 0.9753151948986268 1.630223411590808 0.9582419943653084 C 1.8161052441811285 0.8204882523408192 2.0045522437462973 0.6772958579179091 2.2750667523423678 0.5825507383579678 L 2.2750667523423678 0.5825507383579678 C 2.1960743965194465 0.658865194028754 2.1432944827087668 0.7691834365057539 2.143294246494671 0.8965614153126038 C 2.143294246494671 1.1261525404295507 2.3068791219270324 1.3115031275181046 2.5077709430296933 1.3115039542674405 C 2.7086627641323537 1.3115039542674405 2.8722476395647156 1.1261525404295507 2.8722476395647156 0.8965614153126038 L 2.8722476395647156 0.8937576721008572 C 2.871221053103765 0.7095976631093593 2.7627272101967493 0.5576299150223198 2.6171139756116095 0.5040481134094518 C 2.669879244148341 0.49667510377938745 2.7125253370291467 0.4854209784459994 2.771315482296895 0.4816187582507192 C 2.852317311433968 0.47642689052903053 2.9316148558688426 0.4739171748132039 3.009169848917976 0.4739171748132039 ZM 3.6797034804227042 8.23655977114829 C 3.744950774217038 8.301805883872143 3.8149797499554623 8.36067988514395 3.8815675587442495 8.424405723946341 C 4.0956495749641375 9.204198532028927 4.293931466520769 10.064938131364233 4.57407335302502 10.7290191024102 C 5.057193067313169 11.874268186883667 5.789626838872777 12.870430272277117 6.413278350114227 13.883144351801198 C 6.260634439177563 13.965039778863208 6.128536902733854 14.058336787907995 6.029175805418124 14.152295196421411 C 5.947669659186221 14.229370911069886 5.8940429178416 14.280530159968329 5.830115352201277 14.345748871857053 C 5.520950312157207 13.938784109671408 5.124019924767046 13.62317373180555 4.644164689284773 13.448575610364134 C 4.689085996337662 12.725628196897432 4.536026821020337 11.737052363409154 4.30492109112023 10.66173115504105 C 4.1263418173058595 9.830810278320685 3.903548933870034 9.003086795602949 3.6797034804227042 8.23655977114829 ZM 4.686219774497539 9.144947533060002 C 5.834593499032087 10.09035760265641 7.113542596376112 10.88336044784028 8.36182590735716 11.685069199744076 C 8.343845290374292 12.594861963098435 8.344411259348162 13.463187814338914 8.445936077782692 14.359767706022835 C 8.033305011863666 14.014385848361224 7.586775333464642 13.763462228240035 7.018870348864767 13.625206117887009 C 7.015369655962953 13.624345353721408 7.011953527707485 13.623977804588126 7.008598342688769 13.623977804588126 C 6.989090837789752 13.623977804588126 6.971640285238172 13.63639699689621 6.951581929067426 13.636421563162186 C 6.30326824892538 12.572860982202688 5.56863248956343 11.57684345983595 5.115180793297013 10.501922870574559 C 4.9594783822461315 10.132827952249835 4.822072170210292 9.651825188689491 4.686219774497539 9.144947533060002 ZM 5.092751320031232 14.399018929916807 C 5.256419815253556 14.551910865654206 5.4054203599744595 14.728454446389774 5.5329268392495 14.94012684261699 C 5.575655607063885 15.01022479287143 5.648728910070769 15.058380343325913 5.729183431147552 15.07470273735529 C 5.7494917018318015 15.078823256044847 5.769947370111917 15.080878318679517 5.790254695939782 15.080878318679517 C 5.850400001475933 15.080878318679517 5.909242822487076 15.062849514021076 5.9590844691583715 15.027040401933126 C 6.175000687833224 14.870724306660996 6.306688629034575 14.703258906060551 6.435707350951817 14.58125716007727 C 6.483312522562763 14.536239477673238 6.5327214250102985 14.500179978643592 6.584302079855896 14.463502543538969 L 6.732896336331785 17.185862440383506 C 6.519603983834621 17.172073206318977 6.298091380798784 17.15081393768448 6.095781566478202 17.15081393768448 C 5.831792472282443 17.15081393768448 5.600500133246544 17.18701327545892 5.462835502989748 17.323242668868794 C 5.2941143882552915 17.189184555428792 4.96598135630733 17.158607113137695 4.572329148140608 17.158607113137695 C 4.471105738892494 17.158607113137695 4.365550163124863 17.160629105798932 4.257258755698066 17.16343343954592 L 5.092751320031232 14.399018929916807 ZM 6.25066573190075 9.573908551859477 L 6.25066573190075 9.573908551859477 C 7.604791854990093 10.361226196182292 9.034522078910209 10.988295252963786 10.386072995925625 11.699088033909858 C 10.388108216576233 11.700135879639442 10.389620931646625 11.700891764746446 10.39167977370683 11.70189142280046 C 11.686891739128056 12.333365400043023 12.978365852695143 12.98273873661945 14.285973389014858 13.605581450796405 C 15.269975172749374 14.794761632832586 16.33790476962736 15.90056296328426 17.36439863465213 17.026055100773398 C 16.647556883137256 17.146248391638174 15.930830404101199 17.267532046769798 15.213987707729942 17.38772722734734 C 13.79219427743337 15.841645498618801 12.36859900601298 14.299348864563587 10.946807465429178 12.75326524612228 C 10.935631704122118 12.739913480563432 10.92370950627189 12.727994117282355 10.910359630425809 12.716818355975295 C 9.41106341039531 11.580038019269429 7.757799063206311 10.634765898705052 6.25066573190075 9.573908551859477 ZM 3.0756960058277225 0.0 C 2.9405269774945206 0.0 2.803378947465543 0.004522381611119117 2.664776311033773 0.013406474957975922 C 1.5799215017535755 0.08356273687650426 0.791815610992612 0.5394290283949892 0.5227751964622482 1.157302329475107 C 0.4821416476788419 1.2499492773278713 0.3773182175015722 1.4706424536648965 0.5155519465690093 1.4706424536648965 C 0.5301007861125528 1.4706424536648965 0.5473420529751317 1.468197873986025 0.5676338477261894 1.4629019539550754 C 0.6829407547488466 1.4484514385289664 0.7780652341468658 1.4423110531050352 0.8569417269557291 1.4423110531050352 C 1.2747371416542677 1.4423110531050352 1.236670413344381 1.614590378873667 1.3274274122155385 1.6367293088014427 C 1.417468209947809 1.9189504698851962 1.6165598434253194 2.483475939414473 1.630223411590808 2.7049261819289825 C 1.386425543994761 3.5656903475302664 1.4768830233922678 4.468266061611404 1.565739089326357 4.903000625343815 C 1.7153772939992473 5.635118342443057 2.1961816377190027 6.48697345720191 2.8273889292472503 7.283313535133207 C 2.8134251329658233 7.338127016095824 2.8086283333195925 7.393803623365002 2.8273889292472503 7.448729542237286 C 3.1285063912567783 8.370618829444675 3.4792571591049843 9.617610994177321 3.7301694409495667 10.785092549360554 C 3.981081959008245 11.952574104543789 4.12285718696257 13.061967778966503 4.046983802062425 13.608383894830625 C 4.025192579283871 13.758532912485983 4.121174397743101 13.900045942793815 4.26847325611686 13.936413465004566 C 4.312604663232929 13.947361515923141 4.352082652659003 13.967347118152338 4.39463851175516 13.981272411536127 L 3.4666249016823647 17.0596976571734 C 3.272728324816838 17.01836208009686 3.0724617624261277 17.00476559673462 2.874112549852153 17.00476559673462 C 2.4927394590346226 17.00476559673462 2.118454680808026 17.055030066637645 1.8101650502035056 17.055030066637645 C 1.6846506825065655 17.055030066637645 1.570075389592555 17.04669832304569 1.4704144184820296 17.023250767026415 C 1.4375472348519498 17.015217598051724 1.3949769666959404 17.011228414399508 1.3451441780532423 17.011228414399508 C 0.9090801423353627 17.011228414399508 -0.08308278674200893 17.316628674182503 0.004096926806725951 17.889582026440785 C 0.15548046576267507 17.76211712084663 0.26223299740795364 17.73138850153413 0.38031217211407353 17.73138850153413 C 0.49024007079753446 17.73138850153413 0.6099847320405954 17.758020223566664 0.7846967677297779 17.758020223566664 C 0.7935070810801064 17.758020223566664 0.8024571741217066 17.757952193907034 0.8115528340999292 17.75781046544947 C 1.066223518424995 17.75382506122279 1.509269747551208 17.674784045296107 1.865480722334089 17.674784045296107 C 2.0452727193170093 17.674784045296107 2.202943030001157 17.694920824546703 2.3031032396034496 17.755008021415254 C 2.5392046614185677 17.745578354705373 2.7523340261895344 17.741732789223487 2.951610851518261 17.741732789223487 C 3.8011631150558056 17.741732789223487 4.398956033000731 17.81162570564265 5.451620530142762 17.816688246146814 C 6.240002555181878 17.80960749240695 7.649068297561068 17.777941575561766 8.426310465835707 17.73818579835887 C 8.876011082258614 17.740893756754712 9.122960636429726 17.792010487115885 9.3482285711628 17.792010487115885 C 9.361538763040762 17.792010487115885 9.374772421551643 17.79183285411574 9.387968285807172 17.791454911562237 C 9.52192246504496 17.78755265469733 9.652878614977093 17.73516414764362 9.867871236536825 17.73516414764362 C 9.990853743446445 17.73516414764362 10.141335350548884 17.752305732157712 10.335607271612858 17.805472800871634 C 10.085930861918229 17.463682342324677 9.45939942841909 17.120327201606223 9.005599080147068 17.120327201606223 C 8.891079651866747 17.120327201606223 8.787560241606108 17.142193068039095 8.703873366840497 17.191469218164713 C 8.542968104112466 17.175166666119395 8.37234782804666 17.169161158944245 8.19567291227375 17.169161158944245 C 7.976734570455455 17.169161158944245 7.748496479680046 17.178384846962466 7.517922703923993 17.188666774130493 L 7.360917335919913 14.359767706022835 L 7.360917335919913 14.359767706022835 C 7.847890174541017 14.562401606083045 8.21758885609496 14.875619607585232 8.642193142108937 15.380301416978874 C 8.699664031650867 15.44654907746951 8.781797562521582 15.482110637184917 8.86545325702653 15.482110637184917 C 8.908499969014047 15.482110637184917 8.951950134677428 15.472694198464408 8.992650768264083 15.453197086985613 C 9.112446274591294 15.395810289661837 9.178901803486355 15.264291005324987 9.155264331333942 15.133579573196247 C 8.962827321367223 14.095116267502062 8.941800487403126 13.115423973733854 8.95339954437011 12.074779939505962 L 8.95339954437011 12.074779939505962 C 9.492870020957247 12.42841606253606 10.024760859633895 12.787106222362869 10.5290609470485 13.16820932046874 C 11.981769133365166 14.7479090393313 13.43605428498632 16.326704530634608 14.888761526446602 17.906404249497168 C 14.944628049848916 17.96747598671759 15.022539017540629 17.999999833159222 15.103714464038218 17.999999833159222 C 15.11983182423232 17.999999833159222 15.136078629750996 17.99871671819008 15.152306538141996 17.99612214256029 C 16.10156595264582 17.836959195003903 17.051571803692816 17.68146795935479 18.00083121819664 17.52230312208564 C 18.107373224028915 17.50503114739059 18.194878263441282 17.430652052861355 18.23073178377927 17.328851336362764 C 18.266587193830023 17.227046840438643 18.244059927928525 17.11188585467375 18.171855892794696 17.031661878554605 C 17.42994521170602 16.20143358156353 16.66326228594804 15.400856767607475 15.920510682677822 14.586862993002091 L 15.920510682677822 14.586862993002091 C 17.1897721675192 15.367626168590794 18.796164079222855 16.341928056689678 19.00015479305014 16.341928056689678 C 19.023265980196797 16.341928056689678 19.02837576352015 16.32942193759429 19.01295381762449 16.302708957912753 C 18.91865715052569 16.139381083416772 18.112724890586506 15.546881487147742 17.238233851442022 14.928911397341812 L 17.238233851442022 14.928911397341812 C 17.377197659226482 14.987001167815102 17.513576339944986 15.048752256775444 17.6531769809321 15.10554284972107 C 17.658199837468143 15.108767644558828 17.664787376175685 15.113841523339595 17.669999203988482 15.116757350139865 C 17.773049020626395 15.151233269870335 17.830042757694528 15.174751690118395 17.93915099346508 15.178437574871426 C 17.94233326976557 15.178545288499173 17.945553340321407 15.178605759307734 17.948841440536878 15.178605759307734 C 17.973745965099905 15.178605759307734 18.00257920250659 15.175098452411234 18.048493553618805 15.161615351815042 C 18.100470103289197 15.146353086648238 18.187842862807837 15.102794262500725 18.236338561560473 15.01021723402036 C 18.28483615002588 14.91764209525276 18.275225070890315 14.822594267328872 18.25876945211083 14.771906501765924 C 18.242311943618578 14.721218736202974 18.220873152271164 14.694878974793022 18.205498449194693 14.67377749717461 C 18.143995857463278 14.58936875213181 18.102465639971687 14.565463885622796 18.0428867758376 14.519575990489324 C 17.983304132277976 14.473685260786702 17.91481149301954 14.423448191718805 17.838219544839546 14.370981261585245 C 17.6850337587668 14.266046456461739 17.50165414209476 14.147847757423074 17.344773967561526 14.042952636267687 C 17.18789568274106 13.938058459968683 17.045392442943054 13.83638718879467 17.016744397387587 13.810248681794459 C 17.00804982894427 13.80148608369151 16.99842930124487 13.792621441099115 16.988708618768793 13.785015347209884 C 15.691415134734154 12.872117785778505 14.394182121508075 11.96102017575818 13.097218392351367 11.048637561055948 C 13.088896097323248 11.042752050641536 13.077870568181206 11.047937422475586 13.06918166887619 11.04302983841836 C 11.735590582003198 9.174366581424614 10.481460027291279 7.217504760432826 9.023491825486246 5.41607134214063 C 8.27915569806047 4.496387349732927 7.424659237280828 2.887723530854533 6.037586916946315 2.3516642220268507 C 5.970716123670593 1.9556564868954267 5.819659099030447 1.224570552967246 5.283400661719887 0.7031084485192504 C 4.8273005330098036 0.25959351157317057 4.167590467595091 0.05615587828814758 3.427373441574297 0.0106028092539796 C 3.3119162433330986 0.0034978361875914604 3.1945714582512528 0.0 3.0756960058277225 0.0 Z"
     style="fill:#ffffff;stroke:none"
     id="path2" />
  <path
     d="M 28.581819726432627 7.047680713299867 Q 28.631575194053596 7.047680713299867 28.68145376500007 7.048854313422556 Q 28.70706722221476 7.048552981826518 28.73264809325505 7.048552981826518 Q 30.60005819643112 7.048552981826518 32.29385857619394 8.654368337266568 L 31.245814793806687 9.501722742212237 Q 30.26467187573465 8.56517255553058 28.68145376500007 8.56517255553058 Q 27.098239999088747 8.56517255553058 26.11709074481613 9.501722742212237 L 25.069046871911727 8.654368337266568 Q 26.740872493417243 7.047680713299867 28.581819726432627 7.047680713299867 ZM 28.68145376500007 9.211839031309083 Q 30.443059456451977 9.234137931484504 31.580298839540916 11.062638513119651 L 25.76031015235241 11.062638513119651 Q 26.652263624889038 9.234137931484504 28.68145376500007 9.211839031309083 ZM 28.68145376500007 6.357591032981873 Q 25.916401367374547 6.469084741833908 24.02100372314453 8.632068712953938 L 25.604218937330273 9.969996206244346 Q 24.93525437603071 10.861948230506556 24.77916320626715 11.642408831474796 L 32.56144393002458 11.642408831474796 Q 32.40535180983093 10.861948230506556 31.736390235597355 9.992296735728488 L 33.208112216146105 8.654368337266568 Q 31.44650580055699 6.469084741833908 28.68145376500007 6.357591032981873 Z"
     style="fill:#ffffff;stroke:none"
     id="path4" />
  <path
     d="M 45.96143956066724 2.900056999839396 C 45.995321068662676 2.900056999839396 46.03264363934542 2.9072504032005497 46.073405840729336 2.921637209922858 C 46.22966130403088 2.9584030959948286 46.28480995414057 3.0549137259320185 46.23885250705147 3.2111690997344287 C 46.204384600732915 3.3352548154690984 46.136310127757234 3.397297762835567 46.03462837213136 3.397297762835567 C 46.00073469225376 3.397297762835567 45.96310710852382 3.390404181571856 45.92174562094155 3.376617019044434 C 45.76549015764001 3.3306592139588025 45.71034150753032 3.2295525797652154 45.75629823862635 3.0732971164636718 C 45.79706044001026 2.9578037202973437 45.86544064202621 2.900056999839396 45.96143956066724 2.900056999839396 ZM 37.82789076099705 2.927631414393374 C 37.86114720704367 2.927631414393374 37.89815653075894 2.934824817754528 37.93891909013939 2.9492116244768356 C 38.09517491143747 2.9951689373172323 38.15491952105398 3.09167988050139 38.11815327698548 3.2387443197806087 C 38.07679178940322 3.362829588019611 38.00440847014118 3.4248721773895454 37.90100367719591 3.4248721773895454 C 37.866535770877356 3.4248721773895454 37.82862071593041 3.417978596125834 37.78725922834814 3.404191433598412 C 37.63100304905353 3.3582336285127807 37.58044982145587 3.2571269943191936 37.635599187558626 3.10087153101765 C 37.66956750971362 2.9853781348513215 37.73366464119368 2.927631414393374 37.82789076099705 2.927631414393374 ZM 41.907982989903154 2.927631414393374 C 41.94186449789859 2.927631414393374 41.97918706858133 2.934824817754528 42.01994926996525 2.9492116244768356 C 42.17620473326679 2.9951689373172323 42.231354099369554 3.09167988050139 42.18539736827352 3.2387443197806087 C 42.1509287459619 3.362829588019611 42.08285427298622 3.4248721773895454 41.98117251736034 3.4248721773895454 C 41.94727883748274 3.4248721773895454 41.909651253752806 3.417978596125834 41.868289766170534 3.404191433598412 C 41.71203430286899 3.3582336285127807 41.65688493676624 3.2571269943191936 41.702842383855334 3.10087153101765 C 41.74360458523925 2.9853781348513215 41.81198478725519 2.927631414393374 41.907982989903154 2.927631414393374 ZM 39.535939481494175 6.381887213729158 C 39.91031972714461 6.381887213729158 40.29713068645417 6.524473295363051 40.69637200142629 6.809645816627371 C 40.255179220583436 7.0210506460316715 40.00241290359687 7.494413353439666 39.93807233447352 8.229733938851354 C 40.07401507442115 8.468805098419805 40.20517605466067 8.588340857202297 40.33155563318861 8.588340857202297 C 40.45297910769625 8.588340857202297 40.56998884293301 8.477997017433466 40.68258483889887 8.257308621902734 C 40.673560104266706 7.670699796822661 40.84175546797889 7.367643558689381 41.18717057203889 7.348139549506361 L 41.18717057203889 7.348139549506361 C 41.19057655106584 7.40283354401754 41.33259449219986 7.692102619623397 41.61322511143402 8.215946776323932 C 41.95790703859185 8.859352825553962 42.48412041635612 9.470588232225781 43.19186739270603 10.049653354335927 L 43.302165408918476 10.228887899178552 C 42.70471716477408 10.14616420802095 42.07739625782489 9.964632041421444 41.42020412005704 9.684290683386962 C 40.76301055030306 9.403949325352482 40.2390940783026 9.091437682756327 39.84845506205221 8.746756471591565 C 39.45781568780528 8.402074544433734 39.37509235464421 8.149308227447168 39.600284704572466 7.98845644664226 C 39.82547669650419 7.827605381830421 39.93807233447352 7.705818182843967 39.93807233447352 7.623094133689831 C 39.93807233447352 7.549562003549355 39.869136163839876 7.471434271898583 39.731263822572586 7.38871129673405 C 39.2808794807126 7.471434271898583 38.99824050092124 7.61620055242612 38.883346525201965 7.82300942232359 C 38.76845290747922 8.029818292221062 38.85347422039371 8.303266068991832 39.13841117993848 8.643352036642831 C 39.42334813948326 8.98343800429383 39.928881131452926 9.367183081283978 40.655010513844026 9.794588699599409 C 41.381139538238585 10.221993601921774 42.34624807508883 10.523016419740456 43.55033576639822 10.697654289083182 L 43.77093251481618 11.09748558234377 C 43.74665390585573 11.097948113866035 43.72227505786569 11.098179379627167 43.69779525485299 11.098179379627167 C 42.74918821025293 11.098179379627167 41.6499054363343 10.750968564951323 40.399945859107504 10.056546935599638 C 39.11773043614735 9.344204715735962 38.26981349677327 8.468713451307035 37.856195040985256 7.430072784316317 C 37.78266326884131 7.292199727055957 38.06070664712238 7.0279438692988485 38.69032517582845 6.63730521104499 C 38.96477426890554 6.467026665499946 39.24664570412745 6.381887213729158 39.535939481494175 6.381887213729158 ZM 43.67103572991012 6.376937553646479 C 44.03176162974735 6.376937553646479 44.40514628703601 6.498194917762228 44.791189701776105 6.74070928799719 C 44.35918883994691 6.998071564490589 44.08344415741233 7.48522179242254 43.96395493817929 8.20215961379651 C 44.1060050990014 8.443645817985079 44.240737810663234 8.564388741081096 44.368153073164784 8.564388741081096 C 44.488072604232 8.564388741081096 44.60151096604298 8.4574329805125 44.70846601061851 8.243521101378777 C 44.69927480759792 7.64607285723438 44.87391339293371 7.342753133651884 45.23238248261896 7.333561572634758 C 45.2599568076738 7.425476824809486 45.3978291489411 7.701222223337137 45.6460002224139 8.160798126214242 C 46.004469312099154 8.822586581485456 46.537576987120204 9.443013191177869 47.245323247477046 10.022078313288013 L 47.38319630473741 10.228887899178552 C 46.785748776586075 10.14616420802095 46.15842715364382 9.964632041421444 45.501233583889835 9.684290683386962 C 44.84404073012892 9.403949325352482 44.317827352364645 9.091437682756327 43.92259201861089 8.746756471591565 C 43.5273574008502 8.402074544433734 43.437740128428885 8.149308227447168 43.65374020134695 7.98845644664226 C 43.86974099025808 7.827605381830421 43.977741384713646 7.705818182843967 43.977741384713646 7.623094133689831 C 43.977741384713646 7.549562003549355 43.92259201861089 7.471434271898583 43.812294002398446 7.38871129673405 C 43.361910018535 7.471434271898583 43.079271038743634 7.61620055242612 42.96437706302436 7.82300942232359 C 42.84948308730508 8.029818292221062 42.932206778462685 8.303266068991832 43.21254813649716 8.643352036642831 C 43.49288877853858 8.98343800429383 43.99842284449785 9.367183081283978 44.729148186395776 9.794588699599409 C 45.45987209630756 10.221993601921774 46.42727897090776 10.523016419740456 47.63136666221715 10.697654289083182 L 47.617579499689725 10.697654289083182 L 47.83817553211462 11.09748558234377 C 47.8138962071611 11.097948113866035 47.78951950715027 11.098179379627167 47.76504256810984 11.098179379627167 C 46.81654936640767 11.098179379627167 45.71956278225979 10.750968564951323 44.47408281566619 10.056546935599638 C 43.19646335221286 9.344204715735962 42.35084331860259 8.468713451307035 41.93722486281458 7.430072784316317 C 41.863693806663704 7.292199727055957 42.14173682694824 7.030241849052263 42.77135535565431 6.644198792308701 C 43.06194830244386 6.466024633200553 43.36184199919349 6.376937553646479 43.67103572991012 6.376937553646479 ZM 49.05145442644459 10.807953021288698 C 49.19851797073248 10.807953021288698 49.50183841030804 11.000974012665678 49.961414313185145 11.387018143398842 L 48.92736996369779 11.235357923611062 C 48.88141180061563 11.005569972172507 48.922773288197895 10.863101671398386 49.05145442644459 10.807953021288698 ZM 44.94284992156389 10.82174018381612 C 45.12379568984028 10.83078747222994 45.43832142093818 11.022393661303523 45.8864271148576 11.396559467029942 L 45.8864271148576 11.396559467029942 L 44.92906275903647 11.207783598556217 C 44.86472218991312 11.005570688165577 44.86931814941995 10.876889549918877 44.94284992156389 10.82174018381612 ZM 47.51753951616996 6.377953189814175 C 48.0784957415911 6.377953189814175 48.78052551328888 6.680404413804554 49.623625967291034 7.285306503788781 C 50.85988394316209 8.17228730898825 51.84337631803966 8.873139988081384 52.57410165993758 9.38786454106818 C 53.304827001835505 9.902589810048044 53.56908142760648 10.210504777144301 53.36686923320891 10.311610874343087 C 53.29727613893489 10.312486533865886 53.228354646159154 10.312924005630752 53.16010618686782 10.312924005630752 C 51.79513556905505 10.312924005630752 50.699033236346786 10.13784794853009 49.871797756756905 9.787695118335698 C 49.00319935759862 9.420034109636786 48.37128392312873 9.061565019951534 47.976048589374976 8.712287849279942 C 47.58081468760736 8.363011394601418 47.49809028045669 8.1079467398649 47.7278767999091 7.947094959059993 C 47.95766475134765 7.786243178255085 48.072558727066934 7.669051580778928 48.072558727066934 7.595519808634986 C 48.072558727066934 7.5219876784945106 48.00362291442982 7.4438595888472046 47.86574985716946 7.361135897689603 C 47.415365873306015 7.4438595888472046 47.132727609507725 7.588626227371275 47.01783363378844 7.795435097268746 C 46.902939658069165 8.002243967166216 46.9856626332337 8.275691743936985 47.26600399126818 8.615777711587985 C 47.54634534930266 8.955863679238986 48.13230405267652 9.38786454106818 49.02388010138975 9.911780297075566 C 49.91545615010298 10.435696053082955 51.58371570379631 10.752802939192872 54.02865733048358 10.863101671398386 L 55.57283098944397 11.028549053713592 C 55.564635732781696 11.331758514363534 55.37926512734185 11.483362886691971 55.01671630915217 11.483362886691971 C 54.97262259202043 11.483362886691971 54.92590977224405 11.481120396401366 54.87657498585074 11.476635415820157 C 54.421594326487394 11.435273212244821 53.91376335476431 11.354847858837168 53.35308207068148 11.235357923611062 C 52.83244914289327 11.124403341754782 52.25633964016997 11.068925334833574 51.624754994497735 11.068925334833574 C 51.576169136854105 11.068925334833574 51.52725535438509 11.069253975652025 51.47801364709069 11.069910541295858 C 51.469175428652875 11.070028680152163 51.46028995467255 11.070087391583781 51.45135579316355 11.070087391583781 C 50.76338526135923 11.070087391583781 49.788781224434274 10.720751509480571 48.52753938643028 10.022078313288013 C 47.24991849099081 9.314332052931169 46.404299889366676 8.441139126252189 45.99068214957173 7.402498459261472 C 45.91715037742779 7.264625402001113 46.19519339771232 6.988880003473462 46.8248119264184 6.5752619056819865 C 47.02504368398844 6.44372288110229 47.255952880572295 6.377953189814175 47.51753951616996 6.377953189814175 ZM 47.893324182224305 10.256462224233397 C 48.18745270278621 10.440292728582854 48.42183732972466 10.564377907322722 48.596475199067385 10.628718476446071 L 48.706773931272906 11.5662519722484 C 48.25638994740946 10.941229403049158 47.9852390764025 10.504633297706203 47.893324182224305 10.256462224233397 ZM 39.75883814762743 10.284036549288242 C 40.05296666818933 10.467867053637699 40.28734986314164 10.591952232377567 40.46198809048091 10.656292801500916 L 40.57228646468989 11.593827013296314 C 40.1310943998401 10.968804444097072 39.85994460282275 10.532207622761048 39.75883814762743 10.284036549288242 ZM 43.83986832745329 10.284036549288242 C 44.13399613202212 10.467867053637699 44.36838004296751 10.591952232377567 44.54301934429637 10.656292801500916 L 44.653317360508815 11.593827013296314 C 44.20293337664537 10.968804444097072 43.931783221631484 10.532207622761048 43.83986832745329 10.284036549288242 ZM 51.67103535446074 11.414592468453687 C 51.57666890001593 11.53469457775338 51.42225067492821 11.594746348396294 51.20778354316985 11.594746348396294 C 51.1924641554758 11.594746348396294 51.17683832274841 11.594439903362966 51.160906044987705 11.593827013296314 L 51.14711888246028 11.42837963098111 L 51.67103535446074 11.414592468453687 ZM 47.67272814979941 11.469741118563377 C 47.58426004625307 11.582337472525772 47.44301179766771 11.638635291510436 47.24898340404332 11.638635291510436 C 47.22126588037477 11.638635291510436 47.19247007114504 11.637486122635462 47.16259884032638 11.63518850087858 L 47.14881167779895 11.469741118563377 ZM 48.01741007695724 11.455953956035954 L 48.48617646686187 12.352126680249086 C 48.16138196317526 13.331927394865358 47.81745755668392 14.069431759136034 47.454403247387866 14.564641921040316 L 47.454403247387866 14.564641921040316 C 47.451530683196964 14.334566140388217 47.46915556857165 14.04055074673114 47.507280767484204 13.682597172055223 C 47.59000517463488 12.905915099061266 47.5991956616624 12.467020655968362 47.534855092539054 12.365913842776507 C 47.31425906011416 12.200466460461303 47.27289757253189 12.10855085029004 47.41077062979225 12.090168444248857 C 47.58540849913498 12.071785322214605 47.737068718922764 12.025827875125508 47.86574985716946 11.952295386988498 C 47.94847426432013 11.77765751764577 47.99902767091606 11.612210135330566 48.01741007695724 11.455953956035954 ZM 43.27149083387694 11.46186304683045 C 43.49283865902378 11.46186304683045 43.72825574796704 11.478276471933205 43.977741384713646 11.51110403813178 L 44.432720612090854 12.37970100530393 C 44.10159171772704 13.378607994953661 43.750580411843494 14.125678026619763 43.37968669444021 14.62091038430917 L 43.37968669444021 14.62091038430917 C 43.37172341953213 14.3831963896021 43.389542339028395 14.07042484152207 43.433144168922055 13.682597172055223 C 43.52046310359342 12.905915099061266 43.51816548183654 12.43944561492045 43.426250587658345 12.283189435625838 L 43.01263284786341 11.469741118563377 C 43.096668238322536 11.464489309405781 43.182953994996026 11.46186304683045 43.27149083387694 11.46186304683045 ZM 46.589270970674285 15.237553686627521 L 46.589270970674285 15.237553686627521 L 46.589270970674285 15.237553686627521 C 46.589270970674285 15.237553686627521 46.589270970674285 15.237553686627521 46.589270970674285 15.237553686627521 ZM 41.33872196088025 15.242360864089566 L 41.33872196088025 15.242360864089566 C 41.33872196088025 15.242360864089566 41.33872196088025 15.242360864089566 41.33872196088025 15.242360864089566 L 41.33872196088025 15.242360864089566 C 41.33872196088025 15.242360864089566 41.33872196088025 15.242360864089566 41.33872196088025 15.242360864089566 ZM 42.47052299199186 15.256733708947037 L 42.47052299199186 15.256733708947037 L 42.47052299199186 15.256733708947037 C 42.47052299199186 15.256733708947037 42.47052299199186 15.256733708947037 42.47052299199186 15.256733708947037 ZM 46.38094491146462 2.25 C 46.301973023986065 2.25 46.217843122441884 2.2532826556121317 46.12855449083902 2.259847967338954 C 45.71493603505101 2.36095458335303 45.370254823886256 2.7378066608238343 45.0945094253586 3.390404181571856 C 44.54301934429637 3.868362400991013 43.96395350619316 4.429044580065173 43.35731405902817 5.0724506292952025 C 42.90173482945954 5.587688728310393 42.74697793965041 5.845307688318856 42.89304338960078 5.845307688318856 C 42.99452108720212 5.845307688318856 43.24119287118945 5.720965468067389 43.63305945755582 5.4722810275644544 C 44.35918883994691 4.929981970524547 44.862424568156236 4.571513059837562 45.14276521019765 4.396874116505231 C 45.294950252904655 4.302070190295559 45.45593843038912 4.25466840618899 45.6257304586441 4.25466840618899 C 45.76871284244142 4.25466840618899 45.91793796980316 4.288283027768136 46.073405840729336 4.355512628922964 C 45.53110624669463 5.31142960475608 45.24616892915331 5.964026499010167 45.21859532009154 6.313303669681758 C 44.69989628958139 5.991352732466769 44.196424283659454 5.8303770848610075 43.70818001831881 5.8303770848610075 C 43.19281035557727 5.8303770848610075 42.69440758058046 6.009735854501022 42.2129709773353 6.36845339378105 C 42.24054601838321 5.706664580513303 42.58063198603421 4.902407466471435 43.233228880288294 3.955681514660644 C 43.5273574008502 3.5604466284025547 43.51357023832278 3.1192542055562344 43.19186739270603 2.6321045593686514 C 43.09229280468081 2.4023168204905403 42.81718535597721 2.287422948254637 42.36654719457444 2.287422948254637 C 42.2764187031022 2.287422948254637 42.17926918360006 2.2920187371537435 42.075098636068006 2.3012103149519576 C 41.661480180279995 2.39312496860123 41.316798253122165 2.7653810753778125 41.041053570587586 3.417978596125834 C 40.48956313152882 3.895936726045858 39.910498009418674 4.456618905120018 39.30385820425715 5.100024954350046 C 38.848278974688526 5.615263411361772 38.69352208487939 5.872882371370235 38.839587892826295 5.872882371370235 C 38.94106487443457 5.872882371370235 39.18773701641843 5.7485401511187675 39.579603960781334 5.499855352619298 C 40.3057329851759 4.966747856596518 40.80896799739215 4.61057674666468 41.089309355426636 4.431342201822054 C 41.243299416659376 4.332889574935203 41.40630239863866 4.283663440490045 41.57831901735753 4.283663440490045 C 41.719460582975685 4.283663440490045 41.86667090584261 4.316804611652634 42.01994926996525 4.383086953977809 C 41.47765039192361 5.339003929810925 41.19730903388913 5.9961967835718415 41.17892662784794 6.354666231253629 C 40.63108811143517 6.0122672479947745 40.10479132047841 5.84106757736708 39.600035896981154 5.84106757736708 C 39.088550854632885 5.84106757736708 38.599185702143465 6.01686284950507 38.1319404395129 6.36845339378105 C 38.15951548056081 5.706664580513303 38.49960144821182 4.902407466471435 39.1521983424659 3.955681514660644 C 39.44632686302781 3.5604466284025547 39.43713530201068 3.1192542055562344 39.12462401741106 2.6321045593686514 C 39.01738937754227 2.4023168204905403 38.73781449008764 2.287422948254637 38.28589899705064 2.287422948254637 C 38.19551561204601 2.287422948254637 38.09823864577766 2.2920187371537435 37.99406774024908 2.3012103149519576 C 37.58044982145587 2.39312496860123 37.235768073296306 2.7653810753778125 36.96002267476866 3.417978596125834 C 36.41772361772875 3.895936726045858 35.83865867461687 4.456618905120018 35.22282744268692 5.100024954350046 C 34.76724846483461 5.615263411361772 34.614091847502095 5.872882371370235 34.763357596283086 5.872882371370235 C 34.86705804961609 5.872882371370235 35.116725548602105 5.7485401511187675 35.5123601379907 5.499855352619298 C 36.22929786986553 4.966747856596518 36.72793745956976 4.61057674666468 37.00827863860597 4.431342201822054 C 37.16226887883698 4.332889574935203 37.32527221881279 4.283663440490045 37.49728883753167 4.283663440490045 C 37.63843076114636 4.283663440490045 37.785641084013285 4.316804611652634 37.93891909013939 4.383086953977809 C 37.40581141511834 5.339003929810925 37.12776839483381 5.961728519256752 37.10478967128926 6.251261438308359 C 37.09189785809402 6.413696279787764 37.08406883188629 6.517547494411256 37.08130259266606 6.562815440175369 L 37.08130223466953 6.562815440175369 C 36.27432005100887 6.948805513431861 35.87082878018028 7.504445132322701 35.87082878018028 8.229733938851354 C 36.01279678079777 8.475811806588343 36.14745547667614 8.598850203462035 36.27480495731453 8.598850203462035 C 36.394807185581165 8.598850203462035 36.508319294678195 8.489598969115765 36.61534128460563 8.271095784430155 C 36.6061497235885 7.673647898282292 36.780788487922564 7.370327816703263 37.139257756606085 7.361135897689603 L 37.139257756606085 7.361135897689603 C 37.1208748135701 7.416285263792361 37.2702368746062 7.733392507898811 37.58734393971438 8.312457988005491 C 37.9044508258243 8.891523110115635 38.416877757054216 9.470588232225781 39.12462401741106 10.049653354335927 L 40.35169079026153 12.37970100530393 C 39.800199635209694 14.043363883497355 39.19356018804471 15.008471704354529 38.53177137477696 15.275027331847724 L 37.58045035845067 15.150941437114787 C 37.12087445557356 15.233665844265458 36.91406540667783 15.431282795149267 36.96002267476866 15.743793721752354 C 37.04849095731326 15.67428368267429 37.135872899374654 15.63952794714219 37.2221686799511 15.63952794714219 C 37.26139453920824 15.63952794714219 37.3003959346384 15.646709357619446 37.339172866241576 15.661070746587821 C 37.37566846493018 15.674587263735344 37.41713341351085 15.681346238302172 37.46356771198358 15.681346238302172 C 37.57501095910912 15.681346238302172 37.715078177127964 15.642417695166737 37.8837693660401 15.564559176909729 L 38.449047683619355 15.743793721752354 L 40.0483707086825 15.481836201745194 C 40.066754546709824 15.481070089161879 40.08469196305892 15.48068774886329 40.102181883740194 15.48068774886329 C 40.294564209300056 15.48068774886329 40.43288261424903 15.527026820257907 40.517137814580195 15.619707827019417 C 40.59066994472067 15.546175338882408 40.627436188789176 15.463452363717874 40.627436188789176 15.37153746953968 C 40.53552093661445 15.187707681183293 40.25517957857997 15.095792787005099 39.78641247268227 15.095792787005099 C 39.878327724857 14.608642559073147 40.103519716788725 14.057151762017845 40.46198809048091 13.441320395839195 C 40.82045753816269 12.825489029660545 40.99509612349849 12.398084127338182 40.9859049204779 12.159104972879037 C 40.80207441612844 11.524891200659203 40.73084026574138 11.14574065118975 40.77220175332365 11.02165547244988 C 40.81356395689898 10.897569577716943 40.861819025744964 10.835527346343543 40.91696839184772 10.835527346343543 C 41.06403265212867 10.835527346343543 41.367352375711164 11.028549053713592 41.8269275625952 11.414592468453687 C 42.28650346547231 11.800636599186854 42.612802270595886 12.122338728810531 42.805823977965936 12.37970100530393 C 42.971271360281136 12.600297037728822 43.04939909193191 13.160979753797784 43.04020717291825 14.061747005531608 C 43.03359211295819 14.710002833811258 42.84369714731837 15.108332689607158 42.47052299199186 15.256733708947037 L 42.47052299199186 15.256733708947037 L 41.64769301775257 15.150941437114787 C 41.52683123980719 15.173140086211182 41.42384064885206 15.203614183193533 41.33872196088025 15.242360864089566 L 41.33872196088025 15.242360864089566 C 41.32683217998441 15.23954271537187 41.31492879522026 15.236644375430501 41.30301180658782 15.233664412279321 C 41.08241505816985 15.233664412279321 40.972117041957404 15.403708470094424 40.972117041957404 15.743793721752354 L 41.03882325217915 15.727116811200386 L 41.03882325217915 15.727116811200386 C 41.03948697775367 15.732638549744811 41.040230894551854 15.738197519928802 41.041053570587586 15.743793721752354 C 41.05168105570363 15.734800848811743 41.062344340473096 15.726390794228905 41.07304414088906 15.718562126017707 L 41.07304414088906 15.718562126017707 L 41.36140820125631 15.64647021593456 L 41.36140820125631 15.64647021593456 C 41.378624970581946 15.649995765803952 41.39592551109659 15.654861654697616 41.41330982280026 15.661070746587821 C 41.45115721640223 15.674587263735344 41.49337717967365 15.681346238302172 41.53997114460066 15.681346238302172 C 41.576622113785135 15.681346238302172 41.61597882077555 15.677163406795877 41.658041265571896 15.668800607755564 L 41.658041265571896 15.668800607755564 C 42.05378925036271 15.722932547707954 42.36563287142594 15.74999851768415 42.59357212876157 15.74999851768415 C 42.7405891335 15.74999851768415 42.852701476148084 15.738738810688602 42.929909156705804 15.71621939669751 C 43.1505051891307 15.651877395588023 43.34352689650075 15.619707827019417 43.50897427881595 15.619707827019417 C 43.60088988898721 15.651877395588023 43.687634597217624 15.667962895865395 43.769209119500246 15.667962895865395 C 43.850783641782876 15.667962895865395 43.92718797811772 15.651877395588023 43.998422128504785 15.619707827019417 C 44.04178195274129 15.600125416595393 44.08280047964374 15.59033492737645 44.121477709212115 15.59033492737645 C 44.2098835213615 15.59033492737645 44.28605659193521 15.641488336163798 44.34999763692632 15.743793721752354 C 44.37475596124268 15.65026354721158 44.366169772364984 15.565789253001446 44.32423978628631 15.490370839121955 L 44.32423978628631 15.490370839121955 C 44.444840942754766 15.508376632809096 44.53615010679699 15.551488007450827 44.59816799440606 15.619707827019417 C 44.67170048254307 15.546175338882408 44.70846601061851 15.463452363717874 44.70846601061851 15.37153746953968 C 44.61655111644031 15.187707681183293 44.3362104743989 15.095792787005099 43.8674433685012 15.095792787005099 C 43.959358262679395 14.608642559073147 44.18225263285424 14.057151762017845 44.53612576303266 13.441320395839195 C 44.889998893211086 12.825489029660545 45.06693510030376 12.398084127338182 45.06693510030376 12.159104972879037 L 44.91527559650905 11.62140133835116 L 44.91527559650905 11.62140133835116 C 45.02557361272149 11.648975663406002 45.177233116516206 11.685741907474508 45.370254823886256 11.731699354563604 C 45.96770306803065 11.84199808676912 46.385916767332425 11.929317021440484 46.62489592179157 11.993657590563833 C 46.716810815969765 12.149913053865376 46.804129750641124 12.278594192112076 46.886854157791795 12.37970100530393 C 47.052301540106996 12.600297037728822 47.12813093400782 13.160979753797784 47.1143437714804 14.061747005531608 C 47.10482249565522 14.683850470990494 46.92979799005549 15.07578650868451 46.589270970674285 15.237553686627521 L 46.589270970674285 15.237553686627521 L 45.70114958851666 15.123367112059942 C 45.56089943426882 15.149127110679157 45.444715239040065 15.186027961444545 45.35259557084427 15.23407109634224 L 45.352594854851205 15.23407109634224 C 45.15296309947258 15.243404781983468 45.05314793777634 15.413314233101689 45.05314793777634 15.743793721752354 L 45.47857526724345 15.637435815395975 L 45.47857526724345 15.637435815395975 C 45.51118660353533 15.647575709232354 45.5468960418347 15.652644940157478 45.58570286614849 15.652644940157478 C 45.595861375804645 15.652644940157478 45.606231819409096 15.652296967526176 45.61681491295489 15.651602454249712 L 45.61681491295489 15.651602454249712 C 46.0710867391804 15.717198875215246 46.42368253772458 15.74999851768415 46.674603024580506 15.74999851768415 C 46.821620029318936 15.74999851768415 46.93373165597394 15.738738810688602 47.01094005252473 15.71621939669751 C 47.231536084949624 15.651877395588023 47.42455636033354 15.619707827019417 47.59000517463488 15.619707827019417 C 47.68192006881307 15.651877395588023 47.768664061050416 15.667962895865395 47.85023858333304 15.667962895865395 C 47.93181310561567 15.667962895865395 48.00821815794358 15.651877395588023 48.079452308330644 15.619707827019417 C 48.12281141657408 15.600125416595393 48.163403927600754 15.59033492737645 48.20122984141067 15.59033492737645 C 48.28769030039288 15.59033492737645 48.35969342733553 15.641488336163798 48.41724065422476 15.743793721752354 C 48.44809279554729 15.638896441255755 48.43596816892497 15.54539061047931 48.380866774357806 15.463276229423018 L 48.380866774357806 15.463276229423018 C 48.499899190013124 15.481559828420746 48.590151548286215 15.5245136845874 48.65162384917708 15.592133501964573 C 48.72515633731409 15.5186024458137 48.76192258138259 15.435878038663029 48.76192258138259 15.343963144484835 C 48.6700076872044 15.160133356128448 48.38966489718378 15.068217029964117 47.92089850727915 15.068217029964117 C 48.01281340145734 14.571876315004642 48.235707771632185 14.01808789619246 48.589581617803674 13.40685248952064 C 48.94345403198903 12.795617082848821 49.12039167106784 12.37050908629027 49.12039167106784 12.131529931831125 L 48.99630577633491 11.648975663406002 L 48.99630577633491 11.648975663406002 C 49.887883257034275 11.814423045721206 50.4485645411171 11.929317021440484 50.67835249255565 11.993657590563833 L 50.94031001256281 12.352126680249086 C 51.10575739487801 12.572722712673977 51.18158678877884 13.13340542874294 51.167799626251416 14.034172680476763 C 51.154931798823974 14.87488887756074 50.83980606553465 15.295248408088868 50.222422426383446 15.295248408088868 C 50.178324413293296 15.295248408088868 50.13268271914742 15.293103292855582 50.08550020791809 15.288814494375147 C 49.874096094506854 15.288814494375147 49.653498630095825 15.261240169320303 49.42371067865727 15.206090087224476 C 49.21230656524604 15.206090087224476 49.10660450854042 15.376132713053442 49.10660450854042 15.71621939669751 L 49.54779657339021 15.605920664491995 C 50.047041356235596 15.675582494100585 50.43262796739798 15.71041412489795 50.704553542905074 15.71041412489795 C 50.86317607929115 15.71041412489795 50.98312353408804 15.69856157564167 51.06439590729575 15.674857909115243 C 51.28499193972064 15.610517339991894 51.47801364709069 15.57834633943715 51.6434610294059 15.57834633943715 C 51.7383415668739 15.616298268027125 51.82771182168658 15.63527494831518 51.911573225830054 15.63527494831518 C 51.990193560711965 15.63527494831518 52.063972350464546 15.618596605777075 52.13290816310166 15.585239920700861 C 52.17652073289135 15.564136740999302 52.21733376978313 15.55358586714159 52.255347273777 15.55358586714159 C 52.34151274361498 15.55358586714159 52.41329534469253 15.607796566331517 52.47069650899578 15.71621939669751 C 52.562611403173975 15.394516551080763 52.27307955811197 15.183111005683394 51.60209954182363 15.082005624477675 C 51.49180224160425 14.907366323148812 51.47801364709069 14.429408014230521 51.56073662225522 13.648129265736667 C 51.6434610294059 12.86685123323588 51.6434610294059 12.402680086845013 51.56073662225522 12.25561582656406 L 51.47801364709069 12.090168444248857 L 51.47801364709069 12.090168444248857 C 51.49103469703479 12.090934556832174 51.504055746978906 12.091317613123833 51.51707679692301 12.091317613123833 C 51.66031121028045 12.091317613123833 51.80354562363789 12.044977109743076 51.94678003699532 11.952295386988498 L 52.13980174436537 11.469741118563377 C 52.47069650899578 11.506507362631881 52.92797550610907 11.582336756532705 53.51163587173298 11.697231448245049 C 54.09529623735689 11.812125423964327 54.57784978978894 11.924721061933653 54.959297961015274 12.03501836215303 C 55.10234048823035 12.076380565728366 55.24053717435768 12.0970613095195 55.37388658741113 12.0970613095195 C 55.59613369985203 12.0970613095195 55.80491727863247 12.03961503765293 56.00023589176634 11.924721061933653 C 56.3035563313419 11.244549842624721 56.344917818924166 10.812548980795528 56.12432178649928 10.628718476446071 C 55.168405168662694 10.527611663254218 54.288317944726934 10.13697228900729 53.484060114692 9.45680035370529 C 52.67980371664319 8.776629134396359 51.50788630989548 7.887350707440008 49.968307894448856 6.788965072836237 C 49.077364783608196 6.15333757230261 48.28877001794021 5.835524001034064 47.60252073347261 5.835524001034064 C 47.102909362176135 5.835524001034064 46.657544489723016 6.003975332268244 46.26642683210632 6.340878710729672 L 46.26642683210632 6.340878710729672 C 46.29400187315423 5.669898336444798 46.63408784080523 4.86564122240293 47.28668473505932 3.9281071896057993 C 47.580813255621216 3.523680742330584 47.567026093093794 3.0824881404859967 47.245323247477046 2.6045294288216048 C 47.142903302997524 2.368176469813441 46.85477623633596 2.25 46.38094491146462 2.25 Z"
     style="fill:#ffffff;stroke:none"
     id="path6" />
  <path
     d="M 21.39600372314453 0.375 L 21.39600372314453 17.625 "
     style="fill:none;stroke:#ffffff;stroke-width:1"
     id="path8" />
  <path
     d="M 21.39600372314453 0.375 L 24.02100372314453 0.375 "
     style="fill:none;stroke:#ffffff;stroke-width:1"
     id="path10" />
  <path
     d="M 21.39600372314453 17.625 L 24.02100372314453 17.625 "
     style="fill:none;stroke:#ffffff;stroke-width:1"
     id="path12" />
  <path
     d="M 24.02100372314453 0.375 L 56.2619743347168 0.375 "
     style="fill:none;stroke:#ffffff;stroke-width:1"
     id="path14" />
  <path
     d="M 24.02100372314453 17.625 L 56.2619743347168 17.625 "
     style="fill:none;stroke:#ffffff;stroke-width:1"
     id="path16" />
  <path
     d="M 56.2619743347168 0.375 L 73.8869743347168 0.375 "
     style="fill:none;stroke:#ffffff;stroke-width:1"
     id="path18" />
  <path
     d="M 56.2619743347168 17.625 L 73.8869743347168 17.625 "
     style="fill:none;stroke:#ffffff;stroke-width:1"
     id="path20" />
  <path
     d="M 58.0244743347168 0.375 L 58.0244743347168 17.625 "
     style="fill:none;stroke:#ffffff;stroke-width:1"
     id="path22" />
  <path
     d="M 61.54947433471679 0.375 L 61.54947433471679 17.625 "
     style="fill:none;stroke:#ffffff;stroke-width:1"
     id="path24" />
  <path
     d="M 63.311974334716794 0.375 L 63.311974334716794 17.625 "
     style="fill:none;stroke:#ffffff;stroke-width:1"
     id="path26" />
  <path
     d="M 65.0744743347168 2.1 L 73.8869743347168 2.1 "
     style="fill:none;stroke:#ffffff;stroke-width:1"
     id="path28" />
  <path
     d="M 65.0744743347168 5.550000000000001 L 73.8869743347168 5.550000000000001 "
     style="fill:none;stroke:#ffffff;stroke-width:1"
     id="path30" />
  <path
     d="M 65.0744743347168 2.1 L 65.0744743347168 5.550000000000001 "
     style="fill:none;stroke:#ffffff;stroke-width:1"
     id="path32" />
  <path
     d="M 66.8369743347168 3.825 L 73.8869743347168 3.825 "
     style="fill:none;stroke:#ffffff;stroke-width:1"
     id="path34" />
  <path
     d="M 65.0744743347168 7.275 L 73.8869743347168 7.275 "
     style="fill:none;stroke:#ffffff;stroke-width:1"
     id="path36" />
  <path
     d="M 65.0744743347168 10.725000000000001 L 73.8869743347168 10.725000000000001 "
     style="fill:none;stroke:#ffffff;stroke-width:1"
     id="path38" />
  <path
     d="M 65.0744743347168 7.275 L 65.0744743347168 10.725000000000001 "
     style="fill:none;stroke:#ffffff;stroke-width:1"
     id="path40" />
  <path
     d="M 66.8369743347168 9.000000000000002 L 73.8869743347168 9.000000000000002 "
     style="fill:none;stroke:#ffffff;stroke-width:1"
     id="path42" />
  <path
     d="M 65.0744743347168 12.450000000000001 L 73.8869743347168 12.450000000000001 "
     style="fill:none;stroke:#ffffff;stroke-width:1"
     id="path44" />
  <path
     d="M 65.0744743347168 15.900000000000002 L 73.8869743347168 15.900000000000002 "
     style="fill:none;stroke:#ffffff;stroke-width:1"
     id="path46" />
  <path
     d="M 65.0744743347168 12.450000000000001 L 65.0744743347168 15.900000000000002 "
     style="fill:none;stroke:#ffffff;stroke-width:1"
     id="path48" />
  <path
     d="M 66.8369743347168 14.175 L 73.8869743347168 14.175 "
     style="fill:none;stroke:#ffffff;stroke-width:1"
     id="path50" />
</svg>
