<?xml version="1.0" encoding="UTF-8" standalone="no"?>
<svg
   width="65.92644500732422"
   height="18.0"
   version="1.1"
   id="svg28"
   sodipodi:docname="khafra.svg"
   inkscape:version="1.1.1 (3bf5ae0d25, 2021-09-20)"
   xmlns:inkscape="http://www.inkscape.org/namespaces/inkscape"
   xmlns:sodipodi="http://sodipodi.sourceforge.net/DTD/sodipodi-0.dtd"
   xmlns="http://www.w3.org/2000/svg"
   xmlns:svg="http://www.w3.org/2000/svg">
  <defs
     id="defs32" />
  <sodipodi:namedview
     id="namedview30"
     pagecolor="#ffffff"
     bordercolor="#666666"
     borderopacity="1.0"
     inkscape:pageshadow="2"
     inkscape:pageopacity="0.0"
     inkscape:pagecheckerboard="0"
     showgrid="false"
     inkscape:zoom="20.856577"
     inkscape:cx="32.939249"
     inkscape:cy="8.9899698"
     inkscape:window-width="1920"
     inkscape:window-height="1001"
     inkscape:window-x="-9"
     inkscape:window-y="-9"
     inkscape:window-maximized="1"
     inkscape:current-layer="svg28" />
  <path
     d="M 1.2190420140847793 0.0 C 0.970800706632417 0.0 0.7230423028937335 0.01893070358296025 0.48290982680079 0.048905678499779795 C 0.15187998957905166 0.13255188916498697 0.3219916247400915 0.5118521231009919 0.6158947927962716 0.5118521231009919 C 0.6355981423211179 0.5118521231009919 0.6558578408244597 0.5101473851910305 0.6765601864318946 0.5065345630073116 C 1.2976180869590601 0.5780119512905144 2.0622053316712337 0.6175539511807123 2.531371224901928 0.9695623988344474 C 3.1537543888207784 1.6479367557428735 2.8741262715941502 3.0576933712068692 2.94658764204448 3.7269297850416896 C 2.951782632395561 3.7629649381631523 2.953952713884158 6.430591781037886 2.953952713884158 7.782422252231933 C 2.352510186605274 7.494257626556917 1.67335422808609 7.349215125535265 1.0039192969246102 7.349215125535265 C 0.7063920462481148 7.349215125535265 0.41078504023889434 7.377865539465801 0.12477432975315178 7.4353349446232855 C -0.20149863151174055 7.606724672263251 0.18154647682350566 7.8266562324049085 0.4376378670454302 7.8266562324049085 C 0.4681373192956425 7.8266562324049085 0.4968360674978842 7.823536850015894 0.5223214865886322 7.816844331348357 C 1.429843884416301 7.914926816832979 2.4617098179841825 8.158078494744517 2.9226503683594482 9.002292523011262 C 2.9681809889039896 9.155077638776014 2.9396896697969415 9.207577525716367 2.870237404087557 9.207577525716367 C 2.717627362869183 9.207577525716367 2.3672466519332462 8.954092059534803 2.1698535251191053 8.954092059534803 C 2.1594948014573196 8.954092059534803 2.1495575210365625 8.954790250504107 2.140092081444407 8.956259682604495 C 1.7610785167129768 8.874396440250864 1.3638924072290621 8.831466124503471 0.9703996331480379 8.831466124503471 C 0.6822712691518855 8.831466124503471 0.39612316158451694 8.854483949517657 0.1205398348885778 8.90208807080806 C -0.19080937123302597 9.107627344268586 0.19133570335568265 9.296978982841198 0.44461121617263977 9.296978982841198 C 0.47243301123084086 9.296978982841198 0.4986997685303211 9.294694058069421 0.5223214865886322 9.289895224364907 C 1.44862453664532 9.401605077048192 2.473672484380784 9.652726246647584 2.9226503683594482 10.498359836231193 C 2.9277747669676573 11.438445880183364 2.9223641381582497 12.059730482053933 2.9475081443234266 12.924290385186742 C 2.9366830234749024 13.190445840004433 3.1097205941872907 13.32271720601211 3.2850258807391146 13.32271720601211 C 3.4589948410141766 13.32271720601211 3.635197450466691 13.192454719453337 3.636159394664339 12.93350313443563 C 3.6297524037925992 12.081649745019838 3.5689455193688686 11.333930766029841 3.680643079957625 10.507654766912083 C 3.905950499841305 9.580679119782916 5.51430012614692 9.438421656179063 6.5132119200872856 9.209440304841713 C 6.73117182826633 8.953197897458422 6.302254993763335 8.858046549715155 6.0257896324592775 8.858046549715155 C 5.984500135730289 8.858046549715155 5.946610983551 8.860169218839136 5.914784994799312 8.86419400179096 C 5.786745621336966 8.854375779085794 5.657882677541108 8.84931073373403 5.528823762638173 8.84931073373403 C 4.87588245171773 8.84931073373403 4.21792069818853 8.978947377079876 3.636159394664339 9.278489565451865 C 3.6124626948293947 8.719755569414783 4.162693019870619 8.398265319455419 4.5568162027996815 8.173701395689454 C 5.178845705598769 7.90617273831141 5.863655500797704 7.879904181098088 6.5132119200872856 7.736389411825166 C 6.745102634598536 7.535056141910107 6.380132787867637 7.365650007124583 6.127413645979344 7.365650007124583 C 6.0940901289112 7.365650007124583 6.06271789404902 7.368595192973972 6.034923712303174 7.3748016471035225 C 5.875700348626306 7.359480780481324 5.715556482670491 7.35166300836024 5.555429474444318 7.35166300836024 C 4.887519202007935 7.35166300836024 4.219896213380853 7.487670468699637 3.6205083975033348 7.782422252231933 C 3.6327889023442115 5.672151988401518 3.6669749732456607 3.6298724602408705 3.6064121746990256 1.633623314068084 C 3.557780785508615 1.016382811297887 3.202148013782708 0.4498605441665941 2.6039100355477967 0.2652764822581205 C 2.1742288083663857 0.06980961445750675 1.6957449806778964 0.0 1.2190420140847793 0.0 Z"
     style="fill:#ffffff;stroke:none"
     id="path2" />
  <path
     d="M 3.29314921521244 15.21501288860129 C 4.074491287174412 15.21501288860129 5.052497037940845 15.616391919330065 5.5257419749406465 16.089636856329868 C 5.939782214238027 16.503676744424546 5.993910276899555 17.05261639954012 6.009086799211701 17.562687749346416 L 0.6002280514165623 17.562687749346416 C 0.615404749330059 17.05261639954012 0.6695328119915868 16.503676744424546 1.0835728756876173 16.089636856329868 C 1.5568179882887687 15.616391919330065 2.5118074944531683 15.21501288860129 3.29314921521244 15.21501288860129 ZM 3.29314921521244 14.777700904737003 C 2.3662267752924526 14.777700904737003 1.3688759017560481 15.205906904973462 0.7843594130436309 15.79042339368588 C 0.1848327417701466 16.38995028583294 0.11688322714550736 17.179222163577567 0.11688322714550736 17.769835531176867 L 0.11688322714550736 17.999999733210704 L 6.469415203279373 17.999999733210704 L 6.469415203279373 17.769835531176867 C 6.469415203279373 17.179222163577567 6.42448232973169 16.38995028583294 5.824955437584633 15.79042339368588 C 5.240439300074916 15.205906904973462 4.220071830733778 14.777700904737003 3.29314921521244 14.777700904737003 Z"
     style="fill:#ffffff;stroke:none"
     id="path4" />
  <path
     d="M 19.59558827849137 2.2331113889984504 Q 20.011497239301697 2.2331113889984504 20.406868373464476 2.6849636002931274 Q 17.14505908393548 6.568070899826414 16.329606932707488 7.024335296803508 Q 15.721254175199014 7.364724151693918 15.258781670883675 7.364724151693918 Q 15.101344397401952 7.364724151693918 14.960813057159163 7.325276517725049 Q 14.407469963604743 7.169951972435412 13.776464255096982 7.150536917736989 Q 13.760688966903167 7.150051524254103 13.744834947749503 7.150051524254103 Q 13.12652956999073 7.150051524254103 12.38825395561615 7.88832679632016 L 12.291175943655867 7.88832679632016 Q 12.815395428237089 6.665148911786697 13.75704954270708 6.140928742588433 Q 14.698701945634467 5.6167096003157315 19.2807685008913 2.2966530928403377 Q 19.439622247033235 2.2331113889984504 19.59558827849137 2.2331113889984504 ZM 13.822576293662692 0.46382689862325743 Q 13.87160069312572 0.46382689862325743 13.922081273037408 0.4715931515608784 L 13.922081273037408 5.461385397334616 Q 12.38825395561615 6.354500505824466 11.805788280014095 7.965988384347936 Q 12.698902703886905 1.79184917642032 13.058089773520756 1.0928900062739073 Q 13.381357725420997 0.46382689862325743 13.822576293662692 0.46382689862325743 ZM 9.823471846940608 8.280349468529765 Q 9.763159224955167 8.280349468529765 9.708909828226425 8.383422671928184 Q 9.611832586460313 8.567870141573977 9.883650198408658 8.897933602234632 Q 10.038974144658383 8.4902085535462 9.922481420308197 8.344591877914295 Q 9.871087133376625 8.280349468529765 9.823471846940608 8.280349468529765 ZM 9.850515161454094 8.003054920244196 Q 9.964842185368557 8.003054920244196 10.097221020296256 8.179560147583969 Q 10.388454200405805 8.567870141573977 9.922481420308197 9.732803546629212 Q 9.398261764572714 8.723195371480656 9.602124802379711 8.257221735611745 Q 9.713322784103013 8.003054920244196 9.850515161454094 8.003054920244196 ZM 14.931688078951879 9.926958201315696 L 14.931688078951879 10.218190867962463 Q 14.718118369566973 10.198775813264039 14.601625302908268 10.082282061988291 Q 14.640456096922156 10.024035528658937 14.756948478963821 9.926958201315696 ZM 15.378245975505326 10.587085807254049 L 17.183890562566404 10.839488364503968 L 17.552786186475032 11.499616655059363 Q 16.931489374550573 11.32487637045426 16.183991626309666 11.033644388424536 Q 15.43649319345172 10.742411037160727 15.378245975505326 10.587085807254049 ZM 11.39806151978306 10.315268879922746 L 11.747541404376221 10.490008479910806 L 11.864034128726408 11.32487637045426 L 11.553386065072697 12.276239381507548 L 11.067997716813883 12.276239381507548 L 11.39806151978306 11.32487637045426 L 11.39806151978306 10.315268879922746 ZM 12.232929752635034 10.606502231186555 L 12.562994240221252 10.703579558529796 L 12.679486964571439 11.32487637045426 L 12.368838216300684 12.276239381507548 L 11.883450552658914 12.276239381507548 L 12.21351435562809 11.32487637045426 L 12.232929752635034 10.606502231186555 ZM 13.37844604914072 10.72299461322822 L 13.494939115799427 11.32487637045426 L 13.184290367528675 12.276239381507548 L 12.698902703886905 12.276239381507548 L 13.028966164547558 11.32487637045426 L 13.028966164547558 10.742411037160727 L 13.37844604914072 10.72299461322822 ZM 12.635970993829574 8.307902566008263 Q 12.94616549869286 8.307902566008263 13.300783776495901 8.383422671928184 Q 14.349222745658347 8.606700935587865 14.621040357606692 9.441570195365404 L 15.43649319345172 9.441570195365404 L 15.747140914796912 8.936765765482605 Q 19.863233149567787 9.888126722684765 20.387455372617175 12.373316708850789 Q 19.261352076958786 11.752018527692242 18.018759137726903 11.538448133690293 L 17.475123229213175 10.451177001279875 L 15.319998757558931 10.159943650016068 L 15.378245975505326 9.635724850051886 L 14.640456096922156 9.635724850051886 Q 13.825002918768604 10.30727392210448 12.976631641685719 10.30727392210448 Q 12.794837747695311 10.30727392210448 12.611532561584353 10.276437401291815 Q 11.572801804388162 10.101698485920798 11.252445186459676 9.567771131681843 Q 10.93208856853119 9.033843092825846 11.592216516778063 8.596994435164216 Q 12.029066885982298 8.307902566008263 12.635970993829574 8.307902566008263 ZM 14.014203342229544 0.0 Q 13.306659502260182 0.0 12.902764885922597 0.4910087625106481 Q 12.407668668006053 1.0928900062739073 11.980527880002157 3.655740467965014 L 11.300984192439817 8.101897190322108 Q 10.97091987600786 8.451378444149354 10.7961802760198 8.4902085535462 L 10.563193800393865 8.4902085535462 Q 10.543778232232661 8.004819862978866 10.194298176485239 7.597094129673393 Q 9.883650198408658 4.626517849099683 10.466115788433582 2.3937311048006213 L 10.233129483961907 1.9471738928642175 Q 9.398261764572714 4.471192276884482 9.825403408347913 7.616509184371816 L 9.767156618287169 7.616509184371816 Q 8.427485014569381 4.607101425167175 9.378846196411509 1.9471738928642175 L 9.145859806362706 1.5976940082710553 L 9.145859806362706 1.5976940082710553 Q 7.90326545510817 4.4323618251791155 9.41767741831105 7.752417990345988 Q 8.99053577453585 8.684363892849726 9.330307190431368 9.286245650075767 Q 9.670079376521057 9.888126722684765 9.747741050125965 10.412346207265987 L 9.883650198408658 10.509424219226272 Q 10.407869083949969 9.732803546629212 10.485531356594787 9.16975258341706 L 10.679686695898312 9.16975258341706 Q 10.699102264059515 9.616309110736422 10.93208856853119 10.101698485920798 L 11.067997716813883 11.32487637045426 L 10.737933400381925 12.276239381507548 L 9.048781837190987 12.276239381507548 L 9.048781837190987 12.742211648142375 L 13.922081273037408 12.742211648142375 L 13.922081273037408 12.276239381507548 L 13.51435451280637 12.276239381507548 L 13.825003261077125 11.32487637045426 L 13.84441900039259 10.606502231186555 Q 14.19389820036871 10.490008479910806 14.368638484973811 10.33468393462117 Q 14.621040357606692 10.567671437172667 14.931688078951879 10.567671437172667 Q 14.912273708870499 10.76182609185915 15.009351720830782 10.89773421321628 Q 15.785971708810798 11.499616655059363 17.78577231979245 11.946173182378724 L 18.465315665046262 13.266429763489512 Q 18.465315665046262 12.942390932799807 18.666445882775246 12.942390932799807 Q 18.73044046079052 12.942390932799807 18.81479623425647 12.97519504299162 L 18.27116032574274 12.00442040032512 L 18.27116032574274 12.00442040032512 Q 19.39726088293296 12.256823642192083 19.97972758546058 12.645134320799134 Q 20.290376676039852 12.97519504299162 19.94089679144669 13.44116867886053 Q 20.71751746404375 13.11110658743396 20.814596160621075 12.509224145590878 Q 20.503945700807716 9.577479001339576 15.552985575493386 8.431961335599805 L 15.203506375517266 9.014428722744466 L 14.892857284937993 9.014428722744466 Q 14.640456096922156 8.198975202282393 12.893057700881908 7.88832679632016 Q 13.283009064230479 7.599008318923254 13.852256838599681 7.599008318923254 Q 14.161630487629424 7.599008318923254 14.523962345646407 7.684463587358902 Q 14.891470935427632 7.771140212597752 15.241644337084495 7.771140212597752 Q 15.87195550160299 7.771140212597752 16.446100683983236 7.490308248055377 Q 17.339214423239 7.053458905776705 20.989335075992095 2.665548716748965 Q 20.31660024722249 1.8173165880798985 19.56675152405883 1.8173165880798985 Q 19.321111613951302 1.8173165880798985 19.067196737655266 1.9083427565418083 L 14.349222745658347 5.286645797346556 L 14.349222745658347 0.025035944973045218 Q 14.173971736739798 0.0 14.014203342229544 0.0 Z"
     style="fill:#ffffff;stroke:none"
     id="path6" />
  <path
     d="M 14.787816725437374 15.285542133461169 C 15.549371373096287 15.285542133461169 16.502609207919512 15.676756272943992 16.963869255453197 16.13801632047768 C 17.367423959429352 16.541570682145313 17.42018123331472 17.07660848522664 17.434973411436005 17.573762319663377 L 12.163093570676018 17.573762319663377 C 12.177885919951562 17.07660848522664 12.230643193836931 16.541570682145313 12.634197726658826 16.13801632047768 C 13.095457945346773 15.676756272943992 14.02626242008698 15.285542133461169 14.787816725437374 15.285542133461169 ZM 14.787816725437374 14.859305039952915 C 13.884368520776045 14.859305039952915 12.912275476840618 15.276666758126694 12.34256182057423 15.846380414393082 C 11.758218113396996 16.430724336850286 11.69198941469321 17.200007968606588 11.69198941469321 17.775664100798863 L 11.69198941469321 17.99999941317163 L 17.883644036181536 17.99999941317163 L 17.883644036181536 17.775664100798863 C 17.883644036181536 17.200007968606588 17.839849083994995 16.430724336850286 17.25550516153779 15.846380414393082 C 16.685791847579925 15.276666758126694 15.691265101252963 14.859305039952915 14.787816725437374 14.859305039952915 Z"
     style="fill:#ffffff;stroke:none"
     id="path8" />
  <path
     d="M 35.06272315915353 4.629696988831469 C 34.55182770314496 4.670030345159319 34.26949095023257 4.925477892129301 34.21571271938207 5.39603908663851 C 34.282935643720926 5.906934904715683 34.56527239663331 6.175827326208321 35.06272315915353 6.202716713185026 C 35.560173921673744 6.175827326208321 35.8223438153879 5.906934904715683 35.8492324782274 5.39603908663851 C 35.80889912189955 4.925477892129301 35.54672922818539 4.670030345159319 35.06272315915353 4.629696988831469 ZM 35.123223374679604 2.9356750230827373 C 35.486228288522106 2.9356750230827373 35.82234417745651 3.0028982189730478 36.1315703173456 3.1373446107536687 C 36.440796095166085 3.2717910025342896 36.713049237445055 3.4566544517933266 36.94832974418251 3.691935139565082 C 37.183610612988566 3.9272158273368376 37.368474152764755 4.196108067795173 37.50292036351107 4.498611498871483 C 37.63736621218879 4.801115110982096 37.70458895549334 5.1204246804703 37.70458895549334 5.456540388370399 C 37.70458895549334 5.806100246655944 37.63736621218879 6.132132162888325 37.50292036351107 6.4346361370675424 C 37.368474152764755 6.737139749178155 37.183610612988566 7.002671087815855 36.94832974418251 7.2312294288434344 C 36.713049237445055 7.4597877698710136 36.440796095166085 7.637928781868723 36.1315703173456 7.765653188973772 C 35.82234417745651 7.893376871941612 35.486228288522106 7.95723853239123 35.123223374679604 7.95723853239123 C 34.76021900394001 7.95723853239123 34.42074275628788 7.893376871941612 34.104794450688914 7.765653188973772 C 33.78884560198704 7.637928781868723 33.51659209763947 7.4597877698710136 33.28803402816334 7.2312294288434344 C 33.059475325067154 7.002671087815855 32.87797313969736 6.737139749178155 32.74352738153679 6.4346361370675424 C 32.609081035014746 6.132132162888325 32.54185783912444 5.806100246655944 32.54185783912444 5.456540388370399 C 32.54185783912444 5.1204246804703 32.609081035014746 4.801115110982096 32.74352738153679 4.498611498871483 C 32.87797313969736 4.196108067795173 33.059475325067154 3.9272158273368376 33.28803402816334 3.691935139565082 C 33.51659209763947 3.4566544517933266 33.78884560198704 3.2717910025342896 34.104794450688914 3.1373446107536687 C 34.42074275628788 3.0028982189730478 34.76021900394001 2.9356750230827373 35.123223374679604 2.9356750230827373 ZM 35.08289038042036 2.25 C 34.639217667716345 2.25 34.22243452302334 2.334028904345737 33.832540584272735 2.502086713037211 C 33.442646826556434 2.6701445443579725 33.10653148072494 2.8987028853855517 32.8241946372954 3.187761758749236 C 32.54185783912444 3.4768212204744025 32.316660535693224 3.812936475788746 32.148602727001744 4.196107705726568 C 31.9805455179864 4.5792794787672975 31.896516919136047 4.992701359571065 31.896516919136047 5.436373167103568 C 31.896516919136047 5.8800451556703734 31.9805455179864 6.293467036474141 32.148602727001744 6.67663880951487 C 32.316660535693224 7.059810582555599 32.54185783912444 7.392565026566459 32.8241946372954 7.674901779478844 C 33.10653148072494 7.95723853239123 33.442646826556434 8.182436152632476 33.832540584272735 8.350493916065375 C 34.22243452302334 8.518550955361064 34.639217667716345 8.602579837077514 35.08289038042036 8.602579837077514 C 35.526562368987165 8.602579837077514 35.93998388772233 8.518550955361064 36.32315493662585 8.350493916065375 C 36.70632670966658 8.182436152632476 37.042442236532374 7.95723853239123 37.33150187929184 7.674901779478844 C 37.6205607979141 7.392565026566459 37.84911913894168 7.059810582555599 38.017176540305975 6.67663880951487 C 38.18523502787608 6.293467036474141 38.26926390959253 5.8800451556703734 38.26926390959253 5.436373167103568 C 38.26926390959253 4.992701359571065 38.18523502787608 4.5792794787672975 38.017176540305975 4.196107705726568 C 37.84911913894168 3.812936475788746 37.6205607979141 3.4768212204744025 37.33150187929184 3.187761758749236 C 37.042442236532374 2.8987028853855517 36.70632670966658 2.6701445443579725 36.32315493662585 2.502086713037211 C 35.93998388772233 2.334028904345737 35.526562368987165 2.25 35.08289038042036 2.25 Z"
     style="fill:#ffffff;stroke:none"
     id="path10" />
  <path
     d="M 35.05015201708204 11.15527174628174 Q 35.09990748470301 11.15527174628174 35.149786055649486 11.156445346404428 Q 35.175399512864175 11.15614401480839 35.200980383904465 11.15614401480839 Q 37.068390487080535 11.15614401480839 38.762190866843355 12.76195937024844 L 37.7141470844561 13.60931377519411 Q 36.73300416638406 12.672763588512453 35.149786055649486 12.672763588512453 Q 33.56657228973816 12.672763588512453 32.585423035465546 13.60931377519411 L 31.53737916256114 12.76195937024844 Q 33.20920478406666 11.15527174628174 35.05015201708204 11.15527174628174 ZM 35.149786055649486 13.319430064290955 Q 36.91139174710139 13.341728964466377 38.04863113019033 15.170229546101524 L 32.228642443001824 15.170229546101524 Q 33.12059591553845 13.341728964466377 35.149786055649486 13.319430064290955 ZM 35.149786055649486 10.465182065963745 Q 32.38473365802396 10.57667577481578 30.489336013793945 12.73965974593581 L 32.07255122797969 14.077587239226219 Q 31.403586666680123 14.969539263488429 31.247495496916564 15.749999864456669 L 39.029776220673995 15.749999864456669 Q 38.87368410048035 14.969539263488429 38.20472252624677 14.09988776871036 L 39.67644450679552 12.76195937024844 Q 37.914838091206406 10.57667577481578 35.149786055649486 10.465182065963745 Z"
     style="fill:#ffffff;stroke:none"
     id="path12" />
  <path
     d="M 56.513367420599124 2.676162254742932 Q 56.844827035892415 2.676162254742932 56.844827035892415 3.023405741075482 L 56.844827035892415 5.690867121246976 L 55.834664654279536 5.690867121246976 L 56.166124269572826 2.8813518657275767 Q 56.18190780530584 2.676162254742932 56.513367420599124 2.676162254742932 ZM 56.529150956332145 2.25 Q 55.72417722169845 2.25 55.676826614499404 2.707729787255053 Q 55.34536699920612 5.690867121246976 54.96655543548879 5.706649986367493 L 47.64287615695795 5.974974788116224 L 46.88525437074829 5.943407381343946 Q 46.03292902299681 5.043731426393417 45.37001046302273 5.043731426393417 Q 45.133253403352526 5.027947723007278 44.88071247264306 5.0121638519680145 Q 43.5390904757369 5.264703944411861 43.27076584164129 5.264703944411861 Q 43.08136005978263 5.264703944411861 43.08136005978263 5.517244875121328 Q 43.08136005978263 5.864488361453878 43.618009327973844 5.864488361453878 Q 44.53954339430973 5.717577617008617 45.03164286839626 5.717577617008617 Q 45.121113305316555 5.717577617008617 45.196388216897084 5.722433857406757 Q 45.46471301864582 5.722433857406757 45.638334258852716 5.943407381343946 Q 45.330550282465204 6.3244732089704545 44.2606341478653 6.3244732089704545 Q 44.17833339680521 6.3244732089704545 44.09152294435488 6.322218274448774 Q 42.87617116132376 6.290650867676496 41.94492708707518 6.006542194888502 Q 41.487197299820124 6.006542194888502 41.487197299820124 6.543191463079715 Q 41.534548582870826 7.032488782846889 44.91227987941534 7.048272653886153 L 46.41173991610164 6.890434949412265 L 54.96655543548879 6.843083000988227 L 57.365691762431865 6.874651413679251 L 57.365691762431865 3.023405741075482 Q 57.34990822669885 2.25 56.529150956332145 2.25 Z"
     style="fill:#ffffff;stroke:none"
     id="path14" />
  <path
     d="M 42.66817981894373 13.482385851521332 Q 42.57391147729752 13.482385851521332 42.48499519892305 13.511152696286606 Q 42.137410995629374 13.62360682202258 42.178303281479465 13.848514167765973 Q 42.212904376758125 14.03881928607001 42.489046862416075 14.03881928607001 Q 42.539255019360695 14.03881928607001 42.5974483057144 14.032528095498568 Q 42.9757011573153 13.99163671537703 43.26194636575349 13.725837310215683 Q 42.942416425281216 13.482385851521332 42.66817981894373 13.482385851521332 ZM 42.84525982847614 13.275568169424377 Q 43.583176585163315 13.275568169424377 45.12254152258651 14.155205179480998 Q 45.894738520210275 14.555093169172896 46.81573086984283 14.555093169172896 Q 47.26034713226471 14.555093169172896 47.73964147689277 14.461897096924583 Q 48.94596187158136 14.216543155391863 50.27495821809168 14.032528095498568 Q 50.726314459586035 13.970032824921326 51.14937121225161 13.970032824921326 Q 51.97198377866003 13.970032824921326 52.687598101740306 14.20632019714541 Q 53.77124073315005 14.564127358685544 54.486854150501756 14.666357620446506 Q 55.202467567853475 14.768588108639609 56.7563708072429 14.8503726803398 Q 55.754512747533354 14.952602942100762 54.793545615081065 14.952602942100762 Q 53.83257938835733 14.952602942100762 52.52402895833992 14.737918554603826 Q 51.86975329046693 14.630576813719637 51.264038259289585 14.630576813719637 Q 50.65832141665511 14.630576813719637 50.10116521071629 14.737918554603826 Q 48.98685370456718 14.952602942100762 47.56585028097449 15.136617775561918 Q 47.21059908542811 15.18262154053524 46.867487822623495 15.18262154053524 Q 45.83815493993822 15.18262154053524 44.91808009333602 14.768588108639609 Q 44.024718125559225 14.158832622360155 43.062512862166656 14.158832622360155 Q 42.63735187562618 14.158832622360155 42.198749877268796 14.277882037031288 Q 41.81027333151698 14.25743544124196 41.85116567397512 13.848514167765973 Q 42.07607296311047 13.296469214518229 42.81213280642741 13.2760226187289 Q 42.82848935847602 13.275568169424377 42.84525982847614 13.275568169424377 ZM 43.39185274866244 11.190220355987549 Q 42.94954269758414 11.190220355987549 42.56677977062324 12.53996373774856 Q 42.24654585262842 11.347982681935394 41.74054887522929 11.347982681935394 Q 41.66502702025896 11.347982681935394 41.58536700471822 11.374535982710285 Q 40.97198411801564 11.763011608581529 41.994288278194205 12.867101345252912 Q 41.17644476890564 13.337361500368324 41.17644476890564 14.052974917720036 Q 41.17644476890564 14.768588108639609 42.38276482394602 14.8503726803398 Q 42.75576275166315 14.752537013547546 43.11138801310444 14.752537013547546 Q 43.94488471960745 14.752537013547546 44.68295092150688 15.28996350785157 Q 45.31473531136839 15.750000704720527 46.68626059523508 15.750000704720527 Q 47.60060942588671 15.750000704720527 48.84373138338826 15.545540181198604 Q 50.3705442815753 15.115660575297403 51.81138089629067 15.115660575297403 Q 52.35790475467434 15.115660575297403 52.89205817239795 15.177510061412015 Q 54.22744533962121 15.332133323834263 55.16660886847052 15.332133323834263 Q 55.59350047585528 15.332133323834263 55.93852780742665 15.300186466098024 Q 57.67644610670938 15.259295085976486 57.67644610670938 14.973048632161532 Q 57.206184593001126 14.543680762896216 56.3474488544705 14.400558215285159 Q 54.52774688921613 14.380112525224389 53.02495844105897 13.76672959606578 Q 52.27356421698039 13.460038131486474 51.182253687589395 13.460038131486474 Q 50.090943158198385 13.460038131486474 48.65971632349497 13.76672959606578 Q 47.73676760017478 13.999622976946812 46.94118242683389 13.999622976946812 Q 45.85093431704271 13.999622976946812 44.99986466503621 13.562267940383157 Q 44.12068323644482 13.03066969614081 43.13927041393176 12.68308639857569 Q 43.95711386661229 12.049256873627751 43.90599884894788 11.630111792784785 Q 43.85488360485133 11.210966706634816 43.40506913979669 11.19052102188105 Q 43.39845437769751 11.190220355987549 43.39185274866244 11.190220355987549 Z"
     style="fill:#ffffff;stroke:none"
     id="path16" />
  <path
     d="M 30.489336013793945 0.375 C 20.86433607339859 0.375 20.86433607339859 17.625 30.489336013793945 17.625 "
     style="fill:none;stroke:#ffffff;stroke-width:1"
     id="path18" />
  <path
     d="M 30.489336013793945 0.375 L 57.6764440536499 0.375 "
     style="fill:none;stroke:#ffffff;stroke-width:1"
     id="path20" />
  <path
     d="M 30.489336013793945 17.625 L 57.6764440536499 17.625 "
     style="fill:none;stroke:#ffffff;stroke-width:1"
     id="path22" />
  <path
     d="M 65.3639440536499 0.375 L 65.3639440536499 17.625 "
     style="fill:none;stroke:#ffffff;stroke-width:1"
     id="path24" />
  <path
     d="M 57.6764440536499 0.375 C 67.30144309997559 0.375 67.30144309997559 17.625 57.6764440536499 17.625 "
     style="fill:none;stroke:#ffffff;stroke-width:1"
     id="path26" />
</svg>
