<?xml version="1.0" encoding="UTF-8" standalone="no"?>
<svg
   width="139.86557006835938"
   height="18.0"
   version="1.1"
   id="svg28"
   sodipodi:docname="khamneswtmjjtm.svg"
   inkscape:version="1.1.1 (3bf5ae0d25, 2021-09-20)"
   xmlns:inkscape="http://www.inkscape.org/namespaces/inkscape"
   xmlns:sodipodi="http://sodipodi.sourceforge.net/DTD/sodipodi-0.dtd"
   xmlns="http://www.w3.org/2000/svg"
   xmlns:svg="http://www.w3.org/2000/svg">
  <defs
     id="defs32" />
  <sodipodi:namedview
     id="namedview30"
     pagecolor="#ffffff"
     bordercolor="#666666"
     borderopacity="1.0"
     inkscape:pageshadow="2"
     inkscape:pageopacity="0.0"
     inkscape:pagecheckerboard="0"
     showgrid="false"
     inkscape:zoom="9.8308683"
     inkscape:cx="69.932785"
     inkscape:cy="9.0022567"
     inkscape:window-width="1920"
     inkscape:window-height="1001"
     inkscape:window-x="-9"
     inkscape:window-y="-9"
     inkscape:window-maximized="1"
     inkscape:current-layer="svg28" />
  <path
     d="M 22.77966110174755 0.5684490592972326 Q 22.633638086057772 0.6049545148491455 22.633638086057772 0.696219735092747 Q 22.633638086057772 0.7874840005506465 22.72490223216746 0.8422427507825265 Q 22.76140750869705 0.864146310549385 22.796453872674018 0.864146310549385 Q 22.84902246385376 0.864146310549385 22.898304682647282 0.8148638530594374 Q 22.980442987017422 0.7327252503187663 22.92568411743733 0.6505866475780953 Q 22.870925247857237 0.5684490592972326 22.77966110174755 0.5684490592972326 ZM 2.5609985348740345 0.46936116044907683 Q 2.359843567091113 0.46936116044907683 2.1720992805818096 0.7509784853246271 Q 2.2816167810455696 0.9335079710261279 2.5189051363271635 0.988266721258008 Q 2.5554108902496084 0.9973931597386192 2.589888440644617 0.9973931597386192 Q 2.762277147405363 0.9973931597386192 2.8839638690337397 0.7692307655447858 Q 2.8839638690337397 0.5136903090653525 2.6284226367909236 0.47718380921657794 Q 2.5945244026205927 0.46936116044907683 2.5609985348740345 0.46936116044907683 ZM 1.241199810550572 0.7874840005506465 Q 1.186441060318692 0.9152547360202673 1.2777053257765913 1.0247722364840275 L 0.5110819274186749 1.0977842217217681 Q 0.4928296471985162 0.9335079710261279 1.241199810550572 0.7874840005506465 ZM 1.9876164226822657 1.222624719872005 Q 1.9876164226822657 1.222624719872005 1.9876164226822657 1.222624719872005 L 1.9876164226822657 1.222624719872005 L 1.9876164226822657 1.222624719872005 ZM 2.125909851373434 1.2203396789907357 Q 2.284224539494109 1.2203396789907357 2.382007723680506 1.2529337952403716 Q 2.418033220394854 1.2649421350142038 2.3813761329386445 1.2649421350142038 Q 2.314213403607673 1.2649421350142038 2.0030587685814902 1.2246304859354444 L 2.0030585298850645 1.2246304859354444 Q 2.068468511363622 1.2203396789907357 2.125909851373434 1.2203396789907357 ZM 5.49470864855246 2.472162196565138 Q 5.540779445637364 2.472162196565138 5.621903767591998 2.539765559497574 Q 7.100390859290249 3.7627121350422854 9.290743732922557 5.405476312873666 Q 11.481095651769165 7.048240490705046 11.754889044883926 7.723598609145255 Q 9.966101851362767 7.468058331688141 8.697522964066787 6.318122547899043 Q 7.428944554163657 5.168188196288498 6.488918406955382 4.082139033390444 Q 5.548891782354257 2.996088915706688 5.439374520586923 2.667536414315408 Q 5.416389009597399 2.472162196565138 5.49470864855246 2.472162196565138 ZM 5.554353633962448 1.6040624432514505 Q 5.819804109613288 1.6040624432514505 6.059973769447039 1.7001303549242361 Q 11.736636406619128 6.007822446076134 12.558018495534819 7.303781245555012 Q 13.324641714870417 8.709256829408373 13.561929831455585 9.457627410479173 Q 13.461538888820648 9.568057924770454 13.322497266183765 9.568057924770454 Q 13.208735504578268 9.568057924770454 13.069100960020451 9.49413364179447 L 12.320730378949651 7.979140318780923 Q 11.754889044883926 6.683181519302044 9.555411284297772 5.104303007576006 Q 7.355932568925916 3.5254240184571173 6.370273871269948 2.603650986906491 Q 5.791486120478193 2.0623774824348997 5.483335241270446 2.0623774824348997 Q 5.266714415990388 2.0623774824348997 5.183833288344107 2.3298573550953035 Q 5.042689704984308 2.7853667564934774 4.685065172449792 2.7853667564934774 Q 4.533956013325552 2.7853667564934774 4.344197606377917 2.704041929541427 Q 4.508475169903898 1.8461543253997177 5.0560624335262725 1.6818780747040774 Q 5.315446678219568 1.6040624432514505 5.554353633962448 1.6040624432514505 ZM 6.023468492917445 8.033898710968165 Q 6.899609451413228 9.439374772214377 6.735331887887247 10.863103471725385 Q 6.5710557565398195 10.863103471725385 6.42503274085004 11.100391588310554 Q 6.365295618619811 10.697168400220765 6.0611810959671955 10.697168400220765 Q 5.99359993180233 10.697168400220765 5.913950753757259 10.717080456035607 Q 6.2972618860322065 9.311604394789393 6.023468492917445 8.033898710968165 ZM 2.768605228341677 0.3457626296377467 Q 2.854758883981503 0.3457626296377467 2.920469384259759 0.35853969124988744 Q 3.2490218856510396 0.42242505898469784 3.3037807552311325 0.5958278973462152 Q 3.3423147126810133 0.7178524937648807 3.3808493862201705 0.7178524937648807 Q 3.3970742983503825 0.7178524937648807 3.4132992104805946 0.696219735092747 Q 3.4680568865785597 0.6232077498550063 3.4863100022362077 0.5319425296114048 Q 3.887874488865229 1.061277632361834 3.5410688718163006 2.101695796338959 Q 3.1942632547673724 3.14211288618217 4.654497708200826 3.3428945327556163 Q 6.0052153772597965 6.445893402716877 7.556713976802937 8.06127814575821 Q 9.10821353113178 9.676662888799545 8.852672776281816 11.100391588310554 Q 8.262843406239485 10.66180027346223 7.547702231954776 10.66180027346223 Q 7.399740523897122 10.66180027346223 7.2464148297657305 10.680575179506013 Q 7.301173699345823 9.384615902634284 6.6258155809056145 8.125163811863553 Q 5.950456507679704 6.865711243699971 5.38461565100683 6.235985198314606 Q 4.818774316941105 5.6062591529292405 3.860495770164459 4.739244036173004 Q 2.9022162686021113 3.872229635506046 2.911342826430935 2.9504568426518447 Q 2.920469384259759 2.0286838111012186 3.166884297370177 1.6636248396982167 Q 3.4132992104805946 1.298565868295215 3.404172413955345 1.0795309867159075 Q 3.4003959978075793 0.9888957460132952 3.368491117486562 0.9888957460132952 Q 3.323292755836844 0.9888957460132952 3.221642928253844 1.170795132825594 Q 3.0482402390775927 1.4810953539967158 2.2633636653879217 1.4993485890025766 Q 2.2171959575542664 1.5004222455244558 2.1705229293878365 1.5004222455244558 Q 1.4237308477788386 1.5004222455244558 0.5475883974303962 1.2255549571913888 L 0.5475883974303962 1.2255549571913888 L 1.6245109428255198 1.298565868295215 Q 2.1565852064067235 1.4089965019347084 2.4153431116795185 1.4089965019347084 Q 2.627053474094281 1.4089965019347084 2.6558013554916937 1.3350723383069363 Q 2.7196867829006104 1.170795132825594 2.5554106515531827 1.1434162947766116 Q 2.3911342815093297 1.116036382593714 2.2177315923330783 1.116036382593714 Q 2.0443286644604015 1.116036382593714 1.953064399002502 1.170795132825594 L 1.9876164226822657 1.222624719872005 L 1.9876164226822657 1.222624719872005 Q 1.8278830423566574 1.2018226844347024 1.6062577078196592 1.170795132825594 Q 1.3689705460201929 0.7874840005506465 1.5332466773676203 0.6232077498550063 Q 1.5697521925936397 0.5684490592972326 1.6610164580515392 0.5684490592972326 Q 1.6245109428255198 0.7509784853246271 1.7249017661122432 0.8422427507825265 Q 1.7620839857045425 0.8760447306192765 1.798014123196905 0.8760447306192765 Q 1.8590952256508866 0.8760447306192765 1.9165579289907808 0.7783573830477161 Q 2.0078231492343823 0.6232077498550063 1.7522816782951405 0.5501957646172655 Q 2.4239901283895215 0.3457626296377467 2.768605228341677 0.3457626296377467 ZM 23.01695017311842 0.38591957359573165 Q 23.509778089767853 0.38591957359573165 23.747067161138723 0.7509784853246271 Q 23.82007771419791 0.8057372355565071 24.659714350949802 0.9517601915721803 L 24.659714350949802 1.0065190014781666 L 23.747067161138723 1.0795309867159075 Q 22.96219130353833 1.0795309867159075 22.76140750869705 0.9608868090751106 Q 22.56062562342718 0.8422427507825265 22.56975337473813 0.6870931175898166 Q 22.578879216477677 0.5319425296114048 22.816166378277146 0.5319425296114048 Q 23.053455449648016 0.5319425296114048 23.144719595757703 0.614081132352076 Q 23.23598374186739 0.696219735092747 23.190352623598248 0.7874840005506465 Q 23.144719595757703 0.8787482063344395 23.01695017311842 0.9335079710261279 Q 23.036506093866425 0.9348116712280785 23.054711947631823 0.9348116712280785 Q 23.291393775296232 0.9348116712280785 23.299870362758433 0.7144720153129057 Q 23.30899620449798 0.47718380921657794 22.907432433958235 0.4406782939905586 Q 22.3963490146869 0.4406782939905586 22.524120346897586 0.8148638530594374 Q 22.645949092899134 1.171644176011082 23.64728059785314 1.171644176011082 Q 23.69612743436656 1.171644176011082 23.747067161138723 1.170795132825594 Q 24.312907540418745 1.1342897369477876 24.75097849705949 1.0430254714898881 L 24.714473220529893 0.9700134862521473 L 24.714473220529893 0.9700134862521473 Q 26.338983805310775 1.9739250608693384 26.238591907890136 3.2607569444747537 Q 26.138201920040903 4.547588947428382 24.97001397537986 5.396349993741268 Q 23.801826030718814 6.245110562661302 22.889178840907736 7.267275491632566 Q 21.465450141396726 9.001303815573634 21.35593240223654 9.986962513229603 Q 21.246414663076354 10.97262121088557 21.848762228457378 10.97262121088557 Q 22.451107884266992 10.97262121088557 23.318122046237526 10.251630064604818 Q 24.185138117779466 9.530638918324064 25.079531714540046 9.512386280059266 Q 27.470664563870823 9.567144194853658 27.196872125541763 11.720991791956372 Q 26.320730212260276 10.790091963880496 25.225554730229824 10.790091963880496 Q 24.677966034428895 10.790091963880496 23.728813568088224 11.264668197050833 Q 22.286831275526716 12.031291416386429 21.53846260402732 12.031291416386429 L 20.9178614455958 11.94002631549104 Q 19.786180687035753 11.100391588310554 20.151239181045902 9.457627410479173 Q 20.69882596727543 8.271186827553333 21.629726750137007 5.222947065868591 Q 22.26857959204762 3.488918503231098 22.898304682647282 2.594524429077667 Q 23.52803168281835 1.7001303549242361 24.239896987359558 1.6818780747040774 Q 24.623207164848804 1.6818780747040774 25.48109548507979 2.0469359719731646 Q 25.516527582480354 2.0565995967593533 25.54286630085524 2.0565995967593533 Q 25.665772045128623 2.0565995967593533 25.590613224239974 1.8461543253997177 Q 24.90056286341766 1.4183230873680976 23.98094382841071 1.4183230873680976 Q 23.68429382037619 1.4183230873680976 23.36375507407807 1.4628421189908551 Q 23.08996072617761 1.4628421189908551 22.697522797377413 1.3168191033010757 Q 22.305084868577215 1.170795132825594 22.305084868577215 0.6232077498550063 Q 22.633638086057772 0.38591957359573165 23.01695017311842 0.38591957359573165 ZM 5.183833288344107 3.0508475465903557 Q 6.607562465247967 4.876141210123237 7.794002570780957 6.05345547391668 Q 8.980443153706798 7.2307702151029725 10.029987517468108 7.641461259560818 Q 11.079530926443718 8.052151349232961 11.973924523204298 8.070405897069161 Q 12.083442262364484 8.21642795797324 14.146023803786107 12.68839689656184 L 14.018253426361124 12.743155766141934 L 9.10821353113178 9.603651380954656 Q 9.144719762447076 9.329857033054191 7.657105874223576 7.641461259560818 Q 6.169491508607224 5.953063576496041 5.037810272654327 3.178618401408189 L 5.183833288344107 3.0508475465903557 ZM 10.22164260621273 10.917862341305478 L 12.941329627809766 12.578879157401655 Q 13.032594728705156 12.83441991225162 12.284224147634355 12.92568501314701 Q 12.117919574063066 12.945966571028519 11.97865548635762 12.945966571028519 Q 11.491235475924217 12.945966571028519 11.33507072650798 12.69752369308709 Q 11.13428979602381 12.378097272131784 10.823990171593753 11.867014807646152 Q 10.51368863759229 11.35593329794622 10.22164260621273 10.917862341305478 ZM 19.51238633913529 10.132986483705084 Q 19.51238633913529 10.899609703040682 19.73142181745566 11.465450082320704 Q 20.297262196735684 12.469361418241471 21.246414663076354 12.487615011291968 Q 21.271391857040214 12.488095268500066 21.296634481429226 12.488095268500066 Q 22.230630679536628 12.488095268500066 23.52803168281835 11.830508576330855 Q 24.760560726364584 11.205802794166512 25.321529788993093 11.205802794166512 Q 25.367013870264127 11.205802794166512 25.408083022449198 11.20990932747074 Q 25.955671718250127 11.264668197050833 26.594524560160743 11.775749706750762 Q 27.233377402071355 12.286832171236394 27.26988267860095 12.670144258297045 Q 27.336545816313357 12.981237309645449 27.213848215323008 12.981237309645449 Q 27.134969549339438 12.981237309645449 26.97783664722139 12.85267350530212 Q 26.453025319126954 11.803050849113246 25.632165497990247 11.803050849113246 Q 25.625090535938558 11.803050849113246 25.617992659030023 11.80312914154081 Q 24.78748377358908 11.812255938066059 23.573664710658896 12.451108779976673 Q 22.359843738157306 13.089961621887287 20.744458995115973 13.089961621887287 Q 19.129074252074638 13.089961621887287 18.946545959855264 12.049544054651227 Q 18.764015758064488 11.009126487415164 19.51238633913529 10.132986483705084 ZM 5.9869617842092975 11.191656689205942 L 6.260756609502613 11.739244430221168 Q 6.516296886959727 11.483703675371203 6.65319453830281 11.438070647530658 Q 6.65701845503925 11.436796008618511 6.66032249096096 11.436796008618511 Q 6.775304946086441 11.436796008618511 6.260756609502613 12.980443882727103 L 5.494133390167016 13.21773199931227 Q 5.293350550111441 13.071708028836788 5.6127774484596 12.314211606026442 Q 5.932203392022056 11.556715183216093 5.9869617842092975 11.191656689205942 ZM 25.3841465449005 12.332304795079008 Q 25.989295451531138 12.332304795079008 26.338983805310775 12.83441991225162 Q 26.101694733939905 13.21773199931227 25.225554730229824 13.436768432418344 Q 24.550196611789616 13.436768432418344 23.85658490029891 12.870926143566917 Q 24.757383199548386 12.332304795079008 25.3841465449005 12.332304795079008 ZM 23.272490927968388 13.089961621887287 Q 23.54354504090416 13.354712239618575 23.860314293250852 13.52803162374233 L 21.3870259534073 13.52803162374233 Q 22.296396318689176 13.432913007753738 23.272490927968388 13.089961621887287 ZM 13.835724179356049 14.239895973497832 Q 11.793824251025065 17.175128731674494 7.949174820459982 17.25145239111956 L 7.949174820459982 17.25145239111956 Q 4.122734108017405 17.175128731674494 2.080834179686421 14.239895973497832 ZM 28.602347232002273 14.258150521334034 Q 26.56044825845699 17.19338041515359 22.715797395713356 17.26970598417006 L 22.715797395713356 17.26970598417006 Q 18.889337110163886 17.19338041515359 16.829205548853547 14.258150521334034 ZM 3.0828786708633857 0.008692117630364187 Q 2.971576914619046 0.008692117630364187 2.8474573990220184 0.020860628300151455 Q 2.5554106515531827 0.020860628300151455 1.186441060318692 0.4406782939905586 Q 0.09126423562084626 0.696219735092747 0.0 1.0977842217217681 L 0.036505492848229494 1.7183835899300968 L 0.5840939126564156 1.5176008692227352 Q 1.4784879271357403 1.8096488101736983 2.080834179686421 1.8096488101736983 Q 2.6831812676745908 1.8096488101736983 2.5371572971991094 2.2203398546315434 Q 2.3911342815093297 2.6310308990893883 2.5736637672108307 3.5893094458660344 Q 2.7561932529123316 4.547588947428382 4.015645343683063 5.5241203711662505 Q 5.275098389239495 6.5006522722969695 5.576270739751453 8.079530784023007 Q 5.877444522441963 9.658410250534748 5.037810272654327 11.720991791956372 L 5.311603665769089 11.556715183216093 Q 5.3170254163777955 11.553462228329439 5.320836443507258 11.553462228329439 Q 5.38118176422965 11.553462228329439 5.037810272654327 12.368970475606535 Q 4.672751301251325 13.235984637577067 4.04302525586596 13.263364072367114 Q 3.93189679322653 13.268195288019145 3.833558162458005 13.268195288019145 Q 3.3746456661215403 13.268195288019145 3.1942632547673724 13.162973129732178 Q 2.989829552883843 13.04372039555458 2.5866402596864733 13.04372039555458 Q 2.5578429681289827 13.04372039555458 2.5280316941559873 13.044328594046743 Q 2.080834179686421 13.053455390571992 2.080834179686421 13.345502376737253 L 2.080834179686421 13.52803162374233 L 0.8031288539098296 13.52803162374233 Q 2.9022162686021113 17.981746969280433 7.958279656914086 18.000000562330932 Q 13.014342090440358 17.981746969280433 15.113428908391576 13.52803162374233 L 15.113428908391576 13.52803162374233 L 9.49152561819243 13.564537855057624 Q 9.49152561819243 13.400261246317346 9.144719762447076 13.208605202787021 Q 8.975349371986722 13.115006605635987 8.75591479324292 13.115006605635987 Q 8.526030084990925 13.115006605635987 8.241198414375544 13.21773199931227 Q 8.071091884138962 13.279081754593147 7.876274067756523 13.279081754593147 Q 7.433506997640579 13.279081754593147 6.863102742705081 12.962191244462305 Q 6.990873597522914 12.323337447765988 7.17340284452799 11.821382734591309 Q 7.355932568925916 11.319427066630926 7.867014556018697 11.228161965735536 Q 7.91433659976605 11.219711157487291 7.962910844961551 11.219711157487291 Q 8.438939307184603 11.219711157487291 9.03520202328689 12.031291416386429 Q 9.382007879032244 11.35593329794622 9.235984863342464 10.205997991549975 L 9.235984863342464 10.205997991549975 L 9.418514110347541 10.333768368974956 Q 10.787483940278456 12.633638026981748 11.070404129918469 13.035202752307194 Q 11.28503327222419 13.339837633167392 11.904089587389903 13.339837633167392 Q 12.10106378728027 13.339837633167392 12.338983017214447 13.308996145421958 Q 13.324641714870417 13.181225767996974 13.30638907660562 12.83441991225162 L 13.30638907660562 12.83441991225162 L 14.146023803786107 13.254238230627566 L 14.784876645696722 13.016950114042398 L 13.37940058445051 9.968709874964805 Q 13.726206440195863 9.968709874964805 14.018253426361124 9.676662888799545 Q 13.67144757061577 8.581486451983391 12.941329627809766 7.2307702151029725 Q 12.430248118109837 6.409388126187283 11.900913015359407 5.953063576496041 Q 10.4589307227979 4.602347339615624 8.907431645861907 3.3885266058104597 Q 7.355932568925916 2.174706826790998 6.6258155809056145 1.5176008692227352 Q 6.135176987870829 1.237236402210505 5.607156147639178 1.237236402210505 Q 5.310143798430758 1.237236402210505 5.0013035639461805 1.3259457804781123 Q 4.143416198500896 1.5723605742403173 3.9608864741029697 2.539765559497574 Q 3.906127843219302 2.50326028296798 4.0521506202126565 1.8096488101736983 Q 4.198174590688137 1.116036382593714 3.988266386285867 0.5228169265682828 Q 3.8063448603801033 0.008692117630364187 3.0828786708633857 0.008692117630364187 ZM 23.079162099888187 0.0 Q 22.74837277429359 0.0 22.451107884266992 0.09387261726752386 Q 22.06779770677775 0.20339010281275738 21.994785244147156 0.5136903090653525 Q 21.848762228457378 0.8970014413403002 22.12255657635784 1.2711870302462323 Q 22.3963490146869 1.645371604692356 22.980442987017422 1.7366368249359574 Q 21.81225504235638 2.795307030436816 20.99087390822639 5.478487343325705 Q 20.22424973410509 8.033898710968165 19.713168224405162 9.2568455252093 Q 18.344198394474244 10.370274600290251 18.353324236213794 11.492829517110751 Q 18.362451987524743 12.615385388716952 18.91003877375427 13.089961621887287 Q 19.30575352708367 13.432913007753738 20.06368533217412 13.52803162374233 L 15.55149986503232 13.52803162374233 Q 17.650586682983537 17.981746969280433 22.706650548688362 18.000000562330932 Q 27.762712504821785 17.981746969280433 29.861799322773003 13.52803162374233 L 26.348111556621728 13.52803162374233 Q 26.5488934418916 13.418513884582143 26.75880116890102 13.272490868892364 Q 26.964314972109918 13.516538868247567 27.224062512762817 13.516538868247567 Q 27.333429395782087 13.516538868247567 27.452412880391726 13.473272754162236 Q 27.908735520511563 13.254238230627566 27.6349411726111 12.469361418241471 Q 27.890481927461064 10.22425062981477 27.032595516801482 9.603651380954656 Q 26.1747071965705 8.983051177308838 25.09778339801914 8.983051177308838 Q 24.112125655148873 8.983051177308838 22.96219130353833 9.831812701014574 Q 22.249229905011244 10.358045705019261 21.98532331784051 10.358045705019261 Q 21.823573072067678 10.358045705019261 21.83050863540688 10.160365918495131 Q 21.848762228457378 9.64015665748425 22.633638086057772 8.398957204978315 Q 23.162973188808202 7.522817201268234 24.933506789278862 6.144720097419217 Q 26.704042299320925 4.766623948355902 26.685788706270426 3.370274444938514 Q 26.667537022791333 1.9739250608693384 25.900912848670032 1.2711870302462323 Q 25.134290584120137 0.5684490592972326 24.20338980125856 0.47718380921657794 Q 24.05736678556878 0.2764020731319715 23.82007771419791 0.1486313525808773 Q 23.582790552398443 0.020860628300151455 23.190352623598248 0.0026073821053958263 Q 23.13429142632065 0.0 23.079162099888187 0.0 Z"
     style="fill:#ffffff;stroke:none"
     id="path2" />
  <path
     d="M 40.719129485604235 0.7438429583940321 Q 40.772760564704576 0.7438429583940321 40.826524336039625 0.7451079739595893 Q 40.854132906827836 0.7447831706880039 40.881706353200975 0.7447831706880039 Q 42.89457496332323 0.7447831706880039 44.72031083700147 2.475680586911756 L 43.59063159406862 3.3890381190698355 Q 42.53306433636124 2.3795370623017478 40.826524336039625 2.3795370623017478 Q 39.11998901897334 2.3795370623017478 38.062414931518596 3.3890381190698355 L 36.932735591017924 2.475680586911756 Q 38.73478502268971 0.7438429583940321 40.719129485604235 0.7438429583940321 ZM 40.826524336039625 3.0765744447701686 Q 42.7253470925972 3.100610277138761 43.951169665004414 5.071538579445719 L 37.677843564977515 5.071538579445719 Q 38.63927412782225 3.100610277138761 40.826524336039625 3.0765744447701686 ZM 40.826524336039625 0.0 Q 37.846093220743825 0.12017830812453924 35.80305703105981 2.4516439740006066 L 37.509593909211205 3.893786891233126 Q 36.78852157248457 4.85521589299275 36.62027196550216 5.696469050215281 L 45.00873926433946 5.696469050215281 Q 44.84048863289495 4.85521589299275 44.119419515906365 3.9178244798224715 L 45.70577859816427 2.475680586911756 Q 43.806955061064144 0.12017830812453924 40.826524336039625 0.0 Z"
     style="fill:#ffffff;stroke:none"
     id="path4" />
  <path
     d="M 48.39336353279842 7.772666349786021 Q 48.750641590795595 7.772666349786021 48.750641590795595 8.146957734693617 L 48.750641590795595 11.022196158074014 L 47.66179445131796 11.022196158074014 L 48.01907250931514 7.993838831594773 Q 48.03608547480124 7.772666349786021 48.39336353279842 7.772666349786021 ZM 48.41037649828452 7.313308962818894 Q 47.54270080152072 7.313308962818894 47.49166190506242 7.806692777716657 Q 47.134383847065244 11.022196158074014 46.7260654469125 11.039208400711477 L 38.831921517153745 11.328433873915621 L 38.01528616254552 11.294407581519105 Q 37.09657048505048 10.324653007565757 36.382015091904755 10.324653007565757 Q 36.126816272521445 10.307639861367498 35.85460412622772 10.29062653445708 Q 34.408478928752906 10.562837777190012 34.11925363626092 10.562837777190012 Q 33.915094436184546 10.562837777190012 33.915094436184546 10.835049923483739 Q 33.915094436184546 11.209341308391334 34.493545021168515 11.209341308391334 Q 35.48686030426086 11.050987219227622 36.01729097011287 11.050987219227622 Q 36.11373054367224 11.050987219227622 36.19486885731448 11.056221727621896 Q 36.48409433051862 11.056221727621896 36.67123948083594 11.294407581519105 Q 36.33948123249223 11.705155837360223 35.186225930329805 11.705155837360223 Q 35.09751451224516 11.705155837360223 35.00394211779866 11.702725258823216 Q 33.693922722402476 11.6686989664267 32.69014108802593 11.362460166312138 Q 32.19675727312817 11.362460166312138 32.19675727312817 11.940910751296109 Q 32.24779689808236 12.468320994124507 35.88863041862424 12.485334321034925 L 37.50488816235459 12.315202136203702 L 46.7260654469125 12.264161794048132 L 49.31207812602051 12.298189170717603 L 49.31207812602051 8.146957734693617 Q 49.29506516053441 7.313308962818894 48.41037649828452 7.313308962818894 Z"
     style="fill:#ffffff;stroke:none"
     id="path6" />
  <path
     d="M 40.86577575129082 15.000726497499729 C 41.15408824331458 15.000726497499729 41.32777761207153 15.049623327150512 41.4176422993282 15.100702321419545 C 41.67934103476331 15.267803740000524 41.5545466932084 15.667527992437432 41.51238861861221 15.91712028044475 L 40.219162883969425 15.91712028044475 C 40.18808986917685 15.66184427071699 40.04691667584382 15.272267804734444 40.31421682117319 15.100702321419545 C 40.40408150842986 15.049623327150512 40.577463259267056 15.000726497499729 40.86577575129082 15.000726497499729 ZM 33.68105161753321 16.509284775969817 L 33.68105161753321 17.407836719569147 L 32.453963735637366 17.407836719569147 L 32.453963735637366 16.509284775969817 ZM 40.05520253274092 16.509284775969817 L 40.05520253274092 17.407836719569147 L 33.97636482049635 17.407836719569147 L 33.97636482049635 16.509284775969817 ZM 41.533306637155434 16.509284775969817 L 41.533306637155434 17.407836719569147 L 40.35051573570407 17.407836719569147 L 40.35051573570407 16.509284775969817 ZM 47.468486780875224 16.509284775969817 L 47.468486780875224 17.407836719569147 L 41.828619840118584 17.407836719569147 L 41.828619840118584 16.509284775969817 ZM 49.055180010962644 16.509284775969817 L 49.055180010962644 17.407836719569147 L 47.763799983838375 17.407836719569147 L 47.763799983838375 16.509284775969817 ZM 38.26917289065338 14.102174553900397 L 37.85112013770867 14.521457778524118 L 39.25047405466634 15.91712028044475 L 31.861799240112305 15.91712028044475 L 31.861799240112305 18.000001215094212 L 49.64703688856795 18.000001215094212 L 49.64703688856795 15.91712028044475 L 42.48138506583505 15.91712028044475 L 43.88073898279272 14.521457778524118 L 43.46237861192826 14.102174553900397 L 42.16853764144596 15.392631727265409 C 42.09092419833321 14.61044226997525 41.555031551921765 14.430932794209223 40.86577575129082 14.408562001974664 C 40.12951268811383 14.428237532513885 39.67751201462259 14.594723715255357 39.56301386113567 15.392631727265409 L 38.26917289065338 14.102174553900397 Z"
     style="fill:#ffffff;stroke:none"
     id="path8" />
  <path
     d="M 55.33331778375532 3.071457536405092 C 55.063189607633014 3.2015192508343504 54.733032947927974 3.5616901523307583 55.23327031111743 3.621718635913493 C 55.47338424544837 3.6117138886497044 56.02364534495677 3.3615952070549766 55.92359787231888 3.1314860199878267 L 55.92359787231888 3.1314860199878267 C 55.871755035530036 3.180600206071823 55.819168132301925 3.19845993785879 55.76603989555029 3.19845993785879 C 55.624365004640154 3.19845993785879 55.47884124153741 3.071457536405092 55.33331778375532 3.071457536405092 ZM 53.362382725449194 3.161500261779194 C 53.032226065744155 3.241538239889507 52.86214536225974 3.601709141385915 53.28234474733888 3.681747119496228 C 53.289198890750896 3.682370278955621 53.29653818868567 3.6826731570466147 53.304308752047405 3.6826731570466147 C 53.54607095994107 3.6826731570466147 54.20534405187533 3.389428543398796 53.66252514336286 3.32157621799982 C 53.572482417988766 3.261547734417085 53.48243969261466 3.161500261779194 53.362382725449194 3.161500261779194 ZM 55.9936311031654 0.6503085459077985 C 56.58391119172896 1.3406361071092472 57.10415835476665 2.1410158882123764 57.20420582740454 3.0614527891413026 C 57.30425330004243 3.7217661085513845 57.334267541833796 4.382079427961466 57.43431501447169 5.032388000107758 C 56.9640918930736 4.9923690110526024 57.10415835476665 4.262022460795997 57.19420108014075 3.9118563065633776 C 57.27423905825106 3.221528745361929 56.90406340949087 2.5812249204794253 56.64393967531169 1.9709351847279615 C 56.46385422456349 1.6407785250229208 56.293773521079075 1.1205316673058867 55.833555146944775 1.1105269200420977 C 55.323313036491534 1.2005696454161998 54.99315637678649 1.6307737777591316 54.66299971708145 2.000949426519329 C 54.32283831011262 1.660788019550499 53.96266756127654 1.2906123707903017 53.492444439878454 1.1505459090972543 C 53.46792139008963 1.1415110892281868 53.440234607660805 1.1379710488793708 53.41116701256412 1.1379710488793708 C 53.305885885897226 1.1379710488793708 53.18249145863836 1.1844109313353293 53.125698152729186 1.1844109313353293 C 53.07662625355608 1.1844109313353293 53.07727689187453 1.1497400915552634 53.18229727470099 1.0204841946679957 C 53.24582580162657 0.7962658643424094 53.37775012471924 0.7297767193433968 53.54105301495571 0.7297767193433968 C 53.77905962611725 0.7297767193433968 54.083719721121035 0.8710115668577245 54.34043119164603 0.8710115668577245 C 54.37914218700984 0.8710115668577245 54.41676257698955 0.8677999752048625 54.452900024541876 0.8604082384473699 C 54.537324544520445 0.8652788662160954 54.62201225090469 0.8677782974382692 54.70675002987656 0.8677782974382692 C 55.14418904048984 0.8677782974382692 55.582952226789246 0.8011701537134857 55.9936311031654 0.6503085459077985 ZM 55.833555146944775 1.410669337955771 C 56.223740290232556 1.5107168105936621 56.31378301560665 2.0509731628382744 56.50387321361865 2.3711250752795263 C 56.74398714794958 2.9313910747120446 57.03412512392013 3.5416806578031803 56.84403492590813 4.171979735421894 C 56.69396341163064 4.472122153335568 56.88405391496329 4.852302549359554 56.86404442043571 5.072406989162914 C 56.530368329526155 5.3068813456523785 56.23733774565836 5.8014861533754525 55.79443685382554 5.8014861533754525 C 55.745989488054775 5.8014861533754525 55.695748363428585 5.7955678177748275 55.64346494893278 5.782743739571286 C 55.20325606932606 5.692701014197183 54.9831516295227 5.272501629118041 54.64299022255387 5.072406989162914 C 54.39670178859172 5.30989913501869 54.25094659243154 5.802591414151054 53.84537664659631 5.802591414151054 C 53.78964402464692 5.802591414151054 53.72900535773268 5.793287683114001 53.66252514336286 5.772738992307497 C 53.29234949460267 5.692701014197183 52.802116878677005 5.73272000325234 52.69206465877532 5.28250637638183 C 52.50197438443317 4.822288307568186 52.48196488990559 4.312046197114942 52.45195064811422 3.811808833925486 L 52.45195064811422 3.811808833925486 C 52.473981670706785 3.8160454633515224 52.494290379477484 3.818057526476167 52.5130224887095 3.818057526476167 C 52.715463517907864 3.818057526476167 52.73377833013296 3.583067483398308 52.752093142358056 3.3816047015825546 C 52.829788013422196 3.088754867543259 53.03958017173076 2.9529934271032454 53.27270043110979 2.9529934271032454 C 53.42982500520684 2.9529934271032454 53.597547259282095 3.014667589023133 53.74256312147318 3.1314860199878267 C 53.91264382495759 3.32157621799982 54.4328905300143 3.4716474269566566 54.32283831011262 3.7717898448703298 C 54.272814573793674 3.951875295618534 54.21278624287127 4.1419654936305275 54.152757759288534 4.332055691642521 L 54.57295699170735 4.892321538414711 C 54.612975980762506 4.602183867764826 55.043180113105436 4.3620699334338875 54.79306143151071 4.071932262784003 C 54.75304244245555 3.941870548354745 54.602971233498714 3.7717898448703298 54.62298072802629 3.671742372232439 C 54.8030661787745 3.351590459791187 55.043180113105436 3.071457536405092 55.323313036491534 2.831343602074153 C 55.399084769072154 2.7578004049634535 55.475849709747536 2.728935084801531 55.55272242861457 2.728935084801531 C 55.82095395282029 2.728935084801531 56.0905029356577 3.0803719836054353 56.323787762870445 3.1114765254602488 C 56.553896949937595 2.861357843865521 56.30377826834287 2.7613103712276295 56.07366908127572 2.631248656798371 C 55.93115120003369 2.496874746080657 55.75880257471469 2.435421025674577 55.58697574239722 2.435421025674577 C 55.33662410114178 2.435421025674577 55.087381079189164 2.565877672372687 54.93312789320375 2.791324613018997 C 54.74301326953926 2.905393326153561 54.61070103655283 3.285352364701771 54.443926650454884 3.285352364701771 C 54.39128936931849 3.285352364701771 54.33521875740264 3.2475020682679125 54.272814573793674 3.151495514515405 C 53.967477888215655 2.9072261660529914 53.601284689435175 2.632528560989344 53.200767800460774 2.632528560989344 C 53.141964263350886 2.632528560989344 53.082420781630596 2.6384496444758754 53.02222131848036 2.6512581513259494 C 52.73915159203202 2.7098244542859335 52.48465148269004 3.2826453917635154 52.46312866632979 3.2826453917635154 C 52.4625913019748 3.2826453917635154 52.46219911759186 3.2822884719163667 52.46195539537801 3.2815572289446635 C 52.45195064811422 2.8113341075465748 52.672055164247745 2.3911345698071043 52.802116878677005 1.9309161956728051 C 52.87470541442579 1.6284641796549773 53.13381891888362 1.4540193753705448 53.398131041825145 1.4540193753705448 C 53.57097504990889 1.4540193753705448 53.746042250351074 1.528618371310535 53.872624835902435 1.6908022613418663 C 54.17045994561688 1.801426804813675 54.38867857238695 2.324608709999178 54.66887317054561 2.324608709999178 C 54.7181045997616 2.324608709999178 54.76924947353027 2.3084569419632377 54.82307567330208 2.271077602641635 C 55.13322283847954 1.9409209429365941 55.38334152007427 1.5507357996488187 55.833555146944775 1.410669337955771 ZM 54.41288103548672 8.3539643970064 C 55.68348393798794 9.664586288562775 56.854039673171926 12.98616238014076 57.154182091085595 14.34680800801608 C 56.66394916983927 13.946618117464514 55.9936311031654 13.686494688605997 55.84355989420857 13.436376007011269 C 55.68348393798794 13.176252578152754 55.243275058381215 10.645051520414107 54.41288103548672 8.3539643970064 ZM 58.93502710404006 5.972833937583278 C 61.33616644734944 7.353489670627489 65.51815019297199 14.146713062740298 66.40857269944921 15.23723051449331 C 64.90786060988084 14.286779524433344 63.42715801484006 13.32632378710959 61.81639370537001 12.545953500534038 C 59.55532143439498 11.435426554253446 57.62440521248368 9.634572046771407 55.78353141062583 7.9537745064548355 C 57.30425330004243 7.443532396001591 58.39477075179545 6.583123520674414 58.93502710404006 5.972833937583278 ZM 56.44384473003591 14.596926689610807 C 56.76399664247717 14.7870168876228 57.054134618447705 15.047140316481316 57.40430077268032 15.187206778174364 C 57.19420108014075 15.707453635891397 57.0641393657115 16.28772897719117 56.63393492804791 16.697923615006523 C 56.553138533427486 16.82789983965203 56.43780579277607 16.869068055657287 56.30612618418938 16.869068055657287 C 56.07854260959068 16.869068055657287 55.80213001840091 16.746095886866005 55.5707952742196 16.746095886866005 C 55.55477265682125 16.746095886866005 55.53896681708883 16.74668576637387 55.52340798176731 16.747947351325465 C 55.80354090515341 16.04761504286023 56.223740290232556 15.737467877682766 56.44384473003591 14.596926689610807 ZM 57.124167849294224 5.2324826400628845 C 57.184711714144704 5.357894931538866 57.26207935779551 5.399188939654495 57.34415016083509 5.399188939654495 C 57.45194789301107 5.399188939654495 57.56786104823 5.327947860291872 57.66442420153884 5.28250637638183 C 57.90453813586978 5.452587079866245 58.73493215876427 5.432577585338667 58.24469954283861 5.792748486835075 C 57.93455237766115 6.212947871914217 56.276979053061744 7.358829118263877 55.125669816085384 7.560939179870867 C 54.62857450776933 7.648202876631839 55.46337949818458 8.434002375116712 55.733507674306885 8.714135298502807 C 57.29424855277864 10.114799915433284 58.82497488413838 11.595502510474073 60.69586262246694 12.605981984116774 C 61.86641744168895 13.266295303526855 63.09700135513502 13.856575392090413 64.22753779594319 14.586921942347018 C 64.7677941481878 15.367292228922569 65.4080979730703 16.087634031915382 65.81829261088565 16.94804229660125 C 65.4080979730703 17.068099263766715 65.00790808251874 17.238179967251135 64.5877086974396 17.33822743988902 C 64.36601903278901 17.394317287006217 64.12578907660871 17.42045884159379 63.88510480329191 17.42045884159379 C 63.22424557054846 17.42045884159379 62.55995819747671 17.223375579271195 62.26660733224052 16.90802330754609 C 61.72635097999591 16.33775271351011 61.13607150207366 13.90659912840936 60.8259243368962 13.016176621932127 C 60.781711463306884 12.91596061229199 60.71926239756145 12.882609826369192 60.65136946451519 12.882609826369192 C 60.516246754888044 12.882609826369192 60.359559857951716 13.014712304064782 60.282149469409035 13.014712304064782 C 60.26643400459087 13.014712304064782 60.253985470794504 13.009267826122647 60.24564899559643 12.996167127404549 C 60.22554240910017 12.749861290164992 60.0362258936311 12.61972996262611 59.859150293912144 12.61972996262611 C 59.68378510050946 12.61972996262611 59.520426336592905 12.747358882066418 59.54531668713119 13.016176621932127 C 59.48528820354846 13.646475699550843 59.36523123638299 14.276774777169555 59.06508881846932 14.847045371205535 C 59.028312334783465 14.944241148914111 58.95153029615133 14.981429204844579 58.85031833053053 14.981429204844579 C 58.56605930379596 14.981429204844579 58.08909653423195 14.688088109869385 57.76447167417673 14.606931436874596 C 57.89453338860599 13.836565897562835 56.84403492590813 9.894695475629923 53.76257261600076 6.593128267938203 C 53.65492021645715 6.47650493687285 53.18528239475708 5.98180792231159 53.22643000161804 5.98180792231159 C 53.23117132608885 5.98180792231159 53.242694585636464 5.988375980268701 53.262335252811305 6.002848179374646 C 53.4200306238752 6.043985863314279 53.597695339800374 6.072202377081685 53.773594081049836 6.072202377081685 C 54.111038897479744 6.072202377081685 54.44198481108117 5.968358547404061 54.612975980762506 5.6526820251420276 C 54.639012505044334 5.5745724522965485 54.67163632248461 5.5439878715193185 54.70962340257247 5.5439878715193185 C 54.84679878297155 5.5439878715193185 55.05390816500387 5.942819695791911 55.273289300172586 5.942819695791911 C 55.43241021338048 6.048900304597176 55.61018194419567 6.097594674778836 55.78704595669985 6.097594674778836 C 56.07723675314392 6.097594674778836 56.36498467901739 5.966506472303287 56.56390169720138 5.742724750516129 C 56.753991895213375 5.572644047031714 56.93407765128224 5.4025633435473 57.124167849294224 5.2324826400628845 ZM 56.0836738285395 0.0 C 55.76929094989797 0.1397257548498089 55.218605454677395 0.2794515168555707 54.724375886040846 0.2794515168555707 C 54.65239440408683 0.2794515168555707 54.5816103897466 0.2764876356676273 54.51292850812462 0.2701281880488942 C 54.4660312553256 0.27856969355271627 54.41843054373461 0.2822628522106384 54.370307733821434 0.2822628522106384 C 54.03344821708955 0.2822628522106384 53.67100572991069 0.10129807797245291 53.34518706608956 0.10129807797245291 C 53.221065670348175 0.10129807797245291 53.102259296590674 0.12756053953989935 52.992207076689 0.2000949572023704 C 52.44194590085043 1.0004747001404175 51.941708575826055 1.8908972066176486 51.88168009224332 2.881367338393099 C 51.77162787234164 4.7822693185130305 51.82165160866059 5.442582332602456 53.32236373639404 7.003322905753557 C 53.91264382495759 8.343959649742612 55.01316587131407 12.716034204018452 55.34332253101911 13.90659912840936 C 55.703493432515515 14.246760535378188 54.8931089041486 16.107643526442963 54.55294749717977 16.56786190057726 C 54.36785967279967 16.822982955803887 53.88012839635028 16.83548888988362 53.356129758409324 16.83548888988362 C 53.299173258609386 16.83548888988362 53.24178854658906 16.835341114686 53.184317276162695 16.835341114686 C 52.71305285866649 16.835341114686 52.23597860889787 16.845276248840165 51.941708575826055 17.028080274711563 C 51.661575653632624 17.208165725459764 51.56152817980207 17.878483792133636 51.7216041360227 17.96852651750774 C 51.871675344979536 17.73841733044059 52.171817762893205 17.428270165263125 52.381917417267694 17.39825592347176 L 52.381917417267694 17.39825592347176 C 52.181822510157 17.60835561601133 52.88215485678732 17.50830814337344 53.032226065744155 17.558331879692386 C 53.436917604051374 17.565077023630117 53.8461561302317 17.599104400127153 54.256876224896445 17.599104400127153 C 54.455383502759766 17.599104400127153 54.654236708926604 17.591156292803817 54.85308991509344 17.56833662695617 C 54.94314882246233 17.528935606909254 55.03954099620367 17.46736830721905 55.08169265004269 17.46736830721905 C 55.114463937359936 17.46736830721905 55.11444989260975 17.504582010084643 55.05318486036923 17.61836036327512 C 55.33639602661157 17.69224185567294 55.65465372970149 17.729181991230533 55.96569792696699 17.729181991230533 C 56.66554782879536 17.729181991230533 57.328880464175036 17.542170646716098 57.47433400352685 17.16814673640461 C 57.77447642144052 16.617885636896208 58.054609344826616 16.03761029559644 58.254704290102396 15.437325459769092 C 58.51007509762583 15.491495450599826 58.831288304668185 15.671362291758161 59.08870842443632 15.671362291758161 C 59.164094537028106 15.671362291758161 59.23400991410132 15.655936270922108 59.29519800553646 15.617410910517297 C 59.57533092892256 15.427320712505304 59.865468599572445 14.536898206028072 60.02554455579307 13.946618117464514 C 60.04087836979093 13.885284082755684 60.12410206362849 13.855284496355816 60.20851711866671 13.855284496355816 C 60.28933854958095 13.855284496355816 60.37125241780322 13.88278411722236 60.39572020455327 13.936613370200725 C 60.69586262246694 14.536898206028072 61.196099985656396 16.37777170256527 61.676327243676965 17.14813724187703 C 62.03856944050533 17.719128392661744 62.91699895160531 18.00000019203595 63.85148655647424 18.00000019203595 C 64.43976374153284 18.00000019203595 65.05025605753971 17.888692493595798 65.56817392929092 17.668384099594064 C 66.21848250143722 17.38825117620797 66.69871037009909 17.448279659790707 66.55864390840605 17.088108758294293 C 66.33853946860269 16.48782392246695 65.9583590725787 15.917553328430971 65.55816918202714 15.407311217977727 L 65.55816918202714 15.407311217977727 C 66.13844452332691 15.767482119474133 66.71871986462668 16.13765776823433 67.29899520592645 16.497828669730737 C 67.34685849328181 16.672188747533063 67.46715483184178 16.74140249773823 67.59002074904468 16.74140249773823 C 67.82670654304732 16.74140249773823 68.07292566922051 16.48455210631464 67.82924681090726 16.22770049360843 C 65.55816918202714 12.946143391085602 61.94645541979927 7.353489670627489 59.4452692144933 5.542629805240347 C 59.045079323941735 5.192463651007728 58.57485620254365 4.922335780206078 58.054609344826616 4.7922740657768195 C 57.8845286413422 4.3520651861700985 57.93455237766115 3.761785097606541 57.83450490502325 3.261547734417085 C 57.73445743238536 2.271077602641635 57.13417259655802 0.6302990513802202 56.0836738285395 0.0 Z"
     style="fill:#ffffff;stroke:none"
     id="path10" />
  <path
     d="M 74.2940047904849 7.386460158973932 C 75.3680262711029 7.386460158973932 76.71237879246848 7.938189953569349 77.3628944195807 8.588705580681562 C 77.93202812785393 9.15783880619665 78.00643177779017 9.912403295059676 78.02729320526123 10.613539975136518 L 70.59235441312194 10.613539975136518 C 70.61321608197207 9.912403295059676 70.68761973190831 9.15783880619665 71.25675319880247 8.588705580681562 C 71.90726906729375 7.938189953569349 73.21998379262504 7.386460158973932 74.2940047904849 7.386460158973932 ZM 74.2940047904849 6.785337448120117 C 73.01987064736741 6.785337448120117 71.64892660079704 7.373943205939668 70.84545871242881 8.1774110943079 C 70.02135804479899 9.001512065547331 69.9279556274414 10.086433742191275 69.9279556274414 10.898282311856747 L 69.9279556274414 11.214662685990334 L 78.6600539535284 11.214662685990334 L 78.6600539535284 10.898282311856747 C 78.6600539535284 10.086433742191275 78.59828987719379 9.001512065547331 77.77418890595436 8.1774110943079 C 76.97072150034427 7.373943205939668 75.56813917498147 6.785337448120117 74.2940047904849 6.785337448120117 Z"
     style="fill:#ffffff;stroke:none"
     id="path12" />
  <path
     d="M 82.30707234109236 0.0 C 81.97167952417662 0.0 81.63693914677022 0.02557681501941188 81.31250197546979 0.06607527749331002 C 80.8652555815139 0.17908764641468827 81.09508929086849 0.691551004033002 81.49217474149897 0.691551004033002 C 81.51879545973331 0.691551004033002 81.54616784759509 0.6892477739396997 81.57413828523619 0.6843665774069844 C 82.41323456966724 0.7809379451946934 83.44624987406445 0.8343621833513529 84.08012854698286 1.3099522696603398 C 84.92101536267825 2.2264874298313986 84.54321658741405 4.131175441985907 84.64111738967105 5.035364548634586 C 84.64813621528707 5.084050771074487 84.65106815981663 8.688216775894238 84.65106815981663 10.514642177771872 C 83.83847373100384 10.125309932737828 82.9208825678306 9.929346523225524 82.0164252492309 9.929346523225524 C 81.61444338836459 9.929346523225524 81.21505592355079 9.968055403438012 80.82863378115093 10.045700924564425 C 80.38781428706622 10.277261433705803 80.90533725376672 10.574405636826553 81.25133612734614 10.574405636826553 C 81.29254319843984 10.574405636826553 81.33131738191595 10.570191114847008 81.3657501142716 10.561149014999877 C 82.59188164147508 10.693665885114646 83.98601070762633 11.022182226852777 84.60877631906963 12.162779349571796 C 84.67029163751954 12.369203618300608 84.63179770646904 12.440134943749182 84.53796243273273 12.440134943749182 C 84.3317747029824 12.440134943749182 83.8583838123213 12.09765687101284 83.5916907404815 12.09765687101284 C 83.57769531987954 12.09765687101284 83.56426930103116 12.098600179917966 83.55148077489609 12.100585494032176 C 83.0394047290956 11.989982050404612 82.50277619830533 11.931979940774392 81.97113764350779 11.931979940774392 C 81.58185439074963 11.931979940774392 81.19524661448118 11.963078766550048 80.82291265771896 12.027395541627664 C 80.40225628768415 12.305094674863055 80.91856324059279 12.560923086742763 81.26075765042428 12.560923086742763 C 81.29834700375145 12.560923086742763 81.3338353832332 12.55783598023534 81.3657501142716 12.55135239226771 C 82.61725572574514 12.702280868085056 84.0021731764022 13.041564596983719 84.60877631906963 14.184079654609437 C 84.61569976989192 15.454207135245605 84.60838960037864 16.29360971036995 84.6423610580012 17.461695651746815 C 84.62773549945858 17.821291839202146 84.86152236945652 18.0000004775746 85.09837309539029 18.0000004775746 C 85.33341834326369 18.0000004775746 85.57148142043116 17.824005987560962 85.57278107993373 17.47414277408046 C 85.56412474977466 16.323224295574562 85.48197004126122 15.312999296365092 85.63288190952743 14.196637810285033 C 85.93728930651677 12.944223469200365 88.11029152475373 12.752022856276419 89.45989705115997 12.442651699500084 C 89.7543774030768 12.096448790292289 89.17487825838208 11.967892109373793 88.8013526060279 11.967892109373793 C 88.74556736722502 11.967892109373793 88.69437625157076 11.970759996206079 88.65137692914492 11.976197782952937 C 88.47838603338151 11.962932620099958 88.30428243169128 11.956089360024638 88.12991405818562 11.956089360024638 C 87.2477408703398 11.956089360024638 86.35878468410424 12.13123828843418 85.57278107993373 12.535942482809514 C 85.54076504283333 11.781050515954124 86.2841679058055 11.34669282725435 86.81665819072613 11.04328994985864 C 87.65706718344995 10.681838461689502 88.58229710839845 10.646347650387764 89.45989705115997 10.452448322232252 C 89.77319897804198 10.180431818497764 89.28009705942645 9.951551293609986 88.93865434887874 9.951551293609986 C 88.89363175222178 9.951551293609986 88.85124548568398 9.95553046286471 88.81369344003421 9.963915852689357 C 88.59857061051628 9.94321620094024 88.38220411266818 9.932653798411005 88.16586039089024 9.932653798411005 C 87.26346300175955 9.932653798411005 86.36145375482423 10.116410183329096 85.55163539681097 10.514642177771872 C 85.56822728940934 7.66350714507617 85.61441526165532 4.904232748285445 85.5325903316575 2.2071488855241097 C 85.4668856398055 1.373210194726995 84.98639881704094 0.6077956834651214 84.17813397681208 0.35840862892298625 C 83.59760207968677 0.09431807897321196 82.95113417124705 0.0 82.30707234109236 0.0 Z"
     style="fill:#ffffff;stroke:none"
     id="path14" />
  <path
     d="M 103.09750915105883 4.925896798859169 C 102.9386500145369 4.925896798859169 102.82848140936323 4.999670678415409 102.76700333553781 5.147217960113574 C 102.80702831962067 5.313988806694553 102.91827826822204 5.397373991277884 103.1007527039276 5.397373991277884 C 103.26862876465212 5.397373991277884 103.49678984082422 5.32679687798736 103.78523497761529 5.185642651406311 C 103.49884892877286 5.012478749708216 103.26960698658738 4.925896798859169 103.09750915105883 4.925896798859169 ZM 106.99030682020191 0.4161926743775775 C 107.07588906547144 0.4161926743775775 107.16024817526119 0.4498426555721807 107.24338319474248 0.5171426179613872 C 107.4867336848199 0.6964540644641503 107.40348217624529 0.9846331024503463 106.99362771419001 1.3816797319199756 C 106.71185205540553 2.4447402202901682 106.24436222736126 3.4565685428427133 105.59115727522857 4.417164580224032 C 105.15568667058767 5.121602294942278 104.90593166744952 5.749191581903683 104.84189131098549 6.299933395936883 C 104.57292515573677 6.0053506206882314 104.53450141927267 5.76199965319649 104.72662010159318 5.569880016047341 C 104.91873926132801 5.377760856312509 105.00839480554903 5.176036120522389 104.99558768908486 4.96470437643403 C 104.98277866296341 4.753373587174305 104.89312359615671 4.615688253019584 104.72662010159318 4.551647896555551 C 104.65093704218381 4.5225389908277664 104.57525398277443 4.507984537963874 104.49957092336506 4.507984537963874 C 104.4087504882109 4.507984537963874 104.31793053047105 4.528943503888486 104.22711009531689 4.570860480909078 C 104.07341467204617 4.289085776953233 103.75961931244399 4.103370175450487 103.28572544875331 4.013713676400841 C 103.31134159133892 3.7575546376162925 103.47784460848814 3.4309521615499414 103.78523497761529 3.0339062482017876 C 104.61775245043296 2.1373491350415517 105.4886927048861 1.432911420323306 106.3980581280463 0.9205933427542092 C 106.6015884447828 0.5843262106108582 106.79900403894892 0.4161926743775775 106.99030682020191 0.4161926743775775 ZM 103.09023813101301 4.466689154383839 C 103.41552867253662 4.466689154383839 103.76246613401544 4.661511911395067 104.13105003803516 5.051157902831841 C 104.25547041539583 4.963332287687365 104.35897956826358 4.919419241407969 104.44157797405273 4.919419241407969 C 104.50352630098027 4.919419241407969 104.55371304879756 4.944120180748155 104.59213678526166 4.993522059428528 C 104.68179232948268 5.108794223649471 104.54730901315116 5.339337597262722 104.18868683626711 5.685152180268284 C 104.18868683626711 5.979735432931252 104.34238178212352 6.357569716754513 104.64977215125066 6.818655509152383 C 104.3039575682451 6.831464057859507 104.05420256510695 6.92111960208052 103.90050761925055 7.087622619229738 C 103.73811227488362 6.809231350537503 103.49692733614748 6.670035477484227 103.1769518482135 6.670035477484227 C 103.14362069026738 6.670035477484227 103.10943448327976 6.671546016382782 103.07439370466494 6.674566616765576 C 103.0520182504622 6.6764953706057035 103.03031738268919 6.677459747525767 103.00928966910294 6.677459747525767 C 102.68126211130075 6.677459747525767 102.51724833239966 6.442750456583567 102.51724833239966 5.9733309198705316 L 102.15222211986921 5.80042386707491 C 102.28030140055432 5.544264828290362 102.40838068123944 5.352145668555529 102.53646043933887 5.224065910456097 C 102.664539720024 5.095986629770981 102.77981140683062 4.852635184864923 102.88227549975875 4.494012530566555 C 102.95058441762986 4.475796787306638 103.01990545385272 4.466689154383839 103.09023813101301 4.466689154383839 ZM 105.09164726895227 6.85708020044512 C 105.62958148910698 6.959543338544623 105.96258752340542 7.215702377329171 106.09066728150485 7.625557316798765 C 106.21874703960428 8.035411301439725 106.28278644123968 8.534921307716015 106.28278644123968 9.124087813041951 L 105.8024885419026 9.124087813041951 C 105.84091180095238 7.932947685925906 105.60396439169273 7.177278640865068 105.09164726895227 6.85708020044512 ZM 94.44729929801797 5.604694977690275 L 93.39087856861312 10.136024747351584 L 92.42266156649171 9.675856545270724 L 94.44729929801797 5.604694977690275 ZM 104.64429907352213 7.308319322557686 C 105.18497221961269 7.308319322557686 105.40132970421467 8.438702271466767 105.2933720047424 10.699466259627663 C 105.18450435358217 12.979280988688666 104.90593166744952 15.111805762368297 104.45765299151583 17.097038671009283 L 104.95716395262075 17.442852776600528 L 98.06008081884136 17.442852776600528 L 99.90442542067579 16.866495297396032 C 99.43053131827796 14.958110816511885 98.91501134223924 13.558841917959315 98.35786585062037 12.668688601738324 C 97.80071958320325 11.778536240345966 97.67904380107342 11.2309945344787 97.99283844455412 11.026068258279697 C 98.07128728445467 10.974835973108469 98.15193748177028 10.949220785351491 98.23478903650093 10.949220785351491 C 98.48334358133933 10.949220785351491 98.75171034291323 11.179763204136108 99.03988920186904 11.640849951362613 L 101.7871944750958 15.156633057064486 L 102.47882459593556 15.156633057064486 C 102.56848061757088 12.108340734235519 102.85025532152673 9.879757335517107 103.32414966263173 8.470881906080615 C 103.64434810305167 7.7152123836054605 104.07981870769257 7.327772046312595 104.63056099914009 7.308559939373385 C 104.63516327315465 7.308399528162919 104.63974263128199 7.308319322557686 104.64429907352213 7.308319322557686 ZM 106.99725510816954 0.0 C 106.81447321764392 0.0 106.65636600867106 0.06671546570782488 106.52293539090823 0.20014640423340468 C 106.2731808651844 0.44990167591710295 105.91455773347171 0.7316766782568958 105.44706790542743 1.0454713217375986 C 104.97957807738317 1.3592659652183015 104.52809738362626 1.705080786931021 104.09262677898538 2.082915548168599 C 103.65715617434448 2.4607503094061762 103.34976532780303 2.7873532628868443 103.17045376194669 3.0627239311962855 C 102.99114219609034 3.3380948382128857 102.85665887975883 3.6550914995167902 102.76700333553781 4.013713676400841 C 102.57488417580298 3.898442467008532 102.54286447498528 3.7575551150306095 102.6709437556704 3.5910518591742324 C 102.79902351376982 3.4245483646106964 102.85665935717314 3.2644489056935644 102.84385080846602 3.1107530050085184 C 102.8310427371732 3.0339055320803126 102.7830129472395 2.9602598382681493 102.69976191607921 2.88981592357203 C 102.63871065065305 2.838157546123003 102.57249376231844 2.812327999337752 102.50111125107537 2.812327999337752 C 102.4751537572532 2.812327999337752 102.4485130835436 2.8157436600677497 102.42118922994656 2.822574742820587 C 102.31872513701843 2.8481904079918836 102.22906959279742 2.8802101088095835 102.15222211986921 2.9186338452736864 C 102.07537369211236 2.9570582978592648 102.05295956734996 3.0082903443233326 102.08497974558198 3.0723297459587324 C 102.11166290916577 3.125696311833496 102.16725255480702 3.1523797141244567 102.25174868250569 3.1523797141244567 C 102.26864867190832 3.1523797141244567 102.2867044813721 3.151312215711951 102.3059165883113 3.1491774575940967 C 102.3212864648284 3.147469746582677 102.33443588735776 3.146615891076967 102.34536533331371 3.146615891076967 C 102.41640697073454 3.146615891076967 102.3936519721499 3.182691703930737 102.27709986014544 3.2548433296382764 C 102.1426160663996 3.338094599505727 102.09458579905157 3.5302139979477176 102.13300953551568 3.8312010475499307 C 102.1714332719798 4.132187858444985 102.29310899443281 4.321105000356616 102.49803574804614 4.397953428113456 C 102.42118827511793 4.500416566212958 102.38916857430023 4.5964761460803745 102.40197664559304 4.686131690301387 C 102.42759231076434 4.80140385452233 102.3059165883113 5.044754822014071 102.03694947823395 5.416185070190929 C 101.76798284557091 5.787615318367786 101.74236718039961 6.0053506206882314 101.96010248272006 6.069390977152265 C 102.17783730762619 6.133430856201981 102.26749237443289 6.296732332942315 102.22906863796878 6.55929492995895 C 102.19064585633332 6.8218580043899015 102.45320893076426 6.9787554454838325 103.01675786126164 7.0299872532407415 C 103.03670852814903 7.027770618567546 103.05555111640699 7.02666206252379 103.0732851486212 7.02666206252379 C 103.36294244036277 7.02666206252379 103.35690792339761 7.322353393816197 103.05518255255437 7.913735578986696 C 102.38916857430023 9.143298965152528 102.00493025483057 11.230995489307334 101.90246711673106 14.176825151451116 L 99.09752504527236 10.584194572821035 C 98.77607040843117 10.32703057689949 98.46974300228052 10.198448578938718 98.178542946174 10.198448578938718 C 98.04584098201228 10.198448578938718 97.9162804637323 10.225151316509512 97.78986145101088 10.2785567916511 L 97.78986145101088 10.2785567916511 L 94.4750831403093 4.649419961577555 L 91.55864238739014 10.335642176347068 L 91.94784295126928 10.476238783006021 L 92.13831073488208 10.095707108292483 L 92.30327838758826 10.177831919079296 L 92.10540924982114 10.639012239511905 L 92.38697245923461 10.749336959167195 L 92.59051136942881 10.296650794260216 L 92.77916068190868 10.400808275770267 L 92.61000753788655 10.875868940051356 L 92.91722317337373 10.990733869860016 L 93.07649551198689 10.53677014424111 L 93.3074824035005 10.644574116303362 L 93.194067142265 11.117579034536039 L 93.54087164385658 11.266245852807248 L 94.74808726585005 6.015047860292357 L 97.39371716443851 10.513574492241993 L 97.39371716443851 10.513574492241993 C 97.13546899044177 10.702668754865181 96.9893613702651 10.899116152796694 96.95539430833765 11.102916686036536 C 96.91056678169457 11.371883318699574 97.1635239145499 11.983462516544972 97.7142656987447 12.937655234401362 C 98.26500757245469 13.891847952257752 98.72609396162045 15.105401726721894 99.09752504527236 16.578316557793784 L 97.46451081496014 17.23152246475512 L 97.54135870562587 17.99999910369445 L 106.12909149538328 17.99999910369445 L 105.22613010786947 16.789646869639192 C 105.64879264121755 14.868455272290872 105.84091180095238 12.473367901594607 105.8024885419026 9.604385712379033 L 106.66702476070935 9.604385712379033 C 106.79510547363742 7.6703846114949545 106.3276146907645 6.600920684246255 105.2645543217479 6.395993930632933 C 105.2645543217479 6.011755133748951 105.39903811549372 5.589093077815185 105.66800474815676 5.128006808002998 C 106.48771367226732 3.885634873130042 106.97761714765969 2.9762699273841577 107.13771708399113 2.3999117320581864 C 107.29781797515122 1.8235542528536903 107.48353309923965 1.3944879225663613 107.69486341108507 1.1127126218426204 C 107.90619372293047 0.8309379775635654 107.85175989735035 0.5107392387596695 107.53156193434472 0.15211634575414343 C 107.33470586975798 0.05070544745800425 107.15660359436625 0.0 106.99725510816954 0.0 Z"
     style="fill:#ffffff;stroke:none"
     id="path16" />
  <path
     d="M 113.33026334843368 0.5911294129744623 C 114.00345371324917 0.5911294129744623 114.45831788760991 0.6904583905632232 114.8384011688152 1.1199194272757094 C 115.3596828764782 1.6391326562674657 115.45949753186514 2.410309847894004 115.41012853157282 3.111554760700528 C 115.4006402449218 4.723524933587234 115.11589462814537 6.322313302282503 114.6442961620005 7.8612467627934555 C 114.27513087037269 9.128087548415428 113.83301310573388 10.372030370980749 113.42966887499574 11.628059176113464 L 113.233799100815 11.628059176113464 C 113.2165506176275 11.566162173216235 111.30856142398841 6.33905800567351 111.2233414751719 3.627403029337134 C 111.20864206096411 2.8378594082344293 111.09507095167423 1.9443303366799265 111.63566772817656 1.2869662058894948 C 111.96994999577882 0.8283589405419381 112.64518482158151 0.5911294129744623 113.33026334843368 0.5911294129744623 ZM 113.74611901785669 12.215669445165402 C 113.74611901785669 12.443676063743567 113.74611901785669 12.67173947290471 113.74611901785669 12.899744198463443 C 113.74608801966347 13.023592155311729 113.82372311286844 13.134166259898668 113.9402240246714 13.176195077341111 C 114.11129051173657 13.23790751084366 114.26817544372248 13.348230790355782 114.42960409560148 13.479705722497988 L 112.03917061760589 13.479705722497988 C 112.20059926948488 13.348230790355782 112.35748396484337 13.23790751084366 112.52855116179083 13.176195077341111 C 112.6450513637115 13.134166259898668 112.72268669354389 13.023592155311729 112.72265616860554 12.899744198463443 C 112.72265616860554 12.67173947290471 112.72265616860554 12.443676063743567 112.72265616860554 12.215669445165402 ZM 115.39012972777718 14.69257084503842 C 115.45051704767693 14.814398003642411 115.45951788182404 15.05970492681505 115.44424405453216 15.231358249904337 L 111.06864522859122 15.231358249904337 C 111.03475674965007 15.037018035425131 111.02971350925422 14.815452415466366 111.04570632898934 14.69257084503842 ZM 114.92486625116348 16.51186284979077 C 114.6075905152025 16.983279586070115 113.97382701261937 17.41239112406986 113.30673548316084 17.41239112406986 C 112.58566687085619 17.41239112406986 111.88459173823003 16.994804288375743 111.54567358435106 16.51186284979077 ZM 113.36087205289414 0.0 C 112.08607798275355 0.0 110.62396810167955 0.7350081774781649 110.62396810167955 2.2457281355225995 C 110.55093890222467 3.167882973681924 110.64274868831345 4.096546485905363 110.73866703645325 5.0143736450143495 C 111.02802363446949 7.298990176257101 111.88946697315124 9.45034949756186 112.59795848265945 11.628059176113464 C 112.59401390341678 11.628059176113464 112.58836158401849 11.628003332040201 112.58125921173482 11.628003332040201 C 112.4866901131956 11.628003332040201 112.13504660943589 11.637911395750397 112.13504660943589 11.921571839137096 C 112.13504660943589 12.183099099317912 112.13504660943589 12.444696401217735 112.13504660943589 12.706227447437417 C 111.73287380278538 12.90404892465316 111.45302282437935 13.206866724697708 111.18040329851954 13.429120457220222 L 110.30457795174765 13.429120457220222 C 110.30448279794273 13.429120457220222 110.30438764413782 13.429120457220222 110.3042924903329 13.429120457220222 C 110.14216235644042 13.429120457220222 110.01064742686809 13.560467610550727 110.01047878545724 13.722633120243856 C 110.01047878545724 13.986701759012927 110.01047878545724 14.250862209224481 110.01047878545724 14.51493463403242 C 110.01050976146662 14.672486855368318 110.19436032638261 14.801970331067434 110.35178030256408 14.808443511017188 C 110.42265814459068 14.941458414467808 110.43464225904985 15.0598762450737 110.45280323676073 15.18312506127157 C 110.34297054506594 15.179714786763752 110.23324628789052 15.176537353646143 110.12341294547029 15.17312613262861 C 110.12204659953797 15.17310530941485 110.12068185084078 15.173094897807971 110.11931878811403 15.173094897807971 C 109.95825778870835 15.173094897807971 109.8205352860808 15.316959642136501 109.82049083709717 15.466637849142527 C 109.82049083709717 15.720381013416517 109.82049083709717 15.974018168602283 109.82049083709717 16.227762279385992 C 109.82033495877826 16.390024333070183 109.95174088074916 16.52169329970423 110.1140017402043 16.521861778433728 C 110.31878062582497 16.521861778433728 110.78874290203308 16.531402596374 110.87066331797857 16.531402596374 C 110.8760445215 16.531402596374 110.8797513493333 16.531360949946485 110.88159864051524 16.531273871052584 C 111.24916900411421 17.37459131203983 112.23626683175152 18.000001393121796 113.30673548316084 18.000001393121796 C 114.34729655718202 18.000001393121796 115.25078504059883 17.329800579245234 115.5907050750125 16.521861778433728 L 116.35477315047365 16.521861778433728 C 116.62976025207506 16.521861778433728 116.64838188423349 16.330110268028594 116.64828344722298 16.227762279385992 C 116.64828344722298 15.974018168602283 116.64831752157278 15.720381013416517 116.64828344722298 15.466637849142527 C 116.64828344722298 15.338960313982104 116.70381043972954 15.181948549694212 116.05891030382445 15.181948549694212 C 116.06881126871177 15.063973685635547 116.06352879798511 14.939742392352162 116.04244056150603 14.814326068903974 C 116.32584923330819 14.796523167650147 116.45768999145574 14.67226915813357 116.45770797514035 14.51493463403242 C 116.45770797514035 14.250862209224481 116.45770797514035 13.986701759012927 116.45770797514035 13.722633120243856 C 116.45753902315599 13.56060201493044 116.32622878370442 13.429288935949723 116.16419720513615 13.429120457220222 L 115.28837141468783 13.429120457220222 C 115.01572266534053 13.206860099129694 114.73594764433923 12.904071640886352 114.33372786714405 12.706227447437417 C 114.33372786714405 12.444696401217735 114.33372786714405 12.183099099317912 114.33372786714405 11.921571839137096 C 114.33356175468884 11.761715813151733 114.20562724214045 11.632318469836799 114.04668791081531 11.628649798176433 C 114.05330306722252 11.591956456004755 115.88590157882142 6.546802217500052 115.97715079453073 3.8967974416523803 C 116.0470330266495 2.8991475687566495 116.14495087656498 1.7764597396718194 115.47777132170283 0.9411075920452122 C 115.0612814907699 0.3675831622774882 114.62376825927345 0.0 113.36087205289414 0.0 Z"
     style="fill:#ffffff;stroke:none"
     id="path18" />
  <path
     d="M 121.09890374205808 0.9856506529406607 C 121.46906121032876 0.9856506529406607 121.92220162329701 1.1279813026867649 122.05432253893258 1.4537780264923652 L 122.00568038547331 12.039112019738132 L 122.00568038547331 12.039112019738132 C 121.81793266370154 11.614017163183222 121.26020149914872 10.823123114577701 119.60360840198338 9.843249320123512 L 120.86128948172912 1.0820565966367734 C 120.92029152297928 1.0193669576482312 120.918744629738 0.9856506529406607 121.09890374205808 0.9856506529406607 ZM 122.00568038547331 12.039112019738132 L 122.00568038547331 12.039112019738132 C 122.00568038547331 12.039112019738132 122.00568062419141 12.039112019738132 122.00568062419141 12.039112019738132 L 122.00568038547331 12.039112019738132 L 122.00568038547331 12.039112019738132 ZM 120.9228937889088 0.0 C 120.63955331662399 0.0 120.38381450445898 0.04045075098350828 120.20275136672151 0.08983070746818508 L 118.64828395843506 10.464214281557382 C 119.47057564291288 11.027426652238745 121.73035702161677 12.570631221548322 121.64024380620565 13.911077236693389 L 121.65709396150334 18.000001148559306 L 122.80479612391261 17.984224747243 L 122.7983598066948 1.1593105458254815 C 122.45707266584807 0.23722062911383482 121.60905170661124 0.0 120.9228937889088 0.0 Z"
     style="fill:#ffffff;stroke:none"
     id="path20" />
  <path
     d="M 132.33518627555762 0.41151713970764847 C 133.07044089114305 0.41151713970764847 133.99075897988294 0.7892208312565924 134.4360895677493 1.2345514191229454 C 134.8257076465724 1.6241691674590475 134.87664296585535 2.140729621049012 134.89092430111037 2.620714416032919 L 129.80110704683156 2.620714416032919 C 129.8153885473301 2.140729621049012 129.86632386661304 1.6241691674590475 130.25594178019264 1.2345514191229454 C 130.7012725333025 0.7892208312565924 131.5999319904592 0.41151713970764847 132.33518627555762 0.41151713970764847 ZM 132.33518627555762 0.0 C 131.46293834894902 0.0 130.5244162093637 0.40294827245723414 129.9743774214453 0.952987060375607 C 129.410213826474 1.5171508631922639 129.34627231347048 2.2598675450244965 129.34627231347048 2.8156435874733843 L 129.34627231347048 3.0322315557405677 L 135.32410023764473 3.0322315557405677 L 135.32410023764473 2.8156435874733843 C 135.32410023764473 2.2598675450244965 135.28181772931327 1.5171508631922639 134.71765392649664 0.952987060375607 C 134.16761546906525 0.40294827245723414 133.2074343674097 0.0 132.33518627555762 0.0 Z"
     style="fill:#ffffff;stroke:none"
     id="path22" />
  <path
     d="M 128.48363264994927 4.401393308184652 Q 126.98100972797648 4.435936666340945 125.99653192219876 5.489499690414159 Q 124.90842550506399 6.681235393740838 124.80479621887207 7.872971841712912 Q 124.80479621887207 8.149316449756904 125.1156840890829 8.149316449756904 L 139.5546875323646 8.149316449756904 Q 139.86557549565612 8.149316449756904 139.86557549565612 7.821156064196233 Q 139.86557549565612 7.4929964232809585 139.5546875323646 7.4929964232809585 L 125.58201473089073 7.4929964232809585 Q 126.44559163102821 5.282241885945886 128.17274468665775 5.040439935044359 L 139.5546875323646 5.040439935044359 Q 139.86557549565612 5.040439935044359 139.86557549565612 4.712281178395491 Q 139.86557549565612 4.401393308184652 139.5546875323646 4.401393308184652 Z"
     style="fill:#ffffff;stroke:none"
     id="path24" />
  <path
     d="M 130.53502879045638 12.30213614873671 L 130.5599125009195 13.720422727944417 L 128.9923305976918 13.695540669566707 L 128.96744920014825 12.327018867948581 L 130.53502879045638 12.30213614873671 ZM 131.2814951676268 12.277254916401706 L 135.31241241484554 12.327018867948581 L 135.28752936521659 13.77018783595108 L 131.2566147613345 13.720422727944417 L 131.2814951676268 12.277254916401706 ZM 137.10393383472388 12.351900595909209 L 137.10393383472388 13.77018783595108 L 135.8847027312866 13.74530544715629 L 135.8847027312866 12.351900595909209 ZM 127.24361173706328 14.897729520736473 C 126.50464863620479 16.234903332094632 126.20554402439339 17.308160794439633 126.20554402439339 17.308160794439633 C 126.19169773135378 17.48815219581634 126.08371635502387 17.581852532830716 125.98160269044881 17.581852532830716 C 125.86744928823127 17.581852532830716 125.7606299061753 17.4647494147158 125.8008742111659 17.22018922879705 C 126.00027728570684 16.686490966726893 125.9474923307771 16.070688024726316 127.24361173706328 14.897729520736473 ZM 126.32759067768417 9.518478294789986 C 126.24853376492028 9.518478294789986 126.18154558389784 9.544069071995255 126.1304811107153 9.588231194283122 C 126.00224178046926 9.699138873362493 125.97625183361482 9.926175513231314 126.10682853430058 10.152297476012238 L 126.10746120040879 10.153395080257287 L 126.10826634423393 10.154373527842056 C 126.73710333148169 10.917362617720313 127.55683490559004 11.558006646380399 128.20506696254367 11.937284485068016 C 128.17434246931788 12.372737357949115 128.26098542787278 13.173345878214564 128.23200983226326 13.614225025628667 C 126.90857145901361 13.186706953768901 126.39022222687306 12.936012244301375 125.46590398153768 11.84717941632544 L 125.46278992444402 11.84351310838096 L 125.45813546291298 11.842294199764595 C 125.37855607813782 11.821499235485593 125.29910621685889 11.81107474174962 125.22442588485988 11.81107474174962 C 125.11651166580192 11.81107474174962 125.01855423510003 11.832841793084556 124.94453701920847 11.876544573674915 C 124.8162643865345 11.952283107681911 124.75969387665155 12.093542688261948 124.8434108009209 12.296001625187934 C 124.92525194741441 12.493910884100085 125.14242119739897 12.753766076755493 125.5615684828974 13.076277269463885 C 125.97605713534912 13.395201454327534 126.58894216409648 13.776247685239273 127.46546648713354 14.220328904597316 C 127.40141992678997 14.272543394434589 127.17789442274339 14.456323688493287 126.93214027469799 14.676354701478155 C 126.64009733676811 14.93782662491694 126.3172340846586 15.250144781055464 126.19250295778319 15.454211692712146 C 125.85403964136584 16.007946446649036 125.60463785394111 16.504882504149723 125.49272819022262 16.93014580984032 C 125.37998075399214 17.35860953538944 125.40679938688882 17.715631140251872 125.6213008700025 17.984802112123816 L 125.62477173624283 17.98915502676518 L 125.6302320437353 17.990248707307376 C 125.6317911993421 17.99056392520383 125.67899532714863 18.00000063707246 125.753535025377 18.00000063707246 C 125.83238608829866 18.00000063707246 125.9418303036559 17.989437863787572 126.0601842982399 17.946344207088316 C 126.29240968406174 17.8617825457344 126.55713638096907 17.652653644377875 126.69300157226454 17.15821818335554 C 126.96214363264178 16.178779347340356 127.37406436613465 15.397000635757315 127.38808991044137 15.370517706616178 C 127.51643877395016 15.180113541309915 127.69639184694532 14.931916124149922 127.84427397710459 14.74059868602836 C 127.9181747313002 14.644993824951982 127.98402718620672 14.563638530964074 128.0313372952924 14.510913216317665 C 128.05411129268543 14.485534210648275 128.07237774024264 14.466994838581149 128.0848678363682 14.457024172707627 L 128.09624376609247 14.457269011765561 C 129.04069870227477 14.477623034448321 129.99714546562262 14.484490753502577 130.95969470206228 14.484490753502577 C 132.95676792796488 14.484490753502577 134.98011459857844 14.454930319657503 136.9771845203102 14.454930319657503 C 137.93973970425733 14.454930319657503 138.8961901021931 14.461796386626347 139.84065164671705 14.482150739726187 L 139.85522436171195 14.482465296788476 L 139.856205039612 14.46794280519008 C 139.8562645146868 14.467065547836748 139.86870009199382 14.286505498661512 139.86557698973252 14.105725061292425 C 139.86400684775774 14.014656165920972 139.85847830913778 13.923670205237158 139.84547970112266 13.855168796582355 C 139.8387775210266 13.819833993808142 139.83000032165413 13.790192277360838 139.8187198824666 13.769101424584694 C 139.81249218130066 13.757453892018827 139.8053564939927 13.748138112802291 139.79732075055276 13.741576690383269 C 139.7881153306417 13.734064658018655 139.77763450079317 13.730039186705785 139.76632894990743 13.730039186705785 L 137.86566415942522 13.730039186705785 C 137.86566415942522 13.30613290397193 137.86566415942522 12.766423363924671 137.86566415942522 12.342480074477606 C 138.50784297543228 12.350708781493587 139.1741184484126 12.35893616684124 139.81590869393096 12.367164543440138 L 139.83084618938463 12.36734825533786 L 139.83135371002297 12.352415385723331 C 139.83964717878706 12.103593645486455 139.82305891959052 11.904537013256242 139.83135371002297 11.655713786142496 L 139.83187709068122 11.640126360288058 L 139.81630519442965 11.639935709631608 C 136.10974584099188 11.590182992265529 132.40318450505163 11.615041425821858 128.69662746453346 11.56532472391774 C 128.25527020360136 11.398451376331385 127.88036543499713 11.054179245004077 127.5618379158407 10.69431803573692 C 127.24097715645807 10.331819602527903 126.97717265362725 9.953268598816933 126.76054675388336 9.72155670179196 L 126.76002006905428 9.720991977696285 L 126.75943589165288 9.720483362551388 C 126.62459086309882 9.602809159811963 126.50045845197643 9.542005511479974 126.39393842779695 9.524170754486063 C 126.37099955227987 9.520330509697658 126.34885879922493 9.518478294789986 126.32759067768417 9.518478294789986 Z"
     style="fill:#ffffff;stroke:none"
     id="path26" />
</svg>
