<?xml version="1.0" encoding="UTF-8" standalone="no"?>
<svg
   width="73.3478775024414"
   height="18.0"
   version="1.1"
   id="svg56"
   sodipodi:docname="kheperkheperu.svg"
   inkscape:version="1.1.1 (3bf5ae0d25, 2021-09-20)"
   xmlns:inkscape="http://www.inkscape.org/namespaces/inkscape"
   xmlns:sodipodi="http://sodipodi.sourceforge.net/DTD/sodipodi-0.dtd"
   xmlns="http://www.w3.org/2000/svg"
   xmlns:svg="http://www.w3.org/2000/svg">
  <defs
     id="defs60" />
  <sodipodi:namedview
     id="namedview58"
     pagecolor="#ffffff"
     bordercolor="#666666"
     borderopacity="1.0"
     inkscape:pageshadow="2"
     inkscape:pageopacity="0.0"
     inkscape:pagecheckerboard="0"
     showgrid="false"
     inkscape:zoom="18.746282"
     inkscape:cx="36.673939"
     inkscape:cy="8.988449"
     inkscape:window-width="1920"
     inkscape:window-height="1001"
     inkscape:window-x="-9"
     inkscape:window-y="-9"
     inkscape:window-maximized="1"
     inkscape:current-layer="svg56" />
  <path
     d="M 3.009169848917976 0.4739171748132039 C 3.7026715218272255 0.4739171748132039 4.256829318471649 0.6745946316238001 4.644164689284773 0.9526347441559112 C 4.650308145491952 1.0062515645085024 4.663546055856558 1.060016372992199 4.652575800812965 1.1124437372646898 C 4.603449882852364 1.360569519526529 4.457806885291136 1.5903185537666114 4.257258755698066 1.7432685981716125 C 3.9413649209170813 1.94997010496389 3.5600411988456018 2.009570228366613 3.2002765010963685 2.0993341831784433 C 3.10998720613517 2.1086036967312767 3.181170796374544 2.130187995961788 3.231117085890341 2.138585643286511 C 3.4609996992016763 2.1784200797833564 3.9384250002790258 2.2376030490926513 4.202499603977515 2.2376030490926513 C 4.220906351189456 2.2376030490926513 4.23827706337661 2.2373153403237978 4.254454894379272 2.2367137030214415 C 4.532424083629077 2.2049171597812043 4.794657162235626 2.0893111466595644 5.019856122452685 1.9255069464391237 C 5.098959498900698 1.8590524805074944 5.166930105007111 1.7763742399315428 5.224523825878929 1.6899990125400517 C 5.3720929131784425 2.0357255065676374 5.451951702305268 2.4028945713681713 5.485264503827336 2.6067978859799568 C 5.503366062427325 2.716651377223197 5.580895308140001 2.8061828973646232 5.687128818362978 2.8395020766672823 C 6.825504545072815 3.188508875845171 7.72511459117944 4.749370284342509 8.566494083211595 5.78895938641794 C 10.295861887830181 7.925728476871466 11.765759846336513 10.315234366846607 13.458892408638075 12.548598959980612 C 12.522122105814729 12.092922126930452 11.58844053850988 11.632519122248745 10.649618007621019 11.174801399409672 C 8.72850955219054 10.164475916823728 6.728271736761494 9.358727903879377 5.045088984609069 8.085161653353607 C 5.042277564439204 8.082822188947427 5.039490238107126 8.07909189594436 5.036677873080877 8.076750541825415 C 4.066833817400553 7.2693821001829235 3.0743602151151883 6.41700117284651 2.698420284718348 5.284299308721125 C 2.5498687829938245 4.364048874911361 4.455242072637431 2.7072382455000326 4.240437005069874 2.637638234559833 C 4.2215063349931405 2.631504463130588 4.200107227613845 2.6285180083156328 4.1764933768710275 2.6285180083156328 C 3.7176359210190495 2.6285180083156328 2.422621666796125 3.756154733581801 2.15731260823226 4.830105427765268 C 2.154053326136495 4.815773846136464 2.1461630666898484 4.79928090552982 2.143294246494671 4.785246481233707 C 2.0704243238243896 4.4287242943794265 1.9886595231574336 3.528875672035904 2.2105824300779164 2.8058581029827074 C 2.22090238771539 2.7720589366371007 2.223991359447983 2.7373940456298778 2.2217969304967107 2.702122556824284 C 2.206042867582163 2.411103719844335 2.16184012380912 2.2384220033632714 2.098435772391302 2.068493834598567 C 2.035031184759387 1.8985666106902463 1.9592064599630061 1.724220765903293 1.8376947401217505 1.3030929608462967 C 1.806828171777225 1.1953371688820418 1.6962380468757994 0.9753151948986268 1.630223411590808 0.9582419943653084 C 1.8161052441811285 0.8204882523408192 2.0045522437462973 0.6772958579179091 2.2750667523423678 0.5825507383579678 L 2.2750667523423678 0.5825507383579678 C 2.1960743965194465 0.658865194028754 2.1432944827087668 0.7691834365057539 2.143294246494671 0.8965614153126038 C 2.143294246494671 1.1261525404295507 2.3068791219270324 1.3115031275181046 2.5077709430296933 1.3115039542674405 C 2.7086627641323537 1.3115039542674405 2.8722476395647156 1.1261525404295507 2.8722476395647156 0.8965614153126038 L 2.8722476395647156 0.8937576721008572 C 2.871221053103765 0.7095976631093593 2.7627272101967493 0.5576299150223198 2.6171139756116095 0.5040481134094518 C 2.669879244148341 0.49667510377938745 2.7125253370291467 0.4854209784459994 2.771315482296895 0.4816187582507192 C 2.852317311433968 0.47642689052903053 2.9316148558688426 0.4739171748132039 3.009169848917976 0.4739171748132039 ZM 3.6797034804227042 8.23655977114829 C 3.744950774217038 8.301805883872143 3.8149797499554623 8.36067988514395 3.8815675587442495 8.424405723946341 C 4.0956495749641375 9.204198532028927 4.293931466520769 10.064938131364233 4.57407335302502 10.7290191024102 C 5.057193067313169 11.874268186883667 5.789626838872777 12.870430272277117 6.413278350114227 13.883144351801198 C 6.260634439177563 13.965039778863208 6.128536902733854 14.058336787907995 6.029175805418124 14.152295196421411 C 5.947669659186221 14.229370911069886 5.8940429178416 14.280530159968329 5.830115352201277 14.345748871857053 C 5.520950312157207 13.938784109671408 5.124019924767046 13.62317373180555 4.644164689284773 13.448575610364134 C 4.689085996337662 12.725628196897432 4.536026821020337 11.737052363409154 4.30492109112023 10.66173115504105 C 4.1263418173058595 9.830810278320685 3.903548933870034 9.003086795602949 3.6797034804227042 8.23655977114829 ZM 4.686219774497539 9.144947533060002 C 5.834593499032087 10.09035760265641 7.113542596376112 10.88336044784028 8.36182590735716 11.685069199744076 C 8.343845290374292 12.594861963098435 8.344411259348162 13.463187814338914 8.445936077782692 14.359767706022835 C 8.033305011863666 14.014385848361224 7.586775333464642 13.763462228240035 7.018870348864767 13.625206117887009 C 7.015369655962953 13.624345353721408 7.011953527707485 13.623977804588126 7.008598342688769 13.623977804588126 C 6.989090837789752 13.623977804588126 6.971640285238172 13.63639699689621 6.951581929067426 13.636421563162186 C 6.30326824892538 12.572860982202688 5.56863248956343 11.57684345983595 5.115180793297013 10.501922870574559 C 4.9594783822461315 10.132827952249835 4.822072170210292 9.651825188689491 4.686219774497539 9.144947533060002 ZM 5.092751320031232 14.399018929916807 C 5.256419815253556 14.551910865654206 5.4054203599744595 14.728454446389774 5.5329268392495 14.94012684261699 C 5.575655607063885 15.01022479287143 5.648728910070769 15.058380343325913 5.729183431147552 15.07470273735529 C 5.7494917018318015 15.078823256044847 5.769947370111917 15.080878318679517 5.790254695939782 15.080878318679517 C 5.850400001475933 15.080878318679517 5.909242822487076 15.062849514021076 5.9590844691583715 15.027040401933126 C 6.175000687833224 14.870724306660996 6.306688629034575 14.703258906060551 6.435707350951817 14.58125716007727 C 6.483312522562763 14.536239477673238 6.5327214250102985 14.500179978643592 6.584302079855896 14.463502543538969 L 6.732896336331785 17.185862440383506 C 6.519603983834621 17.172073206318977 6.298091380798784 17.15081393768448 6.095781566478202 17.15081393768448 C 5.831792472282443 17.15081393768448 5.600500133246544 17.18701327545892 5.462835502989748 17.323242668868794 C 5.2941143882552915 17.189184555428792 4.96598135630733 17.158607113137695 4.572329148140608 17.158607113137695 C 4.471105738892494 17.158607113137695 4.365550163124863 17.160629105798932 4.257258755698066 17.16343343954592 L 5.092751320031232 14.399018929916807 ZM 6.25066573190075 9.573908551859477 L 6.25066573190075 9.573908551859477 C 7.604791854990093 10.361226196182292 9.034522078910209 10.988295252963786 10.386072995925625 11.699088033909858 C 10.388108216576233 11.700135879639442 10.389620931646625 11.700891764746446 10.39167977370683 11.70189142280046 C 11.686891739128056 12.333365400043023 12.978365852695143 12.98273873661945 14.285973389014858 13.605581450796405 C 15.269975172749374 14.794761632832586 16.33790476962736 15.90056296328426 17.36439863465213 17.026055100773398 C 16.647556883137256 17.146248391638174 15.930830404101199 17.267532046769798 15.213987707729942 17.38772722734734 C 13.79219427743337 15.841645498618801 12.36859900601298 14.299348864563587 10.946807465429178 12.75326524612228 C 10.935631704122118 12.739913480563432 10.92370950627189 12.727994117282355 10.910359630425809 12.716818355975295 C 9.41106341039531 11.580038019269429 7.757799063206311 10.634765898705052 6.25066573190075 9.573908551859477 ZM 3.0756960058277225 0.0 C 2.9405269774945206 0.0 2.803378947465543 0.004522381611119117 2.664776311033773 0.013406474957975922 C 1.5799215017535755 0.08356273687650426 0.791815610992612 0.5394290283949892 0.5227751964622482 1.157302329475107 C 0.4821416476788419 1.2499492773278713 0.3773182175015722 1.4706424536648965 0.5155519465690093 1.4706424536648965 C 0.5301007861125528 1.4706424536648965 0.5473420529751317 1.468197873986025 0.5676338477261894 1.4629019539550754 C 0.6829407547488466 1.4484514385289664 0.7780652341468658 1.4423110531050352 0.8569417269557291 1.4423110531050352 C 1.2747371416542677 1.4423110531050352 1.236670413344381 1.614590378873667 1.3274274122155385 1.6367293088014427 C 1.417468209947809 1.9189504698851962 1.6165598434253194 2.483475939414473 1.630223411590808 2.7049261819289825 C 1.386425543994761 3.5656903475302664 1.4768830233922678 4.468266061611404 1.565739089326357 4.903000625343815 C 1.7153772939992473 5.635118342443057 2.1961816377190027 6.48697345720191 2.8273889292472503 7.283313535133207 C 2.8134251329658233 7.338127016095824 2.8086283333195925 7.393803623365002 2.8273889292472503 7.448729542237286 C 3.1285063912567783 8.370618829444675 3.4792571591049843 9.617610994177321 3.7301694409495667 10.785092549360554 C 3.981081959008245 11.952574104543789 4.12285718696257 13.061967778966503 4.046983802062425 13.608383894830625 C 4.025192579283871 13.758532912485983 4.121174397743101 13.900045942793815 4.26847325611686 13.936413465004566 C 4.312604663232929 13.947361515923141 4.352082652659003 13.967347118152338 4.39463851175516 13.981272411536127 L 3.4666249016823647 17.0596976571734 C 3.272728324816838 17.01836208009686 3.0724617624261277 17.00476559673462 2.874112549852153 17.00476559673462 C 2.4927394590346226 17.00476559673462 2.118454680808026 17.055030066637645 1.8101650502035056 17.055030066637645 C 1.6846506825065655 17.055030066637645 1.570075389592555 17.04669832304569 1.4704144184820296 17.023250767026415 C 1.4375472348519498 17.015217598051724 1.3949769666959404 17.011228414399508 1.3451441780532423 17.011228414399508 C 0.9090801423353627 17.011228414399508 -0.08308278674200893 17.316628674182503 0.004096926806725951 17.889582026440785 C 0.15548046576267507 17.76211712084663 0.26223299740795364 17.73138850153413 0.38031217211407353 17.73138850153413 C 0.49024007079753446 17.73138850153413 0.6099847320405954 17.758020223566664 0.7846967677297779 17.758020223566664 C 0.7935070810801064 17.758020223566664 0.8024571741217066 17.757952193907034 0.8115528340999292 17.75781046544947 C 1.066223518424995 17.75382506122279 1.509269747551208 17.674784045296107 1.865480722334089 17.674784045296107 C 2.0452727193170093 17.674784045296107 2.202943030001157 17.694920824546703 2.3031032396034496 17.755008021415254 C 2.5392046614185677 17.745578354705373 2.7523340261895344 17.741732789223487 2.951610851518261 17.741732789223487 C 3.8011631150558056 17.741732789223487 4.398956033000731 17.81162570564265 5.451620530142762 17.816688246146814 C 6.240002555181878 17.80960749240695 7.649068297561068 17.777941575561766 8.426310465835707 17.73818579835887 C 8.876011082258614 17.740893756754712 9.122960636429726 17.792010487115885 9.3482285711628 17.792010487115885 C 9.361538763040762 17.792010487115885 9.374772421551643 17.79183285411574 9.387968285807172 17.791454911562237 C 9.52192246504496 17.78755265469733 9.652878614977093 17.73516414764362 9.867871236536825 17.73516414764362 C 9.990853743446445 17.73516414764362 10.141335350548884 17.752305732157712 10.335607271612858 17.805472800871634 C 10.085930861918229 17.463682342324677 9.45939942841909 17.120327201606223 9.005599080147068 17.120327201606223 C 8.891079651866747 17.120327201606223 8.787560241606108 17.142193068039095 8.703873366840497 17.191469218164713 C 8.542968104112466 17.175166666119395 8.37234782804666 17.169161158944245 8.19567291227375 17.169161158944245 C 7.976734570455455 17.169161158944245 7.748496479680046 17.178384846962466 7.517922703923993 17.188666774130493 L 7.360917335919913 14.359767706022835 L 7.360917335919913 14.359767706022835 C 7.847890174541017 14.562401606083045 8.21758885609496 14.875619607585232 8.642193142108937 15.380301416978874 C 8.699664031650867 15.44654907746951 8.781797562521582 15.482110637184917 8.86545325702653 15.482110637184917 C 8.908499969014047 15.482110637184917 8.951950134677428 15.472694198464408 8.992650768264083 15.453197086985613 C 9.112446274591294 15.395810289661837 9.178901803486355 15.264291005324987 9.155264331333942 15.133579573196247 C 8.962827321367223 14.095116267502062 8.941800487403126 13.115423973733854 8.95339954437011 12.074779939505962 L 8.95339954437011 12.074779939505962 C 9.492870020957247 12.42841606253606 10.024760859633895 12.787106222362869 10.5290609470485 13.16820932046874 C 11.981769133365166 14.7479090393313 13.43605428498632 16.326704530634608 14.888761526446602 17.906404249497168 C 14.944628049848916 17.96747598671759 15.022539017540629 17.999999833159222 15.103714464038218 17.999999833159222 C 15.11983182423232 17.999999833159222 15.136078629750996 17.99871671819008 15.152306538141996 17.99612214256029 C 16.10156595264582 17.836959195003903 17.051571803692816 17.68146795935479 18.00083121819664 17.52230312208564 C 18.107373224028915 17.50503114739059 18.194878263441282 17.430652052861355 18.23073178377927 17.328851336362764 C 18.266587193830023 17.227046840438643 18.244059927928525 17.11188585467375 18.171855892794696 17.031661878554605 C 17.42994521170602 16.20143358156353 16.66326228594804 15.400856767607475 15.920510682677822 14.586862993002091 L 15.920510682677822 14.586862993002091 C 17.1897721675192 15.367626168590794 18.796164079222855 16.341928056689678 19.00015479305014 16.341928056689678 C 19.023265980196797 16.341928056689678 19.02837576352015 16.32942193759429 19.01295381762449 16.302708957912753 C 18.91865715052569 16.139381083416772 18.112724890586506 15.546881487147742 17.238233851442022 14.928911397341812 L 17.238233851442022 14.928911397341812 C 17.377197659226482 14.987001167815102 17.513576339944986 15.048752256775444 17.6531769809321 15.10554284972107 C 17.658199837468143 15.108767644558828 17.664787376175685 15.113841523339595 17.669999203988482 15.116757350139865 C 17.773049020626395 15.151233269870335 17.830042757694528 15.174751690118395 17.93915099346508 15.178437574871426 C 17.94233326976557 15.178545288499173 17.945553340321407 15.178605759307734 17.948841440536878 15.178605759307734 C 17.973745965099905 15.178605759307734 18.00257920250659 15.175098452411234 18.048493553618805 15.161615351815042 C 18.100470103289197 15.146353086648238 18.187842862807837 15.102794262500725 18.236338561560473 15.01021723402036 C 18.28483615002588 14.91764209525276 18.275225070890315 14.822594267328872 18.25876945211083 14.771906501765924 C 18.242311943618578 14.721218736202974 18.220873152271164 14.694878974793022 18.205498449194693 14.67377749717461 C 18.143995857463278 14.58936875213181 18.102465639971687 14.565463885622796 18.0428867758376 14.519575990489324 C 17.983304132277976 14.473685260786702 17.91481149301954 14.423448191718805 17.838219544839546 14.370981261585245 C 17.6850337587668 14.266046456461739 17.50165414209476 14.147847757423074 17.344773967561526 14.042952636267687 C 17.18789568274106 13.938058459968683 17.045392442943054 13.83638718879467 17.016744397387587 13.810248681794459 C 17.00804982894427 13.80148608369151 16.99842930124487 13.792621441099115 16.988708618768793 13.785015347209884 C 15.691415134734154 12.872117785778505 14.394182121508075 11.96102017575818 13.097218392351367 11.048637561055948 C 13.088896097323248 11.042752050641536 13.077870568181206 11.047937422475586 13.06918166887619 11.04302983841836 C 11.735590582003198 9.174366581424614 10.481460027291279 7.217504760432826 9.023491825486246 5.41607134214063 C 8.27915569806047 4.496387349732927 7.424659237280828 2.887723530854533 6.037586916946315 2.3516642220268507 C 5.970716123670593 1.9556564868954267 5.819659099030447 1.224570552967246 5.283400661719887 0.7031084485192504 C 4.8273005330098036 0.25959351157317057 4.167590467595091 0.05615587828814758 3.427373441574297 0.0106028092539796 C 3.3119162433330986 0.0034978361875914604 3.1945714582512528 0.0 3.0756960058277225 0.0 Z"
     style="fill:#ffffff;stroke:none"
     id="path2" />
  <path
     d="M 27.885097731582135 6.319431782116482 Q 29.098460558525886 6.450101762738325 29.82647753854705 6.898112459878494 Q 30.143818613137917 7.887469759215888 29.65847348236042 8.970162963610337 Q 28.874455030919528 9.119499982014574 28.510445645727593 9.24083644374522 Q 28.14643733475328 9.362172905475866 27.885097731582135 9.436841056605441 Q 26.895740253208473 9.119499982014574 26.055719972275313 8.988829285247647 Q 25.626375775808725 7.887469759215888 25.943717029435867 6.898112459878494 Q 26.839738602752476 6.431435083028473 27.885097731582135 6.319431782116482 ZM 26.29991631536841 9.386173075705337 Q 26.9810759224861 9.386173075705337 27.71709295925042 9.866185790180845 L 27.71709295925042 13.73027836632828 Q 26.839738602752476 13.431604329519805 26.261058104026734 12.778255142555674 Q 25.99971850085559 11.060880505124572 26.074386651985165 9.399506981040654 Q 26.186389594824615 9.386173075705337 26.29991631536841 9.386173075705337 ZM 29.451611751940924 9.386173075705337 Q 29.56513829344845 9.386173075705337 29.6771412362879 9.399506981040654 Q 29.751809387417474 11.04221346734218 29.509137180101266 12.75958810477328 Q 28.93045578619417 13.431604329519805 28.034434033841286 13.73027836632828 L 28.034434033841286 9.866185790180845 Q 28.77045250289578 9.386173075705337 29.451611751940924 9.386173075705337 ZM 30.442493366091476 2.25 Q 30.237154518194973 2.4553379974742158 30.311823385469637 2.9033488736506565 Q 31.039841439708425 4.266048853275846 30.983839610216158 4.95673265291358 Q 30.92783778072389 5.647415557369957 30.423825612164 6.674106932272138 Q 29.957147877241436 6.282097706551693 29.34113240776955 6.188762159567181 Q 29.415801633116754 5.703417028789681 29.00512465346883 5.386075954198812 L 28.949123182049107 4.9940667284783675 L 28.501112484908937 5.62874816151502 Q 28.613114711603302 5.143403925918876 28.893122426774465 4.751393805017075 L 28.93045578619417 4.564722532011778 Q 28.631782107458235 4.564722532011778 28.55711395632866 4.844729531037859 Q 28.37044250428709 4.658058258032563 28.10910290111595 4.564722532011778 L 28.10910290111595 4.8073954554730705 L 27.9970999582765 4.8073954554730705 L 27.9970999582765 4.546055852301928 L 27.773094430670145 4.546055852301928 L 27.773094430670145 4.8073954554730705 L 27.642424808120843 4.8073954554730705 L 27.642424808120843 4.564722532011778 Q 27.3810852049497 4.658058258032563 27.213081148763067 4.844729531037859 Q 27.138412281488407 4.564722532011778 26.839738602752476 4.564722532011778 L 26.858406177643683 4.770061379908283 Q 27.157079677343344 5.143403925918876 27.2504155824004 5.62874816151502 L 26.802404527187687 4.9940667284783675 L 26.746403055767964 5.386075954198812 Q 26.354393651011247 5.703417028789681 26.410395301467243 6.188762159567181 Q 25.813047227850294 6.282097706551693 25.32770218659093 6.674106932272138 Q 24.823689749476628 5.666082953224892 24.767688233297836 4.966065992768505 Q 24.711687433264128 4.266048853275846 25.43970450280343 2.9220163142646607 Q 25.51437354911436 2.4553379974742158 25.309034790735993 2.268667432221679 L 25.02902779170991 2.791346512679089 L 24.599684356147478 2.6606767558525846 L 24.599684356147478 2.6606767558525846 Q 24.763954789934104 3.198289869927008 24.450347382502308 3.198289869927008 Q 24.37194563135226 3.198289869927008 24.263676579467223 3.1646891482078177 L 24.263676579467223 3.1646891482078177 Q 24.487682039934977 3.8927063072652537 24.02100372314453 4.023376108850826 L 24.973027036435273 7.028782440500337 Q 25.180296253408063 7.369296537747643 25.340598169206846 7.369296537747643 Q 25.382416118666182 7.369296537747643 25.421037823093577 7.346123515091206 Q 25.421037823093577 8.036807135692667 25.626375775808725 8.727490756294129 Q 24.861023914559553 8.914161850263154 24.711687433264128 9.539510480553695 Q 24.56235023582362 10.164858394699149 24.8423572348497 11.527558598119679 L 25.010361112000062 11.546225635902072 L 25.085029352647773 11.751563767653492 L 25.234366550088282 11.732896729871099 Q 25.159698309440568 11.079547542906967 25.169031649295494 10.538201298782285 Q 25.17836498915042 9.996854338512518 25.477038667886355 9.306171075983599 L 25.682377426264722 9.306171075983599 Q 25.682377426264722 10.426198355942836 25.83171462370523 12.012904445042263 L 25.495706063741288 11.69556265430631 Q 24.78635567391184 12.068904842244361 24.75835489344291 12.750254585882082 Q 24.73035411297398 13.431604329519805 24.935692871352348 14.234290534888173 Q 25.14103091358563 15.036976740256542 25.682377426264722 15.671658889438278 Q 25.77051053728015 15.749999432563103 25.8111256315513 15.749999432563103 Q 25.92535560656844 15.749999432563103 25.663710030409785 15.130311929168512 L 25.719711501829508 14.962308589126966 Q 25.421037823093577 14.21562349710578 25.32770218659093 13.571607829032844 Q 25.234366550088282 12.927592160959911 25.58904170024394 12.423579992400017 L 25.58904170024394 12.442247030182411 Q 26.27972549988167 13.879615384732517 27.885097731582135 14.140955345976202 Q 29.49046978424633 13.879615384732517 30.18115340484779 12.423579992400017 Q 30.517161517221055 12.927592160959911 30.423825612164 13.571607829032844 Q 30.33049042325203 14.21562349710578 30.031816386443555 14.962308589126966 L 30.087817499790738 15.130311929168512 Q 29.82617210266835 15.749999432563103 29.940402256721764 15.749999432563103 Q 29.981017350992914 15.749999432563103 30.06915046200834 15.671658889438278 Q 30.610496706133024 15.036976740256542 30.81583555402953 14.234290534888173 Q 31.021173685780948 13.431604329519805 30.993173129107358 12.750254585882082 Q 30.965172572433765 12.068904842244361 30.274488593759763 11.69556265430631 L 29.919813085531562 12.012904445042263 Q 30.087817499790738 10.426198355942836 30.06915046200834 9.306171075983599 L 30.274488593759763 9.306171075983599 Q 30.59182966835063 9.978187300730124 30.59182966835063 10.528867779891089 Q 30.59182966835063 11.079547542906967 30.535828555003448 11.714229692088704 L 30.685165573407687 11.732896729871099 L 30.759833008392178 11.527558598119679 L 30.909170742941498 11.508891560337284 Q 31.18917774196758 10.164858394699149 31.04917424245454 9.539510480553695 Q 30.909170742941498 8.914161850263154 30.143818613137917 8.727490756294129 Q 30.349157461034423 8.036807135692667 30.33049042325203 7.346123515091206 L 30.33049042325203 7.346123515091206 Q 30.367157767742796 7.3627907177240814 30.405016061509713 7.3627907177240814 Q 30.57916321023442 7.3627907177240814 30.778500762319656 7.010115760790486 L 31.730523986092262 4.023376108850826 Q 31.282512930879548 3.874039627555402 31.506518816558447 3.146021752352881 L 31.506518816558447 3.146021752352881 Q 31.387366597336676 3.185739069242003 31.303707244666473 3.185739069242003 Q 30.994165706194998 3.185739069242003 31.170510704185183 2.6420093152385804 L 31.170510704185183 2.6420093152385804 L 30.741166686754866 2.7726790720650847 L 30.442493366091476 2.25 Z"
     style="fill:#ffffff;stroke:none"
     id="path4" />
  <path
     d="M 37.094618309966535 6.319431782116482 Q 38.307981136910286 6.450101762738325 39.03599811693145 6.898112459878494 Q 39.353339191522316 7.887469759215888 38.86799406074482 8.970162963610337 Q 38.08397560930393 9.119499982014574 37.71996622411199 9.24083644374522 Q 37.35595791313768 9.362172905475866 37.094618309966535 9.436841056605441 Q 36.10526083159287 9.119499982014574 35.26524055065971 8.988829285247647 Q 34.835896354193125 7.887469759215888 35.153237607820266 6.898112459878494 Q 36.049259181136875 6.431435083028473 37.094618309966535 6.319431782116482 ZM 35.50943689375281 9.386173075705337 Q 36.1905965008705 9.386173075705337 36.92661353763482 9.866185790180845 L 36.92661353763482 13.73027836632828 Q 36.049259181136875 13.431604329519805 35.47057868241113 12.778255142555674 Q 35.20923907923999 11.060880505124572 35.283907230369564 9.399506981040654 Q 35.39591017320902 9.386173075705337 35.50943689375281 9.386173075705337 ZM 38.66113233032532 9.386173075705337 Q 38.77465887183285 9.386173075705337 38.886661814672294 9.399506981040654 Q 38.96132996580187 11.04221346734218 38.71865775848566 12.75958810477328 Q 38.139976364578565 13.431604329519805 37.243954612225686 13.73027836632828 L 37.243954612225686 9.866185790180845 Q 37.97997308128018 9.386173075705337 38.66113233032532 9.386173075705337 ZM 39.652013944475875 2.25 Q 39.44667509657937 2.4553379974742158 39.52134396385404 2.9033488736506565 Q 40.249362018092825 4.266048853275846 40.19336018860056 4.95673265291358 Q 40.13735835910829 5.647415557369957 39.6333461905484 6.674106932272138 Q 39.16666845562584 6.282097706551693 38.55065298615395 6.188762159567181 Q 38.62532221150116 5.703417028789681 38.21464523185323 5.386075954198812 L 38.158643760433506 4.9940667284783675 L 37.710633063293336 5.62874816151502 Q 37.8226352899877 5.143403925918876 38.10264300515887 4.751393805017075 L 38.139976364578565 4.564722532011778 Q 37.841302685842635 4.564722532011778 37.76663453471306 4.844729531037859 Q 37.57996308267149 4.658058258032563 37.318623479500346 4.564722532011778 L 37.318623479500346 4.8073954554730705 L 37.2066205366609 4.8073954554730705 L 37.2066205366609 4.546055852301928 L 36.98261500905454 4.546055852301928 L 36.98261500905454 4.8073954554730705 L 36.85194538650524 4.8073954554730705 L 36.85194538650524 4.564722532011778 Q 36.5906057833341 4.658058258032563 36.422601727147466 4.844729531037859 Q 36.347932859872806 4.564722532011778 36.049259181136875 4.564722532011778 L 36.06792675602808 4.770061379908283 Q 36.36660025572775 5.143403925918876 36.4599361607848 5.62874816151502 L 36.01192510557209 4.9940667284783675 L 35.95592363415236 5.386075954198812 Q 35.56391422939565 5.703417028789681 35.61991587985164 6.188762159567181 Q 35.02256780623469 6.282097706551693 34.537222764975326 6.674106932272138 Q 34.03321032786103 5.666082953224892 33.97720881168224 4.966065992768505 Q 33.92120801164853 4.266048853275846 34.64922508118783 2.9220163142646607 Q 34.72389412749876 2.4553379974742158 34.51855536912039 2.268667432221679 L 34.238548370094314 2.791346512679089 L 33.80920493453188 2.6606767558525846 L 33.80920493453188 2.6606767558525846 Q 33.9734753683185 3.198289869927008 33.65986796088671 3.198289869927008 Q 33.58146620973666 3.198289869927008 33.47319715785162 3.1646891482078177 L 33.47319715785162 3.1646891482078177 Q 33.69720261831937 3.8927063072652537 33.23052430152893 4.023376108850826 L 34.18254761481967 7.028782440500337 Q 34.38981683179246 7.369296537747643 34.55011874759124 7.369296537747643 Q 34.59193669705058 7.369296537747643 34.63055840147798 7.346123515091206 Q 34.63055840147798 8.036807135692667 34.835896354193125 8.727490756294129 Q 34.07054449294395 8.914161850263154 33.92120801164853 9.539510480553695 Q 33.77187081420802 10.164858394699149 34.0518778132341 11.527558598119679 L 34.21988169038446 11.546225635902072 L 34.29454993103217 11.751563767653492 L 34.44388712847268 11.732896729871099 Q 34.36921888782497 11.079547542906967 34.3785522276799 10.538201298782285 Q 34.38788556753482 9.996854338512518 34.686559246270754 9.306171075983599 L 34.89189800464912 9.306171075983599 Q 34.89189800464912 10.426198355942836 35.04123520208963 12.012904445042263 L 34.70522664212569 11.69556265430631 Q 33.99587625229624 12.068904842244361 33.96787547182731 12.750254585882082 Q 33.939874691358376 13.431604329519805 34.14521344973675 14.234290534888173 Q 34.35055149197003 15.036976740256542 34.89189800464912 15.671658889438278 Q 34.980031115664545 15.749999432563103 35.0206462099357 15.749999432563103 Q 35.134876184952844 15.749999432563103 34.87323060879418 15.130311929168512 L 34.92923208021391 14.962308589126966 Q 34.63055840147798 14.21562349710578 34.537222764975326 13.571607829032844 Q 34.44388712847268 12.927592160959911 34.79856227862834 12.423579992400017 L 34.79856227862834 12.442247030182411 Q 35.48924607826607 13.879615384732517 37.094618309966535 14.140955345976202 Q 38.69999036263073 13.879615384732517 39.39067398323219 12.423579992400017 Q 39.726682095605454 12.927592160959911 39.6333461905484 13.571607829032844 Q 39.54001100163643 14.21562349710578 39.24133696482795 14.962308589126966 L 39.29733807817514 15.130311929168512 Q 39.03569268105275 15.749999432563103 39.14992283510617 15.749999432563103 Q 39.190537929377314 15.749999432563103 39.278671040392744 15.671658889438278 Q 39.82001728451743 15.036976740256542 40.025356132413926 14.234290534888173 Q 40.23069426416535 13.431604329519805 40.202693707491754 12.750254585882082 Q 40.174693150818165 12.068904842244361 39.48400917214416 11.69556265430631 L 39.129333663915965 12.012904445042263 Q 39.29733807817514 10.426198355942836 39.278671040392744 9.306171075983599 L 39.48400917214416 9.306171075983599 Q 39.801350246735026 9.978187300730124 39.801350246735026 10.528867779891089 Q 39.801350246735026 11.079547542906967 39.74534913338785 11.714229692088704 L 39.89468615179209 11.732896729871099 L 39.96935358677658 11.527558598119679 L 40.1186913213259 11.508891560337284 Q 40.39869832035198 10.164858394699149 40.25869482083894 9.539510480553695 Q 40.1186913213259 8.914161850263154 39.353339191522316 8.727490756294129 Q 39.55867803941882 8.036807135692667 39.54001100163643 7.346123515091206 L 39.54001100163643 7.346123515091206 Q 39.576678346127196 7.3627907177240814 39.61453663989411 7.3627907177240814 Q 39.78868378861882 7.3627907177240814 39.98802134070405 7.010115760790486 L 40.94004456447666 4.023376108850826 Q 40.49203350926395 3.874039627555402 40.71603939494285 3.146021752352881 L 40.71603939494285 3.146021752352881 Q 40.59688717572107 3.185739069242003 40.51322782305087 3.185739069242003 Q 40.2036862845794 3.185739069242003 40.38003128256958 2.6420093152385804 L 40.38003128256958 2.6420093152385804 L 39.950687265139265 2.7726790720650847 L 39.652013944475875 2.25 Z"
     style="fill:#ffffff;stroke:none"
     id="path6" />
  <path
     d="M 42.44004487991333 2.4149744510650635 L 42.44004487991333 6.256192137515427 L 43.17159725379497 6.256192137515427 L 43.17159725379497 2.4149744510650635 L 42.44004487991333 2.4149744510650635 M 42.44004487991333 7.353682905072674 L 42.44004487991333 11.01209360142002 L 43.17159725379497 11.01209360142002 L 43.17159725379497 7.353682905072674 L 42.44004487991333 7.353682905072674 M 42.44004487991333 11.926615172139464 L 42.44004487991333 15.58502586848681 L 43.17159725379497 15.58502586848681 L 43.17159725379497 11.926615172139464 L 42.44004487991333 11.926615172139464 Z"
     style="fill:#ffffff;stroke:none"
     id="path8" />
  <path
     d="M 46.63881916320573 2.7257847122740886 Q 46.36012920958348 2.7257847122740886 46.36012920958348 3.053654893215412 Q 46.36012920958348 3.3323442203436606 46.63881916320573 3.3323442203436606 Q 46.933902317103005 3.315951020068642 46.933902317103005 3.0208678661713657 Q 46.933902317103005 2.7257847122740886 46.63881916320573 2.7257847122740886 ZM 45.556846823256464 2.9388999853142432 L 45.556846823256464 3.23398313921152 L 44.91750037764199 3.348738047112689 Q 45.212583531539266 3.0372610664463835 45.556846823256464 2.9388999853142432 ZM 45.589633850300515 3.3323442203436606 Q 45.966684974554056 3.627428090234092 45.7207819584767 3.7749693986852972 Q 45.34373159496588 3.6438212010099655 45.16340263297662 3.4307052119766563 L 45.589633850300515 3.3323442203436606 ZM 46.73718033383702 2.5782427773288727 Q 47.50767560362083 2.5782427773288727 47.966693803239195 3.168409085123426 Q 48.425712002857566 3.758576198410279 48.458499119400756 4.988089667812462 Q 49.655225472259744 5.233991967896662 50.04866979678831 6.070061470766861 Q 50.11237063378504 6.611515900264761 49.80478820838537 6.611515900264761 Q 49.79574127687734 6.611515900264761 49.786373580435935 6.611047640741494 Q 49.458503488993756 6.5946535454750315 49.269978195364416 6.430718678752231 Q 49.201423640771 6.371105804673079 49.166468496954934 6.371105804673079 Q 49.105297621770845 6.371105804673079 49.147026418828304 6.5536704552883425 Q 49.212600651914684 6.840556740550677 49.86834083479905 7.250394802349122 Q 50.52408209167314 7.660232148154413 49.97489959005843 7.930725054143441 Q 49.83863606878746 7.997840104499048 49.684710428372796 7.997840104499048 Q 49.2182706017079 7.997840104499048 48.58964722757695 7.38154291052531 Q 47.753577724706744 6.5618664289318405 47.70439758688683 6.135635345856666 Q 47.65521673307375 5.70940426278149 48.04866177359546 5.34874705479612 Q 48.2826017970434 5.1343019139699875 48.20936357322757 5.1343019139699875 Q 48.159428420625865 5.1343019139699875 47.966693803239195 5.233991967896662 Q 47.49128168735266 5.479895162972307 47.4666916184427 5.955306383867403 Q 47.44210154953274 6.430718678752231 47.84374274269624 6.996294917636824 Q 48.245383040868305 7.561871156521417 49.425716372450566 8.430727417938229 Q 49.54637267493224 8.493678252105262 49.69892432448276 8.493678252105262 Q 50.02309631128017 8.493678252105262 50.49129497512995 8.209415365762277 Q 51.17982263255407 7.7913802563306005 49.8027676757024 6.922523636917211 Q 50.31096672913384 6.791375886737601 50.327359750410565 6.479899532565306 Q 50.96670655402162 6.693014537108028 53.91753916698412 10.447129536397535 Q 54.70442781604124 10.971721969102283 54.72082119531455 11.21762480618135 Q 54.70442781604124 11.447134263987111 54.47491907422864 11.496314401807032 Q 54.42573822041556 11.50685310505318 54.375051632997845 11.50685310505318 Q 54.189202721781314 11.50685310505318 53.9831134000705 11.36516665162742 Q 53.065076284840615 11.80779147197248 52.204417429053606 11.824184851245787 Q 52.159120122112405 11.825047622997374 52.11466267514184 11.825047622997374 Q 51.314422185733186 11.825047622997374 50.786377950028935 11.545495255620107 L 50.786377950028935 11.545495255620107 Q 51.32736376200699 12.02090683451178 51.16342925328077 12.54549926721653 Q 51.08394542117523 12.79984724355698 51.04299920463602 12.79984724355698 Q 50.99949402856139 12.79984724355698 50.99949402856139 12.512712508669916 Q 50.99949402856139 11.955332601425397 49.57325857589321 11.447134263987111 L 49.57325857589321 12.070087688324856 Q 49.4892919106452 12.422747968763774 49.439730506470326 12.422747968763774 Q 49.39252973172697 12.422747968763774 49.37653551863749 12.10287444687147 Q 49.278174527004495 11.397953410174035 48.909320271385894 10.586474692206952 Q 48.54046708975702 9.774995258246715 47.73718470343002 8.340563115941887 Q 46.933902317103005 6.906130615640482 46.71259026492706 6.274980501666084 Q 46.49127731775966 5.643830029695108 46.50767105502955 5.102843859720475 Q 46.524064255304566 4.5618576897458425 46.28635810786215 4.307758521026699 Q 46.04865285541118 4.053659352307555 46.14701393654332 3.758576198410279 Q 46.24537501767546 3.4634922390207032 45.851929977153745 3.201196112167473 L 45.851929977153745 2.922506829788797 Q 46.27816195522036 2.5782427773288727 46.73718033383702 2.5782427773288727 ZM 49.851947813522315 12.02090683451178 Q 50.65523019984933 12.25041629231754 50.65523019984933 12.561892646489836 L 50.11424402987469 14.578295480942295 Q 50.04866979678831 14.938952688927666 49.67161956752621 14.938952688927666 L 49.01587831065212 14.938952688927666 L 49.01587831065212 14.906165930381052 L 49.851947813522315 12.348777283950536 L 49.851947813522315 12.02090683451178 ZM 46.796341416235464 2.25 Q 46.76698730787146 2.25 46.73718033383702 2.2503725963875496 Q 46.0978329932311 2.2503725963875496 45.44209263134845 2.7749648948435817 Q 45.06504159659406 2.9061129582701963 44.671597361564636 3.3815250741567358 Q 45.212583531539266 3.8733303903182934 45.655207904388604 3.9880852982194623 Q 45.70438884770083 4.217594398028645 45.966684974554056 4.627431743833936 Q 45.98307808532993 5.70940426278149 46.26176803895219 6.422522347112155 Q 46.54045817157274 7.135639715449665 48.13062902795858 10.250407553131542 Q 48.917517319019126 11.88975908433217 48.917517319019126 12.266809671590847 Q 48.917517319019126 12.840582958108671 48.19620290304838 14.840590981301515 Q 48.19620290304838 14.955346068200972 47.21259244972356 15.0209195852942 Q 45.73717578524573 15.07010115510043 45.73717578524573 15.4307583630858 Q 45.73717578524573 15.643873725625099 45.93389794751001 15.643873725625099 L 50.29457299186395 15.643873725625099 Q 50.704410337669245 15.316003276186343 50.75359119148232 15.086494534373736 Q 51.147035158014305 15.250429759093116 51.17982263255407 15.529118638725642 Q 51.235042172635104 15.749999663022377 51.33676332014378 15.749999663022377 Q 51.35583666179567 15.749999663022377 51.376544615820066 15.74223400126494 Q 51.50769308199283 15.69305386344502 51.50769308199283 15.529118638725642 Q 51.39293799509337 15.086494534373736 50.933919795475006 14.676655756582136 L 51.45851222817976 12.463531654856839 Q 53.048682905567304 12.414351517036918 54.229016237149565 11.955332601425397 Q 54.44759677543979 12.004513455238474 54.6297468660184 12.004513455238474 Q 54.99404704717561 12.004513455238474 55.212626869472686 11.80779147197248 Q 55.54049731891144 11.512707781080339 55.08147911929307 10.889754356742595 Q 54.081474391703495 9.889750345146172 53.17983137174007 8.693023634290604 Q 51.32736376200699 6.414325299478924 50.638836104582865 6.0536673755004 Q 50.40932700477368 5.578256154605303 50.08965396096473 5.299566200983045 Q 49.76998055915921 5.020876784355652 48.933911056289006 4.611038722557207 Q 48.917517319019126 3.6438212010099655 48.483089904303874 2.9388999853142432 Q 48.058535319200764 2.25 46.796341416235464 2.25 Z"
     style="fill:#ffffff;stroke:none"
     id="path10" />
  <path
     d="M 21.39600372314453 0.375 L 21.39600372314453 17.625 "
     style="fill:none;stroke:#ffffff;stroke-width:1"
     id="path12" />
  <path
     d="M 21.39600372314453 0.375 L 24.02100372314453 0.375 "
     style="fill:none;stroke:#ffffff;stroke-width:1"
     id="path14" />
  <path
     d="M 21.39600372314453 17.625 L 24.02100372314453 17.625 "
     style="fill:none;stroke:#ffffff;stroke-width:1"
     id="path16" />
  <path
     d="M 24.02100372314453 0.375 L 55.347877502441406 0.375 "
     style="fill:none;stroke:#ffffff;stroke-width:1"
     id="path18" />
  <path
     d="M 24.02100372314453 17.625 L 55.347877502441406 17.625 "
     style="fill:none;stroke:#ffffff;stroke-width:1"
     id="path20" />
  <path
     d="M 55.347877502441406 0.375 L 72.9728775024414 0.375 "
     style="fill:none;stroke:#ffffff;stroke-width:1"
     id="path22" />
  <path
     d="M 55.347877502441406 17.625 L 72.9728775024414 17.625 "
     style="fill:none;stroke:#ffffff;stroke-width:1"
     id="path24" />
  <path
     d="M 57.11037750244141 0.375 L 57.11037750244141 17.625 "
     style="fill:none;stroke:#ffffff;stroke-width:1"
     id="path26" />
  <path
     d="M 60.6353775024414 0.375 L 60.6353775024414 17.625 "
     style="fill:none;stroke:#ffffff;stroke-width:1"
     id="path28" />
  <path
     d="M 62.3978775024414 0.375 L 62.3978775024414 17.625 "
     style="fill:none;stroke:#ffffff;stroke-width:1"
     id="path30" />
  <path
     d="M 64.1603775024414 2.1 L 72.9728775024414 2.1 "
     style="fill:none;stroke:#ffffff;stroke-width:1"
     id="path32" />
  <path
     d="M 64.1603775024414 5.550000000000001 L 72.9728775024414 5.550000000000001 "
     style="fill:none;stroke:#ffffff;stroke-width:1"
     id="path34" />
  <path
     d="M 64.1603775024414 2.1 L 64.1603775024414 5.550000000000001 "
     style="fill:none;stroke:#ffffff;stroke-width:1"
     id="path36" />
  <path
     d="M 65.92287750244141 3.825 L 72.9728775024414 3.825 "
     style="fill:none;stroke:#ffffff;stroke-width:1"
     id="path38" />
  <path
     d="M 64.1603775024414 7.275 L 72.9728775024414 7.275 "
     style="fill:none;stroke:#ffffff;stroke-width:1"
     id="path40" />
  <path
     d="M 64.1603775024414 10.725000000000001 L 72.9728775024414 10.725000000000001 "
     style="fill:none;stroke:#ffffff;stroke-width:1"
     id="path42" />
  <path
     d="M 64.1603775024414 7.275 L 64.1603775024414 10.725000000000001 "
     style="fill:none;stroke:#ffffff;stroke-width:1"
     id="path44" />
  <path
     d="M 65.92287750244141 9.000000000000002 L 72.9728775024414 9.000000000000002 "
     style="fill:none;stroke:#ffffff;stroke-width:1"
     id="path46" />
  <path
     d="M 64.1603775024414 12.450000000000001 L 72.9728775024414 12.450000000000001 "
     style="fill:none;stroke:#ffffff;stroke-width:1"
     id="path48" />
  <path
     d="M 64.1603775024414 15.900000000000002 L 72.9728775024414 15.900000000000002 "
     style="fill:none;stroke:#ffffff;stroke-width:1"
     id="path50" />
  <path
     d="M 64.1603775024414 12.450000000000001 L 64.1603775024414 15.900000000000002 "
     style="fill:none;stroke:#ffffff;stroke-width:1"
     id="path52" />
  <path
     d="M 65.92287750244141 14.175 L 72.9728775024414 14.175 "
     style="fill:none;stroke:#ffffff;stroke-width:1"
     id="path54" />
</svg>
