<?xml version="1.0" encoding="UTF-8" standalone="no"?>
<svg
   width="92.84314727783203"
   height="18.0"
   version="1.1"
   id="svg24"
   sodipodi:docname="losh.svg"
   inkscape:version="1.1.1 (3bf5ae0d25, 2021-09-20)"
   xmlns:inkscape="http://www.inkscape.org/namespaces/inkscape"
   xmlns:sodipodi="http://sodipodi.sourceforge.net/DTD/sodipodi-0.dtd"
   xmlns="http://www.w3.org/2000/svg"
   xmlns:svg="http://www.w3.org/2000/svg">
  <defs
     id="defs28" />
  <sodipodi:namedview
     id="namedview26"
     pagecolor="#ffffff"
     bordercolor="#666666"
     borderopacity="1.0"
     inkscape:pageshadow="2"
     inkscape:pageopacity="0.0"
     inkscape:pagecheckerboard="0"
     showgrid="false"
     inkscape:zoom="14.809924"
     inkscape:cx="46.421574"
     inkscape:cy="9.0142256"
     inkscape:window-width="1920"
     inkscape:window-height="1001"
     inkscape:window-x="-9"
     inkscape:window-y="-9"
     inkscape:window-maximized="1"
     inkscape:current-layer="svg24" />
  <path
     d="M 9.619241759901131 8.704017150225534 C 9.956114020057063 8.704017150225534 10.371109904274771 8.76399089929749 10.864229412554256 8.883939352346172 C 11.905261819800385 9.137163864337834 12.8056128816014 9.495897714329981 13.565284507766846 9.960140902322616 C 14.32495613393229 10.42438504522002 15.176070395910864 11.008207138114807 16.1186263387978 11.711606226102205 C 15.211383729261659 12.170969850713034 14.168207560803758 12.400651185566062 12.989095923614554 12.400651185566062 C 12.723796640788658 12.400651185566062 12.45161535927535 12.38902331016484 12.172553033979401 12.365768514267165 C 10.653210736553286 12.239155780818948 9.3484030744964 11.792497164191472 8.258132912523058 11.025791709479964 C 7.167863705454489 10.259086254768457 6.897054622097669 9.78780828332499 7.445706139904986 9.61195779514956 C 7.994358612617073 9.436108261878905 8.441018184149321 9.207503104703234 8.78568342214457 8.92614327852732 C 8.967086681565636 8.778059511294387 9.244939142516232 8.704017150225534 9.619241759901131 8.704017150225534 ZM 16.87829701005847 11.880422885731571 L 17.743478929129175 12.070340076094354 C 17.743478929129175 12.295428318996994 17.539492171864723 12.478311680813713 17.131522476954906 12.618992071354056 C 16.899402315315747 12.634818663035082 16.657389340244983 12.642731958875595 16.405485461552153 12.642731958875595 C 15.985642480714866 12.642731958875595 15.538322115080815 12.620750051038186 15.063526274459544 12.576788145172907 C 15.977946903162229 12.464244023721587 16.582870481695206 12.232122907177656 16.87829701005847 11.880422885731571 ZM 18.207723072026578 12.196952809542571 L 18.73527358164809 12.302462147543055 C 18.791544210016596 12.471278807172421 18.594593191107748 12.640094511897015 18.144416705302472 12.808910216621609 L 17.532460253128203 12.76670629044046 C 17.968567172031815 12.569755271531616 18.193655414934454 12.379837126264063 18.207723072026578 12.196952809542571 ZM 19.009598624373172 12.407972440448313 L 19.36833342927009 12.49238029281061 C 19.283925576907794 12.731536192805375 19.030702019820904 12.851114142802757 18.608660848199875 12.851114142802757 C 18.847816748194642 12.696366095170289 18.98146331018892 12.548652830988656 19.009598624373172 12.407972440448313 ZM 19.600455500718795 12.618992071354056 C 19.938086910167982 12.71746853571325 20.163175153070622 12.87925041189178 20.27571831961717 13.10433865479442 L 19.326128548184172 12.893318068983906 C 19.509013819810434 12.808910216621609 19.600455500718795 12.71746853571325 19.600455500718795 12.618992071354056 ZM 17.405847519679988 13.864010280959864 C 18.46094662911347 13.99062205950331 19.255788352914 14.28604954277135 19.790372691081576 14.750293685668755 L 17.173725448231284 14.138336278589716 C 17.20186267222508 13.983587276052475 17.279236696041313 13.892145595144116 17.405847519679988 13.864010280959864 ZM 5.187792747046841 0.40093762696942586 C 5.848988863757863 0.40093762696942586 6.3484031042903535 0.5838216154424017 6.686035468644312 0.9495895923883535 C 7.0236668780935005 1.3153575693343054 7.129177170998758 2.198124417859453 7.0025653924553115 3.5978901976453446 C 6.875952659007095 4.997655977431236 6.8337487328259465 5.947245271411848 6.875953136459481 6.446659034491953 C 6.918156585188243 6.946073275024443 7.048285755457107 7.315357867835686 7.266340169813683 7.554513290378066 C 7.4843936292654885 7.793669667825216 7.748168406623859 8.029308176094565 8.05766402443641 8.261430247543267 C 8.367160119701346 8.49355231899197 8.212412072068878 8.70105503562468 7.5934203589913905 8.883939352346172 C 6.974429123366289 9.06682271416289 6.629762930466267 9.33763179751971 6.559423212648482 9.69636660241663 C 6.48908301737831 10.055099497504006 6.577008261466024 10.385698033311902 6.823197990006852 10.688160300030777 C 7.069388196000066 10.99062256674965 7.656726725715499 11.398594171469009 8.585214534057924 11.912075114188854 C 9.513701864947961 12.42555701181347 10.333162943564483 12.752637678443564 11.043595860097945 12.893318068983906 C 11.754030686440949 13.033998459524248 13.931053141209826 13.10433865479442 17.57466322440458 13.10433865479442 C 18.700104438917776 13.315358285700162 19.445707453086325 13.596718111876076 19.811474176719763 13.94841813332216 L 17.405847519679988 13.399766138062459 C 17.18076118658689 13.47010633333263 17.00490974350669 13.60375194042214 16.87829701005847 13.800703914235756 C 16.87829701005847 14.166472547678739 16.083455286257944 14.37749217858448 14.493772793561655 14.433763761857755 C 14.254616893566888 14.433763761857755 14.092834062483586 14.103166180954629 14.008427165026061 13.441970064243609 L 13.755202653034399 13.652989695149351 C 13.881814431577844 14.187574033316928 13.91698452921293 14.658852004760394 13.860712945939655 15.066823609479753 C 13.663760972126038 14.588511809490223 13.319094779226017 14.271981885679224 12.826715322144361 14.117233838046756 C 12.038906471985122 13.976553447506413 11.335507383997724 13.846424754689936 10.71651519346785 13.726846804692553 C 10.097523002937978 13.607269809599941 9.471497938766813 13.350529338240019 8.838438091144814 12.956624435708015 C 8.275718438792987 12.520516561899633 7.371849507814169 12.049238590456165 6.126831775660745 11.542790521377611 C 4.881814043507322 11.03634340720383 4.259305416156803 10.283705609584448 4.259305416156803 9.284877128519467 C 4.259305416156803 8.286049602359258 4.593420388785345 7.459554695196674 5.261649856590044 6.805393361936487 C 5.929879801847128 6.151231551223914 6.2639942970232845 5.366941047694864 6.2639942970232845 4.452521373896952 C 6.2639942970232845 4.002345365544058 6.207722713750011 3.5767882345547704 6.095179069751077 3.175850219655281 C 5.993352799453844 2.8130966980279646 5.689997219321334 2.6317199372143065 5.185112329353548 2.6317199372143065 C 5.131966626849421 2.6317199372143065 5.076588356989783 2.6337295343056977 5.0189770423222475 2.6377489672146734 L 3.2464102329044677 2.869871038663376 C 3.3026820549039346 2.6869874381204633 3.387089668540039 2.5181714946696765 3.4996335512651657 2.363423447037208 C 3.6403134643531225 1.9273154538657298 3.795061511985591 1.6740914193264531 3.9638776941625706 1.6037515821455712 C 3.9884963327999836 1.6899181303705768 4.083125485835245 1.733001523846176 4.247764437089777 1.733001523846176 C 4.271284696513898 1.733001523846176 4.296233016023633 1.732122295277918 4.32261082797614 1.7303637187783059 C 4.603971609056825 1.7162955842337946 4.765753485235356 1.5756155517827413 4.8079574114165045 1.308323860151339 C 4.7798216197798675 1.0410321685199366 4.6180397436013365 0.9003521360688832 4.32261082797614 0.8862840612059201 C 4.069387270889249 0.9003521360688832 3.9287073578012923 1.0410321685199366 3.9005710887122693 1.308323860151339 C 3.6754838007144013 1.5193437297832741 3.4996337899913588 1.765533697050295 3.373021295269335 2.046893523226209 C 3.3320964640294637 2.0673559388461444 3.2921017100369276 2.0775870272930157 3.2530370332917253 2.0775870272930157 C 3.1846734908983327 2.0775870272930157 3.119158190711805 2.046253737029377 3.0564913714583355 1.9835869177759076 C 3.225307553635315 1.6459552696005268 3.471497998354722 1.2977725205167625 3.7950622281641695 0.9390390286139039 C 4.118625980521232 0.5803047608509185 4.582869168513866 0.40093762696942586 5.187792747046841 0.40093762696942586 ZM 9.977946007845366 14.159437764227905 L 10.653208826743741 14.328253468952498 L 9.89353815548307 15.425557459471902 L 9.977946007845366 14.159437764227905 ZM 11.286269629270512 14.391559835676606 C 11.84898928162234 14.391559835676606 12.32378416733884 14.451348333222912 12.71065428642001 14.570927238125066 C 13.09752440550118 14.690504233217677 13.336679350591174 15.144197633295988 13.428121986404305 15.932005528550455 C 13.517959427296729 16.705992132143816 13.400721948894024 17.092986388845265 13.07640859629142 17.092986388845265 C 13.070618053757709 17.092986388845265 13.064760667889999 17.092862251224986 13.058837393593063 17.09261588579397 L 11.03304511727885 17.09261588579397 C 10.988356528882543 17.089306185856326 10.942987093384234 17.087650380982737 10.896935855879153 17.087650380982737 C 10.551564943257846 17.087650380982737 10.167861288398607 17.180747866764687 9.745823936396663 17.366940928519046 C 9.858368057847983 16.382182014355735 10.3718499554726 15.390387361836815 11.286269629270512 14.391559835676606 ZM 5.187792747046841 0.0 C 4.231169147067781 0.0 3.443361967991892 0.5345838607151904 2.8243702549144043 1.6037515821455712 C 2.613350385282469 1.9554513648654634 1.9873244855696295 2.3071511475853557 0.946292317049693 2.6588511690314407 C 0.22882448278191372 2.869871038663376 -0.08067132899566878 3.165298999383801 0.017804894772284054 3.545135051192716 L 0.03890708726380924 3.798358369553414 C 1.3753664816751086 3.6717465910099687 2.493771957832701 3.5099647148314377 3.3941234970861016 3.3130129797440135 L 5.040079482865207 3.0175852577497815 C 5.048381902400062 3.0173546482474904 5.056615568791377 3.017239343496345 5.064780004586766 3.017239343496345 C 5.5546451974053515 3.017239343496345 5.796118651280282 3.432360558965298 5.789199888759171 4.2626027511770115 C 5.782166060213108 5.106682229704753 5.4269491244939925 5.862836941597166 4.723549559054208 6.5310668868542505 C 4.020149993614424 7.199296832111335 3.661415904896083 8.166471652361876 3.6473477703515713 9.432591347605873 C 3.6473477703515713 10.459556097759878 4.136210551886389 11.19460836910933 5.11393659240841 11.637750071463774 C 6.09166167802566 12.08089177381822 7.037734535185626 12.555685704629948 7.952154686435924 13.062133773708501 C 8.866573405329065 13.568581842787054 9.387089131499744 13.962486745319058 9.513701864947961 14.243845616590201 C 9.44336166967779 15.735053554736838 9.26047830786107 16.698711938166735 8.96504986968826 17.134818857070343 C 8.472670412606604 17.134818857070343 7.614522322081965 17.064478661800173 6.390606553019116 16.92379827125983 C 6.01077121738878 16.980070809437876 5.75051335430344 17.10316567370829 5.609832486310712 17.293084773880615 C 5.469153528127526 17.48300387405294 5.497289319764163 17.69050468087611 5.69424129357778 17.91559292377875 C 5.7882960713930505 17.77973671214347 5.878469161312617 17.711806696516287 5.9647610407888685 17.711806696516287 C 5.99463093949035 17.711806696516287 6.024035799568166 17.719946304787623 6.052975621022314 17.73622552133029 C 6.165519265021248 17.799531888054396 6.446879091197162 17.831185071416453 6.897054144645284 17.831185071416453 L 8.96504986968826 17.831185071416453 C 9.066651737364214 17.811645809984256 9.162826881224358 17.801877134172933 9.253573391459145 17.801877134172933 C 9.489516991802953 17.801877134172933 9.68877028611562 17.867918348162302 9.851334229301921 18.000000776141047 C 10.048286203115538 17.98593311904892 10.21710095293536 17.929660580870873 10.357781343475702 17.831185071416453 C 10.978782653644581 17.849272877596132 11.498366392758383 17.8583158257812 11.916529696102794 17.8583158257812 C 12.474082358736627 17.8583158257812 12.85133372205558 17.842239049050068 13.048285695869197 17.810083585778262 C 13.39295188876922 17.753811047600216 13.705964898307187 17.704574247777778 13.987324724483102 17.662369366691856 L 14.704792424467398 17.89449143814056 C 14.713104870502352 17.89513122433739 14.721098378343662 17.895450162531034 14.728771038181785 17.895450162531034 C 14.889915037973028 17.895450162531034 14.91005779922074 17.754450833797048 14.789201231734465 17.47245026651953 C 14.170209041204592 17.134818857070343 14.02952865066425 16.28370459509177 14.367161015018208 14.919109390393348 L 14.367161015018208 14.919109390393348 C 14.486100133723532 14.921667580275903 14.601202445057407 14.922946197764796 14.712467949019834 14.922946197764796 C 15.825117259215483 14.922946197764796 16.55409538131412 14.795054846827687 16.899400405506203 14.539274054763013 C 18.306200491290543 14.792496656945131 19.452741281632388 15.03868734039073 20.33902468634128 15.277843240385495 L 20.486738905427682 15.024620638203377 C 20.1209702719847 14.616648078579246 19.84664522925962 14.356389738041521 19.6637618674429 14.243845616590201 L 19.6637618674429 14.243845616590201 L 20.59224824342817 14.433763761857755 C 20.74230770863311 14.490035345131028 20.8462548224276 14.518171614220051 20.90408958481164 14.518171614220051 C 21.01975910957972 14.518171614220051 20.95098304832509 14.405627492768732 20.697759491238198 14.180540204770864 C 20.641486953060152 14.025792157138396 20.23351534834079 13.723330845324293 19.473842767270575 13.273154359519014 L 19.473842767270575 13.273154359519014 L 20.761063948152763 13.526377916605906 C 20.901744338693106 12.62602685480489 19.924019253075855 11.985932223732057 17.827886781491472 11.606096888101721 C 16.73058279097207 11.352873331014829 15.738790048262691 10.86049196412363 14.852506643553802 10.12895660704721 C 13.684862457764227 9.101993766702748 11.91932947689251 8.349355969083367 9.55590579112911 7.871043214189065 C 8.303853752977238 7.786635839279153 7.607488493535902 7.4032831119233995 7.466808580447945 6.72098550957419 C 7.326128667359988 6.038687429772594 7.32964558163302 4.95193465952467 7.477359800719425 3.4607274375566117 C 7.625073542353445 1.969519857499264 7.417570825720734 0.9988280632941434 6.854850695916521 0.5486519952597018 C 6.43281095665265 0.1828839884729759 5.877125132846886 0.0 5.187792747046841 0.0 Z"
     style="fill:#ffffff;stroke:none"
     id="path2" />
  <path
     d="M 27.177865186478382 7.937876256002994 C 26.496671245133623 7.991654064440127 26.120222241250442 8.332250793733436 26.04851793344977 8.959665719745715 C 26.138148499234912 9.640860143848613 26.514597503118093 9.999383372505463 27.177865186478382 10.035235888474404 C 27.84113286983867 9.999383372505463 28.190692728124215 9.640860143848613 28.226544278576878 8.959665719745715 C 28.172766470139745 8.332250793733436 27.8232066118542 7.991654064440127 27.177865186478382 7.937876256002994 ZM 27.25853214051315 5.679180301671352 C 27.742538692303153 5.679180301671352 28.190693210882355 5.768811229525099 28.602994730734476 5.948073085232593 C 29.01529576782846 6.127334940940088 29.378299957533752 6.373819539952137 29.692007299850356 6.687527123647811 C 30.0057151249251 7.001234707343485 30.252199844626684 7.3597576946212655 30.43146145895511 7.763095602723013 C 30.610722590525395 8.16643375220383 30.700352914931468 8.592179844854769 30.700352914931468 9.040334122054901 C 30.700352914931468 9.506413933102294 30.610722590525395 9.941123154745469 30.43146145895511 10.344461786984425 C 30.252199844626684 10.747799936465242 30.0057151249251 11.101841721315509 29.692007299850356 11.406586176018948 C 29.378299957533752 11.711330630722387 29.01529576782846 11.948851980052666 28.602994730734476 12.119151189526065 C 28.190693210882355 12.289449433483185 27.742538692303153 12.374598314082675 27.25853214051315 12.374598314082675 C 26.774526312860356 12.374598314082675 26.32189131599085 12.289449433483185 25.900626908525563 12.119151189526065 C 25.479361776923067 11.948851980052666 25.116357104459635 11.711330630722387 24.8116130118248 11.406586176018948 C 24.506868074363222 11.101841721315509 24.264865160536825 10.747799936465242 24.085604149656074 10.344461786984425 C 23.906342354293347 9.941123154745469 23.8167114264396 9.506413933102294 23.8167114264396 9.040334122054901 C 23.8167114264396 8.592179844854769 23.906342354293347 8.16643375220383 24.085604149656074 7.763095602723013 C 24.264865160536825 7.3597576946212655 24.506868074363222 7.001234707343485 24.8116130118248 6.687527123647811 C 25.116357104459635 6.373819539952137 25.479361776923067 6.127334940940088 25.900626908525563 5.948073085232593 C 26.32189131599085 5.768811229525099 26.774526312860356 5.679180301671352 27.25853214051315 5.679180301671352 ZM 27.204754814834157 4.764946937561035 C 26.61319119789547 4.764946937561035 26.057480338304796 4.876985476688684 25.53762175330399 5.101062554943983 C 25.017763409682257 5.325139663371665 24.569609615240264 5.629884118075104 24.193160490667548 6.015295949226683 C 23.8167114264396 6.400708564860238 23.516448355197976 6.848862238612696 23.292371276942678 7.359757211863126 C 23.068294998255546 7.870652909250765 22.956256866455078 8.421882083655788 22.956256866455078 9.013444493699126 C 22.956256866455078 9.605007145121533 23.068294998255546 10.156236319526556 23.292371276942678 10.667132016914195 C 23.516448355197976 11.178027714301834 23.8167114264396 11.621700306316313 24.193160490667548 11.998149310199494 C 24.569609615240264 12.374598314082675 25.017763409682257 12.67486180773767 25.53762175330399 12.898938825648202 C 26.057480338304796 13.123014878042454 26.61319119789547 13.23505338699772 27.204754814834157 13.23505338699772 C 27.796317466256564 13.23505338699772 28.347546157903448 13.123014878042454 28.85844088977481 12.898938825648202 C 29.369336587162447 12.67486180773767 29.81749062298351 12.374598314082675 30.202903479996134 11.998149310199494 C 30.58831537149248 11.621700306316313 30.89305982619592 11.178027714301834 31.11713636134831 10.667132016914195 C 31.34121434477512 10.156236319526556 31.453252853730387 9.605007145121533 31.453252853730387 9.013444493699126 C 31.453252853730387 8.421882083655788 31.34121434477512 7.870652909250765 31.11713636134831 7.359757211863126 C 30.89305982619592 6.848862238612696 30.58831537149248 6.400708564860238 30.202903479996134 6.015295949226683 C 29.81749062298351 5.629884118075104 29.369336587162447 5.325139663371665 28.85844088977481 5.101062554943983 C 28.347546157903448 4.876985476688684 27.796317466256564 4.764946937561035 27.204754814834157 4.764946937561035 Z"
     style="fill:#ffffff;stroke:none"
     id="path4" />
  <path
     d="M 54.451462916994956 2.8360817172332915 Q 54.70788135092772 2.8360817172332915 54.836084050659224 2.9734444811054566 Q 54.96428964693956 3.1108086932520393 54.96428964693956 3.3672196142612627 Q 54.96428964693956 3.623628905961766 54.845241489802504 3.7884658881239446 Q 54.72619478093986 3.953302870286123 54.451462916994956 3.953302870286123 L 42.05215770936741 3.953302870286123 Q 41.81406148561044 3.953302870286123 41.67669727346386 3.7884658881239446 Q 41.53933450959169 3.623628905961766 41.53933450959169 3.3672196142612627 Q 41.53933450959169 3.1108086932520393 41.67669727346386 2.9734444811054566 Q 41.81406148561044 2.8360817172332915 42.05215770936741 2.8360817172332915 ZM 41.53933450959169 2.25 Q 40.9532527923584 2.634616290996684 40.9532527923584 3.3672196142612627 Q 40.9532527923584 4.136453644529048 41.53933450959169 4.539380785799068 L 55.037553504909056 4.539380785799068 Q 55.56869221659139 4.136453644529048 55.56869221659139 3.3672196142612627 Q 55.56869221659139 2.634616290996684 55.037553504909056 2.25 ZM 49.67122899459815 5.088832565424937 L 49.359873891315004 5.711551099569135 L 49.982586994430136 5.876386452422594 Q 50.458763691959774 5.18040713789204 49.67122899459815 5.088832565424937 ZM 46.81406706814248 5.107147081642893 L 46.502711602790725 5.729865615787091 L 47.12543122314074 5.894702054846363 Q 47.61993872997553 5.198723283418715 46.81406706814248 5.107147081642893 ZM 48.242656902051124 5.107147081642893 L 47.931301798767976 5.729865615787091 L 48.554010557059854 5.894702054846363 Q 49.03020318560809 5.198723283418715 48.242656902051124 5.107147081642893 Z"
     style="fill:#ffffff;stroke:none"
     id="path6" />
  <path
     d="M 45.77935928952784 9.876189174490086 Q 45.994925160754 9.876189174490086 46.077836698757174 10.09175583774132 Q 45.97171113218088 10.049305737834814 45.89614994891627 10.049305737834814 Q 45.73558229870324 10.049305737834814 45.71303085567623 10.24099422554596 Q 45.68063838798077 10.581119979015863 45.52959676275034 10.581119979015863 Q 45.52600033530252 10.581119979015863 45.52233692516288 10.580927177484003 Q 45.364807754678246 10.572636259028279 45.29848185530687 10.439979753393665 Q 45.29848185530687 10.3404870120991 45.54721067621872 10.10833767465277 Q 45.66328443977037 9.876189174490086 45.77935928952784 9.876189174490086 ZM 46.016921914679024 10.172297184142735 Q 46.077836698757174 10.172297184142735 46.077836698757174 10.257576831853193 Q 46.0474366945919 10.591981765597353 45.82196571255431 10.591981765597353 Q 45.80146864678884 10.591981765597353 45.77935928952784 10.589218186456879 L 45.77935928952784 10.55605442211683 L 45.845686637173635 10.406815989053616 Q 45.86123313891071 10.173629641865618 45.9787968147696 10.173629641865618 Q 45.986634151781125 10.173629641865618 45.994925160754 10.174665972728652 Q 46.006769511010766 10.172297184142735 46.016921914679024 10.172297184142735 ZM 44.53997962899158 10.3606966859098 Q 44.39009372674649 10.3606966859098 44.26210102680556 10.44827067184939 Q 44.10457149425232 10.55605442211683 44.17089992810393 10.82136670924885 L 44.23722799988693 10.82136670924885 Q 44.25381074196989 10.655546439274186 44.33672010756144 10.547762689006746 Q 44.419630921427405 10.439979753393665 44.61032485194075 10.439979753393665 Q 44.8010187824541 10.439979753393665 44.8010187824541 10.390233337487807 Q 44.8010187824541 10.390233337487807 44.61032485194075 10.365360582120633 Q 44.57456912897873 10.3606966859098 44.53997962899158 10.3606966859098 ZM 44.53570577118487 10.506308006210972 Q 44.33672010756144 10.506308006210972 44.33672010756144 10.7882029449088 L 44.33672010756144 10.887694962066156 Q 44.35330212550719 10.891011329448446 44.367231266788274 10.891011329448446 Q 44.422947469844 10.891011329448446 44.436212939373156 10.837949270297507 Q 44.718108692725345 10.7716210174802 44.85076519835996 10.605800023368328 Q 44.73469034860249 10.506308006210972 44.53570577118487 10.506308006210972 ZM 44.23722799988693 10.937441287454863 Q 44.15431718602097 11.053515956178028 44.220646344009786 11.227628773917136 Q 44.28697441579279 11.401739962347524 45.04974977577758 11.46806821516483 L 45.165825349672254 11.418321799258973 Q 44.204063601926826 11.351993546441665 44.30355643373854 10.970605051794912 L 44.23722799988693 10.937441287454863 ZM 45.31506133877239 10.141502208388603 Q 45.099496915820644 10.290740596193242 45.149242607589294 10.522889843122421 Q 45.1824070055494 10.622381860279777 45.348225736732495 10.688710113097084 Q 45.49746426031286 10.755038456431542 45.46430058648996 11.03693330461222 Q 45.49746426031286 11.650470231533792 44.950258754308884 11.982111676654629 Q 44.867346854237105 11.783126013031197 44.62690759402371 11.766544176119748 Q 44.60400892720505 11.76496501390152 44.58238836256003 11.76496501390152 Q 44.37699118808933 11.76496501390152 44.28697441579279 11.907492414864446 Q 44.21696120975388 12.018346597414617 44.12231394207527 12.018346597414617 Q 44.08246249905992 12.018346597414617 44.038243422469314 11.998693513566078 Q 44.01110891504741 12.005477049904403 43.98736626631182 12.005477049904403 Q 43.83699664041121 12.005477049904403 43.82267592193443 11.73338050229685 Q 43.988497006563456 11.716798484351099 44.05482507834646 11.667052973616752 Q 44.12115351219807 11.617306557710894 44.30355643373854 11.550978304893587 Q 44.22280861771545 11.458695526236216 44.13804908155526 11.458695526236216 Q 44.100966377157995 11.458695526236216 44.06311608731934 11.476359043103404 Q 43.9387505906576 11.534396467982138 43.806093360885775 11.567560141805036 Q 43.524198331670796 11.517814450036386 43.5905265844881 11.285665293624358 Q 43.42470640503059 11.103262372083886 43.47445191576494 10.970605051794912 Q 43.83925775884588 10.738456529002942 44.07969810526509 10.531180852095297 Q 44.32013808961569 10.3239050846705 44.61861658505084 10.282449677737517 Q 44.91709399428017 10.24099422554596 45.31506133877239 10.141502208388603 ZM 46.29340401825775 9.992263820583965 Q 46.7245375710531 10.025427539665438 47.205417901822905 10.481434436189438 Q 47.686300042935734 10.937441287454863 47.769207960252864 11.418321799258973 Q 46.87377826704509 12.728305018693664 45.23215342145526 13.50766312076141 Q 45.165825349672254 12.811215832559629 45.46430058648996 12.114768182289243 Q 46.01150681663115 11.617306557710894 45.94517946898535 11.277374284651483 Q 45.87885103513374 10.937441287454863 46.16074678848593 10.82136670924885 Q 46.79086709111052 10.705292040525684 46.29340401825775 9.992263820583965 ZM 52.37719426132629 12.793016454157883 Q 52.40207344341119 12.793016454157883 52.4287673133415 12.794634176682482 Q 53.17496101744914 12.927290682317096 53.78849930212798 13.466208437965637 Q 54.402040483355655 14.00512474533976 54.667352770487675 14.801063779147444 Q 54.71709810018772 14.8839738688762 54.302544030857895 14.8839738688762 Q 52.561428525867974 14.15436290685152 52.09712623028927 13.408170288949695 Q 51.89207736581603 12.793016454157883 52.37719426132629 12.793016454157883 ZM 47.95161233006775 11.965528934571669 Q 48.984959023663926 12.9564104118971 50.58624797844568 12.9564104118971 Q 50.86075391158142 12.9564104118971 51.15195048324424 12.927290682317096 Q 51.18179797071915 12.917341399135925 51.20866128875634 12.917341399135925 Q 51.45042825454218 12.917341399135925 51.45042825454218 13.723231164399198 Q 49.808801236540724 14.452839954012251 48.86362766190732 14.519168025795256 Q 48.58357483775169 14.53882074757519 48.29551522847766 14.53882074757519 Q 47.61137356593469 14.53882074757519 46.88206891394936 14.427966202956416 Q 46.724539743464724 14.404021882008156 46.58980532610928 14.404021882008156 Q 45.83812519643869 14.404021882008156 45.795940945404986 15.14928615600822 Q 45.099496915820644 14.320184172514846 45.29848185530687 14.021706401216907 Q 46.94010489055368 13.292095801260832 47.95161233006775 11.965528934571669 ZM 45.93174056859467 9.551552295684814 Q 45.89300429688097 9.551552295684814 45.85397981855814 9.552838806229989 Q 45.099496915820644 9.577711618170381 45.04974977577758 9.859607292320062 Q 44.75127309068545 9.97568193841394 44.49424964011468 10.050301154945547 Q 44.23722799988693 10.124920326218579 44.01336985244778 10.3239050846705 Q 43.789511342940024 10.522889843122421 43.51590750373222 10.68041919464136 Q 43.24230348349012 10.837949270297507 43.19255706758426 10.954023214883463 Q 43.109647701992714 11.136426770043993 43.341795410130324 11.351993546441665 Q 43.341795410130324 11.534396467982138 43.50761649475935 11.650470231533792 Q 43.540780168582245 11.650470231533792 43.58223575654953 11.932365260748771 Q 43.6236904393453 12.214260108929448 43.88900489888895 12.346916614564062 Q 44.220646344009786 12.297170198658204 44.32013808961569 12.156223589222225 Q 44.404706815621346 12.036417803530394 44.537197131766526 12.036417803530394 Q 44.56057807396629 12.036417803530394 44.58545146295352 12.04014892049906 Q 44.75127309068545 12.065022490520594 44.834182456277 12.313752940741164 Q 44.7678551086312 12.562484115098943 44.64348924990086 13.192603693586324 Q 44.51912302910191 13.822723996210915 44.64348924990086 14.121198508891414 Q 44.7678551086312 14.419675918120749 44.204063601926826 14.79277204603736 Q 43.77405354801103 15.077337331210021 43.025717665005274 15.077337331210021 Q 42.79290157822388 15.077337331210021 42.52927453941119 15.049794048333712 Q 41.95389683736501 14.889967190485354 41.60381754640783 14.889967190485354 Q 41.22748226223883 14.889967190485354 41.11150746787727 15.07466707525234 Q 40.88764987485566 15.431181909360408 41.152962908754176 15.696494920629636 L 41.799663667903665 15.696494920629636 Q 43.288074748187924 15.749999970718097 44.320622175339814 15.749999970718097 Q 46.808112780808194 15.749999970718097 46.649919214434426 15.439474366607701 Q 46.47015323854003 15.086601218523004 46.942669422478865 15.086601218523004 Q 47.05856758275737 15.086601218523004 47.213708548727176 15.107830749075237 Q 47.45750527110946 15.14119247442476 47.748961808030266 15.14119247442476 Q 48.39913274583106 15.14119247442476 49.286470929867 14.975174243440623 Q 50.57157478618249 14.734735345295835 50.96125474238787 14.527459034768132 Q 51.21104949327117 14.394590356931321 51.50172613441803 14.394590356931321 Q 51.66450421346111 14.394590356931321 51.840103141787104 14.4362579360665 Q 52.32927448152979 14.552332785823967 52.4287673133415 14.850810195053302 Q 52.21255152897039 15.24910448749532 51.67613747772149 15.24910448749532 Q 51.43091927399821 15.24910448749532 51.11878644735274 15.16586889809118 Q 50.596858036829936 15.026687916204711 50.262024956961035 15.026687916204711 Q 49.95858467337076 15.026687916204711 49.808801236540724 15.140994422898135 Q 49.49374506798308 15.381436217591759 49.77563720064922 15.713076214438178 L 55.164810412311375 15.713076214438178 Q 55.712023521756045 15.215614589859829 55.39696445664956 14.560623432728239 Q 55.081902494994246 13.905632637665253 54.33571241157265 13.316969190248063 Q 53.58951508677897 12.728305018693664 52.69408539357119 12.247424687923857 Q 52.92806064298967 12.042694443822516 53.14591732227607 12.042694443822516 Q 53.42212642612706 12.042694443822516 53.67242590064493 12.371789460448387 Q 53.9351356386483 12.717204719419005 54.117916559811796 12.717204719419005 Q 54.24663339696159 12.717204719419005 54.33571241157265 12.545902097153192 Q 53.74470058718712 11.488310203598477 53.10263853785117 11.488310203598477 Q 53.06014906298393 11.488310203598477 53.017435829719155 11.492941785186364 Q 52.32927448152979 11.567560141805036 51.765485871374246 12.264006524835306 Q 51.08277872464203 12.435986758494312 50.493431691699676 12.435986758494312 Q 49.207585594745105 12.435986758494312 48.36616422698595 11.617306557710894 Q 47.9018662762305 10.439979753393665 47.25516395566016 9.983972856869665 Q 46.64191242931603 9.551552295684814 45.93174056859467 9.551552295684814 Z"
     style="fill:#ffffff;stroke:none"
     id="path8" />
  <path
     d="M 62.842915921836955 9.246990648343806 Q 63.31756103366234 9.246990648343806 63.31756103366234 9.605777611658157 Q 63.31008649920066 9.979513643895862 62.83544138737528 9.979513643895862 Q 62.3607962755499 9.979513643895862 61.418980944405206 9.605777611658157 Q 62.36827081001158 9.246990648343806 62.842915921836955 9.246990648343806 ZM 60.32767205967193 11.115671525621089 Q 60.88080157356681 11.41466006497575 61.16484104399812 13.0590984636039 Q 61.29938588670772 14.344751331095216 60.32767205967193 14.344751331095216 Q 59.34100862664623 14.344751331095216 59.475553827400205 13.0590984636039 Q 59.759592760764946 11.41466006497575 60.32767205967193 11.115671525621089 ZM 63.79906484361704 2.25 Q 62.87687714729964 2.25 62.06180773619524 2.6019615890991816 Q 61.07514412414734 3.028020705235047 60.61918606456492 4.022159120277905 Q 60.16322764693811 5.016297624831859 60.028683341295086 7.004573738828817 L 60.028683341295086 9.037698670795542 Q 59.309662915374126 8.825031050839506 58.20646776284889 8.825031050839506 Q 57.681137351627235 8.825031050839506 57.068692684173584 8.8732546161061 L 57.068692684173584 9.560928972710578 Q 57.56338322386132 9.507654833429978 57.99705046976788 9.507654833429978 Q 59.267076579836974 9.507654833429978 60.013733377260785 9.96456385888375 L 59.99878430833743 9.96456385888375 Q 59.32605866261193 11.115671525621089 59.064443869698785 11.833244736161033 Q 58.8028281816747 12.550817946700978 58.74303101087034 13.283340942253034 Q 58.72808104683604 14.195257061417886 59.07939293862214 14.666164906012424 Q 59.430704830408246 15.137072034518205 60.32767205967193 15.137072034518205 Q 61.20968932490132 15.137072034518205 61.56100139570962 14.666164906012424 Q 61.91231310847353 14.195257061417886 61.89736332346142 13.283340942253034 Q 61.83756597363487 12.550817946700978 61.57595118072173 11.833244736161033 Q 61.31433567171983 11.115671525621089 60.83595257657486 10.129007913573192 L 60.83595257657486 10.129007913573192 Q 62.0874798762334 10.605198344939506 62.85533683939828 10.605198344939506 Q 63.96774456331327 10.605198344939506 64.06503309813775 9.605777611658157 Q 63.968251554154314 8.611561411473902 62.861718622414415 8.611561411473902 Q 62.08812471416047 8.611561411473902 60.821003507651504 9.097496378666476 L 60.821003507651504 7.06437108865537 Q 60.910700427502285 3.9997351588484955 62.14402976353996 3.3718584206038553 Q 63.14985161423393 2.8598035341212915 64.09601682654241 2.8598035341212915 Q 64.31002997727575 2.8598035341212915 64.52099115772018 2.8860012833082256 Q 65.66462428999583 3.028020705235047 66.34482411213864 4.134279643513714 Q 67.02502321819267 5.240539208370044 67.1221950305495 7.587602464703543 Q 67.21936684290634 9.934665004948283 67.2492656968418 12.206980768398738 Q 67.57815309013193 14.389599970042795 68.72926075686928 15.749999614328397 L 69.25249177487306 15.286567020284293 Q 68.14623203099455 13.86636966812776 67.90704119951081 12.236879622334204 Q 67.83229370662778 11.011025178802578 67.80239485269232 8.589215145674792 Q 67.77249599875685 6.16740475450263 67.33896225864821 4.807005289239218 Q 66.90542708636205 3.446605644953615 66.12058234957826 2.900951157831433 Q 65.33573618061695 2.3552958986760575 64.19210376443004 2.265599557850175 Q 63.99321011174459 2.25 63.79906484361704 2.25 Z"
     style="fill:#ffffff;stroke:none"
     id="path10" />
  <path
     d="M 73.01963178535206 5.520018275560494 Q 73.84404588558957 5.520018275560494 74.35137858653053 5.757829732360074 Q 73.79648419164285 6.122475314824982 73.68550509542415 6.629807291628737 Q 73.57452618023976 7.1371390873981895 73.2970786207273 7.216409844549503 Q 73.15835529355684 7.256045132608008 73.0176498218114 7.256045132608008 Q 72.87694435006598 7.256045132608008 72.7342569147799 7.216409844549503 Q 72.44888276834493 7.1371390873981895 72.33790403419485 6.629807291628737 Q 72.2269250284933 6.122475314824982 71.6878842600364 5.757829732360074 Q 72.17936242937506 5.520018275560494 73.01963178535206 5.520018275560494 ZM 77.6648921440802 5.520018275560494 Q 78.50516140954005 5.520018275560494 78.99663985043017 5.757829732360074 Q 78.45759935352473 6.122475314824982 78.34662025730603 6.629807291628737 Q 78.23564116108733 7.1371390873981895 77.95026665258376 7.216409844549503 Q 77.80757976040059 7.256045132608008 77.6648921440802 7.256045132608008 Q 77.52220525189702 7.256045132608008 77.37951835971384 7.216409844549503 Q 77.09414385121028 7.1371390873981895 76.991091885017 6.629807291628737 Q 76.88803991882372 6.122475314824982 76.33314479979883 5.757829732360074 Q 76.84047713867119 5.520018275560494 77.6648921440802 5.520018275560494 ZM 82.35771546399516 5.520018275560494 Q 83.19798472945502 5.520018275560494 83.68946244620793 5.757829732360074 Q 83.15042194930248 6.122475314824982 83.039443577221 6.629807291628737 Q 82.92846375686509 7.1371390873981895 82.64308997249873 7.216409844549503 Q 82.50040308031555 7.256045132608008 82.35771546399516 7.256045132608008 Q 82.21502784767478 7.256045132608008 82.0723409554916 7.216409844549503 Q 81.78696789526245 7.1371390873981895 81.68391520493196 6.629807291628737 Q 81.58086323873869 6.122475314824982 81.0259684817824 5.757829732360074 Q 81.53329973444895 5.520018275560494 82.35771546399516 5.520018275560494 ZM 75.2392095459371 7.057869054384085 Q 75.35018936629301 7.422513957970359 75.51665728648385 7.96948122283262 Q 75.6831259308119 8.516449030797787 75.2392095459371 8.770115019199665 Q 74.79529424726812 8.516449030797787 74.96176289159617 7.96948122283262 Q 75.12823153592421 7.422513957970359 75.2392095459371 7.057869054384085 ZM 79.93203322792067 7.073722771332022 Q 80.02715806408852 7.438368399055506 80.20155347637339 7.977408352858042 Q 80.37594888865826 8.516449030797787 79.93203322792067 8.785969641319113 Q 79.48811756718308 8.516449030797787 79.65458584944253 7.977408352858042 Q 79.82105413170197 7.438368399055506 79.93203322792067 7.073722771332022 ZM 82.8174861089208 10.244549617732815 Q 83.87971211854364 10.244549617732815 83.87971211854364 11.195797255274158 Q 83.87971211854364 12.14704561695271 82.83333964483444 12.162899877003554 L 72.49644536746317 12.162899877003554 Q 71.46592647492618 12.162899877003554 71.46592647492618 11.195797255274158 Q 71.46592647492618 10.244549617732815 72.49644536746317 10.244549617732815 ZM 73.01963178535206 5.091956377029419 Q 72.59156984156242 5.091956377029419 71.86228021542416 5.242570648160185 Q 71.13298981989014 5.393184919290951 71.13298981989014 5.805392331478304 Q 71.13298981989014 5.995641958555439 71.2598224067639 6.122475314824982 Q 71.76715501718772 6.122475314824982 71.98118562701393 6.859692252022953 Q 72.19521696097736 7.5969091892209235 72.68669431566167 7.5969091892209235 L 72.70254875674681 7.5969091892209235 L 72.70254875674681 9.499405550509422 L 72.5122990844111 9.499405550509422 Q 70.7524905204773 9.499405550509422 70.7524905204773 11.195797255274158 Q 70.7524905204773 12.908043582158342 72.49644536746317 12.908043582158342 L 82.83333964483444 12.908043582158342 Q 84.5772937676831 12.908043582158342 84.59314802773395 11.195797255274158 Q 84.59314802773395 9.499405550509422 82.8174861089208 9.499405550509422 L 82.61138145239704 9.499405550509422 L 82.61138145239704 7.5969091892209235 Q 83.16627620935333 7.5969091892209235 83.38823440179073 6.859692252022953 Q 83.61019259422812 6.122475314824982 84.11752457103188 6.122475314824982 Q 84.24435720316421 5.995641958555439 84.24435720316421 5.805392331478304 Q 84.24435720316421 5.393184919290951 83.51506703392306 5.242570648160185 Q 82.78577758881912 5.091956377029419 82.35771546399516 5.091956377029419 Q 81.94550832335926 5.091956377029419 81.21621815411811 5.242570648160185 Q 80.48692798487696 5.393184919290951 80.48692798487696 5.805392331478304 Q 80.48692798487696 5.995641958555439 80.6137613411465 6.122475314824982 Q 81.12109331795025 6.122475314824982 81.33512438036223 6.859692252022953 Q 81.549154718637 7.5969091892209235 82.04063315952712 7.5969091892209235 L 82.05648741957796 7.5969091892209235 L 82.05648741957796 9.499405550509422 L 80.21740773642424 9.499405550509422 L 80.21740773642424 9.03963562972099 Q 80.75644823332968 8.516449030797787 80.58205282104481 7.977408352858042 Q 80.40765740875995 7.438368399055506 80.32045970261751 7.0816500823917465 Q 80.23326199647508 6.724932489865196 79.93203322792067 6.724932489865196 Q 79.63080518350347 6.724932489865196 79.5356796231984 7.0816500823917465 Q 79.44055551116776 7.438368399055506 79.2740865047711 7.977408352858042 Q 79.10761822251166 8.516449030797787 79.66251297946795 9.03963562972099 L 79.66251297946795 9.499405550509422 L 77.90270459656844 9.499405550509422 L 77.90270459656844 7.5969091892209235 Q 78.47345288943836 7.5969091892209235 78.69541108187576 6.859692252022953 Q 78.91736855017595 6.122475314824982 79.42470125111691 6.122475314824982 Q 79.55153388324925 5.995641958555439 79.55153388324925 5.805392331478304 Q 79.55153388324925 5.393184919290951 78.81431730811988 5.242570648160185 Q 78.07710000885331 5.091956377029419 77.6648921440802 5.091956377029419 Q 77.2526850034443 5.091956377029419 76.52339447213454 5.242570648160185 Q 75.7941050270306 5.393184919290951 75.7941050270306 5.805392331478304 Q 75.7941050270306 5.995641958555439 75.90508376118069 6.122475314824982 Q 76.41241573798445 6.122475314824982 76.63437429249045 6.859692252022953 Q 76.85633139872203 7.5969091892209235 77.34781056374936 7.5969091892209235 L 77.34781056374936 9.499405550509422 L 75.52458441650927 9.499405550509422 L 75.52458441650927 9.023781007601542 Q 76.06362455134611 8.516449030797787 75.89715663115527 7.96948122283262 Q 75.73068871096443 7.422513957970359 75.63556351272797 7.0657956413066 Q 75.54043903862872 6.70907804878005 75.2392095459371 6.70907804878005 Q 74.95383576157074 6.70907804878005 74.85078379537747 7.0657956413066 Q 74.74773146711559 7.422513957970359 74.58126354692475 7.96948122283262 Q 74.4147956267339 8.516449030797787 74.96968929748438 9.023781007601542 L 74.96968929748438 9.499405550509422 L 73.2574433326688 9.499405550509422 L 73.2574433326688 7.5969091892209235 Q 73.82819234967593 7.5969091892209235 74.0422226879507 6.859692252022953 Q 74.25625411243128 6.122475314824982 74.76358608923503 6.122475314824982 Q 74.89041944550458 5.995641958555439 74.89041944550458 5.805392331478304 Q 74.89041944550458 5.393184919290951 74.16112891419482 5.242570648160185 Q 73.43183928805658 5.091956377029419 73.01963178535206 5.091956377029419 Z"
     style="fill:#ffffff;stroke:none"
     id="path12" />
  <path
     d="M 40.9532527923584 0.375 C 31.328252851963043 0.375 31.328252851963043 17.625 40.9532527923584 17.625 "
     style="fill:none;stroke:#ffffff;stroke-width:1"
     id="path14" />
  <path
     d="M 40.9532527923584 0.375 L 84.5931453704834 0.375 "
     style="fill:none;stroke:#ffffff;stroke-width:1"
     id="path16" />
  <path
     d="M 40.9532527923584 17.625 L 84.5931453704834 17.625 "
     style="fill:none;stroke:#ffffff;stroke-width:1"
     id="path18" />
  <path
     d="M 92.2806453704834 0.375 L 92.2806453704834 17.625 "
     style="fill:none;stroke:#ffffff;stroke-width:1"
     id="path20" />
  <path
     d="M 84.5931453704834 0.375 C 94.21814727783203 0.375 94.21814727783203 17.625 84.5931453704834 17.625 "
     style="fill:none;stroke:#ffffff;stroke-width:1"
     id="path22" />
</svg>
