<?xml version="1.0" encoding="UTF-8" standalone="no"?>
<svg
   width="75.82135009765625"
   height="18.0"
   version="1.1"
   id="svg28"
   sodipodi:docname="maaibre.svg"
   inkscape:version="1.1.1 (3bf5ae0d25, 2021-09-20)"
   xmlns:inkscape="http://www.inkscape.org/namespaces/inkscape"
   xmlns:sodipodi="http://sodipodi.sourceforge.net/DTD/sodipodi-0.dtd"
   xmlns="http://www.w3.org/2000/svg"
   xmlns:svg="http://www.w3.org/2000/svg">
  <defs
     id="defs32" />
  <sodipodi:namedview
     id="namedview30"
     pagecolor="#ffffff"
     bordercolor="#666666"
     borderopacity="1.0"
     inkscape:pageshadow="2"
     inkscape:pageopacity="0.0"
     inkscape:pagecheckerboard="0"
     showgrid="false"
     inkscape:zoom="18.134734"
     inkscape:cx="37.910675"
     inkscape:cy="9.0158478"
     inkscape:window-width="1920"
     inkscape:window-height="1001"
     inkscape:window-x="-9"
     inkscape:window-y="-9"
     inkscape:window-maximized="1"
     inkscape:current-layer="svg28" />
  <path
     d="M 1.2190420140847793 0.0 C 0.970800706632417 0.0 0.7230423028937335 0.01893070358296025 0.48290982680079 0.048905678499779795 C 0.15187998957905166 0.13255188916498697 0.3219916247400915 0.5118521231009919 0.6158947927962716 0.5118521231009919 C 0.6355981423211179 0.5118521231009919 0.6558578408244597 0.5101473851910305 0.6765601864318946 0.5065345630073116 C 1.2976180869590601 0.5780119512905144 2.0622053316712337 0.6175539511807123 2.531371224901928 0.9695623988344474 C 3.1537543888207784 1.6479367557428735 2.8741262715941502 3.0576933712068692 2.94658764204448 3.7269297850416896 C 2.951782632395561 3.7629649381631523 2.953952713884158 6.430591781037886 2.953952713884158 7.782422252231933 C 2.352510186605274 7.494257626556917 1.67335422808609 7.349215125535265 1.0039192969246102 7.349215125535265 C 0.7063920462481148 7.349215125535265 0.41078504023889434 7.377865539465801 0.12477432975315178 7.4353349446232855 C -0.20149863151174055 7.606724672263251 0.18154647682350566 7.8266562324049085 0.4376378670454302 7.8266562324049085 C 0.4681373192956425 7.8266562324049085 0.4968360674978842 7.823536850015894 0.5223214865886322 7.816844331348357 C 1.429843884416301 7.914926816832979 2.4617098179841825 8.158078494744517 2.9226503683594482 9.002292523011262 C 2.9681809889039896 9.155077638776014 2.9396896697969415 9.207577525716367 2.870237404087557 9.207577525716367 C 2.717627362869183 9.207577525716367 2.3672466519332462 8.954092059534803 2.1698535251191053 8.954092059534803 C 2.1594948014573196 8.954092059534803 2.1495575210365625 8.954790250504107 2.140092081444407 8.956259682604495 C 1.7610785167129768 8.874396440250864 1.3638924072290621 8.831466124503471 0.9703996331480379 8.831466124503471 C 0.6822712691518855 8.831466124503471 0.39612316158451694 8.854483949517657 0.1205398348885778 8.90208807080806 C -0.19080937123302597 9.107627344268586 0.19133570335568265 9.296978982841198 0.44461121617263977 9.296978982841198 C 0.47243301123084086 9.296978982841198 0.4986997685303211 9.294694058069421 0.5223214865886322 9.289895224364907 C 1.44862453664532 9.401605077048192 2.473672484380784 9.652726246647584 2.9226503683594482 10.498359836231193 C 2.9277747669676573 11.438445880183364 2.9223641381582497 12.059730482053933 2.9475081443234266 12.924290385186742 C 2.9366830234749024 13.190445840004433 3.1097205941872907 13.32271720601211 3.2850258807391146 13.32271720601211 C 3.4589948410141766 13.32271720601211 3.635197450466691 13.192454719453337 3.636159394664339 12.93350313443563 C 3.6297524037925992 12.081649745019838 3.5689455193688686 11.333930766029841 3.680643079957625 10.507654766912083 C 3.905950499841305 9.580679119782916 5.51430012614692 9.438421656179063 6.5132119200872856 9.209440304841713 C 6.73117182826633 8.953197897458422 6.302254993763335 8.858046549715155 6.0257896324592775 8.858046549715155 C 5.984500135730289 8.858046549715155 5.946610983551 8.860169218839136 5.914784994799312 8.86419400179096 C 5.786745621336966 8.854375779085794 5.657882677541108 8.84931073373403 5.528823762638173 8.84931073373403 C 4.87588245171773 8.84931073373403 4.21792069818853 8.978947377079876 3.636159394664339 9.278489565451865 C 3.6124626948293947 8.719755569414783 4.162693019870619 8.398265319455419 4.5568162027996815 8.173701395689454 C 5.178845705598769 7.90617273831141 5.863655500797704 7.879904181098088 6.5132119200872856 7.736389411825166 C 6.745102634598536 7.535056141910107 6.380132787867637 7.365650007124583 6.127413645979344 7.365650007124583 C 6.0940901289112 7.365650007124583 6.06271789404902 7.368595192973972 6.034923712303174 7.3748016471035225 C 5.875700348626306 7.359480780481324 5.715556482670491 7.35166300836024 5.555429474444318 7.35166300836024 C 4.887519202007935 7.35166300836024 4.219896213380853 7.487670468699637 3.6205083975033348 7.782422252231933 C 3.6327889023442115 5.672151988401518 3.6669749732456607 3.6298724602408705 3.6064121746990256 1.633623314068084 C 3.557780785508615 1.016382811297887 3.202148013782708 0.4498605441665941 2.6039100355477967 0.2652764822581205 C 2.1742288083663857 0.06980961445750675 1.6957449806778964 0.0 1.2190420140847793 0.0 Z"
     style="fill:#ffffff;stroke:none"
     id="path2" />
  <path
     d="M 3.29314921521244 15.21501288860129 C 4.074491287174412 15.21501288860129 5.052497037940845 15.616391919330065 5.5257419749406465 16.089636856329868 C 5.939782214238027 16.503676744424546 5.993910276899555 17.05261639954012 6.009086799211701 17.562687749346416 L 0.6002280514165623 17.562687749346416 C 0.615404749330059 17.05261639954012 0.6695328119915868 16.503676744424546 1.0835728756876173 16.089636856329868 C 1.5568179882887687 15.616391919330065 2.5118074944531683 15.21501288860129 3.29314921521244 15.21501288860129 ZM 3.29314921521244 14.777700904737003 C 2.3662267752924526 14.777700904737003 1.3688759017560481 15.205906904973462 0.7843594130436309 15.79042339368588 C 0.1848327417701466 16.38995028583294 0.11688322714550736 17.179222163577567 0.11688322714550736 17.769835531176867 L 0.11688322714550736 17.999999733210704 L 6.469415203279373 17.999999733210704 L 6.469415203279373 17.769835531176867 C 6.469415203279373 17.179222163577567 6.42448232973169 16.38995028583294 5.824955437584633 15.79042339368588 C 5.240439300074916 15.205906904973462 4.220071830733778 14.777700904737003 3.29314921521244 14.777700904737003 Z"
     style="fill:#ffffff;stroke:none"
     id="path4" />
  <path
     d="M 19.59558827849137 2.2331113889984504 Q 20.011497239301697 2.2331113889984504 20.406868373464476 2.6849636002931274 Q 17.14505908393548 6.568070899826414 16.329606932707488 7.024335296803508 Q 15.721254175199014 7.364724151693918 15.258781670883675 7.364724151693918 Q 15.101344397401952 7.364724151693918 14.960813057159163 7.325276517725049 Q 14.407469963604743 7.169951972435412 13.776464255096982 7.150536917736989 Q 13.760688966903167 7.150051524254103 13.744834947749503 7.150051524254103 Q 13.12652956999073 7.150051524254103 12.38825395561615 7.88832679632016 L 12.291175943655867 7.88832679632016 Q 12.815395428237089 6.665148911786697 13.75704954270708 6.140928742588433 Q 14.698701945634467 5.6167096003157315 19.2807685008913 2.2966530928403377 Q 19.439622247033235 2.2331113889984504 19.59558827849137 2.2331113889984504 ZM 13.822576293662692 0.46382689862325743 Q 13.87160069312572 0.46382689862325743 13.922081273037408 0.4715931515608784 L 13.922081273037408 5.461385397334616 Q 12.38825395561615 6.354500505824466 11.805788280014095 7.965988384347936 Q 12.698902703886905 1.79184917642032 13.058089773520756 1.0928900062739073 Q 13.381357725420997 0.46382689862325743 13.822576293662692 0.46382689862325743 ZM 9.823471846940608 8.280349468529765 Q 9.763159224955167 8.280349468529765 9.708909828226425 8.383422671928184 Q 9.611832586460313 8.567870141573977 9.883650198408658 8.897933602234632 Q 10.038974144658383 8.4902085535462 9.922481420308197 8.344591877914295 Q 9.871087133376625 8.280349468529765 9.823471846940608 8.280349468529765 ZM 9.850515161454094 8.003054920244196 Q 9.964842185368557 8.003054920244196 10.097221020296256 8.179560147583969 Q 10.388454200405805 8.567870141573977 9.922481420308197 9.732803546629212 Q 9.398261764572714 8.723195371480656 9.602124802379711 8.257221735611745 Q 9.713322784103013 8.003054920244196 9.850515161454094 8.003054920244196 ZM 14.931688078951879 9.926958201315696 L 14.931688078951879 10.218190867962463 Q 14.718118369566973 10.198775813264039 14.601625302908268 10.082282061988291 Q 14.640456096922156 10.024035528658937 14.756948478963821 9.926958201315696 ZM 15.378245975505326 10.587085807254049 L 17.183890562566404 10.839488364503968 L 17.552786186475032 11.499616655059363 Q 16.931489374550573 11.32487637045426 16.183991626309666 11.033644388424536 Q 15.43649319345172 10.742411037160727 15.378245975505326 10.587085807254049 ZM 11.39806151978306 10.315268879922746 L 11.747541404376221 10.490008479910806 L 11.864034128726408 11.32487637045426 L 11.553386065072697 12.276239381507548 L 11.067997716813883 12.276239381507548 L 11.39806151978306 11.32487637045426 L 11.39806151978306 10.315268879922746 ZM 12.232929752635034 10.606502231186555 L 12.562994240221252 10.703579558529796 L 12.679486964571439 11.32487637045426 L 12.368838216300684 12.276239381507548 L 11.883450552658914 12.276239381507548 L 12.21351435562809 11.32487637045426 L 12.232929752635034 10.606502231186555 ZM 13.37844604914072 10.72299461322822 L 13.494939115799427 11.32487637045426 L 13.184290367528675 12.276239381507548 L 12.698902703886905 12.276239381507548 L 13.028966164547558 11.32487637045426 L 13.028966164547558 10.742411037160727 L 13.37844604914072 10.72299461322822 ZM 12.635970993829574 8.307902566008263 Q 12.94616549869286 8.307902566008263 13.300783776495901 8.383422671928184 Q 14.349222745658347 8.606700935587865 14.621040357606692 9.441570195365404 L 15.43649319345172 9.441570195365404 L 15.747140914796912 8.936765765482605 Q 19.863233149567787 9.888126722684765 20.387455372617175 12.373316708850789 Q 19.261352076958786 11.752018527692242 18.018759137726903 11.538448133690293 L 17.475123229213175 10.451177001279875 L 15.319998757558931 10.159943650016068 L 15.378245975505326 9.635724850051886 L 14.640456096922156 9.635724850051886 Q 13.825002918768604 10.30727392210448 12.976631641685719 10.30727392210448 Q 12.794837747695311 10.30727392210448 12.611532561584353 10.276437401291815 Q 11.572801804388162 10.101698485920798 11.252445186459676 9.567771131681843 Q 10.93208856853119 9.033843092825846 11.592216516778063 8.596994435164216 Q 12.029066885982298 8.307902566008263 12.635970993829574 8.307902566008263 ZM 14.014203342229544 0.0 Q 13.306659502260182 0.0 12.902764885922597 0.4910087625106481 Q 12.407668668006053 1.0928900062739073 11.980527880002157 3.655740467965014 L 11.300984192439817 8.101897190322108 Q 10.97091987600786 8.451378444149354 10.7961802760198 8.4902085535462 L 10.563193800393865 8.4902085535462 Q 10.543778232232661 8.004819862978866 10.194298176485239 7.597094129673393 Q 9.883650198408658 4.626517849099683 10.466115788433582 2.3937311048006213 L 10.233129483961907 1.9471738928642175 Q 9.398261764572714 4.471192276884482 9.825403408347913 7.616509184371816 L 9.767156618287169 7.616509184371816 Q 8.427485014569381 4.607101425167175 9.378846196411509 1.9471738928642175 L 9.145859806362706 1.5976940082710553 L 9.145859806362706 1.5976940082710553 Q 7.90326545510817 4.4323618251791155 9.41767741831105 7.752417990345988 Q 8.99053577453585 8.684363892849726 9.330307190431368 9.286245650075767 Q 9.670079376521057 9.888126722684765 9.747741050125965 10.412346207265987 L 9.883650198408658 10.509424219226272 Q 10.407869083949969 9.732803546629212 10.485531356594787 9.16975258341706 L 10.679686695898312 9.16975258341706 Q 10.699102264059515 9.616309110736422 10.93208856853119 10.101698485920798 L 11.067997716813883 11.32487637045426 L 10.737933400381925 12.276239381507548 L 9.048781837190987 12.276239381507548 L 9.048781837190987 12.742211648142375 L 13.922081273037408 12.742211648142375 L 13.922081273037408 12.276239381507548 L 13.51435451280637 12.276239381507548 L 13.825003261077125 11.32487637045426 L 13.84441900039259 10.606502231186555 Q 14.19389820036871 10.490008479910806 14.368638484973811 10.33468393462117 Q 14.621040357606692 10.567671437172667 14.931688078951879 10.567671437172667 Q 14.912273708870499 10.76182609185915 15.009351720830782 10.89773421321628 Q 15.785971708810798 11.499616655059363 17.78577231979245 11.946173182378724 L 18.465315665046262 13.266429763489512 Q 18.465315665046262 12.942390932799807 18.666445882775246 12.942390932799807 Q 18.73044046079052 12.942390932799807 18.81479623425647 12.97519504299162 L 18.27116032574274 12.00442040032512 L 18.27116032574274 12.00442040032512 Q 19.39726088293296 12.256823642192083 19.97972758546058 12.645134320799134 Q 20.290376676039852 12.97519504299162 19.94089679144669 13.44116867886053 Q 20.71751746404375 13.11110658743396 20.814596160621075 12.509224145590878 Q 20.503945700807716 9.577479001339576 15.552985575493386 8.431961335599805 L 15.203506375517266 9.014428722744466 L 14.892857284937993 9.014428722744466 Q 14.640456096922156 8.198975202282393 12.893057700881908 7.88832679632016 Q 13.283009064230479 7.599008318923254 13.852256838599681 7.599008318923254 Q 14.161630487629424 7.599008318923254 14.523962345646407 7.684463587358902 Q 14.891470935427632 7.771140212597752 15.241644337084495 7.771140212597752 Q 15.87195550160299 7.771140212597752 16.446100683983236 7.490308248055377 Q 17.339214423239 7.053458905776705 20.989335075992095 2.665548716748965 Q 20.31660024722249 1.8173165880798985 19.56675152405883 1.8173165880798985 Q 19.321111613951302 1.8173165880798985 19.067196737655266 1.9083427565418083 L 14.349222745658347 5.286645797346556 L 14.349222745658347 0.025035944973045218 Q 14.173971736739798 0.0 14.014203342229544 0.0 Z"
     style="fill:#ffffff;stroke:none"
     id="path6" />
  <path
     d="M 14.787816725437374 15.285542133461169 C 15.549371373096287 15.285542133461169 16.502609207919512 15.676756272943992 16.963869255453197 16.13801632047768 C 17.367423959429352 16.541570682145313 17.42018123331472 17.07660848522664 17.434973411436005 17.573762319663377 L 12.163093570676018 17.573762319663377 C 12.177885919951562 17.07660848522664 12.230643193836931 16.541570682145313 12.634197726658826 16.13801632047768 C 13.095457945346773 15.676756272943992 14.02626242008698 15.285542133461169 14.787816725437374 15.285542133461169 ZM 14.787816725437374 14.859305039952915 C 13.884368520776045 14.859305039952915 12.912275476840618 15.276666758126694 12.34256182057423 15.846380414393082 C 11.758218113396996 16.430724336850286 11.69198941469321 17.200007968606588 11.69198941469321 17.775664100798863 L 11.69198941469321 17.99999941317163 L 17.883644036181536 17.99999941317163 L 17.883644036181536 17.775664100798863 C 17.883644036181536 17.200007968606588 17.839849083994995 16.430724336850286 17.25550516153779 15.846380414393082 C 16.685791847579925 15.276666758126694 15.691265101252963 14.859305039952915 14.787816725437374 14.859305039952915 Z"
     style="fill:#ffffff;stroke:none"
     id="path8" />
  <path
     d="M 33.655542253811426 8.203407192002246 C 33.14464679780286 8.243740548330095 32.86231004489047 8.499188095300077 32.808531814039966 8.969749289809286 C 32.875754738378824 9.48064510788646 33.15809149129121 9.749537529379097 33.655542253811426 9.776426916355803 C 34.15299301633164 9.749537529379097 34.4151629100458 9.48064510788646 34.4420515728853 8.969749289809286 C 34.40171821655745 8.499188095300077 34.13954832284329 8.243740548330095 33.655542253811426 8.203407192002246 ZM 33.7160424693375 6.509385226253514 C 34.079047383180004 6.509385226253514 34.415163272114405 6.576608422143824 34.7243894120035 6.711054813924445 C 35.03361518982398 6.845501205705066 35.30586833210295 7.030364654964103 35.54114883884041 7.2656453427358585 C 35.776429707646464 7.500926030507614 35.96129324742265 7.769818270965949 36.09573945816897 8.07232170204226 C 36.230185306846685 8.374825314152872 36.29740805015124 8.694134883641077 36.29740805015124 9.030250591541176 C 36.29740805015124 9.37981044982672 36.230185306846685 9.705842366059102 36.09573945816897 10.008346340238319 C 35.96129324742265 10.310849952348931 35.776429707646464 10.576381290986632 35.54114883884041 10.80493963201421 C 35.30586833210295 11.03349797304179 35.03361518982398 11.2116389850395 34.7243894120035 11.339363392144548 C 34.415163272114405 11.467087075112389 34.079047383180004 11.530948735562006 33.7160424693375 11.530948735562006 C 33.35303809859791 11.530948735562006 33.01356185094578 11.467087075112389 32.69761354534681 11.339363392144548 C 32.38166469664494 11.2116389850395 32.109411192297365 11.03349797304179 31.880853122821236 10.80493963201421 C 31.652294419725052 10.576381290986632 31.470792234355255 10.310849952348931 31.33634647619469 10.008346340238319 C 31.201900129672648 9.705842366059102 31.134676933782337 9.37981044982672 31.134676933782337 9.030250591541176 C 31.134676933782337 8.694134883641077 31.201900129672648 8.374825314152872 31.33634647619469 8.07232170204226 C 31.470792234355255 7.769818270965949 31.652294419725052 7.500926030507614 31.880853122821236 7.2656453427358585 C 32.109411192297365 7.030364654964103 32.38166469664494 6.845501205705066 32.69761354534681 6.711054813924445 C 33.01356185094578 6.576608422143824 33.35303809859791 6.509385226253514 33.7160424693375 6.509385226253514 ZM 33.67570947507826 5.823710203170776 C 33.23203676237424 5.823710203170776 32.815253617681236 5.907739107516513 32.42535967893063 6.075796916207987 C 32.03546592121433 6.243854747528749 31.699350575382834 6.472413088556328 31.417013731953297 6.761471961920012 C 31.134676933782337 7.050531423645179 30.909479630351118 7.386646678959522 30.741421821659646 7.769817908897345 C 30.573364612644298 8.152989681938074 30.489336013793945 8.566411562741841 30.489336013793945 9.010083370274344 C 30.489336013793945 9.45375535884115 30.573364612644298 9.867177239644917 30.741421821659646 10.250349012685646 C 30.909479630351118 10.633520785726375 31.134676933782337 10.966275229737235 31.417013731953297 11.24861198264962 C 31.699350575382834 11.530948735562006 32.03546592121433 11.756146355803253 32.42535967893063 11.924204119236151 C 32.815253617681236 12.09226115853184 33.23203676237424 12.17629004024829 33.67570947507826 12.17629004024829 C 34.11938146364506 12.17629004024829 34.532802982380225 12.09226115853184 34.915974031283746 11.924204119236151 C 35.299145804324475 11.756146355803253 35.63526133119027 11.530948735562006 35.92432097394974 11.24861198264962 C 36.213379892572 10.966275229737235 36.44193823359958 10.633520785726375 36.60999563496387 10.250349012685646 C 36.77805412253398 9.867177239644917 36.86208300425043 9.45375535884115 36.86208300425043 9.010083370274344 C 36.86208300425043 8.566411562741841 36.77805412253398 8.152989681938074 36.60999563496387 7.769817908897345 C 36.44193823359958 7.386646678959522 36.213379892572 7.050531423645179 35.92432097394974 6.761471961920012 C 35.63526133119027 6.472413088556328 35.299145804324475 6.243854747528749 34.915974031283746 6.075796916207987 C 34.532802982380225 5.907739107516513 34.11938146364506 5.823710203170776 33.67570947507826 5.823710203170776 Z"
     style="fill:#ffffff;stroke:none"
     id="path10" />
  <path
     d="M 47.45424923284178 8.52904685507011 C 47.45424923284178 8.907770266668791 47.45424923284178 9.286494134118616 47.45424923284178 9.665217545717297 C 44.79315297962333 9.67733908354846 42.1320421391682 9.685926863293538 39.47094634180089 9.69812635167072 C 39.87619538971419 9.308429235427248 40.28140796953579 8.918694283538635 40.686704995782236 8.52904685507011 ZM 40.52286115337584 8.115469520676761 C 39.8506812870932 8.779869375445564 39.17850142081056 9.444269686065514 38.50632155452792 10.108669540834317 L 47.86782656723513 10.108669540834317 C 47.86782656723513 9.444269686065514 47.86782656723513 8.779869375445564 47.86782656723513 8.115469520676761 ZM 47.626028532002906 2.863830919556718 C 47.87113604655724 2.923304451060555 48.08305577425662 2.9482338106236328 48.33858586941988 2.9525213185801222 C 48.011783447533205 3.900240524204337 47.8609869766361 4.893334697079737 47.92477513923963 5.894008420927392 C 48.859624641338826 6.333943980301883 49.79328072513701 6.474146926410206 50.7465064986457 6.474146926410206 C 51.422563834778735 6.474146926410206 52.1084648205649 6.403623563120147 52.8116161254292 6.319488940452828 L 52.8116161254292 6.319488940452828 C 51.76718274286726 9.56319577992046 49.457653025058036 11.877285376746086 46.950114333129804 13.433392525277455 C 45.794328367657485 14.150640570989825 43.54146140318403 14.778854505914483 41.687506130025284 15.082100363965159 C 41.65276822134735 15.087782092652594 41.6188715859599 15.092526591383246 41.58434519221385 15.09797127747461 C 41.73026405584558 15.069273624410673 41.877477764658366 15.038693306112533 42.02709699997016 15.003679379565517 C 43.491871636234194 14.660891169680516 45.04560790295368 14.16788086134275 45.96098298823194 13.716268219004734 C 48.15830585808263 12.63218763884482 50.01402117251723 10.156774600600674 50.44358247150431 8.110101417577976 C 50.51972784698164 7.747303165775158 50.41428674173643 7.404102410602761 50.19571614581258 7.1489775671085605 C 49.97714554988874 6.893852723614361 49.660292535121116 6.713059423886379 49.29294124206909 6.582759388080197 C 48.811428411343215 6.411966094948515 48.23707328935346 6.327729817475572 47.65388286044619 6.327729817475572 C 47.4646234932292 6.327729817475572 47.27443327797146 6.33660159248479 47.086184076894654 6.3542649127014785 C 47.4365977647549 5.160017874313852 47.667266650101446 4.038838190500977 47.626028532002906 2.863830919556718 ZM 47.13519719214443 2.25 C 47.31047925151369 3.8373253165459635 46.91961880314487 5.3920814362424965 46.45274791123803 6.896443325678763 C 46.84747215392285 6.821771716957407 47.22291389311935 6.783401358420211 47.59421376880059 6.783401358420211 C 48.104974920775135 6.783401358420211 48.607899079842554 6.85600841729999 49.14240095951621 7.0066061370973065 C 49.46083121925001 7.1195537431685745 49.709885493028985 7.273137287974132 49.85425810957248 7.441655883885794 C 49.99863072611598 7.610174479797457 50.05324260514456 7.780190090873556 50.00339801740394 8.017676685964114 C 49.613703636267346 9.874404445794637 47.8010717253715 12.3069041129776 45.76189638200309 13.312960299235149 C 44.91273458742665 13.731905736727281 43.36423149186665 14.22893300536621 41.92463624951944 14.565828883334186 C 41.08717364668712 14.761814790065928 40.287237507957414 14.84923427609346 39.67283369747259 14.914055397394497 C 39.27435158888188 14.989109465227596 38.370483377803374 14.882232428871552 38.362082958221436 15.444330625239694 C 38.452301128116304 15.7162731850742 38.8523549402327 15.749999787984077 39.1698090802088 15.749999787984077 C 39.2706598213922 15.749999787984077 39.3631742417191 15.74659640332583 39.434769994830816 15.746344773493073 C 40.031582395617285 15.742486449390821 40.86097711693688 15.67308584747409 41.76009221975233 15.526019150655987 C 43.652519962105046 15.216480723381837 45.91341446526478 14.606108802323217 47.18747784841086 13.815461428438805 C 50.219222566022495 11.925474313123358 52.450718772906434 9.211573174820238 53.447386248954864 5.759572447670863 L 53.447386248954864 5.759572447670863 C 52.672240549151404 5.926149117699303 51.90115101284769 6.016118407113642 51.13447776244929 6.016118407113642 C 50.20238342467832 6.016118407113642 49.27681778702459 5.883136371088225 48.358424511306694 5.593161251608529 C 48.31676609845127 4.5031726126670435 48.60872872892882 3.496697955057196 48.98579238650383 2.4896974731500947 L 48.98579238650383 2.4896974731500947 C 48.84591263885823 2.5043209215070097 48.712311784901715 2.5112238469246777 48.582751595505975 2.5112238469246777 C 48.082972809348 2.5112238469246777 47.64330529044753 2.408507007847175 47.13519719214443 2.25 Z"
     style="fill:#ffffff;stroke:none"
     id="path12" />
  <path
     d="M 66.89372740610176 2.5888141641791176 Q 67.15724960044173 2.5888141641791176 67.15724960044173 2.8648850979115643 L 67.15724960044173 4.985611858539513 L 66.35413454460974 4.985611858539513 L 66.6176567389497 2.7519472097979447 Q 66.63020521176178 2.5888141641791176 66.89372740610176 2.5888141641791176 ZM 66.90627587891382 2.25 Q 66.266293102282 2.25 66.2286476838458 2.6139114763513165 Q 65.96512548950582 4.985611858539513 65.66395681040802 4.998159798190775 L 59.841371056143714 5.211487568121651 L 59.239034764269725 5.186390355917103 Q 58.56140576946048 4.471115942671643 58.034361913941346 4.471115942671643 Q 57.846131622795426 4.458567336569369 57.64535259225702 4.446018597176893 Q 56.57871534208507 4.6467969612642825 56.3653877054444 4.6467969612642825 Q 56.21480336589549 4.6467969612642825 56.21480336589549 4.847575991802683 Q 56.21480336589549 5.1236469255351285 56.64145863917684 5.1236469255351285 Q 57.374111029136905 5.006847653581355 57.76534763010286 5.006847653581355 Q 57.83647981266129 5.006847653581355 57.89632604720452 5.01070853758325 Q 58.109653817135396 5.01070853758325 58.24768888413101 5.186390355917103 Q 58.00298966558955 5.489351255075995 57.1523682488597 5.489351255075995 Q 57.086936221805686 5.489351255075995 57.01791882159808 5.487558501854098 Q 56.05167088676003 5.46246128964955 55.31129869482666 5.236584780326198 Q 54.94738721847534 5.236584780326198 54.94738721847534 5.663240053607546 Q 54.985033174237685 6.052248842131061 57.67044980446157 6.064797581523537 L 58.86257391539747 5.939310987339992 L 65.66395681040802 5.901664502582159 L 67.57135560116978 5.926762514527921 L 67.57135560116978 2.8648850979115643 Q 67.55880712835771 2.25 66.90627587891382 2.25 Z"
     style="fill:#ffffff;stroke:none"
     id="path14" />
  <path
     d="M 61.333015753432214 7.619559798031672 C 61.873477704970234 7.626283410690913 62.42016106158012 7.623978708960117 62.9519016238347 7.731449474601052 C 62.95227818741086 7.731448369228519 62.95265438252951 7.731447816542253 62.953029472275624 7.731447816542253 C 63.21602081064135 7.731447816542253 63.118196815322534 8.013113686933867 63.06016107277776 8.170981886689479 C 63.01113411637494 8.402725817384255 62.746455611066715 8.34229583793353 62.57190144447165 8.363671531971956 C 62.1739385929938 8.376074180246984 61.7756227592205 8.383091453542429 61.37731945300256 8.383091453542429 C 60.884388151915516 8.383091453542429 60.39147527370402 8.372343916406447 59.8992722288873 8.347754535957788 C 59.88314908089577 8.350642874385878 59.86786159453901 8.352017220901605 59.853361870340585 8.352017220901605 C 59.666577125128086 8.352017220901605 59.610505813802774 8.123981815054224 59.582202750101565 7.96731662907176 C 59.4833498371835 7.712528997186631 59.82080146432947 7.7207677071307685 59.98780427846702 7.6868200585910476 C 60.43365850029903 7.630723323697481 60.884123230965166 7.621080606407988 61.333015753432214 7.619559798031672 ZM 58.02144934234047 9.777529957338865 C 58.29040167843221 9.853241712054935 58.55935410663834 9.928953098313492 58.82830644273009 10.00466485302956 C 58.708861452784944 10.255092527187992 58.69906472025589 10.543895419566097 58.773031920772134 10.809069868684018 C 58.43255921837977 10.674892013050421 58.089759522577204 10.545730706427982 57.75073900334975 10.40842206732411 C 57.62403427203839 10.195739549041683 57.76271988291774 9.890352384097136 57.9768114978649 9.788704536730002 L 58.02144934234047 9.777529957338865 ZM 64.49743497296353 9.777529957338865 C 64.74132879008086 9.84487588426953 64.88476340376126 10.164685213106448 64.78178984626983 10.394226504800953 C 64.6575017586868 10.467699880138191 64.51019465656665 10.50442367179393 64.37673197696175 10.563216962981151 C 64.15908117760209 10.648060200190315 63.94143111515746 10.732903805856987 63.72378031579781 10.817747043066149 C 63.7966074166609 10.551649607883377 63.79338415035538 10.261641122529547 63.67265609924284 10.009569759414909 C 63.94758214484473 9.932223158722893 64.22250892736164 9.85487655803088 64.49743497296353 9.777529957338865 ZM 61.431947332028855 8.731213425975836 C 62.079096892768355 8.731213425975836 62.68643977785827 9.107086881216606 63.04407974471372 9.63607911889725 C 63.20671210008551 9.884848365799035 63.38226331270512 10.149436967474596 63.41194145983708 10.45195458532411 C 63.37567824006999 10.804465623627582 63.22548353643676 11.136117545322932 63.20198958016807 11.491843375409166 C 63.11610176591545 12.158060243881192 63.173307373688125 12.84833959856126 62.966009125012754 13.49503190352971 C 62.72112563102111 14.084135773371644 62.43717790326438 14.689907924092509 61.94724805706127 15.116446866287149 C 61.75619767924487 15.288176806061028 61.50090047062214 15.387498212704221 61.24631217425042 15.387498212704221 C 61.10756323473637 15.387498212704221 60.96902505291856 15.357998767465062 60.84121193232858 15.294641761547604 C 60.33252262464332 15.043911583772708 60.02942744964544 14.528714395300856 59.77774186154473 14.043122030916283 C 59.59969342814487 13.696225179706678 59.44472462054267 13.330623951412806 59.4112056723169 12.937864456904151 C 59.322754130703316 12.222826968235424 59.37079491057816 11.485906787993247 59.150871096833654 10.791220681482592 C 59.089297977955304 10.58956351729938 59.05269006618675 10.367827261058663 59.155979760222536 10.171987304057833 C 59.41767191740477 9.551011859521449 59.9118478679637 8.98706553161001 60.57908536374097 8.802171341886035 C 60.84409732309658 8.719632069492647 61.12929854330545 8.756489242767335 61.4030049945462 8.731464345540772 C 61.41266079207733 8.731296697373304 61.422308483543226 8.731213425975836 61.431947332028855 8.731213425975836 ZM 61.333015753432214 7.257351326498338 C 60.72400522964789 7.26616151404191 60.104333572013886 7.261246475075013 59.51050552419571 7.412759151224792 C 59.291256356153696 7.467514885007371 59.16403663638504 7.691615533095652 59.21061869297416 7.909750669853406 C 59.24062181963074 8.19073120927471 59.32761224298478 8.525745674214704 59.600634284399 8.662796393060933 C 59.69407160882158 8.720327348815749 60.01523501901112 8.691111247402487 59.78652386208872 8.797344916950513 C 59.46245626979812 9.026628656844885 59.1980904006879 9.334095027523546 58.99960086572606 9.676602075948066 C 58.682716536839564 9.5912592103541 58.36912152026742 9.491252472740596 58.0500633381237 9.415591933618545 C 58.041256006125835 9.415118097259505 58.03250030423669 9.414884863655093 58.02379798262944 9.414884863655093 C 57.74071730448168 9.414884863655093 57.5141436271516 9.661692074311238 57.40605336065612 9.904423776439113 C 57.295333303519385 10.175128772795922 57.30444616739388 10.560546014484505 57.58073769350264 10.728465366680464 C 58.0137579760288 10.9079487578566 58.454242205982304 11.07062569658721 58.8901837232837 11.243531015820919 C 59.03945065090443 12.039985823762287 58.91503470856511 12.880878081350474 59.20437168010529 13.652294727594885 C 59.47611075246649 14.298889022865433 59.798542209179864 14.964772805747586 60.35516323331673 15.415431713521976 C 60.60984198600738 15.62654091823278 60.94080931364745 15.750000713331268 61.27051172665253 15.750000713331268 C 61.44173651117894 15.750000713331268 61.61262010405024 15.716703208069562 61.77230000938703 15.645091280077486 C 62.337038152489434 15.395504057501459 62.699508597313034 14.856879603570384 62.98161403751517 14.330648586476565 C 63.2093001456422 13.895536374917873 63.41451476709333 13.437576113107124 63.46089619856775 12.942845265536748 C 63.538550092823876 12.38185544069292 63.500288727975075 11.809274679470617 63.60681716353184 11.25202027687248 C 64.05004502022602 11.076266781079372 64.49784396080067 10.910807251226306 64.93814626485815 10.728465366680464 C 65.22346060152287 10.553554901672335 65.2247538873862 10.1507059351422 65.1003419980795 9.875684459044981 C 64.98949450357975 9.649463337981363 64.76949515604551 9.415468500352388 64.50299131222819 9.415468500352388 C 64.48044981862522 9.415468500352388 64.4575759763474 9.41714240282449 64.43440736806085 9.420636853858042 C 64.1228853855595 9.504596898413531 63.812998617491616 9.594886306091581 63.50211590877172 9.681318332087823 C 63.28826464326466 9.310538433477992 62.99695402906724 8.980133371999589 62.6371549011978 8.745424463714453 C 62.87056389138442 8.715734894399661 63.15918808186973 8.718427581889454 63.29835043071103 8.491165199899982 C 63.45377833637183 8.246693641405548 63.52997534962978 7.935147340708487 63.468981998644864 7.64945441395129 C 63.352669910800685 7.389017407280003 63.03118557411913 7.375375083709489 62.78777959474627 7.332766841375628 C 62.30590312435931 7.269720813597383 61.81844304885189 7.259172980432319 61.333015753432214 7.257351326498338 Z"
     style="fill:#ffffff;stroke:none"
     id="path16" />
  <path
     d="M 30.489336013793945 0.375 C 20.86433607339859 0.375 20.86433607339859 17.625 30.489336013793945 17.625 "
     style="fill:none;stroke:#ffffff;stroke-width:1"
     id="path18" />
  <path
     d="M 30.489336013793945 0.375 L 67.57135200500488 0.375 "
     style="fill:none;stroke:#ffffff;stroke-width:1"
     id="path20" />
  <path
     d="M 30.489336013793945 17.625 L 67.57135200500488 17.625 "
     style="fill:none;stroke:#ffffff;stroke-width:1"
     id="path22" />
  <path
     d="M 75.25885200500488 0.375 L 75.25885200500488 17.625 "
     style="fill:none;stroke:#ffffff;stroke-width:1"
     id="path24" />
  <path
     d="M 67.57135200500488 0.375 C 77.19635391235352 0.375 77.19635391235352 17.625 67.57135200500488 17.625 "
     style="fill:none;stroke:#ffffff;stroke-width:1"
     id="path26" />
</svg>
