<?xml version="1.0" encoding="UTF-8" standalone="no"?>
<svg
   width="110.5427017211914"
   height="18.0"
   version="1.1"
   id="svg38"
   sodipodi:docname="makrinosnetikhu.svg"
   inkscape:version="1.1.1 (3bf5ae0d25, 2021-09-20)"
   xmlns:inkscape="http://www.inkscape.org/namespaces/inkscape"
   xmlns:sodipodi="http://sodipodi.sourceforge.net/DTD/sodipodi-0.dtd"
   xmlns="http://www.w3.org/2000/svg"
   xmlns:svg="http://www.w3.org/2000/svg">
  <defs
     id="defs42" />
  <sodipodi:namedview
     id="namedview40"
     pagecolor="#ffffff"
     bordercolor="#666666"
     borderopacity="1.0"
     inkscape:pageshadow="2"
     inkscape:pageopacity="0.0"
     inkscape:pagecheckerboard="0"
     showgrid="false"
     inkscape:zoom="12.438632"
     inkscape:cx="55.271351"
     inkscape:cy="8.9640082"
     inkscape:window-width="1920"
     inkscape:window-height="1001"
     inkscape:window-x="-9"
     inkscape:window-y="-9"
     inkscape:window-maximized="1"
     inkscape:current-layer="svg38" />
  <path
     d="M 9.619241759901131 8.704017150225534 C 9.956114020057063 8.704017150225534 10.371109904274771 8.76399089929749 10.864229412554256 8.883939352346172 C 11.905261819800385 9.137163864337834 12.8056128816014 9.495897714329981 13.565284507766846 9.960140902322616 C 14.32495613393229 10.42438504522002 15.176070395910864 11.008207138114807 16.1186263387978 11.711606226102205 C 15.211383729261659 12.170969850713034 14.168207560803758 12.400651185566062 12.989095923614554 12.400651185566062 C 12.723796640788658 12.400651185566062 12.45161535927535 12.38902331016484 12.172553033979401 12.365768514267165 C 10.653210736553286 12.239155780818948 9.3484030744964 11.792497164191472 8.258132912523058 11.025791709479964 C 7.167863705454489 10.259086254768457 6.897054622097669 9.78780828332499 7.445706139904986 9.61195779514956 C 7.994358612617073 9.436108261878905 8.441018184149321 9.207503104703234 8.78568342214457 8.92614327852732 C 8.967086681565636 8.778059511294387 9.244939142516232 8.704017150225534 9.619241759901131 8.704017150225534 ZM 16.87829701005847 11.880422885731571 L 17.743478929129175 12.070340076094354 C 17.743478929129175 12.295428318996994 17.539492171864723 12.478311680813713 17.131522476954906 12.618992071354056 C 16.899402315315747 12.634818663035082 16.657389340244983 12.642731958875595 16.405485461552153 12.642731958875595 C 15.985642480714866 12.642731958875595 15.538322115080815 12.620750051038186 15.063526274459544 12.576788145172907 C 15.977946903162229 12.464244023721587 16.582870481695206 12.232122907177656 16.87829701005847 11.880422885731571 ZM 18.207723072026578 12.196952809542571 L 18.73527358164809 12.302462147543055 C 18.791544210016596 12.471278807172421 18.594593191107748 12.640094511897015 18.144416705302472 12.808910216621609 L 17.532460253128203 12.76670629044046 C 17.968567172031815 12.569755271531616 18.193655414934454 12.379837126264063 18.207723072026578 12.196952809542571 ZM 19.009598624373172 12.407972440448313 L 19.36833342927009 12.49238029281061 C 19.283925576907794 12.731536192805375 19.030702019820904 12.851114142802757 18.608660848199875 12.851114142802757 C 18.847816748194642 12.696366095170289 18.98146331018892 12.548652830988656 19.009598624373172 12.407972440448313 ZM 19.600455500718795 12.618992071354056 C 19.938086910167982 12.71746853571325 20.163175153070622 12.87925041189178 20.27571831961717 13.10433865479442 L 19.326128548184172 12.893318068983906 C 19.509013819810434 12.808910216621609 19.600455500718795 12.71746853571325 19.600455500718795 12.618992071354056 ZM 17.405847519679988 13.864010280959864 C 18.46094662911347 13.99062205950331 19.255788352914 14.28604954277135 19.790372691081576 14.750293685668755 L 17.173725448231284 14.138336278589716 C 17.20186267222508 13.983587276052475 17.279236696041313 13.892145595144116 17.405847519679988 13.864010280959864 ZM 5.187792747046841 0.40093762696942586 C 5.848988863757863 0.40093762696942586 6.3484031042903535 0.5838216154424017 6.686035468644312 0.9495895923883535 C 7.0236668780935005 1.3153575693343054 7.129177170998758 2.198124417859453 7.0025653924553115 3.5978901976453446 C 6.875952659007095 4.997655977431236 6.8337487328259465 5.947245271411848 6.875953136459481 6.446659034491953 C 6.918156585188243 6.946073275024443 7.048285755457107 7.315357867835686 7.266340169813683 7.554513290378066 C 7.4843936292654885 7.793669667825216 7.748168406623859 8.029308176094565 8.05766402443641 8.261430247543267 C 8.367160119701346 8.49355231899197 8.212412072068878 8.70105503562468 7.5934203589913905 8.883939352346172 C 6.974429123366289 9.06682271416289 6.629762930466267 9.33763179751971 6.559423212648482 9.69636660241663 C 6.48908301737831 10.055099497504006 6.577008261466024 10.385698033311902 6.823197990006852 10.688160300030777 C 7.069388196000066 10.99062256674965 7.656726725715499 11.398594171469009 8.585214534057924 11.912075114188854 C 9.513701864947961 12.42555701181347 10.333162943564483 12.752637678443564 11.043595860097945 12.893318068983906 C 11.754030686440949 13.033998459524248 13.931053141209826 13.10433865479442 17.57466322440458 13.10433865479442 C 18.700104438917776 13.315358285700162 19.445707453086325 13.596718111876076 19.811474176719763 13.94841813332216 L 17.405847519679988 13.399766138062459 C 17.18076118658689 13.47010633333263 17.00490974350669 13.60375194042214 16.87829701005847 13.800703914235756 C 16.87829701005847 14.166472547678739 16.083455286257944 14.37749217858448 14.493772793561655 14.433763761857755 C 14.254616893566888 14.433763761857755 14.092834062483586 14.103166180954629 14.008427165026061 13.441970064243609 L 13.755202653034399 13.652989695149351 C 13.881814431577844 14.187574033316928 13.91698452921293 14.658852004760394 13.860712945939655 15.066823609479753 C 13.663760972126038 14.588511809490223 13.319094779226017 14.271981885679224 12.826715322144361 14.117233838046756 C 12.038906471985122 13.976553447506413 11.335507383997724 13.846424754689936 10.71651519346785 13.726846804692553 C 10.097523002937978 13.607269809599941 9.471497938766813 13.350529338240019 8.838438091144814 12.956624435708015 C 8.275718438792987 12.520516561899633 7.371849507814169 12.049238590456165 6.126831775660745 11.542790521377611 C 4.881814043507322 11.03634340720383 4.259305416156803 10.283705609584448 4.259305416156803 9.284877128519467 C 4.259305416156803 8.286049602359258 4.593420388785345 7.459554695196674 5.261649856590044 6.805393361936487 C 5.929879801847128 6.151231551223914 6.2639942970232845 5.366941047694864 6.2639942970232845 4.452521373896952 C 6.2639942970232845 4.002345365544058 6.207722713750011 3.5767882345547704 6.095179069751077 3.175850219655281 C 5.993352799453844 2.8130966980279646 5.689997219321334 2.6317199372143065 5.185112329353548 2.6317199372143065 C 5.131966626849421 2.6317199372143065 5.076588356989783 2.6337295343056977 5.0189770423222475 2.6377489672146734 L 3.2464102329044677 2.869871038663376 C 3.3026820549039346 2.6869874381204633 3.387089668540039 2.5181714946696765 3.4996335512651657 2.363423447037208 C 3.6403134643531225 1.9273154538657298 3.795061511985591 1.6740914193264531 3.9638776941625706 1.6037515821455712 C 3.9884963327999836 1.6899181303705768 4.083125485835245 1.733001523846176 4.247764437089777 1.733001523846176 C 4.271284696513898 1.733001523846176 4.296233016023633 1.732122295277918 4.32261082797614 1.7303637187783059 C 4.603971609056825 1.7162955842337946 4.765753485235356 1.5756155517827413 4.8079574114165045 1.308323860151339 C 4.7798216197798675 1.0410321685199366 4.6180397436013365 0.9003521360688832 4.32261082797614 0.8862840612059201 C 4.069387270889249 0.9003521360688832 3.9287073578012923 1.0410321685199366 3.9005710887122693 1.308323860151339 C 3.6754838007144013 1.5193437297832741 3.4996337899913588 1.765533697050295 3.373021295269335 2.046893523226209 C 3.3320964640294637 2.0673559388461444 3.2921017100369276 2.0775870272930157 3.2530370332917253 2.0775870272930157 C 3.1846734908983327 2.0775870272930157 3.119158190711805 2.046253737029377 3.0564913714583355 1.9835869177759076 C 3.225307553635315 1.6459552696005268 3.471497998354722 1.2977725205167625 3.7950622281641695 0.9390390286139039 C 4.118625980521232 0.5803047608509185 4.582869168513866 0.40093762696942586 5.187792747046841 0.40093762696942586 ZM 9.977946007845366 14.159437764227905 L 10.653208826743741 14.328253468952498 L 9.89353815548307 15.425557459471902 L 9.977946007845366 14.159437764227905 ZM 11.286269629270512 14.391559835676606 C 11.84898928162234 14.391559835676606 12.32378416733884 14.451348333222912 12.71065428642001 14.570927238125066 C 13.09752440550118 14.690504233217677 13.336679350591174 15.144197633295988 13.428121986404305 15.932005528550455 C 13.517959427296729 16.705992132143816 13.400721948894024 17.092986388845265 13.07640859629142 17.092986388845265 C 13.070618053757709 17.092986388845265 13.064760667889999 17.092862251224986 13.058837393593063 17.09261588579397 L 11.03304511727885 17.09261588579397 C 10.988356528882543 17.089306185856326 10.942987093384234 17.087650380982737 10.896935855879153 17.087650380982737 C 10.551564943257846 17.087650380982737 10.167861288398607 17.180747866764687 9.745823936396663 17.366940928519046 C 9.858368057847983 16.382182014355735 10.3718499554726 15.390387361836815 11.286269629270512 14.391559835676606 ZM 5.187792747046841 0.0 C 4.231169147067781 0.0 3.443361967991892 0.5345838607151904 2.8243702549144043 1.6037515821455712 C 2.613350385282469 1.9554513648654634 1.9873244855696295 2.3071511475853557 0.946292317049693 2.6588511690314407 C 0.22882448278191372 2.869871038663376 -0.08067132899566878 3.165298999383801 0.017804894772284054 3.545135051192716 L 0.03890708726380924 3.798358369553414 C 1.3753664816751086 3.6717465910099687 2.493771957832701 3.5099647148314377 3.3941234970861016 3.3130129797440135 L 5.040079482865207 3.0175852577497815 C 5.048381902400062 3.0173546482474904 5.056615568791377 3.017239343496345 5.064780004586766 3.017239343496345 C 5.5546451974053515 3.017239343496345 5.796118651280282 3.432360558965298 5.789199888759171 4.2626027511770115 C 5.782166060213108 5.106682229704753 5.4269491244939925 5.862836941597166 4.723549559054208 6.5310668868542505 C 4.020149993614424 7.199296832111335 3.661415904896083 8.166471652361876 3.6473477703515713 9.432591347605873 C 3.6473477703515713 10.459556097759878 4.136210551886389 11.19460836910933 5.11393659240841 11.637750071463774 C 6.09166167802566 12.08089177381822 7.037734535185626 12.555685704629948 7.952154686435924 13.062133773708501 C 8.866573405329065 13.568581842787054 9.387089131499744 13.962486745319058 9.513701864947961 14.243845616590201 C 9.44336166967779 15.735053554736838 9.26047830786107 16.698711938166735 8.96504986968826 17.134818857070343 C 8.472670412606604 17.134818857070343 7.614522322081965 17.064478661800173 6.390606553019116 16.92379827125983 C 6.01077121738878 16.980070809437876 5.75051335430344 17.10316567370829 5.609832486310712 17.293084773880615 C 5.469153528127526 17.48300387405294 5.497289319764163 17.69050468087611 5.69424129357778 17.91559292377875 C 5.7882960713930505 17.77973671214347 5.878469161312617 17.711806696516287 5.9647610407888685 17.711806696516287 C 5.99463093949035 17.711806696516287 6.024035799568166 17.719946304787623 6.052975621022314 17.73622552133029 C 6.165519265021248 17.799531888054396 6.446879091197162 17.831185071416453 6.897054144645284 17.831185071416453 L 8.96504986968826 17.831185071416453 C 9.066651737364214 17.811645809984256 9.162826881224358 17.801877134172933 9.253573391459145 17.801877134172933 C 9.489516991802953 17.801877134172933 9.68877028611562 17.867918348162302 9.851334229301921 18.000000776141047 C 10.048286203115538 17.98593311904892 10.21710095293536 17.929660580870873 10.357781343475702 17.831185071416453 C 10.978782653644581 17.849272877596132 11.498366392758383 17.8583158257812 11.916529696102794 17.8583158257812 C 12.474082358736627 17.8583158257812 12.85133372205558 17.842239049050068 13.048285695869197 17.810083585778262 C 13.39295188876922 17.753811047600216 13.705964898307187 17.704574247777778 13.987324724483102 17.662369366691856 L 14.704792424467398 17.89449143814056 C 14.713104870502352 17.89513122433739 14.721098378343662 17.895450162531034 14.728771038181785 17.895450162531034 C 14.889915037973028 17.895450162531034 14.91005779922074 17.754450833797048 14.789201231734465 17.47245026651953 C 14.170209041204592 17.134818857070343 14.02952865066425 16.28370459509177 14.367161015018208 14.919109390393348 L 14.367161015018208 14.919109390393348 C 14.486100133723532 14.921667580275903 14.601202445057407 14.922946197764796 14.712467949019834 14.922946197764796 C 15.825117259215483 14.922946197764796 16.55409538131412 14.795054846827687 16.899400405506203 14.539274054763013 C 18.306200491290543 14.792496656945131 19.452741281632388 15.03868734039073 20.33902468634128 15.277843240385495 L 20.486738905427682 15.024620638203377 C 20.1209702719847 14.616648078579246 19.84664522925962 14.356389738041521 19.6637618674429 14.243845616590201 L 19.6637618674429 14.243845616590201 L 20.59224824342817 14.433763761857755 C 20.74230770863311 14.490035345131028 20.8462548224276 14.518171614220051 20.90408958481164 14.518171614220051 C 21.01975910957972 14.518171614220051 20.95098304832509 14.405627492768732 20.697759491238198 14.180540204770864 C 20.641486953060152 14.025792157138396 20.23351534834079 13.723330845324293 19.473842767270575 13.273154359519014 L 19.473842767270575 13.273154359519014 L 20.761063948152763 13.526377916605906 C 20.901744338693106 12.62602685480489 19.924019253075855 11.985932223732057 17.827886781491472 11.606096888101721 C 16.73058279097207 11.352873331014829 15.738790048262691 10.86049196412363 14.852506643553802 10.12895660704721 C 13.684862457764227 9.101993766702748 11.91932947689251 8.349355969083367 9.55590579112911 7.871043214189065 C 8.303853752977238 7.786635839279153 7.607488493535902 7.4032831119233995 7.466808580447945 6.72098550957419 C 7.326128667359988 6.038687429772594 7.32964558163302 4.95193465952467 7.477359800719425 3.4607274375566117 C 7.625073542353445 1.969519857499264 7.417570825720734 0.9988280632941434 6.854850695916521 0.5486519952597018 C 6.43281095665265 0.1828839884729759 5.877125132846886 0.0 5.187792747046841 0.0 Z"
     style="fill:#ffffff;stroke:none"
     id="path2" />
  <path
     d="M 27.177865186478382 7.937876256002994 C 26.496671245133623 7.991654064440127 26.120222241250442 8.332250793733436 26.04851793344977 8.959665719745715 C 26.138148499234912 9.640860143848613 26.514597503118093 9.999383372505463 27.177865186478382 10.035235888474404 C 27.84113286983867 9.999383372505463 28.190692728124215 9.640860143848613 28.226544278576878 8.959665719745715 C 28.172766470139745 8.332250793733436 27.8232066118542 7.991654064440127 27.177865186478382 7.937876256002994 ZM 27.25853214051315 5.679180301671352 C 27.742538692303153 5.679180301671352 28.190693210882355 5.768811229525099 28.602994730734476 5.948073085232593 C 29.01529576782846 6.127334940940088 29.378299957533752 6.373819539952137 29.692007299850356 6.687527123647811 C 30.0057151249251 7.001234707343485 30.252199844626684 7.3597576946212655 30.43146145895511 7.763095602723013 C 30.610722590525395 8.16643375220383 30.700352914931468 8.592179844854769 30.700352914931468 9.040334122054901 C 30.700352914931468 9.506413933102294 30.610722590525395 9.941123154745469 30.43146145895511 10.344461786984425 C 30.252199844626684 10.747799936465242 30.0057151249251 11.101841721315509 29.692007299850356 11.406586176018948 C 29.378299957533752 11.711330630722387 29.01529576782846 11.948851980052666 28.602994730734476 12.119151189526065 C 28.190693210882355 12.289449433483185 27.742538692303153 12.374598314082675 27.25853214051315 12.374598314082675 C 26.774526312860356 12.374598314082675 26.32189131599085 12.289449433483185 25.900626908525563 12.119151189526065 C 25.479361776923067 11.948851980052666 25.116357104459635 11.711330630722387 24.8116130118248 11.406586176018948 C 24.506868074363222 11.101841721315509 24.264865160536825 10.747799936465242 24.085604149656074 10.344461786984425 C 23.906342354293347 9.941123154745469 23.8167114264396 9.506413933102294 23.8167114264396 9.040334122054901 C 23.8167114264396 8.592179844854769 23.906342354293347 8.16643375220383 24.085604149656074 7.763095602723013 C 24.264865160536825 7.3597576946212655 24.506868074363222 7.001234707343485 24.8116130118248 6.687527123647811 C 25.116357104459635 6.373819539952137 25.479361776923067 6.127334940940088 25.900626908525563 5.948073085232593 C 26.32189131599085 5.768811229525099 26.774526312860356 5.679180301671352 27.25853214051315 5.679180301671352 ZM 27.204754814834157 4.764946937561035 C 26.61319119789547 4.764946937561035 26.057480338304796 4.876985476688684 25.53762175330399 5.101062554943983 C 25.017763409682257 5.325139663371665 24.569609615240264 5.629884118075104 24.193160490667548 6.015295949226683 C 23.8167114264396 6.400708564860238 23.516448355197976 6.848862238612696 23.292371276942678 7.359757211863126 C 23.068294998255546 7.870652909250765 22.956256866455078 8.421882083655788 22.956256866455078 9.013444493699126 C 22.956256866455078 9.605007145121533 23.068294998255546 10.156236319526556 23.292371276942678 10.667132016914195 C 23.516448355197976 11.178027714301834 23.8167114264396 11.621700306316313 24.193160490667548 11.998149310199494 C 24.569609615240264 12.374598314082675 25.017763409682257 12.67486180773767 25.53762175330399 12.898938825648202 C 26.057480338304796 13.123014878042454 26.61319119789547 13.23505338699772 27.204754814834157 13.23505338699772 C 27.796317466256564 13.23505338699772 28.347546157903448 13.123014878042454 28.85844088977481 12.898938825648202 C 29.369336587162447 12.67486180773767 29.81749062298351 12.374598314082675 30.202903479996134 11.998149310199494 C 30.58831537149248 11.621700306316313 30.89305982619592 11.178027714301834 31.11713636134831 10.667132016914195 C 31.34121434477512 10.156236319526556 31.453252853730387 9.605007145121533 31.453252853730387 9.013444493699126 C 31.453252853730387 8.421882083655788 31.34121434477512 7.870652909250765 31.11713636134831 7.359757211863126 C 30.89305982619592 6.848862238612696 30.58831537149248 6.400708564860238 30.202903479996134 6.015295949226683 C 29.81749062298351 5.629884118075104 29.369336587162447 5.325139663371665 28.85844088977481 5.101062554943983 C 28.347546157903448 4.876985476688684 27.796317466256564 4.764946937561035 27.204754814834157 4.764946937561035 Z"
     style="fill:#ffffff;stroke:none"
     id="path4" />
  <path
     d="M 43.71796300059725 4.553593152303819 C 43.515366868505524 4.651139438125763 43.267749373726744 4.921267614248069 43.642927396118836 4.96628897693512 C 43.82301284686704 4.958785416487278 44.23570867149834 4.771196405291232 44.16067306701992 4.59861451499087 L 44.16067306701992 4.59861451499087 C 44.12179093942829 4.635450154553867 44.0823507620072 4.648844953394093 44.042504584443485 4.648844953394093 C 43.93624841626088 4.648844953394093 43.82710559393382 4.553593152303819 43.71796300059725 4.553593152303819 ZM 42.239761706867654 4.621125196334395 C 41.992144212088874 4.681153679917131 41.86458368447556 4.9512818560394365 42.17973322328492 5.01131033962217 C 42.184873830843934 5.011777709216716 42.19037830429502 5.012004867784961 42.196206226816315 5.012004867784961 C 42.377527882736565 5.012004867784961 42.87198270168726 4.792071407549097 42.464868520302915 4.7411821634998645 C 42.397336476272336 4.696160800812814 42.32980443224176 4.621125196334395 42.239761706867654 4.621125196334395 ZM 44.21319799015481 2.737731409430849 C 44.65590805657748 3.2554770803319357 45.04609342885575 3.8557619161592824 45.12112903333417 4.546089591855977 C 45.196164637812586 5.041324581413538 45.21867531915611 5.536559570971099 45.29371092363453 6.024291000080819 C 44.94104358258596 5.994276758289452 45.04609342885575 5.446516845596998 45.113625472886326 5.183892229922533 C 45.17365395646906 4.666146559021446 44.89602221989891 4.1859186903595695 44.70092941926453 3.728201388545971 C 44.56586533120338 3.4805838937671902 44.43830480359007 3.090398750479415 44.09314102298934 3.0828951900315733 C 43.71045944014941 3.1504272340621498 43.46284194537063 3.4730803333193485 43.21522445059185 3.750712069889497 C 42.96010339536522 3.495591014662874 42.68997533373817 3.217959278092726 42.3373079926896 3.1129094318229407 C 42.31891570534798 3.1061333169211403 42.298150618526364 3.103478286659528 42.27634992220385 3.103478286659528 C 42.19738907720368 3.103478286659528 42.10484325675953 3.138308198501497 42.06224827732765 3.138308198501497 C 42.02544435294782 3.138308198501497 42.02593233168666 3.1123050686664477 42.104697618806505 3.015363146000997 C 42.15234401400069 2.847199398256807 42.2512872563202 2.797332539507548 42.37376442399754 2.797332539507548 C 42.5522693823687 2.797332539507548 42.780764453621536 2.9032586751432934 42.97329805651528 2.9032586751432934 C 43.00233130303814 2.9032586751432934 43.03054659552292 2.900849981403647 43.05764968118717 2.8953061788355274 C 43.12096807117109 2.8989591496620717 43.18448385095928 2.900833723078702 43.24803718518818 2.900833723078702 C 43.57611644314814 2.900833723078702 43.905188832872696 2.850877615285114 44.21319799015481 2.737731409430849 ZM 44.09314102298934 3.3080020034668283 C 44.385779880455175 3.383037607945247 44.45331192448575 3.7882298721287055 44.59587957299475 4.028343806459644 C 44.77596502374295 4.448543306034033 44.99356850572086 4.906260493352385 44.85100085721186 5.378984801566421 C 44.73844722150374 5.604091615001676 44.88101509900323 5.889226912019666 44.86600797810755 6.054305241872186 C 44.615750909925374 6.230161009239284 44.39597797202453 6.601114615031589 44.06380230314991 6.601114615031589 C 44.02746677882185 6.601114615031589 43.9897859353522 6.596675863331121 43.95057337448035 6.587057804678464 C 43.62041671477531 6.519525760647888 43.45533838492279 6.204376221838531 43.200217329696166 6.054305241872186 C 43.015501004224554 6.232424351264017 42.90618460710442 6.601943560613291 42.602007147727996 6.601943560613291 C 42.56020768126595 6.601943560613291 42.51472868108027 6.594965762335501 42.464868520302915 6.579554244230622 C 42.187236783732764 6.519525760647888 41.81956232178852 6.549540002439255 41.73702315686226 6.211879782286372 C 41.59445545110564 5.86671623067614 41.57944833020995 5.484034647836206 41.55693764886642 5.108856625444115 L 41.55693764886642 5.108856625444115 C 41.573460915810855 5.112034097513641 41.58869244738887 5.113543144857125 41.60274152931289 5.113543144857125 C 41.75457230121166 5.113543144857125 41.768308410380484 4.93730061254873 41.7820445195493 4.786203526186916 C 41.84031567284741 4.566566150657444 41.99765979157883 4.464745070327433 42.1724999861131 4.464745070327433 C 42.290343416685886 4.464745070327433 42.41613510724233 4.51100069176735 42.52489700388565 4.59861451499087 C 42.65245753149896 4.7411821634998645 43.04264256029149 4.853735570217492 42.96010339536522 5.078842383652747 C 42.922585593126016 5.2139064717139005 42.877564344934214 5.356474120222895 42.83254298224716 5.499041768731891 L 43.147692406561276 5.919241153811033 C 43.17770664835264 5.70163790082362 43.50035974760984 5.521552450075415 43.312770736413796 5.303949197088002 C 43.282756494622426 5.206402911266059 43.170203087904795 5.078842383652747 43.185210208800484 5.0038067791743295 C 43.32027429686163 4.763692844843391 43.50035974760984 4.553593152303819 43.71045944014941 4.373507701555615 C 43.76728823958488 4.31835030372259 43.82486194509141 4.296701313601148 43.88251648424169 4.296701313601148 C 44.08369012739598 4.296701313601148 44.28585186452404 4.560278987704077 44.46081548493359 4.5836073940951865 C 44.633397375233955 4.396018382899141 44.44580836403791 4.320982778420722 44.27322647373755 4.223436492598778 C 44.16633806280603 4.122656059560493 44.037076593816785 4.076565769255932 43.90820646957868 4.076565769255932 C 43.7204427386371 4.076565769255932 43.53351047217263 4.174408254279515 43.41782058268358 4.343493459764248 C 43.27523461493521 4.429044994615171 43.17600044019539 4.714014273526328 43.05091965062192 4.714014273526328 C 43.011441689769626 4.714014273526328 42.96938873083274 4.685626551200935 42.922585593126016 4.613621635886554 C 42.6935830789425 4.430419624539743 42.41893817985714 4.224396420742008 42.118550513126344 4.224396420742008 C 42.07444786029393 4.224396420742008 42.02979024900371 4.228837233356907 41.98464065164104 4.2384436134944625 C 41.77233835680478 4.28236834071445 41.58146327479829 4.711984043822637 41.5653211625281 4.711984043822637 C 41.56491813926186 4.711984043822637 41.56462400097465 4.711716353937275 41.56444120931427 4.711167921708498 C 41.55693764886642 4.358500580659931 41.72201603596657 4.043350927355329 41.81956232178852 3.698187146754604 C 41.874003723600104 3.471348134741233 42.06833885194348 3.3405145315279086 42.266572944149615 3.3405145315279086 C 42.396205950212426 3.3405145315279086 42.527506350544066 3.396463778482901 42.62244328970759 3.5181016960063998 C 42.84581962199342 3.6010701036102564 43.00948359207098 3.993456532499384 43.219629540689965 3.993456532499384 C 43.256553112601964 3.993456532499384 43.29491176792847 3.9813427064724283 43.335281417757315 3.9533082019812262 C 43.56789179164041 3.7056907072024456 43.75548080283646 3.413051849736614 44.09314102298934 3.3080020034668283 ZM 43.0276354393958 8.5154732977548 C 43.98058761627172 9.49843971642208 44.8585044176597 11.98962178510557 45.083611231094956 13.010106006012059 C 44.715936540160214 12.709963588098386 44.21319799015481 12.514871016454498 44.10064458343719 12.327282005258452 C 43.98058761627172 12.132189433614565 43.65043095656667 10.233788640310578 43.0276354393958 8.5154732977548 ZM 46.4192449908108 6.729625453187459 C 48.220099498292846 7.765117252970617 51.35658730750975 12.860034797055222 52.02440418736767 13.677922885869982 C 50.8988701201914 12.965084643325008 49.7883431739108 12.244742840332192 48.58026994180827 11.659465125400528 C 46.884465738577 10.826569915690085 45.43627857214352 9.475929035078554 44.055623220750135 8.215330879841126 C 45.196164637812586 7.832649297001193 46.01405272662735 7.187342640505811 46.4192449908108 6.729625453187459 ZM 44.550858210307695 13.197695017208105 C 44.79097214463864 13.3402626657171 45.00857562661654 13.535355237360987 45.271200242291 13.640405083630773 C 45.113625472886326 14.030590226918548 45.016079187064385 14.465796732893377 44.69342585881669 14.773442711254893 C 44.63282856285137 14.870924879739023 44.546329007362814 14.901801041742965 44.447569300922794 14.901801041742965 C 44.276881619973764 14.901801041742965 44.069572176581445 14.809571915149503 43.89607111844546 14.809571915149503 C 43.8840541553967 14.809571915149503 43.87219977559738 14.8100143247804 43.860530649106245 14.810960513494098 C 44.07063034164582 14.28571128214517 44.385779880455175 14.053100908262074 44.550858210307695 13.197695017208105 ZM 45.06110054975143 6.174361980047164 C 45.10650844838929 6.268421198654149 45.164534181127394 6.299391704740871 45.22608728340708 6.299391704740871 C 45.30693558253906 6.299391704740871 45.393870448953265 6.2459608952189045 45.46629281393489 6.211879782286372 C 45.646378264683094 6.339440309899683 46.269173781853965 6.324433189004 45.90149931990972 6.594561365126306 C 45.66888894602662 6.909710903935663 44.42570895257707 7.769121838697908 43.5622270248448 7.92070438490315 C 43.18940554360776 7.986152157473879 43.81550928641919 8.575501781337536 44.01810541851093 8.785601473877106 C 45.18866107736474 9.836099936574964 46.33670582588454 10.946626882855554 47.73987162963097 11.70448648808758 C 48.617787744047476 12.199721477645141 49.540725679132024 12.64243154406781 50.38862800973815 13.190191456760264 C 50.79382027392161 13.775469171691926 51.27404814258349 14.315725523936537 51.581694120945 14.961031722450938 C 51.27404814258349 15.051074447825037 50.97390572466982 15.17863497543835 50.658756185860454 15.253670579916767 C 50.49248893737253 15.295737965254663 50.31231647023729 15.315344131195342 50.13180326524969 15.315344131195342 C 49.636158840692104 15.315344131195342 49.137943310888296 15.167531684453397 48.91793016196115 14.931017480659568 C 48.51273789777769 14.503314535132583 48.07002828933601 12.67994934630702 47.83741791545291 12.012132466449096 C 47.80425826026092 11.936970459218992 47.757421460951846 11.911957369776895 47.706501761167154 11.911957369776895 C 47.60515972894679 11.911957369776895 47.48764455624455 12.011034228048587 47.42958676483754 12.011034228048587 C 47.41780016622391 12.011034228048587 47.40846376587664 12.006950869591986 47.402211409478085 11.997125345553412 C 47.38713146960589 11.812395967623743 47.245144083004085 11.714797471969582 47.112337383214864 11.714797471969582 C 46.98081348816286 11.714797471969582 46.858294415225444 11.810519161549815 46.876962178129155 12.012132466449096 C 46.83194081544211 12.48485677466313 46.741898090068005 12.957581082877166 46.51679127663275 13.38528402840415 C 46.48920891386836 13.458180861685584 46.43162238489426 13.486071903633434 46.35571341067866 13.486071903633434 C 46.14251914062773 13.486071903633434 45.784797063454725 13.26606608240204 45.54132841841331 13.205198577655947 C 45.638874704235256 12.627424423172126 44.85100085721186 9.67102160672244 42.53990412478133 7.194846200953653 C 42.45916482512363 7.107378702654637 42.10693645884857 6.7363559417336925 42.13779716399429 6.7363559417336925 C 42.141353157347396 6.7363559417336925 42.14999560200811 6.7412819852015256 42.16472610238924 6.752136134530985 C 42.28299763068716 6.78298939748571 42.416246167631044 6.804151782811264 42.54817022356814 6.804151782811264 C 42.80125383589057 6.804151782811264 43.04946327109164 6.7262689105530455 43.17770664835264 6.489511518856521 C 43.19723404156401 6.430929339222412 43.22170190464422 6.407990903639488 43.25019221471011 6.407990903639488 C 43.35307375000942 6.407990903639488 43.508405786533665 6.7071147718439335 43.6729416379102 6.7071147718439335 C 43.79228232281612 6.786675228447882 43.92561112092751 6.823196006084127 44.05825913030565 6.823196006084127 C 44.2759022276387 6.823196006084127 44.4917131720438 6.724879854227465 44.6409009356818 6.557043562887097 C 44.78346858419079 6.429483035273786 44.918532901242436 6.301922507660475 45.06110054975143 6.174361980047164 ZM 44.28073003418539 2.25 C 44.04494287520424 2.354794316137357 43.631928753788806 2.4595886376416782 43.26125657731139 2.4595886376416782 C 43.20727046584588 2.4595886376416782 43.15418245509071 2.4573657267507203 43.102671043874224 2.4525961410366706 C 43.06749810427496 2.458927270164537 43.031797570581716 2.461697139157979 42.995705463146834 2.461697139157979 C 42.74306082559792 2.461697139157979 42.47122896021378 2.3259735584793395 42.22686496234793 2.3259735584793395 C 42.133773915541894 2.3259735584793395 42.04466913522377 2.3456704046549244 41.96212997029751 2.400071217901778 C 41.549434088418586 3.000356025105313 41.1742560946503 3.668172904963236 41.12923473196325 4.411025503794824 C 41.04669556703699 5.836701988884773 41.084213369276206 6.331936749451842 42.20974746507629 7.502492179315168 C 42.65245753149896 8.507969737306958 43.477849066266316 11.78702565301384 43.725466561045096 12.67994934630702 C 43.9955947371674 12.935070401533642 43.38780634089221 14.330732644832224 43.13268528566559 14.675896425432946 C 42.993869417380516 14.867237216852915 42.62807096004347 14.876616667412716 42.23507198158776 14.876616667412716 C 42.1923546067378 14.876616667412716 42.14931607272256 14.876505836014498 42.106212619902784 14.876505836014498 C 41.75276430678063 14.876505836014498 41.394958619454165 14.883957186630123 41.1742560946503 15.02106020603367 C 40.96415640300523 15.156124294094823 40.889120797632316 15.658862844100229 41.00917776479778 15.726394888130805 C 41.121731171515414 15.553812997830441 41.34683798495067 15.321202623947343 41.504412725731534 15.298691942603819 L 41.504412725731534 15.298691942603819 C 41.35434154539851 15.4562667120085 41.87959080537125 15.381231107530079 41.992144212088874 15.41874890976929 C 42.29566286581929 15.423807767722588 42.60259176045454 15.449328300095363 42.910631831453095 15.449328300095363 C 43.05951228985059 15.449328300095363 43.20865219447571 15.443367219602862 43.35779209910084 15.426252470217129 C 43.42533627962751 15.39670170518194 43.497630409933514 15.350526230414289 43.52924415031278 15.350526230414289 C 43.55382261580071 15.350526230414289 43.553812082238075 15.378436507563482 43.50786330805768 15.463770272456339 C 43.72027168273944 15.519181391754703 43.958964960056875 15.546886493422901 44.192248108006005 15.546886493422901 C 44.717135534377285 15.546886493422901 45.21463501091204 15.406627985037074 45.3237251654259 15.126110052303456 C 45.54883197886115 14.713414227672155 45.758931671400724 14.278207721697331 45.90900288035756 13.827994094826819 C 46.10053098600013 13.86862158794987 46.3414408912819 14.00352171881862 46.534505981108 14.00352171881862 C 46.59104556555184 14.00352171881862 46.64348209835675 13.991952203191582 46.68937316693311 13.963058182887972 C 46.89947285947268 13.820490534378978 47.1170761124601 13.152673654521054 47.237133079625565 12.709963588098386 C 47.24863344012397 12.663963062066763 47.31105121050213 12.641463372266863 47.374362501780794 12.641463372266863 C 47.43497857496647 12.641463372266863 47.49641397613318 12.662088087916771 47.514764816195715 12.702460027650543 C 47.73987162963097 13.152673654521054 48.11504965202306 14.533328776923954 48.47522009553848 15.111102931407773 C 48.74690174315975 15.539346294496308 49.40572387648474 15.750000144026963 50.10658958013644 15.750000144026963 C 50.54779746893039 15.750000144026963 51.00566670593555 15.666519370196848 51.394105109748956 15.501288074695548 C 51.88183653885868 15.291188382155976 52.24200744035508 15.33620974484303 52.1369575940853 15.06608156872072 C 51.97187926423278 14.615867941850212 51.68674396721479 14.188164996323227 51.38660154930112 13.805483413483294 L 51.38660154930112 13.805483413483294 C 51.82180805527594 14.0756115896056 52.25701456125077 14.353243326175747 52.692221067225596 14.623371502298053 C 52.728118532742116 14.7541415606498 52.81834078666209 14.806051873303671 52.91049022456427 14.806051873303671 C 53.08800457006625 14.806051873303671 53.27266891469614 14.613414079735982 53.089909770961214 14.420775370206323 C 51.38660154930112 11.959607543314203 48.67781622763022 7.765117252970617 46.80192657365074 6.40697235393026 C 46.50178415573706 6.144347738255796 46.1491168146885 5.941751835154559 45.758931671400724 5.8442055493326155 C 45.63137114378741 5.514048889627574 45.66888894602662 5.071338823204906 45.593853341548204 4.696160800812814 C 45.51881773706978 3.9533082019812262 45.068604110199274 2.722724288535165 44.28073003418539 2.25 Z"
     style="fill:#ffffff;stroke:none"
     id="path6" />
  <path
     d="M 56.50190622107908 2.9892379897054955 C 56.77952432228209 2.9892379897054955 57.11937963200828 3.095985977015074 57.21847031873496 3.340333519869274 L 57.181988703640506 11.279334014803599 L 57.181988703640506 11.279334014803599 C 57.041177912311674 10.960512872387417 56.62287953889707 10.367342335933275 55.38043471602306 9.632436990092634 L 56.323695525832356 3.06154244747758 C 56.367947056769985 3.0145252182361735 56.36678688683902 2.9892379897054955 56.50190622107908 2.9892379897054955 ZM 57.181988703640506 11.279334014803599 L 57.181988703640506 11.279334014803599 C 57.181988703640506 11.279334014803599 57.18198888267908 11.279334014803599 57.18198888267908 11.279334014803599 L 57.181988703640506 11.279334014803599 L 57.181988703640506 11.279334014803599 ZM 56.36989875621711 2.25 C 56.157393402003514 2.25 55.96558929287976 2.280338063237631 55.82979193957666 2.317373030601139 L 54.663941383361816 10.098160711168036 C 55.28066014672018 10.520569989179059 56.9754961807481 11.67797341616124 56.90791126918976 12.683307927520042 L 56.92054888566302 15.75000086141948 L 57.78132550746999 15.73816856043225 L 57.77649826955663 3.119482909369111 C 57.52053291392157 2.427915471835376 56.88451719449395 2.25 56.36989875621711 2.25 Z"
     style="fill:#ffffff;stroke:none"
     id="path8" />
  <path
     d="M 72.28997354127958 3.0093128979206085 C 72.52043779695815 3.3359527707880625 72.57621559512485 3.7397075791636962 72.59583426797323 4.128350281231105 C 72.5871557442144 4.312118462099679 72.60108235101525 4.510931085895681 72.52488596907378 4.68336055255495 C 72.30961260583176 4.4690715524691775 72.32869275232065 3.9740332820257755 72.3239053364054 3.696728355819359 C 72.3239053364054 3.4235277234508246 72.31467530974831 3.1996360846657628 72.28997354127958 3.0093128979206085 ZM 60.00761284685254 2.701316603701562 L 71.21649493184432 2.7134181530121713 C 69.57900033316994 4.265502100313643 67.93691667424457 5.024102215496823 65.46232687728971 5.024102215496823 C 62.977386900312105 5.024101288601196 61.47376800812541 4.284179974100262 60.00761284685254 2.701316603701562 ZM 59.50454220028178 2.25 C 59.41657897973037 2.25 59.33658811157307 2.3010663876929174 59.29979085482217 2.380981474891305 C 59.26295690618033 2.4609753482180166 59.276152564215266 2.555214680441386 59.333485364667396 2.6220633199810983 C 60.96179628146606 4.522505231594332 62.690019131727425 5.474706963356585 65.46232687728971 5.474706963356585 C 68.16081294750776 5.474706963356585 70.00398475899428 4.559998159720417 71.78170847023398 2.792908722013235 C 71.84297070982768 2.9622321614252725 71.87330058854565 3.2287832445632376 71.87330058854565 3.696728355819359 C 71.88438255266618 4.2171478092263355 71.88039226699047 5.079705757285592 72.56332618453101 5.140134717710316 C 73.04374174955741 5.041247003915814 73.04332001204698 4.527870103485402 73.04643901583299 4.128350281231105 C 73.04643901583299 3.637052034644039 72.92622436054891 3.191584142351021 72.72562931646154 2.8531791832856834 C 72.52503427237414 2.514774224220346 72.22816257947449 2.2628134051524103 71.86855488293365 2.2628134051524103 L 59.504805337260734 2.25 C 59.504717615279255 2.25 59.50462990778052 2.25 59.50454220028178 2.25 Z"
     style="fill:#ffffff;stroke:none"
     id="path10" />
  <path
     d="M 66.16388241934014 12.707355892717953 Q 68.58823520507543 12.707355892717953 71.30546186855487 13.87885516981511 Q 68.58823520507543 15.017812528328633 66.16388241934014 15.017812528328633 Q 63.755801157814744 15.017812528328633 61.02230353504349 13.87885516981511 Q 63.755801157814744 12.707355892717953 66.16388241934014 12.707355892717953 ZM 66.16388241934014 11.958898544311523 Q 63.17005151926617 11.958898544311523 59.281325578689575 13.862584210523293 Q 63.17005151926617 15.749999858973405 66.16388241934014 15.749999858973405 Q 69.15771331941411 15.749999858973405 73.04643925999069 13.862584210523293 Q 69.17398446701196 11.958898544311523 66.16388241934014 11.958898544311523 Z"
     style="fill:#ffffff;stroke:none"
     id="path12" />
  <path
     d="M 76.38440424697325 2.9892379897054955 C 76.66202234817625 2.9892379897054955 77.00187765790244 3.095985977015074 77.10096834462912 3.340333519869274 L 77.06448672953468 11.279334014803599 L 77.06448672953468 11.279334014803599 C 76.92367593820583 10.960512872387417 76.50537756479123 10.367342335933275 75.26293274191723 9.632436990092634 L 76.20619355172653 3.06154244747758 C 76.25044508266416 3.0145252182361735 76.24928491273319 2.9892379897054955 76.38440424697325 2.9892379897054955 ZM 77.06448672953468 11.279334014803599 L 77.06448672953468 11.279334014803599 C 77.06448672953468 11.279334014803599 77.06448690857324 11.279334014803599 77.06448690857324 11.279334014803599 L 77.06448672953468 11.279334014803599 L 77.06448672953468 11.279334014803599 ZM 76.25239678211128 2.25 C 76.03989142789767 2.25 75.84808731877392 2.280338063237631 75.71228996547082 2.317373030601139 L 74.54643940925598 10.098160711168036 C 75.16315817261435 10.520569989179059 76.85799420664226 11.67797341616124 76.79040929508393 12.683307927520042 L 76.80304691155719 15.75000086141948 L 77.66382353336415 15.73816856043225 L 77.65899629545079 3.119482909369111 C 77.40303093981574 2.427915471835376 76.76701522038812 2.25 76.25239678211128 2.25 Z"
     style="fill:#ffffff;stroke:none"
     id="path14" />
  <path
     d="M 81.001788442301 2.9892379897054955 C 81.27940654350401 2.9892379897054955 81.6192618532302 3.095985977015074 81.71835253995688 3.340333519869274 L 81.68187092486244 11.279334014803599 L 81.68187092486244 11.279334014803599 C 81.54106013353359 10.960512872387417 81.12276176011899 10.367342335933275 79.88031693724498 9.632436990092634 L 80.82357774705429 3.06154244747758 C 80.86782927799192 3.0145252182361735 80.86666910806095 2.9892379897054955 81.001788442301 2.9892379897054955 ZM 81.68187092486244 11.279334014803599 L 81.68187092486244 11.279334014803599 C 81.68187092486244 11.279334014803599 81.681871103901 11.279334014803599 81.681871103901 11.279334014803599 L 81.68187092486244 11.279334014803599 L 81.68187092486244 11.279334014803599 ZM 80.86978097743904 2.25 C 80.65727562322543 2.25 80.46547151410168 2.280338063237631 80.32967416079858 2.317373030601139 L 79.16382360458374 10.098160711168036 C 79.7805423679421 10.520569989179059 81.47537840197002 11.67797341616124 81.40779349041169 12.683307927520042 L 81.42043110688495 15.75000086141948 L 82.28120772869191 15.73816856043225 L 82.27638049077855 3.119482909369111 C 82.0204151351435 2.427915471835376 81.38439941571588 2.25 80.86978097743904 2.25 Z"
     style="fill:#ffffff;stroke:none"
     id="path16" />
  <path
     d="M 88.41781199614962 2.6852062814922917 L 88.41781199614962 3.107224033033866 L 86.18902900336553 3.107224033033866 L 86.18902900336553 2.6852062814922917 ZM 87.29682641581653 3.5160547934162913 Q 88.69476153029667 3.5160547934162913 89.22887825625045 4.228209794401273 Q 89.76299498220423 4.940365610040615 89.76299498220423 5.507452303113922 Q 89.74980699535642 6.391052490877712 89.02446301183497 7.050455816022904 Q 88.29912011451933 7.709859141168096 87.29682641581653 7.709859141168096 Q 86.28134563543742 7.709859141168096 85.55600201398457 7.050455816022904 Q 84.83065852830744 6.391052490877712 84.83065852830744 5.520639927893129 Q 84.83065852830744 4.940365610040615 85.26586476454115 4.228209794401273 Q 85.70107104603345 3.5160547934162913 87.29682641581653 3.5160547934162913 ZM 85.55600201398457 2.25 L 85.55600201398457 3.239105259269241 Q 85.08123177194884 3.5160547934162913 84.68558949625856 4.1358940675008995 Q 84.28994725168354 4.755732526931148 84.27675950527191 5.507452303113922 Q 84.27675950527191 6.391052490877712 85.00869689385578 7.294435383050427 Q 85.74063500657688 8.197817913154537 87.29682641581653 8.263758209462196 Q 88.8398304718284 8.197817913154537 89.57836280426628 7.294435383050427 Q 90.31689405049833 6.391052490877712 90.31689405049833 5.520639927893129 Q 90.30370606365052 4.755732526931148 89.90806464787318 4.129299349939785 Q 89.51242250795862 3.502866263465574 89.02446301183497 3.2259167293185236 L 89.02446301183497 2.25 Z"
     style="fill:#ffffff;stroke:none"
     id="path18" />
  <path
     d="M 87.08421883345243 10.518334150314331 L 87.06903258997676 10.525927279123817 L 89.78737270660156 15.734813672132447 L 90.81244540844926 15.734813672132447 L 88.09410492975586 10.518334150314331 ZM 84.80628023020775 10.525927279123817 L 83.7812077999115 10.533520407933304 L 86.4995479165363 15.749999915608115 L 87.5246202563154 15.742406974904583 L 84.80628023020775 10.525927279123817 Z"
     style="fill:#ffffff;stroke:none"
     id="path20" />
  <path
     d="M 93.27109774726551 2.25 L 93.06567229582947 2.695088478111436 L 92.41515836628199 4.150185425783439 L 92.31244564056396 4.355610877219487 L 92.74041533105573 4.5610363286555335 L 92.84312805677375 4.338492089599816 L 93.2882165348852 3.328483620039249 L 93.5107607739409 3.722215735291673 L 93.71618622537696 4.133066638163768 L 93.921611676813 3.722215735291673 L 94.16127470348839 3.294246044799908 L 94.38381894254411 3.722215735291673 L 94.58924439398015 4.133066638163768 L 94.79466984541621 3.722215735291673 L 95.01721408447192 3.294246044799908 L 95.25687711114732 3.722215735291673 L 95.46230256258336 4.133066638163768 L 95.6677280140194 3.722215735291673 L 95.89027225307512 3.3113648324195784 L 96.11281649213085 3.722215735291673 L 96.33536073118655 4.133066638163768 L 96.54078618262261 3.722215735291673 L 96.76333042167832 3.294246044799908 L 96.98587466073404 3.722215735291673 L 97.20841889978976 4.133066638163768 L 97.4138443512258 3.722215735291673 L 97.63638859028153 3.294246044799908 L 97.85893282933725 3.722215735291673 L 98.08147706839296 4.133066638163768 L 98.28690251982901 3.722215735291673 L 98.50944675888474 3.294246044799908 L 98.73199099794044 3.722215735291673 L 98.9374164493765 4.133066638163768 L 99.15996068843221 3.722215735291673 L 99.38250492748793 3.294246044799908 L 99.60504916654365 3.722215735291673 L 99.8104746179797 4.133066638163768 L 100.03301885703542 3.722215735291673 L 100.25556309609114 3.294246044799908 L 100.49522612276652 3.739334522911344 L 100.70065157420257 4.115947850544098 L 100.92319581325829 3.739334522911344 L 101.16285883993368 3.2771272571802372 L 101.76201640662215 4.355610877219487 L 101.88184791995984 4.5610363286555335 L 102.29269882283194 4.338492089599816 L 102.18998609711392 4.133066638163768 L 101.36828429136972 2.660850902872095 L 101.16285883993368 2.301356362859012 L 100.95743338849763 2.6779696904917656 L 100.70065157420257 3.1230581686032015 L 100.46098854752718 2.6779696904917656 L 100.23844430847146 2.284237575239341 L 100.05013764465508 2.6779696904917656 L 99.8104746179797 3.105939380983531 L 99.58793037892397 2.6779696904917656 L 99.38250492748793 2.267118787619671 L 99.17707947605189 2.6779696904917656 L 98.95453523699616 3.105939380983531 L 98.71487221032078 2.6779696904917656 L 98.50944675888474 2.267118787619671 L 98.30402130744868 2.6779696904917656 L 98.06435828077329 3.105939380983531 L 97.84181404171757 2.6779696904917656 L 97.63638859028153 2.267118787619671 L 97.43096313884548 2.6779696904917656 L 97.20841889978976 3.105939380983531 L 96.96875587311438 2.6779696904917656 L 96.76333042167832 2.267118787619671 L 96.55790497024228 2.6779696904917656 L 96.33536073118655 3.0888205933638604 L 96.11281649213085 2.6779696904917656 L 95.89027225307512 2.267118787619671 L 95.68484680163908 2.6779696904917656 L 95.46230256258336 3.105939380983531 L 95.23975832352764 2.6779696904917656 L 95.01721408447192 2.267118787619671 L 94.81178863303587 2.6779696904917656 L 94.58924439398015 3.105939380983531 L 94.36670015492444 2.6779696904917656 L 94.16127470348839 2.267118787619671 L 93.93873046443268 2.6779696904917656 L 93.71618622537696 3.105939380983531 L 93.49364198632124 2.6779696904917656 L 93.27109774726551 2.25 Z"
     style="fill:#ffffff;stroke:none"
     id="path22" />
  <path
     d="M 97.30249303351586 5.859094988333511 C 97.89508350117873 5.859094988333511 98.42300805936149 6.132726299325186 98.76679510829493 6.560769264244098 L 95.8383484613801 6.560769264244098 C 96.18209836491474 6.132726299325186 96.70992532990691 5.859094988333511 97.30249303351586 5.859094988333511 ZM 98.96493343356889 6.863174339384015 C 99.07794065727106 7.0782921878995815 99.15050046387961 7.31812564651956 99.17236441479767 7.572566244816402 L 95.43277915487734 7.572566244816402 C 95.45464022183587 7.31812564651956 95.52721614016502 7.0782921878995815 95.64021013610613 6.863174339384015 ZM 99.1742544465173 7.874971319956319 C 99.15571927705074 8.128870502916811 99.08686693500678 8.368662740141861 98.97753364503305 8.584363225388707 L 95.62760992464197 8.584363225388707 C 95.51828970861811 8.368662740141861 95.44942190855106 8.128870502916811 95.43088912315773 7.874971319956319 ZM 98.78569542549117 8.886768300528622 C 98.4425313118169 9.328545372894533 97.90611453103452 9.612540480864421 97.30249303351586 9.612540480864421 C 96.69891106546919 9.612540480864421 96.16257611223197 9.32852568506412 95.81944814418385 8.886768300528622 ZM 97.30249303351586 5.556689913193594 C 96.1012580567891 5.556689913193594 95.12344396102884 6.534665046850886 95.12344396343214 7.735896485920618 C 95.12344396343214 8.937127309745648 96.10125813369469 9.91494555600434 97.30249303351586 9.91494555600434 C 98.50376261775702 9.91494555600434 99.48169960624288 8.93712792499035 99.48169960624288 7.735896485920618 C 99.48169960624288 6.534664431606186 98.50376292537936 5.556689913193594 97.30249303351586 5.556689913193594 Z"
     style="fill:#ffffff;stroke:none"
     id="path24" />
  <path
     d="M 101.15232763924348 12.587699403203414 L 101.9368386538797 12.62005021926617 L 101.9368386538797 14.892699854273982 Q 101.7669965090553 14.892699854273982 101.06336325556585 14.391261484311384 L 101.15232763924348 12.587699403203414 ZM 93.66309557580347 11.576733997942688 L 93.02416557666677 15.014016736324102 L 92.60362449466028 14.868444552950649 L 92.60362425433033 14.868444552950649 Q 92.60826151105336 14.862018129791018 93.66309557580347 11.576733997942688 ZM 93.73040454767688 10.910599290515336 Q 93.67191880966509 10.910599290515336 93.59839394367796 11.00250558586963 L 92.31244564056396 15.014016736324102 L 93.19400736099624 15.345612961462288 L 93.84102566497353 11.900242398900206 L 94.39099073969018 13.52587535215796 L 93.79249920054943 13.55013882469997 L 93.80867484891077 13.671455226090167 Q 93.93807799299682 13.938349819102843 94.33437693174534 13.938349819102843 Q 94.12409542568763 14.326559371525951 94.77920173409306 15.15959516827654 L 94.98139469498022 15.15959516827654 L 95.19976402521861 15.749999844556463 L 95.4909220907733 15.620596099645518 L 95.321079224959 15.15959516827654 L 102.04198012789846 15.167683232787171 Q 102.13094355025623 15.143420000575123 102.19564710502144 15.046367071726934 Q 102.2441726081257 15.046367071726934 102.29269811122994 12.288453994127982 L 100.87734402040033 12.288453994127982 L 100.76411784649042 14.286120731282525 Q 100.58674952860441 14.281658765224869 100.38137892497167 14.281658765224869 Q 99.09777516079312 14.281658765224869 96.72025478346774 14.455962876106934 Q 95.84678082713364 14.439787227745596 95.84678082713364 14.358910668248628 Q 95.34534269750101 13.614840937485402 94.75493826155105 13.574402297241978 L 93.8491134891542 11.042943700391264 Q 93.80058714489509 10.910599290515336 93.73040454767688 10.910599290515336 Z"
     style="fill:#ffffff;stroke:none"
     id="path26" />
  <path
     d="M 40.9532527923584 0.375 C 31.328252851963043 0.375 31.328252851963043 17.625 40.9532527923584 17.625 "
     style="fill:none;stroke:#ffffff;stroke-width:1"
     id="path28" />
  <path
     d="M 40.9532527923584 0.375 L 102.29270362854004 0.375 "
     style="fill:none;stroke:#ffffff;stroke-width:1"
     id="path30" />
  <path
     d="M 40.9532527923584 17.625 L 102.29270362854004 17.625 "
     style="fill:none;stroke:#ffffff;stroke-width:1"
     id="path32" />
  <path
     d="M 109.98020362854004 0.375 L 109.98020362854004 17.625 "
     style="fill:none;stroke:#ffffff;stroke-width:1"
     id="path34" />
  <path
     d="M 102.29270362854004 0.375 C 111.91770553588867 0.375 111.91770553588867 17.625 102.29270362854004 17.625 "
     style="fill:none;stroke:#ffffff;stroke-width:1"
     id="path36" />
</svg>
