<?xml version="1.0" encoding="UTF-8" standalone="no"?>
<svg
   width="52.42607879638672"
   height="18.0"
   version="1.1"
   id="svg56"
   sodipodi:docname="menekhib.svg"
   inkscape:version="1.1.1 (3bf5ae0d25, 2021-09-20)"
   xmlns:inkscape="http://www.inkscape.org/namespaces/inkscape"
   xmlns:sodipodi="http://sodipodi.sourceforge.net/DTD/sodipodi-0.dtd"
   xmlns="http://www.w3.org/2000/svg"
   xmlns:svg="http://www.w3.org/2000/svg">
  <defs
     id="defs60" />
  <sodipodi:namedview
     id="namedview58"
     pagecolor="#ffffff"
     bordercolor="#666666"
     borderopacity="1.0"
     inkscape:pageshadow="2"
     inkscape:pageopacity="0.0"
     inkscape:pagecheckerboard="0"
     showgrid="false"
     inkscape:zoom="26.227405"
     inkscape:cx="26.213039"
     inkscape:cy="9.0172856"
     inkscape:window-width="1920"
     inkscape:window-height="1001"
     inkscape:window-x="-9"
     inkscape:window-y="-9"
     inkscape:window-maximized="1"
     inkscape:current-layer="svg56" />
  <path
     d="M 3.009169848917976 0.4739171748132039 C 3.7026715218272255 0.4739171748132039 4.256829318471649 0.6745946316238001 4.644164689284773 0.9526347441559112 C 4.650308145491952 1.0062515645085024 4.663546055856558 1.060016372992199 4.652575800812965 1.1124437372646898 C 4.603449882852364 1.360569519526529 4.457806885291136 1.5903185537666114 4.257258755698066 1.7432685981716125 C 3.9413649209170813 1.94997010496389 3.5600411988456018 2.009570228366613 3.2002765010963685 2.0993341831784433 C 3.10998720613517 2.1086036967312767 3.181170796374544 2.130187995961788 3.231117085890341 2.138585643286511 C 3.4609996992016763 2.1784200797833564 3.9384250002790258 2.2376030490926513 4.202499603977515 2.2376030490926513 C 4.220906351189456 2.2376030490926513 4.23827706337661 2.2373153403237978 4.254454894379272 2.2367137030214415 C 4.532424083629077 2.2049171597812043 4.794657162235626 2.0893111466595644 5.019856122452685 1.9255069464391237 C 5.098959498900698 1.8590524805074944 5.166930105007111 1.7763742399315428 5.224523825878929 1.6899990125400517 C 5.3720929131784425 2.0357255065676374 5.451951702305268 2.4028945713681713 5.485264503827336 2.6067978859799568 C 5.503366062427325 2.716651377223197 5.580895308140001 2.8061828973646232 5.687128818362978 2.8395020766672823 C 6.825504545072815 3.188508875845171 7.72511459117944 4.749370284342509 8.566494083211595 5.78895938641794 C 10.295861887830181 7.925728476871466 11.765759846336513 10.315234366846607 13.458892408638075 12.548598959980612 C 12.522122105814729 12.092922126930452 11.58844053850988 11.632519122248745 10.649618007621019 11.174801399409672 C 8.72850955219054 10.164475916823728 6.728271736761494 9.358727903879377 5.045088984609069 8.085161653353607 C 5.042277564439204 8.082822188947427 5.039490238107126 8.07909189594436 5.036677873080877 8.076750541825415 C 4.066833817400553 7.2693821001829235 3.0743602151151883 6.41700117284651 2.698420284718348 5.284299308721125 C 2.5498687829938245 4.364048874911361 4.455242072637431 2.7072382455000326 4.240437005069874 2.637638234559833 C 4.2215063349931405 2.631504463130588 4.200107227613845 2.6285180083156328 4.1764933768710275 2.6285180083156328 C 3.7176359210190495 2.6285180083156328 2.422621666796125 3.756154733581801 2.15731260823226 4.830105427765268 C 2.154053326136495 4.815773846136464 2.1461630666898484 4.79928090552982 2.143294246494671 4.785246481233707 C 2.0704243238243896 4.4287242943794265 1.9886595231574336 3.528875672035904 2.2105824300779164 2.8058581029827074 C 2.22090238771539 2.7720589366371007 2.223991359447983 2.7373940456298778 2.2217969304967107 2.702122556824284 C 2.206042867582163 2.411103719844335 2.16184012380912 2.2384220033632714 2.098435772391302 2.068493834598567 C 2.035031184759387 1.8985666106902463 1.9592064599630061 1.724220765903293 1.8376947401217505 1.3030929608462967 C 1.806828171777225 1.1953371688820418 1.6962380468757994 0.9753151948986268 1.630223411590808 0.9582419943653084 C 1.8161052441811285 0.8204882523408192 2.0045522437462973 0.6772958579179091 2.2750667523423678 0.5825507383579678 L 2.2750667523423678 0.5825507383579678 C 2.1960743965194465 0.658865194028754 2.1432944827087668 0.7691834365057539 2.143294246494671 0.8965614153126038 C 2.143294246494671 1.1261525404295507 2.3068791219270324 1.3115031275181046 2.5077709430296933 1.3115039542674405 C 2.7086627641323537 1.3115039542674405 2.8722476395647156 1.1261525404295507 2.8722476395647156 0.8965614153126038 L 2.8722476395647156 0.8937576721008572 C 2.871221053103765 0.7095976631093593 2.7627272101967493 0.5576299150223198 2.6171139756116095 0.5040481134094518 C 2.669879244148341 0.49667510377938745 2.7125253370291467 0.4854209784459994 2.771315482296895 0.4816187582507192 C 2.852317311433968 0.47642689052903053 2.9316148558688426 0.4739171748132039 3.009169848917976 0.4739171748132039 ZM 3.6797034804227042 8.23655977114829 C 3.744950774217038 8.301805883872143 3.8149797499554623 8.36067988514395 3.8815675587442495 8.424405723946341 C 4.0956495749641375 9.204198532028927 4.293931466520769 10.064938131364233 4.57407335302502 10.7290191024102 C 5.057193067313169 11.874268186883667 5.789626838872777 12.870430272277117 6.413278350114227 13.883144351801198 C 6.260634439177563 13.965039778863208 6.128536902733854 14.058336787907995 6.029175805418124 14.152295196421411 C 5.947669659186221 14.229370911069886 5.8940429178416 14.280530159968329 5.830115352201277 14.345748871857053 C 5.520950312157207 13.938784109671408 5.124019924767046 13.62317373180555 4.644164689284773 13.448575610364134 C 4.689085996337662 12.725628196897432 4.536026821020337 11.737052363409154 4.30492109112023 10.66173115504105 C 4.1263418173058595 9.830810278320685 3.903548933870034 9.003086795602949 3.6797034804227042 8.23655977114829 ZM 4.686219774497539 9.144947533060002 C 5.834593499032087 10.09035760265641 7.113542596376112 10.88336044784028 8.36182590735716 11.685069199744076 C 8.343845290374292 12.594861963098435 8.344411259348162 13.463187814338914 8.445936077782692 14.359767706022835 C 8.033305011863666 14.014385848361224 7.586775333464642 13.763462228240035 7.018870348864767 13.625206117887009 C 7.015369655962953 13.624345353721408 7.011953527707485 13.623977804588126 7.008598342688769 13.623977804588126 C 6.989090837789752 13.623977804588126 6.971640285238172 13.63639699689621 6.951581929067426 13.636421563162186 C 6.30326824892538 12.572860982202688 5.56863248956343 11.57684345983595 5.115180793297013 10.501922870574559 C 4.9594783822461315 10.132827952249835 4.822072170210292 9.651825188689491 4.686219774497539 9.144947533060002 ZM 5.092751320031232 14.399018929916807 C 5.256419815253556 14.551910865654206 5.4054203599744595 14.728454446389774 5.5329268392495 14.94012684261699 C 5.575655607063885 15.01022479287143 5.648728910070769 15.058380343325913 5.729183431147552 15.07470273735529 C 5.7494917018318015 15.078823256044847 5.769947370111917 15.080878318679517 5.790254695939782 15.080878318679517 C 5.850400001475933 15.080878318679517 5.909242822487076 15.062849514021076 5.9590844691583715 15.027040401933126 C 6.175000687833224 14.870724306660996 6.306688629034575 14.703258906060551 6.435707350951817 14.58125716007727 C 6.483312522562763 14.536239477673238 6.5327214250102985 14.500179978643592 6.584302079855896 14.463502543538969 L 6.732896336331785 17.185862440383506 C 6.519603983834621 17.172073206318977 6.298091380798784 17.15081393768448 6.095781566478202 17.15081393768448 C 5.831792472282443 17.15081393768448 5.600500133246544 17.18701327545892 5.462835502989748 17.323242668868794 C 5.2941143882552915 17.189184555428792 4.96598135630733 17.158607113137695 4.572329148140608 17.158607113137695 C 4.471105738892494 17.158607113137695 4.365550163124863 17.160629105798932 4.257258755698066 17.16343343954592 L 5.092751320031232 14.399018929916807 ZM 6.25066573190075 9.573908551859477 L 6.25066573190075 9.573908551859477 C 7.604791854990093 10.361226196182292 9.034522078910209 10.988295252963786 10.386072995925625 11.699088033909858 C 10.388108216576233 11.700135879639442 10.389620931646625 11.700891764746446 10.39167977370683 11.70189142280046 C 11.686891739128056 12.333365400043023 12.978365852695143 12.98273873661945 14.285973389014858 13.605581450796405 C 15.269975172749374 14.794761632832586 16.33790476962736 15.90056296328426 17.36439863465213 17.026055100773398 C 16.647556883137256 17.146248391638174 15.930830404101199 17.267532046769798 15.213987707729942 17.38772722734734 C 13.79219427743337 15.841645498618801 12.36859900601298 14.299348864563587 10.946807465429178 12.75326524612228 C 10.935631704122118 12.739913480563432 10.92370950627189 12.727994117282355 10.910359630425809 12.716818355975295 C 9.41106341039531 11.580038019269429 7.757799063206311 10.634765898705052 6.25066573190075 9.573908551859477 ZM 3.0756960058277225 0.0 C 2.9405269774945206 0.0 2.803378947465543 0.004522381611119117 2.664776311033773 0.013406474957975922 C 1.5799215017535755 0.08356273687650426 0.791815610992612 0.5394290283949892 0.5227751964622482 1.157302329475107 C 0.4821416476788419 1.2499492773278713 0.3773182175015722 1.4706424536648965 0.5155519465690093 1.4706424536648965 C 0.5301007861125528 1.4706424536648965 0.5473420529751317 1.468197873986025 0.5676338477261894 1.4629019539550754 C 0.6829407547488466 1.4484514385289664 0.7780652341468658 1.4423110531050352 0.8569417269557291 1.4423110531050352 C 1.2747371416542677 1.4423110531050352 1.236670413344381 1.614590378873667 1.3274274122155385 1.6367293088014427 C 1.417468209947809 1.9189504698851962 1.6165598434253194 2.483475939414473 1.630223411590808 2.7049261819289825 C 1.386425543994761 3.5656903475302664 1.4768830233922678 4.468266061611404 1.565739089326357 4.903000625343815 C 1.7153772939992473 5.635118342443057 2.1961816377190027 6.48697345720191 2.8273889292472503 7.283313535133207 C 2.8134251329658233 7.338127016095824 2.8086283333195925 7.393803623365002 2.8273889292472503 7.448729542237286 C 3.1285063912567783 8.370618829444675 3.4792571591049843 9.617610994177321 3.7301694409495667 10.785092549360554 C 3.981081959008245 11.952574104543789 4.12285718696257 13.061967778966503 4.046983802062425 13.608383894830625 C 4.025192579283871 13.758532912485983 4.121174397743101 13.900045942793815 4.26847325611686 13.936413465004566 C 4.312604663232929 13.947361515923141 4.352082652659003 13.967347118152338 4.39463851175516 13.981272411536127 L 3.4666249016823647 17.0596976571734 C 3.272728324816838 17.01836208009686 3.0724617624261277 17.00476559673462 2.874112549852153 17.00476559673462 C 2.4927394590346226 17.00476559673462 2.118454680808026 17.055030066637645 1.8101650502035056 17.055030066637645 C 1.6846506825065655 17.055030066637645 1.570075389592555 17.04669832304569 1.4704144184820296 17.023250767026415 C 1.4375472348519498 17.015217598051724 1.3949769666959404 17.011228414399508 1.3451441780532423 17.011228414399508 C 0.9090801423353627 17.011228414399508 -0.08308278674200893 17.316628674182503 0.004096926806725951 17.889582026440785 C 0.15548046576267507 17.76211712084663 0.26223299740795364 17.73138850153413 0.38031217211407353 17.73138850153413 C 0.49024007079753446 17.73138850153413 0.6099847320405954 17.758020223566664 0.7846967677297779 17.758020223566664 C 0.7935070810801064 17.758020223566664 0.8024571741217066 17.757952193907034 0.8115528340999292 17.75781046544947 C 1.066223518424995 17.75382506122279 1.509269747551208 17.674784045296107 1.865480722334089 17.674784045296107 C 2.0452727193170093 17.674784045296107 2.202943030001157 17.694920824546703 2.3031032396034496 17.755008021415254 C 2.5392046614185677 17.745578354705373 2.7523340261895344 17.741732789223487 2.951610851518261 17.741732789223487 C 3.8011631150558056 17.741732789223487 4.398956033000731 17.81162570564265 5.451620530142762 17.816688246146814 C 6.240002555181878 17.80960749240695 7.649068297561068 17.777941575561766 8.426310465835707 17.73818579835887 C 8.876011082258614 17.740893756754712 9.122960636429726 17.792010487115885 9.3482285711628 17.792010487115885 C 9.361538763040762 17.792010487115885 9.374772421551643 17.79183285411574 9.387968285807172 17.791454911562237 C 9.52192246504496 17.78755265469733 9.652878614977093 17.73516414764362 9.867871236536825 17.73516414764362 C 9.990853743446445 17.73516414764362 10.141335350548884 17.752305732157712 10.335607271612858 17.805472800871634 C 10.085930861918229 17.463682342324677 9.45939942841909 17.120327201606223 9.005599080147068 17.120327201606223 C 8.891079651866747 17.120327201606223 8.787560241606108 17.142193068039095 8.703873366840497 17.191469218164713 C 8.542968104112466 17.175166666119395 8.37234782804666 17.169161158944245 8.19567291227375 17.169161158944245 C 7.976734570455455 17.169161158944245 7.748496479680046 17.178384846962466 7.517922703923993 17.188666774130493 L 7.360917335919913 14.359767706022835 L 7.360917335919913 14.359767706022835 C 7.847890174541017 14.562401606083045 8.21758885609496 14.875619607585232 8.642193142108937 15.380301416978874 C 8.699664031650867 15.44654907746951 8.781797562521582 15.482110637184917 8.86545325702653 15.482110637184917 C 8.908499969014047 15.482110637184917 8.951950134677428 15.472694198464408 8.992650768264083 15.453197086985613 C 9.112446274591294 15.395810289661837 9.178901803486355 15.264291005324987 9.155264331333942 15.133579573196247 C 8.962827321367223 14.095116267502062 8.941800487403126 13.115423973733854 8.95339954437011 12.074779939505962 L 8.95339954437011 12.074779939505962 C 9.492870020957247 12.42841606253606 10.024760859633895 12.787106222362869 10.5290609470485 13.16820932046874 C 11.981769133365166 14.7479090393313 13.43605428498632 16.326704530634608 14.888761526446602 17.906404249497168 C 14.944628049848916 17.96747598671759 15.022539017540629 17.999999833159222 15.103714464038218 17.999999833159222 C 15.11983182423232 17.999999833159222 15.136078629750996 17.99871671819008 15.152306538141996 17.99612214256029 C 16.10156595264582 17.836959195003903 17.051571803692816 17.68146795935479 18.00083121819664 17.52230312208564 C 18.107373224028915 17.50503114739059 18.194878263441282 17.430652052861355 18.23073178377927 17.328851336362764 C 18.266587193830023 17.227046840438643 18.244059927928525 17.11188585467375 18.171855892794696 17.031661878554605 C 17.42994521170602 16.20143358156353 16.66326228594804 15.400856767607475 15.920510682677822 14.586862993002091 L 15.920510682677822 14.586862993002091 C 17.1897721675192 15.367626168590794 18.796164079222855 16.341928056689678 19.00015479305014 16.341928056689678 C 19.023265980196797 16.341928056689678 19.02837576352015 16.32942193759429 19.01295381762449 16.302708957912753 C 18.91865715052569 16.139381083416772 18.112724890586506 15.546881487147742 17.238233851442022 14.928911397341812 L 17.238233851442022 14.928911397341812 C 17.377197659226482 14.987001167815102 17.513576339944986 15.048752256775444 17.6531769809321 15.10554284972107 C 17.658199837468143 15.108767644558828 17.664787376175685 15.113841523339595 17.669999203988482 15.116757350139865 C 17.773049020626395 15.151233269870335 17.830042757694528 15.174751690118395 17.93915099346508 15.178437574871426 C 17.94233326976557 15.178545288499173 17.945553340321407 15.178605759307734 17.948841440536878 15.178605759307734 C 17.973745965099905 15.178605759307734 18.00257920250659 15.175098452411234 18.048493553618805 15.161615351815042 C 18.100470103289197 15.146353086648238 18.187842862807837 15.102794262500725 18.236338561560473 15.01021723402036 C 18.28483615002588 14.91764209525276 18.275225070890315 14.822594267328872 18.25876945211083 14.771906501765924 C 18.242311943618578 14.721218736202974 18.220873152271164 14.694878974793022 18.205498449194693 14.67377749717461 C 18.143995857463278 14.58936875213181 18.102465639971687 14.565463885622796 18.0428867758376 14.519575990489324 C 17.983304132277976 14.473685260786702 17.91481149301954 14.423448191718805 17.838219544839546 14.370981261585245 C 17.6850337587668 14.266046456461739 17.50165414209476 14.147847757423074 17.344773967561526 14.042952636267687 C 17.18789568274106 13.938058459968683 17.045392442943054 13.83638718879467 17.016744397387587 13.810248681794459 C 17.00804982894427 13.80148608369151 16.99842930124487 13.792621441099115 16.988708618768793 13.785015347209884 C 15.691415134734154 12.872117785778505 14.394182121508075 11.96102017575818 13.097218392351367 11.048637561055948 C 13.088896097323248 11.042752050641536 13.077870568181206 11.047937422475586 13.06918166887619 11.04302983841836 C 11.735590582003198 9.174366581424614 10.481460027291279 7.217504760432826 9.023491825486246 5.41607134214063 C 8.27915569806047 4.496387349732927 7.424659237280828 2.887723530854533 6.037586916946315 2.3516642220268507 C 5.970716123670593 1.9556564868954267 5.819659099030447 1.224570552967246 5.283400661719887 0.7031084485192504 C 4.8273005330098036 0.25959351157317057 4.167590467595091 0.05615587828814758 3.427373441574297 0.0106028092539796 C 3.3119162433330986 0.0034978361875914604 3.1945714582512528 0.0 3.0756960058277225 0.0 Z"
     style="fill:#ffffff;stroke:none"
     id="path2" />
  <path
     d="M 34.086977599431506 3.588560355889225 L 34.086977599431506 4.909273240366594 L 24.360105679969802 4.909273240366594 L 24.360105679969802 3.588560355889225 ZM 24.395800622793516 2.25 L 24.395800622793516 3.249458399063955 L 24.02100372314453 3.249458399063955 L 24.02100372314453 5.248375197191864 L 34.426079556256774 5.248375197191864 L 34.426079556256774 3.249458399063955 L 34.122672542255216 3.249458399063955 L 34.122672542255216 2.25 L 33.78357058542994 2.25 L 33.78357058542994 3.249458399063955 L 32.9447394290727 3.249458399063955 L 32.9447394290727 2.25 L 32.60563747224743 2.25 L 32.60563747224743 3.249458399063955 L 31.76680631589018 3.249458399063955 L 31.76680631589018 2.25 L 31.42770435906491 2.25 L 31.42770435906491 3.249458399063955 L 30.60672067411952 3.249458399063955 L 30.60672067411952 2.25 L 30.249771245882393 2.25 L 30.249771245882393 3.249458399063955 L 29.428787560937 3.249458399063955 L 29.428787560937 2.25 L 29.08968560411173 2.25 L 29.08968560411173 3.249458399063955 L 28.250854447754485 3.249458399063955 L 28.250854447754485 2.25 L 27.91175249092921 2.25 L 27.91175249092921 3.249458399063955 L 27.072921334571966 3.249458399063955 L 27.072921334571966 2.25 L 26.733819377746695 2.25 L 26.733819377746695 3.249458399063955 L 25.912835692801302 3.249458399063955 L 25.912835692801302 2.25 L 25.57373373597603 2.25 L 25.57373373597603 3.249458399063955 L 24.734902579618783 3.249458399063955 L 24.734902579618783 2.25 Z"
     style="fill:#ffffff;stroke:none"
     id="path4" />
  <path
     d="M 25.020462122208485 6.194291040539042 L 24.80629246526621 6.658325297247307 L 24.12808855161567 8.175360367255095 L 24.02100372314453 8.389530024197372 L 24.46719050844094 8.603699681139647 L 24.574275336912077 8.371682552785515 L 25.038309593620344 7.318681739485991 L 25.270326721974474 7.729173581958687 L 25.484496378916752 8.157512895843238 L 25.698666035859027 7.729173581958687 L 25.948530635625016 7.2829867966622786 L 26.18054776397915 7.729173581958687 L 26.394717420921424 8.157512895843238 L 26.6088870778637 7.729173581958687 L 26.840904206217832 7.2829867966622786 L 27.09076880598382 7.729173581958687 L 27.304938462926096 8.157512895843238 L 27.519108119868374 7.729173581958687 L 27.751125248222504 7.3008342680741345 L 27.983142376576637 7.729173581958687 L 28.21515950493077 8.157512895843238 L 28.429329161873046 7.729173581958687 L 28.66134629022718 7.2829867966622786 L 28.89336341858131 7.729173581958687 L 29.125380546935443 8.157512895843238 L 29.33955020387772 7.729173581958687 L 29.57156733223185 7.2829867966622786 L 29.803584460585984 7.729173581958687 L 30.035601588940118 8.157512895843238 L 30.249771245882393 7.729173581958687 L 30.481788374236523 7.2829867966622786 L 30.713805502590656 7.729173581958687 L 30.927975159532934 8.157512895843238 L 31.159992287887064 7.729173581958687 L 31.392009416241198 7.2829867966622786 L 31.62402654459533 7.729173581958687 L 31.838196201537606 8.157512895843238 L 32.070213329891736 7.729173581958687 L 32.30223045824587 7.2829867966622786 L 32.55209505801186 7.747021053370544 L 32.76626471495413 8.139665424431382 L 32.99828184330827 7.747021053370544 L 33.248146443074255 7.265139325250422 L 33.87280794248923 8.389530024197372 L 33.997740242372224 8.603699681139647 L 34.426079556256774 8.371682552785515 L 34.318994727785636 8.157512895843238 L 33.46231610001653 6.6226303544235945 L 33.248146443074255 6.247833454774611 L 33.03397678613198 6.64047782583545 L 32.76626471495413 7.104512082543716 L 32.51640011518815 6.64047782583545 L 32.28438298683402 6.229985983362755 L 32.0880608013036 6.64047782583545 L 31.838196201537606 7.086664611131859 L 31.606179073183473 6.64047782583545 L 31.392009416241198 6.212138511950898 L 31.17783975929892 6.64047782583545 L 30.94582263094479 7.086664611131859 L 30.6959580311788 6.64047782583545 L 30.481788374236523 6.212138511950898 L 30.267618717294248 6.64047782583545 L 30.01775411752826 7.086664611131859 L 29.785736989174126 6.64047782583545 L 29.57156733223185 6.212138511950898 L 29.357397675289576 6.64047782583545 L 29.125380546935443 7.086664611131859 L 28.875515947169454 6.64047782583545 L 28.66134629022718 6.212138511950898 L 28.4471766332849 6.64047782583545 L 28.21515950493077 7.068817139720003 L 27.983142376576637 6.64047782583545 L 27.751125248222504 6.212138511950898 L 27.53695559128023 6.64047782583545 L 27.304938462926096 7.086664611131859 L 27.072921334571966 6.64047782583545 L 26.840904206217832 6.212138511950898 L 26.626734549275557 6.64047782583545 L 26.394717420921424 7.086664611131859 L 26.16270029256729 6.64047782583545 L 25.948530635625016 6.212138511950898 L 25.716513507270882 6.64047782583545 L 25.484496378916752 7.086664611131859 L 25.25247925056262 6.64047782583545 L 25.020462122208485 6.194291040539042 Z"
     style="fill:#ffffff;stroke:none"
     id="path6" />
  <path
     d="M 25.92651726322657 12.203280194587215 C 26.44471998539462 12.203280194587215 26.906374294868456 12.442562629867576 27.20700583439699 12.816873459572072 L 24.646166423428767 12.816873459572072 C 24.946765480411905 12.442562629867576 25.408334447545972 12.203280194587215 25.92651726322657 12.203280194587215 ZM 27.380271901142432 13.08131769498642 C 27.479093353971525 13.26943184931521 27.542544744698137 13.479159068880538 27.561664118871963 13.701659797229249 L 24.29150813895379 13.701659797229249 C 24.310624991190867 13.479159068880538 24.374090471137478 13.26943184931521 24.472900356683322 13.08131769498642 ZM 27.563316895343302 13.966104032643598 C 27.54710844144883 14.188131309398955 27.486899118110337 14.397822482081608 27.391290410951363 14.586446134886424 L 24.46188184687439 14.586446134886424 C 24.366284572495374 14.397822482081608 24.306061731575873 14.188131309398955 24.289855362482452 13.966104032643598 ZM 27.223533599110386 14.850890370300775 C 26.923446797920796 15.23721126809437 26.454366292602593 15.48555653529521 25.92651726322657 15.48555653529521 C 25.398702801197 15.48555653529521 24.929693851630972 15.237194051672795 24.62963865871537 14.850890370300775 ZM 25.92651726322657 11.938835959172867 C 24.876073037624515 11.938835959172867 24.021003721042916 12.794046098601216 24.02100372314453 13.84448723062752 C 24.02100372314453 14.894927824640648 24.876073104876163 15.75000077070956 25.92651726322657 15.75000077070956 C 26.97699175206968 15.75000077070956 27.832168534681227 14.894928362653822 27.832168534681227 13.84448723062752 C 27.832168534681227 12.794045560588042 26.976992021076267 11.938835959172867 25.92651726322657 11.938835959172867 Z"
     style="fill:#ffffff;stroke:none"
     id="path8" />
  <path
     d="M 31.61822579772299 9.814059719799108 C 32.01281084687987 9.818968552001095 32.411938072260476 9.817285915798584 32.80015573549994 9.89574908461681 C 32.800430660231996 9.895748277597049 32.80070531595746 9.895747874087167 32.800979164663154 9.895747874087167 C 32.99298611331433 9.895747874087167 32.92156594045711 10.10138888359396 32.87919471291792 10.216646638896822 C 32.84340069643413 10.385840214919673 32.65016196662047 10.341720982577309 32.52272197901274 10.357327130723192 C 32.232173882396275 10.366382161452647 31.941368077469324 10.371505391904577 31.65057141876634 10.371505391904577 C 31.290687950342914 10.371505391904577 30.930817932248843 10.36365873876452 30.57146615534488 10.345706315165671 C 30.55969483060186 10.347815057802201 30.548533612798455 10.348818452372203 30.537947531078338 10.348818452372203 C 30.40157813881735 10.348818452372203 30.360641119897466 10.182332427648838 30.339977378906912 10.067952978852961 C 30.26780600515512 9.881935461864282 30.51417555347677 9.887950449152557 30.636102385584515 9.863165661750433 C 30.961615420383247 9.822210081376037 31.290494534606765 9.815170044487497 31.61822579772299 9.814059719799108 ZM 29.200489282898257 11.389568891103659 C 29.396848287367703 11.444845171647327 29.593207359088797 11.500121183184406 29.789566363558244 11.555397463728074 C 29.70236095141975 11.73823182577122 29.69520846977779 11.949083492870761 29.74921107138303 12.142684305550695 C 29.50063587080184 12.04472259777408 29.250361759119613 11.950423414681266 29.002846780749955 11.85017595793379 C 28.91034111501229 11.694898899683043 29.0115938830017 11.471939246096685 29.167899706506198 11.397727322878202 L 29.200489282898257 11.389568891103659 ZM 33.92853184191064 11.389568891103659 C 34.10659591014417 11.438737377086493 34.21131587040931 11.672226486506375 34.13613606149032 11.83981194115135 C 34.04539475951892 11.89345400667819 33.93784754002302 11.92026562421106 33.84040797403203 11.963189929293382 C 33.6815036309604 12.025133000085944 33.522599825901935 12.087076339885094 33.3636954828303 12.149019410677656 C 33.416865710803314 11.954744736496957 33.414512441179085 11.743012879844319 33.32637028085255 11.558978479415977 C 33.52709062186752 11.502508616645205 33.72781150089567 11.446038753874433 33.92853184191064 11.389568891103659 ZM 31.690454604381134 10.625665236486277 C 32.16293104885529 10.625665236486277 32.606345097682045 10.900086119197596 32.86745392042255 11.286297262303643 C 32.98618993089703 11.467920825698107 33.11435785032953 11.6610939179045 33.136025523903264 11.881958548190273 C 33.10955016460431 12.139322799237892 32.99989474048506 12.381458049374789 32.98274207346975 12.641169382895136 C 32.92003636900267 13.127566649246795 32.961801524701045 13.631531659777702 32.81045545970806 14.103674267077231 C 32.63166883978149 14.533772220834358 32.42436187248059 14.976039494580169 32.06666973171594 15.28745066606826 C 31.92718605019572 15.41282871818562 31.740796497097037 15.485342133812953 31.554924512671995 15.485342133812953 C 31.453625509175417 15.485342133812953 31.352480377446682 15.46380492843398 31.259165489456183 15.41754870776344 C 30.887777281817584 15.23449349131226 30.66649098370648 14.858353954828438 30.482738233174867 14.50382855960751 C 30.352747121598075 14.25056316192802 30.239606179129353 13.98364191385936 30.21513438089136 13.696892728266365 C 30.150556928591012 13.174852089119701 30.18563094894435 12.636835148763263 30.025067104236697 12.129652819450254 C 29.98011327895776 11.982425245306263 29.953386263996542 11.82053815719651 30.028796880567285 11.677557659050159 C 30.219855311992234 11.224190635506105 30.580647484666994 10.812459913505183 31.06778989926501 10.677470794042767 C 31.261272080040015 10.617209821439541 31.46949420775034 10.644118819356954 31.669324136961908 10.625848429972116 C 31.67637372358429 10.62572603197497 31.683417392061756 10.625665236486277 31.690454604381134 10.625665236486277 ZM 31.61822579772299 9.54961548438476 C 31.173594225082873 9.556047700889675 30.721179081347387 9.552459287520627 30.287632059633342 9.663076948202047 C 30.12756076598673 9.703053479102575 30.03467911310481 9.866666782481957 30.06868813637969 10.025924734712376 C 30.090593073763273 10.231065391967103 30.154103780442348 10.475655596218168 30.353434029918315 10.575714748354653 C 30.42165154485244 10.61771743686946 30.656129253480035 10.596387097555994 30.489149870675867 10.673947076757923 C 30.252551852128498 10.841344495798493 30.059541374404027 11.065822153556038 29.91462644988961 11.315882606756432 C 29.683272849261677 11.253574763031718 29.454320737688718 11.180560995152321 29.221380031822527 11.125322106524266 C 29.21494990011866 11.124976164053214 29.208557462962816 11.124805882883559 29.202203998136284 11.124805882883559 C 28.99553005377364 11.124805882883559 28.830111220213706 11.304996986201544 28.75119576095311 11.48221260765926 C 28.670360321818823 11.679851209212048 28.677013518828613 11.961239900543262 28.878730781442584 12.083835886536502 C 29.194873904895168 12.214874644266882 29.51646637044139 12.333643204538404 29.83474225377486 12.459879387668716 C 29.94372031930771 13.041361874360787 29.852885672050572 13.655287631487338 30.064127264198163 14.218490044557434 C 30.262520832737735 14.690561096104785 30.497924327534943 15.176715180501677 30.904306929577093 15.505736061196611 C 31.090244955119275 15.659864461320302 31.33188039101728 15.750001036483832 31.57259232730166 15.750001036483832 C 31.69760157138806 15.750001036483832 31.822361715374775 15.725690911204705 31.93894217606657 15.673407866956055 C 32.35125099322324 15.49118710893816 32.61588649232104 15.097943595631303 32.82184842668627 14.713748387889225 C 32.98807943316504 14.396077971131742 33.13790426590779 14.061726455906197 33.171766815095985 13.700529159311216 C 33.228461029360425 13.290956946165444 33.200526847339454 12.872922323801667 33.27830203181109 12.46607729943624 C 33.601897587656744 12.337761695387396 33.92883043922236 12.216961597369853 34.250290082766185 12.083835886536502 C 34.458594795498755 11.956135769559017 34.45953900861959 11.662020376590583 34.36870732043491 11.461230362869543 C 34.28777884074891 11.296068926581217 34.1271598496909 11.125231989317577 33.93258846124459 11.125231989317577 C 33.916131176257025 11.125231989317577 33.89943124732786 11.126454086242918 33.88251611312899 11.129005344715278 C 33.65507749986689 11.190303606718485 33.428832737838476 11.256222863875447 33.20186085100504 11.319325891071724 C 33.045730503859915 11.04862375542092 32.833047977928345 10.807398823574879 32.57036277658726 10.636040551545376 C 32.74077199337736 10.614364538767445 32.951493192282136 10.616330438906207 33.05309402116948 10.450408790002644 C 33.16657014584577 10.27192291944049 33.22220070806468 10.044466551743632 33.1776701646506 9.835885434742778 C 33.092752048270846 9.645743374256895 32.858040034905855 9.635783270865035 32.68033213139369 9.604675483632372 C 32.328519667603985 9.558646304521371 31.972630677992882 9.55094545295154 31.61822579772299 9.54961548438476 Z"
     style="fill:#ffffff;stroke:none"
     id="path10" />
  <path
     d="M 21.39600372314453 0.375 L 21.39600372314453 17.625 "
     style="fill:none;stroke:#ffffff;stroke-width:1"
     id="path12" />
  <path
     d="M 21.39600372314453 0.375 L 24.02100372314453 0.375 "
     style="fill:none;stroke:#ffffff;stroke-width:1"
     id="path14" />
  <path
     d="M 21.39600372314453 17.625 L 24.02100372314453 17.625 "
     style="fill:none;stroke:#ffffff;stroke-width:1"
     id="path16" />
  <path
     d="M 24.02100372314453 0.375 L 34.42608070373535 0.375 "
     style="fill:none;stroke:#ffffff;stroke-width:1"
     id="path18" />
  <path
     d="M 24.02100372314453 17.625 L 34.42608070373535 17.625 "
     style="fill:none;stroke:#ffffff;stroke-width:1"
     id="path20" />
  <path
     d="M 34.42608070373535 0.375 L 52.05108070373535 0.375 "
     style="fill:none;stroke:#ffffff;stroke-width:1"
     id="path22" />
  <path
     d="M 34.42608070373535 17.625 L 52.05108070373535 17.625 "
     style="fill:none;stroke:#ffffff;stroke-width:1"
     id="path24" />
  <path
     d="M 36.188580703735354 0.375 L 36.188580703735354 17.625 "
     style="fill:none;stroke:#ffffff;stroke-width:1"
     id="path26" />
  <path
     d="M 39.71358070373535 0.375 L 39.71358070373535 17.625 "
     style="fill:none;stroke:#ffffff;stroke-width:1"
     id="path28" />
  <path
     d="M 41.47608070373535 0.375 L 41.47608070373535 17.625 "
     style="fill:none;stroke:#ffffff;stroke-width:1"
     id="path30" />
  <path
     d="M 43.23858070373535 2.1 L 52.05108070373535 2.1 "
     style="fill:none;stroke:#ffffff;stroke-width:1"
     id="path32" />
  <path
     d="M 43.23858070373535 5.550000000000001 L 52.05108070373535 5.550000000000001 "
     style="fill:none;stroke:#ffffff;stroke-width:1"
     id="path34" />
  <path
     d="M 43.23858070373535 2.1 L 43.23858070373535 5.550000000000001 "
     style="fill:none;stroke:#ffffff;stroke-width:1"
     id="path36" />
  <path
     d="M 45.001080703735354 3.825 L 52.05108070373535 3.825 "
     style="fill:none;stroke:#ffffff;stroke-width:1"
     id="path38" />
  <path
     d="M 43.23858070373535 7.275 L 52.05108070373535 7.275 "
     style="fill:none;stroke:#ffffff;stroke-width:1"
     id="path40" />
  <path
     d="M 43.23858070373535 10.725000000000001 L 52.05108070373535 10.725000000000001 "
     style="fill:none;stroke:#ffffff;stroke-width:1"
     id="path42" />
  <path
     d="M 43.23858070373535 7.275 L 43.23858070373535 10.725000000000001 "
     style="fill:none;stroke:#ffffff;stroke-width:1"
     id="path44" />
  <path
     d="M 45.001080703735354 9.000000000000002 L 52.05108070373535 9.000000000000002 "
     style="fill:none;stroke:#ffffff;stroke-width:1"
     id="path46" />
  <path
     d="M 43.23858070373535 12.450000000000001 L 52.05108070373535 12.450000000000001 "
     style="fill:none;stroke:#ffffff;stroke-width:1"
     id="path48" />
  <path
     d="M 43.23858070373535 15.900000000000002 L 52.05108070373535 15.900000000000002 "
     style="fill:none;stroke:#ffffff;stroke-width:1"
     id="path50" />
  <path
     d="M 43.23858070373535 12.450000000000001 L 43.23858070373535 15.900000000000002 "
     style="fill:none;stroke:#ffffff;stroke-width:1"
     id="path52" />
  <path
     d="M 45.001080703735354 14.175 L 52.05108070373535 14.175 "
     style="fill:none;stroke:#ffffff;stroke-width:1"
     id="path54" />
</svg>
