<?xml version="1.0" encoding="UTF-8" standalone="no"?>
<svg
   width="89.38614654541016"
   height="18.0"
   version="1.1"
   id="svg36"
   sodipodi:docname="menmaatresetepenptah.svg"
   inkscape:version="1.1.1 (3bf5ae0d25, 2021-09-20)"
   xmlns:inkscape="http://www.inkscape.org/namespaces/inkscape"
   xmlns:sodipodi="http://sodipodi.sourceforge.net/DTD/sodipodi-0.dtd"
   xmlns="http://www.w3.org/2000/svg"
   xmlns:svg="http://www.w3.org/2000/svg">
  <defs
     id="defs40" />
  <sodipodi:namedview
     id="namedview38"
     pagecolor="#ffffff"
     bordercolor="#666666"
     borderopacity="1.0"
     inkscape:pageshadow="2"
     inkscape:pageopacity="0.0"
     inkscape:pagecheckerboard="0"
     showgrid="false"
     inkscape:zoom="15.382697"
     inkscape:cx="44.693073"
     inkscape:cy="9.0036228"
     inkscape:window-width="1920"
     inkscape:window-height="1001"
     inkscape:window-x="-9"
     inkscape:window-y="-9"
     inkscape:window-maximized="1"
     inkscape:current-layer="svg36" />
  <path
     d="M 1.2190420140847793 0.0 C 0.970800706632417 0.0 0.7230423028937335 0.01893070358296025 0.48290982680079 0.048905678499779795 C 0.15187998957905166 0.13255188916498697 0.3219916247400915 0.5118521231009919 0.6158947927962716 0.5118521231009919 C 0.6355981423211179 0.5118521231009919 0.6558578408244597 0.5101473851910305 0.6765601864318946 0.5065345630073116 C 1.2976180869590601 0.5780119512905144 2.0622053316712337 0.6175539511807123 2.531371224901928 0.9695623988344474 C 3.1537543888207784 1.6479367557428735 2.8741262715941502 3.0576933712068692 2.94658764204448 3.7269297850416896 C 2.951782632395561 3.7629649381631523 2.953952713884158 6.430591781037886 2.953952713884158 7.782422252231933 C 2.352510186605274 7.494257626556917 1.67335422808609 7.349215125535265 1.0039192969246102 7.349215125535265 C 0.7063920462481148 7.349215125535265 0.41078504023889434 7.377865539465801 0.12477432975315178 7.4353349446232855 C -0.20149863151174055 7.606724672263251 0.18154647682350566 7.8266562324049085 0.4376378670454302 7.8266562324049085 C 0.4681373192956425 7.8266562324049085 0.4968360674978842 7.823536850015894 0.5223214865886322 7.816844331348357 C 1.429843884416301 7.914926816832979 2.4617098179841825 8.158078494744517 2.9226503683594482 9.002292523011262 C 2.9681809889039896 9.155077638776014 2.9396896697969415 9.207577525716367 2.870237404087557 9.207577525716367 C 2.717627362869183 9.207577525716367 2.3672466519332462 8.954092059534803 2.1698535251191053 8.954092059534803 C 2.1594948014573196 8.954092059534803 2.1495575210365625 8.954790250504107 2.140092081444407 8.956259682604495 C 1.7610785167129768 8.874396440250864 1.3638924072290621 8.831466124503471 0.9703996331480379 8.831466124503471 C 0.6822712691518855 8.831466124503471 0.39612316158451694 8.854483949517657 0.1205398348885778 8.90208807080806 C -0.19080937123302597 9.107627344268586 0.19133570335568265 9.296978982841198 0.44461121617263977 9.296978982841198 C 0.47243301123084086 9.296978982841198 0.4986997685303211 9.294694058069421 0.5223214865886322 9.289895224364907 C 1.44862453664532 9.401605077048192 2.473672484380784 9.652726246647584 2.9226503683594482 10.498359836231193 C 2.9277747669676573 11.438445880183364 2.9223641381582497 12.059730482053933 2.9475081443234266 12.924290385186742 C 2.9366830234749024 13.190445840004433 3.1097205941872907 13.32271720601211 3.2850258807391146 13.32271720601211 C 3.4589948410141766 13.32271720601211 3.635197450466691 13.192454719453337 3.636159394664339 12.93350313443563 C 3.6297524037925992 12.081649745019838 3.5689455193688686 11.333930766029841 3.680643079957625 10.507654766912083 C 3.905950499841305 9.580679119782916 5.51430012614692 9.438421656179063 6.5132119200872856 9.209440304841713 C 6.73117182826633 8.953197897458422 6.302254993763335 8.858046549715155 6.0257896324592775 8.858046549715155 C 5.984500135730289 8.858046549715155 5.946610983551 8.860169218839136 5.914784994799312 8.86419400179096 C 5.786745621336966 8.854375779085794 5.657882677541108 8.84931073373403 5.528823762638173 8.84931073373403 C 4.87588245171773 8.84931073373403 4.21792069818853 8.978947377079876 3.636159394664339 9.278489565451865 C 3.6124626948293947 8.719755569414783 4.162693019870619 8.398265319455419 4.5568162027996815 8.173701395689454 C 5.178845705598769 7.90617273831141 5.863655500797704 7.879904181098088 6.5132119200872856 7.736389411825166 C 6.745102634598536 7.535056141910107 6.380132787867637 7.365650007124583 6.127413645979344 7.365650007124583 C 6.0940901289112 7.365650007124583 6.06271789404902 7.368595192973972 6.034923712303174 7.3748016471035225 C 5.875700348626306 7.359480780481324 5.715556482670491 7.35166300836024 5.555429474444318 7.35166300836024 C 4.887519202007935 7.35166300836024 4.219896213380853 7.487670468699637 3.6205083975033348 7.782422252231933 C 3.6327889023442115 5.672151988401518 3.6669749732456607 3.6298724602408705 3.6064121746990256 1.633623314068084 C 3.557780785508615 1.016382811297887 3.202148013782708 0.4498605441665941 2.6039100355477967 0.2652764822581205 C 2.1742288083663857 0.06980961445750675 1.6957449806778964 0.0 1.2190420140847793 0.0 Z"
     style="fill:#ffffff;stroke:none"
     id="path2" />
  <path
     d="M 3.29314921521244 15.21501288860129 C 4.074491287174412 15.21501288860129 5.052497037940845 15.616391919330065 5.5257419749406465 16.089636856329868 C 5.939782214238027 16.503676744424546 5.993910276899555 17.05261639954012 6.009086799211701 17.562687749346416 L 0.6002280514165623 17.562687749346416 C 0.615404749330059 17.05261639954012 0.6695328119915868 16.503676744424546 1.0835728756876173 16.089636856329868 C 1.5568179882887687 15.616391919330065 2.5118074944531683 15.21501288860129 3.29314921521244 15.21501288860129 ZM 3.29314921521244 14.777700904737003 C 2.3662267752924526 14.777700904737003 1.3688759017560481 15.205906904973462 0.7843594130436309 15.79042339368588 C 0.1848327417701466 16.38995028583294 0.11688322714550736 17.179222163577567 0.11688322714550736 17.769835531176867 L 0.11688322714550736 17.999999733210704 L 6.469415203279373 17.999999733210704 L 6.469415203279373 17.769835531176867 C 6.469415203279373 17.179222163577567 6.42448232973169 16.38995028583294 5.824955437584633 15.79042339368588 C 5.240439300074916 15.205906904973462 4.220071830733778 14.777700904737003 3.29314921521244 14.777700904737003 Z"
     style="fill:#ffffff;stroke:none"
     id="path4" />
  <path
     d="M 19.59558827849137 2.2331113889984504 Q 20.011497239301697 2.2331113889984504 20.406868373464476 2.6849636002931274 Q 17.14505908393548 6.568070899826414 16.329606932707488 7.024335296803508 Q 15.721254175199014 7.364724151693918 15.258781670883675 7.364724151693918 Q 15.101344397401952 7.364724151693918 14.960813057159163 7.325276517725049 Q 14.407469963604743 7.169951972435412 13.776464255096982 7.150536917736989 Q 13.760688966903167 7.150051524254103 13.744834947749503 7.150051524254103 Q 13.12652956999073 7.150051524254103 12.38825395561615 7.88832679632016 L 12.291175943655867 7.88832679632016 Q 12.815395428237089 6.665148911786697 13.75704954270708 6.140928742588433 Q 14.698701945634467 5.6167096003157315 19.2807685008913 2.2966530928403377 Q 19.439622247033235 2.2331113889984504 19.59558827849137 2.2331113889984504 ZM 13.822576293662692 0.46382689862325743 Q 13.87160069312572 0.46382689862325743 13.922081273037408 0.4715931515608784 L 13.922081273037408 5.461385397334616 Q 12.38825395561615 6.354500505824466 11.805788280014095 7.965988384347936 Q 12.698902703886905 1.79184917642032 13.058089773520756 1.0928900062739073 Q 13.381357725420997 0.46382689862325743 13.822576293662692 0.46382689862325743 ZM 9.823471846940608 8.280349468529765 Q 9.763159224955167 8.280349468529765 9.708909828226425 8.383422671928184 Q 9.611832586460313 8.567870141573977 9.883650198408658 8.897933602234632 Q 10.038974144658383 8.4902085535462 9.922481420308197 8.344591877914295 Q 9.871087133376625 8.280349468529765 9.823471846940608 8.280349468529765 ZM 9.850515161454094 8.003054920244196 Q 9.964842185368557 8.003054920244196 10.097221020296256 8.179560147583969 Q 10.388454200405805 8.567870141573977 9.922481420308197 9.732803546629212 Q 9.398261764572714 8.723195371480656 9.602124802379711 8.257221735611745 Q 9.713322784103013 8.003054920244196 9.850515161454094 8.003054920244196 ZM 14.931688078951879 9.926958201315696 L 14.931688078951879 10.218190867962463 Q 14.718118369566973 10.198775813264039 14.601625302908268 10.082282061988291 Q 14.640456096922156 10.024035528658937 14.756948478963821 9.926958201315696 ZM 15.378245975505326 10.587085807254049 L 17.183890562566404 10.839488364503968 L 17.552786186475032 11.499616655059363 Q 16.931489374550573 11.32487637045426 16.183991626309666 11.033644388424536 Q 15.43649319345172 10.742411037160727 15.378245975505326 10.587085807254049 ZM 11.39806151978306 10.315268879922746 L 11.747541404376221 10.490008479910806 L 11.864034128726408 11.32487637045426 L 11.553386065072697 12.276239381507548 L 11.067997716813883 12.276239381507548 L 11.39806151978306 11.32487637045426 L 11.39806151978306 10.315268879922746 ZM 12.232929752635034 10.606502231186555 L 12.562994240221252 10.703579558529796 L 12.679486964571439 11.32487637045426 L 12.368838216300684 12.276239381507548 L 11.883450552658914 12.276239381507548 L 12.21351435562809 11.32487637045426 L 12.232929752635034 10.606502231186555 ZM 13.37844604914072 10.72299461322822 L 13.494939115799427 11.32487637045426 L 13.184290367528675 12.276239381507548 L 12.698902703886905 12.276239381507548 L 13.028966164547558 11.32487637045426 L 13.028966164547558 10.742411037160727 L 13.37844604914072 10.72299461322822 ZM 12.635970993829574 8.307902566008263 Q 12.94616549869286 8.307902566008263 13.300783776495901 8.383422671928184 Q 14.349222745658347 8.606700935587865 14.621040357606692 9.441570195365404 L 15.43649319345172 9.441570195365404 L 15.747140914796912 8.936765765482605 Q 19.863233149567787 9.888126722684765 20.387455372617175 12.373316708850789 Q 19.261352076958786 11.752018527692242 18.018759137726903 11.538448133690293 L 17.475123229213175 10.451177001279875 L 15.319998757558931 10.159943650016068 L 15.378245975505326 9.635724850051886 L 14.640456096922156 9.635724850051886 Q 13.825002918768604 10.30727392210448 12.976631641685719 10.30727392210448 Q 12.794837747695311 10.30727392210448 12.611532561584353 10.276437401291815 Q 11.572801804388162 10.101698485920798 11.252445186459676 9.567771131681843 Q 10.93208856853119 9.033843092825846 11.592216516778063 8.596994435164216 Q 12.029066885982298 8.307902566008263 12.635970993829574 8.307902566008263 ZM 14.014203342229544 0.0 Q 13.306659502260182 0.0 12.902764885922597 0.4910087625106481 Q 12.407668668006053 1.0928900062739073 11.980527880002157 3.655740467965014 L 11.300984192439817 8.101897190322108 Q 10.97091987600786 8.451378444149354 10.7961802760198 8.4902085535462 L 10.563193800393865 8.4902085535462 Q 10.543778232232661 8.004819862978866 10.194298176485239 7.597094129673393 Q 9.883650198408658 4.626517849099683 10.466115788433582 2.3937311048006213 L 10.233129483961907 1.9471738928642175 Q 9.398261764572714 4.471192276884482 9.825403408347913 7.616509184371816 L 9.767156618287169 7.616509184371816 Q 8.427485014569381 4.607101425167175 9.378846196411509 1.9471738928642175 L 9.145859806362706 1.5976940082710553 L 9.145859806362706 1.5976940082710553 Q 7.90326545510817 4.4323618251791155 9.41767741831105 7.752417990345988 Q 8.99053577453585 8.684363892849726 9.330307190431368 9.286245650075767 Q 9.670079376521057 9.888126722684765 9.747741050125965 10.412346207265987 L 9.883650198408658 10.509424219226272 Q 10.407869083949969 9.732803546629212 10.485531356594787 9.16975258341706 L 10.679686695898312 9.16975258341706 Q 10.699102264059515 9.616309110736422 10.93208856853119 10.101698485920798 L 11.067997716813883 11.32487637045426 L 10.737933400381925 12.276239381507548 L 9.048781837190987 12.276239381507548 L 9.048781837190987 12.742211648142375 L 13.922081273037408 12.742211648142375 L 13.922081273037408 12.276239381507548 L 13.51435451280637 12.276239381507548 L 13.825003261077125 11.32487637045426 L 13.84441900039259 10.606502231186555 Q 14.19389820036871 10.490008479910806 14.368638484973811 10.33468393462117 Q 14.621040357606692 10.567671437172667 14.931688078951879 10.567671437172667 Q 14.912273708870499 10.76182609185915 15.009351720830782 10.89773421321628 Q 15.785971708810798 11.499616655059363 17.78577231979245 11.946173182378724 L 18.465315665046262 13.266429763489512 Q 18.465315665046262 12.942390932799807 18.666445882775246 12.942390932799807 Q 18.73044046079052 12.942390932799807 18.81479623425647 12.97519504299162 L 18.27116032574274 12.00442040032512 L 18.27116032574274 12.00442040032512 Q 19.39726088293296 12.256823642192083 19.97972758546058 12.645134320799134 Q 20.290376676039852 12.97519504299162 19.94089679144669 13.44116867886053 Q 20.71751746404375 13.11110658743396 20.814596160621075 12.509224145590878 Q 20.503945700807716 9.577479001339576 15.552985575493386 8.431961335599805 L 15.203506375517266 9.014428722744466 L 14.892857284937993 9.014428722744466 Q 14.640456096922156 8.198975202282393 12.893057700881908 7.88832679632016 Q 13.283009064230479 7.599008318923254 13.852256838599681 7.599008318923254 Q 14.161630487629424 7.599008318923254 14.523962345646407 7.684463587358902 Q 14.891470935427632 7.771140212597752 15.241644337084495 7.771140212597752 Q 15.87195550160299 7.771140212597752 16.446100683983236 7.490308248055377 Q 17.339214423239 7.053458905776705 20.989335075992095 2.665548716748965 Q 20.31660024722249 1.8173165880798985 19.56675152405883 1.8173165880798985 Q 19.321111613951302 1.8173165880798985 19.067196737655266 1.9083427565418083 L 14.349222745658347 5.286645797346556 L 14.349222745658347 0.025035944973045218 Q 14.173971736739798 0.0 14.014203342229544 0.0 Z"
     style="fill:#ffffff;stroke:none"
     id="path6" />
  <path
     d="M 14.787816725437374 15.285542133461169 C 15.549371373096287 15.285542133461169 16.502609207919512 15.676756272943992 16.963869255453197 16.13801632047768 C 17.367423959429352 16.541570682145313 17.42018123331472 17.07660848522664 17.434973411436005 17.573762319663377 L 12.163093570676018 17.573762319663377 C 12.177885919951562 17.07660848522664 12.230643193836931 16.541570682145313 12.634197726658826 16.13801632047768 C 13.095457945346773 15.676756272943992 14.02626242008698 15.285542133461169 14.787816725437374 15.285542133461169 ZM 14.787816725437374 14.859305039952915 C 13.884368520776045 14.859305039952915 12.912275476840618 15.276666758126694 12.34256182057423 15.846380414393082 C 11.758218113396996 16.430724336850286 11.69198941469321 17.200007968606588 11.69198941469321 17.775664100798863 L 11.69198941469321 17.99999941317163 L 17.883644036181536 17.99999941317163 L 17.883644036181536 17.775664100798863 C 17.883644036181536 17.200007968606588 17.839849083994995 16.430724336850286 17.25550516153779 15.846380414393082 C 16.685791847579925 15.276666758126694 15.691265101252963 14.859305039952915 14.787816725437374 14.859305039952915 Z"
     style="fill:#ffffff;stroke:none"
     id="path8" />
  <path
     d="M 37.38603436883218 4.629696988831469 C 36.87513891282361 4.670030345159319 36.59280215991122 4.925477892129301 36.53902392906072 5.39603908663851 C 36.606246853399576 5.906934904715683 36.88858360631196 6.175827326208321 37.38603436883218 6.202716713185026 C 37.883485131352394 6.175827326208321 38.14565502506655 5.906934904715683 38.17254368790605 5.39603908663851 C 38.1322103315782 4.925477892129301 37.87004043786404 4.670030345159319 37.38603436883218 4.629696988831469 ZM 37.446534584358254 2.9356750230827373 C 37.809539498200756 2.9356750230827373 38.14565538713516 3.0028982189730478 38.45488152702425 3.1373446107536687 C 38.764107304844735 3.2717910025342896 39.036360447123705 3.4566544517933266 39.27164095386116 3.691935139565082 C 39.506921822667216 3.9272158273368376 39.691785362443404 4.196108067795173 39.82623157318972 4.498611498871483 C 39.96067742186744 4.801115110982096 40.02790016517199 5.1204246804703 40.02790016517199 5.456540388370399 C 40.02790016517199 5.806100246655944 39.96067742186744 6.132132162888325 39.82623157318972 6.4346361370675424 C 39.691785362443404 6.737139749178155 39.506921822667216 7.002671087815855 39.27164095386116 7.2312294288434344 C 39.036360447123705 7.4597877698710136 38.764107304844735 7.637928781868723 38.45488152702425 7.765653188973772 C 38.14565538713516 7.893376871941612 37.809539498200756 7.95723853239123 37.446534584358254 7.95723853239123 C 37.08353021361866 7.95723853239123 36.74405396596653 7.893376871941612 36.428105660367564 7.765653188973772 C 36.11215681166569 7.637928781868723 35.83990330731812 7.4597877698710136 35.61134523784199 7.2312294288434344 C 35.382786534745804 7.002671087815855 35.20128434937601 6.737139749178155 35.06683859121544 6.4346361370675424 C 34.932392244693396 6.132132162888325 34.86516904880309 5.806100246655944 34.86516904880309 5.456540388370399 C 34.86516904880309 5.1204246804703 34.932392244693396 4.801115110982096 35.06683859121544 4.498611498871483 C 35.20128434937601 4.196108067795173 35.382786534745804 3.9272158273368376 35.61134523784199 3.691935139565082 C 35.83990330731812 3.4566544517933266 36.11215681166569 3.2717910025342896 36.428105660367564 3.1373446107536687 C 36.74405396596653 3.0028982189730478 37.08353021361866 2.9356750230827373 37.446534584358254 2.9356750230827373 ZM 37.40620159009901 2.25 C 36.962528877394995 2.25 36.54574573270199 2.334028904345737 36.155851793951385 2.502086713037211 C 35.765958036235084 2.6701445443579725 35.42984269040359 2.8987028853855517 35.14750584697405 3.187761758749236 C 34.86516904880309 3.4768212204744025 34.639971745371874 3.812936475788746 34.471913936680394 4.196107705726568 C 34.30385672766505 4.5792794787672975 34.2198281288147 4.992701359571065 34.2198281288147 5.436373167103568 C 34.2198281288147 5.8800451556703734 34.30385672766505 6.293467036474141 34.471913936680394 6.67663880951487 C 34.639971745371874 7.059810582555599 34.86516904880309 7.392565026566459 35.14750584697405 7.674901779478844 C 35.42984269040359 7.95723853239123 35.765958036235084 8.182436152632476 36.155851793951385 8.350493916065375 C 36.54574573270199 8.518550955361064 36.962528877394995 8.602579837077514 37.40620159009901 8.602579837077514 C 37.849873578665814 8.602579837077514 38.26329509740098 8.518550955361064 38.6464661463045 8.350493916065375 C 39.02963791934523 8.182436152632476 39.36575344621102 7.95723853239123 39.65481308897049 7.674901779478844 C 39.94387200759275 7.392565026566459 40.17243034862033 7.059810582555599 40.340487749984625 6.67663880951487 C 40.50854623755473 6.293467036474141 40.59257511927118 5.8800451556703734 40.59257511927118 5.436373167103568 C 40.59257511927118 4.992701359571065 40.50854623755473 4.5792794787672975 40.340487749984625 4.196107705726568 C 40.17243034862033 3.812936475788746 39.94387200759275 3.4768212204744025 39.65481308897049 3.187761758749236 C 39.36575344621102 2.8987028853855517 39.02963791934523 2.6701445443579725 38.6464661463045 2.502086713037211 C 38.26329509740098 2.334028904345737 37.849873578665814 2.25 37.40620159009901 2.25 Z"
     style="fill:#ffffff;stroke:none"
     id="path10" />
  <path
     d="M 43.87222583964467 13.54324686806649 L 43.87222583964467 15.299157944507897 L 30.940178046934307 15.299157944507897 L 30.940178046934307 13.54324686806649 ZM 30.987635103054345 11.763607263565063 L 30.987635103054345 13.092404834926128 L 30.489336013793945 13.092404834926128 L 30.489336013793945 15.749999977648258 L 44.32306787278503 15.749999977648258 L 44.32306787278503 13.092404834926128 L 43.91968289576471 13.092404834926128 L 43.91968289576471 11.763607263565063 L 43.46884086262435 11.763607263565063 L 43.46884086262435 13.092404834926128 L 42.35360004380345 13.092404834926128 L 42.35360004380345 11.763607263565063 L 41.90275801066309 11.763607263565063 L 41.90275801066309 13.092404834926128 L 40.7875171918422 13.092404834926128 L 40.7875171918422 11.763607263565063 L 40.33667515870184 11.763607263565063 L 40.33667515870184 13.092404834926128 L 39.24516286794096 13.092404834926128 L 39.24516286794096 11.763607263565063 L 38.77059230674058 11.763607263565063 L 38.77059230674058 13.092404834926128 L 37.67908001597971 13.092404834926128 L 37.67908001597971 11.763607263565063 L 37.228237982839346 11.763607263565063 L 37.228237982839346 13.092404834926128 L 36.11299716401845 13.092404834926128 L 36.11299716401845 11.763607263565063 L 35.66215513087809 11.763607263565063 L 35.66215513087809 13.092404834926128 L 34.5469143120572 13.092404834926128 L 34.5469143120572 11.763607263565063 L 34.096072278916836 11.763607263565063 L 34.096072278916836 13.092404834926128 L 33.00455998815596 13.092404834926128 L 33.00455998815596 11.763607263565063 L 32.5537179550156 11.763607263565063 L 32.5537179550156 13.092404834926128 L 31.438477136194706 13.092404834926128 L 31.438477136194706 11.763607263565063 Z"
     style="fill:#ffffff;stroke:none"
     id="path12" />
  <path
     d="M 50.983309932938134 2.522939998783899 Q 51.107213976737896 2.522939998783899 51.18818122742735 2.677513519485659 Q 51.314363123185515 2.8794049377130113 51.01152521238519 3.018205363292177 Q 50.69606957760771 3.1696243186923416 50.79701602541159 3.535553177371755 L 51.099853219906265 4.784757902966305 Q 50.784397585128794 4.822612686585449 50.56988768184954 5.087595097460987 L 50.56988768184954 3.535553177371755 Q 50.56988768184954 2.7406044673647427 50.784397585128794 2.601804041785577 Q 50.89480714683911 2.522939998783899 50.983309932938134 2.522939998783899 ZM 50.27966821133201 5.3570694610507275 L 50.27966821133201 5.826788321877375 L 50.27966821133201 5.826788321877375 L 50.27966821133201 5.826788321877375 L 50.27966821133201 5.826788321877375 L 50.27966821133201 5.826788321877375 L 50.27966821133201 5.826788321877375 L 49.2449732994785 5.718506187939527 Q 49.270210538196906 5.59232429218136 49.62982999765851 5.459833176281796 Q 49.894806140859636 5.362210028528558 50.279667853179184 5.3570694610507275 ZM 50.721066137628625 5.384656540445098 Q 51.18615050091726 5.476404907432025 51.41530957098939 5.945634531501567 L 50.59512384610948 5.859801058397199 L 50.59512384610948 5.859801058397199 L 50.59512384610948 5.680652299702441 Q 50.59512384610948 5.59232429218136 50.69606957760771 5.415668993444844 Q 50.70803582159864 5.3999632758221985 50.72106577947581 5.384656540445098 ZM 52.08179007191937 5.912406545134729 Q 52.00794540643382 5.912406545134729 51.88218362393779 6.134908270520876 Q 52.197639616868095 6.021344098739856 52.12192969147698 5.933016091218774 Q 52.10426416160333 5.912406545134729 52.08179007191937 5.912406545134729 ZM 49.144027567980274 5.920398367241628 L 50.27966821133201 6.036404424974286 L 50.27966821133201 6.036404424974286 L 50.27966821133201 6.143626784706958 L 50.27966821133201 6.143626784706958 Q 50.261417459744514 6.144852741822308 50.24181360678928 6.147525994498022 Q 50.02730370351003 6.147525994498022 49.989448740814474 6.399890860472826 Q 49.96421257655453 6.197999397476371 49.756011893416684 6.103362886119541 Q 49.66137502390703 6.060345866776736 49.50807845232888 6.060345866776736 Q 49.32412364089358 6.060345866776736 49.055699918612014 6.122289830238083 Q 49.06831835889481 5.996107934479916 49.144027567980274 5.920398367241628 ZM 49.28282826217406 6.551309636796579 Q 49.40901087423787 6.551309636796579 49.4973381654533 6.601783039774928 Q 49.44686476247495 6.690109972837539 49.33330130699958 6.753201099793034 Q 49.383773993672285 6.690109972837539 49.37746548983653 6.627019204034868 Q 49.371156269695135 6.563928077079373 49.28282826217406 6.551309636796579 ZM 49.18188253067583 6.563928077079373 L 49.18188253067583 6.563928077079373 Q 49.144027567980274 6.639637644317661 49.15033678812167 6.6838007526961425 Q 49.15664636641589 6.727964935533095 49.21973713521856 6.765819540075827 Q 49.144027567980274 6.765819540075827 49.06831835889481 6.727964935533095 Q 49.0809367991776 6.639637644317661 49.18188253067583 6.563928077079373 ZM 49.2449732994785 6.500837308276701 Q 49.055699918612014 6.500837308276701 49.005227231939315 6.765819540075827 Q 49.10617296343754 6.828910667031322 49.270210538196906 6.828910667031322 Q 49.44686476247495 6.828910667031322 49.54781121027883 6.639637644317661 L 49.8632668450563 6.639637644317661 L 49.8632668450563 6.538691196513786 L 49.54781121027883 6.563928077079373 Q 49.421628598215015 6.500837308276701 49.2449732994785 6.500837308276701 ZM 52.085633051717124 5.834078164449922 Q 52.14028359107769 5.834078164449922 52.1850211765853 5.882543762698896 Q 52.323821870779085 6.033961822717002 51.945274392740465 6.210617837759164 Q 52.33643959475623 6.803674502771384 52.34905803503902 7.62385915319282 L 52.248111945387976 7.636477593475613 Q 52.248111945387976 6.816292943054177 51.907419788197735 6.261090166279043 L 51.88218362393779 6.286327404997453 Q 52.13454813175977 6.816292943054177 52.13454813175977 8.040260519468521 L 52.033602042108726 8.040260519468521 Q 51.945274392740465 6.816292943054177 51.88218362393779 6.52607347253664 L 51.76861909400395 6.109672106260938 Q 51.9553112674704 5.834078164449922 52.085633051717124 5.834078164449922 ZM 49.41934573211708 6.220386456024185 Q 49.54292743837556 6.220386456024185 49.64875694177706 6.254780946137647 Q 49.90112180775186 6.336799733517331 49.90112180775186 6.601783039774928 L 50.06515830805276 6.601783039774928 Q 50.10301291259549 6.374654338060063 50.216577442529335 6.374654338060063 Q 50.33014161431036 6.374654338060063 50.267049771049216 6.601783039774928 L 49.91374024803466 7.156984742091591 L 49.91374024803466 8.343098072116028 L 49.87588456903345 8.355716512398821 Q 49.81279380023078 8.267388863030565 49.74970267327529 8.134897747131 Q 49.68661190447261 8.002406631231437 49.64875694177706 7.775278287669396 L 49.270210538196906 7.762659847386603 Q 49.06831835889481 7.762659847386603 49.06831835889481 7.661714115888375 Q 49.06831835889481 7.472440376869066 49.257591739761295 7.447204212609128 Q 49.257591739761295 7.3462584811109 49.19450097095862 7.3462584811109 L 48.94213646313664 7.333640040828107 Q 49.01784495591646 7.169603182374384 48.790717328660065 7.106511339113242 Q 48.790717328660065 7.005565607615014 49.005227231939315 6.6522553682948065 L 49.005227231939315 6.437745465015559 L 49.043081836482045 6.500837308276701 Q 49.19450097095862 6.4125093007556195 49.29544670245685 6.4125093007556195 Q 49.39639243395508 6.4125093007556195 49.585666172974385 6.488218867993908 L 49.81279380023078 6.488218867993908 L 49.81279380023078 6.399890860472826 L 49.585666172974385 6.399890860472826 Q 49.421628598215015 6.286327404997453 49.29544670245685 6.286327404997453 Q 49.15664636641589 6.286327404997453 49.005227231939315 6.399890860472826 Q 49.005227231939315 6.298945128974599 49.043081836482045 6.286327404997453 Q 49.24823069940958 6.220386456024185 49.41934573211708 6.220386456024185 ZM 50.59512384610948 6.0686285089764365 L 51.49101842192203 6.160144434780816 Q 51.516255302487615 6.223235561736311 51.629819474268636 6.589164599492135 Q 51.79385597456954 7.06865673457051 51.75600137002681 10.046559574372868 L 50.16610403955099 10.059177298350013 L 50.16610403955099 7.194839346634323 Q 50.25443204707207 7.06865673457051 50.39323238311303 6.841529107314115 Q 50.53203271915399 6.614400763752075 50.52572349901259 6.36203589777727 Q 50.52105999109586 6.175505251234288 50.36818496539115 6.147525994498022 L 50.59512384610948 6.147525994498022 L 50.59512384610948 6.0686285089764365 ZM 49.91374024803466 8.885682408608368 L 49.91374024803466 10.33677868673758 L 51.26389043651281 10.33677868673758 Q 51.25127199623002 11.106490650486315 51.11878016402481 12.20427704744814 Q 50.98628976443089 13.302062728104321 50.784397585128794 14.065465471711658 Q 50.58250612213234 14.828868931624644 51.06199825721071 15.308361066703018 L 47.32700261024806 15.308361066703018 Q 47.46580312536543 15.16956108881488 47.509967129125975 14.841487371907437 Q 47.55413113288651 14.513412222388697 47.21343852800525 13.74370097494561 L 46.26707162367282 10.879361590618625 Q 46.203979914718985 10.614380075125146 46.42479903813963 10.469270160789966 Q 46.498405442459244 10.420900189344907 46.571310807395676 10.420900189344907 Q 46.71712153726853 10.420900189344907 46.860128109608624 10.614380075125146 L 48.13456917853953 12.519732324072793 L 48.626679932977105 13.125407429367804 Q 48.75286236596451 13.213735078736063 48.84960230885463 13.213735078736063 Q 49.043081836482045 13.213735078736063 49.11879140372033 12.860424481263031 Q 49.57304737453877 11.825729569409523 49.459483202757745 10.33677868673758 Q 49.01784495591646 9.857285835353558 49.91374024803466 8.885682408608368 ZM 50.99839318095328 2.25 Q 50.82884399239078 2.25 50.62036072667507 2.3872941161217773 Q 50.27966821133201 2.614421788147274 50.27966821133201 3.7248261105472102 L 50.27966821133201 5.0964239227167525 L 50.27966821133201 5.0964239227167525 Q 49.91986430316622 5.114504730789426 49.673993106036995 5.1696137057642595 Q 49.30806514273964 5.251632493143945 49.0809367991776 5.522923945084468 Q 48.85380845561556 5.794215755177815 48.85380845561556 6.273708964714659 Q 48.790717328660065 6.475600069558291 48.828571933202795 6.6522553682948065 Q 48.626679932977105 7.030802846333424 48.626679932977105 7.169603182374384 Q 48.626679932977105 7.245312749612673 48.80333505263721 7.245312749612673 L 48.77809888837727 7.358876921393693 Q 48.790717328660065 7.4219676901963645 48.85380845561556 7.434585414173511 Q 48.80333505263721 7.4850588171518595 48.828571933202795 7.5481499441073545 L 48.91689922441823 7.586004548650087 Q 48.828571933202795 7.926696347687502 49.207118694935765 7.926696347687502 L 49.459483202757745 7.926696347687502 Q 49.484720441476156 8.166443131532336 49.74970267327529 8.582844855960863 Q 49.737084232992494 8.595463296243656 49.50995660573609 8.891991628749764 Q 49.28282826217406 9.188519961255874 49.055699918612014 9.592302887248785 Q 48.828571933202795 9.996086529547341 49.144027567980274 10.387251731563106 Q 49.23235485919571 11.674311151238594 48.75286254504092 12.746860667634834 L 47.099874266686015 10.324160246454786 L 47.08725654270887 10.324160246454786 Q 46.87261609272541 10.040835575945312 46.55866608764945 10.040835575945312 Q 46.41120494479611 10.040835575945312 46.24183460879993 10.103341123034141 Q 45.71186909312775 10.298924082194848 45.8506695382934 10.765798493296076 Q 47.162965214565105 14.639595192605334 47.12511123678981 14.904578140710107 Q 47.08725654270887 15.16956108881488 46.752873157969 15.371451835505688 Q 46.418489817998235 15.573344014807791 46.58252725845029 15.749999313544308 L 51.59196379526743 15.749999313544308 Q 51.84432901939506 15.636434783610463 51.59196379526743 15.396688716071276 Q 50.935816361452545 14.601739871756955 51.16925356700316 13.8698832288566 Q 51.4026911307066 13.138025869650598 51.57934607129029 10.33677868673758 L 52.04622048239152 10.33677868673758 L 52.04622048239152 9.503975237880526 Q 52.05883963897996 8.734263274131791 52.04622048239152 8.191679653945098 Q 52.13454813175977 8.179060855509483 52.26073038567077 8.128588526989603 L 52.248111945387976 7.750041048950986 L 52.47524028895001 7.73742332497384 Q 52.47524028895001 6.803674502771384 52.071457362957105 6.261090166279043 Q 52.51309489349275 6.0970536659781445 52.26073038567077 5.806834195460608 Q 52.16819658954158 5.699689913043491 52.07002403535686 5.699689913043491 Q 51.913840035714465 5.699689913043491 51.743382929744016 5.97087105391433 Q 51.404066079396586 5.345813434109095 51.00155961006716 5.163083147177849 L 51.00155961006716 5.163083147177849 Q 51.169920805713616 5.06909865303647 51.4026911307066 4.999267806245553 L 51.04938053323357 3.4976983937526107 Q 51.01152521238519 3.3210432740925064 51.276508518642785 3.1570057888713423 Q 51.629819474268636 2.9172596765630523 51.41530957098939 2.551330795499088 Q 51.24957721706851 2.25 50.99839318095328 2.25 Z"
     style="fill:#ffffff;stroke:none"
     id="path14" />
  <path
     d="M 54.65387558937073 7.043162668123841 L 54.65387558937073 8.360095975454897 L 57.56062018620591 8.360095975454897 L 57.56062018620591 7.043162668123841 L 56.99113551276545 7.043162668123841 C 56.82503581634532 7.335814393507874 56.635207682382315 7.5256426179880265 56.421650929842144 7.612647341564298 C 56.31487255357206 7.6561498843867355 56.20858849146417 7.67790079372935 56.102798924552786 7.67790079372935 C 55.997009267124255 7.67790079372935 55.89171401437507 7.6561498843867355 55.78691316630524 7.612647341564298 C 55.57731092706267 7.5256426179880265 55.38945993660203 7.335814393507874 55.22336024583922 7.043162668123841 ZM 56.416905206126714 2.25 L 56.416905206126714 4.4330245815217495 L 55.75725214416161 4.4330245815217495 L 55.75725214416161 7.102483988273889 L 56.46910798596218 7.102483988273889 L 56.46910798596218 5.429622760042548 L 57.29486074434742 5.429622760042548 L 57.29486074434742 3.139819802250713 L 58.315187450928235 3.139819802250713 C 58.49710628674458 4.563531485851854 58.99145050063878 5.6214282411715 59.798220454679424 6.313510068209652 C 60.60499040872007 7.005592257316408 61.60158858724087 7.406999977687931 62.78801499024182 7.517733229324222 C 63.97444139324277 7.628466480960512 64.7535283059258 7.7846791699994355 65.12527500415369 7.986372020578202 C 65.49702170238159 8.188064147019759 65.68289541356414 8.391734254247325 65.68289541356414 8.597381256055087 L 67.1303356252253 8.597381256055087 C 66.90886912195272 8.067444250070864 66.61226252120248 7.66405927305054 66.24051582297459 7.387226324994117 C 65.86876912474669 7.110393376937694 65.17866346815153 6.936384291853756 64.17020102560072 6.865198707673699 C 63.16173858304991 6.794013123493642 62.35496935314647 6.661528962514737 61.74989116347878 6.467746224736985 C 61.1448144220855 6.273963124890628 60.60499040872007 5.929899105951748 60.13041984751969 5.4355545299889485 C 59.65584928631931 4.941210497129056 59.29201197675522 3.879358866443205 59.038907556758815 2.25 Z"
     style="fill:#ffffff;stroke:none"
     id="path16" />
  <path
     d="M 55.30403780192137 12.546648502349854 L 55.01929546520114 13.163590231910348 L 54.11761139892042 15.180515117011964 L 53.9752402305603 15.465257453732193 L 54.56845343206078 15.74999979045242 L 54.71082460042089 15.441528925672174 L 55.32776632998139 14.041545770131052 L 55.636237194761634 14.587301915511489 L 55.92097953148186 15.156786588951945 L 56.20572186820209 14.587301915511489 L 56.53792126104236 13.994088714011014 L 56.846392125822604 14.587301915511489 L 57.13113446254283 15.156786588951945 L 57.41587679926306 14.587301915511489 L 57.72434766404331 13.994088714011014 L 58.05654705688357 14.587301915511489 L 58.3412893936038 15.156786588951945 L 58.62603173032403 14.587301915511489 L 58.93450259510428 14.017817242071033 L 59.242973459884524 14.587301915511489 L 59.55144432466477 15.156786588951945 L 59.836186661385 14.587301915511489 L 60.14465752616525 13.994088714011014 L 60.453128390945494 14.587301915511489 L 60.76159925572574 15.156786588951945 L 61.04634159244597 14.587301915511489 L 61.35481245722622 13.994088714011014 L 61.663283322006464 14.587301915511489 L 61.97175418678671 15.156786588951945 L 62.25649652350694 14.587301915511489 L 62.56496738828719 13.994088714011014 L 62.873438253067434 14.587301915511489 L 63.15818058978766 15.156786588951945 L 63.46665145456791 14.587301915511489 L 63.77512231934816 13.994088714011014 L 64.0835931841284 14.587301915511489 L 64.36833552084863 15.156786588951945 L 64.67680638562888 14.587301915511489 L 64.98527725040913 13.994088714011014 L 65.31747664324939 14.611030443571508 L 65.60221897996962 15.133058060891926 L 65.91068984474987 14.611030443571508 L 66.24288923759013 13.970360185950994 L 67.0733877196908 15.465257453732193 L 67.23948741611093 15.74999979045242 L 67.80897208955139 15.441528925672174 L 67.66660092119128 15.156786588951945 L 66.52763157431036 13.11613317579031 L 66.24288923759013 12.61783408652991 L 65.9581469008699 13.139861703850329 L 65.60221897996962 13.756803433410823 L 65.27001958712935 13.139861703850329 L 64.96154872234911 12.594105558469892 L 64.7005349136889 13.139861703850329 L 64.36833552084863 13.733074905350804 L 64.05986465606838 13.139861703850329 L 63.77512231934816 12.570377030409873 L 63.49037998262793 13.139861703850329 L 63.18190911784768 13.733074905350804 L 62.849709725007415 13.139861703850329 L 62.56496738828719 12.570377030409873 L 62.28022505156696 13.139861703850329 L 61.94802565872669 13.733074905350804 L 61.639554793946445 13.139861703850329 L 61.35481245722622 12.570377030409873 L 61.07007012050599 13.139861703850329 L 60.76159925572574 13.733074905350804 L 60.429399862885475 13.139861703850329 L 60.14465752616525 12.570377030409873 L 59.85991518944502 13.139861703850329 L 59.55144432466477 13.709346377290785 L 59.242973459884524 13.139861703850329 L 58.93450259510428 12.570377030409873 L 58.64976025838405 13.139861703850329 L 58.3412893936038 13.733074905350804 L 58.032818528823555 13.139861703850329 L 57.72434766404331 12.570377030409873 L 57.43960532732308 13.139861703850329 L 57.13113446254283 13.733074905350804 L 56.822663597762585 13.139861703850329 L 56.53792126104236 12.570377030409873 L 56.22945039626211 13.139861703850329 L 55.92097953148186 13.733074905350804 L 55.612508666701615 13.139861703850329 L 55.30403780192137 12.546648502349854 Z"
     style="fill:#ffffff;stroke:none"
     id="path18" />
  <path
     d="M 73.995355787687 2.7008420331403613 L 73.94789873156697 7.968575262464583 L 71.17166094854474 8.016032318584621 L 71.14793242048472 2.7245705612003803 L 73.995355787687 2.7008420331403613 ZM 74.46992634888738 2.25 L 70.69709038734436 2.273728528060019 L 70.72081891540438 8.490602879785001 L 74.39874076470733 8.419417295604944 L 74.46992634888738 2.25 Z"
     style="fill:#ffffff;stroke:none"
     id="path20" />
  <path
     d="M 72.58350827731192 12.878848205320537 C 73.38902438777542 12.878848205320537 74.3972887787996 13.2926455512671 74.88517549913377 13.78053227160126 C 75.31202578033869 14.207382190737576 75.36782851779087 14.773305557384845 75.38347458839417 15.299158067442477 L 69.8072704942897 15.299158067442477 C 69.8229167459273 14.773305557384845 69.87871948337948 14.207382190737576 70.3055695835501 13.78053227160126 C 70.79345648491855 13.2926455512671 71.77799252891703 12.878848205320537 72.58350827731192 12.878848205320537 ZM 72.58350827731192 12.428006172180176 C 71.62790766997381 12.428006172180176 70.59969963504602 12.869460490544839 69.99709871876985 13.472061406821012 C 69.37902321804748 14.090137135250586 69.3089714050293 14.903828392733544 69.3089714050293 15.512714819982648 L 69.3089714050293 15.750000100582838 L 75.85804514959455 15.750000100582838 L 75.85804514959455 15.512714819982648 C 75.85804514959455 14.903828392733544 75.81172209234359 14.090137135250586 75.19364636391401 13.472061406821012 C 74.59104580970644 12.869460490544839 73.53910906568434 12.428006172180176 72.58350827731192 12.428006172180176 Z"
     style="fill:#ffffff;stroke:none"
     id="path22" />
  <path
     d="M 79.23919278685261 2.771662648311301 Q 79.93474316368639 2.771662648311301 79.93474316368639 3.6885247976617497 Q 79.93474316368639 4.494730680197452 79.23919278685261 5.285129145019644 Q 78.54364232047617 4.494730680197452 78.54364232047617 3.6885247976617497 Q 78.54364232047617 2.771662648311301 79.23919278685261 2.771662648311301 ZM 79.23919278685261 6.296838263074965 Q 79.72924001770946 6.296838263074965 79.72924001770946 7.355972051923285 Q 79.72924001770946 7.956673803512528 79.23919278685261 8.462528720710925 Q 78.74914627233726 7.956673803512528 78.74914627233726 7.355972051923285 Q 78.74914627233726 6.296838263074965 79.23919278685261 6.296838263074965 ZM 79.23919278685261 9.490046778705384 Q 79.72924001770946 9.490046778705384 79.72924001770946 10.549179851212234 Q 79.72924001770946 11.149882319142948 79.23919278685261 11.655738310853552 Q 78.74914627233726 11.149882319142948 78.74914627233726 10.549179851212234 Q 78.74914627233726 9.490046778705384 79.23919278685261 9.490046778705384 ZM 79.23919278685261 2.25 Q 77.97455576248468 2.25 77.97455576248468 3.6885247976617497 Q 77.95874807614312 4.5895785891005065 78.3934671512069 5.103336901756264 Q 78.82818559947191 5.61709539349739 78.78076173456307 5.790983345876569 Q 78.22748286291315 6.4391097682588105 78.22748286291315 7.355972051923285 Q 78.22748286291315 8.114753890464776 78.87560937483806 8.984191503336252 Q 78.22748286291315 9.632317925718494 78.22748286291315 10.549179851212234 Q 78.22748286291315 11.307962406095196 78.87560937483806 12.161592153539742 Q 78.95464959739957 12.367095478602044 78.43298681477424 13.125878033485007 Q 77.91132416646293 13.884659155685027 77.35804533958435 15.749999453867837 L 78.05359580596081 15.749999453867837 Q 78.40137063620695 14.516978070811074 78.67010622886113 13.987411892728385 Q 78.93884173197263 13.457844998304225 79.23919278685261 13.125878033485007 Q 79.55535224441564 13.457844998304225 79.81618363572831 13.987411892728385 Q 80.0770148479556 14.516978070811074 80.42478985728712 15.749999453867837 L 81.13614809954782 15.749999453867837 Q 80.6144853169225 13.884659155685027 80.06911073615677 13.125878033485007 Q 79.52373597630567 12.367095478602044 79.61858388520874 12.161592153539742 Q 80.25090262124941 11.307962406095196 80.25090262124941 10.549179851212234 Q 80.25090262124941 9.632317925718494 79.65019997423333 8.984191503336252 Q 80.25090262124941 8.114753890464776 80.25090262124941 7.355972051923285 Q 80.25090262124941 6.4391097682588105 79.71343161502642 5.790983345876569 Q 79.66600766057489 5.61709539349739 80.09282253429717 5.103336901756264 Q 80.51963740801943 4.5895785891005065 80.51963740801943 3.6885247976617497 Q 80.51963740801943 2.25 79.23919278685261 2.25 Z"
     style="fill:#ffffff;stroke:none"
     id="path24" />
  <path
     d="M 30.489336013793945 0.375 C 20.86433607339859 0.375 20.86433607339859 17.625 30.489336013793945 17.625 "
     style="fill:none;stroke:#ffffff;stroke-width:1"
     id="path26" />
  <path
     d="M 30.489336013793945 0.375 L 81.13614845275879 0.375 "
     style="fill:none;stroke:#ffffff;stroke-width:1"
     id="path28" />
  <path
     d="M 30.489336013793945 17.625 L 81.13614845275879 17.625 "
     style="fill:none;stroke:#ffffff;stroke-width:1"
     id="path30" />
  <path
     d="M 88.82364845275879 0.375 L 88.82364845275879 17.625 "
     style="fill:none;stroke:#ffffff;stroke-width:1"
     id="path32" />
  <path
     d="M 81.13614845275879 0.375 C 90.76115036010742 0.375 90.76115036010742 17.625 81.13614845275879 17.625 "
     style="fill:none;stroke:#ffffff;stroke-width:1"
     id="path34" />
</svg>
