<?xml version="1.0" encoding="UTF-8" standalone="no"?>
<svg
   width="84.21492004394531"
   height="18.0"
   version="1.1"
   id="svg16"
   sodipodi:docname="menmerut.svg"
   inkscape:version="1.1.1 (3bf5ae0d25, 2021-09-20)"
   xmlns:inkscape="http://www.inkscape.org/namespaces/inkscape"
   xmlns:sodipodi="http://sodipodi.sourceforge.net/DTD/sodipodi-0.dtd"
   xmlns="http://www.w3.org/2000/svg"
   xmlns:svg="http://www.w3.org/2000/svg">
  <defs
     id="defs20" />
  <sodipodi:namedview
     id="namedview18"
     pagecolor="#ffffff"
     bordercolor="#666666"
     borderopacity="1.0"
     inkscape:pageshadow="2"
     inkscape:pageopacity="0.0"
     inkscape:pagecheckerboard="0"
     showgrid="false"
     inkscape:zoom="16.327273"
     inkscape:cx="42.10746"
     inkscape:cy="8.9727169"
     inkscape:window-width="1920"
     inkscape:window-height="1001"
     inkscape:window-x="-9"
     inkscape:window-y="-9"
     inkscape:window-maximized="1"
     inkscape:current-layer="svg16" />
  <path
     d="M 5.454143572319105 0.38638405261740716 C 5.6751986350969625 0.38638405261740716 6.0198472107908465 0.43846304248784007 6.211377729173311 0.48978353459751095 C 7.043040107707465 0.7126268987793605 6.2060781548689725 1.4576656313354053 5.670499150679329 1.4576656313354053 C 5.645675310396461 1.4576656313354053 5.621499128101075 1.4560650867138016 5.598166364823283 1.4527377590493051 L 5.598166364823283 1.4527377590493051 C 5.2452836289156854 1.5270191599566676 5.657208135444718 1.6516913405425198 6.100369028149615 1.6516913405425198 C 6.371794440716527 1.6516913405425198 6.654937462107786 1.6049233596160355 6.781255773411818 1.4711656717820771 C 6.852830518892686 1.3953753558318478 6.912108910323108 1.3639720239176871 6.9629476229505665 1.3639720239176871 C 7.148321731367289 1.3639720239176871 7.221486349139459 1.7814996563172263 7.369436559194839 1.9870992028133305 C 8.109766964545285 2.2320299455576382 8.572153297980249 2.899799787031018 9.050509706479392 3.4727819547688448 C 10.427930052921685 5.122675736613722 11.668260962471539 6.8783423742360466 12.967744634877972 8.588242400437956 C 12.611392476850998 8.48312787497829 12.224502817821092 8.278009345655091 11.870752268998066 8.107222788142833 C 10.250106465731893 7.324793393911243 8.524267466685542 6.706575791878325 7.056547618785348 5.653163124478057 C 6.324634327882369 5.1278539512763395 5.345499249842926 4.51876911966858 5.264370024428102 3.5973664697843573 C 5.202570523656583 2.8954927394447814 6.490844590161053 2.259560441267 6.397605624014208 1.8800112110189322 C 6.386753388715507 1.8358343194279554 6.355336487695676 1.8161086513304385 6.30878866169714 1.8161086513304385 C 6.033909073196996 1.8161086513304385 5.231366300354198 2.503995530499702 5.02003007139695 2.906660570796704 C 4.938768814010101 3.0614904698885916 4.879530977434828 3.123278383558639 4.83783143863071 3.123278383558639 C 4.6918117006651325 3.123278383558639 4.760840637983347 2.365644014318102 4.852316840087996 2.1923293342191177 C 5.162809689882786 1.604057223781083 4.223751651517808 0.8679923201596249 4.752486337822802 0.5290855725147102 L 4.752486337822802 0.5290855725147102 C 4.736400696667635 0.6173537864769199 4.7540868824444065 0.8663049485079197 5.0637960782712925 0.8663049485079197 C 5.3886697406864075 0.8663049485079197 5.369079611183729 0.4656883095505593 5.2689176568317215 0.41293273205443365 C 5.301349953848873 0.39420801419286505 5.36846244556854 0.38638405261740716 5.454143572319105 0.38638405261740716 ZM 6.069788227978029 5.863214709790646 C 6.323975692640863 6.762449405018629 6.696283899240764 7.629413412802606 7.135400893532303 8.452206779931927 C 7.351771108231227 8.857629702840873 8.265934259085897 9.502025616333867 7.620163139602537 9.830196723888633 C 7.602866036496212 9.834973658931888 7.585570762932224 9.837214848295345 7.568255974249969 9.837214848295345 C 7.310987560290759 9.837214848295345 7.049406915042022 9.342463910909716 6.712954689020212 9.320119100494184 C 6.67903192484543 8.693869197752123 6.575001708144468 8.06546836306859 6.448145511393205 7.446592735641611 C 6.344633665021206 6.9416012399454585 6.088178787554743 6.271072143703381 6.069788227978029 5.863214709790646 ZM 6.774795659418047 6.459697958701316 L 6.774795659418047 6.459697958701316 C 7.569842797304042 7.0356641099916315 8.405933278142431 7.553192239631892 9.246634815518807 8.060175497086155 C 9.468879080816052 8.556551677914943 9.280516719914718 9.282423820019444 9.395827284821362 9.864688475730382 C 8.857778398476073 9.501763991779603 8.28369911518318 9.486578790378216 7.938584616040677 8.798798329588251 C 7.554208138335073 8.032772611954833 6.9204552824668575 7.305266688542932 6.774795659418047 6.459697958701316 ZM 7.000934410504418 10.059063322600238 C 7.135474685073249 10.295082212156643 7.336466376730457 10.443322709596242 7.539293099352194 10.443322709596242 C 7.698827361641281 10.443322709596242 7.8594965500270755 10.351611411301223 7.9898569302021265 10.138767334534139 C 8.175012103385795 10.34420664361385 8.218963808807393 11.064965824732438 8.219863943637453 11.464443954739346 C 8.22078908221279 11.875067656666406 8.005229354769385 11.909575264541749 7.754371047313386 11.909575264541749 C 7.7036902851744005 11.909575264541749 7.6515684535208965 11.908167736636754 7.599499678595182 11.908167736636754 C 7.503209645676805 11.908167736636754 7.407101347297289 11.912984311763987 7.320625589324795 11.940433545301191 C 7.276695228563797 11.95437831699774 7.230527337524019 11.959987693804566 7.182692123567317 11.959987693804566 C 6.98565285320659 11.959987693804566 6.760333737087427 11.864796605983589 6.546653559472097 11.864796605983589 C 6.526873767413762 11.864796605983589 6.507193990336545 11.865612581866122 6.487645330460182 11.867394556102862 C 6.488004530605782 11.347772820181039 6.847494963589043 10.641789022980232 7.000934410504418 10.059063322600238 ZM 8.603951963501176 7.092214653796816 C 10.294832067562263 7.858253788074042 11.963344187004877 8.682241846349761 13.658331003766241 9.443264375537517 C 14.306199998463287 10.121921518537734 14.89692628748524 10.890737288235863 15.617332976780133 11.491755362753791 C 16.156479588527933 11.941553225211752 15.463364792129216 11.850415183515821 15.144459706666524 11.910077778837119 C 14.899576684484854 11.955893178053204 14.652335992077571 11.9891323032412 14.405890540739662 12.026157361372965 C 13.536195636093217 11.155342776815962 12.661034058942274 10.288166542120832 11.825686982140361 9.38497027788468 C 10.917455817391367 8.402968916849794 9.68127857879512 7.847318613522707 8.603951963501176 7.092214653796816 ZM 8.091606927303099 12.784580720746556 C 9.197498187112684 12.784580720746556 10.303223568417005 12.797552175919549 11.407920746927639 12.826530906850914 C 11.963618618355504 12.841107480501353 12.604689033726338 12.804320262873466 13.102683139828937 12.991104338584968 C 12.444715071428801 13.03259835879984 10.798614845620763 13.0486666193028 9.061392434150386 13.0486666193028 C 7.040896493935342 13.0486666193028 4.8971381879673626 13.026930436638214 4.041370674365262 12.998177349261805 C 4.035477718496122 12.998220038583016 4.0297003287179685 12.998241993091064 4.024036980412186 12.998241993091064 C 3.5148780921948943 12.998241993091064 3.9273603042131473 12.826321119329545 4.211845294908974 12.826321119329545 C 4.238601131900259 12.826321119329545 4.264224787108344 12.827842078859469 4.287843263914512 12.831169406523964 C 5.555116623774078 12.801636934111775 6.823471243155116 12.784580720746556 8.091606927303099 12.784580720746556 ZM 3.229631402039215 13.527964022410872 C 3.9800867996092 13.538300936617839 4.730666606058136 13.547631602539173 5.48073658004235 13.573154937842418 C 5.974628852224238 13.589961113754843 6.468692491538405 13.596169360753482 6.962812846665035 13.596169360753482 C 8.360743582405776 13.596169360753482 9.759126824951332 13.546476551476754 11.155349987843726 13.546476551476754 C 11.342591449139606 13.546476551476754 11.529792660504063 13.547370587832354 11.716949962852416 13.549397720742322 C 10.555885804617795 14.183214610592351 9.295635447944509 14.718425266924708 7.950956591174409 14.762796547389044 C 7.799163122515353 14.767805834309163 7.651256821476073 14.770698950592223 7.506199727703753 14.770698950592223 C 6.745573599355791 14.770698950592223 6.06331774657768 14.691151669451905 5.310047598121426 14.420004957167741 C 4.653584023370175 14.183703708243913 3.8042879059395918 13.89691074988931 3.229631402039215 13.527964022410872 ZM 9.878584352489678 15.08641697330296 C 9.849530000475026 15.08641697330296 9.823518177367665 15.092904530431793 9.801197760849965 15.106699279656667 C 9.544953890599764 15.265069343171648 10.169278504955312 16.43707782366929 10.695870187335629 16.718978585813375 C 10.73537854426685 16.740128095235065 10.774061167756402 16.749551457968167 10.810766665826547 16.749551457968167 C 11.003336974104167 16.749551457968167 11.141447905468382 16.490179680168257 11.058481819546692 16.304211580339288 C 10.844383896430964 15.824310428259835 10.18845698743205 15.08641697330296 9.878584352489678 15.08641697330296 ZM 5.031377807745396 15.140798289743296 C 4.989399568658528 15.140798289743296 4.926357808639836 15.166799745444079 4.836820006641786 15.226750188759814 C 4.404607095284589 15.5161398775388 3.394055116225315 16.294390597071498 4.0142925329988515 16.722726708215504 C 4.056939164886357 16.752178680764843 4.100021532773916 16.765133060209347 4.142866670005041 16.765133060209347 C 4.367006341163952 16.765133060209347 4.58465113702468 16.41059092940162 4.699421682018032 16.208593599306226 C 4.818436155386976 15.999129297083979 5.2725627150155 15.140798289743296 5.031377807745396 15.140798289743296 ZM 9.090395558979587 15.318185836009313 C 8.817462603526561 15.318185836009313 9.117006862126209 16.79410813205604 9.59252321107008 17.108873573056375 C 9.624085865629468 17.129766946550816 9.662353183008404 17.139328134806675 9.7019237443791 17.139328134806675 C 9.808466532556917 17.139328134806675 9.924459516755453 17.07001409380753 9.944487516724246 16.965927771141548 C 10.06708575860866 16.328790871796375 9.471438610546237 15.35620982425736 9.098430299078512 15.3185980928827 C 9.095698792368601 15.318322441837182 9.093020952233923 15.318185836009313 9.090395558979587 15.318185836009313 ZM 5.813290051342912 15.334595611081944 C 5.762056157570551 15.334595611081944 5.6837980939307355 15.397157421160761 5.569301065516842 15.551481756720047 C 5.266789289245744 15.95922088022829 4.5258087865180325 16.80730645047888 5.132767994853322 17.12234144405028 C 5.172965479398338 17.143205544867318 5.210868717852111 17.152645983328902 5.2466228539067465 17.152645983328902 C 5.501107314275703 17.152645983328902 5.646734005562437 16.67436092698092 5.736180330443612 16.43252348294377 C 5.81843167515878 16.21013773303909 6.004955346010909 15.334595611081944 5.813290051342912 15.334595611081944 ZM 8.084197280836158 15.497188258311914 C 8.061304827414261 15.497188258311914 8.040999346857612 15.508953435237036 8.024002288694641 15.534490187184089 C 7.779368084270872 15.902031826147313 7.859889291782196 17.025052481015617 8.44457443200567 17.350611002112412 C 8.477321410304873 17.36884544074299 8.5095817303423 17.37699910109386 8.54061320777636 17.37699910109386 C 8.712565793605062 17.37699910109386 8.846783458875045 17.126639648848553 8.816920449147212 16.95369179198824 C 8.746119600075112 16.543659642083643 8.300101572086461 15.497188258311914 8.084197280836158 15.497188258311914 ZM 6.75532262062497 15.485684096093609 C 6.738393255528486 15.485684096093609 6.719172693577984 15.49322303021907 6.697420045032361 15.509370570889988 C 6.3057388146205 15.800128757337436 5.679560264029602 16.97476811971643 6.318469380052385 17.354321313972893 C 6.352644621069744 17.374624355139762 6.386393578722462 17.383708642692973 6.419196662986684 17.383708642692973 C 6.610484462085705 17.383708642692973 6.7696040281116225 17.07479041900334 6.793552127462265 16.88013443246095 C 6.834695485395779 16.54571360828123 6.956077691473192 15.485684096093609 6.75532262062497 15.485684096093609 ZM 7.409580377164622 15.468416875512132 C 7.39733464045218 15.468416875512132 7.384780930779589 15.471718589583901 7.371922907231523 15.478607426332097 C 7.04806464081373 15.652117562537471 6.752394743037498 17.05085024766949 7.3581062034986005 17.423058439288273 C 7.389001684952238 17.442042990277237 7.419877041440165 17.450504013740805 7.449994967400358 17.450504013740805 C 7.6143226306137395 17.450504013740805 7.756113991313593 17.19863701860939 7.755634651221164 17.030030055868558 C 7.75432652844984 16.56993308974527 7.633263882434045 15.468416875512132 7.409580377164622 15.468416875512132 ZM 5.632034852575385 0.0 C 5.427092569164034 0.0 5.224417088708866 0.019432907972482025 5.033733343504948 0.05443384431604181 C 4.467006076095366 0.1584592489395021 3.5938344311601953 0.3646307561088724 3.603155949369841 1.0504667564332457 C 3.67258220229902 1.0309202310229437 3.7366997332121716 1.0218254998322194 3.7957738257482365 1.0218254998322194 C 4.346064179873848 1.0218254998322194 4.458737154577238 1.8110103266832265 4.348558760851052 2.292443415546627 C 4.124233391144884 3.272651977552607 4.609814357411156 4.257232688359666 5.247062553915197 4.998988307191039 C 5.671593826844609 6.267997902728908 6.207430796503842 7.594017867046124 6.200945678764793 8.927216345648308 C 6.198242225037389 9.48290994814405 6.608764082440994 9.519405658692827 6.457257851928928 10.084834255966495 C 6.320555668164599 10.595013723884398 6.084080612718707 11.65061086483566 5.574068852848409 11.775453955168208 C 5.5141812238195955 11.78026809090566 5.453413584926436 11.78228912534117 5.392016583469171 11.78228912534117 C 5.069385635036129 11.78228912534117 4.729385926421875 11.726455152284846 4.408483590574062 11.726455152284846 C 4.153773486650145 11.726455152284846 3.9110950629851815 11.761631152960828 3.698682758209751 11.887824445538461 C 3.254193922691541 12.151893268366223 2.920155472860361 12.347759192241154 2.3871648136927193 12.347759192241154 C 2.364082850177029 12.347759192241154 2.3406278124863467 12.34739206407876 2.31677439195167 12.346646830499944 C 2.290907712536418 12.345839392481654 2.2648745447684524 12.34543567347251 2.2387011120879436 12.34543567347251 C 1.3440312774539256 12.34543567347251 0.28566830681618954 12.817335627062558 0.12083169732265768 13.756412875622079 C -0.12329519978597013 15.147207786399061 0.07662177391650889 16.583104574880497 0.08494513861247754 17.989033459873415 C 0.2900051035231433 17.99360365663253 0.4966322048500206 17.999999736644487 0.702869308735284 17.999999736644487 C 0.8657836504929329 17.999999736644487 1.0284545868887616 17.996007675264025 1.1899174917253144 17.98397172607295 C 1.1137838316630781 17.140422201124508 1.057380489785133 16.29003262722354 1.1114740344619638 15.445312195179083 C 1.150002671471443 14.84365012175835 0.997819586525427 14.00504767929055 1.5763723295263372 13.66371240476991 C 1.7040717928333333 13.58837307100588 1.83171911418371 13.55691470035973 1.9589124041106598 13.55691470035973 C 2.4652981635298614 13.55691470035973 2.9644861984695505 14.055524752382627 3.4311076174921418 14.268706684634704 C 4.73678032670267 14.865220425917668 6.127831678330627 15.305327812461249 7.577851313962796 15.305327812461249 C 7.611054458151489 15.305327812461249 7.644288094712474 15.305097290126723 7.677552223645749 15.304632586372993 C 9.433900060865076 15.280083787288198 11.05346399476233 14.553760358073777 12.55629032072968 13.72891485428921 C 12.670762345398295 13.628126586610326 12.818380798443139 13.581008553249928 12.96633954636276 13.581008553249928 C 13.24669495507909 13.581008553249928 13.528272498076879 13.750179015030715 13.587881426822944 14.043930332742338 C 13.850096313415355 15.336104373662948 13.742097209536873 16.675576962787922 13.65541349358535 17.983352121067977 C 13.812261377875515 17.996239417293445 13.969778874661216 17.999448434553447 14.127512257442742 17.999448434553447 C 14.284036922586616 17.999448434553447 14.44077381464164 17.99628820508911 14.597282623751921 17.99628820508911 C 14.650358866658163 17.99628820508911 14.703408276276786 17.99665167416683 14.7564149965742 17.99762499069039 C 14.763825862736033 17.086932481649992 14.844901421575624 16.174760482705985 14.803086621604242 15.264876631378764 C 14.769945072007578 14.543717390335702 14.910211204245392 13.715322574416355 14.386286384745727 13.121748297822336 C 13.705550271802647 12.350515702696345 12.623079593303054 12.361563699025162 11.682409423214999 12.296510052282647 C 11.644045140092175 12.293857215893247 11.604677048073496 12.292852187302506 11.564630805695048 12.292852187302506 C 11.439513284011872 12.292852187302506 11.307763061507753 12.302662193316268 11.179225515348314 12.302662193316268 C 11.022081245199468 12.302662193316268 10.869737694144266 12.28799902132852 10.740179263360492 12.222823405096838 C 10.44570344688321 11.920581791244247 10.080689625582988 11.8638281682396 9.700766253926899 11.8638281682396 C 9.472275931089374 11.8638281682396 9.238393337135744 11.88435563326653 9.011219065086339 11.88435563326653 C 8.936831703185263 11.88435563326653 8.863163961270274 11.882155303681946 8.79064029316368 11.876311745455919 C 8.748275410796152 11.287905316117937 8.716179749569102 10.698756092590925 8.6841725162217 10.109697736333342 C 8.716601154154176 10.078576001477298 8.754075060006079 10.064937373198559 8.795398322936116 10.064937373198559 C 9.088549550761034 10.064937373198559 9.575443823501919 10.751298109134611 9.829342220475425 10.751298109134611 C 9.9047779101359 10.751298109134611 9.959645884838014 10.690709765390528 9.982754224255737 10.533531343784716 C 10.077034809840075 9.89225845906186 9.828121305888857 9.191179055020491 9.837226938102676 8.515557122758214 C 9.842454550408405 8.515291839119273 9.84775473456019 8.515160721918418 9.8531244413208 8.515160721918418 C 10.13787319103695 8.515160721918418 10.618515917610546 8.883683605421998 10.906077283746905 9.132975214789639 C 11.80432402611263 9.911679050974598 12.57521510666895 10.850011675802751 13.418602412196801 11.698699775329832 C 13.753165940678848 12.0785896053764 14.10034965220508 12.50165297550368 14.581990089200067 12.50165297550368 C 14.7115546184583 12.50165297550368 14.850847434172552 12.471038633722571 15.00224206260203 12.400734200471387 C 15.482807948397447 12.177569065530927 16.501952068121145 12.466298899373513 16.611020844419624 11.85703812677763 C 16.148715010847514 11.316222972418016 15.616514561507817 10.838956361304586 15.141690999262417 10.30954047540259 L 15.141690999262417 10.30954047540259 C 15.720475255599954 10.584491416053895 16.284632930796494 10.987831100087856 16.88805136486124 11.251485226652445 C 17.013493325385603 11.306294655999759 17.089085135992214 11.329256632030482 17.12721035891627 11.329256632030482 C 17.308927822047742 11.329256632030482 16.63947510654757 10.807612641978256 16.459826245952385 10.726662711712507 C 15.79457415965915 10.42689585879513 17.084456393878295 10.539115106998816 16.55768114741678 10.121722708270392 C 15.402974038957586 9.206783221617167 14.091566629290112 8.473895394495738 12.859382061921773 7.648877913731442 C 12.06805133437072 6.650734500652652 11.353425998862377 5.582082965275763 10.559610752816978 4.581358372882461 C 9.89897704123108 3.80707897991706 9.337823474552744 2.944969967649405 8.617586932695238 2.225430481422494 C 8.174952338336102 1.7832239999703352 7.524531741925666 1.6598222840760268 7.480633703079299 0.9374621771811809 C 7.138186066817449 0.2522410174286094 6.370398499913002 0.0 5.632034852575385 0.0 Z"
     style="fill:#ffffff;stroke:none"
     id="path2" />
  <path
     d="M 37.0019284337759 2.3728528060019016 L 37.0019284337759 4.714067574590445 L 19.759198043495417 4.714067574590445 L 19.759198043495417 2.3728528060019016 ZM 19.822474118322134 0.0 L 19.822474118322134 1.7717300951480865 L 19.1580753326416 1.7717300951480865 L 19.1580753326416 5.31519028544426 L 37.60305114462972 5.31519028544426 L 37.60305114462972 1.7717300951480865 L 37.06520450860262 1.7717300951480865 L 37.06520450860262 0.0 L 36.464081797748804 0.0 L 36.464081797748804 1.7717300951480865 L 34.977094039320946 1.7717300951480865 L 34.977094039320946 0.0 L 34.37597132846713 0.0 L 34.37597132846713 1.7717300951480865 L 32.88898357003927 1.7717300951480865 L 32.88898357003927 0.0 L 32.28786085918546 0.0 L 32.28786085918546 1.7717300951480865 L 30.832511138170958 1.7717300951480865 L 30.832511138170958 0.0 L 30.199750389903784 0.0 L 30.199750389903784 1.7717300951480865 L 28.744400668889284 1.7717300951480865 L 28.744400668889284 0.0 L 28.14327795803547 0.0 L 28.14327795803547 1.7717300951480865 L 26.65629019960761 1.7717300951480865 L 26.65629019960761 0.0 L 26.055167488753796 0.0 L 26.055167488753796 1.7717300951480865 L 24.568179730325937 1.7717300951480865 L 24.568179730325937 0.0 L 23.967057019472122 0.0 L 23.967057019472122 1.7717300951480865 L 22.511707298457623 1.7717300951480865 L 22.511707298457623 0.0 L 21.910584587603807 0.0 L 21.910584587603807 1.7717300951480865 L 20.42359682917595 1.7717300951480865 L 20.42359682917595 0.0 Z"
     style="fill:#ffffff;stroke:none"
     id="path4" />
  <path
     d="M 20.929805427789688 13.728865623474121 L 20.550148978829384 14.551454596221447 L 19.347903557121754 17.240687776356936 L 19.1580753326416 17.62034422531724 L 19.94902626797557 18.000000674277544 L 20.13885449245572 17.58870618790388 L 20.961443465203047 15.722061980515718 L 21.37273795157671 16.44973684102297 L 21.752394400537014 17.209049738943577 L 22.13205084949732 16.44973684102297 L 22.57498337328434 15.658785905689001 L 22.986277859658003 16.44973684102297 L 23.365934308618307 17.209049738943577 L 23.74559075757861 16.44973684102297 L 24.156885243952274 15.658785905689001 L 24.599817767739296 16.44973684102297 L 24.9794742166996 17.209049738943577 L 25.359130665659904 16.44973684102297 L 25.770425152033567 15.69042394310236 L 26.18171963840723 16.44973684102297 L 26.593014124780893 17.209049738943577 L 26.972670573741198 16.44973684102297 L 27.38396506011486 15.658785905689001 L 27.795259546488523 16.44973684102297 L 28.206554032862186 17.209049738943577 L 28.58621048182249 16.44973684102297 L 28.997504968196154 15.658785905689001 L 29.408799454569817 16.44973684102297 L 29.82009394094348 17.209049738943577 L 30.199750389903784 16.44973684102297 L 30.611044876277447 15.658785905689001 L 31.02233936265111 16.44973684102297 L 31.401995811611414 17.209049738943577 L 31.813290297985077 16.44973684102297 L 32.22458478435874 15.658785905689001 L 32.6358792707324 16.44973684102297 L 33.01553571969271 17.209049738943577 L 33.42683020606637 16.44973684102297 L 33.83812469244003 15.658785905689001 L 34.281057216227055 16.481374878436327 L 34.66071366518736 17.177411701530218 L 35.07200815156102 16.481374878436327 L 35.51494067534804 15.627147868275642 L 36.6222719848156 17.62034422531724 L 36.84373824670911 18.000000674277544 L 37.60305114462972 17.58870618790388 L 37.413222920149565 17.209049738943577 L 35.89459712430835 14.48817852139473 L 35.51494067534804 13.823779735714197 L 35.13528422638774 14.519816558808088 L 34.66071366518736 15.342405531555414 L 34.21778114140034 14.519816558808088 L 33.806486655026674 13.792141698300838 L 33.45846824347973 14.519816558808088 L 33.01553571969271 15.310767494142056 L 32.604241233319044 14.519816558808088 L 32.22458478435874 13.76050366088748 L 31.844928335398436 14.519816558808088 L 31.433633849024773 15.310767494142056 L 30.99070132523775 14.519816558808088 L 30.611044876277447 13.76050366088748 L 30.231388427317142 14.519816558808088 L 29.78845590353012 15.310767494142056 L 29.377161417156458 14.519816558808088 L 28.997504968196154 13.76050366088748 L 28.61784851923585 14.519816558808088 L 28.206554032862186 15.310767494142056 L 27.763621509075165 14.519816558808088 L 27.38396506011486 13.76050366088748 L 27.004308611154556 14.519816558808088 L 26.593014124780893 15.279129456728697 L 26.18171963840723 14.519816558808088 L 25.770425152033567 13.76050366088748 L 25.390768703073263 14.519816558808088 L 24.9794742166996 15.310767494142056 L 24.568179730325937 14.519816558808088 L 24.156885243952274 13.76050366088748 L 23.77722879499197 14.519816558808088 L 23.365934308618307 15.310767494142056 L 22.954639822244644 14.519816558808088 L 22.57498337328434 13.76050366088748 L 22.163688886910677 14.519816558808088 L 21.752394400537014 15.310767494142056 L 21.34109991416335 14.519816558808088 L 20.929805427789688 13.728865623474121 Z"
     style="fill:#ffffff;stroke:none"
     id="path6" />
  <path
     d="M 41.80002840526937 1.2903898769058841 L 46.65102936053951 1.5609826932544664 C 46.73632355133891 2.499954998210235 46.69361973185785 3.5487470557133136 46.522917419338185 4.707359107142771 C 44.71281239694362 3.7069572772428856 43.13851638075944 2.567967413141055 41.80002840526937 1.2903898769058841 ZM 47.0635568112008 0.0 C 46.79377997679707 0.0 46.51524784078005 0.17465966202133387 46.227960885907876 0.5239791067535364 L 40.985662976044964 0.25326487673293485 C 39.74707745264776 0.5738183329116637 39.49428911854302 1.0703695963289377 40.227298215109826 1.742918546295222 C 40.37001202105927 1.7117536118583203 40.49685792904043 1.6961709032608 40.60783557698471 1.6961709032608 C 40.88019456398571 1.6961709032608 41.056980353197034 1.7900241544898918 41.13819209979194 1.977731139706215 C 41.252495951315595 2.2419219796807752 41.56057167855887 2.5868188770993825 42.06241831600549 3.0124213492038976 C 42.56426495345211 3.438023097171204 43.92468366569166 4.316493979705548 46.14367372858693 5.647834238186 C 46.40593160497197 6.305188617098715 46.69561786779617 6.633865806555072 47.012732999817686 6.633865806555072 C 47.16093878304868 6.633865806555072 47.31513559478766 6.562075326426545 47.47532343503464 6.418493883411351 C 50.62996056482258 7.778925147362521 53.677332698136084 8.729922957566806 56.61744369704026 9.271489727814902 L 57.03229128331874 8.945742880263744 L 56.019204017793996 7.8690522298938745 C 53.860755687624774 7.682407312583884 51.05034731799073 6.843400218279079 47.58798180544069 5.35203191249574 C 47.31514524995045 4.150489869396985 47.29536182140431 2.9272205721044386 47.52863151980229 1.6822228137227526 L 47.52863151980229 1.6822228137227526 L 53.39795187331028 2.075332042370242 C 54.26948769379534 1.856705363851752 54.33422556026768 1.4053564346651868 53.59216643824358 0.7212848927419415 L 47.81414240748019 0.48003146092671756 C 47.57196775244576 0.16001048697557252 47.32177255368596 0.0 47.0635568112008 0.0 Z"
     style="fill:#ffffff;stroke:none"
     id="path8" />
  <path
     d="M 48.42541853696116 14.09980308055384 Q 51.53306205844274 14.09980308055384 55.016124377938354 15.601483100191388 Q 51.53306205844274 17.061449437291458 48.42541853696116 17.061449437291458 Q 45.33863258088553 17.061449437291458 41.834713420121176 15.601483100191388 Q 45.33863258088553 14.09980308055384 48.42541853696116 14.09980308055384 ZM 48.42541853696116 13.140397071838379 Q 44.58779257106676 13.140397071838379 39.603050231933594 15.58062625892265 Q 44.58779257106676 17.99999981163353 48.42541853696116 17.99999981163353 Q 52.263044502855564 17.99999981163353 57.24778684198873 15.58062625892265 Q 52.28390158550337 13.140397071838379 48.42541853696116 13.140397071838379 Z"
     style="fill:#ffffff;stroke:none"
     id="path10" />
  <path
     d="M 61.87074987777407 0.6343796163654517 Q 61.49916327294439 0.6343796163654517 61.49916327294439 1.0715398576205497 Q 61.49916327294439 1.4431256271248805 61.87074987777407 1.4431256271248805 Q 62.264194082970434 1.4212680267581896 62.264194082970434 1.0278238215618205 Q 62.264194082970434 0.6343796163654517 61.87074987777407 0.6343796163654517 ZM 60.428120091175046 0.9185333137523243 L 60.428120091175046 1.3119775189486933 L 59.57565816368908 1.4649840628169186 Q 59.96910236888545 1.0496814219285115 60.428120091175046 0.9185333137523243 ZM 60.47183612723377 1.4431256271248805 Q 60.97457095957183 1.836570786978789 60.64670027146869 2.033292531580396 Q 60.14396645345427 1.8584282680132875 59.90352783746859 1.574273615968875 L 60.47183612723377 1.4431256271248805 ZM 62.00189810528244 0.4376570364384973 Q 63.029225131660866 0.4376570364384973 63.64124939781869 1.2245454468312351 Q 64.25327366397651 2.011434931213705 64.29698981936743 3.6507862237499484 Q 65.89262495651275 3.97865595719555 66.4172173892175 5.093415294355815 Q 66.50215183854648 5.815354533686349 66.09204193801358 5.815354533686349 Q 66.07997936266953 5.815354533686349 66.06748910074766 5.814730187655325 Q 65.63032897882476 5.792871393966709 65.37896192065232 5.574291571669641 Q 65.28755584786109 5.494807739564106 65.24094898943967 5.494807739564106 Q 65.15938782252755 5.494807739564106 65.21502621860417 5.73822727371779 Q 65.302458529386 6.1207423207342355 66.17677877323182 6.66719306979883 Q 67.05110044906394 7.213642864205885 66.31885711357766 7.574300072191255 Q 66.1371724185497 7.66378680599873 65.93193823133015 7.66378680599873 Q 65.31001846244362 7.66378680599873 64.47185396360234 6.842057214033746 Q 63.357094626442084 5.749155238575788 63.29152110934886 5.180847127808888 Q 63.225946637598085 4.612539017041987 63.75054002496038 4.13166273972816 Q 64.0624600562243 3.845735885293317 63.964809091136516 3.845735885293317 Q 63.89822888766758 3.845735885293317 63.64124939781869 3.97865595719555 Q 63.007366576636635 4.306526883963077 62.97457981809002 4.940408511823204 Q 62.94179305954341 5.574291571669641 63.47731465042808 6.328393223515765 Q 64.01283504799082 7.082494875361889 65.58661282343384 8.240969890584305 Q 65.74748789340941 8.324904336140351 65.9508900928101 8.324904336140351 Q 66.38311940853998 8.324904336140351 67.00738429367301 7.945887154349703 Q 67.92542117023852 7.388507008440801 66.08934789443629 6.230031515889615 Q 66.76694663234487 6.055167848983468 66.78880399404719 5.639866043420408 Q 67.64126639886192 5.9240193828107035 71.5757098828119 10.929506048530046 Q 72.62489474822141 11.628962625469711 72.64675258725248 11.956833074908467 Q 72.62489474822141 12.262845685316147 72.31888309247127 12.328419202409375 Q 72.2533086207205 12.342470806737573 72.18572650416355 12.342470806737573 Q 71.93792795587484 12.342470806737573 71.66314219359376 12.153555535503228 Q 70.43909270662057 12.743721962629975 69.29154756557124 12.765579801661051 Q 69.2311511563163 12.766730163996499 69.17187456035553 12.766730163996499 Q 68.104887241144 12.766730163996499 67.400828260205 12.393993674160143 L 67.400828260205 12.393993674160143 Q 68.12214267617574 13.02787577934904 67.90356333120744 13.727332356288704 Q 67.79758488840007 14.066462991409306 67.74298993301444 14.066462991409306 Q 67.68498303158161 14.066462991409306 67.68498303158161 13.683616678226553 Q 67.68498303158161 12.940443468567198 65.78333576135738 12.262845685316147 L 65.78333576135738 13.093450251099807 Q 65.67138020769336 13.563663958351698 65.60529833546019 13.563663958351698 Q 65.54236396913572 13.563663958351698 65.52103835168307 13.13716592916196 Q 65.38989036283908 12.197271213565381 64.89808468868094 11.11529958960927 Q 64.40628044650911 10.033327010995619 63.335237264739774 8.120750821255848 Q 62.264194082970434 6.208174154187309 61.96911134673583 5.366640668888111 Q 61.6740274171793 4.525106706260145 61.69588573353915 3.803791812960634 Q 61.71774333390584 3.0824769196611235 61.400801803982624 2.743678028035599 Q 61.083861467381325 2.404879136410074 61.21500957555752 2.011434931213705 Q 61.3461576837337 1.617989652027604 60.82156429637141 1.2682614828899643 L 60.82156429637141 0.8966757730517297 Q 61.38987360046024 0.4376570364384973 62.00189810528244 0.4376570364384973 ZM 66.15492141152951 13.02787577934904 Q 67.22596459329885 13.333888389756721 67.22596459329885 13.74919019531978 L 66.50464969999935 16.437727307923062 Q 66.4172173892175 16.918603585236887 65.91448375020137 16.918603585236887 L 65.04016207436925 16.918603585236887 L 65.04016207436925 16.874887907174735 L 66.15492141152951 13.465036378600715 L 66.15492141152951 13.02787577934904 ZM 62.08077954848037 0.0 Q 62.041640737328365 0.0 62.00189810528244 4.967951833993125E-4 Q 61.14943498447455 4.967951833993125E-4 60.27511450196436 0.6999531931247753 Q 59.772379788958496 0.8748172776935953 59.24778747558594 1.5087000988756476 Q 59.96910236888545 2.164440520424391 60.55926819935123 2.317447064292616 Q 60.624842790434194 2.623459197371527 60.97457095957183 3.1699089917785814 Q 60.99642844060633 4.612539017041987 61.36801504543601 5.563363129482873 Q 61.73960188893007 6.514186287266219 63.859829697444525 10.667210070842057 Q 64.90901408552526 12.853012112442894 64.90901408552526 13.355746228787796 Q 64.90901408552526 14.12077727747823 63.9472615308976 16.78745464173535 Q 63.9472615308976 16.940461424267962 62.6357809264645 17.027892780392268 Q 60.66855870716073 17.093468206800573 60.66855870716073 17.574344484114402 Q 60.66855870716073 17.858498300833464 60.9308549235131 17.858498300833464 L 66.74508831598503 17.858498300833464 Q 67.29153811039208 17.42133770158179 67.35711258214285 17.11532604583165 Q 67.88170453751883 17.333906345457486 67.92542117023852 17.705491518300857 Q 67.9990472236799 17.999999550696504 68.13467542035814 17.999999550696504 Q 68.16010654256064 17.999999550696504 68.1877171479265 17.98964533501992 Q 68.36258176949019 17.92407181792669 68.36258176949019 17.705491518300857 Q 68.20957498695759 17.11532604583165 67.59755072079976 16.568874342109517 L 68.29700729773943 13.618042206475785 Q 70.4172348675895 13.552468689382557 71.99101264303252 12.940443468567198 Q 72.28245336075281 13.006017940317964 72.52532014819096 13.006017940317964 Q 73.01105372306725 13.006017940317964 73.30249348613 12.743721962629975 Q 73.73965408538167 12.350277041440451 73.12762981922386 11.519672475656792 Q 71.79429018243775 10.18633379352823 70.59209948915318 8.590698179054138 Q 68.12214267617574 5.5524337326385655 67.20410579961023 5.0715565006671985 Q 66.89809366653132 4.437674872807071 66.47186294145273 4.066088267977393 Q 66.04563173904536 3.6945023791408698 64.9308724018851 3.1480516300762758 Q 64.90901408552526 1.8584282680132875 64.32977753257158 0.9185333137523243 Q 63.76370475243411 0.0 62.08077954848037 0.0 Z"
     style="fill:#ffffff;stroke:none"
     id="path12" />
  <path
     d="M 79.84887158125639 7.386460158973932 C 80.92289306187439 7.386460158973932 82.26724558323997 7.938189953569349 82.91776121035218 8.588705580681562 C 83.48689491862541 9.15783880619665 83.56129856856165 9.912403295059676 83.58215999603271 10.613539975136518 L 76.14722120389342 10.613539975136518 C 76.16808287274355 9.912403295059676 76.2424865226798 9.15783880619665 76.81161998957396 8.588705580681562 C 77.46213585806524 7.938189953569349 78.77485058339653 7.386460158973932 79.84887158125639 7.386460158973932 ZM 79.84887158125639 6.785337448120117 C 78.5747374381389 6.785337448120117 77.20379339156852 7.373943205939668 76.40032550320029 8.1774110943079 C 75.57622483557047 9.001512065547331 75.48282241821289 10.086433742191275 75.48282241821289 10.898282311856747 L 75.48282241821289 11.214662685990334 L 84.21492074429989 11.214662685990334 L 84.21492074429989 10.898282311856747 C 84.21492074429989 10.086433742191275 84.15315666796528 9.001512065547331 83.32905569672585 8.1774110943079 C 82.52558829111575 7.373943205939668 81.12300596575295 6.785337448120117 79.84887158125639 6.785337448120117 Z"
     style="fill:#ffffff;stroke:none"
     id="path14" />
</svg>
