<?xml version="1.0" encoding="UTF-8" standalone="no"?>
<svg
   width="98.07743072509766"
   height="18.0"
   version="1.1"
   id="svg32"
   sodipodi:docname="meriamunrudamun.svg"
   inkscape:version="1.1.1 (3bf5ae0d25, 2021-09-20)"
   xmlns:inkscape="http://www.inkscape.org/namespaces/inkscape"
   xmlns:sodipodi="http://sodipodi.sourceforge.net/DTD/sodipodi-0.dtd"
   xmlns="http://www.w3.org/2000/svg"
   xmlns:svg="http://www.w3.org/2000/svg">
  <defs
     id="defs36" />
  <sodipodi:namedview
     id="namedview34"
     pagecolor="#ffffff"
     bordercolor="#666666"
     borderopacity="1.0"
     inkscape:pageshadow="2"
     inkscape:pageopacity="0.0"
     inkscape:pagecheckerboard="0"
     showgrid="false"
     inkscape:zoom="14.019535"
     inkscape:cx="49.038715"
     inkscape:cy="9.0231236"
     inkscape:window-width="1920"
     inkscape:window-height="1001"
     inkscape:window-x="-9"
     inkscape:window-y="-9"
     inkscape:window-maximized="1"
     inkscape:current-layer="svg32" />
  <path
     d="M 9.619241759901131 8.704017150225534 C 9.956114020057063 8.704017150225534 10.371109904274771 8.76399089929749 10.864229412554256 8.883939352346172 C 11.905261819800385 9.137163864337834 12.8056128816014 9.495897714329981 13.565284507766846 9.960140902322616 C 14.32495613393229 10.42438504522002 15.176070395910864 11.008207138114807 16.1186263387978 11.711606226102205 C 15.211383729261659 12.170969850713034 14.168207560803758 12.400651185566062 12.989095923614554 12.400651185566062 C 12.723796640788658 12.400651185566062 12.45161535927535 12.38902331016484 12.172553033979401 12.365768514267165 C 10.653210736553286 12.239155780818948 9.3484030744964 11.792497164191472 8.258132912523058 11.025791709479964 C 7.167863705454489 10.259086254768457 6.897054622097669 9.78780828332499 7.445706139904986 9.61195779514956 C 7.994358612617073 9.436108261878905 8.441018184149321 9.207503104703234 8.78568342214457 8.92614327852732 C 8.967086681565636 8.778059511294387 9.244939142516232 8.704017150225534 9.619241759901131 8.704017150225534 ZM 16.87829701005847 11.880422885731571 L 17.743478929129175 12.070340076094354 C 17.743478929129175 12.295428318996994 17.539492171864723 12.478311680813713 17.131522476954906 12.618992071354056 C 16.899402315315747 12.634818663035082 16.657389340244983 12.642731958875595 16.405485461552153 12.642731958875595 C 15.985642480714866 12.642731958875595 15.538322115080815 12.620750051038186 15.063526274459544 12.576788145172907 C 15.977946903162229 12.464244023721587 16.582870481695206 12.232122907177656 16.87829701005847 11.880422885731571 ZM 18.207723072026578 12.196952809542571 L 18.73527358164809 12.302462147543055 C 18.791544210016596 12.471278807172421 18.594593191107748 12.640094511897015 18.144416705302472 12.808910216621609 L 17.532460253128203 12.76670629044046 C 17.968567172031815 12.569755271531616 18.193655414934454 12.379837126264063 18.207723072026578 12.196952809542571 ZM 19.009598624373172 12.407972440448313 L 19.36833342927009 12.49238029281061 C 19.283925576907794 12.731536192805375 19.030702019820904 12.851114142802757 18.608660848199875 12.851114142802757 C 18.847816748194642 12.696366095170289 18.98146331018892 12.548652830988656 19.009598624373172 12.407972440448313 ZM 19.600455500718795 12.618992071354056 C 19.938086910167982 12.71746853571325 20.163175153070622 12.87925041189178 20.27571831961717 13.10433865479442 L 19.326128548184172 12.893318068983906 C 19.509013819810434 12.808910216621609 19.600455500718795 12.71746853571325 19.600455500718795 12.618992071354056 ZM 17.405847519679988 13.864010280959864 C 18.46094662911347 13.99062205950331 19.255788352914 14.28604954277135 19.790372691081576 14.750293685668755 L 17.173725448231284 14.138336278589716 C 17.20186267222508 13.983587276052475 17.279236696041313 13.892145595144116 17.405847519679988 13.864010280959864 ZM 5.187792747046841 0.40093762696942586 C 5.848988863757863 0.40093762696942586 6.3484031042903535 0.5838216154424017 6.686035468644312 0.9495895923883535 C 7.0236668780935005 1.3153575693343054 7.129177170998758 2.198124417859453 7.0025653924553115 3.5978901976453446 C 6.875952659007095 4.997655977431236 6.8337487328259465 5.947245271411848 6.875953136459481 6.446659034491953 C 6.918156585188243 6.946073275024443 7.048285755457107 7.315357867835686 7.266340169813683 7.554513290378066 C 7.4843936292654885 7.793669667825216 7.748168406623859 8.029308176094565 8.05766402443641 8.261430247543267 C 8.367160119701346 8.49355231899197 8.212412072068878 8.70105503562468 7.5934203589913905 8.883939352346172 C 6.974429123366289 9.06682271416289 6.629762930466267 9.33763179751971 6.559423212648482 9.69636660241663 C 6.48908301737831 10.055099497504006 6.577008261466024 10.385698033311902 6.823197990006852 10.688160300030777 C 7.069388196000066 10.99062256674965 7.656726725715499 11.398594171469009 8.585214534057924 11.912075114188854 C 9.513701864947961 12.42555701181347 10.333162943564483 12.752637678443564 11.043595860097945 12.893318068983906 C 11.754030686440949 13.033998459524248 13.931053141209826 13.10433865479442 17.57466322440458 13.10433865479442 C 18.700104438917776 13.315358285700162 19.445707453086325 13.596718111876076 19.811474176719763 13.94841813332216 L 17.405847519679988 13.399766138062459 C 17.18076118658689 13.47010633333263 17.00490974350669 13.60375194042214 16.87829701005847 13.800703914235756 C 16.87829701005847 14.166472547678739 16.083455286257944 14.37749217858448 14.493772793561655 14.433763761857755 C 14.254616893566888 14.433763761857755 14.092834062483586 14.103166180954629 14.008427165026061 13.441970064243609 L 13.755202653034399 13.652989695149351 C 13.881814431577844 14.187574033316928 13.91698452921293 14.658852004760394 13.860712945939655 15.066823609479753 C 13.663760972126038 14.588511809490223 13.319094779226017 14.271981885679224 12.826715322144361 14.117233838046756 C 12.038906471985122 13.976553447506413 11.335507383997724 13.846424754689936 10.71651519346785 13.726846804692553 C 10.097523002937978 13.607269809599941 9.471497938766813 13.350529338240019 8.838438091144814 12.956624435708015 C 8.275718438792987 12.520516561899633 7.371849507814169 12.049238590456165 6.126831775660745 11.542790521377611 C 4.881814043507322 11.03634340720383 4.259305416156803 10.283705609584448 4.259305416156803 9.284877128519467 C 4.259305416156803 8.286049602359258 4.593420388785345 7.459554695196674 5.261649856590044 6.805393361936487 C 5.929879801847128 6.151231551223914 6.2639942970232845 5.366941047694864 6.2639942970232845 4.452521373896952 C 6.2639942970232845 4.002345365544058 6.207722713750011 3.5767882345547704 6.095179069751077 3.175850219655281 C 5.993352799453844 2.8130966980279646 5.689997219321334 2.6317199372143065 5.185112329353548 2.6317199372143065 C 5.131966626849421 2.6317199372143065 5.076588356989783 2.6337295343056977 5.0189770423222475 2.6377489672146734 L 3.2464102329044677 2.869871038663376 C 3.3026820549039346 2.6869874381204633 3.387089668540039 2.5181714946696765 3.4996335512651657 2.363423447037208 C 3.6403134643531225 1.9273154538657298 3.795061511985591 1.6740914193264531 3.9638776941625706 1.6037515821455712 C 3.9884963327999836 1.6899181303705768 4.083125485835245 1.733001523846176 4.247764437089777 1.733001523846176 C 4.271284696513898 1.733001523846176 4.296233016023633 1.732122295277918 4.32261082797614 1.7303637187783059 C 4.603971609056825 1.7162955842337946 4.765753485235356 1.5756155517827413 4.8079574114165045 1.308323860151339 C 4.7798216197798675 1.0410321685199366 4.6180397436013365 0.9003521360688832 4.32261082797614 0.8862840612059201 C 4.069387270889249 0.9003521360688832 3.9287073578012923 1.0410321685199366 3.9005710887122693 1.308323860151339 C 3.6754838007144013 1.5193437297832741 3.4996337899913588 1.765533697050295 3.373021295269335 2.046893523226209 C 3.3320964640294637 2.0673559388461444 3.2921017100369276 2.0775870272930157 3.2530370332917253 2.0775870272930157 C 3.1846734908983327 2.0775870272930157 3.119158190711805 2.046253737029377 3.0564913714583355 1.9835869177759076 C 3.225307553635315 1.6459552696005268 3.471497998354722 1.2977725205167625 3.7950622281641695 0.9390390286139039 C 4.118625980521232 0.5803047608509185 4.582869168513866 0.40093762696942586 5.187792747046841 0.40093762696942586 ZM 9.977946007845366 14.159437764227905 L 10.653208826743741 14.328253468952498 L 9.89353815548307 15.425557459471902 L 9.977946007845366 14.159437764227905 ZM 11.286269629270512 14.391559835676606 C 11.84898928162234 14.391559835676606 12.32378416733884 14.451348333222912 12.71065428642001 14.570927238125066 C 13.09752440550118 14.690504233217677 13.336679350591174 15.144197633295988 13.428121986404305 15.932005528550455 C 13.517959427296729 16.705992132143816 13.400721948894024 17.092986388845265 13.07640859629142 17.092986388845265 C 13.070618053757709 17.092986388845265 13.064760667889999 17.092862251224986 13.058837393593063 17.09261588579397 L 11.03304511727885 17.09261588579397 C 10.988356528882543 17.089306185856326 10.942987093384234 17.087650380982737 10.896935855879153 17.087650380982737 C 10.551564943257846 17.087650380982737 10.167861288398607 17.180747866764687 9.745823936396663 17.366940928519046 C 9.858368057847983 16.382182014355735 10.3718499554726 15.390387361836815 11.286269629270512 14.391559835676606 ZM 5.187792747046841 0.0 C 4.231169147067781 0.0 3.443361967991892 0.5345838607151904 2.8243702549144043 1.6037515821455712 C 2.613350385282469 1.9554513648654634 1.9873244855696295 2.3071511475853557 0.946292317049693 2.6588511690314407 C 0.22882448278191372 2.869871038663376 -0.08067132899566878 3.165298999383801 0.017804894772284054 3.545135051192716 L 0.03890708726380924 3.798358369553414 C 1.3753664816751086 3.6717465910099687 2.493771957832701 3.5099647148314377 3.3941234970861016 3.3130129797440135 L 5.040079482865207 3.0175852577497815 C 5.048381902400062 3.0173546482474904 5.056615568791377 3.017239343496345 5.064780004586766 3.017239343496345 C 5.5546451974053515 3.017239343496345 5.796118651280282 3.432360558965298 5.789199888759171 4.2626027511770115 C 5.782166060213108 5.106682229704753 5.4269491244939925 5.862836941597166 4.723549559054208 6.5310668868542505 C 4.020149993614424 7.199296832111335 3.661415904896083 8.166471652361876 3.6473477703515713 9.432591347605873 C 3.6473477703515713 10.459556097759878 4.136210551886389 11.19460836910933 5.11393659240841 11.637750071463774 C 6.09166167802566 12.08089177381822 7.037734535185626 12.555685704629948 7.952154686435924 13.062133773708501 C 8.866573405329065 13.568581842787054 9.387089131499744 13.962486745319058 9.513701864947961 14.243845616590201 C 9.44336166967779 15.735053554736838 9.26047830786107 16.698711938166735 8.96504986968826 17.134818857070343 C 8.472670412606604 17.134818857070343 7.614522322081965 17.064478661800173 6.390606553019116 16.92379827125983 C 6.01077121738878 16.980070809437876 5.75051335430344 17.10316567370829 5.609832486310712 17.293084773880615 C 5.469153528127526 17.48300387405294 5.497289319764163 17.69050468087611 5.69424129357778 17.91559292377875 C 5.7882960713930505 17.77973671214347 5.878469161312617 17.711806696516287 5.9647610407888685 17.711806696516287 C 5.99463093949035 17.711806696516287 6.024035799568166 17.719946304787623 6.052975621022314 17.73622552133029 C 6.165519265021248 17.799531888054396 6.446879091197162 17.831185071416453 6.897054144645284 17.831185071416453 L 8.96504986968826 17.831185071416453 C 9.066651737364214 17.811645809984256 9.162826881224358 17.801877134172933 9.253573391459145 17.801877134172933 C 9.489516991802953 17.801877134172933 9.68877028611562 17.867918348162302 9.851334229301921 18.000000776141047 C 10.048286203115538 17.98593311904892 10.21710095293536 17.929660580870873 10.357781343475702 17.831185071416453 C 10.978782653644581 17.849272877596132 11.498366392758383 17.8583158257812 11.916529696102794 17.8583158257812 C 12.474082358736627 17.8583158257812 12.85133372205558 17.842239049050068 13.048285695869197 17.810083585778262 C 13.39295188876922 17.753811047600216 13.705964898307187 17.704574247777778 13.987324724483102 17.662369366691856 L 14.704792424467398 17.89449143814056 C 14.713104870502352 17.89513122433739 14.721098378343662 17.895450162531034 14.728771038181785 17.895450162531034 C 14.889915037973028 17.895450162531034 14.91005779922074 17.754450833797048 14.789201231734465 17.47245026651953 C 14.170209041204592 17.134818857070343 14.02952865066425 16.28370459509177 14.367161015018208 14.919109390393348 L 14.367161015018208 14.919109390393348 C 14.486100133723532 14.921667580275903 14.601202445057407 14.922946197764796 14.712467949019834 14.922946197764796 C 15.825117259215483 14.922946197764796 16.55409538131412 14.795054846827687 16.899400405506203 14.539274054763013 C 18.306200491290543 14.792496656945131 19.452741281632388 15.03868734039073 20.33902468634128 15.277843240385495 L 20.486738905427682 15.024620638203377 C 20.1209702719847 14.616648078579246 19.84664522925962 14.356389738041521 19.6637618674429 14.243845616590201 L 19.6637618674429 14.243845616590201 L 20.59224824342817 14.433763761857755 C 20.74230770863311 14.490035345131028 20.8462548224276 14.518171614220051 20.90408958481164 14.518171614220051 C 21.01975910957972 14.518171614220051 20.95098304832509 14.405627492768732 20.697759491238198 14.180540204770864 C 20.641486953060152 14.025792157138396 20.23351534834079 13.723330845324293 19.473842767270575 13.273154359519014 L 19.473842767270575 13.273154359519014 L 20.761063948152763 13.526377916605906 C 20.901744338693106 12.62602685480489 19.924019253075855 11.985932223732057 17.827886781491472 11.606096888101721 C 16.73058279097207 11.352873331014829 15.738790048262691 10.86049196412363 14.852506643553802 10.12895660704721 C 13.684862457764227 9.101993766702748 11.91932947689251 8.349355969083367 9.55590579112911 7.871043214189065 C 8.303853752977238 7.786635839279153 7.607488493535902 7.4032831119233995 7.466808580447945 6.72098550957419 C 7.326128667359988 6.038687429772594 7.32964558163302 4.95193465952467 7.477359800719425 3.4607274375566117 C 7.625073542353445 1.969519857499264 7.417570825720734 0.9988280632941434 6.854850695916521 0.5486519952597018 C 6.43281095665265 0.1828839884729759 5.877125132846886 0.0 5.187792747046841 0.0 Z"
     style="fill:#ffffff;stroke:none"
     id="path2" />
  <path
     d="M 27.177865186478382 7.937876256002994 C 26.496671245133623 7.991654064440127 26.120222241250442 8.332250793733436 26.04851793344977 8.959665719745715 C 26.138148499234912 9.640860143848613 26.514597503118093 9.999383372505463 27.177865186478382 10.035235888474404 C 27.84113286983867 9.999383372505463 28.190692728124215 9.640860143848613 28.226544278576878 8.959665719745715 C 28.172766470139745 8.332250793733436 27.8232066118542 7.991654064440127 27.177865186478382 7.937876256002994 ZM 27.25853214051315 5.679180301671352 C 27.742538692303153 5.679180301671352 28.190693210882355 5.768811229525099 28.602994730734476 5.948073085232593 C 29.01529576782846 6.127334940940088 29.378299957533752 6.373819539952137 29.692007299850356 6.687527123647811 C 30.0057151249251 7.001234707343485 30.252199844626684 7.3597576946212655 30.43146145895511 7.763095602723013 C 30.610722590525395 8.16643375220383 30.700352914931468 8.592179844854769 30.700352914931468 9.040334122054901 C 30.700352914931468 9.506413933102294 30.610722590525395 9.941123154745469 30.43146145895511 10.344461786984425 C 30.252199844626684 10.747799936465242 30.0057151249251 11.101841721315509 29.692007299850356 11.406586176018948 C 29.378299957533752 11.711330630722387 29.01529576782846 11.948851980052666 28.602994730734476 12.119151189526065 C 28.190693210882355 12.289449433483185 27.742538692303153 12.374598314082675 27.25853214051315 12.374598314082675 C 26.774526312860356 12.374598314082675 26.32189131599085 12.289449433483185 25.900626908525563 12.119151189526065 C 25.479361776923067 11.948851980052666 25.116357104459635 11.711330630722387 24.8116130118248 11.406586176018948 C 24.506868074363222 11.101841721315509 24.264865160536825 10.747799936465242 24.085604149656074 10.344461786984425 C 23.906342354293347 9.941123154745469 23.8167114264396 9.506413933102294 23.8167114264396 9.040334122054901 C 23.8167114264396 8.592179844854769 23.906342354293347 8.16643375220383 24.085604149656074 7.763095602723013 C 24.264865160536825 7.3597576946212655 24.506868074363222 7.001234707343485 24.8116130118248 6.687527123647811 C 25.116357104459635 6.373819539952137 25.479361776923067 6.127334940940088 25.900626908525563 5.948073085232593 C 26.32189131599085 5.768811229525099 26.774526312860356 5.679180301671352 27.25853214051315 5.679180301671352 ZM 27.204754814834157 4.764946937561035 C 26.61319119789547 4.764946937561035 26.057480338304796 4.876985476688684 25.53762175330399 5.101062554943983 C 25.017763409682257 5.325139663371665 24.569609615240264 5.629884118075104 24.193160490667548 6.015295949226683 C 23.8167114264396 6.400708564860238 23.516448355197976 6.848862238612696 23.292371276942678 7.359757211863126 C 23.068294998255546 7.870652909250765 22.956256866455078 8.421882083655788 22.956256866455078 9.013444493699126 C 22.956256866455078 9.605007145121533 23.068294998255546 10.156236319526556 23.292371276942678 10.667132016914195 C 23.516448355197976 11.178027714301834 23.8167114264396 11.621700306316313 24.193160490667548 11.998149310199494 C 24.569609615240264 12.374598314082675 25.017763409682257 12.67486180773767 25.53762175330399 12.898938825648202 C 26.057480338304796 13.123014878042454 26.61319119789547 13.23505338699772 27.204754814834157 13.23505338699772 C 27.796317466256564 13.23505338699772 28.347546157903448 13.123014878042454 28.85844088977481 12.898938825648202 C 29.369336587162447 12.67486180773767 29.81749062298351 12.374598314082675 30.202903479996134 11.998149310199494 C 30.58831537149248 11.621700306316313 30.89305982619592 11.178027714301834 31.11713636134831 10.667132016914195 C 31.34121434477512 10.156236319526556 31.453252853730387 9.605007145121533 31.453252853730387 9.013444493699126 C 31.453252853730387 8.421882083655788 31.34121434477512 7.870652909250765 31.11713636134831 7.359757211863126 C 30.89305982619592 6.848862238612696 30.58831537149248 6.400708564860238 30.202903479996134 6.015295949226683 C 29.81749062298351 5.629884118075104 29.369336587162447 5.325139663371665 28.85844088977481 5.101062554943983 C 28.347546157903448 4.876985476688684 27.796317466256564 4.764946937561035 27.204754814834157 4.764946937561035 Z"
     style="fill:#ffffff;stroke:none"
     id="path4" />
  <path
     d="M 42.791217630075664 2.9892379897054955 C 43.068835731278675 2.9892379897054955 43.408691041004865 3.095985977015074 43.50778172773154 3.340333519869274 L 43.47130011263709 11.279334014803599 L 43.47130011263709 11.279334014803599 C 43.33048932130826 10.960512872387417 42.91219094789365 10.367342335933275 41.66974612501964 9.632436990092634 L 42.61300693482894 3.06154244747758 C 42.65725846576657 3.0145252182361735 42.656098295835605 2.9892379897054955 42.791217630075664 2.9892379897054955 ZM 43.47130011263709 11.279334014803599 L 43.47130011263709 11.279334014803599 C 43.47130011263709 11.279334014803599 43.47130029167566 11.279334014803599 43.47130029167566 11.279334014803599 L 43.47130011263709 11.279334014803599 L 43.47130011263709 11.279334014803599 ZM 42.65921016521369 2.25 C 42.446704811000096 2.25 42.254900701876345 2.280338063237631 42.11910334857324 2.317373030601139 L 40.9532527923584 10.098160711168036 C 41.56997155571676 10.520569989179059 43.264807589744684 11.67797341616124 43.19722267818634 12.683307927520042 L 43.2098602946596 15.75000086141948 L 44.07063691646657 15.73816856043225 L 44.065809678553215 3.119482909369111 C 43.80984432291815 2.427915471835376 43.173828603490534 2.25 42.65921016521369 2.25 Z"
     style="fill:#ffffff;stroke:none"
     id="path6" />
  <path
     d="M 59.156869683741334 4.056679974908366 L 59.156869683741334 5.839270883484621 L 46.02832853274054 5.839270883484621 L 46.02832853274054 4.056679974908366 ZM 46.076506665404764 2.25 L 46.076506665404764 3.5989877145982474 L 45.57063627243042 3.5989877145982474 L 45.57063627243042 6.296963143794741 L 59.61456194405146 6.296963143794741 L 59.61456194405146 3.5989877145982474 L 59.20504781640556 3.5989877145982474 L 59.20504781640556 2.25 L 58.74735555609544 2.25 L 58.74735555609544 3.5989877145982474 L 57.6151694384862 3.5989877145982474 L 57.6151694384862 2.25 L 57.15747717817608 2.25 L 57.15747717817608 3.5989877145982474 L 56.025291060566836 3.5989877145982474 L 56.025291060566836 2.25 L 55.56759880025672 2.25 L 55.56759880025672 3.5989877145982474 L 54.459501748979584 3.5989877145982474 L 54.459501748979584 2.25 L 53.977720422337356 2.25 L 53.977720422337356 3.5989877145982474 L 52.86962337106022 3.5989877145982474 L 52.86962337106022 2.25 L 52.4119311107501 2.25 L 52.4119311107501 3.5989877145982474 L 51.27974499314086 3.5989877145982474 L 51.27974499314086 2.25 L 50.82205273283074 2.25 L 50.82205273283074 3.5989877145982474 L 49.6898666152215 3.5989877145982474 L 49.6898666152215 2.25 L 49.23217435491138 2.25 L 49.23217435491138 3.5989877145982474 L 48.124077303634245 3.5989877145982474 L 48.124077303634245 2.25 L 47.66638504332413 2.25 L 47.66638504332413 3.5989877145982474 L 46.53419892571488 3.5989877145982474 L 46.53419892571488 2.25 Z"
     style="fill:#ffffff;stroke:none"
     id="path8" />
  <path
     d="M 46.919623987028665 7.736277055008216 L 46.63055519104333 8.362592779643116 L 45.71517067042309 10.4101634178726 L 45.57063627243042 10.699232213857938 L 46.17286293073321 10.988301009843276 L 46.317397328725875 10.675143147525826 L 46.94371305336078 9.253888233931244 L 47.25687091567823 9.80793675956981 L 47.545939711663564 10.386074351540486 L 47.83500850764891 9.80793675956981 L 48.17225543629847 9.205710101267021 L 48.48541329861592 9.80793675956981 L 48.774482094601254 10.386074351540486 L 49.0635508905866 9.80793675956981 L 49.376708752904044 9.205710101267021 L 49.71395568155361 9.80793675956981 L 50.00302447753894 10.386074351540486 L 50.29209327352429 9.80793675956981 L 50.60525113584173 9.229799167599133 L 50.91840899815919 9.80793675956981 L 51.23156686047663 10.386074351540486 L 51.52063565646198 9.80793675956981 L 51.83379351877942 9.205710101267021 L 52.146951381096876 9.80793675956981 L 52.46010924341432 10.386074351540486 L 52.749178039399666 9.80793675956981 L 53.06233590171711 9.205710101267021 L 53.375493764034566 9.80793675956981 L 53.68865162635201 10.386074351540486 L 53.977720422337356 9.80793675956981 L 54.2908782846548 9.205710101267021 L 54.604036146972255 9.80793675956981 L 54.89310494295759 10.386074351540486 L 55.206262805275045 9.80793675956981 L 55.51942066759249 9.205710101267021 L 55.832578529909945 9.80793675956981 L 56.12164732589528 10.386074351540486 L 56.434805188212735 9.80793675956981 L 56.74796305053018 9.205710101267021 L 57.085209979179744 9.83202582590192 L 57.37427877516508 10.361985285208377 L 57.687436637482534 9.83202582590192 L 58.0246835661321 9.18162103493491 L 58.867800887756 10.699232213857938 L 59.03642435208078 10.988301009843276 L 59.61456194405146 10.675143147525826 L 59.47002754605879 10.386074351540486 L 58.313752362117434 8.314414646978893 L 58.0246835661321 7.808544254004551 L 57.73561477014675 8.338503713311004 L 57.37427877516508 8.964819437945906 L 57.03703184651552 8.338503713311004 L 56.72387398419807 7.784455187672439 L 56.458894254544845 8.338503713311004 L 56.12164732589528 8.940730371613794 L 55.80848946357783 8.338503713311004 L 55.51942066759249 7.760366121340327 L 55.230351871607155 8.338503713311004 L 54.9171940092897 8.940730371613794 L 54.57994708064014 8.338503713311004 L 54.2908782846548 7.760366121340327 L 54.001809488669466 8.338503713311004 L 53.6645625600199 8.940730371613794 L 53.35140469770245 8.338503713311004 L 53.06233590171711 7.760366121340327 L 52.773267105731776 8.338503713311004 L 52.46010924341432 8.940730371613794 L 52.12286231476476 8.338503713311004 L 51.83379351877942 7.760366121340327 L 51.544724722794086 8.338503713311004 L 51.23156686047663 8.916641305281683 L 50.91840899815919 8.338503713311004 L 50.60525113584173 7.760366121340327 L 50.3161823398564 8.338503713311004 L 50.00302447753894 8.940730371613794 L 49.6898666152215 8.338503713311004 L 49.376708752904044 7.760366121340327 L 49.08763995691871 8.338503713311004 L 48.774482094601254 8.940730371613794 L 48.46132423228381 8.338503713311004 L 48.17225543629847 7.760366121340327 L 47.85909757398102 8.338503713311004 L 47.545939711663564 8.940730371613794 L 47.23278184934612 8.338503713311004 L 46.919623987028665 7.736277055008216 Z"
     style="fill:#ffffff;stroke:none"
     id="path10" />
  <path
     d="M 57.36750870551475 13.021470375459153 Q 57.07860237191919 13.310375015381036 57.07860237191919 14.080782003492336 Q 57.07860237191919 14.867237722175602 57.36750870551475 15.156141623829475 L 47.833708265686504 15.156141623829475 Q 48.1226114724999 14.867237722175602 48.1226114724999 14.080782003492336 Q 48.1226114724999 13.310375015381036 47.833708265686504 13.021470375459153 ZM 45.98794087554252 12.42761457984745 Q 45.57063627243042 12.42761457984745 45.58668644832487 12.700466841284847 Q 45.57063627243042 13.021470375459153 45.98794087554252 13.021470375459153 L 47.03120086335923 13.021470375459153 Q 47.416408787022945 13.310375015381036 47.416408787022945 14.080782003492336 Q 47.416408787022945 14.867237722175602 47.03120086335923 15.156141623829475 L 46.00399177749099 15.156141623829475 Q 45.57063627243042 15.156141623829475 45.57063627243042 15.428995405230422 Q 45.57063627243042 15.749998852549668 45.98794087554252 15.749998852549668 L 59.21327739848463 15.749998852549668 Q 59.61456167262939 15.749998852549668 59.61456167262939 15.428995405230422 Q 59.61456167262939 15.156141623829475 59.19722519371026 15.156141623829475 L 58.17001749752298 15.156141623829475 Q 57.78481044240987 14.867237722175602 57.78481044240987 14.080782003492336 Q 57.78481044240987 13.310375015381036 58.17001749752298 13.021470375459153 L 59.21327739848463 13.021470375459153 Q 59.61456167262939 13.021470375459153 59.61456167262939 12.700466841284847 Q 59.61456167262939 12.42761457984745 59.21327739848463 12.42761457984745 Z"
     style="fill:#ffffff;stroke:none"
     id="path12" />
  <path
     d="M 62.95252448813841 2.9892379897054955 C 63.23014258934142 2.9892379897054955 63.56999789906761 3.095985977015074 63.669088585794285 3.340333519869274 L 63.63260697069983 11.279334014803599 L 63.63260697069983 11.279334014803599 C 63.491796179371 10.960512872387417 63.07349780595639 10.367342335933275 61.83105298308239 9.632436990092634 L 62.77431379289168 3.06154244747758 C 62.81856532382931 3.0145252182361735 62.81740515389835 2.9892379897054955 62.95252448813841 2.9892379897054955 ZM 63.63260697069983 11.279334014803599 L 63.63260697069983 11.279334014803599 C 63.63260697069983 11.279334014803599 63.632607149738405 11.279334014803599 63.632607149738405 11.279334014803599 L 63.63260697069983 11.279334014803599 L 63.63260697069983 11.279334014803599 ZM 62.82051702327644 2.25 C 62.60801166906284 2.25 62.41620755993909 2.280338063237631 62.280410206635985 2.317373030601139 L 61.11455965042114 10.098160711168036 C 61.731278413779506 10.520569989179059 63.42611444780743 11.67797341616124 63.35852953624909 12.683307927520042 L 63.37116715272234 15.75000086141948 L 64.23194377452931 15.73816856043225 L 64.22711653661595 3.119482909369111 C 63.9711511809809 2.427915471835376 63.33513546155328 2.25 62.82051702327644 2.25 Z"
     style="fill:#ffffff;stroke:none"
     id="path14" />
  <path
     d="M 79.11483295634389 4.029639604501426 L 79.11483295634389 5.785550680942833 L 66.18278516363353 5.785550680942833 L 66.18278516363353 4.029639604501426 ZM 66.23024221975356 2.25 L 66.23024221975356 3.578797571361065 L 65.73194313049316 3.578797571361065 L 65.73194313049316 6.236392714083195 L 79.56567498948425 6.236392714083195 L 79.56567498948425 3.578797571361065 L 79.16229001246393 3.578797571361065 L 79.16229001246393 2.25 L 78.71144797932357 2.25 L 78.71144797932357 3.578797571361065 L 77.59620716050267 3.578797571361065 L 77.59620716050267 2.25 L 77.14536512736231 2.25 L 77.14536512736231 3.578797571361065 L 76.03012430854142 3.578797571361065 L 76.03012430854142 2.25 L 75.57928227540106 2.25 L 75.57928227540106 3.578797571361065 L 74.48776998464018 3.578797571361065 L 74.48776998464018 2.25 L 74.0131994234398 2.25 L 74.0131994234398 3.578797571361065 L 72.92168713267893 3.578797571361065 L 72.92168713267893 2.25 L 72.47084509953856 2.25 L 72.47084509953856 3.578797571361065 L 71.35560428071767 3.578797571361065 L 71.35560428071767 2.25 L 70.90476224757731 2.25 L 70.90476224757731 3.578797571361065 L 69.78952142875642 3.578797571361065 L 69.78952142875642 2.25 L 69.33867939561605 2.25 L 69.33867939561605 3.578797571361065 L 68.24716710485518 3.578797571361065 L 68.24716710485518 2.25 L 67.79632507171482 2.25 L 67.79632507171482 3.578797571361065 L 66.68108425289392 3.578797571361065 L 66.68108425289392 2.25 Z"
     style="fill:#ffffff;stroke:none"
     id="path16" />
  <path
     d="M 67.06074070185423 12.54664921760559 L 66.775998365134 13.163590947166085 L 65.87431429885328 15.180515832267702 L 65.73194313049316 15.46525816898793 L 66.32515633199364 15.750000505708158 L 66.46752750035375 15.44152964092791 L 67.08446922991425 14.041546485386789 L 67.3929400946945 14.587302630767226 L 67.67768243141472 15.156787304207683 L 67.96242476813495 14.587302630767226 L 68.29462416097522 13.99408942926675 L 68.60309502575547 14.587302630767226 L 68.8878373624757 15.156787304207683 L 69.17257969919592 14.587302630767226 L 69.48105056397617 13.99408942926675 L 69.81324995681643 14.587302630767226 L 70.09799229353666 15.156787304207683 L 70.38273463025689 14.587302630767226 L 70.69120549503714 14.01781795732677 L 70.99967635981739 14.587302630767226 L 71.30814722459763 15.156787304207683 L 71.59288956131786 14.587302630767226 L 71.90136042609811 13.99408942926675 L 72.20983129087836 14.587302630767226 L 72.5183021556586 15.156787304207683 L 72.80304449237883 14.587302630767226 L 73.11151535715908 13.99408942926675 L 73.41998622193933 14.587302630767226 L 73.72845708671957 15.156787304207683 L 74.0131994234398 14.587302630767226 L 74.32167028822005 13.99408942926675 L 74.6301411530003 14.587302630767226 L 74.91488348972052 15.156787304207683 L 75.22335435450077 14.587302630767226 L 75.53182521928102 13.99408942926675 L 75.84029608406126 14.587302630767226 L 76.1250384207815 15.156787304207683 L 76.43350928556174 14.587302630767226 L 76.74198015034199 13.99408942926675 L 77.07417954318225 14.611031158827245 L 77.35892187990248 15.133058776147664 L 77.66739274468273 14.611031158827245 L 77.999592137523 13.970360901206732 L 78.83009061962366 15.46525816898793 L 78.9961903160438 15.750000505708158 L 79.56567498948425 15.44152964092791 L 79.42330382112414 15.156787304207683 L 78.28433447424322 13.116133891046047 L 77.999592137523 12.617834801785648 L 77.71484980080277 13.139862419106066 L 77.35892187990248 13.75680414866656 L 77.02672248706222 13.139862419106066 L 76.71825162228197 12.594106273725629 L 76.45723781362176 13.139862419106066 L 76.1250384207815 13.733075620606542 L 75.81656755600125 13.139862419106066 L 75.53182521928102 12.57037774566561 L 75.24708288256079 13.139862419106066 L 74.93861201778054 13.733075620606542 L 74.60641262494028 13.139862419106066 L 74.32167028822005 12.57037774566561 L 74.03692795149982 13.139862419106066 L 73.70472855865955 13.733075620606542 L 73.3962576938793 13.139862419106066 L 73.11151535715908 12.57037774566561 L 72.82677302043885 13.139862419106066 L 72.5183021556586 13.733075620606542 L 72.18610276281834 13.139862419106066 L 71.90136042609811 12.57037774566561 L 71.61661808937788 13.139862419106066 L 71.30814722459763 13.709347092546523 L 70.99967635981739 13.139862419106066 L 70.69120549503714 12.57037774566561 L 70.40646315831691 13.139862419106066 L 70.09799229353666 13.733075620606542 L 69.78952142875642 13.139862419106066 L 69.48105056397617 12.57037774566561 L 69.19630822725594 13.139862419106066 L 68.8878373624757 13.733075620606542 L 68.57936649769545 13.139862419106066 L 68.29462416097522 12.57037774566561 L 67.98615329619497 13.139862419106066 L 67.67768243141472 13.733075620606542 L 67.36921156663448 13.139862419106066 L 67.06074070185423 12.54664921760559 Z"
     style="fill:#ffffff;stroke:none"
     id="path18" />
  <path
     d="M 81.9241865924945 4.7753059444913895 Q 82.14421577392464 4.7753059444913895 82.38387794439576 4.996880661018119 Q 82.7702725806017 5.354112300445811 82.99627670865931 5.755087258317888 Q 83.22228011257972 6.156062940327173 83.22228011257972 6.433099733007891 Q 82.95982436570236 6.41851868720453 82.55155852286 6.199805353600047 Q 82.14329268001764 5.981092201029865 81.78606104058994 5.5874074039908646 Q 81.42882860913718 5.193722697469015 81.66212292065717 4.858361495281976 Q 81.78947512123686 4.7753059444913895 81.9241865924945 4.7753059444913895 ZM 88.06314169865136 6.447680778811252 Q 88.36934166914462 6.62265151810856 88.54431349464774 6.958012856071326 Q 88.71928314773923 7.293373107828279 88.74844560141456 7.665186788747993 Q 88.77760733095268 8.037000107599104 88.61721818056164 8.416104039869046 Q 88.28185792880468 8.16822861465784 88.1141767167204 7.832867276695074 Q 87.9464955046361 7.497505938732308 87.93191427779844 7.125693344018407 Q 87.91733305096078 6.753879844132994 88.06314169865136 6.447680778811252 ZM 84.62204819936981 8.18280875528969 Q 85.36567447500343 9.320120552099516 85.73019718043571 10.078326968364982 Q 86.09471988586799 10.836534108767657 85.9999437217662 11.93010367333891 Q 85.90516791973302 13.023671065498538 84.62204819936981 13.140318707788216 Q 83.338928116938 13.038252292336201 83.24415213387051 11.937392114346116 Q 83.14937615080304 10.836534108767657 83.51389885623531 10.078326968364982 Q 83.87842138063328 9.320120552099516 84.62204819936981 8.18280875528969 ZM 81.88630724665033 4.26153302192688 Q 81.61096660960565 4.26153302192688 81.3267625104952 4.523001085120009 Q 80.99140134790942 4.887523677405849 81.0861772659177 5.23746520125904 Q 81.18095318392598 5.5874074039908646 81.43611876997026 5.893606469312607 Q 81.69128510278104 6.199805353600047 82.04122662663423 6.447680778811252 Q 82.39116882936605 6.695556204022457 83.04730937328242 6.943431629233663 Q 83.61596490961873 7.103822046864819 84.03881179826445 7.716219996474001 Q 84.03881179826445 7.978676648522869 83.34621818725392 9.035792783931361 Q 82.65362530038063 10.092908195202645 82.55155852286 11.295832616233119 Q 82.4494924694766 12.49875848553801 83.069180670436 13.125738205087762 Q 83.67478603199174 13.738467628504301 84.57979406909546 13.738467628504301 Q 84.60084003086524 13.738467628504301 84.62204819936981 13.738135973662642 Q 84.64325636787439 13.738467628504301 84.66429870895813 13.738467628504301 Q 85.56914363415554 13.738467628504301 86.16762457178189 13.125738205087762 Q 86.78002161621956 12.49875848553801 86.68524653832358 11.295832616233119 Q 86.5904707362904 10.092908195202645 85.89787766838279 9.035792783931361 Q 85.20528496254379 7.978676648522869 85.1615416440994 7.453763706493737 Q 85.90516791973302 6.170643261993325 86.77273136486933 5.747797097484812 Q 86.990561251079 5.641627992158833 87.13577320970948 5.641627992158833 Q 87.5689057432699 5.641627992158833 87.3559681280433 6.586199356185913 Q 87.07164035987515 7.847448503532737 88.36934166914462 9.203471823604024 Q 88.7338650987141 9.84503204585423 89.02548239409528 11.040667663808895 L 89.09838635587197 11.609323924282412 Q 89.24419572769976 11.672507792304534 89.37380397775367 11.672507792304534 Q 89.63302047786148 11.672507792304534 89.82743249087373 11.419772320216046 L 89.5941386545688 10.880277065143437 Q 89.24419572769976 9.699223398163644 89.2296145008621 8.970178349367691 Q 89.43374805590334 7.453763706493737 89.20774410888002 6.870526943319765 Q 88.9817401618567 6.287290361180096 88.31830882348721 5.58011651902058 Q 87.82706500305277 5.056483942093868 87.187926295629 5.056483942093868 Q 86.96389779491146 5.056483942093868 86.72169888128053 5.120818011555118 Q 85.78852063951194 5.368693436766323 84.62204819936981 7.191307054444868 Q 83.93674502074383 6.783041211602507 83.73261200880549 6.2435479479072225 Q 83.49931762939765 5.5874074039908646 83.25144220418645 5.23746520125904 Q 83.00356677897524 4.887523677405849 82.6973678946878 4.6323573445950705 Q 82.39116882936605 4.377191758550789 82.04122662663423 4.282415840542506 Q 81.96412094922026 4.26153302192688 81.88630724665033 4.26153302192688 Z"
     style="fill:#ffffff;stroke:none"
     id="path20" />
  <path
     d="M 40.9532527923584 0.375 C 31.328252851963043 0.375 31.328252851963043 17.625 40.9532527923584 17.625 "
     style="fill:none;stroke:#ffffff;stroke-width:1"
     id="path22" />
  <path
     d="M 40.9532527923584 0.375 L 89.82743263244629 0.375 "
     style="fill:none;stroke:#ffffff;stroke-width:1"
     id="path24" />
  <path
     d="M 40.9532527923584 17.625 L 89.82743263244629 17.625 "
     style="fill:none;stroke:#ffffff;stroke-width:1"
     id="path26" />
  <path
     d="M 97.51493263244629 0.375 L 97.51493263244629 17.625 "
     style="fill:none;stroke:#ffffff;stroke-width:1"
     id="path28" />
  <path
     d="M 89.82743263244629 0.375 C 99.45243453979492 0.375 99.45243453979492 17.625 89.82743263244629 17.625 "
     style="fill:none;stroke:#ffffff;stroke-width:1"
     id="path30" />
</svg>
