<?xml version="1.0" encoding="UTF-8" standalone="no"?>
<svg
   width="138.88690185546875"
   height="18.0"
   version="1.1"
   id="svg44"
   sodipodi:docname="merneptahhotephermaat.svg"
   inkscape:version="1.1.1 (3bf5ae0d25, 2021-09-20)"
   xmlns:inkscape="http://www.inkscape.org/namespaces/inkscape"
   xmlns:sodipodi="http://sodipodi.sourceforge.net/DTD/sodipodi-0.dtd"
   xmlns="http://www.w3.org/2000/svg"
   xmlns:svg="http://www.w3.org/2000/svg">
  <defs
     id="defs48" />
  <sodipodi:namedview
     id="namedview46"
     pagecolor="#ffffff"
     bordercolor="#666666"
     borderopacity="1.0"
     inkscape:pageshadow="2"
     inkscape:pageopacity="0.0"
     inkscape:pagecheckerboard="0"
     showgrid="false"
     inkscape:zoom="9.9001416"
     inkscape:cx="69.443451"
     inkscape:cy="9.0402747"
     inkscape:window-width="1920"
     inkscape:window-height="1001"
     inkscape:window-x="-9"
     inkscape:window-y="-9"
     inkscape:window-maximized="1"
     inkscape:current-layer="svg44" />
  <path
     d="M 9.619241759901131 8.704017150225534 C 9.956114020057063 8.704017150225534 10.371109904274771 8.76399089929749 10.864229412554256 8.883939352346172 C 11.905261819800385 9.137163864337834 12.8056128816014 9.495897714329981 13.565284507766846 9.960140902322616 C 14.32495613393229 10.42438504522002 15.176070395910864 11.008207138114807 16.1186263387978 11.711606226102205 C 15.211383729261659 12.170969850713034 14.168207560803758 12.400651185566062 12.989095923614554 12.400651185566062 C 12.723796640788658 12.400651185566062 12.45161535927535 12.38902331016484 12.172553033979401 12.365768514267165 C 10.653210736553286 12.239155780818948 9.3484030744964 11.792497164191472 8.258132912523058 11.025791709479964 C 7.167863705454489 10.259086254768457 6.897054622097669 9.78780828332499 7.445706139904986 9.61195779514956 C 7.994358612617073 9.436108261878905 8.441018184149321 9.207503104703234 8.78568342214457 8.92614327852732 C 8.967086681565636 8.778059511294387 9.244939142516232 8.704017150225534 9.619241759901131 8.704017150225534 ZM 16.87829701005847 11.880422885731571 L 17.743478929129175 12.070340076094354 C 17.743478929129175 12.295428318996994 17.539492171864723 12.478311680813713 17.131522476954906 12.618992071354056 C 16.899402315315747 12.634818663035082 16.657389340244983 12.642731958875595 16.405485461552153 12.642731958875595 C 15.985642480714866 12.642731958875595 15.538322115080815 12.620750051038186 15.063526274459544 12.576788145172907 C 15.977946903162229 12.464244023721587 16.582870481695206 12.232122907177656 16.87829701005847 11.880422885731571 ZM 18.207723072026578 12.196952809542571 L 18.73527358164809 12.302462147543055 C 18.791544210016596 12.471278807172421 18.594593191107748 12.640094511897015 18.144416705302472 12.808910216621609 L 17.532460253128203 12.76670629044046 C 17.968567172031815 12.569755271531616 18.193655414934454 12.379837126264063 18.207723072026578 12.196952809542571 ZM 19.009598624373172 12.407972440448313 L 19.36833342927009 12.49238029281061 C 19.283925576907794 12.731536192805375 19.030702019820904 12.851114142802757 18.608660848199875 12.851114142802757 C 18.847816748194642 12.696366095170289 18.98146331018892 12.548652830988656 19.009598624373172 12.407972440448313 ZM 19.600455500718795 12.618992071354056 C 19.938086910167982 12.71746853571325 20.163175153070622 12.87925041189178 20.27571831961717 13.10433865479442 L 19.326128548184172 12.893318068983906 C 19.509013819810434 12.808910216621609 19.600455500718795 12.71746853571325 19.600455500718795 12.618992071354056 ZM 17.405847519679988 13.864010280959864 C 18.46094662911347 13.99062205950331 19.255788352914 14.28604954277135 19.790372691081576 14.750293685668755 L 17.173725448231284 14.138336278589716 C 17.20186267222508 13.983587276052475 17.279236696041313 13.892145595144116 17.405847519679988 13.864010280959864 ZM 5.187792747046841 0.40093762696942586 C 5.848988863757863 0.40093762696942586 6.3484031042903535 0.5838216154424017 6.686035468644312 0.9495895923883535 C 7.0236668780935005 1.3153575693343054 7.129177170998758 2.198124417859453 7.0025653924553115 3.5978901976453446 C 6.875952659007095 4.997655977431236 6.8337487328259465 5.947245271411848 6.875953136459481 6.446659034491953 C 6.918156585188243 6.946073275024443 7.048285755457107 7.315357867835686 7.266340169813683 7.554513290378066 C 7.4843936292654885 7.793669667825216 7.748168406623859 8.029308176094565 8.05766402443641 8.261430247543267 C 8.367160119701346 8.49355231899197 8.212412072068878 8.70105503562468 7.5934203589913905 8.883939352346172 C 6.974429123366289 9.06682271416289 6.629762930466267 9.33763179751971 6.559423212648482 9.69636660241663 C 6.48908301737831 10.055099497504006 6.577008261466024 10.385698033311902 6.823197990006852 10.688160300030777 C 7.069388196000066 10.99062256674965 7.656726725715499 11.398594171469009 8.585214534057924 11.912075114188854 C 9.513701864947961 12.42555701181347 10.333162943564483 12.752637678443564 11.043595860097945 12.893318068983906 C 11.754030686440949 13.033998459524248 13.931053141209826 13.10433865479442 17.57466322440458 13.10433865479442 C 18.700104438917776 13.315358285700162 19.445707453086325 13.596718111876076 19.811474176719763 13.94841813332216 L 17.405847519679988 13.399766138062459 C 17.18076118658689 13.47010633333263 17.00490974350669 13.60375194042214 16.87829701005847 13.800703914235756 C 16.87829701005847 14.166472547678739 16.083455286257944 14.37749217858448 14.493772793561655 14.433763761857755 C 14.254616893566888 14.433763761857755 14.092834062483586 14.103166180954629 14.008427165026061 13.441970064243609 L 13.755202653034399 13.652989695149351 C 13.881814431577844 14.187574033316928 13.91698452921293 14.658852004760394 13.860712945939655 15.066823609479753 C 13.663760972126038 14.588511809490223 13.319094779226017 14.271981885679224 12.826715322144361 14.117233838046756 C 12.038906471985122 13.976553447506413 11.335507383997724 13.846424754689936 10.71651519346785 13.726846804692553 C 10.097523002937978 13.607269809599941 9.471497938766813 13.350529338240019 8.838438091144814 12.956624435708015 C 8.275718438792987 12.520516561899633 7.371849507814169 12.049238590456165 6.126831775660745 11.542790521377611 C 4.881814043507322 11.03634340720383 4.259305416156803 10.283705609584448 4.259305416156803 9.284877128519467 C 4.259305416156803 8.286049602359258 4.593420388785345 7.459554695196674 5.261649856590044 6.805393361936487 C 5.929879801847128 6.151231551223914 6.2639942970232845 5.366941047694864 6.2639942970232845 4.452521373896952 C 6.2639942970232845 4.002345365544058 6.207722713750011 3.5767882345547704 6.095179069751077 3.175850219655281 C 5.993352799453844 2.8130966980279646 5.689997219321334 2.6317199372143065 5.185112329353548 2.6317199372143065 C 5.131966626849421 2.6317199372143065 5.076588356989783 2.6337295343056977 5.0189770423222475 2.6377489672146734 L 3.2464102329044677 2.869871038663376 C 3.3026820549039346 2.6869874381204633 3.387089668540039 2.5181714946696765 3.4996335512651657 2.363423447037208 C 3.6403134643531225 1.9273154538657298 3.795061511985591 1.6740914193264531 3.9638776941625706 1.6037515821455712 C 3.9884963327999836 1.6899181303705768 4.083125485835245 1.733001523846176 4.247764437089777 1.733001523846176 C 4.271284696513898 1.733001523846176 4.296233016023633 1.732122295277918 4.32261082797614 1.7303637187783059 C 4.603971609056825 1.7162955842337946 4.765753485235356 1.5756155517827413 4.8079574114165045 1.308323860151339 C 4.7798216197798675 1.0410321685199366 4.6180397436013365 0.9003521360688832 4.32261082797614 0.8862840612059201 C 4.069387270889249 0.9003521360688832 3.9287073578012923 1.0410321685199366 3.9005710887122693 1.308323860151339 C 3.6754838007144013 1.5193437297832741 3.4996337899913588 1.765533697050295 3.373021295269335 2.046893523226209 C 3.3320964640294637 2.0673559388461444 3.2921017100369276 2.0775870272930157 3.2530370332917253 2.0775870272930157 C 3.1846734908983327 2.0775870272930157 3.119158190711805 2.046253737029377 3.0564913714583355 1.9835869177759076 C 3.225307553635315 1.6459552696005268 3.471497998354722 1.2977725205167625 3.7950622281641695 0.9390390286139039 C 4.118625980521232 0.5803047608509185 4.582869168513866 0.40093762696942586 5.187792747046841 0.40093762696942586 ZM 9.977946007845366 14.159437764227905 L 10.653208826743741 14.328253468952498 L 9.89353815548307 15.425557459471902 L 9.977946007845366 14.159437764227905 ZM 11.286269629270512 14.391559835676606 C 11.84898928162234 14.391559835676606 12.32378416733884 14.451348333222912 12.71065428642001 14.570927238125066 C 13.09752440550118 14.690504233217677 13.336679350591174 15.144197633295988 13.428121986404305 15.932005528550455 C 13.517959427296729 16.705992132143816 13.400721948894024 17.092986388845265 13.07640859629142 17.092986388845265 C 13.070618053757709 17.092986388845265 13.064760667889999 17.092862251224986 13.058837393593063 17.09261588579397 L 11.03304511727885 17.09261588579397 C 10.988356528882543 17.089306185856326 10.942987093384234 17.087650380982737 10.896935855879153 17.087650380982737 C 10.551564943257846 17.087650380982737 10.167861288398607 17.180747866764687 9.745823936396663 17.366940928519046 C 9.858368057847983 16.382182014355735 10.3718499554726 15.390387361836815 11.286269629270512 14.391559835676606 ZM 5.187792747046841 0.0 C 4.231169147067781 0.0 3.443361967991892 0.5345838607151904 2.8243702549144043 1.6037515821455712 C 2.613350385282469 1.9554513648654634 1.9873244855696295 2.3071511475853557 0.946292317049693 2.6588511690314407 C 0.22882448278191372 2.869871038663376 -0.08067132899566878 3.165298999383801 0.017804894772284054 3.545135051192716 L 0.03890708726380924 3.798358369553414 C 1.3753664816751086 3.6717465910099687 2.493771957832701 3.5099647148314377 3.3941234970861016 3.3130129797440135 L 5.040079482865207 3.0175852577497815 C 5.048381902400062 3.0173546482474904 5.056615568791377 3.017239343496345 5.064780004586766 3.017239343496345 C 5.5546451974053515 3.017239343496345 5.796118651280282 3.432360558965298 5.789199888759171 4.2626027511770115 C 5.782166060213108 5.106682229704753 5.4269491244939925 5.862836941597166 4.723549559054208 6.5310668868542505 C 4.020149993614424 7.199296832111335 3.661415904896083 8.166471652361876 3.6473477703515713 9.432591347605873 C 3.6473477703515713 10.459556097759878 4.136210551886389 11.19460836910933 5.11393659240841 11.637750071463774 C 6.09166167802566 12.08089177381822 7.037734535185626 12.555685704629948 7.952154686435924 13.062133773708501 C 8.866573405329065 13.568581842787054 9.387089131499744 13.962486745319058 9.513701864947961 14.243845616590201 C 9.44336166967779 15.735053554736838 9.26047830786107 16.698711938166735 8.96504986968826 17.134818857070343 C 8.472670412606604 17.134818857070343 7.614522322081965 17.064478661800173 6.390606553019116 16.92379827125983 C 6.01077121738878 16.980070809437876 5.75051335430344 17.10316567370829 5.609832486310712 17.293084773880615 C 5.469153528127526 17.48300387405294 5.497289319764163 17.69050468087611 5.69424129357778 17.91559292377875 C 5.7882960713930505 17.77973671214347 5.878469161312617 17.711806696516287 5.9647610407888685 17.711806696516287 C 5.99463093949035 17.711806696516287 6.024035799568166 17.719946304787623 6.052975621022314 17.73622552133029 C 6.165519265021248 17.799531888054396 6.446879091197162 17.831185071416453 6.897054144645284 17.831185071416453 L 8.96504986968826 17.831185071416453 C 9.066651737364214 17.811645809984256 9.162826881224358 17.801877134172933 9.253573391459145 17.801877134172933 C 9.489516991802953 17.801877134172933 9.68877028611562 17.867918348162302 9.851334229301921 18.000000776141047 C 10.048286203115538 17.98593311904892 10.21710095293536 17.929660580870873 10.357781343475702 17.831185071416453 C 10.978782653644581 17.849272877596132 11.498366392758383 17.8583158257812 11.916529696102794 17.8583158257812 C 12.474082358736627 17.8583158257812 12.85133372205558 17.842239049050068 13.048285695869197 17.810083585778262 C 13.39295188876922 17.753811047600216 13.705964898307187 17.704574247777778 13.987324724483102 17.662369366691856 L 14.704792424467398 17.89449143814056 C 14.713104870502352 17.89513122433739 14.721098378343662 17.895450162531034 14.728771038181785 17.895450162531034 C 14.889915037973028 17.895450162531034 14.91005779922074 17.754450833797048 14.789201231734465 17.47245026651953 C 14.170209041204592 17.134818857070343 14.02952865066425 16.28370459509177 14.367161015018208 14.919109390393348 L 14.367161015018208 14.919109390393348 C 14.486100133723532 14.921667580275903 14.601202445057407 14.922946197764796 14.712467949019834 14.922946197764796 C 15.825117259215483 14.922946197764796 16.55409538131412 14.795054846827687 16.899400405506203 14.539274054763013 C 18.306200491290543 14.792496656945131 19.452741281632388 15.03868734039073 20.33902468634128 15.277843240385495 L 20.486738905427682 15.024620638203377 C 20.1209702719847 14.616648078579246 19.84664522925962 14.356389738041521 19.6637618674429 14.243845616590201 L 19.6637618674429 14.243845616590201 L 20.59224824342817 14.433763761857755 C 20.74230770863311 14.490035345131028 20.8462548224276 14.518171614220051 20.90408958481164 14.518171614220051 C 21.01975910957972 14.518171614220051 20.95098304832509 14.405627492768732 20.697759491238198 14.180540204770864 C 20.641486953060152 14.025792157138396 20.23351534834079 13.723330845324293 19.473842767270575 13.273154359519014 L 19.473842767270575 13.273154359519014 L 20.761063948152763 13.526377916605906 C 20.901744338693106 12.62602685480489 19.924019253075855 11.985932223732057 17.827886781491472 11.606096888101721 C 16.73058279097207 11.352873331014829 15.738790048262691 10.86049196412363 14.852506643553802 10.12895660704721 C 13.684862457764227 9.101993766702748 11.91932947689251 8.349355969083367 9.55590579112911 7.871043214189065 C 8.303853752977238 7.786635839279153 7.607488493535902 7.4032831119233995 7.466808580447945 6.72098550957419 C 7.326128667359988 6.038687429772594 7.32964558163302 4.95193465952467 7.477359800719425 3.4607274375566117 C 7.625073542353445 1.969519857499264 7.417570825720734 0.9988280632941434 6.854850695916521 0.5486519952597018 C 6.43281095665265 0.1828839884729759 5.877125132846886 0.0 5.187792747046841 0.0 Z"
     style="fill:#ffffff;stroke:none"
     id="path2" />
  <path
     d="M 27.177865186478382 7.937876256002994 C 26.496671245133623 7.991654064440127 26.120222241250442 8.332250793733436 26.04851793344977 8.959665719745715 C 26.138148499234912 9.640860143848613 26.514597503118093 9.999383372505463 27.177865186478382 10.035235888474404 C 27.84113286983867 9.999383372505463 28.190692728124215 9.640860143848613 28.226544278576878 8.959665719745715 C 28.172766470139745 8.332250793733436 27.8232066118542 7.991654064440127 27.177865186478382 7.937876256002994 ZM 27.25853214051315 5.679180301671352 C 27.742538692303153 5.679180301671352 28.190693210882355 5.768811229525099 28.602994730734476 5.948073085232593 C 29.01529576782846 6.127334940940088 29.378299957533752 6.373819539952137 29.692007299850356 6.687527123647811 C 30.0057151249251 7.001234707343485 30.252199844626684 7.3597576946212655 30.43146145895511 7.763095602723013 C 30.610722590525395 8.16643375220383 30.700352914931468 8.592179844854769 30.700352914931468 9.040334122054901 C 30.700352914931468 9.506413933102294 30.610722590525395 9.941123154745469 30.43146145895511 10.344461786984425 C 30.252199844626684 10.747799936465242 30.0057151249251 11.101841721315509 29.692007299850356 11.406586176018948 C 29.378299957533752 11.711330630722387 29.01529576782846 11.948851980052666 28.602994730734476 12.119151189526065 C 28.190693210882355 12.289449433483185 27.742538692303153 12.374598314082675 27.25853214051315 12.374598314082675 C 26.774526312860356 12.374598314082675 26.32189131599085 12.289449433483185 25.900626908525563 12.119151189526065 C 25.479361776923067 11.948851980052666 25.116357104459635 11.711330630722387 24.8116130118248 11.406586176018948 C 24.506868074363222 11.101841721315509 24.264865160536825 10.747799936465242 24.085604149656074 10.344461786984425 C 23.906342354293347 9.941123154745469 23.8167114264396 9.506413933102294 23.8167114264396 9.040334122054901 C 23.8167114264396 8.592179844854769 23.906342354293347 8.16643375220383 24.085604149656074 7.763095602723013 C 24.264865160536825 7.3597576946212655 24.506868074363222 7.001234707343485 24.8116130118248 6.687527123647811 C 25.116357104459635 6.373819539952137 25.479361776923067 6.127334940940088 25.900626908525563 5.948073085232593 C 26.32189131599085 5.768811229525099 26.774526312860356 5.679180301671352 27.25853214051315 5.679180301671352 ZM 27.204754814834157 4.764946937561035 C 26.61319119789547 4.764946937561035 26.057480338304796 4.876985476688684 25.53762175330399 5.101062554943983 C 25.017763409682257 5.325139663371665 24.569609615240264 5.629884118075104 24.193160490667548 6.015295949226683 C 23.8167114264396 6.400708564860238 23.516448355197976 6.848862238612696 23.292371276942678 7.359757211863126 C 23.068294998255546 7.870652909250765 22.956256866455078 8.421882083655788 22.956256866455078 9.013444493699126 C 22.956256866455078 9.605007145121533 23.068294998255546 10.156236319526556 23.292371276942678 10.667132016914195 C 23.516448355197976 11.178027714301834 23.8167114264396 11.621700306316313 24.193160490667548 11.998149310199494 C 24.569609615240264 12.374598314082675 25.017763409682257 12.67486180773767 25.53762175330399 12.898938825648202 C 26.057480338304796 13.123014878042454 26.61319119789547 13.23505338699772 27.204754814834157 13.23505338699772 C 27.796317466256564 13.23505338699772 28.347546157903448 13.123014878042454 28.85844088977481 12.898938825648202 C 29.369336587162447 12.67486180773767 29.81749062298351 12.374598314082675 30.202903479996134 11.998149310199494 C 30.58831537149248 11.621700306316313 30.89305982619592 11.178027714301834 31.11713636134831 10.667132016914195 C 31.34121434477512 10.156236319526556 31.453252853730387 9.605007145121533 31.453252853730387 9.013444493699126 C 31.453252853730387 8.421882083655788 31.34121434477512 7.870652909250765 31.11713636134831 7.359757211863126 C 30.89305982619592 6.848862238612696 30.58831537149248 6.400708564860238 30.202903479996134 6.015295949226683 C 29.81749062298351 5.629884118075104 29.369336587162447 5.325139663371665 28.85844088977481 5.101062554943983 C 28.347546157903448 4.876985476688684 27.796317466256564 4.764946937561035 27.204754814834157 4.764946937561035 Z"
     style="fill:#ffffff;stroke:none"
     id="path4" />
  <path
     d="M 43.03587174947568 2.834766293357507 C 43.565266521270026 2.834766293357507 43.82996390716719 3.044526536624459 43.82996390716719 3.4640470231583635 C 43.82996390716719 3.883567062114377 43.57026077441256 4.273121671730747 43.050854687934454 4.6327109415230545 C 42.930991717357784 4.672664966663349 42.91600877889902 5.082196588849866 43.00590587255815 5.861305808082609 L 43.710101294652844 10.865584695384989 C 42.99092311313054 11.075344759620783 42.25176809806925 11.454910862952081 41.49263598092223 12.00428300537888 L 41.49263598092223 4.3480361849934255 C 41.75233911367687 3.339189530892427 42.26675094701244 2.834766293357507 43.03587174947568 2.834766293357507 ZM 42.96827710407886 2.25 C 42.384928160219225 2.25 41.94049360842715 2.412459198061674 41.634973448702624 2.737377596195625 C 41.32033317331778 3.0719951079395678 41.09808727481559 3.5839099042194498 40.968235721026396 4.273122208824217 L 40.9532527923584 15.750000791141861 L 41.74734503956549 15.750000791141861 C 41.687413330488205 14.03196481986595 41.80393132769407 13.31212422306449 42.16851458208218 12.802706821902612 C 42.533098015501444 12.293289420740733 43.45463744065366 11.738830645094628 44.50343847795727 11.569024605999127 C 43.84419205027003 7.443741433029475 43.400455272410525 5.132140015431016 43.53030674927226 4.992299853253048 C 44.07967889169907 4.62272243523798 44.35436496291246 4.128287435441399 44.35436496291246 3.5089950328944592 C 44.35436496291246 2.669838405699533 43.92014977808181 2.250260068608601 43.0517197664828 2.250260068608601 C 43.041502816442 2.250260068608601 43.03122589096375 2.250318142211525 43.02088881101692 2.250434289417372 C 43.003227745487635 2.250144763146409 42.98569056951867 2.25 42.96827710407886 2.25 Z"
     style="fill:#ffffff;stroke:none"
     id="path6" />
  <path
     d="M 53.94268527068198 2.7008420331403613 C 54.74820138114548 2.7008420331403613 55.75646577216966 3.114639379086924 56.24435249250382 3.602526099421084 C 56.67120277370874 4.0293760185574 56.727005511160925 4.595299385204669 56.74265158176422 5.121151895262301 L 51.16644748765975 5.121151895262301 C 51.18209373929735 4.595299385204669 51.23789647674953 4.0293760185574 51.66474657692015 3.602526099421084 C 52.152633478288614 3.114639379086924 53.13716952228708 2.7008420331403613 53.94268527068198 2.7008420331403613 ZM 53.94268527068198 2.25 C 52.98708466334386 2.25 51.95887662841608 2.691454318364663 51.356275712139904 3.2940552346408367 C 50.73820021141754 3.9121309630704104 50.66814839839935 4.725822220553368 50.66814839839935 5.334708647802472 L 50.66814839839935 5.571993928402662 L 57.2172221429646 5.571993928402662 L 57.2172221429646 5.334708647802472 C 57.2172221429646 4.725822220553368 57.17089908571364 3.9121309630704104 56.55282335728407 3.2940552346408367 C 55.9502228030765 2.691454318364663 54.8982860590544 2.25 53.94268527068198 2.25 Z"
     style="fill:#ffffff;stroke:none"
     id="path8" />
  <path
     d="M 61.02960835510822 11.37788916819508 Q 61.361067970401514 11.37788916819508 61.361067970401514 11.72513265452763 L 61.361067970401514 14.392594034699124 L 60.350905588788635 14.392594034699124 L 60.682365204081925 11.583078779179726 Q 60.69814873981494 11.37788916819508 61.02960835510822 11.37788916819508 ZM 61.045391890841245 10.951726913452148 Q 60.24041815620755 10.951726913452148 60.193067549008504 11.409456700707201 Q 59.86160793371522 14.392594034699124 59.48279636999789 14.408376899819642 L 52.15911709146705 14.676701701568373 L 51.40149530525739 14.645134294796094 Q 50.54916995750591 13.745458339845566 49.88625139753183 13.745458339845566 Q 49.649494337861626 13.729674636459427 49.39695340715216 13.713890765420164 Q 48.055331410246 13.966430857864008 47.78700677615039 13.966430857864008 Q 47.59760099429173 13.966430857864008 47.59760099429173 14.218971788573477 Q 47.59760099429173 14.566215274906027 48.134250262482944 14.566215274906027 Q 49.05578432881883 14.419304530460765 49.54788380290536 14.419304530460765 Q 49.637354239825655 14.419304530460765 49.71262915140618 14.424160770858904 Q 49.980953953154916 14.424160770858904 50.154575193361815 14.645134294796094 Q 49.8467912169743 15.026200122422603 48.776875082374396 15.026200122422603 Q 48.69457433131431 15.026200122422603 48.60776387886398 15.023945187900923 Q 47.39241209583286 14.992377781128646 46.46116802158428 14.708269108340652 Q 46.003438234329224 14.708269108340652 46.003438234329224 15.244918376531864 Q 46.050789517379926 15.734215696299039 49.428520813924436 15.749999567338302 L 50.92798085061074 15.592161862864414 L 59.48279636999789 15.544809914440375 L 61.881932696940964 15.5763783271314 L 61.881932696940964 11.72513265452763 Q 61.86614916120795 10.951726913452148 61.045391890841245 10.951726913452148 Z"
     style="fill:#ffffff;stroke:none"
     id="path10" />
  <path
     d="M 72.47409877164489 8.52904685507011 C 72.47409877164489 8.907770266668791 72.47409877164489 9.286494134118616 72.47409877164489 9.665217545717297 C 69.81300251842643 9.67733908354846 67.15189167797129 9.685926863293538 64.490795880604 9.69812635167072 C 64.8960449285173 9.308429235427248 65.30125750833889 8.918694283538635 65.70655453458534 8.52904685507011 ZM 65.54271069217894 8.115469520676761 C 64.87053082589631 8.779869375445564 64.19835095961366 9.444269686065514 63.52617109333102 10.108669540834317 L 72.88767610603823 10.108669540834317 C 72.88767610603823 9.444269686065514 72.88767610603823 8.779869375445564 72.88767610603823 8.115469520676761 ZM 72.645878070806 2.863830919556718 C 72.89098558536034 2.923304451060555 73.10290531305972 2.9482338106236328 73.35843540822299 2.9525213185801222 C 73.0316329863363 3.900240524204337 72.8808365154392 4.893334697079737 72.94462467804273 5.894008420927392 C 73.87947418014193 6.333943980301883 74.81313026394011 6.474146926410206 75.7663560374488 6.474146926410206 C 76.44241337358184 6.474146926410206 77.12831435936799 6.403623563120147 77.8314656642323 6.319488940452828 L 77.8314656642323 6.319488940452828 C 76.78703228167036 9.56319577992046 74.47750256386114 11.877285376746086 71.9699638719329 13.433392525277455 C 70.81417790646059 14.150640570989825 68.56131094198713 14.778854505914483 66.70735566882838 15.082100363965159 C 66.67261776015044 15.087782092652594 66.63872112476301 15.092526591383246 66.60419473101695 15.09797127747461 C 66.75011359464868 15.069273624410673 66.89732730346147 15.038693306112533 67.04694653877326 15.003679379565517 C 68.5117211750373 14.660891169680516 70.06545744175678 14.16788086134275 70.98083252703503 13.716268219004734 C 73.17815539688573 12.63218763884482 75.03387071132033 10.156774600600674 75.46343201030741 8.110101417577976 C 75.53957738578474 7.747303165775158 75.43413628053953 7.404102410602761 75.21556568461568 7.1489775671085605 C 74.99699508869183 6.893852723614361 74.68014207392422 6.713059423886379 74.31279078087219 6.582759388080197 C 73.83127795014632 6.411966094948515 73.25692282815656 6.327729817475572 72.67373239924929 6.327729817475572 C 72.4844730320323 6.327729817475572 72.29428281677455 6.33660159248479 72.10603361569775 6.3542649127014785 C 72.456447303558 5.160017874313852 72.68711618890455 4.038838190500977 72.645878070806 2.863830919556718 ZM 72.15504673094753 2.25 C 72.3303287903168 3.8373253165459635 71.93946834194797 5.3920814362424965 71.47259745004112 6.896443325678763 C 71.86732169272595 6.821771716957407 72.24276343192244 6.783401358420211 72.61406330760369 6.783401358420211 C 73.12482445957824 6.783401358420211 73.62774861864565 6.85600841729999 74.16225049831931 7.0066061370973065 C 74.48068075805311 7.1195537431685745 74.72973503183209 7.273137287974132 74.87410764837558 7.441655883885794 C 75.01848026491908 7.610174479797457 75.07309214394766 7.780190090873556 75.02324755620704 8.017676685964114 C 74.63355317507045 9.874404445794637 72.8209212641746 12.3069041129776 70.78174592080619 13.312960299235149 C 69.93258412622976 13.731905736727281 68.38408103066975 14.22893300536621 66.94448578832254 14.565828883334186 C 66.10702318549022 14.761814790065928 65.30708704676051 14.84923427609346 64.69268323627568 14.914055397394497 C 64.29420112768497 14.989109465227596 63.390332916606475 14.882232428871552 63.381932497024536 15.444330625239694 C 63.472150666919404 15.7162731850742 63.8722044790358 15.749999787984077 64.18965861901191 15.749999787984077 C 64.2905093601953 15.749999787984077 64.3830237805222 15.74659640332583 64.45461953363392 15.746344773493073 C 65.05143193442038 15.742486449390821 65.88082665573998 15.67308584747409 66.77994175855544 15.526019150655987 C 68.67236950090815 15.216480723381837 70.93326400406788 14.606108802323217 72.20732738721397 13.815461428438805 C 75.2390721048256 11.925474313123358 77.47056831170954 9.211573174820238 78.46723578775797 5.759572447670863 L 78.46723578775797 5.759572447670863 C 77.69209008795451 5.926149117699303 76.92100055165079 6.016118407113642 76.1543273012524 6.016118407113642 C 75.22223296348142 6.016118407113642 74.2966673258277 5.883136371088225 73.3782740501098 5.593161251608529 C 73.33661563725437 4.5031726126670435 73.62857826773191 3.496697955057196 74.00564192530693 2.4896974731500947 L 74.00564192530693 2.4896974731500947 C 73.86576217766134 2.5043209215070097 73.73216132370482 2.5112238469246777 73.60260113430907 2.5112238469246777 C 73.10282234815111 2.5112238469246777 72.66315482925063 2.408507007847175 72.15504673094753 2.25 Z"
     style="fill:#ffffff;stroke:none"
     id="path12" />
  <path
     d="M 82.13652943092123 4.287049865061707 Q 81.98256612871614 4.441012515898379 82.13652943092123 4.5712897825415535 L 81.6983263740784 4.405483136871293 L 82.13652943092123 4.287049865061707 ZM 84.50519209879715 4.275206521596539 L 84.93155116080639 4.405483136871293 L 84.50519209879715 4.5712897825415535 Q 84.65915474963383 4.441012515898379 84.50519209879715 4.275206521596539 ZM 82.43261187765573 4.263363178131369 L 82.78791136740027 4.523916245838773 L 82.40892519072538 4.594975818103471 Q 82.55104514946531 4.4647000170392435 82.43261187765573 4.263363178131369 ZM 84.20910965206266 4.251519834666201 L 84.20910965206266 4.251519834666201 Q 84.09067589172676 4.4647000170392435 84.232796338993 4.594975818103471 L 83.85380934810759 4.523916245838773 L 84.20910965206266 4.251519834666201 ZM 84.25860257876391 4.154591979788522 Q 84.13477646495821 4.154591979788522 84.06106728880069 4.192303605866671 Q 83.80643597424691 4.3225800582993195 83.71168955220978 4.5712897825415535 Q 83.92452060110938 4.689026090141114 84.18756271039395 4.689026090141114 Q 84.61247768861475 4.689026090141114 85.16841737874135 4.381796287098849 Q 84.5625385745454 4.154591979788522 84.25860257876391 4.154591979788522 ZM 82.38849339179271 4.155558936208879 Q 82.08217110780242 4.155558936208879 81.46146015614345 4.393639630564019 Q 82.01655127606013 4.6964166790831685 82.44000034965042 4.6964166790831685 Q 82.71221714598101 4.6964166790831685 82.93003116329808 4.5712897825415535 Q 82.83528474126095 4.3225800582993195 82.58065358954929 4.192303605866671 Q 82.50883435886408 4.155558936208879 82.38849339179271 4.155558936208879 ZM 80.49883781912503 3.5905289926677586 Q 80.4293043216487 3.5905289926677586 80.34226745552708 3.6711974704518644 Q 80.09947952514901 3.8962203449216553 80.7390179960313 4.962118651313185 L 80.85745110499877 4.879215572741213 L 80.66795842376659 4.417326480336461 L 80.67980176723177 4.038340303661578 L 80.5258385057372 4.014654268099662 L 80.5258385057372 4.014654268099662 Q 80.57321204243998 4.0738704968991915 80.57913371417256 4.275206521596539 Q 80.58505473453673 4.476542709135991 80.78639153273407 4.843686193714126 L 80.75086142091752 4.879215572741213 Q 80.66795842376659 4.725252270536121 80.49030835321011 4.328501811452957 Q 80.3126590154431 3.9317505381592674 80.42517045267799 3.7777872359541753 Q 80.46818955077865 3.718919000733343 80.51207435822077 3.718919000733343 Q 80.5829651446435 3.718919000733343 80.65611499888037 3.872533657991317 L 80.69164519211797 3.8488476224293997 Q 80.62326636729873 3.5905289926677586 80.49883781912503 3.5905289926677586 ZM 86.14136117762077 3.5905289926677586 Q 86.01420885097535 3.5905289926677586 85.93823258702997 3.8488476224293997 L 85.97376278026759 3.872533657991317 Q 86.04691210526762 3.718919000733343 86.12006208163608 3.718919000733343 Q 86.1653452142351 3.718919000733343 86.21062899820255 3.7777872359541753 Q 86.32906210717003 3.9317505381592674 86.15141179235039 4.328501811452957 Q 85.97376278026759 4.725252270536121 85.87901668391466 4.879215572741213 L 85.8434851879402 4.843686193714126 Q 86.04482186400597 4.476542709135991 86.05074410568592 4.275206521596539 Q 86.05666569599745 4.0738704968991915 86.10403906985813 4.014654268099662 L 86.10403906985813 4.014654268099662 L 85.96191959964452 4.038340303661578 L 85.97376278026759 4.417326480336461 L 85.78426928482489 4.879215572741213 L 85.89085856180088 4.962118651313185 Q 86.54224196385886 3.8962203449216553 86.29945415561237 3.6711974704518644 Q 86.21241700451705 3.5905289926677586 86.14136117762077 3.5905289926677586 ZM 80.57420000549189 3.426782788153911 Q 80.67576686555044 3.426782788153911 80.70940955594732 3.5705294581031906 Q 80.7745481892689 3.8488476224293997 80.7567830926501 4.032418550507941 Q 80.74397572392246 4.1647608178864735 80.88813218602934 4.1647608178864735 Q 80.94393483719975 4.1647608178864735 81.02325775066903 4.144930069163889 L 81.02325775066903 4.144930069163889 Q 80.7153312276799 4.488386052601161 80.9995710637387 4.772625807238901 Q 81.07063063600339 5.163455327378953 80.869294529885 5.175298182317807 Q 80.8658820921506 5.175498803791347 80.86243220073203 5.175498803791347 Q 80.66233792850747 5.175498803791347 80.33634578379448 4.500229396066329 Q 80.00473247718752 3.8133174291917875 80.3245023996188 3.5527644429054375 Q 80.47911609319183 3.426782788153911 80.57420000549189 3.426782788153911 ZM 86.06752075072649 3.426782788153911 Q 86.1626049072897 3.426782788153911 86.31721892654696 3.5527644429054375 Q 86.63698871158022 3.8133174291917875 86.29945415561237 4.500229396066329 Q 85.96764056848251 5.175498803791347 85.77316866420128 5.175498803791347 Q 85.76981607094054 5.175498803791347 85.76650386252186 5.175298182317807 Q 85.5710907308729 5.163455327378953 85.64214981461127 4.772625807238901 Q 85.91454622578385 4.488386052601161 85.61846345336515 4.144930069163889 L 85.61846345336515 4.144930069163889 Q 85.69448075352102 4.1647608178864735 85.74836194927175 4.1647608178864735 Q 85.88755416980325 4.1647608178864735 85.87901668391466 4.032418550507941 Q 85.86717285192317 3.8488476224293997 85.93231164808687 3.5705294581031906 Q 85.9659535242732 3.426782788153911 86.06752075072649 3.426782788153911 ZM 84.25454748466157 3.6746360443441293 Q 84.1812200103985 3.6746360443441293 84.1143625786571 3.6889625670706705 Q 83.69984702295513 3.7777872359541753 83.55772625000468 4.0738704968991915 Q 83.42744996041414 4.476542709135991 83.43337220209409 4.968040241624717 Q 83.43929379240562 5.459537774113443 83.70576796189825 5.548363257207473 Q 83.97224245707507 5.637187111880452 83.88933954134521 5.731934185286015 Q 83.84359947379915 5.784208129458958 83.77983441363446 5.784208129458958 Q 83.72802522082961 5.784208129458958 83.66431682971752 5.749699281904821 Q 83.60997641923026 5.720264920031248 83.56169634052814 5.720264920031248 Q 83.4837057197421 5.720264920031248 83.42152869578682 5.7970720043970765 Q 83.37119420108617 5.859249354036583 83.31937979733394 5.859249354036583 Q 83.26756539358172 5.859249354036583 83.21427108077793 5.7970720043970765 Q 83.14843597177264 5.720264920031248 83.0713058086702 5.720264920031248 Q 83.0235582236519 5.720264920031248 82.97148229547881 5.749699281904821 Q 82.91042823068061 5.784208129458958 82.85889391534924 5.784208129458958 Q 82.79546691539484 5.784208129458958 82.74646023521954 5.731934185286015 Q 82.65763475212552 5.637187111880452 82.92410957298655 5.548363257207473 Q 83.1905843938476 5.459537774113443 83.19650533279071 4.973961994778355 Q 83.20242692310224 4.488386052601161 83.08399381413476 4.0738704968991915 Q 82.96556070516728 3.7777872359541753 82.56881008324201 3.6889625670706705 Q 82.50616521391864 3.67493762792286 82.43510547881183 3.67493762792286 Q 82.05611930213695 3.67493762792286 81.4377734692131 4.0738704968991915 L 81.41408661944067 4.251519834666201 Q 81.99677768491645 3.889114403979396 82.42597948155523 3.889114403979396 Q 82.71211390408635 3.889114403979396 82.93003116329808 4.050183647126747 Q 83.17874088754033 4.973961994778355 82.89450097006048 5.4003208939454925 Q 82.40892519072538 5.518754654281393 82.56288849293048 5.7911504140855445 Q 82.65368680812836 5.95179447649636 82.81450967117063 5.95179447649636 Q 82.92638675698493 5.95179447649636 83.07215095919591 5.874053329815412 Q 83.19650565847492 6.028016632020504 83.31789923691396 6.028016632020504 Q 83.4392931410372 6.028016632020504 83.55772625000468 5.874053329815412 Q 83.70834933494902 5.95179447649636 83.82309211612967 5.95179447649636 Q 83.98803423306371 5.95179447649636 84.07883303678791 5.7911504140855445 Q 84.232796338993 5.518754654281393 83.73537558777168 5.4003208939454925 Q 83.51035352751242 4.973961994778355 83.71168955220978 4.050183647126747 Q 83.93822734678373 3.881485088511197 84.23146005667817 3.881485088511197 Q 84.65874210773939 3.881485088511197 85.22763491027773 4.239676491201031 L 85.19210406567169 4.062026990591916 Q 84.63585041596637 3.6746360443441293 84.25454748466157 3.6746360443441293 ZM 83.62738489163881 6.238767210184768 Q 83.75997386480664 6.238767210184768 83.96039927645201 6.3122565495003515 Q 83.62181959985334 6.425116224577102 83.27328212852498 6.425116224577102 Q 82.96347111527405 6.425116224577102 82.64579206002877 6.33594323643069 Q 82.87494623870612 6.2428490103923595 83.01966662302311 6.2428490103923595 Q 83.1142909134814 6.2428490103923595 83.17281864586037 6.282647946574271 Q 83.24683950180714 6.332981789906503 83.31937979733394 6.332981789906503 Q 83.39192041854494 6.332981789906503 83.46298080502017 6.282647946574271 Q 83.52493017571247 6.238767210184768 83.62738489163881 6.238767210184768 ZM 82.64579206002877 6.4306896584678315 Q 82.98332612747029 6.555044357746843 83.3415862495285 6.555044357746843 Q 83.6998463715867 6.555044357746843 84.07883303678791 6.4306896584678315 L 84.07883303678791 6.4306896584678315 Q 83.68800351664785 6.691241911964709 83.32086003206972 6.709007008583515 Q 83.30007812261098 6.710012721424897 83.27948608704683 6.710012721424897 Q 82.93628788266201 6.710012721424897 82.64579206002877 6.4306896584678315 ZM 83.04846427226556 6.0872335121884555 Q 82.76422468046994 6.146449740987984 82.40892519072538 6.347786742737964 Q 82.72869513860074 6.738615611509595 83.0366210916425 6.809675020932189 Q 83.16403950228774 6.839079745542626 83.29956972955871 6.839079745542626 Q 83.49156838794698 6.839079745542626 83.69984702295513 6.780067395058739 Q 84.05514634985757 6.6793993827100655 84.22095152994888 6.33594323643069 Q 83.84196616748453 6.146449740987984 83.5932564432423 6.09907701849573 L 83.32086003206972 6.2056666211559355 L 83.04846427226556 6.0872335121884555 ZM 84.22095152994888 3.173778266230554 Q 84.74205896810054 3.6711974704518644 85.47634333178311 4.121243219391446 Q 85.60662027274208 4.4647000170392435 85.53555923489844 4.5712897825415535 Q 85.46450015116005 4.677879548043865 85.39344009036904 5.198984869248145 Q 85.02629725715933 6.028017283388926 84.71244971380602 6.560966273742586 Q 84.39860151908431 7.093914938412035 84.06106728880069 7.313016711096609 Q 83.91414104532737 7.408390075238564 83.7548720216524 7.408390075238564 Q 83.54825242201149 7.408390075238564 83.32086003206972 7.247878240617127 Q 83.04830175584463 7.434775381535382 82.84486962756985 7.434775381535382 Q 82.73891576048813 7.434775381535382 82.65171316181399 7.384076446203413 Q 82.39708184726022 7.236034734309853 81.97664453840461 6.732693695513853 Q 81.55620657818058 6.229353633770484 81.23643728167366 5.198984869248145 Q 81.16537770940896 4.677879548043865 81.10023907608736 4.577210721484665 Q 81.03510117555525 4.476542709135991 81.15353428452273 4.121243219391446 Q 82.19574565972077 3.6593541269866954 82.40892519072538 3.1974650345819446 Q 82.85107521451275 3.381215903186673 83.29044145251264 3.381215903186673 Q 83.75726808038753 3.381215903186673 84.22095152994888 3.173778266230554 ZM 83.32086003206972 7.484744458552087 Q 83.6308273737416 7.700782845554653 83.87374903819851 7.700782845554653 Q 83.93712067183716 7.700782845554653 83.99592946968961 7.686080483249435 L 84.232796338993 9.237554731818157 L 82.38523850379505 9.237554731818157 L 82.64579206002877 7.686080483249435 Q 82.70460069503912 7.700782845554653 82.76797232867776 7.700782845554653 Q 83.01089301608205 7.700782845554653 83.32086003206972 7.484744458552087 ZM 83.32086003206972 2.25 Q 81.4377734692131 2.25 80.92851141005293 3.9317505381592674 Q 80.9758842953873 3.4224879090517355 80.67980176723177 3.2744463600002804 Q 80.60793710359921 3.2385141910261153 80.53432819746793 3.2385141910261153 Q 80.30466762055411 3.2385141910261153 80.0580276907117 3.5882945547219967 Q 79.73233675300507 4.050183647126747 80.56136865826429 5.234515062485757 Q 80.71263000283973 5.560309679725201 80.86960775667424 5.560309679725201 Q 80.87241108351432 5.560309679725201 80.87521620161758 5.560205786462117 Q 81.03510117555525 5.554284196150585 81.09431740435478 5.4003208939454925 Q 81.42592996290583 6.797833143045966 82.42076853419056 7.472900952244813 L 82.08915589421845 9.462578420498474 L 84.50519209879715 9.462578420498474 L 84.22095152994888 7.472900952244813 Q 84.97892453466707 6.774146456115628 85.54740306688993 5.4003208939454925 Q 85.60662027274208 5.554284196150585 85.76650386252186 5.560205786462117 Q 85.76930930630932 5.560309679725201 85.7721121446231 5.560309679725201 Q 85.92909128261549 5.560309679725201 86.08035335998042 5.234515062485757 Q 86.90938447138436 4.050183647126747 86.57777215709648 3.5882945547219967 Q 86.3266468330665 3.2385141910261153 86.09929450228259 3.2385141910261153 Q 86.02642526570341 3.2385141910261153 85.95599800933299 3.2744463600002804 Q 85.66583682722582 3.4224879090517355 85.72505403307798 3.9317505381592674 Q 85.20394757197897 2.25 83.32086003206972 2.25 Z"
     style="fill:#ffffff;stroke:none"
     id="path14" />
  <path
     d="M 82.90624073467833 10.811842816567946 L 82.90624073467833 15.750000017859591 L 83.73268200524203 15.750000017859591 L 83.73268200524203 10.811842816567946 Z"
     style="fill:#ffffff;stroke:none"
     id="path16" />
  <path
     d="M 95.07384076886422 2.773925897754877 Q 96.02298189126498 3.3358174041989237 96.02298189126498 4.45960059812132 L 94.13229258716699 4.45960059812132 Q 94.13229258716699 3.3358174041989237 95.07384076886422 2.773925897754877 ZM 96.02298189126498 4.98352636010047 Q 95.81037448260562 5.7352463173175465 95.07384076886422 5.7352463173175465 Q 94.3373070551228 5.7352463173175465 94.14747883064265 4.98352636010047 ZM 101.47484873005885 6.297137687985867 L 101.47484873005885 7.193127139256092 L 88.68042606518314 7.193127139256092 L 88.68042606518314 6.297137687985867 ZM 95.07384076886422 2.25 Q 93.6235528876292 2.7967053082269544 93.6235528876292 4.5962767894023315 Q 93.6235528876292 5.2796584699446 93.91968517850763 5.7352463173175465 L 88.17168641090393 5.7352463173175465 L 88.17168641090393 7.71705272020094 L 101.9759951268245 7.71705272020094 L 101.9759951268245 5.7352463173175465 L 96.2507759054686 5.7352463173175465 Q 96.54690747220982 5.2796584699446 96.54690747220982 4.5962767894023315 Q 96.54690747220982 2.7967053082269544 95.07384076886422 2.25 Z"
     style="fill:#ffffff;stroke:none"
     id="path18" />
  <path
     d="M 91.44622328318655 12.878848920576274 C 92.25173939365006 12.878848920576274 93.26000378467424 13.292646266522837 93.7478905050084 13.780532986856997 C 94.17474078621332 14.207382905993313 94.2305435236655 14.773306272640582 94.2461895942688 15.299158782698214 L 88.66998550016433 15.299158782698214 C 88.68563175180194 14.773306272640582 88.74143448925412 14.207382905993313 89.16828458942473 13.780532986856997 C 89.65617149079318 13.292646266522837 90.64070753479166 12.878848920576274 91.44622328318655 12.878848920576274 ZM 91.44622328318655 12.428006887435913 C 90.49062267584844 12.428006887435913 89.46241464092066 12.869461205800576 88.85981372464448 13.47206212207675 C 88.24173822392211 14.090137850506324 88.17168641090393 14.903829107989282 88.17168641090393 15.512715535238385 L 88.17168641090393 15.750000815838575 L 94.72076015546918 15.750000815838575 L 94.72076015546918 15.512715535238385 C 94.72076015546918 14.903829107989282 94.67443709821822 14.090137850506324 94.05636136978865 13.47206212207675 C 93.45376081558108 12.869461205800576 92.40182407155898 12.428006887435913 91.44622328318655 12.428006887435913 Z"
     style="fill:#ffffff;stroke:none"
     id="path20" />
  <path
     d="M 101.50142425578088 9.960240016691387 L 101.45396719966084 15.227973246015608 L 98.67772941663861 15.275430302135646 L 98.6540008885786 9.983968544751406 L 101.50142425578088 9.960240016691387 ZM 101.97599481698126 9.509397983551025 L 98.20315885543823 9.533126511611044 L 98.22688738349825 15.750000863336027 L 101.9048092328012 15.67881527915597 L 101.97599481698126 9.509397983551025 Z"
     style="fill:#ffffff;stroke:none"
     id="path22" />
  <path
     d="M 105.35714227263142 2.771662648311301 Q 106.0526926494652 2.771662648311301 106.0526926494652 3.6885247976617497 Q 106.0526926494652 4.494730680197452 105.35714227263142 5.285129145019644 Q 104.66159180625498 4.494730680197452 104.66159180625498 3.6885247976617497 Q 104.66159180625498 2.771662648311301 105.35714227263142 2.771662648311301 ZM 105.35714227263142 6.296838263074965 Q 105.84718950348827 6.296838263074965 105.84718950348827 7.355972051923285 Q 105.84718950348827 7.956673803512528 105.35714227263142 8.462528720710925 Q 104.86709575811606 7.956673803512528 104.86709575811606 7.355972051923285 Q 104.86709575811606 6.296838263074965 105.35714227263142 6.296838263074965 ZM 105.35714227263142 9.490046778705384 Q 105.84718950348827 9.490046778705384 105.84718950348827 10.549179851212234 Q 105.84718950348827 11.149882319142948 105.35714227263142 11.655738310853552 Q 104.86709575811606 11.149882319142948 104.86709575811606 10.549179851212234 Q 104.86709575811606 9.490046778705384 105.35714227263142 9.490046778705384 ZM 105.35714227263142 2.25 Q 104.09250524826349 2.25 104.09250524826349 3.6885247976617497 Q 104.07669756192193 4.5895785891005065 104.51141663698571 5.103336901756264 Q 104.94613508525072 5.61709539349739 104.89871122034188 5.790983345876569 Q 104.34543234869196 6.4391097682588105 104.34543234869196 7.355972051923285 Q 104.34543234869196 8.114753890464776 104.99355886061687 8.984191503336252 Q 104.34543234869196 9.632317925718494 104.34543234869196 10.549179851212234 Q 104.34543234869196 11.307962406095196 104.99355886061687 12.161592153539742 Q 105.07259908317837 12.367095478602044 104.55093630055305 13.125878033485007 Q 104.02927365224174 13.884659155685027 103.47599482536316 15.749999453867837 L 104.17154529173962 15.749999453867837 Q 104.51932012198576 14.516978070811074 104.78805571463994 13.987411892728385 Q 105.05679121775144 13.457844998304225 105.35714227263142 13.125878033485007 Q 105.67330173019445 13.457844998304225 105.93413312150712 13.987411892728385 Q 106.1949643337344 14.516978070811074 106.54273934306593 15.749999453867837 L 107.25409758532663 15.749999453867837 Q 106.7324348027013 13.884659155685027 106.18706022193558 13.125878033485007 Q 105.64168546208448 12.367095478602044 105.73653337098754 12.161592153539742 Q 106.36885210702822 11.307962406095196 106.36885210702822 10.549179851212234 Q 106.36885210702822 9.632317925718494 105.76814946001214 8.984191503336252 Q 106.36885210702822 8.114753890464776 106.36885210702822 7.355972051923285 Q 106.36885210702822 6.4391097682588105 105.83138110080523 5.790983345876569 Q 105.7839571463537 5.61709539349739 106.21077202007598 5.103336901756264 Q 106.63758689379824 4.5895785891005065 106.63758689379824 3.6885247976617497 Q 106.63758689379824 2.25 105.35714227263142 2.25 Z"
     style="fill:#ffffff;stroke:none"
     id="path24" />
  <path
     d="M 113.44048196356744 2.7008420331403613 L 113.3930249074474 7.968575262464583 L 110.61678712442517 8.016032318584621 L 110.59305859636515 2.7245705612003803 L 113.44048196356744 2.7008420331403613 ZM 113.91505252476782 2.25 L 110.14221656322479 2.273728528060019 L 110.16594509128481 8.490602879785001 L 113.84386694058776 8.419417295604944 L 113.91505252476782 2.25 Z"
     style="fill:#ffffff;stroke:none"
     id="path26" />
  <path
     d="M 112.02863445319235 12.878848205320537 C 112.83415056365585 12.878848205320537 113.84241495468004 13.2926455512671 114.3303016750142 13.78053227160126 C 114.75715195621912 14.207382190737576 114.8129546936713 14.773305557384845 114.8286007642746 15.299158067442477 L 109.25239667017013 15.299158067442477 C 109.26804292180773 14.773305557384845 109.32384565925992 14.207382190737576 109.75069575943053 13.78053227160126 C 110.23858266079898 13.2926455512671 111.22311870479746 12.878848205320537 112.02863445319235 12.878848205320537 ZM 112.02863445319235 12.428006172180176 C 111.07303384585424 12.428006172180176 110.04482581092645 12.869460490544839 109.44222489465028 13.472061406821012 C 108.82414939392791 14.090137135250586 108.75409758090973 14.903828392733544 108.75409758090973 15.512714819982648 L 108.75409758090973 15.750000100582838 L 115.30317132547498 15.750000100582838 L 115.30317132547498 15.512714819982648 C 115.30317132547498 14.903828392733544 115.25684826822402 14.090137135250586 114.63877253979445 13.472061406821012 C 114.03617198558688 12.869460490544839 112.98423524156478 12.428006172180176 112.02863445319235 12.428006172180176 Z"
     style="fill:#ffffff;stroke:none"
     id="path28" />
  <path
     d="M 118.75099426633149 3.217792407679413 L 122.38924498278409 3.4207370199408498 C 122.45321562588364 4.124966248657676 122.42118776127285 4.911560291784985 122.2931610268831 5.7805193303570785 C 120.93558226008717 5.030217957932164 119.75486024794904 4.175975559855791 118.75099426633149 3.217792407679413 ZM 122.69864057078006 2.25 C 122.49630794497726 2.25 122.2874088429645 2.3809947465160004 122.07194362681037 2.6429843300651523 L 118.14022019441317 2.439948657549701 C 117.21128105186527 2.680363749683748 117.02168980128673 3.0527771972467033 117.57144662371182 3.5571889097214164 C 117.6784819781739 3.5338152088937402 117.77361640915979 3.5221281774456 117.85684964511799 3.5221281774456 C 118.06111888536874 3.5221281774456 118.19370822727723 3.592518115867419 118.25461703722341 3.733298354779661 C 118.34034492586615 3.9314414847605814 118.57140172129861 4.190114157824537 118.94778669938357 4.509316011902923 C 119.32417167746854 4.828517322878403 120.3444857116482 5.487370484779161 122.00872825881966 6.4858756786395 C 122.20542166610844 6.978891462824036 122.42268636322659 7.225399354916304 122.66052271224272 7.225399354916304 C 122.77167704966597 7.225399354916304 122.8873246584702 7.171556494819908 123.00746553865544 7.063870412558513 C 125.3734433859964 8.084193860521891 127.65897248598152 8.797442218175105 129.86405573515964 9.203617295861177 L 130.1751914248685 8.959307160197808 L 129.41537597572494 8.151789172420406 C 127.79653972809804 8.011805484437913 125.6887334508725 7.382550163709309 123.09195931645998 6.264023934371805 C 122.8873318998423 5.362867402047739 122.8724943284327 4.445415429078329 123.04744660223118 3.5116671102920645 L 123.04744660223118 3.5116671102920645 L 127.44943686736217 3.8064990317776815 C 128.10308873272595 3.642529022888814 128.1516421325802 3.30401732599889 127.59509779106214 2.790963669556456 L 123.2615797679896 2.610023595695038 C 123.07994877671378 2.3700078652316794 122.89230237764393 2.25 122.69864057078006 2.25 Z"
     style="fill:#ffffff;stroke:none"
     id="path30" />
  <path
     d="M 118.13196908682585 12.546648502349854 L 117.84722675010562 13.163590231910348 L 116.9455426838249 15.180515117011964 L 116.80317151546478 15.465257453732193 L 117.39638471696526 15.74999979045242 L 117.53875588532537 15.441528925672174 L 118.15569761488587 14.041545770131052 L 118.46416847966611 14.587301915511489 L 118.74891081638634 15.156786588951945 L 119.03365315310657 14.587301915511489 L 119.36585254594684 13.994088714011014 L 119.67432341072708 14.587301915511489 L 119.95906574744731 15.156786588951945 L 120.24380808416754 14.587301915511489 L 120.55227894894779 13.994088714011014 L 120.88447834178805 14.587301915511489 L 121.16922067850828 15.156786588951945 L 121.45396301522851 14.587301915511489 L 121.76243388000876 14.017817242071033 L 122.070904744789 14.587301915511489 L 122.37937560956925 15.156786588951945 L 122.66411794628948 14.587301915511489 L 122.97258881106973 13.994088714011014 L 123.28105967584997 14.587301915511489 L 123.58953054063022 15.156786588951945 L 123.87427287735045 14.587301915511489 L 124.1827437421307 13.994088714011014 L 124.49121460691094 14.587301915511489 L 124.79968547169119 15.156786588951945 L 125.08442780841142 14.587301915511489 L 125.39289867319167 13.994088714011014 L 125.70136953797191 14.587301915511489 L 125.98611187469214 15.156786588951945 L 126.29458273947239 14.587301915511489 L 126.60305360425264 13.994088714011014 L 126.91152446903288 14.587301915511489 L 127.19626680575311 15.156786588951945 L 127.50473767053336 14.587301915511489 L 127.8132085353136 13.994088714011014 L 128.14540792815387 14.611030443571508 L 128.4301502648741 15.133058060891926 L 128.73862112965435 14.611030443571508 L 129.0708205224946 13.970360185950994 L 129.90131900459528 15.465257453732193 L 130.0674187010154 15.74999979045242 L 130.63690337445587 15.441528925672174 L 130.49453220609576 15.156786588951945 L 129.35556285921484 13.11613317579031 L 129.0708205224946 12.61783408652991 L 128.7860781857744 13.139861703850329 L 128.4301502648741 13.756803433410823 L 128.09795087203383 13.139861703850329 L 127.78948000725359 12.594105558469892 L 127.52846619859338 13.139861703850329 L 127.19626680575311 13.733074905350804 L 126.88779594097286 13.139861703850329 L 126.60305360425264 12.570377030409873 L 126.31831126753241 13.139861703850329 L 126.00984040275216 13.733074905350804 L 125.6776410099119 13.139861703850329 L 125.39289867319167 12.570377030409873 L 125.10815633647144 13.139861703850329 L 124.77595694363117 13.733074905350804 L 124.46748607885092 13.139861703850329 L 124.1827437421307 12.570377030409873 L 123.89800140541047 13.139861703850329 L 123.58953054063022 13.733074905350804 L 123.25733114778996 13.139861703850329 L 122.97258881106973 12.570377030409873 L 122.6878464743495 13.139861703850329 L 122.37937560956925 13.709346377290785 L 122.070904744789 13.139861703850329 L 121.76243388000876 12.570377030409873 L 121.47769154328853 13.139861703850329 L 121.16922067850828 13.733074905350804 L 120.86074981372803 13.139861703850329 L 120.55227894894779 12.570377030409873 L 120.26753661222756 13.139861703850329 L 119.95906574744731 13.733074905350804 L 119.65059488266706 13.139861703850329 L 119.36585254594684 12.570377030409873 L 119.05738168116659 13.139861703850329 L 118.74891081638634 13.733074905350804 L 118.4404399516061 13.139861703850329 L 118.13196908682585 12.546648502349854 Z"
     style="fill:#ffffff;stroke:none"
     id="path32" />
  <path
     d="M 40.9532527923584 0.375 C 31.328252851963043 0.375 31.328252851963043 17.625 40.9532527923584 17.625 "
     style="fill:none;stroke:#ffffff;stroke-width:1"
     id="path34" />
  <path
     d="M 40.9532527923584 0.375 L 130.63690376281738 0.375 "
     style="fill:none;stroke:#ffffff;stroke-width:1"
     id="path36" />
  <path
     d="M 40.9532527923584 17.625 L 130.63690376281738 17.625 "
     style="fill:none;stroke:#ffffff;stroke-width:1"
     id="path38" />
  <path
     d="M 138.32440376281738 0.375 L 138.32440376281738 17.625 "
     style="fill:none;stroke:#ffffff;stroke-width:1"
     id="path40" />
  <path
     d="M 130.63690376281738 0.375 C 140.26189994812012 0.375 140.26189994812012 17.625 130.63690376281738 17.625 "
     style="fill:none;stroke:#ffffff;stroke-width:1"
     id="path42" />
</svg>
