<?xml version="1.0" encoding="UTF-8" standalone="no"?>
<svg
   width="64.64981079101562"
   height="18.0"
   version="1.1"
   id="svg28"
   sodipodi:docname="meryhathor.svg"
   inkscape:version="1.1.1 (3bf5ae0d25, 2021-09-20)"
   xmlns:inkscape="http://www.inkscape.org/namespaces/inkscape"
   xmlns:sodipodi="http://sodipodi.sourceforge.net/DTD/sodipodi-0.dtd"
   xmlns="http://www.w3.org/2000/svg"
   xmlns:svg="http://www.w3.org/2000/svg">
  <defs
     id="defs32" />
  <sodipodi:namedview
     id="namedview30"
     pagecolor="#ffffff"
     bordercolor="#666666"
     borderopacity="1.0"
     inkscape:pageshadow="2"
     inkscape:pageopacity="0.0"
     inkscape:pagecheckerboard="0"
     showgrid="false"
     inkscape:zoom="21.26843"
     inkscape:cx="32.324905"
     inkscape:cy="9.0039555"
     inkscape:window-width="1920"
     inkscape:window-height="1001"
     inkscape:window-x="-9"
     inkscape:window-y="-9"
     inkscape:window-maximized="1"
     inkscape:current-layer="svg28" />
  <path
     d="M 1.2190420140847793 0.0 C 0.970800706632417 0.0 0.7230423028937335 0.01893070358296025 0.48290982680079 0.048905678499779795 C 0.15187998957905166 0.13255188916498697 0.3219916247400915 0.5118521231009919 0.6158947927962716 0.5118521231009919 C 0.6355981423211179 0.5118521231009919 0.6558578408244597 0.5101473851910305 0.6765601864318946 0.5065345630073116 C 1.2976180869590601 0.5780119512905144 2.0622053316712337 0.6175539511807123 2.531371224901928 0.9695623988344474 C 3.1537543888207784 1.6479367557428735 2.8741262715941502 3.0576933712068692 2.94658764204448 3.7269297850416896 C 2.951782632395561 3.7629649381631523 2.953952713884158 6.430591781037886 2.953952713884158 7.782422252231933 C 2.352510186605274 7.494257626556917 1.67335422808609 7.349215125535265 1.0039192969246102 7.349215125535265 C 0.7063920462481148 7.349215125535265 0.41078504023889434 7.377865539465801 0.12477432975315178 7.4353349446232855 C -0.20149863151174055 7.606724672263251 0.18154647682350566 7.8266562324049085 0.4376378670454302 7.8266562324049085 C 0.4681373192956425 7.8266562324049085 0.4968360674978842 7.823536850015894 0.5223214865886322 7.816844331348357 C 1.429843884416301 7.914926816832979 2.4617098179841825 8.158078494744517 2.9226503683594482 9.002292523011262 C 2.9681809889039896 9.155077638776014 2.9396896697969415 9.207577525716367 2.870237404087557 9.207577525716367 C 2.717627362869183 9.207577525716367 2.3672466519332462 8.954092059534803 2.1698535251191053 8.954092059534803 C 2.1594948014573196 8.954092059534803 2.1495575210365625 8.954790250504107 2.140092081444407 8.956259682604495 C 1.7610785167129768 8.874396440250864 1.3638924072290621 8.831466124503471 0.9703996331480379 8.831466124503471 C 0.6822712691518855 8.831466124503471 0.39612316158451694 8.854483949517657 0.1205398348885778 8.90208807080806 C -0.19080937123302597 9.107627344268586 0.19133570335568265 9.296978982841198 0.44461121617263977 9.296978982841198 C 0.47243301123084086 9.296978982841198 0.4986997685303211 9.294694058069421 0.5223214865886322 9.289895224364907 C 1.44862453664532 9.401605077048192 2.473672484380784 9.652726246647584 2.9226503683594482 10.498359836231193 C 2.9277747669676573 11.438445880183364 2.9223641381582497 12.059730482053933 2.9475081443234266 12.924290385186742 C 2.9366830234749024 13.190445840004433 3.1097205941872907 13.32271720601211 3.2850258807391146 13.32271720601211 C 3.4589948410141766 13.32271720601211 3.635197450466691 13.192454719453337 3.636159394664339 12.93350313443563 C 3.6297524037925992 12.081649745019838 3.5689455193688686 11.333930766029841 3.680643079957625 10.507654766912083 C 3.905950499841305 9.580679119782916 5.51430012614692 9.438421656179063 6.5132119200872856 9.209440304841713 C 6.73117182826633 8.953197897458422 6.302254993763335 8.858046549715155 6.0257896324592775 8.858046549715155 C 5.984500135730289 8.858046549715155 5.946610983551 8.860169218839136 5.914784994799312 8.86419400179096 C 5.786745621336966 8.854375779085794 5.657882677541108 8.84931073373403 5.528823762638173 8.84931073373403 C 4.87588245171773 8.84931073373403 4.21792069818853 8.978947377079876 3.636159394664339 9.278489565451865 C 3.6124626948293947 8.719755569414783 4.162693019870619 8.398265319455419 4.5568162027996815 8.173701395689454 C 5.178845705598769 7.90617273831141 5.863655500797704 7.879904181098088 6.5132119200872856 7.736389411825166 C 6.745102634598536 7.535056141910107 6.380132787867637 7.365650007124583 6.127413645979344 7.365650007124583 C 6.0940901289112 7.365650007124583 6.06271789404902 7.368595192973972 6.034923712303174 7.3748016471035225 C 5.875700348626306 7.359480780481324 5.715556482670491 7.35166300836024 5.555429474444318 7.35166300836024 C 4.887519202007935 7.35166300836024 4.219896213380853 7.487670468699637 3.6205083975033348 7.782422252231933 C 3.6327889023442115 5.672151988401518 3.6669749732456607 3.6298724602408705 3.6064121746990256 1.633623314068084 C 3.557780785508615 1.016382811297887 3.202148013782708 0.4498605441665941 2.6039100355477967 0.2652764822581205 C 2.1742288083663857 0.06980961445750675 1.6957449806778964 0.0 1.2190420140847793 0.0 Z"
     style="fill:#ffffff;stroke:none"
     id="path2" />
  <path
     d="M 3.29314921521244 15.21501288860129 C 4.074491287174412 15.21501288860129 5.052497037940845 15.616391919330065 5.5257419749406465 16.089636856329868 C 5.939782214238027 16.503676744424546 5.993910276899555 17.05261639954012 6.009086799211701 17.562687749346416 L 0.6002280514165623 17.562687749346416 C 0.615404749330059 17.05261639954012 0.6695328119915868 16.503676744424546 1.0835728756876173 16.089636856329868 C 1.5568179882887687 15.616391919330065 2.5118074944531683 15.21501288860129 3.29314921521244 15.21501288860129 ZM 3.29314921521244 14.777700904737003 C 2.3662267752924526 14.777700904737003 1.3688759017560481 15.205906904973462 0.7843594130436309 15.79042339368588 C 0.1848327417701466 16.38995028583294 0.11688322714550736 17.179222163577567 0.11688322714550736 17.769835531176867 L 0.11688322714550736 17.999999733210704 L 6.469415203279373 17.999999733210704 L 6.469415203279373 17.769835531176867 C 6.469415203279373 17.179222163577567 6.42448232973169 16.38995028583294 5.824955437584633 15.79042339368588 C 5.240439300074916 15.205906904973462 4.220071830733778 14.777700904737003 3.29314921521244 14.777700904737003 Z"
     style="fill:#ffffff;stroke:none"
     id="path4" />
  <path
     d="M 19.59558827849137 2.2331113889984504 Q 20.011497239301697 2.2331113889984504 20.406868373464476 2.6849636002931274 Q 17.14505908393548 6.568070899826414 16.329606932707488 7.024335296803508 Q 15.721254175199014 7.364724151693918 15.258781670883675 7.364724151693918 Q 15.101344397401952 7.364724151693918 14.960813057159163 7.325276517725049 Q 14.407469963604743 7.169951972435412 13.776464255096982 7.150536917736989 Q 13.760688966903167 7.150051524254103 13.744834947749503 7.150051524254103 Q 13.12652956999073 7.150051524254103 12.38825395561615 7.88832679632016 L 12.291175943655867 7.88832679632016 Q 12.815395428237089 6.665148911786697 13.75704954270708 6.140928742588433 Q 14.698701945634467 5.6167096003157315 19.2807685008913 2.2966530928403377 Q 19.439622247033235 2.2331113889984504 19.59558827849137 2.2331113889984504 ZM 13.822576293662692 0.46382689862325743 Q 13.87160069312572 0.46382689862325743 13.922081273037408 0.4715931515608784 L 13.922081273037408 5.461385397334616 Q 12.38825395561615 6.354500505824466 11.805788280014095 7.965988384347936 Q 12.698902703886905 1.79184917642032 13.058089773520756 1.0928900062739073 Q 13.381357725420997 0.46382689862325743 13.822576293662692 0.46382689862325743 ZM 9.823471846940608 8.280349468529765 Q 9.763159224955167 8.280349468529765 9.708909828226425 8.383422671928184 Q 9.611832586460313 8.567870141573977 9.883650198408658 8.897933602234632 Q 10.038974144658383 8.4902085535462 9.922481420308197 8.344591877914295 Q 9.871087133376625 8.280349468529765 9.823471846940608 8.280349468529765 ZM 9.850515161454094 8.003054920244196 Q 9.964842185368557 8.003054920244196 10.097221020296256 8.179560147583969 Q 10.388454200405805 8.567870141573977 9.922481420308197 9.732803546629212 Q 9.398261764572714 8.723195371480656 9.602124802379711 8.257221735611745 Q 9.713322784103013 8.003054920244196 9.850515161454094 8.003054920244196 ZM 14.931688078951879 9.926958201315696 L 14.931688078951879 10.218190867962463 Q 14.718118369566973 10.198775813264039 14.601625302908268 10.082282061988291 Q 14.640456096922156 10.024035528658937 14.756948478963821 9.926958201315696 ZM 15.378245975505326 10.587085807254049 L 17.183890562566404 10.839488364503968 L 17.552786186475032 11.499616655059363 Q 16.931489374550573 11.32487637045426 16.183991626309666 11.033644388424536 Q 15.43649319345172 10.742411037160727 15.378245975505326 10.587085807254049 ZM 11.39806151978306 10.315268879922746 L 11.747541404376221 10.490008479910806 L 11.864034128726408 11.32487637045426 L 11.553386065072697 12.276239381507548 L 11.067997716813883 12.276239381507548 L 11.39806151978306 11.32487637045426 L 11.39806151978306 10.315268879922746 ZM 12.232929752635034 10.606502231186555 L 12.562994240221252 10.703579558529796 L 12.679486964571439 11.32487637045426 L 12.368838216300684 12.276239381507548 L 11.883450552658914 12.276239381507548 L 12.21351435562809 11.32487637045426 L 12.232929752635034 10.606502231186555 ZM 13.37844604914072 10.72299461322822 L 13.494939115799427 11.32487637045426 L 13.184290367528675 12.276239381507548 L 12.698902703886905 12.276239381507548 L 13.028966164547558 11.32487637045426 L 13.028966164547558 10.742411037160727 L 13.37844604914072 10.72299461322822 ZM 12.635970993829574 8.307902566008263 Q 12.94616549869286 8.307902566008263 13.300783776495901 8.383422671928184 Q 14.349222745658347 8.606700935587865 14.621040357606692 9.441570195365404 L 15.43649319345172 9.441570195365404 L 15.747140914796912 8.936765765482605 Q 19.863233149567787 9.888126722684765 20.387455372617175 12.373316708850789 Q 19.261352076958786 11.752018527692242 18.018759137726903 11.538448133690293 L 17.475123229213175 10.451177001279875 L 15.319998757558931 10.159943650016068 L 15.378245975505326 9.635724850051886 L 14.640456096922156 9.635724850051886 Q 13.825002918768604 10.30727392210448 12.976631641685719 10.30727392210448 Q 12.794837747695311 10.30727392210448 12.611532561584353 10.276437401291815 Q 11.572801804388162 10.101698485920798 11.252445186459676 9.567771131681843 Q 10.93208856853119 9.033843092825846 11.592216516778063 8.596994435164216 Q 12.029066885982298 8.307902566008263 12.635970993829574 8.307902566008263 ZM 14.014203342229544 0.0 Q 13.306659502260182 0.0 12.902764885922597 0.4910087625106481 Q 12.407668668006053 1.0928900062739073 11.980527880002157 3.655740467965014 L 11.300984192439817 8.101897190322108 Q 10.97091987600786 8.451378444149354 10.7961802760198 8.4902085535462 L 10.563193800393865 8.4902085535462 Q 10.543778232232661 8.004819862978866 10.194298176485239 7.597094129673393 Q 9.883650198408658 4.626517849099683 10.466115788433582 2.3937311048006213 L 10.233129483961907 1.9471738928642175 Q 9.398261764572714 4.471192276884482 9.825403408347913 7.616509184371816 L 9.767156618287169 7.616509184371816 Q 8.427485014569381 4.607101425167175 9.378846196411509 1.9471738928642175 L 9.145859806362706 1.5976940082710553 L 9.145859806362706 1.5976940082710553 Q 7.90326545510817 4.4323618251791155 9.41767741831105 7.752417990345988 Q 8.99053577453585 8.684363892849726 9.330307190431368 9.286245650075767 Q 9.670079376521057 9.888126722684765 9.747741050125965 10.412346207265987 L 9.883650198408658 10.509424219226272 Q 10.407869083949969 9.732803546629212 10.485531356594787 9.16975258341706 L 10.679686695898312 9.16975258341706 Q 10.699102264059515 9.616309110736422 10.93208856853119 10.101698485920798 L 11.067997716813883 11.32487637045426 L 10.737933400381925 12.276239381507548 L 9.048781837190987 12.276239381507548 L 9.048781837190987 12.742211648142375 L 13.922081273037408 12.742211648142375 L 13.922081273037408 12.276239381507548 L 13.51435451280637 12.276239381507548 L 13.825003261077125 11.32487637045426 L 13.84441900039259 10.606502231186555 Q 14.19389820036871 10.490008479910806 14.368638484973811 10.33468393462117 Q 14.621040357606692 10.567671437172667 14.931688078951879 10.567671437172667 Q 14.912273708870499 10.76182609185915 15.009351720830782 10.89773421321628 Q 15.785971708810798 11.499616655059363 17.78577231979245 11.946173182378724 L 18.465315665046262 13.266429763489512 Q 18.465315665046262 12.942390932799807 18.666445882775246 12.942390932799807 Q 18.73044046079052 12.942390932799807 18.81479623425647 12.97519504299162 L 18.27116032574274 12.00442040032512 L 18.27116032574274 12.00442040032512 Q 19.39726088293296 12.256823642192083 19.97972758546058 12.645134320799134 Q 20.290376676039852 12.97519504299162 19.94089679144669 13.44116867886053 Q 20.71751746404375 13.11110658743396 20.814596160621075 12.509224145590878 Q 20.503945700807716 9.577479001339576 15.552985575493386 8.431961335599805 L 15.203506375517266 9.014428722744466 L 14.892857284937993 9.014428722744466 Q 14.640456096922156 8.198975202282393 12.893057700881908 7.88832679632016 Q 13.283009064230479 7.599008318923254 13.852256838599681 7.599008318923254 Q 14.161630487629424 7.599008318923254 14.523962345646407 7.684463587358902 Q 14.891470935427632 7.771140212597752 15.241644337084495 7.771140212597752 Q 15.87195550160299 7.771140212597752 16.446100683983236 7.490308248055377 Q 17.339214423239 7.053458905776705 20.989335075992095 2.665548716748965 Q 20.31660024722249 1.8173165880798985 19.56675152405883 1.8173165880798985 Q 19.321111613951302 1.8173165880798985 19.067196737655266 1.9083427565418083 L 14.349222745658347 5.286645797346556 L 14.349222745658347 0.025035944973045218 Q 14.173971736739798 0.0 14.014203342229544 0.0 Z"
     style="fill:#ffffff;stroke:none"
     id="path6" />
  <path
     d="M 14.787816725437374 15.285542133461169 C 15.549371373096287 15.285542133461169 16.502609207919512 15.676756272943992 16.963869255453197 16.13801632047768 C 17.367423959429352 16.541570682145313 17.42018123331472 17.07660848522664 17.434973411436005 17.573762319663377 L 12.163093570676018 17.573762319663377 C 12.177885919951562 17.07660848522664 12.230643193836931 16.541570682145313 12.634197726658826 16.13801632047768 C 13.095457945346773 15.676756272943992 14.02626242008698 15.285542133461169 14.787816725437374 15.285542133461169 ZM 14.787816725437374 14.859305039952915 C 13.884368520776045 14.859305039952915 12.912275476840618 15.276666758126694 12.34256182057423 15.846380414393082 C 11.758218113396996 16.430724336850286 11.69198941469321 17.200007968606588 11.69198941469321 17.775664100798863 L 11.69198941469321 17.99999941317163 L 17.883644036181536 17.99999941317163 L 17.883644036181536 17.775664100798863 C 17.883644036181536 17.200007968606588 17.839849083994995 16.430724336850286 17.25550516153779 15.846380414393082 C 16.685791847579925 15.276666758126694 15.691265101252963 14.859305039952915 14.787816725437374 14.859305039952915 Z"
     style="fill:#ffffff;stroke:none"
     id="path8" />
  <path
     d="M 33.8856570177314 3.915106308654929 L 33.8856570177314 3.915106308654929 Q 33.8856570177314 3.915106487740135 33.8856570177314 3.9151066668253414 L 33.8856570177314 3.9151066668253414 Q 33.8856570177314 3.915106487740135 33.8856570177314 3.915106308654929 ZM 36.15866841665163 4.0021990260708336 L 36.15866841665163 4.0021990260708336 Q 36.15866841665163 4.00219920515604 36.15866841665163 4.002199384241246 L 36.15866841665163 4.002199384241246 Q 36.15866841665163 4.00219920515604 36.15866841665163 4.0021990260708336 ZM 35.04008466918896 2.8450415788171517 Q 35.46157208861637 2.8450415788171517 35.697109249684424 3.1115700615938193 Q 35.93264676892289 3.378099260711311 35.93264676892289 3.7252068633313122 Q 35.94504340505746 4.121900652319178 35.678514116397366 4.3698348076922136 Q 35.41198554407809 4.617768783980042 35.04008466918896 4.617768783980042 Q 34.65578751633566 4.617768783980042 34.39545672482805 4.3698348076922136 Q 34.135126649661274 4.121900652319178 34.135126649661274 3.7252068633313122 Q 34.135126649661274 3.378099260711311 34.376861591540994 3.1115700615938193 Q 34.618597249761535 2.8450415788171517 35.04008466918896 2.8450415788171517 ZM 35.746696510563524 4.977273201819819 L 35.68471332989068 5.262396907426149 L 34.38305973052307 5.262396907426149 L 34.321076908020636 4.977273201819819 ZM 33.993955214398035 6.406155378646889 Q 33.97396930540064 6.406155378646889 33.95537417211358 6.409091301515199 Q 33.837605233409136 6.427685718461435 33.794217544193764 6.489669615475105 Q 33.75082878046715 6.551652796147952 33.688845599794305 6.588843062722072 L 33.688845599794305 6.626032612955368 Q 33.76322541660172 6.638430323601173 33.81901010012208 6.663222879529488 Q 33.85088762497293 6.677390668352088 33.903004643472975 6.677390668352088 Q 33.94209249689061 6.677390668352088 33.992564438687694 6.669421376681979 Q 34.11033301922172 6.650826959735743 34.24669601670198 6.551652796147952 L 34.469836541635466 6.551652796147952 L 34.469836541635466 6.489669615475105 L 34.24669601670198 6.489669615475105 Q 34.100546012710005 6.406155378646889 33.993955214398035 6.406155378646889 ZM 33.45330754330022 7.03512411258904 Q 33.45330754330022 7.134297559836006 33.61446506664606 7.134297559836006 Q 33.70124151958805 7.03512411258904 33.45330754330022 7.03512411258904 ZM 33.91520715124416 6.112234291377582 Q 34.53514103654009 6.112234291377582 34.569009988882435 6.688016509969039 L 34.65578751633566 6.688016509969039 Q 34.73016733314307 6.427685718461435 34.87892804126914 6.427685718461435 Q 35.08967157189765 6.427685718461435 34.953307858076556 6.799586951520986 Q 34.816944860596294 7.171487826410126 34.717770697008504 7.171487826410126 Q 34.65578751633566 7.171487826410126 34.65578751633566 7.072313662822335 L 34.65578751633566 6.948347301476643 L 34.569009988882435 6.948347301476643 L 34.569009988882435 7.072313662822335 Q 34.569009988882435 7.258264637522524 34.717770697008504 7.258264637522524 Q 34.816944860596294 7.258264637522524 34.965704852381535 6.960744295781624 Q 35.01712845296368 6.931359278828854 35.0522270043309 6.931359278828854 Q 35.13558579520025 6.931359278828854 35.12686219664218 7.09710800960271 L 35.12686219664218 7.9400828484575445 Q 34.931124573600684 8.233688387593757 34.67357533351375 8.233688387593757 Q 34.60489579881554 8.233688387593757 34.53182043864914 8.212809917929306 Q 34.35826717459476 8.026859659569944 34.30867991371566 7.729339317829043 L 33.81281196114 7.729339317829043 Q 33.77314279714346 7.73727315062835 33.7401381100056 7.73727315062835 Q 33.566861711679806 7.73727315062835 33.57727444190154 7.518595429030127 L 33.837605233409136 7.382231715209041 Q 33.837605233409136 7.332644454329939 33.540084891668236 7.233471007082973 L 33.4285148082867 7.245867643217542 L 33.49049780987434 7.159091190275557 Q 33.49049780987434 7.159091190275557 33.42231631113421 7.121900923701437 Q 33.35413481239408 7.084710298956905 33.347936494326795 7.028925615436549 Q 33.34173728083348 6.973140931916193 33.57727444190154 6.688016509969039 Q 33.651655333220184 6.576446426587503 33.66405125301393 6.495868112627596 Q 33.67644896365974 6.415289798667689 33.81901010012208 6.353305901654019 Q 33.894042861590826 6.320683024175505 33.97937767862395 6.320683024175505 Q 34.056178727417425 6.320683024175505 34.141324072302524 6.347107404501528 Q 34.321076908020636 6.402892088021884 34.469836541635466 6.427685718461435 L 34.469836541635466 6.365702537788588 Q 34.271489647141536 6.316115276909486 34.073142752647605 6.2417354601020705 Q 33.99876293584019 6.213843297427099 33.92612633442865 6.213843297427099 Q 33.80506473512541 6.213843297427099 33.688845599794305 6.291322720981172 Q 33.7260351500276 6.2045451935279505 33.788019047041274 6.117768382415553 Q 33.85442957217858 6.112234291377582 33.91520715124416 6.112234291377582 ZM 35.61033279674244 5.54752061303248 Q 36.19297756043049 5.559917249167049 36.403721091059 7.630165512411664 L 36.403721091059 10.084710570339162 L 35.449176168822625 10.084710570339162 L 35.449176168822625 6.787189957216005 Q 35.449176168822625 6.229338823967501 35.14545661358841 6.198346696375459 Q 34.84173777469502 6.167355643294655 34.767357599717194 6.037190068455646 Q 34.69297706656895 5.9070248517870505 34.035952486073484 5.8698345852129306 Q 34.135126649661274 5.62190114618072 34.35826717459476 5.54752061303248 ZM 35.12686219664218 8.287190092907135 L 35.12686219664218 10.431818531129577 L 35.8086804075772 10.431818531129577 Q 35.79628269693139 11.175620280907857 35.66611819660362 12.260330777983235 Q 35.53595262176461 13.345041275058612 35.337605010929856 14.088843024836894 Q 35.13925883277675 14.832644058274349 35.61033279674244 15.316115374715437 L 31.940911129644935 15.316115374715437 Q 32.06487820733145 15.167355741100605 32.10826679197286 14.851240266072645 Q 32.15165483935864 14.535124791044685 31.829340867178193 13.766529052656443 L 30.899589261982264 10.95247939780396 Q 30.907283344461945 10.536976647792986 31.129893060844637 10.536976647792986 Q 31.26593236181493 10.536976647792986 31.482233354100796 10.692148964466769 L 32.7342996030467 12.576446253011195 L 33.205374283353216 13.171487652833818 Q 33.333473393999384 13.258264463946215 33.43126931784126 13.258264463946215 Q 33.62686134461022 13.258264463946215 33.70124151958805 12.911157219496626 Q 34.14752256945502 11.894628042076173 34.04834912220805 10.295454459138078 Q 33.51529126122869 9.997933759226765 34.65578751633566 8.53512424828017 Q 35.064878299628504 8.497933981706048 35.12686219664218 8.287190092907135 ZM 32.821076414159094 2.25 Q 32.89545694730734 2.4235533870847834 33.13719188918706 2.770660911355007 Q 33.3789275474076 3.117768469203707 33.51529126122869 3.7314052709412 Q 33.651655333220184 4.3450411772526625 33.86859736100118 4.549586568899087 Q 34.08553938878217 4.754132676886335 34.25909301100697 4.828512672778957 L 34.09793638308715 4.828512672778957 Q 33.986365941535205 4.902892489586373 34.09793638308715 4.977273201819819 L 34.17231619989457 4.977273201819819 L 34.23430009690824 5.262396907426149 Q 33.837605233409136 5.423554251686786 33.66405125301393 5.795454410235102 Q 33.82520859727457 5.299587174000269 33.52768825553367 5.262396907426149 Q 33.26735728494086 5.2871905378657 33.27975410016063 5.398760621247236 Q 33.27975410016063 5.485537432359633 33.416117993066926 5.485537432359633 Q 33.329341181954526 5.7086779572931174 33.36033241412054 5.882231221347499 Q 33.39132436262737 6.055785201742706 33.61446506664606 6.0681821960476885 Q 33.49049780987434 6.316115276909486 33.49049780987434 6.6012396988566415 Q 33.14339038633955 7.02272747645447 33.19297746813344 7.084710298956905 Q 33.26735728494086 7.159091190275557 33.34173728083348 7.183884820715108 L 33.31694454581996 7.245867643217542 Q 33.205374283353216 7.295454904096644 33.31694454581996 7.382231715209041 Q 33.25496064880629 7.530991348823873 33.40372117784715 7.555784979263423 Q 33.40372117784715 7.9400828484575445 33.71363851389303 7.9400828484575445 L 34.09793638308715 7.9400828484575445 Q 34.22190310260326 8.262396820637996 34.34586946394895 8.361570626055375 Q 34.14752256945502 8.634297337356724 33.76942391375421 9.291322276022605 Q 33.39132436262737 9.94834721468849 33.7260351500276 10.431818531129577 Q 33.81281196114 11.73347141415636 33.34173728083348 12.799587136115091 L 31.705373789491677 10.419421536824595 Q 31.43508183110945 10.116367104045723 31.13231948630168 10.116367104045723 Q 30.976846798966015 10.116367104045723 30.812811801685996 10.196281370061524 Q 30.329341212778555 10.431818531129577 30.564878491371275 11.039256208916358 Q 31.767357686505346 14.646694874426222 31.730167419931227 14.907024591422589 Q 31.705373789491677 15.179752735405586 31.376861409701338 15.378098913558695 Q 31.0483490746823 15.576446524393454 31.197109693265766 15.750000146618248 L 36.130994379757645 15.750000146618248 Q 36.37892781878986 15.638430063236711 36.130994379757645 15.40289290216866 Q 35.486365719055925 14.621900885816258 35.71570438297148 13.896695343836274 Q 35.94504340505746 13.171487652833818 36.11859738545267 10.642562419928492 L 36.11859738545267 10.431818531129577 L 36.73843169937402 10.431818531129577 L 36.73843169937402 8.572313798513465 Q 36.73843169937402 5.5847108796066 35.833473321675925 5.262396907426149 L 35.89545721868959 4.977273201819819 L 35.96983703549701 4.977273201819819 Q 36.04421685230442 4.902892489586373 35.96983703549701 4.828512672778957 L 35.8086804075772 4.828512672778957 Q 35.99463066593656 4.754132676886335 36.21157269371756 4.549586568899087 Q 36.428514721498544 4.3450411772526625 36.564878077149224 3.7314052709412 Q 36.70124214914072 3.117768469203707 36.93677931020878 2.770660911355007 Q 37.17231647127683 2.4235533870847834 37.25909399873005 2.2500000001600506 L 37.25909399873005 2.2500000001600506 Q 37.060745671554464 2.3119831414072793 36.72603542140986 2.6838842345565146 Q 36.415711561946196 3.028688443256045 36.15866841665163 4.0021990260708336 L 36.15866841665163 4.0021990260708336 Q 36.18058056612551 3.8826732614948494 36.18058056612551 3.7500004042282598 Q 36.18058056612551 3.29132262868412 35.883059508043786 2.9504134784453075 Q 35.59597911747594 2.621466123075076 35.07805717994319 2.621466123075076 Q 35.05922350516164 2.621466123075076 35.04008466918896 2.6219010986549693 Q 35.02051065616551 2.621466123075076 35.00124968408229 2.621466123075076 Q 34.47157653349765 2.621466123075076 34.17851469704706 2.9504134784453075 Q 33.87479585815367 3.29132262868412 33.87479585815367 3.7500004042282598 Q 33.87479585815367 3.8352685120221217 33.8856570177314 3.915106308654929 L 33.8856570177314 3.915106308654929 Q 33.63797393981727 3.013035411276904 33.34173728083348 2.6838842345565146 Q 33.00702720977408 2.3119831414072793 32.821076414159094 2.25 Z"
     style="fill:#ffffff;stroke:none"
     id="path10" />
  <path
     d="M 39.91608574760042 3.8079226298344873 L 42.65226887660306 6.214445734154038 Q 42.07536433125199 7.1045305706231945 41.119347526053076 8.01109676996607 Q 40.21278042153869 5.868301631082699 39.91608574760042 3.8079226298344873 ZM 39.187744650688636 2.6209824085235596 Q 38.65965851678098 2.6209824085235596 38.77875647673744 3.3463978530375273 Q 39.28973000803183 3.5936430073255687 39.20731495660249 3.906820854480576 Q 39.12489988254385 4.219998792152734 39.27324760421088 4.945252620591686 Q 39.42159457911141 5.670505724893428 40.46002566634388 8.390206495333683 Q 40.14429469242472 9.463692114417125 40.82645194746396 9.463692114417125 Q 40.8565472708986 9.463692114417125 40.888584730327416 9.461602978569555 Q 42.73468474268677 12.857109144004351 44.95989429937943 15.379016904804171 L 45.35548683589518 15.379016904804171 L 45.256590693143565 14.274649730311562 Q 43.47642102020525 12.60986408023346 41.44900791280477 8.88469879528709 Q 42.0423972606813 7.631986320461249 43.11379446805438 6.692454498822099 L 46.393919145109194 9.642917521885106 Q 46.64205055282373 9.75369023899928 46.81037769529833 9.75369023899928 Q 47.26822937662048 9.75369023899928 47.135655060559074 8.934145780457083 L 43.83904757235612 6.115547418990798 Q 43.852425283152655 5.36640593334018 43.21437531602241 5.36640593334018 Q 43.06625630856695 5.36640593334018 42.88303185336302 5.406777487905797 L 39.91608574760042 2.8189403833736018 Q 39.46361046824405 2.6209824085235596 39.187744650688636 2.6209824085235596 Z"
     style="fill:#ffffff;stroke:none"
     id="path12" />
  <path
     d="M 50.50300556914732 2.9892379897054955 C 50.78062367035033 2.9892379897054955 51.12047898007652 3.095985977015074 51.219569666803196 3.340333519869274 L 51.183088051708744 11.279334014803599 L 51.183088051708744 11.279334014803599 C 51.04227726037991 10.960512872387417 50.623978886965304 10.367342335933275 49.3815340640913 9.632436990092634 L 50.32479487390059 3.06154244747758 C 50.36904640483822 3.0145252182361735 50.36788623490726 2.9892379897054955 50.50300556914732 2.9892379897054955 ZM 51.183088051708744 11.279334014803599 L 51.183088051708744 11.279334014803599 C 51.183088051708744 11.279334014803599 51.183088230747316 11.279334014803599 51.183088230747316 11.279334014803599 L 51.183088051708744 11.279334014803599 L 51.183088051708744 11.279334014803599 ZM 50.37099810428535 2.25 C 50.15849275007175 2.25 49.966688640948 2.280338063237631 49.830891287644896 2.317373030601139 L 48.665040731430054 10.098160711168036 C 49.28175949478842 10.520569989179059 50.97659552881634 11.67797341616124 50.909010617258 12.683307927520042 L 50.921648233731254 15.75000086141948 L 51.782424855538224 15.73816856043225 L 51.77759761762487 3.119482909369111 C 51.52163226198981 2.427915471835376 50.88561654256219 2.25 50.37099810428535 2.25 Z"
     style="fill:#ffffff;stroke:none"
     id="path14" />
  <path
     d="M 55.12038976447508 2.9892379897054955 C 55.39800786567809 2.9892379897054955 55.73786317540428 3.095985977015074 55.836953862130954 3.340333519869274 L 55.8004722470365 11.279334014803599 L 55.8004722470365 11.279334014803599 C 55.65966145570767 10.960512872387417 55.24136308229306 10.367342335933275 53.99891825941906 9.632436990092634 L 54.94217906922835 3.06154244747758 C 54.98643060016598 3.0145252182361735 54.98527043023502 2.9892379897054955 55.12038976447508 2.9892379897054955 ZM 55.8004722470365 11.279334014803599 L 55.8004722470365 11.279334014803599 C 55.8004722470365 11.279334014803599 55.800472426075075 11.279334014803599 55.800472426075075 11.279334014803599 L 55.8004722470365 11.279334014803599 L 55.8004722470365 11.279334014803599 ZM 54.98838229961311 2.25 C 54.77587694539951 2.25 54.58407283627576 2.280338063237631 54.448275482972655 2.317373030601139 L 53.28242492675781 10.098160711168036 C 53.899143690116176 10.520569989179059 55.5939797241441 11.67797341616124 55.52639481258576 12.683307927520042 L 55.53903242905901 15.75000086141948 L 56.39980905086598 15.73816856043225 L 56.39498181295263 3.119482909369111 C 56.13901645731757 2.427915471835376 55.50300073788995 2.25 54.98838229961311 2.25 Z"
     style="fill:#ffffff;stroke:none"
     id="path16" />
  <path
     d="M 30.489336013793945 0.375 C 20.86433607339859 0.375 20.86433607339859 17.625 30.489336013793945 17.625 "
     style="fill:none;stroke:#ffffff;stroke-width:1"
     id="path18" />
  <path
     d="M 30.489336013793945 0.375 L 56.39980983734131 0.375 "
     style="fill:none;stroke:#ffffff;stroke-width:1"
     id="path20" />
  <path
     d="M 30.489336013793945 17.625 L 56.39980983734131 17.625 "
     style="fill:none;stroke:#ffffff;stroke-width:1"
     id="path22" />
  <path
     d="M 64.08730983734131 0.375 L 64.08730983734131 17.625 "
     style="fill:none;stroke:#ffffff;stroke-width:1"
     id="path24" />
  <path
     d="M 56.39980983734131 0.375 C 66.02480888366699 0.375 66.02480888366699 17.625 56.39980983734131 17.625 "
     style="fill:none;stroke:#ffffff;stroke-width:1"
     id="path26" />
</svg>
