<?xml version="1.0" encoding="UTF-8" standalone="no"?>
<svg
   width="79.67228698730469"
   height="18.0"
   version="1.1"
   id="svg28"
   sodipodi:docname="nebnuni.svg"
   inkscape:version="1.1.1 (3bf5ae0d25, 2021-09-20)"
   xmlns:inkscape="http://www.inkscape.org/namespaces/inkscape"
   xmlns:sodipodi="http://sodipodi.sourceforge.net/DTD/sodipodi-0.dtd"
   xmlns="http://www.w3.org/2000/svg"
   xmlns:svg="http://www.w3.org/2000/svg">
  <defs
     id="defs32" />
  <sodipodi:namedview
     id="namedview30"
     pagecolor="#ffffff"
     bordercolor="#666666"
     borderopacity="1.0"
     inkscape:pageshadow="2"
     inkscape:pageopacity="0.0"
     inkscape:pagecheckerboard="0"
     showgrid="false"
     inkscape:zoom="17.258197"
     inkscape:cx="39.836143"
     inkscape:cy="9.0102114"
     inkscape:window-width="1920"
     inkscape:window-height="1001"
     inkscape:window-x="-9"
     inkscape:window-y="-9"
     inkscape:window-maximized="1"
     inkscape:current-layer="svg28" />
  <path
     d="M 9.619241759901131 8.704017150225534 C 9.956114020057063 8.704017150225534 10.371109904274771 8.76399089929749 10.864229412554256 8.883939352346172 C 11.905261819800385 9.137163864337834 12.8056128816014 9.495897714329981 13.565284507766846 9.960140902322616 C 14.32495613393229 10.42438504522002 15.176070395910864 11.008207138114807 16.1186263387978 11.711606226102205 C 15.211383729261659 12.170969850713034 14.168207560803758 12.400651185566062 12.989095923614554 12.400651185566062 C 12.723796640788658 12.400651185566062 12.45161535927535 12.38902331016484 12.172553033979401 12.365768514267165 C 10.653210736553286 12.239155780818948 9.3484030744964 11.792497164191472 8.258132912523058 11.025791709479964 C 7.167863705454489 10.259086254768457 6.897054622097669 9.78780828332499 7.445706139904986 9.61195779514956 C 7.994358612617073 9.436108261878905 8.441018184149321 9.207503104703234 8.78568342214457 8.92614327852732 C 8.967086681565636 8.778059511294387 9.244939142516232 8.704017150225534 9.619241759901131 8.704017150225534 ZM 16.87829701005847 11.880422885731571 L 17.743478929129175 12.070340076094354 C 17.743478929129175 12.295428318996994 17.539492171864723 12.478311680813713 17.131522476954906 12.618992071354056 C 16.899402315315747 12.634818663035082 16.657389340244983 12.642731958875595 16.405485461552153 12.642731958875595 C 15.985642480714866 12.642731958875595 15.538322115080815 12.620750051038186 15.063526274459544 12.576788145172907 C 15.977946903162229 12.464244023721587 16.582870481695206 12.232122907177656 16.87829701005847 11.880422885731571 ZM 18.207723072026578 12.196952809542571 L 18.73527358164809 12.302462147543055 C 18.791544210016596 12.471278807172421 18.594593191107748 12.640094511897015 18.144416705302472 12.808910216621609 L 17.532460253128203 12.76670629044046 C 17.968567172031815 12.569755271531616 18.193655414934454 12.379837126264063 18.207723072026578 12.196952809542571 ZM 19.009598624373172 12.407972440448313 L 19.36833342927009 12.49238029281061 C 19.283925576907794 12.731536192805375 19.030702019820904 12.851114142802757 18.608660848199875 12.851114142802757 C 18.847816748194642 12.696366095170289 18.98146331018892 12.548652830988656 19.009598624373172 12.407972440448313 ZM 19.600455500718795 12.618992071354056 C 19.938086910167982 12.71746853571325 20.163175153070622 12.87925041189178 20.27571831961717 13.10433865479442 L 19.326128548184172 12.893318068983906 C 19.509013819810434 12.808910216621609 19.600455500718795 12.71746853571325 19.600455500718795 12.618992071354056 ZM 17.405847519679988 13.864010280959864 C 18.46094662911347 13.99062205950331 19.255788352914 14.28604954277135 19.790372691081576 14.750293685668755 L 17.173725448231284 14.138336278589716 C 17.20186267222508 13.983587276052475 17.279236696041313 13.892145595144116 17.405847519679988 13.864010280959864 ZM 5.187792747046841 0.40093762696942586 C 5.848988863757863 0.40093762696942586 6.3484031042903535 0.5838216154424017 6.686035468644312 0.9495895923883535 C 7.0236668780935005 1.3153575693343054 7.129177170998758 2.198124417859453 7.0025653924553115 3.5978901976453446 C 6.875952659007095 4.997655977431236 6.8337487328259465 5.947245271411848 6.875953136459481 6.446659034491953 C 6.918156585188243 6.946073275024443 7.048285755457107 7.315357867835686 7.266340169813683 7.554513290378066 C 7.4843936292654885 7.793669667825216 7.748168406623859 8.029308176094565 8.05766402443641 8.261430247543267 C 8.367160119701346 8.49355231899197 8.212412072068878 8.70105503562468 7.5934203589913905 8.883939352346172 C 6.974429123366289 9.06682271416289 6.629762930466267 9.33763179751971 6.559423212648482 9.69636660241663 C 6.48908301737831 10.055099497504006 6.577008261466024 10.385698033311902 6.823197990006852 10.688160300030777 C 7.069388196000066 10.99062256674965 7.656726725715499 11.398594171469009 8.585214534057924 11.912075114188854 C 9.513701864947961 12.42555701181347 10.333162943564483 12.752637678443564 11.043595860097945 12.893318068983906 C 11.754030686440949 13.033998459524248 13.931053141209826 13.10433865479442 17.57466322440458 13.10433865479442 C 18.700104438917776 13.315358285700162 19.445707453086325 13.596718111876076 19.811474176719763 13.94841813332216 L 17.405847519679988 13.399766138062459 C 17.18076118658689 13.47010633333263 17.00490974350669 13.60375194042214 16.87829701005847 13.800703914235756 C 16.87829701005847 14.166472547678739 16.083455286257944 14.37749217858448 14.493772793561655 14.433763761857755 C 14.254616893566888 14.433763761857755 14.092834062483586 14.103166180954629 14.008427165026061 13.441970064243609 L 13.755202653034399 13.652989695149351 C 13.881814431577844 14.187574033316928 13.91698452921293 14.658852004760394 13.860712945939655 15.066823609479753 C 13.663760972126038 14.588511809490223 13.319094779226017 14.271981885679224 12.826715322144361 14.117233838046756 C 12.038906471985122 13.976553447506413 11.335507383997724 13.846424754689936 10.71651519346785 13.726846804692553 C 10.097523002937978 13.607269809599941 9.471497938766813 13.350529338240019 8.838438091144814 12.956624435708015 C 8.275718438792987 12.520516561899633 7.371849507814169 12.049238590456165 6.126831775660745 11.542790521377611 C 4.881814043507322 11.03634340720383 4.259305416156803 10.283705609584448 4.259305416156803 9.284877128519467 C 4.259305416156803 8.286049602359258 4.593420388785345 7.459554695196674 5.261649856590044 6.805393361936487 C 5.929879801847128 6.151231551223914 6.2639942970232845 5.366941047694864 6.2639942970232845 4.452521373896952 C 6.2639942970232845 4.002345365544058 6.207722713750011 3.5767882345547704 6.095179069751077 3.175850219655281 C 5.993352799453844 2.8130966980279646 5.689997219321334 2.6317199372143065 5.185112329353548 2.6317199372143065 C 5.131966626849421 2.6317199372143065 5.076588356989783 2.6337295343056977 5.0189770423222475 2.6377489672146734 L 3.2464102329044677 2.869871038663376 C 3.3026820549039346 2.6869874381204633 3.387089668540039 2.5181714946696765 3.4996335512651657 2.363423447037208 C 3.6403134643531225 1.9273154538657298 3.795061511985591 1.6740914193264531 3.9638776941625706 1.6037515821455712 C 3.9884963327999836 1.6899181303705768 4.083125485835245 1.733001523846176 4.247764437089777 1.733001523846176 C 4.271284696513898 1.733001523846176 4.296233016023633 1.732122295277918 4.32261082797614 1.7303637187783059 C 4.603971609056825 1.7162955842337946 4.765753485235356 1.5756155517827413 4.8079574114165045 1.308323860151339 C 4.7798216197798675 1.0410321685199366 4.6180397436013365 0.9003521360688832 4.32261082797614 0.8862840612059201 C 4.069387270889249 0.9003521360688832 3.9287073578012923 1.0410321685199366 3.9005710887122693 1.308323860151339 C 3.6754838007144013 1.5193437297832741 3.4996337899913588 1.765533697050295 3.373021295269335 2.046893523226209 C 3.3320964640294637 2.0673559388461444 3.2921017100369276 2.0775870272930157 3.2530370332917253 2.0775870272930157 C 3.1846734908983327 2.0775870272930157 3.119158190711805 2.046253737029377 3.0564913714583355 1.9835869177759076 C 3.225307553635315 1.6459552696005268 3.471497998354722 1.2977725205167625 3.7950622281641695 0.9390390286139039 C 4.118625980521232 0.5803047608509185 4.582869168513866 0.40093762696942586 5.187792747046841 0.40093762696942586 ZM 9.977946007845366 14.159437764227905 L 10.653208826743741 14.328253468952498 L 9.89353815548307 15.425557459471902 L 9.977946007845366 14.159437764227905 ZM 11.286269629270512 14.391559835676606 C 11.84898928162234 14.391559835676606 12.32378416733884 14.451348333222912 12.71065428642001 14.570927238125066 C 13.09752440550118 14.690504233217677 13.336679350591174 15.144197633295988 13.428121986404305 15.932005528550455 C 13.517959427296729 16.705992132143816 13.400721948894024 17.092986388845265 13.07640859629142 17.092986388845265 C 13.070618053757709 17.092986388845265 13.064760667889999 17.092862251224986 13.058837393593063 17.09261588579397 L 11.03304511727885 17.09261588579397 C 10.988356528882543 17.089306185856326 10.942987093384234 17.087650380982737 10.896935855879153 17.087650380982737 C 10.551564943257846 17.087650380982737 10.167861288398607 17.180747866764687 9.745823936396663 17.366940928519046 C 9.858368057847983 16.382182014355735 10.3718499554726 15.390387361836815 11.286269629270512 14.391559835676606 ZM 5.187792747046841 0.0 C 4.231169147067781 0.0 3.443361967991892 0.5345838607151904 2.8243702549144043 1.6037515821455712 C 2.613350385282469 1.9554513648654634 1.9873244855696295 2.3071511475853557 0.946292317049693 2.6588511690314407 C 0.22882448278191372 2.869871038663376 -0.08067132899566878 3.165298999383801 0.017804894772284054 3.545135051192716 L 0.03890708726380924 3.798358369553414 C 1.3753664816751086 3.6717465910099687 2.493771957832701 3.5099647148314377 3.3941234970861016 3.3130129797440135 L 5.040079482865207 3.0175852577497815 C 5.048381902400062 3.0173546482474904 5.056615568791377 3.017239343496345 5.064780004586766 3.017239343496345 C 5.5546451974053515 3.017239343496345 5.796118651280282 3.432360558965298 5.789199888759171 4.2626027511770115 C 5.782166060213108 5.106682229704753 5.4269491244939925 5.862836941597166 4.723549559054208 6.5310668868542505 C 4.020149993614424 7.199296832111335 3.661415904896083 8.166471652361876 3.6473477703515713 9.432591347605873 C 3.6473477703515713 10.459556097759878 4.136210551886389 11.19460836910933 5.11393659240841 11.637750071463774 C 6.09166167802566 12.08089177381822 7.037734535185626 12.555685704629948 7.952154686435924 13.062133773708501 C 8.866573405329065 13.568581842787054 9.387089131499744 13.962486745319058 9.513701864947961 14.243845616590201 C 9.44336166967779 15.735053554736838 9.26047830786107 16.698711938166735 8.96504986968826 17.134818857070343 C 8.472670412606604 17.134818857070343 7.614522322081965 17.064478661800173 6.390606553019116 16.92379827125983 C 6.01077121738878 16.980070809437876 5.75051335430344 17.10316567370829 5.609832486310712 17.293084773880615 C 5.469153528127526 17.48300387405294 5.497289319764163 17.69050468087611 5.69424129357778 17.91559292377875 C 5.7882960713930505 17.77973671214347 5.878469161312617 17.711806696516287 5.9647610407888685 17.711806696516287 C 5.99463093949035 17.711806696516287 6.024035799568166 17.719946304787623 6.052975621022314 17.73622552133029 C 6.165519265021248 17.799531888054396 6.446879091197162 17.831185071416453 6.897054144645284 17.831185071416453 L 8.96504986968826 17.831185071416453 C 9.066651737364214 17.811645809984256 9.162826881224358 17.801877134172933 9.253573391459145 17.801877134172933 C 9.489516991802953 17.801877134172933 9.68877028611562 17.867918348162302 9.851334229301921 18.000000776141047 C 10.048286203115538 17.98593311904892 10.21710095293536 17.929660580870873 10.357781343475702 17.831185071416453 C 10.978782653644581 17.849272877596132 11.498366392758383 17.8583158257812 11.916529696102794 17.8583158257812 C 12.474082358736627 17.8583158257812 12.85133372205558 17.842239049050068 13.048285695869197 17.810083585778262 C 13.39295188876922 17.753811047600216 13.705964898307187 17.704574247777778 13.987324724483102 17.662369366691856 L 14.704792424467398 17.89449143814056 C 14.713104870502352 17.89513122433739 14.721098378343662 17.895450162531034 14.728771038181785 17.895450162531034 C 14.889915037973028 17.895450162531034 14.91005779922074 17.754450833797048 14.789201231734465 17.47245026651953 C 14.170209041204592 17.134818857070343 14.02952865066425 16.28370459509177 14.367161015018208 14.919109390393348 L 14.367161015018208 14.919109390393348 C 14.486100133723532 14.921667580275903 14.601202445057407 14.922946197764796 14.712467949019834 14.922946197764796 C 15.825117259215483 14.922946197764796 16.55409538131412 14.795054846827687 16.899400405506203 14.539274054763013 C 18.306200491290543 14.792496656945131 19.452741281632388 15.03868734039073 20.33902468634128 15.277843240385495 L 20.486738905427682 15.024620638203377 C 20.1209702719847 14.616648078579246 19.84664522925962 14.356389738041521 19.6637618674429 14.243845616590201 L 19.6637618674429 14.243845616590201 L 20.59224824342817 14.433763761857755 C 20.74230770863311 14.490035345131028 20.8462548224276 14.518171614220051 20.90408958481164 14.518171614220051 C 21.01975910957972 14.518171614220051 20.95098304832509 14.405627492768732 20.697759491238198 14.180540204770864 C 20.641486953060152 14.025792157138396 20.23351534834079 13.723330845324293 19.473842767270575 13.273154359519014 L 19.473842767270575 13.273154359519014 L 20.761063948152763 13.526377916605906 C 20.901744338693106 12.62602685480489 19.924019253075855 11.985932223732057 17.827886781491472 11.606096888101721 C 16.73058279097207 11.352873331014829 15.738790048262691 10.86049196412363 14.852506643553802 10.12895660704721 C 13.684862457764227 9.101993766702748 11.91932947689251 8.349355969083367 9.55590579112911 7.871043214189065 C 8.303853752977238 7.786635839279153 7.607488493535902 7.4032831119233995 7.466808580447945 6.72098550957419 C 7.326128667359988 6.038687429772594 7.32964558163302 4.95193465952467 7.477359800719425 3.4607274375566117 C 7.625073542353445 1.969519857499264 7.417570825720734 0.9988280632941434 6.854850695916521 0.5486519952597018 C 6.43281095665265 0.1828839884729759 5.877125132846886 0.0 5.187792747046841 0.0 Z"
     style="fill:#ffffff;stroke:none"
     id="path2" />
  <path
     d="M 27.177865186478382 7.937876256002994 C 26.496671245133623 7.991654064440127 26.120222241250442 8.332250793733436 26.04851793344977 8.959665719745715 C 26.138148499234912 9.640860143848613 26.514597503118093 9.999383372505463 27.177865186478382 10.035235888474404 C 27.84113286983867 9.999383372505463 28.190692728124215 9.640860143848613 28.226544278576878 8.959665719745715 C 28.172766470139745 8.332250793733436 27.8232066118542 7.991654064440127 27.177865186478382 7.937876256002994 ZM 27.25853214051315 5.679180301671352 C 27.742538692303153 5.679180301671352 28.190693210882355 5.768811229525099 28.602994730734476 5.948073085232593 C 29.01529576782846 6.127334940940088 29.378299957533752 6.373819539952137 29.692007299850356 6.687527123647811 C 30.0057151249251 7.001234707343485 30.252199844626684 7.3597576946212655 30.43146145895511 7.763095602723013 C 30.610722590525395 8.16643375220383 30.700352914931468 8.592179844854769 30.700352914931468 9.040334122054901 C 30.700352914931468 9.506413933102294 30.610722590525395 9.941123154745469 30.43146145895511 10.344461786984425 C 30.252199844626684 10.747799936465242 30.0057151249251 11.101841721315509 29.692007299850356 11.406586176018948 C 29.378299957533752 11.711330630722387 29.01529576782846 11.948851980052666 28.602994730734476 12.119151189526065 C 28.190693210882355 12.289449433483185 27.742538692303153 12.374598314082675 27.25853214051315 12.374598314082675 C 26.774526312860356 12.374598314082675 26.32189131599085 12.289449433483185 25.900626908525563 12.119151189526065 C 25.479361776923067 11.948851980052666 25.116357104459635 11.711330630722387 24.8116130118248 11.406586176018948 C 24.506868074363222 11.101841721315509 24.264865160536825 10.747799936465242 24.085604149656074 10.344461786984425 C 23.906342354293347 9.941123154745469 23.8167114264396 9.506413933102294 23.8167114264396 9.040334122054901 C 23.8167114264396 8.592179844854769 23.906342354293347 8.16643375220383 24.085604149656074 7.763095602723013 C 24.264865160536825 7.3597576946212655 24.506868074363222 7.001234707343485 24.8116130118248 6.687527123647811 C 25.116357104459635 6.373819539952137 25.479361776923067 6.127334940940088 25.900626908525563 5.948073085232593 C 26.32189131599085 5.768811229525099 26.774526312860356 5.679180301671352 27.25853214051315 5.679180301671352 ZM 27.204754814834157 4.764946937561035 C 26.61319119789547 4.764946937561035 26.057480338304796 4.876985476688684 25.53762175330399 5.101062554943983 C 25.017763409682257 5.325139663371665 24.569609615240264 5.629884118075104 24.193160490667548 6.015295949226683 C 23.8167114264396 6.400708564860238 23.516448355197976 6.848862238612696 23.292371276942678 7.359757211863126 C 23.068294998255546 7.870652909250765 22.956256866455078 8.421882083655788 22.956256866455078 9.013444493699126 C 22.956256866455078 9.605007145121533 23.068294998255546 10.156236319526556 23.292371276942678 10.667132016914195 C 23.516448355197976 11.178027714301834 23.8167114264396 11.621700306316313 24.193160490667548 11.998149310199494 C 24.569609615240264 12.374598314082675 25.017763409682257 12.67486180773767 25.53762175330399 12.898938825648202 C 26.057480338304796 13.123014878042454 26.61319119789547 13.23505338699772 27.204754814834157 13.23505338699772 C 27.796317466256564 13.23505338699772 28.347546157903448 13.123014878042454 28.85844088977481 12.898938825648202 C 29.369336587162447 12.67486180773767 29.81749062298351 12.374598314082675 30.202903479996134 11.998149310199494 C 30.58831537149248 11.621700306316313 30.89305982619592 11.178027714301834 31.11713636134831 10.667132016914195 C 31.34121434477512 10.156236319526556 31.453252853730387 9.605007145121533 31.453252853730387 9.013444493699126 C 31.453252853730387 8.421882083655788 31.34121434477512 7.870652909250765 31.11713636134831 7.359757211863126 C 30.89305982619592 6.848862238612696 30.58831537149248 6.400708564860238 30.202903479996134 6.015295949226683 C 29.81749062298351 5.629884118075104 29.369336587162447 5.325139663371665 28.85844088977481 5.101062554943983 C 28.347546157903448 4.876985476688684 27.796317466256564 4.764946937561035 27.204754814834157 4.764946937561035 Z"
     style="fill:#ffffff;stroke:none"
     id="path4" />
  <path
     d="M 51.822504817523864 2.61970244983556 C 51.71320220398788 3.2708803028741693 51.05277201160311 4.064185852076674 50.115134180705155 4.693117022663325 C 49.08674880978806 5.382918371793764 47.75068197476557 5.878475502448589 46.58081727094906 5.878475502448589 C 45.410952567132554 5.878475502448589 44.07488592015045 5.382918371793764 43.04650036119297 4.693117022663325 C 42.10886243627482 4.064185852076674 41.448432102859755 3.2708803028741693 41.33912972437427 2.61970244983556 ZM 41.13810401727618 2.25 C 41.03601773282626 2.2500105302618363 40.95326299942582 2.3327648493857946 40.9532527923584 2.43485122491778 C 40.9532527923584 3.3476993151303454 41.75823706007854 4.274191616036305 42.840660820112646 5.000239630729846 C 43.923084674166944 5.726287645423385 45.30828138598788 6.248177952284149 46.58081727094906 6.248177952284149 C 47.853352779829464 6.248177952284149 49.23874260913085 5.726287645423385 50.32116627514476 5.000239630729846 C 51.40358994115867 4.274191616036305 52.20857430289902 3.3476993151303454 52.20857430289902 2.43485122491778 C 52.20856377263718 2.3327648493857946 52.12580945351322 2.2500105302618363 52.02372307798124 2.25 Z"
     style="fill:#ffffff;stroke:none"
     id="path6" />
  <path
     d="M 42.034381612247245 7.4654052074140225 L 41.80271115084249 7.967357873790986 L 41.06908802306077 9.608356975407983 L 40.9532527923584 9.840027436812736 L 41.435899586951635 10.071697898217488 L 41.55173481765401 9.820721565029006 L 42.053687484030974 8.681675129788973 L 42.304663817219456 9.125710180814748 L 42.53633427862421 9.589051103624254 L 42.76800474002896 9.125710180814748 L 43.03828694500117 8.643063386221513 L 43.28926327818965 9.125710180814748 L 43.520933739594405 9.589051103624254 L 43.75260420099916 9.125710180814748 L 44.00358053418764 8.643063386221513 L 44.27386273915985 9.125710180814748 L 44.5055332005646 9.589051103624254 L 44.73720366196935 9.125710180814748 L 44.988179995157836 8.662369258005244 L 45.23915632834632 9.125710180814748 L 45.4901326615348 9.589051103624254 L 45.721803122939555 9.125710180814748 L 45.97277945612804 8.643063386221513 L 46.22375578931651 9.125710180814748 L 46.474732122504996 9.589051103624254 L 46.70640258390975 9.125710180814748 L 46.95737891709823 8.643063386221513 L 47.208355250286715 9.125710180814748 L 47.4593315834752 9.589051103624254 L 47.69100204487995 9.125710180814748 L 47.941978378068434 8.643063386221513 L 48.19295471125692 9.125710180814748 L 48.42462517266166 9.589051103624254 L 48.675601505850146 9.125710180814748 L 48.92657783903863 8.643063386221513 L 49.17755417222711 9.125710180814748 L 49.409224633631865 9.589051103624254 L 49.66020096682034 9.125710180814748 L 49.91117730000883 8.643063386221513 L 50.181459504981035 9.145016052598478 L 50.41312996638579 9.569745231840525 L 50.66410629957427 9.145016052598478 L 50.93438850454648 8.623757514437784 L 51.610094016977015 9.840027436812736 L 51.74523511946312 10.071697898217488 L 52.208576042272625 9.820721565029006 L 52.092740811570245 9.589051103624254 L 51.16605896595124 7.928746130223527 L 50.93438850454648 7.523322822765211 L 50.70271804314173 7.948052002007257 L 50.41312996638579 8.45000466838422 L 50.14284776141358 7.948052002007257 L 49.8918714282251 7.504016950981481 L 49.67950683860408 7.948052002007257 L 49.409224633631865 8.430698796600492 L 49.15824830044338 7.948052002007257 L 48.92657783903863 7.484711079197752 L 48.694907377633875 7.948052002007257 L 48.44393104444539 8.430698796600492 L 48.17364883947318 7.948052002007257 L 47.941978378068434 7.484711079197752 L 47.71030791666368 7.948052002007257 L 47.44002571169147 8.430698796600492 L 47.189049378502986 7.948052002007257 L 46.95737891709823 7.484711079197752 L 46.72570845569348 7.948052002007257 L 46.474732122504996 8.430698796600492 L 46.204449917532784 7.948052002007257 L 45.97277945612804 7.484711079197752 L 45.741108994723284 7.948052002007257 L 45.4901326615348 8.411392924816761 L 45.23915632834632 7.948052002007257 L 44.988179995157836 7.484711079197752 L 44.75650953375308 7.948052002007257 L 44.5055332005646 8.430698796600492 L 44.254556867376124 7.948052002007257 L 44.00358053418764 7.484711079197752 L 43.77191007278289 7.948052002007257 L 43.520933739594405 8.430698796600492 L 43.26995740640592 7.948052002007257 L 43.03828694500117 7.484711079197752 L 42.787310611812686 7.948052002007257 L 42.53633427862421 8.430698796600492 L 42.28535794543573 7.948052002007257 L 42.034381612247245 7.4654052074140225 Z"
     style="fill:#ffffff;stroke:none"
     id="path8" />
  <path
     d="M 41.035377443283494 11.288924635375714 L 41.035377443283494 15.750000722361179 L 41.780944073956924 15.750000722361179 L 41.780944073956924 11.288924635375714 ZM 46.16191789296287 11.29508634273525 L 46.16191789296287 15.750000722361179 L 46.9074845236363 15.750000722361179 L 46.9074845236363 11.29508634273525 ZM 51.38088489530308 11.29508634273525 L 51.38088489530308 15.750000722361179 L 52.12645093835029 15.750000722361179 L 52.12645093835029 11.29508634273525 Z"
     style="fill:#ffffff;stroke:none"
     id="path10" />
  <path
     d="M 57.84962678592166 6.428327309438764 L 57.84962678592166 6.850345060980338 L 55.62084379313756 6.850345060980338 L 55.62084379313756 6.428327309438764 ZM 56.72864120558855 7.2591758213627635 Q 58.12657632006871 7.2591758213627635 58.66069304602249 7.9713308223477455 Q 59.19480977197627 8.683486637987087 59.19480977197627 9.250573331060394 Q 59.181621785128456 10.134173518824184 58.456277801607 10.793576843969376 Q 57.73093490429136 11.452980169114568 56.72864120558855 11.452980169114568 Q 55.713160425209445 11.452980169114568 54.987816803756594 10.793576843969376 Q 54.26247331807947 10.134173518824184 54.26247331807947 9.2637609558396 Q 54.26247331807947 8.683486637987087 54.69767955431318 7.9713308223477455 Q 55.13288583580548 7.2591758213627635 56.72864120558855 7.2591758213627635 ZM 54.987816803756594 5.993121027946472 L 54.987816803756594 6.982226287215713 Q 54.51304656172087 7.2591758213627635 54.117404286030585 7.879015095447372 Q 53.72176204145558 8.49885355487762 53.708574295043945 9.250573331060394 Q 53.708574295043945 10.134173518824184 54.440511683627825 11.037556410996899 Q 55.172449796348914 11.94093894110101 56.72864120558855 12.006879237408668 Q 58.27164526160044 11.94093894110101 59.01017759403831 11.037556410996899 Q 59.74870884027037 10.134173518824184 59.74870884027037 9.2637609558396 Q 59.73552085342256 8.49885355487762 59.33987943764521 7.872420377886257 Q 58.94423729773065 7.245987291412046 58.456277801607 6.969037757264996 L 58.456277801607 5.993121027946472 Z"
     style="fill:#ffffff;stroke:none"
     id="path12" />
  <path
     d="M 62.2259304061177 2.25 L 62.01652576015868 2.703710066244553 L 61.3534110479551 4.186992975120976 L 61.248708724975586 4.39639762108 L 61.68496840405689 4.605802267039024 L 61.7896707270364 4.378947233916748 L 62.24338079328095 3.3493743912848783 L 62.470235826403226 3.750733296039675 L 62.67964047236225 4.169542587957723 L 62.88904511832128 3.750733296039675 L 63.133350538606805 3.314473616958374 L 63.36020557172908 3.750733296039675 L 63.56961021768811 4.169542587957723 L 63.779014863647134 3.750733296039675 L 64.00586989676941 3.314473616958374 L 64.25017531705494 3.750733296039675 L 64.45957996301397 4.169542587957723 L 64.66898460897299 3.750733296039675 L 64.89583964209527 3.331924004121626 L 65.12269467521753 3.750733296039675 L 65.34954970833981 4.169542587957723 L 65.55895435429883 3.750733296039675 L 65.78580938742111 3.314473616958374 L 66.01266442054339 3.750733296039675 L 66.23951945366566 4.169542587957723 L 66.44892409962469 3.750733296039675 L 66.67577913274697 3.314473616958374 L 66.90263416586924 3.750733296039675 L 67.12948919899152 4.169542587957723 L 67.33889384495055 3.750733296039675 L 67.56574887807282 3.314473616958374 L 67.7926039111951 3.750733296039675 L 68.00200855715413 4.169542587957723 L 68.2288635902764 3.750733296039675 L 68.45571862339868 3.314473616958374 L 68.68257365652096 3.750733296039675 L 68.89197830247997 4.169542587957723 L 69.11883333560226 3.750733296039675 L 69.34568836872452 3.314473616958374 L 69.58999378901007 3.7681836832029267 L 69.79939843496908 4.152092200794472 L 70.02625346809135 3.7681836832029267 L 70.27055888837688 3.297023229795122 L 70.88132243909071 4.39639762108 L 71.00347514923348 4.605802267039024 L 71.42228444115152 4.378947233916748 L 71.31758211817201 4.169542587957723 L 70.47996353433591 2.668809291918049 L 70.27055888837688 2.302351161489756 L 70.06115424241787 2.6862596790813007 L 69.79939843496908 3.1399697453258537 L 69.55509301468355 2.6862596790813007 L 69.32823798156127 2.284900774326504 L 69.13628372276551 2.6862596790813007 L 68.89197830247997 3.122519358162602 L 68.66512326935771 2.6862596790813007 L 68.45571862339868 2.267450387163252 L 68.24631397743966 2.6862596790813007 L 68.01945894431738 3.122519358162602 L 67.77515352403185 2.6862596790813007 L 67.56574887807282 2.267450387163252 L 67.3563442321138 2.6862596790813007 L 67.11203881182827 3.122519358162602 L 66.885183778706 2.6862596790813007 L 66.67577913274697 2.267450387163252 L 66.46637448678794 2.6862596790813007 L 66.23951945366566 3.122519358162602 L 65.99521403338014 2.6862596790813007 L 65.78580938742111 2.267450387163252 L 65.57640474146208 2.6862596790813007 L 65.34954970833981 3.1050689709993495 L 65.12269467521753 2.6862596790813007 L 64.89583964209527 2.267450387163252 L 64.68643499613624 2.6862596790813007 L 64.45957996301397 3.122519358162602 L 64.23272492989169 2.6862596790813007 L 64.00586989676941 2.267450387163252 L 63.796465250810385 2.6862596790813007 L 63.56961021768811 3.122519358162602 L 63.34275518456583 2.6862596790813007 L 63.133350538606805 2.267450387163252 L 62.90649550548453 2.6862596790813007 L 62.67964047236225 3.122519358162602 L 62.452785439239975 2.6862596790813007 L 62.2259304061177 2.25 Z"
     style="fill:#ffffff;stroke:none"
     id="path14" />
  <path
     d="M 63.828265866265426 6.062809782520628 Q 63.620981009921366 6.062809782520628 63.620981009921366 6.306674057039972 Q 63.620981009921366 6.513958447408417 63.828265866265426 6.513958447408417 Q 64.04774370667604 6.501765463341857 64.04774370667604 6.282287622931243 Q 64.04774370667604 6.062809782520628 63.828265866265426 6.062809782520628 ZM 63.02351320783765 6.2213213046716165 L 63.02351320783765 6.440799145082231 L 62.54797817540908 6.526151897450586 Q 62.7674560158197 6.294480606997802 63.02351320783765 6.2213213046716165 ZM 63.04789964194638 6.513958447408417 Q 63.328343867184564 6.733436820362585 63.1454453783813 6.84317554086406 Q 62.86500171897064 6.745629737861201 62.730876098384826 6.587117683166659 L 63.04789964194638 6.513958447408417 ZM 63.90142523515955 5.953070596043545 Q 64.4745065365666 5.953070596043545 64.81591648095291 6.392026276864773 Q 65.15732642533922 6.8309825567975 65.18171292601589 7.7454738025908565 Q 66.07181767113258 7.928371758850572 66.36445488043732 8.55022606161096 Q 66.41183448158276 8.952950674308877 66.18305989522166 8.952950674308877 Q 66.17633094115058 8.952950674308877 66.16936340756749 8.952602390824845 Q 65.9254991996161 8.940408741078844 65.78527728670083 8.818476770239032 Q 65.73428757280577 8.774137726512677 65.7082885302489 8.774137726512677 Q 65.66279067174999 8.774137726512677 65.69382784259537 8.9099262143445 Q 65.74260084394871 9.123307363018002 66.23032925985152 9.428137955796972 Q 66.71805847456964 9.732968016032387 66.3095858530263 9.934156047503443 Q 66.20823535917295 9.984075082584063 66.0937480809402 9.984075082584063 Q 65.7468180563494 9.984075082584063 65.27925866245081 9.525683692231887 Q 64.65740435969042 8.916022240402171 64.62082500808307 8.598998796692529 Q 64.58424512393218 8.281975352982888 64.87688286578047 8.013724644354816 Q 65.05088348375489 7.8542239891210235 64.99641013620416 7.8542239891210235 Q 64.95926921741959 7.8542239891210235 64.81591648095291 7.928371758850572 Q 64.46231301995648 8.111270380789732 64.44402334415281 8.464873176106718 Q 64.42573366834914 8.818476770239032 64.724467569391 9.239142775256589 Q 65.02320080475342 9.659808780274146 65.90111269893943 10.30604931743943 Q 65.99085480841215 10.352871079212509 66.1043201355656 10.352871079212509 Q 66.34543375606283 10.352871079212509 66.69367197389296 10.141441170119274 Q 67.20578715674421 9.830513752467303 66.1815570573135 9.184272949030243 Q 66.55954688585071 9.086727478867104 66.57173973678138 8.85505665438993 Q 67.04727503548173 9.013567976837084 69.2420542384032 11.805814981842275 Q 69.8273286570127 12.195997927581935 69.83952177421514 12.378896283249317 Q 69.8273286570127 12.549601521714251 69.65662395109132 12.586180873321595 Q 69.62004406694041 12.594019381886532 69.58234424369637 12.594019381886532 Q 69.44411297858434 12.594019381886532 69.29082723975655 12.488635403158456 Q 68.60800681844037 12.817852230342321 67.96786337241986 12.830045347544772 Q 67.93417200450351 12.830687062526817 67.90110531017548 12.830687062526817 Q 67.3059000193791 12.830687062526817 66.9131496811677 12.622760757472491 L 66.9131496811677 12.622760757472491 Q 67.3155257441098 12.976363819061255 67.19359403954176 13.366546764800916 Q 67.1344753145733 13.555726471682608 67.10402021383196 13.555726471682608 Q 67.07166180243019 13.555726471682608 67.07166180243019 13.342160530396018 Q 67.07166180243019 12.927590817707909 66.01085208512033 12.549601521714251 L 66.01085208512033 13.012943703212152 Q 65.94839910496299 13.275246432890444 65.91153617391338 13.275246432890444 Q 65.87642903895986 13.275246432890444 65.86453281478852 13.037329937617049 Q 65.79137357903028 12.513021637563352 65.5170260455292 11.90945754315019 Q 65.24267931084347 11.305892916193475 64.64521150875976 10.238986640282413 Q 64.04774370667604 9.17208009809957 63.88313555935588 8.702641358000445 Q 63.71852674635628 8.233202351629542 63.73072012983051 7.830826022415657 Q 63.74291311389707 7.428449693201773 63.56611131683091 7.239455045204943 Q 63.389310185444195 7.050460397208115 63.46246948777038 6.8309825567975 Q 63.53562879009657 6.611504117275388 63.24299104824827 6.4164127109735025 L 63.24299104824827 6.209128353889029 Q 63.56001515763735 5.953070596043545 63.90142523515955 5.953070596043545 ZM 66.21813640892084 12.976363819061255 Q 66.81560421100455 13.147069057526188 66.81560421100455 13.378739882003362 L 66.41322788179068 14.878506078949762 Q 66.36445488043732 15.146756787577834 66.08401132087857 15.146756787577834 L 65.59628210616046 15.146756787577834 L 65.59628210616046 15.122370553172937 L 66.21813640892084 13.22022829328443 L 66.21813640892084 12.976363819061255 ZM 63.945428243903606 5.708929190656498 Q 63.923595156430395 5.708929190656498 63.90142523515955 5.709206321524201 Q 63.42588953705154 5.709206321524201 62.938160988012854 6.099389167411945 Q 62.65771682934261 6.196934870562888 62.36507968660581 6.550538331559315 Q 62.7674560158197 6.916334776622302 63.09667251016384 7.001687528990657 Q 63.13325246088268 7.172392501183814 63.328343867184564 7.4772225614192305 Q 63.34053678468318 8.281975352982888 63.54782164102724 8.812380477909585 Q 63.75510663050718 9.342785070292727 64.9378487180645 11.659496510325791 Q 65.5231228704022 12.878818348898116 65.5231228704022 13.159262174728635 Q 65.5231228704022 13.586025004619195 64.98662145314607 15.073597019276038 Q 64.98662145314607 15.15894990478028 64.25502869615597 15.207722373590073 Q 63.157638828423465 15.244302790284525 63.157638828423465 15.512553498912597 Q 63.157638828423465 15.67106508763153 63.30395743307584 15.67106508763153 L 66.54735350237648 15.67106508763153 Q 66.8521835626119 15.427200613408354 66.8887634467628 15.256495907486974 Q 67.18140038979577 15.378428144598562 67.20578715674421 15.585712202127286 Q 67.24685851322589 15.749999758228196 67.32251697588102 15.749999758228196 Q 67.33670340360446 15.749999758228196 67.3521056282607 15.744223790846219 Q 67.4496516309674 15.707644439238873 67.4496516309674 15.585712202127286 Q 67.36429874546315 15.256495907486974 67.02288880107683 14.95166478216445 L 67.41307174681648 13.30558064624512 Q 68.59581370123792 13.269001294637777 69.47372559542393 12.927590817707909 Q 69.63630208908724 12.964170701858807 69.77178223420154 12.964170701858807 Q 70.04274252443015 12.964170701858807 70.20531848554991 12.817852230342321 Q 70.44918295977308 12.598373990524042 70.10777301538677 12.135031809026142 Q 69.36398647551479 11.39124580169772 68.69335970394461 10.50114079030926 Q 67.3155257441098 8.806283653036584 66.80341056125856 8.538032411864958 Q 66.6327055890654 8.184429616547973 66.394938205987 7.9771447602039185 Q 66.15717055663683 7.769860303267529 65.53531625387643 7.465029710488559 Q 65.5231228704022 6.745629737861201 65.20000313436312 6.2213213046716165 Q 64.88422664138416 5.708929190656498 63.945428243903606 5.708929190656498 Z"
     style="fill:#ffffff;stroke:none"
     id="path16" />
  <path
     d="M 40.9532527923584 0.375 C 31.328252851963043 0.375 31.328252851963043 17.625 40.9532527923584 17.625 "
     style="fill:none;stroke:#ffffff;stroke-width:1"
     id="path18" />
  <path
     d="M 40.9532527923584 0.375 L 71.42228317260742 0.375 "
     style="fill:none;stroke:#ffffff;stroke-width:1"
     id="path20" />
  <path
     d="M 40.9532527923584 17.625 L 71.42228317260742 17.625 "
     style="fill:none;stroke:#ffffff;stroke-width:1"
     id="path22" />
  <path
     d="M 79.10978317260742 0.375 L 79.10978317260742 17.625 "
     style="fill:none;stroke:#ffffff;stroke-width:1"
     id="path24" />
  <path
     d="M 71.42228317260742 0.375 C 81.04728507995605 0.375 81.04728507995605 17.625 71.42228317260742 17.625 "
     style="fill:none;stroke:#ffffff;stroke-width:1"
     id="path26" />
</svg>
