<?xml version="1.0" encoding="UTF-8" standalone="no"?>
<svg
   width="95.1668930053711"
   height="18.0"
   version="1.1"
   id="svg32"
   sodipodi:docname="nefaarud.svg"
   inkscape:version="1.1.1 (3bf5ae0d25, 2021-09-20)"
   xmlns:inkscape="http://www.inkscape.org/namespaces/inkscape"
   xmlns:sodipodi="http://sodipodi.sourceforge.net/DTD/sodipodi-0.dtd"
   xmlns="http://www.w3.org/2000/svg"
   xmlns:svg="http://www.w3.org/2000/svg">
  <defs
     id="defs36" />
  <sodipodi:namedview
     id="namedview34"
     pagecolor="#ffffff"
     bordercolor="#666666"
     borderopacity="1.0"
     inkscape:pageshadow="2"
     inkscape:pageopacity="0.0"
     inkscape:pagecheckerboard="0"
     showgrid="false"
     inkscape:zoom="14.448302"
     inkscape:cx="47.583447"
     inkscape:cy="9.0322033"
     inkscape:window-width="1920"
     inkscape:window-height="1001"
     inkscape:window-x="-9"
     inkscape:window-y="-9"
     inkscape:window-maximized="1"
     inkscape:current-layer="svg32" />
  <path
     d="M 9.619241759901131 8.704017150225534 C 9.956114020057063 8.704017150225534 10.371109904274771 8.76399089929749 10.864229412554256 8.883939352346172 C 11.905261819800385 9.137163864337834 12.8056128816014 9.495897714329981 13.565284507766846 9.960140902322616 C 14.32495613393229 10.42438504522002 15.176070395910864 11.008207138114807 16.1186263387978 11.711606226102205 C 15.211383729261659 12.170969850713034 14.168207560803758 12.400651185566062 12.989095923614554 12.400651185566062 C 12.723796640788658 12.400651185566062 12.45161535927535 12.38902331016484 12.172553033979401 12.365768514267165 C 10.653210736553286 12.239155780818948 9.3484030744964 11.792497164191472 8.258132912523058 11.025791709479964 C 7.167863705454489 10.259086254768457 6.897054622097669 9.78780828332499 7.445706139904986 9.61195779514956 C 7.994358612617073 9.436108261878905 8.441018184149321 9.207503104703234 8.78568342214457 8.92614327852732 C 8.967086681565636 8.778059511294387 9.244939142516232 8.704017150225534 9.619241759901131 8.704017150225534 ZM 16.87829701005847 11.880422885731571 L 17.743478929129175 12.070340076094354 C 17.743478929129175 12.295428318996994 17.539492171864723 12.478311680813713 17.131522476954906 12.618992071354056 C 16.899402315315747 12.634818663035082 16.657389340244983 12.642731958875595 16.405485461552153 12.642731958875595 C 15.985642480714866 12.642731958875595 15.538322115080815 12.620750051038186 15.063526274459544 12.576788145172907 C 15.977946903162229 12.464244023721587 16.582870481695206 12.232122907177656 16.87829701005847 11.880422885731571 ZM 18.207723072026578 12.196952809542571 L 18.73527358164809 12.302462147543055 C 18.791544210016596 12.471278807172421 18.594593191107748 12.640094511897015 18.144416705302472 12.808910216621609 L 17.532460253128203 12.76670629044046 C 17.968567172031815 12.569755271531616 18.193655414934454 12.379837126264063 18.207723072026578 12.196952809542571 ZM 19.009598624373172 12.407972440448313 L 19.36833342927009 12.49238029281061 C 19.283925576907794 12.731536192805375 19.030702019820904 12.851114142802757 18.608660848199875 12.851114142802757 C 18.847816748194642 12.696366095170289 18.98146331018892 12.548652830988656 19.009598624373172 12.407972440448313 ZM 19.600455500718795 12.618992071354056 C 19.938086910167982 12.71746853571325 20.163175153070622 12.87925041189178 20.27571831961717 13.10433865479442 L 19.326128548184172 12.893318068983906 C 19.509013819810434 12.808910216621609 19.600455500718795 12.71746853571325 19.600455500718795 12.618992071354056 ZM 17.405847519679988 13.864010280959864 C 18.46094662911347 13.99062205950331 19.255788352914 14.28604954277135 19.790372691081576 14.750293685668755 L 17.173725448231284 14.138336278589716 C 17.20186267222508 13.983587276052475 17.279236696041313 13.892145595144116 17.405847519679988 13.864010280959864 ZM 5.187792747046841 0.40093762696942586 C 5.848988863757863 0.40093762696942586 6.3484031042903535 0.5838216154424017 6.686035468644312 0.9495895923883535 C 7.0236668780935005 1.3153575693343054 7.129177170998758 2.198124417859453 7.0025653924553115 3.5978901976453446 C 6.875952659007095 4.997655977431236 6.8337487328259465 5.947245271411848 6.875953136459481 6.446659034491953 C 6.918156585188243 6.946073275024443 7.048285755457107 7.315357867835686 7.266340169813683 7.554513290378066 C 7.4843936292654885 7.793669667825216 7.748168406623859 8.029308176094565 8.05766402443641 8.261430247543267 C 8.367160119701346 8.49355231899197 8.212412072068878 8.70105503562468 7.5934203589913905 8.883939352346172 C 6.974429123366289 9.06682271416289 6.629762930466267 9.33763179751971 6.559423212648482 9.69636660241663 C 6.48908301737831 10.055099497504006 6.577008261466024 10.385698033311902 6.823197990006852 10.688160300030777 C 7.069388196000066 10.99062256674965 7.656726725715499 11.398594171469009 8.585214534057924 11.912075114188854 C 9.513701864947961 12.42555701181347 10.333162943564483 12.752637678443564 11.043595860097945 12.893318068983906 C 11.754030686440949 13.033998459524248 13.931053141209826 13.10433865479442 17.57466322440458 13.10433865479442 C 18.700104438917776 13.315358285700162 19.445707453086325 13.596718111876076 19.811474176719763 13.94841813332216 L 17.405847519679988 13.399766138062459 C 17.18076118658689 13.47010633333263 17.00490974350669 13.60375194042214 16.87829701005847 13.800703914235756 C 16.87829701005847 14.166472547678739 16.083455286257944 14.37749217858448 14.493772793561655 14.433763761857755 C 14.254616893566888 14.433763761857755 14.092834062483586 14.103166180954629 14.008427165026061 13.441970064243609 L 13.755202653034399 13.652989695149351 C 13.881814431577844 14.187574033316928 13.91698452921293 14.658852004760394 13.860712945939655 15.066823609479753 C 13.663760972126038 14.588511809490223 13.319094779226017 14.271981885679224 12.826715322144361 14.117233838046756 C 12.038906471985122 13.976553447506413 11.335507383997724 13.846424754689936 10.71651519346785 13.726846804692553 C 10.097523002937978 13.607269809599941 9.471497938766813 13.350529338240019 8.838438091144814 12.956624435708015 C 8.275718438792987 12.520516561899633 7.371849507814169 12.049238590456165 6.126831775660745 11.542790521377611 C 4.881814043507322 11.03634340720383 4.259305416156803 10.283705609584448 4.259305416156803 9.284877128519467 C 4.259305416156803 8.286049602359258 4.593420388785345 7.459554695196674 5.261649856590044 6.805393361936487 C 5.929879801847128 6.151231551223914 6.2639942970232845 5.366941047694864 6.2639942970232845 4.452521373896952 C 6.2639942970232845 4.002345365544058 6.207722713750011 3.5767882345547704 6.095179069751077 3.175850219655281 C 5.993352799453844 2.8130966980279646 5.689997219321334 2.6317199372143065 5.185112329353548 2.6317199372143065 C 5.131966626849421 2.6317199372143065 5.076588356989783 2.6337295343056977 5.0189770423222475 2.6377489672146734 L 3.2464102329044677 2.869871038663376 C 3.3026820549039346 2.6869874381204633 3.387089668540039 2.5181714946696765 3.4996335512651657 2.363423447037208 C 3.6403134643531225 1.9273154538657298 3.795061511985591 1.6740914193264531 3.9638776941625706 1.6037515821455712 C 3.9884963327999836 1.6899181303705768 4.083125485835245 1.733001523846176 4.247764437089777 1.733001523846176 C 4.271284696513898 1.733001523846176 4.296233016023633 1.732122295277918 4.32261082797614 1.7303637187783059 C 4.603971609056825 1.7162955842337946 4.765753485235356 1.5756155517827413 4.8079574114165045 1.308323860151339 C 4.7798216197798675 1.0410321685199366 4.6180397436013365 0.9003521360688832 4.32261082797614 0.8862840612059201 C 4.069387270889249 0.9003521360688832 3.9287073578012923 1.0410321685199366 3.9005710887122693 1.308323860151339 C 3.6754838007144013 1.5193437297832741 3.4996337899913588 1.765533697050295 3.373021295269335 2.046893523226209 C 3.3320964640294637 2.0673559388461444 3.2921017100369276 2.0775870272930157 3.2530370332917253 2.0775870272930157 C 3.1846734908983327 2.0775870272930157 3.119158190711805 2.046253737029377 3.0564913714583355 1.9835869177759076 C 3.225307553635315 1.6459552696005268 3.471497998354722 1.2977725205167625 3.7950622281641695 0.9390390286139039 C 4.118625980521232 0.5803047608509185 4.582869168513866 0.40093762696942586 5.187792747046841 0.40093762696942586 ZM 9.977946007845366 14.159437764227905 L 10.653208826743741 14.328253468952498 L 9.89353815548307 15.425557459471902 L 9.977946007845366 14.159437764227905 ZM 11.286269629270512 14.391559835676606 C 11.84898928162234 14.391559835676606 12.32378416733884 14.451348333222912 12.71065428642001 14.570927238125066 C 13.09752440550118 14.690504233217677 13.336679350591174 15.144197633295988 13.428121986404305 15.932005528550455 C 13.517959427296729 16.705992132143816 13.400721948894024 17.092986388845265 13.07640859629142 17.092986388845265 C 13.070618053757709 17.092986388845265 13.064760667889999 17.092862251224986 13.058837393593063 17.09261588579397 L 11.03304511727885 17.09261588579397 C 10.988356528882543 17.089306185856326 10.942987093384234 17.087650380982737 10.896935855879153 17.087650380982737 C 10.551564943257846 17.087650380982737 10.167861288398607 17.180747866764687 9.745823936396663 17.366940928519046 C 9.858368057847983 16.382182014355735 10.3718499554726 15.390387361836815 11.286269629270512 14.391559835676606 ZM 5.187792747046841 0.0 C 4.231169147067781 0.0 3.443361967991892 0.5345838607151904 2.8243702549144043 1.6037515821455712 C 2.613350385282469 1.9554513648654634 1.9873244855696295 2.3071511475853557 0.946292317049693 2.6588511690314407 C 0.22882448278191372 2.869871038663376 -0.08067132899566878 3.165298999383801 0.017804894772284054 3.545135051192716 L 0.03890708726380924 3.798358369553414 C 1.3753664816751086 3.6717465910099687 2.493771957832701 3.5099647148314377 3.3941234970861016 3.3130129797440135 L 5.040079482865207 3.0175852577497815 C 5.048381902400062 3.0173546482474904 5.056615568791377 3.017239343496345 5.064780004586766 3.017239343496345 C 5.5546451974053515 3.017239343496345 5.796118651280282 3.432360558965298 5.789199888759171 4.2626027511770115 C 5.782166060213108 5.106682229704753 5.4269491244939925 5.862836941597166 4.723549559054208 6.5310668868542505 C 4.020149993614424 7.199296832111335 3.661415904896083 8.166471652361876 3.6473477703515713 9.432591347605873 C 3.6473477703515713 10.459556097759878 4.136210551886389 11.19460836910933 5.11393659240841 11.637750071463774 C 6.09166167802566 12.08089177381822 7.037734535185626 12.555685704629948 7.952154686435924 13.062133773708501 C 8.866573405329065 13.568581842787054 9.387089131499744 13.962486745319058 9.513701864947961 14.243845616590201 C 9.44336166967779 15.735053554736838 9.26047830786107 16.698711938166735 8.96504986968826 17.134818857070343 C 8.472670412606604 17.134818857070343 7.614522322081965 17.064478661800173 6.390606553019116 16.92379827125983 C 6.01077121738878 16.980070809437876 5.75051335430344 17.10316567370829 5.609832486310712 17.293084773880615 C 5.469153528127526 17.48300387405294 5.497289319764163 17.69050468087611 5.69424129357778 17.91559292377875 C 5.7882960713930505 17.77973671214347 5.878469161312617 17.711806696516287 5.9647610407888685 17.711806696516287 C 5.99463093949035 17.711806696516287 6.024035799568166 17.719946304787623 6.052975621022314 17.73622552133029 C 6.165519265021248 17.799531888054396 6.446879091197162 17.831185071416453 6.897054144645284 17.831185071416453 L 8.96504986968826 17.831185071416453 C 9.066651737364214 17.811645809984256 9.162826881224358 17.801877134172933 9.253573391459145 17.801877134172933 C 9.489516991802953 17.801877134172933 9.68877028611562 17.867918348162302 9.851334229301921 18.000000776141047 C 10.048286203115538 17.98593311904892 10.21710095293536 17.929660580870873 10.357781343475702 17.831185071416453 C 10.978782653644581 17.849272877596132 11.498366392758383 17.8583158257812 11.916529696102794 17.8583158257812 C 12.474082358736627 17.8583158257812 12.85133372205558 17.842239049050068 13.048285695869197 17.810083585778262 C 13.39295188876922 17.753811047600216 13.705964898307187 17.704574247777778 13.987324724483102 17.662369366691856 L 14.704792424467398 17.89449143814056 C 14.713104870502352 17.89513122433739 14.721098378343662 17.895450162531034 14.728771038181785 17.895450162531034 C 14.889915037973028 17.895450162531034 14.91005779922074 17.754450833797048 14.789201231734465 17.47245026651953 C 14.170209041204592 17.134818857070343 14.02952865066425 16.28370459509177 14.367161015018208 14.919109390393348 L 14.367161015018208 14.919109390393348 C 14.486100133723532 14.921667580275903 14.601202445057407 14.922946197764796 14.712467949019834 14.922946197764796 C 15.825117259215483 14.922946197764796 16.55409538131412 14.795054846827687 16.899400405506203 14.539274054763013 C 18.306200491290543 14.792496656945131 19.452741281632388 15.03868734039073 20.33902468634128 15.277843240385495 L 20.486738905427682 15.024620638203377 C 20.1209702719847 14.616648078579246 19.84664522925962 14.356389738041521 19.6637618674429 14.243845616590201 L 19.6637618674429 14.243845616590201 L 20.59224824342817 14.433763761857755 C 20.74230770863311 14.490035345131028 20.8462548224276 14.518171614220051 20.90408958481164 14.518171614220051 C 21.01975910957972 14.518171614220051 20.95098304832509 14.405627492768732 20.697759491238198 14.180540204770864 C 20.641486953060152 14.025792157138396 20.23351534834079 13.723330845324293 19.473842767270575 13.273154359519014 L 19.473842767270575 13.273154359519014 L 20.761063948152763 13.526377916605906 C 20.901744338693106 12.62602685480489 19.924019253075855 11.985932223732057 17.827886781491472 11.606096888101721 C 16.73058279097207 11.352873331014829 15.738790048262691 10.86049196412363 14.852506643553802 10.12895660704721 C 13.684862457764227 9.101993766702748 11.91932947689251 8.349355969083367 9.55590579112911 7.871043214189065 C 8.303853752977238 7.786635839279153 7.607488493535902 7.4032831119233995 7.466808580447945 6.72098550957419 C 7.326128667359988 6.038687429772594 7.32964558163302 4.95193465952467 7.477359800719425 3.4607274375566117 C 7.625073542353445 1.969519857499264 7.417570825720734 0.9988280632941434 6.854850695916521 0.5486519952597018 C 6.43281095665265 0.1828839884729759 5.877125132846886 0.0 5.187792747046841 0.0 Z"
     style="fill:#ffffff;stroke:none"
     id="path2" />
  <path
     d="M 27.177865186478382 7.937876256002994 C 26.496671245133623 7.991654064440127 26.120222241250442 8.332250793733436 26.04851793344977 8.959665719745715 C 26.138148499234912 9.640860143848613 26.514597503118093 9.999383372505463 27.177865186478382 10.035235888474404 C 27.84113286983867 9.999383372505463 28.190692728124215 9.640860143848613 28.226544278576878 8.959665719745715 C 28.172766470139745 8.332250793733436 27.8232066118542 7.991654064440127 27.177865186478382 7.937876256002994 ZM 27.25853214051315 5.679180301671352 C 27.742538692303153 5.679180301671352 28.190693210882355 5.768811229525099 28.602994730734476 5.948073085232593 C 29.01529576782846 6.127334940940088 29.378299957533752 6.373819539952137 29.692007299850356 6.687527123647811 C 30.0057151249251 7.001234707343485 30.252199844626684 7.3597576946212655 30.43146145895511 7.763095602723013 C 30.610722590525395 8.16643375220383 30.700352914931468 8.592179844854769 30.700352914931468 9.040334122054901 C 30.700352914931468 9.506413933102294 30.610722590525395 9.941123154745469 30.43146145895511 10.344461786984425 C 30.252199844626684 10.747799936465242 30.0057151249251 11.101841721315509 29.692007299850356 11.406586176018948 C 29.378299957533752 11.711330630722387 29.01529576782846 11.948851980052666 28.602994730734476 12.119151189526065 C 28.190693210882355 12.289449433483185 27.742538692303153 12.374598314082675 27.25853214051315 12.374598314082675 C 26.774526312860356 12.374598314082675 26.32189131599085 12.289449433483185 25.900626908525563 12.119151189526065 C 25.479361776923067 11.948851980052666 25.116357104459635 11.711330630722387 24.8116130118248 11.406586176018948 C 24.506868074363222 11.101841721315509 24.264865160536825 10.747799936465242 24.085604149656074 10.344461786984425 C 23.906342354293347 9.941123154745469 23.8167114264396 9.506413933102294 23.8167114264396 9.040334122054901 C 23.8167114264396 8.592179844854769 23.906342354293347 8.16643375220383 24.085604149656074 7.763095602723013 C 24.264865160536825 7.3597576946212655 24.506868074363222 7.001234707343485 24.8116130118248 6.687527123647811 C 25.116357104459635 6.373819539952137 25.479361776923067 6.127334940940088 25.900626908525563 5.948073085232593 C 26.32189131599085 5.768811229525099 26.774526312860356 5.679180301671352 27.25853214051315 5.679180301671352 ZM 27.204754814834157 4.764946937561035 C 26.61319119789547 4.764946937561035 26.057480338304796 4.876985476688684 25.53762175330399 5.101062554943983 C 25.017763409682257 5.325139663371665 24.569609615240264 5.629884118075104 24.193160490667548 6.015295949226683 C 23.8167114264396 6.400708564860238 23.516448355197976 6.848862238612696 23.292371276942678 7.359757211863126 C 23.068294998255546 7.870652909250765 22.956256866455078 8.421882083655788 22.956256866455078 9.013444493699126 C 22.956256866455078 9.605007145121533 23.068294998255546 10.156236319526556 23.292371276942678 10.667132016914195 C 23.516448355197976 11.178027714301834 23.8167114264396 11.621700306316313 24.193160490667548 11.998149310199494 C 24.569609615240264 12.374598314082675 25.017763409682257 12.67486180773767 25.53762175330399 12.898938825648202 C 26.057480338304796 13.123014878042454 26.61319119789547 13.23505338699772 27.204754814834157 13.23505338699772 C 27.796317466256564 13.23505338699772 28.347546157903448 13.123014878042454 28.85844088977481 12.898938825648202 C 29.369336587162447 12.67486180773767 29.81749062298351 12.374598314082675 30.202903479996134 11.998149310199494 C 30.58831537149248 11.621700306316313 30.89305982619592 11.178027714301834 31.11713636134831 10.667132016914195 C 31.34121434477512 10.156236319526556 31.453252853730387 9.605007145121533 31.453252853730387 9.013444493699126 C 31.453252853730387 8.421882083655788 31.34121434477512 7.870652909250765 31.11713636134831 7.359757211863126 C 30.89305982619592 6.848862238612696 30.58831537149248 6.400708564860238 30.202903479996134 6.015295949226683 C 29.81749062298351 5.629884118075104 29.369336587162447 5.325139663371665 28.85844088977481 5.101062554943983 C 28.347546157903448 4.876985476688684 27.796317466256564 4.764946937561035 27.204754814834157 4.764946937561035 Z"
     style="fill:#ffffff;stroke:none"
     id="path4" />
  <path
     d="M 42.01102519392141 2.25 L 41.78435967930076 2.741108615011399 L 41.06658554966872 4.346656010240972 L 40.9532527923584 4.573321524861618 L 41.42547261448475 4.799987039482264 L 41.538805371795064 4.554432731976565 L 42.02991398680646 3.4399939517583897 L 42.27546829431216 3.874436188114627 L 42.50213380893281 4.327767217355919 L 42.72879932355345 3.874436188114627 L 42.99324242394421 3.4022163659882825 L 43.23879673144991 3.874436188114627 L 43.46546224607056 4.327767217355919 L 43.6921277606912 3.874436188114627 L 43.9376820681969 3.4022163659882825 L 44.202125168587656 3.874436188114627 L 44.4287906832083 4.327767217355919 L 44.65545619782895 3.874436188114627 L 44.901010505334646 3.4211051588733357 L 45.146564812840346 3.874436188114627 L 45.392119120346045 4.327767217355919 L 45.61878463496669 3.874436188114627 L 45.864338942472386 3.4022163659882825 L 46.109893249978086 3.874436188114627 L 46.355447557483785 4.327767217355919 L 46.582113072104434 3.874436188114627 L 46.82766737961013 3.4022163659882825 L 47.07322168711583 3.874436188114627 L 47.31877599462153 4.327767217355919 L 47.545441509242174 3.874436188114627 L 47.79099581674787 3.4022163659882825 L 48.03655012425357 3.874436188114627 L 48.26321563887422 4.327767217355919 L 48.50876994637992 3.874436188114627 L 48.75432425388562 3.4022163659882825 L 48.99987856139132 3.874436188114627 L 49.22654407601196 4.327767217355919 L 49.47209838351766 3.874436188114627 L 49.71765269102336 3.4022163659882825 L 49.98209579141412 3.8933249809996813 L 50.20876130603476 4.308878424470865 L 50.45431561354046 3.8933249809996813 L 50.718758713931216 3.3833275731032284 L 51.3798664649081 4.573321524861618 L 51.51208801510347 4.799987039482264 L 51.96541904434477 4.554432731976565 L 51.852086287034446 4.327767217355919 L 50.94542422855186 2.7033310292412915 L 50.718758713931216 2.3066663786551613 L 50.492093199310574 2.722219822126345 L 50.20876130603476 3.213328437137744 L 49.94431820564401 2.722219822126345 L 49.69876389813831 2.2877775857701077 L 49.49098717640272 2.722219822126345 L 49.22654407601196 3.1944396442526903 L 48.98098976850626 2.722219822126345 L 48.75432425388562 2.2688887928850536 L 48.52765873926497 2.722219822126345 L 48.28210443175927 3.1944396442526903 L 48.01766133136852 2.722219822126345 L 47.79099581674787 2.2688887928850536 L 47.56433030212723 2.722219822126345 L 47.299887201736475 3.1944396442526903 L 47.054332894230775 2.722219822126345 L 46.82766737961013 2.2688887928850536 L 46.601001864989485 2.722219822126345 L 46.355447557483785 3.1944396442526903 L 46.091004457093035 2.722219822126345 L 45.864338942472386 2.2688887928850536 L 45.637673427851745 2.722219822126345 L 45.392119120346045 3.1755508513676363 L 45.146564812840346 2.722219822126345 L 44.901010505334646 2.2688887928850536 L 44.674344990714 2.722219822126345 L 44.4287906832083 3.1944396442526903 L 44.1832363757026 2.722219822126345 L 43.9376820681969 2.2688887928850536 L 43.71101655357626 2.722219822126345 L 43.46546224607056 3.1944396442526903 L 43.21990793856486 2.722219822126345 L 42.99324242394421 2.2688887928850536 L 42.74768811643851 2.722219822126345 L 42.50213380893281 3.1944396442526903 L 42.25657950142711 2.722219822126345 L 42.01102519392141 2.25 Z"
     style="fill:#ffffff;stroke:none"
     id="path6" />
  <path
     d="M 44.40167735667919 10.464843577118906 L 44.40167735667919 10.464843577118906 C 45.14695125613791 11.302310877820014 45.7640196170549 12.25792057678521 46.313983974102705 13.228574608539498 C 46.42952949772773 13.371120866762396 46.29950768671996 13.50159925639967 46.20412693818277 13.636987539979414 C 45.841774890712024 12.486298931063509 45.00774565386987 11.59843492308829 44.40167735667919 10.464843577118906 ZM 43.68032061239387 6.238309555587722 C 43.74249447084912 6.528148322370789 43.62803399093929 6.86266698176794 43.408162258883515 6.961329389204675 L 43.47842984385785 7.111351955118131 C 43.75310205771099 6.980824777845045 44.01704902532669 6.589984851563661 44.056337884183364 6.239156184252434 C 44.43136233176824 6.261425396855923 44.533921808522656 6.54388204202752 44.59259952658507 6.871586918112738 C 44.6629099576478 7.095532794335901 44.59158728774664 7.639046639301728 44.87538371001837 7.732945850438498 C 45.71358240683785 8.057509991086796 46.35433360838231 8.432851600146343 46.929425187865725 9.000177828210038 C 47.92181222849027 10.241248921663342 48.958913179179945 11.443297270637139 49.95127411046937 12.685716676934746 C 50.33688555870958 13.169136372408005 50.68950351047218 13.612037057658448 50.975809776265905 13.946175625388593 C 49.4687287429875 12.819613381062101 47.78477370103703 11.957916282636301 46.13273564759316 11.062536133497717 C 45.254691092767814 10.585470713775068 44.416930564149226 10.195329630626926 44.416930564149226 9.144951078824487 C 44.416930564149226 8.580135531120455 45.45785452402331 8.106832198800275 45.414901655138394 8.033329232049217 C 45.41118442223472 8.026968261597297 45.39915303977124 8.023772378558316 45.38018762042351 8.023772378558316 C 45.16652355015961 8.023772378558316 44.07279078212858 8.429400816354896 44.07279078212858 9.284814100761402 C 44.07279078212858 9.521663260610204 44.13618090044474 9.741500180219152 44.24640313232126 9.9463687518989 C 44.24474719795166 9.946250925155802 44.24310666139507 9.946129416326983 44.24143298606698 9.946030334747562 C 43.04178836959938 9.310377817722577 43.23225864716668 8.024491556846796 43.27876707191858 6.890890001457911 C 42.78027710168864 6.863297287896497 42.36960989694933 6.591227304443465 41.89620949146012 6.478074467067467 C 42.26341327265568 6.430570038127821 42.62944230113847 6.36927958735262 42.99752534766764 6.331269249079071 L 42.99752534766764 6.331269249079071 C 42.92846029841653 6.3451054393325865 42.865294619961865 6.385252475213735 42.823227460060565 6.441330891807863 C 42.817231852932764 6.562231297803218 42.95390836441254 6.615435177021359 43.087162042478845 6.615435177021359 C 43.21720678283861 6.615435177021359 43.34399153839433 6.564763066472013 43.33172483717973 6.476889253883883 C 43.27292627975863 6.385319924329457 43.165736747576595 6.3258708093083325 43.0560477486596 6.3258708093083325 C 43.052880652836265 6.3258708093083325 43.04971138123501 6.325920350098043 43.04654127279608 6.3260201429894805 C 43.2295943234119 6.299782269606152 43.47343860929443 6.260848983072931 43.68032061239387 6.238309555587722 ZM 45.77566571945785 13.530312160858172 C 45.88311065449495 13.791464425411037 45.9388527460319 14.068057349070687 45.999665069607744 14.342228799265662 C 46.17440648117676 14.200740303850113 46.34384870192199 14.055405033060493 46.48725389032327 13.882340309435154 L 46.48725389032327 13.882340309435154 C 46.39383435453552 14.390146793378877 46.219512031268664 14.902187675902658 45.79674599495015 14.902187675902658 C 45.540866477150885 14.902187675902658 45.42233913356134 14.729309064973803 45.58645739308793 14.205074453479723 C 45.6637614438766 13.958146420805189 45.72531118880201 13.721964053207095 45.77566571945785 13.530312160858172 ZM 45.31635565182073 11.017860717965135 L 45.31635565182073 11.017860717965135 C 47.02697702803851 11.929131744873757 48.72081679647665 12.848993077771311 50.33860274959619 13.91840667381513 C 50.719652428362174 14.22725399892751 51.05914407926167 14.571472108953515 51.28910037463929 14.893214098263597 C 51.136605790266245 15.130185101676284 50.84637375162296 15.211555179307007 50.578026691569725 15.229494300943557 C 49.20865231693553 15.181747021713807 48.672645073183695 13.861574015434401 47.94933347611517 12.918369598000975 L 47.555835000258895 12.440533952892341 L 47.62370320428288 13.05281459816581 C 47.62838012261969 13.163079676130732 47.74130634435626 13.68481314721452 47.572979460849666 13.68481314721452 C 47.558644096929555 13.68481314721452 47.5422695269897 13.681029302032783 47.52361474178286 13.67288519788632 L 46.831564721962444 12.84437507280606 C 46.75754341796228 12.893162039149615 46.687866305643695 12.94859818283659 46.61150721194525 12.993888506684712 C 46.26820393285358 12.299159936869234 45.76572341853889 11.652406935598254 45.31635565182073 11.017860717965135 ZM 43.840043131038776 5.88339402417661 C 43.480507377042606 5.88339402417661 43.11216256769212 5.947970192514025 42.76290016759479 5.98042679486733 C 42.346426732091054 6.183743932280768 41.92458088246793 6.02879814578504 41.48780057684099 6.1875118775468865 C 41.17222532796101 6.329005017411471 41.083842205510074 6.616177703080663 40.9532527923584 6.903250846909719 C 41.13920683095818 6.841381095261584 41.308415553074205 6.81622692665319 41.46787873572703 6.81622692665319 C 41.976838549339334 6.81622692665319 42.3865207124643 7.072472058827876 42.924515613035766 7.209052668711348 C 42.92358739269881 7.47899524345485 42.88125445315542 7.785321511420536 42.86110340220527 8.093947744022076 C 42.77769478802494 8.930395609080847 43.21842772899045 9.664441490233576 43.85564680612252 10.187149709828441 C 44.312053716535544 11.203481019166706 44.94360639847685 11.983293217430862 45.404618593922635 12.776305358272564 C 45.349654091943115 13.132460790208604 45.01811440726242 14.476942926423254 44.85464620323326 14.959588714424806 C 44.53454374627457 15.013368589007108 44.19276250752626 15.043903791162826 43.856705573135066 15.043903791162826 C 43.72108297500939 15.043903791162826 43.58639278140899 15.03893029755789 43.45443603435442 15.02850463920418 C 43.44424017162326 15.02707197312334 43.43400179753876 15.026375724186856 43.42372325524639 15.026375724186856 C 43.1644614069766 15.026375724186856 42.87950261718951 15.469278417847692 42.60008503167865 15.705638195030563 L 48.27993389420175 15.750000633276793 C 48.135092022898846 15.23780644209296 47.125849063310085 14.966208435082448 46.76718244891179 14.966208435082448 C 46.74658352244384 14.966208435082448 46.728130247746506 14.967104186118041 46.712109827506076 14.968901713420404 C 46.83871131561337 14.606807411950184 46.99654693269339 14.26666302767274 47.041510555117476 13.760933909546235 C 47.200033718022276 13.902767851549502 47.3778007998494 14.056215091919286 47.59970939477945 14.07215383680371 C 47.87101417387249 14.051741023032248 47.98109246967079 13.866423657065061 48.01548783660321 13.624627112946438 C 48.63005137502419 14.641122442466854 49.3173367759206 15.471140214282654 50.578026691569725 15.593205372780707 C 51.01365893960536 15.571897477443787 51.556541641604966 15.381400421071241 51.67402963281577 14.918443749629287 C 52.25187875976974 14.88590348443052 51.82812960656351 14.32288379035352 51.613702340349995 14.102294721052132 C 50.04121206683963 12.400288755953202 48.743331746460186 10.457337143272444 47.18958663662437 8.742634007664524 C 46.59119414922335 8.152320183704642 45.9155585328156 7.753042674308015 45.078816937736754 7.421894797021628 C 45.016528767256595 7.268906311059271 44.99609754305653 7.051277136575601 44.955591587501274 6.811815118488358 C 44.911392165231995 6.550588626434691 44.77200513655839 6.122981128573687 44.51719041100285 5.98990903382001 C 44.30012643667748 5.910253061237016 44.07191678887225 5.88339402417661 43.840043131038776 5.88339402417661 Z"
     style="fill:#ffffff;stroke:none"
     id="path8" />
  <path
     d="M 56.76842984915372 6.3841670751571655 L 56.75324360567805 6.391760203966652 L 59.47158372230285 11.600646596975281 L 60.49665642415056 11.600646596975281 L 57.77831594545715 6.3841670751571655 ZM 54.49049124590904 6.391760203966652 L 53.46541881561279 6.399353332776139 L 56.183758932237595 11.615832840450949 L 57.208831272016695 11.608239899747417 L 54.49049124590904 6.391760203966652 Z"
     style="fill:#ffffff;stroke:none"
     id="path10" />
  <path
     d="M 63.32190263194175 4.286342243525814 Q 63.23815536033535 4.286342243525814 63.15916282068503 4.31189848775103 Q 62.85037168072227 4.411801870443561 62.8867000737956 4.611607831186323 Q 62.91743942142363 4.780673438498174 63.16276228745279 4.780673438498174 Q 63.20736682894647 4.780673438498174 63.25906529815497 4.775084393052868 Q 63.59510223002129 4.738756804621838 63.84940027747261 4.50262265196632 Q 63.5655323294022 4.286342243525814 63.32190263194175 4.286342243525814 ZM 63.47921915406784 4.102607001204643 Q 64.13477874030868 4.102607001204643 65.50233874257951 4.8840697734334455 Q 66.1883526319121 5.239327196021337 67.00655517059228 5.239327196021337 Q 67.40154884757257 5.239327196021337 67.82735026677675 5.156532520322874 Q 68.89903605199493 4.938561960722295 70.07970621179078 4.775084393052868 Q 70.48068763447813 4.719564074059766 70.85652800836925 4.719564074059766 Q 71.5873307022832 4.719564074059766 72.22307697758481 4.929479963034249 Q 73.18577677894066 5.247353100685057 73.82152224959998 5.338173681047239 Q 74.4572677202593 5.428994462569998 75.83774343847676 5.501651248716666 Q 74.94770042326758 5.592471829078848 74.09398459416826 5.592471829078848 Q 73.24026956971124 5.592471829078848 72.07776340529148 5.401747866024134 Q 71.49650992076043 5.306386286817928 70.95839733337165 5.306386286817928 Q 70.42028313669825 5.306386286817928 69.92530983716709 5.401747866024134 Q 68.9353640427471 5.592471829078848 67.67295550143767 5.755949195587699 Q 67.35735306436946 5.796818587505056 67.05253565042622 5.796818587505056 Q 66.13808421323883 5.796818587505056 65.32069677721285 5.428994462569998 Q 64.52704085782662 4.887292365861958 63.6722250826974 4.887292365861958 Q 63.29451532357293 4.887292365861958 62.904864672653424 4.993054952653448 Q 62.55974508932718 4.974890353795629 62.59607353269066 4.611607831186323 Q 62.79587944314328 4.121175329338619 63.449789361789975 4.1030107304808 Q 63.46432039716239 4.102607001204643 63.47921915406784 4.102607001204643 ZM 63.96480811156512 2.25 Q 63.57186325505202 2.25 63.2318196068317 3.44910166676655 Q 62.94732625053031 2.3901548402113404 62.497802417202436 2.3901548402113404 Q 62.43070938055864 2.3901548402113404 62.359940033807014 2.413744588935119 Q 61.81501538238807 2.7588633550465183 62.72322255641632 3.739728207871493 Q 61.99665665626526 4.157503722411953 61.99665665626526 4.793249193071263 Q 61.99665665626526 5.428994462569998 63.06834213974256 5.501651248716666 Q 63.399710637539926 5.414734792814694 63.7156453918798 5.414734792814694 Q 64.45611747236389 5.414734792814694 65.11180982458492 5.892180367871838 Q 65.6730822302563 6.300873884724251 66.89153477176927 6.300873884724251 Q 67.7038352591478 6.300873884724251 68.80821527047216 6.119232723999886 Q 70.16462413736957 5.73733097963086 71.44465233353627 5.73733097963086 Q 71.93017993705786 5.73733097963086 72.40471773598802 5.792277588661033 Q 73.59106545188266 5.929643708915313 74.42541112679181 5.929643708915313 Q 74.80465835619913 5.929643708915313 75.111177990937 5.901262365559882 Q 76.6551312768239 5.864934777128853 76.6551312768239 5.610635623294364 Q 76.23735455531998 5.229188501827238 75.47446031238573 5.102039528391721 Q 73.85785104499446 5.083875734176207 72.52278531521722 4.538951045039655 Q 71.8552524503286 4.266488700471378 70.88574054722497 4.266488700471378 Q 69.91622864412136 4.266488700471378 68.64473770280273 4.538951045039655 Q 67.82479713674537 4.745851738139544 67.11800537151134 4.745851738139544 Q 66.1494373138306 4.745851738139544 65.39335356335951 4.357308878512409 Q 64.61229552620975 3.8850410761028122 63.74041590289492 3.5762507407823545 Q 64.46698175275583 3.0131614527879833 64.42157156315503 2.640796178138471 Q 64.37616117239365 2.268430898774258 63.97654945206871 2.250267109273444 Q 63.97067294816021 2.25 63.96480811156512 2.25 Z"
     style="fill:#ffffff;stroke:none"
     id="path12" />
  <path
     d="M 76.2032551832378 8.774125294970403 C 76.2032590868804 8.774125294970403 76.20316735127953 8.77422678967774 76.20297021732874 8.774431730913708 L 76.20297021732874 8.774431730913708 C 76.20296631368615 8.774435634556298 76.2029614341329 8.774440514109536 76.20295753049032 8.774444417752125 L 76.20295753049032 8.774444417752125 C 76.20314880897723 8.774231669230979 76.20325127959521 8.774125294970403 76.2032551832378 8.774125294970403 ZM 76.19863424632203 8.939777344182247 C 76.19866742728405 8.939815404697498 76.19870060824607 8.93985346521275 76.19873378920808 8.939891525728001 L 76.19873378920808 8.939891525728001 C 76.1989192122311 8.940105250159796 76.19900411645743 8.940211624420371 76.1989992369042 8.940211624420371 C 76.19899435735095 8.940211624420371 76.19886651305613 8.940066213733898 76.19863424632203 8.939777344182247 ZM 63.75896654875638 8.32715821843012 L 63.75896654875638 9.269884976152138 L 63.75896654875638 9.269884976152138 C 63.71399975783067 9.249253249154021 63.669826260272515 9.229331009196612 63.62679592004904 9.209912339133297 L 63.62679592004904 9.209912339133297 C 63.529043464078924 9.165798250135806 63.43767029203365 9.124537723871512 63.35074056315513 9.081742090158752 L 63.35074056315513 9.081742090158752 C 63.18953366495367 9.00237908448537 62.992890414237586 8.978301416991041 62.85272195379658 8.959336545378799 L 62.85272195379658 8.959336545378799 C 62.69352781031111 8.93779917329983 62.59264149177152 8.921519031878772 62.5264684369512 8.888942158555647 L 62.5264684369512 8.888942158555647 C 62.49072516053795 8.871344537760505 62.47633627295727 8.860915956581664 62.47633627295727 8.798525988889043 C 62.47633627295727 8.723540918380202 62.480361080953465 8.688093891842874 62.8527232346793 8.637715432399288 L 62.8527232346793 8.637715432399288 C 62.992891512137064 8.618751536697692 63.189534274897824 8.594673869203364 63.350740441166295 8.51531183944063 L 63.35074080713279 8.51531183944063 L 63.35074117309928 8.51531183944063 C 63.43767175589962 8.47251522981722 63.529045781866714 8.43125372764228 63.62679933573631 8.38713963864479 L 63.62679933573631 8.38713963864479 C 63.66985517162545 8.367709257653704 63.714065509810546 8.347761644019462 63.75896654875638 8.32715821843012 ZM 64.23864627218862 9.337725404810868 L 64.23864627218862 9.337726380721515 L 64.23864602821097 9.337726380721515 C 64.23864602821097 9.337726380721515 64.23864602821097 9.337726380721515 64.23864602821097 9.337725404810868 ZM 72.9370930428627 8.256473010234021 C 72.98639312104083 8.256473010234021 73.0356941751296 8.256766759338909 73.08499815695033 8.257369872119044 L 73.08499815695033 8.257369872119044 C 73.12841544574553 8.257901743421915 73.17182102361296 8.258672712833414 73.2152168423739 8.259693515370666 L 73.2152168423739 8.259693515370666 C 74.11751162197135 8.280923475595682 75.60404311796059 8.616980258872537 76.0718088022197 8.853838652566226 L 76.0718088022197 8.853838652566226 C 75.59733665999119 9.06400198640908 74.12468554114088 9.315959669640392 73.2152168423739 9.337358462407419 L 73.2152168423739 9.337358462407419 L 73.2152168423739 9.337358462407419 C 73.12244872804692 9.339541574525805 73.02969427646897 9.340582871186655 72.93693884898039 9.340582871186655 C 71.97897324649816 9.340582871186655 71.02089248655953 9.229441287099775 70.04622758903315 9.116044373506599 L 70.04622758903315 9.116044373506599 C 69.07591232526254 9.003153957539459 68.08903829758101 8.888037489385443 67.09483957253492 8.888037489385443 C 67.0436276853984 8.888037489385443 66.99239628004892 8.888342949418101 66.94114682035247 8.888969484053774 L 66.94114682035247 8.888969484053774 C 66.0864213413999 8.899424414820098 65.06355938870469 8.98968736651505 64.23864602821097 9.337725404810868 L 64.23864627218862 9.337725404810868 L 64.23864627218862 8.259326572967218 L 64.23864627218862 8.259326572967218 C 65.06355963268236 8.607366563084332 66.08642182935523 8.697628538868635 66.94114682035247 8.708084445545605 L 66.94114682035247 8.708084445545605 L 66.94114682035247 8.708084445545605 C 66.99239286436166 8.70871098018128 67.04362036606854 8.709016440213937 67.09482834956248 8.709016440213937 C 68.08903000234051 8.709016440213937 69.07590695775399 8.593899972059923 70.04622466130121 8.481008580182134 C 71.02075878680083 8.36762630524867 71.97871463017658 8.256473010234021 72.9370930428627 8.256473010234021 ZM 64.05393432206525 7.633462387907656 L 63.93835490629783 7.699901408876621 C 63.870372238662235 7.738980774843824 63.80065537780609 7.775421278420275 63.729501854488035 7.8104506152004864 L 63.729501854488035 7.8104506152004864 C 63.63067443293974 7.859104640529997 63.531128619166076 7.904051181309777 63.42949020898658 7.949918981740767 L 63.42949020898658 7.949918981740767 C 63.33314257639349 7.993398728817403 63.23428843929122 8.03798418265762 63.13887414324361 8.084956713941544 L 63.13887414324361 8.084956713941544 L 63.13887414324361 8.084956713941544 C 63.06193737342866 8.122832782080419 62.95105153892584 8.140362089130237 62.78841133295533 8.162366922409342 L 62.78841133295533 8.162366922409342 C 62.56764845058708 8.192234667775097 61.99665665626526 8.234584310321965 61.99665665626526 8.798525988889043 C 61.99665665626526 9.058731093002105 62.1288533067151 9.227850552744403 62.314600858145795 9.319296308144084 L 62.314600858145795 9.319296308144084 C 62.46561873073515 9.393643133089482 62.65394853411474 9.416494080899941 62.788409503122864 9.43468603127939 L 62.788409503122864 9.43468603127939 C 62.95105080699285 9.456689888647848 63.06193700746217 9.474220171608314 63.13887389926595 9.512096239747189 L 63.138874326226855 9.512097215657837 L 63.13887481418218 9.512097215657837 C 63.23428807332473 9.559069746941761 63.33314086854986 9.603654224871331 63.4294875252323 9.64713299603732 L 63.4294875252323 9.64713299603732 C 63.605234760148036 9.726444278446385 63.77505675356768 9.803280651453473 63.93835539425316 9.897150568901464 L 64.05393444405408 9.96358958987043 L 64.17137748319165 9.900503797886165 C 64.92767285821827 9.494253665379535 65.99803970145561 9.380221433954857 66.94701399516505 9.368613952713874 L 66.94701399516505 9.368613952713874 L 66.94701399516505 9.368613952713874 C 66.99648339384052 9.368008888112444 67.04594742500743 9.367713187186261 67.09540804048707 9.367713187186261 C 68.05605544542854 9.367713187186261 69.01552102257594 9.4790431220281 69.99079342448036 9.592510301187895 L 69.99079342448036 9.592510301187895 C 70.96021231432127 9.705297270626403 71.94546047486412 9.820250761702292 72.93780740945664 9.820250761702292 C 73.03397462056877 9.820250761702292 73.13020819360493 9.819171404526191 73.22650032127993 9.816905340002771 L 73.22650032127993 9.816905340002771 C 74.18118198443344 9.794442804630004 76.16980682170649 9.499454293219891 76.54808833096733 9.107576396818521 L 76.54808833096733 9.107576396818521 C 76.59642518533641 9.057503397407592 76.6551301144242 8.973960566431105 76.6551301144242 8.860560725105985 C 76.6551301144242 8.75518774885629 76.60410072257875 8.675125015248673 76.56095473694356 8.625426765526372 L 76.56095473694356 8.625426765526372 C 76.19937105886088 8.208930547131978 74.20002291539345 7.80305321249268 73.22650032127993 7.780146637775314 L 73.22650032127993 7.780146637775314 L 73.22650032127993 7.780146637775314 C 73.18126198321656 7.7790819192589264 73.13605097065133 7.778279720706708 73.09086533176291 7.777726379369594 L 73.09086533176291 7.777726379369594 C 73.0397812889212 7.777101796555215 72.9887138365605 7.776797312433204 72.93766297468082 7.776797312433204 C 71.94572299482829 7.776797312433204 70.96034308634803 7.89174006849197 69.9907900087931 8.004542652500838 C 69.01551516711206 8.118010807571281 68.05604715018805 8.22934074241312 67.09539681751463 8.22934074241312 C 67.04594010567757 8.22934074241312 66.99647949019793 8.229045041486938 66.94701399516505 8.228439976885507 L 66.94701399516505 8.228439976885507 C 65.99803921350028 8.216831519733876 64.92767310219594 8.102800264219846 64.17137772716931 7.696548179891922 L 64.05393432206525 7.633462387907656 Z"
     style="fill:#ffffff;stroke:none"
     id="path14" />
  <path
     d="M 63.588632654421886 11.29617795764473 C 63.526774064609626 11.29617795764473 63.46491534072236 11.301801471046787 63.40305675091009 11.307424984448842 C 62.50891811474587 11.403024713331256 61.873461072032086 12.30841036582498 62.01404890917841 13.185678443976196 C 62.07590755869595 13.838006061462362 62.480800540403365 14.203534494396207 62.92505808764372 14.56343928509029 C 64.2465837800728 15.373225265264495 63.87543183897421 15.075178930307661 65.2082046147703 15.750000714527841 L 65.42189819318085 15.35073123260549 C 63.83606728182095 14.608427350408299 63.6448678701444 14.490333544873517 63.14999861534628 14.16416980316794 C 62.74510569229668 13.838006061462362 62.424565391718346 13.478101270768278 62.452682966060856 12.93262044248739 C 62.44143594973136 12.555844993224044 62.66637651095266 12.167822527631195 62.919434579478974 11.982246624119401 C 63.12188107452252 11.830411736077362 63.38056271825109 11.740435538403842 63.633620853814904 11.740435538403842 C 63.82482026549145 11.740435538403842 64.00477266083848 11.785423637240601 64.16223102352653 11.897893934610632 C 64.56150050544888 12.094716854451926 64.78081745794918 12.747044404900588 64.4883947652321 13.15756090315244 C 64.35343056927807 13.354383957068746 64.11161945004376 13.48934828709778 63.869808330809455 13.48934828709778 C 63.75171452527467 13.48934828709778 63.633620853814904 13.455607104034264 63.53239757277438 13.3825014978925 C 63.32995101069332 13.270031200522471 63.178116156170034 12.87638522676487 63.38618622641584 12.657068274264573 C 63.290586453540065 12.555844993224044 63.15562212351103 12.432127679524513 63.054398909508 12.432127679524513 C 62.98691674449349 12.432127679524513 62.936305103973226 12.48273925300727 62.902564054984715 12.600833058542051 C 62.677623527282165 13.140690378658187 63.03752838501375 13.753653304916087 63.57738563809238 13.899864785349633 C 63.67298541096816 13.927982192098376 63.76858518384394 13.94485285066764 63.8641848226447 13.94485285066764 C 64.48277139114236 13.94485285066764 65.05636976024701 13.427489563210509 65.05636976024701 12.786409096128855 C 65.11260484189452 12.038481772804417 64.51651244013087 11.352413093760212 63.76858518384394 11.307424984448842 C 63.712349968121416 11.301801471046787 63.650491378309155 11.29617795764473 63.588632654421886 11.29617795764473 Z"
     style="fill:#ffffff;stroke:none"
     id="path16" />
  <path
     d="M 66.5328065492167 11.678576858991542 L 66.5328065492167 15.750000524371545 L 67.21325170752662 15.750000524371545 L 67.21325170752662 11.678576858991542 ZM 71.21156963268986 11.6842003723936 L 71.21156963268986 15.750000524371545 L 71.89201479099977 15.750000524371545 L 71.89201479099977 11.6842003723936 ZM 75.97468627715934 11.6842003723936 L 75.97468627715934 15.750000524371545 L 76.65513089916922 15.750000524371545 L 76.65513089916922 11.6842003723936 Z"
     style="fill:#ffffff;stroke:none"
     id="path18" />
  <path
     d="M 79.01364434281493 4.7753059444913895 Q 79.23367352424508 4.7753059444913895 79.4733356947162 4.996880661018119 Q 79.85973033092213 5.354112300445811 80.08573445897974 5.755087258317888 Q 80.31173786290016 6.156062940327173 80.31173786290016 6.433099733007891 Q 80.0492821160228 6.41851868720453 79.64101627318044 6.199805353600047 Q 79.23275043033807 5.981092201029865 78.87551879091038 5.5874074039908646 Q 78.51828635945762 5.193722697469015 78.7515806709776 4.858361495281976 Q 78.8789328715573 4.7753059444913895 79.01364434281493 4.7753059444913895 ZM 85.1525994489718 6.447680778811252 Q 85.45879941946505 6.62265151810856 85.63377124496817 6.958012856071326 Q 85.80874089805967 7.293373107828279 85.837903351735 7.665186788747993 Q 85.86706508127311 8.037000107599104 85.70667593088207 8.416104039869046 Q 85.37131567912512 8.16822861465784 85.20363446704083 7.832867276695074 Q 85.03595325495654 7.497505938732308 85.02137202811888 7.125693344018407 Q 85.00679080128121 6.753879844132994 85.1525994489718 6.447680778811252 ZM 81.71150594969025 8.18280875528969 Q 82.45513222532387 9.320120552099516 82.81965493075614 10.078326968364982 Q 83.18417763618842 10.836534108767657 83.08940147208664 11.93010367333891 Q 82.99462567005345 13.023671065498538 81.71150594969025 13.140318707788216 Q 80.42838586725844 13.038252292336201 80.33360988419095 11.937392114346116 Q 80.23883390112347 10.836534108767657 80.60335660655575 10.078326968364982 Q 80.96787913095372 9.320120552099516 81.71150594969025 8.18280875528969 ZM 78.97576499697077 4.26153302192688 Q 78.70042435992609 4.26153302192688 78.41622026081563 4.523001085120009 Q 78.08085909822985 4.887523677405849 78.17563501623813 5.23746520125904 Q 78.27041093424641 5.5874074039908646 78.5255765202907 5.893606469312607 Q 78.78074285310147 6.199805353600047 79.13068437695466 6.447680778811252 Q 79.48062657968649 6.695556204022457 80.13676712360285 6.943431629233663 Q 80.70542265993916 7.103822046864819 81.12826954858488 7.716219996474001 Q 81.12826954858488 7.978676648522869 80.43567593757436 9.035792783931361 Q 79.74308305070106 10.092908195202645 79.64101627318044 11.295832616233119 Q 79.53895021979703 12.49875848553801 80.15863842075643 13.125738205087762 Q 80.76424378231218 13.738467628504301 81.66925181941589 13.738467628504301 Q 81.69029778118568 13.738467628504301 81.71150594969025 13.738135973662642 Q 81.73271411819482 13.738467628504301 81.75375645927856 13.738467628504301 Q 82.65860138447597 13.738467628504301 83.25708232210232 13.125738205087762 Q 83.86947936653999 12.49875848553801 83.77470428864402 11.295832616233119 Q 83.67992848661083 10.092908195202645 82.98733541870322 9.035792783931361 Q 82.29474271286422 7.978676648522869 82.25099939441984 7.453763706493737 Q 82.99462567005345 6.170643261993325 83.86218911518976 5.747797097484812 Q 84.08001900139944 5.641627992158833 84.22523096002992 5.641627992158833 Q 84.65836349359033 5.641627992158833 84.44542587836374 6.586199356185913 Q 84.16109811019558 7.847448503532737 85.45879941946505 9.203471823604024 Q 85.82332284903454 9.84503204585423 86.11494014441571 11.040667663808895 L 86.1878441061924 11.609323924282412 Q 86.3336534780202 11.672507792304534 86.4632617280741 11.672507792304534 Q 86.72247822818191 11.672507792304534 86.91689024119417 11.419772320216046 L 86.68359640488923 10.880277065143437 Q 86.3336534780202 9.699223398163644 86.31907225118253 8.970178349367691 Q 86.52320580622377 7.453763706493737 86.29720185920046 6.870526943319765 Q 86.07119791217714 6.287290361180096 85.40776657380765 5.58011651902058 Q 84.9165227533732 5.056483942093868 84.27738404594943 5.056483942093868 Q 84.0533555452319 5.056483942093868 83.81115663160097 5.120818011555118 Q 82.87797838983238 5.368693436766323 81.71150594969025 7.191307054444868 Q 81.02620277106426 6.783041211602507 80.82206975912592 6.2435479479072225 Q 80.58877537971809 5.5874074039908646 80.34089995450688 5.23746520125904 Q 80.09302452929568 4.887523677405849 79.78682564500824 4.6323573445950705 Q 79.48062657968649 4.377191758550789 79.13068437695466 4.282415840542506 Q 79.0535786995407 4.26153302192688 78.97576499697077 4.26153302192688 Z"
     style="fill:#ffffff;stroke:none"
     id="path20" />
  <path
     d="M 40.9532527923584 0.375 C 31.328252851963043 0.375 31.328252851963043 17.625 40.9532527923584 17.625 "
     style="fill:none;stroke:#ffffff;stroke-width:1"
     id="path22" />
  <path
     d="M 40.9532527923584 0.375 L 86.91689109802246 0.375 "
     style="fill:none;stroke:#ffffff;stroke-width:1"
     id="path24" />
  <path
     d="M 40.9532527923584 17.625 L 86.91689109802246 17.625 "
     style="fill:none;stroke:#ffffff;stroke-width:1"
     id="path26" />
  <path
     d="M 94.60439109802246 0.375 L 94.60439109802246 17.625 "
     style="fill:none;stroke:#ffffff;stroke-width:1"
     id="path28" />
  <path
     d="M 86.91689109802246 0.375 C 96.5418930053711 0.375 96.5418930053711 17.625 86.91689109802246 17.625 "
     style="fill:none;stroke:#ffffff;stroke-width:1"
     id="path30" />
</svg>
