<?xml version="1.0" encoding="UTF-8" standalone="no"?>
<svg
   width="80.39725494384766"
   height="18.0"
   version="1.1"
   id="svg22"
   sodipodi:docname="neferrenputsankhibu.svg"
   inkscape:version="1.1.1 (3bf5ae0d25, 2021-09-20)"
   xmlns:inkscape="http://www.inkscape.org/namespaces/inkscape"
   xmlns:sodipodi="http://sodipodi.sourceforge.net/DTD/sodipodi-0.dtd"
   xmlns="http://www.w3.org/2000/svg"
   xmlns:svg="http://www.w3.org/2000/svg">
  <defs
     id="defs26" />
  <sodipodi:namedview
     id="namedview24"
     pagecolor="#ffffff"
     bordercolor="#666666"
     borderopacity="1.0"
     inkscape:pageshadow="2"
     inkscape:pageopacity="0.0"
     inkscape:pagecheckerboard="0"
     showgrid="false"
     inkscape:zoom="17.102574"
     inkscape:cx="40.198627"
     inkscape:cy="8.9752572"
     inkscape:window-width="1920"
     inkscape:window-height="1001"
     inkscape:window-x="-9"
     inkscape:window-y="-9"
     inkscape:window-maximized="1"
     inkscape:current-layer="svg22" />
  <path
     d="M 5.454143572319105 0.38638405261740716 C 5.6751986350969625 0.38638405261740716 6.0198472107908465 0.43846304248784007 6.211377729173311 0.48978353459751095 C 7.043040107707465 0.7126268987793605 6.2060781548689725 1.4576656313354053 5.670499150679329 1.4576656313354053 C 5.645675310396461 1.4576656313354053 5.621499128101075 1.4560650867138016 5.598166364823283 1.4527377590493051 L 5.598166364823283 1.4527377590493051 C 5.2452836289156854 1.5270191599566676 5.657208135444718 1.6516913405425198 6.100369028149615 1.6516913405425198 C 6.371794440716527 1.6516913405425198 6.654937462107786 1.6049233596160355 6.781255773411818 1.4711656717820771 C 6.852830518892686 1.3953753558318478 6.912108910323108 1.3639720239176871 6.9629476229505665 1.3639720239176871 C 7.148321731367289 1.3639720239176871 7.221486349139459 1.7814996563172263 7.369436559194839 1.9870992028133305 C 8.109766964545285 2.2320299455576382 8.572153297980249 2.899799787031018 9.050509706479392 3.4727819547688448 C 10.427930052921685 5.122675736613722 11.668260962471539 6.8783423742360466 12.967744634877972 8.588242400437956 C 12.611392476850998 8.48312787497829 12.224502817821092 8.278009345655091 11.870752268998066 8.107222788142833 C 10.250106465731893 7.324793393911243 8.524267466685542 6.706575791878325 7.056547618785348 5.653163124478057 C 6.324634327882369 5.1278539512763395 5.345499249842926 4.51876911966858 5.264370024428102 3.5973664697843573 C 5.202570523656583 2.8954927394447814 6.490844590161053 2.259560441267 6.397605624014208 1.8800112110189322 C 6.386753388715507 1.8358343194279554 6.355336487695676 1.8161086513304385 6.30878866169714 1.8161086513304385 C 6.033909073196996 1.8161086513304385 5.231366300354198 2.503995530499702 5.02003007139695 2.906660570796704 C 4.938768814010101 3.0614904698885916 4.879530977434828 3.123278383558639 4.83783143863071 3.123278383558639 C 4.6918117006651325 3.123278383558639 4.760840637983347 2.365644014318102 4.852316840087996 2.1923293342191177 C 5.162809689882786 1.604057223781083 4.223751651517808 0.8679923201596249 4.752486337822802 0.5290855725147102 L 4.752486337822802 0.5290855725147102 C 4.736400696667635 0.6173537864769199 4.7540868824444065 0.8663049485079197 5.0637960782712925 0.8663049485079197 C 5.3886697406864075 0.8663049485079197 5.369079611183729 0.4656883095505593 5.2689176568317215 0.41293273205443365 C 5.301349953848873 0.39420801419286505 5.36846244556854 0.38638405261740716 5.454143572319105 0.38638405261740716 ZM 6.069788227978029 5.863214709790646 C 6.323975692640863 6.762449405018629 6.696283899240764 7.629413412802606 7.135400893532303 8.452206779931927 C 7.351771108231227 8.857629702840873 8.265934259085897 9.502025616333867 7.620163139602537 9.830196723888633 C 7.602866036496212 9.834973658931888 7.585570762932224 9.837214848295345 7.568255974249969 9.837214848295345 C 7.310987560290759 9.837214848295345 7.049406915042022 9.342463910909716 6.712954689020212 9.320119100494184 C 6.67903192484543 8.693869197752123 6.575001708144468 8.06546836306859 6.448145511393205 7.446592735641611 C 6.344633665021206 6.9416012399454585 6.088178787554743 6.271072143703381 6.069788227978029 5.863214709790646 ZM 6.774795659418047 6.459697958701316 L 6.774795659418047 6.459697958701316 C 7.569842797304042 7.0356641099916315 8.405933278142431 7.553192239631892 9.246634815518807 8.060175497086155 C 9.468879080816052 8.556551677914943 9.280516719914718 9.282423820019444 9.395827284821362 9.864688475730382 C 8.857778398476073 9.501763991779603 8.28369911518318 9.486578790378216 7.938584616040677 8.798798329588251 C 7.554208138335073 8.032772611954833 6.9204552824668575 7.305266688542932 6.774795659418047 6.459697958701316 ZM 7.000934410504418 10.059063322600238 C 7.135474685073249 10.295082212156643 7.336466376730457 10.443322709596242 7.539293099352194 10.443322709596242 C 7.698827361641281 10.443322709596242 7.8594965500270755 10.351611411301223 7.9898569302021265 10.138767334534139 C 8.175012103385795 10.34420664361385 8.218963808807393 11.064965824732438 8.219863943637453 11.464443954739346 C 8.22078908221279 11.875067656666406 8.005229354769385 11.909575264541749 7.754371047313386 11.909575264541749 C 7.7036902851744005 11.909575264541749 7.6515684535208965 11.908167736636754 7.599499678595182 11.908167736636754 C 7.503209645676805 11.908167736636754 7.407101347297289 11.912984311763987 7.320625589324795 11.940433545301191 C 7.276695228563797 11.95437831699774 7.230527337524019 11.959987693804566 7.182692123567317 11.959987693804566 C 6.98565285320659 11.959987693804566 6.760333737087427 11.864796605983589 6.546653559472097 11.864796605983589 C 6.526873767413762 11.864796605983589 6.507193990336545 11.865612581866122 6.487645330460182 11.867394556102862 C 6.488004530605782 11.347772820181039 6.847494963589043 10.641789022980232 7.000934410504418 10.059063322600238 ZM 8.603951963501176 7.092214653796816 C 10.294832067562263 7.858253788074042 11.963344187004877 8.682241846349761 13.658331003766241 9.443264375537517 C 14.306199998463287 10.121921518537734 14.89692628748524 10.890737288235863 15.617332976780133 11.491755362753791 C 16.156479588527933 11.941553225211752 15.463364792129216 11.850415183515821 15.144459706666524 11.910077778837119 C 14.899576684484854 11.955893178053204 14.652335992077571 11.9891323032412 14.405890540739662 12.026157361372965 C 13.536195636093217 11.155342776815962 12.661034058942274 10.288166542120832 11.825686982140361 9.38497027788468 C 10.917455817391367 8.402968916849794 9.68127857879512 7.847318613522707 8.603951963501176 7.092214653796816 ZM 8.091606927303099 12.784580720746556 C 9.197498187112684 12.784580720746556 10.303223568417005 12.797552175919549 11.407920746927639 12.826530906850914 C 11.963618618355504 12.841107480501353 12.604689033726338 12.804320262873466 13.102683139828937 12.991104338584968 C 12.444715071428801 13.03259835879984 10.798614845620763 13.0486666193028 9.061392434150386 13.0486666193028 C 7.040896493935342 13.0486666193028 4.8971381879673626 13.026930436638214 4.041370674365262 12.998177349261805 C 4.035477718496122 12.998220038583016 4.0297003287179685 12.998241993091064 4.024036980412186 12.998241993091064 C 3.5148780921948943 12.998241993091064 3.9273603042131473 12.826321119329545 4.211845294908974 12.826321119329545 C 4.238601131900259 12.826321119329545 4.264224787108344 12.827842078859469 4.287843263914512 12.831169406523964 C 5.555116623774078 12.801636934111775 6.823471243155116 12.784580720746556 8.091606927303099 12.784580720746556 ZM 3.229631402039215 13.527964022410872 C 3.9800867996092 13.538300936617839 4.730666606058136 13.547631602539173 5.48073658004235 13.573154937842418 C 5.974628852224238 13.589961113754843 6.468692491538405 13.596169360753482 6.962812846665035 13.596169360753482 C 8.360743582405776 13.596169360753482 9.759126824951332 13.546476551476754 11.155349987843726 13.546476551476754 C 11.342591449139606 13.546476551476754 11.529792660504063 13.547370587832354 11.716949962852416 13.549397720742322 C 10.555885804617795 14.183214610592351 9.295635447944509 14.718425266924708 7.950956591174409 14.762796547389044 C 7.799163122515353 14.767805834309163 7.651256821476073 14.770698950592223 7.506199727703753 14.770698950592223 C 6.745573599355791 14.770698950592223 6.06331774657768 14.691151669451905 5.310047598121426 14.420004957167741 C 4.653584023370175 14.183703708243913 3.8042879059395918 13.89691074988931 3.229631402039215 13.527964022410872 ZM 9.878584352489678 15.08641697330296 C 9.849530000475026 15.08641697330296 9.823518177367665 15.092904530431793 9.801197760849965 15.106699279656667 C 9.544953890599764 15.265069343171648 10.169278504955312 16.43707782366929 10.695870187335629 16.718978585813375 C 10.73537854426685 16.740128095235065 10.774061167756402 16.749551457968167 10.810766665826547 16.749551457968167 C 11.003336974104167 16.749551457968167 11.141447905468382 16.490179680168257 11.058481819546692 16.304211580339288 C 10.844383896430964 15.824310428259835 10.18845698743205 15.08641697330296 9.878584352489678 15.08641697330296 ZM 5.031377807745396 15.140798289743296 C 4.989399568658528 15.140798289743296 4.926357808639836 15.166799745444079 4.836820006641786 15.226750188759814 C 4.404607095284589 15.5161398775388 3.394055116225315 16.294390597071498 4.0142925329988515 16.722726708215504 C 4.056939164886357 16.752178680764843 4.100021532773916 16.765133060209347 4.142866670005041 16.765133060209347 C 4.367006341163952 16.765133060209347 4.58465113702468 16.41059092940162 4.699421682018032 16.208593599306226 C 4.818436155386976 15.999129297083979 5.2725627150155 15.140798289743296 5.031377807745396 15.140798289743296 ZM 9.090395558979587 15.318185836009313 C 8.817462603526561 15.318185836009313 9.117006862126209 16.79410813205604 9.59252321107008 17.108873573056375 C 9.624085865629468 17.129766946550816 9.662353183008404 17.139328134806675 9.7019237443791 17.139328134806675 C 9.808466532556917 17.139328134806675 9.924459516755453 17.07001409380753 9.944487516724246 16.965927771141548 C 10.06708575860866 16.328790871796375 9.471438610546237 15.35620982425736 9.098430299078512 15.3185980928827 C 9.095698792368601 15.318322441837182 9.093020952233923 15.318185836009313 9.090395558979587 15.318185836009313 ZM 5.813290051342912 15.334595611081944 C 5.762056157570551 15.334595611081944 5.6837980939307355 15.397157421160761 5.569301065516842 15.551481756720047 C 5.266789289245744 15.95922088022829 4.5258087865180325 16.80730645047888 5.132767994853322 17.12234144405028 C 5.172965479398338 17.143205544867318 5.210868717852111 17.152645983328902 5.2466228539067465 17.152645983328902 C 5.501107314275703 17.152645983328902 5.646734005562437 16.67436092698092 5.736180330443612 16.43252348294377 C 5.81843167515878 16.21013773303909 6.004955346010909 15.334595611081944 5.813290051342912 15.334595611081944 ZM 8.084197280836158 15.497188258311914 C 8.061304827414261 15.497188258311914 8.040999346857612 15.508953435237036 8.024002288694641 15.534490187184089 C 7.779368084270872 15.902031826147313 7.859889291782196 17.025052481015617 8.44457443200567 17.350611002112412 C 8.477321410304873 17.36884544074299 8.5095817303423 17.37699910109386 8.54061320777636 17.37699910109386 C 8.712565793605062 17.37699910109386 8.846783458875045 17.126639648848553 8.816920449147212 16.95369179198824 C 8.746119600075112 16.543659642083643 8.300101572086461 15.497188258311914 8.084197280836158 15.497188258311914 ZM 6.75532262062497 15.485684096093609 C 6.738393255528486 15.485684096093609 6.719172693577984 15.49322303021907 6.697420045032361 15.509370570889988 C 6.3057388146205 15.800128757337436 5.679560264029602 16.97476811971643 6.318469380052385 17.354321313972893 C 6.352644621069744 17.374624355139762 6.386393578722462 17.383708642692973 6.419196662986684 17.383708642692973 C 6.610484462085705 17.383708642692973 6.7696040281116225 17.07479041900334 6.793552127462265 16.88013443246095 C 6.834695485395779 16.54571360828123 6.956077691473192 15.485684096093609 6.75532262062497 15.485684096093609 ZM 7.409580377164622 15.468416875512132 C 7.39733464045218 15.468416875512132 7.384780930779589 15.471718589583901 7.371922907231523 15.478607426332097 C 7.04806464081373 15.652117562537471 6.752394743037498 17.05085024766949 7.3581062034986005 17.423058439288273 C 7.389001684952238 17.442042990277237 7.419877041440165 17.450504013740805 7.449994967400358 17.450504013740805 C 7.6143226306137395 17.450504013740805 7.756113991313593 17.19863701860939 7.755634651221164 17.030030055868558 C 7.75432652844984 16.56993308974527 7.633263882434045 15.468416875512132 7.409580377164622 15.468416875512132 ZM 5.632034852575385 0.0 C 5.427092569164034 0.0 5.224417088708866 0.019432907972482025 5.033733343504948 0.05443384431604181 C 4.467006076095366 0.1584592489395021 3.5938344311601953 0.3646307561088724 3.603155949369841 1.0504667564332457 C 3.67258220229902 1.0309202310229437 3.7366997332121716 1.0218254998322194 3.7957738257482365 1.0218254998322194 C 4.346064179873848 1.0218254998322194 4.458737154577238 1.8110103266832265 4.348558760851052 2.292443415546627 C 4.124233391144884 3.272651977552607 4.609814357411156 4.257232688359666 5.247062553915197 4.998988307191039 C 5.671593826844609 6.267997902728908 6.207430796503842 7.594017867046124 6.200945678764793 8.927216345648308 C 6.198242225037389 9.48290994814405 6.608764082440994 9.519405658692827 6.457257851928928 10.084834255966495 C 6.320555668164599 10.595013723884398 6.084080612718707 11.65061086483566 5.574068852848409 11.775453955168208 C 5.5141812238195955 11.78026809090566 5.453413584926436 11.78228912534117 5.392016583469171 11.78228912534117 C 5.069385635036129 11.78228912534117 4.729385926421875 11.726455152284846 4.408483590574062 11.726455152284846 C 4.153773486650145 11.726455152284846 3.9110950629851815 11.761631152960828 3.698682758209751 11.887824445538461 C 3.254193922691541 12.151893268366223 2.920155472860361 12.347759192241154 2.3871648136927193 12.347759192241154 C 2.364082850177029 12.347759192241154 2.3406278124863467 12.34739206407876 2.31677439195167 12.346646830499944 C 2.290907712536418 12.345839392481654 2.2648745447684524 12.34543567347251 2.2387011120879436 12.34543567347251 C 1.3440312774539256 12.34543567347251 0.28566830681618954 12.817335627062558 0.12083169732265768 13.756412875622079 C -0.12329519978597013 15.147207786399061 0.07662177391650889 16.583104574880497 0.08494513861247754 17.989033459873415 C 0.2900051035231433 17.99360365663253 0.4966322048500206 17.999999736644487 0.702869308735284 17.999999736644487 C 0.8657836504929329 17.999999736644487 1.0284545868887616 17.996007675264025 1.1899174917253144 17.98397172607295 C 1.1137838316630781 17.140422201124508 1.057380489785133 16.29003262722354 1.1114740344619638 15.445312195179083 C 1.150002671471443 14.84365012175835 0.997819586525427 14.00504767929055 1.5763723295263372 13.66371240476991 C 1.7040717928333333 13.58837307100588 1.83171911418371 13.55691470035973 1.9589124041106598 13.55691470035973 C 2.4652981635298614 13.55691470035973 2.9644861984695505 14.055524752382627 3.4311076174921418 14.268706684634704 C 4.73678032670267 14.865220425917668 6.127831678330627 15.305327812461249 7.577851313962796 15.305327812461249 C 7.611054458151489 15.305327812461249 7.644288094712474 15.305097290126723 7.677552223645749 15.304632586372993 C 9.433900060865076 15.280083787288198 11.05346399476233 14.553760358073777 12.55629032072968 13.72891485428921 C 12.670762345398295 13.628126586610326 12.818380798443139 13.581008553249928 12.96633954636276 13.581008553249928 C 13.24669495507909 13.581008553249928 13.528272498076879 13.750179015030715 13.587881426822944 14.043930332742338 C 13.850096313415355 15.336104373662948 13.742097209536873 16.675576962787922 13.65541349358535 17.983352121067977 C 13.812261377875515 17.996239417293445 13.969778874661216 17.999448434553447 14.127512257442742 17.999448434553447 C 14.284036922586616 17.999448434553447 14.44077381464164 17.99628820508911 14.597282623751921 17.99628820508911 C 14.650358866658163 17.99628820508911 14.703408276276786 17.99665167416683 14.7564149965742 17.99762499069039 C 14.763825862736033 17.086932481649992 14.844901421575624 16.174760482705985 14.803086621604242 15.264876631378764 C 14.769945072007578 14.543717390335702 14.910211204245392 13.715322574416355 14.386286384745727 13.121748297822336 C 13.705550271802647 12.350515702696345 12.623079593303054 12.361563699025162 11.682409423214999 12.296510052282647 C 11.644045140092175 12.293857215893247 11.604677048073496 12.292852187302506 11.564630805695048 12.292852187302506 C 11.439513284011872 12.292852187302506 11.307763061507753 12.302662193316268 11.179225515348314 12.302662193316268 C 11.022081245199468 12.302662193316268 10.869737694144266 12.28799902132852 10.740179263360492 12.222823405096838 C 10.44570344688321 11.920581791244247 10.080689625582988 11.8638281682396 9.700766253926899 11.8638281682396 C 9.472275931089374 11.8638281682396 9.238393337135744 11.88435563326653 9.011219065086339 11.88435563326653 C 8.936831703185263 11.88435563326653 8.863163961270274 11.882155303681946 8.79064029316368 11.876311745455919 C 8.748275410796152 11.287905316117937 8.716179749569102 10.698756092590925 8.6841725162217 10.109697736333342 C 8.716601154154176 10.078576001477298 8.754075060006079 10.064937373198559 8.795398322936116 10.064937373198559 C 9.088549550761034 10.064937373198559 9.575443823501919 10.751298109134611 9.829342220475425 10.751298109134611 C 9.9047779101359 10.751298109134611 9.959645884838014 10.690709765390528 9.982754224255737 10.533531343784716 C 10.077034809840075 9.89225845906186 9.828121305888857 9.191179055020491 9.837226938102676 8.515557122758214 C 9.842454550408405 8.515291839119273 9.84775473456019 8.515160721918418 9.8531244413208 8.515160721918418 C 10.13787319103695 8.515160721918418 10.618515917610546 8.883683605421998 10.906077283746905 9.132975214789639 C 11.80432402611263 9.911679050974598 12.57521510666895 10.850011675802751 13.418602412196801 11.698699775329832 C 13.753165940678848 12.0785896053764 14.10034965220508 12.50165297550368 14.581990089200067 12.50165297550368 C 14.7115546184583 12.50165297550368 14.850847434172552 12.471038633722571 15.00224206260203 12.400734200471387 C 15.482807948397447 12.177569065530927 16.501952068121145 12.466298899373513 16.611020844419624 11.85703812677763 C 16.148715010847514 11.316222972418016 15.616514561507817 10.838956361304586 15.141690999262417 10.30954047540259 L 15.141690999262417 10.30954047540259 C 15.720475255599954 10.584491416053895 16.284632930796494 10.987831100087856 16.88805136486124 11.251485226652445 C 17.013493325385603 11.306294655999759 17.089085135992214 11.329256632030482 17.12721035891627 11.329256632030482 C 17.308927822047742 11.329256632030482 16.63947510654757 10.807612641978256 16.459826245952385 10.726662711712507 C 15.79457415965915 10.42689585879513 17.084456393878295 10.539115106998816 16.55768114741678 10.121722708270392 C 15.402974038957586 9.206783221617167 14.091566629290112 8.473895394495738 12.859382061921773 7.648877913731442 C 12.06805133437072 6.650734500652652 11.353425998862377 5.582082965275763 10.559610752816978 4.581358372882461 C 9.89897704123108 3.80707897991706 9.337823474552744 2.944969967649405 8.617586932695238 2.225430481422494 C 8.174952338336102 1.7832239999703352 7.524531741925666 1.6598222840760268 7.480633703079299 0.9374621771811809 C 7.138186066817449 0.2522410174286094 6.370398499913002 0.0 5.632034852575385 0.0 Z"
     style="fill:#ffffff;stroke:none"
     id="path2" />
  <path
     d="M 21.794213448703843 12.11584431538147 C 21.29839204101278 12.11584431538147 20.800451622761834 12.46758107651744 20.300392312649784 13.171054598789386 L 20.300392312649784 13.908429441248785 C 20.800451622761834 13.19648082632753 21.29839204101278 12.840506993662009 21.794213448703843 12.840506993662009 C 22.290035093792458 12.840506993662009 22.783737728321196 13.19648082632753 23.27532135229005 13.908429441248785 L 23.27532135229005 13.171054598789386 C 22.783737728321196 12.46758107651744 22.290035093792458 12.11584431538147 21.794213448703843 12.11584431538147 ZM 21.794213448703843 13.641449304147198 C 21.620464078695736 13.641449304147198 21.444595935525303 13.688065637284152 21.266608663096214 13.781296404377635 C 20.910634474334362 13.967759837745024 20.732647201905273 14.383063117316572 20.732647201905273 15.027206243092277 L 21.012341283667368 16.73079767339566 L 21.289900567932296 16.629090864062654 L 21.188192927707853 15.637448048680525 C 21.12038862555007 14.92549943375927 21.222095434883077 14.558913930465621 21.493313711803204 14.338549176910774 C 21.62892302831143 14.228366325338245 21.713687249067515 14.17327489955198 21.79739172714611 14.17327489955198 C 21.881096205224704 14.17327489955198 21.963740940625804 14.228366325338245 22.095112473411824 14.338549176910774 C 22.357855776381413 14.558913930465621 22.455325039389763 14.91702434110996 22.38752073723198 15.612021821142381 L 22.260386513373064 16.629090864062654 L 22.588799202304493 16.705371445857516 L 22.84306646303456 15.027206243092277 C 22.82611532814573 14.383063117316572 22.648128174415415 13.967759837745024 22.30910500184362 13.781296404377635 C 22.139593415557723 13.688065637284152 21.967962818711946 13.641449304147198 21.794213448703843 13.641449304147198 ZM 22.156544075651453 11.289474827767924 C 22.97019997470082 11.526791665801817 23.41093066879828 11.857339270929192 23.47873568314872 12.28111764315005 C 23.54653974790895 12.704896964961122 23.576204471361965 13.281237450361916 23.567728903917548 14.010137200172004 C 23.559253336473134 14.739037899572306 23.43635737113153 15.438272451134276 23.19904148268785 16.10784370362855 C 22.96172488205151 16.777414956122826 22.49556772301835 17.16305493662668 21.80057024298593 17.26475984677926 C 21.0886215093659 17.16305493662668 20.61822668530931 16.777414956122826 20.38938553341861 16.10784370362855 C 20.16054515306996 15.438272451134276 20.037649365776524 14.743274021511642 20.020698290237075 14.022850313941076 C 20.003747155348243 13.302425656780299 20.029173798332106 12.726086120969718 20.096978219188667 12.293831706509335 C 20.16478258069584 11.861577292048954 20.605512740648802 11.526791665801817 21.419168520999392 11.289474827767924 ZM 21.092891816552896 0.0 L 21.092891816552896 1.220483848574051 L 20.126675466106466 1.220483848574051 L 20.126675466106466 1.983286105559362 L 21.092891816552896 1.983286105559362 L 20.660636927297407 10.780939831512681 C 19.83002998238329 11.11996347887958 19.368110659003055 11.573407049348557 19.274878971994056 12.141270542919614 C 19.181647945246997 12.709134986080883 19.14350799560855 13.289712543011225 19.160459085985345 13.88300321371064 C 19.177410176362137 14.476293884410055 19.245214886546965 15.099248803767376 19.363873217003498 15.751868921372818 C 19.482531553951368 16.404488089388046 19.79189034432913 17.02530738035676 20.291949624766485 17.41518633157059 C 20.792008934878535 17.805061484423568 21.42340701691426 18.00000096003048 21.787856891819306 18.00000096003048 C 22.15230676672435 18.00000096003048 22.7837047300613 17.800824412894016 23.283764158872124 17.402473217801518 C 23.7838233502854 17.00412012352859 24.093182274199286 16.387537904089424 24.21184069321623 15.751868921372818 C 24.330499112233177 15.11619993865621 24.398303651788517 14.49748304041865 24.415254786677348 13.895716327479713 C 24.432205921566183 13.293949614540775 24.394065630668752 12.709134986080883 24.30083391398506 12.141270542919614 C 24.20760267209647 11.573407049348557 23.73720796673866 11.11996347887958 22.889650272706728 10.780939831512681 L 22.559101717989137 1.983286105559362 L 23.449038198833367 1.983286105559362 L 23.47446490116662 1.220483848574051 L 22.482821848386937 1.220483848574051 L 22.482821848386937 0.0 Z"
     style="fill:#ffffff;stroke:none"
     id="path4" />
  <path
     d="M 27.85152141755244 7.457925246591643 L 27.85152141755244 9.113959811533645 C 27.286045900413995 9.113959811533645 27.00330814184477 8.831221993287294 27.00330814184477 8.265747311628635 C 27.00330814184477 7.727199427409647 27.286045900413995 7.457925246591643 27.85152141755244 7.457925246591643 ZM 29.946408211995525 0.0 C 29.483299617165528 0.0 29.091303003840036 0.11636472253868058 28.77041837201904 0.3490941595736163 C 28.157820481944146 0.7933964326013556 27.85152141755244 1.439653774309885 27.85152141755244 2.2878660355063856 L 27.85152141755244 6.872254870081951 C 26.909062709684907 6.872254870081951 26.43110151092822 7.33675250973652 26.417637825012207 8.265747311628635 C 26.417637825012207 9.20820670578314 26.89559901257943 9.679435448026348 27.85152141755244 9.679435448026348 L 27.85152141755244 17.999999662438427 L 28.597900866733493 17.999999662438427 L 28.597900866733493 2.732168696435455 C 28.597900866733493 1.7089278357736342 28.796490115572887 1.0525725272853337 29.193668613251678 0.7631030096790641 C 29.399436065720515 0.6131367748295072 29.66957580359882 0.5381535977276011 30.03193126500789 0.5381535977276011 C 30.369005824159526 0.5381535977276011 30.785877535274032 0.6030388080497362 31.304959695268135 0.7328092286940062 C 31.385741997255238 0.7613205135515008 31.45646130325941 0.7755761858188119 31.517117613280647 0.7755761858188119 C 31.628321405306107 0.7755761858188119 31.705702588430775 0.7276613006263779 31.749261640071673 0.63183153024151 C 31.762725277500017 0.47026731416863304 31.641552063227874 0.3558260081263536 31.385741997255238 0.28850755243754406 C 30.847194113036252 0.09616918434010951 30.36741602547734 0.0 29.946408211995525 0.0 Z"
     style="fill:#ffffff;stroke:none"
     id="path6" />
  <path
     d="M 35.183145448619335 7.457925246591643 L 35.183145448619335 9.113959811533645 C 34.61766993148089 9.113959811533645 34.334932172911664 8.831221993287294 34.334932172911664 8.265747311628635 C 34.334932172911664 7.727199427409647 34.61766993148089 7.457925246591643 35.183145448619335 7.457925246591643 ZM 37.27803224306242 0.0 C 36.81492364823242 0.0 36.42292703490693 0.11636472253868058 36.10204240308593 0.3490941595736163 C 35.48944451301104 0.7933964326013556 35.183145448619335 1.439653774309885 35.183145448619335 2.2878660355063856 L 35.183145448619335 6.872254870081951 C 34.2406867407518 6.872254870081951 33.76272554199512 7.33675250973652 33.7492618560791 8.265747311628635 C 33.7492618560791 9.20820670578314 34.227223043646326 9.679435448026348 35.183145448619335 9.679435448026348 L 35.183145448619335 17.999999662438427 L 35.929524897800384 17.999999662438427 L 35.929524897800384 2.732168696435455 C 35.929524897800384 1.7089278357736342 36.12811414663978 1.0525725272853337 36.52529264431857 0.7631030096790641 C 36.73106009678741 0.6131367748295072 37.00119983466572 0.5381535977276011 37.363555296074786 0.5381535977276011 C 37.700629855226424 0.5381535977276011 38.11750156634093 0.6030388080497362 38.63658372633503 0.7328092286940062 C 38.71736602832213 0.7613205135515008 38.788085334326304 0.7755761858188119 38.84874164434754 0.7755761858188119 C 38.959945436373 0.7755761858188119 39.03732661949767 0.7276613006263779 39.08088567113857 0.63183153024151 C 39.09434930856691 0.47026731416863304 38.97317609429477 0.3558260081263536 38.71736602832213 0.28850755243754406 C 38.17881814410315 0.09616918434010951 37.699040056544234 0.0 37.27803224306242 0.0 Z"
     style="fill:#ffffff;stroke:none"
     id="path8" />
  <path
     d="M 42.51476947968623 7.457925246591643 L 42.51476947968623 9.113959811533645 C 41.949293962547785 9.113959811533645 41.66655620397856 8.831221993287294 41.66655620397856 8.265747311628635 C 41.66655620397856 7.727199427409647 41.949293962547785 7.457925246591643 42.51476947968623 7.457925246591643 ZM 44.609656274129314 0.0 C 44.14654767929932 0.0 43.75455106597382 0.11636472253868058 43.433666434152826 0.3490941595736163 C 42.82106854407793 0.7933964326013556 42.51476947968623 1.439653774309885 42.51476947968623 2.2878660355063856 L 42.51476947968623 6.872254870081951 C 41.57231077181869 6.872254870081951 41.09434957306201 7.33675250973652 41.080885887145996 8.265747311628635 C 41.080885887145996 9.20820670578314 41.55884707471322 9.679435448026348 42.51476947968623 9.679435448026348 L 42.51476947968623 17.999999662438427 L 43.26114892886728 17.999999662438427 L 43.26114892886728 2.732168696435455 C 43.26114892886728 1.7089278357736342 43.459738177706676 1.0525725272853337 43.85691667538546 0.7631030096790641 C 44.062684127854304 0.6131367748295072 44.332823865732614 0.5381535977276011 44.69517932714168 0.5381535977276011 C 45.03225388629332 0.5381535977276011 45.44912559740782 0.6030388080497362 45.96820775740193 0.7328092286940062 C 46.04899005938903 0.7613205135515008 46.1197093653932 0.7755761858188119 46.180365675414436 0.7755761858188119 C 46.29156946743989 0.7755761858188119 46.368950650564564 0.7276613006263779 46.41250970220546 0.63183153024151 C 46.425973339633806 0.47026731416863304 46.304800125361666 0.3558260081263536 46.04899005938903 0.28850755243754406 C 45.51044217517004 0.09616918434010951 45.03066408761113 0.0 44.609656274129314 0.0 Z"
     style="fill:#ffffff;stroke:none"
     id="path10" />
  <path
     d="M 50.15767687720115 0.0 C 49.22784967299323 0.0 48.41250991821289 0.6839976251482283 48.41250991821289 1.5619743615408133 L 48.41250991821289 17.99999905106683 L 49.54849127206076 17.99999905106683 L 49.54849127206076 1.5619743615408133 C 49.54849127206076 1.1313441510315352 49.92701569507021 0.992015871578576 50.16485478136008 0.992015871578576 C 50.414416325047064 0.992015871578576 50.79869492687244 1.166951684911138 50.79869492687244 1.694609547086237 L 50.79869492687244 12.498603637432174 L 51.9346762807203 12.498603637432174 L 51.9346762807203 1.694609547086237 C 51.9346762807203 0.8155222348293883 51.06407531933733 0.0 50.15767687720115 0.0 Z"
     style="fill:#ffffff;stroke:none"
     id="path12" />
  <path
     d="M 58.917859542434826 0.884864232241851 Q 62.55045901941086 1.3272963483627764 58.917859542434826 7.6144898350138694 Q 55.285258752509286 1.3272963483627764 58.917859542434826 0.884864232241851 ZM 58.917859542434826 0.0 Q 53.88810473968606 0.3492882551627884 58.219282077236876 8.08020734941886 L 53.93467617034912 8.08020734941886 L 53.93467617034912 9.174644821220094 L 58.172710564514475 9.174644821220094 L 58.172710564514475 18.000001148559306 L 59.616436052760406 18.000001148559306 L 59.616436052760406 9.128072831061502 L 63.90104195964816 9.128072831061502 L 63.90104195964816 8.08020734941886 L 59.616436052760406 8.08020734941886 Q 63.94761299493438 0.3260030359172941 58.917859542434826 0.0 Z"
     style="fill:#ffffff;stroke:none"
     id="path14" />
  <path
     d="M 69.3321995431148 0.3112278456022722 C 69.79659179792627 0.3170051137974121 70.26632979876332 0.31502479745805434 70.72322819462153 0.4073691170540593 C 70.72355175709936 0.40736816726205005 70.72387500297985 0.40736769236604536 70.72419729906834 0.40736769236604536 C 70.95017276370926 0.40736769236604536 70.86611743727694 0.6493892598091552 70.81625019081616 0.7850376047831265 C 70.77412374923104 0.9841637157109303 70.54669858538661 0.9322392197580317 70.39671281343516 0.9506062976335711 C 70.05476299550057 0.9612632805750772 69.71250987731769 0.9672928768473501 69.37026752344426 0.9672928768473501 C 68.94671600843468 0.9672928768473501 68.52318032329192 0.9580580491410791 68.1002545629178 0.9369296092972138 C 68.08640073837171 0.9394114158174737 68.07326495658464 0.9405923238823506 68.06080605990284 0.9405923238823506 C 67.900311155966 0.9405923238823506 67.85213184820438 0.7446527651456953 67.82781242380665 0.6100381104751619 C 67.74287299931237 0.3911116855298086 68.03282851158137 0.39819080197234075 68.17632577942139 0.3690212646792066 C 68.55942628595022 0.3208201117013706 68.94648837494978 0.3125346011083792 69.3321995431148 0.3112278456022722 ZM 66.48673412556153 2.1654649944795596 C 66.71783158106052 2.2305203649608134 66.94892911570885 2.295575418844731 67.18002657120783 2.3606307893259846 C 67.07739339222326 2.575810917989384 67.06897554394364 2.8239649758391057 67.13253190518624 3.051816279698367 C 66.83998053220654 2.9365238770673763 66.54542968874861 2.8255419471718546 66.2541261050211 2.7075594169732344 C 66.14525498892955 2.5248118360508647 66.26442068294907 2.2624077320885148 66.4483790310226 2.1750667584987506 L 66.48673412556153 2.1654649944795596 ZM 72.05122864839215 2.1654649944795596 C 72.26079455648868 2.2233320224372135 72.38404083400275 2.4981283793420324 72.29556074319652 2.6953618713926693 C 72.18876612967259 2.7584939130551223 72.06219241415266 2.7900488529795737 71.94751452695168 2.8405670235640588 C 71.7604979475449 2.91346862583401 71.57348200133282 2.9863705447012974 71.38646542192605 3.0592721469712485 C 71.44904215186041 2.8306277667842354 71.44627255836133 2.5814378024497207 71.34253690830198 2.3648453330685153 C 71.57876727726715 2.29838522020553 71.81499827942699 2.231925107342545 72.05122864839215 2.1654649944795596 ZM 69.41720656114042 1.26641688968064 C 69.97327020790931 1.26641688968064 70.49512994483985 1.5893863806990207 70.80243230006775 2.043923277024815 C 70.94217424860175 2.2576784010769515 71.09301673294557 2.485026315171292 71.11851769860284 2.7449647590775403 C 71.08735850534893 3.047860079382362 70.9583036165034 3.332832191277316 70.93811642054074 3.638489823342472 C 70.86431726482202 4.210937065674181 70.91347121748383 4.804060013658662 70.73535007343868 5.359730763133046 C 70.52493378489652 5.865918615313065 70.28095153014891 6.386428697798419 69.85997901704188 6.752932538757017 C 69.6958188657412 6.90049159212475 69.47645458667957 6.985833570132306 69.25769944089322 6.985833570132306 C 69.1384793317065 6.985833570132306 69.01944031619622 6.9604861541832 68.90961681595469 6.906046608989716 C 68.47252522435943 6.69060655391311 68.21209051412833 6.247923061863183 67.99582952215836 5.830677532600582 C 67.8428412993669 5.532606205910915 67.70968425883328 5.218463132034813 67.68088308254107 4.880984301685269 C 67.60488104255549 4.266587912276838 67.64616011136965 3.6333888070579428 67.45719044299446 3.036479354929781 C 67.4042837038053 2.8632053161053492 67.37282833374316 2.672678305432269 67.46158006506404 2.504402705355364 C 67.68643920749672 1.9708291835743155 68.11106018830876 1.4862579643309337 68.68438440526236 1.3273875213272983 C 68.91209608969626 1.2564656022020322 69.1571554085824 1.2881351503622707 69.392337840364 1.2666324924667474 C 69.40063459016243 1.2664884406786725 69.40892437481946 1.26641688968064 69.41720656114042 1.26641688968064 ZM 69.3321995431148 0.0 C 68.80890688663958 0.007570158911332124 68.27645364453349 0.0033469087420495815 67.76620653960445 0.13353426625997272 C 67.57781656095226 0.1805831632318787 67.46850294072105 0.37314177901281825 67.5085286006803 0.5605745256183187 C 67.5343088051883 0.8020072220156722 67.6090553784363 1.089868601202869 67.84364973066546 1.2076295132659896 C 67.92393580750893 1.2570630213758718 68.19989565962513 1.2319590687784792 68.00337546137347 1.3232404128174269 C 67.72492018905155 1.5202526033299002 67.49776365804708 1.7844432660617144 67.32721140652392 2.0787426520851766 C 67.05492835757433 2.005411743827029 66.78547165219638 1.9194808947737159 66.51132071853652 1.8544695313222257 C 66.50375301325455 1.8540623871475792 66.49622967117435 1.85386198103362 66.48875219613325 1.85386198103362 C 66.24551495428025 1.85386198103362 66.05083138664556 2.0659312242692773 65.95795476057009 2.2744985843667034 C 65.8628184853147 2.50710201424575 65.87064871904425 2.8382720094722917 66.10805237795088 2.982556813186685 C 66.48012531446226 3.1367780243048737 66.85861165226065 3.276558281116568 67.23319466149823 3.4251272799875063 C 67.36145235825062 4.10948154963178 67.25454788545096 4.832018724438628 67.50316085113982 5.494858938683267 C 67.73665281144356 6.05044547326616 68.01370223329307 6.6226065116057375 68.49197918089092 7.009835447401593 C 68.71081205132336 7.1912311576974135 68.99519592536724 7.297314060409048 69.27849292075514 7.297314060409048 C 69.42561791917464 7.297314060409048 69.5724497484606 7.268703159116042 69.70965480253778 7.207170567197223 C 70.19490638945715 6.992712597058216 70.50635933576562 6.529899213163518 70.74875860383109 6.077734897276916 C 70.94439802829281 5.7038644694943095 71.12072881440045 5.3103618408797955 71.16058208711003 4.885264064479104 C 71.22730624215158 4.403233222263221 71.19443014154223 3.9112428610379837 71.28596476345031 3.4324216826188096 C 71.66680856416508 3.281405386337282 72.05158007143558 3.139234186440883 72.42991008929911 2.982556813186685 C 72.67506660356754 2.832264891610905 72.6761778602184 2.4861166763979505 72.56927686998944 2.2498043087226485 C 72.47403109410374 2.0554236752705655 72.28499652327459 1.8543634712145223 72.05600293622548 1.8543634712145223 C 72.03663414437749 1.8543634712145223 72.01697978173203 1.855801772913915 71.99707214121743 1.8588043820525992 C 71.72939669160355 1.9309471005071324 71.46312630096875 2.008528328006827 71.19600014773357 2.0827950979914562 C 71.01224832006005 1.7642022485518571 70.7619395007386 1.4803015020433756 70.45278188511924 1.278627732349335 C 70.65333869941036 1.2531169521746321 70.90133920755191 1.2554306455092488 71.0209145389501 1.0601553079844197 C 71.1544660597649 0.8500929752643802 71.21993838893823 0.5823966302262978 71.16752981565794 0.3369148121946973 C 71.06758858467568 0.11313415858856035 70.79135297627946 0.10141198390864199 70.58220624305636 0.06480082622276558 C 70.16815359793164 0.010628489181227498 69.74930323677069 0.00156525723130049 69.3321995431148 0.0 Z"
     style="fill:#ffffff;stroke:none"
     id="path16" />
  <path
     d="M 77.0926588535654 0.3112278456022722 C 77.55705110837687 0.3170051137974121 78.02678910921392 0.31502479745805434 78.48368750507213 0.4073691170540593 C 78.48401106754996 0.40736816726205005 78.48433431343045 0.40736769236604536 78.48465660951894 0.40736769236604536 C 78.71063207415986 0.40736769236604536 78.62657674772754 0.6493892598091552 78.57670950126676 0.7850376047831265 C 78.53458305968164 0.9841637157109303 78.30715789583721 0.9322392197580317 78.15717212388576 0.9506062976335711 C 77.81522230595117 0.9612632805750772 77.47296918776829 0.9672928768473501 77.13072683389485 0.9672928768473501 C 76.70717531888528 0.9672928768473501 76.28363963374252 0.9580580491410791 75.8607138733684 0.9369296092972138 C 75.84686004882231 0.9394114158174737 75.83372426703524 0.9405923238823506 75.82126537035344 0.9405923238823506 C 75.6607704664166 0.9405923238823506 75.61259115865498 0.7446527651456953 75.58827173425725 0.6100381104751619 C 75.50333230976297 0.3911116855298086 75.79328782203197 0.39819080197234075 75.93678508987199 0.3690212646792066 C 76.31988559640082 0.3208201117013706 76.70694768540038 0.3125346011083792 77.0926588535654 0.3112278456022722 ZM 74.24719343601213 2.1654649944795596 C 74.47829089151112 2.2305203649608134 74.70938842615945 2.295575418844731 74.94048588165843 2.3606307893259846 C 74.83785270267386 2.575810917989384 74.82943485439424 2.8239649758391057 74.89299121563684 3.051816279698367 C 74.60043984265714 2.9365238770673763 74.30588899919921 2.8255419471718546 74.0145854154717 2.7075594169732344 C 73.90571429938015 2.5248118360508647 74.02487999339967 2.2624077320885148 74.2088383414732 2.1750667584987506 L 74.24719343601213 2.1654649944795596 ZM 79.81168795884275 2.1654649944795596 C 80.02125386693928 2.2233320224372135 80.14450014445335 2.4981283793420324 80.05602005364712 2.6953618713926693 C 79.94922544012319 2.7584939130551223 79.82265172460326 2.7900488529795737 79.70797383740228 2.8405670235640588 C 79.5209572579955 2.91346862583401 79.33394131178342 2.9863705447012974 79.14692473237665 3.0592721469712485 C 79.20950146231101 2.8306277667842354 79.20673186881193 2.5814378024497207 79.10299621875258 2.3648453330685153 C 79.33922658771775 2.29838522020553 79.57545758987759 2.231925107342545 79.81168795884275 2.1654649944795596 ZM 77.17766587159102 1.26641688968064 C 77.73372951835991 1.26641688968064 78.25558925529046 1.5893863806990207 78.56289161051835 2.043923277024815 C 78.70263355905234 2.2576784010769515 78.85347604339617 2.485026315171292 78.87897700905344 2.7449647590775403 C 78.84781781579953 3.047860079382362 78.718762926954 3.332832191277316 78.69857573099134 3.638489823342472 C 78.62477657527262 4.210937065674181 78.67393052793443 4.804060013658662 78.49580938388928 5.359730763133046 C 78.28539309534712 5.865918615313065 78.04141084059951 6.386428697798419 77.62043832749248 6.752932538757017 C 77.4562781761918 6.90049159212475 77.23691389713017 6.985833570132306 77.01815875134382 6.985833570132306 C 76.8989386421571 6.985833570132306 76.77989962664682 6.9604861541832 76.67007612640529 6.906046608989716 C 76.23298453481003 6.69060655391311 75.97254982457893 6.247923061863183 75.75628883260896 5.830677532600582 C 75.6033006098175 5.532606205910915 75.47014356928388 5.218463132034813 75.44134239299167 4.880984301685269 C 75.36534035300609 4.266587912276838 75.40661942182025 3.6333888070579428 75.21764975344506 3.036479354929781 C 75.1647430142559 2.8632053161053492 75.13328764419376 2.672678305432269 75.22203937551464 2.504402705355364 C 75.44689851794732 1.9708291835743155 75.87151949875935 1.4862579643309337 76.44484371571296 1.3273875213272983 C 76.67255540014686 1.2564656022020322 76.917614719033 1.2881351503622707 77.15279715081459 1.2666324924667474 C 77.16109390061303 1.2664884406786725 77.16938368527006 1.26641688968064 77.17766587159102 1.26641688968064 ZM 77.0926588535654 0.0 C 76.56936619709018 0.007570158911332124 76.03691295498407 0.0033469087420495815 75.52666585005505 0.13353426625997272 C 75.33827587140286 0.1805831632318787 75.22896225117165 0.37314177901281825 75.26898791113089 0.5605745256183187 C 75.2947681156389 0.8020072220156722 75.3695146888869 1.089868601202869 75.60410904111606 1.2076295132659896 C 75.68439511795953 1.2570630213758718 75.96035497007573 1.2319590687784792 75.76383477182407 1.3232404128174269 C 75.48537949950214 1.5202526033299002 75.25822296849768 1.7844432660617144 75.08767071697451 2.0787426520851766 C 74.81538766802493 2.005411743827029 74.54593096264698 1.9194808947737159 74.27178002898712 1.8544695313222257 C 74.26421232370515 1.8540623871475792 74.25668898162495 1.85386198103362 74.24921150658385 1.85386198103362 C 74.00597426473085 1.85386198103362 73.81129069709615 2.0659312242692773 73.71841407102069 2.2744985843667034 C 73.6232777957653 2.50710201424575 73.63110802949485 2.8382720094722917 73.86851168840148 2.982556813186685 C 74.24058462491286 3.1367780243048737 74.61907096271125 3.276558281116568 74.99365397194883 3.4251272799875063 C 75.12191166870122 4.10948154963178 75.01500719590156 4.832018724438628 75.26362016159042 5.494858938683267 C 75.49711212189416 6.05044547326616 75.77416154374367 6.6226065116057375 76.25243849134152 7.009835447401593 C 76.47127136177396 7.1912311576974135 76.75565523581784 7.297314060409048 77.03895223120574 7.297314060409048 C 77.18607722962524 7.297314060409048 77.3329090589112 7.268703159116042 77.47011411298838 7.207170567197223 C 77.95536569990774 6.992712597058216 78.26681864621622 6.529899213163518 78.50921791428169 6.077734897276916 C 78.70485733874341 5.7038644694943095 78.88118812485105 5.3103618408797955 78.92104139756063 4.885264064479104 C 78.98776555260218 4.403233222263221 78.95488945199283 3.9112428610379837 79.04642407390091 3.4324216826188096 C 79.4272678746157 3.281405386337282 79.81203938188618 3.139234186440883 80.19036939974973 2.982556813186685 C 80.43552591401814 2.832264891610905 80.436637170669 2.4861166763979505 80.32973618044004 2.2498043087226485 C 80.23449040455434 2.0554236752705655 80.04545583372519 1.8543634712145223 79.81646224667608 1.8543634712145223 C 79.79709345482809 1.8543634712145223 79.77743909218263 1.855801772913915 79.75753145166803 1.8588043820525992 C 79.48985600205415 1.9309471005071324 79.22358561141935 2.008528328006827 78.95645945818417 2.0827950979914562 C 78.77270763051065 1.7642022485518571 78.5223988111892 1.4803015020433756 78.21324119556984 1.278627732349335 C 78.41379800986095 1.2531169521746321 78.66179851800251 1.2554306455092488 78.7813738494007 1.0601553079844197 C 78.91492537021551 0.8500929752643802 78.98039769938883 0.5823966302262978 78.92798912610854 0.3369148121946973 C 78.82804789512628 0.11313415858856035 78.55181228673005 0.10141198390864199 78.34266555350696 0.06480082622276558 C 77.92861290838223 0.010628489181227498 77.50976254722129 0.00156525723130049 77.0926588535654 0.0 Z"
     style="fill:#ffffff;stroke:none"
     id="path18" />
  <path
     d="M 73.23053125691467 9.015412196854165 C 73.82777177224473 9.022842162789892 74.43188728619518 9.020295339196734 75.0194901813094 9.139056512433166 C 75.0199063050044 9.13905529093504 75.02032202153335 9.139054680185977 75.02073651656418 9.139054680185977 C 75.31135657225157 9.139054680185977 75.20325561674564 9.450311132383689 75.13912289345889 9.6247642732717 C 75.0849453799008 9.880854205595128 74.79246091090677 9.814075717366997 74.59956884863749 9.837697048131757 C 74.15979776424854 9.851402664273941 73.71963661479127 9.8591571415452 73.27948930897944 9.8591571415452 C 72.73477280591061 9.8591571415452 72.19007666114389 9.847280515264003 71.64616492175722 9.820107882280292 C 71.62834794650522 9.823299656884094 71.61145442383663 9.824818386221022 71.59543142216599 9.824818386221022 C 71.38902389029617 9.824818386221022 71.32706197276273 9.572826580111046 71.29578551324099 9.399702836350402 C 71.18654754656257 9.118148332589751 71.55945036261112 9.12725256529048 71.74399776043116 9.089738525587205 C 72.23669147263654 9.02774851359686 72.73448005352637 9.017092774692816 73.23053125691467 9.015412196854165 ZM 69.57106619321904 11.40008924274765 C 69.86827348292658 11.483754942570716 70.16548087442561 11.567420235227738 70.46268816413316 11.651085935050803 C 70.33069480706995 11.927822443035616 70.31986887276032 12.24696570146826 70.40160674316569 12.539998215954919 C 70.02536547094668 12.391724222907966 69.64655274158896 12.248993795523822 69.27191621253328 12.097260112617384 C 69.13190043749526 11.86223410114846 69.28515575079668 11.524764299162157 69.52173889244987 11.412437774471607 L 69.57106619321904 11.40008924274765 ZM 76.72739049004845 11.40008924274765 C 76.9969067226092 11.474510237585472 77.15540994813114 11.827917332790555 77.04161844002121 12.081573226514479 C 76.9042731907095 12.162765392631956 76.7414906500854 12.203347224879224 76.5940069663261 12.26831708154847 C 76.3534907279459 12.362073577392204 76.11297530389776 12.455830480401978 75.87245906551753 12.549586976245713 C 75.95293706239721 12.255534510823665 75.94937517386117 11.93505900510136 75.81596396284797 11.656506129402864 C 76.11977253380411 11.571033833851127 76.42358191909231 11.485561538299388 76.72739049004845 11.40008924274765 ZM 73.33985615354307 10.24385128258913 C 74.05499241068713 10.24385128258913 74.72614007730992 10.659212355589833 75.12135213155265 11.243778199196239 C 75.30106992936466 11.518682052825687 75.49506378294379 11.81106717330545 75.52785978613456 12.145365966156096 C 75.48778691143987 12.534910269093189 75.32181341054405 12.901404088056504 75.29585128220342 13.294500914710671 C 75.20094047063041 14.030707607365924 75.26415584882437 14.793504685564724 75.03507975472824 15.508135649650585 C 74.76446987417849 16.159128190024774 74.45069184268223 16.828540107810213 73.90929211419211 17.299889361758098 C 73.69817082105324 17.489660496314897 73.4160532066564 17.599416174615804 73.13471897972451 17.599416174615804 C 72.98139368475962 17.599416174615804 72.82830128877079 17.56681764695544 72.68706068193458 17.496804631689088 C 72.12493070516145 17.219733840383736 71.78999367953985 16.650412293392503 71.5118671066874 16.113805723549664 C 71.31511368525814 15.730465409595622 71.1438645339552 15.326455718681842 71.10682423194187 14.892434633139024 C 71.00908035904813 14.102278439909242 71.0621680926946 13.28794065544081 70.81914004700084 12.520273871378828 C 70.75109832612719 12.297431489386824 70.71064454760015 12.05240059393211 70.82478540417418 11.835986549412336 C 71.11396979239721 11.149774146398927 71.66006170235616 10.526582089045325 72.39739624494794 10.322263726137383 C 72.69024919921004 10.231053239554726 73.00541240958144 10.271782465909222 73.30787326093832 10.244128562663782 C 73.31854345423685 10.243943302114639 73.32920468988246 10.24385128258913 73.33985615354307 10.24385128258913 ZM 73.23053125691467 8.615151690855782 C 72.55754075678546 8.624887438087764 71.87276911081193 8.619456046669546 71.21655609102932 8.786885980497857 C 70.97427356635859 8.847394111678081 70.83368870043314 9.09503779162477 70.88516446371906 9.336089249767294 C 70.91831958735894 9.646588373126754 71.01444884331283 10.016797989390017 71.31615338374657 10.168246656067005 C 71.4194068239386 10.231821561876115 71.77431025434831 10.199536144902106 71.52157170571716 10.316930258152283 C 71.16345899256386 10.570301542812798 70.87132000395653 10.910068982774513 70.65197802842822 11.28855832050331 C 70.30180322084813 11.194249707506527 69.95526328631712 11.083736700367366 69.60268624998456 11.00012759662415 C 69.5929536582894 10.999603981094046 69.58327812073588 10.999346244989413 69.57366157136272 10.999346244989413 C 69.26084167790708 10.999346244989413 69.0104651631057 11.272081939444828 68.8910194069702 11.540313970308883 C 68.76866758591503 11.83945804708704 68.77873780732662 12.265365534909492 69.0840553101868 12.450925758259181 C 69.56256680567381 12.649264887839298 70.04932637819053 12.829031952742387 70.53106600057454 13.020101946973394 C 70.69601425737642 13.900228806187723 70.55852772144812 14.829461518740096 70.87826116705875 15.681919816731472 C 71.17854795533398 16.39644247465014 71.53485264767747 17.13228108920336 72.14994983694864 17.63028424659736 C 72.43138402314386 17.863571659066636 72.797121327601 18.000001599115755 73.16146083103571 18.000001599115755 C 73.35067374094884 18.000001599115755 73.539509615107 17.963206003893717 73.71596479142387 17.884070840620787 C 74.34003184860188 17.60826307837794 74.74058184965618 17.01305310009969 75.05232405094208 16.43153855881257 C 75.30392986364417 15.950715365397755 75.53070343377237 15.444643805714058 75.5819574951484 14.897938703695752 C 75.66776936717922 14.278013746663737 75.62548843103839 13.645280160280223 75.74320827712222 13.02948305258273 C 76.23299970977972 12.83526566484651 76.72784244435515 12.652423681993692 77.2144009786386 12.450925758259181 C 77.5296891889849 12.257639966427218 77.53111834179258 11.812469453154346 77.39363628469074 11.508555426193317 C 77.27114363826173 11.258568505674504 77.02803212352936 10.999991196000055 76.7335305539629 10.999991196000055 C 76.70862094984102 10.999991196000055 76.6833440819492 11.001840951329187 76.65774148122371 11.005702514072198 C 76.31349236463691 11.098483032913085 75.97105025094483 11.198257850024683 75.62750756744103 11.29377004584183 C 75.39119002528665 10.88403763620673 75.06927559477165 10.518921667129785 74.67167754752239 10.259555269665803 C 74.92960746318994 10.226746644327731 75.24855324609219 10.229722213763193 75.40233538135628 9.978584642009483 C 75.57409186154764 9.708429973094763 75.65829379904812 9.364153983549187 75.59089275394166 9.04844741009465 C 75.4623614279427 8.760650032993931 75.10710335591035 8.745574506703198 74.8381262111893 8.698490029181022 C 74.30562591088076 8.62882066205418 73.76695541637066 8.617164719767786 73.23053125691467 8.615151690855782 Z"
     style="fill:#ffffff;stroke:none"
     id="path20" />
</svg>
