<?xml version="1.0" encoding="UTF-8" standalone="no"?>
<svg
   width="87.61431121826172"
   height="18.0"
   version="1.1"
   id="svg32"
   sodipodi:docname="neferkaresetepenre.svg"
   inkscape:version="1.1.1 (3bf5ae0d25, 2021-09-20)"
   xmlns:inkscape="http://www.inkscape.org/namespaces/inkscape"
   xmlns:sodipodi="http://sodipodi.sourceforge.net/DTD/sodipodi-0.dtd"
   xmlns="http://www.w3.org/2000/svg"
   xmlns:svg="http://www.w3.org/2000/svg">
  <defs
     id="defs36" />
  <sodipodi:namedview
     id="namedview34"
     pagecolor="#ffffff"
     bordercolor="#666666"
     borderopacity="1.0"
     inkscape:pageshadow="2"
     inkscape:pageopacity="0.0"
     inkscape:pagecheckerboard="0"
     showgrid="false"
     inkscape:zoom="15.693783"
     inkscape:cx="43.807156"
     inkscape:cy="9.0163091"
     inkscape:window-width="1920"
     inkscape:window-height="1001"
     inkscape:window-x="-9"
     inkscape:window-y="-9"
     inkscape:window-maximized="1"
     inkscape:current-layer="svg32" />
  <path
     d="M 1.2190420140847793 0.0 C 0.970800706632417 0.0 0.7230423028937335 0.01893070358296025 0.48290982680079 0.048905678499779795 C 0.15187998957905166 0.13255188916498697 0.3219916247400915 0.5118521231009919 0.6158947927962716 0.5118521231009919 C 0.6355981423211179 0.5118521231009919 0.6558578408244597 0.5101473851910305 0.6765601864318946 0.5065345630073116 C 1.2976180869590601 0.5780119512905144 2.0622053316712337 0.6175539511807123 2.531371224901928 0.9695623988344474 C 3.1537543888207784 1.6479367557428735 2.8741262715941502 3.0576933712068692 2.94658764204448 3.7269297850416896 C 2.951782632395561 3.7629649381631523 2.953952713884158 6.430591781037886 2.953952713884158 7.782422252231933 C 2.352510186605274 7.494257626556917 1.67335422808609 7.349215125535265 1.0039192969246102 7.349215125535265 C 0.7063920462481148 7.349215125535265 0.41078504023889434 7.377865539465801 0.12477432975315178 7.4353349446232855 C -0.20149863151174055 7.606724672263251 0.18154647682350566 7.8266562324049085 0.4376378670454302 7.8266562324049085 C 0.4681373192956425 7.8266562324049085 0.4968360674978842 7.823536850015894 0.5223214865886322 7.816844331348357 C 1.429843884416301 7.914926816832979 2.4617098179841825 8.158078494744517 2.9226503683594482 9.002292523011262 C 2.9681809889039896 9.155077638776014 2.9396896697969415 9.207577525716367 2.870237404087557 9.207577525716367 C 2.717627362869183 9.207577525716367 2.3672466519332462 8.954092059534803 2.1698535251191053 8.954092059534803 C 2.1594948014573196 8.954092059534803 2.1495575210365625 8.954790250504107 2.140092081444407 8.956259682604495 C 1.7610785167129768 8.874396440250864 1.3638924072290621 8.831466124503471 0.9703996331480379 8.831466124503471 C 0.6822712691518855 8.831466124503471 0.39612316158451694 8.854483949517657 0.1205398348885778 8.90208807080806 C -0.19080937123302597 9.107627344268586 0.19133570335568265 9.296978982841198 0.44461121617263977 9.296978982841198 C 0.47243301123084086 9.296978982841198 0.4986997685303211 9.294694058069421 0.5223214865886322 9.289895224364907 C 1.44862453664532 9.401605077048192 2.473672484380784 9.652726246647584 2.9226503683594482 10.498359836231193 C 2.9277747669676573 11.438445880183364 2.9223641381582497 12.059730482053933 2.9475081443234266 12.924290385186742 C 2.9366830234749024 13.190445840004433 3.1097205941872907 13.32271720601211 3.2850258807391146 13.32271720601211 C 3.4589948410141766 13.32271720601211 3.635197450466691 13.192454719453337 3.636159394664339 12.93350313443563 C 3.6297524037925992 12.081649745019838 3.5689455193688686 11.333930766029841 3.680643079957625 10.507654766912083 C 3.905950499841305 9.580679119782916 5.51430012614692 9.438421656179063 6.5132119200872856 9.209440304841713 C 6.73117182826633 8.953197897458422 6.302254993763335 8.858046549715155 6.0257896324592775 8.858046549715155 C 5.984500135730289 8.858046549715155 5.946610983551 8.860169218839136 5.914784994799312 8.86419400179096 C 5.786745621336966 8.854375779085794 5.657882677541108 8.84931073373403 5.528823762638173 8.84931073373403 C 4.87588245171773 8.84931073373403 4.21792069818853 8.978947377079876 3.636159394664339 9.278489565451865 C 3.6124626948293947 8.719755569414783 4.162693019870619 8.398265319455419 4.5568162027996815 8.173701395689454 C 5.178845705598769 7.90617273831141 5.863655500797704 7.879904181098088 6.5132119200872856 7.736389411825166 C 6.745102634598536 7.535056141910107 6.380132787867637 7.365650007124583 6.127413645979344 7.365650007124583 C 6.0940901289112 7.365650007124583 6.06271789404902 7.368595192973972 6.034923712303174 7.3748016471035225 C 5.875700348626306 7.359480780481324 5.715556482670491 7.35166300836024 5.555429474444318 7.35166300836024 C 4.887519202007935 7.35166300836024 4.219896213380853 7.487670468699637 3.6205083975033348 7.782422252231933 C 3.6327889023442115 5.672151988401518 3.6669749732456607 3.6298724602408705 3.6064121746990256 1.633623314068084 C 3.557780785508615 1.016382811297887 3.202148013782708 0.4498605441665941 2.6039100355477967 0.2652764822581205 C 2.1742288083663857 0.06980961445750675 1.6957449806778964 0.0 1.2190420140847793 0.0 Z"
     style="fill:#ffffff;stroke:none"
     id="path2" />
  <path
     d="M 3.29314921521244 15.21501288860129 C 4.074491287174412 15.21501288860129 5.052497037940845 15.616391919330065 5.5257419749406465 16.089636856329868 C 5.939782214238027 16.503676744424546 5.993910276899555 17.05261639954012 6.009086799211701 17.562687749346416 L 0.6002280514165623 17.562687749346416 C 0.615404749330059 17.05261639954012 0.6695328119915868 16.503676744424546 1.0835728756876173 16.089636856329868 C 1.5568179882887687 15.616391919330065 2.5118074944531683 15.21501288860129 3.29314921521244 15.21501288860129 ZM 3.29314921521244 14.777700904737003 C 2.3662267752924526 14.777700904737003 1.3688759017560481 15.205906904973462 0.7843594130436309 15.79042339368588 C 0.1848327417701466 16.38995028583294 0.11688322714550736 17.179222163577567 0.11688322714550736 17.769835531176867 L 0.11688322714550736 17.999999733210704 L 6.469415203279373 17.999999733210704 L 6.469415203279373 17.769835531176867 C 6.469415203279373 17.179222163577567 6.42448232973169 16.38995028583294 5.824955437584633 15.79042339368588 C 5.240439300074916 15.205906904973462 4.220071830733778 14.777700904737003 3.29314921521244 14.777700904737003 Z"
     style="fill:#ffffff;stroke:none"
     id="path4" />
  <path
     d="M 19.59558827849137 2.2331113889984504 Q 20.011497239301697 2.2331113889984504 20.406868373464476 2.6849636002931274 Q 17.14505908393548 6.568070899826414 16.329606932707488 7.024335296803508 Q 15.721254175199014 7.364724151693918 15.258781670883675 7.364724151693918 Q 15.101344397401952 7.364724151693918 14.960813057159163 7.325276517725049 Q 14.407469963604743 7.169951972435412 13.776464255096982 7.150536917736989 Q 13.760688966903167 7.150051524254103 13.744834947749503 7.150051524254103 Q 13.12652956999073 7.150051524254103 12.38825395561615 7.88832679632016 L 12.291175943655867 7.88832679632016 Q 12.815395428237089 6.665148911786697 13.75704954270708 6.140928742588433 Q 14.698701945634467 5.6167096003157315 19.2807685008913 2.2966530928403377 Q 19.439622247033235 2.2331113889984504 19.59558827849137 2.2331113889984504 ZM 13.822576293662692 0.46382689862325743 Q 13.87160069312572 0.46382689862325743 13.922081273037408 0.4715931515608784 L 13.922081273037408 5.461385397334616 Q 12.38825395561615 6.354500505824466 11.805788280014095 7.965988384347936 Q 12.698902703886905 1.79184917642032 13.058089773520756 1.0928900062739073 Q 13.381357725420997 0.46382689862325743 13.822576293662692 0.46382689862325743 ZM 9.823471846940608 8.280349468529765 Q 9.763159224955167 8.280349468529765 9.708909828226425 8.383422671928184 Q 9.611832586460313 8.567870141573977 9.883650198408658 8.897933602234632 Q 10.038974144658383 8.4902085535462 9.922481420308197 8.344591877914295 Q 9.871087133376625 8.280349468529765 9.823471846940608 8.280349468529765 ZM 9.850515161454094 8.003054920244196 Q 9.964842185368557 8.003054920244196 10.097221020296256 8.179560147583969 Q 10.388454200405805 8.567870141573977 9.922481420308197 9.732803546629212 Q 9.398261764572714 8.723195371480656 9.602124802379711 8.257221735611745 Q 9.713322784103013 8.003054920244196 9.850515161454094 8.003054920244196 ZM 14.931688078951879 9.926958201315696 L 14.931688078951879 10.218190867962463 Q 14.718118369566973 10.198775813264039 14.601625302908268 10.082282061988291 Q 14.640456096922156 10.024035528658937 14.756948478963821 9.926958201315696 ZM 15.378245975505326 10.587085807254049 L 17.183890562566404 10.839488364503968 L 17.552786186475032 11.499616655059363 Q 16.931489374550573 11.32487637045426 16.183991626309666 11.033644388424536 Q 15.43649319345172 10.742411037160727 15.378245975505326 10.587085807254049 ZM 11.39806151978306 10.315268879922746 L 11.747541404376221 10.490008479910806 L 11.864034128726408 11.32487637045426 L 11.553386065072697 12.276239381507548 L 11.067997716813883 12.276239381507548 L 11.39806151978306 11.32487637045426 L 11.39806151978306 10.315268879922746 ZM 12.232929752635034 10.606502231186555 L 12.562994240221252 10.703579558529796 L 12.679486964571439 11.32487637045426 L 12.368838216300684 12.276239381507548 L 11.883450552658914 12.276239381507548 L 12.21351435562809 11.32487637045426 L 12.232929752635034 10.606502231186555 ZM 13.37844604914072 10.72299461322822 L 13.494939115799427 11.32487637045426 L 13.184290367528675 12.276239381507548 L 12.698902703886905 12.276239381507548 L 13.028966164547558 11.32487637045426 L 13.028966164547558 10.742411037160727 L 13.37844604914072 10.72299461322822 ZM 12.635970993829574 8.307902566008263 Q 12.94616549869286 8.307902566008263 13.300783776495901 8.383422671928184 Q 14.349222745658347 8.606700935587865 14.621040357606692 9.441570195365404 L 15.43649319345172 9.441570195365404 L 15.747140914796912 8.936765765482605 Q 19.863233149567787 9.888126722684765 20.387455372617175 12.373316708850789 Q 19.261352076958786 11.752018527692242 18.018759137726903 11.538448133690293 L 17.475123229213175 10.451177001279875 L 15.319998757558931 10.159943650016068 L 15.378245975505326 9.635724850051886 L 14.640456096922156 9.635724850051886 Q 13.825002918768604 10.30727392210448 12.976631641685719 10.30727392210448 Q 12.794837747695311 10.30727392210448 12.611532561584353 10.276437401291815 Q 11.572801804388162 10.101698485920798 11.252445186459676 9.567771131681843 Q 10.93208856853119 9.033843092825846 11.592216516778063 8.596994435164216 Q 12.029066885982298 8.307902566008263 12.635970993829574 8.307902566008263 ZM 14.014203342229544 0.0 Q 13.306659502260182 0.0 12.902764885922597 0.4910087625106481 Q 12.407668668006053 1.0928900062739073 11.980527880002157 3.655740467965014 L 11.300984192439817 8.101897190322108 Q 10.97091987600786 8.451378444149354 10.7961802760198 8.4902085535462 L 10.563193800393865 8.4902085535462 Q 10.543778232232661 8.004819862978866 10.194298176485239 7.597094129673393 Q 9.883650198408658 4.626517849099683 10.466115788433582 2.3937311048006213 L 10.233129483961907 1.9471738928642175 Q 9.398261764572714 4.471192276884482 9.825403408347913 7.616509184371816 L 9.767156618287169 7.616509184371816 Q 8.427485014569381 4.607101425167175 9.378846196411509 1.9471738928642175 L 9.145859806362706 1.5976940082710553 L 9.145859806362706 1.5976940082710553 Q 7.90326545510817 4.4323618251791155 9.41767741831105 7.752417990345988 Q 8.99053577453585 8.684363892849726 9.330307190431368 9.286245650075767 Q 9.670079376521057 9.888126722684765 9.747741050125965 10.412346207265987 L 9.883650198408658 10.509424219226272 Q 10.407869083949969 9.732803546629212 10.485531356594787 9.16975258341706 L 10.679686695898312 9.16975258341706 Q 10.699102264059515 9.616309110736422 10.93208856853119 10.101698485920798 L 11.067997716813883 11.32487637045426 L 10.737933400381925 12.276239381507548 L 9.048781837190987 12.276239381507548 L 9.048781837190987 12.742211648142375 L 13.922081273037408 12.742211648142375 L 13.922081273037408 12.276239381507548 L 13.51435451280637 12.276239381507548 L 13.825003261077125 11.32487637045426 L 13.84441900039259 10.606502231186555 Q 14.19389820036871 10.490008479910806 14.368638484973811 10.33468393462117 Q 14.621040357606692 10.567671437172667 14.931688078951879 10.567671437172667 Q 14.912273708870499 10.76182609185915 15.009351720830782 10.89773421321628 Q 15.785971708810798 11.499616655059363 17.78577231979245 11.946173182378724 L 18.465315665046262 13.266429763489512 Q 18.465315665046262 12.942390932799807 18.666445882775246 12.942390932799807 Q 18.73044046079052 12.942390932799807 18.81479623425647 12.97519504299162 L 18.27116032574274 12.00442040032512 L 18.27116032574274 12.00442040032512 Q 19.39726088293296 12.256823642192083 19.97972758546058 12.645134320799134 Q 20.290376676039852 12.97519504299162 19.94089679144669 13.44116867886053 Q 20.71751746404375 13.11110658743396 20.814596160621075 12.509224145590878 Q 20.503945700807716 9.577479001339576 15.552985575493386 8.431961335599805 L 15.203506375517266 9.014428722744466 L 14.892857284937993 9.014428722744466 Q 14.640456096922156 8.198975202282393 12.893057700881908 7.88832679632016 Q 13.283009064230479 7.599008318923254 13.852256838599681 7.599008318923254 Q 14.161630487629424 7.599008318923254 14.523962345646407 7.684463587358902 Q 14.891470935427632 7.771140212597752 15.241644337084495 7.771140212597752 Q 15.87195550160299 7.771140212597752 16.446100683983236 7.490308248055377 Q 17.339214423239 7.053458905776705 20.989335075992095 2.665548716748965 Q 20.31660024722249 1.8173165880798985 19.56675152405883 1.8173165880798985 Q 19.321111613951302 1.8173165880798985 19.067196737655266 1.9083427565418083 L 14.349222745658347 5.286645797346556 L 14.349222745658347 0.025035944973045218 Q 14.173971736739798 0.0 14.014203342229544 0.0 Z"
     style="fill:#ffffff;stroke:none"
     id="path6" />
  <path
     d="M 14.787816725437374 15.285542133461169 C 15.549371373096287 15.285542133461169 16.502609207919512 15.676756272943992 16.963869255453197 16.13801632047768 C 17.367423959429352 16.541570682145313 17.42018123331472 17.07660848522664 17.434973411436005 17.573762319663377 L 12.163093570676018 17.573762319663377 C 12.177885919951562 17.07660848522664 12.230643193836931 16.541570682145313 12.634197726658826 16.13801632047768 C 13.095457945346773 15.676756272943992 14.02626242008698 15.285542133461169 14.787816725437374 15.285542133461169 ZM 14.787816725437374 14.859305039952915 C 13.884368520776045 14.859305039952915 12.912275476840618 15.276666758126694 12.34256182057423 15.846380414393082 C 11.758218113396996 16.430724336850286 11.69198941469321 17.200007968606588 11.69198941469321 17.775664100798863 L 11.69198941469321 17.99999941317163 L 17.883644036181536 17.99999941317163 L 17.883644036181536 17.775664100798863 C 17.883644036181536 17.200007968606588 17.839849083994995 16.430724336850286 17.25550516153779 15.846380414393082 C 16.685791847579925 15.276666758126694 15.691265101252963 14.859305039952915 14.787816725437374 14.859305039952915 Z"
     style="fill:#ffffff;stroke:none"
     id="path8" />
  <path
     d="M 37.081693110971685 2.6799362565080806 Q 37.468635352318636 2.6799362565080806 37.79825313554344 2.988057502250985 Q 38.127870918768245 3.296178703222589 38.127870918768245 3.7117832631732135 Q 38.127870918768245 4.098725952233178 37.84841275274114 4.421177999107508 Q 37.568953870373214 4.7436302250670455 37.081693110971685 4.7436302250670455 Q 36.62309386429041 4.7436302250670455 36.322138668297086 4.406847063662179 Q 36.02118347230377 4.070063902257312 36.02118347230377 3.7117832631732135 Q 36.02118347230377 3.324840663655852 36.322138668297086 3.0023884376963155 Q 36.62309386429041 2.6799362565080806 37.081693110971685 2.6799362565080806 ZM 35.80621532166408 5.589171892180479 Q 35.72022791814003 5.589171892180479 35.70589644543909 5.689490768405468 Q 35.70589644543909 5.77547817192951 35.80621532166408 5.77547817192951 Q 35.89220272518812 5.77547817192951 35.906533481548244 5.689490768405468 Q 35.89220272518812 5.589171892180479 35.80621532166408 5.589171892180479 ZM 35.80621532166408 5.546178190418458 Q 35.94952718331026 5.546178190418458 35.94952718331026 5.689490768405468 Q 35.94952718331026 5.80414004282017 35.80621532166408 5.8471333864117785 Q 35.72022791814003 5.8328026300516544 35.63424087278641 5.761147057398974 Q 35.67723457454843 5.546178190418458 35.80621532166408 5.546178190418458 ZM 36.17684684061259 5.391527369864752 Q 36.07047631710409 5.391527369864752 35.94952718331026 5.402866328772273 Q 36.078507930425914 5.4745219014249535 36.006851641432405 5.589171892180479 Q 35.935196068779724 5.4745219014249535 35.80621532166408 5.4745219014249535 Q 35.5625845837929 5.4745219014249535 35.5625845837929 5.77547817192951 Q 35.70589644543909 5.8757963318136746 35.69156533090855 5.961783377167304 Q 35.67723457454843 6.047770780691346 35.64857162914653 6.076432651582006 Q 35.74889014720111 6.176751527806996 35.834877192554735 6.592357072726253 Q 35.89220272518812 6.592357072726253 35.906533481548244 6.549363370964232 Q 35.89220272518812 6.10509523881349 35.935196068779724 5.961783377167304 Q 36.06417717406579 5.703821882936005 36.293476081065606 5.696655967500325 Q 36.30344503814669 5.696344359241763 36.313238133555416 5.696344359241763 Q 36.52869447046685 5.696344359241763 36.6589230832984 5.8471333864117785 Q 36.79506867133849 6.004777078929324 36.75207461140606 6.205414115038479 Q 36.70908126781445 6.406051509318047 36.13583274671847 6.649681530848398 L 36.13583274671847 6.678344118079883 Q 37.02436793650872 6.449044136568831 36.94554609024994 5.882962247249355 Q 36.87711906569229 5.391527369864752 36.17684684061259 5.391527369864752 ZM 36.565769406168265 5.2452228153399325 Q 37.124686454563296 5.2452228153399325 37.1963427435568 5.93312078993582 Q 37.26799831620948 6.621019659957738 36.078507930425914 6.850318566957553 Q 36.27914532470548 6.936305970481594 36.40812607182113 7.165604877481409 Q 36.53710646076637 7.394904858992461 36.55143900797855 7.638535596863636 Q 36.491821184707476 7.656879294521374 36.43660599214242 7.656879294521374 Q 36.319272588659146 7.656879294521374 36.2218197920721 7.574044506964987 Q 36.078507930425914 7.452229317114605 35.87787161065758 6.964968557713078 Q 35.572755190816025 6.1328333882112425 35.14684472496909 6.1328333882112425 Q 35.132647924343104 6.1328333882112425 35.11831645164216 6.133757826044975 L 34.98933570452651 6.133757826044975 Q 35.00743835349688 6.0251422903931795 35.07127399154131 6.0251422903931795 Q 35.10851117843942 6.0251422903931795 35.16131015340418 6.06210153705147 Q 35.19406770295765 5.996587870626161 35.28765906433143 5.996587870626161 Q 35.357852943532166 5.996587870626161 35.46226642390874 6.03343966616081 Q 35.26162902962917 5.818471515521118 35.26162902962917 5.603503364881427 L 35.26162902962917 5.603503364881427 Q 35.274367718507335 5.605095790533801 35.28622172646751 5.605095790533801 Q 35.38105558100099 5.605095790533801 35.419272722146715 5.503184488656437 Q 35.42643827941198 5.507961765613558 35.44017268203589 5.507961765613558 Q 35.5088432624738 5.507961765613558 35.74172494810625 5.388535214241736 Q 36.02118347230377 5.2452228153399325 36.565769406168265 5.2452228153399325 ZM 31.30152324036207 6.423376928494071 Q 31.384287826517678 6.423376928494071 31.485355278904038 6.470541882875872 Q 31.807807415320973 6.621019659957738 31.70748925543681 7.710191169516317 Q 30.890609593527937 6.979299672243615 31.02675634562187 6.649681530848398 Q 31.120230092786553 6.423376928494071 31.30152324036207 6.423376928494071 ZM 36.05662801628912 7.911322122623813 Q 36.14373971673687 7.911322122623813 36.250482379303584 7.982483778278152 Q 35.87787161065758 8.240446347020688 35.906533481548244 9.28662451298766 L 35.72022791814003 9.28662451298766 Q 35.70589644543909 8.297770446972422 35.8492090234261 8.054140067271657 Q 35.93321932627513 7.911322122623813 36.05662801628912 7.911322122623813 ZM 37.38264794879459 5.359872627010252 Q 37.884240539067484 5.3742037415407875 38.48615164739495 6.370223006650882 Q 39.08806203938158 7.366242271760976 39.08806203938158 9.28662451298766 L 38.6581257381022 9.28662451298766 Q 38.643794623571665 7.767515627638462 37.33965460520299 7.767515627638462 L 37.33965460520299 9.28662451298766 L 37.05303016556979 9.28662451298766 L 37.05303016556979 7.151274121121285 Q 37.86990942453694 6.535031540092872 37.38264794879459 5.359872627010252 ZM 36.69192132336883 8.118088887166326 Q 36.72786873861283 8.118088887166326 36.766406442277415 8.125796356265163 L 36.766406442277415 9.601911181681928 L 37.65494127389725 9.601911181681928 L 37.65494127389725 8.125796356265163 Q 37.68580840001546 8.119794494668938 37.71482951582949 8.119794494668938 Q 38.17086497870068 8.119794494668938 38.17086497870068 9.601911181681928 Q 38.01322128618313 13.514331236787974 37.62627904483618 14.517515700992924 L 37.955896828060986 15.234077158246327 L 33.21226604128684 15.234077158246327 L 34.20111939096125 14.804140856966946 Q 33.713857915218895 12.668789748759746 33.11194716506185 11.658439727289528 Q 32.510036414904796 10.648088273137661 32.839654377214806 10.418789724308258 Q 32.922058823021004 10.361465266186114 33.01073322097692 10.361465266186114 Q 33.27675641484466 10.361465266186114 33.5992086408042 10.877388970989537 L 35.57691534015302 13.542993465849047 L 36.078507930425914 13.542993465849047 L 36.19315720484062 9.601911181681928 Q 36.19315720484062 8.118088887166326 36.69192132336883 8.118088887166326 ZM 37.081693110971685 2.25 Q 36.40812607182113 2.264330957830981 35.99968680050796 2.715764042834421 Q 35.591246454683564 3.167197060680909 35.591246454683564 3.726115004501971 Q 35.591246454683564 4.199044828458168 35.80621532166408 4.47133761630521 Q 35.978189054200925 4.757962055938405 36.2218197920721 4.915605569370745 Q 36.20557712205197 4.914650149796363 36.18907979286882 4.914650149796363 Q 35.958124705883264 4.914650149796363 35.67723457454843 5.101910953693746 Q 35.36194718951333 5.316878925248231 35.39061013491523 5.388535214241736 Q 35.349663735229 5.35577802285867 35.30403748093775 5.35577802285867 Q 35.269818237932334 5.35577802285867 35.23296644239768 5.3742037415407875 Q 35.146979397044056 5.4171974433028085 35.16131015340418 5.546178190418458 Q 34.74570568299616 5.689490768405468 34.74570568299616 6.434713380208707 Q 34.92914480859601 6.342993459238369 35.01169270165227 6.342993459238369 Q 35.032329406288525 6.342993459238369 35.04666087898948 6.3487259766846655 Q 35.33328460228185 6.3487259766846655 35.82054643619461 7.495223018876626 Q 35.72022791814003 7.581210422400667 35.54825275292154 7.824841160271842 Q 35.37627830404387 8.068471898143018 35.37627830404387 8.670382290129659 L 35.37627830404387 9.601911181681928 L 35.734559032670575 9.601911181681928 Q 35.72022791814003 10.390127495247187 35.63424087278641 12.812102326746757 L 33.642202342566215 10.089171941083453 Q 33.22626387824887 9.747889263876083 32.98493510161652 9.747889263876083 Q 32.901978536120005 9.747889263876083 32.839654377214806 9.788216386919721 L 32.08010011362541 8.269108217911349 Q 32.610355291129785 8.011146365509637 33.240928807603524 7.968153021918028 Q 33.21226604128684 7.581210422400667 32.96863530341566 7.280254868236935 Q 32.452711777697445 7.6671974677542964 31.965451018295916 7.867834862033863 Q 32.280737328819775 6.420382265678171 31.62866705100762 6.133757826044975 Q 31.431070075814105 6.046901859271495 31.266373022912894 6.046901859271495 Q 30.887569756468807 6.046901859271495 30.68280733593828 6.506369669202212 Q 30.38901780913848 7.165604877481409 31.607170289669217 7.996815609149513 Q 31.06258408717691 8.254777461551225 30.489336013793945 8.254777461551225 Q 30.503666971624927 8.656051175599123 30.77596043104149 8.97133784429339 Q 31.162903052944504 8.57006377207508 31.793476479875643 8.369426735965927 L 32.295068264265105 10.117834170144526 Q 32.137425467173586 10.175159344607495 32.094431765411564 10.476114898771227 Q 32.051438242734754 10.77707045293496 32.63185214201079 11.851911206133416 Q 33.21226604128684 12.92675195933187 33.57054605357271 14.488853471931852 L 32.52436806669095 15.07643346572878 L 32.59602363934363 15.750000146708926 L 38.72978202709571 15.750000146708926 L 38.228189436822824 14.517515700992924 Q 38.6581257381022 12.625796405168138 38.67245685263274 9.616242296212464 L 39.46067388253883 9.601911181681928 Q 39.46067388253883 7.065286717597243 38.75844425615678 5.968948576262161 Q 38.13013455577297 4.9880156279965995 37.800119919731515 4.9880156279965995 Q 37.76129424705556 4.9880156279965995 37.72659756289076 5.00159279380958 Q 38.54347610551709 4.571655776189374 38.586470165449526 3.7117832631732135 Q 38.586470165449526 3.095541577570831 38.13503647603351 2.6799362565080806 Q 37.6836027866175 2.264330957830981 37.081693110971685 2.25 Z"
     style="fill:#ffffff;stroke:none"
     id="path10" />
  <path
     d="M 42.93777715767961 11.336883236536101 C 42.56591110191132 11.336883236536101 42.19245578822311 11.60068580738808 41.81741130563907 12.128290949092039 L 41.81741130563907 12.681322080936589 C 42.19245578822311 12.147360619745648 42.56591110191132 11.880380245246506 42.93777715767961 11.880380245246506 C 43.30964339149608 11.880380245246506 43.67992036739263 12.147360619745648 44.048608085369274 12.681322080936589 L 44.048608085369274 12.128290949092039 C 43.67992036739263 11.60068580738808 43.30964339149608 11.336883236536101 42.93777715767961 11.336883236536101 ZM 42.93777715767961 12.481086978110397 C 42.80746513017353 12.481086978110397 42.67556402279571 12.516049227963114 42.542073568473896 12.585972303283226 C 42.2750929269025 12.72581987830877 42.141602472580686 13.037297337987429 42.141602472580686 13.520404682319208 L 42.35137303390226 14.798098255046744 L 42.559542497100956 14.72181814804699 L 42.48326176693262 13.978086036510394 C 42.432408540314285 13.444124575319453 42.50868864731404 13.169185447849216 42.712102355004134 13.00391188268308 C 42.813809342385305 12.921274744003684 42.87738250795237 12.879956174663986 42.94016086651131 12.879956174663986 C 43.002939225070264 12.879956174663986 43.06492277662109 12.921274744003684 43.1634514262106 13.00391188268308 C 43.3605089034378 13.169185447849216 43.43361085069406 13.43776825583247 43.38275762407572 13.959016365856785 L 43.28740695618153 14.72181814804699 L 43.5337164728801 14.779028584393135 L 43.72441691842766 13.520404682319208 C 43.711703567261026 13.037297337987429 43.578213201963294 12.72581987830877 43.32394582253445 12.585972303283226 C 43.19681213282003 12.516049227963114 43.06808918518569 12.481086978110397 42.93777715767961 12.481086978110397 ZM 43.20952512789032 10.717106120825942 C 43.81976705217735 10.895093749351362 44.150315072750445 11.143004453196895 44.20116883351327 11.460838232362539 C 44.25202188208345 11.778672723720842 44.274270424673205 12.210928087771435 44.26791374908989 12.757602900129003 C 44.26155707350658 13.304278424679229 44.16938509950038 13.828704338350708 43.99139818316762 14.330882777721413 C 43.813410732690365 14.83306121709212 43.4637928634155 15.12229120247001 42.94254475339118 15.198569885084446 C 42.40858320317616 15.12229120247001 42.055787085133716 14.83306121709212 41.88415622121569 14.330882777721413 C 41.712525935954204 13.828704338350708 41.620354095484124 13.307455516133732 41.60764078882954 12.767137735455808 C 41.59492743766292 12.226819242585224 41.61399741990081 11.794564590727289 41.66485073554323 11.470373779882003 C 41.71570400667361 11.146182969036715 42.04625162663834 10.895093749351362 42.65649346190128 10.717106120825942 ZM 42.41178593356641 2.25 L 42.41178593356641 3.1653628864305383 L 41.68712367073159 3.1653628864305383 L 41.68712367073159 3.7374645791695214 L 42.41178593356641 3.7374645791695214 L 42.08759476662479 10.33570487363451 C 41.4646395579392 10.589972609159684 41.118200065404025 10.930055287011418 41.04827630014727 11.35595290718971 C 40.978353030086986 11.781851239560662 40.949748067858145 12.21728440725842 40.962461385640744 12.66225241028298 C 40.975174703423335 13.107220413307541 41.026028236061954 13.574436602825532 41.115021983904356 14.063901691029614 C 41.20401573661526 14.553366067041035 41.43603482939858 15.018980535267572 41.8110792897266 15.311389748677943 C 42.18612377231064 15.603796113317674 42.65967233383743 15.750000720022861 42.93300974001621 15.750000720022861 C 43.20634714619499 15.750000720022861 43.67989561869771 15.600618309670514 44.05494019030583 15.301854913351137 C 44.42998458386578 15.003090092646444 44.6620037768012 14.540653428067069 44.75099759106391 14.063901691029614 C 44.839991405326614 13.587149953992158 44.89084480999312 13.123112280313988 44.903558161159744 12.671787245609785 C 44.91627151232637 12.22046221090558 44.8876662941533 11.781851239560662 44.81774250664053 11.35595290718971 C 44.747819075224086 10.930055287011418 44.39502304620573 10.589972609159684 43.75935477568178 10.33570487363451 L 43.511443359643586 3.7374645791695214 L 44.178895720276756 3.7374645791695214 L 44.1979657470267 3.1653628864305383 L 43.45423345744194 3.1653628864305383 L 43.45423345744194 2.25 Z"
     style="fill:#ffffff;stroke:none"
     id="path12" />
  <path
     d="M 47.15560820677086 3.896978974342346 Q 47.06546570615143 3.896978974342346 46.939728603098956 4.006999075465781 Q 46.443515340152786 4.674977984192287 46.40534543991089 5.915509203924939 Q 46.55802655704076 6.8888511728802 47.09240895083305 8.663765601059493 Q 46.90155792780395 10.095148432182723 46.80613280098729 12.595295869856214 Q 46.729792242422356 13.435042308251267 47.26417542823971 13.683150543575122 Q 48.84823951226854 14.103021228292418 51.272047500212196 14.103021228292418 Q 53.71494066739834 14.103021228292418 55.279920658390495 13.683150543575122 Q 55.83339103745695 13.435042308251267 55.75704887221258 12.595295869856214 Q 55.661623519103046 10.095148432182723 55.47077064047235 8.663765601059493 Q 56.005157107536434 6.8888511728802 56.157834196653084 5.915509203924939 Q 56.11966782092276 4.674977984192287 55.62345135027505 4.006999075465781 Q 55.49771433773972 3.896978974342346 55.40757228970605 3.896978974342346 Q 55.27879752157955 3.896978974342346 55.22266530169733 4.121509528615294 Q 55.35625992708603 4.503212321439982 55.47077064047235 4.865829052479958 Q 55.62345135027505 5.323871634473798 55.585282802133094 5.724659040808779 Q 55.54711352985393 6.37355260057314 55.46122796033396 6.78388223446076 Q 55.37534601150003 7.194212049382683 55.10815314003659 7.194212049382683 Q 55.09391080941268 7.195351479280829 55.080092823193155 7.195351479280829 Q 54.631026374488926 7.195351479280829 54.631026374488926 5.991849739860589 Q 54.631026374488926 5.55289260866069 54.74553781201246 4.923084228138817 Q 54.64721953075352 4.7559449422382105 54.533707402578216 4.7559449422382105 Q 54.42687326774305 4.7559449422382105 54.306579594606745 4.903998958379178 Q 54.249324237913584 5.362041540373019 54.23023887763679 5.915509203924939 Q 54.15389816066684 6.755254737148482 54.631026374488926 8.282062740346943 Q 54.45926030440944 10.438680572341694 54.45926030440944 12.595295869856214 Q 53.16147390901793 12.80523266048928 51.272047500212196 12.86248874131965 Q 49.401707356854764 12.80523266048928 48.10392005629174 12.595295869856214 Q 48.10392005629174 10.438680572341694 47.93215362414365 8.282062740346943 Q 48.40928147589713 6.755254737148482 48.33294093996148 5.915509203924939 Q 48.31385557968469 5.362041540373019 48.25660040402583 4.903998958379178 Q 48.13630654985523 4.7559449422382105 48.029472052951455 4.7559449422382105 Q 47.91596037736191 4.7559449422382105 47.81764309179163 4.923084228138817 Q 47.93215362414365 5.55289260866069 47.93215362414365 5.991849739860589 Q 47.93215362414365 7.195351479280829 47.48308654181936 7.195351479280829 Q 47.46926909870275 7.195351479280829 47.455026406010234 7.194212049382683 Q 47.187834801786906 7.194212049382683 47.101951993040046 6.78388223446076 Q 47.016069139034606 6.37355260057314 46.97789850899817 5.724659040808779 Q 46.939728603098956 5.323871634473798 47.09240895083305 4.865829052479958 Q 47.206920162063696 4.503212321439982 47.34051596417536 4.121509528615294 Q 47.28438311067309 3.896978974342346 47.15560820677086 3.896978974342346 Z"
     style="fill:#ffffff;stroke:none"
     id="path14" />
  <path
     d="M 60.82404076989419 8.203407192002246 C 60.31314531388562 8.243740548330095 60.030808560973234 8.499188095300077 59.97703033012273 8.969749289809286 C 60.04425325446159 9.48064510788646 60.32659000737397 9.749537529379097 60.82404076989419 9.776426916355803 C 61.321491532414406 9.749537529379097 61.583661426128565 9.48064510788646 61.61055008896806 8.969749289809286 C 61.57021673264021 8.499188095300077 61.30804683892605 8.243740548330095 60.82404076989419 8.203407192002246 ZM 60.884540985420266 6.509385226253514 C 61.24754589926277 6.509385226253514 61.58366178819717 6.576608422143824 61.89288792808626 6.711054813924445 C 62.20211370590675 6.845501205705066 62.47436684818572 7.030364654964103 62.70964735492317 7.2656453427358585 C 62.94492822372923 7.500926030507614 63.129791763505416 7.769818270965949 63.264237974251735 8.07232170204226 C 63.39868382292945 8.374825314152872 63.465906566234004 8.694134883641077 63.465906566234004 9.030250591541176 C 63.465906566234004 9.37981044982672 63.39868382292945 9.705842366059102 63.264237974251735 10.008346340238319 C 63.129791763505416 10.310849952348931 62.94492822372923 10.576381290986632 62.70964735492317 10.80493963201421 C 62.47436684818572 11.03349797304179 62.20211370590675 11.2116389850395 61.89288792808626 11.339363392144548 C 61.58366178819717 11.467087075112389 61.24754589926277 11.530948735562006 60.884540985420266 11.530948735562006 C 60.52153661468067 11.530948735562006 60.18206036702854 11.467087075112389 59.866112061429575 11.339363392144548 C 59.5501632127277 11.2116389850395 59.27790970838013 11.03349797304179 59.049351638904 10.80493963201421 C 58.820792935807816 10.576381290986632 58.63929075043802 10.310849952348931 58.504844992277455 10.008346340238319 C 58.37039864575541 9.705842366059102 58.3031754498651 9.37981044982672 58.3031754498651 9.030250591541176 C 58.3031754498651 8.694134883641077 58.37039864575541 8.374825314152872 58.504844992277455 8.07232170204226 C 58.63929075043802 7.769818270965949 58.820792935807816 7.500926030507614 59.049351638904 7.2656453427358585 C 59.27790970838013 7.030364654964103 59.5501632127277 6.845501205705066 59.866112061429575 6.711054813924445 C 60.18206036702854 6.576608422143824 60.52153661468067 6.509385226253514 60.884540985420266 6.509385226253514 ZM 60.84420799116102 5.823710203170776 C 60.400535278457006 5.823710203170776 59.983752133764 5.907739107516513 59.5938581950134 6.075796916207987 C 59.203964437297095 6.243854747528749 58.8678490914656 6.472413088556328 58.58551224803606 6.761471961920012 C 58.3031754498651 7.050531423645179 58.077978146433885 7.386646678959522 57.909920337742406 7.769817908897345 C 57.74186312872706 8.152989681938074 57.65783452987671 8.566411562741841 57.65783452987671 9.010083370274344 C 57.65783452987671 9.45375535884115 57.74186312872706 9.867177239644917 57.909920337742406 10.250349012685646 C 58.077978146433885 10.633520785726375 58.3031754498651 10.966275229737235 58.58551224803606 11.24861198264962 C 58.8678490914656 11.530948735562006 59.203964437297095 11.756146355803253 59.5938581950134 11.924204119236151 C 59.983752133764 12.09226115853184 60.400535278457006 12.17629004024829 60.84420799116102 12.17629004024829 C 61.287879979727826 12.17629004024829 61.70130149846299 12.09226115853184 62.08447254736651 11.924204119236151 C 62.46764432040724 11.756146355803253 62.803759847273035 11.530948735562006 63.092819490032504 11.24861198264962 C 63.381878408654764 10.966275229737235 63.61043674968234 10.633520785726375 63.77849415104664 10.250349012685646 C 63.946552638616744 9.867177239644917 64.03058152033319 9.45375535884115 64.03058152033319 9.010083370274344 C 64.03058152033319 8.566411562741841 63.946552638616744 8.152989681938074 63.77849415104664 7.769817908897345 C 63.61043674968234 7.386646678959522 63.381878408654764 7.050531423645179 63.092819490032504 6.761471961920012 C 62.803759847273035 6.472413088556328 62.46764432040724 6.243854747528749 62.08447254736651 6.075796916207987 C 61.70130149846299 5.907739107516513 61.287879979727826 5.823710203170776 60.84420799116102 5.823710203170776 Z"
     style="fill:#ffffff;stroke:none"
     id="path16" />
  <path
     d="M 66.7609053850174 2.25 L 66.7609053850174 7.102483988273889 L 67.54044053863271 7.102483988273889 L 67.54044053863271 3.139819802250713 L 69.31884078230117 3.139819802250713 C 69.50075943708322 4.563531485851854 69.99510383201171 5.6214282411715 70.80187378605235 6.313510068209652 C 71.608643740093 7.005592257316408 72.6052419186138 7.406999977687931 73.79166795954615 7.517733229324222 C 74.9780943625471 7.628466480960512 75.75718127523012 7.7846791699994355 76.12892797345802 7.986372020578202 C 76.50067467168591 8.188064147019759 76.68654838286847 8.391734254247325 76.68654838286847 8.597381256055087 L 78.13398859452963 8.597381256055087 C 77.91252209125705 8.067444250070864 77.61591549050681 7.66405927305054 77.24416879227891 7.387226324994117 C 76.87242209405102 7.110393376937694 76.18231716159306 6.936384291853756 75.17385471904225 6.865198707673699 C 74.16539227649145 6.794013123493642 73.3586223224508 6.661528962514737 72.75354485692031 6.467746224736985 C 72.14846739138983 6.273963124890628 71.608643740093 5.929899105951748 71.13407317889262 5.4355545299889485 C 70.65950261769224 4.941210497129056 70.29566494605955 3.879358866443205 70.04256088813175 2.25 Z"
     style="fill:#ffffff;stroke:none"
     id="path18" />
  <path
     d="M 66.85937904566526 12.546648502349854 L 66.57463670894504 13.163590231910348 L 65.67295264266431 15.180515117011964 L 65.5305814743042 15.465257453732193 L 66.12379467580467 15.74999979045242 L 66.26616584416479 15.441528925672174 L 66.88310757372528 14.041545770131052 L 67.19157843850553 14.587301915511489 L 67.47632077522576 15.156786588951945 L 67.76106311194599 14.587301915511489 L 68.09326250478625 13.994088714011014 L 68.4017333695665 14.587301915511489 L 68.68647570628673 15.156786588951945 L 68.97121804300696 14.587301915511489 L 69.2796889077872 13.994088714011014 L 69.61188830062747 14.587301915511489 L 69.8966306373477 15.156786588951945 L 70.18137297406793 14.587301915511489 L 70.48984383884817 14.017817242071033 L 70.79831470362842 14.587301915511489 L 71.10678556840867 15.156786588951945 L 71.3915279051289 14.587301915511489 L 71.69999876990914 13.994088714011014 L 72.00846963468939 14.587301915511489 L 72.31694049946964 15.156786588951945 L 72.60168283618987 14.587301915511489 L 72.91015370097011 13.994088714011014 L 73.21862456575036 14.587301915511489 L 73.52709543053061 15.156786588951945 L 73.81183776725084 14.587301915511489 L 74.12030863203108 13.994088714011014 L 74.42877949681133 14.587301915511489 L 74.71352183353156 15.156786588951945 L 75.0219926983118 14.587301915511489 L 75.33046356309205 13.994088714011014 L 75.6389344278723 14.587301915511489 L 75.92367676459253 15.156786588951945 L 76.23214762937278 14.587301915511489 L 76.54061849415302 13.994088714011014 L 76.87281788699329 14.611030443571508 L 77.15756022371352 15.133058060891926 L 77.46603108849376 14.611030443571508 L 77.79823048133403 13.970360185950994 L 78.6287289634347 15.465257453732193 L 78.79482865985483 15.74999979045242 L 79.36431333329529 15.441528925672174 L 79.22194216493517 15.156786588951945 L 78.08297281805426 13.11613317579031 L 77.79823048133403 12.61783408652991 L 77.5134881446138 13.139861703850329 L 77.15756022371352 13.756803433410823 L 76.82536083087325 13.139861703850329 L 76.516889966093 12.594105558469892 L 76.2558761574328 13.139861703850329 L 75.92367676459253 13.733074905350804 L 75.61520589981228 13.139861703850329 L 75.33046356309205 12.570377030409873 L 75.04572122637182 13.139861703850329 L 74.73725036159158 13.733074905350804 L 74.40505096875131 13.139861703850329 L 74.12030863203108 12.570377030409873 L 73.83556629531085 13.139861703850329 L 73.50336690247059 13.733074905350804 L 73.19489603769034 13.139861703850329 L 72.91015370097011 12.570377030409873 L 72.62541136424989 13.139861703850329 L 72.31694049946964 13.733074905350804 L 71.98474110662937 13.139861703850329 L 71.69999876990914 12.570377030409873 L 71.41525643318892 13.139861703850329 L 71.10678556840867 13.709346377290785 L 70.79831470362842 13.139861703850329 L 70.48984383884817 12.570377030409873 L 70.20510150212795 13.139861703850329 L 69.8966306373477 13.733074905350804 L 69.58815977256745 13.139861703850329 L 69.2796889077872 12.570377030409873 L 68.99494657106698 13.139861703850329 L 68.68647570628673 13.733074905350804 L 68.37800484150648 13.139861703850329 L 68.09326250478625 12.570377030409873 L 67.784791640006 13.139861703850329 L 67.47632077522576 13.733074905350804 L 67.16784991044551 13.139861703850329 L 66.85937904566526 12.546648502349854 Z"
     style="fill:#ffffff;stroke:none"
     id="path20" />
  <path
     d="M 30.489336013793945 0.375 C 20.86433607339859 0.375 20.86433607339859 17.625 30.489336013793945 17.625 "
     style="fill:none;stroke:#ffffff;stroke-width:1"
     id="path22" />
  <path
     d="M 30.489336013793945 0.375 L 79.36431121826172 0.375 "
     style="fill:none;stroke:#ffffff;stroke-width:1"
     id="path24" />
  <path
     d="M 30.489336013793945 17.625 L 79.36431121826172 17.625 "
     style="fill:none;stroke:#ffffff;stroke-width:1"
     id="path26" />
  <path
     d="M 87.05181121826172 0.375 L 87.05181121826172 17.625 "
     style="fill:none;stroke:#ffffff;stroke-width:1"
     id="path28" />
  <path
     d="M 79.36431121826172 0.375 C 88.98931312561035 0.375 88.98931312561035 17.625 79.36431121826172 17.625 "
     style="fill:none;stroke:#ffffff;stroke-width:1"
     id="path30" />
</svg>
