<?xml version="1.0" encoding="UTF-8" standalone="no"?>
<svg
   width="123.97203063964844"
   height="18.0"
   version="1.1"
   id="svg28"
   sodipodi:docname="neferhepusegerehtawy.svg"
   inkscape:version="1.1.1 (3bf5ae0d25, 2021-09-20)"
   xmlns:inkscape="http://www.inkscape.org/namespaces/inkscape"
   xmlns:sodipodi="http://sodipodi.sourceforge.net/DTD/sodipodi-0.dtd"
   xmlns="http://www.w3.org/2000/svg"
   xmlns:svg="http://www.w3.org/2000/svg">
  <defs
     id="defs32" />
  <sodipodi:namedview
     id="namedview30"
     pagecolor="#ffffff"
     bordercolor="#666666"
     borderopacity="1.0"
     inkscape:pageshadow="2"
     inkscape:pageopacity="0.0"
     inkscape:pagecheckerboard="0"
     showgrid="false"
     inkscape:zoom="11.091211"
     inkscape:cx="61.986015"
     inkscape:cy="8.9710669"
     inkscape:window-width="1920"
     inkscape:window-height="1001"
     inkscape:window-x="-9"
     inkscape:window-y="-9"
     inkscape:window-maximized="1"
     inkscape:current-layer="svg28" />
  <path
     d="M 22.77966110174755 0.5684490592972326 Q 22.633638086057772 0.6049545148491455 22.633638086057772 0.696219735092747 Q 22.633638086057772 0.7874840005506465 22.72490223216746 0.8422427507825265 Q 22.76140750869705 0.864146310549385 22.796453872674018 0.864146310549385 Q 22.84902246385376 0.864146310549385 22.898304682647282 0.8148638530594374 Q 22.980442987017422 0.7327252503187663 22.92568411743733 0.6505866475780953 Q 22.870925247857237 0.5684490592972326 22.77966110174755 0.5684490592972326 ZM 2.5609985348740345 0.46936116044907683 Q 2.359843567091113 0.46936116044907683 2.1720992805818096 0.7509784853246271 Q 2.2816167810455696 0.9335079710261279 2.5189051363271635 0.988266721258008 Q 2.5554108902496084 0.9973931597386192 2.589888440644617 0.9973931597386192 Q 2.762277147405363 0.9973931597386192 2.8839638690337397 0.7692307655447858 Q 2.8839638690337397 0.5136903090653525 2.6284226367909236 0.47718380921657794 Q 2.5945244026205927 0.46936116044907683 2.5609985348740345 0.46936116044907683 ZM 1.241199810550572 0.7874840005506465 Q 1.186441060318692 0.9152547360202673 1.2777053257765913 1.0247722364840275 L 0.5110819274186749 1.0977842217217681 Q 0.4928296471985162 0.9335079710261279 1.241199810550572 0.7874840005506465 ZM 1.9876164226822657 1.222624719872005 Q 1.9876164226822657 1.222624719872005 1.9876164226822657 1.222624719872005 L 1.9876164226822657 1.222624719872005 L 1.9876164226822657 1.222624719872005 ZM 2.125909851373434 1.2203396789907357 Q 2.284224539494109 1.2203396789907357 2.382007723680506 1.2529337952403716 Q 2.418033220394854 1.2649421350142038 2.3813761329386445 1.2649421350142038 Q 2.314213403607673 1.2649421350142038 2.0030587685814902 1.2246304859354444 L 2.0030585298850645 1.2246304859354444 Q 2.068468511363622 1.2203396789907357 2.125909851373434 1.2203396789907357 ZM 5.49470864855246 2.472162196565138 Q 5.540779445637364 2.472162196565138 5.621903767591998 2.539765559497574 Q 7.100390859290249 3.7627121350422854 9.290743732922557 5.405476312873666 Q 11.481095651769165 7.048240490705046 11.754889044883926 7.723598609145255 Q 9.966101851362767 7.468058331688141 8.697522964066787 6.318122547899043 Q 7.428944554163657 5.168188196288498 6.488918406955382 4.082139033390444 Q 5.548891782354257 2.996088915706688 5.439374520586923 2.667536414315408 Q 5.416389009597399 2.472162196565138 5.49470864855246 2.472162196565138 ZM 5.554353633962448 1.6040624432514505 Q 5.819804109613288 1.6040624432514505 6.059973769447039 1.7001303549242361 Q 11.736636406619128 6.007822446076134 12.558018495534819 7.303781245555012 Q 13.324641714870417 8.709256829408373 13.561929831455585 9.457627410479173 Q 13.461538888820648 9.568057924770454 13.322497266183765 9.568057924770454 Q 13.208735504578268 9.568057924770454 13.069100960020451 9.49413364179447 L 12.320730378949651 7.979140318780923 Q 11.754889044883926 6.683181519302044 9.555411284297772 5.104303007576006 Q 7.355932568925916 3.5254240184571173 6.370273871269948 2.603650986906491 Q 5.791486120478193 2.0623774824348997 5.483335241270446 2.0623774824348997 Q 5.266714415990388 2.0623774824348997 5.183833288344107 2.3298573550953035 Q 5.042689704984308 2.7853667564934774 4.685065172449792 2.7853667564934774 Q 4.533956013325552 2.7853667564934774 4.344197606377917 2.704041929541427 Q 4.508475169903898 1.8461543253997177 5.0560624335262725 1.6818780747040774 Q 5.315446678219568 1.6040624432514505 5.554353633962448 1.6040624432514505 ZM 6.023468492917445 8.033898710968165 Q 6.899609451413228 9.439374772214377 6.735331887887247 10.863103471725385 Q 6.5710557565398195 10.863103471725385 6.42503274085004 11.100391588310554 Q 6.365295618619811 10.697168400220765 6.0611810959671955 10.697168400220765 Q 5.99359993180233 10.697168400220765 5.913950753757259 10.717080456035607 Q 6.2972618860322065 9.311604394789393 6.023468492917445 8.033898710968165 ZM 2.768605228341677 0.3457626296377467 Q 2.854758883981503 0.3457626296377467 2.920469384259759 0.35853969124988744 Q 3.2490218856510396 0.42242505898469784 3.3037807552311325 0.5958278973462152 Q 3.3423147126810133 0.7178524937648807 3.3808493862201705 0.7178524937648807 Q 3.3970742983503825 0.7178524937648807 3.4132992104805946 0.696219735092747 Q 3.4680568865785597 0.6232077498550063 3.4863100022362077 0.5319425296114048 Q 3.887874488865229 1.061277632361834 3.5410688718163006 2.101695796338959 Q 3.1942632547673724 3.14211288618217 4.654497708200826 3.3428945327556163 Q 6.0052153772597965 6.445893402716877 7.556713976802937 8.06127814575821 Q 9.10821353113178 9.676662888799545 8.852672776281816 11.100391588310554 Q 8.262843406239485 10.66180027346223 7.547702231954776 10.66180027346223 Q 7.399740523897122 10.66180027346223 7.2464148297657305 10.680575179506013 Q 7.301173699345823 9.384615902634284 6.6258155809056145 8.125163811863553 Q 5.950456507679704 6.865711243699971 5.38461565100683 6.235985198314606 Q 4.818774316941105 5.6062591529292405 3.860495770164459 4.739244036173004 Q 2.9022162686021113 3.872229635506046 2.911342826430935 2.9504568426518447 Q 2.920469384259759 2.0286838111012186 3.166884297370177 1.6636248396982167 Q 3.4132992104805946 1.298565868295215 3.404172413955345 1.0795309867159075 Q 3.4003959978075793 0.9888957460132952 3.368491117486562 0.9888957460132952 Q 3.323292755836844 0.9888957460132952 3.221642928253844 1.170795132825594 Q 3.0482402390775927 1.4810953539967158 2.2633636653879217 1.4993485890025766 Q 2.2171959575542664 1.5004222455244558 2.1705229293878365 1.5004222455244558 Q 1.4237308477788386 1.5004222455244558 0.5475883974303962 1.2255549571913888 L 0.5475883974303962 1.2255549571913888 L 1.6245109428255198 1.298565868295215 Q 2.1565852064067235 1.4089965019347084 2.4153431116795185 1.4089965019347084 Q 2.627053474094281 1.4089965019347084 2.6558013554916937 1.3350723383069363 Q 2.7196867829006104 1.170795132825594 2.5554106515531827 1.1434162947766116 Q 2.3911342815093297 1.116036382593714 2.2177315923330783 1.116036382593714 Q 2.0443286644604015 1.116036382593714 1.953064399002502 1.170795132825594 L 1.9876164226822657 1.222624719872005 L 1.9876164226822657 1.222624719872005 Q 1.8278830423566574 1.2018226844347024 1.6062577078196592 1.170795132825594 Q 1.3689705460201929 0.7874840005506465 1.5332466773676203 0.6232077498550063 Q 1.5697521925936397 0.5684490592972326 1.6610164580515392 0.5684490592972326 Q 1.6245109428255198 0.7509784853246271 1.7249017661122432 0.8422427507825265 Q 1.7620839857045425 0.8760447306192765 1.798014123196905 0.8760447306192765 Q 1.8590952256508866 0.8760447306192765 1.9165579289907808 0.7783573830477161 Q 2.0078231492343823 0.6232077498550063 1.7522816782951405 0.5501957646172655 Q 2.4239901283895215 0.3457626296377467 2.768605228341677 0.3457626296377467 ZM 23.01695017311842 0.38591957359573165 Q 23.509778089767853 0.38591957359573165 23.747067161138723 0.7509784853246271 Q 23.82007771419791 0.8057372355565071 24.659714350949802 0.9517601915721803 L 24.659714350949802 1.0065190014781666 L 23.747067161138723 1.0795309867159075 Q 22.96219130353833 1.0795309867159075 22.76140750869705 0.9608868090751106 Q 22.56062562342718 0.8422427507825265 22.56975337473813 0.6870931175898166 Q 22.578879216477677 0.5319425296114048 22.816166378277146 0.5319425296114048 Q 23.053455449648016 0.5319425296114048 23.144719595757703 0.614081132352076 Q 23.23598374186739 0.696219735092747 23.190352623598248 0.7874840005506465 Q 23.144719595757703 0.8787482063344395 23.01695017311842 0.9335079710261279 Q 23.036506093866425 0.9348116712280785 23.054711947631823 0.9348116712280785 Q 23.291393775296232 0.9348116712280785 23.299870362758433 0.7144720153129057 Q 23.30899620449798 0.47718380921657794 22.907432433958235 0.4406782939905586 Q 22.3963490146869 0.4406782939905586 22.524120346897586 0.8148638530594374 Q 22.645949092899134 1.171644176011082 23.64728059785314 1.171644176011082 Q 23.69612743436656 1.171644176011082 23.747067161138723 1.170795132825594 Q 24.312907540418745 1.1342897369477876 24.75097849705949 1.0430254714898881 L 24.714473220529893 0.9700134862521473 L 24.714473220529893 0.9700134862521473 Q 26.338983805310775 1.9739250608693384 26.238591907890136 3.2607569444747537 Q 26.138201920040903 4.547588947428382 24.97001397537986 5.396349993741268 Q 23.801826030718814 6.245110562661302 22.889178840907736 7.267275491632566 Q 21.465450141396726 9.001303815573634 21.35593240223654 9.986962513229603 Q 21.246414663076354 10.97262121088557 21.848762228457378 10.97262121088557 Q 22.451107884266992 10.97262121088557 23.318122046237526 10.251630064604818 Q 24.185138117779466 9.530638918324064 25.079531714540046 9.512386280059266 Q 27.470664563870823 9.567144194853658 27.196872125541763 11.720991791956372 Q 26.320730212260276 10.790091963880496 25.225554730229824 10.790091963880496 Q 24.677966034428895 10.790091963880496 23.728813568088224 11.264668197050833 Q 22.286831275526716 12.031291416386429 21.53846260402732 12.031291416386429 L 20.9178614455958 11.94002631549104 Q 19.786180687035753 11.100391588310554 20.151239181045902 9.457627410479173 Q 20.69882596727543 8.271186827553333 21.629726750137007 5.222947065868591 Q 22.26857959204762 3.488918503231098 22.898304682647282 2.594524429077667 Q 23.52803168281835 1.7001303549242361 24.239896987359558 1.6818780747040774 Q 24.623207164848804 1.6818780747040774 25.48109548507979 2.0469359719731646 Q 25.516527582480354 2.0565995967593533 25.54286630085524 2.0565995967593533 Q 25.665772045128623 2.0565995967593533 25.590613224239974 1.8461543253997177 Q 24.90056286341766 1.4183230873680976 23.98094382841071 1.4183230873680976 Q 23.68429382037619 1.4183230873680976 23.36375507407807 1.4628421189908551 Q 23.08996072617761 1.4628421189908551 22.697522797377413 1.3168191033010757 Q 22.305084868577215 1.170795132825594 22.305084868577215 0.6232077498550063 Q 22.633638086057772 0.38591957359573165 23.01695017311842 0.38591957359573165 ZM 5.183833288344107 3.0508475465903557 Q 6.607562465247967 4.876141210123237 7.794002570780957 6.05345547391668 Q 8.980443153706798 7.2307702151029725 10.029987517468108 7.641461259560818 Q 11.079530926443718 8.052151349232961 11.973924523204298 8.070405897069161 Q 12.083442262364484 8.21642795797324 14.146023803786107 12.68839689656184 L 14.018253426361124 12.743155766141934 L 9.10821353113178 9.603651380954656 Q 9.144719762447076 9.329857033054191 7.657105874223576 7.641461259560818 Q 6.169491508607224 5.953063576496041 5.037810272654327 3.178618401408189 L 5.183833288344107 3.0508475465903557 ZM 10.22164260621273 10.917862341305478 L 12.941329627809766 12.578879157401655 Q 13.032594728705156 12.83441991225162 12.284224147634355 12.92568501314701 Q 12.117919574063066 12.945966571028519 11.97865548635762 12.945966571028519 Q 11.491235475924217 12.945966571028519 11.33507072650798 12.69752369308709 Q 11.13428979602381 12.378097272131784 10.823990171593753 11.867014807646152 Q 10.51368863759229 11.35593329794622 10.22164260621273 10.917862341305478 ZM 19.51238633913529 10.132986483705084 Q 19.51238633913529 10.899609703040682 19.73142181745566 11.465450082320704 Q 20.297262196735684 12.469361418241471 21.246414663076354 12.487615011291968 Q 21.271391857040214 12.488095268500066 21.296634481429226 12.488095268500066 Q 22.230630679536628 12.488095268500066 23.52803168281835 11.830508576330855 Q 24.760560726364584 11.205802794166512 25.321529788993093 11.205802794166512 Q 25.367013870264127 11.205802794166512 25.408083022449198 11.20990932747074 Q 25.955671718250127 11.264668197050833 26.594524560160743 11.775749706750762 Q 27.233377402071355 12.286832171236394 27.26988267860095 12.670144258297045 Q 27.336545816313357 12.981237309645449 27.213848215323008 12.981237309645449 Q 27.134969549339438 12.981237309645449 26.97783664722139 12.85267350530212 Q 26.453025319126954 11.803050849113246 25.632165497990247 11.803050849113246 Q 25.625090535938558 11.803050849113246 25.617992659030023 11.80312914154081 Q 24.78748377358908 11.812255938066059 23.573664710658896 12.451108779976673 Q 22.359843738157306 13.089961621887287 20.744458995115973 13.089961621887287 Q 19.129074252074638 13.089961621887287 18.946545959855264 12.049544054651227 Q 18.764015758064488 11.009126487415164 19.51238633913529 10.132986483705084 ZM 5.9869617842092975 11.191656689205942 L 6.260756609502613 11.739244430221168 Q 6.516296886959727 11.483703675371203 6.65319453830281 11.438070647530658 Q 6.65701845503925 11.436796008618511 6.66032249096096 11.436796008618511 Q 6.775304946086441 11.436796008618511 6.260756609502613 12.980443882727103 L 5.494133390167016 13.21773199931227 Q 5.293350550111441 13.071708028836788 5.6127774484596 12.314211606026442 Q 5.932203392022056 11.556715183216093 5.9869617842092975 11.191656689205942 ZM 25.3841465449005 12.332304795079008 Q 25.989295451531138 12.332304795079008 26.338983805310775 12.83441991225162 Q 26.101694733939905 13.21773199931227 25.225554730229824 13.436768432418344 Q 24.550196611789616 13.436768432418344 23.85658490029891 12.870926143566917 Q 24.757383199548386 12.332304795079008 25.3841465449005 12.332304795079008 ZM 23.272490927968388 13.089961621887287 Q 23.54354504090416 13.354712239618575 23.860314293250852 13.52803162374233 L 21.3870259534073 13.52803162374233 Q 22.296396318689176 13.432913007753738 23.272490927968388 13.089961621887287 ZM 13.835724179356049 14.239895973497832 Q 11.793824251025065 17.175128731674494 7.949174820459982 17.25145239111956 L 7.949174820459982 17.25145239111956 Q 4.122734108017405 17.175128731674494 2.080834179686421 14.239895973497832 ZM 28.602347232002273 14.258150521334034 Q 26.56044825845699 17.19338041515359 22.715797395713356 17.26970598417006 L 22.715797395713356 17.26970598417006 Q 18.889337110163886 17.19338041515359 16.829205548853547 14.258150521334034 ZM 3.0828786708633857 0.008692117630364187 Q 2.971576914619046 0.008692117630364187 2.8474573990220184 0.020860628300151455 Q 2.5554106515531827 0.020860628300151455 1.186441060318692 0.4406782939905586 Q 0.09126423562084626 0.696219735092747 0.0 1.0977842217217681 L 0.036505492848229494 1.7183835899300968 L 0.5840939126564156 1.5176008692227352 Q 1.4784879271357403 1.8096488101736983 2.080834179686421 1.8096488101736983 Q 2.6831812676745908 1.8096488101736983 2.5371572971991094 2.2203398546315434 Q 2.3911342815093297 2.6310308990893883 2.5736637672108307 3.5893094458660344 Q 2.7561932529123316 4.547588947428382 4.015645343683063 5.5241203711662505 Q 5.275098389239495 6.5006522722969695 5.576270739751453 8.079530784023007 Q 5.877444522441963 9.658410250534748 5.037810272654327 11.720991791956372 L 5.311603665769089 11.556715183216093 Q 5.3170254163777955 11.553462228329439 5.320836443507258 11.553462228329439 Q 5.38118176422965 11.553462228329439 5.037810272654327 12.368970475606535 Q 4.672751301251325 13.235984637577067 4.04302525586596 13.263364072367114 Q 3.93189679322653 13.268195288019145 3.833558162458005 13.268195288019145 Q 3.3746456661215403 13.268195288019145 3.1942632547673724 13.162973129732178 Q 2.989829552883843 13.04372039555458 2.5866402596864733 13.04372039555458 Q 2.5578429681289827 13.04372039555458 2.5280316941559873 13.044328594046743 Q 2.080834179686421 13.053455390571992 2.080834179686421 13.345502376737253 L 2.080834179686421 13.52803162374233 L 0.8031288539098296 13.52803162374233 Q 2.9022162686021113 17.981746969280433 7.958279656914086 18.000000562330932 Q 13.014342090440358 17.981746969280433 15.113428908391576 13.52803162374233 L 15.113428908391576 13.52803162374233 L 9.49152561819243 13.564537855057624 Q 9.49152561819243 13.400261246317346 9.144719762447076 13.208605202787021 Q 8.975349371986722 13.115006605635987 8.75591479324292 13.115006605635987 Q 8.526030084990925 13.115006605635987 8.241198414375544 13.21773199931227 Q 8.071091884138962 13.279081754593147 7.876274067756523 13.279081754593147 Q 7.433506997640579 13.279081754593147 6.863102742705081 12.962191244462305 Q 6.990873597522914 12.323337447765988 7.17340284452799 11.821382734591309 Q 7.355932568925916 11.319427066630926 7.867014556018697 11.228161965735536 Q 7.91433659976605 11.219711157487291 7.962910844961551 11.219711157487291 Q 8.438939307184603 11.219711157487291 9.03520202328689 12.031291416386429 Q 9.382007879032244 11.35593329794622 9.235984863342464 10.205997991549975 L 9.235984863342464 10.205997991549975 L 9.418514110347541 10.333768368974956 Q 10.787483940278456 12.633638026981748 11.070404129918469 13.035202752307194 Q 11.28503327222419 13.339837633167392 11.904089587389903 13.339837633167392 Q 12.10106378728027 13.339837633167392 12.338983017214447 13.308996145421958 Q 13.324641714870417 13.181225767996974 13.30638907660562 12.83441991225162 L 13.30638907660562 12.83441991225162 L 14.146023803786107 13.254238230627566 L 14.784876645696722 13.016950114042398 L 13.37940058445051 9.968709874964805 Q 13.726206440195863 9.968709874964805 14.018253426361124 9.676662888799545 Q 13.67144757061577 8.581486451983391 12.941329627809766 7.2307702151029725 Q 12.430248118109837 6.409388126187283 11.900913015359407 5.953063576496041 Q 10.4589307227979 4.602347339615624 8.907431645861907 3.3885266058104597 Q 7.355932568925916 2.174706826790998 6.6258155809056145 1.5176008692227352 Q 6.135176987870829 1.237236402210505 5.607156147639178 1.237236402210505 Q 5.310143798430758 1.237236402210505 5.0013035639461805 1.3259457804781123 Q 4.143416198500896 1.5723605742403173 3.9608864741029697 2.539765559497574 Q 3.906127843219302 2.50326028296798 4.0521506202126565 1.8096488101736983 Q 4.198174590688137 1.116036382593714 3.988266386285867 0.5228169265682828 Q 3.8063448603801033 0.008692117630364187 3.0828786708633857 0.008692117630364187 ZM 23.079162099888187 0.0 Q 22.74837277429359 0.0 22.451107884266992 0.09387261726752386 Q 22.06779770677775 0.20339010281275738 21.994785244147156 0.5136903090653525 Q 21.848762228457378 0.8970014413403002 22.12255657635784 1.2711870302462323 Q 22.3963490146869 1.645371604692356 22.980442987017422 1.7366368249359574 Q 21.81225504235638 2.795307030436816 20.99087390822639 5.478487343325705 Q 20.22424973410509 8.033898710968165 19.713168224405162 9.2568455252093 Q 18.344198394474244 10.370274600290251 18.353324236213794 11.492829517110751 Q 18.362451987524743 12.615385388716952 18.91003877375427 13.089961621887287 Q 19.30575352708367 13.432913007753738 20.06368533217412 13.52803162374233 L 15.55149986503232 13.52803162374233 Q 17.650586682983537 17.981746969280433 22.706650548688362 18.000000562330932 Q 27.762712504821785 17.981746969280433 29.861799322773003 13.52803162374233 L 26.348111556621728 13.52803162374233 Q 26.5488934418916 13.418513884582143 26.75880116890102 13.272490868892364 Q 26.964314972109918 13.516538868247567 27.224062512762817 13.516538868247567 Q 27.333429395782087 13.516538868247567 27.452412880391726 13.473272754162236 Q 27.908735520511563 13.254238230627566 27.6349411726111 12.469361418241471 Q 27.890481927461064 10.22425062981477 27.032595516801482 9.603651380954656 Q 26.1747071965705 8.983051177308838 25.09778339801914 8.983051177308838 Q 24.112125655148873 8.983051177308838 22.96219130353833 9.831812701014574 Q 22.249229905011244 10.358045705019261 21.98532331784051 10.358045705019261 Q 21.823573072067678 10.358045705019261 21.83050863540688 10.160365918495131 Q 21.848762228457378 9.64015665748425 22.633638086057772 8.398957204978315 Q 23.162973188808202 7.522817201268234 24.933506789278862 6.144720097419217 Q 26.704042299320925 4.766623948355902 26.685788706270426 3.370274444938514 Q 26.667537022791333 1.9739250608693384 25.900912848670032 1.2711870302462323 Q 25.134290584120137 0.5684490592972326 24.20338980125856 0.47718380921657794 Q 24.05736678556878 0.2764020731319715 23.82007771419791 0.1486313525808773 Q 23.582790552398443 0.020860628300151455 23.190352623598248 0.0026073821053958263 Q 23.13429142632065 0.0 23.079162099888187 0.0 Z"
     style="fill:#ffffff;stroke:none"
     id="path2" />
  <path
     d="M 34.497937356174546 12.11584431538147 C 34.00211594848348 12.11584431538147 33.50417553023254 12.46758107651744 33.00411622012049 13.171054598789386 L 33.00411622012049 13.908429441248785 C 33.50417553023254 13.19648082632753 34.00211594848348 12.840506993662009 34.497937356174546 12.840506993662009 C 34.993759001263165 12.840506993662009 35.487461635791895 13.19648082632753 35.97904525976075 13.908429441248785 L 35.97904525976075 13.171054598789386 C 35.487461635791895 12.46758107651744 34.993759001263165 12.11584431538147 34.497937356174546 12.11584431538147 ZM 34.497937356174546 13.641449304147198 C 34.32418798616644 13.641449304147198 34.14831984299601 13.688065637284152 33.97033257056692 13.781296404377635 C 33.61435838180507 13.967759837745024 33.436371109375976 14.383063117316572 33.436371109375976 15.027206243092277 L 33.71606519113807 16.73079767339566 L 33.993624475402996 16.629090864062654 L 33.891916835178556 15.637448048680525 C 33.824112533020774 14.92549943375927 33.925819342353776 14.558913930465621 34.19703761927391 14.338549176910774 C 34.33264693578213 14.228366325338245 34.41741115653822 14.17327489955198 34.50111563461681 14.17327489955198 C 34.584820112695404 14.17327489955198 34.66746484809651 14.228366325338245 34.79883638088253 14.338549176910774 C 35.061579683852116 14.558913930465621 35.159048946860466 14.91702434110996 35.091244644702684 15.612021821142381 L 34.96411042084377 16.629090864062654 L 35.292523109775196 16.705371445857516 L 35.54679037050526 15.027206243092277 C 35.52983923561643 14.383063117316572 35.351852081886115 13.967759837745024 35.01282890931432 13.781296404377635 C 34.84331732302843 13.688065637284152 34.67168672618265 13.641449304147198 34.497937356174546 13.641449304147198 ZM 34.86026798312216 11.289474827767924 C 35.67392388217152 11.526791665801817 36.11465457626898 11.857339270929192 36.18245959061942 12.28111764315005 C 36.250263655379655 12.704896964961122 36.27992837883267 13.281237450361916 36.27145281138825 14.010137200172004 C 36.26297724394384 14.739037899572306 36.14008127860223 15.438272451134276 35.90276539015855 16.10784370362855 C 35.66544878952221 16.777414956122826 35.19929163048906 17.16305493662668 34.50429415045664 17.26475984677926 C 33.7923454168366 17.16305493662668 33.32195059278001 16.777414956122826 33.093109440889314 16.10784370362855 C 32.864269060540664 15.438272451134276 32.74137327324723 14.743274021511642 32.72442219770778 14.022850313941076 C 32.70747106281895 13.302425656780299 32.732897705802806 12.726086120969718 32.80070212665937 12.293831706509335 C 32.86850648816654 11.861577292048954 33.30923664811951 11.526791665801817 34.122892428470095 11.289474827767924 ZM 33.7966157240236 0.0 L 33.7966157240236 1.220483848574051 L 32.83039937357717 1.220483848574051 L 32.83039937357717 1.983286105559362 L 33.7966157240236 1.983286105559362 L 33.364360834768114 10.780939831512681 C 32.53375388985399 11.11996347887958 32.07183456647376 11.573407049348557 31.97860287946476 12.141270542919614 C 31.8853718527177 12.709134986080883 31.847231903079255 13.289712543011225 31.864182993456048 13.88300321371064 C 31.88113408383284 14.476293884410055 31.948938794017668 15.099248803767376 32.0675971244742 15.751868921372818 C 32.18625546142207 16.404488089388046 32.495614251799836 17.02530738035676 32.99567353223719 17.41518633157059 C 33.495732842349234 17.805061484423568 34.127130924384964 18.00000096003048 34.491580799290006 18.00000096003048 C 34.856030674195054 18.00000096003048 35.487428637532005 17.800824412894016 35.98748806634283 17.402473217801518 C 36.4875472577561 17.00412012352859 36.79690618166999 16.387537904089424 36.915564600686935 15.751868921372818 C 37.03422301970388 15.11619993865621 37.10202755925922 14.49748304041865 37.118978694148055 13.895716327479713 C 37.13592982903689 13.293949614540775 37.09778953813946 12.709134986080883 37.00455782145576 12.141270542919614 C 36.911326579567174 11.573407049348557 36.44093187420936 11.11996347887958 35.59337418017743 10.780939831512681 L 35.26282562545984 1.983286105559362 L 36.15276210630407 1.983286105559362 L 36.17818880863732 1.220483848574051 L 35.18654575585764 1.220483848574051 L 35.18654575585764 0.0 Z"
     style="fill:#ffffff;stroke:none"
     id="path4" />
  <path
     d="M 39.12136173248291 0.0 L 39.12136173248291 8.949296465190807 L 39.86858448526124 8.949296465190807 L 39.86858448526124 0.7646002205438969 L 47.792622100215965 0.7646002205438969 L 47.792622100215965 8.14994173246469 L 44.73422206473822 8.167320205683948 L 44.71684359151896 3.1452871097125206 L 43.93486690866318 3.1452871097125206 L 43.93486690866318 8.949296465190807 L 48.55722157989925 8.949296465190807 L 48.55722157989925 0.0 Z"
     style="fill:#ffffff;stroke:none"
     id="path6" />
  <path
     d="M 45.49009502915307 11.230319303070521 L 45.434605839340776 17.389619372235057 L 42.18848823532163 17.445108562047352 L 42.16074364041548 11.258063897976669 L 45.49009502915307 11.230319303070521 ZM 46.044986927276 10.703171999853737 L 41.633596337198696 10.730916594759883 L 41.66134093210484 18.00000046017028 L 45.96175314255756 17.916766675451843 L 46.044986927276 10.703171999853737 Z"
     style="fill:#ffffff;stroke:none"
     id="path8" />
  <path
     d="M 50.55722141265869 0.21996593475341797 L 50.55722141265869 5.341589516687236 L 51.53262457783421 5.341589516687236 L 51.53262457783421 0.21996593475341797 L 50.55722141265869 0.21996593475341797 M 50.55722141265869 6.804910540096898 L 50.55722141265869 11.682791468560026 L 51.53262457783421 11.682791468560026 L 51.53262457783421 6.804910540096898 L 50.55722141265869 6.804910540096898 M 50.55722141265869 12.902153562852618 L 50.55722141265869 17.780034491315746 L 51.53262457783421 17.780034491315746 L 51.53262457783421 12.902153562852618 L 50.55722141265869 12.902153562852618 Z"
     style="fill:#ffffff;stroke:none"
     id="path10" />
  <path
     d="M 56.15558712371523 0.6343796163654517 Q 55.78400051888555 0.6343796163654517 55.78400051888555 1.0715398576205497 Q 55.78400051888555 1.4431256271248805 56.15558712371523 1.4431256271248805 Q 56.549031328911596 1.4212680267581896 56.549031328911596 1.0278238215618205 Q 56.549031328911596 0.6343796163654517 56.15558712371523 0.6343796163654517 ZM 54.71295733711621 0.9185333137523243 L 54.71295733711621 1.3119775189486933 L 53.86049540963024 1.4649840628169186 Q 54.25393961482661 1.0496814219285115 54.71295733711621 0.9185333137523243 ZM 54.756673373174934 1.4431256271248805 Q 55.25940820551299 1.836570786978789 54.93153751740985 2.033292531580396 Q 54.42880369939543 1.8584282680132875 54.18836508340975 1.574273615968875 L 54.756673373174934 1.4431256271248805 ZM 56.286735351223605 0.4376570364384973 Q 57.31406237760203 0.4376570364384973 57.92608664375985 1.2245454468312351 Q 58.53811090991767 2.011434931213705 58.581827065308595 3.6507862237499484 Q 60.17746220245392 3.97865595719555 60.70205463515866 5.093415294355815 Q 60.786989084487644 5.815354533686349 60.37687918395474 5.815354533686349 Q 60.364816608610695 5.815354533686349 60.352326346688834 5.814730187655325 Q 59.915166224765926 5.792871393966709 59.66379916659348 5.574291571669641 Q 59.57239309380225 5.494807739564106 59.525786235380835 5.494807739564106 Q 59.44422506846871 5.494807739564106 59.49986346454533 5.73822727371779 Q 59.58729577532717 6.1207423207342355 60.46161601917298 6.66719306979883 Q 61.3359376950051 7.213642864205885 60.60369435951882 7.574300072191255 Q 60.422009664490865 7.66378680599873 60.21677547727131 7.66378680599873 Q 59.594855708384785 7.66378680599873 58.75669120954351 6.842057214033746 Q 57.641931872383246 5.749155238575788 57.57635835529002 5.180847127808888 Q 57.51078388353925 4.612539017041987 58.03537727090154 4.13166273972816 Q 58.34729730216545 3.845735885293317 58.24964633707768 3.845735885293317 Q 58.18306613360874 3.845735885293317 57.92608664375985 3.97865595719555 Q 57.2922038225778 4.306526883963077 57.25941706403118 4.940408511823204 Q 57.22663030548457 5.574291571669641 57.76215189636924 6.328393223515765 Q 58.29767229393199 7.082494875361889 59.871450069375 8.240969890584305 Q 60.032325139350576 8.324904336140351 60.23572733875127 8.324904336140351 Q 60.667956654481145 8.324904336140351 61.292221539614175 7.945887154349703 Q 62.210258416179684 7.388507008440801 60.37418514037745 6.230031515889615 Q 61.05178387828604 6.055167848983468 61.07364123998834 5.639866043420408 Q 61.92610364480308 5.9240193828107035 65.86054712875307 10.929506048530046 Q 66.90973199416257 11.628962625469711 66.93158983319364 11.956833074908467 Q 66.90973199416257 12.262845685316147 66.60372033841243 12.328419202409375 Q 66.53814586666167 12.342470806737573 66.47056375010472 12.342470806737573 Q 66.222765201816 12.342470806737573 65.94797943953492 12.153555535503228 Q 64.72392995256173 12.743721962629975 63.5763848115124 12.765579801661051 Q 63.51598840225746 12.766730163996499 63.4567118062967 12.766730163996499 Q 62.38972448708516 12.766730163996499 61.685665506146165 12.393993674160143 L 61.685665506146165 12.393993674160143 Q 62.4069799221169 13.02787577934904 62.188400577148606 13.727332356288704 Q 62.08242213434123 14.066462991409306 62.027827178955604 14.066462991409306 Q 61.96982027752277 14.066462991409306 61.96982027752277 13.683616678226553 Q 61.96982027752277 12.940443468567198 60.06817300729853 12.262845685316147 L 60.06817300729853 13.093450251099807 Q 59.956217453634515 13.563663958351698 59.89013558140135 13.563663958351698 Q 59.827201215076876 13.563663958351698 59.80587559762424 13.13716592916196 Q 59.674727608780245 12.197271213565381 59.18292193462211 11.11529958960927 Q 58.691117692450284 10.033327010995619 57.620074510680936 8.120750821255848 Q 56.549031328911596 6.208174154187309 56.25394859267699 5.366640668888111 Q 55.958864663120465 4.525106706260145 55.98072297948031 3.803791812960634 Q 56.002580579847 3.0824769196611235 55.685639049923786 2.743678028035599 Q 55.36869871332249 2.404879136410074 55.49984682149868 2.011434931213705 Q 55.63099492967486 1.617989652027604 55.106401542312575 1.2682614828899643 L 55.106401542312575 0.8966757730517297 Q 55.6747108464014 0.4376570364384973 56.286735351223605 0.4376570364384973 ZM 60.439758657470676 13.02787577934904 Q 61.51080183924002 13.333888389756721 61.51080183924002 13.74919019531978 L 60.78948694594051 16.437727307923062 Q 60.70205463515866 16.918603585236887 60.19932099614253 16.918603585236887 L 59.32499932031041 16.918603585236887 L 59.32499932031041 16.874887907174735 L 60.439758657470676 13.465036378600715 L 60.439758657470676 13.02787577934904 ZM 56.365616794421534 0.0 Q 56.32647798326953 0.0 56.286735351223605 4.967951833993125E-4 Q 55.434272230415715 4.967951833993125E-4 54.55995174790552 0.6999531931247753 Q 54.05721703489966 0.8748172776935953 53.5326247215271 1.5087000988756476 Q 54.25393961482661 2.164440520424391 54.84410544529239 2.317447064292616 Q 54.909680036375356 2.623459197371527 55.25940820551299 3.1699089917785814 Q 55.28126568654749 4.612539017041987 55.65285229137717 5.563363129482873 Q 56.02443913487123 6.514186287266219 58.14466694338569 10.667210070842057 Q 59.19385133146641 12.853012112442894 59.19385133146641 13.355746228787796 Q 59.19385133146641 14.12077727747823 58.23209877683876 16.78745464173535 Q 58.23209877683876 16.940461424267962 56.92061817240566 17.027892780392268 Q 54.95339595310189 17.093468206800573 54.95339595310189 17.574344484114402 Q 54.95339595310189 17.858498300833464 55.215692169454265 17.858498300833464 L 61.02992556192619 17.858498300833464 Q 61.576375356333244 17.42133770158179 61.64194982808401 17.11532604583165 Q 62.16654178345999 17.333906345457486 62.210258416179684 17.705491518300857 Q 62.28388446962106 17.999999550696504 62.41951266629929 17.999999550696504 Q 62.44494378850181 17.999999550696504 62.47255439386767 17.98964533501992 Q 62.64741901543135 17.92407181792669 62.64741901543135 17.705491518300857 Q 62.494412232898746 17.11532604583165 61.88238796674092 16.568874342109517 L 62.58184454368059 13.618042206475785 Q 64.70207211353066 13.552468689382557 66.27584988897368 12.940443468567198 Q 66.56729060669397 13.006017940317964 66.81015739413212 13.006017940317964 Q 67.29589096900841 13.006017940317964 67.58733073207117 12.743721962629975 Q 68.02449133132284 12.350277041440451 67.41246706516502 11.519672475656792 Q 66.07912742837891 10.18633379352823 64.87693673509435 8.590698179054138 Q 62.4069799221169 5.5524337326385655 61.4889430455514 5.0715565006671985 Q 61.18293091247249 4.437674872807071 60.75670018739389 4.066088267977393 Q 60.330468984986524 3.6945023791408698 59.21570964782626 3.1480516300762758 Q 59.19385133146641 1.8584282680132875 58.614614778512745 0.9185333137523243 Q 58.04854199837527 0.0 56.365616794421534 0.0 Z"
     style="fill:#ffffff;stroke:none"
     id="path12" />
  <path
     d="M 71.51282662314232 0.0 C 70.58299941893439 0.0 69.76765966415405 0.6839976251482283 69.76765966415405 1.5619743615408133 L 69.76765966415405 17.99999905106683 L 70.90364101800192 17.99999905106683 L 70.90364101800192 1.5619743615408133 C 70.90364101800192 1.1313441510315352 71.28216544101137 0.992015871578576 71.52000452730124 0.992015871578576 C 71.76956607098822 0.992015871578576 72.1538446728136 1.166951684911138 72.1538446728136 1.694609547086237 L 72.1538446728136 12.498603637432174 L 73.28982602666147 12.498603637432174 L 73.28982602666147 1.694609547086237 C 73.28982602666147 0.8155222348293883 72.4192250652785 0.0 71.51282662314232 0.0 Z"
     style="fill:#ffffff;stroke:none"
     id="path14" />
  <path
     d="M 84.11219467357853 4.070318285557846 L 85.0606198656588 6.283306216507924 Q 84.58640702823959 6.441377162314325 84.11219515633667 6.441377162314325 Q 83.6379828016756 6.441377162314325 83.16377117115175 6.283306216507924 L 84.11219467357853 4.070318285557846 ZM 84.11219467357853 2.3315410196153437 L 82.03751767365847 6.8760704529389045 Q 83.00570046672442 7.310764709079763 84.11219467357853 7.310764709079763 Q 85.21868936319078 7.310764709079763 86.18687094936138 6.8760704529389045 L 84.11219467357853 2.3315410196153437 ZM 86.91794877199214 0.8693879691788098 Q 87.07601826952413 4.129594226442805 87.84661370791696 7.034141881503444 Q 86.8981885158367 8.101117989837348 84.11219467357853 8.101117989837348 Q 81.32620046925176 8.101117989837348 80.37777720820405 7.034141881503444 Q 81.14837143970153 4.129594226442805 81.30644117861259 0.8693879691788098 ZM 80.12091276609539 0.0 Q 79.64670062264102 0.0 79.64670062264102 0.43469449751992784 Q 79.64670062264102 0.8693879691788098 80.12091276609539 0.8693879691788098 Q 80.23946482889961 0.9681826723764146 80.4963292106635 1.086734674835867 Q 80.33825953209723 3.9715232806364043 79.40959453582764 7.567630177049466 Q 81.14837143970153 8.990264827241958 84.11219467357853 8.990264827241958 Q 87.07601826952413 8.990264827241958 88.81479481132942 7.567630177049466 Q 87.88613035816275 3.9715232806364043 87.72805989511448 1.086734674835867 Q 87.98492391480977 0.9681826723764146 88.10347579657969 0.8693879691788098 Q 88.57768911675703 0.8693879691788098 88.57768911675703 0.43469449751992784 Q 88.57768911675703 0.0 88.10347579657969 0.0 Z"
     style="fill:#ffffff;stroke:none"
     id="path16" />
  <path
     d="M 84.11219422131785 14.09980308055384 Q 87.21983774279943 14.09980308055384 90.70290006229504 15.601483100191388 Q 87.21983774279943 17.061449437291458 84.11219422131785 17.061449437291458 Q 81.02540826524222 17.061449437291458 77.52148910447787 15.601483100191388 Q 81.02540826524222 14.09980308055384 84.11219422131785 14.09980308055384 ZM 84.11219422131785 13.140397071838379 Q 80.27456825542345 13.140397071838379 75.28982591629028 15.58062625892265 Q 80.27456825542345 17.99999981163353 84.11219422131785 17.99999981163353 Q 87.94982018721225 17.99999981163353 92.93456252634542 15.58062625892265 Q 87.97067726986006 13.140397071838379 84.11219422131785 13.140397071838379 Z"
     style="fill:#ffffff;stroke:none"
     id="path18" />
  <path
     d="M 97.44275975630032 0.6955501977484014 Q 98.37016025874534 0.6955501977484014 98.37016025874534 1.9180330635489997 Q 98.37016025874534 2.992974240263269 97.44275975630032 4.046838860026191 Q 96.51535913446504 2.992974240263269 96.51535913446504 1.9180330635489997 Q 96.51535913446504 0.6955501977484014 97.44275975630032 0.6955501977484014 ZM 97.44275975630032 5.39578435076662 Q 98.09615606410944 5.39578435076662 98.09615606410944 6.807962735897713 Q 98.09615606410944 7.608898404683371 97.44275975630032 8.283371627614567 Q 96.78936440361316 7.608898404683371 96.78936440361316 6.807962735897713 Q 96.78936440361316 5.39578435076662 97.44275975630032 5.39578435076662 ZM 97.44275975630032 9.653395704940513 Q 98.09615606410944 9.653395704940513 98.09615606410944 11.065573134949643 Q 98.09615606410944 11.866509758857264 97.44275975630032 12.540984414471403 Q 96.78936440361316 11.866509758857264 96.78936440361316 11.065573134949643 Q 96.78936440361316 9.653395704940513 97.44275975630032 9.653395704940513 ZM 97.44275975630032 0.0 Q 95.75657705714306 0.0 95.75657705714306 1.9180330635489997 Q 95.73550014202098 3.119438118800675 96.31512557543937 3.8044492023416856 Q 96.89475017312604 4.489460524663187 96.83151835324757 4.721311127835424 Q 96.09381319104769 5.585479691011748 96.09381319104769 6.807962735897713 Q 96.09381319104769 7.819671853953035 96.95798187361424 8.978922004448336 Q 96.09381319104769 9.843090567624659 96.09381319104769 11.065573134949643 Q 96.09381319104769 12.077283208126927 96.95798187361424 13.215456204719654 Q 97.06336883702957 13.489460638136059 96.3678184601958 14.501170711313343 Q 95.6722682624474 15.512878874246702 94.93456315994263 17.999999271823782 L 95.8619637817779 17.999999271823782 Q 96.32566355543943 16.35597076108143 96.68397767897834 15.649882523637848 Q 97.042291683127 14.9437933310723 97.44275975630032 14.501170711313343 Q 97.86430569971769 14.9437933310723 98.21208088813457 15.649882523637848 Q 98.55985583777097 16.35597076108143 99.02355585021299 17.999999271823782 L 99.97203350656058 17.999999271823782 Q 99.27648312972681 15.512878874246702 98.54931702203919 14.501170711313343 Q 97.82215067557107 13.489460638136059 97.94861455410847 13.215456204719654 Q 98.79170620216271 12.077283208126927 98.79170620216271 11.065573134949643 Q 98.79170620216271 9.843090567624659 97.9907693394746 8.978922004448336 Q 98.79170620216271 7.819671853953035 98.79170620216271 6.807962735897713 Q 98.79170620216271 5.585479691011748 98.07507819386538 4.721311127835424 Q 98.01184625459668 4.489460524663187 98.58093275289305 3.8044492023416856 Q 99.1500192511894 3.119438118800675 99.1500192511894 1.9180330635489997 Q 99.1500192511894 0.0 97.44275975630032 0.0 Z"
     style="fill:#ffffff;stroke:none"
     id="path20" />
  <path
     d="M 122.42126370292937 0.5682163396572426 Q 122.86320985665375 0.5682163396572426 122.86320985665375 1.0312076547673097 L 122.86320985665375 4.587822828329302 L 121.51632668116991 4.587822828329302 L 121.9582728348943 0.8418024876367692 Q 121.97931754920499 0.5682163396572426 122.42126370292937 0.5682163396572426 ZM 122.44230841724006 0.0 Q 121.36901010439513 0.0 121.30587596146307 0.6103063830067376 Q 120.86392980773869 4.587822828329302 120.35884772278226 4.608866648489992 L 110.59394201807447 4.966633050821633 L 109.5837796364616 4.924543175125263 Q 108.44734583945962 3.7249752351912226 107.56345442616085 3.7249752351912226 Q 107.24777834660057 3.7039302973430375 106.91105710565462 3.682885135957353 Q 105.1222277764464 4.0196052592158145 104.76446159765226 4.0196052592158145 Q 104.51192055517404 4.0196052592158145 104.51192055517404 4.356326500161771 Q 104.51192055517404 4.819317815271838 105.22745291276233 4.819317815271838 Q 106.45616500121018 4.623436822678156 107.11229763332555 4.623436822678156 Q 107.23159154921927 4.623436822678156 107.33195809799332 4.629911809875677 Q 107.68972450032496 4.629911809875677 107.92121948726749 4.924543175125263 Q 107.51084085208414 5.4326309452939405 106.08428600595093 5.4326309452939405 Q 105.97455167120414 5.4326309452939405 105.85880440127038 5.4296243659317 Q 104.23833535722889 5.387534490235329 102.99667659156411 5.008722926518003 Q 102.38637020855737 5.008722926518003 102.38637020855737 5.724255284106288 Q 102.44950525262497 6.376651710462521 106.95314698135098 6.397696871848205 L 108.95242703026605 6.187246599216355 L 120.35884772278226 6.124110667984303 L 123.55769615870636 6.166201884905669 L 123.55769615870636 1.0312076547673097 Q 123.53665144439567 0.0 122.44230841724006 0.0 Z"
     style="fill:#ffffff;stroke:none"
     id="path22" />
  <path
     d="M 122.61895060401929 10.545085871314303 Q 122.91963372360492 10.545085871314303 122.91963372360492 10.845773098054178 Q 122.91963372360492 11.146451438405773 122.61895060401929 11.146451438405773 L 103.37522273623055 11.146451438405773 Q 103.02442165622641 11.146451438405773 103.02442165622641 10.845773098054178 Q 103.02442165622641 10.545085871314303 103.37522273623055 10.545085871314303 ZM 102.7738534353625 9.492697715759277 Q 101.97203350067139 9.492697715759277 101.97203350067139 10.845773098054178 Q 101.97203350067139 12.19884848034908 102.7738534353625 12.19884848034908 L 123.22031684319055 12.19884848034908 Q 123.97203300581418 12.19884848034908 123.97203300581418 10.845773098054178 Q 123.97203300581418 9.492697715759277 123.22031684319055 9.492697715759277 Z"
     style="fill:#ffffff;stroke:none"
     id="path24" />
  <path
     d="M 122.61895060401929 16.34623714694907 Q 122.91963372360492 16.34623714694907 122.91963372360492 16.646924373688943 Q 122.91963372360492 16.94760271404054 122.61895060401929 16.94760271404054 L 103.37522273623055 16.94760271404054 Q 103.02442165622641 16.94760271404054 103.02442165622641 16.646924373688943 Q 103.02442165622641 16.34623714694907 103.37522273623055 16.34623714694907 ZM 102.7738534353625 15.293848991394043 Q 101.97203350067139 15.293848991394043 101.97203350067139 16.646924373688943 Q 101.97203350067139 17.999999755983843 102.7738534353625 17.999999755983843 L 123.22031684319055 17.999999755983843 Q 123.97203300581418 17.999999755983843 123.97203300581418 16.646924373688943 Q 123.97203300581418 15.293848991394043 123.22031684319055 15.293848991394043 Z"
     style="fill:#ffffff;stroke:none"
     id="path26" />
</svg>
