<?xml version="1.0" encoding="UTF-8" standalone="no"?>
<svg
   width="81.72116088867188"
   height="18.0"
   version="1.1"
   id="svg30"
   sodipodi:docname="nerikare.svg"
   inkscape:version="1.1.1 (3bf5ae0d25, 2021-09-20)"
   xmlns:inkscape="http://www.inkscape.org/namespaces/inkscape"
   xmlns:sodipodi="http://sodipodi.sourceforge.net/DTD/sodipodi-0.dtd"
   xmlns="http://www.w3.org/2000/svg"
   xmlns:svg="http://www.w3.org/2000/svg">
  <defs
     id="defs34" />
  <sodipodi:namedview
     id="namedview32"
     pagecolor="#ffffff"
     bordercolor="#666666"
     borderopacity="1.0"
     inkscape:pageshadow="2"
     inkscape:pageopacity="0.0"
     inkscape:pagecheckerboard="0"
     showgrid="false"
     inkscape:zoom="16.825507"
     inkscape:cx="40.86058"
     inkscape:cy="9.0041861"
     inkscape:window-width="1920"
     inkscape:window-height="1001"
     inkscape:window-x="-9"
     inkscape:window-y="-9"
     inkscape:window-maximized="1"
     inkscape:current-layer="svg30" />
  <path
     d="M 1.2190420140847793 0.0 C 0.970800706632417 0.0 0.7230423028937335 0.01893070358296025 0.48290982680079 0.048905678499779795 C 0.15187998957905166 0.13255188916498697 0.3219916247400915 0.5118521231009919 0.6158947927962716 0.5118521231009919 C 0.6355981423211179 0.5118521231009919 0.6558578408244597 0.5101473851910305 0.6765601864318946 0.5065345630073116 C 1.2976180869590601 0.5780119512905144 2.0622053316712337 0.6175539511807123 2.531371224901928 0.9695623988344474 C 3.1537543888207784 1.6479367557428735 2.8741262715941502 3.0576933712068692 2.94658764204448 3.7269297850416896 C 2.951782632395561 3.7629649381631523 2.953952713884158 6.430591781037886 2.953952713884158 7.782422252231933 C 2.352510186605274 7.494257626556917 1.67335422808609 7.349215125535265 1.0039192969246102 7.349215125535265 C 0.7063920462481148 7.349215125535265 0.41078504023889434 7.377865539465801 0.12477432975315178 7.4353349446232855 C -0.20149863151174055 7.606724672263251 0.18154647682350566 7.8266562324049085 0.4376378670454302 7.8266562324049085 C 0.4681373192956425 7.8266562324049085 0.4968360674978842 7.823536850015894 0.5223214865886322 7.816844331348357 C 1.429843884416301 7.914926816832979 2.4617098179841825 8.158078494744517 2.9226503683594482 9.002292523011262 C 2.9681809889039896 9.155077638776014 2.9396896697969415 9.207577525716367 2.870237404087557 9.207577525716367 C 2.717627362869183 9.207577525716367 2.3672466519332462 8.954092059534803 2.1698535251191053 8.954092059534803 C 2.1594948014573196 8.954092059534803 2.1495575210365625 8.954790250504107 2.140092081444407 8.956259682604495 C 1.7610785167129768 8.874396440250864 1.3638924072290621 8.831466124503471 0.9703996331480379 8.831466124503471 C 0.6822712691518855 8.831466124503471 0.39612316158451694 8.854483949517657 0.1205398348885778 8.90208807080806 C -0.19080937123302597 9.107627344268586 0.19133570335568265 9.296978982841198 0.44461121617263977 9.296978982841198 C 0.47243301123084086 9.296978982841198 0.4986997685303211 9.294694058069421 0.5223214865886322 9.289895224364907 C 1.44862453664532 9.401605077048192 2.473672484380784 9.652726246647584 2.9226503683594482 10.498359836231193 C 2.9277747669676573 11.438445880183364 2.9223641381582497 12.059730482053933 2.9475081443234266 12.924290385186742 C 2.9366830234749024 13.190445840004433 3.1097205941872907 13.32271720601211 3.2850258807391146 13.32271720601211 C 3.4589948410141766 13.32271720601211 3.635197450466691 13.192454719453337 3.636159394664339 12.93350313443563 C 3.6297524037925992 12.081649745019838 3.5689455193688686 11.333930766029841 3.680643079957625 10.507654766912083 C 3.905950499841305 9.580679119782916 5.51430012614692 9.438421656179063 6.5132119200872856 9.209440304841713 C 6.73117182826633 8.953197897458422 6.302254993763335 8.858046549715155 6.0257896324592775 8.858046549715155 C 5.984500135730289 8.858046549715155 5.946610983551 8.860169218839136 5.914784994799312 8.86419400179096 C 5.786745621336966 8.854375779085794 5.657882677541108 8.84931073373403 5.528823762638173 8.84931073373403 C 4.87588245171773 8.84931073373403 4.21792069818853 8.978947377079876 3.636159394664339 9.278489565451865 C 3.6124626948293947 8.719755569414783 4.162693019870619 8.398265319455419 4.5568162027996815 8.173701395689454 C 5.178845705598769 7.90617273831141 5.863655500797704 7.879904181098088 6.5132119200872856 7.736389411825166 C 6.745102634598536 7.535056141910107 6.380132787867637 7.365650007124583 6.127413645979344 7.365650007124583 C 6.0940901289112 7.365650007124583 6.06271789404902 7.368595192973972 6.034923712303174 7.3748016471035225 C 5.875700348626306 7.359480780481324 5.715556482670491 7.35166300836024 5.555429474444318 7.35166300836024 C 4.887519202007935 7.35166300836024 4.219896213380853 7.487670468699637 3.6205083975033348 7.782422252231933 C 3.6327889023442115 5.672151988401518 3.6669749732456607 3.6298724602408705 3.6064121746990256 1.633623314068084 C 3.557780785508615 1.016382811297887 3.202148013782708 0.4498605441665941 2.6039100355477967 0.2652764822581205 C 2.1742288083663857 0.06980961445750675 1.6957449806778964 0.0 1.2190420140847793 0.0 Z"
     style="fill:#ffffff;stroke:none"
     id="path2" />
  <path
     d="M 3.29314921521244 15.21501288860129 C 4.074491287174412 15.21501288860129 5.052497037940845 15.616391919330065 5.5257419749406465 16.089636856329868 C 5.939782214238027 16.503676744424546 5.993910276899555 17.05261639954012 6.009086799211701 17.562687749346416 L 0.6002280514165623 17.562687749346416 C 0.615404749330059 17.05261639954012 0.6695328119915868 16.503676744424546 1.0835728756876173 16.089636856329868 C 1.5568179882887687 15.616391919330065 2.5118074944531683 15.21501288860129 3.29314921521244 15.21501288860129 ZM 3.29314921521244 14.777700904737003 C 2.3662267752924526 14.777700904737003 1.3688759017560481 15.205906904973462 0.7843594130436309 15.79042339368588 C 0.1848327417701466 16.38995028583294 0.11688322714550736 17.179222163577567 0.11688322714550736 17.769835531176867 L 0.11688322714550736 17.999999733210704 L 6.469415203279373 17.999999733210704 L 6.469415203279373 17.769835531176867 C 6.469415203279373 17.179222163577567 6.42448232973169 16.38995028583294 5.824955437584633 15.79042339368588 C 5.240439300074916 15.205906904973462 4.220071830733778 14.777700904737003 3.29314921521244 14.777700904737003 Z"
     style="fill:#ffffff;stroke:none"
     id="path4" />
  <path
     d="M 19.59558827849137 2.2331113889984504 Q 20.011497239301697 2.2331113889984504 20.406868373464476 2.6849636002931274 Q 17.14505908393548 6.568070899826414 16.329606932707488 7.024335296803508 Q 15.721254175199014 7.364724151693918 15.258781670883675 7.364724151693918 Q 15.101344397401952 7.364724151693918 14.960813057159163 7.325276517725049 Q 14.407469963604743 7.169951972435412 13.776464255096982 7.150536917736989 Q 13.760688966903167 7.150051524254103 13.744834947749503 7.150051524254103 Q 13.12652956999073 7.150051524254103 12.38825395561615 7.88832679632016 L 12.291175943655867 7.88832679632016 Q 12.815395428237089 6.665148911786697 13.75704954270708 6.140928742588433 Q 14.698701945634467 5.6167096003157315 19.2807685008913 2.2966530928403377 Q 19.439622247033235 2.2331113889984504 19.59558827849137 2.2331113889984504 ZM 13.822576293662692 0.46382689862325743 Q 13.87160069312572 0.46382689862325743 13.922081273037408 0.4715931515608784 L 13.922081273037408 5.461385397334616 Q 12.38825395561615 6.354500505824466 11.805788280014095 7.965988384347936 Q 12.698902703886905 1.79184917642032 13.058089773520756 1.0928900062739073 Q 13.381357725420997 0.46382689862325743 13.822576293662692 0.46382689862325743 ZM 9.823471846940608 8.280349468529765 Q 9.763159224955167 8.280349468529765 9.708909828226425 8.383422671928184 Q 9.611832586460313 8.567870141573977 9.883650198408658 8.897933602234632 Q 10.038974144658383 8.4902085535462 9.922481420308197 8.344591877914295 Q 9.871087133376625 8.280349468529765 9.823471846940608 8.280349468529765 ZM 9.850515161454094 8.003054920244196 Q 9.964842185368557 8.003054920244196 10.097221020296256 8.179560147583969 Q 10.388454200405805 8.567870141573977 9.922481420308197 9.732803546629212 Q 9.398261764572714 8.723195371480656 9.602124802379711 8.257221735611745 Q 9.713322784103013 8.003054920244196 9.850515161454094 8.003054920244196 ZM 14.931688078951879 9.926958201315696 L 14.931688078951879 10.218190867962463 Q 14.718118369566973 10.198775813264039 14.601625302908268 10.082282061988291 Q 14.640456096922156 10.024035528658937 14.756948478963821 9.926958201315696 ZM 15.378245975505326 10.587085807254049 L 17.183890562566404 10.839488364503968 L 17.552786186475032 11.499616655059363 Q 16.931489374550573 11.32487637045426 16.183991626309666 11.033644388424536 Q 15.43649319345172 10.742411037160727 15.378245975505326 10.587085807254049 ZM 11.39806151978306 10.315268879922746 L 11.747541404376221 10.490008479910806 L 11.864034128726408 11.32487637045426 L 11.553386065072697 12.276239381507548 L 11.067997716813883 12.276239381507548 L 11.39806151978306 11.32487637045426 L 11.39806151978306 10.315268879922746 ZM 12.232929752635034 10.606502231186555 L 12.562994240221252 10.703579558529796 L 12.679486964571439 11.32487637045426 L 12.368838216300684 12.276239381507548 L 11.883450552658914 12.276239381507548 L 12.21351435562809 11.32487637045426 L 12.232929752635034 10.606502231186555 ZM 13.37844604914072 10.72299461322822 L 13.494939115799427 11.32487637045426 L 13.184290367528675 12.276239381507548 L 12.698902703886905 12.276239381507548 L 13.028966164547558 11.32487637045426 L 13.028966164547558 10.742411037160727 L 13.37844604914072 10.72299461322822 ZM 12.635970993829574 8.307902566008263 Q 12.94616549869286 8.307902566008263 13.300783776495901 8.383422671928184 Q 14.349222745658347 8.606700935587865 14.621040357606692 9.441570195365404 L 15.43649319345172 9.441570195365404 L 15.747140914796912 8.936765765482605 Q 19.863233149567787 9.888126722684765 20.387455372617175 12.373316708850789 Q 19.261352076958786 11.752018527692242 18.018759137726903 11.538448133690293 L 17.475123229213175 10.451177001279875 L 15.319998757558931 10.159943650016068 L 15.378245975505326 9.635724850051886 L 14.640456096922156 9.635724850051886 Q 13.825002918768604 10.30727392210448 12.976631641685719 10.30727392210448 Q 12.794837747695311 10.30727392210448 12.611532561584353 10.276437401291815 Q 11.572801804388162 10.101698485920798 11.252445186459676 9.567771131681843 Q 10.93208856853119 9.033843092825846 11.592216516778063 8.596994435164216 Q 12.029066885982298 8.307902566008263 12.635970993829574 8.307902566008263 ZM 14.014203342229544 0.0 Q 13.306659502260182 0.0 12.902764885922597 0.4910087625106481 Q 12.407668668006053 1.0928900062739073 11.980527880002157 3.655740467965014 L 11.300984192439817 8.101897190322108 Q 10.97091987600786 8.451378444149354 10.7961802760198 8.4902085535462 L 10.563193800393865 8.4902085535462 Q 10.543778232232661 8.004819862978866 10.194298176485239 7.597094129673393 Q 9.883650198408658 4.626517849099683 10.466115788433582 2.3937311048006213 L 10.233129483961907 1.9471738928642175 Q 9.398261764572714 4.471192276884482 9.825403408347913 7.616509184371816 L 9.767156618287169 7.616509184371816 Q 8.427485014569381 4.607101425167175 9.378846196411509 1.9471738928642175 L 9.145859806362706 1.5976940082710553 L 9.145859806362706 1.5976940082710553 Q 7.90326545510817 4.4323618251791155 9.41767741831105 7.752417990345988 Q 8.99053577453585 8.684363892849726 9.330307190431368 9.286245650075767 Q 9.670079376521057 9.888126722684765 9.747741050125965 10.412346207265987 L 9.883650198408658 10.509424219226272 Q 10.407869083949969 9.732803546629212 10.485531356594787 9.16975258341706 L 10.679686695898312 9.16975258341706 Q 10.699102264059515 9.616309110736422 10.93208856853119 10.101698485920798 L 11.067997716813883 11.32487637045426 L 10.737933400381925 12.276239381507548 L 9.048781837190987 12.276239381507548 L 9.048781837190987 12.742211648142375 L 13.922081273037408 12.742211648142375 L 13.922081273037408 12.276239381507548 L 13.51435451280637 12.276239381507548 L 13.825003261077125 11.32487637045426 L 13.84441900039259 10.606502231186555 Q 14.19389820036871 10.490008479910806 14.368638484973811 10.33468393462117 Q 14.621040357606692 10.567671437172667 14.931688078951879 10.567671437172667 Q 14.912273708870499 10.76182609185915 15.009351720830782 10.89773421321628 Q 15.785971708810798 11.499616655059363 17.78577231979245 11.946173182378724 L 18.465315665046262 13.266429763489512 Q 18.465315665046262 12.942390932799807 18.666445882775246 12.942390932799807 Q 18.73044046079052 12.942390932799807 18.81479623425647 12.97519504299162 L 18.27116032574274 12.00442040032512 L 18.27116032574274 12.00442040032512 Q 19.39726088293296 12.256823642192083 19.97972758546058 12.645134320799134 Q 20.290376676039852 12.97519504299162 19.94089679144669 13.44116867886053 Q 20.71751746404375 13.11110658743396 20.814596160621075 12.509224145590878 Q 20.503945700807716 9.577479001339576 15.552985575493386 8.431961335599805 L 15.203506375517266 9.014428722744466 L 14.892857284937993 9.014428722744466 Q 14.640456096922156 8.198975202282393 12.893057700881908 7.88832679632016 Q 13.283009064230479 7.599008318923254 13.852256838599681 7.599008318923254 Q 14.161630487629424 7.599008318923254 14.523962345646407 7.684463587358902 Q 14.891470935427632 7.771140212597752 15.241644337084495 7.771140212597752 Q 15.87195550160299 7.771140212597752 16.446100683983236 7.490308248055377 Q 17.339214423239 7.053458905776705 20.989335075992095 2.665548716748965 Q 20.31660024722249 1.8173165880798985 19.56675152405883 1.8173165880798985 Q 19.321111613951302 1.8173165880798985 19.067196737655266 1.9083427565418083 L 14.349222745658347 5.286645797346556 L 14.349222745658347 0.025035944973045218 Q 14.173971736739798 0.0 14.014203342229544 0.0 Z"
     style="fill:#ffffff;stroke:none"
     id="path6" />
  <path
     d="M 14.787816725437374 15.285542133461169 C 15.549371373096287 15.285542133461169 16.502609207919512 15.676756272943992 16.963869255453197 16.13801632047768 C 17.367423959429352 16.541570682145313 17.42018123331472 17.07660848522664 17.434973411436005 17.573762319663377 L 12.163093570676018 17.573762319663377 C 12.177885919951562 17.07660848522664 12.230643193836931 16.541570682145313 12.634197726658826 16.13801632047768 C 13.095457945346773 15.676756272943992 14.02626242008698 15.285542133461169 14.787816725437374 15.285542133461169 ZM 14.787816725437374 14.859305039952915 C 13.884368520776045 14.859305039952915 12.912275476840618 15.276666758126694 12.34256182057423 15.846380414393082 C 11.758218113396996 16.430724336850286 11.69198941469321 17.200007968606588 11.69198941469321 17.775664100798863 L 11.69198941469321 17.99999941317163 L 17.883644036181536 17.99999941317163 L 17.883644036181536 17.775664100798863 C 17.883644036181536 17.200007968606588 17.839849083994995 16.430724336850286 17.25550516153779 15.846380414393082 C 16.685791847579925 15.276666758126694 15.691265101252963 14.859305039952915 14.787816725437374 14.859305039952915 Z"
     style="fill:#ffffff;stroke:none"
     id="path8" />
  <path
     d="M 37.38603436883218 4.629696988831469 C 36.87513891282361 4.670030345159319 36.59280215991122 4.925477892129301 36.53902392906072 5.39603908663851 C 36.606246853399576 5.906934904715683 36.88858360631196 6.175827326208321 37.38603436883218 6.202716713185026 C 37.883485131352394 6.175827326208321 38.14565502506655 5.906934904715683 38.17254368790605 5.39603908663851 C 38.1322103315782 4.925477892129301 37.87004043786404 4.670030345159319 37.38603436883218 4.629696988831469 ZM 37.446534584358254 2.9356750230827373 C 37.809539498200756 2.9356750230827373 38.14565538713516 3.0028982189730478 38.45488152702425 3.1373446107536687 C 38.764107304844735 3.2717910025342896 39.036360447123705 3.4566544517933266 39.27164095386116 3.691935139565082 C 39.506921822667216 3.9272158273368376 39.691785362443404 4.196108067795173 39.82623157318972 4.498611498871483 C 39.96067742186744 4.801115110982096 40.02790016517199 5.1204246804703 40.02790016517199 5.456540388370399 C 40.02790016517199 5.806100246655944 39.96067742186744 6.132132162888325 39.82623157318972 6.4346361370675424 C 39.691785362443404 6.737139749178155 39.506921822667216 7.002671087815855 39.27164095386116 7.2312294288434344 C 39.036360447123705 7.4597877698710136 38.764107304844735 7.637928781868723 38.45488152702425 7.765653188973772 C 38.14565538713516 7.893376871941612 37.809539498200756 7.95723853239123 37.446534584358254 7.95723853239123 C 37.08353021361866 7.95723853239123 36.74405396596653 7.893376871941612 36.428105660367564 7.765653188973772 C 36.11215681166569 7.637928781868723 35.83990330731812 7.4597877698710136 35.61134523784199 7.2312294288434344 C 35.382786534745804 7.002671087815855 35.20128434937601 6.737139749178155 35.06683859121544 6.4346361370675424 C 34.932392244693396 6.132132162888325 34.86516904880309 5.806100246655944 34.86516904880309 5.456540388370399 C 34.86516904880309 5.1204246804703 34.932392244693396 4.801115110982096 35.06683859121544 4.498611498871483 C 35.20128434937601 4.196108067795173 35.382786534745804 3.9272158273368376 35.61134523784199 3.691935139565082 C 35.83990330731812 3.4566544517933266 36.11215681166569 3.2717910025342896 36.428105660367564 3.1373446107536687 C 36.74405396596653 3.0028982189730478 37.08353021361866 2.9356750230827373 37.446534584358254 2.9356750230827373 ZM 37.40620159009901 2.25 C 36.962528877394995 2.25 36.54574573270199 2.334028904345737 36.155851793951385 2.502086713037211 C 35.765958036235084 2.6701445443579725 35.42984269040359 2.8987028853855517 35.14750584697405 3.187761758749236 C 34.86516904880309 3.4768212204744025 34.639971745371874 3.812936475788746 34.471913936680394 4.196107705726568 C 34.30385672766505 4.5792794787672975 34.2198281288147 4.992701359571065 34.2198281288147 5.436373167103568 C 34.2198281288147 5.8800451556703734 34.30385672766505 6.293467036474141 34.471913936680394 6.67663880951487 C 34.639971745371874 7.059810582555599 34.86516904880309 7.392565026566459 35.14750584697405 7.674901779478844 C 35.42984269040359 7.95723853239123 35.765958036235084 8.182436152632476 36.155851793951385 8.350493916065375 C 36.54574573270199 8.518550955361064 36.962528877394995 8.602579837077514 37.40620159009901 8.602579837077514 C 37.849873578665814 8.602579837077514 38.26329509740098 8.518550955361064 38.6464661463045 8.350493916065375 C 39.02963791934523 8.182436152632476 39.36575344621102 7.95723853239123 39.65481308897049 7.674901779478844 C 39.94387200759275 7.392565026566459 40.17243034862033 7.059810582555599 40.340487749984625 6.67663880951487 C 40.50854623755473 6.293467036474141 40.59257511927118 5.8800451556703734 40.59257511927118 5.436373167103568 C 40.59257511927118 4.992701359571065 40.50854623755473 4.5792794787672975 40.340487749984625 4.196107705726568 C 40.17243034862033 3.812936475788746 39.94387200759275 3.4768212204744025 39.65481308897049 3.187761758749236 C 39.36575344621102 2.8987028853855517 39.02963791934523 2.6701445443579725 38.6464661463045 2.502086713037211 C 38.26329509740098 2.334028904345737 37.849873578665814 2.25 37.40620159009901 2.25 Z"
     style="fill:#ffffff;stroke:none"
     id="path10" />
  <path
     d="M 31.81813358515501 12.546648502349854 L 31.533391248434782 13.163590231910348 L 30.63170718215406 15.180515117011964 L 30.489336013793945 15.465257453732193 L 31.08254921529442 15.74999979045242 L 31.224920383654535 15.441528925672174 L 31.84186211321503 14.041545770131052 L 32.15033297799528 14.587301915511489 L 32.435075314715505 15.156786588951945 L 32.71981765143573 14.587301915511489 L 33.052017044276 13.994088714011014 L 33.360487909056246 14.587301915511489 L 33.645230245776474 15.156786588951945 L 33.9299725824967 14.587301915511489 L 34.23844344727695 13.994088714011014 L 34.570642840117216 14.587301915511489 L 34.855385176837444 15.156786588951945 L 35.14012751355767 14.587301915511489 L 35.44859837833792 14.017817242071033 L 35.75706924311817 14.587301915511489 L 36.065540107898414 15.156786588951945 L 36.35028244461864 14.587301915511489 L 36.65875330939889 13.994088714011014 L 36.96722417417914 14.587301915511489 L 37.275695038959384 15.156786588951945 L 37.56043737567961 14.587301915511489 L 37.86890824045986 13.994088714011014 L 38.17737910524011 14.587301915511489 L 38.485849970020354 15.156786588951945 L 38.77059230674058 14.587301915511489 L 39.07906317152083 13.994088714011014 L 39.387534036301076 14.587301915511489 L 39.672276373021305 15.156786588951945 L 39.98074723780155 14.587301915511489 L 40.2892181025818 13.994088714011014 L 40.597688967362046 14.587301915511489 L 40.882431304082274 15.156786588951945 L 41.19090216886252 14.587301915511489 L 41.49937303364277 13.994088714011014 L 41.831572426483035 14.611030443571508 L 42.11631476320326 15.133058060891926 L 42.42478562798351 14.611030443571508 L 42.75698502082378 13.970360185950994 L 43.58748350292444 15.465257453732193 L 43.753583199344575 15.74999979045242 L 44.32306787278503 15.441528925672174 L 44.18069670442492 15.156786588951945 L 43.041727357544005 13.11613317579031 L 42.75698502082378 12.61783408652991 L 42.47224268410355 13.139861703850329 L 42.11631476320326 13.756803433410823 L 41.784115370363 13.139861703850329 L 41.47564450558275 12.594105558469892 L 41.21463069692254 13.139861703850329 L 40.882431304082274 13.733074905350804 L 40.57396043930203 13.139861703850329 L 40.2892181025818 12.570377030409873 L 40.00447576586157 13.139861703850329 L 39.696004901081324 13.733074905350804 L 39.36380550824106 13.139861703850329 L 39.07906317152083 12.570377030409873 L 38.7943208348006 13.139861703850329 L 38.462121441960335 13.733074905350804 L 38.15365057718009 13.139861703850329 L 37.86890824045986 12.570377030409873 L 37.58416590373963 13.139861703850329 L 37.275695038959384 13.733074905350804 L 36.94349564611912 13.139861703850329 L 36.65875330939889 12.570377030409873 L 36.37401097267866 13.139861703850329 L 36.065540107898414 13.709346377290785 L 35.75706924311817 13.139861703850329 L 35.44859837833792 12.570377030409873 L 35.16385604161769 13.139861703850329 L 34.855385176837444 13.733074905350804 L 34.5469143120572 13.139861703850329 L 34.23844344727695 12.570377030409873 L 33.95370111055672 13.139861703850329 L 33.645230245776474 13.733074905350804 L 33.33675938099623 13.139861703850329 L 33.052017044276 12.570377030409873 L 32.74354617949575 13.139861703850329 L 32.435075314715505 13.733074905350804 L 32.12660444993526 13.139861703850329 L 31.81813358515501 12.546648502349854 Z"
     style="fill:#ffffff;stroke:none"
     id="path12" />
  <path
     d="M 48.34392105107723 2.707957172560241 Q 48.1414071227776 2.707957172560241 47.95942495650336 2.974863946933156 Q 48.074129257989476 3.161257854983549 48.30353714482073 3.218610005726608 Q 48.340940114229284 3.2285840592881234 48.376174966807284 3.2285840592881234 Q 48.543541411729024 3.2285840592881234 48.661985938541896 3.003540335616367 Q 48.64764772182089 2.745456865760511 48.41824073016586 2.7167803875596777 Q 48.38074161883014 2.707957172560241 48.34392105107723 2.707957172560241 ZM 47.04179519953081 3.017877836196393 Q 46.99878126550876 3.146919638262538 47.08480913355286 3.2616239397486564 L 46.32489600077126 3.333313501554119 Q 46.32489600077126 3.161257854983549 47.04179519953081 3.017877836196393 ZM 51.22869484569897 4.667166905206991 Q 51.2752930653484 4.667166905206991 51.357525386174686 4.73843474949021 Q 52.805660926203316 5.942824365001826 54.95635691116475 7.5558470698638835 Q 57.107052896126184 9.168869058584958 57.36513650025847 9.81407771084519 Q 55.615903422075505 9.570331965363419 54.36849969350659 8.444801109535396 Q 53.12109596493768 7.31926989563688 52.20346584989464 6.251091190551915 Q 51.285835018710614 5.182912127396459 51.171131791435975 4.8531390509763295 Q 51.15342019260751 4.667166905206991 51.22869484569897 4.667166905206991 ZM 51.27741570722643 3.822267710478487 Q 51.5374815896038 3.822267710478487 51.773326509674156 3.921170182106539 Q 57.35079864160795 8.150872500706317 58.15372445516488 9.41261480406673 Q 58.91363740891123 10.80339783528181 59.143044579601494 11.534635071727124 Q 59.04984885644362 11.635598060002806 58.91879075943564 11.635598060002806 Q 58.80789489570505 11.635598060002806 58.66989166342945 11.563310789028161 L 57.92431728447461 10.072161314977482 Q 57.36513650025847 8.810419727758052 55.20727122790129 7.261918461034805 Q 53.0494059555441 5.713417552382049 52.081592977153754 4.810125116954281 Q 51.51175887965231 4.278279971221951 51.21033263278609 4.278279971221951 Q 50.999812964420826 4.278279971221951 50.92021711662894 4.537703296100981 Q 50.78503010877487 4.978311543303263 50.436532989209454 4.978311543303263 Q 50.2860459872922 4.978311543303263 50.095783440884766 4.896152984998378 Q 50.267839176972956 4.064550200893695 50.79834460195855 3.8996635731660065 Q 51.04735720631077 3.822267710478487 51.27741570722643 3.822267710478487 ZM 51.74465007623213 10.129513465720539 L 51.74465007623213 10.129513465720539 Q 52.604928756673104 11.505958638285101 52.447211595376416 12.911080244291686 Q 52.27515585928822 12.911080244291686 52.131775840501064 13.140488131122938 Q 52.0726319050148 12.750136151718873 51.77927656704381 12.750136151718873 Q 51.717049644619316 12.750136151718873 51.644284707608016 12.76770022550453 Q 52.01707225515593 11.37691719428945 51.74465007623213 10.129513465720539 ZM 48.5411179906375 2.5814035128270914 Q 48.63030923244535 2.5814035128270914 48.69783076420344 2.5949077609922555 Q 49.02043544840405 2.6594289977164145 49.07778688300613 2.831484689045796 Q 49.11711412324001 2.9494654250535897 49.15307012978939 2.9494654250535897 Q 49.16955032419502 2.9494654250535897 49.18532225516698 2.9246809045506024 Q 49.23550511851429 2.8458221448670113 49.26418083581533 2.759794321581726 Q 49.65130624201377 3.27596135081106 49.30719476983738 4.301126300909222 Q 48.963083297660994 5.326292146183615 50.3968809790391 5.527023599572845 Q 51.73031257565211 8.5810118409268 53.25730669632909 10.165358470417328 Q 54.78430117507656 11.749704383766874 54.52621757094427 13.140488131122938 Q 53.939663729877886 12.71816905045311 53.25712766108296 12.71816905045311 Q 53.10545401355441 12.71816905045311 52.9490395127085 12.739024508203492 Q 52.992054520942034 11.462945062333546 52.32533872263553 10.229879192415154 Q 51.65862220818804 8.996813322496765 51.106610353297164 8.373111100141818 Q 50.554598498406286 7.749409951998348 49.622630524712726 6.896299842812148 Q 48.69066165584294 6.043190449766933 48.69066165584294 5.13989819337441 Q 48.69066165584294 4.236605936981888 48.94157686775571 3.8781562480844904 Q 49.19249118449224 3.5197074543633233 49.17098403844597 3.3046377842530816 Q 49.162145784485865 3.216252917193775 49.13030293368091 3.216252917193775 Q 49.08466147838676 3.216252917193775 48.99175901496203 3.3978340445166992 Q 48.834041495594846 3.70610060151392 48.05979104126847 3.720438818234931 Q 48.02107789192879 3.7211557648780307 47.98200631402637 3.7211557648780307 Q 47.23965823972428 3.7211557648780307 46.36790993479331 3.462355303620264 L 46.36790993479331 3.462355303620264 L 47.41458220997299 3.5197074543633233 Q 47.941994801081805 3.6299128686672386 48.197134886732584 3.6299128686672386 Q 48.406714261985215 3.6299128686672386 48.43257894688688 3.555552280024866 Q 48.48993038148895 3.3906656522971783 48.33221286212177 3.3619892188551566 Q 48.206038846628026 3.339048716628425 48.070689095735226 3.339048716628425 Q 48.036850718076984 3.339048716628425 48.00243889052541 3.3404826099146243 Q 47.83038333347246 3.34765171827513 47.75869368214938 3.3906656522971783 L 47.773031898870386 3.4480170868992532 Q 47.83038279636672 3.4448310651768703 47.88171560309988 3.4448310651768703 Q 48.06138391785323 3.4448310651768703 48.16732623439408 3.483861912560796 Q 48.20264022055087 3.496872314378935 48.16808319541469 3.496872314378935 Q 48.06934919595324 3.496872314378935 47.400243993251976 3.3906656522971783 Q 47.17083700159696 3.017877836196393 47.32855434192889 2.8601604063468336 Q 47.37156827595094 2.817146472324785 47.47193436071605 2.8028082556037743 L 47.47193436071605 2.8028082556037743 Q 47.428920426694 2.9892021636541672 47.522117403098605 3.075229986939452 Q 47.55600698483723 3.1065128154945336 47.59084455820409 3.1065128154945336 Q 47.65181035635489 3.1065128154945336 47.71567974812733 3.0107087278358877 Q 47.816045832892435 2.8601604063468336 47.55796222876015 2.774132538302737 Q 48.204172046116696 2.5814035128270914 48.5411179906375 2.5814035128270914 ZM 50.927386404024695 5.25460249486053 Q 52.30383157658926 7.046848790924563 53.47237672450982 8.193886434728366 Q 54.6409211562894 9.340924794673152 55.68042414407333 9.749556988847363 Q 56.719927847998235 10.158189183021577 57.58020581229822 10.172527041672096 Q 57.69491011378434 10.301569201808734 59.730901797259655 14.703327614567197 L 59.601860353264 14.760679049169271 L 54.78430117507656 11.678014374373294 Q 54.81297689237759 11.405592911590487 53.3576724230237 9.749556988847363 Q 51.90236795366981 8.093521424174735 50.78400638523754 5.3693060802056625 L 50.927386404024695 5.25460249486053 ZM 55.85964916755727 12.954094536384225 L 58.52651307692427 14.602961887872581 Q 58.62687880361889 14.861044775863887 57.888472995918804 14.939903356512232 Q 57.74079183437879 14.955675645554688 57.61490427527884 14.955675645554688 Q 57.11135475502003 14.955675645554688 56.956504306084256 14.703327614567197 Q 56.7629414239498 14.387891859691848 56.46184424386595 13.893231797473538 Q 56.16074634764112 13.398571735255228 55.85964916755727 12.954094536384225 ZM 51.70163614221009 13.240853857817553 L 51.98839582171391 13.785696783383171 Q 52.23214156719568 13.527612463109897 52.368352298587084 13.48459888715834 Q 52.372033979388355 13.48343659034051 52.375238710293964 13.48343659034051 Q 52.49061260360058 13.48343659034051 51.98839582171391 14.99008621985954 L 51.21414536738753 15.233831965341311 Q 51.02775177264882 15.076114804044622 51.33601824012842 14.33770899634454 Q 51.644284707608016 13.599303188644459 51.70163614221009 13.240853857817553 ZM 48.825456397472756 2.25 Q 48.73367576890023 2.25 48.63331022124086 2.2579654950862746 Q 48.33221286212177 2.2579654950862746 46.99878126550876 2.673766498296441 Q 45.90909502833278 2.9318500129111076 45.82306718826294 3.333313501554119 L 45.86608110829786 3.9355083988275497 L 46.39658636823533 3.7491145355359685 Q 47.28554049742447 4.035874483592657 47.873397088459264 4.035874483592657 Q 48.46125466418791 4.035874483592657 48.31787464540076 4.437337211335873 Q 48.1744946266136 4.838800834255318 48.3537194710623 5.770768628913633 Q 48.532944136475756 6.702737676818669 49.76601054349988 7.670550297138526 Q 50.99907605534778 8.63836399166986 51.30017323543163 10.186864900322615 Q 51.601270773585966 11.735366525116355 50.78400638523754 13.757021066082133 L 51.04208998936983 13.599303188644459 Q 51.047509028199485 13.595690257377695 51.05116456985482 13.595690257377695 Q 51.10553829024338 13.595690257377695 50.76966816851653 14.395060430946614 Q 50.41121847961913 15.248170540132813 49.801855190126176 15.269677686179085 Q 49.71045519048691 15.272903185173238 49.62760340770904 15.272903185173238 Q 49.158081684398866 15.272903185173238 48.963083297660994 15.1693105272025 Q 48.74641985578976 15.054209483610972 48.350708635328246 15.054209483610972 Q 48.327432621050285 15.054209483610972 48.30353714482073 15.05460765799835 Q 47.873397088459264 15.061776229253118 47.859059766914484 15.348536266827429 L 47.859059766914484 15.735660598814388 Q 47.99219789541193 15.530832818993861 48.10339042054534 15.530832818993861 Q 48.14786725156346 15.530832818993861 48.188832843334616 15.563604862726194 Q 48.188832843334616 15.749999173605891 49.83770019482297 15.749999173605891 L 54.296809684113015 15.749999173605891 Q 54.48320399499271 15.599450583563968 54.694689021405075 15.599450583563968 Q 54.906174047817444 15.599450583563968 55.142750505903464 15.749999173605891 Q 55.3578205340842 15.563604862726194 55.042384779208845 15.276846257433851 Q 54.8646743939071 15.115290580460282 54.57319283882204 15.115290580460282 Q 54.347295475096765 15.115290580460282 54.05306465477223 15.212324819295041 Q 53.83316497179208 15.28484555223063 53.597997879163536 15.28484555223063 Q 53.112492963290975 15.28484555223063 52.56191518072155 14.975749077350006 Q 52.705294483367716 14.344877567599307 52.87735021945591 13.850217505380996 Q 53.0494059555441 13.355557443162688 53.551235305158166 13.269529575118591 Q 53.596175300358006 13.261825330407424 53.64238000053646 13.261825330407424 Q 54.11212838246822 13.261825330407424 54.71261116568298 14.05811824616598 Q 55.042384779208845 13.384233160463724 54.88466690177117 12.265871592031454 L 54.88466690177117 12.265871592031454 L 55.07106049650989 12.394913036027106 Q 56.41882995177341 14.660313322474655 56.69842070195197 15.047439086743584 Q 56.90811394362113 15.337782693804295 57.508964107160935 15.337782693804295 Q 57.70924725629388 15.337782693804295 57.952993001775646 15.305521974734889 Q 58.92797598370273 15.176480530739235 58.899300266401696 14.846706201072383 L 58.899300266401696 14.846706201072383 L 59.716564654750115 15.262507682642347 L 60.33309758970931 15.03310051195208 L 58.97099027579527 12.0364637052002 Q 59.30076317318016 12.0364637052002 59.5875217784725 11.749704383766874 Q 59.24341173857808 10.674356391286157 58.52651307692427 9.340924794673152 Q 58.039021585960725 8.537998264975244 57.50851651904563 8.093521424174735 Q 56.10339491303904 6.774427328141755 54.57640043429157 5.577206462920153 Q 53.0494059555441 4.379985776733798 52.332507293890295 3.734777034955942 Q 51.850989851019385 3.4477184561087197 51.32761002882949 3.4477184561087197 Q 51.04059576120569 3.4477184561087197 50.74099245121549 3.534044865425727 Q 49.89505234556603 3.777790879460367 49.72299660947783 4.73843474949021 Q 49.665644458734775 4.709759032189174 49.80902447752193 4.021536266871646 Q 49.952403780168105 3.333313501554119 49.74450303938312 2.759794321581726 Q 49.55970250026441 2.25 48.825456397472756 2.25 Z"
     style="fill:#ffffff;stroke:none"
     id="path14" />
  <path
     d="M 67.65212949016158 2.8828022772493154 Q 69.70186013538193 2.8828022772493154 71.9992084400159 3.873276099066148 Q 69.70186013538193 4.8362365291985645 67.65212949016158 4.8362365291985645 Q 65.6161560184078 4.8362365291985645 63.305051017931625 3.873276099066148 Q 65.6161560184078 2.8828022772493154 67.65212949016158 2.8828022772493154 ZM 67.65212949016158 2.25 Q 65.12091910749939 2.25 61.833096981048584 3.85951940322394 Q 65.12091910749939 5.455282906646262 67.65212949016158 5.455282906646262 Q 70.1833398728238 5.455282906646262 73.4711619992746 3.85951940322394 Q 70.19709672787413 2.25 67.65212949016158 2.25 Z"
     style="fill:#ffffff;stroke:none"
     id="path16" />
  <path
     d="M 64.02359198394916 6.774437323233528 Q 63.94431740620593 6.774437323233528 63.833739646740135 6.8711929823276705 Q 63.39735174291748 7.458637812089359 63.36378375108916 8.549605867621603 Q 63.49805705177043 9.405598025132877 63.96801227078691 10.966522016118123 Q 63.80017097330206 12.225331886561598 63.71625066287688 14.424052035829902 Q 63.649114012536245 15.162555448290103 64.11906992808824 15.380750810685848 Q 65.51215321861908 15.750000288002298 67.64373769269646 15.750000288002298 Q 69.79210636418578 15.750000288002298 71.1684064125534 15.380750810685848 Q 71.65514829670764 15.162555448290103 71.58801023339495 14.424052035829902 Q 71.50408972395962 12.225331886561598 71.33624679459157 10.966522016118123 Q 71.80620559579069 9.405598025132877 71.94047535409135 8.549605867621603 Q 71.90691046184607 7.458637812089359 71.47051973705457 6.8711929823276705 Q 71.35994205719282 6.774437323233528 71.28066787746991 6.774437323233528 Q 71.16741868539003 6.774437323233528 71.11805397952571 6.971897619521376 Q 71.2355419285362 7.307580871224562 71.33624679459157 7.626479149376237 Q 71.47051973705457 8.02929837478556 71.43695293431189 8.381765326375312 Q 71.40338549473672 8.952425809467455 71.32785461628154 9.313284541346938 Q 71.25232692198871 9.67414343243454 71.0173478398054 9.67414343243454 Q 71.00482261875503 9.675145488328518 70.992670581533 9.675145488328518 Q 70.59774529262879 9.675145488328518 70.59774529262879 8.616742498061225 Q 70.59774529262879 8.230707708876015 70.69845079551664 7.676831423195807 Q 70.61198614035749 7.529843085585626 70.51215946628037 7.529843085585626 Q 70.41820566125585 7.529843085585626 70.31241505108271 7.660047146179814 Q 70.26206261805503 8.062866371589134 70.24527826143498 8.549605867621603 Q 70.17814147178723 9.288108484041214 70.59774529262879 10.630838704711893 Q 70.44668799354572 12.527446484727722 70.44668799354572 14.424052035829902 Q 69.30536766419391 14.60867804815307 67.64373769269646 14.65903111801323 Q 65.99889287385966 14.60867804815307 64.85757174846725 14.424052035829902 Q 64.85757174846725 12.527446484727722 64.70651413096796 10.630838704711893 Q 65.12611763339328 9.288108484041214 65.05898100295364 8.549605867621603 Q 65.0421966463336 8.062866371589134 64.99184437251402 7.660047146179814 Q 64.88605360313278 7.529843085585626 64.79209947969201 7.529843085585626 Q 64.6922732036352 7.529843085585626 64.6058094241207 7.676831423195807 Q 64.70651413096796 8.230707708876015 64.70651413096796 8.616742498061225 Q 64.70651413096796 9.675145488328518 64.31158828483532 9.675145488328518 Q 64.29943672523764 9.675145488328518 64.28691118577105 9.67414343243454 Q 64.05193321804455 9.67414343243454 63.976404767513166 9.313284541346938 Q 63.900876277179755 8.952425809467455 63.86730764354371 8.381765326375312 Q 63.833739646740135 8.02929837478556 63.96801227078691 7.626479149376237 Q 64.0687175746646 7.307580871224562 64.18620655852786 6.971897619521376 Q 64.13684129543512 6.774437323233528 64.02359198394916 6.774437323233528 Z"
     style="fill:#ffffff;stroke:none"
     id="path18" />
  <path
     d="M 30.489336013793945 0.375 C 20.86433607339859 0.375 20.86433607339859 17.625 30.489336013793945 17.625 "
     style="fill:none;stroke:#ffffff;stroke-width:1"
     id="path20" />
  <path
     d="M 30.489336013793945 0.375 L 73.47115898132324 0.375 "
     style="fill:none;stroke:#ffffff;stroke-width:1"
     id="path22" />
  <path
     d="M 30.489336013793945 17.625 L 73.47115898132324 17.625 "
     style="fill:none;stroke:#ffffff;stroke-width:1"
     id="path24" />
  <path
     d="M 81.15865898132324 0.375 L 81.15865898132324 17.625 "
     style="fill:none;stroke:#ffffff;stroke-width:1"
     id="path26" />
  <path
     d="M 73.47115898132324 0.375 C 83.09616088867188 0.375 83.09616088867188 17.625 73.47115898132324 17.625 "
     style="fill:none;stroke:#ffffff;stroke-width:1"
     id="path28" />
</svg>
