<?xml version="1.0" encoding="UTF-8" standalone="no"?>
<svg
   width="49.8250846862793"
   height="18.0"
   version="1.1"
   id="svg10"
   sodipodi:docname="neterunebu.svg"
   inkscape:version="1.1.1 (3bf5ae0d25, 2021-09-20)"
   xmlns:inkscape="http://www.inkscape.org/namespaces/inkscape"
   xmlns:sodipodi="http://sodipodi.sourceforge.net/DTD/sodipodi-0.dtd"
   xmlns="http://www.w3.org/2000/svg"
   xmlns:svg="http://www.w3.org/2000/svg">
  <defs
     id="defs14" />
  <sodipodi:namedview
     id="namedview12"
     pagecolor="#ffffff"
     bordercolor="#666666"
     borderopacity="1.0"
     inkscape:pageshadow="2"
     inkscape:pageopacity="0.0"
     inkscape:pagecheckerboard="0"
     showgrid="false"
     inkscape:zoom="27.596541"
     inkscape:cx="24.912542"
     inkscape:cy="9.0047517"
     inkscape:window-width="1920"
     inkscape:window-height="1001"
     inkscape:window-x="-9"
     inkscape:window-y="-9"
     inkscape:window-maximized="1"
     inkscape:current-layer="svg10" />
  <path
     d="M 6.886531103195029 0.6024466192705972 L 6.863673517052353 4.079998358224804 L 6.860408282536022 4.079998358224804 C 4.609154233531973 3.8865320324717 2.6626255746984158 3.740519991833915 0.5910204052044105 3.5036736040161705 L 0.5910204052044105 0.8653073840858203 L 6.886531103195029 0.6024466192705972 ZM 7.172245262808362 0.0 L 6.876734927381857 0.013061000787913406 L 0.28408192606981025 0.2873468838688512 C 0.12588703405336923 0.29324103595670115 5.300907111758617E-4 0.42292055796295525 0.0 0.5812269633580727 L 0.0 3.7681653921979636 C -3.8391387985698853E-4 3.9183177728711382 0.11205872573424878 4.044817982924672 0.26122445799317834 4.062040512913332 C 2.4488051352022704 4.319405598539628 4.467582656813744 4.4664710244231 6.809795730740348 4.6677533222973056 L 6.858776137542032 4.672655896713568 L 6.770612444280189 17.9999996007981 L 8.537143043278201 17.9999996007981 L 8.097960027812212 0.022855412989551384 L 7.173877880066528 0.022855412989551384 L 7.172245262808362 0.0 Z"
     style="fill:#ffffff;stroke:none"
     id="path2" />
  <path
     d="M 17.423673856796103 0.6024466192705972 L 17.40081627065343 4.079998358224804 L 17.397551036137095 4.079998358224804 C 15.146296987133047 3.8865320324717 13.19976832829949 3.740519991833915 11.128163158805485 3.5036736040161705 L 11.128163158805485 0.8653073840858203 L 17.423673856796103 0.6024466192705972 ZM 17.709388016409434 0.0 L 17.41387768098293 0.013061000787913406 L 10.821224679670884 0.2873468838688512 C 10.663029787654443 0.29324103595670115 10.537672844312251 0.42292055796295525 10.537142753601074 0.5812269633580727 L 10.537142753601074 3.7681653921979636 C 10.536758839721218 3.9183177728711382 10.649201479335323 4.044817982924672 10.798367211594252 4.062040512913332 C 12.985947888803345 4.319405598539628 15.004725410414817 4.4664710244231 17.346938484341422 4.6677533222973056 L 17.395918891143104 4.672655896713568 L 17.307755197881264 17.9999996007981 L 19.074285796879273 17.9999996007981 L 18.635102781413288 0.022855412989551384 L 17.7110206336676 0.022855412989551384 L 17.709388016409434 0.0 Z"
     style="fill:#ffffff;stroke:none"
     id="path4" />
  <path
     d="M 27.960816610397178 0.6024466192705972 L 27.937959024254504 4.079998358224804 L 27.93469378973817 4.079998358224804 C 25.683439740734123 3.8865320324717 23.736911081900566 3.740519991833915 21.66530591240656 3.5036736040161705 L 21.66530591240656 0.8653073840858203 L 27.960816610397178 0.6024466192705972 ZM 28.24653077001051 0.0 L 27.951020434584006 0.013061000787913406 L 21.358367433271958 0.2873468838688512 C 21.20017254125552 0.29324103595670115 21.074815597913325 0.42292055796295525 21.07428550720215 0.5812269633580727 L 21.07428550720215 3.7681653921979636 C 21.07390159332229 3.9183177728711382 21.186344232936396 4.044817982924672 21.335509965195328 4.062040512913332 C 23.52309064240442 4.319405598539628 25.54186816401589 4.4664710244231 27.884081237942496 4.6677533222973056 L 27.93306164474418 4.672655896713568 L 27.844897951482338 17.9999996007981 L 29.611428550480348 17.9999996007981 L 29.172245535014362 0.022855412989551384 L 28.248163387268676 0.022855412989551384 L 28.24653077001051 0.0 Z"
     style="fill:#ffffff;stroke:none"
     id="path6" />
  <path
     d="M 35.598617975290395 6.99699361471372 C 35.59945990548523 6.99699361471372 35.60030214464528 6.99699361471372 35.60114438380533 6.99699361471372 C 36.89617452953181 6.997134502849076 38.36655849762184 7.0803227674728255 40.72293727867374 7.0803227674728255 C 43.0812131061096 7.0803227674728255 44.54905861604155 6.9972135979426096 45.842061949996236 6.9972135979426096 C 45.97691043344483 6.9972135979426096 46.1098569270661 6.998118248074897 46.241714627290456 7.0001141633257795 C 45.38490343212074 7.445325614495232 44.12962475019896 8.057647696249042 43.30271644382821 8.283137921026064 C 42.27394015670852 8.563672151598148 41.455177409110874 8.60272288230859 40.78129895288428 8.60272288230859 C 40.1074211145881 8.60272288230859 39.28865898492087 8.563670915737312 38.25988269780118 8.283137921026064 C 37.431984466900424 8.057378278586693 36.17464436910344 7.443896959368285 35.317761802970416 6.998554506950168 C 35.41057093524079 6.997610309271113 35.50422014391475 6.99699361471372 35.598617975290395 6.99699361471372 ZM 37.81869335572399 9.008323757808684 C 37.81723442200654 9.008323757808684 37.81573964832485 9.008364541216288 37.81421088847015 9.008446108031494 C 37.60983040264069 9.019336513722374 36.77252603491364 9.756149329254404 36.467520214953616 10.156332190847461 C 36.26985848656157 10.415676351517615 36.21612850980087 10.747273880130525 36.411655288597935 10.901615596552585 C 36.467198891136135 10.945458995586815 36.53186778112554 10.965425563260652 36.60052077748649 10.965425563260652 C 36.77002897809358 10.965425563260652 36.96382307999792 10.8437031577561 37.10450668038585 10.659117454944209 C 37.429845809722934 10.232254829613666 37.96879483361615 9.11289612248569 37.846356864687294 9.0162493333529 C 37.839563337669276 9.010886933183501 37.83023506007568 9.008323757808684 37.81869335572399 9.008323757808684 ZM 43.680126097787834 9.008390494293854 C 43.67914482428368 9.008390494293854 43.67817838110957 9.0084090322064 43.67722923998717 9.008446108031494 C 43.6670272087822 9.00884899866418 43.65879143216803 9.011340494110481 43.65257381629981 9.0162493333529 C 43.53013708323178 9.11289612248569 44.06939630819495 10.232254829613666 44.394735437532034 10.659117454944209 C 44.535419655850376 10.8437031577561 44.72905556756766 10.965425563260652 44.898472314472855 10.965425563260652 C 44.967088543973915 10.965425563260652 45.03173148088575 10.945458995586815 45.08727477445874 10.901615596552585 C 45.282802789116644 10.747273880130525 45.2293864120432 10.415676351517615 45.031722829859895 10.156332190847461 C 44.72444209906516 9.753163489473518 43.876452478546085 9.008390494293854 43.680126097787834 9.008390494293854 ZM 38.77701630620922 9.246361677658278 C 38.77560124555148 9.246361677658278 38.774147873207795 9.246432121725956 38.77265495331736 9.246575481582987 C 38.59520202132309 9.263609351491905 37.92820174858181 10.217745823393635 37.7212061812224 10.692198977814552 C 37.59033284415429 10.992173299344142 37.616451527072016 11.327176860422332 37.8426115884224 11.429367721267482 C 37.88169383358417 11.447026936759649 37.92197053824438 11.455289902312217 37.962526547453635 11.455289902312217 C 38.15324459173603 11.455289902312217 38.35013946847906 11.272575292806724 38.45806286981413 11.025205387781025 C 38.67347217774815 10.531465389146323 38.933311918613725 9.31337499565445 38.79169277157259 9.249384593264258 C 38.78730546560316 9.247402272482578 38.78244049942044 9.246361677658278 38.77701630620922 9.246361677658278 ZM 42.72173950046952 9.246425942421775 C 42.72051970582393 9.246425942421775 42.71932710011675 9.246475376855233 42.71816044748713 9.246575481582987 C 42.71422793830552 9.246911635730504 42.71055743162123 9.247884258208796 42.70723914527534 9.249384593264258 C 42.565619380303794 9.31337499565445 42.82576932223932 10.531465389146323 43.04117986603418 11.025205387781025 C 43.149102649438824 11.272575292806724 43.34599752618185 11.455289902312217 43.53671680632509 11.455289902312217 C 43.57727157967351 11.455289902312217 43.61754828433371 11.447026936759649 43.6566311474259 11.429367721267482 C 43.88279244463712 11.327176860422332 43.90859845476323 10.992173299344142 43.77772326390386 10.692198977814552 C 43.5688615466814 10.213462329734465 42.891798895009664 9.246425942421775 42.72173950046952 9.246425942421775 ZM 39.944120642962545 9.424706283246051 C 39.94344400915459 9.424706283246051 39.942761813972865 9.424729764601944 39.94207529327821 9.424780434896238 C 39.77801662102949 9.436835021495062 39.25012793369216 10.510942684096081 39.11595979163405 11.020523946932517 C 39.032487896948325 11.337553148005245 39.109452366399665 11.66442598064037 39.34847032389258 11.7296040452944 C 39.3740940445453 11.73659160246374 39.399617660470284 11.739933370165527 39.42486876908082 11.739933370165527 C 39.63173395312198 11.739933370165527 39.820245985811304 11.515601146992267 39.894636775070715 11.23306111428261 C 40.03202557046865 10.711249772608571 40.10298252039396 9.466841722604295 39.953310504142465 9.426028654341062 C 39.95041426427222 9.425240175127401 39.947325848041906 9.424706283246051 39.944120642962545 9.424706283246051 ZM 41.554238452387686 9.42465066950841 C 41.55322319271053 9.42465066950841 41.55222276336342 9.424693924637687 41.551237782276765 9.424780434896238 C 41.54937533999622 9.424946040248324 41.54768591823278 9.425552847919025 41.54593223170584 9.426028654341062 C 41.396260833384765 9.466841722604295 41.466905110518454 10.711249772608571 41.60429328798596 11.23306111428261 C 41.6786846951758 11.515601146992267 41.867196109934696 11.739933370165527 42.07406314776712 11.739933370165527 C 42.09931302051682 11.739933370165527 42.124838490233046 11.73659160246374 42.15046159295536 11.7296040452944 C 42.38947707872659 11.66442598064037 42.46644278403877 11.337553148005245 42.382970271422636 11.020523946932517 C 42.248046400463025 10.508061892486293 41.715063494757814 9.42465066950841 41.554238452387686 9.42465066950841 ZM 40.711074250504566 9.440320149053878 C 40.71065405782017 9.440320149053878 40.71023633685745 9.440336215244752 40.70982912071183 9.44038564967821 C 40.55466432097269 9.459194215748285 40.31034761014347 10.665230022641335 40.31034761014347 11.201225339135416 C 40.31034761014347 11.529440316638938 40.467685053233104 11.82479251864017 40.715134671282755 11.824793754501005 C 40.95898669843747 11.82479251864017 41.116489746879196 11.529440316638938 41.11648912894877 11.201225339135416 C 41.11648912894877 10.661009557884828 40.868526010721574 9.44038564967821 40.713574396976725 9.44038564967821 C 40.71276737985052 9.44038564967821 40.71191525380378 9.440320149053878 40.711074250504566 9.440320149053878 ZM 40.45295791757544 6.089693796792126 C 40.54083071269979 6.089693796792126 40.629275711391415 6.089733344338892 40.71825583782523 6.089733344338892 C 42.4721623479899 6.089733344338892 44.01040743460991 6.090503285640007 45.21367367736846 6.113764658303844 C 46.41694115598784 6.137024795106845 47.30318932042118 6.189253509916453 47.672983599906544 6.266691314068157 C 47.99395148946507 6.333903605658998 48.37631076607471 6.506694252647722 48.66544535220771 6.745445264199953 C 48.95458241006239 6.984196275752184 49.14363327807641 7.274156416923943 49.165734177414805 7.590287147168565 C 49.26576104593532 9.02106548303258 49.22448082227591 10.461268493635433 49.17447294938942 11.910306673358136 L 49.11673600283171 11.910306673358136 C 49.16049907091157 11.211405124845331 49.184141088713034 10.409742983641774 49.172913293013806 9.65916391425242 C 49.15995158456102 8.792640088768968 49.11101643888057 8.019895855277719 48.971924009319586 7.526930741387478 C 48.804619348583905 6.933995608575206 48.32807141004519 6.534467753225472 47.78065673942223 6.482347794169472 C 47.10947431361037 6.418447609620343 46.48964684899674 6.397194510815752 45.830439914690174 6.397194510815752 C 44.520648647133015 6.397194510815752 43.055391029792624 6.481099574724649 40.72293727867374 6.481099574724649 C 40.72292615592621 6.481099574724649 40.72291441524827 6.481099574724649 40.72290329250074 6.481099574724649 C 38.39046560757273 6.481099574724649 36.922146145010004 6.397177208764042 35.609589020900856 6.397177208764042 C 34.948991125222854 6.397177208764042 34.3278477777836 6.418434015151142 33.65585539967605 6.482347794169472 C 33.07873804970962 6.53723978908165 32.6300328199555 7.004559554754524 32.4645883615026 7.59091002103014 C 32.32602843347952 8.081981796118926 32.276566811082745 8.840621149883663 32.26359907780838 9.691311126330401 C 32.25237560762208 10.427575219651043 32.27578018566034 11.215445153919719 32.319464081405364 11.910306673358136 L 32.26203857177845 11.910306673358136 C 32.21203185751149 10.461268493635433 32.17075186557598 9.021064247171743 32.27077726651174 7.590287147168565 C 32.29294930508955 7.273134360012191 32.483252022889594 6.972517390847643 32.77075365065113 6.73077559607118 C 33.05825535565396 6.489033801294718 33.436945670405365 6.3199186044336235 33.749796117024815 6.269500425749429 C 34.66143257062154 6.122580053650308 37.10054080296165 6.09189486494186 40.32158282100772 6.089733344338892 C 40.36522848230812 6.089703683678818 40.40902182897847 6.089693796792126 40.45295791757544 6.089693796792126 ZM 40.34779233969693 5.490471839904785 C 40.286637002065575 5.490471839904785 40.225778888965394 5.490481726791477 40.16522356177014 5.4905101515907155 C 37.024979035559696 5.492024081115378 34.692220026814205 5.510544691610558 33.654607025748625 5.6777677855310325 C 33.217388967986786 5.748227919400088 32.76041822371712 5.9563345256514735 32.38500409880187 6.271996864639077 C 32.00958997388662 6.587659203626681 31.709742666023462 7.024539716897562 31.67311512048262 7.548464380601945 C 31.563519872194174 9.116132842016377 31.618420139167068 10.673653650102642 31.672490933518908 12.220528752943647 L 31.682790076351168 12.509528630245477 L 32.96206799778712 12.509528630245477 L 32.937724628960964 12.187445994212467 C 32.881416028565 11.444850585826643 32.85018404867772 10.529402737410273 32.86282172986744 9.700361335235794 C 32.87545948829847 8.871319933061313 32.93981555101365 8.113637135583994 33.04134012838534 7.753824904074717 C 33.15255447264529 7.359668099920237 33.436911684232356 7.104989313907717 33.71265679958056 7.078761875236378 C 33.85474449236131 7.065247736989695 33.99460593632779 7.053565144502645 34.13336097588042 7.043806787337962 C 34.4833839537041 7.242388614122756 36.685570557495154 8.474817465039232 38.10227460118836 8.861137675629726 C 39.19591813396171 9.159360782354051 40.08366292586801 9.20194483919593 40.78129895288428 9.201946075056767 C 41.47893559783097 9.201946075056767 42.3666816255981 9.159359546493215 43.46032330458019 8.861137675629726 C 44.85858861355864 8.479846182782785 47.02226085024227 7.2744814483239315 47.41488147937703 7.052234122381779 C 47.516987065824466 7.06009048971915 47.619798328809516 7.06885521477132 47.723854103656876 7.078761875236378 C 48.02928845836195 7.107842916579102 48.28581362046414 7.301959578161768 48.39517247416075 7.689531715779594 C 48.49616207827286 8.047451844348252 48.56104600804781 8.82292238684473 48.57369010026563 9.668214123157814 C 48.586332956622606 10.51350833119257 48.555070620903535 11.445171909644124 48.4987870466895 12.187445994212467 L 48.47444429579376 12.509528630245477 L 49.7537209234379 12.509528630245477 L 49.76402058764896 12.220528752943647 C 49.81809073510488 10.673653650102642 49.87299261690376 9.116134077877213 49.763396477926534 7.548464380601945 C 49.72669635452704 7.0235151882641365 49.42247808688505 6.593477636444732 49.0471384998265 6.283543512434116 C 48.67179891276795 5.973610624284338 48.21850246000638 5.76881365335299 47.79563784448179 5.68026422442068 C 47.30576361854353 5.577680359829538 46.43803977218787 5.538299654275761 45.225221561024334 5.514852902486455 C 44.012402113999954 5.491407386557984 42.47235514228039 5.4905101515907155 40.71825583782523 5.4905101515907155 C 40.593603824207854 5.4905101515907155 40.47010301495963 5.490471839904785 40.34779233969693 5.490471839904785 Z"
     style="fill:#ffffff;stroke:none"
     id="path8" />
</svg>
