<?xml version="1.0" encoding="UTF-8" standalone="no"?>
<svg
   width="69.80966186523438"
   height="18.0"
   version="1.1"
   id="svg54"
   sodipodi:docname="netjerkheperu.svg"
   inkscape:version="1.1.1 (3bf5ae0d25, 2021-09-20)"
   xmlns:inkscape="http://www.inkscape.org/namespaces/inkscape"
   xmlns:sodipodi="http://sodipodi.sourceforge.net/DTD/sodipodi-0.dtd"
   xmlns="http://www.w3.org/2000/svg"
   xmlns:svg="http://www.w3.org/2000/svg">
  <defs
     id="defs58" />
  <sodipodi:namedview
     id="namedview56"
     pagecolor="#ffffff"
     bordercolor="#666666"
     borderopacity="1.0"
     inkscape:pageshadow="2"
     inkscape:pageopacity="0.0"
     inkscape:pagecheckerboard="0"
     showgrid="false"
     inkscape:zoom="19.696414"
     inkscape:cx="34.904831"
     inkscape:cy="9.0117927"
     inkscape:window-width="1920"
     inkscape:window-height="1001"
     inkscape:window-x="-9"
     inkscape:window-y="-9"
     inkscape:window-maximized="1"
     inkscape:current-layer="svg54" />
  <path
     d="M 3.009169848917976 0.4739171748132039 C 3.7026715218272255 0.4739171748132039 4.256829318471649 0.6745946316238001 4.644164689284773 0.9526347441559112 C 4.650308145491952 1.0062515645085024 4.663546055856558 1.060016372992199 4.652575800812965 1.1124437372646898 C 4.603449882852364 1.360569519526529 4.457806885291136 1.5903185537666114 4.257258755698066 1.7432685981716125 C 3.9413649209170813 1.94997010496389 3.5600411988456018 2.009570228366613 3.2002765010963685 2.0993341831784433 C 3.10998720613517 2.1086036967312767 3.181170796374544 2.130187995961788 3.231117085890341 2.138585643286511 C 3.4609996992016763 2.1784200797833564 3.9384250002790258 2.2376030490926513 4.202499603977515 2.2376030490926513 C 4.220906351189456 2.2376030490926513 4.23827706337661 2.2373153403237978 4.254454894379272 2.2367137030214415 C 4.532424083629077 2.2049171597812043 4.794657162235626 2.0893111466595644 5.019856122452685 1.9255069464391237 C 5.098959498900698 1.8590524805074944 5.166930105007111 1.7763742399315428 5.224523825878929 1.6899990125400517 C 5.3720929131784425 2.0357255065676374 5.451951702305268 2.4028945713681713 5.485264503827336 2.6067978859799568 C 5.503366062427325 2.716651377223197 5.580895308140001 2.8061828973646232 5.687128818362978 2.8395020766672823 C 6.825504545072815 3.188508875845171 7.72511459117944 4.749370284342509 8.566494083211595 5.78895938641794 C 10.295861887830181 7.925728476871466 11.765759846336513 10.315234366846607 13.458892408638075 12.548598959980612 C 12.522122105814729 12.092922126930452 11.58844053850988 11.632519122248745 10.649618007621019 11.174801399409672 C 8.72850955219054 10.164475916823728 6.728271736761494 9.358727903879377 5.045088984609069 8.085161653353607 C 5.042277564439204 8.082822188947427 5.039490238107126 8.07909189594436 5.036677873080877 8.076750541825415 C 4.066833817400553 7.2693821001829235 3.0743602151151883 6.41700117284651 2.698420284718348 5.284299308721125 C 2.5498687829938245 4.364048874911361 4.455242072637431 2.7072382455000326 4.240437005069874 2.637638234559833 C 4.2215063349931405 2.631504463130588 4.200107227613845 2.6285180083156328 4.1764933768710275 2.6285180083156328 C 3.7176359210190495 2.6285180083156328 2.422621666796125 3.756154733581801 2.15731260823226 4.830105427765268 C 2.154053326136495 4.815773846136464 2.1461630666898484 4.79928090552982 2.143294246494671 4.785246481233707 C 2.0704243238243896 4.4287242943794265 1.9886595231574336 3.528875672035904 2.2105824300779164 2.8058581029827074 C 2.22090238771539 2.7720589366371007 2.223991359447983 2.7373940456298778 2.2217969304967107 2.702122556824284 C 2.206042867582163 2.411103719844335 2.16184012380912 2.2384220033632714 2.098435772391302 2.068493834598567 C 2.035031184759387 1.8985666106902463 1.9592064599630061 1.724220765903293 1.8376947401217505 1.3030929608462967 C 1.806828171777225 1.1953371688820418 1.6962380468757994 0.9753151948986268 1.630223411590808 0.9582419943653084 C 1.8161052441811285 0.8204882523408192 2.0045522437462973 0.6772958579179091 2.2750667523423678 0.5825507383579678 L 2.2750667523423678 0.5825507383579678 C 2.1960743965194465 0.658865194028754 2.1432944827087668 0.7691834365057539 2.143294246494671 0.8965614153126038 C 2.143294246494671 1.1261525404295507 2.3068791219270324 1.3115031275181046 2.5077709430296933 1.3115039542674405 C 2.7086627641323537 1.3115039542674405 2.8722476395647156 1.1261525404295507 2.8722476395647156 0.8965614153126038 L 2.8722476395647156 0.8937576721008572 C 2.871221053103765 0.7095976631093593 2.7627272101967493 0.5576299150223198 2.6171139756116095 0.5040481134094518 C 2.669879244148341 0.49667510377938745 2.7125253370291467 0.4854209784459994 2.771315482296895 0.4816187582507192 C 2.852317311433968 0.47642689052903053 2.9316148558688426 0.4739171748132039 3.009169848917976 0.4739171748132039 ZM 3.6797034804227042 8.23655977114829 C 3.744950774217038 8.301805883872143 3.8149797499554623 8.36067988514395 3.8815675587442495 8.424405723946341 C 4.0956495749641375 9.204198532028927 4.293931466520769 10.064938131364233 4.57407335302502 10.7290191024102 C 5.057193067313169 11.874268186883667 5.789626838872777 12.870430272277117 6.413278350114227 13.883144351801198 C 6.260634439177563 13.965039778863208 6.128536902733854 14.058336787907995 6.029175805418124 14.152295196421411 C 5.947669659186221 14.229370911069886 5.8940429178416 14.280530159968329 5.830115352201277 14.345748871857053 C 5.520950312157207 13.938784109671408 5.124019924767046 13.62317373180555 4.644164689284773 13.448575610364134 C 4.689085996337662 12.725628196897432 4.536026821020337 11.737052363409154 4.30492109112023 10.66173115504105 C 4.1263418173058595 9.830810278320685 3.903548933870034 9.003086795602949 3.6797034804227042 8.23655977114829 ZM 4.686219774497539 9.144947533060002 C 5.834593499032087 10.09035760265641 7.113542596376112 10.88336044784028 8.36182590735716 11.685069199744076 C 8.343845290374292 12.594861963098435 8.344411259348162 13.463187814338914 8.445936077782692 14.359767706022835 C 8.033305011863666 14.014385848361224 7.586775333464642 13.763462228240035 7.018870348864767 13.625206117887009 C 7.015369655962953 13.624345353721408 7.011953527707485 13.623977804588126 7.008598342688769 13.623977804588126 C 6.989090837789752 13.623977804588126 6.971640285238172 13.63639699689621 6.951581929067426 13.636421563162186 C 6.30326824892538 12.572860982202688 5.56863248956343 11.57684345983595 5.115180793297013 10.501922870574559 C 4.9594783822461315 10.132827952249835 4.822072170210292 9.651825188689491 4.686219774497539 9.144947533060002 ZM 5.092751320031232 14.399018929916807 C 5.256419815253556 14.551910865654206 5.4054203599744595 14.728454446389774 5.5329268392495 14.94012684261699 C 5.575655607063885 15.01022479287143 5.648728910070769 15.058380343325913 5.729183431147552 15.07470273735529 C 5.7494917018318015 15.078823256044847 5.769947370111917 15.080878318679517 5.790254695939782 15.080878318679517 C 5.850400001475933 15.080878318679517 5.909242822487076 15.062849514021076 5.9590844691583715 15.027040401933126 C 6.175000687833224 14.870724306660996 6.306688629034575 14.703258906060551 6.435707350951817 14.58125716007727 C 6.483312522562763 14.536239477673238 6.5327214250102985 14.500179978643592 6.584302079855896 14.463502543538969 L 6.732896336331785 17.185862440383506 C 6.519603983834621 17.172073206318977 6.298091380798784 17.15081393768448 6.095781566478202 17.15081393768448 C 5.831792472282443 17.15081393768448 5.600500133246544 17.18701327545892 5.462835502989748 17.323242668868794 C 5.2941143882552915 17.189184555428792 4.96598135630733 17.158607113137695 4.572329148140608 17.158607113137695 C 4.471105738892494 17.158607113137695 4.365550163124863 17.160629105798932 4.257258755698066 17.16343343954592 L 5.092751320031232 14.399018929916807 ZM 6.25066573190075 9.573908551859477 L 6.25066573190075 9.573908551859477 C 7.604791854990093 10.361226196182292 9.034522078910209 10.988295252963786 10.386072995925625 11.699088033909858 C 10.388108216576233 11.700135879639442 10.389620931646625 11.700891764746446 10.39167977370683 11.70189142280046 C 11.686891739128056 12.333365400043023 12.978365852695143 12.98273873661945 14.285973389014858 13.605581450796405 C 15.269975172749374 14.794761632832586 16.33790476962736 15.90056296328426 17.36439863465213 17.026055100773398 C 16.647556883137256 17.146248391638174 15.930830404101199 17.267532046769798 15.213987707729942 17.38772722734734 C 13.79219427743337 15.841645498618801 12.36859900601298 14.299348864563587 10.946807465429178 12.75326524612228 C 10.935631704122118 12.739913480563432 10.92370950627189 12.727994117282355 10.910359630425809 12.716818355975295 C 9.41106341039531 11.580038019269429 7.757799063206311 10.634765898705052 6.25066573190075 9.573908551859477 ZM 3.0756960058277225 0.0 C 2.9405269774945206 0.0 2.803378947465543 0.004522381611119117 2.664776311033773 0.013406474957975922 C 1.5799215017535755 0.08356273687650426 0.791815610992612 0.5394290283949892 0.5227751964622482 1.157302329475107 C 0.4821416476788419 1.2499492773278713 0.3773182175015722 1.4706424536648965 0.5155519465690093 1.4706424536648965 C 0.5301007861125528 1.4706424536648965 0.5473420529751317 1.468197873986025 0.5676338477261894 1.4629019539550754 C 0.6829407547488466 1.4484514385289664 0.7780652341468658 1.4423110531050352 0.8569417269557291 1.4423110531050352 C 1.2747371416542677 1.4423110531050352 1.236670413344381 1.614590378873667 1.3274274122155385 1.6367293088014427 C 1.417468209947809 1.9189504698851962 1.6165598434253194 2.483475939414473 1.630223411590808 2.7049261819289825 C 1.386425543994761 3.5656903475302664 1.4768830233922678 4.468266061611404 1.565739089326357 4.903000625343815 C 1.7153772939992473 5.635118342443057 2.1961816377190027 6.48697345720191 2.8273889292472503 7.283313535133207 C 2.8134251329658233 7.338127016095824 2.8086283333195925 7.393803623365002 2.8273889292472503 7.448729542237286 C 3.1285063912567783 8.370618829444675 3.4792571591049843 9.617610994177321 3.7301694409495667 10.785092549360554 C 3.981081959008245 11.952574104543789 4.12285718696257 13.061967778966503 4.046983802062425 13.608383894830625 C 4.025192579283871 13.758532912485983 4.121174397743101 13.900045942793815 4.26847325611686 13.936413465004566 C 4.312604663232929 13.947361515923141 4.352082652659003 13.967347118152338 4.39463851175516 13.981272411536127 L 3.4666249016823647 17.0596976571734 C 3.272728324816838 17.01836208009686 3.0724617624261277 17.00476559673462 2.874112549852153 17.00476559673462 C 2.4927394590346226 17.00476559673462 2.118454680808026 17.055030066637645 1.8101650502035056 17.055030066637645 C 1.6846506825065655 17.055030066637645 1.570075389592555 17.04669832304569 1.4704144184820296 17.023250767026415 C 1.4375472348519498 17.015217598051724 1.3949769666959404 17.011228414399508 1.3451441780532423 17.011228414399508 C 0.9090801423353627 17.011228414399508 -0.08308278674200893 17.316628674182503 0.004096926806725951 17.889582026440785 C 0.15548046576267507 17.76211712084663 0.26223299740795364 17.73138850153413 0.38031217211407353 17.73138850153413 C 0.49024007079753446 17.73138850153413 0.6099847320405954 17.758020223566664 0.7846967677297779 17.758020223566664 C 0.7935070810801064 17.758020223566664 0.8024571741217066 17.757952193907034 0.8115528340999292 17.75781046544947 C 1.066223518424995 17.75382506122279 1.509269747551208 17.674784045296107 1.865480722334089 17.674784045296107 C 2.0452727193170093 17.674784045296107 2.202943030001157 17.694920824546703 2.3031032396034496 17.755008021415254 C 2.5392046614185677 17.745578354705373 2.7523340261895344 17.741732789223487 2.951610851518261 17.741732789223487 C 3.8011631150558056 17.741732789223487 4.398956033000731 17.81162570564265 5.451620530142762 17.816688246146814 C 6.240002555181878 17.80960749240695 7.649068297561068 17.777941575561766 8.426310465835707 17.73818579835887 C 8.876011082258614 17.740893756754712 9.122960636429726 17.792010487115885 9.3482285711628 17.792010487115885 C 9.361538763040762 17.792010487115885 9.374772421551643 17.79183285411574 9.387968285807172 17.791454911562237 C 9.52192246504496 17.78755265469733 9.652878614977093 17.73516414764362 9.867871236536825 17.73516414764362 C 9.990853743446445 17.73516414764362 10.141335350548884 17.752305732157712 10.335607271612858 17.805472800871634 C 10.085930861918229 17.463682342324677 9.45939942841909 17.120327201606223 9.005599080147068 17.120327201606223 C 8.891079651866747 17.120327201606223 8.787560241606108 17.142193068039095 8.703873366840497 17.191469218164713 C 8.542968104112466 17.175166666119395 8.37234782804666 17.169161158944245 8.19567291227375 17.169161158944245 C 7.976734570455455 17.169161158944245 7.748496479680046 17.178384846962466 7.517922703923993 17.188666774130493 L 7.360917335919913 14.359767706022835 L 7.360917335919913 14.359767706022835 C 7.847890174541017 14.562401606083045 8.21758885609496 14.875619607585232 8.642193142108937 15.380301416978874 C 8.699664031650867 15.44654907746951 8.781797562521582 15.482110637184917 8.86545325702653 15.482110637184917 C 8.908499969014047 15.482110637184917 8.951950134677428 15.472694198464408 8.992650768264083 15.453197086985613 C 9.112446274591294 15.395810289661837 9.178901803486355 15.264291005324987 9.155264331333942 15.133579573196247 C 8.962827321367223 14.095116267502062 8.941800487403126 13.115423973733854 8.95339954437011 12.074779939505962 L 8.95339954437011 12.074779939505962 C 9.492870020957247 12.42841606253606 10.024760859633895 12.787106222362869 10.5290609470485 13.16820932046874 C 11.981769133365166 14.7479090393313 13.43605428498632 16.326704530634608 14.888761526446602 17.906404249497168 C 14.944628049848916 17.96747598671759 15.022539017540629 17.999999833159222 15.103714464038218 17.999999833159222 C 15.11983182423232 17.999999833159222 15.136078629750996 17.99871671819008 15.152306538141996 17.99612214256029 C 16.10156595264582 17.836959195003903 17.051571803692816 17.68146795935479 18.00083121819664 17.52230312208564 C 18.107373224028915 17.50503114739059 18.194878263441282 17.430652052861355 18.23073178377927 17.328851336362764 C 18.266587193830023 17.227046840438643 18.244059927928525 17.11188585467375 18.171855892794696 17.031661878554605 C 17.42994521170602 16.20143358156353 16.66326228594804 15.400856767607475 15.920510682677822 14.586862993002091 L 15.920510682677822 14.586862993002091 C 17.1897721675192 15.367626168590794 18.796164079222855 16.341928056689678 19.00015479305014 16.341928056689678 C 19.023265980196797 16.341928056689678 19.02837576352015 16.32942193759429 19.01295381762449 16.302708957912753 C 18.91865715052569 16.139381083416772 18.112724890586506 15.546881487147742 17.238233851442022 14.928911397341812 L 17.238233851442022 14.928911397341812 C 17.377197659226482 14.987001167815102 17.513576339944986 15.048752256775444 17.6531769809321 15.10554284972107 C 17.658199837468143 15.108767644558828 17.664787376175685 15.113841523339595 17.669999203988482 15.116757350139865 C 17.773049020626395 15.151233269870335 17.830042757694528 15.174751690118395 17.93915099346508 15.178437574871426 C 17.94233326976557 15.178545288499173 17.945553340321407 15.178605759307734 17.948841440536878 15.178605759307734 C 17.973745965099905 15.178605759307734 18.00257920250659 15.175098452411234 18.048493553618805 15.161615351815042 C 18.100470103289197 15.146353086648238 18.187842862807837 15.102794262500725 18.236338561560473 15.01021723402036 C 18.28483615002588 14.91764209525276 18.275225070890315 14.822594267328872 18.25876945211083 14.771906501765924 C 18.242311943618578 14.721218736202974 18.220873152271164 14.694878974793022 18.205498449194693 14.67377749717461 C 18.143995857463278 14.58936875213181 18.102465639971687 14.565463885622796 18.0428867758376 14.519575990489324 C 17.983304132277976 14.473685260786702 17.91481149301954 14.423448191718805 17.838219544839546 14.370981261585245 C 17.6850337587668 14.266046456461739 17.50165414209476 14.147847757423074 17.344773967561526 14.042952636267687 C 17.18789568274106 13.938058459968683 17.045392442943054 13.83638718879467 17.016744397387587 13.810248681794459 C 17.00804982894427 13.80148608369151 16.99842930124487 13.792621441099115 16.988708618768793 13.785015347209884 C 15.691415134734154 12.872117785778505 14.394182121508075 11.96102017575818 13.097218392351367 11.048637561055948 C 13.088896097323248 11.042752050641536 13.077870568181206 11.047937422475586 13.06918166887619 11.04302983841836 C 11.735590582003198 9.174366581424614 10.481460027291279 7.217504760432826 9.023491825486246 5.41607134214063 C 8.27915569806047 4.496387349732927 7.424659237280828 2.887723530854533 6.037586916946315 2.3516642220268507 C 5.970716123670593 1.9556564868954267 5.819659099030447 1.224570552967246 5.283400661719887 0.7031084485192504 C 4.8273005330098036 0.25959351157317057 4.167590467595091 0.05615587828814758 3.427373441574297 0.0106028092539796 C 3.3119162433330986 0.0034978361875914604 3.1945714582512528 0.0 3.0756960058277225 0.0 Z"
     style="fill:#ffffff;stroke:none"
     id="path2" />
  <path
     d="M 29.185902050540804 2.701834964452948 L 29.168758860933796 5.309998768668603 L 29.16630993504655 5.309998768668603 C 27.47786939829351 5.164899024353775 26.017972904168342 5.055389993875436 24.464269027047838 4.877755203012128 L 24.464269027047838 2.8989805380643654 L 29.185902050540804 2.701834964452948 ZM 29.4001876702508 2.25 L 29.178554918680923 2.259795750590935 L 24.23406516769689 2.4655101629016385 C 24.115418998684557 2.469930776967526 24.021401291177913 2.5671904184722165 24.02100372314453 2.6859202225185546 L 24.02100372314453 5.076124044148473 C 24.020715787734638 5.188738329653354 24.105047767445217 5.283613487193504 24.216922066639416 5.296530384684999 C 25.857607574546233 5.489554198904721 27.371690715754838 5.599853268317325 29.128350521199792 5.750814991722979 L 29.165085826301056 5.754491922535177 L 29.098963056354673 15.749999700598574 L 30.423861005603182 15.749999700598574 L 30.09447374400369 2.2671415597421634 L 29.401412133194427 2.2671415597421634 L 29.4001876702508 2.25 Z"
     style="fill:#ffffff;stroke:none"
     id="path4" />
  <path
     d="M 35.78795479678294 6.319431782116482 Q 37.00131762372669 6.450101762738325 37.72933460374786 6.898112459878494 Q 38.04667567833872 7.887469759215888 37.56133054756123 8.970162963610337 Q 36.77731209612033 9.119499982014574 36.4133027109284 9.24083644374522 Q 36.049294399954086 9.362172905475866 35.78795479678294 9.436841056605441 Q 34.79859731840928 9.119499982014574 33.95857703747612 8.988829285247647 Q 33.52923284100953 7.887469759215888 33.84657409463667 6.898112459878494 Q 34.74259566795328 6.431435083028473 35.78795479678294 6.319431782116482 ZM 34.20277338056922 9.386173075705337 Q 34.883932987686904 9.386173075705337 35.61995002445123 9.866185790180845 L 35.61995002445123 13.73027836632828 Q 34.74259566795328 13.431604329519805 34.163915169227536 12.778255142555674 Q 33.9025755660564 11.060880505124572 33.97724371718597 9.399506981040654 Q 34.089246660025424 9.386173075705337 34.20277338056922 9.386173075705337 ZM 37.35446881714173 9.386173075705337 Q 37.467995358649254 9.386173075705337 37.5799983014887 9.399506981040654 Q 37.65466645261828 11.04221346734218 37.41199424530207 12.75958810477328 Q 36.83331285139497 13.431604329519805 35.93729109904209 13.73027836632828 L 35.93729109904209 9.866185790180845 Q 36.673309568096585 9.386173075705337 37.35446881714173 9.386173075705337 ZM 38.34535043129228 2.25 Q 38.140011583395776 2.4553379974742158 38.21468045067044 2.9033488736506565 Q 38.94269850490923 4.266048853275846 38.886696675416964 4.95673265291358 Q 38.8306948459247 5.647415557369957 38.32668267736481 6.674106932272138 Q 37.860004942442245 6.282097706551693 37.243989472970355 6.188762159567181 Q 37.31865869831756 5.703417028789681 36.90798171866964 5.386075954198812 L 36.85198024724991 4.9940667284783675 L 36.40396955010974 5.62874816151502 Q 36.51597177680411 5.143403925918876 36.795979491975274 4.751393805017075 L 36.83331285139497 4.564722532011778 Q 36.53463917265904 4.564722532011778 36.45997102152947 4.844729531037859 Q 36.2732995694879 4.658058258032563 36.01195996631675 4.564722532011778 L 36.01195996631675 4.8073954554730705 L 35.899957023477306 4.8073954554730705 L 35.899957023477306 4.546055852301928 L 35.67595149587095 4.546055852301928 L 35.67595149587095 4.8073954554730705 L 35.54528187332165 4.8073954554730705 L 35.54528187332165 4.564722532011778 Q 35.283942270150504 4.658058258032563 35.11593821396387 4.844729531037859 Q 35.04126934668921 4.564722532011778 34.74259566795328 4.564722532011778 L 34.761263242844485 4.770061379908283 Q 35.05993674254415 5.143403925918876 35.153272647601206 5.62874816151502 L 34.705261592388496 4.9940667284783675 L 34.64926012096877 5.386075954198812 Q 34.257250716212056 5.703417028789681 34.313252366668046 6.188762159567181 Q 33.715904293051096 6.282097706551693 33.23055925179173 6.674106932272138 Q 32.726546814677434 5.666082953224892 32.670545298498645 4.966065992768505 Q 32.61454449846494 4.266048853275846 33.342561568004236 2.9220163142646607 Q 33.417230614315166 2.4553379974742158 33.2118918559368 2.268667432221679 L 32.93188485691072 2.791346512679089 L 32.50254142134828 2.6606767558525846 L 32.50254142134828 2.6606767558525846 Q 32.66681185513491 3.198289869927008 32.35320444770311 3.198289869927008 Q 32.27480269655307 3.198289869927008 32.16653364466803 3.1646891482078177 L 32.16653364466803 3.1646891482078177 Q 32.39053910513578 3.8927063072652537 31.923860788345337 4.023376108850826 L 32.875884101636075 7.028782440500337 Q 33.083153318608865 7.369296537747643 33.24345523440765 7.369296537747643 Q 33.285273183866984 7.369296537747643 33.32389488829438 7.346123515091206 Q 33.32389488829438 8.036807135692667 33.52923284100953 8.727490756294129 Q 32.76388097976036 8.914161850263154 32.61454449846494 9.539510480553695 Q 32.46520730102443 10.164858394699149 32.745214300050506 11.527558598119679 L 32.91321817720087 11.546225635902072 L 32.98788641784858 11.751563767653492 L 33.13722361528909 11.732896729871099 Q 33.06255537464138 11.079547542906967 33.0718887144963 10.538201298782285 Q 33.08122205435123 9.996854338512518 33.37989573308716 9.306171075983599 L 33.58523449146553 9.306171075983599 Q 33.58523449146553 10.426198355942836 33.73457168890604 12.012904445042263 L 33.398563128942094 11.69556265430631 Q 32.68921273911265 12.068904842244361 32.66121195864372 12.750254585882082 Q 32.63321117817478 13.431604329519805 32.83854993655316 14.234290534888173 Q 33.04388797878644 15.036976740256542 33.58523449146553 15.671658889438278 Q 33.67336760248095 15.749999432563103 33.713982696752105 15.749999432563103 Q 33.82821267176925 15.749999432563103 33.56656709561059 15.130311929168512 L 33.622568567030314 14.962308589126966 Q 33.32389488829438 14.21562349710578 33.23055925179173 13.571607829032844 Q 33.13722361528909 12.927592160959911 33.491898765444745 12.423579992400017 L 33.491898765444745 12.442247030182411 Q 34.18258256508248 13.879615384732517 35.78795479678294 14.140955345976202 Q 37.393326849447135 13.879615384732517 38.0840104700486 12.423579992400017 Q 38.42001858242186 12.927592160959911 38.32668267736481 13.571607829032844 Q 38.233347488452836 14.21562349710578 37.93467345164436 14.962308589126966 L 37.990674564991544 15.130311929168512 Q 37.72902916786916 15.749999432563103 37.843259321922574 15.749999432563103 Q 37.88387441619372 15.749999432563103 37.97200752720915 15.671658889438278 Q 38.51335377133383 15.036976740256542 38.71869261923033 14.234290534888173 Q 38.92403075098176 13.431604329519805 38.89603019430816 12.750254585882082 Q 38.86802963763457 12.068904842244361 38.17734565896057 11.69556265430631 L 37.82267015073237 12.012904445042263 Q 37.990674564991544 10.426198355942836 37.97200752720915 9.306171075983599 L 38.17734565896057 9.306171075983599 Q 38.49468673355143 9.978187300730124 38.49468673355143 10.528867779891089 Q 38.49468673355143 11.079547542906967 38.438685620204254 11.714229692088704 L 38.58802263860849 11.732896729871099 L 38.662690073592984 11.527558598119679 L 38.812027808142304 11.508891560337284 Q 39.09203480716839 10.164858394699149 38.952031307655346 9.539510480553695 Q 38.812027808142304 8.914161850263154 38.04667567833872 8.727490756294129 Q 38.25201452623523 8.036807135692667 38.233347488452836 7.346123515091206 L 38.233347488452836 7.346123515091206 Q 38.2700148329436 7.3627907177240814 38.30787312671052 7.3627907177240814 Q 38.482020275435225 7.3627907177240814 38.68135782752046 7.010115760790486 L 39.633381051293064 4.023376108850826 Q 39.185369996080354 3.874039627555402 39.40937588175925 3.146021752352881 L 39.40937588175925 3.146021752352881 Q 39.29022366253748 3.185739069242003 39.206564309867275 3.185739069242003 Q 38.897022771395804 3.185739069242003 39.07336776938599 2.6420093152385804 L 39.07336776938599 2.6420093152385804 L 38.64402375195567 2.7726790720650847 L 38.34535043129228 2.25 Z"
     style="fill:#ffffff;stroke:none"
     id="path6" />
  <path
     d="M 43.10060316837083 2.7257847122740886 Q 42.82191321474858 2.7257847122740886 42.82191321474858 3.053654893215412 Q 42.82191321474858 3.3323442203436606 43.10060316837083 3.3323442203436606 Q 43.395686322268105 3.315951020068642 43.395686322268105 3.0208678661713657 Q 43.395686322268105 2.7257847122740886 43.10060316837083 2.7257847122740886 ZM 42.018630828421564 2.9388999853142432 L 42.018630828421564 3.23398313921152 L 41.37928438280709 3.348738047112689 Q 41.674367536704366 3.0372610664463835 42.018630828421564 2.9388999853142432 ZM 42.051417855465616 3.3323442203436606 Q 42.428468979719156 3.627428090234092 42.1825659636418 3.7749693986852972 Q 41.80551560013098 3.6438212010099655 41.62518663814172 3.4307052119766563 L 42.051417855465616 3.3323442203436606 ZM 43.19896433900212 2.5782427773288727 Q 43.96945960878593 2.5782427773288727 44.428477808404296 3.168409085123426 Q 44.887496008022666 3.758576198410279 44.920283124565856 4.988089667812462 Q 46.117009477424844 5.233991967896662 46.51045380195341 6.070061470766861 Q 46.57415463895014 6.611515900264761 46.26657221355047 6.611515900264761 Q 46.25752528204244 6.611515900264761 46.248157585601035 6.611047640741494 Q 45.920287494158856 6.5946535454750315 45.731762200529516 6.430718678752231 Q 45.6632076459361 6.371105804673079 45.628252502120034 6.371105804673079 Q 45.567081626935945 6.371105804673079 45.608810423993404 6.5536704552883425 Q 45.674384657079784 6.840556740550677 46.33012483996415 7.250394802349122 Q 46.98586609683824 7.660232148154413 46.43668359522353 7.930725054143441 Q 46.30042007395256 7.997840104499048 46.146494433537896 7.997840104499048 Q 45.680054606873 7.997840104499048 45.05143123274205 7.38154291052531 Q 44.215361729871844 6.5618664289318405 44.16618159205193 6.135635345856666 Q 44.11700073823885 5.70940426278149 44.51044577876056 5.34874705479612 Q 44.7443858022085 5.1343019139699875 44.67114757839267 5.1343019139699875 Q 44.621212425790965 5.1343019139699875 44.428477808404296 5.233991967896662 Q 43.95306569251776 5.479895162972307 43.9284756236078 5.955306383867403 Q 43.90388555469784 6.430718678752231 44.30552674786134 6.996294917636824 Q 44.707167046033405 7.561871156521417 45.887500377615666 8.430727417938229 Q 46.00815668009734 8.493678252105262 46.16070832964786 8.493678252105262 Q 46.48488031644527 8.493678252105262 46.95307898029505 8.209415365762277 Q 47.64160663771917 7.7913802563306005 46.2645516808675 6.922523636917211 Q 46.77275073429894 6.791375886737601 46.789143755575665 6.479899532565306 Q 47.42849055918672 6.693014537108028 50.37932317214922 10.447129536397535 Q 51.16621182120634 10.971721969102283 51.18260520047965 11.21762480618135 Q 51.16621182120634 11.447134263987111 50.93670307939374 11.496314401807032 Q 50.88752222558066 11.50685310505318 50.836835638162945 11.50685310505318 Q 50.650986726946414 11.50685310505318 50.4448974052356 11.36516665162742 Q 49.526860290005715 11.80779147197248 48.666201434218706 11.824184851245787 Q 48.620904127277505 11.825047622997374 48.57644668030694 11.825047622997374 Q 47.776206190898286 11.825047622997374 47.248161955194035 11.545495255620107 L 47.248161955194035 11.545495255620107 Q 47.78914776717209 12.02090683451178 47.62521325844587 12.54549926721653 Q 47.54572942634033 12.79984724355698 47.50478320980112 12.79984724355698 Q 47.46127803372649 12.79984724355698 47.46127803372649 12.512712508669916 Q 47.46127803372649 11.955332601425397 46.03504258105831 11.447134263987111 L 46.03504258105831 12.070087688324856 Q 45.9510759158103 12.422747968763774 45.901514511635426 12.422747968763774 Q 45.85431373689207 12.422747968763774 45.83831952380259 12.10287444687147 Q 45.739958532169595 11.397953410174035 45.371104276550994 10.586474692206952 Q 45.00225109492212 9.774995258246715 44.19896870859512 8.340563115941887 Q 43.395686322268105 6.906130615640482 43.17437427009216 6.274980501666084 Q 42.95306132292476 5.643830029695108 42.96945506019465 5.102843859720475 Q 42.985848260469666 4.5618576897458425 42.74814211302725 4.307758521026699 Q 42.51043686057628 4.053659352307555 42.60879794170842 3.758576198410279 Q 42.70715902284056 3.4634922390207032 42.313713982318845 3.201196112167473 L 42.313713982318845 2.922506829788797 Q 42.73994596038546 2.5782427773288727 43.19896433900212 2.5782427773288727 ZM 46.313731818687415 12.02090683451178 Q 47.11701420501443 12.25041629231754 47.11701420501443 12.561892646489836 L 46.57602803503979 14.578295480942295 Q 46.51045380195341 14.938952688927666 46.13340357269131 14.938952688927666 L 45.47766231581722 14.938952688927666 L 45.47766231581722 14.906165930381052 L 46.313731818687415 12.348777283950536 L 46.313731818687415 12.02090683451178 ZM 43.258125421400564 2.25 Q 43.22877131303656 2.25 43.19896433900212 2.2503725963875496 Q 42.5596169983962 2.2503725963875496 41.90387663651355 2.7749648948435817 Q 41.52682560175916 2.9061129582701963 41.133381366729736 3.3815250741567358 Q 41.674367536704366 3.8733303903182934 42.116991909553704 3.9880852982194623 Q 42.16617285286593 4.217594398028645 42.428468979719156 4.627431743833936 Q 42.44486209049503 5.70940426278149 42.72355204411729 6.422522347112155 Q 43.00224217673784 7.135639715449665 44.59241303312368 10.250407553131542 Q 45.379301324184226 11.88975908433217 45.379301324184226 12.266809671590847 Q 45.379301324184226 12.840582958108671 44.65798690821348 14.840590981301515 Q 44.65798690821348 14.955346068200972 43.67437645488866 15.0209195852942 Q 42.19895979041083 15.07010115510043 42.19895979041083 15.4307583630858 Q 42.19895979041083 15.643873725625099 42.39568195267511 15.643873725625099 L 46.75635699702905 15.643873725625099 Q 47.166194342834345 15.316003276186343 47.21537519664742 15.086494534373736 Q 47.608819163179405 15.250429759093116 47.64160663771917 15.529118638725642 Q 47.696826177800205 15.749999663022377 47.79854732530888 15.749999663022377 Q 47.81762066696077 15.749999663022377 47.838328620985166 15.74223400126494 Q 47.96947708715793 15.69305386344502 47.96947708715793 15.529118638725642 Q 47.85472200025847 15.086494534373736 47.395703800640106 14.676655756582136 L 47.92029623334486 12.463531654856839 Q 49.510466910732404 12.414351517036918 50.690800242314666 11.955332601425397 Q 50.90938078060489 12.004513455238474 51.0915308711835 12.004513455238474 Q 51.45583105234071 12.004513455238474 51.674410874637786 11.80779147197248 Q 52.00228132407654 11.512707781080339 51.54326312445817 10.889754356742595 Q 50.543258396868595 9.889750345146172 49.64161537690517 8.693023634290604 Q 47.78914776717209 6.414325299478924 47.100620109747965 6.0536673755004 Q 46.87111100993878 5.578256154605303 46.55143796612983 5.299566200983045 Q 46.23176456432431 5.020876784355652 45.395695061454106 4.611038722557207 Q 45.379301324184226 3.6438212010099655 44.944873909468974 2.9388999853142432 Q 44.520319324365865 2.25 43.258125421400564 2.25 Z"
     style="fill:#ffffff;stroke:none"
     id="path8" />
  <path
     d="M 21.39600372314453 0.375 L 21.39600372314453 17.625 "
     style="fill:none;stroke:#ffffff;stroke-width:1"
     id="path10" />
  <path
     d="M 21.39600372314453 0.375 L 24.02100372314453 0.375 "
     style="fill:none;stroke:#ffffff;stroke-width:1"
     id="path12" />
  <path
     d="M 21.39600372314453 17.625 L 24.02100372314453 17.625 "
     style="fill:none;stroke:#ffffff;stroke-width:1"
     id="path14" />
  <path
     d="M 24.02100372314453 0.375 L 51.809661865234375 0.375 "
     style="fill:none;stroke:#ffffff;stroke-width:1"
     id="path16" />
  <path
     d="M 24.02100372314453 17.625 L 51.809661865234375 17.625 "
     style="fill:none;stroke:#ffffff;stroke-width:1"
     id="path18" />
  <path
     d="M 51.809661865234375 0.375 L 69.43466186523438 0.375 "
     style="fill:none;stroke:#ffffff;stroke-width:1"
     id="path20" />
  <path
     d="M 51.809661865234375 17.625 L 69.43466186523438 17.625 "
     style="fill:none;stroke:#ffffff;stroke-width:1"
     id="path22" />
  <path
     d="M 53.57216186523438 0.375 L 53.57216186523438 17.625 "
     style="fill:none;stroke:#ffffff;stroke-width:1"
     id="path24" />
  <path
     d="M 57.09716186523437 0.375 L 57.09716186523437 17.625 "
     style="fill:none;stroke:#ffffff;stroke-width:1"
     id="path26" />
  <path
     d="M 58.85966186523437 0.375 L 58.85966186523437 17.625 "
     style="fill:none;stroke:#ffffff;stroke-width:1"
     id="path28" />
  <path
     d="M 60.622161865234375 2.1 L 69.43466186523438 2.1 "
     style="fill:none;stroke:#ffffff;stroke-width:1"
     id="path30" />
  <path
     d="M 60.622161865234375 5.550000000000001 L 69.43466186523438 5.550000000000001 "
     style="fill:none;stroke:#ffffff;stroke-width:1"
     id="path32" />
  <path
     d="M 60.622161865234375 2.1 L 60.622161865234375 5.550000000000001 "
     style="fill:none;stroke:#ffffff;stroke-width:1"
     id="path34" />
  <path
     d="M 62.38466186523438 3.825 L 69.43466186523438 3.825 "
     style="fill:none;stroke:#ffffff;stroke-width:1"
     id="path36" />
  <path
     d="M 60.622161865234375 7.275 L 69.43466186523438 7.275 "
     style="fill:none;stroke:#ffffff;stroke-width:1"
     id="path38" />
  <path
     d="M 60.622161865234375 10.725000000000001 L 69.43466186523438 10.725000000000001 "
     style="fill:none;stroke:#ffffff;stroke-width:1"
     id="path40" />
  <path
     d="M 60.622161865234375 7.275 L 60.622161865234375 10.725000000000001 "
     style="fill:none;stroke:#ffffff;stroke-width:1"
     id="path42" />
  <path
     d="M 62.38466186523438 9.000000000000002 L 69.43466186523438 9.000000000000002 "
     style="fill:none;stroke:#ffffff;stroke-width:1"
     id="path44" />
  <path
     d="M 60.622161865234375 12.450000000000001 L 69.43466186523438 12.450000000000001 "
     style="fill:none;stroke:#ffffff;stroke-width:1"
     id="path46" />
  <path
     d="M 60.622161865234375 15.900000000000002 L 69.43466186523438 15.900000000000002 "
     style="fill:none;stroke:#ffffff;stroke-width:1"
     id="path48" />
  <path
     d="M 60.622161865234375 12.450000000000001 L 60.622161865234375 15.900000000000002 "
     style="fill:none;stroke:#ffffff;stroke-width:1"
     id="path50" />
  <path
     d="M 62.38466186523438 14.175 L 69.43466186523438 14.175 "
     style="fill:none;stroke:#ffffff;stroke-width:1"
     id="path52" />
</svg>
