<?xml version="1.0" encoding="UTF-8" standalone="no"?>
<svg
   width="97.50930786132812"
   height="18.0"
   version="1.1"
   id="svg36"
   sodipodi:docname="netjerkheperresetepenamun.svg"
   inkscape:version="1.1.1 (3bf5ae0d25, 2021-09-20)"
   xmlns:inkscape="http://www.inkscape.org/namespaces/inkscape"
   xmlns:sodipodi="http://sodipodi.sourceforge.net/DTD/sodipodi-0.dtd"
   xmlns="http://www.w3.org/2000/svg"
   xmlns:svg="http://www.w3.org/2000/svg">
  <defs
     id="defs40" />
  <sodipodi:namedview
     id="namedview38"
     pagecolor="#ffffff"
     bordercolor="#666666"
     borderopacity="1.0"
     inkscape:pageshadow="2"
     inkscape:pageopacity="0.0"
     inkscape:pagecheckerboard="0"
     showgrid="false"
     inkscape:zoom="14.101218"
     inkscape:cx="48.754654"
     inkscape:cy="8.9708563"
     inkscape:window-width="1920"
     inkscape:window-height="1001"
     inkscape:window-x="-9"
     inkscape:window-y="-9"
     inkscape:window-maximized="1"
     inkscape:current-layer="svg36" />
  <path
     d="M 1.2190420140847793 0.0 C 0.970800706632417 0.0 0.7230423028937335 0.01893070358296025 0.48290982680079 0.048905678499779795 C 0.15187998957905166 0.13255188916498697 0.3219916247400915 0.5118521231009919 0.6158947927962716 0.5118521231009919 C 0.6355981423211179 0.5118521231009919 0.6558578408244597 0.5101473851910305 0.6765601864318946 0.5065345630073116 C 1.2976180869590601 0.5780119512905144 2.0622053316712337 0.6175539511807123 2.531371224901928 0.9695623988344474 C 3.1537543888207784 1.6479367557428735 2.8741262715941502 3.0576933712068692 2.94658764204448 3.7269297850416896 C 2.951782632395561 3.7629649381631523 2.953952713884158 6.430591781037886 2.953952713884158 7.782422252231933 C 2.352510186605274 7.494257626556917 1.67335422808609 7.349215125535265 1.0039192969246102 7.349215125535265 C 0.7063920462481148 7.349215125535265 0.41078504023889434 7.377865539465801 0.12477432975315178 7.4353349446232855 C -0.20149863151174055 7.606724672263251 0.18154647682350566 7.8266562324049085 0.4376378670454302 7.8266562324049085 C 0.4681373192956425 7.8266562324049085 0.4968360674978842 7.823536850015894 0.5223214865886322 7.816844331348357 C 1.429843884416301 7.914926816832979 2.4617098179841825 8.158078494744517 2.9226503683594482 9.002292523011262 C 2.9681809889039896 9.155077638776014 2.9396896697969415 9.207577525716367 2.870237404087557 9.207577525716367 C 2.717627362869183 9.207577525716367 2.3672466519332462 8.954092059534803 2.1698535251191053 8.954092059534803 C 2.1594948014573196 8.954092059534803 2.1495575210365625 8.954790250504107 2.140092081444407 8.956259682604495 C 1.7610785167129768 8.874396440250864 1.3638924072290621 8.831466124503471 0.9703996331480379 8.831466124503471 C 0.6822712691518855 8.831466124503471 0.39612316158451694 8.854483949517657 0.1205398348885778 8.90208807080806 C -0.19080937123302597 9.107627344268586 0.19133570335568265 9.296978982841198 0.44461121617263977 9.296978982841198 C 0.47243301123084086 9.296978982841198 0.4986997685303211 9.294694058069421 0.5223214865886322 9.289895224364907 C 1.44862453664532 9.401605077048192 2.473672484380784 9.652726246647584 2.9226503683594482 10.498359836231193 C 2.9277747669676573 11.438445880183364 2.9223641381582497 12.059730482053933 2.9475081443234266 12.924290385186742 C 2.9366830234749024 13.190445840004433 3.1097205941872907 13.32271720601211 3.2850258807391146 13.32271720601211 C 3.4589948410141766 13.32271720601211 3.635197450466691 13.192454719453337 3.636159394664339 12.93350313443563 C 3.6297524037925992 12.081649745019838 3.5689455193688686 11.333930766029841 3.680643079957625 10.507654766912083 C 3.905950499841305 9.580679119782916 5.51430012614692 9.438421656179063 6.5132119200872856 9.209440304841713 C 6.73117182826633 8.953197897458422 6.302254993763335 8.858046549715155 6.0257896324592775 8.858046549715155 C 5.984500135730289 8.858046549715155 5.946610983551 8.860169218839136 5.914784994799312 8.86419400179096 C 5.786745621336966 8.854375779085794 5.657882677541108 8.84931073373403 5.528823762638173 8.84931073373403 C 4.87588245171773 8.84931073373403 4.21792069818853 8.978947377079876 3.636159394664339 9.278489565451865 C 3.6124626948293947 8.719755569414783 4.162693019870619 8.398265319455419 4.5568162027996815 8.173701395689454 C 5.178845705598769 7.90617273831141 5.863655500797704 7.879904181098088 6.5132119200872856 7.736389411825166 C 6.745102634598536 7.535056141910107 6.380132787867637 7.365650007124583 6.127413645979344 7.365650007124583 C 6.0940901289112 7.365650007124583 6.06271789404902 7.368595192973972 6.034923712303174 7.3748016471035225 C 5.875700348626306 7.359480780481324 5.715556482670491 7.35166300836024 5.555429474444318 7.35166300836024 C 4.887519202007935 7.35166300836024 4.219896213380853 7.487670468699637 3.6205083975033348 7.782422252231933 C 3.6327889023442115 5.672151988401518 3.6669749732456607 3.6298724602408705 3.6064121746990256 1.633623314068084 C 3.557780785508615 1.016382811297887 3.202148013782708 0.4498605441665941 2.6039100355477967 0.2652764822581205 C 2.1742288083663857 0.06980961445750675 1.6957449806778964 0.0 1.2190420140847793 0.0 Z"
     style="fill:#ffffff;stroke:none"
     id="path2" />
  <path
     d="M 3.29314921521244 15.21501288860129 C 4.074491287174412 15.21501288860129 5.052497037940845 15.616391919330065 5.5257419749406465 16.089636856329868 C 5.939782214238027 16.503676744424546 5.993910276899555 17.05261639954012 6.009086799211701 17.562687749346416 L 0.6002280514165623 17.562687749346416 C 0.615404749330059 17.05261639954012 0.6695328119915868 16.503676744424546 1.0835728756876173 16.089636856329868 C 1.5568179882887687 15.616391919330065 2.5118074944531683 15.21501288860129 3.29314921521244 15.21501288860129 ZM 3.29314921521244 14.777700904737003 C 2.3662267752924526 14.777700904737003 1.3688759017560481 15.205906904973462 0.7843594130436309 15.79042339368588 C 0.1848327417701466 16.38995028583294 0.11688322714550736 17.179222163577567 0.11688322714550736 17.769835531176867 L 0.11688322714550736 17.999999733210704 L 6.469415203279373 17.999999733210704 L 6.469415203279373 17.769835531176867 C 6.469415203279373 17.179222163577567 6.42448232973169 16.38995028583294 5.824955437584633 15.79042339368588 C 5.240439300074916 15.205906904973462 4.220071830733778 14.777700904737003 3.29314921521244 14.777700904737003 Z"
     style="fill:#ffffff;stroke:none"
     id="path4" />
  <path
     d="M 19.59558827849137 2.2331113889984504 Q 20.011497239301697 2.2331113889984504 20.406868373464476 2.6849636002931274 Q 17.14505908393548 6.568070899826414 16.329606932707488 7.024335296803508 Q 15.721254175199014 7.364724151693918 15.258781670883675 7.364724151693918 Q 15.101344397401952 7.364724151693918 14.960813057159163 7.325276517725049 Q 14.407469963604743 7.169951972435412 13.776464255096982 7.150536917736989 Q 13.760688966903167 7.150051524254103 13.744834947749503 7.150051524254103 Q 13.12652956999073 7.150051524254103 12.38825395561615 7.88832679632016 L 12.291175943655867 7.88832679632016 Q 12.815395428237089 6.665148911786697 13.75704954270708 6.140928742588433 Q 14.698701945634467 5.6167096003157315 19.2807685008913 2.2966530928403377 Q 19.439622247033235 2.2331113889984504 19.59558827849137 2.2331113889984504 ZM 13.822576293662692 0.46382689862325743 Q 13.87160069312572 0.46382689862325743 13.922081273037408 0.4715931515608784 L 13.922081273037408 5.461385397334616 Q 12.38825395561615 6.354500505824466 11.805788280014095 7.965988384347936 Q 12.698902703886905 1.79184917642032 13.058089773520756 1.0928900062739073 Q 13.381357725420997 0.46382689862325743 13.822576293662692 0.46382689862325743 ZM 9.823471846940608 8.280349468529765 Q 9.763159224955167 8.280349468529765 9.708909828226425 8.383422671928184 Q 9.611832586460313 8.567870141573977 9.883650198408658 8.897933602234632 Q 10.038974144658383 8.4902085535462 9.922481420308197 8.344591877914295 Q 9.871087133376625 8.280349468529765 9.823471846940608 8.280349468529765 ZM 9.850515161454094 8.003054920244196 Q 9.964842185368557 8.003054920244196 10.097221020296256 8.179560147583969 Q 10.388454200405805 8.567870141573977 9.922481420308197 9.732803546629212 Q 9.398261764572714 8.723195371480656 9.602124802379711 8.257221735611745 Q 9.713322784103013 8.003054920244196 9.850515161454094 8.003054920244196 ZM 14.931688078951879 9.926958201315696 L 14.931688078951879 10.218190867962463 Q 14.718118369566973 10.198775813264039 14.601625302908268 10.082282061988291 Q 14.640456096922156 10.024035528658937 14.756948478963821 9.926958201315696 ZM 15.378245975505326 10.587085807254049 L 17.183890562566404 10.839488364503968 L 17.552786186475032 11.499616655059363 Q 16.931489374550573 11.32487637045426 16.183991626309666 11.033644388424536 Q 15.43649319345172 10.742411037160727 15.378245975505326 10.587085807254049 ZM 11.39806151978306 10.315268879922746 L 11.747541404376221 10.490008479910806 L 11.864034128726408 11.32487637045426 L 11.553386065072697 12.276239381507548 L 11.067997716813883 12.276239381507548 L 11.39806151978306 11.32487637045426 L 11.39806151978306 10.315268879922746 ZM 12.232929752635034 10.606502231186555 L 12.562994240221252 10.703579558529796 L 12.679486964571439 11.32487637045426 L 12.368838216300684 12.276239381507548 L 11.883450552658914 12.276239381507548 L 12.21351435562809 11.32487637045426 L 12.232929752635034 10.606502231186555 ZM 13.37844604914072 10.72299461322822 L 13.494939115799427 11.32487637045426 L 13.184290367528675 12.276239381507548 L 12.698902703886905 12.276239381507548 L 13.028966164547558 11.32487637045426 L 13.028966164547558 10.742411037160727 L 13.37844604914072 10.72299461322822 ZM 12.635970993829574 8.307902566008263 Q 12.94616549869286 8.307902566008263 13.300783776495901 8.383422671928184 Q 14.349222745658347 8.606700935587865 14.621040357606692 9.441570195365404 L 15.43649319345172 9.441570195365404 L 15.747140914796912 8.936765765482605 Q 19.863233149567787 9.888126722684765 20.387455372617175 12.373316708850789 Q 19.261352076958786 11.752018527692242 18.018759137726903 11.538448133690293 L 17.475123229213175 10.451177001279875 L 15.319998757558931 10.159943650016068 L 15.378245975505326 9.635724850051886 L 14.640456096922156 9.635724850051886 Q 13.825002918768604 10.30727392210448 12.976631641685719 10.30727392210448 Q 12.794837747695311 10.30727392210448 12.611532561584353 10.276437401291815 Q 11.572801804388162 10.101698485920798 11.252445186459676 9.567771131681843 Q 10.93208856853119 9.033843092825846 11.592216516778063 8.596994435164216 Q 12.029066885982298 8.307902566008263 12.635970993829574 8.307902566008263 ZM 14.014203342229544 0.0 Q 13.306659502260182 0.0 12.902764885922597 0.4910087625106481 Q 12.407668668006053 1.0928900062739073 11.980527880002157 3.655740467965014 L 11.300984192439817 8.101897190322108 Q 10.97091987600786 8.451378444149354 10.7961802760198 8.4902085535462 L 10.563193800393865 8.4902085535462 Q 10.543778232232661 8.004819862978866 10.194298176485239 7.597094129673393 Q 9.883650198408658 4.626517849099683 10.466115788433582 2.3937311048006213 L 10.233129483961907 1.9471738928642175 Q 9.398261764572714 4.471192276884482 9.825403408347913 7.616509184371816 L 9.767156618287169 7.616509184371816 Q 8.427485014569381 4.607101425167175 9.378846196411509 1.9471738928642175 L 9.145859806362706 1.5976940082710553 L 9.145859806362706 1.5976940082710553 Q 7.90326545510817 4.4323618251791155 9.41767741831105 7.752417990345988 Q 8.99053577453585 8.684363892849726 9.330307190431368 9.286245650075767 Q 9.670079376521057 9.888126722684765 9.747741050125965 10.412346207265987 L 9.883650198408658 10.509424219226272 Q 10.407869083949969 9.732803546629212 10.485531356594787 9.16975258341706 L 10.679686695898312 9.16975258341706 Q 10.699102264059515 9.616309110736422 10.93208856853119 10.101698485920798 L 11.067997716813883 11.32487637045426 L 10.737933400381925 12.276239381507548 L 9.048781837190987 12.276239381507548 L 9.048781837190987 12.742211648142375 L 13.922081273037408 12.742211648142375 L 13.922081273037408 12.276239381507548 L 13.51435451280637 12.276239381507548 L 13.825003261077125 11.32487637045426 L 13.84441900039259 10.606502231186555 Q 14.19389820036871 10.490008479910806 14.368638484973811 10.33468393462117 Q 14.621040357606692 10.567671437172667 14.931688078951879 10.567671437172667 Q 14.912273708870499 10.76182609185915 15.009351720830782 10.89773421321628 Q 15.785971708810798 11.499616655059363 17.78577231979245 11.946173182378724 L 18.465315665046262 13.266429763489512 Q 18.465315665046262 12.942390932799807 18.666445882775246 12.942390932799807 Q 18.73044046079052 12.942390932799807 18.81479623425647 12.97519504299162 L 18.27116032574274 12.00442040032512 L 18.27116032574274 12.00442040032512 Q 19.39726088293296 12.256823642192083 19.97972758546058 12.645134320799134 Q 20.290376676039852 12.97519504299162 19.94089679144669 13.44116867886053 Q 20.71751746404375 13.11110658743396 20.814596160621075 12.509224145590878 Q 20.503945700807716 9.577479001339576 15.552985575493386 8.431961335599805 L 15.203506375517266 9.014428722744466 L 14.892857284937993 9.014428722744466 Q 14.640456096922156 8.198975202282393 12.893057700881908 7.88832679632016 Q 13.283009064230479 7.599008318923254 13.852256838599681 7.599008318923254 Q 14.161630487629424 7.599008318923254 14.523962345646407 7.684463587358902 Q 14.891470935427632 7.771140212597752 15.241644337084495 7.771140212597752 Q 15.87195550160299 7.771140212597752 16.446100683983236 7.490308248055377 Q 17.339214423239 7.053458905776705 20.989335075992095 2.665548716748965 Q 20.31660024722249 1.8173165880798985 19.56675152405883 1.8173165880798985 Q 19.321111613951302 1.8173165880798985 19.067196737655266 1.9083427565418083 L 14.349222745658347 5.286645797346556 L 14.349222745658347 0.025035944973045218 Q 14.173971736739798 0.0 14.014203342229544 0.0 Z"
     style="fill:#ffffff;stroke:none"
     id="path6" />
  <path
     d="M 14.787816725437374 15.285542133461169 C 15.549371373096287 15.285542133461169 16.502609207919512 15.676756272943992 16.963869255453197 16.13801632047768 C 17.367423959429352 16.541570682145313 17.42018123331472 17.07660848522664 17.434973411436005 17.573762319663377 L 12.163093570676018 17.573762319663377 C 12.177885919951562 17.07660848522664 12.230643193836931 16.541570682145313 12.634197726658826 16.13801632047768 C 13.095457945346773 15.676756272943992 14.02626242008698 15.285542133461169 14.787816725437374 15.285542133461169 ZM 14.787816725437374 14.859305039952915 C 13.884368520776045 14.859305039952915 12.912275476840618 15.276666758126694 12.34256182057423 15.846380414393082 C 11.758218113396996 16.430724336850286 11.69198941469321 17.200007968606588 11.69198941469321 17.775664100798863 L 11.69198941469321 17.99999941317163 L 17.883644036181536 17.99999941317163 L 17.883644036181536 17.775664100798863 C 17.883644036181536 17.200007968606588 17.839849083994995 16.430724336850286 17.25550516153779 15.846380414393082 C 16.685791847579925 15.276666758126694 15.691265101252963 14.859305039952915 14.787816725437374 14.859305039952915 Z"
     style="fill:#ffffff;stroke:none"
     id="path8" />
  <path
     d="M 33.655542253811426 8.203407192002246 C 33.14464679780286 8.243740548330095 32.86231004489047 8.499188095300077 32.808531814039966 8.969749289809286 C 32.875754738378824 9.48064510788646 33.15809149129121 9.749537529379097 33.655542253811426 9.776426916355803 C 34.15299301633164 9.749537529379097 34.4151629100458 9.48064510788646 34.4420515728853 8.969749289809286 C 34.40171821655745 8.499188095300077 34.13954832284329 8.243740548330095 33.655542253811426 8.203407192002246 ZM 33.7160424693375 6.509385226253514 C 34.079047383180004 6.509385226253514 34.415163272114405 6.576608422143824 34.7243894120035 6.711054813924445 C 35.03361518982398 6.845501205705066 35.30586833210295 7.030364654964103 35.54114883884041 7.2656453427358585 C 35.776429707646464 7.500926030507614 35.96129324742265 7.769818270965949 36.09573945816897 8.07232170204226 C 36.230185306846685 8.374825314152872 36.29740805015124 8.694134883641077 36.29740805015124 9.030250591541176 C 36.29740805015124 9.37981044982672 36.230185306846685 9.705842366059102 36.09573945816897 10.008346340238319 C 35.96129324742265 10.310849952348931 35.776429707646464 10.576381290986632 35.54114883884041 10.80493963201421 C 35.30586833210295 11.03349797304179 35.03361518982398 11.2116389850395 34.7243894120035 11.339363392144548 C 34.415163272114405 11.467087075112389 34.079047383180004 11.530948735562006 33.7160424693375 11.530948735562006 C 33.35303809859791 11.530948735562006 33.01356185094578 11.467087075112389 32.69761354534681 11.339363392144548 C 32.38166469664494 11.2116389850395 32.109411192297365 11.03349797304179 31.880853122821236 10.80493963201421 C 31.652294419725052 10.576381290986632 31.470792234355255 10.310849952348931 31.33634647619469 10.008346340238319 C 31.201900129672648 9.705842366059102 31.134676933782337 9.37981044982672 31.134676933782337 9.030250591541176 C 31.134676933782337 8.694134883641077 31.201900129672648 8.374825314152872 31.33634647619469 8.07232170204226 C 31.470792234355255 7.769818270965949 31.652294419725052 7.500926030507614 31.880853122821236 7.2656453427358585 C 32.109411192297365 7.030364654964103 32.38166469664494 6.845501205705066 32.69761354534681 6.711054813924445 C 33.01356185094578 6.576608422143824 33.35303809859791 6.509385226253514 33.7160424693375 6.509385226253514 ZM 33.67570947507826 5.823710203170776 C 33.23203676237424 5.823710203170776 32.815253617681236 5.907739107516513 32.42535967893063 6.075796916207987 C 32.03546592121433 6.243854747528749 31.699350575382834 6.472413088556328 31.417013731953297 6.761471961920012 C 31.134676933782337 7.050531423645179 30.909479630351118 7.386646678959522 30.741421821659646 7.769817908897345 C 30.573364612644298 8.152989681938074 30.489336013793945 8.566411562741841 30.489336013793945 9.010083370274344 C 30.489336013793945 9.45375535884115 30.573364612644298 9.867177239644917 30.741421821659646 10.250349012685646 C 30.909479630351118 10.633520785726375 31.134676933782337 10.966275229737235 31.417013731953297 11.24861198264962 C 31.699350575382834 11.530948735562006 32.03546592121433 11.756146355803253 32.42535967893063 11.924204119236151 C 32.815253617681236 12.09226115853184 33.23203676237424 12.17629004024829 33.67570947507826 12.17629004024829 C 34.11938146364506 12.17629004024829 34.532802982380225 12.09226115853184 34.915974031283746 11.924204119236151 C 35.299145804324475 11.756146355803253 35.63526133119027 11.530948735562006 35.92432097394974 11.24861198264962 C 36.213379892572 10.966275229737235 36.44193823359958 10.633520785726375 36.60999563496387 10.250349012685646 C 36.77805412253398 9.867177239644917 36.86208300425043 9.45375535884115 36.86208300425043 9.010083370274344 C 36.86208300425043 8.566411562741841 36.77805412253398 8.152989681938074 36.60999563496387 7.769817908897345 C 36.44193823359958 7.386646678959522 36.213379892572 7.050531423645179 35.92432097394974 6.761471961920012 C 35.63526133119027 6.472413088556328 35.299145804324475 6.243854747528749 34.915974031283746 6.075796916207987 C 34.532802982380225 5.907739107516513 34.11938146364506 5.823710203170776 33.67570947507826 5.823710203170776 Z"
     style="fill:#ffffff;stroke:none"
     id="path10" />
  <path
     d="M 43.52698128561771 2.701834964452948 L 43.5098380960107 5.309998768668603 L 43.50738917012345 5.309998768668603 C 41.81894863337042 5.164899024353775 40.35905213924525 5.055389993875436 38.805348262124745 4.877755203012128 L 38.805348262124745 2.8989805380643654 L 43.52698128561771 2.701834964452948 ZM 43.741266905327706 2.25 L 43.51963415375783 2.259795750590935 L 38.575144402773795 2.4655101629016385 C 38.456498233761465 2.469930776967526 38.36248052625482 2.5671904184722165 38.362082958221436 2.6859202225185546 L 38.362082958221436 5.076124044148473 C 38.36179502281154 5.188738329653354 38.446127002522125 5.283613487193504 38.55800130171632 5.296530384684999 C 40.19868680962314 5.489554198904721 41.71276995083174 5.599853268317325 43.469429756276696 5.750814991722979 L 43.506165061377956 5.754491922535177 L 43.44004229143158 15.749999700598574 L 44.76494024068009 15.749999700598574 L 44.4355529790806 2.2671415597421634 L 43.74249136827133 2.2671415597421634 L 43.741266905327706 2.25 Z"
     style="fill:#ffffff;stroke:none"
     id="path12" />
  <path
     d="M 50.129034031859845 6.319431782116482 Q 51.342396858803596 6.450101762738325 52.07041383882476 6.898112459878494 Q 52.38775491341563 7.887469759215888 51.90240978263813 8.970162963610337 Q 51.11839133119724 9.119499982014574 50.7543819460053 9.24083644374522 Q 50.39037363503099 9.362172905475866 50.129034031859845 9.436841056605441 Q 49.13967655348618 9.119499982014574 48.29965627255302 8.988829285247647 Q 47.870312076086435 7.887469759215888 48.18765332971358 6.898112459878494 Q 49.083674903030186 6.431435083028473 50.129034031859845 6.319431782116482 ZM 48.543852615646124 9.386173075705337 Q 49.22501222276381 9.386173075705337 49.96102925952813 9.866185790180845 L 49.96102925952813 13.73027836632828 Q 49.083674903030186 13.431604329519805 48.50499440430444 12.778255142555674 Q 48.2436548011333 11.060880505124572 48.318322952262875 9.399506981040654 Q 48.43032589510233 9.386173075705337 48.543852615646124 9.386173075705337 ZM 51.69554805221863 9.386173075705337 Q 51.80907459372616 9.386173075705337 51.921077536565605 9.399506981040654 Q 51.995745687695184 11.04221346734218 51.75307348037897 12.75958810477328 Q 51.174392086471876 13.431604329519805 50.278370334118996 13.73027836632828 L 50.278370334118996 9.866185790180845 Q 51.01438880317349 9.386173075705337 51.69554805221863 9.386173075705337 ZM 52.686429666369186 2.25 Q 52.48109081847268 2.4553379974742158 52.55575968574735 2.9033488736506565 Q 53.283777739986135 4.266048853275846 53.22777591049387 4.95673265291358 Q 53.1717740810016 5.647415557369957 52.66776191244171 6.674106932272138 Q 52.20108417751915 6.282097706551693 51.58506870804726 6.188762159567181 Q 51.65973793339447 5.703417028789681 51.24906095374654 5.386075954198812 L 51.19305948232682 4.9940667284783675 L 50.74504878518665 5.62874816151502 Q 50.85705101188101 5.143403925918876 51.13705872705218 4.751393805017075 L 51.174392086471876 4.564722532011778 Q 50.875718407735945 4.564722532011778 50.80105025660637 4.844729531037859 Q 50.6143788045648 4.658058258032563 50.353039201393656 4.564722532011778 L 50.353039201393656 4.8073954554730705 L 50.24103625855421 4.8073954554730705 L 50.24103625855421 4.546055852301928 L 50.01703073094785 4.546055852301928 L 50.01703073094785 4.8073954554730705 L 49.88636110839855 4.8073954554730705 L 49.88636110839855 4.564722532011778 Q 49.62502150522741 4.658058258032563 49.45701744904078 4.844729531037859 Q 49.38234858176612 4.564722532011778 49.083674903030186 4.564722532011778 L 49.10234247792139 4.770061379908283 Q 49.40101597762106 5.143403925918876 49.49435188267811 5.62874816151502 L 49.0463408274654 4.9940667284783675 L 48.99033935604567 5.386075954198812 Q 48.59832995128896 5.703417028789681 48.65433160174495 6.188762159567181 Q 48.056983528128 6.282097706551693 47.571638486868636 6.674106932272138 Q 47.06762604975434 5.666082953224892 47.01162453357555 4.966065992768505 Q 46.95562373354184 4.266048853275846 47.68364080308114 2.9220163142646607 Q 47.75830984939207 2.4553379974742158 47.5529710910137 2.268667432221679 L 47.272964091987625 2.791346512679089 L 46.84362065642519 2.6606767558525846 L 46.84362065642519 2.6606767558525846 Q 47.007891090211814 3.198289869927008 46.69428368278002 3.198289869927008 Q 46.61588193162997 3.198289869927008 46.50761287974493 3.1646891482078177 L 46.50761287974493 3.1646891482078177 Q 46.731618340212684 3.8927063072652537 46.26494002342224 4.023376108850826 L 47.21696333671298 7.028782440500337 Q 47.42423255368577 7.369296537747643 47.58453446948455 7.369296537747643 Q 47.62635241894389 7.369296537747643 47.66497412337129 7.346123515091206 Q 47.66497412337129 8.036807135692667 47.870312076086435 8.727490756294129 Q 47.10496021483726 8.914161850263154 46.95562373354184 9.539510480553695 Q 46.80628653610133 10.164858394699149 47.08629353512741 11.527558598119679 L 47.25429741227777 11.546225635902072 L 47.32896565292548 11.751563767653492 L 47.47830285036599 11.732896729871099 Q 47.40363460971828 11.079547542906967 47.41296794957321 10.538201298782285 Q 47.422301289428134 9.996854338512518 47.720974968164064 9.306171075983599 L 47.92631372654243 9.306171075983599 Q 47.92631372654243 10.426198355942836 48.07565092398294 12.012904445042263 L 47.739642364019 11.69556265430631 Q 47.03029197418955 12.068904842244361 47.00229119372062 12.750254585882082 Q 46.97429041325169 13.431604329519805 47.17962917163006 14.234290534888173 Q 47.38496721386334 15.036976740256542 47.92631372654243 15.671658889438278 Q 48.014446837557855 15.749999432563103 48.05506193182901 15.749999432563103 Q 48.169291906846155 15.749999432563103 47.90764633068749 15.130311929168512 L 47.96364780210722 14.962308589126966 Q 47.66497412337129 14.21562349710578 47.571638486868636 13.571607829032844 Q 47.47830285036599 12.927592160959911 47.83297800052165 12.423579992400017 L 47.83297800052165 12.442247030182411 Q 48.52366180015938 13.879615384732517 50.129034031859845 14.140955345976202 Q 51.73440608452404 13.879615384732517 52.4250897051255 12.423579992400017 Q 52.761097817498765 12.927592160959911 52.66776191244171 13.571607829032844 Q 52.57442672352974 14.21562349710578 52.27575268672126 14.962308589126966 L 52.33175380006845 15.130311929168512 Q 52.07010840294606 15.749999432563103 52.18433855699948 15.749999432563103 Q 52.224953651270624 15.749999432563103 52.313086762286055 15.671658889438278 Q 52.85443300641074 15.036976740256542 53.059771854307236 14.234290534888173 Q 53.26510998605866 13.431604329519805 53.237109429385065 12.750254585882082 Q 53.209108872711475 12.068904842244361 52.51842489403747 11.69556265430631 L 52.163749385809275 12.012904445042263 Q 52.33175380006845 10.426198355942836 52.313086762286055 9.306171075983599 L 52.51842489403747 9.306171075983599 Q 52.83576596862834 9.978187300730124 52.83576596862834 10.528867779891089 Q 52.83576596862834 11.079547542906967 52.77976485528116 11.714229692088704 L 52.9291018736854 11.732896729871099 L 53.00376930866989 11.527558598119679 L 53.15310704321921 11.508891560337284 Q 53.43311404224529 10.164858394699149 53.29311054273225 9.539510480553695 Q 53.15310704321921 8.914161850263154 52.38775491341563 8.727490756294129 Q 52.59309376131213 8.036807135692667 52.57442672352974 7.346123515091206 L 52.57442672352974 7.346123515091206 Q 52.611094068020506 7.3627907177240814 52.64895236178742 7.3627907177240814 Q 52.82309951051213 7.3627907177240814 53.02243706259736 7.010115760790486 L 53.97446028636997 4.023376108850826 Q 53.52644923115726 3.874039627555402 53.75045511683616 3.146021752352881 L 53.75045511683616 3.146021752352881 Q 53.63130289761438 3.185739069242003 53.54764354494418 3.185739069242003 Q 53.23810200647271 3.185739069242003 53.41444700446289 2.6420093152385804 L 53.41444700446289 2.6420093152385804 L 52.985102987032576 2.7726790720650847 L 52.686429666369186 2.25 Z"
     style="fill:#ffffff;stroke:none"
     id="path14" />
  <path
     d="M 57.312425439523906 2.9892379897054955 C 57.59004354072692 2.9892379897054955 57.92989885045311 3.095985977015074 58.02898953717978 3.340333519869274 L 57.99250792208533 11.279334014803599 L 57.99250792208533 11.279334014803599 C 57.8516971307565 10.960512872387417 57.43339875734189 10.367342335933275 56.190953934467885 9.632436990092634 L 57.13421474427718 3.06154244747758 C 57.17846627521481 3.0145252182361735 57.17730610528385 2.9892379897054955 57.312425439523906 2.9892379897054955 ZM 57.99250792208533 11.279334014803599 L 57.99250792208533 11.279334014803599 C 57.99250792208533 11.279334014803599 57.9925081011239 11.279334014803599 57.9925081011239 11.279334014803599 L 57.99250792208533 11.279334014803599 L 57.99250792208533 11.279334014803599 ZM 57.180417974661935 2.25 C 56.96791262044834 2.25 56.77610851132459 2.280338063237631 56.64031115802148 2.317373030601139 L 55.47446060180664 10.098160711168036 C 56.091179365165004 10.520569989179059 57.78601539919293 11.67797341616124 57.718430487634585 12.683307927520042 L 57.73106810410784 15.75000086141948 L 58.59184472591481 15.73816856043225 L 58.58701748800146 3.119482909369111 C 58.331052132366395 2.427915471835376 57.69503641293878 2.25 57.180417974661935 2.25 Z"
     style="fill:#ffffff;stroke:none"
     id="path16" />
  <path
     d="M 73.47473462298512 4.029639604501426 L 73.47473462298512 5.785550680942833 L 60.54268683027476 5.785550680942833 L 60.54268683027476 4.029639604501426 ZM 60.5901438863948 2.25 L 60.5901438863948 3.578797571361065 L 60.0918447971344 3.578797571361065 L 60.0918447971344 6.236392714083195 L 73.92557665612549 6.236392714083195 L 73.92557665612549 3.578797571361065 L 73.52219167910516 3.578797571361065 L 73.52219167910516 2.25 L 73.0713496459648 2.25 L 73.0713496459648 3.578797571361065 L 71.95610882714391 3.578797571361065 L 71.95610882714391 2.25 L 71.50526679400355 2.25 L 71.50526679400355 3.578797571361065 L 70.39002597518265 3.578797571361065 L 70.39002597518265 2.25 L 69.93918394204229 2.25 L 69.93918394204229 3.578797571361065 L 68.84767165128142 3.578797571361065 L 68.84767165128142 2.25 L 68.37310109008104 2.25 L 68.37310109008104 3.578797571361065 L 67.28158879932016 3.578797571361065 L 67.28158879932016 2.25 L 66.8307467661798 2.25 L 66.8307467661798 3.578797571361065 L 65.7155059473589 3.578797571361065 L 65.7155059473589 2.25 L 65.26466391421854 2.25 L 65.26466391421854 3.578797571361065 L 64.14942309539765 3.578797571361065 L 64.14942309539765 2.25 L 63.69858106225729 2.25 L 63.69858106225729 3.578797571361065 L 62.607068771496415 3.578797571361065 L 62.607068771496415 2.25 L 62.156226738356054 2.25 L 62.156226738356054 3.578797571361065 L 61.04098591953516 3.578797571361065 L 61.04098591953516 2.25 Z"
     style="fill:#ffffff;stroke:none"
     id="path18" />
  <path
     d="M 61.420642368495464 12.54664921760559 L 61.135900031775236 13.163590947166085 L 60.23421596549451 15.180515832267702 L 60.0918447971344 15.46525816898793 L 60.685057998634875 15.750000505708158 L 60.82742916699499 15.44152964092791 L 61.44437089655548 14.041546485386789 L 61.75284176133573 14.587302630767226 L 62.03758409805596 15.156787304207683 L 62.32232643477619 14.587302630767226 L 62.65452582761645 13.99408942926675 L 62.9629966923967 14.587302630767226 L 63.24773902911693 15.156787304207683 L 63.53248136583716 14.587302630767226 L 63.840952230617404 13.99408942926675 L 64.17315162345767 14.587302630767226 L 64.4578939601779 15.156787304207683 L 64.74263629689813 14.587302630767226 L 65.05110716167837 14.01781795732677 L 65.35957802645862 14.587302630767226 L 65.66804889123887 15.156787304207683 L 65.9527912279591 14.587302630767226 L 66.26126209273934 13.99408942926675 L 66.56973295751959 14.587302630767226 L 66.87820382229984 15.156787304207683 L 67.16294615902007 14.587302630767226 L 67.47141702380031 13.99408942926675 L 67.77988788858056 14.587302630767226 L 68.08835875336081 15.156787304207683 L 68.37310109008104 14.587302630767226 L 68.68157195486128 13.99408942926675 L 68.99004281964153 14.587302630767226 L 69.27478515636176 15.156787304207683 L 69.583256021142 14.587302630767226 L 69.89172688592225 13.99408942926675 L 70.2001977507025 14.587302630767226 L 70.48494008742273 15.156787304207683 L 70.79341095220298 14.587302630767226 L 71.10188181698322 13.99408942926675 L 71.43408120982349 14.611031158827245 L 71.71882354654372 15.133058776147664 L 72.02729441132396 14.611031158827245 L 72.35949380416423 13.970360901206732 L 73.1899922862649 15.46525816898793 L 73.35609198268503 15.750000505708158 L 73.92557665612549 15.44152964092791 L 73.78320548776537 15.156787304207683 L 72.64423614088446 13.116133891046047 L 72.35949380416423 12.617834801785648 L 72.074751467444 13.139862419106066 L 71.71882354654372 13.75680414866656 L 71.38662415370345 13.139862419106066 L 71.0781532889232 12.594106273725629 L 70.817139480263 13.139862419106066 L 70.48494008742273 13.733075620606542 L 70.17646922264248 13.139862419106066 L 69.89172688592225 12.57037774566561 L 69.60698454920202 13.139862419106066 L 69.29851368442178 13.733075620606542 L 68.96631429158151 13.139862419106066 L 68.68157195486128 12.57037774566561 L 68.39682961814106 13.139862419106066 L 68.06463022530079 13.733075620606542 L 67.75615936052054 13.139862419106066 L 67.47141702380031 12.57037774566561 L 67.18667468708009 13.139862419106066 L 66.87820382229984 13.733075620606542 L 66.54600442945957 13.139862419106066 L 66.26126209273934 12.57037774566561 L 65.97651975601912 13.139862419106066 L 65.66804889123887 13.709347092546523 L 65.35957802645862 13.139862419106066 L 65.05110716167837 12.57037774566561 L 64.76636482495815 13.139862419106066 L 64.4578939601779 13.733075620606542 L 64.14942309539765 13.139862419106066 L 63.840952230617404 12.57037774566561 L 63.556209893897176 13.139862419106066 L 63.24773902911693 13.733075620606542 L 62.93926816433668 13.139862419106066 L 62.65452582761645 12.57037774566561 L 62.346054962836206 13.139862419106066 L 62.03758409805596 13.733075620606542 L 61.72911323327571 13.139862419106066 L 61.420642368495464 12.54664921760559 Z"
     style="fill:#ffffff;stroke:none"
     id="path20" />
  <path
     d="M 76.10421133041382 7.043162668123841 L 76.10421133041382 8.360095975454897 L 79.010955927249 8.360095975454897 L 79.010955927249 7.043162668123841 L 78.44147125380854 7.043162668123841 C 78.27537155738841 7.335814393507874 78.0855434234254 7.5256426179880265 77.87198667088524 7.612647341564298 C 77.76520829461515 7.6561498843867355 77.65892423250726 7.67790079372935 77.55313466559588 7.67790079372935 C 77.44734500816735 7.67790079372935 77.34204975541816 7.6561498843867355 77.23724890734833 7.612647341564298 C 77.02764666810576 7.5256426179880265 76.83979567764511 7.335814393507874 76.67369598688231 7.043162668123841 ZM 77.8672409471698 2.25 L 77.8672409471698 4.4330245815217495 L 77.2075878852047 4.4330245815217495 L 77.2075878852047 7.102483988273889 L 77.91944372700527 7.102483988273889 L 77.91944372700527 5.429622760042548 L 78.74519648539051 5.429622760042548 L 78.74519648539051 3.139819802250713 L 79.76552319197133 3.139819802250713 C 79.94744202778767 4.563531485851854 80.44178624168187 5.6214282411715 81.24855619572251 6.313510068209652 C 82.05532614976316 7.005592257316408 83.05192432828396 7.406999977687931 84.23835073128491 7.517733229324222 C 85.42477713428586 7.628466480960512 86.20386404696889 7.7846791699994355 86.57561074519678 7.986372020578202 C 86.94735744342468 8.188064147019759 87.13323115460723 8.391734254247325 87.13323115460723 8.597381256055087 L 88.58067136626839 8.597381256055087 C 88.35920486299581 8.067444250070864 88.06259826224557 7.66405927305054 87.69085156401768 7.387226324994117 C 87.31910486578978 7.110393376937694 86.62899920919462 6.936384291853756 85.62053676664381 6.865198707673699 C 84.612074324093 6.794013123493642 83.80530509418956 6.661528962514737 83.20022690452187 6.467746224736985 C 82.5951501631286 6.273963124890628 82.05532614976316 5.929899105951748 81.58075558856278 5.4355545299889485 C 81.1061850273624 4.941210497129056 80.74234771779831 3.879358866443205 80.4892432978019 2.25 Z"
     style="fill:#ffffff;stroke:none"
     id="path22" />
  <path
     d="M 76.75437354296446 12.546648502349854 L 76.46963120624423 13.163590231910348 L 75.56794713996351 15.180515117011964 L 75.4255759716034 15.465257453732193 L 76.01878917310387 15.74999979045242 L 76.16116034146398 15.441528925672174 L 76.77810207102448 14.041545770131052 L 77.08657293580472 14.587301915511489 L 77.37131527252495 15.156786588951945 L 77.65605760924518 14.587301915511489 L 77.98825700208545 13.994088714011014 L 78.2967278668657 14.587301915511489 L 78.58147020358592 15.156786588951945 L 78.86621254030615 14.587301915511489 L 79.1746834050864 13.994088714011014 L 79.50688279792666 14.587301915511489 L 79.79162513464689 15.156786588951945 L 80.07636747136712 14.587301915511489 L 80.38483833614737 14.017817242071033 L 80.69330920092762 14.587301915511489 L 81.00178006570786 15.156786588951945 L 81.28652240242809 14.587301915511489 L 81.59499326720834 13.994088714011014 L 81.90346413198858 14.587301915511489 L 82.21193499676883 15.156786588951945 L 82.49667733348906 14.587301915511489 L 82.80514819826931 13.994088714011014 L 83.11361906304955 14.587301915511489 L 83.4220899278298 15.156786588951945 L 83.70683226455003 14.587301915511489 L 84.01530312933028 13.994088714011014 L 84.32377399411052 14.587301915511489 L 84.60851633083075 15.156786588951945 L 84.916987195611 14.587301915511489 L 85.22545806039125 13.994088714011014 L 85.5339289251715 14.587301915511489 L 85.81867126189172 15.156786588951945 L 86.12714212667197 14.587301915511489 L 86.43561299145222 13.994088714011014 L 86.76781238429248 14.611030443571508 L 87.05255472101271 15.133058060891926 L 87.36102558579296 14.611030443571508 L 87.69322497863322 13.970360185950994 L 88.52372346073389 15.465257453732193 L 88.68982315715402 15.74999979045242 L 89.25930783059448 15.441528925672174 L 89.11693666223437 15.156786588951945 L 87.97796731535345 13.11613317579031 L 87.69322497863322 12.61783408652991 L 87.408482641913 13.139861703850329 L 87.05255472101271 13.756803433410823 L 86.72035532817245 13.139861703850329 L 86.4118844633922 12.594105558469892 L 86.15087065473199 13.139861703850329 L 85.81867126189172 13.733074905350804 L 85.51020039711148 13.139861703850329 L 85.22545806039125 12.570377030409873 L 84.94071572367102 13.139861703850329 L 84.63224485889077 13.733074905350804 L 84.3000454660505 13.139861703850329 L 84.01530312933028 12.570377030409873 L 83.73056079261005 13.139861703850329 L 83.39836139976978 13.733074905350804 L 83.08989053498954 13.139861703850329 L 82.80514819826931 12.570377030409873 L 82.52040586154908 13.139861703850329 L 82.21193499676883 13.733074905350804 L 81.87973560392857 13.139861703850329 L 81.59499326720834 12.570377030409873 L 81.31025093048811 13.139861703850329 L 81.00178006570786 13.709346377290785 L 80.69330920092762 13.139861703850329 L 80.38483833614737 12.570377030409873 L 80.10009599942714 13.139861703850329 L 79.79162513464689 13.733074905350804 L 79.48315426986665 13.139861703850329 L 79.1746834050864 12.570377030409873 L 78.88994106836617 13.139861703850329 L 78.58147020358592 13.733074905350804 L 78.27299933880568 13.139861703850329 L 77.98825700208545 12.570377030409873 L 77.6797861373052 13.139861703850329 L 77.37131527252495 13.733074905350804 L 77.0628444077447 13.139861703850329 L 76.75437354296446 12.546648502349854 Z"
     style="fill:#ffffff;stroke:none"
     id="path24" />
  <path
     d="M 30.489336013793945 0.375 C 20.86433607339859 0.375 20.86433607339859 17.625 30.489336013793945 17.625 "
     style="fill:none;stroke:#ffffff;stroke-width:1"
     id="path26" />
  <path
     d="M 30.489336013793945 0.375 L 89.25930786132812 0.375 "
     style="fill:none;stroke:#ffffff;stroke-width:1"
     id="path28" />
  <path
     d="M 30.489336013793945 17.625 L 89.25930786132812 17.625 "
     style="fill:none;stroke:#ffffff;stroke-width:1"
     id="path30" />
  <path
     d="M 96.94680786132812 0.375 L 96.94680786132812 17.625 "
     style="fill:none;stroke:#ffffff;stroke-width:1"
     id="path32" />
  <path
     d="M 89.25930786132812 0.375 C 98.88430976867676 0.375 98.88430976867676 17.625 89.25930786132812 17.625 "
     style="fill:none;stroke:#ffffff;stroke-width:1"
     id="path34" />
</svg>
