<?xml version="1.0" encoding="UTF-8" standalone="no"?>
<svg
   width="44.33724594116211"
   height="18.0"
   version="1.1"
   id="svg346"
   sodipodi:docname="nswt.svg"
   inkscape:version="1.1.1 (3bf5ae0d25, 2021-09-20)"
   xmlns:inkscape="http://www.inkscape.org/namespaces/inkscape"
   xmlns:sodipodi="http://sodipodi.sourceforge.net/DTD/sodipodi-0.dtd"
   xmlns="http://www.w3.org/2000/svg"
   xmlns:svg="http://www.w3.org/2000/svg">
  <defs
     id="defs350" />
  <sodipodi:namedview
     id="namedview348"
     pagecolor="#ffffff"
     bordercolor="#666666"
     borderopacity="1.0"
     inkscape:pageshadow="2"
     inkscape:pageopacity="0.0"
     inkscape:pagecheckerboard="0"
     showgrid="false"
     inkscape:zoom="31.012301"
     inkscape:cx="22.1525"
     inkscape:cy="8.9480624"
     inkscape:window-width="1920"
     inkscape:window-height="1001"
     inkscape:window-x="-9"
     inkscape:window-y="-9"
     inkscape:window-maximized="1"
     inkscape:current-layer="svg346" />
  <path
     d="M 1.647018134244227 0.0 C 1.3116253173284822 0.0 0.9768849399220678 0.02557681501941188 0.6524477686216366 0.06607527749331002 C 0.20520137466576724 0.17908764641468827 0.435035084020337 0.691551004033002 0.8321205346508291 0.691551004033002 C 0.8587412528851699 0.691551004033002 0.8861136407469422 0.6892477739396997 0.91408407838804 0.6843665774069844 C 1.7531803628190956 0.7809379451946934 2.7861956672163073 0.8343621833513529 3.420074340134716 1.3099522696603398 C 4.260961155830105 2.2264874298313986 3.8831623805659103 4.131175441985907 3.9810631828229046 5.035364548634586 C 3.9880820084389175 5.084050771074487 3.991013952968484 8.688216775894238 3.991013952968484 10.514642177771872 C 3.1784195241557054 10.125309932737828 2.2608283609824538 9.929346523225524 1.3563710423827569 9.929346523225524 C 0.9543891815164456 9.929346523225524 0.5550017167026459 9.968055403438012 0.16857957430277537 10.045700924564425 C -0.2722399197819212 10.277261433705803 0.24528304691856845 10.574405636826553 0.5912819204979912 10.574405636826553 C 0.632488991591705 10.574405636826553 0.6712631750678077 10.570191114847008 0.7056959074234596 10.561149014999877 C 1.9318274346269377 10.693665885114646 3.3259565007781857 11.022182226852777 3.9487221122214837 12.162779349571796 C 4.0102374306714 12.369203618300608 3.971743499620896 12.440134943749182 3.8779082258845885 12.440134943749182 C 3.6717204961342493 12.440134943749182 3.198329605473168 12.09765687101284 2.9316365336333567 12.09765687101284 C 2.9176411130313893 12.09765687101284 2.9042150941830194 12.098600179917966 2.891426568047948 12.100585494032176 C 2.379350522247446 11.989982050404612 1.842721991457181 11.931979940774392 1.3110834366596418 11.931979940774392 C 0.9218001839014793 11.931979940774392 0.5351924076330337 11.963078766550048 0.1628584508708209 12.027395541627664 C -0.25779791916398753 12.305094674863055 0.2585090337446459 12.560923086742763 0.600703443576138 12.560923086742763 C 0.6382927969032964 12.560923086742763 0.6737811763850451 12.55783598023534 0.7056959074234596 12.55135239226771 C 1.9572015188969958 12.702280868085056 3.342118969554053 13.041564596983719 3.9487221122214837 14.184079654609437 C 3.955645563043769 15.454207135245605 3.9483353935304986 16.29360971036995 3.9823068511530537 17.461695651746815 C 3.9676812926104383 17.821291839202146 4.201468162608383 18.0000004775746 4.4383188885421445 18.0000004775746 C 4.6733641364155405 18.0000004775746 4.9114272135830035 17.824005987560962 4.91272687308559 17.47414277408046 C 4.904070542926522 16.323224295574562 4.821915834413078 15.312999296365092 4.972827702679277 14.196637810285033 C 5.2772350996686255 12.944223469200365 7.450237317905583 12.752022856276419 8.799842844311826 12.442651699500084 C 9.09432319622866 12.096448790292289 8.514824051533937 11.967892109373793 8.14129839917976 11.967892109373793 C 8.085513160376882 11.967892109373793 8.034322044722613 11.970759996206079 7.991322722296768 11.976197782952937 C 7.818331826533361 11.962932620099958 7.644228224843132 11.956089360024638 7.469859851337479 11.956089360024638 C 6.587686663491651 11.956089360024638 5.698730477256092 12.13123828843418 4.91272687308559 12.535942482809514 C 4.880710835985181 11.781050515954124 5.624113698957356 11.34669282725435 6.156603983877985 11.04328994985864 C 6.997012976601814 10.681838461689502 7.922242901550308 10.646347650387764 8.799842844311826 10.452448322232252 C 9.113144771193829 10.180431818497764 8.620042852578313 9.951551293609986 8.278600142030594 9.951551293609986 C 8.233577545373633 9.951551293609986 8.191191278835827 9.95553046286471 8.153639233186066 9.963915852689357 C 7.938516403668127 9.94321620094024 7.722149905820039 9.932653798411005 7.505806184042095 9.932653798411005 C 6.603408794911403 9.932653798411005 5.70139954797608 10.116410183329096 4.891581189962821 10.514642177771872 C 4.908173082561193 7.66350714507617 4.954361054807185 4.904232748285445 4.872536124809365 2.2071488855241097 C 4.806831432957355 1.373210194726995 4.326344610192794 0.6077956834651214 3.5180797699639337 0.35840862892298625 C 2.937547872838622 0.09431807897321196 2.2910799643989015 0.0 1.647018134244227 0.0 Z"
     style="fill:#000000;stroke:none"
     id="path338" />
  <path
     d="M 20.121075503528118 0.6011227108538151 C 21.19509698414612 0.6011227108538151 22.539449505511698 1.152852505449232 23.18996513262391 1.8033681325614452 C 23.75909884089714 2.3725013580765335 23.833502490833382 3.1270658469395585 23.854363918304443 3.8282025270164013 L 16.41942512616515 3.8282025270164013 C 16.440286795015282 3.1270658469395585 16.514690444951526 2.3725013580765335 17.083823911845684 1.8033681325614452 C 17.734339780336967 1.152852505449232 19.047054505668257 0.6011227108538151 20.121075503528118 0.6011227108538151 ZM 20.121075503528118 0.0 C 18.846941360410625 0.0 17.475997313840253 0.5886057578195505 16.67252942547202 1.3920736461877823 C 15.8484287578422 2.216174617427214 15.75502634048462 3.301096294071158 15.75502634048462 4.1129448637366295 L 15.75502634048462 4.429325237870216 L 24.487124666571617 4.429325237870216 L 24.487124666571617 4.1129448637366295 C 24.487124666571617 3.301096294071158 24.425360590237005 2.216174617427214 23.601259618997574 1.3920736461877823 C 22.79779221338748 0.5886057578195505 21.39520988802468 0.0 20.121075503528118 0.0 Z"
     style="fill:#000000;stroke:none"
     id="path340" />
  <path
     d="M 12.670318275690079 13.728864669799805 L 12.290661826729774 14.55145364254713 L 11.088416405022144 17.24068682268262 L 10.898588180541992 17.620343271642923 L 11.68953911587596 17.999999720603228 L 11.879367340356112 17.588705234229565 L 12.701956313103437 15.722061026841402 L 13.1132507994771 16.449735887348652 L 13.492907248437405 17.20904878526926 L 13.872563697397709 16.449735887348652 L 14.31549622118473 15.658784952014685 L 14.726790707558393 16.449735887348652 L 15.106447156518698 17.20904878526926 L 15.486103605479002 16.449735887348652 L 15.897398091852665 15.658784952014685 L 16.340330615639687 16.449735887348652 L 16.71998706459999 17.20904878526926 L 17.099643513560295 16.449735887348652 L 17.510937999933958 15.690422989428043 L 17.92223248630762 16.449735887348652 L 18.333526972681284 17.20904878526926 L 18.713183421641588 16.449735887348652 L 19.12447790801525 15.658784952014685 L 19.535772394388914 16.449735887348652 L 19.947066880762577 17.20904878526926 L 20.32672332972288 16.449735887348652 L 20.738017816096544 15.658784952014685 L 21.149312302470207 16.449735887348652 L 21.56060678884387 17.20904878526926 L 21.940263237804174 16.449735887348652 L 22.351557724177837 15.658784952014685 L 22.7628522105515 16.449735887348652 L 23.142508659511805 17.20904878526926 L 23.553803145885468 16.449735887348652 L 23.96509763225913 15.658784952014685 L 24.376392118632793 16.449735887348652 L 24.756048567593098 17.20904878526926 L 25.16734305396676 16.449735887348652 L 25.578637540340424 15.658784952014685 L 26.021570064127445 16.48137392476201 L 26.40122651308775 17.1774107478559 L 26.812520999461412 16.48137392476201 L 27.255453523248434 15.627146914601326 L 28.362784832715988 17.620343271642923 L 28.5842510946095 17.999999720603228 L 29.343563992530107 17.588705234229565 L 29.153735768049955 17.20904878526926 L 27.63510997220874 14.488177567720413 L 27.255453523248434 13.82377878203988 L 26.87579707428813 14.519815605133772 L 26.40122651308775 15.342404577881098 L 25.958293989300728 14.519815605133772 L 25.546999502927065 13.792140744626522 L 25.19898109138012 14.519815605133772 L 24.756048567593098 15.310766540467739 L 24.344754081219435 14.519815605133772 L 23.96509763225913 13.760502707213163 L 23.585441183298826 14.519815605133772 L 23.174146696925163 15.310766540467739 L 22.73121417313814 14.519815605133772 L 22.351557724177837 13.760502707213163 L 21.971901275217533 14.519815605133772 L 21.52896875143051 15.310766540467739 L 21.11767426505685 14.519815605133772 L 20.738017816096544 13.760502707213163 L 20.35836136713624 14.519815605133772 L 19.947066880762577 15.310766540467739 L 19.504134356975555 14.519815605133772 L 19.12447790801525 13.760502707213163 L 18.744821459054947 14.519815605133772 L 18.333526972681284 15.27912850305438 L 17.92223248630762 14.519815605133772 L 17.510937999933958 13.760502707213163 L 17.131281550973654 14.519815605133772 L 16.71998706459999 15.310766540467739 L 16.308692578226328 14.519815605133772 L 15.897398091852665 13.760502707213163 L 15.51774164289236 14.519815605133772 L 15.106447156518698 15.310766540467739 L 14.695152670145035 14.519815605133772 L 14.31549622118473 13.760502707213163 L 13.904201734811068 14.519815605133772 L 13.492907248437405 15.310766540467739 L 13.081612762063742 14.519815605133772 L 12.670318275690079 13.728864669799805 Z"
     style="fill:#000000;stroke:none"
     id="path342" />
  <path
     d="M 38.89240770129663 0.7348609225499279 C 39.518449934964174 0.7348609225499279 40.1913097739958 0.8608988555811263 40.61480224878607 1.360701282670251 C 41.293064470667225 2.161179775628297 41.43731564682564 3.252619655451229 41.48972753294155 4.264323063169828 C 41.584977122847796 6.1029242790957925 41.61253122481938 7.944787150161174 41.59485103142077 9.785693577713504 L 41.14351691240532 9.785693577713504 C 41.14351691240532 8.276464093696838 41.14351691240532 6.7672340004804825 41.14351691240532 5.258004516463816 C 39.95880444796959 5.218895723975 39.46413917341503 4.345540956619936 39.3589084557904 3.665450831069412 C 39.50173836907241 3.355274372187359 39.88246624403512 3.094780280210874 40.008767960532026 2.716488290208 C 40.14226310696658 2.316650125574777 39.96914012990746 1.7227090603637913 39.49322906780469 1.7227090603637913 C 39.48514864311862 1.7227090603637913 39.476981102876906 1.722880245476637 39.46872644707954 1.7232265755003124 C 39.25452026133682 1.7322125755253337 39.072425600445385 1.8076350000260482 38.8819136274394 1.8076350000260482 C 38.77483947155331 1.8076350000260482 38.665106768220745 1.783810418555689 38.545520259904976 1.710976483537115 C 38.138246508457385 1.462927427424577 37.59254857588471 1.417783445908413 37.121603100453854 1.3141626907641153 C 37.50993987954269 0.7470083643653868 38.10527296604497 0.7564697685983689 38.742431875652755 0.737177480520515 C 38.79201829360718 0.7356760317349371 38.84206161132897 0.7348609225499279 38.89240770129663 0.7348609225499279 ZM 36.78394747116207 1.8435231060545905 L 36.78394747116207 1.8435231060545905 C 37.36242034704827 1.9461842193874639 37.972909712634134 2.0573668179818534 38.42953777695432 2.4571777209289563 C 38.514323752987835 2.5715511551988186 38.63704032931001 2.6471470493112155 38.751213489181836 2.6471470493112155 C 38.85214021099773 2.6471470493112155 38.94639132261233 2.5880747829862605 39.001863827970006 2.44449692478504 C 39.078934899131355 2.33627290448437 39.156771734302836 2.2925081510660097 39.226886354205874 2.2925081510660097 C 39.44022321199119 2.2925081510660097 39.58207475057132 2.697677726784889 39.41338735645394 2.92508435600696 C 39.28270488498738 3.251402779070769 38.8863400723858 3.4439248064533903 38.74574531276581 3.7102912788401117 C 38.88124899057778 4.241699518887993 39.119040951512446 4.753032192356805 39.52178713086513 5.138477709717654 C 39.83253501905625 5.435876814304951 40.20854220562237 5.7041799325056814 40.64830945012679 5.737922894126366 C 40.63387994627318 7.640697814580028 40.643403565024485 9.543977761576567 40.602136987234246 11.446367058626556 C 40.54181586154512 13.20322098657194 40.341648682654814 14.95433259824087 40.02219959529367 16.68265283111341 C 39.97758729280682 16.929945261211166 40.204059105104825 17.082354839615956 40.333174105769416 17.258127226126202 L 32.60279068788486 17.258127226126202 C 33.163805575959316 17.045270417696486 33.72837316432501 16.840963117714015 34.28713888714457 16.622691742440978 C 34.58848499652236 16.464856631598447 34.44913422266903 16.097031606066604 34.367775299490724 15.848760801266964 C 33.79902936275232 13.843041489624653 32.99906518663243 11.910349381602519 32.08782687966474 10.037717052602574 C 32.225896354270404 9.854605028229104 32.453053896969294 9.769724626243661 32.680125237912065 9.769724626243661 C 32.80975607841403 9.769724626243661 32.93935874343035 9.79738716576003 33.05234228860783 9.850229146856966 C 33.576322861437305 10.47197530431174 34.074767306267816 11.11892222533623 34.58890016611099 11.750385727043684 C 35.291889803402846 12.621547375515314 35.98688125796676 13.499629532463555 36.69488491330586 14.366451242344748 C 36.76567330806587 14.435036161826591 36.849455323010524 14.464810187467954 36.93255381590318 14.464810187467954 C 37.14732107456024 14.464810187467954 37.35751689874473 14.26593207512136 37.32698990228672 14.024202856591248 C 37.699621513371426 11.510256266899097 38.13521756759948 9.0043791362986 38.42468245542627 6.4789296380628425 C 38.53465762023539 5.699569509252954 38.256829055684285 4.874577277675415 37.705899925374936 4.315872322524918 C 37.641261401483895 4.257066276464424 37.568358474600444 4.234722354840226 37.49117591989585 4.234722354840226 C 37.246874660275225 4.234722354840226 36.95970584607946 4.458582832667725 36.75608206814899 4.458582832667725 C 36.67259490585422 4.458582832667725 36.60315284240876 4.42095104482693 36.55646743337738 4.314828763456218 C 36.30087831270366 4.054857060213773 37.13573775165757 4.194612951860844 36.75088498559494 3.9660722974161304 L 36.75088498559494 3.9660722974161304 C 36.725871855529704 3.970262677482712 36.70321998346229 3.972251105270358 36.68267411472266 3.972251105270358 C 36.33180677175727 3.972251105270358 36.59502307254782 3.392388340291787 36.2003634098781 3.2967129198023373 C 36.26576221498207 3.1150934346689816 36.380978629322755 2.983958023233026 36.528759813083965 2.983958023233026 C 36.59575411217563 2.983958023233026 36.66944046986021 3.0109074945124323 36.748211817355916 3.0723206106456065 C 36.83598165347028 3.0938095205051104 36.92407131942181 3.1032542478965826 37.011947156282204 3.1032542478965826 C 37.31635814929959 3.1032542478965826 37.6182007564246 2.989914168600616 37.895283660555336 2.871267350806431 C 37.57855769580779 2.554541081459037 37.465006528819295 2.4874465690183913 37.25318779666107 2.4874465690183913 C 37.03312902949803 2.4874465690183913 36.72119015591326 2.5554748322836427 36.631353914450955 2.627408674760474 L 36.631353914450955 2.627408674760474 C 36.631353914450955 2.6274089793603195 36.631353914450955 2.6274089793603195 36.631353914450955 2.6274089793603195 L 36.63135330525127 2.6274089793603195 C 36.63135330525127 2.6274089793603195 36.631353914450955 2.6274089793603195 36.631353914450955 2.627408674760474 L 36.631353914450955 2.627408674760474 C 36.77796939460565 2.3929808668130463 36.82317749438917 2.117603112614175 36.78394747116207 1.8435231060545905 ZM 38.856068330597836 0.0 C 38.80057328485164 0.0 38.74519764224464 8.034692098074734E-4 38.69003095513127 0.0023169522548591396 C 37.83661163842661 0.0257303215548885 36.88737130250663 0.25431763926803147 36.3787718034463 0.9981271015650799 C 36.15398899728838 1.324033553338633 35.98386054130467 1.7187369260860959 36.059691891097195 2.1214351309632065 C 35.85522985439351 2.592759224001304 35.4111379012909 2.9552735512369486 35.341389715001306 3.4826967115137246 C 35.274784694511446 3.909664975134392 35.91942914530817 3.8220480481421784 35.76191691030127 4.2353467845223145 C 35.77134122950313 4.5456953423167485 36.11524237401517 4.851401798474583 36.00117155969124 5.049572934581113 C 35.80261571398057 5.895159161673777 35.56830228327491 6.788571219617215 34.968534527630425 7.446462413069723 C 34.866603844725674 7.623173576302019 34.73649341176788 7.6743274650584015 34.594558108230395 7.6743274650584015 C 34.40312502529337 7.6743274650584015 34.190181710507694 7.5812740400340335 33.99585614744329 7.577713267846904 L 33.99585614744329 7.577713267846904 C 33.59684832198732 7.811687374325322 34.107075907218764 8.186415241542774 34.41322129175313 8.186415241542774 C 34.42576379956745 8.186415241542774 34.43796363255623 8.185785938263164 34.449744640758254 8.18449260732163 C 34.48015223407705 8.186963521263632 34.510218980169384 8.188169127449829 34.53994091923726 8.188169127449829 C 35.16256280124618 8.188169127449829 35.63389298628118 7.65917362277357 35.92057992352229 7.152547321508635 C 36.28922736863542 6.549954402302507 36.5593989022849 5.8721557813853265 36.780516458508885 5.2152728134195065 C 36.94757850785376 5.149428683342262 37.1154410455911 5.086477947191925 37.256211254721755 5.086477947191925 C 37.42077071174076 5.086477947191925 37.54830666680928 5.172503949194115 37.59425981781348 5.440496984752717 C 37.86505760874412 6.15634134469994 37.60799544322036 6.916181497047896 37.53373400102856 7.643681065461186 C 37.262851531341035 9.501098632207315 36.99015425577747 11.358275565075957 36.707217551827036 13.213899038735502 C 35.67656559695558 11.93273137820733 34.650189005507436 10.648008428289241 33.616864643896555 9.369061300630548 C 33.379521967733154 9.128882495311084 33.05181746307503 9.035218042997805 32.719499489165734 9.035218042997805 C 32.50139137940957 9.035218042997805 32.281295831815264 9.075565338456073 32.08345564344024 9.141316870180459 C 31.667785901867234 9.313044779949843 31.224071528828645 9.747439492389535 31.372766247979442 10.23743220532301 C 32.28339970294413 12.120632930542342 33.10057780625002 14.056812097589136 33.66702843085702 16.07380404029229 C 32.97338741970557 16.338455006352415 32.27312737777401 16.587673725869454 31.58366300162113 16.862062139772018 C 31.30521293440207 17.025083976773864 31.440585382033976 17.34966678992131 31.499562241976257 17.592629028623666 C 31.515913923151242 17.818578756787478 31.69626545431764 17.999999642821944 31.91818311818427 17.999999642821944 C 31.942473052067708 17.999999642821944 31.96726096862261 17.99782601832859 31.992386305655724 17.99329966463306 L 41.12542611841575 17.99329966463306 C 41.25229378142451 17.91768214393167 41.565709355057464 17.856685415786504 41.608744439547316 17.824314981067037 C 41.436396364493675 17.682160670241053 41.50824415751431 17.432522821337407 41.3244266799 17.291923188119902 C 41.141335368315985 17.075524492693443 40.958242838332595 16.85912579726698 40.775150917548885 16.642728320239893 C 41.135499844486986 14.64634560304411 41.33514067484526 12.620229067386495 41.35405571601518 10.59135773073141 C 41.422145965348875 10.591776860118022 41.499265772485415 10.5938712886517 41.57964297036354 10.5938712886517 C 41.960878917867575 10.5938712886517 42.415401588059666 10.546752129441145 42.32737101447805 10.05026047421643 C 42.34939723846399 7.927721639249617 42.34710299243204 5.800799612514388 42.18696876196005 3.684052134399062 C 42.103081964668746 2.575187468147488 41.78851561282168 1.381651812303856 40.904074020311185 0.6312531128990393 C 40.338128117647216 0.13930206093134948 39.586780818175356 0.0 38.856068330597836 0.0 Z"
     style="fill:#000000;stroke:none"
     id="path344" />
  <path
     style="fill:#ffdd55;stroke-width:0.0322453"
     d="m 31.777713,17.947636 c -0.149723,-0.06609 -0.209452,-0.155133 -0.276039,-0.411519 -0.07517,-0.289446 -0.07862,-0.456087 -0.01156,-0.558443 0.05355,-0.08173 0.218912,-0.151128 1.534426,-0.643937 l 0.666416,-0.249648 -0.04752,-0.166137 c -0.431898,-1.509887 -1.127253,-3.300186 -2.013305,-5.183568 -0.209121,-0.444504 -0.255356,-0.571015 -0.254776,-0.697132 0.0031,-0.6680516 0.965864,-1.1654687 1.770896,-0.9149146 0.352786,0.1097993 0.232078,-0.023547 2.177369,2.4053466 1.505396,1.87964 1.365609,1.709512 1.387032,1.688089 0.01787,-0.01787 0.340901,-2.153201 0.757622,-5.008141 C 37.760506,6.2055728 37.77113,6.0457053 37.644376,5.5577779 37.518933,5.0748934 37.40278,4.9979871 36.988817,5.1237244 L 36.76477,5.1917764 36.69251,5.4092878 C 36.36616,6.3917219 35.80972,7.4135812 35.398427,7.7857794 35.1149,8.0423566 34.902213,8.1389441 34.588851,8.1534302 34.282104,8.1676108 34.097797,8.1070016 33.955772,7.9452438 33.843134,7.8169563 33.837225,7.7822082 33.910307,7.6778696 c 0.04762,-0.06799 0.06887,-0.073259 0.217655,-0.053985 0.402395,0.052129 0.571573,0.056812 0.664333,0.01839 0.124394,-0.051526 0.474021,-0.5139271 0.658398,-0.870768 C 35.626085,6.4320542 35.756211,6.064918 35.922926,5.4391576 36.066154,4.9015532 36.066427,4.9082031 35.886498,4.5534481 35.816135,4.4147179 35.792966,4.323794 35.792658,4.1851984 35.792274,4.0117011 35.785527,3.9960063 35.674855,3.9111136 35.389207,3.6920028 35.359908,3.656808 35.363308,3.5368679 c 0.0058,-0.2058683 0.108741,-0.4392761 0.363984,-0.8255812 0.335991,-0.5085175 0.33104,-0.4971993 0.338982,-0.7748889 0.01227,-0.4288992 0.203876,-0.832269 0.568043,-1.19581669 0.476773,-0.47596368 1.205554,-0.71092021 2.20511,-0.71092021 0.532773,0 0.895948,0.05089328 1.267547,0.17762639 0.904681,0.30853939 1.568105,1.13424081 1.880186,2.34008901 0.221399,0.8554606 0.318634,2.6215321 0.318634,5.7873136 0,1.9438761 -10e-4,1.9764311 -0.06626,2.0593381 -0.08831,0.112266 -0.336058,0.18242 -0.644215,0.18242 H 41.34798 l -0.02234,0.66909 c -0.05386,1.612876 -0.202589,3.148824 -0.456292,4.712192 l -0.111907,0.689594 0.108998,0.13266 c 0.05995,0.07296 0.21244,0.254968 0.338869,0.404455 0.126428,0.149488 0.230188,0.294592 0.230578,0.322453 3.9e-4,0.02786 0.0279,0.110526 0.06112,0.183698 l 0.06041,0.133042 -0.256825,0.08461 -0.256824,0.08462 -4.58466,-0.0013 c -3.732475,-10e-4 -4.60264,-0.0092 -4.681395,-0.04396 z m 8.561119,-0.690613 c 0,-0.01454 -0.04854,-0.08347 -0.107861,-0.153165 -0.214858,-0.25243 -0.216625,-0.268227 -0.103551,-0.925955 0.185048,-1.076397 0.331224,-2.269893 0.421444,-3.441021 0.05966,-0.774411 0.109006,-3.193343 0.111007,-5.4413897 l 0.0014,-1.5880795 h -0.07949 c -0.335314,0 -0.973649,-0.4359909 -1.315767,-0.8986851 C 39.119744,4.6109059 38.885135,4.1292925 38.81054,3.8737139 L 38.76003,3.7006464 39.060978,3.3900349 C 39.2265,3.2191984 39.393092,3.0183322 39.431183,2.9436655 39.577716,2.6564317 39.475623,2.315841 39.236959,2.2957424 c -0.104063,-0.00876 -0.129112,0.00584 -0.238004,0.1387243 -0.06694,0.081685 -0.147402,0.1622743 -0.178817,0.1790867 -0.07925,0.042416 -0.213751,-0.013706 -0.351546,-0.1466908 -0.256681,-0.2477217 -0.669071,-0.430167 -1.273688,-0.5634924 -0.438384,-0.096669 -0.418541,-0.1038885 -0.422872,0.1538601 -0.0025,0.1470986 -0.02634,0.270429 -0.07255,0.3749009 -0.03788,0.085628 -0.06887,0.1676137 -0.06887,0.1821893 0,0.014576 0.05441,0.0037 0.12092,-0.024168 0.06651,-0.027868 0.241118,-0.058224 0.388028,-0.067458 0.266321,-0.016739 0.267616,-0.016439 0.439539,0.1019694 0.09484,0.065317 0.196548,0.1454062 0.226023,0.1779761 0.05108,0.056444 0.0436,0.063218 -0.159698,0.1446037 -0.117309,0.046962 -0.319261,0.1018608 -0.448782,0.121997 -0.204468,0.031788 -0.256205,0.029161 -0.3927,-0.019939 -0.258125,-0.092853 -0.340933,-0.096243 -0.440367,-0.018028 -0.119035,0.093633 -0.209513,0.2654954 -0.150184,0.2852717 0.101374,0.033791 0.186963,0.1661789 0.224091,0.3466202 0.05402,0.2625188 0.07737,0.2954454 0.231057,0.3258391 0.124738,0.024668 0.214854,0.1059199 0.117925,0.1063256 -0.02365,9.67e-5 -0.09741,0.015291 -0.163913,0.033761 -0.152283,0.042291 -0.159569,0.1258423 -0.02289,0.2625194 0.115093,0.1150933 0.16215,0.1117556 0.553899,-0.039284 0.355597,-0.1371021 0.423345,-0.1301068 0.609401,0.062923 0.327884,0.3401737 0.578469,0.901143 0.649231,1.453391 0.03081,0.2404801 0.02432,0.3630385 -0.05298,0.9996034 -0.137034,1.1284457 -0.315284,2.3691612 -0.698302,4.8605489 -0.194227,1.263377 -0.353141,2.333012 -0.353141,2.376966 0,0.114357 -0.175744,0.301631 -0.30599,0.326065 -0.220984,0.04146 -0.01093,0.276674 -2.305553,-2.581685 -1.724024,-2.1475738 -1.605493,-2.0065484 -1.72005,-2.0464829 -0.261308,-0.091093 -0.692886,-0.010537 -0.842171,0.1571953 -0.07507,0.08435 -0.09593,0.024228 0.29743,0.8574386 0.739759,1.566952 1.371412,3.205889 1.844588,4.786116 0.09131,0.304932 0.166823,0.613052 0.167812,0.684711 0.0033,0.242105 -0.0378,0.268176 -0.983994,0.623529 -0.472225,0.177349 -0.858881,0.333335 -0.859236,0.346637 -3.55e-4,0.0133 1.740599,0.02418 3.868787,0.02418 2.128188,0 3.869432,-0.0119 3.869432,-0.02644 z M 41.610596,9.3108216 C 41.650473,8.4199119 41.551574,4.6205904 41.465595,3.7404513 41.366323,2.7242288 41.134685,2.0116411 40.730504,1.4790949 40.525168,1.2085448 40.380372,1.0881524 40.096993,0.95235285 39.720775,0.77206388 39.443958,0.72634402 38.758814,0.73133604 c -0.657246,0.004789 -0.953355,0.0492984 -1.213263,0.18237173 -0.173447,0.088805 -0.44965,0.35248153 -0.419808,0.40076763 0.01043,0.016874 0.131832,0.048766 0.269785,0.070872 0.41275,0.066139 0.823418,0.1816123 1.043347,0.2933719 0.276446,0.1404791 0.403292,0.1599467 0.700633,0.107529 0.317538,-0.055978 0.439923,-0.055911 0.547959,2.999e-4 0.214706,0.1117116 0.336707,0.3491185 0.336868,0.6555263 1.29e-4,0.2524229 -0.0928,0.4533542 -0.354662,0.7668307 -0.313016,0.3747123 -0.336613,0.4166847 -0.311969,0.5549131 0.07395,0.4147996 0.365921,0.8974494 0.690921,1.1421506 0.27562,0.2075213 0.659061,0.3500096 0.941888,0.3500096 h 0.122206 V 7.52927 9.8025615 h 0.237933 0.237933 l 0.02201,-0.4917404 z"
     id="path389" />
  <path
     style="fill:#ffdd55;stroke-width:0.0322453"
     d="m 15.767937,4.0964139 c 0,-0.9622593 0.213305,-1.7584899 0.626034,-2.3368778 0.638585,-0.89489635 2.105037,-1.63548896 3.412363,-1.72332221 1.351807,-0.09082185 2.852092,0.45904927 3.764958,1.37989881 0.618164,0.6235706 0.848602,1.2587295 0.892997,2.461381 l 0.01994,0.5401083 H 20.126082 15.767937 Z M 23.850595,3.4987914 C 23.775664,2.2741453 23.305453,1.6182558 22.104132,1.062683 20.951517,0.52963465 19.815952,0.45554598 18.712304,0.84138685 18.356202,0.96588168 17.902706,1.178072 17.652576,1.3372321 16.814183,1.8707086 16.488286,2.443974 16.423747,3.4987914 l -0.0207,0.3383957 h 3.734129 3.734129 z"
     id="path428" />
  <path
     style="fill:#ffdd55;stroke-width:0.0322453"
     d="M 4.2586676,17.937974 C 4.0372722,17.821892 4.0169171,17.760934 3.9935767,17.144102 3.982049,16.839451 3.9711662,16.045266 3.9693927,15.379245 l -0.00322,-1.210946 -0.09967,-0.159478 C 3.736183,13.800311 3.4152213,13.471824 3.1922817,13.3188 2.6153235,12.922777 1.6506985,12.621863 0.71774024,12.546868 0.14972611,12.501208 -0.11782682,12.306429 0.10479713,12.100644 c 0.11095279,-0.10256 0.65247432,-0.150407 1.45242857,-0.12833 0.8842921,0.0244 1.4338693,0.120358 1.8919234,0.330322 0.2219223,0.101726 0.3560945,0.14498 0.4281714,0.138033 0.101019,-0.0097 0.1048636,-0.0153 0.1021372,-0.147838 C 3.9772199,12.184044 3.9442853,12.10778 3.8226929,11.929823 3.4425182,11.373418 2.8048601,10.986222 1.8863483,10.754045 1.430505,10.638819 0.84219431,10.544203 0.58157533,10.544203 c -0.38309691,0 -0.70176095,-0.288478 -0.4767782,-0.431615 0.29860758,-0.1899772 1.63360767,-0.2101582 2.48594557,-0.03758 0.3946439,0.07991 1.0495687,0.287815 1.2850297,0.407938 l 0.1259523,0.06426 -0.012302,-3.9596066 C 3.9774234,2.7252374 3.9754864,2.620862 3.9105561,2.3377821 3.7659051,1.7071408 3.5585577,1.3460826 3.2406496,1.1712615 3.0144981,1.0468983 2.6603816,0.92433265 2.3270149,0.85503718 2.0309802,0.79350172 1.1010868,0.67716753 0.9047154,0.67710056 0.52933177,0.67697254 0.27382861,0.31132969 0.53125726,0.14265595 0.64475726,0.06828791 1.0028336,0.03114524 1.6162762,0.03010875 2.3950201,0.02879295 2.8646482,0.11433655 3.5124756,0.37550487 3.8797957,0.52358799 4.0148972,0.60626676 4.2208916,0.80903772 4.442869,1.0275413 4.5962388,1.26901 4.7083792,1.5765489 4.8868896,2.0661041 4.8844219,1.9981549 4.884805,6.4346068 L 4.8851597,10.531432 5.13075,10.427854 c 0.365147,-0.154001 0.8080019,-0.289119 1.2230398,-0.373156 0.333124,-0.067452 0.456319,-0.074787 1.2560939,-0.074787 0.8818639,0 0.8876223,4.45e-4 1.046122,0.080613 0.1943803,0.09832 0.2361756,0.158546 0.193747,0.279192 -0.036738,0.104464 0.00455,0.09338 -0.9496616,0.255022 -1.1128887,0.188526 -1.5711943,0.319856 -1.9884091,0.569789 -0.5179677,0.310289 -0.8189473,0.611634 -0.9435685,0.944714 -0.057092,0.152591 -0.092581,0.434169 -0.054722,0.434169 0.00666,0 0.09735,-0.03815 0.2015329,-0.08478 0.809138,-0.362164 1.707407,-0.518276 2.7529215,-0.478437 0.5922437,0.02257 0.8196545,0.0695 0.9357977,0.193129 0.073294,0.07802 0.075209,0.08889 0.029891,0.169629 -0.04463,0.07951 -0.08875,0.09444 -0.5634842,0.190611 -1.2705355,0.257388 -1.6755058,0.36057 -2.1212119,0.540463 -0.555279,0.224118 -0.9364564,0.524123 -1.0969305,0.863336 -0.1429397,0.302151 -0.1641352,0.586879 -0.1654969,2.223216 -0.00122,1.468837 -0.00285,1.507243 -0.067735,1.594148 -0.1591968,0.213237 -0.3707742,0.282472 -0.5600078,0.183253 z"
     id="path467" />
  <path
     style="fill:#ffdd55;stroke-width:0.0322453"
     d="m 11.277377,17.781116 -0.347042,-0.176177 0.06976,-0.136554 c 0.03837,-0.0751 0.355681,-0.775009 0.705137,-1.555344 0.842271,-1.880799 0.948137,-2.111945 0.967156,-2.111697 0.0089,1.16e-4 0.178637,0.315681 0.377267,0.701256 0.198629,0.385575 0.38133,0.728512 0.406003,0.762083 0.04969,0.06761 0.008,0.135246 0.5888,-0.955845 0.139241,-0.261589 0.26113,-0.475434 0.270864,-0.47521 0.0097,2.24e-4 0.184567,0.330335 0.388518,0.73358 0.203951,0.403245 0.385331,0.732859 0.403066,0.732475 0.01774,-3.83e-4 0.199114,-0.330248 0.403066,-0.733033 0.203951,-0.402784 0.37913,-0.732582 0.389286,-0.732882 0.01016,-3.01e-4 0.146755,0.242501 0.303553,0.539561 0.521517,0.988029 0.504391,0.960579 0.556002,0.891176 0.02489,-0.03347 0.200281,-0.36916 0.389751,-0.74597 0.18947,-0.376811 0.352373,-0.685156 0.362006,-0.685212 0.0096,-5.6e-5 0.168474,0.279222 0.352979,0.620619 0.45655,0.844769 0.452234,0.83782 0.497167,0.800529 0.0209,-0.01735 0.196987,-0.343934 0.391302,-0.725751 0.194316,-0.381816 0.361199,-0.694502 0.370852,-0.694856 0.0097,-3.54e-4 0.08221,0.131519 0.161226,0.293051 0.217195,0.443976 0.630095,1.173719 0.662878,1.171542 0.01593,-0.0011 0.195837,-0.331151 0.399788,-0.73354 0.203952,-0.402389 0.378076,-0.731274 0.386943,-0.730856 0.0089,4.18e-4 0.184358,0.329757 0.389978,0.731864 0.205621,0.402108 0.387,0.735475 0.403066,0.740817 0.02496,0.0083 0.538313,-0.903523 0.755494,-1.341916 l 0.07058,-0.14248 0.231877,0.44881 c 0.292487,0.566125 0.56486,1.045508 0.593634,1.044813 0.01217,-2.94e-4 0.194315,-0.335589 0.404764,-0.745101 l 0.382634,-0.744566 0.379841,0.735923 c 0.208912,0.404757 0.392231,0.739764 0.407375,0.744459 0.03111,0.0096 0.440618,-0.723707 0.6556,-1.174047 l 0.141839,-0.297121 0.22156,0.393857 c 0.121858,0.216621 0.308735,0.557099 0.415283,0.756616 0.106547,0.199518 0.203631,0.362563 0.215742,0.362323 0.02194,-4.34e-4 0.460568,-0.755778 0.717374,-1.235365 l 0.135112,-0.252321 0.07972,0.139462 c 0.04385,0.07671 0.460903,0.82145 0.926789,1.65499 0.832392,1.489274 1.063227,1.917123 1.043023,1.933229 -0.0056,0.0045 -0.167023,0.09164 -0.35873,0.193745 -0.31208,0.166208 -0.352575,0.180115 -0.386943,0.132881 -0.02111,-0.02901 -0.320611,-0.560236 -0.665553,-1.180491 -0.344942,-0.620256 -0.637582,-1.116854 -0.650311,-1.103551 -0.01273,0.0133 -0.106213,0.183802 -0.207742,0.378885 -0.205014,0.393929 -0.595063,1.076698 -0.626022,1.095831 -0.01095,0.0068 -0.200084,-0.321466 -0.42029,-0.729413 -0.355196,-0.658022 -0.405127,-0.735223 -0.442477,-0.684142 -0.02316,0.03167 -0.11643,0.203173 -0.207275,0.381123 -0.09084,0.177949 -0.259448,0.495823 -0.374673,0.706384 l -0.2095,0.38284 -0.38815,-0.765613 c -0.351578,-0.693475 -0.392307,-0.75993 -0.432274,-0.705292 -0.02427,0.03318 -0.164917,0.292946 -0.312555,0.577266 -0.147638,0.28432 -0.315979,0.601193 -0.374091,0.704163 l -0.105659,0.187218 -0.386579,-0.759832 c -0.212619,-0.417907 -0.399683,-0.751733 -0.415698,-0.741835 -0.01602,0.0099 -0.196543,0.352601 -0.401171,0.761562 l -0.372053,0.743566 -0.0565,-0.09323 c -0.03108,-0.05128 -0.214998,-0.394192 -0.408712,-0.76203 -0.193713,-0.367839 -0.359721,-0.668929 -0.368907,-0.66909 -0.0092,-1.61e-4 -0.188458,0.343446 -0.398383,0.76357 l -0.381682,0.763862 -0.101877,-0.179747 c -0.05603,-0.09886 -0.23952,-0.44242 -0.407749,-0.763465 -0.168229,-0.321044 -0.313127,-0.583673 -0.321994,-0.583619 -0.0089,5.5e-5 -0.191267,0.341112 -0.405333,0.757907 l -0.38921,0.757808 -0.400799,-0.7421 c -0.220439,-0.408155 -0.408054,-0.741888 -0.416922,-0.741629 -0.01815,5.31e-4 -0.14649,0.236202 -0.530009,0.973282 l -0.263469,0.506359 -0.121357,-0.248397 c -0.158949,-0.325341 -0.676718,-1.263464 -0.697428,-1.263641 -0.0089,-7.6e-5 -0.190319,0.338827 -0.403226,0.753118 l -0.387103,0.753255 -0.386783,-0.75331 c -0.212731,-0.414321 -0.394305,-0.753363 -0.403498,-0.753428 -0.02075,-1.46e-4 -0.53151,0.926662 -0.6969,1.264573 l -0.121855,0.248965 -0.212022,-0.410191 c -0.259343,-0.501742 -0.559076,-1.03738 -0.580895,-1.038088 -0.0089,-2.87e-4 -0.24046,0.507258 -0.514651,1.12788 -0.274191,0.620622 -0.513613,1.127656 -0.532047,1.126742 -0.01844,-9.13e-4 -0.189687,-0.08094 -0.380561,-0.177838 z"
     id="path506" />
</svg>
