<?xml version="1.0" encoding="UTF-8" standalone="no"?>
<svg
   width="63.56044006347656"
   height="18.0"
   version="1.1"
   id="svg30"
   sodipodi:docname="nyuserre.svg"
   inkscape:version="1.1.1 (3bf5ae0d25, 2021-09-20)"
   xmlns:inkscape="http://www.inkscape.org/namespaces/inkscape"
   xmlns:sodipodi="http://sodipodi.sourceforge.net/DTD/sodipodi-0.dtd"
   xmlns="http://www.w3.org/2000/svg"
   xmlns:svg="http://www.w3.org/2000/svg">
  <defs
     id="defs34" />
  <sodipodi:namedview
     id="namedview32"
     pagecolor="#ffffff"
     bordercolor="#666666"
     borderopacity="1.0"
     inkscape:pageshadow="2"
     inkscape:pageopacity="0.0"
     inkscape:pagecheckerboard="0"
     showgrid="false"
     inkscape:zoom="21.632953"
     inkscape:cx="31.757107"
     inkscape:cy="8.9909132"
     inkscape:window-width="1920"
     inkscape:window-height="1001"
     inkscape:window-x="-9"
     inkscape:window-y="-9"
     inkscape:window-maximized="1"
     inkscape:current-layer="svg30" />
  <path
     d="M 1.2190420140847793 0.0 C 0.970800706632417 0.0 0.7230423028937335 0.01893070358296025 0.48290982680079 0.048905678499779795 C 0.15187998957905166 0.13255188916498697 0.3219916247400915 0.5118521231009919 0.6158947927962716 0.5118521231009919 C 0.6355981423211179 0.5118521231009919 0.6558578408244597 0.5101473851910305 0.6765601864318946 0.5065345630073116 C 1.2976180869590601 0.5780119512905144 2.0622053316712337 0.6175539511807123 2.531371224901928 0.9695623988344474 C 3.1537543888207784 1.6479367557428735 2.8741262715941502 3.0576933712068692 2.94658764204448 3.7269297850416896 C 2.951782632395561 3.7629649381631523 2.953952713884158 6.430591781037886 2.953952713884158 7.782422252231933 C 2.352510186605274 7.494257626556917 1.67335422808609 7.349215125535265 1.0039192969246102 7.349215125535265 C 0.7063920462481148 7.349215125535265 0.41078504023889434 7.377865539465801 0.12477432975315178 7.4353349446232855 C -0.20149863151174055 7.606724672263251 0.18154647682350566 7.8266562324049085 0.4376378670454302 7.8266562324049085 C 0.4681373192956425 7.8266562324049085 0.4968360674978842 7.823536850015894 0.5223214865886322 7.816844331348357 C 1.429843884416301 7.914926816832979 2.4617098179841825 8.158078494744517 2.9226503683594482 9.002292523011262 C 2.9681809889039896 9.155077638776014 2.9396896697969415 9.207577525716367 2.870237404087557 9.207577525716367 C 2.717627362869183 9.207577525716367 2.3672466519332462 8.954092059534803 2.1698535251191053 8.954092059534803 C 2.1594948014573196 8.954092059534803 2.1495575210365625 8.954790250504107 2.140092081444407 8.956259682604495 C 1.7610785167129768 8.874396440250864 1.3638924072290621 8.831466124503471 0.9703996331480379 8.831466124503471 C 0.6822712691518855 8.831466124503471 0.39612316158451694 8.854483949517657 0.1205398348885778 8.90208807080806 C -0.19080937123302597 9.107627344268586 0.19133570335568265 9.296978982841198 0.44461121617263977 9.296978982841198 C 0.47243301123084086 9.296978982841198 0.4986997685303211 9.294694058069421 0.5223214865886322 9.289895224364907 C 1.44862453664532 9.401605077048192 2.473672484380784 9.652726246647584 2.9226503683594482 10.498359836231193 C 2.9277747669676573 11.438445880183364 2.9223641381582497 12.059730482053933 2.9475081443234266 12.924290385186742 C 2.9366830234749024 13.190445840004433 3.1097205941872907 13.32271720601211 3.2850258807391146 13.32271720601211 C 3.4589948410141766 13.32271720601211 3.635197450466691 13.192454719453337 3.636159394664339 12.93350313443563 C 3.6297524037925992 12.081649745019838 3.5689455193688686 11.333930766029841 3.680643079957625 10.507654766912083 C 3.905950499841305 9.580679119782916 5.51430012614692 9.438421656179063 6.5132119200872856 9.209440304841713 C 6.73117182826633 8.953197897458422 6.302254993763335 8.858046549715155 6.0257896324592775 8.858046549715155 C 5.984500135730289 8.858046549715155 5.946610983551 8.860169218839136 5.914784994799312 8.86419400179096 C 5.786745621336966 8.854375779085794 5.657882677541108 8.84931073373403 5.528823762638173 8.84931073373403 C 4.87588245171773 8.84931073373403 4.21792069818853 8.978947377079876 3.636159394664339 9.278489565451865 C 3.6124626948293947 8.719755569414783 4.162693019870619 8.398265319455419 4.5568162027996815 8.173701395689454 C 5.178845705598769 7.90617273831141 5.863655500797704 7.879904181098088 6.5132119200872856 7.736389411825166 C 6.745102634598536 7.535056141910107 6.380132787867637 7.365650007124583 6.127413645979344 7.365650007124583 C 6.0940901289112 7.365650007124583 6.06271789404902 7.368595192973972 6.034923712303174 7.3748016471035225 C 5.875700348626306 7.359480780481324 5.715556482670491 7.35166300836024 5.555429474444318 7.35166300836024 C 4.887519202007935 7.35166300836024 4.219896213380853 7.487670468699637 3.6205083975033348 7.782422252231933 C 3.6327889023442115 5.672151988401518 3.6669749732456607 3.6298724602408705 3.6064121746990256 1.633623314068084 C 3.557780785508615 1.016382811297887 3.202148013782708 0.4498605441665941 2.6039100355477967 0.2652764822581205 C 2.1742288083663857 0.06980961445750675 1.6957449806778964 0.0 1.2190420140847793 0.0 Z"
     style="fill:#ffffff;stroke:none"
     id="path2" />
  <path
     d="M 3.29314921521244 15.21501288860129 C 4.074491287174412 15.21501288860129 5.052497037940845 15.616391919330065 5.5257419749406465 16.089636856329868 C 5.939782214238027 16.503676744424546 5.993910276899555 17.05261639954012 6.009086799211701 17.562687749346416 L 0.6002280514165623 17.562687749346416 C 0.615404749330059 17.05261639954012 0.6695328119915868 16.503676744424546 1.0835728756876173 16.089636856329868 C 1.5568179882887687 15.616391919330065 2.5118074944531683 15.21501288860129 3.29314921521244 15.21501288860129 ZM 3.29314921521244 14.777700904737003 C 2.3662267752924526 14.777700904737003 1.3688759017560481 15.205906904973462 0.7843594130436309 15.79042339368588 C 0.1848327417701466 16.38995028583294 0.11688322714550736 17.179222163577567 0.11688322714550736 17.769835531176867 L 0.11688322714550736 17.999999733210704 L 6.469415203279373 17.999999733210704 L 6.469415203279373 17.769835531176867 C 6.469415203279373 17.179222163577567 6.42448232973169 16.38995028583294 5.824955437584633 15.79042339368588 C 5.240439300074916 15.205906904973462 4.220071830733778 14.777700904737003 3.29314921521244 14.777700904737003 Z"
     style="fill:#ffffff;stroke:none"
     id="path4" />
  <path
     d="M 19.59558827849137 2.2331113889984504 Q 20.011497239301697 2.2331113889984504 20.406868373464476 2.6849636002931274 Q 17.14505908393548 6.568070899826414 16.329606932707488 7.024335296803508 Q 15.721254175199014 7.364724151693918 15.258781670883675 7.364724151693918 Q 15.101344397401952 7.364724151693918 14.960813057159163 7.325276517725049 Q 14.407469963604743 7.169951972435412 13.776464255096982 7.150536917736989 Q 13.760688966903167 7.150051524254103 13.744834947749503 7.150051524254103 Q 13.12652956999073 7.150051524254103 12.38825395561615 7.88832679632016 L 12.291175943655867 7.88832679632016 Q 12.815395428237089 6.665148911786697 13.75704954270708 6.140928742588433 Q 14.698701945634467 5.6167096003157315 19.2807685008913 2.2966530928403377 Q 19.439622247033235 2.2331113889984504 19.59558827849137 2.2331113889984504 ZM 13.822576293662692 0.46382689862325743 Q 13.87160069312572 0.46382689862325743 13.922081273037408 0.4715931515608784 L 13.922081273037408 5.461385397334616 Q 12.38825395561615 6.354500505824466 11.805788280014095 7.965988384347936 Q 12.698902703886905 1.79184917642032 13.058089773520756 1.0928900062739073 Q 13.381357725420997 0.46382689862325743 13.822576293662692 0.46382689862325743 ZM 9.823471846940608 8.280349468529765 Q 9.763159224955167 8.280349468529765 9.708909828226425 8.383422671928184 Q 9.611832586460313 8.567870141573977 9.883650198408658 8.897933602234632 Q 10.038974144658383 8.4902085535462 9.922481420308197 8.344591877914295 Q 9.871087133376625 8.280349468529765 9.823471846940608 8.280349468529765 ZM 9.850515161454094 8.003054920244196 Q 9.964842185368557 8.003054920244196 10.097221020296256 8.179560147583969 Q 10.388454200405805 8.567870141573977 9.922481420308197 9.732803546629212 Q 9.398261764572714 8.723195371480656 9.602124802379711 8.257221735611745 Q 9.713322784103013 8.003054920244196 9.850515161454094 8.003054920244196 ZM 14.931688078951879 9.926958201315696 L 14.931688078951879 10.218190867962463 Q 14.718118369566973 10.198775813264039 14.601625302908268 10.082282061988291 Q 14.640456096922156 10.024035528658937 14.756948478963821 9.926958201315696 ZM 15.378245975505326 10.587085807254049 L 17.183890562566404 10.839488364503968 L 17.552786186475032 11.499616655059363 Q 16.931489374550573 11.32487637045426 16.183991626309666 11.033644388424536 Q 15.43649319345172 10.742411037160727 15.378245975505326 10.587085807254049 ZM 11.39806151978306 10.315268879922746 L 11.747541404376221 10.490008479910806 L 11.864034128726408 11.32487637045426 L 11.553386065072697 12.276239381507548 L 11.067997716813883 12.276239381507548 L 11.39806151978306 11.32487637045426 L 11.39806151978306 10.315268879922746 ZM 12.232929752635034 10.606502231186555 L 12.562994240221252 10.703579558529796 L 12.679486964571439 11.32487637045426 L 12.368838216300684 12.276239381507548 L 11.883450552658914 12.276239381507548 L 12.21351435562809 11.32487637045426 L 12.232929752635034 10.606502231186555 ZM 13.37844604914072 10.72299461322822 L 13.494939115799427 11.32487637045426 L 13.184290367528675 12.276239381507548 L 12.698902703886905 12.276239381507548 L 13.028966164547558 11.32487637045426 L 13.028966164547558 10.742411037160727 L 13.37844604914072 10.72299461322822 ZM 12.635970993829574 8.307902566008263 Q 12.94616549869286 8.307902566008263 13.300783776495901 8.383422671928184 Q 14.349222745658347 8.606700935587865 14.621040357606692 9.441570195365404 L 15.43649319345172 9.441570195365404 L 15.747140914796912 8.936765765482605 Q 19.863233149567787 9.888126722684765 20.387455372617175 12.373316708850789 Q 19.261352076958786 11.752018527692242 18.018759137726903 11.538448133690293 L 17.475123229213175 10.451177001279875 L 15.319998757558931 10.159943650016068 L 15.378245975505326 9.635724850051886 L 14.640456096922156 9.635724850051886 Q 13.825002918768604 10.30727392210448 12.976631641685719 10.30727392210448 Q 12.794837747695311 10.30727392210448 12.611532561584353 10.276437401291815 Q 11.572801804388162 10.101698485920798 11.252445186459676 9.567771131681843 Q 10.93208856853119 9.033843092825846 11.592216516778063 8.596994435164216 Q 12.029066885982298 8.307902566008263 12.635970993829574 8.307902566008263 ZM 14.014203342229544 0.0 Q 13.306659502260182 0.0 12.902764885922597 0.4910087625106481 Q 12.407668668006053 1.0928900062739073 11.980527880002157 3.655740467965014 L 11.300984192439817 8.101897190322108 Q 10.97091987600786 8.451378444149354 10.7961802760198 8.4902085535462 L 10.563193800393865 8.4902085535462 Q 10.543778232232661 8.004819862978866 10.194298176485239 7.597094129673393 Q 9.883650198408658 4.626517849099683 10.466115788433582 2.3937311048006213 L 10.233129483961907 1.9471738928642175 Q 9.398261764572714 4.471192276884482 9.825403408347913 7.616509184371816 L 9.767156618287169 7.616509184371816 Q 8.427485014569381 4.607101425167175 9.378846196411509 1.9471738928642175 L 9.145859806362706 1.5976940082710553 L 9.145859806362706 1.5976940082710553 Q 7.90326545510817 4.4323618251791155 9.41767741831105 7.752417990345988 Q 8.99053577453585 8.684363892849726 9.330307190431368 9.286245650075767 Q 9.670079376521057 9.888126722684765 9.747741050125965 10.412346207265987 L 9.883650198408658 10.509424219226272 Q 10.407869083949969 9.732803546629212 10.485531356594787 9.16975258341706 L 10.679686695898312 9.16975258341706 Q 10.699102264059515 9.616309110736422 10.93208856853119 10.101698485920798 L 11.067997716813883 11.32487637045426 L 10.737933400381925 12.276239381507548 L 9.048781837190987 12.276239381507548 L 9.048781837190987 12.742211648142375 L 13.922081273037408 12.742211648142375 L 13.922081273037408 12.276239381507548 L 13.51435451280637 12.276239381507548 L 13.825003261077125 11.32487637045426 L 13.84441900039259 10.606502231186555 Q 14.19389820036871 10.490008479910806 14.368638484973811 10.33468393462117 Q 14.621040357606692 10.567671437172667 14.931688078951879 10.567671437172667 Q 14.912273708870499 10.76182609185915 15.009351720830782 10.89773421321628 Q 15.785971708810798 11.499616655059363 17.78577231979245 11.946173182378724 L 18.465315665046262 13.266429763489512 Q 18.465315665046262 12.942390932799807 18.666445882775246 12.942390932799807 Q 18.73044046079052 12.942390932799807 18.81479623425647 12.97519504299162 L 18.27116032574274 12.00442040032512 L 18.27116032574274 12.00442040032512 Q 19.39726088293296 12.256823642192083 19.97972758546058 12.645134320799134 Q 20.290376676039852 12.97519504299162 19.94089679144669 13.44116867886053 Q 20.71751746404375 13.11110658743396 20.814596160621075 12.509224145590878 Q 20.503945700807716 9.577479001339576 15.552985575493386 8.431961335599805 L 15.203506375517266 9.014428722744466 L 14.892857284937993 9.014428722744466 Q 14.640456096922156 8.198975202282393 12.893057700881908 7.88832679632016 Q 13.283009064230479 7.599008318923254 13.852256838599681 7.599008318923254 Q 14.161630487629424 7.599008318923254 14.523962345646407 7.684463587358902 Q 14.891470935427632 7.771140212597752 15.241644337084495 7.771140212597752 Q 15.87195550160299 7.771140212597752 16.446100683983236 7.490308248055377 Q 17.339214423239 7.053458905776705 20.989335075992095 2.665548716748965 Q 20.31660024722249 1.8173165880798985 19.56675152405883 1.8173165880798985 Q 19.321111613951302 1.8173165880798985 19.067196737655266 1.9083427565418083 L 14.349222745658347 5.286645797346556 L 14.349222745658347 0.025035944973045218 Q 14.173971736739798 0.0 14.014203342229544 0.0 Z"
     style="fill:#ffffff;stroke:none"
     id="path6" />
  <path
     d="M 14.787816725437374 15.285542133461169 C 15.549371373096287 15.285542133461169 16.502609207919512 15.676756272943992 16.963869255453197 16.13801632047768 C 17.367423959429352 16.541570682145313 17.42018123331472 17.07660848522664 17.434973411436005 17.573762319663377 L 12.163093570676018 17.573762319663377 C 12.177885919951562 17.07660848522664 12.230643193836931 16.541570682145313 12.634197726658826 16.13801632047768 C 13.095457945346773 15.676756272943992 14.02626242008698 15.285542133461169 14.787816725437374 15.285542133461169 ZM 14.787816725437374 14.859305039952915 C 13.884368520776045 14.859305039952915 12.912275476840618 15.276666758126694 12.34256182057423 15.846380414393082 C 11.758218113396996 16.430724336850286 11.69198941469321 17.200007968606588 11.69198941469321 17.775664100798863 L 11.69198941469321 17.99999941317163 L 17.883644036181536 17.99999941317163 L 17.883644036181536 17.775664100798863 C 17.883644036181536 17.200007968606588 17.839849083994995 16.430724336850286 17.25550516153779 15.846380414393082 C 16.685791847579925 15.276666758126694 15.691265101252963 14.859305039952915 14.787816725437374 14.859305039952915 Z"
     style="fill:#ffffff;stroke:none"
     id="path8" />
  <path
     d="M 37.38603436883218 4.629696988831469 C 36.87513891282361 4.670030345159319 36.59280215991122 4.925477892129301 36.53902392906072 5.39603908663851 C 36.606246853399576 5.906934904715683 36.88858360631196 6.175827326208321 37.38603436883218 6.202716713185026 C 37.883485131352394 6.175827326208321 38.14565502506655 5.906934904715683 38.17254368790605 5.39603908663851 C 38.1322103315782 4.925477892129301 37.87004043786404 4.670030345159319 37.38603436883218 4.629696988831469 ZM 37.446534584358254 2.9356750230827373 C 37.809539498200756 2.9356750230827373 38.14565538713516 3.0028982189730478 38.45488152702425 3.1373446107536687 C 38.764107304844735 3.2717910025342896 39.036360447123705 3.4566544517933266 39.27164095386116 3.691935139565082 C 39.506921822667216 3.9272158273368376 39.691785362443404 4.196108067795173 39.82623157318972 4.498611498871483 C 39.96067742186744 4.801115110982096 40.02790016517199 5.1204246804703 40.02790016517199 5.456540388370399 C 40.02790016517199 5.806100246655944 39.96067742186744 6.132132162888325 39.82623157318972 6.4346361370675424 C 39.691785362443404 6.737139749178155 39.506921822667216 7.002671087815855 39.27164095386116 7.2312294288434344 C 39.036360447123705 7.4597877698710136 38.764107304844735 7.637928781868723 38.45488152702425 7.765653188973772 C 38.14565538713516 7.893376871941612 37.809539498200756 7.95723853239123 37.446534584358254 7.95723853239123 C 37.08353021361866 7.95723853239123 36.74405396596653 7.893376871941612 36.428105660367564 7.765653188973772 C 36.11215681166569 7.637928781868723 35.83990330731812 7.4597877698710136 35.61134523784199 7.2312294288434344 C 35.382786534745804 7.002671087815855 35.20128434937601 6.737139749178155 35.06683859121544 6.4346361370675424 C 34.932392244693396 6.132132162888325 34.86516904880309 5.806100246655944 34.86516904880309 5.456540388370399 C 34.86516904880309 5.1204246804703 34.932392244693396 4.801115110982096 35.06683859121544 4.498611498871483 C 35.20128434937601 4.196108067795173 35.382786534745804 3.9272158273368376 35.61134523784199 3.691935139565082 C 35.83990330731812 3.4566544517933266 36.11215681166569 3.2717910025342896 36.428105660367564 3.1373446107536687 C 36.74405396596653 3.0028982189730478 37.08353021361866 2.9356750230827373 37.446534584358254 2.9356750230827373 ZM 37.40620159009901 2.25 C 36.962528877394995 2.25 36.54574573270199 2.334028904345737 36.155851793951385 2.502086713037211 C 35.765958036235084 2.6701445443579725 35.42984269040359 2.8987028853855517 35.14750584697405 3.187761758749236 C 34.86516904880309 3.4768212204744025 34.639971745371874 3.812936475788746 34.471913936680394 4.196107705726568 C 34.30385672766505 4.5792794787672975 34.2198281288147 4.992701359571065 34.2198281288147 5.436373167103568 C 34.2198281288147 5.8800451556703734 34.30385672766505 6.293467036474141 34.471913936680394 6.67663880951487 C 34.639971745371874 7.059810582555599 34.86516904880309 7.392565026566459 35.14750584697405 7.674901779478844 C 35.42984269040359 7.95723853239123 35.765958036235084 8.182436152632476 36.155851793951385 8.350493916065375 C 36.54574573270199 8.518550955361064 36.962528877394995 8.602579837077514 37.40620159009901 8.602579837077514 C 37.849873578665814 8.602579837077514 38.26329509740098 8.518550955361064 38.6464661463045 8.350493916065375 C 39.02963791934523 8.182436152632476 39.36575344621102 7.95723853239123 39.65481308897049 7.674901779478844 C 39.94387200759275 7.392565026566459 40.17243034862033 7.059810582555599 40.340487749984625 6.67663880951487 C 40.50854623755473 6.293467036474141 40.59257511927118 5.8800451556703734 40.59257511927118 5.436373167103568 C 40.59257511927118 4.992701359571065 40.50854623755473 4.5792794787672975 40.340487749984625 4.196107705726568 C 40.17243034862033 3.812936475788746 39.94387200759275 3.4768212204744025 39.65481308897049 3.187761758749236 C 39.36575344621102 2.8987028853855517 39.02963791934523 2.6701445443579725 38.6464661463045 2.502086713037211 C 38.26329509740098 2.334028904345737 37.849873578665814 2.25 37.40620159009901 2.25 Z"
     style="fill:#ffffff;stroke:none"
     id="path10" />
  <path
     d="M 31.81813358515501 12.546648502349854 L 31.533391248434782 13.163590231910348 L 30.63170718215406 15.180515117011964 L 30.489336013793945 15.465257453732193 L 31.08254921529442 15.74999979045242 L 31.224920383654535 15.441528925672174 L 31.84186211321503 14.041545770131052 L 32.15033297799528 14.587301915511489 L 32.435075314715505 15.156786588951945 L 32.71981765143573 14.587301915511489 L 33.052017044276 13.994088714011014 L 33.360487909056246 14.587301915511489 L 33.645230245776474 15.156786588951945 L 33.9299725824967 14.587301915511489 L 34.23844344727695 13.994088714011014 L 34.570642840117216 14.587301915511489 L 34.855385176837444 15.156786588951945 L 35.14012751355767 14.587301915511489 L 35.44859837833792 14.017817242071033 L 35.75706924311817 14.587301915511489 L 36.065540107898414 15.156786588951945 L 36.35028244461864 14.587301915511489 L 36.65875330939889 13.994088714011014 L 36.96722417417914 14.587301915511489 L 37.275695038959384 15.156786588951945 L 37.56043737567961 14.587301915511489 L 37.86890824045986 13.994088714011014 L 38.17737910524011 14.587301915511489 L 38.485849970020354 15.156786588951945 L 38.77059230674058 14.587301915511489 L 39.07906317152083 13.994088714011014 L 39.387534036301076 14.587301915511489 L 39.672276373021305 15.156786588951945 L 39.98074723780155 14.587301915511489 L 40.2892181025818 13.994088714011014 L 40.597688967362046 14.587301915511489 L 40.882431304082274 15.156786588951945 L 41.19090216886252 14.587301915511489 L 41.49937303364277 13.994088714011014 L 41.831572426483035 14.611030443571508 L 42.11631476320326 15.133058060891926 L 42.42478562798351 14.611030443571508 L 42.75698502082378 13.970360185950994 L 43.58748350292444 15.465257453732193 L 43.753583199344575 15.74999979045242 L 44.32306787278503 15.441528925672174 L 44.18069670442492 15.156786588951945 L 43.041727357544005 13.11613317579031 L 42.75698502082378 12.61783408652991 L 42.47224268410355 13.139861703850329 L 42.11631476320326 13.756803433410823 L 41.784115370363 13.139861703850329 L 41.47564450558275 12.594105558469892 L 41.21463069692254 13.139861703850329 L 40.882431304082274 13.733074905350804 L 40.57396043930203 13.139861703850329 L 40.2892181025818 12.570377030409873 L 40.00447576586157 13.139861703850329 L 39.696004901081324 13.733074905350804 L 39.36380550824106 13.139861703850329 L 39.07906317152083 12.570377030409873 L 38.7943208348006 13.139861703850329 L 38.462121441960335 13.733074905350804 L 38.15365057718009 13.139861703850329 L 37.86890824045986 12.570377030409873 L 37.58416590373963 13.139861703850329 L 37.275695038959384 13.733074905350804 L 36.94349564611912 13.139861703850329 L 36.65875330939889 12.570377030409873 L 36.37401097267866 13.139861703850329 L 36.065540107898414 13.709346377290785 L 35.75706924311817 13.139861703850329 L 35.44859837833792 12.570377030409873 L 35.16385604161769 13.139861703850329 L 34.855385176837444 13.733074905350804 L 34.5469143120572 13.139861703850329 L 34.23844344727695 12.570377030409873 L 33.95370111055672 13.139861703850329 L 33.645230245776474 13.733074905350804 L 33.33675938099623 13.139861703850329 L 33.052017044276 12.570377030409873 L 32.74354617949575 13.139861703850329 L 32.435075314715505 13.733074905350804 L 32.12660444993526 13.139861703850329 L 31.81813358515501 12.546648502349854 Z"
     style="fill:#ffffff;stroke:none"
     id="path12" />
  <path
     d="M 48.769255182534934 2.25 C 48.70409764268863 2.25 48.699583788065674 2.455414333978836 48.60614819812984 2.7595656417292513 C 48.4998608138781 3.105550655683528 48.42184130661562 3.829001842704586 48.1763522226521 3.969464840078134 C 48.13899826616945 3.9908378566640463 48.102209500454464 3.997928841098892 48.065207433178 3.997928841098892 C 47.992235451372494 3.997928841098892 47.918433944964356 3.9703509004347355 47.83783163763737 3.9703509004347355 C 47.80816120698747 3.9703509004347355 47.77756919351608 3.974087763677793 47.745757908961096 3.9843128968575297 C 47.630643609114735 4.021313963501178 47.569999590347116 4.2007197554935125 47.44879627305678 4.221882138872124 C 46.94638028836577 4.309605616390501 46.25899628572187 4.276440142094203 45.87489963299138 4.310970813092767 C 45.628213557659265 4.333148004916686 46.286985361393384 4.818226775317957 46.94573971659282 4.818226775317957 C 46.95504660239378 4.818226775317957 46.96435348819473 4.818129880707156 46.97365778902759 4.817933589903519 C 47.11048665479363 4.814980889242193 47.254793916665584 4.80869541422244 47.39820127609367 4.80869541422244 C 47.638629492829374 4.80869541422244 47.87652827658397 4.826362587182523 48.07241565842419 4.907022264124162 C 48.264522816266094 4.986124956407561 48.49088613817132 5.215844067225923 48.4881619153358 5.441553142043068 L 48.40826271933263 12.06166912661938 L 49.148703817670985 12.06166912661938 L 49.11103899792753 4.583799186794357 C 49.1100273581528 4.382934990882667 49.68924999974992 4.246765542140909 49.76509696640156 4.073401404306036 C 49.89712312820573 3.7716270581117195 49.82962010504392 2.440584246897055 49.61661606506333 2.2619355580559923 C 49.614164514669575 2.2598794563170412 49.61165359339553 2.258875439852979 49.609082634152664 2.258875439852979 C 49.51322534603535 2.258875439852979 49.33410506793921 3.6546377391444773 49.0523889068135 3.9546167832987393 C 49.02361737797464 3.9852534917024816 48.96691418477195 3.9991929738869656 48.91779145222219 3.9991929738869656 C 48.86518284849349 3.9991929738869656 48.82126807619517 3.9832050295605406 48.829667721578296 3.9546167832987393 C 49.00873129714832 3.345181034522372 49.08082989327954 2.456068622759946 48.79997160801951 2.2619355580559923 C 48.788325909788476 2.2538859945837375 48.77821685001514 2.25 48.769255182534934 2.25 Z"
     style="fill:#ffffff;stroke:none"
     id="path14" />
  <path
     d="M 54.34180891437426 2.25 C 53.834966826635196 2.25 53.39053102000426 2.6228421611776964 53.39053102000426 3.101420933712781 L 53.39053102000426 12.061669369381033 L 54.009746244522645 12.061669369381033 L 54.009746244522645 3.101420933712781 C 54.009746244522645 2.866687518783319 54.21607717133369 2.790740680790784 54.34572153804567 2.790740680790784 C 54.48175573154881 2.790740680790784 54.69122321963821 2.886096928111315 54.69122321963821 3.1737194145974827 L 54.69122321963821 9.062898496356278 L 55.310438444156595 9.062898496356278 L 55.310438444156595 3.1737194145974827 C 55.310438444156595 2.694535275186608 54.83588015326331 2.25 54.34180891437426 2.25 Z"
     style="fill:#ffffff;stroke:none"
     id="path16" />
  <path
     d="M 50.56675271892189 13.652908097360811 Q 52.23769674411039 13.652908097360811 54.11049912053794 14.460344098051786 Q 52.23769674411039 15.245351133476058 50.56675271892189 15.245351133476058 Q 48.90702356572696 15.245351133476058 47.02300670666605 14.460344098051786 Q 48.90702356572696 13.652908097360811 50.56675271892189 13.652908097360811 ZM 50.56675271892189 13.13704656854918 Q 48.50330556538147 13.13704656854918 45.82306718826294 14.449129615418435 Q 48.50330556538147 15.749998828588025 50.56675271892189 15.749998828588025 Q 52.63019987246231 15.749998828588025 55.31043824958084 14.449129615418435 Q 52.641414484882404 13.13704656854918 50.56675271892189 13.13704656854918 Z"
     style="fill:#ffffff;stroke:none"
     id="path18" />
  <path
     d="M 30.489336013793945 0.375 C 20.86433607339859 0.375 20.86433607339859 17.625 30.489336013793945 17.625 "
     style="fill:none;stroke:#ffffff;stroke-width:1"
     id="path20" />
  <path
     d="M 30.489336013793945 0.375 L 55.31043815612793 0.375 "
     style="fill:none;stroke:#ffffff;stroke-width:1"
     id="path22" />
  <path
     d="M 30.489336013793945 17.625 L 55.31043815612793 17.625 "
     style="fill:none;stroke:#ffffff;stroke-width:1"
     id="path24" />
  <path
     d="M 62.99793815612793 0.375 L 62.99793815612793 17.625 "
     style="fill:none;stroke:#ffffff;stroke-width:1"
     id="path26" />
  <path
     d="M 55.31043815612793 0.375 C 64.93543720245361 0.375 64.93543720245361 17.625 55.31043815612793 17.625 "
     style="fill:none;stroke:#ffffff;stroke-width:1"
     id="path28" />
</svg>
