<?xml version="1.0" encoding="UTF-8" standalone="no"?>
<svg
   width="101.20333862304688"
   height="18.0"
   version="1.1"
   id="svg28"
   sodipodi:docname="pantjeny.svg"
   inkscape:version="1.1.1 (3bf5ae0d25, 2021-09-20)"
   xmlns:inkscape="http://www.inkscape.org/namespaces/inkscape"
   xmlns:sodipodi="http://sodipodi.sourceforge.net/DTD/sodipodi-0.dtd"
   xmlns="http://www.w3.org/2000/svg"
   xmlns:svg="http://www.w3.org/2000/svg">
  <defs
     id="defs32" />
  <sodipodi:namedview
     id="namedview30"
     pagecolor="#ffffff"
     bordercolor="#666666"
     borderopacity="1.0"
     inkscape:pageshadow="2"
     inkscape:pageopacity="0.0"
     inkscape:pagecheckerboard="0"
     showgrid="false"
     inkscape:zoom="13.586508"
     inkscape:cx="50.601669"
     inkscape:cy="9.0162974"
     inkscape:window-width="1920"
     inkscape:window-height="1001"
     inkscape:window-x="-9"
     inkscape:window-y="-9"
     inkscape:window-maximized="1"
     inkscape:current-layer="svg28" />
  <path
     d="M 9.619241759901131 8.704017150225534 C 9.956114020057063 8.704017150225534 10.371109904274771 8.76399089929749 10.864229412554256 8.883939352346172 C 11.905261819800385 9.137163864337834 12.8056128816014 9.495897714329981 13.565284507766846 9.960140902322616 C 14.32495613393229 10.42438504522002 15.176070395910864 11.008207138114807 16.1186263387978 11.711606226102205 C 15.211383729261659 12.170969850713034 14.168207560803758 12.400651185566062 12.989095923614554 12.400651185566062 C 12.723796640788658 12.400651185566062 12.45161535927535 12.38902331016484 12.172553033979401 12.365768514267165 C 10.653210736553286 12.239155780818948 9.3484030744964 11.792497164191472 8.258132912523058 11.025791709479964 C 7.167863705454489 10.259086254768457 6.897054622097669 9.78780828332499 7.445706139904986 9.61195779514956 C 7.994358612617073 9.436108261878905 8.441018184149321 9.207503104703234 8.78568342214457 8.92614327852732 C 8.967086681565636 8.778059511294387 9.244939142516232 8.704017150225534 9.619241759901131 8.704017150225534 ZM 16.87829701005847 11.880422885731571 L 17.743478929129175 12.070340076094354 C 17.743478929129175 12.295428318996994 17.539492171864723 12.478311680813713 17.131522476954906 12.618992071354056 C 16.899402315315747 12.634818663035082 16.657389340244983 12.642731958875595 16.405485461552153 12.642731958875595 C 15.985642480714866 12.642731958875595 15.538322115080815 12.620750051038186 15.063526274459544 12.576788145172907 C 15.977946903162229 12.464244023721587 16.582870481695206 12.232122907177656 16.87829701005847 11.880422885731571 ZM 18.207723072026578 12.196952809542571 L 18.73527358164809 12.302462147543055 C 18.791544210016596 12.471278807172421 18.594593191107748 12.640094511897015 18.144416705302472 12.808910216621609 L 17.532460253128203 12.76670629044046 C 17.968567172031815 12.569755271531616 18.193655414934454 12.379837126264063 18.207723072026578 12.196952809542571 ZM 19.009598624373172 12.407972440448313 L 19.36833342927009 12.49238029281061 C 19.283925576907794 12.731536192805375 19.030702019820904 12.851114142802757 18.608660848199875 12.851114142802757 C 18.847816748194642 12.696366095170289 18.98146331018892 12.548652830988656 19.009598624373172 12.407972440448313 ZM 19.600455500718795 12.618992071354056 C 19.938086910167982 12.71746853571325 20.163175153070622 12.87925041189178 20.27571831961717 13.10433865479442 L 19.326128548184172 12.893318068983906 C 19.509013819810434 12.808910216621609 19.600455500718795 12.71746853571325 19.600455500718795 12.618992071354056 ZM 17.405847519679988 13.864010280959864 C 18.46094662911347 13.99062205950331 19.255788352914 14.28604954277135 19.790372691081576 14.750293685668755 L 17.173725448231284 14.138336278589716 C 17.20186267222508 13.983587276052475 17.279236696041313 13.892145595144116 17.405847519679988 13.864010280959864 ZM 5.187792747046841 0.40093762696942586 C 5.848988863757863 0.40093762696942586 6.3484031042903535 0.5838216154424017 6.686035468644312 0.9495895923883535 C 7.0236668780935005 1.3153575693343054 7.129177170998758 2.198124417859453 7.0025653924553115 3.5978901976453446 C 6.875952659007095 4.997655977431236 6.8337487328259465 5.947245271411848 6.875953136459481 6.446659034491953 C 6.918156585188243 6.946073275024443 7.048285755457107 7.315357867835686 7.266340169813683 7.554513290378066 C 7.4843936292654885 7.793669667825216 7.748168406623859 8.029308176094565 8.05766402443641 8.261430247543267 C 8.367160119701346 8.49355231899197 8.212412072068878 8.70105503562468 7.5934203589913905 8.883939352346172 C 6.974429123366289 9.06682271416289 6.629762930466267 9.33763179751971 6.559423212648482 9.69636660241663 C 6.48908301737831 10.055099497504006 6.577008261466024 10.385698033311902 6.823197990006852 10.688160300030777 C 7.069388196000066 10.99062256674965 7.656726725715499 11.398594171469009 8.585214534057924 11.912075114188854 C 9.513701864947961 12.42555701181347 10.333162943564483 12.752637678443564 11.043595860097945 12.893318068983906 C 11.754030686440949 13.033998459524248 13.931053141209826 13.10433865479442 17.57466322440458 13.10433865479442 C 18.700104438917776 13.315358285700162 19.445707453086325 13.596718111876076 19.811474176719763 13.94841813332216 L 17.405847519679988 13.399766138062459 C 17.18076118658689 13.47010633333263 17.00490974350669 13.60375194042214 16.87829701005847 13.800703914235756 C 16.87829701005847 14.166472547678739 16.083455286257944 14.37749217858448 14.493772793561655 14.433763761857755 C 14.254616893566888 14.433763761857755 14.092834062483586 14.103166180954629 14.008427165026061 13.441970064243609 L 13.755202653034399 13.652989695149351 C 13.881814431577844 14.187574033316928 13.91698452921293 14.658852004760394 13.860712945939655 15.066823609479753 C 13.663760972126038 14.588511809490223 13.319094779226017 14.271981885679224 12.826715322144361 14.117233838046756 C 12.038906471985122 13.976553447506413 11.335507383997724 13.846424754689936 10.71651519346785 13.726846804692553 C 10.097523002937978 13.607269809599941 9.471497938766813 13.350529338240019 8.838438091144814 12.956624435708015 C 8.275718438792987 12.520516561899633 7.371849507814169 12.049238590456165 6.126831775660745 11.542790521377611 C 4.881814043507322 11.03634340720383 4.259305416156803 10.283705609584448 4.259305416156803 9.284877128519467 C 4.259305416156803 8.286049602359258 4.593420388785345 7.459554695196674 5.261649856590044 6.805393361936487 C 5.929879801847128 6.151231551223914 6.2639942970232845 5.366941047694864 6.2639942970232845 4.452521373896952 C 6.2639942970232845 4.002345365544058 6.207722713750011 3.5767882345547704 6.095179069751077 3.175850219655281 C 5.993352799453844 2.8130966980279646 5.689997219321334 2.6317199372143065 5.185112329353548 2.6317199372143065 C 5.131966626849421 2.6317199372143065 5.076588356989783 2.6337295343056977 5.0189770423222475 2.6377489672146734 L 3.2464102329044677 2.869871038663376 C 3.3026820549039346 2.6869874381204633 3.387089668540039 2.5181714946696765 3.4996335512651657 2.363423447037208 C 3.6403134643531225 1.9273154538657298 3.795061511985591 1.6740914193264531 3.9638776941625706 1.6037515821455712 C 3.9884963327999836 1.6899181303705768 4.083125485835245 1.733001523846176 4.247764437089777 1.733001523846176 C 4.271284696513898 1.733001523846176 4.296233016023633 1.732122295277918 4.32261082797614 1.7303637187783059 C 4.603971609056825 1.7162955842337946 4.765753485235356 1.5756155517827413 4.8079574114165045 1.308323860151339 C 4.7798216197798675 1.0410321685199366 4.6180397436013365 0.9003521360688832 4.32261082797614 0.8862840612059201 C 4.069387270889249 0.9003521360688832 3.9287073578012923 1.0410321685199366 3.9005710887122693 1.308323860151339 C 3.6754838007144013 1.5193437297832741 3.4996337899913588 1.765533697050295 3.373021295269335 2.046893523226209 C 3.3320964640294637 2.0673559388461444 3.2921017100369276 2.0775870272930157 3.2530370332917253 2.0775870272930157 C 3.1846734908983327 2.0775870272930157 3.119158190711805 2.046253737029377 3.0564913714583355 1.9835869177759076 C 3.225307553635315 1.6459552696005268 3.471497998354722 1.2977725205167625 3.7950622281641695 0.9390390286139039 C 4.118625980521232 0.5803047608509185 4.582869168513866 0.40093762696942586 5.187792747046841 0.40093762696942586 ZM 9.977946007845366 14.159437764227905 L 10.653208826743741 14.328253468952498 L 9.89353815548307 15.425557459471902 L 9.977946007845366 14.159437764227905 ZM 11.286269629270512 14.391559835676606 C 11.84898928162234 14.391559835676606 12.32378416733884 14.451348333222912 12.71065428642001 14.570927238125066 C 13.09752440550118 14.690504233217677 13.336679350591174 15.144197633295988 13.428121986404305 15.932005528550455 C 13.517959427296729 16.705992132143816 13.400721948894024 17.092986388845265 13.07640859629142 17.092986388845265 C 13.070618053757709 17.092986388845265 13.064760667889999 17.092862251224986 13.058837393593063 17.09261588579397 L 11.03304511727885 17.09261588579397 C 10.988356528882543 17.089306185856326 10.942987093384234 17.087650380982737 10.896935855879153 17.087650380982737 C 10.551564943257846 17.087650380982737 10.167861288398607 17.180747866764687 9.745823936396663 17.366940928519046 C 9.858368057847983 16.382182014355735 10.3718499554726 15.390387361836815 11.286269629270512 14.391559835676606 ZM 5.187792747046841 0.0 C 4.231169147067781 0.0 3.443361967991892 0.5345838607151904 2.8243702549144043 1.6037515821455712 C 2.613350385282469 1.9554513648654634 1.9873244855696295 2.3071511475853557 0.946292317049693 2.6588511690314407 C 0.22882448278191372 2.869871038663376 -0.08067132899566878 3.165298999383801 0.017804894772284054 3.545135051192716 L 0.03890708726380924 3.798358369553414 C 1.3753664816751086 3.6717465910099687 2.493771957832701 3.5099647148314377 3.3941234970861016 3.3130129797440135 L 5.040079482865207 3.0175852577497815 C 5.048381902400062 3.0173546482474904 5.056615568791377 3.017239343496345 5.064780004586766 3.017239343496345 C 5.5546451974053515 3.017239343496345 5.796118651280282 3.432360558965298 5.789199888759171 4.2626027511770115 C 5.782166060213108 5.106682229704753 5.4269491244939925 5.862836941597166 4.723549559054208 6.5310668868542505 C 4.020149993614424 7.199296832111335 3.661415904896083 8.166471652361876 3.6473477703515713 9.432591347605873 C 3.6473477703515713 10.459556097759878 4.136210551886389 11.19460836910933 5.11393659240841 11.637750071463774 C 6.09166167802566 12.08089177381822 7.037734535185626 12.555685704629948 7.952154686435924 13.062133773708501 C 8.866573405329065 13.568581842787054 9.387089131499744 13.962486745319058 9.513701864947961 14.243845616590201 C 9.44336166967779 15.735053554736838 9.26047830786107 16.698711938166735 8.96504986968826 17.134818857070343 C 8.472670412606604 17.134818857070343 7.614522322081965 17.064478661800173 6.390606553019116 16.92379827125983 C 6.01077121738878 16.980070809437876 5.75051335430344 17.10316567370829 5.609832486310712 17.293084773880615 C 5.469153528127526 17.48300387405294 5.497289319764163 17.69050468087611 5.69424129357778 17.91559292377875 C 5.7882960713930505 17.77973671214347 5.878469161312617 17.711806696516287 5.9647610407888685 17.711806696516287 C 5.99463093949035 17.711806696516287 6.024035799568166 17.719946304787623 6.052975621022314 17.73622552133029 C 6.165519265021248 17.799531888054396 6.446879091197162 17.831185071416453 6.897054144645284 17.831185071416453 L 8.96504986968826 17.831185071416453 C 9.066651737364214 17.811645809984256 9.162826881224358 17.801877134172933 9.253573391459145 17.801877134172933 C 9.489516991802953 17.801877134172933 9.68877028611562 17.867918348162302 9.851334229301921 18.000000776141047 C 10.048286203115538 17.98593311904892 10.21710095293536 17.929660580870873 10.357781343475702 17.831185071416453 C 10.978782653644581 17.849272877596132 11.498366392758383 17.8583158257812 11.916529696102794 17.8583158257812 C 12.474082358736627 17.8583158257812 12.85133372205558 17.842239049050068 13.048285695869197 17.810083585778262 C 13.39295188876922 17.753811047600216 13.705964898307187 17.704574247777778 13.987324724483102 17.662369366691856 L 14.704792424467398 17.89449143814056 C 14.713104870502352 17.89513122433739 14.721098378343662 17.895450162531034 14.728771038181785 17.895450162531034 C 14.889915037973028 17.895450162531034 14.91005779922074 17.754450833797048 14.789201231734465 17.47245026651953 C 14.170209041204592 17.134818857070343 14.02952865066425 16.28370459509177 14.367161015018208 14.919109390393348 L 14.367161015018208 14.919109390393348 C 14.486100133723532 14.921667580275903 14.601202445057407 14.922946197764796 14.712467949019834 14.922946197764796 C 15.825117259215483 14.922946197764796 16.55409538131412 14.795054846827687 16.899400405506203 14.539274054763013 C 18.306200491290543 14.792496656945131 19.452741281632388 15.03868734039073 20.33902468634128 15.277843240385495 L 20.486738905427682 15.024620638203377 C 20.1209702719847 14.616648078579246 19.84664522925962 14.356389738041521 19.6637618674429 14.243845616590201 L 19.6637618674429 14.243845616590201 L 20.59224824342817 14.433763761857755 C 20.74230770863311 14.490035345131028 20.8462548224276 14.518171614220051 20.90408958481164 14.518171614220051 C 21.01975910957972 14.518171614220051 20.95098304832509 14.405627492768732 20.697759491238198 14.180540204770864 C 20.641486953060152 14.025792157138396 20.23351534834079 13.723330845324293 19.473842767270575 13.273154359519014 L 19.473842767270575 13.273154359519014 L 20.761063948152763 13.526377916605906 C 20.901744338693106 12.62602685480489 19.924019253075855 11.985932223732057 17.827886781491472 11.606096888101721 C 16.73058279097207 11.352873331014829 15.738790048262691 10.86049196412363 14.852506643553802 10.12895660704721 C 13.684862457764227 9.101993766702748 11.91932947689251 8.349355969083367 9.55590579112911 7.871043214189065 C 8.303853752977238 7.786635839279153 7.607488493535902 7.4032831119233995 7.466808580447945 6.72098550957419 C 7.326128667359988 6.038687429772594 7.32964558163302 4.95193465952467 7.477359800719425 3.4607274375566117 C 7.625073542353445 1.969519857499264 7.417570825720734 0.9988280632941434 6.854850695916521 0.5486519952597018 C 6.43281095665265 0.1828839884729759 5.877125132846886 0.0 5.187792747046841 0.0 Z"
     style="fill:#ffffff;stroke:none"
     id="path2" />
  <path
     d="M 27.177865186478382 7.937876256002994 C 26.496671245133623 7.991654064440127 26.120222241250442 8.332250793733436 26.04851793344977 8.959665719745715 C 26.138148499234912 9.640860143848613 26.514597503118093 9.999383372505463 27.177865186478382 10.035235888474404 C 27.84113286983867 9.999383372505463 28.190692728124215 9.640860143848613 28.226544278576878 8.959665719745715 C 28.172766470139745 8.332250793733436 27.8232066118542 7.991654064440127 27.177865186478382 7.937876256002994 ZM 27.25853214051315 5.679180301671352 C 27.742538692303153 5.679180301671352 28.190693210882355 5.768811229525099 28.602994730734476 5.948073085232593 C 29.01529576782846 6.127334940940088 29.378299957533752 6.373819539952137 29.692007299850356 6.687527123647811 C 30.0057151249251 7.001234707343485 30.252199844626684 7.3597576946212655 30.43146145895511 7.763095602723013 C 30.610722590525395 8.16643375220383 30.700352914931468 8.592179844854769 30.700352914931468 9.040334122054901 C 30.700352914931468 9.506413933102294 30.610722590525395 9.941123154745469 30.43146145895511 10.344461786984425 C 30.252199844626684 10.747799936465242 30.0057151249251 11.101841721315509 29.692007299850356 11.406586176018948 C 29.378299957533752 11.711330630722387 29.01529576782846 11.948851980052666 28.602994730734476 12.119151189526065 C 28.190693210882355 12.289449433483185 27.742538692303153 12.374598314082675 27.25853214051315 12.374598314082675 C 26.774526312860356 12.374598314082675 26.32189131599085 12.289449433483185 25.900626908525563 12.119151189526065 C 25.479361776923067 11.948851980052666 25.116357104459635 11.711330630722387 24.8116130118248 11.406586176018948 C 24.506868074363222 11.101841721315509 24.264865160536825 10.747799936465242 24.085604149656074 10.344461786984425 C 23.906342354293347 9.941123154745469 23.8167114264396 9.506413933102294 23.8167114264396 9.040334122054901 C 23.8167114264396 8.592179844854769 23.906342354293347 8.16643375220383 24.085604149656074 7.763095602723013 C 24.264865160536825 7.3597576946212655 24.506868074363222 7.001234707343485 24.8116130118248 6.687527123647811 C 25.116357104459635 6.373819539952137 25.479361776923067 6.127334940940088 25.900626908525563 5.948073085232593 C 26.32189131599085 5.768811229525099 26.774526312860356 5.679180301671352 27.25853214051315 5.679180301671352 ZM 27.204754814834157 4.764946937561035 C 26.61319119789547 4.764946937561035 26.057480338304796 4.876985476688684 25.53762175330399 5.101062554943983 C 25.017763409682257 5.325139663371665 24.569609615240264 5.629884118075104 24.193160490667548 6.015295949226683 C 23.8167114264396 6.400708564860238 23.516448355197976 6.848862238612696 23.292371276942678 7.359757211863126 C 23.068294998255546 7.870652909250765 22.956256866455078 8.421882083655788 22.956256866455078 9.013444493699126 C 22.956256866455078 9.605007145121533 23.068294998255546 10.156236319526556 23.292371276942678 10.667132016914195 C 23.516448355197976 11.178027714301834 23.8167114264396 11.621700306316313 24.193160490667548 11.998149310199494 C 24.569609615240264 12.374598314082675 25.017763409682257 12.67486180773767 25.53762175330399 12.898938825648202 C 26.057480338304796 13.123014878042454 26.61319119789547 13.23505338699772 27.204754814834157 13.23505338699772 C 27.796317466256564 13.23505338699772 28.347546157903448 13.123014878042454 28.85844088977481 12.898938825648202 C 29.369336587162447 12.67486180773767 29.81749062298351 12.374598314082675 30.202903479996134 11.998149310199494 C 30.58831537149248 11.621700306316313 30.89305982619592 11.178027714301834 31.11713636134831 10.667132016914195 C 31.34121434477512 10.156236319526556 31.453252853730387 9.605007145121533 31.453252853730387 9.013444493699126 C 31.453252853730387 8.421882083655788 31.34121434477512 7.870652909250765 31.11713636134831 7.359757211863126 C 30.89305982619592 6.848862238612696 30.58831537149248 6.400708564860238 30.202903479996134 6.015295949226683 C 29.81749062298351 5.629884118075104 29.369336587162447 5.325139663371665 28.85844088977481 5.101062554943983 C 28.347546157903448 4.876985476688684 27.796317466256564 4.764946937561035 27.204754814834157 4.764946937561035 Z"
     style="fill:#ffffff;stroke:none"
     id="path4" />
  <path
     d="M 49.281965794973075 2.7008420331403613 L 49.23450873885304 7.968575262464583 L 46.45827095583081 8.016032318584621 L 46.43454242777079 2.7245705612003803 L 49.281965794973075 2.7008420331403613 ZM 49.756536356173456 2.25 L 45.98370039463043 2.273728528060019 L 46.00742892269045 8.490602879785001 L 49.6853507719934 8.419417295604944 L 49.756536356173456 2.25 Z"
     style="fill:#ffffff;stroke:none"
     id="path6" />
  <path
     d="M 42.28205036371946 12.54664921760559 L 41.997308026999235 13.163590947166085 L 41.09562396071851 15.180515832267702 L 40.9532527923584 15.46525816898793 L 41.546465993858874 15.750000505708158 L 41.68883716221899 15.44152964092791 L 42.30577889177948 14.041546485386789 L 42.61424975655973 14.587302630767226 L 42.89899209327996 15.156787304207683 L 43.183734430000186 14.587302630767226 L 43.51593382284045 13.99408942926675 L 43.8244046876207 14.587302630767226 L 44.10914702434093 15.156787304207683 L 44.393889361061156 14.587302630767226 L 44.7023602258414 13.99408942926675 L 45.03455961868167 14.587302630767226 L 45.3193019554019 15.156787304207683 L 45.604044292122126 14.587302630767226 L 45.91251515690237 14.01781795732677 L 46.22098602168262 14.587302630767226 L 46.52945688646287 15.156787304207683 L 46.814199223183095 14.587302630767226 L 47.12267008796334 13.99408942926675 L 47.43114095274359 14.587302630767226 L 47.73961181752384 15.156787304207683 L 48.024354154244065 14.587302630767226 L 48.33282501902431 13.99408942926675 L 48.64129588380456 14.587302630767226 L 48.94976674858481 15.156787304207683 L 49.234509085305035 14.587302630767226 L 49.54297995008528 13.99408942926675 L 49.85145081486553 14.587302630767226 L 50.13619315158576 15.156787304207683 L 50.444664016366005 14.587302630767226 L 50.75313488114625 13.99408942926675 L 51.0616057459265 14.587302630767226 L 51.34634808264673 15.156787304207683 L 51.654818947426975 14.587302630767226 L 51.96328981220722 13.99408942926675 L 52.29548920504749 14.611031158827245 L 52.580231541767716 15.133058776147664 L 52.888702406547964 14.611031158827245 L 53.22090179938823 13.970360901206732 L 54.051400281488895 15.46525816898793 L 54.21749997790903 15.750000505708158 L 54.786984651349485 15.44152964092791 L 54.64461348298937 15.156787304207683 L 53.50564413610846 13.116133891046047 L 53.22090179938823 12.617834801785648 L 52.936159462668 13.139862419106066 L 52.580231541767716 13.75680414866656 L 52.24803214892745 13.139862419106066 L 51.9395612841472 12.594106273725629 L 51.678547475486994 13.139862419106066 L 51.34634808264673 13.733075620606542 L 51.03787721786648 13.139862419106066 L 50.75313488114625 12.57037774566561 L 50.468392544426024 13.139862419106066 L 50.15992167964578 13.733075620606542 L 49.82772228680551 13.139862419106066 L 49.54297995008528 12.57037774566561 L 49.258237613365054 13.139862419106066 L 48.92603822052479 13.733075620606542 L 48.61756735574454 13.139862419106066 L 48.33282501902431 12.57037774566561 L 48.048082682304084 13.139862419106066 L 47.73961181752384 13.733075620606542 L 47.40741242468357 13.139862419106066 L 47.12267008796334 12.57037774566561 L 46.837927751243114 13.139862419106066 L 46.52945688646287 13.709347092546523 L 46.22098602168262 13.139862419106066 L 45.91251515690237 12.57037774566561 L 45.627772820182145 13.139862419106066 L 45.3193019554019 13.733075620606542 L 45.01083109062165 13.139862419106066 L 44.7023602258414 12.57037774566561 L 44.417617889121175 13.139862419106066 L 44.10914702434093 13.733075620606542 L 43.80067615956068 13.139862419106066 L 43.51593382284045 12.57037774566561 L 43.207462958060205 13.139862419106066 L 42.89899209327996 13.733075620606542 L 42.59052122849971 13.139862419106066 L 42.28205036371946 12.54664921760559 Z"
     style="fill:#ffffff;stroke:none"
     id="path8" />
  <path
     d="M 57.32780629122723 2.7483511964998115 C 57.35862160592088 2.7483511964998115 57.3907919926476 2.749548795591807 57.4243173599597 2.7519439937757983 C 57.848918454709434 2.782270246164618 58.31395909454674 2.944020744908034 58.81943973671012 3.2372042689853404 C 58.31395909454674 3.55060066130501 57.848918454709434 3.7199391244847 57.4243173599597 3.7452123427083306 C 57.396747615621436 3.746853280254663 57.37009426869466 3.7476741148186328 57.34435722773167 3.7476741148186328 C 56.9737186897469 3.7476741148186328 56.79312127707062 3.5775155486565815 56.80257866113411 3.2372042689853404 C 56.79326311245483 2.911306610151301 56.96834334815962 2.7483511964998115 57.32780629122723 2.7483511964998115 ZM 57.327806565570334 5.766068265377676 C 57.35862188026398 5.766068265377676 57.3907920840953 5.767265132888064 57.4243173599597 5.769660331072055 C 57.848918454709434 5.799985851879267 58.31395909454674 5.961737082204291 58.81943973671012 6.254921337863205 C 58.31395909454674 6.5683177301828755 57.848918454709434 6.737655461780957 57.4243173599597 6.762928680004587 C 57.39674825575534 6.764568885969312 57.37009545751477 6.765389720533282 57.34435896523799 6.765389720533282 C 56.973719238433105 6.765389720533282 56.79312123134677 6.595232617534446 56.80257866113411 6.254921337863205 C 56.79326311245483 5.929023679029166 56.96834343960732 5.766068265377676 57.327806565570334 5.766068265377676 ZM 57.271670845639356 2.25 C 57.24377929684135 2.25 57.21631115089887 2.250505522891001 57.18926631636421 2.251516568673004 C 56.64840723353805 2.2717360211498376 56.347643643819644 2.60029956336276 56.28698396682739 3.2372042689853404 C 56.3666917598411 3.9146956590463673 56.65504274730672 4.253438427750449 57.152052863271706 4.253438427750449 C 57.15935935168437 4.253438427750449 57.16671101526132 4.253365269589668 57.174107671107144 4.253218953268105 C 57.684641164540324 4.243104105958433 58.39989158467788 4.061134154738183 59.319867527603726 3.7072988574648456 L 68.08489354829186 3.7072988574648456 C 68.8026782585666 3.7679579464769546 69.16409274129691 4.1015737912734584 69.1691465070437 4.7081456602727485 C 69.17419880962728 5.314725576669725 68.81278432689697 5.683728755417923 68.08489354829186 5.81515300177252 L 59.319867527603726 5.81515300177252 C 58.484310615357856 5.450192542989116 57.80158073519406 5.267716337296257 57.271670845639356 5.267716337296257 C 57.24377929684135 5.267716337296257 57.21631115089887 5.268221860187259 57.18926631636421 5.269232905969261 C 56.64840723353805 5.289452358446095 56.347643643819644 5.61801516907741 56.28698396682739 6.254921337863205 C 56.366691754125625 6.932412727924232 56.65504270158287 7.271154033465098 57.152052771824 7.271154033465098 C 57.15935935168437 7.271154033465098 57.16671092381362 7.2710808753043175 57.174107671107144 7.270934558982754 C 57.684641164540324 7.260821174836297 58.39989158467788 7.07885049203444 59.319867527603726 6.725015194761102 L 67.59963254150071 6.725015194761102 C 67.63144829404304 6.7256092390266495 67.66296848761581 6.725907724322639 67.69419385380064 6.725907724322639 C 68.72462435366543 6.725907724322639 69.43363520571762 6.402100925723739 69.82121836255955 5.754493181178803 C 70.22054779369657 5.087262223167404 70.22054779369657 4.420022486176709 69.82121836255955 3.752790796583702 C 69.43925521562888 3.1145743651383064 68.7451174176636 2.795457736227119 67.73881301606137 2.795457736227119 C 67.69306502337979 2.795457736227119 67.64667104413849 2.79611762283737 67.59963254150071 2.7974366644762627 L 59.319867527603726 2.7974366644762627 C 58.484310615357856 2.432476205692859 57.80158073519406 2.25 57.271670845639356 2.25 Z"
     style="fill:#ffffff;stroke:none"
     id="path10" />
  <path
     d="M 57.61578153818846 12.546648502349854 L 57.33103920146823 13.163590231910348 L 56.42935513518751 15.180515117011964 L 56.28698396682739 15.465257453732193 L 56.88019716832787 15.74999979045242 L 57.02256833668798 15.441528925672174 L 57.63951006624848 14.041545770131052 L 57.947980931028724 14.587301915511489 L 58.23272326774895 15.156786588951945 L 58.51746560446918 14.587301915511489 L 58.849664997309446 13.994088714011014 L 59.15813586208969 14.587301915511489 L 59.44287819880992 15.156786588951945 L 59.72762053553015 14.587301915511489 L 60.0360914003104 13.994088714011014 L 60.36829079315066 14.587301915511489 L 60.65303312987089 15.156786588951945 L 60.93777546659112 14.587301915511489 L 61.24624633137137 14.017817242071033 L 61.554717196151614 14.587301915511489 L 61.86318806093186 15.156786588951945 L 62.14793039765209 14.587301915511489 L 62.45640126243234 13.994088714011014 L 62.764872127212584 14.587301915511489 L 63.07334299199283 15.156786588951945 L 63.35808532871306 14.587301915511489 L 63.66655619349331 13.994088714011014 L 63.975027058273554 14.587301915511489 L 64.2834979230538 15.156786588951945 L 64.56824025977403 14.587301915511489 L 64.87671112455428 13.994088714011014 L 65.18518198933452 14.587301915511489 L 65.46992432605475 15.156786588951945 L 65.778395190835 14.587301915511489 L 66.08686605561525 13.994088714011014 L 66.3953369203955 14.587301915511489 L 66.68007925711572 15.156786588951945 L 66.98855012189597 14.587301915511489 L 67.29702098667622 13.994088714011014 L 67.62922037951648 14.611030443571508 L 67.91396271623671 15.133058060891926 L 68.22243358101696 14.611030443571508 L 68.55463297385722 13.970360185950994 L 69.38513145595789 15.465257453732193 L 69.55123115237802 15.74999979045242 L 70.12071582581848 15.441528925672174 L 69.97834465745836 15.156786588951945 L 68.83937531057745 13.11613317579031 L 68.55463297385722 12.61783408652991 L 68.269890637137 13.139861703850329 L 67.91396271623671 13.756803433410823 L 67.58176332339644 13.139861703850329 L 67.2732924586162 12.594105558469892 L 67.01227864995599 13.139861703850329 L 66.68007925711572 13.733074905350804 L 66.37160839233547 13.139861703850329 L 66.08686605561525 12.570377030409873 L 65.80212371889502 13.139861703850329 L 65.49365285411477 13.733074905350804 L 65.1614534612745 13.139861703850329 L 64.87671112455428 12.570377030409873 L 64.59196878783405 13.139861703850329 L 64.25976939499378 13.733074905350804 L 63.951298530213535 13.139861703850329 L 63.66655619349331 12.570377030409873 L 63.38181385677308 13.139861703850329 L 63.07334299199283 13.733074905350804 L 62.741143599152565 13.139861703850329 L 62.45640126243234 12.570377030409873 L 62.17165892571211 13.139861703850329 L 61.86318806093186 13.709346377290785 L 61.554717196151614 13.139861703850329 L 61.24624633137137 12.570377030409873 L 60.96150399465114 13.139861703850329 L 60.65303312987089 13.733074905350804 L 60.344562265090644 13.139861703850329 L 60.0360914003104 12.570377030409873 L 59.75134906359017 13.139861703850329 L 59.44287819880992 13.733074905350804 L 59.134407334029675 13.139861703850329 L 58.849664997309446 12.570377030409873 L 58.5411941325292 13.139861703850329 L 58.23272326774895 13.733074905350804 L 57.924252402968705 13.139861703850329 L 57.61578153818846 12.546648502349854 Z"
     style="fill:#ffffff;stroke:none"
     id="path12" />
  <path
     d="M 72.37905776920945 2.25 L 71.62071514129639 2.723025600475542 L 73.87321801775258 5.951612931420417 L 73.87321801775258 15.75000022918941 L 74.71415233903672 15.75000022918941 L 74.71415233903672 5.681312844024172 L 72.37905776920945 2.25 Z"
     style="fill:#ffffff;stroke:none"
     id="path14" />
  <path
     d="M 81.8929591112162 9.102462215351123 L 82.45614687358744 9.603072843695598 L 81.8929591112162 10.260125591121467 Q 80.64222692628411 11.749761378889309 79.7197193271703 11.749761378889309 Q 79.61528460594782 11.749761378889309 79.51505665761978 11.730670341112539 L 81.8929591112162 9.102462215351123 ZM 79.43683595607183 2.6883823643124725 Q 80.766584660452 2.7353149910870718 81.4236363338996 4.143283591531464 Q 82.31667074727376 6.398572272678596 83.10719107056991 6.398572272678596 Q 83.13371904989286 6.398572272678596 83.16013103956234 6.3960326720562515 Q 83.16324199662581 6.39621560635538 83.16666870330147 6.39621560635538 Q 83.45627267243816 6.39621560635538 86.00735627047538 5.089750750928888 Q 88.58863297768775 3.767825083283971 92.40579233024738 3.4392992465601733 L 92.40579233024738 3.4392992465601733 Q 91.06039970035329 6.505541582624815 85.60060991120002 9.274547185968178 L 84.69325220759467 8.445409467925254 Q 85.69447489625465 7.663204958395159 87.07115537717661 6.513363724378161 Q 88.44783585809856 5.363522490361163 88.11930948438562 4.377944980189767 L 88.11930948438562 4.377944980189767 L 83.19141889059021 6.755847612782568 L 83.31657172667272 7.084373270509987 L 87.75949525964482 4.925487922065178 L 87.75949525964482 4.925487922065178 Q 87.97851236479644 5.66076101304623 83.98926804161977 8.367189482362829 L 85.45981350759635 9.853378515860593 L 87.22759606428697 8.946020812255243 Q 88.63556439623679 10.260125591121467 89.21439572612921 11.284813273070453 Q 89.79322848799265 12.309501671004954 90.04353272818662 12.778824448321561 L 88.8702257848951 12.559808059155463 L 87.58741028902777 12.559808059155463 Q 86.91471397408073 12.606739477704506 86.69569686892912 12.849223008116155 Q 86.52595889883082 13.03714701030003 86.48306921851497 13.03714701030003 Q 86.47061751442047 13.03714701030003 86.46885762202416 13.021307262747696 Q 86.46103548027081 12.950909418938616 86.57054403284661 12.325145954511644 Q 85.80398344883045 11.699381774099157 84.16917515399015 10.510430547300947 Q 82.53436685914986 9.321479320502736 82.01811158930595 8.421943042665216 Q 81.50185703544753 7.522408196798729 81.49403489369419 6.489898015103639 Q 81.48621275194084 5.457387833408551 81.20461851276247 4.581318338823825 Q 80.92796528962435 3.7206180998097738 79.05071087461556 3.7206180998097738 Q 79.0171895067731 3.7206180998097738 78.9831576412583 3.720892501258467 L 78.38868131187368 3.799113292304596 L 78.38868131187368 3.799113292304596 Q 78.5920550285005 3.4686315621497035 78.79542820813818 3.4686315621497035 Q 78.84236034267273 3.4686315621497035 78.88929247720729 3.4862311126001626 Q 78.97272770126229 3.5175192321225976 79.04312626105688 3.5175192321225976 Q 79.18392320164969 3.5175192321225976 79.27257312720813 3.392366664534668 Q 79.40554774705122 3.204637857901869 79.29603883648265 3.032552708288435 Q 79.20999599318137 2.8973426474196726 79.06600665217275 2.8973426474196726 Q 79.02673717361803 2.8973426474196726 78.9831576412583 2.907399379965896 Q 78.77978428262423 2.9543319619914006 78.69374126032658 3.1577052758763644 Q 78.60769913301081 3.3610785450122336 78.4199695208943 3.3767222020315986 Q 78.4011962016899 3.3782867198804567 78.3832052756572 3.3782867198804567 Q 78.22128944731226 3.3782867198804567 78.12273189319113 3.251569634443669 Q 78.54512289396594 2.6883823643124725 79.43683595607183 2.6883823643124725 ZM 89.98095702613088 11.761958192140407 L 91.56101104468328 12.41901022358076 Q 91.37328107457402 12.935265135431926 90.94306829003862 13.412410770487394 Q 90.51285693747425 13.889555689557348 89.99660130963758 14.311945616353883 L 88.91715863541518 12.935265135431926 L 88.91715863541518 12.935265135431926 Q 89.66807565191016 13.169927240075745 90.4346355199408 13.216859374610303 Q 90.46592408695419 12.575450910691124 89.98095702613088 11.761958192140407 ZM 81.59572130451664 8.742647990610322 L 81.70523021508521 8.88344367822848 L 78.92058050723153 11.949687446264152 Q 78.78499898412768 12.158275506401647 79.14307443804486 12.158275506401647 Q 79.32211252299622 12.158275506401647 79.62456556818834 12.106128133374517 Q 81.17333030374184 11.934043162757462 82.67516397873905 9.82208994884721 Q 83.2070631740969 10.353989860190582 83.80153878749601 10.88588905554844 Q 80.74616976545765 15.266291301363974 76.88306620412713 15.266291301363974 Q 76.86931834250468 15.266291301363974 76.85556023333955 15.26623545449379 Q 78.06015547514988 11.902755311729594 81.59572130451664 8.742647990610322 ZM 79.39600580809041 2.25 Q 78.5020144800752 2.25 77.98193477360194 2.923043797719871 Q 77.84113854899465 3.1577052758763644 77.46568013024535 3.423654784057103 Q 76.37059292639623 3.9242657703943356 76.38623736652475 4.205859830576333 Q 76.42575898385356 4.416643460296131 76.58731413449523 4.416643460296131 Q 76.6176054455587 4.416643460296131 76.65218691945458 4.409233189210392 Q 77.51261190678714 4.2840798161387585 78.24788437128088 4.174571621555709 L 78.9831576412583 4.049419143465969 Q 80.37548186869782 4.049419143465969 80.68836395890405 4.589139764591657 Q 81.00124604911029 5.128861101702858 81.07164460890489 6.497720156856985 Q 81.14204245271397 7.866578496025596 81.37670384137228 8.242036646280331 Q 77.5751882353302 11.777602475647097 76.21415221691132 15.672982529754664 Q 76.47889815344104 15.749999659651586 76.86731559677145 15.749999659651586 Q 77.74125588468131 15.749999659651586 79.2412849181875 15.360099723562906 Q 81.40799169240015 14.796912677177183 84.22393014626358 11.08926187719336 L 85.08435499934885 11.621161072551217 L 84.41165868440181 12.544163059663259 Q 83.9266916235785 13.169927240075745 83.36350457719278 13.514097181309856 Q 82.3779261720395 13.842622839037276 82.3779261720395 13.999064242133155 Q 82.3779261720395 14.1867934962569 82.55001114265656 14.43709845243638 Q 82.72209611327361 14.421454168929689 84.00491232512645 13.76440285347485 Q 84.00491232512645 13.999064242133155 84.1769972957435 14.061640660174403 L 84.5368115204843 13.983419958626463 Q 84.61503222203224 13.388944345227358 84.69325220759467 12.997841553473174 Q 85.33466067151384 12.325145954511644 85.69447489625465 12.168704551415765 Q 86.05428912099545 12.262569536470396 86.25766194264037 12.591095194197816 Q 86.25766194264037 12.982197985951998 85.83527201584384 13.592317882857795 L 84.77147290914262 14.1867934962569 Q 84.02055660863314 14.577895572025568 84.05184445966101 14.796912677177183 Q 84.05184445966101 14.93770979676637 84.23175157203141 14.992464073054274 Q 84.24397845667414 14.996185765762181 84.26173274949407 14.996185765762181 Q 84.50521937561248 14.996185765762181 85.78833916532376 14.296301332847191 Q 85.88220343439288 14.875134094710637 86.05428912099545 14.875134094710637 Q 86.24201765913368 14.875134094710637 86.38281477872287 14.640471274081301 Q 86.53925546583324 13.514097181309856 86.86778183954617 13.201215091103611 Q 87.18066392975241 12.903232659468271 88.17464800485392 12.903232659468271 Q 88.22434742340465 12.903232659468271 88.275750171496 12.903977284404059 Q 88.47912442511195 12.997841553473174 89.90273704056847 14.906421229752988 Q 91.5140781941632 13.905199257078523 92.09290952405561 12.168704551415765 Q 90.37205981788507 11.63680535605791 89.62114280139008 11.183126862247992 Q 88.94844720242855 9.994175635449782 87.58741028902777 8.742647990610322 Q 92.68738513745473 5.70769278958803 92.95333509312641 2.9699764244944706 L 92.95333509312641 2.9699764244944706 Q 88.0567337823299 3.4862311126001626 85.92913628491296 4.628250115365626 Q 83.80153878749601 5.77026920762928 82.9880460689453 5.817201700156595 Q 82.56565542616325 5.801557416649904 81.8460273346744 4.025952539209554 Q 81.12639852720004 2.2503476617692044 79.43683595607183 2.2503476617692044 Q 79.41632440303295 2.25 79.39600580809041 2.25 Z"
     style="fill:#ffffff;stroke:none"
     id="path16" />
  <path
     d="M 40.9532527923584 0.375 C 31.328252851963043 0.375 31.328252851963043 17.625 40.9532527923584 17.625 "
     style="fill:none;stroke:#ffffff;stroke-width:1"
     id="path18" />
  <path
     d="M 40.9532527923584 0.375 L 92.95333480834961 0.375 "
     style="fill:none;stroke:#ffffff;stroke-width:1"
     id="path20" />
  <path
     d="M 40.9532527923584 17.625 L 92.95333480834961 17.625 "
     style="fill:none;stroke:#ffffff;stroke-width:1"
     id="path22" />
  <path
     d="M 100.64083480834961 0.375 L 100.64083480834961 17.625 "
     style="fill:none;stroke:#ffffff;stroke-width:1"
     id="path24" />
  <path
     d="M 92.95333480834961 0.375 C 102.57833671569824 0.375 102.57833671569824 17.625 92.95333480834961 17.625 "
     style="fill:none;stroke:#ffffff;stroke-width:1"
     id="path26" />
</svg>
