<?xml version="1.0" encoding="UTF-8" standalone="no"?>
<svg
   width="86.09352111816406"
   height="18.0"
   version="1.1"
   id="svg26"
   sodipodi:docname="psamtik.svg"
   inkscape:version="1.1.1 (3bf5ae0d25, 2021-09-20)"
   xmlns:inkscape="http://www.inkscape.org/namespaces/inkscape"
   xmlns:sodipodi="http://sodipodi.sourceforge.net/DTD/sodipodi-0.dtd"
   xmlns="http://www.w3.org/2000/svg"
   xmlns:svg="http://www.w3.org/2000/svg">
  <defs
     id="defs30" />
  <sodipodi:namedview
     id="namedview28"
     pagecolor="#ffffff"
     bordercolor="#666666"
     borderopacity="1.0"
     inkscape:pageshadow="2"
     inkscape:pageopacity="0.0"
     inkscape:pagecheckerboard="0"
     showgrid="false"
     inkscape:zoom="15.971004"
     inkscape:cx="43.046761"
     inkscape:cy="8.9850329"
     inkscape:window-width="1920"
     inkscape:window-height="1001"
     inkscape:window-x="-9"
     inkscape:window-y="-9"
     inkscape:window-maximized="1"
     inkscape:current-layer="svg26" />
  <path
     d="M 9.619241759901131 8.704017150225534 C 9.956114020057063 8.704017150225534 10.371109904274771 8.76399089929749 10.864229412554256 8.883939352346172 C 11.905261819800385 9.137163864337834 12.8056128816014 9.495897714329981 13.565284507766846 9.960140902322616 C 14.32495613393229 10.42438504522002 15.176070395910864 11.008207138114807 16.1186263387978 11.711606226102205 C 15.211383729261659 12.170969850713034 14.168207560803758 12.400651185566062 12.989095923614554 12.400651185566062 C 12.723796640788658 12.400651185566062 12.45161535927535 12.38902331016484 12.172553033979401 12.365768514267165 C 10.653210736553286 12.239155780818948 9.3484030744964 11.792497164191472 8.258132912523058 11.025791709479964 C 7.167863705454489 10.259086254768457 6.897054622097669 9.78780828332499 7.445706139904986 9.61195779514956 C 7.994358612617073 9.436108261878905 8.441018184149321 9.207503104703234 8.78568342214457 8.92614327852732 C 8.967086681565636 8.778059511294387 9.244939142516232 8.704017150225534 9.619241759901131 8.704017150225534 ZM 16.87829701005847 11.880422885731571 L 17.743478929129175 12.070340076094354 C 17.743478929129175 12.295428318996994 17.539492171864723 12.478311680813713 17.131522476954906 12.618992071354056 C 16.899402315315747 12.634818663035082 16.657389340244983 12.642731958875595 16.405485461552153 12.642731958875595 C 15.985642480714866 12.642731958875595 15.538322115080815 12.620750051038186 15.063526274459544 12.576788145172907 C 15.977946903162229 12.464244023721587 16.582870481695206 12.232122907177656 16.87829701005847 11.880422885731571 ZM 18.207723072026578 12.196952809542571 L 18.73527358164809 12.302462147543055 C 18.791544210016596 12.471278807172421 18.594593191107748 12.640094511897015 18.144416705302472 12.808910216621609 L 17.532460253128203 12.76670629044046 C 17.968567172031815 12.569755271531616 18.193655414934454 12.379837126264063 18.207723072026578 12.196952809542571 ZM 19.009598624373172 12.407972440448313 L 19.36833342927009 12.49238029281061 C 19.283925576907794 12.731536192805375 19.030702019820904 12.851114142802757 18.608660848199875 12.851114142802757 C 18.847816748194642 12.696366095170289 18.98146331018892 12.548652830988656 19.009598624373172 12.407972440448313 ZM 19.600455500718795 12.618992071354056 C 19.938086910167982 12.71746853571325 20.163175153070622 12.87925041189178 20.27571831961717 13.10433865479442 L 19.326128548184172 12.893318068983906 C 19.509013819810434 12.808910216621609 19.600455500718795 12.71746853571325 19.600455500718795 12.618992071354056 ZM 17.405847519679988 13.864010280959864 C 18.46094662911347 13.99062205950331 19.255788352914 14.28604954277135 19.790372691081576 14.750293685668755 L 17.173725448231284 14.138336278589716 C 17.20186267222508 13.983587276052475 17.279236696041313 13.892145595144116 17.405847519679988 13.864010280959864 ZM 5.187792747046841 0.40093762696942586 C 5.848988863757863 0.40093762696942586 6.3484031042903535 0.5838216154424017 6.686035468644312 0.9495895923883535 C 7.0236668780935005 1.3153575693343054 7.129177170998758 2.198124417859453 7.0025653924553115 3.5978901976453446 C 6.875952659007095 4.997655977431236 6.8337487328259465 5.947245271411848 6.875953136459481 6.446659034491953 C 6.918156585188243 6.946073275024443 7.048285755457107 7.315357867835686 7.266340169813683 7.554513290378066 C 7.4843936292654885 7.793669667825216 7.748168406623859 8.029308176094565 8.05766402443641 8.261430247543267 C 8.367160119701346 8.49355231899197 8.212412072068878 8.70105503562468 7.5934203589913905 8.883939352346172 C 6.974429123366289 9.06682271416289 6.629762930466267 9.33763179751971 6.559423212648482 9.69636660241663 C 6.48908301737831 10.055099497504006 6.577008261466024 10.385698033311902 6.823197990006852 10.688160300030777 C 7.069388196000066 10.99062256674965 7.656726725715499 11.398594171469009 8.585214534057924 11.912075114188854 C 9.513701864947961 12.42555701181347 10.333162943564483 12.752637678443564 11.043595860097945 12.893318068983906 C 11.754030686440949 13.033998459524248 13.931053141209826 13.10433865479442 17.57466322440458 13.10433865479442 C 18.700104438917776 13.315358285700162 19.445707453086325 13.596718111876076 19.811474176719763 13.94841813332216 L 17.405847519679988 13.399766138062459 C 17.18076118658689 13.47010633333263 17.00490974350669 13.60375194042214 16.87829701005847 13.800703914235756 C 16.87829701005847 14.166472547678739 16.083455286257944 14.37749217858448 14.493772793561655 14.433763761857755 C 14.254616893566888 14.433763761857755 14.092834062483586 14.103166180954629 14.008427165026061 13.441970064243609 L 13.755202653034399 13.652989695149351 C 13.881814431577844 14.187574033316928 13.91698452921293 14.658852004760394 13.860712945939655 15.066823609479753 C 13.663760972126038 14.588511809490223 13.319094779226017 14.271981885679224 12.826715322144361 14.117233838046756 C 12.038906471985122 13.976553447506413 11.335507383997724 13.846424754689936 10.71651519346785 13.726846804692553 C 10.097523002937978 13.607269809599941 9.471497938766813 13.350529338240019 8.838438091144814 12.956624435708015 C 8.275718438792987 12.520516561899633 7.371849507814169 12.049238590456165 6.126831775660745 11.542790521377611 C 4.881814043507322 11.03634340720383 4.259305416156803 10.283705609584448 4.259305416156803 9.284877128519467 C 4.259305416156803 8.286049602359258 4.593420388785345 7.459554695196674 5.261649856590044 6.805393361936487 C 5.929879801847128 6.151231551223914 6.2639942970232845 5.366941047694864 6.2639942970232845 4.452521373896952 C 6.2639942970232845 4.002345365544058 6.207722713750011 3.5767882345547704 6.095179069751077 3.175850219655281 C 5.993352799453844 2.8130966980279646 5.689997219321334 2.6317199372143065 5.185112329353548 2.6317199372143065 C 5.131966626849421 2.6317199372143065 5.076588356989783 2.6337295343056977 5.0189770423222475 2.6377489672146734 L 3.2464102329044677 2.869871038663376 C 3.3026820549039346 2.6869874381204633 3.387089668540039 2.5181714946696765 3.4996335512651657 2.363423447037208 C 3.6403134643531225 1.9273154538657298 3.795061511985591 1.6740914193264531 3.9638776941625706 1.6037515821455712 C 3.9884963327999836 1.6899181303705768 4.083125485835245 1.733001523846176 4.247764437089777 1.733001523846176 C 4.271284696513898 1.733001523846176 4.296233016023633 1.732122295277918 4.32261082797614 1.7303637187783059 C 4.603971609056825 1.7162955842337946 4.765753485235356 1.5756155517827413 4.8079574114165045 1.308323860151339 C 4.7798216197798675 1.0410321685199366 4.6180397436013365 0.9003521360688832 4.32261082797614 0.8862840612059201 C 4.069387270889249 0.9003521360688832 3.9287073578012923 1.0410321685199366 3.9005710887122693 1.308323860151339 C 3.6754838007144013 1.5193437297832741 3.4996337899913588 1.765533697050295 3.373021295269335 2.046893523226209 C 3.3320964640294637 2.0673559388461444 3.2921017100369276 2.0775870272930157 3.2530370332917253 2.0775870272930157 C 3.1846734908983327 2.0775870272930157 3.119158190711805 2.046253737029377 3.0564913714583355 1.9835869177759076 C 3.225307553635315 1.6459552696005268 3.471497998354722 1.2977725205167625 3.7950622281641695 0.9390390286139039 C 4.118625980521232 0.5803047608509185 4.582869168513866 0.40093762696942586 5.187792747046841 0.40093762696942586 ZM 9.977946007845366 14.159437764227905 L 10.653208826743741 14.328253468952498 L 9.89353815548307 15.425557459471902 L 9.977946007845366 14.159437764227905 ZM 11.286269629270512 14.391559835676606 C 11.84898928162234 14.391559835676606 12.32378416733884 14.451348333222912 12.71065428642001 14.570927238125066 C 13.09752440550118 14.690504233217677 13.336679350591174 15.144197633295988 13.428121986404305 15.932005528550455 C 13.517959427296729 16.705992132143816 13.400721948894024 17.092986388845265 13.07640859629142 17.092986388845265 C 13.070618053757709 17.092986388845265 13.064760667889999 17.092862251224986 13.058837393593063 17.09261588579397 L 11.03304511727885 17.09261588579397 C 10.988356528882543 17.089306185856326 10.942987093384234 17.087650380982737 10.896935855879153 17.087650380982737 C 10.551564943257846 17.087650380982737 10.167861288398607 17.180747866764687 9.745823936396663 17.366940928519046 C 9.858368057847983 16.382182014355735 10.3718499554726 15.390387361836815 11.286269629270512 14.391559835676606 ZM 5.187792747046841 0.0 C 4.231169147067781 0.0 3.443361967991892 0.5345838607151904 2.8243702549144043 1.6037515821455712 C 2.613350385282469 1.9554513648654634 1.9873244855696295 2.3071511475853557 0.946292317049693 2.6588511690314407 C 0.22882448278191372 2.869871038663376 -0.08067132899566878 3.165298999383801 0.017804894772284054 3.545135051192716 L 0.03890708726380924 3.798358369553414 C 1.3753664816751086 3.6717465910099687 2.493771957832701 3.5099647148314377 3.3941234970861016 3.3130129797440135 L 5.040079482865207 3.0175852577497815 C 5.048381902400062 3.0173546482474904 5.056615568791377 3.017239343496345 5.064780004586766 3.017239343496345 C 5.5546451974053515 3.017239343496345 5.796118651280282 3.432360558965298 5.789199888759171 4.2626027511770115 C 5.782166060213108 5.106682229704753 5.4269491244939925 5.862836941597166 4.723549559054208 6.5310668868542505 C 4.020149993614424 7.199296832111335 3.661415904896083 8.166471652361876 3.6473477703515713 9.432591347605873 C 3.6473477703515713 10.459556097759878 4.136210551886389 11.19460836910933 5.11393659240841 11.637750071463774 C 6.09166167802566 12.08089177381822 7.037734535185626 12.555685704629948 7.952154686435924 13.062133773708501 C 8.866573405329065 13.568581842787054 9.387089131499744 13.962486745319058 9.513701864947961 14.243845616590201 C 9.44336166967779 15.735053554736838 9.26047830786107 16.698711938166735 8.96504986968826 17.134818857070343 C 8.472670412606604 17.134818857070343 7.614522322081965 17.064478661800173 6.390606553019116 16.92379827125983 C 6.01077121738878 16.980070809437876 5.75051335430344 17.10316567370829 5.609832486310712 17.293084773880615 C 5.469153528127526 17.48300387405294 5.497289319764163 17.69050468087611 5.69424129357778 17.91559292377875 C 5.7882960713930505 17.77973671214347 5.878469161312617 17.711806696516287 5.9647610407888685 17.711806696516287 C 5.99463093949035 17.711806696516287 6.024035799568166 17.719946304787623 6.052975621022314 17.73622552133029 C 6.165519265021248 17.799531888054396 6.446879091197162 17.831185071416453 6.897054144645284 17.831185071416453 L 8.96504986968826 17.831185071416453 C 9.066651737364214 17.811645809984256 9.162826881224358 17.801877134172933 9.253573391459145 17.801877134172933 C 9.489516991802953 17.801877134172933 9.68877028611562 17.867918348162302 9.851334229301921 18.000000776141047 C 10.048286203115538 17.98593311904892 10.21710095293536 17.929660580870873 10.357781343475702 17.831185071416453 C 10.978782653644581 17.849272877596132 11.498366392758383 17.8583158257812 11.916529696102794 17.8583158257812 C 12.474082358736627 17.8583158257812 12.85133372205558 17.842239049050068 13.048285695869197 17.810083585778262 C 13.39295188876922 17.753811047600216 13.705964898307187 17.704574247777778 13.987324724483102 17.662369366691856 L 14.704792424467398 17.89449143814056 C 14.713104870502352 17.89513122433739 14.721098378343662 17.895450162531034 14.728771038181785 17.895450162531034 C 14.889915037973028 17.895450162531034 14.91005779922074 17.754450833797048 14.789201231734465 17.47245026651953 C 14.170209041204592 17.134818857070343 14.02952865066425 16.28370459509177 14.367161015018208 14.919109390393348 L 14.367161015018208 14.919109390393348 C 14.486100133723532 14.921667580275903 14.601202445057407 14.922946197764796 14.712467949019834 14.922946197764796 C 15.825117259215483 14.922946197764796 16.55409538131412 14.795054846827687 16.899400405506203 14.539274054763013 C 18.306200491290543 14.792496656945131 19.452741281632388 15.03868734039073 20.33902468634128 15.277843240385495 L 20.486738905427682 15.024620638203377 C 20.1209702719847 14.616648078579246 19.84664522925962 14.356389738041521 19.6637618674429 14.243845616590201 L 19.6637618674429 14.243845616590201 L 20.59224824342817 14.433763761857755 C 20.74230770863311 14.490035345131028 20.8462548224276 14.518171614220051 20.90408958481164 14.518171614220051 C 21.01975910957972 14.518171614220051 20.95098304832509 14.405627492768732 20.697759491238198 14.180540204770864 C 20.641486953060152 14.025792157138396 20.23351534834079 13.723330845324293 19.473842767270575 13.273154359519014 L 19.473842767270575 13.273154359519014 L 20.761063948152763 13.526377916605906 C 20.901744338693106 12.62602685480489 19.924019253075855 11.985932223732057 17.827886781491472 11.606096888101721 C 16.73058279097207 11.352873331014829 15.738790048262691 10.86049196412363 14.852506643553802 10.12895660704721 C 13.684862457764227 9.101993766702748 11.91932947689251 8.349355969083367 9.55590579112911 7.871043214189065 C 8.303853752977238 7.786635839279153 7.607488493535902 7.4032831119233995 7.466808580447945 6.72098550957419 C 7.326128667359988 6.038687429772594 7.32964558163302 4.95193465952467 7.477359800719425 3.4607274375566117 C 7.625073542353445 1.969519857499264 7.417570825720734 0.9988280632941434 6.854850695916521 0.5486519952597018 C 6.43281095665265 0.1828839884729759 5.877125132846886 0.0 5.187792747046841 0.0 Z"
     style="fill:#ffffff;stroke:none"
     id="path2" />
  <path
     d="M 27.177865186478382 7.937876256002994 C 26.496671245133623 7.991654064440127 26.120222241250442 8.332250793733436 26.04851793344977 8.959665719745715 C 26.138148499234912 9.640860143848613 26.514597503118093 9.999383372505463 27.177865186478382 10.035235888474404 C 27.84113286983867 9.999383372505463 28.190692728124215 9.640860143848613 28.226544278576878 8.959665719745715 C 28.172766470139745 8.332250793733436 27.8232066118542 7.991654064440127 27.177865186478382 7.937876256002994 ZM 27.25853214051315 5.679180301671352 C 27.742538692303153 5.679180301671352 28.190693210882355 5.768811229525099 28.602994730734476 5.948073085232593 C 29.01529576782846 6.127334940940088 29.378299957533752 6.373819539952137 29.692007299850356 6.687527123647811 C 30.0057151249251 7.001234707343485 30.252199844626684 7.3597576946212655 30.43146145895511 7.763095602723013 C 30.610722590525395 8.16643375220383 30.700352914931468 8.592179844854769 30.700352914931468 9.040334122054901 C 30.700352914931468 9.506413933102294 30.610722590525395 9.941123154745469 30.43146145895511 10.344461786984425 C 30.252199844626684 10.747799936465242 30.0057151249251 11.101841721315509 29.692007299850356 11.406586176018948 C 29.378299957533752 11.711330630722387 29.01529576782846 11.948851980052666 28.602994730734476 12.119151189526065 C 28.190693210882355 12.289449433483185 27.742538692303153 12.374598314082675 27.25853214051315 12.374598314082675 C 26.774526312860356 12.374598314082675 26.32189131599085 12.289449433483185 25.900626908525563 12.119151189526065 C 25.479361776923067 11.948851980052666 25.116357104459635 11.711330630722387 24.8116130118248 11.406586176018948 C 24.506868074363222 11.101841721315509 24.264865160536825 10.747799936465242 24.085604149656074 10.344461786984425 C 23.906342354293347 9.941123154745469 23.8167114264396 9.506413933102294 23.8167114264396 9.040334122054901 C 23.8167114264396 8.592179844854769 23.906342354293347 8.16643375220383 24.085604149656074 7.763095602723013 C 24.264865160536825 7.3597576946212655 24.506868074363222 7.001234707343485 24.8116130118248 6.687527123647811 C 25.116357104459635 6.373819539952137 25.479361776923067 6.127334940940088 25.900626908525563 5.948073085232593 C 26.32189131599085 5.768811229525099 26.774526312860356 5.679180301671352 27.25853214051315 5.679180301671352 ZM 27.204754814834157 4.764946937561035 C 26.61319119789547 4.764946937561035 26.057480338304796 4.876985476688684 25.53762175330399 5.101062554943983 C 25.017763409682257 5.325139663371665 24.569609615240264 5.629884118075104 24.193160490667548 6.015295949226683 C 23.8167114264396 6.400708564860238 23.516448355197976 6.848862238612696 23.292371276942678 7.359757211863126 C 23.068294998255546 7.870652909250765 22.956256866455078 8.421882083655788 22.956256866455078 9.013444493699126 C 22.956256866455078 9.605007145121533 23.068294998255546 10.156236319526556 23.292371276942678 10.667132016914195 C 23.516448355197976 11.178027714301834 23.8167114264396 11.621700306316313 24.193160490667548 11.998149310199494 C 24.569609615240264 12.374598314082675 25.017763409682257 12.67486180773767 25.53762175330399 12.898938825648202 C 26.057480338304796 13.123014878042454 26.61319119789547 13.23505338699772 27.204754814834157 13.23505338699772 C 27.796317466256564 13.23505338699772 28.347546157903448 13.123014878042454 28.85844088977481 12.898938825648202 C 29.369336587162447 12.67486180773767 29.81749062298351 12.374598314082675 30.202903479996134 11.998149310199494 C 30.58831537149248 11.621700306316313 30.89305982619592 11.178027714301834 31.11713636134831 10.667132016914195 C 31.34121434477512 10.156236319526556 31.453252853730387 9.605007145121533 31.453252853730387 9.013444493699126 C 31.453252853730387 8.421882083655788 31.34121434477512 7.870652909250765 31.11713636134831 7.359757211863126 C 30.89305982619592 6.848862238612696 30.58831537149248 6.400708564860238 30.202903479996134 6.015295949226683 C 29.81749062298351 5.629884118075104 29.369336587162447 5.325139663371665 28.85844088977481 5.101062554943983 C 28.347546157903448 4.876985476688684 27.796317466256564 4.764946937561035 27.204754814834157 4.764946937561035 Z"
     style="fill:#ffffff;stroke:none"
     id="path4" />
  <path
     d="M 44.25151819270104 6.330540667288005 L 44.204061136581004 11.598273896612227 L 41.42782335355878 11.645730952732265 L 41.40409482549876 6.354269195348024 L 44.25151819270104 6.330540667288005 ZM 44.72608875390142 5.879698634147644 L 40.9532527923584 5.903427162207663 L 40.97698132041842 12.120301513932645 L 44.654903169721365 12.049115929752588 L 44.72608875390142 5.879698634147644 Z"
     style="fill:#ffffff;stroke:none"
     id="path6" />
  <path
     d="M 47.53496398152452 2.25 C 46.83759357836858 2.25 46.226088762283325 2.7629982188611715 46.226088762283325 3.42148077115561 L 46.226088762283325 15.749999288300122 L 47.07807477766922 15.749999288300122 L 47.07807477766922 3.42148077115561 C 47.07807477766922 3.098508113273651 47.36196809492631 2.994011903683932 47.540347409643715 2.994011903683932 C 47.72751856740896 2.994011903683932 48.015727518777986 3.1252137636833535 48.015727518777986 3.5209571603146776 L 48.015727518777986 11.62395272807413 L 48.86771353416389 11.62395272807413 L 48.86771353416389 3.5209571603146776 C 48.86771353416389 2.861641676122041 48.214762813126654 2.25 47.53496398152452 2.25 Z"
     style="fill:#ffffff;stroke:none"
     id="path8" />
  <path
     d="M 53.13242365962435 4.553593152303819 C 52.92982752753262 4.651139438125763 52.682210032753844 4.921267614248069 53.057388055145935 4.96628897693512 C 53.23747350589414 4.958785416487278 53.650169330525436 4.771196405291232 53.57513372604702 4.59861451499087 L 53.57513372604702 4.59861451499087 C 53.53625159845539 4.635450154553867 53.4968114210343 4.648844953394093 53.456965243470584 4.648844953394093 C 53.35070907528798 4.648844953394093 53.24156625296092 4.553593152303819 53.13242365962435 4.553593152303819 ZM 51.65422236589475 4.621125196334395 C 51.406604871115974 4.681153679917131 51.27904434350266 4.9512818560394365 51.59419388231202 5.01131033962217 C 51.59933448987103 5.011777709216716 51.604838963322116 5.012004867784961 51.610666885843415 5.012004867784961 C 51.791988541763665 5.012004867784961 52.28644336071436 4.792071407549097 51.879329179330014 4.7411821634998645 C 51.811797135299436 4.696160800812814 51.74426509126886 4.621125196334395 51.65422236589475 4.621125196334395 ZM 53.62765864918191 2.737731409430849 C 54.07036871560458 3.2554770803319357 54.46055408788285 3.8557619161592824 54.53558969236127 4.546089591855977 C 54.610625296839686 5.041324581413538 54.63313597818321 5.536559570971099 54.70817158266163 6.024291000080819 C 54.35550424161306 5.994276758289452 54.46055408788285 5.446516845596998 54.528086131913426 5.183892229922533 C 54.58811461549616 4.666146559021446 54.31048287892601 4.1859186903595695 54.11539007829163 3.728201388545971 C 53.98032599023048 3.4805838937671902 53.85276546261717 3.090398750479415 53.50760168201644 3.0828951900315733 C 53.12492009917651 3.1504272340621498 52.87730260439773 3.4730803333193485 52.62968510961895 3.750712069889497 C 52.37456405439232 3.495591014662874 52.10443599276527 3.217959278092726 51.7517686517167 3.1129094318229407 C 51.73337636437508 3.1061333169211403 51.712611277553464 3.103478286659528 51.69081058123095 3.103478286659528 C 51.61184973623078 3.103478286659528 51.51930391578663 3.138308198501497 51.47670893635475 3.138308198501497 C 51.43990501197492 3.138308198501497 51.44039299071376 3.1123050686664477 51.519158277833604 3.015363146000997 C 51.56680467302779 2.847199398256807 51.665747915347296 2.797332539507548 51.78822508302464 2.797332539507548 C 51.9667300413958 2.797332539507548 52.195225112648636 2.9032586751432934 52.38775871554238 2.9032586751432934 C 52.41679196206524 2.9032586751432934 52.44500725455002 2.900849981403647 52.47211034021427 2.8953061788355274 C 52.53542873019819 2.8989591496620717 52.59894450998638 2.900833723078702 52.66249784421528 2.900833723078702 C 52.99057710217524 2.900833723078702 53.319649491899796 2.850877615285114 53.62765864918191 2.737731409430849 ZM 53.50760168201644 3.3080020034668283 C 53.800240539482274 3.383037607945247 53.86777258351285 3.7882298721287055 54.010340232021846 4.028343806459644 C 54.19042568277005 4.448543306034033 54.40802916474796 4.906260493352385 54.26546151623896 5.378984801566421 C 54.15290788053084 5.604091615001676 54.29547575803033 5.889226912019666 54.280468637134646 6.054305241872186 C 54.030211568952474 6.230161009239284 53.81043863105163 6.601114615031589 53.47826296217701 6.601114615031589 C 53.441927437848946 6.601114615031589 53.4042465943793 6.596675863331121 53.36503403350745 6.587057804678464 C 53.03487737380241 6.519525760647888 52.86979904394989 6.204376221838531 52.614677988723265 6.054305241872186 C 52.42996166325165 6.232424351264017 52.32064526613152 6.601943560613291 52.016467806755095 6.601943560613291 C 51.97466834029305 6.601943560613291 51.92918934010737 6.594965762335501 51.879329179330014 6.579554244230622 C 51.601697442759864 6.519525760647888 51.23402298081562 6.549540002439255 51.15148381588936 6.211879782286372 C 51.00891611013274 5.86671623067614 50.99390898923705 5.484034647836206 50.97139830789352 5.108856625444115 L 50.97139830789352 5.108856625444115 C 50.987921574837955 5.112034097513641 51.00315310641597 5.113543144857125 51.017202188339986 5.113543144857125 C 51.16903296023876 5.113543144857125 51.182769069407584 4.93730061254873 51.1965051785764 4.786203526186916 C 51.25477633187451 4.566566150657444 51.41212045060593 4.464745070327433 51.5869606451402 4.464745070327433 C 51.704804075712985 4.464745070327433 51.83059576626943 4.51100069176735 51.93935766291275 4.59861451499087 C 52.06691819052606 4.7411821634998645 52.45710321931859 4.853735570217492 52.37456405439232 5.078842383652747 C 52.337046252153115 5.2139064717139005 52.292025003961314 5.356474120222895 52.24700364127426 5.499041768731891 L 52.562153065588376 5.919241153811033 C 52.59216730737974 5.70163790082362 52.91482040663694 5.521552450075415 52.727231395440896 5.303949197088002 C 52.697217153649525 5.206402911266059 52.584663746931895 5.078842383652747 52.599670867827584 5.0038067791743295 C 52.73473495588873 4.763692844843391 52.91482040663694 4.553593152303819 53.12492009917651 4.373507701555615 C 53.18174889861198 4.31835030372259 53.23932260411851 4.296701313601148 53.29697714326879 4.296701313601148 C 53.49815078642308 4.296701313601148 53.70031252355114 4.560278987704077 53.87527614396069 4.5836073940951865 C 54.047858034261054 4.396018382899141 53.86026902306501 4.320982778420722 53.68768713276465 4.223436492598778 C 53.580798721833126 4.122656059560493 53.451537252843885 4.076565769255932 53.32266712860578 4.076565769255932 C 53.134903397664196 4.076565769255932 52.94797113119973 4.174408254279515 52.83228124171068 4.343493459764248 C 52.68969527396231 4.429044994615171 52.59046109922249 4.714014273526328 52.46538030964902 4.714014273526328 C 52.425902348796726 4.714014273526328 52.38384938985984 4.685626551200935 52.337046252153115 4.613621635886554 C 52.1080437379696 4.430419624539743 51.83339883888424 4.224396420742008 51.533011172153444 4.224396420742008 C 51.48890851932103 4.224396420742008 51.44425090803081 4.228837233356907 51.39910131066814 4.2384436134944625 C 51.18679901583188 4.28236834071445 50.99592393382539 4.711984043822637 50.9797818215552 4.711984043822637 C 50.97937879828896 4.711984043822637 50.97908466000175 4.711716353937275 50.97890186834137 4.711167921708498 C 50.97139830789352 4.358500580659931 51.13647669499367 4.043350927355329 51.23402298081562 3.698187146754604 C 51.288464382627204 3.471348134741233 51.48279951097058 3.3405145315279086 51.681033603176715 3.3405145315279086 C 51.810666609239526 3.3405145315279086 51.941967009571165 3.396463778482901 52.03690394873469 3.5181016960063998 C 52.26028028102052 3.6010701036102564 52.42394425109808 3.993456532499384 52.634090199717065 3.993456532499384 C 52.67101377162906 3.993456532499384 52.70937242695557 3.9813427064724283 52.749742076784415 3.9533082019812262 C 52.98235245066751 3.7056907072024456 53.16994146186356 3.413051849736614 53.50760168201644 3.3080020034668283 ZM 52.4420960984229 8.5154732977548 C 53.39504827529882 9.49843971642208 54.2729650766868 11.98962178510557 54.498071890122056 13.010106006012059 C 54.130397199187314 12.709963588098386 53.62765864918191 12.514871016454498 53.51510524246429 12.327282005258452 C 53.39504827529882 12.132189433614565 53.06489161559377 10.233788640310578 52.4420960984229 8.5154732977548 ZM 55.8337056498379 6.729625453187459 C 57.634560157319946 7.765117252970617 60.77104796653685 12.860034797055222 61.43886484639477 13.677922885869982 C 60.3133307792185 12.965084643325008 59.2028038329379 12.244742840332192 57.99473060083537 11.659465125400528 C 56.2989263976041 10.826569915690085 54.85073923117062 9.475929035078554 53.470083879777235 8.215330879841126 C 54.610625296839686 7.832649297001193 55.42851338565445 7.187342640505811 55.8337056498379 6.729625453187459 ZM 53.965318869334794 13.197695017208105 C 54.20543280366574 13.3402626657171 54.42303628564364 13.535355237360987 54.6856609013181 13.640405083630773 C 54.528086131913426 14.030590226918548 54.430539846091484 14.465796732893377 54.10788651784379 14.773442711254893 C 54.04728922187847 14.870924879739023 53.960789666389914 14.901801041742965 53.86202995994989 14.901801041742965 C 53.691342279000864 14.901801041742965 53.484032835608545 14.809571915149503 53.31053177747256 14.809571915149503 C 53.2985148144238 14.809571915149503 53.28666043462448 14.8100143247804 53.274991308133345 14.810960513494098 C 53.48509100067292 14.28571128214517 53.800240539482274 14.053100908262074 53.965318869334794 13.197695017208105 ZM 54.47556120877853 6.174361980047164 C 54.52096910741639 6.268421198654149 54.57899484015449 6.299391704740871 54.64054794243418 6.299391704740871 C 54.72139624156616 6.299391704740871 54.808331107980365 6.2459608952189045 54.88075347296199 6.211879782286372 C 55.06083892371019 6.339440309899683 55.683634440881065 6.324433189004 55.31595997893682 6.594561365126306 C 55.08334960505372 6.909710903935663 53.84016961160417 7.769121838697908 52.9766876838719 7.92070438490315 C 52.60386620263486 7.986152157473879 53.22996994544629 8.575501781337536 53.43256607753803 8.785601473877106 C 54.60312173639184 9.836099936574964 55.75116648491164 10.946626882855554 57.15433228865807 11.70448648808758 C 58.032248403074576 12.199721477645141 58.95518633815912 12.64243154406781 59.80308866876525 13.190191456760264 C 60.20828093294871 13.775469171691926 60.68850880161059 14.315725523936537 60.9961547799721 14.961031722450938 C 60.68850880161059 15.051074447825037 60.38836638369692 15.17863497543835 60.073216844887554 15.253670579916767 C 59.90694959639963 15.295737965254663 59.72677712926439 15.315344131195342 59.546263924276786 15.315344131195342 C 59.050619499719204 15.315344131195342 58.552403969915396 15.167531684453397 58.33239082098825 14.931017480659568 C 57.92719855680479 14.503314535132583 57.48448894836311 12.67994934630702 57.25187857448001 12.012132466449096 C 57.21871891928802 11.936970459218992 57.171882119978946 11.911957369776895 57.12096242019425 11.911957369776895 C 57.01962038797389 11.911957369776895 56.902105215271646 12.011034228048587 56.84404742386464 12.011034228048587 C 56.83226082525101 12.011034228048587 56.82292442490374 12.006950869591986 56.816672068505184 11.997125345553412 C 56.80159212863299 11.812395967623743 56.659604742031185 11.714797471969582 56.526798042241964 11.714797471969582 C 56.39527414718996 11.714797471969582 56.272755074252544 11.810519161549815 56.291422837156254 12.012132466449096 C 56.24640147446921 12.48485677466313 56.156358749095105 12.957581082877166 55.93125193565985 13.38528402840415 C 55.90366957289546 13.458180861685584 55.84608304392136 13.486071903633434 55.77017406970576 13.486071903633434 C 55.55697979965483 13.486071903633434 55.199257722481825 13.26606608240204 54.95578907744041 13.205198577655947 C 55.053335363262356 12.627424423172126 54.26546151623896 9.67102160672244 51.95436478380843 7.194846200953653 C 51.87362548415073 7.107378702654637 51.52139711787567 6.7363559417336925 51.55225782302139 6.7363559417336925 C 51.555813816374496 6.7363559417336925 51.56445626103521 6.7412819852015256 51.57918676141634 6.752136134530985 C 51.69745828971426 6.78298939748571 51.830706826658144 6.804151782811264 51.96263088259524 6.804151782811264 C 52.21571449491767 6.804151782811264 52.46392393011874 6.7262689105530455 52.59216730737974 6.489511518856521 C 52.61169470059111 6.430929339222412 52.63616256367132 6.407990903639488 52.66465287373721 6.407990903639488 C 52.76753440903652 6.407990903639488 52.922866445560764 6.7071147718439335 53.0874022969373 6.7071147718439335 C 53.20674298184322 6.786675228447882 53.34007177995461 6.823196006084127 53.47271978933275 6.823196006084127 C 53.6903628866658 6.823196006084127 53.9061738310709 6.724879854227465 54.0553615947089 6.557043562887097 C 54.19792924321789 6.429483035273786 54.332993560269536 6.301922507660475 54.47556120877853 6.174361980047164 ZM 53.69519069321249 2.25 C 53.45940353423134 2.354794316137357 53.046389412815905 2.4595886376416782 52.67571723633849 2.4595886376416782 C 52.62173112487298 2.4595886376416782 52.56864311411781 2.4573657267507203 52.517131702901324 2.4525961410366706 C 52.48195876330206 2.458927270164537 52.446258229608816 2.461697139157979 52.41016612217393 2.461697139157979 C 52.15752148462502 2.461697139157979 51.88568961924088 2.3259735584793395 51.64132562137503 2.3259735584793395 C 51.548234574568994 2.3259735584793395 51.45912979425087 2.3456704046549244 51.37659062932461 2.400071217901778 C 50.963894747445686 3.000356025105313 50.5887167536774 3.668172904963236 50.54369539099035 4.411025503794824 C 50.46115622606409 5.836701988884773 50.498674028303306 6.331936749451842 51.62420812410339 7.502492179315168 C 52.06691819052606 8.507969737306958 52.892309725293416 11.78702565301384 53.139927220072195 12.67994934630702 C 53.4100553961945 12.935070401533642 52.80226699991931 14.330732644832224 52.54714594469269 14.675896425432946 C 52.408330076407616 14.867237216852915 52.04253161907057 14.876616667412716 51.64953264061486 14.876616667412716 C 51.6068152657649 14.876616667412716 51.56377673174966 14.876505836014498 51.520673278929884 14.876505836014498 C 51.167224965807726 14.876505836014498 50.809419278481265 14.883957186630123 50.5887167536774 15.02106020603367 C 50.378617062032326 15.156124294094823 50.303581456659415 15.658862844100229 50.42363842382488 15.726394888130805 C 50.53619183054251 15.553812997830441 50.76129864397777 15.321202623947343 50.91887338475863 15.298691942603819 L 50.91887338475863 15.298691942603819 C 50.76880220442561 15.4562667120085 51.29405146439835 15.381231107530079 51.406604871115974 15.41874890976929 C 51.71012352484639 15.423807767722588 52.01705241948164 15.449328300095363 52.325092490480195 15.449328300095363 C 52.47397294887769 15.449328300095363 52.62311285350281 15.443367219602862 52.77225275812794 15.426252470217129 C 52.83979693865461 15.39670170518194 52.91209106896061 15.350526230414289 52.94370480933988 15.350526230414289 C 52.96828327482781 15.350526230414289 52.968272741265174 15.378436507563482 52.92232396708478 15.463770272456339 C 53.13473234176654 15.519181391754703 53.373425619083974 15.546886493422901 53.606708767033105 15.546886493422901 C 54.131596193404384 15.546886493422901 54.62909566993914 15.406627985037074 54.738185824453 15.126110052303456 C 54.96329263788825 14.713414227672155 55.17339233042782 14.278207721697331 55.32346353938466 13.827994094826819 C 55.51499164502723 13.86862158794987 55.755901550309 14.00352171881862 55.9489666401351 14.00352171881862 C 56.00550622457894 14.00352171881862 56.05794275738385 13.991952203191582 56.10383382596021 13.963058182887972 C 56.31393351849978 13.820490534378978 56.5315367714872 13.152673654521054 56.651593738652664 12.709963588098386 C 56.66309409915107 12.663963062066763 56.72551186952923 12.641463372266863 56.788823160807894 12.641463372266863 C 56.84943923399357 12.641463372266863 56.910874635160276 12.662088087916771 56.929225475222815 12.702460027650543 C 57.15433228865807 13.152673654521054 57.52951031105016 14.533328776923954 57.88968075456558 15.111102931407773 C 58.16136240218685 15.539346294496308 58.82018453551184 15.750000144026963 59.52105023916354 15.750000144026963 C 59.96225812795749 15.750000144026963 60.42012736496265 15.666519370196848 60.808565768776056 15.501288074695548 C 61.29629719788578 15.291188382155976 61.65646809938218 15.33620974484303 61.5514182531124 15.06608156872072 C 61.38633992325988 14.615867941850212 61.10120462624189 14.188164996323227 60.80106220832822 13.805483413483294 L 60.80106220832822 13.805483413483294 C 61.23626871430304 14.0756115896056 61.67147522027787 14.353243326175747 62.106681726252695 14.623371502298053 C 62.142579191769215 14.7541415606498 62.23280144568919 14.806051873303671 62.32495088359137 14.806051873303671 C 62.50246522909335 14.806051873303671 62.68712957372324 14.613414079735982 62.50437042998831 14.420775370206323 C 60.80106220832822 11.959607543314203 58.09227688665732 7.765117252970617 56.21638723267784 6.40697235393026 C 55.91624481476416 6.144347738255796 55.5635774737156 5.941751835154559 55.17339233042782 5.8442055493326155 C 55.04583180281451 5.514048889627574 55.08334960505372 5.071338823204906 55.008314000575304 4.696160800812814 C 54.93327839609688 3.9533082019812262 54.483064769226374 2.722724288535165 53.69519069321249 2.25 Z"
     style="fill:#ffffff;stroke:none"
     id="path10" />
  <path
     d="M 65.11406167143703 2.745879270845084 C 65.1447241357563 2.745879270845084 65.17673495066936 2.7470709295963314 65.21009402518207 2.749454247098826 C 65.63258901013111 2.7796300749641003 66.09532295160754 2.9405782575691846 66.59829630458188 3.232307530347808 C 66.09532295160754 3.5441494113354794 65.63258901013111 3.7126479204939766 65.21009402518207 3.7377957782951916 C 65.18266103251372 3.7394285764497717 65.15613989173497 3.7402453395034674 65.13053051185172 3.7402453395034674 C 64.76173041815505 3.7402453395034674 64.58202880623274 3.5709307952440854 64.59143927970295 3.232307530347808 C 64.58216993808394 2.9080263917295235 64.7563817393808 2.745879270845084 65.11406167143703 2.745879270845084 ZM 65.11406194441933 5.748627834994436 C 65.14472440873861 5.748627834994436 65.17673504166346 5.749818765792872 65.21009402518207 5.7522020832953675 C 65.63258901013111 5.782377183207831 66.09532295160754 5.943326093765726 66.59829630458188 6.2350560944971605 C 66.09532295160754 6.546897975484831 65.63258901013111 6.715395756690518 65.21009402518207 6.740543614491733 C 65.18266166947242 6.742175684693502 65.15614107465828 6.742992447747198 65.13053224073964 6.742992447747198 C 64.76173096411966 6.742992447747198 64.5820287607357 6.573679359393437 64.59143927970295 6.2350560944971605 C 64.58216993808394 5.910774955878876 64.75638183037489 5.748627834994436 65.11406194441933 5.748627834994436 ZM 65.05820466934254 2.25 C 65.03045146843155 2.25 65.00311957020979 2.250503015392249 64.97620888368317 2.2515090461767473 C 64.43803257447493 2.2716282059610924 64.1387608347584 2.5985620046218605 64.07840204238892 3.232307530347808 C 64.15771446815998 3.9064384221102233 64.44463517471428 4.2435009561801875 64.93918001706311 4.2435009561801875 C 64.94645026377258 4.2435009561801875 64.9537654615681 4.24342816089911 64.9611254284615 4.243282570336953 C 65.46912656951169 4.233217894775105 66.18082919870281 4.052150552385677 67.09624186948037 3.700070351829315 L 75.81779153687174 3.700070351829315 C 76.5320158855935 3.760428559135161 76.89163767726954 4.092389599907177 76.89666637528642 4.695952746192553 C 76.90169361739767 5.2995238999588485 76.54207182572162 5.666696746141117 75.81779153687174 5.797469100880927 L 67.09624186948037 5.797469100880927 C 66.26482949342078 5.43431892193103 65.58548609555676 5.252747836196541 65.05820466934254 5.252747836196541 C 65.03045146843155 5.252747836196541 65.00311957020979 5.25325085158879 64.97620888368317 5.254256882373289 C 64.43803257447493 5.274376042157634 64.1387608347584 5.601309112865591 64.07840204238892 6.2350560944971605 C 64.15771446247284 6.909186986259575 64.44463512921723 7.246248064423918 64.939179926069 7.246248064423918 C 64.94645026377258 7.246248064423918 64.953765370574 7.2461752691428405 64.9611254284615 7.246029678580684 C 65.46912656951169 7.235966458924458 66.18082919870281 7.054898388582218 67.09624186948037 6.702818188025857 L 75.33493752566994 6.702818188025857 C 75.36659546545798 6.70340928570821 75.39795931231043 6.703706290455008 75.42902979418017 6.703706290455008 C 76.45434914430572 6.703706290455008 77.1598431549678 6.381505640969934 77.54550381868546 5.737110165622271 C 77.942852492733 5.073188812031049 77.942852492733 4.409258723006097 77.54550381868546 3.7453366414620644 C 77.16543528846022 3.1102858963463875 76.47474055844131 2.7927521523312255 75.47342763610965 2.7927521523312255 C 75.42790656299313 2.7927521523312255 75.38174270754469 2.793408765766549 75.33493752566994 2.794721264684386 L 67.09624186948037 2.794721264684386 C 66.26482949342078 2.431571085734489 65.58548609555676 2.25 65.05820466934254 2.25 Z"
     style="fill:#ffffff;stroke:none"
     id="path12" />
  <path
     d="M 77.08705000497892 13.284606009721756 C 77.31751426065749 13.611245882589209 77.37329205882419 14.015000690964843 77.39291073167257 14.403643393032253 C 77.38423220791374 14.587411573900827 77.39815881471459 14.786224197696828 77.32196243277312 14.958653664356097 C 77.1066890695311 14.744364664270325 77.12576921601999 14.249326393826923 77.12098180010474 13.972021467620507 C 77.12098180010474 13.698820835251972 77.11175177344765 13.47492919646691 77.08705000497892 13.284606009721756 ZM 64.80468931055188 12.97660971550271 L 76.01357139554366 12.988711264813318 C 74.37607679686928 14.54079521211479 72.73399313794391 15.29939532729797 70.25940334098905 15.29939532729797 C 67.77446336401145 15.299394400402344 66.27084447182476 14.55947308590141 64.80468931055188 12.97660971550271 ZM 64.30161866398112 12.525293111801147 C 64.21365544342972 12.525293111801147 64.13366457527242 12.576359499494066 64.09686731852152 12.656274586692453 C 64.06003336987968 12.736268460019165 64.0732290279146 12.830507792242534 64.13056182836674 12.897356431782246 C 65.75887274516539 14.79779834339548 67.48709559542677 15.750000075157732 70.25940334098905 15.750000075157732 C 72.9578894112071 15.750000075157732 74.80106122269362 14.835291271521564 76.57878493393332 13.068201833814383 C 76.64004717352702 13.237525273226419 76.67037705224499 13.504076356364385 76.67037705224499 13.972021467620507 C 76.68145901636552 14.492440921027482 76.67746873068981 15.354998869086739 77.36040264823035 15.415427829511463 C 77.84081821325675 15.316540115716961 77.84039647574632 14.803163215286549 77.84351547953233 14.403643393032253 C 77.84351547953233 13.912345146445187 77.72330082424826 13.466877254152168 77.52270578016088 13.12847229508683 C 77.32211073607348 12.790067336021494 77.02523904317383 12.538106516953558 76.66563134663299 12.538106516953558 L 64.30188180096007 12.525293111801147 C 64.3017940789786 12.525293111801147 64.30170637147985 12.525293111801147 64.30161866398112 12.525293111801147 Z"
     style="fill:#ffffff;stroke:none"
     id="path14" />
  <path
     d="M 40.9532527923584 0.375 C 31.328252851963043 0.375 31.328252851963043 17.625 40.9532527923584 17.625 "
     style="fill:none;stroke:#ffffff;stroke-width:1"
     id="path16" />
  <path
     d="M 40.9532527923584 0.375 L 77.8435173034668 0.375 "
     style="fill:none;stroke:#ffffff;stroke-width:1"
     id="path18" />
  <path
     d="M 40.9532527923584 17.625 L 77.8435173034668 17.625 "
     style="fill:none;stroke:#ffffff;stroke-width:1"
     id="path20" />
  <path
     d="M 85.5310173034668 0.375 L 85.5310173034668 17.625 "
     style="fill:none;stroke:#ffffff;stroke-width:1"
     id="path22" />
  <path
     d="M 77.8435173034668 0.375 C 87.46851921081543 0.375 87.46851921081543 17.625 77.8435173034668 17.625 "
     style="fill:none;stroke:#ffffff;stroke-width:1"
     id="path24" />
</svg>
