<?xml version="1.0" encoding="UTF-8" standalone="no"?>
<svg
   width="98.9585189819336"
   height="18.0"
   version="1.1"
   id="svg32"
   sodipodi:docname="ptolemys.svg"
   inkscape:version="1.1.1 (3bf5ae0d25, 2021-09-20)"
   xmlns:inkscape="http://www.inkscape.org/namespaces/inkscape"
   xmlns:sodipodi="http://sodipodi.sourceforge.net/DTD/sodipodi-0.dtd"
   xmlns="http://www.w3.org/2000/svg"
   xmlns:svg="http://www.w3.org/2000/svg">
  <defs
     id="defs36" />
  <sodipodi:namedview
     id="namedview34"
     pagecolor="#ffffff"
     bordercolor="#666666"
     borderopacity="1.0"
     inkscape:pageshadow="2"
     inkscape:pageopacity="0.0"
     inkscape:pagecheckerboard="0"
     showgrid="false"
     inkscape:zoom="13.894711"
     inkscape:cx="49.479259"
     inkscape:cy="9.0322139"
     inkscape:window-width="1920"
     inkscape:window-height="1001"
     inkscape:window-x="-9"
     inkscape:window-y="-9"
     inkscape:window-maximized="1"
     inkscape:current-layer="svg32" />
  <path
     d="M 9.619241759901131 8.704017150225534 C 9.956114020057063 8.704017150225534 10.371109904274771 8.76399089929749 10.864229412554256 8.883939352346172 C 11.905261819800385 9.137163864337834 12.8056128816014 9.495897714329981 13.565284507766846 9.960140902322616 C 14.32495613393229 10.42438504522002 15.176070395910864 11.008207138114807 16.1186263387978 11.711606226102205 C 15.211383729261659 12.170969850713034 14.168207560803758 12.400651185566062 12.989095923614554 12.400651185566062 C 12.723796640788658 12.400651185566062 12.45161535927535 12.38902331016484 12.172553033979401 12.365768514267165 C 10.653210736553286 12.239155780818948 9.3484030744964 11.792497164191472 8.258132912523058 11.025791709479964 C 7.167863705454489 10.259086254768457 6.897054622097669 9.78780828332499 7.445706139904986 9.61195779514956 C 7.994358612617073 9.436108261878905 8.441018184149321 9.207503104703234 8.78568342214457 8.92614327852732 C 8.967086681565636 8.778059511294387 9.244939142516232 8.704017150225534 9.619241759901131 8.704017150225534 ZM 16.87829701005847 11.880422885731571 L 17.743478929129175 12.070340076094354 C 17.743478929129175 12.295428318996994 17.539492171864723 12.478311680813713 17.131522476954906 12.618992071354056 C 16.899402315315747 12.634818663035082 16.657389340244983 12.642731958875595 16.405485461552153 12.642731958875595 C 15.985642480714866 12.642731958875595 15.538322115080815 12.620750051038186 15.063526274459544 12.576788145172907 C 15.977946903162229 12.464244023721587 16.582870481695206 12.232122907177656 16.87829701005847 11.880422885731571 ZM 18.207723072026578 12.196952809542571 L 18.73527358164809 12.302462147543055 C 18.791544210016596 12.471278807172421 18.594593191107748 12.640094511897015 18.144416705302472 12.808910216621609 L 17.532460253128203 12.76670629044046 C 17.968567172031815 12.569755271531616 18.193655414934454 12.379837126264063 18.207723072026578 12.196952809542571 ZM 19.009598624373172 12.407972440448313 L 19.36833342927009 12.49238029281061 C 19.283925576907794 12.731536192805375 19.030702019820904 12.851114142802757 18.608660848199875 12.851114142802757 C 18.847816748194642 12.696366095170289 18.98146331018892 12.548652830988656 19.009598624373172 12.407972440448313 ZM 19.600455500718795 12.618992071354056 C 19.938086910167982 12.71746853571325 20.163175153070622 12.87925041189178 20.27571831961717 13.10433865479442 L 19.326128548184172 12.893318068983906 C 19.509013819810434 12.808910216621609 19.600455500718795 12.71746853571325 19.600455500718795 12.618992071354056 ZM 17.405847519679988 13.864010280959864 C 18.46094662911347 13.99062205950331 19.255788352914 14.28604954277135 19.790372691081576 14.750293685668755 L 17.173725448231284 14.138336278589716 C 17.20186267222508 13.983587276052475 17.279236696041313 13.892145595144116 17.405847519679988 13.864010280959864 ZM 5.187792747046841 0.40093762696942586 C 5.848988863757863 0.40093762696942586 6.3484031042903535 0.5838216154424017 6.686035468644312 0.9495895923883535 C 7.0236668780935005 1.3153575693343054 7.129177170998758 2.198124417859453 7.0025653924553115 3.5978901976453446 C 6.875952659007095 4.997655977431236 6.8337487328259465 5.947245271411848 6.875953136459481 6.446659034491953 C 6.918156585188243 6.946073275024443 7.048285755457107 7.315357867835686 7.266340169813683 7.554513290378066 C 7.4843936292654885 7.793669667825216 7.748168406623859 8.029308176094565 8.05766402443641 8.261430247543267 C 8.367160119701346 8.49355231899197 8.212412072068878 8.70105503562468 7.5934203589913905 8.883939352346172 C 6.974429123366289 9.06682271416289 6.629762930466267 9.33763179751971 6.559423212648482 9.69636660241663 C 6.48908301737831 10.055099497504006 6.577008261466024 10.385698033311902 6.823197990006852 10.688160300030777 C 7.069388196000066 10.99062256674965 7.656726725715499 11.398594171469009 8.585214534057924 11.912075114188854 C 9.513701864947961 12.42555701181347 10.333162943564483 12.752637678443564 11.043595860097945 12.893318068983906 C 11.754030686440949 13.033998459524248 13.931053141209826 13.10433865479442 17.57466322440458 13.10433865479442 C 18.700104438917776 13.315358285700162 19.445707453086325 13.596718111876076 19.811474176719763 13.94841813332216 L 17.405847519679988 13.399766138062459 C 17.18076118658689 13.47010633333263 17.00490974350669 13.60375194042214 16.87829701005847 13.800703914235756 C 16.87829701005847 14.166472547678739 16.083455286257944 14.37749217858448 14.493772793561655 14.433763761857755 C 14.254616893566888 14.433763761857755 14.092834062483586 14.103166180954629 14.008427165026061 13.441970064243609 L 13.755202653034399 13.652989695149351 C 13.881814431577844 14.187574033316928 13.91698452921293 14.658852004760394 13.860712945939655 15.066823609479753 C 13.663760972126038 14.588511809490223 13.319094779226017 14.271981885679224 12.826715322144361 14.117233838046756 C 12.038906471985122 13.976553447506413 11.335507383997724 13.846424754689936 10.71651519346785 13.726846804692553 C 10.097523002937978 13.607269809599941 9.471497938766813 13.350529338240019 8.838438091144814 12.956624435708015 C 8.275718438792987 12.520516561899633 7.371849507814169 12.049238590456165 6.126831775660745 11.542790521377611 C 4.881814043507322 11.03634340720383 4.259305416156803 10.283705609584448 4.259305416156803 9.284877128519467 C 4.259305416156803 8.286049602359258 4.593420388785345 7.459554695196674 5.261649856590044 6.805393361936487 C 5.929879801847128 6.151231551223914 6.2639942970232845 5.366941047694864 6.2639942970232845 4.452521373896952 C 6.2639942970232845 4.002345365544058 6.207722713750011 3.5767882345547704 6.095179069751077 3.175850219655281 C 5.993352799453844 2.8130966980279646 5.689997219321334 2.6317199372143065 5.185112329353548 2.6317199372143065 C 5.131966626849421 2.6317199372143065 5.076588356989783 2.6337295343056977 5.0189770423222475 2.6377489672146734 L 3.2464102329044677 2.869871038663376 C 3.3026820549039346 2.6869874381204633 3.387089668540039 2.5181714946696765 3.4996335512651657 2.363423447037208 C 3.6403134643531225 1.9273154538657298 3.795061511985591 1.6740914193264531 3.9638776941625706 1.6037515821455712 C 3.9884963327999836 1.6899181303705768 4.083125485835245 1.733001523846176 4.247764437089777 1.733001523846176 C 4.271284696513898 1.733001523846176 4.296233016023633 1.732122295277918 4.32261082797614 1.7303637187783059 C 4.603971609056825 1.7162955842337946 4.765753485235356 1.5756155517827413 4.8079574114165045 1.308323860151339 C 4.7798216197798675 1.0410321685199366 4.6180397436013365 0.9003521360688832 4.32261082797614 0.8862840612059201 C 4.069387270889249 0.9003521360688832 3.9287073578012923 1.0410321685199366 3.9005710887122693 1.308323860151339 C 3.6754838007144013 1.5193437297832741 3.4996337899913588 1.765533697050295 3.373021295269335 2.046893523226209 C 3.3320964640294637 2.0673559388461444 3.2921017100369276 2.0775870272930157 3.2530370332917253 2.0775870272930157 C 3.1846734908983327 2.0775870272930157 3.119158190711805 2.046253737029377 3.0564913714583355 1.9835869177759076 C 3.225307553635315 1.6459552696005268 3.471497998354722 1.2977725205167625 3.7950622281641695 0.9390390286139039 C 4.118625980521232 0.5803047608509185 4.582869168513866 0.40093762696942586 5.187792747046841 0.40093762696942586 ZM 9.977946007845366 14.159437764227905 L 10.653208826743741 14.328253468952498 L 9.89353815548307 15.425557459471902 L 9.977946007845366 14.159437764227905 ZM 11.286269629270512 14.391559835676606 C 11.84898928162234 14.391559835676606 12.32378416733884 14.451348333222912 12.71065428642001 14.570927238125066 C 13.09752440550118 14.690504233217677 13.336679350591174 15.144197633295988 13.428121986404305 15.932005528550455 C 13.517959427296729 16.705992132143816 13.400721948894024 17.092986388845265 13.07640859629142 17.092986388845265 C 13.070618053757709 17.092986388845265 13.064760667889999 17.092862251224986 13.058837393593063 17.09261588579397 L 11.03304511727885 17.09261588579397 C 10.988356528882543 17.089306185856326 10.942987093384234 17.087650380982737 10.896935855879153 17.087650380982737 C 10.551564943257846 17.087650380982737 10.167861288398607 17.180747866764687 9.745823936396663 17.366940928519046 C 9.858368057847983 16.382182014355735 10.3718499554726 15.390387361836815 11.286269629270512 14.391559835676606 ZM 5.187792747046841 0.0 C 4.231169147067781 0.0 3.443361967991892 0.5345838607151904 2.8243702549144043 1.6037515821455712 C 2.613350385282469 1.9554513648654634 1.9873244855696295 2.3071511475853557 0.946292317049693 2.6588511690314407 C 0.22882448278191372 2.869871038663376 -0.08067132899566878 3.165298999383801 0.017804894772284054 3.545135051192716 L 0.03890708726380924 3.798358369553414 C 1.3753664816751086 3.6717465910099687 2.493771957832701 3.5099647148314377 3.3941234970861016 3.3130129797440135 L 5.040079482865207 3.0175852577497815 C 5.048381902400062 3.0173546482474904 5.056615568791377 3.017239343496345 5.064780004586766 3.017239343496345 C 5.5546451974053515 3.017239343496345 5.796118651280282 3.432360558965298 5.789199888759171 4.2626027511770115 C 5.782166060213108 5.106682229704753 5.4269491244939925 5.862836941597166 4.723549559054208 6.5310668868542505 C 4.020149993614424 7.199296832111335 3.661415904896083 8.166471652361876 3.6473477703515713 9.432591347605873 C 3.6473477703515713 10.459556097759878 4.136210551886389 11.19460836910933 5.11393659240841 11.637750071463774 C 6.09166167802566 12.08089177381822 7.037734535185626 12.555685704629948 7.952154686435924 13.062133773708501 C 8.866573405329065 13.568581842787054 9.387089131499744 13.962486745319058 9.513701864947961 14.243845616590201 C 9.44336166967779 15.735053554736838 9.26047830786107 16.698711938166735 8.96504986968826 17.134818857070343 C 8.472670412606604 17.134818857070343 7.614522322081965 17.064478661800173 6.390606553019116 16.92379827125983 C 6.01077121738878 16.980070809437876 5.75051335430344 17.10316567370829 5.609832486310712 17.293084773880615 C 5.469153528127526 17.48300387405294 5.497289319764163 17.69050468087611 5.69424129357778 17.91559292377875 C 5.7882960713930505 17.77973671214347 5.878469161312617 17.711806696516287 5.9647610407888685 17.711806696516287 C 5.99463093949035 17.711806696516287 6.024035799568166 17.719946304787623 6.052975621022314 17.73622552133029 C 6.165519265021248 17.799531888054396 6.446879091197162 17.831185071416453 6.897054144645284 17.831185071416453 L 8.96504986968826 17.831185071416453 C 9.066651737364214 17.811645809984256 9.162826881224358 17.801877134172933 9.253573391459145 17.801877134172933 C 9.489516991802953 17.801877134172933 9.68877028611562 17.867918348162302 9.851334229301921 18.000000776141047 C 10.048286203115538 17.98593311904892 10.21710095293536 17.929660580870873 10.357781343475702 17.831185071416453 C 10.978782653644581 17.849272877596132 11.498366392758383 17.8583158257812 11.916529696102794 17.8583158257812 C 12.474082358736627 17.8583158257812 12.85133372205558 17.842239049050068 13.048285695869197 17.810083585778262 C 13.39295188876922 17.753811047600216 13.705964898307187 17.704574247777778 13.987324724483102 17.662369366691856 L 14.704792424467398 17.89449143814056 C 14.713104870502352 17.89513122433739 14.721098378343662 17.895450162531034 14.728771038181785 17.895450162531034 C 14.889915037973028 17.895450162531034 14.91005779922074 17.754450833797048 14.789201231734465 17.47245026651953 C 14.170209041204592 17.134818857070343 14.02952865066425 16.28370459509177 14.367161015018208 14.919109390393348 L 14.367161015018208 14.919109390393348 C 14.486100133723532 14.921667580275903 14.601202445057407 14.922946197764796 14.712467949019834 14.922946197764796 C 15.825117259215483 14.922946197764796 16.55409538131412 14.795054846827687 16.899400405506203 14.539274054763013 C 18.306200491290543 14.792496656945131 19.452741281632388 15.03868734039073 20.33902468634128 15.277843240385495 L 20.486738905427682 15.024620638203377 C 20.1209702719847 14.616648078579246 19.84664522925962 14.356389738041521 19.6637618674429 14.243845616590201 L 19.6637618674429 14.243845616590201 L 20.59224824342817 14.433763761857755 C 20.74230770863311 14.490035345131028 20.8462548224276 14.518171614220051 20.90408958481164 14.518171614220051 C 21.01975910957972 14.518171614220051 20.95098304832509 14.405627492768732 20.697759491238198 14.180540204770864 C 20.641486953060152 14.025792157138396 20.23351534834079 13.723330845324293 19.473842767270575 13.273154359519014 L 19.473842767270575 13.273154359519014 L 20.761063948152763 13.526377916605906 C 20.901744338693106 12.62602685480489 19.924019253075855 11.985932223732057 17.827886781491472 11.606096888101721 C 16.73058279097207 11.352873331014829 15.738790048262691 10.86049196412363 14.852506643553802 10.12895660704721 C 13.684862457764227 9.101993766702748 11.91932947689251 8.349355969083367 9.55590579112911 7.871043214189065 C 8.303853752977238 7.786635839279153 7.607488493535902 7.4032831119233995 7.466808580447945 6.72098550957419 C 7.326128667359988 6.038687429772594 7.32964558163302 4.95193465952467 7.477359800719425 3.4607274375566117 C 7.625073542353445 1.969519857499264 7.417570825720734 0.9988280632941434 6.854850695916521 0.5486519952597018 C 6.43281095665265 0.1828839884729759 5.877125132846886 0.0 5.187792747046841 0.0 Z"
     style="fill:#ffffff;stroke:none"
     id="path2" />
  <path
     d="M 27.177865186478382 7.937876256002994 C 26.496671245133623 7.991654064440127 26.120222241250442 8.332250793733436 26.04851793344977 8.959665719745715 C 26.138148499234912 9.640860143848613 26.514597503118093 9.999383372505463 27.177865186478382 10.035235888474404 C 27.84113286983867 9.999383372505463 28.190692728124215 9.640860143848613 28.226544278576878 8.959665719745715 C 28.172766470139745 8.332250793733436 27.8232066118542 7.991654064440127 27.177865186478382 7.937876256002994 ZM 27.25853214051315 5.679180301671352 C 27.742538692303153 5.679180301671352 28.190693210882355 5.768811229525099 28.602994730734476 5.948073085232593 C 29.01529576782846 6.127334940940088 29.378299957533752 6.373819539952137 29.692007299850356 6.687527123647811 C 30.0057151249251 7.001234707343485 30.252199844626684 7.3597576946212655 30.43146145895511 7.763095602723013 C 30.610722590525395 8.16643375220383 30.700352914931468 8.592179844854769 30.700352914931468 9.040334122054901 C 30.700352914931468 9.506413933102294 30.610722590525395 9.941123154745469 30.43146145895511 10.344461786984425 C 30.252199844626684 10.747799936465242 30.0057151249251 11.101841721315509 29.692007299850356 11.406586176018948 C 29.378299957533752 11.711330630722387 29.01529576782846 11.948851980052666 28.602994730734476 12.119151189526065 C 28.190693210882355 12.289449433483185 27.742538692303153 12.374598314082675 27.25853214051315 12.374598314082675 C 26.774526312860356 12.374598314082675 26.32189131599085 12.289449433483185 25.900626908525563 12.119151189526065 C 25.479361776923067 11.948851980052666 25.116357104459635 11.711330630722387 24.8116130118248 11.406586176018948 C 24.506868074363222 11.101841721315509 24.264865160536825 10.747799936465242 24.085604149656074 10.344461786984425 C 23.906342354293347 9.941123154745469 23.8167114264396 9.506413933102294 23.8167114264396 9.040334122054901 C 23.8167114264396 8.592179844854769 23.906342354293347 8.16643375220383 24.085604149656074 7.763095602723013 C 24.264865160536825 7.3597576946212655 24.506868074363222 7.001234707343485 24.8116130118248 6.687527123647811 C 25.116357104459635 6.373819539952137 25.479361776923067 6.127334940940088 25.900626908525563 5.948073085232593 C 26.32189131599085 5.768811229525099 26.774526312860356 5.679180301671352 27.25853214051315 5.679180301671352 ZM 27.204754814834157 4.764946937561035 C 26.61319119789547 4.764946937561035 26.057480338304796 4.876985476688684 25.53762175330399 5.101062554943983 C 25.017763409682257 5.325139663371665 24.569609615240264 5.629884118075104 24.193160490667548 6.015295949226683 C 23.8167114264396 6.400708564860238 23.516448355197976 6.848862238612696 23.292371276942678 7.359757211863126 C 23.068294998255546 7.870652909250765 22.956256866455078 8.421882083655788 22.956256866455078 9.013444493699126 C 22.956256866455078 9.605007145121533 23.068294998255546 10.156236319526556 23.292371276942678 10.667132016914195 C 23.516448355197976 11.178027714301834 23.8167114264396 11.621700306316313 24.193160490667548 11.998149310199494 C 24.569609615240264 12.374598314082675 25.017763409682257 12.67486180773767 25.53762175330399 12.898938825648202 C 26.057480338304796 13.123014878042454 26.61319119789547 13.23505338699772 27.204754814834157 13.23505338699772 C 27.796317466256564 13.23505338699772 28.347546157903448 13.123014878042454 28.85844088977481 12.898938825648202 C 29.369336587162447 12.67486180773767 29.81749062298351 12.374598314082675 30.202903479996134 11.998149310199494 C 30.58831537149248 11.621700306316313 30.89305982619592 11.178027714301834 31.11713636134831 10.667132016914195 C 31.34121434477512 10.156236319526556 31.453252853730387 9.605007145121533 31.453252853730387 9.013444493699126 C 31.453252853730387 8.421882083655788 31.34121434477512 7.870652909250765 31.11713636134831 7.359757211863126 C 30.89305982619592 6.848862238612696 30.58831537149248 6.400708564860238 30.202903479996134 6.015295949226683 C 29.81749062298351 5.629884118075104 29.369336587162447 5.325139663371665 28.85844088977481 5.101062554943983 C 28.347546157903448 4.876985476688684 27.796317466256564 4.764946937561035 27.204754814834157 4.764946937561035 Z"
     style="fill:#ffffff;stroke:none"
     id="path4" />
  <path
     d="M 45.639637175016105 2.7008420331403613 L 45.59218011889607 7.968575262464583 L 42.81594233587384 8.016032318584621 L 42.79221380781382 2.7245705612003803 L 45.639637175016105 2.7008420331403613 ZM 46.114207736216486 2.25 L 42.34137177467346 2.273728528060019 L 42.36510030273348 8.490602879785001 L 46.04302215203643 8.419417295604944 L 46.114207736216486 2.25 Z"
     style="fill:#ffffff;stroke:none"
     id="path6" />
  <path
     d="M 44.22778966464102 12.878848205320537 C 45.03330577510452 12.878848205320537 46.04157016612871 13.2926455512671 46.52945688646287 13.78053227160126 C 46.95630716766779 14.207382190737576 47.01210990511997 14.773305557384845 47.02775597572327 15.299158067442477 L 41.4515518816188 15.299158067442477 C 41.467198133256396 14.773305557384845 41.52300087070858 14.207382190737576 41.9498509708792 13.78053227160126 C 42.43773787224766 13.2926455512671 43.42227391624613 12.878848205320537 44.22778966464102 12.878848205320537 ZM 44.22778966464102 12.428006172180176 C 43.2721890573029 12.428006172180176 42.243981022375124 12.869460490544839 41.64138010609895 13.472061406821012 C 41.02330460537659 14.090137135250586 40.9532527923584 14.903828392733544 40.9532527923584 15.512714819982648 L 40.9532527923584 15.750000100582838 L 47.50232653692365 15.750000100582838 L 47.50232653692365 15.512714819982648 C 47.50232653692365 14.903828392733544 47.45600347967269 14.090137135250586 46.837927751243114 13.472061406821012 C 46.235327197035545 12.869460490544839 45.183390453013445 12.428006172180176 44.22778966464102 12.428006172180176 Z"
     style="fill:#ffffff;stroke:none"
     id="path8" />
  <path
     d="M 54.77655067983256 9.246990648343806 Q 55.25119579165794 9.246990648343806 55.25119579165794 9.605777611658157 Q 55.24372125719626 9.979513643895862 54.76907614537089 9.979513643895862 Q 54.29443103354551 9.979513643895862 53.35261570240081 9.605777611658157 Q 54.301905568007186 9.246990648343806 54.77655067983256 9.246990648343806 ZM 52.26130681766754 11.115671525621089 Q 52.81443633156242 11.41466006497575 53.09847580199373 13.0590984636039 Q 53.23302064470332 14.344751331095216 52.26130681766754 14.344751331095216 Q 51.274643384641834 14.344751331095216 51.40918858539581 13.0590984636039 Q 51.69322751876055 11.41466006497575 52.26130681766754 11.115671525621089 ZM 55.732699601612644 2.25 Q 54.81051190529524 2.25 53.99544249419085 2.6019615890991816 Q 53.00877888214295 3.028020705235047 52.55282082256053 4.022159120277905 Q 52.09686240493372 5.016297624831859 51.96231809929069 7.004573738828817 L 51.96231809929069 9.037698670795542 Q 51.24329767336973 8.825031050839506 50.14010252084449 8.825031050839506 Q 49.61477210962284 8.825031050839506 49.00232744216919 8.8732546161061 L 49.00232744216919 9.560928972710578 Q 49.49701798185693 9.507654833429978 49.93068522776348 9.507654833429978 Q 51.20071133783258 9.507654833429978 51.94736813525639 9.96456385888375 L 51.93241906633303 9.96456385888375 Q 51.25969342060753 11.115671525621089 50.99807862769439 11.833244736161033 Q 50.736462939670304 12.550817946700978 50.676665768865945 13.283340942253034 Q 50.661715804831644 14.195257061417886 51.01302769661775 14.666164906012424 Q 51.36433958840385 15.137072034518205 52.26130681766754 15.137072034518205 Q 53.143324082896925 15.137072034518205 53.49463615370522 14.666164906012424 Q 53.84594786646914 14.195257061417886 53.830998081457025 13.283340942253034 Q 53.77120073163047 12.550817946700978 53.509585938717336 11.833244736161033 Q 53.24797042971544 11.115671525621089 52.76958733457047 10.129007913573192 L 52.76958733457047 10.129007913573192 Q 54.02111463422901 10.605198344939506 54.78897159739388 10.605198344939506 Q 55.90137932130887 10.605198344939506 55.99866785613335 9.605777611658157 Q 55.90188631214992 8.611561411473902 54.79535338041002 8.611561411473902 Q 54.02175947215608 8.611561411473902 52.75463826564711 9.097496378666476 L 52.75463826564711 7.06437108865537 Q 52.84433518549789 3.9997351588484955 54.07766452153557 3.3718584206038553 Q 55.08348637222954 2.8598035341212915 56.02965158453801 2.8598035341212915 Q 56.24366473527135 2.8598035341212915 56.45462591571577 2.8860012833082256 Q 57.59825904799144 3.028020705235047 58.278458870134244 4.134279643513714 Q 58.958657976188285 5.240539208370044 59.05582978854512 7.587602464703543 Q 59.15300160090195 9.934665004948283 59.182900454837416 12.206980768398738 Q 59.51178784812754 14.389599970042795 60.662895514864886 15.749999614328397 L 61.18612653286868 15.286567020284293 Q 60.07986678899016 13.86636966812776 59.84067595750643 12.236879622334204 Q 59.765928464623386 11.011025178802578 59.736029610687915 8.589215145674792 Q 59.70613075675245 6.16740475450263 59.272597016643815 4.807005289239218 Q 58.83906184435766 3.446605644953615 58.05421710757386 2.900951157831433 Q 57.26937093861255 2.3552958986760575 56.12573852242565 2.265599557850175 Q 55.926844869740194 2.25 55.732699601612644 2.25 Z"
     style="fill:#ffffff;stroke:none"
     id="path10" />
  <path
     d="M 67.5275082076797 2.5746368788052725 Q 67.74307407890586 2.5746368788052725 67.82598561690904 2.790203542056506 Q 67.71986005033274 2.747753442149999 67.64429886706813 2.747753442149999 Q 67.4837312168551 2.747753442149999 67.46117977382809 2.9394419298611445 Q 67.42878730613263 3.2795676833310483 67.2777456809022 3.2795676833310483 Q 67.27414925345438 3.2795676833310483 67.27048584331475 3.2793748817991886 Q 67.11295667283011 3.271083963343464 67.04663077345873 3.13842745770885 Q 67.04663077345873 3.038934716414285 67.29535959437058 2.806785378967955 Q 67.41143335792223 2.5746368788052725 67.5275082076797 2.5746368788052725 ZM 67.76507083283089 2.8707448884579203 Q 67.82598561690904 2.8707448884579203 67.82598561690904 2.956024536168378 Q 67.79558561274376 3.2904294699125383 67.57011463070617 3.2904294699125383 Q 67.5496175649407 3.2904294699125383 67.5275082076797 3.287665890772064 L 67.5275082076797 3.254502126432015 L 67.5938355553255 3.105263693368801 Q 67.60938205706258 2.8720773461808036 67.72694573292146 2.8720773461808036 Q 67.73478306993299 2.8720773461808036 67.74307407890586 2.8731136770438375 Q 67.75491842916263 2.8707448884579203 67.76507083283089 2.8707448884579203 ZM 66.28812854714344 3.059144390224986 Q 66.13824264489836 3.059144390224986 66.01024994495742 3.1467183761645745 Q 65.85272041240418 3.254502126432015 65.91904884625579 3.5198144135640343 L 65.9853769180388 3.5198144135640343 Q 66.00195966012176 3.353994143589371 66.0848690257133 3.2462103933219306 Q 66.16777983957927 3.13842745770885 66.35847377009262 3.13842745770885 Q 66.54916770060596 3.13842745770885 66.54916770060596 3.088681041802992 Q 66.54916770060596 3.088681041802992 66.35847377009262 3.0638082864358185 Q 66.32271804713059 3.059144390224986 66.28812854714344 3.059144390224986 ZM 66.28385468933674 3.204755710526157 Q 66.0848690257133 3.204755710526157 66.0848690257133 3.4866506492239853 L 66.0848690257133 3.5861426663813414 Q 66.10145104365905 3.589459033763631 66.11538018494014 3.589459033763631 Q 66.17109638799586 3.589459033763631 66.18436185752502 3.536396974612692 Q 66.46625761087721 3.470068721795385 66.59891411651182 3.304247727683513 Q 66.48283926675435 3.204755710526157 66.28385468933674 3.204755710526157 ZM 65.9853769180388 3.6358889917700483 Q 65.90246610417283 3.7519636604932134 65.96879526216165 3.926076478232321 Q 66.03512333394465 4.100187666662709 66.79789869392944 4.166515919480016 L 66.91397426782412 4.116769503574158 Q 65.95221252007869 4.050441250756851 66.0517053518904 3.6690527561100974 L 65.9853769180388 3.6358889917700483 ZM 67.06321025692425 2.8399499127037884 Q 66.8476458339725 2.989188300508427 66.89739152574116 3.221337547437606 Q 66.93055592370126 3.320829564594962 67.09637465488436 3.387157817412269 Q 67.24561317846472 3.4534861607467273 67.21244950464182 3.7353810089274044 Q 67.24561317846472 4.348917935848977 66.69840767246075 4.6805593809698145 Q 66.61549577238897 4.481573717346382 66.37505651217558 4.464991880434933 Q 66.35215784535691 4.463412718216706 66.3305372807119 4.463412718216706 Q 66.12514010624119 4.463412718216706 66.03512333394465 4.605940119179632 Q 65.96511012790575 4.716794301729802 65.87046286022714 4.716794301729802 Q 65.83061141721178 4.716794301729802 65.78639234062118 4.6971412178812635 Q 65.75925783319927 4.703924754219589 65.73551518446368 4.703924754219589 Q 65.58514555856307 4.703924754219589 65.57082484008629 4.431828206612035 Q 65.73664592471532 4.415246188666284 65.80297399649832 4.365500677931937 Q 65.86930243034993 4.315754262026079 66.0517053518904 4.249426009208772 Q 65.97095753586731 4.157143230551402 65.88619799970712 4.157143230551402 Q 65.84911529530986 4.157143230551402 65.8112650054712 4.1748067474185895 Q 65.68689950880946 4.232844172297323 65.55424227903764 4.266007846120221 Q 65.27234724982266 4.216262154351572 65.33867550263996 3.9841129979395435 Q 65.17285532318245 3.8017100763990714 65.2226008339168 3.6690527561100974 Q 65.58740667699774 3.436904233318127 65.82784702341695 3.2296285564104816 Q 66.06828700776755 3.022352788985685 66.3667655032027 2.9808973820527025 Q 66.66524291243203 2.9394419298611445 67.06321025692425 2.8399499127037884 ZM 68.04155293640962 2.6907115248991498 Q 68.47268648920496 2.7238752439806233 68.95356681997477 3.1798821405046236 Q 69.4344489610876 3.6358889917700483 69.51735687840473 4.116769503574158 Q 68.62192718519695 5.42675272300885 66.98030233960712 6.206110825076596 Q 66.91397426782412 5.509663536874815 67.21244950464182 4.813215886604429 Q 67.75965573478301 4.315754262026079 67.69332838713721 3.975821988966668 Q 67.6269999532856 3.6358889917700483 67.9088957066378 3.5198144135640343 Q 68.53901600926238 3.4037397448408693 68.04155293640962 2.6907115248991498 ZM 74.12534317947815 5.491464158473068 Q 74.15022236156305 5.491464158473068 74.17691623149337 5.493081880997668 Q 74.923109935601 5.625738386632282 75.53664822027984 6.164656142280823 Q 76.15018940150752 6.703572449654945 76.41550168863954 7.499511483462629 Q 76.46524701833958 7.582421573191385 76.05069294900976 7.582421573191385 Q 74.30957744401984 6.8528106111667055 73.84527514844113 6.10661799326488 Q 73.64022628396789 5.491464158473068 74.12534317947815 5.491464158473068 ZM 69.69976124821962 4.663976638886854 Q 70.73310794181579 5.654858116212285 72.33439689659754 5.654858116212285 Q 72.60890282973328 5.654858116212285 72.9000994013961 5.625738386632282 Q 72.92994688887102 5.61578910345111 72.9568102069082 5.61578910345111 Q 73.19857717269404 5.61578910345111 73.19857717269404 6.421678868714383 Q 71.55695015469259 7.151287658327436 70.61177658005919 7.217615730110441 Q 70.33172375590355 7.237268451890375 70.04366414662952 7.237268451890375 Q 69.35952248408655 7.237268451890375 68.63021783210122 7.1264139072716 Q 68.47268866161659 7.10246958632334 68.33795424426114 7.10246958632334 Q 67.58627411459055 7.10246958632334 67.54408986355685 7.847733860323404 Q 66.8476458339725 7.018631876830031 67.04663077345873 6.7201541055320915 Q 68.68825380870554 5.990543505576017 69.69976124821962 4.663976638886854 ZM 67.67988948674653 2.25 Q 67.64115321503283 2.25 67.60212873671 2.251286510545174 Q 66.8476458339725 2.276159322485567 66.79789869392944 2.558054996635248 Q 66.49942200883731 2.6741296427291252 66.24239855826654 2.7487488592607323 Q 65.9853769180388 2.823368030533764 65.76151877059964 3.022352788985685 Q 65.53766026109189 3.221337547437606 65.26405642188408 3.3788668989565447 Q 64.99045240164197 3.536396974612692 64.94070598573612 3.6524709191986484 Q 64.85779662014457 3.8348744743591783 65.08994432828219 4.050441250756851 Q 65.08994432828219 4.232844172297323 65.2557654129112 4.348917935848977 Q 65.2889290867341 4.348917935848977 65.33038467470139 4.6308129650639565 Q 65.37183935749717 4.912707813244634 65.63715381704081 5.045364318879248 Q 65.96879526216165 4.99561790297339 66.06828700776755 4.854671293537411 Q 66.15285573377321 4.73486550784558 66.28534604991839 4.73486550784558 Q 66.30872699211815 4.73486550784558 66.33360038110538 4.738596624814246 Q 66.49942200883731 4.763470194835779 66.58233137442886 5.01220064505635 Q 66.51600402678307 5.260931819414129 66.39163816805272 5.89105139790151 Q 66.26727194725378 6.521171700526099 66.39163816805272 6.819646213206599 Q 66.51600402678307 7.118123622435934 65.95221252007869 7.491219750352545 Q 65.5222024661629 7.775785035525206 64.77386658315713 7.775785035525206 Q 64.54105049637575 7.775785035525206 64.27742345756305 7.748241752648897 Q 63.70204575551686 7.588414894800539 63.35196646455969 7.588414894800539 Q 62.975631180390685 7.588414894800539 62.85965638602912 7.773114779567524 Q 62.63579879300752 8.129629613675593 62.90111182690603 8.394942624944822 L 63.54781258605552 8.394942624944822 Q 65.03622366633978 8.448447675033282 66.06877109349168 8.448447675033282 Q 68.55626169896006 8.448447675033282 68.39806813258629 8.137922070922887 Q 68.21830215669189 7.785048922838189 68.69081834063073 7.785048922838189 Q 68.80671650090923 7.785048922838189 68.96185746687904 7.806278453390422 Q 69.20565418926132 7.839640178739944 69.49711072618213 7.839640178739944 Q 70.14728166398292 7.839640178739944 71.03461984801886 7.673621947755808 Q 72.31972370433435 7.43318304961102 72.70940366053973 7.2259067390833165 Q 72.95919841142303 7.093038061246506 73.24987505256989 7.093038061246506 Q 73.41265313161297 7.093038061246506 73.58825205993897 7.134705640381685 Q 74.07742339968165 7.250780490139152 74.17691623149337 7.549257899368487 Q 73.96070044712225 7.947552191810504 73.42428639587335 7.947552191810504 Q 73.17906819215007 7.947552191810504 72.8669353655046 7.864316602406364 Q 72.3450069549818 7.725135620519896 72.0101738751129 7.725135620519896 Q 71.70673359152262 7.725135620519896 71.55695015469259 7.83944212721332 Q 71.24189398613494 8.079883921906944 71.52378611880108 8.411523918753364 L 76.91295933046324 8.411523918753364 Q 77.46017243990791 7.914062294175014 77.14511337480143 7.259071137043423 Q 76.83005141314611 6.6040803419804375 76.08386132972451 6.0154168945632485 Q 75.33766400493083 5.42675272300885 74.44223431172306 4.945872392239043 Q 74.67620956114153 4.741142148137701 74.89406624042793 4.741142148137701 Q 75.17027534427892 4.741142148137701 75.4205748187968 5.070237164763572 Q 75.68328455680016 5.4156524237341905 75.86606547796366 5.4156524237341905 Q 75.99478231511345 5.4156524237341905 76.08386132972451 5.244349801468378 Q 75.49284950533898 4.1867579079136625 74.85078745600303 4.1867579079136625 Q 74.8082979811358 4.1867579079136625 74.76558474787102 4.1913894895015495 Q 74.07742339968165 4.266007846120221 73.51363478952611 4.962454229150492 Q 72.8309276427939 5.134434462809498 72.24158060985154 5.134434462809498 Q 70.95573451289697 5.134434462809498 70.11431314513781 4.315754262026079 Q 69.65001519438236 3.13842745770885 69.00331287381202 2.6824205611848497 Q 68.39006134746789 2.25 67.67988948674653 2.25 Z"
     style="fill:#ffffff;stroke:none"
     id="path12" />
  <path
     d="M 66.26364333135538 12.105297803878784 Q 64.80240396104213 12.138889807689386 63.845039536497524 13.163436783094795 Q 62.78690052333758 14.322351041119418 62.6861252784729 15.48126602328125 Q 62.6861252784729 15.749999858725147 62.98845102438159 15.749999858725147 L 77.0297916633964 15.749999858725147 Q 77.33211749982223 15.749999858725147 77.33211749982223 15.430877297671131 Q 77.33211749982223 15.111755460754324 77.0297916633964 15.111755460754324 L 63.44193851178022 15.111755460754324 Q 64.28173174754241 12.96188704013193 65.96131749492955 12.726744526791341 L 77.0297916633964 12.726744526791341 Q 77.33211749982223 12.726744526791341 77.33211749982223 12.40762354978747 Q 77.33211749982223 12.105297803878784 77.0297916633964 12.105297803878784 Z"
     style="fill:#ffffff;stroke:none"
     id="path14" />
  <path
     d="M 80.67008287208006 2.9892379897054955 C 80.94770097328306 2.9892379897054955 81.28755628300925 3.095985977015074 81.38664696973593 3.340333519869274 L 81.35016535464149 11.279334014803599 L 81.35016535464149 11.279334014803599 C 81.20935456331264 10.960512872387417 80.79105618989804 10.367342335933275 79.54861136702404 9.632436990092634 L 80.49187217683334 3.06154244747758 C 80.53612370777097 3.0145252182361735 80.53496353784 2.9892379897054955 80.67008287208006 2.9892379897054955 ZM 81.35016535464149 11.279334014803599 L 81.35016535464149 11.279334014803599 C 81.35016535464149 11.279334014803599 81.35016553368006 11.279334014803599 81.35016553368006 11.279334014803599 L 81.35016535464149 11.279334014803599 L 81.35016535464149 11.279334014803599 ZM 80.53807540721809 2.25 C 80.32557005300448 2.25 80.13376594388073 2.280338063237631 79.99796859057763 2.317373030601139 L 78.8321180343628 10.098160711168036 C 79.44883679772116 10.520569989179059 81.14367283174907 11.67797341616124 81.07608792019074 12.683307927520042 L 81.088725536664 15.75000086141948 L 81.94950215847096 15.73816856043225 L 81.9446749205576 3.119482909369111 C 81.68870956492255 2.427915471835376 81.05269384549493 2.25 80.53807540721809 2.25 Z"
     style="fill:#ffffff;stroke:none"
     id="path16" />
  <path
     d="M 85.28746778266355 2.9892379897054955 C 85.56508588386656 2.9892379897054955 85.90494119359275 3.095985977015074 86.00403188031943 3.340333519869274 L 85.96755026522499 11.279334014803599 L 85.96755026522499 11.279334014803599 C 85.82673947389614 10.960512872387417 85.40844110048154 10.367342335933275 84.16599627760753 9.632436990092634 L 85.10925708741684 3.06154244747758 C 85.15350861835446 3.0145252182361735 85.1523484484235 2.9892379897054955 85.28746778266355 2.9892379897054955 ZM 85.96755026522499 11.279334014803599 L 85.96755026522499 11.279334014803599 C 85.96755026522499 11.279334014803599 85.96755044426355 11.279334014803599 85.96755044426355 11.279334014803599 L 85.96755026522499 11.279334014803599 L 85.96755026522499 11.279334014803599 ZM 85.15546031780158 2.25 C 84.94295496358798 2.25 84.75115085446423 2.280338063237631 84.61535350116112 2.317373030601139 L 83.44950294494629 10.098160711168036 C 84.06622170830465 10.520569989179059 85.76105774233257 11.67797341616124 85.69347283077424 12.683307927520042 L 85.7061104472475 15.75000086141948 L 86.56688706905446 15.73816856043225 L 86.5620598311411 3.119482909369111 C 86.30609447550604 2.427915471835376 85.67007875607842 2.25 85.15546031780158 2.25 Z"
     style="fill:#ffffff;stroke:none"
     id="path18" />
  <path
     d="M 89.37576307477097 2.25 C 88.67839267161504 2.25 88.06688785552979 2.7629982188611715 88.06688785552979 3.42148077115561 L 88.06688785552979 15.749999288300122 L 88.91887387091569 15.749999288300122 L 88.91887387091569 3.42148077115561 C 88.91887387091569 3.098508113273651 89.20276718817277 2.994011903683932 89.38114650289018 2.994011903683932 C 89.56831766065541 2.994011903683932 89.85652661202445 3.1252137636833535 89.85652661202445 3.5209571603146776 L 89.85652661202445 11.62395272807413 L 90.70851262741034 11.62395272807413 L 90.70851262741034 3.5209571603146776 C 90.70851262741034 2.861641676122041 90.05556190637311 2.25 89.37576307477097 2.25 Z"
     style="fill:#ffffff;stroke:none"
     id="path20" />
  <path
     d="M 40.9532527923584 0.375 C 31.328252851963043 0.375 31.328252851963043 17.625 40.9532527923584 17.625 "
     style="fill:none;stroke:#ffffff;stroke-width:1"
     id="path22" />
  <path
     d="M 40.9532527923584 0.375 L 90.7085132598877 0.375 "
     style="fill:none;stroke:#ffffff;stroke-width:1"
     id="path24" />
  <path
     d="M 40.9532527923584 17.625 L 90.7085132598877 17.625 "
     style="fill:none;stroke:#ffffff;stroke-width:1"
     id="path26" />
  <path
     d="M 98.3960132598877 0.375 L 98.3960132598877 17.625 "
     style="fill:none;stroke:#ffffff;stroke-width:1"
     id="path28" />
  <path
     d="M 90.7085132598877 0.375 C 100.33351516723633 0.375 100.33351516723633 17.625 90.7085132598877 17.625 "
     style="fill:none;stroke:#ffffff;stroke-width:1"
     id="path30" />
</svg>
