<?xml version="1.0" encoding="UTF-8" standalone="no"?>
<svg
   width="129.7642364501953"
   height="18.0"
   version="1.1"
   id="svg34"
   sodipodi:docname="qemausiharnedjheritef.svg"
   inkscape:version="1.1.1 (3bf5ae0d25, 2021-09-20)"
   xmlns:inkscape="http://www.inkscape.org/namespaces/inkscape"
   xmlns:sodipodi="http://sodipodi.sourceforge.net/DTD/sodipodi-0.dtd"
   xmlns="http://www.w3.org/2000/svg"
   xmlns:svg="http://www.w3.org/2000/svg">
  <defs
     id="defs38" />
  <sodipodi:namedview
     id="namedview36"
     pagecolor="#ffffff"
     bordercolor="#666666"
     borderopacity="1.0"
     inkscape:pageshadow="2"
     inkscape:pageopacity="0.0"
     inkscape:pagecheckerboard="0"
     showgrid="false"
     inkscape:zoom="10.59614"
     inkscape:cx="64.882118"
     inkscape:cy="9.0127161"
     inkscape:window-width="1920"
     inkscape:window-height="1001"
     inkscape:window-x="-9"
     inkscape:window-y="-9"
     inkscape:window-maximized="1"
     inkscape:current-layer="svg34" />
  <path
     d="M 9.619241759901131 8.704017150225534 C 9.956114020057063 8.704017150225534 10.371109904274771 8.76399089929749 10.864229412554256 8.883939352346172 C 11.905261819800385 9.137163864337834 12.8056128816014 9.495897714329981 13.565284507766846 9.960140902322616 C 14.32495613393229 10.42438504522002 15.176070395910864 11.008207138114807 16.1186263387978 11.711606226102205 C 15.211383729261659 12.170969850713034 14.168207560803758 12.400651185566062 12.989095923614554 12.400651185566062 C 12.723796640788658 12.400651185566062 12.45161535927535 12.38902331016484 12.172553033979401 12.365768514267165 C 10.653210736553286 12.239155780818948 9.3484030744964 11.792497164191472 8.258132912523058 11.025791709479964 C 7.167863705454489 10.259086254768457 6.897054622097669 9.78780828332499 7.445706139904986 9.61195779514956 C 7.994358612617073 9.436108261878905 8.441018184149321 9.207503104703234 8.78568342214457 8.92614327852732 C 8.967086681565636 8.778059511294387 9.244939142516232 8.704017150225534 9.619241759901131 8.704017150225534 ZM 16.87829701005847 11.880422885731571 L 17.743478929129175 12.070340076094354 C 17.743478929129175 12.295428318996994 17.539492171864723 12.478311680813713 17.131522476954906 12.618992071354056 C 16.899402315315747 12.634818663035082 16.657389340244983 12.642731958875595 16.405485461552153 12.642731958875595 C 15.985642480714866 12.642731958875595 15.538322115080815 12.620750051038186 15.063526274459544 12.576788145172907 C 15.977946903162229 12.464244023721587 16.582870481695206 12.232122907177656 16.87829701005847 11.880422885731571 ZM 18.207723072026578 12.196952809542571 L 18.73527358164809 12.302462147543055 C 18.791544210016596 12.471278807172421 18.594593191107748 12.640094511897015 18.144416705302472 12.808910216621609 L 17.532460253128203 12.76670629044046 C 17.968567172031815 12.569755271531616 18.193655414934454 12.379837126264063 18.207723072026578 12.196952809542571 ZM 19.009598624373172 12.407972440448313 L 19.36833342927009 12.49238029281061 C 19.283925576907794 12.731536192805375 19.030702019820904 12.851114142802757 18.608660848199875 12.851114142802757 C 18.847816748194642 12.696366095170289 18.98146331018892 12.548652830988656 19.009598624373172 12.407972440448313 ZM 19.600455500718795 12.618992071354056 C 19.938086910167982 12.71746853571325 20.163175153070622 12.87925041189178 20.27571831961717 13.10433865479442 L 19.326128548184172 12.893318068983906 C 19.509013819810434 12.808910216621609 19.600455500718795 12.71746853571325 19.600455500718795 12.618992071354056 ZM 17.405847519679988 13.864010280959864 C 18.46094662911347 13.99062205950331 19.255788352914 14.28604954277135 19.790372691081576 14.750293685668755 L 17.173725448231284 14.138336278589716 C 17.20186267222508 13.983587276052475 17.279236696041313 13.892145595144116 17.405847519679988 13.864010280959864 ZM 5.187792747046841 0.40093762696942586 C 5.848988863757863 0.40093762696942586 6.3484031042903535 0.5838216154424017 6.686035468644312 0.9495895923883535 C 7.0236668780935005 1.3153575693343054 7.129177170998758 2.198124417859453 7.0025653924553115 3.5978901976453446 C 6.875952659007095 4.997655977431236 6.8337487328259465 5.947245271411848 6.875953136459481 6.446659034491953 C 6.918156585188243 6.946073275024443 7.048285755457107 7.315357867835686 7.266340169813683 7.554513290378066 C 7.4843936292654885 7.793669667825216 7.748168406623859 8.029308176094565 8.05766402443641 8.261430247543267 C 8.367160119701346 8.49355231899197 8.212412072068878 8.70105503562468 7.5934203589913905 8.883939352346172 C 6.974429123366289 9.06682271416289 6.629762930466267 9.33763179751971 6.559423212648482 9.69636660241663 C 6.48908301737831 10.055099497504006 6.577008261466024 10.385698033311902 6.823197990006852 10.688160300030777 C 7.069388196000066 10.99062256674965 7.656726725715499 11.398594171469009 8.585214534057924 11.912075114188854 C 9.513701864947961 12.42555701181347 10.333162943564483 12.752637678443564 11.043595860097945 12.893318068983906 C 11.754030686440949 13.033998459524248 13.931053141209826 13.10433865479442 17.57466322440458 13.10433865479442 C 18.700104438917776 13.315358285700162 19.445707453086325 13.596718111876076 19.811474176719763 13.94841813332216 L 17.405847519679988 13.399766138062459 C 17.18076118658689 13.47010633333263 17.00490974350669 13.60375194042214 16.87829701005847 13.800703914235756 C 16.87829701005847 14.166472547678739 16.083455286257944 14.37749217858448 14.493772793561655 14.433763761857755 C 14.254616893566888 14.433763761857755 14.092834062483586 14.103166180954629 14.008427165026061 13.441970064243609 L 13.755202653034399 13.652989695149351 C 13.881814431577844 14.187574033316928 13.91698452921293 14.658852004760394 13.860712945939655 15.066823609479753 C 13.663760972126038 14.588511809490223 13.319094779226017 14.271981885679224 12.826715322144361 14.117233838046756 C 12.038906471985122 13.976553447506413 11.335507383997724 13.846424754689936 10.71651519346785 13.726846804692553 C 10.097523002937978 13.607269809599941 9.471497938766813 13.350529338240019 8.838438091144814 12.956624435708015 C 8.275718438792987 12.520516561899633 7.371849507814169 12.049238590456165 6.126831775660745 11.542790521377611 C 4.881814043507322 11.03634340720383 4.259305416156803 10.283705609584448 4.259305416156803 9.284877128519467 C 4.259305416156803 8.286049602359258 4.593420388785345 7.459554695196674 5.261649856590044 6.805393361936487 C 5.929879801847128 6.151231551223914 6.2639942970232845 5.366941047694864 6.2639942970232845 4.452521373896952 C 6.2639942970232845 4.002345365544058 6.207722713750011 3.5767882345547704 6.095179069751077 3.175850219655281 C 5.993352799453844 2.8130966980279646 5.689997219321334 2.6317199372143065 5.185112329353548 2.6317199372143065 C 5.131966626849421 2.6317199372143065 5.076588356989783 2.6337295343056977 5.0189770423222475 2.6377489672146734 L 3.2464102329044677 2.869871038663376 C 3.3026820549039346 2.6869874381204633 3.387089668540039 2.5181714946696765 3.4996335512651657 2.363423447037208 C 3.6403134643531225 1.9273154538657298 3.795061511985591 1.6740914193264531 3.9638776941625706 1.6037515821455712 C 3.9884963327999836 1.6899181303705768 4.083125485835245 1.733001523846176 4.247764437089777 1.733001523846176 C 4.271284696513898 1.733001523846176 4.296233016023633 1.732122295277918 4.32261082797614 1.7303637187783059 C 4.603971609056825 1.7162955842337946 4.765753485235356 1.5756155517827413 4.8079574114165045 1.308323860151339 C 4.7798216197798675 1.0410321685199366 4.6180397436013365 0.9003521360688832 4.32261082797614 0.8862840612059201 C 4.069387270889249 0.9003521360688832 3.9287073578012923 1.0410321685199366 3.9005710887122693 1.308323860151339 C 3.6754838007144013 1.5193437297832741 3.4996337899913588 1.765533697050295 3.373021295269335 2.046893523226209 C 3.3320964640294637 2.0673559388461444 3.2921017100369276 2.0775870272930157 3.2530370332917253 2.0775870272930157 C 3.1846734908983327 2.0775870272930157 3.119158190711805 2.046253737029377 3.0564913714583355 1.9835869177759076 C 3.225307553635315 1.6459552696005268 3.471497998354722 1.2977725205167625 3.7950622281641695 0.9390390286139039 C 4.118625980521232 0.5803047608509185 4.582869168513866 0.40093762696942586 5.187792747046841 0.40093762696942586 ZM 9.977946007845366 14.159437764227905 L 10.653208826743741 14.328253468952498 L 9.89353815548307 15.425557459471902 L 9.977946007845366 14.159437764227905 ZM 11.286269629270512 14.391559835676606 C 11.84898928162234 14.391559835676606 12.32378416733884 14.451348333222912 12.71065428642001 14.570927238125066 C 13.09752440550118 14.690504233217677 13.336679350591174 15.144197633295988 13.428121986404305 15.932005528550455 C 13.517959427296729 16.705992132143816 13.400721948894024 17.092986388845265 13.07640859629142 17.092986388845265 C 13.070618053757709 17.092986388845265 13.064760667889999 17.092862251224986 13.058837393593063 17.09261588579397 L 11.03304511727885 17.09261588579397 C 10.988356528882543 17.089306185856326 10.942987093384234 17.087650380982737 10.896935855879153 17.087650380982737 C 10.551564943257846 17.087650380982737 10.167861288398607 17.180747866764687 9.745823936396663 17.366940928519046 C 9.858368057847983 16.382182014355735 10.3718499554726 15.390387361836815 11.286269629270512 14.391559835676606 ZM 5.187792747046841 0.0 C 4.231169147067781 0.0 3.443361967991892 0.5345838607151904 2.8243702549144043 1.6037515821455712 C 2.613350385282469 1.9554513648654634 1.9873244855696295 2.3071511475853557 0.946292317049693 2.6588511690314407 C 0.22882448278191372 2.869871038663376 -0.08067132899566878 3.165298999383801 0.017804894772284054 3.545135051192716 L 0.03890708726380924 3.798358369553414 C 1.3753664816751086 3.6717465910099687 2.493771957832701 3.5099647148314377 3.3941234970861016 3.3130129797440135 L 5.040079482865207 3.0175852577497815 C 5.048381902400062 3.0173546482474904 5.056615568791377 3.017239343496345 5.064780004586766 3.017239343496345 C 5.5546451974053515 3.017239343496345 5.796118651280282 3.432360558965298 5.789199888759171 4.2626027511770115 C 5.782166060213108 5.106682229704753 5.4269491244939925 5.862836941597166 4.723549559054208 6.5310668868542505 C 4.020149993614424 7.199296832111335 3.661415904896083 8.166471652361876 3.6473477703515713 9.432591347605873 C 3.6473477703515713 10.459556097759878 4.136210551886389 11.19460836910933 5.11393659240841 11.637750071463774 C 6.09166167802566 12.08089177381822 7.037734535185626 12.555685704629948 7.952154686435924 13.062133773708501 C 8.866573405329065 13.568581842787054 9.387089131499744 13.962486745319058 9.513701864947961 14.243845616590201 C 9.44336166967779 15.735053554736838 9.26047830786107 16.698711938166735 8.96504986968826 17.134818857070343 C 8.472670412606604 17.134818857070343 7.614522322081965 17.064478661800173 6.390606553019116 16.92379827125983 C 6.01077121738878 16.980070809437876 5.75051335430344 17.10316567370829 5.609832486310712 17.293084773880615 C 5.469153528127526 17.48300387405294 5.497289319764163 17.69050468087611 5.69424129357778 17.91559292377875 C 5.7882960713930505 17.77973671214347 5.878469161312617 17.711806696516287 5.9647610407888685 17.711806696516287 C 5.99463093949035 17.711806696516287 6.024035799568166 17.719946304787623 6.052975621022314 17.73622552133029 C 6.165519265021248 17.799531888054396 6.446879091197162 17.831185071416453 6.897054144645284 17.831185071416453 L 8.96504986968826 17.831185071416453 C 9.066651737364214 17.811645809984256 9.162826881224358 17.801877134172933 9.253573391459145 17.801877134172933 C 9.489516991802953 17.801877134172933 9.68877028611562 17.867918348162302 9.851334229301921 18.000000776141047 C 10.048286203115538 17.98593311904892 10.21710095293536 17.929660580870873 10.357781343475702 17.831185071416453 C 10.978782653644581 17.849272877596132 11.498366392758383 17.8583158257812 11.916529696102794 17.8583158257812 C 12.474082358736627 17.8583158257812 12.85133372205558 17.842239049050068 13.048285695869197 17.810083585778262 C 13.39295188876922 17.753811047600216 13.705964898307187 17.704574247777778 13.987324724483102 17.662369366691856 L 14.704792424467398 17.89449143814056 C 14.713104870502352 17.89513122433739 14.721098378343662 17.895450162531034 14.728771038181785 17.895450162531034 C 14.889915037973028 17.895450162531034 14.91005779922074 17.754450833797048 14.789201231734465 17.47245026651953 C 14.170209041204592 17.134818857070343 14.02952865066425 16.28370459509177 14.367161015018208 14.919109390393348 L 14.367161015018208 14.919109390393348 C 14.486100133723532 14.921667580275903 14.601202445057407 14.922946197764796 14.712467949019834 14.922946197764796 C 15.825117259215483 14.922946197764796 16.55409538131412 14.795054846827687 16.899400405506203 14.539274054763013 C 18.306200491290543 14.792496656945131 19.452741281632388 15.03868734039073 20.33902468634128 15.277843240385495 L 20.486738905427682 15.024620638203377 C 20.1209702719847 14.616648078579246 19.84664522925962 14.356389738041521 19.6637618674429 14.243845616590201 L 19.6637618674429 14.243845616590201 L 20.59224824342817 14.433763761857755 C 20.74230770863311 14.490035345131028 20.8462548224276 14.518171614220051 20.90408958481164 14.518171614220051 C 21.01975910957972 14.518171614220051 20.95098304832509 14.405627492768732 20.697759491238198 14.180540204770864 C 20.641486953060152 14.025792157138396 20.23351534834079 13.723330845324293 19.473842767270575 13.273154359519014 L 19.473842767270575 13.273154359519014 L 20.761063948152763 13.526377916605906 C 20.901744338693106 12.62602685480489 19.924019253075855 11.985932223732057 17.827886781491472 11.606096888101721 C 16.73058279097207 11.352873331014829 15.738790048262691 10.86049196412363 14.852506643553802 10.12895660704721 C 13.684862457764227 9.101993766702748 11.91932947689251 8.349355969083367 9.55590579112911 7.871043214189065 C 8.303853752977238 7.786635839279153 7.607488493535902 7.4032831119233995 7.466808580447945 6.72098550957419 C 7.326128667359988 6.038687429772594 7.32964558163302 4.95193465952467 7.477359800719425 3.4607274375566117 C 7.625073542353445 1.969519857499264 7.417570825720734 0.9988280632941434 6.854850695916521 0.5486519952597018 C 6.43281095665265 0.1828839884729759 5.877125132846886 0.0 5.187792747046841 0.0 Z"
     style="fill:#ffffff;stroke:none"
     id="path2" />
  <path
     d="M 27.177865186478382 7.937876256002994 C 26.496671245133623 7.991654064440127 26.120222241250442 8.332250793733436 26.04851793344977 8.959665719745715 C 26.138148499234912 9.640860143848613 26.514597503118093 9.999383372505463 27.177865186478382 10.035235888474404 C 27.84113286983867 9.999383372505463 28.190692728124215 9.640860143848613 28.226544278576878 8.959665719745715 C 28.172766470139745 8.332250793733436 27.8232066118542 7.991654064440127 27.177865186478382 7.937876256002994 ZM 27.25853214051315 5.679180301671352 C 27.742538692303153 5.679180301671352 28.190693210882355 5.768811229525099 28.602994730734476 5.948073085232593 C 29.01529576782846 6.127334940940088 29.378299957533752 6.373819539952137 29.692007299850356 6.687527123647811 C 30.0057151249251 7.001234707343485 30.252199844626684 7.3597576946212655 30.43146145895511 7.763095602723013 C 30.610722590525395 8.16643375220383 30.700352914931468 8.592179844854769 30.700352914931468 9.040334122054901 C 30.700352914931468 9.506413933102294 30.610722590525395 9.941123154745469 30.43146145895511 10.344461786984425 C 30.252199844626684 10.747799936465242 30.0057151249251 11.101841721315509 29.692007299850356 11.406586176018948 C 29.378299957533752 11.711330630722387 29.01529576782846 11.948851980052666 28.602994730734476 12.119151189526065 C 28.190693210882355 12.289449433483185 27.742538692303153 12.374598314082675 27.25853214051315 12.374598314082675 C 26.774526312860356 12.374598314082675 26.32189131599085 12.289449433483185 25.900626908525563 12.119151189526065 C 25.479361776923067 11.948851980052666 25.116357104459635 11.711330630722387 24.8116130118248 11.406586176018948 C 24.506868074363222 11.101841721315509 24.264865160536825 10.747799936465242 24.085604149656074 10.344461786984425 C 23.906342354293347 9.941123154745469 23.8167114264396 9.506413933102294 23.8167114264396 9.040334122054901 C 23.8167114264396 8.592179844854769 23.906342354293347 8.16643375220383 24.085604149656074 7.763095602723013 C 24.264865160536825 7.3597576946212655 24.506868074363222 7.001234707343485 24.8116130118248 6.687527123647811 C 25.116357104459635 6.373819539952137 25.479361776923067 6.127334940940088 25.900626908525563 5.948073085232593 C 26.32189131599085 5.768811229525099 26.774526312860356 5.679180301671352 27.25853214051315 5.679180301671352 ZM 27.204754814834157 4.764946937561035 C 26.61319119789547 4.764946937561035 26.057480338304796 4.876985476688684 25.53762175330399 5.101062554943983 C 25.017763409682257 5.325139663371665 24.569609615240264 5.629884118075104 24.193160490667548 6.015295949226683 C 23.8167114264396 6.400708564860238 23.516448355197976 6.848862238612696 23.292371276942678 7.359757211863126 C 23.068294998255546 7.870652909250765 22.956256866455078 8.421882083655788 22.956256866455078 9.013444493699126 C 22.956256866455078 9.605007145121533 23.068294998255546 10.156236319526556 23.292371276942678 10.667132016914195 C 23.516448355197976 11.178027714301834 23.8167114264396 11.621700306316313 24.193160490667548 11.998149310199494 C 24.569609615240264 12.374598314082675 25.017763409682257 12.67486180773767 25.53762175330399 12.898938825648202 C 26.057480338304796 13.123014878042454 26.61319119789547 13.23505338699772 27.204754814834157 13.23505338699772 C 27.796317466256564 13.23505338699772 28.347546157903448 13.123014878042454 28.85844088977481 12.898938825648202 C 29.369336587162447 12.67486180773767 29.81749062298351 12.374598314082675 30.202903479996134 11.998149310199494 C 30.58831537149248 11.621700306316313 30.89305982619592 11.178027714301834 31.11713636134831 10.667132016914195 C 31.34121434477512 10.156236319526556 31.453252853730387 9.605007145121533 31.453252853730387 9.013444493699126 C 31.453252853730387 8.421882083655788 31.34121434477512 7.870652909250765 31.11713636134831 7.359757211863126 C 30.89305982619592 6.848862238612696 30.58831537149248 6.400708564860238 30.202903479996134 6.015295949226683 C 29.81749062298351 5.629884118075104 29.369336587162447 5.325139663371665 28.85844088977481 5.101062554943983 C 28.347546157903448 4.876985476688684 27.796317466256564 4.764946937561035 27.204754814834157 4.764946937561035 Z"
     style="fill:#ffffff;stroke:none"
     id="path4" />
  <path
     d="M 41.711595420271465 2.25 L 40.9532527923584 2.723025600475542 L 43.20575566881458 5.951612931420417 L 43.20575566881458 15.75000022918941 L 44.04668999009873 15.75000022918941 L 44.04668999009873 5.681312844024172 L 41.711595420271465 2.25 Z"
     style="fill:#ffffff;stroke:none"
     id="path6" />
  <path
     d="M 47.51391166961442 2.7257847122740886 Q 47.23522171599217 2.7257847122740886 47.23522171599217 3.053654893215412 Q 47.23522171599217 3.3323442203436606 47.51391166961442 3.3323442203436606 Q 47.808994823511696 3.315951020068642 47.808994823511696 3.0208678661713657 Q 47.808994823511696 2.7257847122740886 47.51391166961442 2.7257847122740886 ZM 46.431939329665155 2.9388999853142432 L 46.431939329665155 3.23398313921152 L 45.792592884050684 3.348738047112689 Q 46.08767603794796 3.0372610664463835 46.431939329665155 2.9388999853142432 ZM 46.46472635670921 3.3323442203436606 Q 46.84177748096275 3.627428090234092 46.59587446488539 3.7749693986852972 Q 46.21882410137457 3.6438212010099655 46.03849513938531 3.4307052119766563 L 46.46472635670921 3.3323442203436606 ZM 47.61227284024571 2.5782427773288727 Q 48.382768110029524 2.5782427773288727 48.84178630964789 3.168409085123426 Q 49.30080450926626 3.758576198410279 49.33359162580945 4.988089667812462 Q 50.530317978668435 5.233991967896662 50.923762303197 6.070061470766861 Q 50.98746314019373 6.611515900264761 50.67988071479406 6.611515900264761 Q 50.67083378328603 6.611515900264761 50.66146608684463 6.611047640741494 Q 50.33359599540245 6.5946535454750315 50.14507070177311 6.430718678752231 Q 50.07651614717969 6.371105804673079 50.041561003363626 6.371105804673079 Q 49.980390128179536 6.371105804673079 50.022118925236995 6.5536704552883425 Q 50.087693158323376 6.840556740550677 50.74343334120774 7.250394802349122 Q 51.39917459808183 7.660232148154413 50.84999209646712 7.930725054143441 Q 50.71372857519615 7.997840104499048 50.55980293478149 7.997840104499048 Q 50.09336310811659 7.997840104499048 49.46473973398564 7.38154291052531 Q 48.628670231115436 6.5618664289318405 48.57949009329552 6.135635345856666 Q 48.53030923948244 5.70940426278149 48.923754280004154 5.34874705479612 Q 49.15769430345209 5.1343019139699875 49.08445607963626 5.1343019139699875 Q 49.034520927034556 5.1343019139699875 48.84178630964789 5.233991967896662 Q 48.36637419376135 5.479895162972307 48.341784124851394 5.955306383867403 Q 48.31719405594143 6.430718678752231 48.718835249104934 6.996294917636824 Q 49.120475547276996 7.561871156521417 50.30080887885926 8.430727417938229 Q 50.421465181340935 8.493678252105262 50.57401683089145 8.493678252105262 Q 50.89818881768886 8.493678252105262 51.36638748153864 8.209415365762277 Q 52.05491513896276 7.7913802563306005 50.67786018211109 6.922523636917211 Q 51.18605923554253 6.791375886737601 51.20245225681926 6.479899532565306 Q 51.84179906043031 6.693014537108028 54.79263167339281 10.447129536397535 Q 55.57952032244993 10.971721969102283 55.59591370172324 11.21762480618135 Q 55.57952032244993 11.447134263987111 55.35001158063733 11.496314401807032 Q 55.30083072682425 11.50685310505318 55.25014413940654 11.50685310505318 Q 55.064295228190005 11.50685310505318 54.85820590647919 11.36516665162742 Q 53.940168791249306 11.80779147197248 53.0795099354623 11.824184851245787 Q 53.0342126285211 11.825047622997374 52.98975518155053 11.825047622997374 Q 52.18951469214188 11.825047622997374 51.66147045643763 11.545495255620107 L 51.66147045643763 11.545495255620107 Q 52.20245626841568 12.02090683451178 52.03852175968946 12.54549926721653 Q 51.95903792758392 12.79984724355698 51.91809171104471 12.79984724355698 Q 51.87458653497008 12.79984724355698 51.87458653497008 12.512712508669916 Q 51.87458653497008 11.955332601425397 50.448351082301905 11.447134263987111 L 50.448351082301905 12.070087688324856 Q 50.36438441705389 12.422747968763774 50.31482301287902 12.422747968763774 Q 50.26762223813566 12.422747968763774 50.25162802504618 12.10287444687147 Q 50.15326703341319 11.397953410174035 49.784412777794586 10.586474692206952 Q 49.415559596165714 9.774995258246715 48.61227720983871 8.340563115941887 Q 47.808994823511696 6.906130615640482 47.58768277133575 6.274980501666084 Q 47.36636982416835 5.643830029695108 47.38276356143824 5.102843859720475 Q 47.39915676171326 4.5618576897458425 47.16145061427084 4.307758521026699 Q 46.92374536181987 4.053659352307555 47.02210644295201 3.758576198410279 Q 47.12046752408415 3.4634922390207032 46.727022483562436 3.201196112167473 L 46.727022483562436 2.922506829788797 Q 47.153254461629054 2.5782427773288727 47.61227284024571 2.5782427773288727 ZM 50.72704031993101 12.02090683451178 Q 51.53032270625802 12.25041629231754 51.53032270625802 12.561892646489836 L 50.98933653628338 14.578295480942295 Q 50.923762303197 14.938952688927666 50.5467120739349 14.938952688927666 L 49.89097081706081 14.938952688927666 L 49.89097081706081 14.906165930381052 L 50.72704031993101 12.348777283950536 L 50.72704031993101 12.02090683451178 ZM 47.671433922644155 2.25 Q 47.64207981428015 2.25 47.61227284024571 2.2503725963875496 Q 46.97292549963979 2.2503725963875496 46.31718513775714 2.7749648948435817 Q 45.94013410300275 2.9061129582701963 45.54668986797333 3.3815250741567358 Q 46.08767603794796 3.8733303903182934 46.530300410797295 3.9880852982194623 Q 46.57948135410952 4.217594398028645 46.84177748096275 4.627431743833936 Q 46.85817059173862 5.70940426278149 47.13686054536088 6.422522347112155 Q 47.41555067798143 7.135639715449665 49.00572153436727 10.250407553131542 Q 49.79260982542782 11.88975908433217 49.79260982542782 12.266809671590847 Q 49.79260982542782 12.840582958108671 49.07129540945707 14.840590981301515 Q 49.07129540945707 14.955346068200972 48.08768495613225 15.0209195852942 Q 46.61226829165442 15.07010115510043 46.61226829165442 15.4307583630858 Q 46.61226829165442 15.643873725625099 46.8089904539187 15.643873725625099 L 51.16966549827264 15.643873725625099 Q 51.579502844077936 15.316003276186343 51.62868369789101 15.086494534373736 Q 52.022127664422996 15.250429759093116 52.05491513896276 15.529118638725642 Q 52.110134679043796 15.749999663022377 52.21185582655247 15.749999663022377 Q 52.23092916820436 15.749999663022377 52.25163712222876 15.74223400126494 Q 52.38278558840152 15.69305386344502 52.38278558840152 15.529118638725642 Q 52.26803050150206 15.086494534373736 51.8090123018837 14.676655756582136 L 52.33360473458845 12.463531654856839 Q 53.923775411975996 12.414351517036918 55.10410874355826 11.955332601425397 Q 55.32268928184848 12.004513455238474 55.50483937242709 12.004513455238474 Q 55.869139553584304 12.004513455238474 56.08771937588138 11.80779147197248 Q 56.41558982532013 11.512707781080339 55.95657162570176 10.889754356742595 Q 54.956566898112186 9.889750345146172 54.05492387814876 8.693023634290604 Q 52.20245626841568 6.414325299478924 51.513928610991556 6.0536673755004 Q 51.28441951118237 5.578256154605303 50.96474646737342 5.299566200983045 Q 50.6450730655679 5.020876784355652 49.8090035626977 4.611038722557207 Q 49.79260982542782 3.6438212010099655 49.358182410712566 2.9388999853142432 Q 48.933627825609456 2.25 47.671433922644155 2.25 Z"
     style="fill:#ffffff;stroke:none"
     id="path8" />
  <path
     d="M 64.9373973948694 8.77801286266915 C 65.19005158998634 8.77801286266915 65.50129850314963 8.822993174473117 65.87113813435923 8.912954514259628 C 66.65191243979383 9.102872898253375 67.3271757361446 9.371923285747485 67.89692945576867 9.720105676741962 C 68.46668317539276 10.068288783915015 69.1050188718767 10.506155353586106 69.81193582904189 11.033704669576654 C 69.13150387188979 11.378227388034775 68.34912174554636 11.550488389174546 67.46478801765446 11.550488389174546 C 67.26581355553503 11.550488389174546 67.06167759440005 11.541767482623628 66.85238085042809 11.524326385700373 C 65.7128741273585 11.42936683561421 64.73426838081585 11.094372873143604 63.91656575933584 10.519343782109972 C 63.098863854034406 9.944314691076343 62.895757041516795 9.590856212493742 63.30724567987228 9.458968346362171 C 63.71873503440635 9.327081196409178 64.05372971305553 9.155627328527425 64.31222864155197 8.94460745889549 C 64.44828108611777 8.83354463347079 64.65667043183072 8.77801286266915 64.9373973948694 8.77801286266915 ZM 70.3816888324874 11.160317164298679 L 71.03057527179043 11.302755057070765 C 71.03057527179043 11.471571239247744 70.87758520384209 11.608733760610285 70.57160793265972 11.714244053515541 C 70.39751781143035 11.726113997276311 70.21600808012728 11.732048969156697 70.02708017110766 11.732048969156697 C 69.7121979354797 11.732048969156697 69.37670766125416 11.71556253827864 69.0206107807882 11.68259110887968 C 69.70642625231521 11.598183017791191 70.16011893621494 11.424092180383242 70.3816888324874 11.160317164298679 ZM 71.37875837896348 11.397714607156928 L 71.77442126117961 11.476846610657292 C 71.816624232456 11.603459105379317 71.66891096827436 11.730070883922762 71.3312786039204 11.856682662466207 L 70.87231126478969 11.825029717830345 C 71.19939145396741 11.67731645364871 71.36820763614438 11.534877844698046 71.37875837896348 11.397714607156928 ZM 71.98016504322342 11.555979330336235 L 72.24921614689612 11.619285219607958 C 72.18591025762439 11.79865214460403 71.99599258980922 11.888335607102068 71.67946171109345 11.888335607102068 C 71.85882863608953 11.772274571377718 71.95906355758524 11.661489623241492 71.98016504322342 11.555979330336235 ZM 72.42330770048264 11.714244053515541 C 72.67653125756954 11.788101401784937 72.8453474397465 11.909437808918836 72.92975481465642 12.078253991095815 L 72.21756248608168 11.91998855173793 C 72.35472643980137 11.856682662466207 72.42330770048264 11.788101401784937 72.42330770048264 11.714244053515541 ZM 70.77735171470353 12.648007710719899 C 71.56867604677865 12.742966544627482 72.16480733962905 12.964537157078512 72.56574559325472 13.312720264251565 L 70.603260161117 12.853752208942286 C 70.62436307911236 12.737690457039356 70.68239359697452 12.669109196358088 70.77735171470353 12.648007710719899 ZM 61.613810635228674 2.5507032202270694 C 62.10970772276194 2.5507032202270694 62.48426840316131 2.6878662115818015 62.737492676426776 2.9621921942912652 C 62.990716233513666 3.236518177000729 63.06984895319261 3.8985933133945894 62.97489011928503 4.948417648234008 C 62.87993056919886 5.998241983073427 62.848277624563 6.710433953558886 62.87993092728815 7.084994275868965 C 62.91158351383473 7.459554956268333 63.009180391536376 7.736518400876764 63.172721202303805 7.915884967783549 C 63.33626129689266 8.095252250868914 63.534092379911435 8.271981132070923 63.76621409327085 8.44607268565745 C 63.998336164719554 8.620164239243977 63.882275128995204 8.775791276718511 63.418031344187085 8.912954514259628 C 62.95378791746826 9.050117035622169 62.69528827279324 9.253223848139783 62.642533484429904 9.522274951812474 C 62.58977833797728 9.791324623128006 62.65572227104306 10.039273524983926 62.84036456744868 10.266120225023082 C 63.02500722194359 10.492966925062237 63.465511119230165 10.798945628601757 64.16187697548699 11.18405633564164 C 64.85824247365451 11.569167758860102 65.4728382826169 11.814478258832674 66.005662970017 11.91998855173793 C 66.53848908977426 12.025498844643186 68.17125593085092 12.078253991095815 70.90396349324698 12.078253991095815 C 71.74804440413187 12.236518714275123 72.30724666475828 12.447538583907058 72.58157170748336 12.711313599991621 L 70.77735171470353 12.299824603546845 C 70.60853696488371 12.352579749999473 70.47664838257356 12.452813955316605 70.3816888324874 12.600527935676817 C 70.3816888324874 12.874854410759054 69.785557539637 13.03311913393836 68.59329567011478 13.075322821393316 C 68.41392874511871 13.075322821393316 68.29259162180624 12.827374635715973 68.22928644871308 12.331477548182706 L 68.03936806471934 12.489742271362013 C 68.13432689862692 12.890680524987696 68.16070447185324 13.244139003570297 68.11850078439828 13.550117707109814 C 67.97078680403807 13.191383857117668 67.71228715936306 12.953986414259418 67.34300256655182 12.837925378535067 C 66.75214592893238 12.73241508562981 66.22459661294184 12.634818566017453 65.76035247004444 12.545135103519415 C 65.29610832714702 12.455452357199956 64.82658952901865 12.262897003680015 64.35179464330216 11.967468326781011 C 63.92975490403828 11.640387421424725 63.25185320580417 11.286928942842124 62.3180899066891 10.907092891033209 C 61.38432660757403 10.527257555402873 60.917445137061144 9.962779207188337 60.917445137061144 9.213657846389602 C 60.917445137061144 8.464537201769444 61.16803136653255 7.844666021397505 61.669203467386076 7.354045021452365 C 62.17037592632889 6.863423663417936 62.42096179771101 6.275205785771148 62.42096179771101 5.589391030422714 C 62.42096179771101 5.251759024158043 62.37875811025605 4.932591175916078 62.29435037725685 4.631887664741461 C 62.217980674533926 4.3598225235209735 61.990463989434545 4.22378995291073 61.611800321958704 4.22378995291073 C 61.57194104508061 4.22378995291073 61.530407342685876 4.225297150729274 61.487198856685225 4.228311725411006 L 60.157773749621896 4.402403278997532 C 60.199977616121494 4.2652405785903476 60.26328332634857 4.138628621002257 60.347691238392414 4.022567585277907 C 60.453201173208384 3.6954865903992973 60.569262208932734 3.5055685644948396 60.69587434556547 3.4528136866091783 C 60.71433832454353 3.5174385977779323 60.78531018931998 3.549751142884632 60.908789402760874 3.549751142884632 C 60.92642959732896 3.549751142884632 60.945140836961265 3.5490917214584385 60.96492419592565 3.547772789083729 C 61.17594478173616 3.5372216881753458 61.29728118887006 3.431711663837056 61.32893413350592 3.231242895113504 C 61.307832289778446 3.0307741263899524 61.18649588264454 2.9252641020516625 60.96492419592565 2.91471304590444 C 60.77500652811048 2.9252641020516625 60.66949659329451 3.0307741263899524 60.648394391477744 3.231242895113504 C 60.479578925479345 3.3895077973374557 60.34769141743706 3.5741502727877217 60.25273204639554 3.7851701424196564 C 60.22203842296564 3.800516954134608 60.19204235747124 3.808190270469762 60.16274384991234 3.808190270469762 C 60.11147119311729 3.808190270469762 60.06233471797739 3.7846903027720327 60.0153346035373 3.7376901883319307 C 60.14194674017003 3.484466452200395 60.32658957370958 3.2233293903875717 60.56926274606667 2.954279271460428 C 60.81193556033447 2.6852285706381886 61.16011795132894 2.5507032202270694 61.613810635228674 2.5507032202270694 ZM 65.20642558082757 12.869578323170927 L 65.71287269500135 12.996190101714374 L 65.14311969155584 13.819168094603926 L 65.20642558082757 12.869578323170927 ZM 66.18766829689642 13.043669876757455 C 66.6097080361603 13.043669876757455 66.96580420044768 13.088511249917184 67.25595678975856 13.1781954285938 C 67.54610937906943 13.267878174913259 67.72547558788692 13.608148224971991 67.79405756474677 14.199004146412841 C 67.8614356454161 14.779494099107861 67.77350753661406 15.06973979163395 67.53027252216211 15.06973979163395 C 67.52592961526182 15.06973979163395 67.52153657586103 15.06964668841874 67.51709412013834 15.069461914345474 L 65.99774991290268 15.069461914345474 C 65.96423347160545 15.066979639392246 65.93020639498172 15.065737785737053 65.89566796685291 15.065737785737053 C 65.63663978238692 15.065737785737053 65.3488620412425 15.135560900073516 65.03233402724103 15.275205696389285 C 65.11674211832953 14.536636510766801 65.50185354154799 13.792790521377611 66.18766829689642 13.043669876757455 ZM 61.613810635228674 2.25 C 60.89634293524438 2.25 60.305487550937464 2.650937895536393 59.841243766129345 3.4528136866091783 C 59.6829788639054 3.716588523649097 59.21345943912076 3.980363360689017 58.43268531273081 4.244138376773581 C 57.89458443702998 4.402403278997532 57.66246257819679 4.62397424953785 57.73631974602276 4.908851288394537 L 57.7521463903914 5.098768777165061 C 58.75449093619987 5.003809943257476 59.593295043318065 4.8824735361235785 60.26855869775812 4.73475973480801 L 61.503025687092446 4.513188943312336 C 61.50925250174359 4.513015986185618 61.515427751537075 4.512929507622259 61.52155107838362 4.512929507622259 C 61.88894997299756 4.512929507622259 62.07005506340376 4.824270419223973 62.06486599151292 5.446952063382758 C 62.05959062010337 6.080011672278564 61.793177918314036 6.647127706197875 61.2656282442342 7.148300165140688 C 60.73807857015436 7.649472624083501 60.469028003615605 8.374853739271407 60.45847690270722 9.324443510704405 C 60.45847690270722 10.094667073319908 60.82512398885834 10.645956276831997 61.55841851924985 10.978312553597831 C 62.29171233346278 11.310668830363664 63.001266976332765 11.66676427847246 63.687082089770485 12.046600330281375 C 64.37289612894034 12.42643638209029 64.76328292356835 12.721865058989295 64.85824247365451 12.932884212442652 C 64.80548732720189 14.05129016605263 64.66832480583935 14.77403395362505 64.44675347720974 15.101114142802757 C 64.0774688843985 15.101114142802757 63.43385781650502 15.04835899635013 62.51592098970788 14.942848703444872 C 62.23104448798513 14.985053107078407 62.03585109067112 15.077374255281217 61.93034043967658 15.219813580410461 C 61.82483122103919 15.362252905539705 61.84593306476667 15.51787851065708 61.99364704512688 15.686694692834061 C 62.06418812848833 15.584802534107602 62.131817945928006 15.533855022387216 62.19653685553519 15.533855022387216 C 62.218939279561305 15.533855022387216 62.24099292461967 15.539959728590716 62.26269779071028 15.552169140997716 C 62.34710552370948 15.599648916040797 62.55812539334141 15.623388803562339 62.89575668342751 15.623388803562339 L 64.44675347720974 15.623388803562339 C 64.5229548779667 15.608734357488194 64.59508623586181 15.601407850629698 64.6631461185379 15.601407850629698 C 64.84010381879575 15.601407850629698 64.98954378953026 15.650938761121727 65.11146674691999 15.750000582105784 C 65.2591807272802 15.73944983928669 65.38579178964507 15.697245435653155 65.49130208255032 15.623388803562339 C 65.95705306517698 15.636954658197098 66.34674086951233 15.6437368693359 66.66036334702063 15.6437368693359 C 67.07852784399601 15.6437368693359 67.36146636648523 15.631679286787552 67.50918034684544 15.607562689333697 C 67.76767999152045 15.565358285700162 68.00243974867394 15.528430685833333 68.21345961830588 15.496777025018893 L 68.75156039329408 15.67086857860542 C 68.75779472782031 15.671348418253043 68.76378985870129 15.671587621898277 68.76954435357987 15.671587621898277 C 68.89040235342331 15.671587621898277 68.9055094243591 15.565838125347787 68.81486699874439 15.35433769988965 C 68.35062285584699 15.101114142802757 68.24511256294173 14.462778446318826 68.4983368362072 13.43933204279501 L 68.4983368362072 13.43933204279501 C 68.5875411752362 13.441250685206928 68.6738679087366 13.442209648323596 68.75731703670841 13.442209648323596 C 69.59180401935515 13.442209648323596 70.13853761092913 13.346291135120765 70.3975163790732 13.15445554107226 C 71.45261644341144 13.344372492708848 72.31252203616783 13.529015505293048 72.9772345896995 13.708382430289122 L 73.08802025401431 13.518465478652532 C 72.81369377893206 13.212486058934434 72.60794999688827 13.017292303531141 72.47078747552573 12.932884212442652 L 72.47078747552573 12.932884212442652 L 73.16715225751467 13.075322821393316 C 73.27969685641837 13.117526508848272 73.35765719176425 13.138628710665039 73.40103326355228 13.138628710665039 C 73.48778540712833 13.138628710665039 73.43620336118735 13.054220619576549 73.24628569337219 12.885405153578148 C 73.20408128973865 12.769344117853796 72.89810258619914 12.54249813399322 72.32834815039648 12.20486576963926 L 72.32834815039648 12.20486576963926 L 73.29376403605812 12.394783437454429 C 73.39927432896337 11.719520141103667 72.66598051475043 11.239449167799043 71.09388116106214 10.95457266607629 C 70.2709031681726 10.764654998261122 69.52705861114056 10.395368973092722 68.86234605760889 9.846717455285408 C 67.98661291826672 9.07649532502706 66.66246318261292 8.512016976812525 64.88989541829038 8.153282410641799 C 63.950856389676474 8.089976879459364 63.42858244509547 7.80246233394255 63.3230725102795 7.290739132180643 C 63.21756257546353 6.779015572329445 63.22020026116831 5.963950994643502 63.33098592548311 4.845545578167458 C 63.44177123170863 3.727139893124448 63.28614419423409 2.9991210474706076 62.864104096880936 2.6614889964447763 C 62.547574292433026 2.387162991354732 62.130809924578706 2.25 61.613810635228674 2.25 Z"
     style="fill:#ffffff;stroke:none"
     id="path10" />
  <path
     d="M 77.19703611147334 2.605437881109903 C 77.71716236615526 2.605437881109903 78.13278071363858 2.75594597371785 78.42328224174842 2.9644760581169334 C 78.42788983390382 3.0046886733813767 78.43781826667727 3.0450122797441495 78.42959057539457 3.0843328029485173 C 78.39274613692412 3.2704271396448967 78.2835138887532 3.4427389153249583 78.1331027915584 3.5574514486287097 C 77.89618241547267 3.7124775787229174 77.61018962391906 3.7571776712749596 77.34036610060713 3.8245006373838324 C 77.27264912938622 3.8314527725484577 77.32603682206576 3.847640996971341 77.3634965392026 3.8539392324648833 C 77.5359084991861 3.8838150598375174 77.89397747499412 3.9282022868194884 78.09203342776799 3.9282022868194884 C 78.10583848817694 3.9282022868194884 78.1188665223173 3.927986505242848 78.1309998955693 3.927535277266081 C 78.33947678750665 3.9036878698359034 78.53615159646156 3.8169833599946736 78.70505081662436 3.6941302098293427 C 78.76437834896038 3.644289360380621 78.81535630354018 3.5822806799486573 78.85855159419405 3.5174992594050387 C 78.96922840966869 3.776794129925728 79.0291225015138 4.052170928526128 79.05410710265535 4.205098414484968 C 79.06768327160535 4.287488532917397 79.12583020588986 4.354637173023468 79.20550533855709 4.379626557500462 C 80.05928713358946 4.641381656883878 80.73399466816943 5.8120277132568825 81.36502928719355 6.591719539813455 C 82.66205514065749 8.194296357653599 83.76447860953724 9.986425775134956 85.03432803126341 11.66144921998546 C 84.3317503041459 11.319691595197838 83.63148912866725 10.974389341686559 82.92737223050061 10.631101049557255 C 81.48654088892775 9.873356937617796 79.98636252735596 9.269045927909533 78.72397546324166 8.313871240015205 C 78.72186689811426 8.31211664171057 78.71977640336519 8.30931892195827 78.71766712959551 8.30756290636906 C 77.99028408783526 7.702036575137193 77.24592888612125 7.062750879634883 76.96397393832362 6.213224481540843 C 76.85256031203022 5.523036656183521 78.28159027926293 4.280428684125024 78.12048647858725 4.228228675919874 C 78.1062884760297 4.223628347347941 78.09023914549523 4.221388506236725 78.07252875743812 4.221388506236725 C 77.72838566554914 4.221388506236725 76.75712497488195 5.067116050186351 76.55814318095905 5.872579070823951 C 76.55569871938722 5.861830384602348 76.54978102480224 5.849460679147365 76.54762940965585 5.8389348609252805 C 76.49297696765315 5.571543220784569 76.43165336715293 4.896656754026928 76.59809554734329 4.354393577237031 C 76.6058355155714 4.329044202477825 76.60815224437084 4.3030455342224085 76.60650642265739 4.276591917618213 C 76.59469087547147 4.0583277898832515 76.56153881764169 3.9288165025224533 76.51398555407833 3.8013703759489252 C 76.46643211335439 3.6739249580176847 76.40956356975711 3.5431655744274697 76.31842977987617 3.2273197206347226 C 76.29527985361777 3.1465028766615313 76.2123372599417 2.9814863961739704 76.16282628347795 2.968681495773981 C 76.3022376579207 2.8653661892556146 76.44357290759457 2.757971893438432 76.64645878904163 2.686913053768476 L 76.64645878904163 2.686913053768476 C 76.58721452217443 2.7441488955215654 76.54762958681643 2.826887577379315 76.54762940965585 2.922421061484453 C 76.54762940965585 3.0946144053221634 76.67031806623012 3.2336273456385785 76.82098693205712 3.23362796570058 C 76.97165579788411 3.23362796570058 77.0943444544584 3.0946144053221634 77.0943444544584 2.922421061484453 L 77.0943444544584 2.920318254075643 C 77.09357451461267 2.7821982473320195 77.01220413243242 2.6682224362667397 76.90299420649356 2.6280360850570887 C 76.9425681578961 2.6225063278345404 76.97455272755671 2.6140657338344995 77.01864533650752 2.6112140686880396 C 77.07939670836032 2.607320167896773 77.13886986668648 2.605437881109903 77.19703611147334 2.605437881109903 ZM 77.69993633510188 8.427419828361217 C 77.74887180544764 8.476354412904108 77.80139353725144 8.520509913857962 77.85133439384303 8.568304292959755 C 78.01189590600795 9.153148899021696 78.16060732467542 9.798703598523176 78.37071373955362 10.296764326807649 C 78.73305352526972 11.15570114016275 79.28237885393943 11.902822704207837 79.75011748737052 12.662358263850898 C 79.63563455416802 12.723779834147406 79.53656140183524 12.793752590930996 79.46204057884844 12.86422139731606 C 79.40091096917452 12.922028183302414 79.36069091316605 12.960397619976247 79.3127452389358 13.009311653892789 C 79.08087145890276 12.704088082253556 78.78317366836013 12.467380298854163 78.42328224174842 12.3364317077731 C 78.4569732220381 11.794221147673074 78.3421788405501 11.052789272556867 78.16884954312502 10.246298366280786 C 78.03491508776425 9.623107708740513 77.86782042518738 9.002315096702212 77.69993633510188 8.427419828361217 ZM 78.45482355565801 9.108710649795002 C 79.31610384905892 9.817768201992306 80.27531567206694 10.412520335880211 81.21152815530272 11.013801899808058 C 81.19804269256556 11.696146472323825 81.19846716929597 12.347390860754185 81.27461078312187 13.019825779517125 C 80.9651374836826 12.760789386270917 80.63024022488334 12.572596671180026 80.20431148643343 12.468904588415256 C 80.20168596675707 12.468259015291055 80.19912387056547 12.467983353441095 80.19660748180142 12.467983353441095 C 80.18197685312717 12.467983353441095 80.16888893871348 12.477297747672157 80.15384517158542 12.47731617237164 C 79.66760991147889 11.679645736652015 79.11663309195742 10.932632594876964 78.7765443197576 10.12644215293092 C 78.65976751146945 9.849620964187377 78.55671285244257 9.488868891517118 78.45482355565801 9.108710649795002 ZM 78.75972221480828 13.049264197437605 C 78.88247358622502 13.163933149240655 78.99422399476569 13.296340834792332 79.08985385422197 13.455095131962743 C 79.12190043008276 13.507668594653572 79.17670540733793 13.543785257494434 79.23704629814551 13.556027053016468 C 79.2522775011587 13.559117442033635 79.26761925236879 13.560658739009638 79.28284974673969 13.560658739009638 C 79.3279587258918 13.560658739009638 79.37209084165016 13.547137135515808 79.40947207665363 13.520280301449844 C 79.57140924065978 13.403043229995747 79.67017519656078 13.277444179545412 79.76693923799871 13.185942870057952 C 79.80264311670692 13.152179608254928 79.83969979354258 13.125134983982694 79.87838528467677 13.097626907654227 L 79.98983097703369 15.13939683028763 C 79.82986171266081 15.129054904739235 79.66372726038394 15.11311045326336 79.5119948996435 15.11311045326336 C 79.31400307899668 15.11311045326336 79.14053382471975 15.14025995659419 79.03728535202717 15.242432001651595 C 78.91074451597632 15.141888416571593 78.66464474201535 15.118955334853272 78.3694055858903 15.118955334853272 C 78.29348802895421 15.118955334853272 78.2143213471285 15.1204718293492 78.1331027915584 15.12257507965944 L 78.75972221480828 13.049264197437605 ZM 79.62815802371041 9.430431413894606 L 79.62815802371041 9.430431413894606 C 80.64375261602743 10.020919647136719 81.7160502839675 10.491221439722839 82.72971347172907 11.024316025432393 C 82.73123988721703 11.025101909729582 82.73237442351981 11.025668823559835 82.73391855506497 11.026418567100345 C 83.7053275291309 11.500024050032268 84.67393311430621 11.987054052464588 85.654638766546 12.454186088097305 C 86.39264010434688 13.34607122462444 87.19358730200537 14.175422222463196 87.96345770077394 15.01954132558005 C 87.42582638713779 15.109686293728629 86.88828152786076 15.20064903507735 86.35064950558231 15.290795420510504 C 85.28430443285988 14.1312341239641 84.2166079792946 12.97451164842269 83.15026432385673 11.81494893459171 C 83.14188250287644 11.804935110422573 83.13294085448877 11.795995587961766 83.12292844760421 11.78761376698147 C 81.99845628258133 10.935028514452071 80.75850802218959 10.226074424028788 79.62815802371041 9.430431413894606 ZM 77.24693072915565 2.25 C 77.14555395790575 2.25 77.04269293538401 2.2533917862083395 76.93874095806018 2.260054856218482 C 76.12509985110003 2.312672052657378 75.53402043302931 2.6545717712962418 75.33224012213154 3.11797674710633 C 75.30176496054398 3.1874619579959034 75.22314738791103 3.352981840248672 75.3268226847116 3.352981840248672 C 75.33773431436927 3.352981840248672 75.3506652645162 3.3511484054895186 75.36588411057949 3.3471764654663065 C 75.45236429084649 3.336338578896725 75.523707650395 3.3317332898287764 75.58286502000165 3.3317332898287764 C 75.89621158102555 3.3317332898287764 75.86766153479314 3.4609427841552503 75.9357292839465 3.477546981601082 C 76.00325988224571 3.689212852413897 76.15257860735385 4.112606954560855 76.16282628347795 4.278694636446737 C 75.97997788278091 4.9242677606477 76.04782099232905 5.601199546208552 76.11446304177962 5.927250469007861 C 76.22669169528429 6.476338756832293 76.5872949530741 7.115230092901433 77.06070042172028 7.712485151349905 C 77.05022757450922 7.753595262071868 77.04662997477455 7.795352717523752 77.06070042172028 7.836547156677965 C 77.28653851822743 8.527964122083507 77.5496015941136 9.463208245632991 77.73778580549703 10.338819412020417 C 77.92597019404103 11.214430578407843 78.03230161500677 12.046475834224877 77.97539657633168 12.45628792112297 C 77.95905315924776 12.568899684364487 78.03103952309218 12.675034457095363 78.1415136668725 12.702310098753424 C 78.17461222220955 12.710521136942356 78.2042207142791 12.725510338614253 78.23613760860123 12.735954308652095 L 77.54012740104662 15.04477324288005 C 77.39470496839748 15.013771560072646 77.24450504660444 15.003574197550964 77.09574313717397 15.003574197550964 C 76.80971331906082 15.003574197550964 76.52899973539087 15.041272549978235 76.29778251243748 15.041272549978235 C 76.20364673666478 15.041272549978235 76.11771526697926 15.035023742284269 76.04296953864637 15.01743807526981 C 76.01831915092382 15.011413198538794 75.9863914498068 15.008421310799632 75.94901685832478 15.008421310799632 C 75.62196883153638 15.008421310799632 74.87784663472834 15.237471505636877 74.9432314198899 15.667186519830588 C 75.05676907410685 15.571587840634972 75.13683347284082 15.548541376150599 75.2253928538704 15.548541376150599 C 75.307838777883 15.548541376150599 75.3976472738153 15.568515167674999 75.52868130058218 15.568515167674999 C 75.53528903559493 15.568515167674999 75.54200160537613 15.568464145430276 75.5488233503598 15.568357849087104 C 75.7398263636036 15.565368795917093 76.07211103544826 15.506088033972079 76.33926926653542 15.506088033972079 C 76.4741132642726 15.506088033972079 76.59236599728573 15.521190618410028 76.66748615448743 15.56625601606144 C 76.84456222084877 15.55918376602903 77.004409244427 15.556299591917616 77.15386686342354 15.556299591917616 C 77.79103106107671 15.556299591917616 78.2393757495354 15.608719279231988 79.02887412239193 15.61251618461011 C 79.62016064117125 15.607205619305212 80.67695994795565 15.583456181671325 81.25989157416163 15.553639348769153 C 81.59716703647881 15.555670317566035 81.78237920210715 15.594007865336915 81.95133015315695 15.594007865336915 C 81.96131279706542 15.594007865336915 81.97123804094858 15.593874640586805 81.98113493914023 15.593591183671679 C 82.08160057356858 15.590664491022995 82.17981768601767 15.551373110732714 82.34106215218748 15.551373110732714 C 82.43329903236969 15.551373110732714 82.54616023769651 15.564229299118283 82.6918641784945 15.604104600653727 C 82.50460687122352 15.347761756743509 82.03470829609917 15.090245401204667 81.69435803489515 15.090245401204667 C 81.60846846368491 15.090245401204667 81.53082890598944 15.10664480102932 81.46806374991522 15.143601913623534 C 81.3473848028692 15.131374999589546 81.21941959581984 15.126870869208183 81.08691340899017 15.126870869208183 C 80.92270965262644 15.126870869208183 80.75153108454488 15.13378863522185 80.57860075272785 15.14150008059787 L 80.46084672672478 13.019825779517125 L 80.46084672672478 13.019825779517125 C 80.82607635569062 13.171801204562282 81.10335036685608 13.406714705688925 81.42180358136656 13.785226062734155 C 81.464906748523 13.834911808102133 81.52650689667604 13.861582977888688 81.58924866755474 13.861582977888688 C 81.62153370154539 13.861582977888688 81.65412132579293 13.854520648848306 81.68464680098292 13.83989781523921 C 81.77449343072833 13.796857717246379 81.82433507739961 13.69821825399374 81.80660697328531 13.600184679897186 C 81.66227921581027 12.821337200626546 81.64650909033719 12.08656798030039 81.65520838306243 11.30608495462947 L 81.65520838306243 11.30608495462947 C 82.05981124050278 11.571312046902046 82.45872936951027 11.840329666772151 82.83695443507122 12.126156990351555 C 83.92648557480872 13.310931779498477 85.01719943852459 14.495028397975956 86.1067298696198 15.679803187122875 C 86.14862976217154 15.725606990038193 86.20706298794032 15.749999874869417 86.26794457281352 15.749999874869417 C 86.28003259295909 15.749999874869417 86.2922176970981 15.749037538642561 86.30438862839135 15.747091606920218 C 87.01633318926922 15.627719396252928 87.72883757755446 15.511100969516095 88.44078213843233 15.391727341564229 C 88.52068864280653 15.378773360542942 88.58631742236581 15.322989039646014 88.61320756261931 15.246638502272074 C 88.64009912015737 15.170285130328981 88.62320367073124 15.083914391005314 88.56905064438087 15.023746408915954 C 88.01261763356436 14.40107518617265 87.43760543924589 13.800642575705607 86.88054173679322 13.190147244751568 L 86.88054173679322 13.190147244751568 C 87.83248785042426 13.775719626443095 89.037281784202 14.506446042517258 89.19027481957245 14.506446042517258 C 89.20760820993245 14.506446042517258 89.21144054742496 14.497066453195716 89.19987408800321 14.477031718434564 C 89.12915158767912 14.35453581256258 88.52470239272473 13.910161115360806 87.86883411336638 13.446683548006359 L 87.86883411336638 13.446683548006359 C 87.97305696920472 13.490250875861326 88.07534097974359 13.536564192581583 88.18004146048392 13.579157137290803 C 88.18380860288596 13.58157573341912 88.18874925691662 13.585381142504696 88.19265812777621 13.587568012604898 C 88.26994549025464 13.613424952402752 88.31269079305575 13.631063767588795 88.39452196988367 13.63382818115357 C 88.39690867710902 13.63390896637438 88.39932373002591 13.6339543194808 88.4017898051875 13.6339543194808 C 88.42046819860978 13.6339543194808 88.44209312666479 13.631323839308426 88.47652888999896 13.621211513861281 C 88.51551130225175 13.609764814986178 88.58104087189074 13.577095696875544 88.6174126459552 13.50766292551527 C 88.65378583730426 13.43823157143957 88.64657752795259 13.366945700496654 88.63423581386797 13.328929876324443 C 88.62189268249878 13.290914052152232 88.60581358898823 13.271159231094767 88.59428256168087 13.255333122880957 C 88.54815561788232 13.192026564098859 88.51700795476361 13.174097914217096 88.47232380666306 13.139681992866993 C 88.42763682399334 13.105263945590027 88.3762673445495 13.067586143789104 88.31882338341451 13.028235946188934 C 88.20393404385995 12.949534842346305 88.06639933135592 12.860885818067306 87.948739200456 12.782214477200766 C 87.83108048684065 12.703543844976513 87.72420305699214 12.627290391596004 87.70271702282554 12.607686511345843 C 87.69619609649305 12.601114562768633 87.6889807007185 12.594466080824336 87.68169018886144 12.588761510407412 C 86.70872007583547 11.904088339333878 85.73579531591591 11.220765131818636 84.76307251904838 10.53647817079196 C 84.75683079777728 10.53206403798115 84.74856165092075 10.53595306685669 84.74204497644199 10.53227237881377 C 83.74185166128726 9.13077493606846 82.8012537452533 7.66312857032462 81.70777759389954 6.312053506605472 C 81.1495254983302 5.622290512299696 80.50865315274547 4.4157926481409 79.46834891249459 4.013748166520138 C 79.41819581753779 3.7167423651715703 79.30490304905769 3.1684279147254344 78.90270922107477 2.777331336389438 C 78.5606341245422 2.444695133679878 78.06585157548118 2.292116908716111 77.51068880596557 2.257952106940485 C 77.42409590728468 2.2526233771406936 77.33608731847329 2.25 77.24693072915565 2.25 Z"
     style="fill:#ffffff;stroke:none"
     id="path12" />
  <path
     d="M 93.44597346718231 2.718645003896158 Q 93.66895794887417 2.718645003896158 93.89572175573154 2.824467764637725 Q 93.91083905639366 3.2779955126314113 93.78233913614858 3.466965620237082 Q 93.65384029013491 3.6559350116884746 93.44219396297821 3.716405378087633 Q 93.24566565263791 3.6559350116884746 93.1171659114314 3.466965620237082 Q 92.98866617022489 3.2779955126314113 93.00378418704128 2.824467764637725 Q 93.22298898549046 2.718645003896158 93.44597346718231 2.718645003896158 ZM 91.28037928178098 4.910694868292975 Q 91.73390702977466 4.910694868292975 91.92287713738033 5.03919371430664 Q 92.11184652883172 5.167693455513152 92.17231689523088 5.364221944892025 Q 92.11184652883172 5.560750076193759 91.92287713738033 5.689249996438842 Q 91.73390702977466 5.817749558606785 91.28037928178098 5.817749558606785 Q 91.06873373791802 5.364221944892025 91.28037928178098 4.910694868292975 ZM 95.61912590007792 4.910694868292975 Q 95.83077204819605 5.364221944892025 95.61912590007792 5.817749558606785 Q 95.18071594510242 5.817749558606785 94.98418673956927 5.689249996438842 Q 94.78765860826753 5.560750076193759 94.74230599012691 5.364221944892025 Q 94.78765860826753 5.167693455513152 94.98418673956927 5.03919371430664 Q 95.18071594510242 4.910694868292975 95.61912590007792 4.910694868292975 ZM 93.44219396297821 4.200168309280898 Q 93.65384029013491 4.200168309280898 93.78233913614858 4.411814636437595 Q 93.91083905639366 4.623460247440013 93.91083905639366 5.500279799313886 Q 93.91083905639366 6.135218601745406 93.78233913614858 6.377100067342038 Q 93.65384029013491 6.618980816784393 93.44219396297821 6.618980816784393 Q 93.24566565263791 6.618980816784393 93.1171659114314 6.384658359595956 Q 92.98866617022489 6.1503359024075195 92.98866617022489 5.500279799313886 Q 92.98866617022489 4.623460247440013 93.1171659114314 4.411814636437595 Q 93.24566565263791 4.200168309280898 93.44219396297821 4.200168309280898 ZM 93.44219396297821 2.25 Q 92.62584468798421 2.25 92.42931566148962 2.491881487976454 Q 92.32349276646913 2.763998159152487 92.56537423206576 3.2628783014885823 Q 92.8072556976624 3.7617585333439623 92.8072556976624 4.124580015584633 Q 92.8072556976624 4.426931758061139 92.58049153272788 4.714165662759823 Q 92.21767005048721 4.714165662759823 91.71878981863183 4.47228419716319 Q 91.38620338531182 4.311030602919713 91.15440053791325 4.311030602919713 Q 91.03849873375701 4.311030602919713 90.9477930051197 4.351344180519152 Q 90.70591151714325 4.532754653081633 90.70591151714325 5.364221944892025 Q 90.70591151714325 6.120100584929013 90.9477930051197 6.377100067342038 Q 91.03664747494743 6.416590962714199 91.14967996222774 6.416590962714199 Q 91.38280939590769 6.416590962714199 91.71878981863183 6.248600505174094 Q 92.21767005048721 5.999160747323544 92.58049153272788 5.999160747323544 Q 93.01890130866482 7.057391487914177 93.1096069030232 7.888858063570291 Q 93.17007717990307 9.47620435349481 92.94331373112283 15.75000086141948 L 93.97130933327352 15.75000086141948 Q 93.74454588449329 9.461086336678417 93.78989814455677 7.888858063570291 Q 93.95619131645714 7.057391487914177 94.31901369389065 5.999160747323544 Q 94.68183571324704 5.999160747323544 95.18071594510242 6.248600505174094 Q 95.51669650210549 6.416590962714199 95.74982584626616 6.416590962714199 Q 95.86285862448415 6.416590962714199 95.95171296003294 6.377100067342038 Q 96.19359335139815 6.120100584929013 96.19359335139815 5.364221944892025 Q 96.19359335139815 4.532754653081633 95.95171296003294 4.351344180519152 Q 95.86100700759741 4.311030602919713 95.74510531534028 4.311030602919713 Q 95.51330228890315 4.311030602919713 95.18071594510242 4.47228419716319 Q 94.68183571324704 4.714165662759823 94.31901369389065 4.714165662759823 Q 94.09224988703328 4.426931758061139 94.09224988703328 4.124580015584633 Q 94.09224988703328 3.7617585333439623 94.33413135262991 3.2628783014885823 Q 94.57601210207227 2.763998159152487 94.4701895651289 2.491881487976454 Q 94.21319079887016 2.25 93.44219396297821 2.25 Z"
     style="fill:#ffffff;stroke:none"
     id="path14" />
  <path
     d="M 98.92549063261643 2.810982910894176 C 98.77195621655257 2.810982910894176 98.3945367171339 2.992882988209968 98.74844516288506 2.9944793930371816 C 98.80623720503523 2.9947400492577594 98.93378376071699 3.012034406254954 99.02827622162921 3.012034406254954 C 99.14098392559735 3.012034406254954 99.2066653993729 2.987429764604026 99.05085928876098 2.879967423503534 C 99.01314728107256 2.85395665835689 98.97907690189994 2.81250017975987 98.93092226848178 2.81106221864143 C 98.92914508780035 2.8110091368495858 98.9273340080674 2.810982910894176 98.92549063261643 2.810982910894176 ZM 98.98491005828785 2.6892123642127665 C 98.99114152853129 2.6892123642127665 98.99552492784701 2.6894802068032218 98.99781483168289 2.6900075317450707 C 99.27068020795596 2.75284351798962 99.4858715016163 2.9825148602269165 99.76938828054799 3.0615103010161713 C 100.00796843095695 3.127985138573801 100.39980962906489 3.216583516424407 100.31795784961244 3.56579001484687 C 100.20873304414175 4.031778974850896 99.89539471986143 4.482789020506074 99.99361538929944 4.970497423494505 C 100.05507528592078 5.275671115403378 100.39548154475554 5.302370970391506 100.67037445078657 5.302370970391506 C 100.71613267321369 5.302370970391506 100.7600754640026 5.301631146496545 100.80061437773175 5.301312770269303 C 102.59650756464973 5.287209619593017 104.02246429598938 5.21155105942721 105.16650323001056 5.21155105942721 C 107.0424460495062 5.21155105942721 108.16036988717822 5.414981329110313 108.90834329736555 6.426813275006771 C 110.14882320061922 8.104889163080813 109.72426414968533 9.78339474453781 109.41569391024136 11.902200447317938 C 109.50205861545307 10.652004342942218 109.91673013762606 8.68261970408427 108.63151906158768 6.98171830194571 C 108.08853596459694 6.263111548483046 107.16811624687604 5.96124026552697 106.3211750138311 5.7476004260934115 C 105.93255995181 5.649572843820565 105.41295070894712 5.615367326537095 104.8400113865922 5.615367326537095 C 103.51658874995057 5.615367326537095 101.90862480425895 5.797873177613319 100.9733087438654 5.797873177613319 C 100.75080269912223 5.797873177613319 100.56636414401329 5.787544503087204 100.43287998621726 5.761972936800804 C 100.07253261031775 5.692941183114561 99.81542433776912 5.249035164708347 99.84712109619143 4.880830996472939 C 99.88915454580747 4.392551348656633 100.27415958788784 3.939273845834843 100.1296646516774 3.4461942755594697 C 100.06539365330285 3.2268733673746093 99.8741468859791 3.1774874883380733 99.66606557480651 3.1774874883380733 C 99.5171543709432 3.1774874883380733 99.3596215846557 3.2027799028065225 99.23383445846282 3.2091827006887903 C 99.09807837707109 3.2160929536296603 98.96476417262802 3.2354415816974207 98.8344888578216 3.2354415816974207 C 98.66230858912829 3.2354415816974207 98.49543649961939 3.201643482913381 98.33525048266833 3.060661278656219 C 98.03017267583006 2.7921575994344687 98.8627381056077 2.6892123642127665 98.98491005828785 2.6892123642127665 ZM 99.02617356424354 2.25 C 99.01681376125788 2.25 99.00736245373785 2.2502272671579417 98.99781483168289 2.2506924011904514 C 98.60169238950913 2.26999039496572 98.20347668090315 2.3917556167367304 97.86050002075964 2.5911435533637297 C 97.5023206595599 2.7993695081244603 97.79006948741782 3.2030439947417824 98.03244531519964 3.3811737187650213 C 98.2556233284728 3.545194165087458 98.50632021385245 3.6986260823299624 98.78719338212171 3.6986260823299624 C 98.84135719504334 3.6986260823299624 98.89664311238029 3.6929203909567696 98.95307037413474 3.680484478092068 C 99.09634070710852 3.6489093439695037 99.34937926109194 3.5893003813714284 99.52230954630045 3.5893003813714284 C 99.62397348899323 3.5893003813714284 99.69795083944108 3.6099020718458004 99.70566195747443 3.668912991041479 C 99.76914800956786 4.154748815004137 99.25133450024568 4.744241639746884 99.46022526579746 5.305641999816872 C 99.63150984367307 5.765974857262956 100.02359039657054 6.183915118384867 100.54776524615116 6.2217121027497555 C 100.77726182503494 6.23826079513703 101.00644964769259 6.24527560832807 101.2354132327053 6.24527560832807 C 102.44326690219121 6.24527560832807 103.6448810847661 6.050054406259637 104.85266535281542 6.029334527200186 C 104.89120857440933 6.0286780766481884 104.92944166549125 6.0283535161345165 104.96736554225176 6.0283535161345165 C 107.28147009425214 6.0283535161345165 108.44565239440905 7.236909445701525 108.71096561171474 7.987618600966692 C 108.96793508139021 8.714720273505609 109.15330150851106 9.476342632888201 109.08823731814014 10.250511306100627 C 109.00995249767105 11.182000438433185 108.87302964757315 12.121831486014802 108.94932358590758 13.05378787554418 C 109.01662053272682 13.875858199050308 109.30218797522865 14.673213365416558 109.4972275425142 15.470591436547357 C 109.5427887839662 15.656859395200893 109.67478344492356 15.749999329766446 109.79834823633598 15.749999329766446 C 109.9333873985973 15.749999329766446 110.05835762636251 15.638758217872432 110.04943667866563 15.41625767027276 C 110.00893097684506 14.388932254491838 109.77249883525559 13.511018282631984 109.79963365172252 12.563387704625848 C 109.82295436679661 11.748955662001807 110.03152881754995 10.964931984794157 110.07955644404869 10.148060126650265 C 110.13524159143174 9.200905967746765 110.39888184473469 6.01085290173255 107.81515935397913 5.082182887820789 C 107.07161847382748 4.814931240291244 106.1284781458637 4.742510726689851 105.12863111801795 4.742510726689851 C 103.94557574996725 4.742510726689851 102.68312834512909 4.843903018875071 101.57800368988754 4.843903018875071 C 101.16477333550002 4.843903018875071 100.7735393427003 4.829726572952227 100.41667761386998 4.790771981786989 C 100.55902477030858 4.283831364196621 100.83130149413272 3.841821173152198 100.76791347443157 3.313167411387677 C 100.71782121245631 2.8953979625473956 100.26107088923347 2.7391027206885132 99.9136152310132 2.644201667407678 C 99.5893946240476 2.555646837240672 99.3694176088822 2.25 99.02617356424354 2.25 Z"
     style="fill:#ffffff;stroke:none"
     id="path16" />
  <path
     d="M 115.57631597476504 3.9497966088670657 Q 115.44784278249477 4.078269257609236 115.57631597476504 4.186977865999552 L 115.21066166124432 4.048622110025264 L 115.57631597476504 3.9497966088670657 ZM 117.55282368793462 3.9399140451630434 L 117.90859489422323 4.048622110025264 L 117.55282368793462 4.186977865999552 Q 117.68129633667678 4.078269257609236 117.55282368793462 3.9399140451630434 ZM 115.82337911619143 3.930031481459021 L 116.11985534790199 4.147447475301439 L 115.80361398878338 4.206742449879501 Q 115.92220461734964 4.0980350644274 115.82337911619143 3.930031481459021 ZM 117.30576054650822 3.920148917754999 L 117.30576054650822 3.920148917754999 Q 117.20693463770395 4.0980350644274 117.32552567391627 4.206742449879501 L 117.00928363538756 4.147447475301439 L 117.30576054650822 3.920148917754999 ZM 117.34705944174522 3.839268404296951 Q 117.24373393560707 3.839268404296951 117.18222802462087 3.870736506880959 Q 116.96975338057146 3.979444435861156 116.89069314270334 4.186977865999552 Q 117.06828795831686 4.285221792096177 117.28778090889202 4.285221792096177 Q 117.64234711339418 4.285221792096177 118.10624562477557 4.028856846735196 Q 117.60067590141216 3.839268404296951 117.34705944174522 3.839268404296951 ZM 115.78656487126571 3.8400752717538733 Q 115.53095719642299 3.8400752717538733 115.01301093069196 4.038739410439218 Q 115.4762013608477 4.291388797743265 115.8295443553722 4.291388797743265 Q 116.05669303504648 4.291388797743265 116.2384458405862 4.186977865999552 Q 116.15938560271807 3.979444435861156 115.9469110945507 3.870736506880959 Q 115.88698223033192 3.8400752717538733 115.78656487126571 3.8400752717538733 ZM 114.20976000780205 3.36859148610268 Q 114.15173845160939 3.36859148610268 114.07911137830234 3.435904519196123 Q 113.87651933192747 3.6236726860444506 114.41017603944887 4.513101245294072 L 114.50900140472504 4.4439235711299645 L 114.3508810648708 4.058504673729287 L 114.36076362857483 3.7422633146106934 L 114.23229047027507 3.722498730730744 L 114.23229047027507 3.722498730730744 Q 114.27182086097318 3.771911141604784 114.27676214282519 3.9399140451630434 Q 114.28170288114912 4.107917084603327 114.44970643014699 4.414276423545992 L 114.4200586710939 4.4439235711299645 Q 114.3508810648708 4.3154503788596985 114.20264267725149 3.984385785654179 Q 114.05440490110128 3.653320513038541 114.14828898452544 3.5248473207682753 Q 114.18418585593844 3.4757252897789512 114.22080511016011 3.4757252897789512 Q 114.27995924302058 3.4757252897789512 114.34099843322578 3.603907558636406 L 114.37064626021987 3.5841429747564564 Q 114.313588209487 3.36859148610268 114.20976000780205 3.36859148610268 ZM 118.91810919194621 3.36859148610268 Q 118.81200815959131 3.36859148610268 118.74861049907071 3.5841429747564564 L 118.7782583260648 3.603907558636406 Q 118.83929707465342 3.4757252897789512 118.90033636677013 3.4757252897789512 Q 118.9381224399296 3.4757252897789512 118.97590905661716 3.5248473207682753 Q 119.07473442189333 3.653320513038541 118.92649583045097 3.984385785654179 Q 118.7782583260648 4.3154503788596985 118.69919835996072 4.4439235711299645 L 118.66954944591043 4.414276423545992 Q 118.8375528929968 4.107917084603327 118.84249465043588 3.9399140451630434 Q 118.84743586434689 3.771911141604784 118.88696611916298 3.722498730730744 L 118.88696611916298 3.722498730730744 L 118.76837589824281 3.7422633146106934 L 118.7782583260648 4.058504673729287 L 118.62013730680044 4.4439235711299645 L 118.70907970072653 4.513101245294072 Q 119.25262029680168 3.6236726860444506 119.05002835233833 3.435904519196123 Q 118.97740104123773 3.36859148610268 118.91810919194621 3.36859148610268 ZM 114.27264525721117 3.2319550453746766 Q 114.35739674379079 3.2319550453746766 114.3854695622478 3.351903067416993 Q 114.43982386644296 3.5841429747564564 114.42499995294591 3.7373219648176708 Q 114.4143129676614 3.847753693150935 114.53460293681644 3.847753693150935 Q 114.58116692076798 3.847753693150935 114.64735716069933 3.8312061161828463 L 114.64735716069933 3.8312061161828463 Q 114.39041084409982 4.117799648307349 114.6275920332913 4.3549807695578115 Q 114.68688700786934 4.681104692380426 114.51888403637008 4.690986848438378 Q 114.51603656062176 4.691154255091616 114.51315783200798 4.691154255091616 Q 114.34619109682168 4.691154255091616 114.07417009645033 4.127682212011371 Q 113.79745857176282 3.554495147762366 114.0642874987758 3.33707922186096 Q 114.19330340384886 3.2319550453746766 114.27264525721117 3.2319550453746766 ZM 118.85649376004888 3.2319550453746766 Q 118.93583581723423 3.2319550453746766 119.06485199407133 3.33707922186096 Q 119.33168080643385 3.554495147762366 119.05002835233833 4.127682212011371 Q 118.77314970550057 4.691154255091616 118.61087450100666 4.691154255091616 Q 118.60807696190207 4.691154255091616 118.60531312153935 4.690986848438378 Q 118.44225251894828 4.681104692380426 118.50154708588028 4.3549807695578115 Q 118.72884564342671 4.117799648307349 118.48178223023628 3.8312061161828463 L 118.48178223023628 3.8312061161828463 Q 118.54521413302686 3.847753693150935 118.5901747770394 3.847753693150935 Q 118.70632238270095 3.847753693150935 118.69919835996072 3.7373219648176708 Q 118.68931538861062 3.5841429747564564 118.74366982868781 3.351903067416993 Q 118.7717419677347 3.2319550453746766 118.85649376004888 3.2319550453746766 ZM 117.34367570759024 3.438773804009253 Q 117.28248830406766 3.438773804009253 117.226699765112 3.450728432693168 Q 116.88081125840944 3.5248473207682753 116.76221995043308 3.771911141604784 Q 116.6535121573349 4.107917084603327 116.65845391477399 4.518042459205072 Q 116.663395128685 4.928167833806816 116.88575192879233 5.002287401292042 Q 117.10810900066373 5.076405609957032 117.03893146238164 5.155466391353256 Q 117.0007641042636 5.199085879791544 116.94755596493862 5.199085879791544 Q 116.90432428379606 5.199085879791544 116.85116343141534 5.170290304850302 Q 116.8058196000959 5.145729085532604 116.76553275417166 5.145729085532604 Q 116.70045423301748 5.145729085532604 116.64857121518794 5.209820016138297 Q 116.60657008165231 5.261703305731883 116.563334052285 5.261703305731883 Q 116.52009802291768 5.261703305731883 116.47562709771869 5.209820016138297 Q 116.42069162610802 5.145729085532604 116.35633110556725 5.145729085532604 Q 116.31648859386063 5.145729085532604 116.2730343379632 5.170290304850302 Q 116.22208836256931 5.199085879791544 116.17908605028282 5.199085879791544 Q 116.12616000203911 5.199085879791544 116.08526685052499 5.155466391353256 Q 116.01114728303976 5.076405609957032 116.2335046266752 5.002287401292042 Q 116.45586197031065 4.928167833806816 116.46080264069354 4.522983808998094 Q 116.46574385460455 4.117799648307349 116.36691848932837 3.771911141604784 Q 116.2680931240522 3.5248473207682753 115.93702839496466 3.450728432693168 Q 115.88475498808093 3.439025457517205 115.82545987762084 3.439025457517205 Q 115.50921851850225 3.439025457517205 114.99324580328393 3.771911141604784 L 114.97348053999386 3.920148917754999 Q 115.45970147846994 3.6177432021748466 115.81784477724685 3.6177432021748466 Q 116.05660688584344 3.6177432021748466 116.2384458405862 3.7521458783147157 Q 116.44597927072459 4.522983808998094 116.20879801359212 4.878754879404681 Q 115.80361398878338 4.977580788208952 115.93208718105366 5.204878802227297 Q 116.0078529592564 5.338926690403201 116.14205004589436 5.338926690403201 Q 116.23540480089507 5.338926690403201 116.35703633327041 5.2740563405093805 Q 116.4608029124576 5.4025295327796465 116.56209861292523 5.4025295327796465 Q 116.6633945851569 5.4025295327796465 116.76221995043308 5.2740563405093805 Q 116.88790593063254 5.338926690403201 116.9836519374869 5.338926690403201 Q 117.12128629579719 5.338926690403201 117.197052481646 5.204878802227297 Q 117.32552567391627 4.977580788208952 116.91045772658329 4.878754879404681 Q 116.72269023914508 4.522983808998094 116.89069314270334 3.7521458783147157 Q 117.07972542001845 3.6113769934809676 117.32441062602952 3.6113769934809676 Q 117.68095201162865 3.6113769934809676 118.1556591227058 3.910266354050977 L 118.12601075218362 3.762028442018738 Q 117.66185026026047 3.438773804009253 117.34367570759024 3.438773804009253 ZM 116.82034593196097 5.578388319657962 Q 116.93098352156018 5.578388319657962 117.09822657284174 5.639710789912133 Q 116.8157020279179 5.733885457044048 116.52486829724282 5.733885457044048 Q 116.26634948592367 5.733885457044048 116.00126526286384 5.659475917320178 Q 116.19248075665425 5.581794338464834 116.31324128525748 5.581794338464834 Q 116.39219961160781 5.581794338464834 116.44103751328551 5.615004176829041 Q 116.50280350246514 5.657004766836582 116.563334052285 5.657004766836582 Q 116.6238648738689 5.657004766836582 116.68316052785708 5.615004176829041 Q 116.73485358261745 5.578388319657962 116.82034593196097 5.578388319657962 ZM 116.00126526286384 5.738536155188308 Q 116.28291730931329 5.842302734375481 116.58186401209731 5.842302734375481 Q 116.88081071488133 5.842302734375481 117.197052481646 5.738536155188308 L 117.197052481646 5.738536155188308 Q 116.8709285588234 5.955951469620607 116.56456921988072 5.970775383117653 Q 116.54722795601201 5.971614590496223 116.53004513058298 5.971614590496223 Q 116.24366669970205 5.971614590496223 116.00126526286384 5.738536155188308 ZM 116.33727120586238 5.451942487181782 Q 116.10009022049394 5.501354898055821 115.80361398878338 5.669358616906223 Q 116.07044293702795 5.995481996200743 116.32738877804037 6.054776834896781 Q 116.43371184162206 6.0793133236861605 116.54680373233393 6.0793133236861605 Q 116.70701516065138 6.0793133236861605 116.88081125840944 6.0300710371058335 Q 117.17728735423796 5.946069585326704 117.31564188727403 5.659475917320178 Q 116.99940120756555 5.501354898055821 116.79186777742716 5.461825186767827 L 116.56456921988072 5.550767852457956 L 116.33727120586238 5.451942487181782 ZM 117.31564188727403 3.0208378627423667 Q 117.75047496201506 3.435904519196123 118.363191465788 3.811440852892778 Q 118.47189980241428 4.0980350644274 118.41260360489801 4.186977865999552 Q 118.35330903796601 4.275920667571705 118.29401365574188 4.7107519758464225 Q 117.98765486032731 5.402530076307741 117.72576780540388 5.847244220050529 Q 117.46388020695234 6.291958092029268 117.18222802462087 6.474785452612668 Q 117.05962683812416 6.554368836272167 116.92672633775665 6.554368836272167 Q 116.75431460605638 6.554368836272167 116.56456921988072 6.420431284299534 Q 116.33713559560269 6.576385800577503 116.16738361863496 6.576385800577503 Q 116.07897143636548 6.576385800577503 116.00620606912877 6.534080563072754 Q 115.79373142507937 6.410548584713488 115.44290156858378 5.9905405105256975 Q 115.0920711685601 5.5705332516300485 114.82524276384363 4.7107519758464225 Q 114.76594778926558 4.275920667571705 114.71159348507042 4.191918536382456 Q 114.65723979234437 4.107917084603327 114.75606515762054 3.811440852892778 Q 115.62572838563908 3.4260219554921005 115.80361398878338 3.040603058091423 Q 116.17256181079534 3.1939321977888615 116.53918672961159 3.1939321977888615 Q 116.92872570585385 3.1939321977888615 117.31564188727403 3.0208378627423667 ZM 116.56456921988072 6.6180820148518835 Q 116.82321847794266 6.798353162804832 117.02592211742952 6.798353162804832 Q 117.07880196578516 6.798353162804832 117.12787439983582 6.786084918410143 L 117.32552567391627 8.080697638350511 L 115.78384886137535 8.080697638350511 L 116.00126526286384 6.786084918410143 Q 116.05033756103248 6.798353162804832 116.10321740938811 6.798353162804832 Q 116.30592023358282 6.798353162804832 116.56456921988072 6.6180820148518835 ZM 116.56456921988072 2.25 Q 114.99324580328393 2.25 114.56829699077221 3.653320513038541 Q 114.60782683794223 3.2283712249397505 114.36076362857483 3.1048393824625085 Q 114.30079685327144 3.074856130692835 114.23937461164134 3.074856130692835 Q 114.04773655872762 3.074856130692835 113.84193024855925 3.3667269809140383 Q 113.57016058746866 3.7521458783147157 114.26193826329866 4.740399802840512 Q 114.38815683309015 5.0122559783170875 114.51914540544273 5.0122559783170875 Q 114.52148461448128 5.0122559783170875 114.5238253182221 5.012169285585946 Q 114.65723979234437 5.007228071674946 114.70665220321841 4.878754879404681 Q 114.98336310369788 6.044895494130973 115.81349655248741 6.608199315265837 L 115.53678558406693 8.268466484608958 L 117.55282368793462 8.268466484608958 L 117.31564188727403 6.608199315265837 Q 117.94812514903931 6.025130366722928 118.42248657624809 4.878754879404681 Q 118.47189980241428 5.007228071674946 118.60531312153935 5.012169285585946 Q 118.60765409704422 5.0122559783170875 118.60999289843669 5.0122559783170875 Q 118.74098262578647 5.0122559783170875 118.86720180704707 4.740399802840512 Q 119.5589788204522 3.7521458783147157 119.28226812379577 3.3667269809140383 Q 119.07271901971733 3.074856130692835 118.88300706051952 3.074856130692835 Q 118.82220202901172 3.074856130692835 118.7634346843318 3.1048393824625085 Q 118.52131248505236 3.2283712249397505 118.57072571121854 3.653320513038541 Q 118.13589345176966 2.25 116.56456921988072 2.25 Z"
     style="fill:#ffffff;stroke:none"
     id="path18" />
  <path
     d="M 116.56340214128497 9.732743387489432 C 117.1680121952861 9.732743387489432 117.92480250647401 10.043334364415168 118.29100401690431 10.409535874845465 C 118.61139235950519 10.729923945682295 118.6532771780285 11.154698761262614 118.66502091781159 11.549396906181942 L 114.47959369337296 11.549396906181942 C 114.49133756903807 11.154698761262614 114.5332223875614 10.729923945682295 114.85361059428024 10.409535874845465 C 115.21981224059257 10.043334364415168 115.95879235904788 9.732743387489432 116.56340214128497 9.732743387489432 ZM 116.56340214128497 9.394347143811416 C 115.84614059021088 9.394347143811416 115.0743808358785 9.725697089266774 114.62207632229003 10.178001602855243 C 114.15815678422703 10.641921311832345 114.10557679246568 11.25266752626118 114.10557679246568 11.709689863713633 L 114.10557679246568 11.887793149859958 L 119.02122749010424 11.887793149859958 L 119.02122749010424 11.709689863713633 C 119.02122749010424 11.25266752626118 118.98645799787163 10.641921311832345 118.52253828889452 10.178001602855243 C 118.0702340470701 9.725697089266774 117.28066382824107 9.394347143811416 116.56340214128497 9.394347143811416 Z"
     style="fill:#ffffff;stroke:none"
     id="path20" />
  <path
     d="M 112.50776434473696 14.389203314699563 Q 112.45119387267574 14.389203314699563 112.39783517606847 14.406466310522601 Q 112.18924974730234 14.473950079378863 112.21378922549624 14.608917073563292 Q 112.23455335754277 14.72311925629108 112.40026658106012 14.72311925629108 Q 112.43039651747442 14.72311925629108 112.46531833345563 14.719343910143703 Q 112.69230803116213 14.694804975477897 112.86408390293234 14.53529863898159 Q 112.67233384926057 14.389203314699563 112.50776434473696 14.389203314699563 ZM 112.61403013404563 14.265091935391101 Q 113.05685429472032 14.265091935391101 113.98062785076041 14.792962480607427 Q 114.444023598654 15.032935433917492 114.99671150080276 15.032935433917492 Q 115.26352590967078 15.032935433917492 115.55115065047339 14.977008431179659 Q 116.27506403425524 14.829771426134231 117.0725953090907 14.719343910143703 Q 117.34345438227712 14.681840471593603 117.5973309201375 14.681840471593603 Q 118.09098107237912 14.681840471593603 118.52042153312631 14.823636624526767 Q 119.17071593879837 15.038356854900362 119.60015585601745 15.099705278621066 Q 120.02959577323655 15.161053838223793 120.96209377049239 15.210132794611594 Q 120.36087832120813 15.271481218332298 119.78420153482564 15.271481218332298 Q 119.20752529197124 15.271481218332298 118.4222636203507 15.142649025755333 Q 118.02963251277639 15.078233201230898 117.66614266401169 15.078233201230898 Q 117.30265172819081 15.078233201230898 116.96830205117953 15.142649025755333 Q 116.29960324068509 15.271481218332298 115.44685847961841 15.381908598440804 Q 115.23367208552871 15.409515477438436 115.02777087025939 15.409515477438436 Q 114.41006776797951 15.409515477438436 113.85793045979091 15.161053838223793 Q 113.32182356158808 14.795139310627619 112.74440377229982 14.795139310627619 Q 112.4892644827929 14.795139310627619 112.22605923635723 14.866580915189129 Q 111.99293429542669 14.85431090432813 112.0174738075911 14.608917073563292 Q 112.15244076780503 14.27763466147373 112.59415059397361 14.265364650612732 Q 112.60396616783993 14.265091935391101 112.61403013404563 14.265091935391101 ZM 112.94204077876776 13.013673822397294 Q 112.67661032831147 13.013673822397294 112.44691413245627 13.82365540194276 Q 112.2547416215727 13.10834706154093 111.95109261944592 13.10834706154093 Q 111.905771922041 13.10834706154093 111.85796791271137 13.12428170867047 Q 111.4898765805729 13.357406097580286 112.10336174347621 14.019970819847893 Q 111.61257350444794 14.302174139667631 111.61257350444794 14.731614056886723 Q 111.61257350444794 15.161053838223793 112.33648668440675 15.210132794611594 Q 112.56032290004748 15.151421569207486 112.7737337712404 15.151421569207486 Q 113.27391550059878 15.151421569207486 113.71682934340913 15.473931437844895 Q 114.09596342544815 15.749999956057168 114.91901633374505 15.749999956057168 Q 115.4677174573175 15.749999956057168 116.2137154746525 15.627303108615761 Q 117.12995654658903 15.36933217361629 117.9946032141144 15.36933217361629 Q 118.3225724148193 15.36933217361629 118.64311810880366 15.406448076634703 Q 119.44448451787694 15.499237562416692 120.00807695243022 15.499237562416692 Q 120.26425478824451 15.499237562416692 120.47130583719866 15.480066239452357 Q 121.51423135044503 15.455527304786552 121.51423135044503 15.2837506856652 Q 121.23202721533315 15.026086844039364 120.71669953208148 14.94019894212476 Q 119.6246956059754 14.927929474791856 118.72287161675688 14.559838117175492 Q 118.27195962214762 14.375792438367307 117.61706370762388 14.375792438367307 Q 116.96216779310016 14.375792438367307 116.10328795866198 14.559838117175492 Q 115.54942603582818 14.699597534454933 115.07199503370327 14.699597534454933 Q 114.4177366776349 14.699597534454933 113.90700941617871 14.437140590323965 Q 113.37941226559414 14.118128257036412 112.79046601187873 13.909543371798376 Q 113.2812542169365 13.529182003321013 113.25058007301718 13.277652861391122 Q 113.2199057932158 13.026123716276494 112.94997194072897 13.013854252128327 Q 112.94600241916969 13.013673822397294 112.94204077876776 13.013673822397294 Z"
     style="fill:#ffffff;stroke:none"
     id="path22" />
  <path
     d="M 40.9532527923584 0.375 C 31.328252851963043 0.375 31.328252851963043 17.625 40.9532527923584 17.625 "
     style="fill:none;stroke:#ffffff;stroke-width:1"
     id="path24" />
  <path
     d="M 40.9532527923584 0.375 L 121.51423454284668 0.375 "
     style="fill:none;stroke:#ffffff;stroke-width:1"
     id="path26" />
  <path
     d="M 40.9532527923584 17.625 L 121.51423454284668 17.625 "
     style="fill:none;stroke:#ffffff;stroke-width:1"
     id="path28" />
  <path
     d="M 129.20173454284668 0.375 L 129.20173454284668 17.625 "
     style="fill:none;stroke:#ffffff;stroke-width:1"
     id="path30" />
  <path
     d="M 121.51423454284668 0.375 C 131.1392307281494 0.375 131.1392307281494 17.625 121.51423454284668 17.625 "
     style="fill:none;stroke:#ffffff;stroke-width:1"
     id="path32" />
</svg>
