<?xml version="1.0" encoding="UTF-8" standalone="no"?>
<svg
   width="136.4869842529297"
   height="18.0"
   version="1.1"
   id="svg38"
   sodipodi:docname="qennedjtinetjeruinebmenekhentamery.svg"
   inkscape:version="1.1.1 (3bf5ae0d25, 2021-09-20)"
   xmlns:inkscape="http://www.inkscape.org/namespaces/inkscape"
   xmlns:sodipodi="http://sodipodi.sourceforge.net/DTD/sodipodi-0.dtd"
   xmlns="http://www.w3.org/2000/svg"
   xmlns:svg="http://www.w3.org/2000/svg">
  <defs
     id="defs42" />
  <sodipodi:namedview
     id="namedview40"
     pagecolor="#ffffff"
     bordercolor="#666666"
     borderopacity="1.0"
     inkscape:pageshadow="2"
     inkscape:pageopacity="0.0"
     inkscape:pagecheckerboard="0"
     showgrid="false"
     inkscape:zoom="10.074221"
     inkscape:cx="68.243492"
     inkscape:cy="8.9833251"
     inkscape:window-width="1920"
     inkscape:window-height="1001"
     inkscape:window-x="-9"
     inkscape:window-y="-9"
     inkscape:window-maximized="1"
     inkscape:current-layer="svg38" />
  <path
     d="M 22.77966110174755 0.5684490592972326 Q 22.633638086057772 0.6049545148491455 22.633638086057772 0.696219735092747 Q 22.633638086057772 0.7874840005506465 22.72490223216746 0.8422427507825265 Q 22.76140750869705 0.864146310549385 22.796453872674018 0.864146310549385 Q 22.84902246385376 0.864146310549385 22.898304682647282 0.8148638530594374 Q 22.980442987017422 0.7327252503187663 22.92568411743733 0.6505866475780953 Q 22.870925247857237 0.5684490592972326 22.77966110174755 0.5684490592972326 ZM 2.5609985348740345 0.46936116044907683 Q 2.359843567091113 0.46936116044907683 2.1720992805818096 0.7509784853246271 Q 2.2816167810455696 0.9335079710261279 2.5189051363271635 0.988266721258008 Q 2.5554108902496084 0.9973931597386192 2.589888440644617 0.9973931597386192 Q 2.762277147405363 0.9973931597386192 2.8839638690337397 0.7692307655447858 Q 2.8839638690337397 0.5136903090653525 2.6284226367909236 0.47718380921657794 Q 2.5945244026205927 0.46936116044907683 2.5609985348740345 0.46936116044907683 ZM 1.241199810550572 0.7874840005506465 Q 1.186441060318692 0.9152547360202673 1.2777053257765913 1.0247722364840275 L 0.5110819274186749 1.0977842217217681 Q 0.4928296471985162 0.9335079710261279 1.241199810550572 0.7874840005506465 ZM 1.9876164226822657 1.222624719872005 Q 1.9876164226822657 1.222624719872005 1.9876164226822657 1.222624719872005 L 1.9876164226822657 1.222624719872005 L 1.9876164226822657 1.222624719872005 ZM 2.125909851373434 1.2203396789907357 Q 2.284224539494109 1.2203396789907357 2.382007723680506 1.2529337952403716 Q 2.418033220394854 1.2649421350142038 2.3813761329386445 1.2649421350142038 Q 2.314213403607673 1.2649421350142038 2.0030587685814902 1.2246304859354444 L 2.0030585298850645 1.2246304859354444 Q 2.068468511363622 1.2203396789907357 2.125909851373434 1.2203396789907357 ZM 5.49470864855246 2.472162196565138 Q 5.540779445637364 2.472162196565138 5.621903767591998 2.539765559497574 Q 7.100390859290249 3.7627121350422854 9.290743732922557 5.405476312873666 Q 11.481095651769165 7.048240490705046 11.754889044883926 7.723598609145255 Q 9.966101851362767 7.468058331688141 8.697522964066787 6.318122547899043 Q 7.428944554163657 5.168188196288498 6.488918406955382 4.082139033390444 Q 5.548891782354257 2.996088915706688 5.439374520586923 2.667536414315408 Q 5.416389009597399 2.472162196565138 5.49470864855246 2.472162196565138 ZM 5.554353633962448 1.6040624432514505 Q 5.819804109613288 1.6040624432514505 6.059973769447039 1.7001303549242361 Q 11.736636406619128 6.007822446076134 12.558018495534819 7.303781245555012 Q 13.324641714870417 8.709256829408373 13.561929831455585 9.457627410479173 Q 13.461538888820648 9.568057924770454 13.322497266183765 9.568057924770454 Q 13.208735504578268 9.568057924770454 13.069100960020451 9.49413364179447 L 12.320730378949651 7.979140318780923 Q 11.754889044883926 6.683181519302044 9.555411284297772 5.104303007576006 Q 7.355932568925916 3.5254240184571173 6.370273871269948 2.603650986906491 Q 5.791486120478193 2.0623774824348997 5.483335241270446 2.0623774824348997 Q 5.266714415990388 2.0623774824348997 5.183833288344107 2.3298573550953035 Q 5.042689704984308 2.7853667564934774 4.685065172449792 2.7853667564934774 Q 4.533956013325552 2.7853667564934774 4.344197606377917 2.704041929541427 Q 4.508475169903898 1.8461543253997177 5.0560624335262725 1.6818780747040774 Q 5.315446678219568 1.6040624432514505 5.554353633962448 1.6040624432514505 ZM 6.023468492917445 8.033898710968165 Q 6.899609451413228 9.439374772214377 6.735331887887247 10.863103471725385 Q 6.5710557565398195 10.863103471725385 6.42503274085004 11.100391588310554 Q 6.365295618619811 10.697168400220765 6.0611810959671955 10.697168400220765 Q 5.99359993180233 10.697168400220765 5.913950753757259 10.717080456035607 Q 6.2972618860322065 9.311604394789393 6.023468492917445 8.033898710968165 ZM 2.768605228341677 0.3457626296377467 Q 2.854758883981503 0.3457626296377467 2.920469384259759 0.35853969124988744 Q 3.2490218856510396 0.42242505898469784 3.3037807552311325 0.5958278973462152 Q 3.3423147126810133 0.7178524937648807 3.3808493862201705 0.7178524937648807 Q 3.3970742983503825 0.7178524937648807 3.4132992104805946 0.696219735092747 Q 3.4680568865785597 0.6232077498550063 3.4863100022362077 0.5319425296114048 Q 3.887874488865229 1.061277632361834 3.5410688718163006 2.101695796338959 Q 3.1942632547673724 3.14211288618217 4.654497708200826 3.3428945327556163 Q 6.0052153772597965 6.445893402716877 7.556713976802937 8.06127814575821 Q 9.10821353113178 9.676662888799545 8.852672776281816 11.100391588310554 Q 8.262843406239485 10.66180027346223 7.547702231954776 10.66180027346223 Q 7.399740523897122 10.66180027346223 7.2464148297657305 10.680575179506013 Q 7.301173699345823 9.384615902634284 6.6258155809056145 8.125163811863553 Q 5.950456507679704 6.865711243699971 5.38461565100683 6.235985198314606 Q 4.818774316941105 5.6062591529292405 3.860495770164459 4.739244036173004 Q 2.9022162686021113 3.872229635506046 2.911342826430935 2.9504568426518447 Q 2.920469384259759 2.0286838111012186 3.166884297370177 1.6636248396982167 Q 3.4132992104805946 1.298565868295215 3.404172413955345 1.0795309867159075 Q 3.4003959978075793 0.9888957460132952 3.368491117486562 0.9888957460132952 Q 3.323292755836844 0.9888957460132952 3.221642928253844 1.170795132825594 Q 3.0482402390775927 1.4810953539967158 2.2633636653879217 1.4993485890025766 Q 2.2171959575542664 1.5004222455244558 2.1705229293878365 1.5004222455244558 Q 1.4237308477788386 1.5004222455244558 0.5475883974303962 1.2255549571913888 L 0.5475883974303962 1.2255549571913888 L 1.6245109428255198 1.298565868295215 Q 2.1565852064067235 1.4089965019347084 2.4153431116795185 1.4089965019347084 Q 2.627053474094281 1.4089965019347084 2.6558013554916937 1.3350723383069363 Q 2.7196867829006104 1.170795132825594 2.5554106515531827 1.1434162947766116 Q 2.3911342815093297 1.116036382593714 2.2177315923330783 1.116036382593714 Q 2.0443286644604015 1.116036382593714 1.953064399002502 1.170795132825594 L 1.9876164226822657 1.222624719872005 L 1.9876164226822657 1.222624719872005 Q 1.8278830423566574 1.2018226844347024 1.6062577078196592 1.170795132825594 Q 1.3689705460201929 0.7874840005506465 1.5332466773676203 0.6232077498550063 Q 1.5697521925936397 0.5684490592972326 1.6610164580515392 0.5684490592972326 Q 1.6245109428255198 0.7509784853246271 1.7249017661122432 0.8422427507825265 Q 1.7620839857045425 0.8760447306192765 1.798014123196905 0.8760447306192765 Q 1.8590952256508866 0.8760447306192765 1.9165579289907808 0.7783573830477161 Q 2.0078231492343823 0.6232077498550063 1.7522816782951405 0.5501957646172655 Q 2.4239901283895215 0.3457626296377467 2.768605228341677 0.3457626296377467 ZM 23.01695017311842 0.38591957359573165 Q 23.509778089767853 0.38591957359573165 23.747067161138723 0.7509784853246271 Q 23.82007771419791 0.8057372355565071 24.659714350949802 0.9517601915721803 L 24.659714350949802 1.0065190014781666 L 23.747067161138723 1.0795309867159075 Q 22.96219130353833 1.0795309867159075 22.76140750869705 0.9608868090751106 Q 22.56062562342718 0.8422427507825265 22.56975337473813 0.6870931175898166 Q 22.578879216477677 0.5319425296114048 22.816166378277146 0.5319425296114048 Q 23.053455449648016 0.5319425296114048 23.144719595757703 0.614081132352076 Q 23.23598374186739 0.696219735092747 23.190352623598248 0.7874840005506465 Q 23.144719595757703 0.8787482063344395 23.01695017311842 0.9335079710261279 Q 23.036506093866425 0.9348116712280785 23.054711947631823 0.9348116712280785 Q 23.291393775296232 0.9348116712280785 23.299870362758433 0.7144720153129057 Q 23.30899620449798 0.47718380921657794 22.907432433958235 0.4406782939905586 Q 22.3963490146869 0.4406782939905586 22.524120346897586 0.8148638530594374 Q 22.645949092899134 1.171644176011082 23.64728059785314 1.171644176011082 Q 23.69612743436656 1.171644176011082 23.747067161138723 1.170795132825594 Q 24.312907540418745 1.1342897369477876 24.75097849705949 1.0430254714898881 L 24.714473220529893 0.9700134862521473 L 24.714473220529893 0.9700134862521473 Q 26.338983805310775 1.9739250608693384 26.238591907890136 3.2607569444747537 Q 26.138201920040903 4.547588947428382 24.97001397537986 5.396349993741268 Q 23.801826030718814 6.245110562661302 22.889178840907736 7.267275491632566 Q 21.465450141396726 9.001303815573634 21.35593240223654 9.986962513229603 Q 21.246414663076354 10.97262121088557 21.848762228457378 10.97262121088557 Q 22.451107884266992 10.97262121088557 23.318122046237526 10.251630064604818 Q 24.185138117779466 9.530638918324064 25.079531714540046 9.512386280059266 Q 27.470664563870823 9.567144194853658 27.196872125541763 11.720991791956372 Q 26.320730212260276 10.790091963880496 25.225554730229824 10.790091963880496 Q 24.677966034428895 10.790091963880496 23.728813568088224 11.264668197050833 Q 22.286831275526716 12.031291416386429 21.53846260402732 12.031291416386429 L 20.9178614455958 11.94002631549104 Q 19.786180687035753 11.100391588310554 20.151239181045902 9.457627410479173 Q 20.69882596727543 8.271186827553333 21.629726750137007 5.222947065868591 Q 22.26857959204762 3.488918503231098 22.898304682647282 2.594524429077667 Q 23.52803168281835 1.7001303549242361 24.239896987359558 1.6818780747040774 Q 24.623207164848804 1.6818780747040774 25.48109548507979 2.0469359719731646 Q 25.516527582480354 2.0565995967593533 25.54286630085524 2.0565995967593533 Q 25.665772045128623 2.0565995967593533 25.590613224239974 1.8461543253997177 Q 24.90056286341766 1.4183230873680976 23.98094382841071 1.4183230873680976 Q 23.68429382037619 1.4183230873680976 23.36375507407807 1.4628421189908551 Q 23.08996072617761 1.4628421189908551 22.697522797377413 1.3168191033010757 Q 22.305084868577215 1.170795132825594 22.305084868577215 0.6232077498550063 Q 22.633638086057772 0.38591957359573165 23.01695017311842 0.38591957359573165 ZM 5.183833288344107 3.0508475465903557 Q 6.607562465247967 4.876141210123237 7.794002570780957 6.05345547391668 Q 8.980443153706798 7.2307702151029725 10.029987517468108 7.641461259560818 Q 11.079530926443718 8.052151349232961 11.973924523204298 8.070405897069161 Q 12.083442262364484 8.21642795797324 14.146023803786107 12.68839689656184 L 14.018253426361124 12.743155766141934 L 9.10821353113178 9.603651380954656 Q 9.144719762447076 9.329857033054191 7.657105874223576 7.641461259560818 Q 6.169491508607224 5.953063576496041 5.037810272654327 3.178618401408189 L 5.183833288344107 3.0508475465903557 ZM 10.22164260621273 10.917862341305478 L 12.941329627809766 12.578879157401655 Q 13.032594728705156 12.83441991225162 12.284224147634355 12.92568501314701 Q 12.117919574063066 12.945966571028519 11.97865548635762 12.945966571028519 Q 11.491235475924217 12.945966571028519 11.33507072650798 12.69752369308709 Q 11.13428979602381 12.378097272131784 10.823990171593753 11.867014807646152 Q 10.51368863759229 11.35593329794622 10.22164260621273 10.917862341305478 ZM 19.51238633913529 10.132986483705084 Q 19.51238633913529 10.899609703040682 19.73142181745566 11.465450082320704 Q 20.297262196735684 12.469361418241471 21.246414663076354 12.487615011291968 Q 21.271391857040214 12.488095268500066 21.296634481429226 12.488095268500066 Q 22.230630679536628 12.488095268500066 23.52803168281835 11.830508576330855 Q 24.760560726364584 11.205802794166512 25.321529788993093 11.205802794166512 Q 25.367013870264127 11.205802794166512 25.408083022449198 11.20990932747074 Q 25.955671718250127 11.264668197050833 26.594524560160743 11.775749706750762 Q 27.233377402071355 12.286832171236394 27.26988267860095 12.670144258297045 Q 27.336545816313357 12.981237309645449 27.213848215323008 12.981237309645449 Q 27.134969549339438 12.981237309645449 26.97783664722139 12.85267350530212 Q 26.453025319126954 11.803050849113246 25.632165497990247 11.803050849113246 Q 25.625090535938558 11.803050849113246 25.617992659030023 11.80312914154081 Q 24.78748377358908 11.812255938066059 23.573664710658896 12.451108779976673 Q 22.359843738157306 13.089961621887287 20.744458995115973 13.089961621887287 Q 19.129074252074638 13.089961621887287 18.946545959855264 12.049544054651227 Q 18.764015758064488 11.009126487415164 19.51238633913529 10.132986483705084 ZM 5.9869617842092975 11.191656689205942 L 6.260756609502613 11.739244430221168 Q 6.516296886959727 11.483703675371203 6.65319453830281 11.438070647530658 Q 6.65701845503925 11.436796008618511 6.66032249096096 11.436796008618511 Q 6.775304946086441 11.436796008618511 6.260756609502613 12.980443882727103 L 5.494133390167016 13.21773199931227 Q 5.293350550111441 13.071708028836788 5.6127774484596 12.314211606026442 Q 5.932203392022056 11.556715183216093 5.9869617842092975 11.191656689205942 ZM 25.3841465449005 12.332304795079008 Q 25.989295451531138 12.332304795079008 26.338983805310775 12.83441991225162 Q 26.101694733939905 13.21773199931227 25.225554730229824 13.436768432418344 Q 24.550196611789616 13.436768432418344 23.85658490029891 12.870926143566917 Q 24.757383199548386 12.332304795079008 25.3841465449005 12.332304795079008 ZM 23.272490927968388 13.089961621887287 Q 23.54354504090416 13.354712239618575 23.860314293250852 13.52803162374233 L 21.3870259534073 13.52803162374233 Q 22.296396318689176 13.432913007753738 23.272490927968388 13.089961621887287 ZM 13.835724179356049 14.239895973497832 Q 11.793824251025065 17.175128731674494 7.949174820459982 17.25145239111956 L 7.949174820459982 17.25145239111956 Q 4.122734108017405 17.175128731674494 2.080834179686421 14.239895973497832 ZM 28.602347232002273 14.258150521334034 Q 26.56044825845699 17.19338041515359 22.715797395713356 17.26970598417006 L 22.715797395713356 17.26970598417006 Q 18.889337110163886 17.19338041515359 16.829205548853547 14.258150521334034 ZM 3.0828786708633857 0.008692117630364187 Q 2.971576914619046 0.008692117630364187 2.8474573990220184 0.020860628300151455 Q 2.5554106515531827 0.020860628300151455 1.186441060318692 0.4406782939905586 Q 0.09126423562084626 0.696219735092747 0.0 1.0977842217217681 L 0.036505492848229494 1.7183835899300968 L 0.5840939126564156 1.5176008692227352 Q 1.4784879271357403 1.8096488101736983 2.080834179686421 1.8096488101736983 Q 2.6831812676745908 1.8096488101736983 2.5371572971991094 2.2203398546315434 Q 2.3911342815093297 2.6310308990893883 2.5736637672108307 3.5893094458660344 Q 2.7561932529123316 4.547588947428382 4.015645343683063 5.5241203711662505 Q 5.275098389239495 6.5006522722969695 5.576270739751453 8.079530784023007 Q 5.877444522441963 9.658410250534748 5.037810272654327 11.720991791956372 L 5.311603665769089 11.556715183216093 Q 5.3170254163777955 11.553462228329439 5.320836443507258 11.553462228329439 Q 5.38118176422965 11.553462228329439 5.037810272654327 12.368970475606535 Q 4.672751301251325 13.235984637577067 4.04302525586596 13.263364072367114 Q 3.93189679322653 13.268195288019145 3.833558162458005 13.268195288019145 Q 3.3746456661215403 13.268195288019145 3.1942632547673724 13.162973129732178 Q 2.989829552883843 13.04372039555458 2.5866402596864733 13.04372039555458 Q 2.5578429681289827 13.04372039555458 2.5280316941559873 13.044328594046743 Q 2.080834179686421 13.053455390571992 2.080834179686421 13.345502376737253 L 2.080834179686421 13.52803162374233 L 0.8031288539098296 13.52803162374233 Q 2.9022162686021113 17.981746969280433 7.958279656914086 18.000000562330932 Q 13.014342090440358 17.981746969280433 15.113428908391576 13.52803162374233 L 15.113428908391576 13.52803162374233 L 9.49152561819243 13.564537855057624 Q 9.49152561819243 13.400261246317346 9.144719762447076 13.208605202787021 Q 8.975349371986722 13.115006605635987 8.75591479324292 13.115006605635987 Q 8.526030084990925 13.115006605635987 8.241198414375544 13.21773199931227 Q 8.071091884138962 13.279081754593147 7.876274067756523 13.279081754593147 Q 7.433506997640579 13.279081754593147 6.863102742705081 12.962191244462305 Q 6.990873597522914 12.323337447765988 7.17340284452799 11.821382734591309 Q 7.355932568925916 11.319427066630926 7.867014556018697 11.228161965735536 Q 7.91433659976605 11.219711157487291 7.962910844961551 11.219711157487291 Q 8.438939307184603 11.219711157487291 9.03520202328689 12.031291416386429 Q 9.382007879032244 11.35593329794622 9.235984863342464 10.205997991549975 L 9.235984863342464 10.205997991549975 L 9.418514110347541 10.333768368974956 Q 10.787483940278456 12.633638026981748 11.070404129918469 13.035202752307194 Q 11.28503327222419 13.339837633167392 11.904089587389903 13.339837633167392 Q 12.10106378728027 13.339837633167392 12.338983017214447 13.308996145421958 Q 13.324641714870417 13.181225767996974 13.30638907660562 12.83441991225162 L 13.30638907660562 12.83441991225162 L 14.146023803786107 13.254238230627566 L 14.784876645696722 13.016950114042398 L 13.37940058445051 9.968709874964805 Q 13.726206440195863 9.968709874964805 14.018253426361124 9.676662888799545 Q 13.67144757061577 8.581486451983391 12.941329627809766 7.2307702151029725 Q 12.430248118109837 6.409388126187283 11.900913015359407 5.953063576496041 Q 10.4589307227979 4.602347339615624 8.907431645861907 3.3885266058104597 Q 7.355932568925916 2.174706826790998 6.6258155809056145 1.5176008692227352 Q 6.135176987870829 1.237236402210505 5.607156147639178 1.237236402210505 Q 5.310143798430758 1.237236402210505 5.0013035639461805 1.3259457804781123 Q 4.143416198500896 1.5723605742403173 3.9608864741029697 2.539765559497574 Q 3.906127843219302 2.50326028296798 4.0521506202126565 1.8096488101736983 Q 4.198174590688137 1.116036382593714 3.988266386285867 0.5228169265682828 Q 3.8063448603801033 0.008692117630364187 3.0828786708633857 0.008692117630364187 ZM 23.079162099888187 0.0 Q 22.74837277429359 0.0 22.451107884266992 0.09387261726752386 Q 22.06779770677775 0.20339010281275738 21.994785244147156 0.5136903090653525 Q 21.848762228457378 0.8970014413403002 22.12255657635784 1.2711870302462323 Q 22.3963490146869 1.645371604692356 22.980442987017422 1.7366368249359574 Q 21.81225504235638 2.795307030436816 20.99087390822639 5.478487343325705 Q 20.22424973410509 8.033898710968165 19.713168224405162 9.2568455252093 Q 18.344198394474244 10.370274600290251 18.353324236213794 11.492829517110751 Q 18.362451987524743 12.615385388716952 18.91003877375427 13.089961621887287 Q 19.30575352708367 13.432913007753738 20.06368533217412 13.52803162374233 L 15.55149986503232 13.52803162374233 Q 17.650586682983537 17.981746969280433 22.706650548688362 18.000000562330932 Q 27.762712504821785 17.981746969280433 29.861799322773003 13.52803162374233 L 26.348111556621728 13.52803162374233 Q 26.5488934418916 13.418513884582143 26.75880116890102 13.272490868892364 Q 26.964314972109918 13.516538868247567 27.224062512762817 13.516538868247567 Q 27.333429395782087 13.516538868247567 27.452412880391726 13.473272754162236 Q 27.908735520511563 13.254238230627566 27.6349411726111 12.469361418241471 Q 27.890481927461064 10.22425062981477 27.032595516801482 9.603651380954656 Q 26.1747071965705 8.983051177308838 25.09778339801914 8.983051177308838 Q 24.112125655148873 8.983051177308838 22.96219130353833 9.831812701014574 Q 22.249229905011244 10.358045705019261 21.98532331784051 10.358045705019261 Q 21.823573072067678 10.358045705019261 21.83050863540688 10.160365918495131 Q 21.848762228457378 9.64015665748425 22.633638086057772 8.398957204978315 Q 23.162973188808202 7.522817201268234 24.933506789278862 6.144720097419217 Q 26.704042299320925 4.766623948355902 26.685788706270426 3.370274444938514 Q 26.667537022791333 1.9739250608693384 25.900912848670032 1.2711870302462323 Q 25.134290584120137 0.5684490592972326 24.20338980125856 0.47718380921657794 Q 24.05736678556878 0.2764020731319715 23.82007771419791 0.1486313525808773 Q 23.582790552398443 0.020860628300151455 23.190352623598248 0.0026073821053958263 Q 23.13429142632065 0.0 23.079162099888187 0.0 Z"
     style="fill:#ffffff;stroke:none"
     id="path2" />
  <path
     d="M 36.773534354466406 0.5151994727203348 Q 36.94002893714159 0.5151994727203348 37.118690186913035 0.5909033509259964 Q 37.51889258822177 0.7604810896997816 37.51889258822177 3.283788461382794 L 37.51889258822177 5.698567183097805 L 32.98779193675547 5.698567183097805 Q 34.73782772874305 3.297355603058814 35.3890036935328 2.0696164133789616 Q 36.04017948158422 0.8418781957599611 36.379333633594264 0.6316026109094328 Q 36.56708029430049 0.5151994727203348 36.773534354466406 0.5151994727203348 ZM 36.58108362619141 0.0 Q 36.54503572156783 0.0 36.50821264259962 7.752377736697359E-4 Q 35.863820425386216 0.014341665592502006 35.05663240540742 1.5744510898715576 Q 34.24944597607365 3.1345605072467717 31.861799240112305 6.227647179505199 L 38.047972584629164 6.227647179505199 L 38.03440614990649 2.7547081114987257 Q 37.966575390199814 0.43489275382823145 37.55959118543644 0.21105077843961384 Q 37.17586256448858 0.0 36.58108362619141 0.0 Z"
     style="fill:#ffffff;stroke:none"
     id="path4" />
  <path
     d="M 43.555162019151545 0.7814756650372117 L 43.555162019151545 1.1934788850852964 L 41.37926831216611 1.1934788850852964 L 41.37926831216611 0.7814756650372117 ZM 42.46077756011485 1.5926080428446066 Q 43.82553950787707 1.5926080428446066 44.346981580327 2.287863520860334 Q 44.868423652776926 2.983119794198576 44.868423652776926 3.5367494525225713 Q 44.8555486184273 4.399381702620967 44.147417134001095 5.043137308345694 Q 43.43928671000491 5.6868929140704205 42.46077756011485 5.6868929140704205 Q 41.46939425956684 5.6868929140704205 40.76126312861731 5.043137308345694 Q 40.05313213022153 4.399381702620967 40.05313213022153 3.5496241333955245 Q 40.05313213022153 2.983119794198576 40.47801087064967 2.287863520860334 Q 40.902889655262385 1.5926080428446066 42.46077756011485 1.5926080428446066 ZM 40.76126312861731 0.35659688042449034 L 40.76126312861731 1.3222305541190855 Q 40.297759240955706 1.5926080428446066 39.91150560357645 2.197738457151286 Q 39.52525199657409 2.80286807613545 39.51237719695507 3.5367494525225713 Q 39.51237719695507 4.399381702620967 40.2269456241565 5.281327211197149 Q 40.941514758311264 6.163272366296657 42.46077756011485 6.227647891521463 Q 43.96716594615298 6.163272366296657 44.688172818405484 5.281327211197149 Q 45.40917863022797 4.399381702620967 45.40917863022797 3.5496241333955245 Q 45.396303595878344 2.80286807613545 45.01005079800618 2.191300233023126 Q 44.62379729318068 1.5797324782799702 44.147417134001095 1.309354989554449 L 44.147417134001095 0.35659688042449034 Z"
     style="fill:#ffffff;stroke:none"
     id="path6" />
  <path
     d="M 33.16309126988681 7.692052453859105 L 32.884242977792276 8.29622375339727 L 32.00122338615957 10.271399155733572 L 31.861799240112305 10.55024744782811 L 32.442733181975925 10.829095739922646 L 32.58215732802319 10.527010090153563 L 33.18632862756135 9.156005987355424 L 33.488414277330435 9.690465213869953 L 33.76726256942497 10.248161798059026 L 34.04611086151951 9.690465213869953 L 34.37143386896314 9.109531272006334 L 34.67351951873222 9.690465213869953 L 34.95236781082676 10.248161798059026 L 35.231216102921294 9.690465213869953 L 35.53330175269038 9.109531272006334 L 35.858624760134 9.690465213869953 L 36.137473052228536 10.248161798059026 L 36.41632134432307 9.690465213869953 L 36.718406994092156 9.13276862968088 L 37.02049264386124 9.690465213869953 L 37.32257829363032 10.248161798059026 L 37.60142658572486 9.690465213869953 L 37.90351223549394 9.109531272006334 L 38.20559788526302 9.690465213869953 L 38.5076835350321 10.248161798059026 L 38.78653182712664 9.690465213869953 L 39.08861747689572 9.109531272006334 L 39.3907031266648 9.690465213869953 L 39.692788776433886 10.248161798059026 L 39.97163706852842 9.690465213869953 L 40.273722718297506 9.109531272006334 L 40.57580836806659 9.690465213869953 L 40.85465666016112 10.248161798059026 L 41.1567423099302 9.690465213869953 L 41.458827959699285 9.109531272006334 L 41.76091360946837 9.690465213869953 L 42.039761901562905 10.248161798059026 L 42.34184755133199 9.690465213869953 L 42.64393320110106 9.109531272006334 L 42.96925620854469 9.713702571544498 L 43.24810450063923 10.224924440384482 L 43.55019015040831 9.713702571544498 L 43.87551315785194 9.08629391433179 L 44.688820676461006 10.55024744782811 L 44.85148218018282 10.829095739922646 L 45.409178764371894 10.527010090153563 L 45.269754618324626 10.248161798059026 L 44.15436144994648 8.24974903804818 L 43.87551315785194 7.7617645268827395 L 43.596664865757404 8.272986395722723 L 43.24810450063923 8.877157695260887 L 42.9227814931956 8.272986395722723 L 42.620695843426525 7.7385271692081945 L 42.36508490900653 8.272986395722723 L 42.039761901562905 8.853920337586343 L 41.73767625179382 8.272986395722723 L 41.458827959699285 7.71528981153365 L 41.17997966760475 8.272986395722723 L 40.877894017835665 8.853920337586343 L 40.55257101039204 8.272986395722723 L 40.273722718297506 7.71528981153365 L 39.99487442620297 8.272986395722723 L 39.66955141875934 8.853920337586343 L 39.36746576899026 8.272986395722723 L 39.08861747689572 7.71528981153365 L 38.80976918480118 8.272986395722723 L 38.5076835350321 8.853920337586343 L 38.18236052758848 8.272986395722723 L 37.90351223549394 7.71528981153365 L 37.624663943399405 8.272986395722723 L 37.32257829363032 8.830682979911797 L 37.02049264386124 8.272986395722723 L 36.718406994092156 7.71528981153365 L 36.43955870199762 8.272986395722723 L 36.137473052228536 8.853920337586343 L 35.83538740245945 8.272986395722723 L 35.53330175269038 7.71528981153365 L 35.25445346059584 8.272986395722723 L 34.95236781082676 8.853920337586343 L 34.650282161057675 8.272986395722723 L 34.37143386896314 7.71528981153365 L 34.069348219194055 8.272986395722723 L 33.76726256942497 8.853920337586343 L 33.46517691965589 8.272986395722723 L 33.16309126988681 7.692052453859105 Z"
     style="fill:#ffffff;stroke:none"
     id="path8" />
  <path
     d="M 43.54546050780915 13.189145236143546 C 44.23502704387503 13.222755212151121 44.615885434235395 13.236570494451824 44.77916903480998 13.236570494451824 C 44.812797391604576 13.236570494451824 44.837197179411675 13.23598443012743 44.85316442769965 13.234864616026298 L 44.85316442769965 13.234864616026298 L 44.761401883301374 16.836321086401306 C 44.16942177330368 16.59514253827679 43.804564564991935 16.350740282891437 43.38917150364655 16.022775434975873 L 43.54546050780915 13.189145236143546 ZM 33.53263954125113 12.293500385615516 C 33.51289769230692 12.293500385615516 33.49863879678118 12.293889916909533 33.492056530908634 12.294536072268393 C 33.26419892795716 12.336538291454334 32.96086283236386 12.475248900651888 33.00049180916501 12.755296450729888 C 33.00049180916501 13.425224529778506 33.00049180916501 14.095402870311846 33.00049180916501 14.76532953545377 C 32.55399938406901 14.741826164490247 32.09523834699493 14.721234734361675 31.958997389564047 14.714421824959777 L 31.958997389564047 14.714421824959777 C 31.958997389564047 14.967222686103616 32.163257852199024 15.312665541609 32.81339899193529 15.312665541609 C 32.82052048647301 15.882404899320328 32.92025569723841 16.580102812779646 33.027080412902585 16.936189557872552 C 33.02771675928376 16.93570600178343 33.02838942539312 16.935375147617187 33.02902586014346 16.934893005434752 L 33.11268265420712 17.868412174557495 C 33.11268265420712 17.971782892908163 33.289623974855274 18.000000228787307 33.482828668874504 18.000000228787307 C 33.71514484984512 18.000000228787307 33.97097518281779 17.959201951150753 33.97097518281779 17.959201951150753 L 33.931740862722414 17.021793124714613 L 33.931740862722414 17.021793124714613 C 37.59144215889987 17.05027344723872 44.57517764662721 17.2354740154669 44.92158195868407 17.2354740154669 C 45.10068858906392 17.2354740154669 45.22021743310617 17.043391963362193 45.22021743310617 16.776334681029326 L 45.31197997750445 12.753027130487066 L 43.1096668937388 12.73032968633875 L 42.93068044542788 15.868431966423318 C 41.33469296897063 15.873027870130045 38.57731334420386 16.13513294426946 36.70309766210627 16.13513294426946 C 36.10732404045032 16.13513294426946 35.60079161408175 16.108648351043016 35.249172814139826 16.038987996075146 C 35.17795610137925 15.953525112949077 34.490112587357565 14.95109354549925 34.0526864412714 14.842501269730047 C 34.01828609142224 14.833960566348878 33.91557496054402 14.824390538894953 33.78744903359121 14.814291003384369 C 33.716084921057856 14.207925806688555 33.64413350703175 13.601574042106328 33.57247070670943 12.995242779171155 C 33.7096732076802 12.826540381194306 34.01379958874591 12.872455587154086 34.094514926672396 12.638566434987123 C 34.1772171569797 12.528985131485923 34.1210643828684 12.345636074072681 33.971299497665576 12.341552004588946 C 33.876158776700215 12.303619715819808 33.633227337752615 12.293500385615516 33.53263954125113 12.293500385615516 Z"
     style="fill:#ffffff;stroke:none"
     id="path10" />
  <path
     d="M 51.06259371353678 0.6248600051948776 Q 51.35990635579258 0.6248600051948776 51.66225809826909 0.7659570195169663 Q 51.6824144991519 1.3706606835085484 51.511081272158464 1.6226208269827762 Q 51.339749477473575 1.8745800155846328 51.057554374597984 1.9552071707835106 Q 50.795516627477575 1.8745800155846328 50.62418363920223 1.6226208269827762 Q 50.45285065092688 1.3706606835085484 50.473008006682065 0.7659570195169663 Q 50.76528107128098 0.6248600051948776 51.06259371353678 0.6248600051948776 ZM 48.175134799668335 3.547593157723966 Q 48.779838463659914 3.547593157723966 49.03179860713414 3.718924952408852 Q 49.283757795736 3.8902579406842026 49.36438495093488 4.1522959265227 Q 49.283757795736 4.4143334349250125 49.03179860713414 4.585666661918456 Q 48.779838463659914 4.756999411475713 48.175134799668335 4.756999411475713 Q 47.8929407411844 4.1522959265227 48.175134799668335 3.547593157723966 ZM 53.96013029073093 3.547593157723966 Q 54.242325154888434 4.1522959265227 53.96013029073093 4.756999411475713 Q 53.37558368409692 4.756999411475713 53.11354474338605 4.585666661918456 Q 52.851507234983735 4.4143334349250125 52.79103707746291 4.1522959265227 Q 52.851507234983735 3.8902579406842026 53.11354474338605 3.718924952408852 Q 53.37558368409692 3.547593157723966 53.96013029073093 3.547593157723966 ZM 51.057554374597984 2.6002244123745317 Q 51.339749477473575 2.6002244123745317 51.511081272158464 2.8824195152501266 Q 51.6824144991519 3.16461366325335 51.6824144991519 4.333706399085181 Q 51.6824144991519 5.1802914689938735 51.511081272158464 5.502800089789384 Q 51.339749477473575 5.825307755712523 51.057554374597984 5.825307755712523 Q 50.795516627477575 5.825307755712523 50.62418363920223 5.512877812794607 Q 50.45285065092688 5.200447869876692 50.45285065092688 4.333706399085181 Q 50.45285065092688 3.16461366325335 50.62418363920223 2.8824195152501266 Q 50.795516627477575 2.6002244123745317 51.057554374597984 2.6002244123745317 ZM 51.057554374597984 0.0 Q 49.969088674605985 0.0 49.707049972613206 0.3225086506352721 Q 49.56595277925255 0.685330878869983 49.88846140004806 1.3505044019847763 Q 50.21097002084357 2.0156780444586158 50.21097002084357 2.4994400207795104 Q 50.21097002084357 2.9025756774148523 49.90861780093088 3.285554217013097 Q 49.424855824609985 3.285554217013097 48.759682182136146 2.9630455962175866 Q 48.316233604376116 2.7480408038929505 48.00716314117803 2.7480408038929505 Q 47.85262740230305 2.7480408038929505 47.73168643078664 2.8017922406922025 Q 47.40917778015137 3.0436728707755103 47.40917778015137 4.1522959265227 Q 47.40917778015137 5.1601341132386835 47.73168643078664 5.502800089789384 Q 47.8501590572236 5.555454616952265 48.000869040264014 5.555454616952265 Q 48.311708285170624 5.555454616952265 48.759682182136146 5.331467340232126 Q 49.424855824609985 4.998880996431392 49.90861780093088 4.998880996431392 Q 50.493164168846796 6.409855317218903 50.614104961324635 7.518477418093721 Q 50.69473199716447 9.63493913799308 50.392380732124145 18.000001148559306 L 51.763041534991736 18.000001148559306 Q 51.460690269951414 9.61478178223789 51.52115995003606 7.518477418093721 Q 51.74288417923655 6.409855317218903 52.22664734914791 4.998880996431392 Q 52.71041004162308 4.998880996431392 53.37558368409692 5.331467340232126 Q 53.82355776010101 5.555454616952265 54.13439688564858 5.555454616952265 Q 54.28510725660589 5.555454616952265 54.40357970400428 5.502800089789384 Q 54.72608689249123 5.1601341132386835 54.72608689249123 4.1522959265227 Q 54.72608689249123 3.0436728707755103 54.40357970400428 2.8017922406922025 Q 54.28263843409025 2.7480408038929505 54.12810284441407 2.7480408038929505 Q 53.819032142497896 2.7480408038929505 53.37558368409692 2.9630455962175866 Q 52.71041004162308 3.285554217013097 52.22664734914791 3.285554217013097 Q 51.9242956066714 2.9025756774148523 51.9242956066714 2.4994400207795104 Q 51.9242956066714 2.0156780444586158 52.24680422746691 1.3505044019847763 Q 52.56931189339005 0.685330878869983 52.428215177465574 0.3225086506352721 Q 52.085550155787246 0.0 51.057554374597984 0.0 Z"
     style="fill:#ffffff;stroke:none"
     id="path12" />
  <path
     d="M 62.58678389444299 0.5802750419897222 L 62.58678389444299 1.1429653773784878 L 59.615073237397525 1.1429653773784878 L 59.615073237397525 0.5802750419897222 ZM 61.09213645399885 1.6880730578883885 Q 62.95604993997239 1.6880730578883885 63.66820557457743 2.6376130592016978 Q 64.38036120918247 3.5871541467208203 64.38036120918247 4.34326973748523 Q 64.36277722671872 5.521403321170283 63.39565191535678 6.400607754697205 Q 62.42852805226926 7.279812188224128 61.09213645399885 7.279812188224128 Q 59.73816208016004 7.279812188224128 58.77103725155624 6.400607754697205 Q 57.80391260398674 5.521403321170283 57.80391260398674 4.360853237190838 Q 57.80391260398674 3.5871541467208203 58.38418758563169 2.6376130592016978 Q 58.964462627621415 1.6880730578883885 61.09213645399885 1.6880730578883885 ZM 58.77103725155624 0.0 L 58.77103725155624 1.3188070123589881 Q 58.13801026217527 1.6880730578883885 57.61048722792156 2.5145254233345327 Q 57.082964235154876 3.3409767025748636 57.065380573272705 4.34326973748523 Q 57.065380573272705 5.521403321170283 58.04129709138454 6.725913844067236 Q 59.01721457501266 7.93042388420605 61.09213645399885 8.018344279282928 Q 63.14947519534803 7.93042388420605 64.13418497193186 6.725913844067236 Q 65.11889330024127 5.521403321170283 65.11889330024127 4.360853237190838 Q 65.10130931777752 3.3409767025748636 64.57378743007439 2.5057324665863803 Q 64.04626457685498 1.6704883512874318 63.39565191535678 1.3012223057580314 L 63.39565191535678 0.0 Z"
     style="fill:#ffffff;stroke:none"
     id="path14" />
  <path
     d="M 61.09213673323393 14.17179760709405 C 62.16615821385193 14.17179760709405 63.51051073521751 14.723527401689466 64.16102636232972 15.37404302880168 C 64.73016007060295 15.943176254316768 64.80456372053919 16.697740743179793 64.82542514801025 17.398877423256636 L 57.39048635587096 17.398877423256636 C 57.41134802472109 16.697740743179793 57.48575167465734 15.943176254316768 58.054885141551495 15.37404302880168 C 58.70540101004278 14.723527401689466 60.01811573537407 14.17179760709405 61.09213673323393 14.17179760709405 ZM 61.09213673323393 13.570674896240234 C 59.818002590116436 13.570674896240234 58.44705854354606 14.159280654059785 57.64359065517783 14.962748542428017 C 56.81948998754801 15.786849513667448 56.72608757019043 16.871771190311392 56.72608757019043 17.683619759976864 L 56.72608757019043 18.00000013411045 L 65.45818589627743 18.00000013411045 L 65.45818589627743 17.683619759976864 C 65.45818589627743 16.871771190311392 65.39642181994282 15.786849513667448 64.57232084870338 14.962748542428017 C 63.76885344309329 14.159280654059785 62.36627111773049 13.570674896240234 61.09213673323393 13.570674896240234 Z"
     style="fill:#ffffff;stroke:none"
     id="path16" />
  <path
     d="M 67.45818614959717 0.21996593475341797 L 67.45818614959717 5.341589516687236 L 68.43358931477269 5.341589516687236 L 68.43358931477269 0.21996593475341797 L 67.45818614959717 0.21996593475341797 M 67.45818614959717 6.804910540096898 L 67.45818614959717 11.682791468560026 L 68.43358931477269 11.682791468560026 L 68.43358931477269 6.804910540096898 L 67.45818614959717 6.804910540096898 M 67.45818614959717 12.902153562852618 L 67.45818614959717 17.780034491315746 L 68.43358931477269 17.780034491315746 L 68.43358931477269 12.902153562852618 L 67.45818614959717 12.902153562852618 Z"
     style="fill:#ffffff;stroke:none"
     id="path18" />
  <path
     d="M 77.3201205616606 0.6024466192705972 L 77.29726297551792 4.079998358224804 L 77.2939977410016 4.079998358224804 C 75.04274369199754 3.8865320324717 73.09621503316399 3.740519991833915 71.02460986366998 3.5036736040161705 L 71.02460986366998 0.8653073840858203 L 77.3201205616606 0.6024466192705972 ZM 77.60583472127394 0.0 L 77.31032438584744 0.013061000787913406 L 70.7176713845354 0.2873468838688512 C 70.55947649251894 0.29324103595670115 70.43411954917676 0.42292055796295525 70.43358945846558 0.5812269633580727 L 70.43358945846558 3.7681653921979636 C 70.43320554458572 3.9183177728711382 70.54564818419982 4.044817982924672 70.69481391645876 4.062040512913332 C 72.88239459366784 4.319405598539628 74.90117211527932 4.4664710244231 77.24338518920592 4.6677533222973056 L 77.29236559600761 4.672655896713568 L 77.20420190274577 17.9999996007981 L 78.97073250174378 17.9999996007981 L 78.53154948627778 0.022855412989551384 L 77.6074673385321 0.022855412989551384 L 77.60583472127394 0.0 Z"
     style="fill:#ffffff;stroke:none"
     id="path20" />
  <path
     d="M 85.93980495768754 1.3402065808980002 L 85.9191859211409 16.74226999769361 L 82.29031987577706 16.74226999769361 L 82.29031987577706 1.3402065808980002 ZM 80.97073221206665 0.0 L 80.97073221206665 2.185567265708772 L 81.63052604392185 2.185567265708772 L 81.63052604392185 6.845360669800386 L 80.97073221206665 6.845360669800386 L 80.97073221206665 10.000000213700783 L 81.63052604392185 10.000000213700783 L 81.63052604392185 15.876289560181917 L 80.97073221206665 15.876289560181917 L 80.97073221206665 17.97938354432122 L 83.34186627105147 17.97938354432122 L 83.34186627105147 17.319589652786494 L 84.82640276572269 17.319589652786494 L 84.82640276572269 18.000001148559306 L 87.2593922633208 18.000001148559306 L 87.2593922633208 15.896908119292377 L 86.59959884922226 15.896908119292377 L 86.59959884922226 10.000000213700783 L 87.2593922633208 10.000000213700783 L 87.2593922633208 6.845360669800386 L 86.59959884922226 6.845360669800386 L 86.59959884922226 2.185567265708772 L 87.2593922633208 2.185567265708772 L 87.2593922633208 0.0 L 84.82640276572269 0.0 L 84.82640276572269 0.6804126893632765 L 83.34186627105147 0.6804126893632765 L 83.34186627105147 0.0 Z"
     style="fill:#ffffff;stroke:none"
     id="path22" />
  <path
     d="M 92.26536836713677 3.7149814912995325 Q 93.2280665449828 3.7149814912995325 93.35577079693553 5.001852785507552 Q 93.48347625578361 6.288726312471965 94.32829382705233 8.823178060761848 L 90.26138459843952 8.803529804494701 Q 90.98831933037454 6.288726312471965 91.14549512190125 5.001852785507552 Q 91.30266994791168 3.7149814912995325 92.26536836713677 3.7149814912995325 ZM 92.26536836713677 10.355633429017928 Q 92.77618730598027 11.141510093550323 92.81548140472387 12.005973507295494 Q 92.79583435535207 12.8704398175895 92.26536836713677 13.656317930396312 Q 91.71525508817061 12.8704398175895 91.69560828017788 12.005973507295494 Q 91.73490310305868 11.141510093550323 92.26536836713677 10.355633429017928 ZM 92.26536836713677 3.0469865798950195 Q 90.81149769637138 3.0469865798950195 90.49714719952377 4.667856446183492 Q 90.18279670267616 6.288726312471965 89.25939226150513 9.530466045048911 L 91.5973744815933 9.530466045048911 Q 89.88809319485557 12.005973507295494 92.24572228328125 14.953013051014068 Q 94.70158510994673 12.005973507295494 92.93336225268024 9.530466045048911 L 95.25169814753383 9.530466045048911 Q 94.32829382705233 6.288726312471965 94.01394345089426 4.667856446183492 Q 93.6995921092199 3.0469865798950195 92.26536836713677 3.0469865798950195 Z"
     style="fill:#ffffff;stroke:none"
     id="path24" />
  <path
     d="M 98.86142814882868 0.0 L 98.51648597774832 0.7473747040074317 L 97.42416910266054 3.190715082493266 L 97.25169801712036 3.535657253573619 L 97.97032754020444 3.880599424653972 L 98.1427986257446 3.5069120726502563 L 98.89017332975205 1.8109463981718537 L 99.26386068175576 2.472085559409197 L 99.6088028528361 3.161969901569903 L 99.95374502391645 2.472085559409197 L 100.35617755684353 1.7534560363251281 L 100.72986490884726 2.472085559409197 L 101.07480707992761 3.161969901569903 L 101.41974925100796 2.472085559409197 L 101.79343660301167 1.7534560363251281 L 102.19586913593875 2.472085559409197 L 102.54081130701911 3.161969901569903 L 102.88575347809946 2.472085559409197 L 103.25944083010317 1.782201217248491 L 103.63312818210689 2.472085559409197 L 104.00681553411061 3.161969901569903 L 104.35175770519096 2.472085559409197 L 104.72544505719468 1.7534560363251281 L 105.09913240919839 2.472085559409197 L 105.47281976120212 3.161969901569903 L 105.81776193228247 2.472085559409197 L 106.19144928428618 1.7534560363251281 L 106.56513663628989 2.472085559409197 L 106.9388239882936 3.161969901569903 L 107.28376615937397 2.472085559409197 L 107.65745351137768 1.7534560363251281 L 108.0311408633814 2.472085559409197 L 108.37608303446174 3.161969901569903 L 108.74977038646546 2.472085559409197 L 109.12345773846918 1.7534560363251281 L 109.4971450904729 2.472085559409197 L 109.84208726155325 3.161969901569903 L 110.21577461355696 2.472085559409197 L 110.58946196556067 1.7534560363251281 L 110.99189449848777 2.50083074033256 L 111.33683666956811 3.1332247206465405 L 111.71052402157183 2.50083074033256 L 112.11295655449891 1.7247108554017654 L 113.1190378868166 3.535657253573619 L 113.32025415328015 3.880599424653972 L 114.01013849544086 3.5069120726502563 L 113.83766740990067 3.161969901569903 L 112.45789872557926 0.6898843421607062 L 112.11295655449891 0.08623554277008827 L 111.76801438341855 0.7186295230840689 L 111.33683666956811 1.4660042270915006 L 110.93440413664104 0.7186295230840689 L 110.56071678463732 0.05749036184672551 L 110.24451979448033 0.7186295230840689 L 109.84208726155325 1.4372590461681378 L 109.46839990954953 0.7186295230840689 L 109.12345773846918 0.028745180923362756 L 108.77851556738882 0.7186295230840689 L 108.40482821538511 1.4372590461681378 L 108.00239568245803 0.7186295230840689 L 107.65745351137768 0.028745180923362756 L 107.31251134029733 0.7186295230840689 L 106.91007880737024 1.4372590461681378 L 106.53639145536653 0.7186295230840689 L 106.19144928428618 0.028745180923362756 L 105.84650711320583 0.7186295230840689 L 105.47281976120212 1.4372590461681378 L 105.07038722827502 0.7186295230840689 L 104.72544505719468 0.028745180923362756 L 104.38050288611433 0.7186295230840689 L 104.00681553411061 1.408513865244775 L 103.63312818210689 0.7186295230840689 L 103.25944083010317 0.028745180923362756 L 102.91449865902283 0.7186295230840689 L 102.54081130701911 1.4372590461681378 L 102.1671239550154 0.7186295230840689 L 101.79343660301167 0.028745180923362756 L 101.44849443193132 0.7186295230840689 L 101.07480707992761 1.4372590461681378 L 100.7011197279239 0.7186295230840689 L 100.35617755684353 0.028745180923362756 L 99.98249020483982 0.7186295230840689 L 99.6088028528361 1.4372590461681378 L 99.23511550083239 0.7186295230840689 L 98.86142814882868 0.0 Z"
     style="fill:#ffffff;stroke:none"
     id="path26" />
  <path
     d="M 112.97943082229317 6.499380996234925 Q 113.20847536875971 6.499380996234925 113.20847536875971 6.728428671315015 Q 113.20847536875971 6.957469577213063 112.97943082229317 6.957469577213063 L 98.32057359120745 6.957469577213063 Q 98.05335182504959 6.957469577213063 98.05335182504959 6.728428671315015 Q 98.05335182504959 6.499380996234925 98.32057359120745 6.499380996234925 ZM 97.86248216603516 5.6977271883056915 Q 97.25169801712036 5.6977271883056915 97.25169801712036 6.728428671315015 Q 97.25169801712036 7.759130154324339 97.86248216603516 7.759130154324339 L 113.43751991522625 7.759130154324339 Q 114.01013765238747 7.759130154324339 114.01013765238747 6.728428671315015 Q 114.01013765238747 5.6977271883056915 113.43751991522625 5.6977271883056915 Z"
     style="fill:#ffffff;stroke:none"
     id="path28" />
  <path
     d="M 99.6113267829116 10.748659911207511 L 104.01877147667658 10.994510795093817 C 104.09626670541682 11.847627201631221 104.05746755359006 12.800521878694294 103.90237358257964 13.853195045591363 C 102.25777737456549 12.944265985902177 100.82742873375392 11.909420831453398 99.6113267829116 10.748659911207511 ZM 104.3935790556102 9.57625815983738 C 104.1484695435204 9.57625815983738 103.89540527982497 9.734947636027732 103.63438670314058 10.052326698062597 L 98.87142369426732 9.806365502088244 C 97.74608951206302 10.097608823318282 97.51641513927504 10.548757411271692 98.18240079521168 11.159811156294309 C 98.31206541753576 11.131495819690173 98.42731303946212 11.11733793207978 98.52814333202826 11.11733793207978 C 98.7755988949369 11.11733793207978 98.93622009369095 11.202609614756497 99.01000616071126 11.373153418726586 C 99.11385852201155 11.613187697532938 99.39376502828446 11.926548592416331 99.84972480229665 12.313235664760114 C 100.30568457630883 12.699922079178918 101.54171200443061 13.498069073078536 103.55780642873698 14.707676865767294 C 103.79608448646763 15.304925370967943 104.05928298791382 15.60354962356827 104.34740237169221 15.60354962356827 C 104.48205680670671 15.60354962356827 104.62215447437592 15.538323379825405 104.76769537469984 15.407870453723024 C 107.63388501404276 16.643909285877754 110.40261754218383 17.50795163322328 113.07389646805629 17.99999968884286 L 113.45081203862074 17.70403783932183 L 112.53035744915977 16.7257955059239 C 110.56926906198166 16.556216658588813 108.01583327207538 15.79392504085423 104.87005271114087 14.438921529953454 C 104.62216324670896 13.347243719328032 104.60418873629882 12.235825308342084 104.81612917991043 11.104665200453983 L 104.81612917991043 11.104665200453983 L 110.14878219041371 11.4618300824749 C 110.9406282367951 11.26319375916003 110.99944672986491 10.853114383517225 110.32523854685644 10.231591626583993 L 105.07553408593112 10.012397450431251 C 104.85550291955168 9.72163792336867 104.62818457611137 9.57625815983738 104.3935790556102 9.57625815983738 Z"
     style="fill:#ffffff;stroke:none"
     id="path30" />
  <path
     d="M 126.24856423003833 1.1133980436844866 Q 129.85500841097374 1.1133980436844866 133.89712899113337 2.8561092430265727 Q 129.85500841097374 4.550411393321441 126.24856423003833 4.550411393321441 Q 122.6663254139933 4.550411393321441 118.60000030931008 2.8561092430265727 Q 122.6663254139933 1.1133980436844866 126.24856423003833 1.1133980436844866 ZM 126.24856423003833 0.0 Q 121.79496981432226 0.0 116.01013803482056 2.8319047185029635 Q 121.79496981432226 5.639606313093641 126.24856423003833 5.639606313093641 Q 130.7021586457544 5.639606313093641 136.4869904252561 2.8319047185029635 Q 130.72636345040027 0.0 126.24856423003833 0.0 Z"
     style="fill:#ffffff;stroke:none"
     id="path32" />
  <path
     d="M 119.91552273198187 10.96501946264342 Q 120.60315257184146 10.96501946264342 121.31722922557171 11.264755575525037 L 119.95960184578544 12.64001576650323 L 118.56671068414768 11.264755575525037 Q 119.22789330112944 10.96501946264342 119.91552273198187 10.96501946264342 ZM 116.94460974630971 12.763435730925929 L 118.31986911927352 14.138695001637947 L 116.94460974630971 15.513955908378723 Q 116.34513754610943 14.08580096488947 116.94460974630971 12.763435730925929 ZM 122.88643643341659 12.833962476614529 Q 123.48590845467623 14.262116602089403 122.88643643341659 15.584481836052944 L 121.51117675369738 14.209222565340927 L 122.88643643341659 12.833962476614529 ZM 121.81091235532001 11.670280988925175 Q 122.2340699664013 11.86422780128827 122.48091071326107 12.340279142362627 L 120.61196790379356 14.226853638252292 L 122.4632796403497 16.07816414778687 Q 122.2340699664013 16.53658390469088 121.77565020949729 16.74816250572792 L 119.92433806393394 14.896851587186152 L 118.10829031373288 16.71289954189081 Q 117.64987086358427 16.430795013179548 117.43829216029543 16.025269293024017 L 119.2543399104965 14.226853638252292 L 117.35013434169547 12.322647251436884 Q 117.54408115405856 11.86422780128827 118.03776438605867 11.670280988925175 L 119.92433806393394 13.556854666800458 L 121.81091235532001 11.670280988925175 ZM 119.95960184578544 15.760796655238497 L 121.33486111649745 17.136055925950515 Q 120.6648631675636 17.435792754594715 119.977233327704 17.435792754594715 Q 119.28960369234798 17.435792754594715 118.58434257507342 17.136055925950515 L 119.95960184578544 15.760796655238497 ZM 119.92433806393394 10.383178718798742 Q 118.10829031373288 10.383178718798742 117.0592145832839 11.564491177147666 Q 116.01013803482056 12.745804658014563 116.01013803482056 14.156326892563692 Q 116.01013803482056 15.743164764312752 117.23552950472126 16.86276632018415 Q 118.46092179263634 17.982369512084308 119.88907591811122 18.00000099400286 Q 121.61696564520872 17.982369512084308 122.7013046462502 16.80987310145005 Q 123.78564446530605 15.637375872801421 123.78564446530605 14.156326892563692 L 123.78564446530605 14.156326892563692 L 123.76801380140188 14.191589856400803 Q 123.78564446530605 12.851594367540272 122.7013046462502 11.617386134162318 Q 121.61696564520872 10.383178718798742 119.92433806393394 10.383178718798742 Z"
     style="fill:#ffffff;stroke:none"
     id="path34" />
  <path
     d="M 130.58540079001327 7.5011385575978125 L 130.58623352865078 7.772926161150132 L 130.60626629177804 17.028075941978305 L 126.47385642806664 17.019341184442517 L 126.47385642806664 7.785499911291069 L 126.47385642806664 7.514126612050507 L 125.48010474832988 7.514126612050507 L 125.48010474832988 7.785499911291069 L 125.48010474832988 17.70361921038539 L 125.48010474832988 17.97499302647683 L 125.75106119814754 17.97499302647683 L 130.87781475393933 17.984762572201674 L 131.60102494721497 17.985179759534816 L 131.60060735087464 17.712974022820234 L 131.5805754057618 8.457307077964074 L 135.53080037910607 8.457307077964074 L 135.529957824296 17.72821281268108 L 135.529957824296 17.99958581075815 L 136.21433237593556 17.99958581075815 L 136.48570701004138 18.000001362062527 L 136.48653811265012 17.457257819951536 L 136.48614628376274 17.457257001937155 L 136.48699129261593 7.772510149712664 L 136.48699129261593 7.5011385575978125 Z"
     style="fill:#ffffff;stroke:none"
     id="path36" />
</svg>
