<?xml version="1.0" encoding="UTF-8" standalone="no"?>
<svg
   width="112.38103485107422"
   height="18.0"
   version="1.1"
   id="svg36"
   sodipodi:docname="raamessesamunherkhepeshefmeryamun.svg"
   inkscape:version="1.1.1 (3bf5ae0d25, 2021-09-20)"
   xmlns:inkscape="http://www.inkscape.org/namespaces/inkscape"
   xmlns:sodipodi="http://sodipodi.sourceforge.net/DTD/sodipodi-0.dtd"
   xmlns="http://www.w3.org/2000/svg"
   xmlns:svg="http://www.w3.org/2000/svg">
  <defs
     id="defs40" />
  <sodipodi:namedview
     id="namedview38"
     pagecolor="#ffffff"
     bordercolor="#666666"
     borderopacity="1.0"
     inkscape:pageshadow="2"
     inkscape:pageopacity="0.0"
     inkscape:pagecheckerboard="0"
     showgrid="false"
     inkscape:zoom="12.235161"
     inkscape:cx="56.190517"
     inkscape:cy="9.0313486"
     inkscape:window-width="1920"
     inkscape:window-height="1001"
     inkscape:window-x="-9"
     inkscape:window-y="-9"
     inkscape:window-maximized="1"
     inkscape:current-layer="svg36" />
  <path
     d="M 9.619241759901131 8.704017150225534 C 9.956114020057063 8.704017150225534 10.371109904274771 8.76399089929749 10.864229412554256 8.883939352346172 C 11.905261819800385 9.137163864337834 12.8056128816014 9.495897714329981 13.565284507766846 9.960140902322616 C 14.32495613393229 10.42438504522002 15.176070395910864 11.008207138114807 16.1186263387978 11.711606226102205 C 15.211383729261659 12.170969850713034 14.168207560803758 12.400651185566062 12.989095923614554 12.400651185566062 C 12.723796640788658 12.400651185566062 12.45161535927535 12.38902331016484 12.172553033979401 12.365768514267165 C 10.653210736553286 12.239155780818948 9.3484030744964 11.792497164191472 8.258132912523058 11.025791709479964 C 7.167863705454489 10.259086254768457 6.897054622097669 9.78780828332499 7.445706139904986 9.61195779514956 C 7.994358612617073 9.436108261878905 8.441018184149321 9.207503104703234 8.78568342214457 8.92614327852732 C 8.967086681565636 8.778059511294387 9.244939142516232 8.704017150225534 9.619241759901131 8.704017150225534 ZM 16.87829701005847 11.880422885731571 L 17.743478929129175 12.070340076094354 C 17.743478929129175 12.295428318996994 17.539492171864723 12.478311680813713 17.131522476954906 12.618992071354056 C 16.899402315315747 12.634818663035082 16.657389340244983 12.642731958875595 16.405485461552153 12.642731958875595 C 15.985642480714866 12.642731958875595 15.538322115080815 12.620750051038186 15.063526274459544 12.576788145172907 C 15.977946903162229 12.464244023721587 16.582870481695206 12.232122907177656 16.87829701005847 11.880422885731571 ZM 18.207723072026578 12.196952809542571 L 18.73527358164809 12.302462147543055 C 18.791544210016596 12.471278807172421 18.594593191107748 12.640094511897015 18.144416705302472 12.808910216621609 L 17.532460253128203 12.76670629044046 C 17.968567172031815 12.569755271531616 18.193655414934454 12.379837126264063 18.207723072026578 12.196952809542571 ZM 19.009598624373172 12.407972440448313 L 19.36833342927009 12.49238029281061 C 19.283925576907794 12.731536192805375 19.030702019820904 12.851114142802757 18.608660848199875 12.851114142802757 C 18.847816748194642 12.696366095170289 18.98146331018892 12.548652830988656 19.009598624373172 12.407972440448313 ZM 19.600455500718795 12.618992071354056 C 19.938086910167982 12.71746853571325 20.163175153070622 12.87925041189178 20.27571831961717 13.10433865479442 L 19.326128548184172 12.893318068983906 C 19.509013819810434 12.808910216621609 19.600455500718795 12.71746853571325 19.600455500718795 12.618992071354056 ZM 17.405847519679988 13.864010280959864 C 18.46094662911347 13.99062205950331 19.255788352914 14.28604954277135 19.790372691081576 14.750293685668755 L 17.173725448231284 14.138336278589716 C 17.20186267222508 13.983587276052475 17.279236696041313 13.892145595144116 17.405847519679988 13.864010280959864 ZM 5.187792747046841 0.40093762696942586 C 5.848988863757863 0.40093762696942586 6.3484031042903535 0.5838216154424017 6.686035468644312 0.9495895923883535 C 7.0236668780935005 1.3153575693343054 7.129177170998758 2.198124417859453 7.0025653924553115 3.5978901976453446 C 6.875952659007095 4.997655977431236 6.8337487328259465 5.947245271411848 6.875953136459481 6.446659034491953 C 6.918156585188243 6.946073275024443 7.048285755457107 7.315357867835686 7.266340169813683 7.554513290378066 C 7.4843936292654885 7.793669667825216 7.748168406623859 8.029308176094565 8.05766402443641 8.261430247543267 C 8.367160119701346 8.49355231899197 8.212412072068878 8.70105503562468 7.5934203589913905 8.883939352346172 C 6.974429123366289 9.06682271416289 6.629762930466267 9.33763179751971 6.559423212648482 9.69636660241663 C 6.48908301737831 10.055099497504006 6.577008261466024 10.385698033311902 6.823197990006852 10.688160300030777 C 7.069388196000066 10.99062256674965 7.656726725715499 11.398594171469009 8.585214534057924 11.912075114188854 C 9.513701864947961 12.42555701181347 10.333162943564483 12.752637678443564 11.043595860097945 12.893318068983906 C 11.754030686440949 13.033998459524248 13.931053141209826 13.10433865479442 17.57466322440458 13.10433865479442 C 18.700104438917776 13.315358285700162 19.445707453086325 13.596718111876076 19.811474176719763 13.94841813332216 L 17.405847519679988 13.399766138062459 C 17.18076118658689 13.47010633333263 17.00490974350669 13.60375194042214 16.87829701005847 13.800703914235756 C 16.87829701005847 14.166472547678739 16.083455286257944 14.37749217858448 14.493772793561655 14.433763761857755 C 14.254616893566888 14.433763761857755 14.092834062483586 14.103166180954629 14.008427165026061 13.441970064243609 L 13.755202653034399 13.652989695149351 C 13.881814431577844 14.187574033316928 13.91698452921293 14.658852004760394 13.860712945939655 15.066823609479753 C 13.663760972126038 14.588511809490223 13.319094779226017 14.271981885679224 12.826715322144361 14.117233838046756 C 12.038906471985122 13.976553447506413 11.335507383997724 13.846424754689936 10.71651519346785 13.726846804692553 C 10.097523002937978 13.607269809599941 9.471497938766813 13.350529338240019 8.838438091144814 12.956624435708015 C 8.275718438792987 12.520516561899633 7.371849507814169 12.049238590456165 6.126831775660745 11.542790521377611 C 4.881814043507322 11.03634340720383 4.259305416156803 10.283705609584448 4.259305416156803 9.284877128519467 C 4.259305416156803 8.286049602359258 4.593420388785345 7.459554695196674 5.261649856590044 6.805393361936487 C 5.929879801847128 6.151231551223914 6.2639942970232845 5.366941047694864 6.2639942970232845 4.452521373896952 C 6.2639942970232845 4.002345365544058 6.207722713750011 3.5767882345547704 6.095179069751077 3.175850219655281 C 5.993352799453844 2.8130966980279646 5.689997219321334 2.6317199372143065 5.185112329353548 2.6317199372143065 C 5.131966626849421 2.6317199372143065 5.076588356989783 2.6337295343056977 5.0189770423222475 2.6377489672146734 L 3.2464102329044677 2.869871038663376 C 3.3026820549039346 2.6869874381204633 3.387089668540039 2.5181714946696765 3.4996335512651657 2.363423447037208 C 3.6403134643531225 1.9273154538657298 3.795061511985591 1.6740914193264531 3.9638776941625706 1.6037515821455712 C 3.9884963327999836 1.6899181303705768 4.083125485835245 1.733001523846176 4.247764437089777 1.733001523846176 C 4.271284696513898 1.733001523846176 4.296233016023633 1.732122295277918 4.32261082797614 1.7303637187783059 C 4.603971609056825 1.7162955842337946 4.765753485235356 1.5756155517827413 4.8079574114165045 1.308323860151339 C 4.7798216197798675 1.0410321685199366 4.6180397436013365 0.9003521360688832 4.32261082797614 0.8862840612059201 C 4.069387270889249 0.9003521360688832 3.9287073578012923 1.0410321685199366 3.9005710887122693 1.308323860151339 C 3.6754838007144013 1.5193437297832741 3.4996337899913588 1.765533697050295 3.373021295269335 2.046893523226209 C 3.3320964640294637 2.0673559388461444 3.2921017100369276 2.0775870272930157 3.2530370332917253 2.0775870272930157 C 3.1846734908983327 2.0775870272930157 3.119158190711805 2.046253737029377 3.0564913714583355 1.9835869177759076 C 3.225307553635315 1.6459552696005268 3.471497998354722 1.2977725205167625 3.7950622281641695 0.9390390286139039 C 4.118625980521232 0.5803047608509185 4.582869168513866 0.40093762696942586 5.187792747046841 0.40093762696942586 ZM 9.977946007845366 14.159437764227905 L 10.653208826743741 14.328253468952498 L 9.89353815548307 15.425557459471902 L 9.977946007845366 14.159437764227905 ZM 11.286269629270512 14.391559835676606 C 11.84898928162234 14.391559835676606 12.32378416733884 14.451348333222912 12.71065428642001 14.570927238125066 C 13.09752440550118 14.690504233217677 13.336679350591174 15.144197633295988 13.428121986404305 15.932005528550455 C 13.517959427296729 16.705992132143816 13.400721948894024 17.092986388845265 13.07640859629142 17.092986388845265 C 13.070618053757709 17.092986388845265 13.064760667889999 17.092862251224986 13.058837393593063 17.09261588579397 L 11.03304511727885 17.09261588579397 C 10.988356528882543 17.089306185856326 10.942987093384234 17.087650380982737 10.896935855879153 17.087650380982737 C 10.551564943257846 17.087650380982737 10.167861288398607 17.180747866764687 9.745823936396663 17.366940928519046 C 9.858368057847983 16.382182014355735 10.3718499554726 15.390387361836815 11.286269629270512 14.391559835676606 ZM 5.187792747046841 0.0 C 4.231169147067781 0.0 3.443361967991892 0.5345838607151904 2.8243702549144043 1.6037515821455712 C 2.613350385282469 1.9554513648654634 1.9873244855696295 2.3071511475853557 0.946292317049693 2.6588511690314407 C 0.22882448278191372 2.869871038663376 -0.08067132899566878 3.165298999383801 0.017804894772284054 3.545135051192716 L 0.03890708726380924 3.798358369553414 C 1.3753664816751086 3.6717465910099687 2.493771957832701 3.5099647148314377 3.3941234970861016 3.3130129797440135 L 5.040079482865207 3.0175852577497815 C 5.048381902400062 3.0173546482474904 5.056615568791377 3.017239343496345 5.064780004586766 3.017239343496345 C 5.5546451974053515 3.017239343496345 5.796118651280282 3.432360558965298 5.789199888759171 4.2626027511770115 C 5.782166060213108 5.106682229704753 5.4269491244939925 5.862836941597166 4.723549559054208 6.5310668868542505 C 4.020149993614424 7.199296832111335 3.661415904896083 8.166471652361876 3.6473477703515713 9.432591347605873 C 3.6473477703515713 10.459556097759878 4.136210551886389 11.19460836910933 5.11393659240841 11.637750071463774 C 6.09166167802566 12.08089177381822 7.037734535185626 12.555685704629948 7.952154686435924 13.062133773708501 C 8.866573405329065 13.568581842787054 9.387089131499744 13.962486745319058 9.513701864947961 14.243845616590201 C 9.44336166967779 15.735053554736838 9.26047830786107 16.698711938166735 8.96504986968826 17.134818857070343 C 8.472670412606604 17.134818857070343 7.614522322081965 17.064478661800173 6.390606553019116 16.92379827125983 C 6.01077121738878 16.980070809437876 5.75051335430344 17.10316567370829 5.609832486310712 17.293084773880615 C 5.469153528127526 17.48300387405294 5.497289319764163 17.69050468087611 5.69424129357778 17.91559292377875 C 5.7882960713930505 17.77973671214347 5.878469161312617 17.711806696516287 5.9647610407888685 17.711806696516287 C 5.99463093949035 17.711806696516287 6.024035799568166 17.719946304787623 6.052975621022314 17.73622552133029 C 6.165519265021248 17.799531888054396 6.446879091197162 17.831185071416453 6.897054144645284 17.831185071416453 L 8.96504986968826 17.831185071416453 C 9.066651737364214 17.811645809984256 9.162826881224358 17.801877134172933 9.253573391459145 17.801877134172933 C 9.489516991802953 17.801877134172933 9.68877028611562 17.867918348162302 9.851334229301921 18.000000776141047 C 10.048286203115538 17.98593311904892 10.21710095293536 17.929660580870873 10.357781343475702 17.831185071416453 C 10.978782653644581 17.849272877596132 11.498366392758383 17.8583158257812 11.916529696102794 17.8583158257812 C 12.474082358736627 17.8583158257812 12.85133372205558 17.842239049050068 13.048285695869197 17.810083585778262 C 13.39295188876922 17.753811047600216 13.705964898307187 17.704574247777778 13.987324724483102 17.662369366691856 L 14.704792424467398 17.89449143814056 C 14.713104870502352 17.89513122433739 14.721098378343662 17.895450162531034 14.728771038181785 17.895450162531034 C 14.889915037973028 17.895450162531034 14.91005779922074 17.754450833797048 14.789201231734465 17.47245026651953 C 14.170209041204592 17.134818857070343 14.02952865066425 16.28370459509177 14.367161015018208 14.919109390393348 L 14.367161015018208 14.919109390393348 C 14.486100133723532 14.921667580275903 14.601202445057407 14.922946197764796 14.712467949019834 14.922946197764796 C 15.825117259215483 14.922946197764796 16.55409538131412 14.795054846827687 16.899400405506203 14.539274054763013 C 18.306200491290543 14.792496656945131 19.452741281632388 15.03868734039073 20.33902468634128 15.277843240385495 L 20.486738905427682 15.024620638203377 C 20.1209702719847 14.616648078579246 19.84664522925962 14.356389738041521 19.6637618674429 14.243845616590201 L 19.6637618674429 14.243845616590201 L 20.59224824342817 14.433763761857755 C 20.74230770863311 14.490035345131028 20.8462548224276 14.518171614220051 20.90408958481164 14.518171614220051 C 21.01975910957972 14.518171614220051 20.95098304832509 14.405627492768732 20.697759491238198 14.180540204770864 C 20.641486953060152 14.025792157138396 20.23351534834079 13.723330845324293 19.473842767270575 13.273154359519014 L 19.473842767270575 13.273154359519014 L 20.761063948152763 13.526377916605906 C 20.901744338693106 12.62602685480489 19.924019253075855 11.985932223732057 17.827886781491472 11.606096888101721 C 16.73058279097207 11.352873331014829 15.738790048262691 10.86049196412363 14.852506643553802 10.12895660704721 C 13.684862457764227 9.101993766702748 11.91932947689251 8.349355969083367 9.55590579112911 7.871043214189065 C 8.303853752977238 7.786635839279153 7.607488493535902 7.4032831119233995 7.466808580447945 6.72098550957419 C 7.326128667359988 6.038687429772594 7.32964558163302 4.95193465952467 7.477359800719425 3.4607274375566117 C 7.625073542353445 1.969519857499264 7.417570825720734 0.9988280632941434 6.854850695916521 0.5486519952597018 C 6.43281095665265 0.1828839884729759 5.877125132846886 0.0 5.187792747046841 0.0 Z"
     style="fill:#ffffff;stroke:none"
     id="path2" />
  <path
     d="M 27.177865186478382 7.937876256002994 C 26.496671245133623 7.991654064440127 26.120222241250442 8.332250793733436 26.04851793344977 8.959665719745715 C 26.138148499234912 9.640860143848613 26.514597503118093 9.999383372505463 27.177865186478382 10.035235888474404 C 27.84113286983867 9.999383372505463 28.190692728124215 9.640860143848613 28.226544278576878 8.959665719745715 C 28.172766470139745 8.332250793733436 27.8232066118542 7.991654064440127 27.177865186478382 7.937876256002994 ZM 27.25853214051315 5.679180301671352 C 27.742538692303153 5.679180301671352 28.190693210882355 5.768811229525099 28.602994730734476 5.948073085232593 C 29.01529576782846 6.127334940940088 29.378299957533752 6.373819539952137 29.692007299850356 6.687527123647811 C 30.0057151249251 7.001234707343485 30.252199844626684 7.3597576946212655 30.43146145895511 7.763095602723013 C 30.610722590525395 8.16643375220383 30.700352914931468 8.592179844854769 30.700352914931468 9.040334122054901 C 30.700352914931468 9.506413933102294 30.610722590525395 9.941123154745469 30.43146145895511 10.344461786984425 C 30.252199844626684 10.747799936465242 30.0057151249251 11.101841721315509 29.692007299850356 11.406586176018948 C 29.378299957533752 11.711330630722387 29.01529576782846 11.948851980052666 28.602994730734476 12.119151189526065 C 28.190693210882355 12.289449433483185 27.742538692303153 12.374598314082675 27.25853214051315 12.374598314082675 C 26.774526312860356 12.374598314082675 26.32189131599085 12.289449433483185 25.900626908525563 12.119151189526065 C 25.479361776923067 11.948851980052666 25.116357104459635 11.711330630722387 24.8116130118248 11.406586176018948 C 24.506868074363222 11.101841721315509 24.264865160536825 10.747799936465242 24.085604149656074 10.344461786984425 C 23.906342354293347 9.941123154745469 23.8167114264396 9.506413933102294 23.8167114264396 9.040334122054901 C 23.8167114264396 8.592179844854769 23.906342354293347 8.16643375220383 24.085604149656074 7.763095602723013 C 24.264865160536825 7.3597576946212655 24.506868074363222 7.001234707343485 24.8116130118248 6.687527123647811 C 25.116357104459635 6.373819539952137 25.479361776923067 6.127334940940088 25.900626908525563 5.948073085232593 C 26.32189131599085 5.768811229525099 26.774526312860356 5.679180301671352 27.25853214051315 5.679180301671352 ZM 27.204754814834157 4.764946937561035 C 26.61319119789547 4.764946937561035 26.057480338304796 4.876985476688684 25.53762175330399 5.101062554943983 C 25.017763409682257 5.325139663371665 24.569609615240264 5.629884118075104 24.193160490667548 6.015295949226683 C 23.8167114264396 6.400708564860238 23.516448355197976 6.848862238612696 23.292371276942678 7.359757211863126 C 23.068294998255546 7.870652909250765 22.956256866455078 8.421882083655788 22.956256866455078 9.013444493699126 C 22.956256866455078 9.605007145121533 23.068294998255546 10.156236319526556 23.292371276942678 10.667132016914195 C 23.516448355197976 11.178027714301834 23.8167114264396 11.621700306316313 24.193160490667548 11.998149310199494 C 24.569609615240264 12.374598314082675 25.017763409682257 12.67486180773767 25.53762175330399 12.898938825648202 C 26.057480338304796 13.123014878042454 26.61319119789547 13.23505338699772 27.204754814834157 13.23505338699772 C 27.796317466256564 13.23505338699772 28.347546157903448 13.123014878042454 28.85844088977481 12.898938825648202 C 29.369336587162447 12.67486180773767 29.81749062298351 12.374598314082675 30.202903479996134 11.998149310199494 C 30.58831537149248 11.621700306316313 30.89305982619592 11.178027714301834 31.11713636134831 10.667132016914195 C 31.34121434477512 10.156236319526556 31.453252853730387 9.605007145121533 31.453252853730387 9.013444493699126 C 31.453252853730387 8.421882083655788 31.34121434477512 7.870652909250765 31.11713636134831 7.359757211863126 C 30.89305982619592 6.848862238612696 30.58831537149248 6.400708564860238 30.202903479996134 6.015295949226683 C 29.81749062298351 5.629884118075104 29.369336587162447 5.325139663371665 28.85844088977481 5.101062554943983 C 28.347546157903448 4.876985476688684 27.796317466256564 4.764946937561035 27.204754814834157 4.764946937561035 Z"
     style="fill:#ffffff;stroke:none"
     id="path4" />
  <path
     d="M 47.54560988953614 2.6799362565080806 Q 47.93255213088309 2.6799362565080806 48.26216991410789 2.988057502250985 Q 48.5917876973327 3.296178703222589 48.5917876973327 3.7117832631732135 Q 48.5917876973327 4.098725952233178 48.31232953130559 4.421177999107508 Q 48.03287064893767 4.7436302250670455 47.54560988953614 4.7436302250670455 Q 47.087010642854864 4.7436302250670455 46.78605544686154 4.406847063662179 Q 46.48510025086822 4.070063902257312 46.48510025086822 3.7117832631732135 Q 46.48510025086822 3.324840663655852 46.78605544686154 3.0023884376963155 Q 47.087010642854864 2.6799362565080806 47.54560988953614 2.6799362565080806 ZM 46.27013210022853 5.589171892180479 Q 46.184144696704486 5.589171892180479 46.16981322400354 5.689490768405468 Q 46.16981322400354 5.77547817192951 46.27013210022853 5.77547817192951 Q 46.35611950375257 5.77547817192951 46.3704502601127 5.689490768405468 Q 46.35611950375257 5.589171892180479 46.27013210022853 5.589171892180479 ZM 46.27013210022853 5.546178190418458 Q 46.41344396187471 5.546178190418458 46.41344396187471 5.689490768405468 Q 46.41344396187471 5.80414004282017 46.27013210022853 5.8471333864117785 Q 46.184144696704486 5.8328026300516544 46.09815765135086 5.761147057398974 Q 46.14115135311288 5.546178190418458 46.27013210022853 5.546178190418458 ZM 46.640763619177044 5.391527369864752 Q 46.53439309566854 5.391527369864752 46.41344396187471 5.402866328772273 Q 46.54242470899037 5.4745219014249535 46.47076841999686 5.589171892180479 Q 46.39911284734418 5.4745219014249535 46.27013210022853 5.4745219014249535 Q 46.02650136235735 5.4745219014249535 46.02650136235735 5.77547817192951 Q 46.16981322400354 5.8757963318136746 46.155482109473006 5.961783377167304 Q 46.14115135311288 6.047770780691346 46.112488407710984 6.076432651582006 Q 46.21280692576556 6.176751527806996 46.29879397111919 6.592357072726253 Q 46.35611950375257 6.592357072726253 46.3704502601127 6.549363370964232 Q 46.35611950375257 6.10509523881349 46.39911284734418 5.961783377167304 Q 46.52809395263024 5.703821882936005 46.75739285963006 5.696655967500325 Q 46.767361816711144 5.696344359241763 46.77715491211987 5.696344359241763 Q 46.992611249031306 5.696344359241763 47.12283986186285 5.8471333864117785 Q 47.258985449902944 6.004777078929324 47.21599138997051 6.205414115038479 Q 47.1729980463789 6.406051509318047 46.599749525282924 6.649681530848398 L 46.599749525282924 6.678344118079883 Q 47.48828471507317 6.449044136568831 47.409462868814394 5.882962247249355 Q 47.341035844256744 5.391527369864752 46.640763619177044 5.391527369864752 ZM 47.02968618473272 5.2452228153399325 Q 47.58860323312775 5.2452228153399325 47.66025952212125 5.93312078993582 Q 47.73191509477393 6.621019659957738 46.54242470899037 6.850318566957553 Q 46.743062103269935 6.936305970481594 46.87204285038558 7.165604877481409 Q 47.00102323933082 7.394904858992461 47.015355786543005 7.638535596863636 Q 46.95573796327193 7.656879294521374 46.90052277070687 7.656879294521374 Q 46.7831893672236 7.656879294521374 46.68573657063655 7.574044506964987 Q 46.54242470899037 7.452229317114605 46.34178838922203 6.964968557713078 Q 46.03667196938048 6.1328333882112425 45.610761503533546 6.1328333882112425 Q 45.59656470290756 6.1328333882112425 45.58223323020661 6.133757826044975 L 45.453252483090964 6.133757826044975 Q 45.47135513206133 6.0251422903931795 45.535190770105764 6.0251422903931795 Q 45.572427957003875 6.0251422903931795 45.62522693196863 6.06210153705147 Q 45.65798448152211 5.996587870626161 45.75157584289588 5.996587870626161 Q 45.82176972209662 5.996587870626161 45.92618320247319 6.03343966616081 Q 45.72554580819362 5.818471515521118 45.72554580819362 5.603503364881427 L 45.72554580819362 5.603503364881427 Q 45.73828449707179 5.605095790533801 45.75013850503196 5.605095790533801 Q 45.844972359565446 5.605095790533801 45.88318950071117 5.503184488656437 Q 45.890355057976436 5.507961765613558 45.904089460600346 5.507961765613558 Q 45.972760041038256 5.507961765613558 46.205641726670706 5.388535214241736 Q 46.48510025086822 5.2452228153399325 47.02968618473272 5.2452228153399325 ZM 41.765440018926526 6.423376928494071 Q 41.84820460508213 6.423376928494071 41.94927205746849 6.470541882875872 Q 42.271724193885426 6.621019659957738 42.17140603400126 7.710191169516317 Q 41.354526372092394 6.979299672243615 41.49067312418632 6.649681530848398 Q 41.58414687135101 6.423376928494071 41.765440018926526 6.423376928494071 ZM 46.52054479485357 7.911322122623813 Q 46.60765649530132 7.911322122623813 46.71439915786804 7.982483778278152 Q 46.34178838922203 8.240446347020688 46.3704502601127 9.28662451298766 L 46.184144696704486 9.28662451298766 Q 46.16981322400354 8.297770446972422 46.31312580199055 8.054140067271657 Q 46.39713610483958 7.911322122623813 46.52054479485357 7.911322122623813 ZM 47.846564727359045 5.359872627010252 Q 48.34815731763194 5.3742037415407875 48.9500684259594 6.370223006650882 Q 49.551978817946036 7.366242271760976 49.551978817946036 9.28662451298766 L 49.12204251666665 9.28662451298766 Q 49.10771140213612 7.767515627638462 47.80357138376744 7.767515627638462 L 47.80357138376744 9.28662451298766 L 47.51694694413424 9.28662451298766 L 47.51694694413424 7.151274121121285 Q 48.333826203101395 6.535031540092872 47.846564727359045 5.359872627010252 ZM 47.155838101933284 8.118088887166326 Q 47.19178551717728 8.118088887166326 47.23032322084187 8.125796356265163 L 47.23032322084187 9.601911181681928 L 48.118858052461704 9.601911181681928 L 48.118858052461704 8.125796356265163 Q 48.149725178579914 8.119794494668938 48.178746294393946 8.119794494668938 Q 48.63478175726513 8.119794494668938 48.63478175726513 9.601911181681928 Q 48.477138064747585 13.514331236787974 48.090195823400634 14.517515700992924 L 48.41981360662544 15.234077158246327 L 43.67618281985129 15.234077158246327 L 44.665036169525706 14.804140856966946 Q 44.17777469378335 12.668789748759746 43.5758639436263 11.658439727289528 Q 42.97395319346925 10.648088273137661 43.30357115577926 10.418789724308258 Q 43.38597560158546 10.361465266186114 43.47464999954137 10.361465266186114 Q 43.740673193409116 10.361465266186114 44.06312541936865 10.877388970989537 L 46.040832118717475 13.542993465849047 L 46.54242470899037 13.542993465849047 L 46.65707398340507 9.601911181681928 Q 46.65707398340507 8.118088887166326 47.155838101933284 8.118088887166326 ZM 47.54560988953614 2.25 Q 46.87204285038558 2.264330957830981 46.46360357907241 2.715764042834421 Q 46.05516323324802 3.167197060680909 46.05516323324802 3.726115004501971 Q 46.05516323324802 4.199044828458168 46.27013210022853 4.47133761630521 Q 46.44210583276538 4.757962055938405 46.68573657063655 4.915605569370745 Q 46.66949390061642 4.914650149796363 46.65299657143327 4.914650149796363 Q 46.42204148444772 4.914650149796363 46.14115135311288 5.101910953693746 Q 45.82586396807778 5.316878925248231 45.85452691347968 5.388535214241736 Q 45.813580513793454 5.35577802285867 45.767954259502204 5.35577802285867 Q 45.73373501649679 5.35577802285867 45.696883220962135 5.3742037415407875 Q 45.61089617560851 5.4171974433028085 45.62522693196863 5.546178190418458 Q 45.20962246156061 5.689490768405468 45.20962246156061 6.434713380208707 Q 45.39306158716046 6.342993459238369 45.475609480216725 6.342993459238369 Q 45.49624618485298 6.342993459238369 45.51057765755393 6.3487259766846655 Q 45.7972013808463 6.3487259766846655 46.284463214759064 7.495223018876626 Q 46.184144696704486 7.581210422400667 46.012169531485995 7.824841160271842 Q 45.840195082608325 8.068471898143018 45.840195082608325 8.670382290129659 L 45.840195082608325 9.601911181681928 L 46.19847581123503 9.601911181681928 Q 46.184144696704486 10.390127495247187 46.09815765135086 12.812102326746757 L 44.10611912113067 10.089171941083453 Q 43.690180656813325 9.747889263876083 43.448851880180975 9.747889263876083 Q 43.36589531468446 9.747889263876083 43.30357115577926 9.788216386919721 L 42.544016892189866 8.269108217911349 Q 43.07427206969424 8.011146365509637 43.70484558616798 7.968153021918028 Q 43.67618281985129 7.581210422400667 43.43255208198011 7.280254868236935 Q 42.9166285562619 7.6671974677542964 42.42936779686037 7.867834862033863 Q 42.74465410738423 6.420382265678171 42.09258382957208 6.133757826044975 Q 41.89498685437856 6.046901859271495 41.73028980147735 6.046901859271495 Q 41.35148653503326 6.046901859271495 41.14672411450273 6.506369669202212 Q 40.85293458770293 7.165604877481409 42.071087068233666 7.996815609149513 Q 41.52650086574136 8.254777461551225 40.9532527923584 8.254777461551225 Q 40.96758375018938 8.656051175599123 41.23987720960594 8.97133784429339 Q 41.62681983150895 8.57006377207508 42.257393258440096 8.369426735965927 L 42.75898504282956 10.117834170144526 Q 42.60134224573804 10.175159344607495 42.55834854397602 10.476114898771227 Q 42.51535502129921 10.77707045293496 43.095768920575246 11.851911206133416 Q 43.67618281985129 12.92675195933187 44.034462832137166 14.488853471931852 L 42.9882848452554 15.07643346572878 L 43.05994041790808 15.750000146708926 L 49.19369880566016 15.750000146708926 L 48.69210621538728 14.517515700992924 Q 49.12204251666665 12.625796405168138 49.136373631197195 9.616242296212464 L 49.92459066110328 9.601911181681928 Q 49.92459066110328 7.065286717597243 49.22236103472123 5.968948576262161 Q 48.59405133433742 4.9880156279965995 48.26403669829597 4.9880156279965995 Q 48.22521102562001 4.9880156279965995 48.19051434145521 5.00159279380958 Q 49.00739288408154 4.571655776189374 49.05038694401398 3.7117832631732135 Q 49.05038694401398 3.095541577570831 48.598953254597966 2.6799362565080806 Q 48.14751956518195 2.264330957830981 47.54560988953614 2.25 Z"
     style="fill:#ffffff;stroke:none"
     id="path6" />
  <path
     d="M 56.10943425033082 2.25 C 56.10497981354309 2.25 56.100370123347815 2.2504271250291925 56.09561531498229 2.2513032525875243 C 55.73956350769668 2.2759295325425426 55.3826902854982 2.28842491243653 55.02581591156821 2.28842491243653 C 55.008397124212294 2.28842491243653 54.99097833685637 2.2883951437761594 54.97355977984676 2.2883355668646486 C 54.892978424063124 2.2931142376673925 54.88649463635492 2.3954034217515368 54.913647628086316 2.4529760468992503 C 55.08187805523731 2.9274095564030054 55.22698102263036 3.4088687432903777 55.363224640902864 3.893226435282172 C 55.36186237287294 3.8932272414942286 55.36049964415041 3.8932275870136817 55.359137376120486 3.8932275870136817 C 55.35541497988045 3.8932275870136817 55.351692583640414 3.893225283550662 55.34797018740038 3.893225283550662 C 55.34660791937045 3.893225283550662 55.34524519064792 3.893225629070115 55.343882922618 3.893226435282172 C 55.209428404072995 3.895618351281958 55.07272455388913 3.892922608509857 54.939829710154854 3.906199539009827 C 54.93733091347095 3.9094804765621145 54.93539139760826 3.913016177124395 54.93298934637118 3.9163421473787206 C 54.92496845778985 3.8857825641873047 54.90421057044039 3.8581868468634983 54.87260544538428 3.850769004900756 C 54.43754163167044 3.5575274513739803 54.016283623565926 3.244030626128675 53.59817491010211 2.9275557687181886 C 53.58755202969358 2.9259311938368815 53.57698235928081 2.9225098602135353 53.566223574554115 2.9225098602135353 C 53.563832579939536 2.9225098602135353 53.56143214112658 2.922678876812615 53.55901972430591 2.923074151066817 C 53.517483909478734 2.948947511504125 53.50215850931523 3.006892563432212 53.47905823042092 3.0495029437581445 C 53.40574936808347 3.2469351778235236 53.344329254257104 3.4489504970862974 53.262761210088925 3.643435219871508 C 53.20466533891961 3.7907111591043092 53.14013313138031 3.937481027511655 53.09599785853525 4.088766489649916 C 53.11550945721783 4.131041485760162 53.15234275229004 4.1442239742763185 53.19270230372615 4.1442239742763185 C 53.23123071723465 4.1442239742763185 53.27297257682896 4.132210493242723 53.30592626431003 4.122024810115358 C 53.82110981981833 4.011936208220915 54.351478033899625 4.021853307560168 54.87567181535627 4.014937735708898 L 54.87567181535627 4.014937735708898 C 54.82350275453697 4.129503693848126 54.801231261637184 4.258042689011916 54.753960514929545 4.3748823954980125 C 54.732746311555864 4.441487950101463 54.70751993629425 4.508794678848148 54.69286899010295 4.57749868826266 C 54.68857694745811 4.576888731255009 54.68424758871235 4.5765077384715305 54.67989865053092 4.5765077384715305 C 54.67464790657723 4.5765077384715305 54.669368599682095 4.57706310340561 54.66409228728888 4.57844218671558 C 54.02430566387876 4.826252193582892 53.39921064278224 5.129668488787688 52.85281113229503 5.5488303455441645 C 52.59153577165273 5.751413468441326 52.33247121723028 5.9611490743613444 52.1039092352895 6.199608403445978 C 52.09901788915347 6.295633327046032 52.207380275860864 6.326502956359915 52.27939994753268 6.354106275111687 C 52.4266424865517 6.414878079271128 52.57405882185556 6.475650344123173 52.721428972725874 6.536437351138546 C 52.64669691576163 6.638812000899048 52.62752496270132 6.77216269996495 52.579904204787816 6.888598148691068 C 52.33201133083837 7.615396014558359 51.98326558997246 8.301723417245135 51.69230803520299 9.010997918535406 C 51.69344195806443 9.069456124437735 51.747541536844004 9.098016301727942 51.80057589354671 9.098016301727942 C 51.82009437382506 9.098016301727942 51.83946854214521 9.094147865932449 51.85600501678468 9.086477794769035 C 51.958663741122095 9.06704347727077 52.06158644232159 9.057513129372545 52.16476488550286 9.055106471209434 L 52.16476488550286 9.055106471209434 C 52.14322485728503 9.13531858187099 52.134833917369555 9.22071763056059 52.098955868411664 9.296170325930582 C 51.9247992355697 9.850940505858691 51.639758845398845 10.361457475635131 51.42459034918684 10.899881821281957 C 51.414386022405665 10.95823591065579 51.4691944120732 10.994690516407541 51.52204207377299 10.994690516407541 C 51.53763439491223 10.994690516407541 51.553056029441706 10.99151726575143 51.56658686635136 10.98479668204479 C 51.82962863761041 10.941320199623403 52.095845617469145 10.90351300038641 52.362663686002904 10.893041457498283 L 52.362663686002904 10.893041457498283 C 52.33221127142849 10.967033296621105 52.32624887257482 11.050044575544353 52.303223283468924 11.126793199209303 C 52.17415201558783 11.671714231957242 51.98598517358682 12.209403312208142 51.96332796580437 12.773433874168552 C 51.958488505172866 13.140435423265203 52.002613585194055 13.506426212788755 52.06121593029485 13.868127954169394 C 52.16138754802319 14.462728234558504 52.34117773157946 15.04221134784111 52.57306384100414 15.598268242212095 C 52.575255586067506 15.64928902671601 52.62194286559223 15.681292420528253 52.66736784738209 15.681292420528253 C 52.695722210251475 15.681292420528253 52.72358489893928 15.668822393124128 52.73982719255782 15.64072567259351 C 52.77368683204459 15.56565581277741 52.78431754422738 15.481633774281061 52.80988195268716 15.403199937070811 C 52.94338099477153 14.921572539796413 53.039049111949815 14.428890362797274 53.08160950712821 13.930634726675367 C 53.123244831557855 13.500692432639806 53.139977993145926 13.06822462174931 53.137040041237285 12.63639072388187 C 53.119189930430906 12.130850616306066 52.99876465340815 11.637333664308542 52.92097889551852 11.139294553710496 C 52.90760775338104 11.064109520743406 52.89775135029237 10.986815437035363 52.87828559052388 10.912854925009611 L 52.87828559052388 10.912854925009611 C 53.13524529802539 10.937308488428075 53.387904324895736 10.987813297215551 53.640396465870296 11.040227216153859 C 53.64110501109519 11.040243801087602 53.64180871904775 11.040251172169267 53.64250782007427 11.040251172169267 C 53.72340106475079 11.040251172169267 53.74119232207701 10.932745788878405 53.70502610989534 10.875822610732488 C 53.48826471141855 10.3085414017585 53.26718051906561 9.741521405490962 53.085147626326666 9.162429420229124 L 53.085147626326666 9.162429420229124 C 53.09382615360016 9.16405197958029 53.10266304395627 9.16552803868339 53.11132970839521 9.167146912493726 C 53.33128750733145 9.206964574254421 53.55190225392096 9.2583640480788 53.77460912079822 9.271167616928194 C 53.84442040488636 9.213327660500386 53.79423969334577 9.118703703108991 53.760456644004414 9.055342345822663 C 53.49196130887277 8.473231902619647 53.27206800690107 7.8621070392189125 53.18468671310976 7.224483597930715 C 53.15651374795319 7.051584742277436 53.157120940805214 6.874227764295588 53.12713330748162 6.702257204239298 L 53.12713330748162 6.702257204239298 C 53.31651954521875 6.779297446322556 53.50592052511921 6.8561630859089115 53.6960628745926 6.9303479552327945 C 53.77886891496078 6.910391673014237 53.78281336503593 6.808555112215166 53.76611763472194 6.740940640809033 C 53.737085708205264 6.326817609408423 53.82392142678033 5.902112008202133 54.0331276968984 5.541989981760492 C 54.21119252906623 5.223804803057785 54.46885928454168 4.96291619385651 54.731316552059454 4.714070089322881 C 54.835581193227725 4.803125194517547 54.956540182632175 4.869569737055911 55.074042365082775 4.940745592636996 C 55.054247555621906 4.94559230917701 55.03442809910673 4.950419676627657 55.01483783716202 4.956077442496952 C 54.79895060290126 5.3739567310439895 54.617059488311185 5.808098698857295 54.42326430718096 6.236404843109873 C 54.3983689395553 6.295686767388092 54.36940703831443 6.356593554480495 54.36075753467499 6.419915292202882 C 54.39309884651224 6.472451294681241 54.447142004844466 6.48255382279359 54.50356602255399 6.48255382279359 C 54.53882674342257 6.48255382279359 54.575017372312246 6.478608451333233 54.607422490075145 6.478608451333233 C 54.60926341772059 6.478608451333233 54.61109190666573 6.4786213507261445 54.61290749621795 6.478648070897174 C 54.69314840016726 6.476618719976708 54.77346623978143 6.474912314571622 54.85373547632587 6.472987080179652 L 54.85373547632587 6.472987080179652 C 54.82661427238415 6.556352171022746 54.81918537379891 6.649015881384269 54.79217220227282 6.731505656279829 C 54.63752345377931 7.3709603506687875 54.48400248078031 8.010665661834302 54.33127320802123 8.650581509519832 C 54.34977784784469 8.718695371708662 54.41801010803274 8.732732214658872 54.482028412972326 8.732732214658872 C 54.501020695917084 8.732732214658872 54.51964212131565 8.731496637095038 54.5364841215314 8.73007125417837 C 54.66876071579116 8.725281433174946 54.801112633291666 8.720932034300914 54.93346109559764 8.716390526611026 L 54.93346109559764 8.716390526611026 C 54.89692287413827 8.82105205445761 54.8804855923751 8.934077917221783 54.84500811563636 9.038831122896557 C 54.673271817769184 9.667389515816534 54.498494948715845 10.295862219912175 54.33080145879477 10.925120404897577 C 54.34929527234203 10.995308765882063 54.419086746648205 11.010014995185834 54.48480155210189 11.010014995185834 C 54.50526137133658 11.010014995185834 54.52532614666337 11.008589612269166 54.543324485315075 11.006968895688418 C 54.754191782616736 11.00087393253796 54.96517171926006 10.994943897339722 55.176176072611405 10.98904242508293 L 55.176176072611405 10.98904242508293 C 55.16524821369905 11.02361095531405 55.15780687641351 11.060134664956395 55.151880987448706 11.092355505677709 C 55.01963825409534 11.66938312738118 54.81639749250602 12.235566966572524 54.78603946232884 12.831223154409923 C 54.78369730113028 13.37140089610744 54.86356919030381 13.908934262258198 54.987004632800875 14.433755276695146 C 55.088795815378454 14.857444129324483 55.23316213529776 15.26987734025375 55.397190585207994 15.673040494606031 C 55.40357670608416 15.719182544433961 55.44780411745001 15.750000115483596 55.49041035154251 15.750000115483596 C 55.51525320021132 15.750000115483596 55.539544599833185 15.739523044284224 55.55546245068539 15.71549792498745 C 55.59062573506822 15.652853866085493 55.59709616269091 15.57772319484567 55.62174321700304 15.51028701147727 C 55.80079692584529 14.891309642641954 55.90331577239083 14.251308106132088 55.93592820182552 13.607958255776605 C 55.95733658713178 13.265335637896575 55.96961865195348 12.921397281939619 55.95409054704424 12.578365569027268 C 55.91856930450812 12.08597178559821 55.807080772963374 11.604184067297634 55.72859441679627 11.118065838519788 C 55.719330809915746 11.069999936377704 55.71194176124075 11.020517865171028 55.69911009014251 10.973002951383284 C 55.92044985171751 10.966080584316106 56.141889583587556 10.959380271084038 56.36286125177198 10.950358988513196 C 56.44152635666942 10.889634174999358 56.39786605789905 10.783116516651399 56.375834355499634 10.705285265367133 C 56.187763510319975 10.031269872521323 56.00123736744141 9.356326644771126 55.8087917852945 8.683839829985274 C 55.993605533764125 8.676684352460487 56.17855104031849 8.67022313868988 56.36309712638521 8.661431741728414 C 56.44065564764793 8.600527718791636 56.3969884384885 8.494923613877338 56.373711483980564 8.418009140874965 C 56.17902693577838 7.761785696394282 55.98437095051765 7.10562260264472 55.789685941622864 6.449399618856643 C 55.98812283108434 6.444203927669125 56.18662421751037 6.439315979141057 56.38479759080238 6.432652521317307 C 56.45995267875021 6.383010129084452 56.42327786193376 6.2821170667383015 56.38833571000083 6.218950121730847 C 56.21171123325929 5.8188432021132686 56.03772191821242 5.417509227745031 55.854787334874366 5.020235337295535 C 55.98661037726552 4.965998918415941 56.11740100753119 4.909871356397073 56.24563156899663 4.848754493477261 C 56.59902656203517 5.179822019464641 56.90734739070178 5.577085313984245 57.049256376271536 6.045110531780271 C 57.13072018873807 6.323405719983459 57.136226847433264 6.6179933021258694 57.1077532803526 6.904873497003944 C 57.12324775470176 6.949430764274233 57.16162897692329 6.96607927359632 57.2031097389843 6.96607927359632 C 57.2385010662061 6.96607927359632 57.27614886580212 6.953960754649021 57.30376508394681 6.936716569790006 C 57.45129912621098 6.875836042176029 57.599053379539846 6.814999741052033 57.74673760759291 6.754149619149918 L 57.74673760759291 6.754149619149918 C 57.74555454898593 6.755431265974148 57.74413100883967 6.756383978279148 57.74296361378123 6.757687738348369 C 57.72128203776082 7.33724824798844 57.60630283835584 7.913163297053336 57.39528443388008 8.453862082085937 C 57.29805157427243 8.718662201841177 57.176014103482096 8.973372232184374 57.069541593009326 9.2343711772643 C 57.06340240336889 9.29122479082702 57.11627102590731 9.325031335491179 57.16775895271165 9.325031335491179 C 57.18573609950357 9.325031335491179 57.20354463280244 9.320909979456108 57.21861434857074 9.31220979963023 C 57.41383836781217 9.283391173789198 57.608231297596035 9.244647847180948 57.80287576554167 9.20748147135607 L 57.80287576554167 9.20748147135607 C 57.76400436638952 9.315276630294825 57.73715289796742 9.427962501917271 57.69366581961614 9.534167810679744 C 57.5277307933644 10.020357907503808 57.339912868424314 10.498614877687595 57.15917394603676 10.979371565940497 C 57.145781151346895 11.03621274080291 57.197065452020276 11.0859408218601 57.25011420536685 11.0859408218601 C 57.26417592571767 11.0859408218601 57.27836157237896 11.08244692915163 57.29149960405884 11.074664909685453 C 57.52705633939219 11.021939562546864 57.76680906296246 10.981827057519629 58.00785080443862 10.958850474589479 L 58.00785080443862 10.958850474589479 C 58.00223956852233 10.981588418750777 57.998103470323926 11.004526303502194 57.99558532455065 11.025131240907134 C 57.91615132369719 11.471584757868799 57.82866718028205 11.917109518540872 57.77244794043499 12.367257790186338 C 57.741862558457754 12.648231445188978 57.73679125427331 12.931324286169858 57.75475734444274 13.213340027842667 C 57.78026773669469 13.926161401490866 57.851976383272266 14.641640050078736 58.0429961218099 15.330786430809173 C 58.075207748679134 15.44816629937342 58.106309567065416 15.56684808523647 58.14442220549884 15.682003729908775 C 58.15891559481958 15.711649298973924 58.189467346236725 15.72590404952581 58.22012828180102 15.72590404952581 C 58.257535139165164 15.72590404952581 58.29510462101851 15.704686390957596 58.30387344404238 15.664313133916519 C 58.57905066470193 15.009247870642204 58.77851029174421 14.319825074349389 58.869264891954906 13.614326870333818 C 58.91963978542806 13.20486789085575 58.952098343533024 12.786190452372344 58.873510634993046 12.378108022394922 C 58.79434798208332 11.944142960541539 58.66561019806092 11.52114514681815 58.562627894755785 11.092591380290939 C 58.54558825741293 11.04305771151262 58.53712901981893 10.989209195805566 58.520170464374374 10.939508756304612 L 58.520170464374374 10.939508756304612 C 58.64346470458832 10.942601846447632 58.76655577936392 10.950990137380629 58.88931423407946 10.966870211439302 C 59.06051958372056 10.985019657265108 59.22987939879018 11.020791516577782 59.40116214478875 11.035981473115717 C 59.47378756964821 11.015409705578264 59.467621659836745 10.920292346408024 59.431825844508666 10.869689870788505 C 59.1921781588521 10.292636450299213 58.880655516587936 9.740813781651271 58.72726837479039 9.132001595122443 C 58.72522059616576 9.121966788822876 58.7220528738209 9.110568332415575 58.7194845125538 9.09968677310992 L 58.7194845125538 9.09968677310992 C 58.74822389926695 9.09996226728709 58.77698171368425 9.10054181858288 58.80581462099601 9.101809644628991 C 58.91504806224434 9.10979529022612 59.02341586208983 9.131965200406729 59.13202921109322 9.140964830425185 C 59.20864699805864 9.107181781083828 59.19007786127062 9.006501558720707 59.15396508943102 8.948962895255892 C 58.83599505417436 8.225772713170253 58.491411728571855 7.511930444711667 58.24537653996132 6.75981060986744 C 58.22258377338015 6.700900003828018 58.205916375661296 6.635400572166687 58.17178366063353 6.583376399171334 C 58.17006113098731 6.581932588550507 58.16790877514158 6.5812180543217575 58.16612266991601 6.579838279972882 C 58.36513680721025 6.496838979057337 58.564013658108514 6.413583533053987 58.76147019370875 6.327924193043148 C 58.80804160904358 6.248425695225132 58.729713731132236 6.172184754809754 58.671130216841625 6.1267231479578825 C 58.16485945079594 5.665498674381587 57.60779225754446 5.253017090728905 56.988636600671406 4.955605693270492 C 56.755107834180706 4.844207457476127 56.51775025145845 4.7378008260457225 56.272521274904854 4.655101436015359 C 56.25463119901508 4.600534009499816 56.229193135501944 4.546537150774284 56.21591136772963 4.492819702113057 C 56.15267163329075 4.311604884265606 56.099530741423386 4.124523837145566 56.01942781490897 3.950543966297084 L 56.01942781490897 3.950543966297084 C 56.0359418019907 3.954088880711443 56.0537415821301 3.9550330702032697 56.0716929301362 3.9550330702032697 C 56.092156895604326 3.9550330702032697 56.11281711612174 3.9538060154526087 56.131993445761786 3.9538060154526087 C 56.1384555809176 3.9538060154526087 56.14474910258036 3.953945374965308 56.15080997447813 3.954317960108765 C 56.19523778712671 3.954106041510941 56.23970660141703 3.9539665668250903 56.28420213587839 3.9539665668250903 C 56.74332055321566 3.9539665668250903 57.205295725390116 3.9688123859878632 57.654274759206714 4.07201939211058 C 57.66737178924484 4.0777802379500105 57.683627327775746 4.080789942731714 57.7001795523436 4.080789942731714 C 57.745620428028296 4.080789942731714 57.793297505612635 4.058106705817138 57.784005796483264 4.007389748085535 C 57.69679346170446 3.7337785367600107 57.573469737163855 3.4731793576871763 57.484445037681056 3.199990946998941 C 57.444657781632216 3.0884965416234986 57.40535379212494 2.9745809662679177 57.355657498857425 2.8681153661842065 C 57.3412585515205 2.862146920740113 57.326847165483265 2.8593105515506516 57.31187004892836 2.8593105515506516 C 57.306650401725435 2.8593105515506516 57.30136165063192 2.8596550344452663 57.29598122171021 2.8603315039476134 C 56.87479623338342 3.168000625339337 56.46152087637411 3.4884222938745673 56.02532468023972 3.775525003280358 C 55.97964286232315 3.7994789455698204 55.92059681265817 3.8455969242091914 55.95314704859132 3.9033690436510655 C 55.95328848122073 3.9036405067679523 55.95347598311055 3.9038078533563425 55.953618797817775 3.904076667490756 C 55.90163148023074 3.8942456024952934 55.84876516115534 3.8917856191632714 55.79563210106224 3.8917856191632714 C 55.74239999205929 3.8917856191632714 55.68890022065344 3.894254816347373 55.635749654241394 3.894254816347373 C 55.61608406905594 3.894254816347373 55.59646593520869 3.8939167831492134 55.57692704048932 3.8929905606689417 C 55.57382012956818 3.8929924034393575 55.57071275795444 3.8929930944782636 55.5676058470333 3.8929930944782636 C 55.55911712511264 3.8929930944782636 55.55062840319198 3.8929880268596198 55.54213968127132 3.8929880268596198 C 55.53903277035018 3.8929880268596198 55.53592539873644 3.8929887178985263 55.5328184878153 3.8929905606689417 C 55.53575079623953 3.8838149460757707 55.537073905398124 3.874055633953376 55.53635660701375 3.863977983241641 C 55.706477946957726 3.3563494409189127 55.87678264255808 2.8416129299961845 56.167557072017466 2.3878746536477458 C 56.202958995169155 2.341654113317417 56.17723484154896 2.261380107884685 56.12132564782437 2.2510673779742945 C 56.11749867436323 2.250361470934386 56.11353211104309 2.25 56.10943425033082 2.25 Z"
     style="fill:#ffffff;stroke:none"
     id="path8" />
  <path
     d="M 67.1254374340127 2.542654670692597 C 67.14925616328601 2.542654670692597 67.17431865511435 2.546242079342835 67.20062633338155 2.5534168743951255 C 67.3438548112392 2.5924790591166946 67.38508764016653 2.711836279735364 67.32432339627972 2.91148860299569 L 66.28265944150242 5.606794944761905 L 65.7748483480916 5.606794944761905 L 66.88161654477251 2.755238974181999 C 66.93830563304118 2.6135160977730023 67.0195795001019 2.542654670692597 67.1254374340127 2.542654670692597 ZM 67.98578010189561 2.760447496859336 C 68.01529365468211 2.760447496859336 68.0465436338405 2.7652218239509616 68.07953003937075 2.774770478134213 C 68.24446064313821 2.8225132150940198 68.27484276508162 2.9462106784595306 68.17067569325906 3.1458630017198566 L 67.22015774834102 5.606794944761905 L 66.71234594298825 5.606794944761905 L 67.71494742381758 2.989613372906165 C 67.77744809407628 2.8368361073761554 67.86772517880766 2.760447496859336 67.98578010189561 2.760447496859336 ZM 65.4144636981398 6.73605338707123 C 65.33354081845151 6.73605338707123 65.2409958426961 6.750258052496301 65.13682912684449 6.778667027375477 L 65.13682912684449 6.908875155211752 C 65.23966023963186 6.876156083876913 65.33305349419913 6.859796370224012 65.41700817860438 6.859796370224012 C 65.48896913325403 6.859796370224012 65.55399577348707 6.871815729889145 65.61208845527447 6.895853737277482 C 65.73795622912297 6.947936917217799 65.90505647592786 6.98265903717801 66.11338990763106 7.0000200971581155 L 66.04828566572745 6.934916211225461 C 65.85731364997531 6.865471971305039 65.70540410817117 6.809048437376955 65.592557040315 6.765645609441208 C 65.54126340397715 6.745917342537568 65.48189883792843 6.73605338707123 65.4144636981398 6.73605338707123 ZM 65.51443209241904 7.026062221084723 L 65.74880658013595 7.1041864570387485 C 65.66200128023542 7.138908932969926 65.58387668831043 7.164950700925567 65.51443209241904 7.182312116876639 C 65.56651527235935 7.138909288940892 65.56651527235935 7.086826109000575 65.51443209241904 7.026062221084723 ZM 65.31912043462108 7.026062221084723 C 65.29307866666544 7.0781450450540735 65.30175901867001 7.134568578982158 65.34516184660575 7.195332822868976 C 65.27571760668533 7.177971406917905 65.22363442674502 7.160609990966833 65.1889123067848 7.1432489309867275 C 65.19759265878938 7.099846814992913 65.24099548672513 7.060784341044934 65.31912043462108 7.026062221084723 ZM 65.38422432055373 6.934916211225461 C 65.27137725269756 6.934916211225461 65.19325266077257 6.9783190391612075 65.14984983283682 7.0651239830907695 L 65.03266276696385 7.130228936936322 L 65.01964170500055 7.195332822868976 L 65.13682912684449 7.221374234853651 C 65.20048634677154 7.260275809925023 65.27711087704604 7.279726419475226 65.36670236169702 7.279726419475226 C 65.49701763679404 7.279726419475226 65.65476759423645 7.23857439595715 65.83995223402424 7.156270348920997 L 66.12640990168147 7.156270348920997 L 66.12640990168147 7.0651239830907695 L 65.8269315280319 7.0651239830907695 C 65.64464022025531 6.9783190391612075 65.49707103243894 6.934916211225461 65.38422432055373 6.934916211225461 ZM 67.74098954774418 5.854189782500184 L 66.85557477681687 7.4817904905262 C 66.79770493285415 7.562808414462394 66.74369310222035 7.603317198445008 66.69353857297351 7.603317198445008 C 66.66846148633559 7.603317198445008 66.6443487250444 7.593189824463871 66.62120028909996 7.572935432472564 L 66.33474262144273 7.390644836637905 C 66.3521040373938 7.329880948722052 66.42154792134326 7.238735294833757 66.54307569717497 7.117207874973018 C 66.66460347300668 6.995680099141313 66.69064524096231 6.850280910333335 66.62120028909996 6.681010664520047 C 66.581949506511 6.585336348002999 66.50664705240402 6.537499189744475 66.39529328274999 6.537499189744475 C 66.3096363451856 6.537499189744475 66.20264784748696 6.565804933043526 66.07432672174116 6.622416775612596 C 65.79692709128337 6.455977210920503 65.55209168479023 6.372757250588974 65.33982050226174 6.372757250588974 C 65.31960419916379 6.372757250588974 65.29968335196759 6.373511909036777 65.2800579606731 6.37502158190335 C 65.26269690069299 6.175369214146654 65.23231477874958 6.001758614345598 65.1889123067848 5.854189782500184 ZM 65.24355029034771 6.595833219846786 C 65.465732772481 6.595833219846786 65.75567931157545 6.691500060973549 66.11338990763106 6.8828333872561105 C 66.1915141435851 6.7960277313846165 66.26963873551009 6.75262490344887 66.34776368340604 6.75262490344887 C 66.42588827533103 6.75262490344887 66.46712074828741 6.791687377396849 66.47146074630422 6.869811969321841 C 66.47580145626294 6.9479372731887645 66.40635686037156 7.049933634060997 66.26312802654294 7.175801051938538 C 66.11989990465626 7.301668825787044 66.05262566374425 7.408005540647045 66.06130601574881 7.494811196518538 L 66.10036884566776 7.50783154653991 C 66.07432707771211 7.698803206321071 65.98752142184063 7.848542393145852 65.83995223402424 7.957049462985219 C 65.69238304620787 8.065556176853619 65.49273103442214 8.124149709790105 65.24099548672513 8.13282970582371 C 65.22363407077405 8.13374348329329 65.20728290042433 8.134200194042599 65.19194126373404 8.134200194042599 C 65.06154126754711 8.134200194042599 65.0041081999596 8.101191362341481 65.01964170500055 8.035174054910211 C 65.03700276498066 7.961389461002021 65.02398205898832 7.898455574077768 64.98057958702354 7.846372038166485 L 64.98057958702354 7.846372038166485 C 65.00699904017405 7.847127052585254 65.03179384183598 7.847504381809156 65.05496434798032 7.847504381809156 C 65.29824772106193 7.847504381809156 65.36242857427989 7.805894579628874 65.24750619569225 7.722674975268311 C 65.16224047021944 7.660930743312246 65.09390507985793 7.630058805319696 65.04249931266581 7.630058805319696 C 65.01802061322164 7.630058805319696 64.99738070467421 7.637059330335972 64.98057958702354 7.651060024397556 C 65.01530135101278 7.520852252532247 64.94585711109237 7.451408012611825 64.7722465112913 7.442727304636289 C 64.96321817107247 7.121547517018854 65.11078735888884 6.8394305593203635 65.21495371876948 6.596375719598886 C 65.22435775974782 6.596014053097486 65.23388995027389 6.595833219846786 65.24355029034771 6.595833219846786 ZM 66.17849379356372 7.559915082451193 L 66.5560964031673 7.794288858226168 C 66.58213852709392 8.193593949710529 66.66460382897763 8.471370909392217 66.80349230881848 8.6276200932422 C 66.72908796945859 8.617699894363245 66.65893534731593 8.612739794923765 66.59303444239052 8.612739794923765 C 66.54360787376906 8.612739794923765 66.49657343003874 8.615529895354843 66.45193039925763 8.621110096216997 C 66.34776368340604 8.634130802209334 66.24793732154221 8.684044339112216 66.15245166963712 8.77084999498371 C 66.05696566176104 8.493072323360089 65.94845894789265 8.271718897606485 65.8269315280319 8.106789005780966 C 66.05262530777328 7.941858402013514 66.16981272961722 7.759567094236923 66.17849379356372 7.559915082451193 ZM 62.286936430602964 10.329554302405894 C 62.476030521524244 10.329554302405894 62.65342722851909 10.421963653223294 62.81912637360202 10.606782354858096 C 62.506627293960115 10.61546306283363 62.29829439621337 10.715289424697461 62.19412794733999 10.906260728507657 C 62.10732273643221 10.689247300770855 61.99881602256381 10.567720236881081 61.868607983720274 10.541678824896406 C 61.73839994487674 10.5156367009698 61.807844273789904 10.457043168033314 62.07694079247428 10.365897514145018 C 62.14847280210997 10.341668706318936 62.21847137781711 10.329554302405894 62.286936430602964 10.329554302405894 ZM 66.68630453100359 8.914078472841357 C 67.02484502263016 8.914078472841357 67.23751845235016 9.105049776651551 67.32432339627972 9.486993808155805 C 67.44585117211142 10.016506315534507 67.46321187612057 10.841156486604037 67.376406932191 11.960946457190191 C 67.27224057231037 13.245664895718 67.1507135084206 14.309030620434138 67.01182502857975 15.151041495512807 L 67.16807421242973 15.38541562725875 L 62.84516814155766 15.38541562725875 L 63.74360326250635 15.020834435589432 C 63.48318736280476 13.744795993095225 63.15766722119956 12.809468753177928 62.7670431936617 12.214851291953673 C 62.37641925511659 11.620235254613283 62.311315191198446 11.23612193604256 62.57173117989277 11.062510624299573 C 62.65440294493675 11.007395639642302 62.73663722166357 10.979838503284633 62.81843418805874 10.979838503284633 C 62.99429755011778 10.979838503284633 63.168138997090246 11.107222713448065 63.33995852897615 11.361988997949135 L 65.09776665289651 13.861982347026265 L 65.4102657325384 13.835940935041588 C 65.60123774829053 11.891501505327836 65.80523011406403 10.441852463032575 66.02224354180083 9.486993808155805 C 66.12641025765244 9.105049776651551 66.34776403937701 8.914078472841357 66.68630453100359 8.914078472841357 ZM 67.06231737427326 2.25 C 66.8120708531268 2.25 66.6433306480818 2.396711658365488 66.5560964031673 2.6901349547602322 L 65.43630750049405 5.606794944761905 L 64.87641287117194 5.606794944761905 C 64.98057958702354 5.954016500334982 65.03266276696385 6.262175225989113 65.03266276696385 6.531271833666231 C 64.971898879048 6.774326317416744 64.85688181218343 7.017381513109187 64.68761156637015 7.26043670880163 C 64.5241778205145 7.495110212129932 64.55698018905537 7.612447141779565 64.78601796005083 7.612447141779565 C 64.79419781687727 7.612447141779565 64.80262827726375 7.612297633973869 64.81130898523928 7.611998262391509 L 64.81130898523928 7.611998262391509 C 64.7505454532944 7.698803562292037 64.75922580529897 7.750887098203319 64.83735075319493 7.768248158183424 C 64.76790651327451 7.802970278143635 64.75922580529897 7.839862397112248 64.81130898523928 7.878924515089261 C 64.8633921651796 7.917986633066274 64.88509357914748 8.002621933958402 64.87641287117194 8.13282970582371 C 64.85037145918726 8.514773737327964 64.74837509831504 8.825102817961461 64.57042450049717 9.063817659666137 C 64.42434505117328 9.259777540593085 64.29142762831519 9.357757125085595 64.17167151998099 9.357757125085595 C 64.1455425391387 9.357757125085595 64.12004042316742 9.353093193489784 64.09516481609623 9.343764618356227 C 64.03343695880459 9.320616538382753 63.98199701839974 9.309043210337947 63.94084499488166 9.309043210337947 C 63.88940452052036 9.309043210337947 63.85403916102469 9.327127247349887 63.83474891639464 9.363296745257632 C 63.80002679643443 9.42840027521932 63.845599623378575 9.495673804189408 63.97146775319805 9.565118756051763 C 64.01622042303666 9.589810326133573 64.06920349757888 9.602155399232547 64.13041733279569 9.602155399232547 C 64.24136707540337 9.602155399232547 64.3793556606423 9.561598203198567 64.54438237657057 9.480483099188671 C 64.80045827825535 9.354615325340163 65.03266276696385 8.966162008752638 65.24099548672513 8.315121725542232 L 65.60557774630733 8.315121725542232 C 65.71842481416351 8.419287373480934 65.80523011406403 8.571197271256047 65.86599400197989 8.77084999498371 C 65.55349456636702 9.777791473829831 65.29741902065321 11.253481928109768 65.09776665289651 13.197922069765452 L 63.33995852897615 10.723969420731066 C 63.24447269908557 10.576400232914686 63.122945101239345 10.454873169024912 62.97537609140845 10.359387517119815 C 62.810902732346754 10.153795773796325 62.605852242876985 10.050999902134581 62.36022444501366 10.050999902134581 C 62.29472365145397 10.050999902134581 62.22633735724434 10.058310121891228 62.155065562384756 10.072929849462591 L 62.155065562384756 7.273457058823002 C 62.155065562384756 6.89151373926068 62.0205172585462 6.696201725491751 61.75142073986182 6.687521017516215 C 61.91635089866556 6.435785469819202 62.1290239724146 6.20141133807326 62.38944005010166 5.984398266307425 C 62.463542170111474 5.852072823165709 62.46179933626221 5.785909923609368 62.38421145956112 5.785909923609368 C 62.334555200673876 5.785909923609368 62.25383299961764 5.813009993246764 62.142044767399675 5.867210488492521 C 61.864267718725245 6.092904268233894 61.67329592545497 6.257834516030379 61.56912952107797 6.362001587852944 C 61.35211618233391 6.587695367594316 61.22841869672021 6.754795614399203 61.19803701974051 6.863301972296638 C 61.167654942293474 6.971809042136005 61.08735990639637 7.256096354813862 60.957151889801025 7.716164266301177 C 60.96199295414858 7.8565552995892745 60.98438286498013 7.926750994218807 61.02432162542431 7.926750994218807 C 61.05599722905499 7.926750994218807 61.098711331040285 7.88259671157395 61.15246390356995 7.794288858226168 C 61.187186045778354 7.681442502311931 61.23492898297182 7.538213668483319 61.29569271515038 7.364602356740332 C 61.35645644732894 7.190991756939276 61.473643646691016 7.065124339061736 61.64725433548482 6.9869997471367435 C 61.79482347880482 6.9869997471367435 61.868607983720274 7.0824853990418415 61.868607983720274 7.273457058823002 L 61.868607983720274 10.125013385373874 C 61.36513697731899 10.394109637080026 61.224078409477 10.576400232914686 61.44543223569794 10.671886596761714 C 61.65074351839664 10.760452885030773 61.816848203402515 10.916229339437981 61.94374651319743 11.139218095809138 L 61.9437464242047 11.139218095809138 C 62.006520480165236 11.568843014317865 62.18329646278822 12.029384011218921 62.47407481703734 12.52084037457037 C 62.782234076647924 13.041671462031605 63.062181391308975 13.80555881309818 63.31391693900599 14.812500291944302 L 62.32433598618353 15.242187149401103 L 62.38944005010166 15.749999666695796 L 67.94932226750545 15.749999666695796 L 67.376406932191 15.072918683442646 C 67.65418389187269 12.373271898695922 67.75183954278619 10.648015183785441 67.66937530881536 9.897149250653136 C 67.58690965096066 9.146282605578897 67.39810763421694 8.731787165064766 67.10296997052612 8.653662217168808 C 66.89463760673581 8.445329497407542 66.81217266082305 8.219635361695204 66.85557477681687 7.976580877944691 L 67.18109491842208 7.390644836637905 C 67.69324672179164 7.763907804195657 67.94932226750545 8.26737818764775 67.94932226750545 8.901057054907087 L 67.94932226750545 15.749999666695796 L 68.23577993516267 15.749999666695796 L 68.23577993516267 8.901057054907087 C 68.23577993516267 8.145851123757978 67.92762085353758 7.555574728463425 67.31130269028738 7.130228936936322 L 68.15765498726671 5.606794944761905 L 67.55869895190952 5.606794944761905 L 68.48317477290095 3.210967065637994 C 68.61338396865013 2.881106703534135 68.5547897237717 2.6684336297851003 68.3073941740915 2.572947755398149 C 68.18907512054682 2.527280596148026 68.07820155572585 2.504447016522964 67.97477347962858 2.504447016522964 C 67.86194278643686 2.504447016522964 67.75797292252942 2.531620861143052 67.66286459984822 2.585968550383228 C 67.60210106790333 2.394996801609326 67.42632046909388 2.2843200998566164 67.13552209147792 2.253938442691705 C 67.11039125322414 2.2513128142305683 67.08598944350861 2.25 67.06231737427326 2.25 Z"
     style="fill:#ffffff;stroke:none"
     id="path10" />
  <path
     d="M 76.27656329192259 2.25 C 76.16757133569412 2.25 76.05806087699531 2.26349417587429 75.94803077542485 2.2904825276228697 C 75.72797057228391 2.344459762713357 75.48922603378952 2.466946099731973 75.23179754007546 2.6579415119505616 L 70.05000853538513 2.6579415119505616 L 70.05000853538513 3.803914080295539 L 75.23179754007546 3.803914080295539 C 75.48922603378952 3.9949094449974054 75.72797057228391 4.117395580069953 75.94803077542485 4.171372295446293 C 76.05806087699531 4.1983608432013515 76.16757133569412 4.211855212112324 76.27656329192259 4.211855212112324 C 76.38555524815104 4.211855212112324 76.49402794164162 4.1983608432013515 76.60198213266185 4.171372295446293 C 76.81788975443476 4.117395580069953 77.03379813647523 3.9949094449974054 77.24970575824814 3.803914080295539 L 77.44900533535161 3.803914080295539 C 77.65660931492359 3.9949094449974054 77.87044140628004 4.117395580069953 78.09050160942097 4.171372295446293 C 78.20053133085767 4.1983608432013515 78.31056105229436 4.211855212112324 78.42059077373105 4.211855212112324 C 78.53062049516774 4.211855212112324 78.64065021660443 4.1983608432013515 78.75067993804113 4.171372295446293 C 78.97074014118206 4.117395580069953 79.20533285857599 3.9949094449974054 79.45445732995532 3.803914080295539 L 84.68607122892152 3.803914080295539 L 84.68607122892152 2.6579415119505616 L 79.45445732995532 2.6579415119505616 C 79.20533285857599 2.466946099731973 78.97074014118206 2.344459762713357 78.75067993804113 2.2904825276228697 C 78.64065021660443 2.26349417587429 78.53062049516774 2.25 78.42059077373105 2.25 C 78.31056105229436 2.25 78.20053133085767 2.26349417587429 78.09050160942097 2.2904825276228697 C 77.87044140628004 2.344459762713357 77.65660931492359 2.466946099731973 77.44900533535161 2.6579415119505616 L 77.24970575824814 2.6579415119505616 C 77.03379813647523 2.466946099731973 76.81788975443476 2.344459762713357 76.60198213266185 2.2904825276228697 C 76.49402794164162 2.26349417587429 76.38555524815104 2.25 76.27656329192259 2.25 Z"
     style="fill:#ffffff;stroke:none"
     id="path12" />
  <path
     d="M 76.27656329192259 7.268766403198242 C 76.16757133569412 7.268766403198242 76.05806087699531 7.282260579072532 75.94803077542485 7.309248930821112 C 75.72797057228391 7.363226165911599 75.48922603378952 7.485712502930215 75.23179754007546 7.676707915148804 L 70.05000853538513 7.676707915148804 L 70.05000853538513 8.82268048349378 L 75.23179754007546 8.82268048349378 C 75.48922603378952 9.013675848195648 75.72797057228391 9.136161983268195 75.94803077542485 9.190138698644535 C 76.05806087699531 9.217127246399594 76.16757133569412 9.230621615310566 76.27656329192259 9.230621615310566 C 76.38555524815104 9.230621615310566 76.49402794164162 9.217127246399594 76.60198213266185 9.190138698644535 C 76.81788975443476 9.136161983268195 77.03379813647523 9.013675848195648 77.24970575824814 8.82268048349378 L 77.44900533535161 8.82268048349378 C 77.65660931492359 9.013675848195648 77.87044140628004 9.136161983268195 78.09050160942097 9.190138698644535 C 78.20053133085767 9.217127246399594 78.31056105229436 9.230621615310566 78.42059077373105 9.230621615310566 C 78.53062049516774 9.230621615310566 78.64065021660443 9.217127246399594 78.75067993804113 9.190138698644535 C 78.97074014118206 9.136161983268195 79.20533285857599 9.013675848195648 79.45445732995532 8.82268048349378 L 84.68607122892152 8.82268048349378 L 84.68607122892152 7.676707915148804 L 79.45445732995532 7.676707915148804 C 79.20533285857599 7.485712502930215 78.97074014118206 7.363226165911599 78.75067993804113 7.309248930821112 C 78.64065021660443 7.282260579072532 78.53062049516774 7.268766403198242 78.42059077373105 7.268766403198242 C 78.31056105229436 7.268766403198242 78.20053133085767 7.282260579072532 78.09050160942097 7.309248930821112 C 77.87044140628004 7.363226165911599 77.65660931492359 7.485712502930215 77.44900533535161 7.676707915148804 L 77.24970575824814 7.676707915148804 C 77.03379813647523 7.485712502930215 76.81788975443476 7.363226165911599 76.60198213266185 7.309248930821112 C 76.49402794164162 7.282260579072532 76.38555524815104 7.268766403198242 76.27656329192259 7.268766403198242 Z"
     style="fill:#ffffff;stroke:none"
     id="path14" />
  <path
     d="M 82.34427537793835 12.906427488750706 Q 82.04318781613966 13.207513285464941 82.04318781613966 14.010403131306198 Q 82.04318781613966 14.830018374260561 82.34427537793835 15.131103401579011 L 72.40849898502074 15.131103401579011 Q 72.709583288202 14.830018374260561 72.709583288202 14.010403131306198 Q 72.709583288202 13.207513285464941 72.40849898502074 12.906427488750706 ZM 70.48490805425232 12.287532806396484 Q 70.05000853538513 12.287532806396484 70.0667354387602 12.571889404277266 Q 70.05000853538513 12.906427488750706 70.48490805425232 12.906427488750706 L 71.57215526737014 12.906427488750706 Q 71.97360480666548 13.207513285464941 71.97360480666548 14.010403131306198 Q 71.97360480666548 14.830018374260561 71.57215526737014 15.131103401579011 L 70.5016357142942 15.131103401579011 Q 70.05000853538513 15.131103401579011 70.05000853538513 15.415461583509938 Q 70.05000853538513 15.749999577466227 70.48490805425232 15.749999577466227 L 84.26786766646404 15.749999577466227 Q 84.68607138732654 15.749999577466227 84.68607138732654 15.415461583509938 Q 84.68607138732654 15.131103401579011 84.25113864866489 15.131103401579011 L 83.18062054386337 15.131103401579011 Q 82.77917190973955 14.830018374260561 82.77917190973955 14.010403131306198 Q 82.77917190973955 13.207513285464941 83.18062054386337 12.906427488750706 L 84.26786766646404 12.906427488750706 Q 84.68607138732654 12.906427488750706 84.68607138732654 12.571889404277266 Q 84.68607138732654 12.287532806396484 84.26786766646404 12.287532806396484 Z"
     style="fill:#ffffff;stroke:none"
     id="path16" />
  <path
     d="M 88.02403551833555 2.9892379897054955 C 88.30165361953856 2.9892379897054955 88.64150892926475 3.095985977015074 88.74059961599143 3.340333519869274 L 88.70411800089698 11.279334014803599 L 88.70411800089698 11.279334014803599 C 88.56330720956814 10.960512872387417 88.14500883615354 10.367342335933275 86.90256401327953 9.632436990092634 L 87.84582482308883 3.06154244747758 C 87.89007635402646 3.0145252182361735 87.88891618409549 2.9892379897054955 88.02403551833555 2.9892379897054955 ZM 88.70411800089698 11.279334014803599 L 88.70411800089698 11.279334014803599 C 88.70411800089698 11.279334014803599 88.70411817993555 11.279334014803599 88.70411817993555 11.279334014803599 L 88.70411800089698 11.279334014803599 L 88.70411800089698 11.279334014803599 ZM 87.89202805347358 2.25 C 87.67952269925998 2.25 87.48771859013623 2.280338063237631 87.35192123683312 2.317373030601139 L 86.18607068061829 10.098160711168036 C 86.80278944397665 10.520569989179059 88.49762547800457 11.67797341616124 88.43004056644624 12.683307927520042 L 88.4426781829195 15.75000086141948 L 89.30345480472646 15.73816856043225 L 89.2986275668131 3.119482909369111 C 89.04266221117804 2.427915471835376 88.40664649175042 2.25 87.89202805347358 2.25 Z"
     style="fill:#ffffff;stroke:none"
     id="path18" />
  <path
     d="M 103.69668895951993 3.9645258089858895 L 103.69668895951993 5.656191273851967 L 91.23780141422247 5.656191273851967 L 91.23780141422247 3.9645258089858895 ZM 91.2835221024621 2.25 L 91.2835221024621 3.530179270709464 L 90.80345487594604 3.530179270709464 L 90.80345487594604 6.090537812128392 L 104.13103549779636 6.090537812128392 L 104.13103549779636 3.530179270709464 L 103.74240964775956 3.530179270709464 L 103.74240964775956 2.25 L 103.30806310948313 2.25 L 103.30806310948313 3.530179270709464 L 102.23362693585197 3.530179270709464 L 102.23362693585197 2.25 L 101.79928039757554 2.25 L 101.79928039757554 3.530179270709464 L 100.72484422394439 3.530179270709464 L 100.72484422394439 2.25 L 100.29049768566797 2.25 L 100.29049768566797 3.530179270709464 L 99.23892185615662 3.530179270709464 L 99.23892185615662 2.25 L 98.78171497376039 2.25 L 98.78171497376039 3.530179270709464 L 97.73013914424904 3.530179270709464 L 97.73013914424904 2.25 L 97.29579260597261 2.25 L 97.29579260597261 3.530179270709464 L 96.22135643234145 3.530179270709464 L 96.22135643234145 2.25 L 95.78700989406504 2.25 L 95.78700989406504 3.530179270709464 L 94.71257372043387 3.530179270709464 L 94.71257372043387 2.25 L 94.27822718215745 2.25 L 94.27822718215745 3.530179270709464 L 93.2266513526461 3.530179270709464 L 93.2266513526461 2.25 L 92.79230481436967 2.25 L 92.79230481436967 3.530179270709464 L 91.71786864073852 3.530179270709464 L 91.71786864073852 2.25 Z"
     style="fill:#ffffff;stroke:none"
     id="path20" />
  <path
     d="M 92.08363414665551 7.535655545683198 L 91.80931001721777 8.130024492798306 L 90.94061694066491 10.073153742982315 L 90.80345487594604 10.347477872420058 L 91.37496347894134 10.6218020018578 L 91.51212554366022 10.324617528300244 L 92.10649449077532 8.975857225231346 L 92.40367896433287 9.50164513998702 L 92.67800309377061 10.050293398862504 L 92.95232722320836 9.50164513998702 L 93.27237204088573 8.930136536991721 L 93.56955651444328 9.50164513998702 L 93.84388064388102 10.050293398862504 L 94.11820477331877 9.50164513998702 L 94.41538924687632 8.930136536991721 L 94.73543406455369 9.50164513998702 L 95.00975819399143 10.050293398862504 L 95.28408232342917 9.50164513998702 L 95.58126679698672 8.952996881111535 L 95.87845127054428 9.50164513998702 L 96.17563574410184 10.050293398862504 L 96.44995987353957 9.50164513998702 L 96.74714434709713 8.930136536991721 L 97.04432882065468 9.50164513998702 L 97.34151329421223 10.050293398862504 L 97.61583742364998 9.50164513998702 L 97.91302189720753 8.930136536991721 L 98.21020637076509 9.50164513998702 L 98.50739084432264 10.050293398862504 L 98.78171497376039 9.50164513998702 L 99.07889944731794 8.930136536991721 L 99.37608392087549 9.50164513998702 L 99.65040805031323 10.050293398862504 L 99.94759252387078 9.50164513998702 L 100.24477699742835 8.930136536991721 L 100.5419614709859 9.50164513998702 L 100.81628560042364 10.050293398862504 L 101.11347007398119 9.50164513998702 L 101.41065454753874 8.930136536991721 L 101.73069936521611 9.52450548410683 L 102.00502349465386 10.02743305474269 L 102.3022079682114 9.52450548410683 L 102.62225278588878 8.90727619287191 L 103.42236483008219 10.347477872420058 L 103.58238723892087 10.6218020018578 L 104.13103549779636 10.324617528300244 L 103.99387343307748 10.050293398862504 L 102.89657691532652 8.084303804558683 L 102.62225278588878 7.604236578042634 L 102.34792865645103 8.107164148678494 L 102.00502349465386 8.701533095793604 L 101.68497867697648 8.107164148678494 L 101.38779420341893 7.581376233922822 L 101.13633041810101 8.107164148678494 L 100.81628560042364 8.67867275167379 L 100.51910112686609 8.107164148678494 L 100.24477699742835 7.55851588980301 L 99.9704528679906 8.107164148678494 L 99.67326839443305 8.67867275167379 L 99.35322357675568 8.107164148678494 L 99.07889944731794 7.55851588980301 L 98.8045753178802 8.107164148678494 L 98.48453050020282 8.67867275167379 L 98.18734602664527 8.107164148678494 L 97.91302189720753 7.55851588980301 L 97.6386977677698 8.107164148678494 L 97.34151329421223 8.67867275167379 L 97.02146847653486 8.107164148678494 L 96.74714434709713 7.55851588980301 L 96.47282021765939 8.107164148678494 L 96.17563574410184 8.655812407553979 L 95.87845127054428 8.107164148678494 L 95.58126679698672 7.55851588980301 L 95.30694266754898 8.107164148678494 L 95.00975819399143 8.67867275167379 L 94.71257372043387 8.107164148678494 L 94.41538924687632 7.55851588980301 L 94.14106511743857 8.107164148678494 L 93.84388064388102 8.67867275167379 L 93.54669617032347 8.107164148678494 L 93.27237204088573 7.55851588980301 L 92.97518756732818 8.107164148678494 L 92.67800309377061 8.67867275167379 L 92.38081862021306 8.107164148678494 L 92.08363414665551 7.535655545683198 Z"
     style="fill:#ffffff;stroke:none"
     id="path22" />
  <path
     d="M 92.00837776940693 13.918375097182933 Q 91.93223420891593 13.918375097182933 91.86041368144286 13.941610999568281 Q 91.57965878168511 14.032443800654105 91.61268879140914 14.21410867123977 Q 91.64063720489978 14.367824213852318 91.86368633988664 14.367824213852318 Q 91.90424107723211 14.367824213852318 91.95124565949445 14.362742617618931 Q 92.256772609304 14.329713339480882 92.48798203723446 14.115018642067684 Q 92.22988746459045 13.918375097182933 92.00837776940693 13.918375097182933 ZM 92.15141096784998 13.75132182762971 Q 92.74744997966384 13.75132182762971 93.99084437043737 14.461832829687513 Q 94.61457263140763 14.784835173857392 95.35848766652293 14.784835173857392 Q 95.71761846994859 14.784835173857392 96.10475987167337 14.709557719721237 Q 97.07914351246377 14.511377478480567 98.15261645084028 14.362742617618931 Q 98.51719135135357 14.312263184836933 98.8589078478484 14.312263184836933 Q 99.5233583793541 14.312263184836933 100.10138300083511 14.503120067497807 Q 100.97667588086745 14.792132378238321 101.5546997707625 14.874707036755403 Q 102.13272366065753 14.957281878168981 103.38786110382672 15.023341897617039 Q 102.57862824324245 15.10591655613412 101.80242429500322 15.10591655613412 Q 101.02622107834999 15.10591655613412 99.969262961939 14.932509096531215 Q 99.4407835379405 14.845805732522752 98.9515280963856 14.845805732522752 Q 98.46227119165873 14.845805732522752 98.01223826937543 14.932509096531215 Q 97.11217315639482 15.10591655613412 95.96438315338048 15.254551234099262 Q 95.67743537828215 15.29170994931467 95.40029341589822 15.29170994931467 Q 94.56886826033241 15.29170994931467 93.82569432181722 14.957281878168981 Q 93.1040972315759 14.464762831546818 92.32689320529882 14.464762831546818 Q 91.9834770516705 14.464762831546818 91.62920416206414 14.560922858859602 Q 91.31541920685824 14.544407488204596 91.34844926230639 14.21410867123977 Q 91.53011408716793 13.768204271551358 92.1246532105456 13.751688900896353 Q 92.13786492180083 13.75132182762971 92.15141096784998 13.75132182762971 ZM 92.59291158571764 12.066919571216374 Q 92.23564358309956 12.066919571216374 91.92647370089092 13.15715055482878 Q 91.66781050304212 12.194349257569565 91.25910052910989 12.194349257569565 Q 91.19809910666089 12.194349257569565 91.1337551593068 12.215797209538179 Q 90.63830614511842 12.529581421727073 91.46405397627163 13.421390083931527 Q 90.80345556503187 13.801234281275388 90.80345556503187 14.37925817117043 Q 90.80345556503187 14.957281878168981 91.77783893147753 15.023341897617039 Q 92.07912131086573 14.944316894286308 92.36637123097476 14.944316894286308 Q 93.03961323123032 14.944316894286308 93.63577295473128 15.378413496219629 Q 94.1460854527196 15.750000282580729 95.25391037669024 15.750000282580729 Q 95.99245922862504 15.750000282580729 96.9965686710502 15.584850965546565 Q 98.22982437748736 15.237623431846707 99.39363428455016 15.237623431846707 Q 99.83507911898667 15.237623431846707 100.26653195207629 15.287581243823292 Q 101.34516696114424 15.412475407971758 102.1037594400304 15.412475407971758 Q 102.44857347157449 15.412475407971758 102.72726310410408 15.386670907202388 Q 104.1310354081349 15.353641629064342 104.1310354081349 15.122431195203145 Q 103.75119011341206 14.775617007583314 103.05756173817241 14.660012339342202 Q 101.58773014627951 14.64349770027318 100.37387975802413 14.148048651791713 Q 99.76695456389643 13.900324127550979 98.88546807693754 13.900324127550979 Q 98.00398158997865 13.900324127550979 96.84793381018856 14.148048651791713 Q 96.10243854935138 14.336164098880236 95.45981890935195 14.336164098880236 Q 94.57919057275035 14.336164098880236 93.89175434126528 13.98289842027507 Q 93.1816113269566 13.553509482689911 92.38889273964836 13.27275531451814 Q 93.04949110516398 12.760790895381668 93.0082038673537 12.422233981572225 Q 92.9669164466469 12.083677063476147 92.60358688837206 12.06716242869376 Q 92.59824393304649 12.066919571216374 92.59291158571764 12.066919571216374 Z"
     style="fill:#ffffff;stroke:none"
     id="path24" />
  <path
     d="M 40.9532527923584 0.375 C 31.328252851963043 0.375 31.328252851963043 17.625 40.9532527923584 17.625 "
     style="fill:none;stroke:#ffffff;stroke-width:1"
     id="path26" />
  <path
     d="M 40.9532527923584 0.375 L 104.13103675842285 0.375 "
     style="fill:none;stroke:#ffffff;stroke-width:1"
     id="path28" />
  <path
     d="M 40.9532527923584 17.625 L 104.13103675842285 17.625 "
     style="fill:none;stroke:#ffffff;stroke-width:1"
     id="path30" />
  <path
     d="M 111.81853675842285 0.375 L 111.81853675842285 17.625 "
     style="fill:none;stroke:#ffffff;stroke-width:1"
     id="path32" />
  <path
     d="M 104.13103675842285 0.375 C 113.75603866577148 0.375 113.75603866577148 17.625 104.13103675842285 17.625 "
     style="fill:none;stroke:#ffffff;stroke-width:1"
     id="path34" />
</svg>
