<?xml version="1.0" encoding="UTF-8" standalone="no"?>
<svg
   width="72.27613067626953"
   height="18.0"
   version="1.1"
   id="svg26"
   sodipodi:docname="sahura.svg"
   inkscape:version="1.1.1 (3bf5ae0d25, 2021-09-20)"
   xmlns:inkscape="http://www.inkscape.org/namespaces/inkscape"
   xmlns:sodipodi="http://sodipodi.sourceforge.net/DTD/sodipodi-0.dtd"
   xmlns="http://www.w3.org/2000/svg"
   xmlns:svg="http://www.w3.org/2000/svg">
  <defs
     id="defs30" />
  <sodipodi:namedview
     id="namedview28"
     pagecolor="#ffffff"
     bordercolor="#666666"
     borderopacity="1.0"
     inkscape:pageshadow="2"
     inkscape:pageopacity="0.0"
     inkscape:pagecheckerboard="0"
     showgrid="false"
     inkscape:zoom="19.024261"
     inkscape:cx="36.164348"
     inkscape:cy="9.0148047"
     inkscape:window-width="1920"
     inkscape:window-height="1001"
     inkscape:window-x="-9"
     inkscape:window-y="-9"
     inkscape:window-maximized="1"
     inkscape:current-layer="svg26" />
  <path
     d="M 1.2190420140847793 0.0 C 0.970800706632417 0.0 0.7230423028937335 0.01893070358296025 0.48290982680079 0.048905678499779795 C 0.15187998957905166 0.13255188916498697 0.3219916247400915 0.5118521231009919 0.6158947927962716 0.5118521231009919 C 0.6355981423211179 0.5118521231009919 0.6558578408244597 0.5101473851910305 0.6765601864318946 0.5065345630073116 C 1.2976180869590601 0.5780119512905144 2.0622053316712337 0.6175539511807123 2.531371224901928 0.9695623988344474 C 3.1537543888207784 1.6479367557428735 2.8741262715941502 3.0576933712068692 2.94658764204448 3.7269297850416896 C 2.951782632395561 3.7629649381631523 2.953952713884158 6.430591781037886 2.953952713884158 7.782422252231933 C 2.352510186605274 7.494257626556917 1.67335422808609 7.349215125535265 1.0039192969246102 7.349215125535265 C 0.7063920462481148 7.349215125535265 0.41078504023889434 7.377865539465801 0.12477432975315178 7.4353349446232855 C -0.20149863151174055 7.606724672263251 0.18154647682350566 7.8266562324049085 0.4376378670454302 7.8266562324049085 C 0.4681373192956425 7.8266562324049085 0.4968360674978842 7.823536850015894 0.5223214865886322 7.816844331348357 C 1.429843884416301 7.914926816832979 2.4617098179841825 8.158078494744517 2.9226503683594482 9.002292523011262 C 2.9681809889039896 9.155077638776014 2.9396896697969415 9.207577525716367 2.870237404087557 9.207577525716367 C 2.717627362869183 9.207577525716367 2.3672466519332462 8.954092059534803 2.1698535251191053 8.954092059534803 C 2.1594948014573196 8.954092059534803 2.1495575210365625 8.954790250504107 2.140092081444407 8.956259682604495 C 1.7610785167129768 8.874396440250864 1.3638924072290621 8.831466124503471 0.9703996331480379 8.831466124503471 C 0.6822712691518855 8.831466124503471 0.39612316158451694 8.854483949517657 0.1205398348885778 8.90208807080806 C -0.19080937123302597 9.107627344268586 0.19133570335568265 9.296978982841198 0.44461121617263977 9.296978982841198 C 0.47243301123084086 9.296978982841198 0.4986997685303211 9.294694058069421 0.5223214865886322 9.289895224364907 C 1.44862453664532 9.401605077048192 2.473672484380784 9.652726246647584 2.9226503683594482 10.498359836231193 C 2.9277747669676573 11.438445880183364 2.9223641381582497 12.059730482053933 2.9475081443234266 12.924290385186742 C 2.9366830234749024 13.190445840004433 3.1097205941872907 13.32271720601211 3.2850258807391146 13.32271720601211 C 3.4589948410141766 13.32271720601211 3.635197450466691 13.192454719453337 3.636159394664339 12.93350313443563 C 3.6297524037925992 12.081649745019838 3.5689455193688686 11.333930766029841 3.680643079957625 10.507654766912083 C 3.905950499841305 9.580679119782916 5.51430012614692 9.438421656179063 6.5132119200872856 9.209440304841713 C 6.73117182826633 8.953197897458422 6.302254993763335 8.858046549715155 6.0257896324592775 8.858046549715155 C 5.984500135730289 8.858046549715155 5.946610983551 8.860169218839136 5.914784994799312 8.86419400179096 C 5.786745621336966 8.854375779085794 5.657882677541108 8.84931073373403 5.528823762638173 8.84931073373403 C 4.87588245171773 8.84931073373403 4.21792069818853 8.978947377079876 3.636159394664339 9.278489565451865 C 3.6124626948293947 8.719755569414783 4.162693019870619 8.398265319455419 4.5568162027996815 8.173701395689454 C 5.178845705598769 7.90617273831141 5.863655500797704 7.879904181098088 6.5132119200872856 7.736389411825166 C 6.745102634598536 7.535056141910107 6.380132787867637 7.365650007124583 6.127413645979344 7.365650007124583 C 6.0940901289112 7.365650007124583 6.06271789404902 7.368595192973972 6.034923712303174 7.3748016471035225 C 5.875700348626306 7.359480780481324 5.715556482670491 7.35166300836024 5.555429474444318 7.35166300836024 C 4.887519202007935 7.35166300836024 4.219896213380853 7.487670468699637 3.6205083975033348 7.782422252231933 C 3.6327889023442115 5.672151988401518 3.6669749732456607 3.6298724602408705 3.6064121746990256 1.633623314068084 C 3.557780785508615 1.016382811297887 3.202148013782708 0.4498605441665941 2.6039100355477967 0.2652764822581205 C 2.1742288083663857 0.06980961445750675 1.6957449806778964 0.0 1.2190420140847793 0.0 Z"
     style="fill:#ffffff;stroke:none"
     id="path2" />
  <path
     d="M 3.29314921521244 15.21501288860129 C 4.074491287174412 15.21501288860129 5.052497037940845 15.616391919330065 5.5257419749406465 16.089636856329868 C 5.939782214238027 16.503676744424546 5.993910276899555 17.05261639954012 6.009086799211701 17.562687749346416 L 0.6002280514165623 17.562687749346416 C 0.615404749330059 17.05261639954012 0.6695328119915868 16.503676744424546 1.0835728756876173 16.089636856329868 C 1.5568179882887687 15.616391919330065 2.5118074944531683 15.21501288860129 3.29314921521244 15.21501288860129 ZM 3.29314921521244 14.777700904737003 C 2.3662267752924526 14.777700904737003 1.3688759017560481 15.205906904973462 0.7843594130436309 15.79042339368588 C 0.1848327417701466 16.38995028583294 0.11688322714550736 17.179222163577567 0.11688322714550736 17.769835531176867 L 0.11688322714550736 17.999999733210704 L 6.469415203279373 17.999999733210704 L 6.469415203279373 17.769835531176867 C 6.469415203279373 17.179222163577567 6.42448232973169 16.38995028583294 5.824955437584633 15.79042339368588 C 5.240439300074916 15.205906904973462 4.220071830733778 14.777700904737003 3.29314921521244 14.777700904737003 Z"
     style="fill:#ffffff;stroke:none"
     id="path4" />
  <path
     d="M 19.59558827849137 2.2331113889984504 Q 20.011497239301697 2.2331113889984504 20.406868373464476 2.6849636002931274 Q 17.14505908393548 6.568070899826414 16.329606932707488 7.024335296803508 Q 15.721254175199014 7.364724151693918 15.258781670883675 7.364724151693918 Q 15.101344397401952 7.364724151693918 14.960813057159163 7.325276517725049 Q 14.407469963604743 7.169951972435412 13.776464255096982 7.150536917736989 Q 13.760688966903167 7.150051524254103 13.744834947749503 7.150051524254103 Q 13.12652956999073 7.150051524254103 12.38825395561615 7.88832679632016 L 12.291175943655867 7.88832679632016 Q 12.815395428237089 6.665148911786697 13.75704954270708 6.140928742588433 Q 14.698701945634467 5.6167096003157315 19.2807685008913 2.2966530928403377 Q 19.439622247033235 2.2331113889984504 19.59558827849137 2.2331113889984504 ZM 13.822576293662692 0.46382689862325743 Q 13.87160069312572 0.46382689862325743 13.922081273037408 0.4715931515608784 L 13.922081273037408 5.461385397334616 Q 12.38825395561615 6.354500505824466 11.805788280014095 7.965988384347936 Q 12.698902703886905 1.79184917642032 13.058089773520756 1.0928900062739073 Q 13.381357725420997 0.46382689862325743 13.822576293662692 0.46382689862325743 ZM 9.823471846940608 8.280349468529765 Q 9.763159224955167 8.280349468529765 9.708909828226425 8.383422671928184 Q 9.611832586460313 8.567870141573977 9.883650198408658 8.897933602234632 Q 10.038974144658383 8.4902085535462 9.922481420308197 8.344591877914295 Q 9.871087133376625 8.280349468529765 9.823471846940608 8.280349468529765 ZM 9.850515161454094 8.003054920244196 Q 9.964842185368557 8.003054920244196 10.097221020296256 8.179560147583969 Q 10.388454200405805 8.567870141573977 9.922481420308197 9.732803546629212 Q 9.398261764572714 8.723195371480656 9.602124802379711 8.257221735611745 Q 9.713322784103013 8.003054920244196 9.850515161454094 8.003054920244196 ZM 14.931688078951879 9.926958201315696 L 14.931688078951879 10.218190867962463 Q 14.718118369566973 10.198775813264039 14.601625302908268 10.082282061988291 Q 14.640456096922156 10.024035528658937 14.756948478963821 9.926958201315696 ZM 15.378245975505326 10.587085807254049 L 17.183890562566404 10.839488364503968 L 17.552786186475032 11.499616655059363 Q 16.931489374550573 11.32487637045426 16.183991626309666 11.033644388424536 Q 15.43649319345172 10.742411037160727 15.378245975505326 10.587085807254049 ZM 11.39806151978306 10.315268879922746 L 11.747541404376221 10.490008479910806 L 11.864034128726408 11.32487637045426 L 11.553386065072697 12.276239381507548 L 11.067997716813883 12.276239381507548 L 11.39806151978306 11.32487637045426 L 11.39806151978306 10.315268879922746 ZM 12.232929752635034 10.606502231186555 L 12.562994240221252 10.703579558529796 L 12.679486964571439 11.32487637045426 L 12.368838216300684 12.276239381507548 L 11.883450552658914 12.276239381507548 L 12.21351435562809 11.32487637045426 L 12.232929752635034 10.606502231186555 ZM 13.37844604914072 10.72299461322822 L 13.494939115799427 11.32487637045426 L 13.184290367528675 12.276239381507548 L 12.698902703886905 12.276239381507548 L 13.028966164547558 11.32487637045426 L 13.028966164547558 10.742411037160727 L 13.37844604914072 10.72299461322822 ZM 12.635970993829574 8.307902566008263 Q 12.94616549869286 8.307902566008263 13.300783776495901 8.383422671928184 Q 14.349222745658347 8.606700935587865 14.621040357606692 9.441570195365404 L 15.43649319345172 9.441570195365404 L 15.747140914796912 8.936765765482605 Q 19.863233149567787 9.888126722684765 20.387455372617175 12.373316708850789 Q 19.261352076958786 11.752018527692242 18.018759137726903 11.538448133690293 L 17.475123229213175 10.451177001279875 L 15.319998757558931 10.159943650016068 L 15.378245975505326 9.635724850051886 L 14.640456096922156 9.635724850051886 Q 13.825002918768604 10.30727392210448 12.976631641685719 10.30727392210448 Q 12.794837747695311 10.30727392210448 12.611532561584353 10.276437401291815 Q 11.572801804388162 10.101698485920798 11.252445186459676 9.567771131681843 Q 10.93208856853119 9.033843092825846 11.592216516778063 8.596994435164216 Q 12.029066885982298 8.307902566008263 12.635970993829574 8.307902566008263 ZM 14.014203342229544 0.0 Q 13.306659502260182 0.0 12.902764885922597 0.4910087625106481 Q 12.407668668006053 1.0928900062739073 11.980527880002157 3.655740467965014 L 11.300984192439817 8.101897190322108 Q 10.97091987600786 8.451378444149354 10.7961802760198 8.4902085535462 L 10.563193800393865 8.4902085535462 Q 10.543778232232661 8.004819862978866 10.194298176485239 7.597094129673393 Q 9.883650198408658 4.626517849099683 10.466115788433582 2.3937311048006213 L 10.233129483961907 1.9471738928642175 Q 9.398261764572714 4.471192276884482 9.825403408347913 7.616509184371816 L 9.767156618287169 7.616509184371816 Q 8.427485014569381 4.607101425167175 9.378846196411509 1.9471738928642175 L 9.145859806362706 1.5976940082710553 L 9.145859806362706 1.5976940082710553 Q 7.90326545510817 4.4323618251791155 9.41767741831105 7.752417990345988 Q 8.99053577453585 8.684363892849726 9.330307190431368 9.286245650075767 Q 9.670079376521057 9.888126722684765 9.747741050125965 10.412346207265987 L 9.883650198408658 10.509424219226272 Q 10.407869083949969 9.732803546629212 10.485531356594787 9.16975258341706 L 10.679686695898312 9.16975258341706 Q 10.699102264059515 9.616309110736422 10.93208856853119 10.101698485920798 L 11.067997716813883 11.32487637045426 L 10.737933400381925 12.276239381507548 L 9.048781837190987 12.276239381507548 L 9.048781837190987 12.742211648142375 L 13.922081273037408 12.742211648142375 L 13.922081273037408 12.276239381507548 L 13.51435451280637 12.276239381507548 L 13.825003261077125 11.32487637045426 L 13.84441900039259 10.606502231186555 Q 14.19389820036871 10.490008479910806 14.368638484973811 10.33468393462117 Q 14.621040357606692 10.567671437172667 14.931688078951879 10.567671437172667 Q 14.912273708870499 10.76182609185915 15.009351720830782 10.89773421321628 Q 15.785971708810798 11.499616655059363 17.78577231979245 11.946173182378724 L 18.465315665046262 13.266429763489512 Q 18.465315665046262 12.942390932799807 18.666445882775246 12.942390932799807 Q 18.73044046079052 12.942390932799807 18.81479623425647 12.97519504299162 L 18.27116032574274 12.00442040032512 L 18.27116032574274 12.00442040032512 Q 19.39726088293296 12.256823642192083 19.97972758546058 12.645134320799134 Q 20.290376676039852 12.97519504299162 19.94089679144669 13.44116867886053 Q 20.71751746404375 13.11110658743396 20.814596160621075 12.509224145590878 Q 20.503945700807716 9.577479001339576 15.552985575493386 8.431961335599805 L 15.203506375517266 9.014428722744466 L 14.892857284937993 9.014428722744466 Q 14.640456096922156 8.198975202282393 12.893057700881908 7.88832679632016 Q 13.283009064230479 7.599008318923254 13.852256838599681 7.599008318923254 Q 14.161630487629424 7.599008318923254 14.523962345646407 7.684463587358902 Q 14.891470935427632 7.771140212597752 15.241644337084495 7.771140212597752 Q 15.87195550160299 7.771140212597752 16.446100683983236 7.490308248055377 Q 17.339214423239 7.053458905776705 20.989335075992095 2.665548716748965 Q 20.31660024722249 1.8173165880798985 19.56675152405883 1.8173165880798985 Q 19.321111613951302 1.8173165880798985 19.067196737655266 1.9083427565418083 L 14.349222745658347 5.286645797346556 L 14.349222745658347 0.025035944973045218 Q 14.173971736739798 0.0 14.014203342229544 0.0 Z"
     style="fill:#ffffff;stroke:none"
     id="path6" />
  <path
     d="M 14.787816725437374 15.285542133461169 C 15.549371373096287 15.285542133461169 16.502609207919512 15.676756272943992 16.963869255453197 16.13801632047768 C 17.367423959429352 16.541570682145313 17.42018123331472 17.07660848522664 17.434973411436005 17.573762319663377 L 12.163093570676018 17.573762319663377 C 12.177885919951562 17.07660848522664 12.230643193836931 16.541570682145313 12.634197726658826 16.13801632047768 C 13.095457945346773 15.676756272943992 14.02626242008698 15.285542133461169 14.787816725437374 15.285542133461169 ZM 14.787816725437374 14.859305039952915 C 13.884368520776045 14.859305039952915 12.912275476840618 15.276666758126694 12.34256182057423 15.846380414393082 C 11.758218113396996 16.430724336850286 11.69198941469321 17.200007968606588 11.69198941469321 17.775664100798863 L 11.69198941469321 17.99999941317163 L 17.883644036181536 17.99999941317163 L 17.883644036181536 17.775664100798863 C 17.883644036181536 17.200007968606588 17.839849083994995 16.430724336850286 17.25550516153779 15.846380414393082 C 16.685791847579925 15.276666758126694 15.691265101252963 14.859305039952915 14.787816725437374 14.859305039952915 Z"
     style="fill:#ffffff;stroke:none"
     id="path8" />
  <path
     d="M 33.655542253811426 8.203407192002246 C 33.14464679780286 8.243740548330095 32.86231004489047 8.499188095300077 32.808531814039966 8.969749289809286 C 32.875754738378824 9.48064510788646 33.15809149129121 9.749537529379097 33.655542253811426 9.776426916355803 C 34.15299301633164 9.749537529379097 34.4151629100458 9.48064510788646 34.4420515728853 8.969749289809286 C 34.40171821655745 8.499188095300077 34.13954832284329 8.243740548330095 33.655542253811426 8.203407192002246 ZM 33.7160424693375 6.509385226253514 C 34.079047383180004 6.509385226253514 34.415163272114405 6.576608422143824 34.7243894120035 6.711054813924445 C 35.03361518982398 6.845501205705066 35.30586833210295 7.030364654964103 35.54114883884041 7.2656453427358585 C 35.776429707646464 7.500926030507614 35.96129324742265 7.769818270965949 36.09573945816897 8.07232170204226 C 36.230185306846685 8.374825314152872 36.29740805015124 8.694134883641077 36.29740805015124 9.030250591541176 C 36.29740805015124 9.37981044982672 36.230185306846685 9.705842366059102 36.09573945816897 10.008346340238319 C 35.96129324742265 10.310849952348931 35.776429707646464 10.576381290986632 35.54114883884041 10.80493963201421 C 35.30586833210295 11.03349797304179 35.03361518982398 11.2116389850395 34.7243894120035 11.339363392144548 C 34.415163272114405 11.467087075112389 34.079047383180004 11.530948735562006 33.7160424693375 11.530948735562006 C 33.35303809859791 11.530948735562006 33.01356185094578 11.467087075112389 32.69761354534681 11.339363392144548 C 32.38166469664494 11.2116389850395 32.109411192297365 11.03349797304179 31.880853122821236 10.80493963201421 C 31.652294419725052 10.576381290986632 31.470792234355255 10.310849952348931 31.33634647619469 10.008346340238319 C 31.201900129672648 9.705842366059102 31.134676933782337 9.37981044982672 31.134676933782337 9.030250591541176 C 31.134676933782337 8.694134883641077 31.201900129672648 8.374825314152872 31.33634647619469 8.07232170204226 C 31.470792234355255 7.769818270965949 31.652294419725052 7.500926030507614 31.880853122821236 7.2656453427358585 C 32.109411192297365 7.030364654964103 32.38166469664494 6.845501205705066 32.69761354534681 6.711054813924445 C 33.01356185094578 6.576608422143824 33.35303809859791 6.509385226253514 33.7160424693375 6.509385226253514 ZM 33.67570947507826 5.823710203170776 C 33.23203676237424 5.823710203170776 32.815253617681236 5.907739107516513 32.42535967893063 6.075796916207987 C 32.03546592121433 6.243854747528749 31.699350575382834 6.472413088556328 31.417013731953297 6.761471961920012 C 31.134676933782337 7.050531423645179 30.909479630351118 7.386646678959522 30.741421821659646 7.769817908897345 C 30.573364612644298 8.152989681938074 30.489336013793945 8.566411562741841 30.489336013793945 9.010083370274344 C 30.489336013793945 9.45375535884115 30.573364612644298 9.867177239644917 30.741421821659646 10.250349012685646 C 30.909479630351118 10.633520785726375 31.134676933782337 10.966275229737235 31.417013731953297 11.24861198264962 C 31.699350575382834 11.530948735562006 32.03546592121433 11.756146355803253 32.42535967893063 11.924204119236151 C 32.815253617681236 12.09226115853184 33.23203676237424 12.17629004024829 33.67570947507826 12.17629004024829 C 34.11938146364506 12.17629004024829 34.532802982380225 12.09226115853184 34.915974031283746 11.924204119236151 C 35.299145804324475 11.756146355803253 35.63526133119027 11.530948735562006 35.92432097394974 11.24861198264962 C 36.213379892572 10.966275229737235 36.44193823359958 10.633520785726375 36.60999563496387 10.250349012685646 C 36.77805412253398 9.867177239644917 36.86208300425043 9.45375535884115 36.86208300425043 9.010083370274344 C 36.86208300425043 8.566411562741841 36.77805412253398 8.152989681938074 36.60999563496387 7.769817908897345 C 36.44193823359958 7.386646678959522 36.213379892572 7.050531423645179 35.92432097394974 6.761471961920012 C 35.63526133119027 6.472413088556328 35.299145804324475 6.243854747528749 34.915974031283746 6.075796916207987 C 34.532802982380225 5.907739107516513 34.11938146364506 5.823710203170776 33.67570947507826 5.823710203170776 Z"
     style="fill:#ffffff;stroke:none"
     id="path10" />
  <path
     d="M 41.221677623630285 5.321992876481438 Q 41.38547854648088 5.321992876481438 41.523166357442676 5.416653178629808 Q 41.886161133364254 5.666211860783015 42.04497130257137 6.119956778959406 Q 42.20378183384709 6.573700972998587 41.999596502995416 6.747636015052919 Q 41.93345236206346 6.80398113127454 41.84429405442803 6.80398113127454 Q 41.65822410206188 6.80398113127454 41.37191871517632 6.558575376014161 Q 40.94842336166006 6.195580600092583 40.615678150398615 5.575463347836923 Q 40.9536395030098 5.321992876481438 41.221677623630285 5.321992876481438 ZM 45.002877369935675 5.321992876481438 Q 45.16667793071767 5.321992876481438 45.304366103748066 5.416653178629808 Q 45.667360155532435 5.666211860783015 45.82617141094536 6.119956778959406 Q 45.98498266635829 6.573700972998587 45.780796249300806 6.747636015052919 Q 45.71465210836885 6.80398113127454 45.62549416280203 6.80398113127454 Q 45.439424210435874 6.80398113127454 45.1531177373445 6.558575376014161 Q 44.729623470034056 6.195580600092583 44.396878801875516 5.575463347836923 Q 44.734839430349496 5.321992876481438 45.002877369935675 5.321992876481438 ZM 48.70235171498601 5.324873313263993 Q 48.86969330671934 5.324873313263993 49.00994202892028 5.42421588660487 Q 49.372937528979065 5.681337457767441 49.531748060254785 6.1275187627972585 Q 49.69055931566771 6.573700972998587 49.486374346884645 6.755198904062283 Q 49.41924465521143 6.814868896278398 49.328411056143295 6.814868896278398 Q 49.14295806867909 6.814868896278398 48.858693662516714 6.566138265023525 Q 48.43520011934348 6.195580600092583 48.10245472704773 5.575463347836923 Q 48.4365745317659 5.324873313263993 48.70235171498601 5.324873313263993 ZM 40.26780806628995 4.19910702433655 L 40.26780806628995 10.309526824899535 L 39.48131847995502 10.309526824899535 L 39.48131847995502 4.19910702433655 ZM 44.04900763156104 4.19910702433655 L 44.04900763156104 10.309526824899535 L 43.277642918073326 10.309526824899535 L 43.277642918073326 4.19910702433655 ZM 47.75458355673325 4.19910702433655 L 47.75458355673325 10.309526824899535 L 46.98321884324554 10.309526824899535 L 46.98321884324554 4.19910702433655 ZM 48.32932619044726 10.82376851895026 Q 48.88894521855417 10.82376851895026 48.88894521855417 11.217014126772085 Q 48.88894521855417 11.62538406433822 48.29907680682143 11.62538406433822 L 38.99732490229001 11.62538406433822 L 38.99732490229001 10.82376851895026 ZM 50.30583552964782 11.93393023938819 Q 50.43167392139239 11.93393023938819 50.67367116281065 12.139627206663363 Q 51.67190589142348 13.137864107687818 51.26353595385734 13.788230562535006 Q 50.492174136918464 13.788230562535006 50.18967667997413 12.396749501963143 Q 50.11707757996237 11.93393023938819 50.30583552964782 11.93393023938819 ZM 39.14857245403921 3.715113401412964 L 39.14857245403921 10.309526824899535 L 38.362082958221436 10.309526824899535 L 38.362082958221436 12.154752260544882 L 49.56956033288998 12.154752260544882 L 49.59980971651581 12.321123508418339 Q 49.88718139544142 13.863854383668183 50.99128932881325 14.272224321234319 Q 51.073596212247026 14.284886584468495 51.1488355165223 14.284886584468495 Q 51.61281339863143 14.284886584468495 51.80802920394552 13.803354168142107 Q 52.050025721226575 12.653871797262923 50.90054190207297 11.61025973459391 L 49.85693201181559 11.11113947373866 Q 49.34268742121603 10.914518118102166 49.146064617305115 10.309526824899535 L 48.11757833265483 10.309526824899535 L 48.11757833265483 6.256079548378544 Q 48.63182219911718 6.997194697206126 49.31243731345299 7.284565289925922 Q 49.32714236775337 7.284985289507063 49.341567905091125 7.284985289507063 Q 49.84642912573824 7.284985289507063 50.00817965408194 6.7703235958751975 Q 50.1594272963483 6.165331035432452 49.70568364541202 5.560338656024008 Q 49.17873551575738 4.881386432271203 48.64499715149523 4.881386432271203 Q 48.38211144815011 4.881386432271203 48.11757833265483 5.046095513698866 L 48.11757833265483 3.715113401412964 L 46.63534912120548 3.715113401412964 L 46.63534912120548 10.309526824899535 L 44.41200349368843 10.309526824899535 L 44.41200349368843 6.256079548378544 Q 44.92624627394497 6.997194697206126 45.606862112417986 7.284565289925922 Q 46.13623030862465 7.284565289925922 46.302601556498104 6.7703235958751975 Q 46.45385064703888 6.165331035432452 46.00010627196539 5.560338656024008 Q 45.47315886644796 4.881386432271203 44.93942195046023 4.881386432271203 Q 44.67653624711511 4.881386432271203 44.41200349368843 5.046095513698866 L 44.41200349368843 3.715113401412964 L 42.929772109827454 3.715113401412964 L 42.929772109827454 10.309526824899535 L 40.63080284221153 10.309526824899535 L 40.63080284221153 6.256079548378544 Q 41.12992129272376 6.997194697206126 41.81053658809387 7.269440960181612 Q 41.82566091783818 7.269860959762752 41.84049378235592 7.269860959762752 Q 42.359651643917616 7.269860959762752 42.52140217226132 6.755198904062283 Q 42.65752512271476 6.150206343619537 42.21890652566 5.545213964211094 Q 41.69458085890726 4.87972272703384 41.16353212127313 4.87972272703384 Q 40.898007842973215 4.87972272703384 40.63080284221153 5.046095513698866 L 40.63080284221153 3.715113401412964 Z"
     style="fill:#ffffff;stroke:none"
     id="path12" />
  <path
     d="M 55.31707960880052 2.7257847122740886 Q 55.038389655178264 2.7257847122740886 55.038389655178264 3.053654893215412 Q 55.038389655178264 3.3323442203436606 55.31707960880052 3.3323442203436606 Q 55.61216276269779 3.315951020068642 55.61216276269779 3.0208678661713657 Q 55.61216276269779 2.7257847122740886 55.31707960880052 2.7257847122740886 ZM 54.23510726885125 2.9388999853142432 L 54.23510726885125 3.23398313921152 L 53.59576082323678 3.348738047112689 Q 53.890843977134054 3.0372610664463835 54.23510726885125 2.9388999853142432 ZM 54.2678942958953 3.3323442203436606 Q 54.644945420148844 3.627428090234092 54.39904240407149 3.7749693986852972 Q 54.02199204056067 3.6438212010099655 53.84166307857141 3.4307052119766563 L 54.2678942958953 3.3323442203436606 ZM 55.415440779431805 2.5782427773288727 Q 56.18593604921562 2.5782427773288727 56.64495424883398 3.168409085123426 Q 57.10397244845235 3.758576198410279 57.13675956499554 4.988089667812462 Q 58.33348591785453 5.233991967896662 58.7269302423831 6.070061470766861 Q 58.79063107937983 6.611515900264761 58.483048653980156 6.611515900264761 Q 58.474001722472124 6.611515900264761 58.46463402603072 6.611047640741494 Q 58.136763934588544 6.5946535454750315 57.948238640959204 6.430718678752231 Q 57.879684086365785 6.371105804673079 57.84472894254972 6.371105804673079 Q 57.78355806736563 6.371105804673079 57.82528686442309 6.5536704552883425 Q 57.89086109750947 6.840556740550677 58.54660128039384 7.250394802349122 Q 59.202342537267924 7.660232148154413 58.653160035653215 7.930725054143441 Q 58.516896514382246 7.997840104499048 58.36297087396758 7.997840104499048 Q 57.89653104730269 7.997840104499048 57.267907673171734 7.38154291052531 Q 56.43183817030153 6.5618664289318405 56.382658032481615 6.135635345856666 Q 56.33347717866854 5.70940426278149 56.72692221919025 5.34874705479612 Q 56.960862242638186 5.1343019139699875 56.88762401882236 5.1343019139699875 Q 56.83768886622065 5.1343019139699875 56.64495424883398 5.233991967896662 Q 56.16954213294745 5.479895162972307 56.14495206403749 5.955306383867403 Q 56.120361995127524 6.430718678752231 56.52200318829103 6.996294917636824 Q 56.92364348646309 7.561871156521417 58.10397681804535 8.430727417938229 Q 58.22463312052703 8.493678252105262 58.37718477007755 8.493678252105262 Q 58.70135675687496 8.493678252105262 59.169555420724734 8.209415365762277 Q 59.85808307814886 7.7913802563306005 58.481028121297186 6.922523636917211 Q 58.989227174728626 6.791375886737601 59.00562019600535 6.479899532565306 Q 59.64496699961641 6.693014537108028 62.59579961257891 10.447129536397535 Q 63.38268826163603 10.971721969102283 63.39908164090934 11.21762480618135 Q 63.38268826163603 11.447134263987111 63.153179519823425 11.496314401807032 Q 63.10399866601035 11.50685310505318 63.05331207859263 11.50685310505318 Q 62.8674631673761 11.50685310505318 62.66137384566529 11.36516665162742 Q 61.7433367304354 11.80779147197248 60.882677874648394 11.824184851245787 Q 60.83738056770719 11.825047622997374 60.792923120736624 11.825047622997374 Q 59.99268263132797 11.825047622997374 59.46463839562372 11.545495255620107 L 59.46463839562372 11.545495255620107 Q 60.00562420760178 12.02090683451178 59.841689698875555 12.54549926721653 Q 59.76220586677002 12.79984724355698 59.721259650230806 12.79984724355698 Q 59.677754474156174 12.79984724355698 59.677754474156174 12.512712508669916 Q 59.677754474156174 11.955332601425397 58.251519021488 11.447134263987111 L 58.251519021488 12.070087688324856 Q 58.16755235623999 12.422747968763774 58.117990952065114 12.422747968763774 Q 58.070790177321754 12.422747968763774 58.05479596423228 12.10287444687147 Q 57.95643497259928 11.397953410174035 57.58758071698068 10.586474692206952 Q 57.21872753535181 9.774995258246715 56.415445149024805 8.340563115941887 Q 55.61216276269779 6.906130615640482 55.390850710521846 6.274980501666084 Q 55.16953776335445 5.643830029695108 55.185931500624335 5.102843859720475 Q 55.202324700899354 4.5618576897458425 54.96461855345694 4.307758521026699 Q 54.726913301005965 4.053659352307555 54.825274382138105 3.758576198410279 Q 54.923635463270244 3.4634922390207032 54.53019042274853 3.201196112167473 L 54.53019042274853 2.922506829788797 Q 54.95642240081515 2.5782427773288727 55.415440779431805 2.5782427773288727 ZM 58.5302082591171 12.02090683451178 Q 59.333490645444115 12.25041629231754 59.333490645444115 12.561892646489836 L 58.79250447546948 14.578295480942295 Q 58.7269302423831 14.938952688927666 58.349880013120995 14.938952688927666 L 57.69413875624691 14.938952688927666 L 57.69413875624691 14.906165930381052 L 58.5302082591171 12.348777283950536 L 58.5302082591171 12.02090683451178 ZM 55.47460186183025 2.25 Q 55.44524775346625 2.25 55.415440779431805 2.2503725963875496 Q 54.77609343882589 2.2503725963875496 54.12035307694324 2.7749648948435817 Q 53.743302042188844 2.9061129582701963 53.349857807159424 3.3815250741567358 Q 53.890843977134054 3.8733303903182934 54.33346834998339 3.9880852982194623 Q 54.382649293295614 4.217594398028645 54.644945420148844 4.627431743833936 Q 54.661338530924716 5.70940426278149 54.94002848454698 6.422522347112155 Q 55.218718617167525 7.135639715449665 56.808889473553364 10.250407553131542 Q 57.59577776461391 11.88975908433217 57.59577776461391 12.266809671590847 Q 57.59577776461391 12.840582958108671 56.87446334864317 14.840590981301515 Q 56.87446334864317 14.955346068200972 55.890852895318346 15.0209195852942 Q 54.41543623084052 15.07010115510043 54.41543623084052 15.4307583630858 Q 54.41543623084052 15.643873725625099 54.6121583931048 15.643873725625099 L 58.97283343745874 15.643873725625099 Q 59.38267078326403 15.316003276186343 59.43185163707711 15.086494534373736 Q 59.82529560360909 15.250429759093116 59.85808307814886 15.529118638725642 Q 59.91330261822989 15.749999663022377 60.01502376573857 15.749999663022377 Q 60.03409710739046 15.749999663022377 60.054805061414854 15.74223400126494 Q 60.185953527587614 15.69305386344502 60.185953527587614 15.529118638725642 Q 60.07119844068816 15.086494534373736 59.612180241069794 14.676655756582136 L 60.136772673774544 12.463531654856839 Q 61.72694335116209 12.414351517036918 62.90727668274435 11.955332601425397 Q 63.12585722103458 12.004513455238474 63.30800731161319 12.004513455238474 Q 63.6723074927704 12.004513455238474 63.890887315067474 11.80779147197248 Q 64.21875776450622 11.512707781080339 63.75973956488786 10.889754356742595 Q 62.75973483729828 9.889750345146172 61.85809181733486 8.693023634290604 Q 60.00562420760178 6.414325299478924 59.31709655017765 6.0536673755004 Q 59.08758745036847 5.578256154605303 58.76791440655952 5.299566200983045 Q 58.448241004753996 5.020876784355652 57.61217150188379 4.611038722557207 Q 57.59577776461391 3.6438212010099655 57.16135034989866 2.9388999853142432 Q 56.73679576479555 2.25 55.47460186183025 2.25 Z"
     style="fill:#ffffff;stroke:none"
     id="path14" />
  <path
     d="M 30.489336013793945 0.375 C 20.86433607339859 0.375 20.86433607339859 17.625 30.489336013793945 17.625 "
     style="fill:none;stroke:#ffffff;stroke-width:1"
     id="path16" />
  <path
     d="M 30.489336013793945 0.375 L 64.02613258361816 0.375 "
     style="fill:none;stroke:#ffffff;stroke-width:1"
     id="path18" />
  <path
     d="M 30.489336013793945 17.625 L 64.02613258361816 17.625 "
     style="fill:none;stroke:#ffffff;stroke-width:1"
     id="path20" />
  <path
     d="M 71.71363258361816 0.375 L 71.71363258361816 17.625 "
     style="fill:none;stroke:#ffffff;stroke-width:1"
     id="path22" />
  <path
     d="M 64.02613258361816 0.375 C 73.6511344909668 0.375 73.6511344909668 17.625 64.02613258361816 17.625 "
     style="fill:none;stroke:#ffffff;stroke-width:1"
     id="path24" />
</svg>
