<?xml version="1.0" encoding="UTF-8" standalone="no"?>
<svg
   width="78.0758056640625"
   height="18.0"
   version="1.1"
   id="svg20"
   sodipodi:docname="sakirhar.svg"
   inkscape:version="1.1.1 (3bf5ae0d25, 2021-09-20)"
   xmlns:inkscape="http://www.inkscape.org/namespaces/inkscape"
   xmlns:sodipodi="http://sodipodi.sourceforge.net/DTD/sodipodi-0.dtd"
   xmlns="http://www.w3.org/2000/svg"
   xmlns:svg="http://www.w3.org/2000/svg">
  <defs
     id="defs24" />
  <sodipodi:namedview
     id="namedview22"
     pagecolor="#ffffff"
     bordercolor="#666666"
     borderopacity="1.0"
     inkscape:pageshadow="2"
     inkscape:pageopacity="0.0"
     inkscape:pagecheckerboard="0"
     showgrid="false"
     inkscape:zoom="17.611089"
     inkscape:cx="39.037903"
     inkscape:cy="9.0000111"
     inkscape:window-width="1920"
     inkscape:window-height="1001"
     inkscape:window-x="-9"
     inkscape:window-y="-9"
     inkscape:window-maximized="1"
     inkscape:current-layer="svg20" />
  <path
     d="M 2.824478822881205 0.0 C 2.705234691584704 0.0 2.5859859966997916 0.005293515363759014 2.467252378827 0.015592124926758166 C 2.4485051576297554 0.015086472200081483 2.4297907942690786 0.014835346486487369 2.4111129396156996 0.014835346486487369 C 1.0707759182259873 0.014835346486487369 -0.08347407337903998 1.3080158342968455 0.014454011817950746 2.636649152904482 C -0.05797373010925521 3.6809378274171802 0.15940559723834252 4.713767027187661 0.21689464166273897 5.752969126056141 C 0.3086148204977831 5.928328965904199 0.47494757822731715 6.002095417477166 0.6514434473507809 6.002095417477166 C 0.886104988940554 6.002095417477166 1.1387321611521786 5.8716960506659275 1.2578500331692757 5.67629597290384 C 1.5730368528900722 5.2350687739035076 1.433936852651394 4.6653589152250525 1.3054003426300078 4.1850491450627905 C 1.1640619022751544 3.3279719495045885 1.1120163821686158 2.3734241114428607 1.5835119616117814 1.6037341576718522 C 1.886933394047131 1.1974261681250138 2.386570265374211 0.9944382119099913 2.8853738254572265 0.9944382119099913 C 3.428577754159273 0.9944382119099913 3.970793513850468 1.235172140300821 4.257529250093969 1.7162112479511558 C 4.717188174212651 2.3900833388219183 4.593742803423896 3.370922009726227 4.003725280550457 3.9276180354492762 C 3.4348548179006158 4.601036657751481 2.5812435156218516 5.045113361356382 2.2163875123405465 5.879376265724403 C 1.9840600941039908 6.720295315911206 2.179021915258895 7.596901019002819 2.100943937473711 8.45305636970176 C 2.026300059968694 11.575831690782064 1.9872114040222164 14.699298851865656 1.9281115650079335 17.822377803694984 C 2.0892543057559063 17.95766568641335 2.2790399528140997 17.982590180885325 2.4756518154192353 17.982590180885325 C 2.590370996685443 17.982590180885325 2.7074142614103622 17.97410434035249 2.8224477217985564 17.97410434035249 C 2.9158908454087165 17.97410434035249 3.008008094465524 17.979704776051918 3.096475993988723 17.999999966438573 C 3.5214918057528473 17.782117218244256 3.4875895159172012 17.236080822334383 3.456066072601211 16.83178948250689 C 3.305711046381182 13.556006777621395 3.4152675921963027 10.275767576531793 3.33327055680235 6.998533042052769 C 3.3421309158242156 6.6248773754754815 3.2209974589250714 6.196251765277321 3.6154211036485187 5.9825115384043555 C 4.401076010881478 5.219845859917378 5.238112968525651 4.4601495562905935 5.721249121111191 3.457976109559332 C 6.212823652910082 2.003397106131712 5.112619763496736 0.2614576682518177 3.5892972981418225 0.07646703107568356 C 3.337840229999082 0.02452996274626524 3.081170935411174 0.0 2.824478822881205 0.0 Z"
     style="fill:#ffffff;stroke:none"
     id="path2" />
  <path
     d="M 14.545746404683314 5.450948118247431 Q 14.773135143429045 5.450948118247431 15.017140417327482 5.554340127205037 Q 15.563713872237656 5.785939663475538 15.563713872237656 9.232127950779578 L 15.563713872237656 12.530094041075891 L 9.37539683686046 12.530094041075891 Q 11.765495211870501 9.250657173679961 12.65483394563546 7.573881501076577 Q 13.544172438021349 5.897107156058076 14.007369700219328 5.609924839012584 Q 14.263783306570701 5.450948118247431 14.545746404683314 5.450948118247431 ZM 14.28290825301491 4.747318267822266 Q 14.233676095216879 4.747318267822266 14.18338524881949 4.7483770430493655 Q 13.303311367883794 4.7669052910046 12.200900329371393 6.897613141026503 Q 11.09849146327062 9.028320981619537 7.837580680847168 13.252681113553669 L 16.286300944715435 13.252681113553669 L 16.26777268733133 8.50954039554366 Q 16.175133331443362 5.341269813834919 15.619297678873693 5.03555929975009 Q 15.095223167042889 4.747318267822266 14.28290825301491 4.747318267822266 Z"
     style="fill:#ffffff;stroke:none"
     id="path4" />
  <path
     d="M 28.065011872529226 0.6546223902579769 C 28.380008661835745 0.7231009081722348 28.578595084478025 0.8116503371045454 28.660769209423506 1.325237411118458 C 28.74294236885271 1.8388259334067882 28.88332167713031 2.715349128228361 29.081910030805147 3.9548067542041068 C 29.280497418963705 5.19426606983334 30.406968157619644 5.841386458952265 32.461323212289244 5.89616840431902 C 34.515671508344894 5.841386458952265 35.638715629728495 5.190841866351697 35.83045364540749 3.9445336610010386 C 36.02219745418415 2.698228834957355 36.17627647293716 1.821705881514852 36.292690701666515 1.314965524810738 C 36.404217486994185 0.8294864400065123 36.540451833888255 0.6757731105439788 37.05750318030937 0.6757731105439788 C 37.08014646807237 0.6757731105439788 37.10351775510935 0.6760679550775208 37.12765180000633 0.6766425579527535 L 37.12765180000633 7.080313775112053 L 19.002372186431188 7.080313775112053 L 19.002372186431188 0.6766425579527535 C 19.026505265811892 0.6760679550775208 19.049878121812824 0.6757731105439788 19.072520745783386 0.6757731105439788 C 19.589569376689965 0.6757731105439788 19.72580553392706 0.8294864400065123 19.83733388821868 1.314965524810738 C 19.95374847901664 1.821705881514852 20.107825446047556 2.698228834957355 20.299565151380037 3.9445336610010386 C 20.491304736022983 5.190841866351697 21.614348857406583 5.841386458952265 23.668697153462233 5.89616840431902 C 25.723050277099276 5.841386458952265 26.849519567480797 5.19426606983334 27.04810405909052 3.9548067542041068 C 27.24669627483047 2.715349128228361 27.387078479656907 1.8388259334067882 27.469249708053553 1.325237411118458 C 27.551423832999035 0.8116503371045454 27.699390168192963 0.7231009081722348 28.014390819564596 0.6546223902579769 ZM 37.59731946954457 0.0 C 36.50567200650471 0.0 35.723565200281655 0.03342611321634337 35.63824059571948 1.0068140045395992 C 35.578764792964876 1.685322603734825 35.37117686205829 2.5818165372605577 35.18628242576119 3.7185574725707298 C 35.00139378256176 4.855296476848345 34.22806255379385 5.2211827326449125 32.461323212289244 5.2211827326449125 C 32.42946986474578 5.221429422054065 32.397939965155615 5.221554456412129 32.366729651453625 5.221554456412129 C 30.666885139787496 5.221554456412129 29.917910024660614 4.851797445855119 29.736352412621954 3.7288281519831017 C 29.55146183838997 2.5852402579840614 29.321986618966434 1.677597990748815 29.274122114976876 1.0170850460205756 C 29.23497525746575 0.4768666192553823 28.663457206742805 0.020725712089166848 28.115632925493856 0.020725712089166848 L 27.913148713635337 0.020725712089166848 C 27.365321535837552 0.020725712089166848 26.888795804173242 0.4974359780522022 26.855893905951348 1.0170850460205756 C 26.81595146302675 1.6479216410342659 26.57855804460337 2.5852402579840614 26.393668435887662 3.7288281519831017 C 26.212109858332724 4.851797445855119 25.46313522596398 5.221554456412129 23.763290231539713 5.221554456412129 C 23.732080400595862 5.221554456412129 23.700550501005694 5.221429422054065 23.668697153462233 5.2211827326449125 C 21.90195708782042 5.2211827326449125 21.128624169399018 4.855296476848345 20.943731905513545 3.7185574725707298 C 20.75884133128156 2.5818165372605577 20.57663344402934 1.6824641927923736 20.481504504417302 1.0068140045395992 C 20.34112471338156 0.009768791981862535 19.491519871025048 1.8175843942458414E-4 18.286300659179688 1.8175843942458414E-4 L 18.286300659179688 7.755297515753604 L 37.843723085878764 7.755297515753604 L 37.843723085878764 1.8175843942458414E-4 C 37.7600089624691 1.8175843942458414E-4 37.677822285812 0.0 37.59731946954457 0.0 Z"
     style="fill:#ffffff;stroke:none"
     id="path6" />
  <path
     d="M 18.95325756072998 10.670100212097168 L 18.95325756072998 18.000000488300202 L 20.17828240799588 18.000000488300202 L 20.17828240799588 10.670100212097168 ZM 27.37656833269739 10.68022438384315 L 27.37656833269739 18.000000488300202 L 28.601593179963288 18.000000488300202 L 28.601593179963288 10.68022438384315 ZM 35.951743229074964 10.68022438384315 L 35.951743229074964 18.000000488300202 L 37.176767110824585 18.000000488300202 L 37.176767110824585 10.68022438384315 Z"
     style="fill:#ffffff;stroke:none"
     id="path8" />
  <path
     d="M 47.75125527312048 0.0 C 47.61283885943703 0.0 47.47376396365166 0.017137186034331453 47.33402913748995 0.05141155810299436 C 47.05455948516652 0.11996097734740552 46.751361304783075 0.27551483730199067 46.42443507909775 0.5180731040228181 L 39.84372329711914 0.5180731040228181 L 39.84372329711914 1.9734228250373178 L 46.42443507909775 1.9734228250373178 C 46.751361304783075 2.215981031413378 47.05455948516652 2.3715346349027016 47.33402913748995 2.440083394126219 C 47.47376396365166 2.4743580151170477 47.61283885943703 2.4914954463019967 47.75125527312048 2.4914954463019967 C 47.88967168680392 2.4914954463019967 48.02742865286916 2.4743580151170477 48.164527136832476 2.440083394126219 C 48.438723139242825 2.3715346349027016 48.71292010716945 2.215981031413378 48.9871161095798 1.9734228250373178 L 49.24022040888667 1.9734228250373178 C 49.50387104250342 2.215981031413378 49.77543118547351 2.3715346349027016 50.054900837796936 2.440083394126219 C 50.19463518120051 2.4743580151170477 50.334369524604085 2.4914954463019967 50.47410386800766 2.4914954463019967 C 50.613838211411235 2.4914954463019967 50.75357255481481 2.4743580151170477 50.893306898218384 2.440083394126219 C 51.17277655054181 2.3715346349027016 51.47070204652846 2.215981031413378 51.787082420662045 1.9734228250373178 L 58.43107027746737 1.9734228250373178 L 58.43107027746737 0.5180731040228181 L 51.787082420662045 0.5180731040228181 C 51.47070204652846 0.27551483730199067 51.17277655054181 0.11996097734740552 50.893306898218384 0.05141155810299436 C 50.75357255481481 0.017137186034331453 50.613838211411235 0.0 50.47410386800766 0.0 C 50.334369524604085 0.0 50.19463518120051 0.017137186034331453 50.054900837796936 0.05141155810299436 C 49.77543118547351 0.11996097734740552 49.50387104250342 0.27551483730199067 49.24022040888667 0.5180731040228181 L 48.9871161095798 0.5180731040228181 C 48.71292010716945 0.27551483730199067 48.438723139242825 0.11996097734740552 48.164527136832476 0.05141155810299436 C 48.02742865286916 0.017137186034331453 47.88967168680392 0.0 47.75125527312048 0.0 Z"
     style="fill:#ffffff;stroke:none"
     id="path10" />
  <path
     d="M 57.4095971952425 6.534261971637875 C 57.720798316614115 6.975331214335585 57.79611634493921 7.520530506762642 57.82260788468909 8.045323578643437 C 57.81088907685208 8.293469929106074 57.82969449047497 8.561931132714339 57.726804784499386 8.794766559726138 C 57.43611627037339 8.505407253538081 57.46188062574292 7.83694582801133 57.45541606924627 7.462494684847187 C 57.45541606924627 7.0935856629158005 57.44295255451371 6.791259695487602 57.4095971952425 6.534261971637875 ZM 40.82444645270179 6.118367576834393 L 55.96005463585038 6.1347085738567175 C 53.748908469834156 8.23052279650468 51.53156559148202 9.254877770001793 48.19007075758811 9.254877770001793 C 44.83459984041833 9.254876518393566 42.80422908298213 8.255743953903337 40.82444645270179 6.118367576834393 ZM 40.14513872716746 5.508944511413574 C 40.02635999163444 5.508944511413574 39.91834650469806 5.577900615116697 39.86865833274895 5.685811773302266 C 39.818920614905736 5.7938293181872 39.836739011800375 5.92108282992539 39.9141567950464 6.011350066923481 C 42.112902026741466 8.577559964655038 44.446560612528934 9.86333960030365 48.19007075758811 9.86333960030365 C 51.83389781695136 9.86333960030365 54.322774597111035 8.628187517470067 56.72327532030485 6.242046495473949 C 56.80599911451392 6.470687783314348 56.846954238944406 6.8306177678194056 56.846954238944406 7.462494684847187 C 56.86191846691614 8.165228898476139 56.85653029349541 9.329960495980059 57.77871148092324 9.411559094392318 C 58.42742753504802 9.278028767391648 58.426858053304365 8.58480427307762 58.431069714990954 8.045323578643437 C 58.431069714990954 7.381912392315911 58.26874113427654 6.780386974812592 57.99787308804619 6.323431068879253 C 57.72700504181584 5.866475162945914 57.32613244896257 5.526246743554859 56.84054600481801 5.526246743554859 L 40.14549404700951 5.508944511413574 C 40.14537559402457 5.508944511413574 40.14525716059602 5.508944511413574 40.14513872716746 5.508944511413574 Z"
     style="fill:#ffffff;stroke:none"
     id="path12" />
  <path
     d="M 49.13739677883835 13.891447831733498 Q 52.41105564091185 13.891447831733498 56.08018878007415 15.473350025567317 Q 52.41105564091185 17.011310124510075 49.13739677883835 17.011310124510075 Q 45.88570972703217 17.011310124510075 42.19460554042434 15.473350025567317 Q 45.88570972703217 13.891447831733498 49.13739677883835 13.891447831733498 ZM 49.13739677883835 12.880788803100586 Q 45.094758630115265 12.880788803100586 39.84372329711914 15.451378978121786 Q 45.094758630115265 17.999999377067105 49.13739677883835 17.999999377067105 Q 53.18003492756144 17.999999377067105 58.43107026055756 15.451378978121786 Q 53.2020062292809 12.880788803100586 49.13739677883835 12.880788803100586 Z"
     style="fill:#ffffff;stroke:none"
     id="path14" />
  <path
     d="M 63.87343454360962 0.0 L 63.87343454360962 10.205165270811676 L 64.72551623694429 10.205165270811676 L 64.72551623694429 0.8718977683999611 L 73.7615464754416 0.8718977683999611 L 73.7615464754416 9.293635835039254 L 70.27395636735804 9.313453056655135 L 70.25413914574216 3.5866701816862303 L 69.36242644882748 3.5866701816862303 L 69.36242644882748 10.205165270811676 L 74.63344339901482 10.205165270811676 L 74.63344339901482 0.0 Z"
     style="fill:#ffffff;stroke:none"
     id="path16" />
  <path
     d="M 69.25343863278636 14.09980308055384 Q 72.36108215426793 14.09980308055384 75.84414447376355 15.601483100191388 Q 72.36108215426793 17.061449437291458 69.25343863278636 17.061449437291458 Q 66.16665267671073 17.061449437291458 62.66273351594637 15.601483100191388 Q 66.16665267671073 14.09980308055384 69.25343863278636 14.09980308055384 ZM 69.25343863278636 13.140397071838379 Q 65.41581266689195 13.140397071838379 60.43107032775879 15.58062625892265 Q 65.41581266689195 17.99999981163353 69.25343863278636 17.99999981163353 Q 73.09106459868076 17.99999981163353 78.07580693781392 15.58062625892265 Q 73.11192168132857 13.140397071838379 69.25343863278636 13.140397071838379 Z"
     style="fill:#ffffff;stroke:none"
     id="path18" />
</svg>
