<?xml version="1.0" encoding="UTF-8" standalone="no"?>
<svg
   width="77.03396606445312"
   height="18.0"
   version="1.1"
   id="svg24"
   sodipodi:docname="sankhptahi.svg"
   inkscape:version="1.1.1 (3bf5ae0d25, 2021-09-20)"
   xmlns:inkscape="http://www.inkscape.org/namespaces/inkscape"
   xmlns:sodipodi="http://sodipodi.sourceforge.net/DTD/sodipodi-0.dtd"
   xmlns="http://www.w3.org/2000/svg"
   xmlns:svg="http://www.w3.org/2000/svg">
  <defs
     id="defs28" />
  <sodipodi:namedview
     id="namedview26"
     pagecolor="#ffffff"
     bordercolor="#666666"
     borderopacity="1.0"
     inkscape:pageshadow="2"
     inkscape:pageopacity="0.0"
     inkscape:pagecheckerboard="0"
     showgrid="false"
     inkscape:zoom="17.849269"
     inkscape:cx="38.516983"
     inkscape:cy="8.9919648"
     inkscape:window-width="1920"
     inkscape:window-height="1001"
     inkscape:window-x="-9"
     inkscape:window-y="-9"
     inkscape:window-maximized="1"
     inkscape:current-layer="svg24" />
  <path
     d="M 9.619241759901131 8.704017150225534 C 9.956114020057063 8.704017150225534 10.371109904274771 8.76399089929749 10.864229412554256 8.883939352346172 C 11.905261819800385 9.137163864337834 12.8056128816014 9.495897714329981 13.565284507766846 9.960140902322616 C 14.32495613393229 10.42438504522002 15.176070395910864 11.008207138114807 16.1186263387978 11.711606226102205 C 15.211383729261659 12.170969850713034 14.168207560803758 12.400651185566062 12.989095923614554 12.400651185566062 C 12.723796640788658 12.400651185566062 12.45161535927535 12.38902331016484 12.172553033979401 12.365768514267165 C 10.653210736553286 12.239155780818948 9.3484030744964 11.792497164191472 8.258132912523058 11.025791709479964 C 7.167863705454489 10.259086254768457 6.897054622097669 9.78780828332499 7.445706139904986 9.61195779514956 C 7.994358612617073 9.436108261878905 8.441018184149321 9.207503104703234 8.78568342214457 8.92614327852732 C 8.967086681565636 8.778059511294387 9.244939142516232 8.704017150225534 9.619241759901131 8.704017150225534 ZM 16.87829701005847 11.880422885731571 L 17.743478929129175 12.070340076094354 C 17.743478929129175 12.295428318996994 17.539492171864723 12.478311680813713 17.131522476954906 12.618992071354056 C 16.899402315315747 12.634818663035082 16.657389340244983 12.642731958875595 16.405485461552153 12.642731958875595 C 15.985642480714866 12.642731958875595 15.538322115080815 12.620750051038186 15.063526274459544 12.576788145172907 C 15.977946903162229 12.464244023721587 16.582870481695206 12.232122907177656 16.87829701005847 11.880422885731571 ZM 18.207723072026578 12.196952809542571 L 18.73527358164809 12.302462147543055 C 18.791544210016596 12.471278807172421 18.594593191107748 12.640094511897015 18.144416705302472 12.808910216621609 L 17.532460253128203 12.76670629044046 C 17.968567172031815 12.569755271531616 18.193655414934454 12.379837126264063 18.207723072026578 12.196952809542571 ZM 19.009598624373172 12.407972440448313 L 19.36833342927009 12.49238029281061 C 19.283925576907794 12.731536192805375 19.030702019820904 12.851114142802757 18.608660848199875 12.851114142802757 C 18.847816748194642 12.696366095170289 18.98146331018892 12.548652830988656 19.009598624373172 12.407972440448313 ZM 19.600455500718795 12.618992071354056 C 19.938086910167982 12.71746853571325 20.163175153070622 12.87925041189178 20.27571831961717 13.10433865479442 L 19.326128548184172 12.893318068983906 C 19.509013819810434 12.808910216621609 19.600455500718795 12.71746853571325 19.600455500718795 12.618992071354056 ZM 17.405847519679988 13.864010280959864 C 18.46094662911347 13.99062205950331 19.255788352914 14.28604954277135 19.790372691081576 14.750293685668755 L 17.173725448231284 14.138336278589716 C 17.20186267222508 13.983587276052475 17.279236696041313 13.892145595144116 17.405847519679988 13.864010280959864 ZM 5.187792747046841 0.40093762696942586 C 5.848988863757863 0.40093762696942586 6.3484031042903535 0.5838216154424017 6.686035468644312 0.9495895923883535 C 7.0236668780935005 1.3153575693343054 7.129177170998758 2.198124417859453 7.0025653924553115 3.5978901976453446 C 6.875952659007095 4.997655977431236 6.8337487328259465 5.947245271411848 6.875953136459481 6.446659034491953 C 6.918156585188243 6.946073275024443 7.048285755457107 7.315357867835686 7.266340169813683 7.554513290378066 C 7.4843936292654885 7.793669667825216 7.748168406623859 8.029308176094565 8.05766402443641 8.261430247543267 C 8.367160119701346 8.49355231899197 8.212412072068878 8.70105503562468 7.5934203589913905 8.883939352346172 C 6.974429123366289 9.06682271416289 6.629762930466267 9.33763179751971 6.559423212648482 9.69636660241663 C 6.48908301737831 10.055099497504006 6.577008261466024 10.385698033311902 6.823197990006852 10.688160300030777 C 7.069388196000066 10.99062256674965 7.656726725715499 11.398594171469009 8.585214534057924 11.912075114188854 C 9.513701864947961 12.42555701181347 10.333162943564483 12.752637678443564 11.043595860097945 12.893318068983906 C 11.754030686440949 13.033998459524248 13.931053141209826 13.10433865479442 17.57466322440458 13.10433865479442 C 18.700104438917776 13.315358285700162 19.445707453086325 13.596718111876076 19.811474176719763 13.94841813332216 L 17.405847519679988 13.399766138062459 C 17.18076118658689 13.47010633333263 17.00490974350669 13.60375194042214 16.87829701005847 13.800703914235756 C 16.87829701005847 14.166472547678739 16.083455286257944 14.37749217858448 14.493772793561655 14.433763761857755 C 14.254616893566888 14.433763761857755 14.092834062483586 14.103166180954629 14.008427165026061 13.441970064243609 L 13.755202653034399 13.652989695149351 C 13.881814431577844 14.187574033316928 13.91698452921293 14.658852004760394 13.860712945939655 15.066823609479753 C 13.663760972126038 14.588511809490223 13.319094779226017 14.271981885679224 12.826715322144361 14.117233838046756 C 12.038906471985122 13.976553447506413 11.335507383997724 13.846424754689936 10.71651519346785 13.726846804692553 C 10.097523002937978 13.607269809599941 9.471497938766813 13.350529338240019 8.838438091144814 12.956624435708015 C 8.275718438792987 12.520516561899633 7.371849507814169 12.049238590456165 6.126831775660745 11.542790521377611 C 4.881814043507322 11.03634340720383 4.259305416156803 10.283705609584448 4.259305416156803 9.284877128519467 C 4.259305416156803 8.286049602359258 4.593420388785345 7.459554695196674 5.261649856590044 6.805393361936487 C 5.929879801847128 6.151231551223914 6.2639942970232845 5.366941047694864 6.2639942970232845 4.452521373896952 C 6.2639942970232845 4.002345365544058 6.207722713750011 3.5767882345547704 6.095179069751077 3.175850219655281 C 5.993352799453844 2.8130966980279646 5.689997219321334 2.6317199372143065 5.185112329353548 2.6317199372143065 C 5.131966626849421 2.6317199372143065 5.076588356989783 2.6337295343056977 5.0189770423222475 2.6377489672146734 L 3.2464102329044677 2.869871038663376 C 3.3026820549039346 2.6869874381204633 3.387089668540039 2.5181714946696765 3.4996335512651657 2.363423447037208 C 3.6403134643531225 1.9273154538657298 3.795061511985591 1.6740914193264531 3.9638776941625706 1.6037515821455712 C 3.9884963327999836 1.6899181303705768 4.083125485835245 1.733001523846176 4.247764437089777 1.733001523846176 C 4.271284696513898 1.733001523846176 4.296233016023633 1.732122295277918 4.32261082797614 1.7303637187783059 C 4.603971609056825 1.7162955842337946 4.765753485235356 1.5756155517827413 4.8079574114165045 1.308323860151339 C 4.7798216197798675 1.0410321685199366 4.6180397436013365 0.9003521360688832 4.32261082797614 0.8862840612059201 C 4.069387270889249 0.9003521360688832 3.9287073578012923 1.0410321685199366 3.9005710887122693 1.308323860151339 C 3.6754838007144013 1.5193437297832741 3.4996337899913588 1.765533697050295 3.373021295269335 2.046893523226209 C 3.3320964640294637 2.0673559388461444 3.2921017100369276 2.0775870272930157 3.2530370332917253 2.0775870272930157 C 3.1846734908983327 2.0775870272930157 3.119158190711805 2.046253737029377 3.0564913714583355 1.9835869177759076 C 3.225307553635315 1.6459552696005268 3.471497998354722 1.2977725205167625 3.7950622281641695 0.9390390286139039 C 4.118625980521232 0.5803047608509185 4.582869168513866 0.40093762696942586 5.187792747046841 0.40093762696942586 ZM 9.977946007845366 14.159437764227905 L 10.653208826743741 14.328253468952498 L 9.89353815548307 15.425557459471902 L 9.977946007845366 14.159437764227905 ZM 11.286269629270512 14.391559835676606 C 11.84898928162234 14.391559835676606 12.32378416733884 14.451348333222912 12.71065428642001 14.570927238125066 C 13.09752440550118 14.690504233217677 13.336679350591174 15.144197633295988 13.428121986404305 15.932005528550455 C 13.517959427296729 16.705992132143816 13.400721948894024 17.092986388845265 13.07640859629142 17.092986388845265 C 13.070618053757709 17.092986388845265 13.064760667889999 17.092862251224986 13.058837393593063 17.09261588579397 L 11.03304511727885 17.09261588579397 C 10.988356528882543 17.089306185856326 10.942987093384234 17.087650380982737 10.896935855879153 17.087650380982737 C 10.551564943257846 17.087650380982737 10.167861288398607 17.180747866764687 9.745823936396663 17.366940928519046 C 9.858368057847983 16.382182014355735 10.3718499554726 15.390387361836815 11.286269629270512 14.391559835676606 ZM 5.187792747046841 0.0 C 4.231169147067781 0.0 3.443361967991892 0.5345838607151904 2.8243702549144043 1.6037515821455712 C 2.613350385282469 1.9554513648654634 1.9873244855696295 2.3071511475853557 0.946292317049693 2.6588511690314407 C 0.22882448278191372 2.869871038663376 -0.08067132899566878 3.165298999383801 0.017804894772284054 3.545135051192716 L 0.03890708726380924 3.798358369553414 C 1.3753664816751086 3.6717465910099687 2.493771957832701 3.5099647148314377 3.3941234970861016 3.3130129797440135 L 5.040079482865207 3.0175852577497815 C 5.048381902400062 3.0173546482474904 5.056615568791377 3.017239343496345 5.064780004586766 3.017239343496345 C 5.5546451974053515 3.017239343496345 5.796118651280282 3.432360558965298 5.789199888759171 4.2626027511770115 C 5.782166060213108 5.106682229704753 5.4269491244939925 5.862836941597166 4.723549559054208 6.5310668868542505 C 4.020149993614424 7.199296832111335 3.661415904896083 8.166471652361876 3.6473477703515713 9.432591347605873 C 3.6473477703515713 10.459556097759878 4.136210551886389 11.19460836910933 5.11393659240841 11.637750071463774 C 6.09166167802566 12.08089177381822 7.037734535185626 12.555685704629948 7.952154686435924 13.062133773708501 C 8.866573405329065 13.568581842787054 9.387089131499744 13.962486745319058 9.513701864947961 14.243845616590201 C 9.44336166967779 15.735053554736838 9.26047830786107 16.698711938166735 8.96504986968826 17.134818857070343 C 8.472670412606604 17.134818857070343 7.614522322081965 17.064478661800173 6.390606553019116 16.92379827125983 C 6.01077121738878 16.980070809437876 5.75051335430344 17.10316567370829 5.609832486310712 17.293084773880615 C 5.469153528127526 17.48300387405294 5.497289319764163 17.69050468087611 5.69424129357778 17.91559292377875 C 5.7882960713930505 17.77973671214347 5.878469161312617 17.711806696516287 5.9647610407888685 17.711806696516287 C 5.99463093949035 17.711806696516287 6.024035799568166 17.719946304787623 6.052975621022314 17.73622552133029 C 6.165519265021248 17.799531888054396 6.446879091197162 17.831185071416453 6.897054144645284 17.831185071416453 L 8.96504986968826 17.831185071416453 C 9.066651737364214 17.811645809984256 9.162826881224358 17.801877134172933 9.253573391459145 17.801877134172933 C 9.489516991802953 17.801877134172933 9.68877028611562 17.867918348162302 9.851334229301921 18.000000776141047 C 10.048286203115538 17.98593311904892 10.21710095293536 17.929660580870873 10.357781343475702 17.831185071416453 C 10.978782653644581 17.849272877596132 11.498366392758383 17.8583158257812 11.916529696102794 17.8583158257812 C 12.474082358736627 17.8583158257812 12.85133372205558 17.842239049050068 13.048285695869197 17.810083585778262 C 13.39295188876922 17.753811047600216 13.705964898307187 17.704574247777778 13.987324724483102 17.662369366691856 L 14.704792424467398 17.89449143814056 C 14.713104870502352 17.89513122433739 14.721098378343662 17.895450162531034 14.728771038181785 17.895450162531034 C 14.889915037973028 17.895450162531034 14.91005779922074 17.754450833797048 14.789201231734465 17.47245026651953 C 14.170209041204592 17.134818857070343 14.02952865066425 16.28370459509177 14.367161015018208 14.919109390393348 L 14.367161015018208 14.919109390393348 C 14.486100133723532 14.921667580275903 14.601202445057407 14.922946197764796 14.712467949019834 14.922946197764796 C 15.825117259215483 14.922946197764796 16.55409538131412 14.795054846827687 16.899400405506203 14.539274054763013 C 18.306200491290543 14.792496656945131 19.452741281632388 15.03868734039073 20.33902468634128 15.277843240385495 L 20.486738905427682 15.024620638203377 C 20.1209702719847 14.616648078579246 19.84664522925962 14.356389738041521 19.6637618674429 14.243845616590201 L 19.6637618674429 14.243845616590201 L 20.59224824342817 14.433763761857755 C 20.74230770863311 14.490035345131028 20.8462548224276 14.518171614220051 20.90408958481164 14.518171614220051 C 21.01975910957972 14.518171614220051 20.95098304832509 14.405627492768732 20.697759491238198 14.180540204770864 C 20.641486953060152 14.025792157138396 20.23351534834079 13.723330845324293 19.473842767270575 13.273154359519014 L 19.473842767270575 13.273154359519014 L 20.761063948152763 13.526377916605906 C 20.901744338693106 12.62602685480489 19.924019253075855 11.985932223732057 17.827886781491472 11.606096888101721 C 16.73058279097207 11.352873331014829 15.738790048262691 10.86049196412363 14.852506643553802 10.12895660704721 C 13.684862457764227 9.101993766702748 11.91932947689251 8.349355969083367 9.55590579112911 7.871043214189065 C 8.303853752977238 7.786635839279153 7.607488493535902 7.4032831119233995 7.466808580447945 6.72098550957419 C 7.326128667359988 6.038687429772594 7.32964558163302 4.95193465952467 7.477359800719425 3.4607274375566117 C 7.625073542353445 1.969519857499264 7.417570825720734 0.9988280632941434 6.854850695916521 0.5486519952597018 C 6.43281095665265 0.1828839884729759 5.877125132846886 0.0 5.187792747046841 0.0 Z"
     style="fill:#ffffff;stroke:none"
     id="path2" />
  <path
     d="M 27.177865186478382 7.937876256002994 C 26.496671245133623 7.991654064440127 26.120222241250442 8.332250793733436 26.04851793344977 8.959665719745715 C 26.138148499234912 9.640860143848613 26.514597503118093 9.999383372505463 27.177865186478382 10.035235888474404 C 27.84113286983867 9.999383372505463 28.190692728124215 9.640860143848613 28.226544278576878 8.959665719745715 C 28.172766470139745 8.332250793733436 27.8232066118542 7.991654064440127 27.177865186478382 7.937876256002994 ZM 27.25853214051315 5.679180301671352 C 27.742538692303153 5.679180301671352 28.190693210882355 5.768811229525099 28.602994730734476 5.948073085232593 C 29.01529576782846 6.127334940940088 29.378299957533752 6.373819539952137 29.692007299850356 6.687527123647811 C 30.0057151249251 7.001234707343485 30.252199844626684 7.3597576946212655 30.43146145895511 7.763095602723013 C 30.610722590525395 8.16643375220383 30.700352914931468 8.592179844854769 30.700352914931468 9.040334122054901 C 30.700352914931468 9.506413933102294 30.610722590525395 9.941123154745469 30.43146145895511 10.344461786984425 C 30.252199844626684 10.747799936465242 30.0057151249251 11.101841721315509 29.692007299850356 11.406586176018948 C 29.378299957533752 11.711330630722387 29.01529576782846 11.948851980052666 28.602994730734476 12.119151189526065 C 28.190693210882355 12.289449433483185 27.742538692303153 12.374598314082675 27.25853214051315 12.374598314082675 C 26.774526312860356 12.374598314082675 26.32189131599085 12.289449433483185 25.900626908525563 12.119151189526065 C 25.479361776923067 11.948851980052666 25.116357104459635 11.711330630722387 24.8116130118248 11.406586176018948 C 24.506868074363222 11.101841721315509 24.264865160536825 10.747799936465242 24.085604149656074 10.344461786984425 C 23.906342354293347 9.941123154745469 23.8167114264396 9.506413933102294 23.8167114264396 9.040334122054901 C 23.8167114264396 8.592179844854769 23.906342354293347 8.16643375220383 24.085604149656074 7.763095602723013 C 24.264865160536825 7.3597576946212655 24.506868074363222 7.001234707343485 24.8116130118248 6.687527123647811 C 25.116357104459635 6.373819539952137 25.479361776923067 6.127334940940088 25.900626908525563 5.948073085232593 C 26.32189131599085 5.768811229525099 26.774526312860356 5.679180301671352 27.25853214051315 5.679180301671352 ZM 27.204754814834157 4.764946937561035 C 26.61319119789547 4.764946937561035 26.057480338304796 4.876985476688684 25.53762175330399 5.101062554943983 C 25.017763409682257 5.325139663371665 24.569609615240264 5.629884118075104 24.193160490667548 6.015295949226683 C 23.8167114264396 6.400708564860238 23.516448355197976 6.848862238612696 23.292371276942678 7.359757211863126 C 23.068294998255546 7.870652909250765 22.956256866455078 8.421882083655788 22.956256866455078 9.013444493699126 C 22.956256866455078 9.605007145121533 23.068294998255546 10.156236319526556 23.292371276942678 10.667132016914195 C 23.516448355197976 11.178027714301834 23.8167114264396 11.621700306316313 24.193160490667548 11.998149310199494 C 24.569609615240264 12.374598314082675 25.017763409682257 12.67486180773767 25.53762175330399 12.898938825648202 C 26.057480338304796 13.123014878042454 26.61319119789547 13.23505338699772 27.204754814834157 13.23505338699772 C 27.796317466256564 13.23505338699772 28.347546157903448 13.123014878042454 28.85844088977481 12.898938825648202 C 29.369336587162447 12.67486180773767 29.81749062298351 12.374598314082675 30.202903479996134 11.998149310199494 C 30.58831537149248 11.621700306316313 30.89305982619592 11.178027714301834 31.11713636134831 10.667132016914195 C 31.34121434477512 10.156236319526556 31.453252853730387 9.605007145121533 31.453252853730387 9.013444493699126 C 31.453252853730387 8.421882083655788 31.34121434477512 7.870652909250765 31.11713636134831 7.359757211863126 C 30.89305982619592 6.848862238612696 30.58831537149248 6.400708564860238 30.202903479996134 6.015295949226683 C 29.81749062298351 5.629884118075104 29.369336587162447 5.325139663371665 28.85844088977481 5.101062554943983 C 28.347546157903448 4.876985476688684 27.796317466256564 4.764946937561035 27.204754814834157 4.764946937561035 Z"
     style="fill:#ffffff;stroke:none"
     id="path4" />
  <path
     d="M 45.97572972625916 4.046478402127225 C 45.94751793409187 4.046478402127225 45.920543047639455 4.051427855405866 45.894805982111485 4.061326761963146 C 45.87104851485306 4.093003308706921 45.87104851485306 4.116760775965349 45.894805982111485 4.13259939254082 C 45.91856344936991 4.118344889305524 45.9462412167613 4.1112175804872795 45.97783882668087 4.1112175804872795 C 46.05156627809003 4.1112175804872795 46.14663550113465 4.150021321648104 46.26304741102429 4.227629032772144 L 46.34619786002162 4.227629032772144 L 46.34619786002162 4.180114327057677 L 46.26304741102429 4.180114327057677 C 46.15613857955898 4.0910237104373754 46.0603660179706 4.046478402127225 45.97572972625916 4.046478402127225 ZM 45.971781969839526 4.149229093376225 C 45.94263849434426 4.149229093376225 45.92489944512584 4.1555644027249805 45.91856390697469 4.16823502142249 C 45.91064459868696 4.1840735235967665 45.90668448693831 4.203871565513715 45.90668448693831 4.227629032772144 C 45.90668448693831 4.275143738486612 45.930442411801515 4.298900976942651 45.97795734631838 4.298900976942651 C 46.033391589122964 4.298900976942651 46.108623645042115 4.283062817971958 46.203653056471055 4.251386271228183 C 46.108623645042115 4.188032948938245 46.039330841536376 4.154376575122536 45.99577556116339 4.150416806577474 C 45.987065054214526 4.149625035910373 45.979067037904976 4.149229093376225 45.971781969839526 4.149229093376225 ZM 46.46498519631376 4.405810037210356 C 46.44914703734307 4.405810037210356 46.44122818666011 4.413729116695703 46.44122818666011 4.4295670468640065 C 46.44122818666011 4.445405663439477 46.44914703734307 4.453324971727213 46.46498519631376 4.453324971727213 C 46.48874266357219 4.453324971727213 46.50062162600379 4.445405663439477 46.50062162600379 4.4295670468640065 C 46.50062162600379 4.413729116695703 46.48874266357219 4.405810037210356 46.46498519631376 4.405810037210356 ZM 46.60753045746911 4.01381182744629 C 46.69464101821509 4.01381182744629 46.738196756192856 4.0454883741900645 46.738196756192856 4.108841582078808 C 46.738196756192856 4.1642757104822055 46.726317793761254 4.211790644999062 46.70255941129327 4.251386271228183 C 46.678802401639615 4.2909823550620825 46.6392067754105 4.338497289578939 46.58377299021068 4.393931532383531 C 46.528338747406096 4.449365546385734 46.49072271944652 4.479062266057575 46.47092490633195 4.483021691399054 C 46.46696525218809 4.48381357646735 46.4631639292974 4.484209633402692 46.45952139526467 4.484209633402692 C 46.444949886319435 4.484209633402692 46.43291305023943 4.477874324053937 46.4234099718151 4.465203476554038 C 46.41153146698827 4.449365317583345 46.413511065257815 4.429567504468785 46.42934876662373 4.405810037210356 L 46.51250104604018 4.310780396979032 L 46.60753045746911 4.251386271228183 C 46.61544976575685 4.23554811225749 46.60555040159479 4.213770472070996 46.57783328019249 4.186053121866311 C 46.550116158790196 4.158336229266404 46.54813656052065 4.132599163738431 46.57189402777908 4.108841582078808 C 46.58377299021068 4.096962734048399 46.59565149503751 4.091023367233793 46.60753045746911 4.091023367233793 C 46.619408962295935 4.091023367233793 46.63128792472754 4.096962734048399 46.64316642955436 4.108841582078808 C 46.666924354417574 4.132599163738431 46.67088400856144 4.162296112212661 46.655045391985965 4.197932541902692 C 46.63920723301528 4.233568285185557 46.599611606786155 4.290982126259694 46.53625805569383 4.370173836322714 L 46.54813656052065 4.370173836322714 C 46.627328270583675 4.298901434547429 46.67286360683099 4.249406901761027 46.68474211165781 4.221689551556342 C 46.69662061648464 4.193972658956436 46.70255941129327 4.156356630996859 46.70255941129327 4.108841582078808 C 46.70255941129327 4.0771650353350335 46.67088309335188 4.061326761963146 46.60753045746911 4.061326761963146 C 46.56793437363521 4.061326761963146 46.544176906376784 4.069245955849687 46.53625805569383 4.085084458023963 C 46.52833828980131 4.100922616994656 46.52437863565745 4.120720315708022 46.52437863565745 4.144477897367645 C 46.52437863565745 4.17615444411142 46.540217252232914 4.207830990855195 46.57189402777908 4.239507766401358 L 46.50062162600379 4.287022472115826 C 46.476864158745364 4.223669378628276 46.47092490633195 4.162296112212661 46.482803868763554 4.102902672868979 C 46.49468237359038 4.043508775920519 46.53625805569383 4.01381182744629 46.60753045746911 4.01381182744629 ZM 41.91543010192355 3.728721991542761 C 42.105490068793365 3.728721991542761 42.267832685458494 3.7603987670889247 42.402458066320136 3.823752318181252 C 42.228236601624594 4.029650329620566 42.065893984959466 4.302861088691296 41.91543010192355 4.64338448099225 C 41.764966218887636 4.302861088691296 41.6026236022225 4.029650329620566 41.42840219472756 3.823752318181252 C 41.563027975993386 3.7603987670889247 41.725370592658514 3.728721991542761 41.91543010192355 3.728721991542761 ZM 50.08799963963125 3.728721991542761 C 50.278059377698675 3.728721991542761 50.4404019943638 3.764358306831598 50.575027489626635 3.8356309374092716 C 50.40080545292513 4.033609869363239 50.23846283626 4.302861088691296 50.08799963963125 4.64338448099225 C 49.94545483608068 4.302861088691296 49.78311130420599 4.033609869363239 49.6009708744263 3.8356309374092716 C 49.735596369689134 3.764358306831598 49.89793898635426 3.728721991542761 50.08799963963125 3.728721991542761 ZM 46.66692389681279 3.348602973012686 C 46.94409465323098 3.348602973012686 47.17572961579707 3.376319865612593 47.36182969972063 3.431753536411213 C 47.547929783644186 3.48718766481461 47.64098005440835 3.6336922369102425 47.64098005440835 3.8712672526981082 C 47.64098005440835 4.108841810881197 47.55980828847101 4.285042873846281 47.39746567180588 4.399870327192166 C 47.23512351274553 4.514698466945218 47.110396924039975 4.603789083565518 47.02328590568922 4.667142177053067 C 46.888659952821605 4.5800313875047 46.79758973793176 4.457284397068692 46.75007526101968 4.298900976942651 C 46.781751578961064 4.243467420545226 46.797590195536536 4.184073752399155 46.797590195536536 4.120720086905633 C 46.797590195536536 4.0177713671889626 46.73423664444421 3.962337467587954 46.60753045746911 3.9544183881026074 C 46.5125005884354 3.9544183881026074 46.44914703734307 4.005892747960942 46.41747026179691 4.108841582078808 C 46.40163256043099 4.01381182744629 46.352137570039815 3.952438332228285 46.268986205832924 3.9247210964247943 C 46.18583529923082 3.8970042038248875 46.108623645042115 3.8712670238957196 46.037350785662056 3.8475094422360967 C 46.18781489750036 3.5149052438216843 46.39767290628713 3.348602973012686 46.66692389681279 3.348602973012686 ZM 45.69286819682201 4.64338448099225 L 45.85917001002623 4.6790206818798925 L 45.75226163616569 4.6790206818798925 C 45.71266600993657 4.6790206818798925 45.69286819682201 4.667141948250679 45.69286819682201 4.64338448099225 ZM 45.894805982111485 4.714657111569924 C 45.894805982111485 4.72257619105527 45.83937219691167 4.7384143500259635 45.72850462651204 4.762171817284392 C 45.72058531822431 4.76613147142826 45.71563586494567 4.768111069697804 45.71365580907134 4.768111069697804 C 45.7116762108018 4.768111069697804 45.71266555233179 4.76613147142826 45.71662520647566 4.762171817284392 C 45.70870635579271 4.7384143500259635 45.72058486061953 4.726535616396749 45.75226163616569 4.726535616396749 L 45.79977657068255 4.7384148076307415 L 45.894805982111485 4.714657111569924 ZM 44.693569186858696 4.607748280104608 C 44.7123769720361 4.607748280104608 44.7306900864485 4.615667359589954 44.74850830129351 4.631505747363036 C 44.78414450218116 4.663182522909199 44.76632651613853 4.762171817284392 44.69505388556085 4.9284743168957785 C 44.615862633102616 4.762171817284392 44.59606481998805 4.663182522909199 44.63566044621717 4.631505747363036 C 44.65545825933174 4.615667359589954 44.67476117287891 4.607748280104608 44.693569186858696 4.607748280104608 ZM 45.88292747728466 4.001933322619465 C 45.95420033666473 4.001933322619465 46.045270551554566 4.01381182744629 46.15613812195419 4.037568951501134 C 46.298682925504764 4.061326533160757 46.37391498142392 4.124679855450696 46.381834289711655 4.227629032772144 C 46.43726807491147 4.227629032772144 46.46498519631376 4.247426845886705 46.46498519631376 4.287022472115826 C 46.38579348625074 4.334537635435072 46.34619786002162 4.389971649437275 46.34619786002162 4.453324971727213 C 46.34619786002162 4.516678065214762 46.381834289711655 4.548354611958537 46.45310669148694 4.548354611958537 C 46.492702775320836 4.548354611958537 46.5520966722693 4.508758756927027 46.631288382332315 4.4295670468640065 C 46.68672216753213 4.587950466990048 46.80946870036336 4.730495499343006 46.99952798082601 4.857201686318105 C 46.991609130143054 4.991827410383328 47.01932625154535 5.122493709107073 47.08267980263768 5.249200582489339 C 47.01932625154535 5.312553218372111 46.91439747595436 5.344229536313497 46.767893475864696 5.344229536313497 C 46.62138856056548 5.344229536313497 46.520419439118356 5.320472297857457 46.46498519631376 5.27295759214299 C 46.349381874066815 5.148461407443149 46.395852554480314 4.9720616296032265 46.27794519217623 4.898679212196672 C 46.206672332796174 4.898679212196672 46.04922974809366 4.960151092441943 45.85917001002623 4.975989251412635 C 45.81165507550938 4.968070171927289 45.7859180099814 4.950251957082274 45.78195835583753 4.922534606877589 C 45.77799870169367 4.894817943080071 45.77205899167548 4.865121223408229 45.76414014099252 4.833444447862066 C 45.85917001002623 4.793848364028166 45.92648275765765 4.750293083655178 45.96607884149155 4.70277837794071 C 45.88688713142853 4.655263443423854 45.8235335803362 4.6196270137338225 45.77601864581934 4.595869546475393 L 45.77601864581934 4.548354611958537 C 45.85521035588236 4.532516681790233 45.894805982111485 4.512718868675673 45.894805982111485 4.4889611726148555 C 45.87896828074557 4.449365088780956 45.85521035588236 4.4295670468640065 45.8235335803362 4.4295670468640065 C 45.79977657068255 4.437486583954131 45.791857262394814 4.449365317583345 45.79977657068255 4.465203476554038 C 45.815614272048464 4.481042093129509 45.79779605720345 4.4889611726148555 45.7463219261475 4.4889611726148555 C 45.694847795091555 4.4889611726148555 45.66911027195881 4.485001747273376 45.66911027195881 4.47708266778803 C 45.66911027195881 4.461244051212559 45.67306992610267 4.445405663439477 45.68098877678563 4.4295670468640065 C 45.791857262394814 4.263265233659787 45.85917001002623 4.120720658911606 45.88292747728466 4.001933322619465 ZM 45.77601864581934 7.613068345900566 L 45.72850462651204 7.96943035477699 L 45.39589962728927 7.96943035477699 C 45.174163113675675 7.771451308421828 44.98806302975212 7.672461785244248 44.837598917913816 7.672461785244248 L 44.837598917913816 7.624946850727391 C 44.936148682899756 7.63902506172197 45.040173689054235 7.646064396021648 45.14967393637726 7.646064396021648 C 45.28654764391431 7.646064396021648 45.43197627277572 7.63506586518288 45.585958907751916 7.613068345900566 ZM 47.0945583074645 5.498653531098058 C 47.34005228833652 6.013398731298134 47.312335166934226 6.932020646089103 47.011407400862396 8.25451996187813 C 47.2727395407051 8.769265390880594 47.29253735381967 9.200859455676174 47.070800840206076 9.549302156264861 C 46.97577097117236 10.11948137046714 46.94013499908711 10.99454800488512 46.963892466345534 12.1745020595188 C 46.95597361566258 13.51283953427852 46.95597361566258 14.209724935455897 46.963892466345534 14.265160093470046 C 47.08267980263768 14.613602336453958 47.070800840206076 14.799701962772737 46.928256036655505 14.823458972426389 L 45.585958907751916 14.823458972426389 C 45.98191700046224 14.649238766143988 46.30264303725341 14.403745700481526 46.54813656052065 14.086977945019889 C 46.627328270583675 13.762293626899185 46.61544976575685 13.279224058233327 46.51250104604018 12.637772899860542 C 46.40955141111395 11.996320826278199 46.270966261707244 11.01830501453877 46.09674468261051 9.703725464642257 C 45.92252356111856 8.389145457140966 46.05714905638139 6.999333851325298 46.50062162600379 5.534289731985701 C 46.56397471949135 5.560964887308534 46.635751401731966 5.574302236167562 46.715952130330436 5.574302236167562 C 46.82622801775213 5.574302236167562 46.95242992426189 5.549085924876931 47.0945583074645 5.498653531098058 ZM 47.33213298004878 15.156064429253941 L 47.33213298004878 15.536183905388793 L 43.99420860143722 15.536183905388793 L 44.21990454039229 15.156064429253941 ZM 43.231384410974314 2.554739193056654 C 43.34972443859598 2.554739193056654 43.477292752972794 2.5639674798118035 43.61408958290715 2.582424081922401 C 44.11299639533414 2.6497369725553113 45.85521081348714 2.8576148396668573 48.84073283736615 3.2060576546567408 C 49.561376163406734 3.2535727607753895 49.905858294642 3.356521823695643 49.87418197670061 3.5149046718157115 C 49.652445920691804 3.5149046718157115 49.458426986085286 3.6218133888798336 49.29212425767151 3.8356309374092716 C 49.21293209000371 3.922741612556444 49.19511479036825 3.9781757409598413 49.23867052834602 4.001933322619465 C 49.253188497532236 4.009852287703616 49.270566496580834 4.01381182744629 49.290804525491815 4.01381182744629 C 49.331279668104216 4.01381182744629 49.38319401495658 3.9979735540744024 49.446547566048906 3.9662970073306276 C 49.597010762677655 4.077165264137422 49.751434986264606 4.342456714920418 49.90981840639064 4.762171817284392 L 49.89793898635426 15.536183905388793 L 47.56970719502829 15.536183905388793 L 47.56970719502829 14.954126186359689 L 47.33213298004878 14.954126186359689 C 47.4271628490825 14.819499775887298 47.415284344255674 14.581925103303014 47.29649655035875 14.241401253397283 L 47.29649655035875 10.535237276292024 C 47.2885776996758 10.052168622835723 47.32817332590492 9.763119361590716 47.4152838866509 9.668089492557003 C 47.57366730677694 9.200859455676174 47.549909839518506 8.729669764651472 47.34401148487561 8.25451996187813 C 47.573666849172156 6.932020646089103 47.617222587149925 6.049034703383388 47.47467824120413 5.605561676156208 L 47.47467824120413 5.332351031486671 C 47.506354101540744 5.197725765026226 47.5538690360576 5.130413017394808 47.617222587149925 5.130413017394808 C 47.656818670983824 5.130413017394808 47.676616941703166 5.158130138797104 47.676616941703166 5.213564152799307 L 47.62910109197675 6.793435496682401 L 48.08049342749167 6.793435496682401 L 47.9498275863727 5.142291522221633 C 47.9498275863727 5.055180961475656 47.90429225012539 4.993807237455263 47.81322203523554 4.95817103656762 C 47.772240781738695 4.942134734728061 47.73165993242258 4.934116583808282 47.69148040249676 4.934116583808282 C 47.64237163053819 4.934116583808282 47.59386140562923 4.946094388871929 47.54595018537464 4.970050227801612 C 47.458839624628666 5.01360573697699 47.375688260421775 5.138332096880156 47.29649655035875 5.344229536313497 C 47.19354783064208 5.154170027048459 47.15791185855683 4.9878679850418495 47.18958817649822 4.845323181491279 C 47.205426793073684 4.774051008518384 47.241062765158944 4.718616765713792 47.29649655035875 4.6790206818798925 C 47.652859016839955 4.52063771935863 47.83104025008056 4.243467420545226 47.83104025008056 3.8475094422360967 C 47.83104025008056 3.451551578328162 47.57564736265126 3.23377471885844 47.06486158779266 3.1941791498299157 C 46.97027193455536 3.1868466624693434 46.88206449515657 3.1831803901887588 46.80023881199149 3.1831803901887588 C 46.44020452477177 3.1831803901887588 46.20372673084031 3.2541595245019552 46.0908054301971 3.3961179075295425 C 45.9522202807904 3.5703392578238873 45.85521035588236 3.7445606081182317 45.79977657068255 3.9187820728137703 C 45.791857262394814 3.997973325272013 45.77997875756799 4.061326533160757 45.76414014099252 4.108841582078808 C 45.74830198202183 4.156356630996859 45.70870635579271 4.223669607430665 45.645352347095596 4.310780396979032 C 45.581999253608046 4.39789095772501 45.554282132205756 4.457284625871081 45.56220144049349 4.4889611726148555 C 45.57804005706896 4.528556798843976 45.61367602915421 4.548354611958537 45.66911027195881 4.548354611958537 C 45.66911027195881 4.580031158702312 45.64931245884424 4.603788854763129 45.60971683261512 4.619627242536211 C 45.60971683261512 4.659222868765332 45.621595337441946 4.690899415509107 45.645352347095596 4.714657111569924 C 45.61367602915421 4.778010205057473 45.62555453398104 4.821565485430463 45.68098877678563 4.845323181491279 L 45.70474670164884 4.987867756239461 C 45.67242058492272 5.193068492398327 45.456093874994416 5.612438789562091 45.423676237312705 5.764504060518552 L 45.686763749083745 5.775343116092193 L 45.930442411801515 5.07101889164396 C 46.057148598776614 5.0630998121586135 46.14821927127124 5.051221307331788 46.203653056471055 5.035383148361095 C 46.211572822363564 5.162089564138583 46.243249140304954 5.268998166801511 46.298682925504764 5.356108727547488 C 46.09278548607143 6.037156427358951 45.94232137423312 6.63109288001727 45.84729150519941 7.1379190007319995 L 45.40777813211609 7.1379190007319995 C 45.2256377023364 6.932020646089103 45.035577964268974 6.829071926372432 44.837598917913816 6.829071926372432 L 44.837598917913816 6.615254721046577 L 44.956385796601175 6.615254721046577 L 44.86135638517224 6.211377777653297 C 44.869275693459976 6.155943534848705 44.91679062797684 6.112388254475715 45.00390073111804 6.08071170773194 L 45.00390073111804 6.0094390771542665 L 44.873235347603845 6.0094390771542665 C 44.873235347603845 5.96192414263741 44.91679062797684 5.9223282876059 45.00390073111804 5.890651512059736 L 45.00390073111804 5.819379567889229 L 44.873235347603845 5.819379567889229 C 44.873235347603845 5.77978348405533 44.91679062797684 5.7520665914554225 45.00390073111804 5.7362284324847295 L 45.00390073111804 5.664955801907056 L 44.873235347603845 5.664955801907056 C 44.873235347603845 5.625359718073158 44.91679062797684 5.597642596670861 45.00390073111804 5.581804666502557 L 45.00390073111804 5.498653531098058 L 44.88511385243067 5.498653531098058 L 44.88511385243067 5.427381586927551 L 44.80196294582856 5.427381586927551 C 44.7702861702824 5.356108727547488 44.7544480113117 5.237321391255347 44.7544480113117 5.07101889164396 L 44.7544480113117 5.07101889164396 C 44.825719955482214 5.094776587704777 44.871255291729526 5.114574400819338 44.891052647239306 5.130413017394808 C 44.910851375563425 5.146251176365501 44.92866913280366 5.158129909994715 44.94450729177435 5.1660494470848395 C 44.96034590834982 5.08685773702182 44.96034590834982 5.0076660269588 44.94450729177435 4.9284743168957785 C 44.88907304896976 4.975989480215024 44.825719955482214 5.003706372814932 44.7544480113117 5.011625452300278 C 44.873235347603845 4.789888938686688 44.91283097383297 4.651303789279986 44.873235347603845 4.595869546475393 C 44.833639263769946 4.540435303670802 44.79800283407992 4.504799331585549 44.76632651613853 4.4889611726148555 L 44.76632651613853 4.096963077251983 C 44.77424536682149 3.9781757409598413 44.758407207850794 3.895024605555342 44.71881158162167 3.8475094422360967 C 44.774245595623874 3.7603987670889247 44.85541713275883 3.6416114307967833 44.962325506619365 3.4911475477608667 C 45.069233880479906 3.3406836647249505 45.09101174946879 3.210017594803595 45.02765865598124 3.099149395197397 L 45.02765865598124 3.099149395197397 C 44.829679609626076 3.3763195224090095 44.68713480607551 3.55648046832035 44.60002401652714 3.639631832527238 C 44.51291345578117 3.7227828535305427 44.45549961470703 3.817812493761867 44.42778272210712 3.9247210964247943 C 44.400065371902436 4.03162992789011 44.22782361987764 4.310780396979032 43.91105746603272 4.762171817284392 C 44.10111743290254 4.7384143500259635 44.30305590459918 4.532516452987844 44.516872881122644 4.144477897367645 C 44.556468964956544 4.089043768964247 44.58418608635884 4.053407453675411 44.60002401652714 4.037568951501134 C 44.602903723394974 4.034689359034496 44.6055216803298 4.03324950560058 44.607877887331625 4.03324950560058 C 44.61848059003744 4.03324950560058 44.62378194139035 4.062406480436792 44.62378194139035 4.120720086905633 L 44.62378194139035 4.4889611726148555 C 44.584186315161226 4.504799331585549 44.54459046012972 4.540435303670802 44.50499437629582 4.595869546475393 C 44.4653987500667 4.651303789279986 44.504994605098204 4.789888938686688 44.62378194139035 5.011625452300278 C 44.5762667780711 5.003706372814932 44.51291345578117 4.975989480215024 44.433721745718145 4.9284743168957785 C 44.41788358674745 5.0076660269588 44.41788358674745 5.090817162363298 44.433721745718145 5.177927951911665 C 44.51291345578117 5.13041278859242 44.58022620341258 5.094776587704777 44.63566044621717 5.07101889164396 L 44.63566044621717 5.07101889164396 C 44.627741366731826 5.237321391255347 44.611902978958746 5.356108727547488 44.58814551170032 5.427381586927551 L 44.493115871468994 5.427381586927551 L 44.493115871468994 5.498653531098058 L 44.374328306374466 5.498653531098058 L 44.374328306374466 5.581804666502557 C 44.46935794660579 5.597642596670861 44.516872881122644 5.625359718073158 44.516872881122644 5.664955801907056 L 44.374328306374466 5.664955801907056 L 44.374328306374466 5.7362284324847295 C 44.46935794660579 5.7520665914554225 44.516872881122644 5.77978348405533 44.516872881122644 5.819379567889229 L 44.374328306374466 5.819379567889229 L 44.374328306374466 5.890651512059736 C 44.46935794660579 5.9223282876059 44.516872881122644 5.96192414263741 44.516872881122644 6.0094390771542665 L 44.374328306374466 6.0094390771542665 L 44.374328306374466 6.08071170773194 C 44.46935794660579 6.112388254475715 44.516872881122644 6.155943534848705 44.516872881122644 6.211377777653297 L 44.42184324089132 6.615254721046577 L 44.57626700687349 6.615254721046577 L 44.57626700687349 6.817193421545607 L 44.267419932513924 6.817193421545607 C 44.2040663814216 6.848869739486993 44.1763492600193 6.8845061691770235 44.184268797109425 6.924101795406145 C 44.208025806763075 6.963696964030489 44.2476214329922 6.991414085432784 44.30305567579679 7.007252702008255 C 44.26346004956767 7.03892947755442 44.26346004956767 7.066646598956715 44.30305567579679 7.090404066215143 C 44.25554097008232 7.1379190007319995 44.25950062422619 7.181474281104989 44.31493486703078 7.22106990733411 C 44.27533878319688 7.2685852994557445 44.27533878319688 7.312140579828733 44.31493486703078 7.351736206057854 C 44.283258320287004 7.4150892995454045 44.29513705391622 7.474482738889086 44.35057106791842 7.5299169816936775 C 44.42184324089132 7.577431916210534 44.49707529681047 7.60514903761283 44.57626700687349 7.613068345900566 L 44.57626700687349 7.672461785244248 C 44.52875184355425 7.676421439388116 44.48024688110023 7.678401495262438 44.43075211951144 7.678401495262438 C 44.381257586725035 7.678401495262438 44.33077279719908 7.676421439388116 44.27929843734075 7.672461785244248 C 44.22386442333855 7.704138560790411 44.2040663814216 7.739774990480442 44.21990454039229 7.7793706167095635 C 44.23574292816537 7.818966242938686 44.26741970371153 7.854602215023939 44.31493486703078 7.886278990570102 C 44.283258320287004 7.925874616799224 44.27533901199927 7.965470243028345 44.291176942167574 8.005066326862243 C 44.307015558743046 8.044661953091365 44.30899538581498 8.080298382781397 44.297116652185764 8.111974700722783 C 44.285237918556554 8.143651933873723 44.293156998041894 8.169388999401697 44.320873661839414 8.189186812516258 C 44.3485910120441 8.20898462563082 44.3545304932599 8.232742092889247 44.33869187668443 8.260458756686763 C 44.322853946516126 8.288176335693839 44.32879319892954 8.31391340122181 44.356510091529444 8.337671326085019 C 44.384226984129356 8.361428793343446 44.398085316028116 8.395085167159156 44.398085316028116 8.438639989927367 C 44.398085316028116 8.482195727905133 44.45747921297657 8.515852101720842 44.57626700687349 8.53960911137449 L 44.57626700687349 8.551488531410872 L 44.57626700687349 13.742493983365511 C 44.41788358674745 13.782091440013744 44.33473245134295 13.896919122162018 44.326813371857604 14.086977945019889 C 44.318894292372256 14.14241218782448 44.34265175963069 14.201805627168163 44.398085316028116 14.265160093470046 C 44.4535195588327 14.328513644562374 44.43570157279008 14.405724383541514 44.34463158670262 14.496795056036138 C 44.29226604153917 14.54916060119959 44.28048386251811 14.57534291617654 44.30928482083705 14.57534291617654 C 44.33057259510872 14.57534291617654 44.374031320873556 14.561039106026415 44.43966122693394 14.532431485726171 C 44.594084992916116 14.465117822885198 44.61982205844409 14.316634224525993 44.516872881122644 14.086977945019889 C 44.52479218941038 13.97611037462026 44.5881457405027 13.920676131815668 44.70693307679485 13.920676131815668 C 44.81780110479925 13.920676131815668 44.877195001747715 13.97611037462026 44.88511385243067 14.086977945019889 C 44.80592214236765 14.316634224525993 44.829679609626076 14.463137309406095 44.956385796601175 14.526490860498424 C 45.009736107246844 14.553166473426035 45.04659022325109 14.566503822285062 45.066947229404335 14.566503822285062 C 45.094938913673424 14.566503822285062 45.09174162908967 14.541287053389652 45.05735583325786 14.490854430808392 C 44.9979619363094 14.403744785271972 44.98806302975212 14.328513644562374 45.02765865598124 14.265160093470046 C 45.06725473981514 14.201805627168163 45.083092898785836 14.14241218782448 45.075173590498096 14.086977945019889 C 45.075173590498096 13.896919122162018 44.995981880435075 13.782091440013744 44.837598917913816 13.742493983365511 L 44.837598917913816 8.551488531410872 L 45.69286819682201 8.444580157550334 C 45.71662566408044 8.705911839788268 45.76612065447162 9.151364465284992 45.841352252785995 9.780936661226175 C 45.91658430870515 10.41051068758647 46.017553430152276 11.15293142501116 46.144259617127375 12.00820024631458 C 46.270966261707244 12.863469067617999 46.31848073861933 13.441566674898457 46.28680442067794 13.742493983365511 C 46.15217846781033 14.10677575813445 45.73246336544636 14.431461906674265 45.02765865598124 14.71655059856585 C 44.726730889909405 14.71655059856585 44.564388273244276 14.795742766233648 44.540630577183464 14.954126186359689 L 44.05360272718807 14.954126186359689 L 43.68536152707765 15.536183905388793 L 42.10549029759576 15.536183905388793 L 42.10549029759576 4.762171817284392 C 42.263873260117016 4.342456714920418 42.41829656849441 4.073205724394749 42.56876045153033 3.9544183881026074 C 42.63025029276314 3.9879581871011256 42.68088895189568 4.004728029399788 42.72067654332917 4.004728029399788 C 42.73725476362705 4.004728029399788 42.75194913945518 4.001816518999885 42.764759556412365 3.9959936126012736 C 42.808314951186546 3.9761959138879077 42.790496965143916 3.9187820728137703 42.71130571268568 3.823752318181252 C 42.545003327475484 3.6178539635383546 42.34306485577884 3.5149046718157115 42.10549029759576 3.5149046718157115 C 42.10549029759576 3.1823003590001044 42.232196598972045 2.9269076431725973 42.48560931612583 2.7487264671325935 C 42.669538294180256 2.6194016082152007 42.91813014499801 2.554739193056654 43.231384410974314 2.554739193056654 ZM 43.24012168780269 2.25 C 42.83910260064909 2.25 42.50444741761977 2.331111313094773 42.23615636751711 2.493333951507177 C 41.895632517611375 2.6992319629464907 41.72933013240119 3.039755498248937 41.737249211886535 3.5149046718157115 C 41.4917555742181 3.5149046718157115 41.28585756277879 3.6178539635383546 41.11955517756859 3.823752318181252 C 41.040363503255946 3.9187820728137703 41.02254533846145 3.9761959138879077 41.06610069748526 3.9959936126012736 C 41.07891113589267 4.001816518999885 41.0936054831205 4.004728029399788 41.11018371771853 4.004728029399788 C 41.14997128055172 4.004728029399788 41.20060996828456 3.9879581871011256 41.26209978091707 3.9544183881026074 C 41.42048314384252 4.073205724394749 41.57490676682319 4.342456714920418 41.725370592658514 4.762171817284392 L 41.725370592658514 15.536183905388793 L 40.9532527923584 15.536183905388793 L 40.9532527923584 15.75000065310987 L 51.050177750004764 15.75000065310987 L 51.050177750004764 15.536183905388793 L 50.278059377698675 15.536183905388793 L 50.278059377698675 4.762171817284392 C 50.436441882615156 4.342456714920418 50.59086610620211 4.077165264137422 50.74133021804042 3.9662970073306276 C 50.7994039252044 3.9979735540744024 50.84779929131409 4.01381182744629 50.88651448595038 4.01381182744629 C 50.905872998478074 4.01381182744629 50.922810781730256 4.009852287703616 50.93732875091648 4.001933322619465 C 50.98088448889424 3.9781757409598413 50.963066274049226 3.922741612556444 50.88387502159098 3.8356309374092716 C 50.71757320838677 3.6218133888798336 50.515634050282955 3.5149046718157115 50.278059377698675 3.5149046718157115 C 50.278059377698675 3.1823003590001044 49.94545392087112 2.992240620932678 49.280245752844685 2.944725572014627 C 46.033391589122964 2.5487676223057965 44.1327942084487 2.3230718120520715 43.578453382019504 2.267638144828489 C 43.46086565665284 2.255879381408168 43.348088501514695 2.25 43.24012168780269 2.25 Z"
     style="fill:#ffffff;stroke:none"
     id="path6" />
  <path
     d="M 53.85905350865465 2.25 C 53.16168310549871 2.25 52.55017828941345 2.7629982188611715 52.55017828941345 3.42148077115561 L 52.55017828941345 15.749999288300122 L 53.40216430479935 15.749999288300122 L 53.40216430479935 3.42148077115561 C 53.40216430479935 3.098508113273651 53.68605762205644 2.994011903683932 53.86443693677384 2.994011903683932 C 54.051608094539084 2.994011903683932 54.33981704590811 3.1252137636833535 54.33981704590811 3.5209571603146776 L 54.33981704590811 11.62395272807413 L 55.19180306129402 11.62395272807413 L 55.19180306129402 3.5209571603146776 C 55.19180306129402 2.861641676122041 54.53885234025678 2.25 53.85905350865465 2.25 Z"
     style="fill:#ffffff;stroke:none"
     id="path8" />
  <path
     d="M 60.429190507579904 2.913648174181388 Q 63.15364011531193 3.245472261272082 60.429190507579904 7.960867376260402 Q 57.70473991513575 3.245472261272082 60.429190507579904 2.913648174181388 ZM 60.429190507579904 2.25 Q 56.65687440551833 2.511966191372091 59.90525740868144 8.310155512064144 L 56.691802978515625 8.310155512064144 L 56.691802978515625 9.13098361591507 L 59.87032877413964 9.13098361591507 L 59.87032877413964 15.75000086141948 L 60.95312289032409 15.75000086141948 L 60.95312289032409 9.096054623296126 L 64.1665773204899 9.096054623296126 L 64.1665773204899 8.310155512064144 L 60.95312289032409 8.310155512064144 Q 64.20150559695458 2.4945022769379706 60.429190507579904 2.25 Z"
     style="fill:#ffffff;stroke:none"
     id="path10" />
  <path
     d="M 67.50454217688963 2.9892379897054955 C 67.78216027809263 2.9892379897054955 68.12201558781882 3.095985977015074 68.2211062745455 3.340333519869274 L 68.18462465945106 11.279334014803599 L 68.18462465945106 11.279334014803599 C 68.04381386812221 10.960512872387417 67.62551549470761 10.367342335933275 66.38307067183361 9.632436990092634 L 67.32633148164291 3.06154244747758 C 67.37058301258054 3.0145252182361735 67.36942284264957 2.9892379897054955 67.50454217688963 2.9892379897054955 ZM 68.18462465945106 11.279334014803599 L 68.18462465945106 11.279334014803599 C 68.18462465945106 11.279334014803599 68.18462483848963 11.279334014803599 68.18462483848963 11.279334014803599 L 68.18462465945106 11.279334014803599 L 68.18462465945106 11.279334014803599 ZM 67.37253471202766 2.25 C 67.16002935781405 2.25 66.9682252486903 2.280338063237631 66.8324278953872 2.317373030601139 L 65.66657733917236 10.098160711168036 C 66.28329610253073 10.520569989179059 67.97813213655864 11.67797341616124 67.91054722500031 12.683307927520042 L 67.92318484147357 15.75000086141948 L 68.78396146328053 15.73816856043225 L 68.77913422536717 3.119482909369111 C 68.52316886973212 2.427915471835376 67.8871531503045 2.25 67.37253471202766 2.25 Z"
     style="fill:#ffffff;stroke:none"
     id="path12" />
  <path
     d="M 40.9532527923584 0.375 C 31.328252851963043 0.375 31.328252851963043 17.625 40.9532527923584 17.625 "
     style="fill:none;stroke:#ffffff;stroke-width:1"
     id="path14" />
  <path
     d="M 40.9532527923584 0.375 L 68.78396224975586 0.375 "
     style="fill:none;stroke:#ffffff;stroke-width:1"
     id="path16" />
  <path
     d="M 40.9532527923584 17.625 L 68.78396224975586 17.625 "
     style="fill:none;stroke:#ffffff;stroke-width:1"
     id="path18" />
  <path
     d="M 76.47146224975586 0.375 L 76.47146224975586 17.625 "
     style="fill:none;stroke:#ffffff;stroke-width:1"
     id="path20" />
  <path
     d="M 68.78396224975586 0.375 C 78.40896129608154 0.375 78.40896129608154 17.625 68.78396224975586 17.625 "
     style="fill:none;stroke:#ffffff;stroke-width:1"
     id="path22" />
</svg>
