<?xml version="1.0" encoding="UTF-8" standalone="no"?>
<svg
   width="69.36274719238281"
   height="18.0"
   version="1.1"
   id="svg60"
   sodipodi:docname="sedjefatawy.svg"
   inkscape:version="1.1.1 (3bf5ae0d25, 2021-09-20)"
   xmlns:inkscape="http://www.inkscape.org/namespaces/inkscape"
   xmlns:sodipodi="http://sodipodi.sourceforge.net/DTD/sodipodi-0.dtd"
   xmlns="http://www.w3.org/2000/svg"
   xmlns:svg="http://www.w3.org/2000/svg">
  <defs
     id="defs64" />
  <sodipodi:namedview
     id="namedview62"
     pagecolor="#ffffff"
     bordercolor="#666666"
     borderopacity="1.0"
     inkscape:pageshadow="2"
     inkscape:pageopacity="0.0"
     inkscape:pagecheckerboard="0"
     showgrid="false"
     inkscape:zoom="19.823321"
     inkscape:cx="34.681374"
     inkscape:cy="9.0045457"
     inkscape:window-width="1920"
     inkscape:window-height="1001"
     inkscape:window-x="-9"
     inkscape:window-y="-9"
     inkscape:window-maximized="1"
     inkscape:current-layer="svg60" />
  <path
     d="M 3.009169848917976 0.4739171748132039 C 3.7026715218272255 0.4739171748132039 4.256829318471649 0.6745946316238001 4.644164689284773 0.9526347441559112 C 4.650308145491952 1.0062515645085024 4.663546055856558 1.060016372992199 4.652575800812965 1.1124437372646898 C 4.603449882852364 1.360569519526529 4.457806885291136 1.5903185537666114 4.257258755698066 1.7432685981716125 C 3.9413649209170813 1.94997010496389 3.5600411988456018 2.009570228366613 3.2002765010963685 2.0993341831784433 C 3.10998720613517 2.1086036967312767 3.181170796374544 2.130187995961788 3.231117085890341 2.138585643286511 C 3.4609996992016763 2.1784200797833564 3.9384250002790258 2.2376030490926513 4.202499603977515 2.2376030490926513 C 4.220906351189456 2.2376030490926513 4.23827706337661 2.2373153403237978 4.254454894379272 2.2367137030214415 C 4.532424083629077 2.2049171597812043 4.794657162235626 2.0893111466595644 5.019856122452685 1.9255069464391237 C 5.098959498900698 1.8590524805074944 5.166930105007111 1.7763742399315428 5.224523825878929 1.6899990125400517 C 5.3720929131784425 2.0357255065676374 5.451951702305268 2.4028945713681713 5.485264503827336 2.6067978859799568 C 5.503366062427325 2.716651377223197 5.580895308140001 2.8061828973646232 5.687128818362978 2.8395020766672823 C 6.825504545072815 3.188508875845171 7.72511459117944 4.749370284342509 8.566494083211595 5.78895938641794 C 10.295861887830181 7.925728476871466 11.765759846336513 10.315234366846607 13.458892408638075 12.548598959980612 C 12.522122105814729 12.092922126930452 11.58844053850988 11.632519122248745 10.649618007621019 11.174801399409672 C 8.72850955219054 10.164475916823728 6.728271736761494 9.358727903879377 5.045088984609069 8.085161653353607 C 5.042277564439204 8.082822188947427 5.039490238107126 8.07909189594436 5.036677873080877 8.076750541825415 C 4.066833817400553 7.2693821001829235 3.0743602151151883 6.41700117284651 2.698420284718348 5.284299308721125 C 2.5498687829938245 4.364048874911361 4.455242072637431 2.7072382455000326 4.240437005069874 2.637638234559833 C 4.2215063349931405 2.631504463130588 4.200107227613845 2.6285180083156328 4.1764933768710275 2.6285180083156328 C 3.7176359210190495 2.6285180083156328 2.422621666796125 3.756154733581801 2.15731260823226 4.830105427765268 C 2.154053326136495 4.815773846136464 2.1461630666898484 4.79928090552982 2.143294246494671 4.785246481233707 C 2.0704243238243896 4.4287242943794265 1.9886595231574336 3.528875672035904 2.2105824300779164 2.8058581029827074 C 2.22090238771539 2.7720589366371007 2.223991359447983 2.7373940456298778 2.2217969304967107 2.702122556824284 C 2.206042867582163 2.411103719844335 2.16184012380912 2.2384220033632714 2.098435772391302 2.068493834598567 C 2.035031184759387 1.8985666106902463 1.9592064599630061 1.724220765903293 1.8376947401217505 1.3030929608462967 C 1.806828171777225 1.1953371688820418 1.6962380468757994 0.9753151948986268 1.630223411590808 0.9582419943653084 C 1.8161052441811285 0.8204882523408192 2.0045522437462973 0.6772958579179091 2.2750667523423678 0.5825507383579678 L 2.2750667523423678 0.5825507383579678 C 2.1960743965194465 0.658865194028754 2.1432944827087668 0.7691834365057539 2.143294246494671 0.8965614153126038 C 2.143294246494671 1.1261525404295507 2.3068791219270324 1.3115031275181046 2.5077709430296933 1.3115039542674405 C 2.7086627641323537 1.3115039542674405 2.8722476395647156 1.1261525404295507 2.8722476395647156 0.8965614153126038 L 2.8722476395647156 0.8937576721008572 C 2.871221053103765 0.7095976631093593 2.7627272101967493 0.5576299150223198 2.6171139756116095 0.5040481134094518 C 2.669879244148341 0.49667510377938745 2.7125253370291467 0.4854209784459994 2.771315482296895 0.4816187582507192 C 2.852317311433968 0.47642689052903053 2.9316148558688426 0.4739171748132039 3.009169848917976 0.4739171748132039 ZM 3.6797034804227042 8.23655977114829 C 3.744950774217038 8.301805883872143 3.8149797499554623 8.36067988514395 3.8815675587442495 8.424405723946341 C 4.0956495749641375 9.204198532028927 4.293931466520769 10.064938131364233 4.57407335302502 10.7290191024102 C 5.057193067313169 11.874268186883667 5.789626838872777 12.870430272277117 6.413278350114227 13.883144351801198 C 6.260634439177563 13.965039778863208 6.128536902733854 14.058336787907995 6.029175805418124 14.152295196421411 C 5.947669659186221 14.229370911069886 5.8940429178416 14.280530159968329 5.830115352201277 14.345748871857053 C 5.520950312157207 13.938784109671408 5.124019924767046 13.62317373180555 4.644164689284773 13.448575610364134 C 4.689085996337662 12.725628196897432 4.536026821020337 11.737052363409154 4.30492109112023 10.66173115504105 C 4.1263418173058595 9.830810278320685 3.903548933870034 9.003086795602949 3.6797034804227042 8.23655977114829 ZM 4.686219774497539 9.144947533060002 C 5.834593499032087 10.09035760265641 7.113542596376112 10.88336044784028 8.36182590735716 11.685069199744076 C 8.343845290374292 12.594861963098435 8.344411259348162 13.463187814338914 8.445936077782692 14.359767706022835 C 8.033305011863666 14.014385848361224 7.586775333464642 13.763462228240035 7.018870348864767 13.625206117887009 C 7.015369655962953 13.624345353721408 7.011953527707485 13.623977804588126 7.008598342688769 13.623977804588126 C 6.989090837789752 13.623977804588126 6.971640285238172 13.63639699689621 6.951581929067426 13.636421563162186 C 6.30326824892538 12.572860982202688 5.56863248956343 11.57684345983595 5.115180793297013 10.501922870574559 C 4.9594783822461315 10.132827952249835 4.822072170210292 9.651825188689491 4.686219774497539 9.144947533060002 ZM 5.092751320031232 14.399018929916807 C 5.256419815253556 14.551910865654206 5.4054203599744595 14.728454446389774 5.5329268392495 14.94012684261699 C 5.575655607063885 15.01022479287143 5.648728910070769 15.058380343325913 5.729183431147552 15.07470273735529 C 5.7494917018318015 15.078823256044847 5.769947370111917 15.080878318679517 5.790254695939782 15.080878318679517 C 5.850400001475933 15.080878318679517 5.909242822487076 15.062849514021076 5.9590844691583715 15.027040401933126 C 6.175000687833224 14.870724306660996 6.306688629034575 14.703258906060551 6.435707350951817 14.58125716007727 C 6.483312522562763 14.536239477673238 6.5327214250102985 14.500179978643592 6.584302079855896 14.463502543538969 L 6.732896336331785 17.185862440383506 C 6.519603983834621 17.172073206318977 6.298091380798784 17.15081393768448 6.095781566478202 17.15081393768448 C 5.831792472282443 17.15081393768448 5.600500133246544 17.18701327545892 5.462835502989748 17.323242668868794 C 5.2941143882552915 17.189184555428792 4.96598135630733 17.158607113137695 4.572329148140608 17.158607113137695 C 4.471105738892494 17.158607113137695 4.365550163124863 17.160629105798932 4.257258755698066 17.16343343954592 L 5.092751320031232 14.399018929916807 ZM 6.25066573190075 9.573908551859477 L 6.25066573190075 9.573908551859477 C 7.604791854990093 10.361226196182292 9.034522078910209 10.988295252963786 10.386072995925625 11.699088033909858 C 10.388108216576233 11.700135879639442 10.389620931646625 11.700891764746446 10.39167977370683 11.70189142280046 C 11.686891739128056 12.333365400043023 12.978365852695143 12.98273873661945 14.285973389014858 13.605581450796405 C 15.269975172749374 14.794761632832586 16.33790476962736 15.90056296328426 17.36439863465213 17.026055100773398 C 16.647556883137256 17.146248391638174 15.930830404101199 17.267532046769798 15.213987707729942 17.38772722734734 C 13.79219427743337 15.841645498618801 12.36859900601298 14.299348864563587 10.946807465429178 12.75326524612228 C 10.935631704122118 12.739913480563432 10.92370950627189 12.727994117282355 10.910359630425809 12.716818355975295 C 9.41106341039531 11.580038019269429 7.757799063206311 10.634765898705052 6.25066573190075 9.573908551859477 ZM 3.0756960058277225 0.0 C 2.9405269774945206 0.0 2.803378947465543 0.004522381611119117 2.664776311033773 0.013406474957975922 C 1.5799215017535755 0.08356273687650426 0.791815610992612 0.5394290283949892 0.5227751964622482 1.157302329475107 C 0.4821416476788419 1.2499492773278713 0.3773182175015722 1.4706424536648965 0.5155519465690093 1.4706424536648965 C 0.5301007861125528 1.4706424536648965 0.5473420529751317 1.468197873986025 0.5676338477261894 1.4629019539550754 C 0.6829407547488466 1.4484514385289664 0.7780652341468658 1.4423110531050352 0.8569417269557291 1.4423110531050352 C 1.2747371416542677 1.4423110531050352 1.236670413344381 1.614590378873667 1.3274274122155385 1.6367293088014427 C 1.417468209947809 1.9189504698851962 1.6165598434253194 2.483475939414473 1.630223411590808 2.7049261819289825 C 1.386425543994761 3.5656903475302664 1.4768830233922678 4.468266061611404 1.565739089326357 4.903000625343815 C 1.7153772939992473 5.635118342443057 2.1961816377190027 6.48697345720191 2.8273889292472503 7.283313535133207 C 2.8134251329658233 7.338127016095824 2.8086283333195925 7.393803623365002 2.8273889292472503 7.448729542237286 C 3.1285063912567783 8.370618829444675 3.4792571591049843 9.617610994177321 3.7301694409495667 10.785092549360554 C 3.981081959008245 11.952574104543789 4.12285718696257 13.061967778966503 4.046983802062425 13.608383894830625 C 4.025192579283871 13.758532912485983 4.121174397743101 13.900045942793815 4.26847325611686 13.936413465004566 C 4.312604663232929 13.947361515923141 4.352082652659003 13.967347118152338 4.39463851175516 13.981272411536127 L 3.4666249016823647 17.0596976571734 C 3.272728324816838 17.01836208009686 3.0724617624261277 17.00476559673462 2.874112549852153 17.00476559673462 C 2.4927394590346226 17.00476559673462 2.118454680808026 17.055030066637645 1.8101650502035056 17.055030066637645 C 1.6846506825065655 17.055030066637645 1.570075389592555 17.04669832304569 1.4704144184820296 17.023250767026415 C 1.4375472348519498 17.015217598051724 1.3949769666959404 17.011228414399508 1.3451441780532423 17.011228414399508 C 0.9090801423353627 17.011228414399508 -0.08308278674200893 17.316628674182503 0.004096926806725951 17.889582026440785 C 0.15548046576267507 17.76211712084663 0.26223299740795364 17.73138850153413 0.38031217211407353 17.73138850153413 C 0.49024007079753446 17.73138850153413 0.6099847320405954 17.758020223566664 0.7846967677297779 17.758020223566664 C 0.7935070810801064 17.758020223566664 0.8024571741217066 17.757952193907034 0.8115528340999292 17.75781046544947 C 1.066223518424995 17.75382506122279 1.509269747551208 17.674784045296107 1.865480722334089 17.674784045296107 C 2.0452727193170093 17.674784045296107 2.202943030001157 17.694920824546703 2.3031032396034496 17.755008021415254 C 2.5392046614185677 17.745578354705373 2.7523340261895344 17.741732789223487 2.951610851518261 17.741732789223487 C 3.8011631150558056 17.741732789223487 4.398956033000731 17.81162570564265 5.451620530142762 17.816688246146814 C 6.240002555181878 17.80960749240695 7.649068297561068 17.777941575561766 8.426310465835707 17.73818579835887 C 8.876011082258614 17.740893756754712 9.122960636429726 17.792010487115885 9.3482285711628 17.792010487115885 C 9.361538763040762 17.792010487115885 9.374772421551643 17.79183285411574 9.387968285807172 17.791454911562237 C 9.52192246504496 17.78755265469733 9.652878614977093 17.73516414764362 9.867871236536825 17.73516414764362 C 9.990853743446445 17.73516414764362 10.141335350548884 17.752305732157712 10.335607271612858 17.805472800871634 C 10.085930861918229 17.463682342324677 9.45939942841909 17.120327201606223 9.005599080147068 17.120327201606223 C 8.891079651866747 17.120327201606223 8.787560241606108 17.142193068039095 8.703873366840497 17.191469218164713 C 8.542968104112466 17.175166666119395 8.37234782804666 17.169161158944245 8.19567291227375 17.169161158944245 C 7.976734570455455 17.169161158944245 7.748496479680046 17.178384846962466 7.517922703923993 17.188666774130493 L 7.360917335919913 14.359767706022835 L 7.360917335919913 14.359767706022835 C 7.847890174541017 14.562401606083045 8.21758885609496 14.875619607585232 8.642193142108937 15.380301416978874 C 8.699664031650867 15.44654907746951 8.781797562521582 15.482110637184917 8.86545325702653 15.482110637184917 C 8.908499969014047 15.482110637184917 8.951950134677428 15.472694198464408 8.992650768264083 15.453197086985613 C 9.112446274591294 15.395810289661837 9.178901803486355 15.264291005324987 9.155264331333942 15.133579573196247 C 8.962827321367223 14.095116267502062 8.941800487403126 13.115423973733854 8.95339954437011 12.074779939505962 L 8.95339954437011 12.074779939505962 C 9.492870020957247 12.42841606253606 10.024760859633895 12.787106222362869 10.5290609470485 13.16820932046874 C 11.981769133365166 14.7479090393313 13.43605428498632 16.326704530634608 14.888761526446602 17.906404249497168 C 14.944628049848916 17.96747598671759 15.022539017540629 17.999999833159222 15.103714464038218 17.999999833159222 C 15.11983182423232 17.999999833159222 15.136078629750996 17.99871671819008 15.152306538141996 17.99612214256029 C 16.10156595264582 17.836959195003903 17.051571803692816 17.68146795935479 18.00083121819664 17.52230312208564 C 18.107373224028915 17.50503114739059 18.194878263441282 17.430652052861355 18.23073178377927 17.328851336362764 C 18.266587193830023 17.227046840438643 18.244059927928525 17.11188585467375 18.171855892794696 17.031661878554605 C 17.42994521170602 16.20143358156353 16.66326228594804 15.400856767607475 15.920510682677822 14.586862993002091 L 15.920510682677822 14.586862993002091 C 17.1897721675192 15.367626168590794 18.796164079222855 16.341928056689678 19.00015479305014 16.341928056689678 C 19.023265980196797 16.341928056689678 19.02837576352015 16.32942193759429 19.01295381762449 16.302708957912753 C 18.91865715052569 16.139381083416772 18.112724890586506 15.546881487147742 17.238233851442022 14.928911397341812 L 17.238233851442022 14.928911397341812 C 17.377197659226482 14.987001167815102 17.513576339944986 15.048752256775444 17.6531769809321 15.10554284972107 C 17.658199837468143 15.108767644558828 17.664787376175685 15.113841523339595 17.669999203988482 15.116757350139865 C 17.773049020626395 15.151233269870335 17.830042757694528 15.174751690118395 17.93915099346508 15.178437574871426 C 17.94233326976557 15.178545288499173 17.945553340321407 15.178605759307734 17.948841440536878 15.178605759307734 C 17.973745965099905 15.178605759307734 18.00257920250659 15.175098452411234 18.048493553618805 15.161615351815042 C 18.100470103289197 15.146353086648238 18.187842862807837 15.102794262500725 18.236338561560473 15.01021723402036 C 18.28483615002588 14.91764209525276 18.275225070890315 14.822594267328872 18.25876945211083 14.771906501765924 C 18.242311943618578 14.721218736202974 18.220873152271164 14.694878974793022 18.205498449194693 14.67377749717461 C 18.143995857463278 14.58936875213181 18.102465639971687 14.565463885622796 18.0428867758376 14.519575990489324 C 17.983304132277976 14.473685260786702 17.91481149301954 14.423448191718805 17.838219544839546 14.370981261585245 C 17.6850337587668 14.266046456461739 17.50165414209476 14.147847757423074 17.344773967561526 14.042952636267687 C 17.18789568274106 13.938058459968683 17.045392442943054 13.83638718879467 17.016744397387587 13.810248681794459 C 17.00804982894427 13.80148608369151 16.99842930124487 13.792621441099115 16.988708618768793 13.785015347209884 C 15.691415134734154 12.872117785778505 14.394182121508075 11.96102017575818 13.097218392351367 11.048637561055948 C 13.088896097323248 11.042752050641536 13.077870568181206 11.047937422475586 13.06918166887619 11.04302983841836 C 11.735590582003198 9.174366581424614 10.481460027291279 7.217504760432826 9.023491825486246 5.41607134214063 C 8.27915569806047 4.496387349732927 7.424659237280828 2.887723530854533 6.037586916946315 2.3516642220268507 C 5.970716123670593 1.9556564868954267 5.819659099030447 1.224570552967246 5.283400661719887 0.7031084485192504 C 4.8273005330098036 0.25959351157317057 4.167590467595091 0.05615587828814758 3.427373441574297 0.0106028092539796 C 3.3119162433330986 0.0034978361875914604 3.1945714582512528 0.0 3.0756960058277225 0.0 Z"
     style="fill:#ffffff;stroke:none"
     id="path2" />
  <path
     d="M 25.329878942385726 2.25 C 24.632508539229786 2.25 24.02100372314453 2.7629982188611715 24.02100372314453 3.42148077115561 L 24.02100372314453 15.749999288300122 L 24.87298973853043 15.749999288300122 L 24.87298973853043 3.42148077115561 C 24.87298973853043 3.098508113273651 25.15688305578752 2.994011903683932 25.33526237050492 2.994011903683932 C 25.52243352827016 2.994011903683932 25.810642479639196 3.1252137636833535 25.810642479639196 3.5209571603146776 L 25.810642479639196 11.62395272807413 L 26.662628495025093 11.62395272807413 L 26.662628495025093 3.5209571603146776 C 26.662628495025093 2.861641676122041 26.00967777398786 2.25 25.329878942385726 2.25 Z"
     style="fill:#ffffff;stroke:none"
     id="path4" />
  <path
     d="M 29.282778723945775 2.657468350546833 C 29.1712594351211 2.657468350546833 28.897121849276985 2.789590957187499 29.15418224779245 2.790750501318198 C 29.196159334139203 2.7909398282267297 29.288802414083904 2.8035015355132895 29.357436745788664 2.8035015355132895 C 29.43930166776395 2.8035015355132895 29.487009220455963 2.7856300236461644 29.373839892721964 2.707575056152906 C 29.346447882608658 2.688682210461991 29.321700959067176 2.658570414495724 29.286723977292795 2.657525955504723 C 29.28543312713173 2.6574873996953627 29.284117654490466 2.657468350546833 29.282778723945775 2.657468350546833 ZM 29.325937855710027 2.5690206584016795 C 29.33046406649518 2.5690206584016795 29.333647936189394 2.569215205109644 29.335311201363417 2.569598226089579 C 29.533506195599706 2.6152389669621297 29.689809783065602 2.7820600967540177 29.89574139349471 2.8394382117269164 C 30.069033410902875 2.887722021957966 30.353646156797108 2.952075203102768 30.294193348315563 3.2057203554758282 C 30.21485821981227 3.5441901184909317 29.987265814271606 3.8717799894377025 30.05860811969356 4.226025608429497 C 30.103249341760666 4.447687656341422 30.35050246500132 4.467081020489558 30.550170149742286 4.467081020489558 C 30.583406505171755 4.467081020489558 30.615324226965882 4.466543651496099 30.644769552285773 4.466312399823992 C 31.949211488788542 4.456068616222064 32.9849511271743 4.401114235051395 33.815920570902875 4.401114235051395 C 35.17850633160219 4.401114235051395 35.99050714896601 4.548875236018336 36.53379551975814 5.28381650787964 C 37.434814588698394 6.502682182621961 37.12643732294886 7.721859963937574 36.9023082023422 9.260848492955176 C 36.965038961683845 8.352772088812902 37.266234448885506 6.922315126926775 36.332725019118456 5.686870204607326 C 35.9383307824866 5.164912221861426 35.26978652399445 4.9456488693512615 34.654613155007404 4.790472176274591 C 34.37234370393449 4.719270119168888 33.994927000133735 4.694425038442844 33.57877414394198 4.694425038442844 C 32.61750985521496 4.694425038442844 31.449569791505354 4.826987647140925 30.770205616648315 4.826987647140925 C 30.608588980423722 4.826987647140925 30.47462255761827 4.819485443614292 30.37766671717282 4.800911608773209 C 30.115929419957087 4.750770589744565 29.929179553440918 4.428340708895819 29.952202404264376 4.160896652790424 C 29.982733281498298 3.80623611173371 30.262380604798487 3.476999279687638 30.15742711659652 3.118852328529712 C 30.110744058722375 2.9595492072348524 29.97183251023223 2.9236779136882314 29.820693238435204 2.9236779136882314 C 29.71253200671532 2.9236779136882314 29.598108512988382 2.9420489873959474 29.506743389676267 2.946699641526951 C 29.408137343953378 2.9517188842043964 29.31130494864512 2.965772705472406 29.216679842228725 2.965772705472406 C 29.0916171910878 2.965772705472406 28.97041012088291 2.9412235520210106 28.854059460568365 2.838821526737287 C 28.632467058506247 2.6437946388168436 29.2371986034531 2.5690206584016795 29.325937855710027 2.5690206584016795 ZM 29.3559094865441 2.25 C 29.349111020120354 2.25 29.342246089636895 2.250165074857329 29.335311201363417 2.250502923646177 C 29.047588785951774 2.264519966839058 28.75834593238805 2.352963791250605 28.509225805427363 2.497788655036279 C 28.249063239556424 2.649032988294408 28.45806878675244 2.94224080982612 28.634117783684026 3.07162483101746 C 28.796222502349657 3.1907606182599455 28.97831547593072 3.30220545735565 29.182326907232817 3.30220545735565 C 29.221668639542145 3.30220545735565 29.26182540921957 3.298061144565696 29.302811191186287 3.2890283544323085 C 29.406875192291185 3.266093845074958 29.590669030239006 3.222797043700152 29.716276453754258 3.222797043700152 C 29.790119770965273 3.222797043700152 29.843853010212726 3.2377610233028253 29.849453958984792 3.28062343754391 C 29.895566873347917 3.6335089140570602 29.519454495525093 4.061685359885428 29.671181712220843 4.469456923460326 C 29.795593780869844 4.803818392381168 30.08038038143843 5.107388118872503 30.461113300764453 5.134841851554408 C 30.627807491688845 5.146861947460719 30.794277418401727 5.151957137180119 30.960584470735476 5.151957137180119 C 31.83790556706421 5.151957137180119 32.71069462972397 5.010158769255146 33.58796531651554 4.995108943708007 C 33.61596107649797 4.994632132706382 33.643731574060226 4.99439638909532 33.67127747467476 4.99439638909532 C 35.35212077040643 4.99439638909532 36.197721291150714 5.872227570047565 36.39043079608288 6.417503041538723 C 36.577079843524736 6.945631284727159 36.711720223541484 7.498833531160213 36.664461032904384 8.0611487571554 C 36.60759907499099 8.737733253640084 36.50814555011867 9.420376876670204 36.5635614364249 10.097300764098126 C 36.61244238339272 10.69440921829083 36.81986348750556 11.273565888003606 36.96152992551975 11.852739194527327 C 36.99462320437511 11.988034399422792 37.09049715300494 12.055686327441371 37.180248089735315 12.055686327441371 C 37.27833340327569 12.055686327441371 37.36910517472552 11.974886660470768 37.36262546959944 11.8132740170808 C 37.33320426765542 11.06707910719333 37.16147245037749 10.42940877697674 37.18118174756543 9.741099987084311 C 37.198120682995146 9.149539576604877 37.349618145331775 8.580066196333359 37.384502875989476 7.986733632752277 C 37.42494962528164 7.298770888527463 37.61644397754253 4.9816848673262175 35.73976445463006 4.307148029532398 C 35.19969563949162 4.113030551290125 34.514648330016456 4.060428116082466 33.78841226948108 4.060428116082466 C 32.92910334925599 4.060428116082466 32.01212824767653 4.134074120715695 31.209424080267656 4.134074120715695 C 30.909275381210527 4.134074120715695 30.62510367717439 4.12377709931875 30.365898169847966 4.095482542211786 C 30.46929162428781 3.7272676585435995 30.667059052482863 3.4062148065366036 30.621017343670573 3.022228642014735 C 30.58463297087447 2.718782984541008 30.252873665553224 2.60525837770932 30.000500231008644 2.5363272660933482 C 29.765003510220858 2.472005715685351 29.605223827476536 2.25 29.3559094865441 2.25 Z"
     style="fill:#ffffff;stroke:none"
     id="path6" />
  <path
     d="M 29.018904340456317 14.44835816829382 Q 28.964793047876697 14.44835816829382 28.91375391140531 14.464870723055082 Q 28.714235916370804 14.52942089963846 28.737708636960168 14.658520732904872 Q 28.75757012977422 14.767758423481808 28.91607962059756 14.767758423481808 Q 28.94489977615424 14.767758423481808 28.9783035031008 14.764147195706496 Q 29.195425713639615 14.740674995017475 29.35973430285236 14.588102571136783 Q 29.176319830985072 14.44835816829382 29.018904340456317 14.44835816829382 ZM 29.120550641202456 14.329642044607374 Q 29.544124757636606 14.329642044607374 30.427740880091942 14.834565487449671 Q 30.870992314644003 15.064106557457086 31.399654277125496 15.064106557457086 Q 31.654869975645592 15.064106557457086 31.92999135850881 15.010610761894812 Q 32.62243544611926 14.869774308383546 33.385297175597465 14.764147195706496 Q 33.64438171251232 14.728274072110672 33.887221963242375 14.728274072110672 Q 34.359412610529425 14.728274072110672 34.770184830918026 14.863906193223748 Q 35.392210236860045 15.069292303418049 35.80298193734831 15.127973844941287 Q 36.213753637836575 15.186655516439611 37.10571494063102 15.233600957618338 Q 36.53063497586772 15.292282499141574 35.97902695184328 15.292282499141574 Q 35.427419447719174 15.292282499141574 34.67629394856057 15.16905078103496 Q 34.3007309390311 15.107435181931823 33.953042386336264 15.107435181931823 Q 33.60535279384075 15.107435181931823 33.28553765817987 15.16905078103496 Q 32.64590790675845 15.292282499141574 31.8302328808919 15.39790948184354 Q 31.626313929462633 15.424316260012802 31.42936346226694 15.424316260012802 Q 30.838512580580204 15.424316260012802 30.310377277145125 15.186655516439611 Q 29.79757552447081 14.836647688319255 29.245256796678895 14.836647688319255 Q 29.001208687479362 14.836647688319255 28.74944525720502 14.904983649217762 Q 28.526454509087383 14.893247028972908 28.549927262170517 14.658520732904872 Q 28.67902706294316 14.341639524848809 29.10153528619496 14.329902904603955 Q 29.110924166470568 14.329642044607374 29.120550641202456 14.329642044607374 ZM 29.43430230915004 13.132624427742428 Q 29.18041040687568 13.132624427742428 28.960699352584037 13.907395233746268 Q 28.776880788175955 13.22318211899199 28.486431735924594 13.22318211899199 Q 28.44308117815418 13.22318211899199 28.397355260708853 13.23842406981125 Q 28.045265256089245 13.461414289905104 28.63208155677689 14.095176608535919 Q 28.162628412246704 14.365112245438171 28.162628412246704 14.775883945926434 Q 28.162628412246704 15.186655516439611 28.855072304894527 15.233600957618338 Q 29.06917811863678 15.17744197255433 29.273311788907282 15.17744197255433 Q 29.751750078603767 15.17744197255433 30.17540997859434 15.485931989091025 Q 30.53806269285697 15.749999510833478 31.32533660284247 15.749999510833478 Q 31.850185096315624 15.749999510833478 32.56375377462094 15.632636427787002 Q 33.4401648581871 15.385879767780903 34.267224401791914 15.385879767780903 Q 34.58093642733843 15.385879767780903 34.887547654014334 15.421382202432902 Q 35.65407780030546 15.510138029112735 36.1931702633977 15.510138029112735 Q 36.43821177217564 15.510138029112735 36.63626208854477 15.491800104250823 Q 37.633850504016266 15.4683279035618 37.633850504016266 15.304018599486085 Q 37.363914087263495 15.057555683173197 36.87098825463772 14.975401421060596 Q 35.826454917887844 14.963665320716085 34.96383419089239 14.611575291726146 Q 34.53252382739466 14.435530277231177 33.906096945157536 14.435530277231177 Q 33.27967006292042 14.435530277231177 32.45812666194389 14.611575291726146 Q 31.928341714723743 14.745259216282781 31.471665153591204 14.745259216282781 Q 30.845848114455208 14.745259216282781 30.357322718323854 14.494211558804244 Q 29.852660785353564 14.189067035980575 29.28931666098461 13.989549560846411 Q 29.758769773021026 13.625722911611621 29.729429067246947 13.385128012977216 Q 29.700088231497787 13.14453311129652 29.441888694940047 13.1327970139983 Q 29.438091732767564 13.132624427742428 29.43430230915004 13.132624427742428 Z"
     style="fill:#ffffff;stroke:none"
     id="path8" />
  <path
     d="M 49.456380666723035 3.0176110162255982 C 50.04737258633563 3.046416393516923 50.373786673225325 3.0582567595727697 50.51372862733375 3.0582567595727697 C 50.54254975784979 3.0582567595727697 50.56346155777055 3.057754474061548 50.577146262904996 3.0567947391402264 L 50.577146262904996 3.0567947391402264 L 50.49850131796339 6.143417365828682 C 49.99114569195519 5.93671566893562 49.678445393076345 5.727251098784208 49.32243342051332 5.446169339595486 L 49.456380666723035 3.0176110162255982 ZM 40.87490814120881 2.25 C 40.8579884204944 2.25 40.8457678564189 2.250333847185384 40.84012653576316 2.2508876336235706 C 40.64484153406501 2.286885569785479 40.38486780847611 2.4057672801248318 40.41883176096954 2.64578159425853 C 40.41883176096954 3.2199424050457495 40.41883176096954 3.7943177020464467 40.41883176096954 4.36847730104715 C 40.03616612741745 4.348333773778053 39.64298569918685 4.330685920840347 39.52622060002571 4.324846927509052 L 39.52622060002571 4.324846927509052 C 39.52622060002571 4.541509509570372 39.70128170957768 4.837570767786763 40.2584841550211 4.837570767786763 C 40.26458762075969 5.325864991885387 40.35006552692302 5.923825895756208 40.44161948215499 6.229009482871218 C 40.44216486182422 6.228595051882466 40.44274136925959 6.22831149383753 40.44328682466548 6.227898274635294 L 40.51498474897947 7.027969416286946 C 40.51498474897947 7.116563128531645 40.66663203068377 7.140746752047819 40.83221781106114 7.140746752047819 C 41.03132403006678 7.140746752047819 41.250583016213696 7.105780652104982 41.250583016213696 7.105780652104982 L 41.21695730363178 6.302375885745559 L 41.21695730363178 6.302375885745559 C 44.35349856704074 6.326784901553861 50.338898127619565 6.485510758459508 50.63578340066739 6.485510758459508 C 50.78928645768555 6.485510758459508 50.89172846624446 6.3208871365764985 50.89172846624446 6.092006111066083 L 50.97037341118607 2.643836676899034 L 49.08288443240208 2.624383867944525 L 48.92948437723786 5.313889511632915 C 47.56164581046173 5.317828423705838 45.19843792215742 5.542465166941092 43.59214430754811 5.542465166941092 C 43.08153745831528 5.542465166941092 42.647414635717944 5.519766587801281 42.34606029399608 5.460064289690601 C 42.285024121877015 5.386818459574684 41.695508915608485 4.52768605487975 41.320613522280546 4.434617215028435 C 41.29113075632632 4.427297418573585 41.20310234249172 4.419095441534489 41.09329221749059 4.410439650444846 C 41.032129716627146 3.89075530841452 40.97046386993927 3.371082478356105 40.909045379174145 2.8514272192021832 C 41.026634567719995 2.7068410932680482 41.28728560623514 2.746192648615256 41.3564625601742 2.5457383171096586 C 41.42734237711603 2.4518218325898284 41.379216730020474 2.2946828101279566 41.25086096974599 2.2911825647741226 C 41.169320763869074 2.2586727561008795 40.961116754641786 2.25 40.87490814120881 2.25 Z"
     style="fill:#ffffff;stroke:none"
     id="path10" />
  <path
     d="M 50.427945453712184 8.886193300572117 Q 50.64249346830166 8.886193300572117 50.749762022557064 9.00112617733644 Q 50.85703300038551 9.11606026588728 50.85703300038551 9.330601994334193 Q 50.85703300038551 9.545142359521277 50.75742414870292 9.683063205192958 Q 50.657816508806846 9.820984050864642 50.427945453712184 9.820984050864642 L 40.05331569802579 9.820984050864642 Q 39.854098070397264 9.820984050864642 39.739163981846424 9.683063205192958 Q 39.6242311050821 9.545142359521277 39.6242311050821 9.330601994334193 Q 39.6242311050821 9.11606026588728 39.739163981846424 9.00112617733644 Q 39.854098070397264 8.886193300572117 40.05331569802579 8.886193300572117 ZM 39.6242311050821 8.395812531564843 Q 39.13385033607483 8.717625048498558 39.13385033607483 9.330601994334193 Q 39.13385033607483 9.97422823998814 39.6242311050821 10.311361638932308 L 50.918333644911876 10.311361638932308 Q 51.36274302030387 9.97422823998814 51.36274302030387 9.330601994334193 Q 51.36274302030387 8.717625048498558 50.918333644911876 8.395812531564843 ZM 46.428273193049414 10.771093751882859 L 46.167759086410676 11.292128932932808 L 46.68878972326119 11.43004841534466 Q 47.087211800339865 10.847715164814693 46.428273193049414 10.771093751882859 ZM 44.037655602574524 10.786417701227933 L 43.77714119298916 11.307452882277884 L 44.298177282878996 11.445373273529622 Q 44.711936941901065 10.863040477419599 44.037655602574524 10.786417701227933 ZM 45.23297182000439 10.786417701227933 L 44.97245771336565 11.307452882277884 L 45.493484714856606 11.445373273529622 Q 45.89192012158698 10.863040477419599 45.23297182000439 10.786417701227933 Z"
     style="fill:#ffffff;stroke:none"
     id="path12" />
  <path
     d="M 50.427945453712184 13.190820019107164 Q 50.64249346830166 13.190820019107164 50.749762022557064 13.305752895871487 Q 50.85703300038551 13.420686984422327 50.85703300038551 13.63522871286924 Q 50.85703300038551 13.849769078056324 50.75742414870292 13.987689923728006 Q 50.657816508806846 14.125610769399689 50.427945453712184 14.125610769399689 L 40.05331569802579 14.125610769399689 Q 39.854098070397264 14.125610769399689 39.739163981846424 13.987689923728006 Q 39.6242311050821 13.849769078056324 39.6242311050821 13.63522871286924 Q 39.6242311050821 13.420686984422327 39.739163981846424 13.305752895871487 Q 39.854098070397264 13.190820019107164 40.05331569802579 13.190820019107164 ZM 39.6242311050821 12.70043925009989 Q 39.13385033607483 13.022251767033605 39.13385033607483 13.63522871286924 Q 39.13385033607483 14.278854958523187 39.6242311050821 14.615988357467355 L 50.918333644911876 14.615988357467355 Q 51.36274302030387 14.278854958523187 51.36274302030387 13.63522871286924 Q 51.36274302030387 13.022251767033605 50.918333644911876 12.70043925009989 ZM 46.428273193049414 15.075720470417906 L 46.167759086410676 15.596755651467856 L 46.68878972326119 15.734675133879707 Q 47.087211800339865 15.15234188334974 46.428273193049414 15.075720470417906 ZM 44.037655602574524 15.09104441976298 L 43.77714119298916 15.612079600812931 L 44.298177282878996 15.74999999206467 Q 44.711936941901065 15.167667195954646 44.037655602574524 15.09104441976298 ZM 45.23297182000439 15.09104441976298 L 44.97245771336565 15.612079600812931 L 45.493484714856606 15.74999999206467 Q 45.89192012158698 15.167667195954646 45.23297182000439 15.09104441976298 Z"
     style="fill:#ffffff;stroke:none"
     id="path14" />
  <path
     d="M 21.39600372314453 0.375 L 21.39600372314453 17.625 "
     style="fill:none;stroke:#ffffff;stroke-width:1"
     id="path16" />
  <path
     d="M 21.39600372314453 0.375 L 24.02100372314453 0.375 "
     style="fill:none;stroke:#ffffff;stroke-width:1"
     id="path18" />
  <path
     d="M 21.39600372314453 17.625 L 24.02100372314453 17.625 "
     style="fill:none;stroke:#ffffff;stroke-width:1"
     id="path20" />
  <path
     d="M 24.02100372314453 0.375 L 51.36274719238281 0.375 "
     style="fill:none;stroke:#ffffff;stroke-width:1"
     id="path22" />
  <path
     d="M 24.02100372314453 17.625 L 51.36274719238281 17.625 "
     style="fill:none;stroke:#ffffff;stroke-width:1"
     id="path24" />
  <path
     d="M 51.36274719238281 0.375 L 68.98774719238281 0.375 "
     style="fill:none;stroke:#ffffff;stroke-width:1"
     id="path26" />
  <path
     d="M 51.36274719238281 17.625 L 68.98774719238281 17.625 "
     style="fill:none;stroke:#ffffff;stroke-width:1"
     id="path28" />
  <path
     d="M 53.125247192382815 0.375 L 53.125247192382815 17.625 "
     style="fill:none;stroke:#ffffff;stroke-width:1"
     id="path30" />
  <path
     d="M 56.65024719238281 0.375 L 56.65024719238281 17.625 "
     style="fill:none;stroke:#ffffff;stroke-width:1"
     id="path32" />
  <path
     d="M 58.41274719238281 0.375 L 58.41274719238281 17.625 "
     style="fill:none;stroke:#ffffff;stroke-width:1"
     id="path34" />
  <path
     d="M 60.17524719238281 2.1 L 68.98774719238281 2.1 "
     style="fill:none;stroke:#ffffff;stroke-width:1"
     id="path36" />
  <path
     d="M 60.17524719238281 5.550000000000001 L 68.98774719238281 5.550000000000001 "
     style="fill:none;stroke:#ffffff;stroke-width:1"
     id="path38" />
  <path
     d="M 60.17524719238281 2.1 L 60.17524719238281 5.550000000000001 "
     style="fill:none;stroke:#ffffff;stroke-width:1"
     id="path40" />
  <path
     d="M 61.937747192382815 3.825 L 68.98774719238281 3.825 "
     style="fill:none;stroke:#ffffff;stroke-width:1"
     id="path42" />
  <path
     d="M 60.17524719238281 7.275 L 68.98774719238281 7.275 "
     style="fill:none;stroke:#ffffff;stroke-width:1"
     id="path44" />
  <path
     d="M 60.17524719238281 10.725000000000001 L 68.98774719238281 10.725000000000001 "
     style="fill:none;stroke:#ffffff;stroke-width:1"
     id="path46" />
  <path
     d="M 60.17524719238281 7.275 L 60.17524719238281 10.725000000000001 "
     style="fill:none;stroke:#ffffff;stroke-width:1"
     id="path48" />
  <path
     d="M 61.937747192382815 9.000000000000002 L 68.98774719238281 9.000000000000002 "
     style="fill:none;stroke:#ffffff;stroke-width:1"
     id="path50" />
  <path
     d="M 60.17524719238281 12.450000000000001 L 68.98774719238281 12.450000000000001 "
     style="fill:none;stroke:#ffffff;stroke-width:1"
     id="path52" />
  <path
     d="M 60.17524719238281 15.900000000000002 L 68.98774719238281 15.900000000000002 "
     style="fill:none;stroke:#ffffff;stroke-width:1"
     id="path54" />
  <path
     d="M 60.17524719238281 12.450000000000001 L 60.17524719238281 15.900000000000002 "
     style="fill:none;stroke:#ffffff;stroke-width:1"
     id="path56" />
  <path
     d="M 61.937747192382815 14.175 L 68.98774719238281 14.175 "
     style="fill:none;stroke:#ffffff;stroke-width:1"
     id="path58" />
</svg>
