<?xml version="1.0" encoding="UTF-8" standalone="no"?>
<svg
   width="93.53133392333984"
   height="18.0"
   version="1.1"
   id="svg16"
   sodipodi:docname="sehebtawy.svg"
   inkscape:version="1.1.1 (3bf5ae0d25, 2021-09-20)"
   xmlns:inkscape="http://www.inkscape.org/namespaces/inkscape"
   xmlns:sodipodi="http://sodipodi.sourceforge.net/DTD/sodipodi-0.dtd"
   xmlns="http://www.w3.org/2000/svg"
   xmlns:svg="http://www.w3.org/2000/svg">
  <defs
     id="defs20" />
  <sodipodi:namedview
     id="namedview18"
     pagecolor="#ffffff"
     bordercolor="#666666"
     borderopacity="1.0"
     inkscape:pageshadow="2"
     inkscape:pageopacity="0.0"
     inkscape:pagecheckerboard="0"
     showgrid="false"
     inkscape:zoom="14.700956"
     inkscape:cx="46.765667"
     inkscape:cy="9.0130195"
     inkscape:window-width="1920"
     inkscape:window-height="1001"
     inkscape:window-x="-9"
     inkscape:window-y="-9"
     inkscape:window-maximized="1"
     inkscape:current-layer="svg16" />
  <path
     d="M 22.77966110174755 0.5684490592972326 Q 22.633638086057772 0.6049545148491455 22.633638086057772 0.696219735092747 Q 22.633638086057772 0.7874840005506465 22.72490223216746 0.8422427507825265 Q 22.76140750869705 0.864146310549385 22.796453872674018 0.864146310549385 Q 22.84902246385376 0.864146310549385 22.898304682647282 0.8148638530594374 Q 22.980442987017422 0.7327252503187663 22.92568411743733 0.6505866475780953 Q 22.870925247857237 0.5684490592972326 22.77966110174755 0.5684490592972326 ZM 2.5609985348740345 0.46936116044907683 Q 2.359843567091113 0.46936116044907683 2.1720992805818096 0.7509784853246271 Q 2.2816167810455696 0.9335079710261279 2.5189051363271635 0.988266721258008 Q 2.5554108902496084 0.9973931597386192 2.589888440644617 0.9973931597386192 Q 2.762277147405363 0.9973931597386192 2.8839638690337397 0.7692307655447858 Q 2.8839638690337397 0.5136903090653525 2.6284226367909236 0.47718380921657794 Q 2.5945244026205927 0.46936116044907683 2.5609985348740345 0.46936116044907683 ZM 1.241199810550572 0.7874840005506465 Q 1.186441060318692 0.9152547360202673 1.2777053257765913 1.0247722364840275 L 0.5110819274186749 1.0977842217217681 Q 0.4928296471985162 0.9335079710261279 1.241199810550572 0.7874840005506465 ZM 1.9876164226822657 1.222624719872005 Q 1.9876164226822657 1.222624719872005 1.9876164226822657 1.222624719872005 L 1.9876164226822657 1.222624719872005 L 1.9876164226822657 1.222624719872005 ZM 2.125909851373434 1.2203396789907357 Q 2.284224539494109 1.2203396789907357 2.382007723680506 1.2529337952403716 Q 2.418033220394854 1.2649421350142038 2.3813761329386445 1.2649421350142038 Q 2.314213403607673 1.2649421350142038 2.0030587685814902 1.2246304859354444 L 2.0030585298850645 1.2246304859354444 Q 2.068468511363622 1.2203396789907357 2.125909851373434 1.2203396789907357 ZM 5.49470864855246 2.472162196565138 Q 5.540779445637364 2.472162196565138 5.621903767591998 2.539765559497574 Q 7.100390859290249 3.7627121350422854 9.290743732922557 5.405476312873666 Q 11.481095651769165 7.048240490705046 11.754889044883926 7.723598609145255 Q 9.966101851362767 7.468058331688141 8.697522964066787 6.318122547899043 Q 7.428944554163657 5.168188196288498 6.488918406955382 4.082139033390444 Q 5.548891782354257 2.996088915706688 5.439374520586923 2.667536414315408 Q 5.416389009597399 2.472162196565138 5.49470864855246 2.472162196565138 ZM 5.554353633962448 1.6040624432514505 Q 5.819804109613288 1.6040624432514505 6.059973769447039 1.7001303549242361 Q 11.736636406619128 6.007822446076134 12.558018495534819 7.303781245555012 Q 13.324641714870417 8.709256829408373 13.561929831455585 9.457627410479173 Q 13.461538888820648 9.568057924770454 13.322497266183765 9.568057924770454 Q 13.208735504578268 9.568057924770454 13.069100960020451 9.49413364179447 L 12.320730378949651 7.979140318780923 Q 11.754889044883926 6.683181519302044 9.555411284297772 5.104303007576006 Q 7.355932568925916 3.5254240184571173 6.370273871269948 2.603650986906491 Q 5.791486120478193 2.0623774824348997 5.483335241270446 2.0623774824348997 Q 5.266714415990388 2.0623774824348997 5.183833288344107 2.3298573550953035 Q 5.042689704984308 2.7853667564934774 4.685065172449792 2.7853667564934774 Q 4.533956013325552 2.7853667564934774 4.344197606377917 2.704041929541427 Q 4.508475169903898 1.8461543253997177 5.0560624335262725 1.6818780747040774 Q 5.315446678219568 1.6040624432514505 5.554353633962448 1.6040624432514505 ZM 6.023468492917445 8.033898710968165 Q 6.899609451413228 9.439374772214377 6.735331887887247 10.863103471725385 Q 6.5710557565398195 10.863103471725385 6.42503274085004 11.100391588310554 Q 6.365295618619811 10.697168400220765 6.0611810959671955 10.697168400220765 Q 5.99359993180233 10.697168400220765 5.913950753757259 10.717080456035607 Q 6.2972618860322065 9.311604394789393 6.023468492917445 8.033898710968165 ZM 2.768605228341677 0.3457626296377467 Q 2.854758883981503 0.3457626296377467 2.920469384259759 0.35853969124988744 Q 3.2490218856510396 0.42242505898469784 3.3037807552311325 0.5958278973462152 Q 3.3423147126810133 0.7178524937648807 3.3808493862201705 0.7178524937648807 Q 3.3970742983503825 0.7178524937648807 3.4132992104805946 0.696219735092747 Q 3.4680568865785597 0.6232077498550063 3.4863100022362077 0.5319425296114048 Q 3.887874488865229 1.061277632361834 3.5410688718163006 2.101695796338959 Q 3.1942632547673724 3.14211288618217 4.654497708200826 3.3428945327556163 Q 6.0052153772597965 6.445893402716877 7.556713976802937 8.06127814575821 Q 9.10821353113178 9.676662888799545 8.852672776281816 11.100391588310554 Q 8.262843406239485 10.66180027346223 7.547702231954776 10.66180027346223 Q 7.399740523897122 10.66180027346223 7.2464148297657305 10.680575179506013 Q 7.301173699345823 9.384615902634284 6.6258155809056145 8.125163811863553 Q 5.950456507679704 6.865711243699971 5.38461565100683 6.235985198314606 Q 4.818774316941105 5.6062591529292405 3.860495770164459 4.739244036173004 Q 2.9022162686021113 3.872229635506046 2.911342826430935 2.9504568426518447 Q 2.920469384259759 2.0286838111012186 3.166884297370177 1.6636248396982167 Q 3.4132992104805946 1.298565868295215 3.404172413955345 1.0795309867159075 Q 3.4003959978075793 0.9888957460132952 3.368491117486562 0.9888957460132952 Q 3.323292755836844 0.9888957460132952 3.221642928253844 1.170795132825594 Q 3.0482402390775927 1.4810953539967158 2.2633636653879217 1.4993485890025766 Q 2.2171959575542664 1.5004222455244558 2.1705229293878365 1.5004222455244558 Q 1.4237308477788386 1.5004222455244558 0.5475883974303962 1.2255549571913888 L 0.5475883974303962 1.2255549571913888 L 1.6245109428255198 1.298565868295215 Q 2.1565852064067235 1.4089965019347084 2.4153431116795185 1.4089965019347084 Q 2.627053474094281 1.4089965019347084 2.6558013554916937 1.3350723383069363 Q 2.7196867829006104 1.170795132825594 2.5554106515531827 1.1434162947766116 Q 2.3911342815093297 1.116036382593714 2.2177315923330783 1.116036382593714 Q 2.0443286644604015 1.116036382593714 1.953064399002502 1.170795132825594 L 1.9876164226822657 1.222624719872005 L 1.9876164226822657 1.222624719872005 Q 1.8278830423566574 1.2018226844347024 1.6062577078196592 1.170795132825594 Q 1.3689705460201929 0.7874840005506465 1.5332466773676203 0.6232077498550063 Q 1.5697521925936397 0.5684490592972326 1.6610164580515392 0.5684490592972326 Q 1.6245109428255198 0.7509784853246271 1.7249017661122432 0.8422427507825265 Q 1.7620839857045425 0.8760447306192765 1.798014123196905 0.8760447306192765 Q 1.8590952256508866 0.8760447306192765 1.9165579289907808 0.7783573830477161 Q 2.0078231492343823 0.6232077498550063 1.7522816782951405 0.5501957646172655 Q 2.4239901283895215 0.3457626296377467 2.768605228341677 0.3457626296377467 ZM 23.01695017311842 0.38591957359573165 Q 23.509778089767853 0.38591957359573165 23.747067161138723 0.7509784853246271 Q 23.82007771419791 0.8057372355565071 24.659714350949802 0.9517601915721803 L 24.659714350949802 1.0065190014781666 L 23.747067161138723 1.0795309867159075 Q 22.96219130353833 1.0795309867159075 22.76140750869705 0.9608868090751106 Q 22.56062562342718 0.8422427507825265 22.56975337473813 0.6870931175898166 Q 22.578879216477677 0.5319425296114048 22.816166378277146 0.5319425296114048 Q 23.053455449648016 0.5319425296114048 23.144719595757703 0.614081132352076 Q 23.23598374186739 0.696219735092747 23.190352623598248 0.7874840005506465 Q 23.144719595757703 0.8787482063344395 23.01695017311842 0.9335079710261279 Q 23.036506093866425 0.9348116712280785 23.054711947631823 0.9348116712280785 Q 23.291393775296232 0.9348116712280785 23.299870362758433 0.7144720153129057 Q 23.30899620449798 0.47718380921657794 22.907432433958235 0.4406782939905586 Q 22.3963490146869 0.4406782939905586 22.524120346897586 0.8148638530594374 Q 22.645949092899134 1.171644176011082 23.64728059785314 1.171644176011082 Q 23.69612743436656 1.171644176011082 23.747067161138723 1.170795132825594 Q 24.312907540418745 1.1342897369477876 24.75097849705949 1.0430254714898881 L 24.714473220529893 0.9700134862521473 L 24.714473220529893 0.9700134862521473 Q 26.338983805310775 1.9739250608693384 26.238591907890136 3.2607569444747537 Q 26.138201920040903 4.547588947428382 24.97001397537986 5.396349993741268 Q 23.801826030718814 6.245110562661302 22.889178840907736 7.267275491632566 Q 21.465450141396726 9.001303815573634 21.35593240223654 9.986962513229603 Q 21.246414663076354 10.97262121088557 21.848762228457378 10.97262121088557 Q 22.451107884266992 10.97262121088557 23.318122046237526 10.251630064604818 Q 24.185138117779466 9.530638918324064 25.079531714540046 9.512386280059266 Q 27.470664563870823 9.567144194853658 27.196872125541763 11.720991791956372 Q 26.320730212260276 10.790091963880496 25.225554730229824 10.790091963880496 Q 24.677966034428895 10.790091963880496 23.728813568088224 11.264668197050833 Q 22.286831275526716 12.031291416386429 21.53846260402732 12.031291416386429 L 20.9178614455958 11.94002631549104 Q 19.786180687035753 11.100391588310554 20.151239181045902 9.457627410479173 Q 20.69882596727543 8.271186827553333 21.629726750137007 5.222947065868591 Q 22.26857959204762 3.488918503231098 22.898304682647282 2.594524429077667 Q 23.52803168281835 1.7001303549242361 24.239896987359558 1.6818780747040774 Q 24.623207164848804 1.6818780747040774 25.48109548507979 2.0469359719731646 Q 25.516527582480354 2.0565995967593533 25.54286630085524 2.0565995967593533 Q 25.665772045128623 2.0565995967593533 25.590613224239974 1.8461543253997177 Q 24.90056286341766 1.4183230873680976 23.98094382841071 1.4183230873680976 Q 23.68429382037619 1.4183230873680976 23.36375507407807 1.4628421189908551 Q 23.08996072617761 1.4628421189908551 22.697522797377413 1.3168191033010757 Q 22.305084868577215 1.170795132825594 22.305084868577215 0.6232077498550063 Q 22.633638086057772 0.38591957359573165 23.01695017311842 0.38591957359573165 ZM 5.183833288344107 3.0508475465903557 Q 6.607562465247967 4.876141210123237 7.794002570780957 6.05345547391668 Q 8.980443153706798 7.2307702151029725 10.029987517468108 7.641461259560818 Q 11.079530926443718 8.052151349232961 11.973924523204298 8.070405897069161 Q 12.083442262364484 8.21642795797324 14.146023803786107 12.68839689656184 L 14.018253426361124 12.743155766141934 L 9.10821353113178 9.603651380954656 Q 9.144719762447076 9.329857033054191 7.657105874223576 7.641461259560818 Q 6.169491508607224 5.953063576496041 5.037810272654327 3.178618401408189 L 5.183833288344107 3.0508475465903557 ZM 10.22164260621273 10.917862341305478 L 12.941329627809766 12.578879157401655 Q 13.032594728705156 12.83441991225162 12.284224147634355 12.92568501314701 Q 12.117919574063066 12.945966571028519 11.97865548635762 12.945966571028519 Q 11.491235475924217 12.945966571028519 11.33507072650798 12.69752369308709 Q 11.13428979602381 12.378097272131784 10.823990171593753 11.867014807646152 Q 10.51368863759229 11.35593329794622 10.22164260621273 10.917862341305478 ZM 19.51238633913529 10.132986483705084 Q 19.51238633913529 10.899609703040682 19.73142181745566 11.465450082320704 Q 20.297262196735684 12.469361418241471 21.246414663076354 12.487615011291968 Q 21.271391857040214 12.488095268500066 21.296634481429226 12.488095268500066 Q 22.230630679536628 12.488095268500066 23.52803168281835 11.830508576330855 Q 24.760560726364584 11.205802794166512 25.321529788993093 11.205802794166512 Q 25.367013870264127 11.205802794166512 25.408083022449198 11.20990932747074 Q 25.955671718250127 11.264668197050833 26.594524560160743 11.775749706750762 Q 27.233377402071355 12.286832171236394 27.26988267860095 12.670144258297045 Q 27.336545816313357 12.981237309645449 27.213848215323008 12.981237309645449 Q 27.134969549339438 12.981237309645449 26.97783664722139 12.85267350530212 Q 26.453025319126954 11.803050849113246 25.632165497990247 11.803050849113246 Q 25.625090535938558 11.803050849113246 25.617992659030023 11.80312914154081 Q 24.78748377358908 11.812255938066059 23.573664710658896 12.451108779976673 Q 22.359843738157306 13.089961621887287 20.744458995115973 13.089961621887287 Q 19.129074252074638 13.089961621887287 18.946545959855264 12.049544054651227 Q 18.764015758064488 11.009126487415164 19.51238633913529 10.132986483705084 ZM 5.9869617842092975 11.191656689205942 L 6.260756609502613 11.739244430221168 Q 6.516296886959727 11.483703675371203 6.65319453830281 11.438070647530658 Q 6.65701845503925 11.436796008618511 6.66032249096096 11.436796008618511 Q 6.775304946086441 11.436796008618511 6.260756609502613 12.980443882727103 L 5.494133390167016 13.21773199931227 Q 5.293350550111441 13.071708028836788 5.6127774484596 12.314211606026442 Q 5.932203392022056 11.556715183216093 5.9869617842092975 11.191656689205942 ZM 25.3841465449005 12.332304795079008 Q 25.989295451531138 12.332304795079008 26.338983805310775 12.83441991225162 Q 26.101694733939905 13.21773199931227 25.225554730229824 13.436768432418344 Q 24.550196611789616 13.436768432418344 23.85658490029891 12.870926143566917 Q 24.757383199548386 12.332304795079008 25.3841465449005 12.332304795079008 ZM 23.272490927968388 13.089961621887287 Q 23.54354504090416 13.354712239618575 23.860314293250852 13.52803162374233 L 21.3870259534073 13.52803162374233 Q 22.296396318689176 13.432913007753738 23.272490927968388 13.089961621887287 ZM 13.835724179356049 14.239895973497832 Q 11.793824251025065 17.175128731674494 7.949174820459982 17.25145239111956 L 7.949174820459982 17.25145239111956 Q 4.122734108017405 17.175128731674494 2.080834179686421 14.239895973497832 ZM 28.602347232002273 14.258150521334034 Q 26.56044825845699 17.19338041515359 22.715797395713356 17.26970598417006 L 22.715797395713356 17.26970598417006 Q 18.889337110163886 17.19338041515359 16.829205548853547 14.258150521334034 ZM 3.0828786708633857 0.008692117630364187 Q 2.971576914619046 0.008692117630364187 2.8474573990220184 0.020860628300151455 Q 2.5554106515531827 0.020860628300151455 1.186441060318692 0.4406782939905586 Q 0.09126423562084626 0.696219735092747 0.0 1.0977842217217681 L 0.036505492848229494 1.7183835899300968 L 0.5840939126564156 1.5176008692227352 Q 1.4784879271357403 1.8096488101736983 2.080834179686421 1.8096488101736983 Q 2.6831812676745908 1.8096488101736983 2.5371572971991094 2.2203398546315434 Q 2.3911342815093297 2.6310308990893883 2.5736637672108307 3.5893094458660344 Q 2.7561932529123316 4.547588947428382 4.015645343683063 5.5241203711662505 Q 5.275098389239495 6.5006522722969695 5.576270739751453 8.079530784023007 Q 5.877444522441963 9.658410250534748 5.037810272654327 11.720991791956372 L 5.311603665769089 11.556715183216093 Q 5.3170254163777955 11.553462228329439 5.320836443507258 11.553462228329439 Q 5.38118176422965 11.553462228329439 5.037810272654327 12.368970475606535 Q 4.672751301251325 13.235984637577067 4.04302525586596 13.263364072367114 Q 3.93189679322653 13.268195288019145 3.833558162458005 13.268195288019145 Q 3.3746456661215403 13.268195288019145 3.1942632547673724 13.162973129732178 Q 2.989829552883843 13.04372039555458 2.5866402596864733 13.04372039555458 Q 2.5578429681289827 13.04372039555458 2.5280316941559873 13.044328594046743 Q 2.080834179686421 13.053455390571992 2.080834179686421 13.345502376737253 L 2.080834179686421 13.52803162374233 L 0.8031288539098296 13.52803162374233 Q 2.9022162686021113 17.981746969280433 7.958279656914086 18.000000562330932 Q 13.014342090440358 17.981746969280433 15.113428908391576 13.52803162374233 L 15.113428908391576 13.52803162374233 L 9.49152561819243 13.564537855057624 Q 9.49152561819243 13.400261246317346 9.144719762447076 13.208605202787021 Q 8.975349371986722 13.115006605635987 8.75591479324292 13.115006605635987 Q 8.526030084990925 13.115006605635987 8.241198414375544 13.21773199931227 Q 8.071091884138962 13.279081754593147 7.876274067756523 13.279081754593147 Q 7.433506997640579 13.279081754593147 6.863102742705081 12.962191244462305 Q 6.990873597522914 12.323337447765988 7.17340284452799 11.821382734591309 Q 7.355932568925916 11.319427066630926 7.867014556018697 11.228161965735536 Q 7.91433659976605 11.219711157487291 7.962910844961551 11.219711157487291 Q 8.438939307184603 11.219711157487291 9.03520202328689 12.031291416386429 Q 9.382007879032244 11.35593329794622 9.235984863342464 10.205997991549975 L 9.235984863342464 10.205997991549975 L 9.418514110347541 10.333768368974956 Q 10.787483940278456 12.633638026981748 11.070404129918469 13.035202752307194 Q 11.28503327222419 13.339837633167392 11.904089587389903 13.339837633167392 Q 12.10106378728027 13.339837633167392 12.338983017214447 13.308996145421958 Q 13.324641714870417 13.181225767996974 13.30638907660562 12.83441991225162 L 13.30638907660562 12.83441991225162 L 14.146023803786107 13.254238230627566 L 14.784876645696722 13.016950114042398 L 13.37940058445051 9.968709874964805 Q 13.726206440195863 9.968709874964805 14.018253426361124 9.676662888799545 Q 13.67144757061577 8.581486451983391 12.941329627809766 7.2307702151029725 Q 12.430248118109837 6.409388126187283 11.900913015359407 5.953063576496041 Q 10.4589307227979 4.602347339615624 8.907431645861907 3.3885266058104597 Q 7.355932568925916 2.174706826790998 6.6258155809056145 1.5176008692227352 Q 6.135176987870829 1.237236402210505 5.607156147639178 1.237236402210505 Q 5.310143798430758 1.237236402210505 5.0013035639461805 1.3259457804781123 Q 4.143416198500896 1.5723605742403173 3.9608864741029697 2.539765559497574 Q 3.906127843219302 2.50326028296798 4.0521506202126565 1.8096488101736983 Q 4.198174590688137 1.116036382593714 3.988266386285867 0.5228169265682828 Q 3.8063448603801033 0.008692117630364187 3.0828786708633857 0.008692117630364187 ZM 23.079162099888187 0.0 Q 22.74837277429359 0.0 22.451107884266992 0.09387261726752386 Q 22.06779770677775 0.20339010281275738 21.994785244147156 0.5136903090653525 Q 21.848762228457378 0.8970014413403002 22.12255657635784 1.2711870302462323 Q 22.3963490146869 1.645371604692356 22.980442987017422 1.7366368249359574 Q 21.81225504235638 2.795307030436816 20.99087390822639 5.478487343325705 Q 20.22424973410509 8.033898710968165 19.713168224405162 9.2568455252093 Q 18.344198394474244 10.370274600290251 18.353324236213794 11.492829517110751 Q 18.362451987524743 12.615385388716952 18.91003877375427 13.089961621887287 Q 19.30575352708367 13.432913007753738 20.06368533217412 13.52803162374233 L 15.55149986503232 13.52803162374233 Q 17.650586682983537 17.981746969280433 22.706650548688362 18.000000562330932 Q 27.762712504821785 17.981746969280433 29.861799322773003 13.52803162374233 L 26.348111556621728 13.52803162374233 Q 26.5488934418916 13.418513884582143 26.75880116890102 13.272490868892364 Q 26.964314972109918 13.516538868247567 27.224062512762817 13.516538868247567 Q 27.333429395782087 13.516538868247567 27.452412880391726 13.473272754162236 Q 27.908735520511563 13.254238230627566 27.6349411726111 12.469361418241471 Q 27.890481927461064 10.22425062981477 27.032595516801482 9.603651380954656 Q 26.1747071965705 8.983051177308838 25.09778339801914 8.983051177308838 Q 24.112125655148873 8.983051177308838 22.96219130353833 9.831812701014574 Q 22.249229905011244 10.358045705019261 21.98532331784051 10.358045705019261 Q 21.823573072067678 10.358045705019261 21.83050863540688 10.160365918495131 Q 21.848762228457378 9.64015665748425 22.633638086057772 8.398957204978315 Q 23.162973188808202 7.522817201268234 24.933506789278862 6.144720097419217 Q 26.704042299320925 4.766623948355902 26.685788706270426 3.370274444938514 Q 26.667537022791333 1.9739250608693384 25.900912848670032 1.2711870302462323 Q 25.134290584120137 0.5684490592972326 24.20338980125856 0.47718380921657794 Q 24.05736678556878 0.2764020731319715 23.82007771419791 0.1486313525808773 Q 23.582790552398443 0.020860628300151455 23.190352623598248 0.0026073821053958263 Q 23.13429142632065 0.0 23.079162099888187 0.0 Z"
     style="fill:#ffffff;stroke:none"
     id="path2" />
  <path
     d="M 33.60696619910056 0.0 C 32.677138994892644 0.0 31.861799240112305 0.6839976251482283 31.861799240112305 1.5619743615408133 L 31.861799240112305 17.99999905106683 L 32.99778059396017 17.99999905106683 L 32.99778059396017 1.5619743615408133 C 32.99778059396017 1.1313441510315352 33.376305016969624 0.992015871578576 33.61414410325949 0.992015871578576 C 33.86370564694648 0.992015871578576 34.24798424877186 1.166951684911138 34.24798424877186 1.694609547086237 L 34.24798424877186 12.498603637432174 L 35.38396560261972 12.498603637432174 L 35.38396560261972 1.694609547086237 C 35.38396560261972 0.8155222348293883 34.51336464123674 0.0 33.60696619910056 0.0 Z"
     style="fill:#ffffff;stroke:none"
     id="path4" />
  <path
     d="M 39.89216208860623 0.6955501977484014 Q 40.81956259105125 0.6955501977484014 40.81956259105125 1.9180330635489997 Q 40.81956259105125 2.992974240263269 39.89216208860623 4.046838860026191 Q 38.96476146677096 2.992974240263269 38.96476146677096 1.9180330635489997 Q 38.96476146677096 0.6955501977484014 39.89216208860623 0.6955501977484014 ZM 39.89216208860623 5.39578435076662 Q 40.54555839641534 5.39578435076662 40.54555839641534 6.807962735897713 Q 40.54555839641534 7.608898404683371 39.89216208860623 8.283371627614567 Q 39.23876673591908 7.608898404683371 39.23876673591908 6.807962735897713 Q 39.23876673591908 5.39578435076662 39.89216208860623 5.39578435076662 ZM 39.89216208860623 9.653395704940513 Q 40.54555839641534 9.653395704940513 40.54555839641534 11.065573134949643 Q 40.54555839641534 11.866509758857264 39.89216208860623 12.540984414471403 Q 39.23876673591908 11.866509758857264 39.23876673591908 11.065573134949643 Q 39.23876673591908 9.653395704940513 39.89216208860623 9.653395704940513 ZM 39.89216208860623 0.0 Q 38.20597938944898 0.0 38.20597938944898 1.9180330635489997 Q 38.18490247432689 3.119438118800675 38.764527907745276 3.8044492023416856 Q 39.34415250543195 4.489460524663187 39.28092068555349 4.721311127835424 Q 38.54321552335359 5.585479691011748 38.54321552335359 6.807962735897713 Q 38.54321552335359 7.819671853953035 39.40738420592016 8.978922004448336 Q 38.54321552335359 9.843090567624659 38.54321552335359 11.065573134949643 Q 38.54321552335359 12.077283208126927 39.40738420592016 13.215456204719654 Q 39.51277116933548 13.489460638136059 38.817220792501715 14.501170711313343 Q 38.12167059475331 15.512878874246702 37.383965492248535 17.999999271823782 L 38.3113661140838 17.999999271823782 Q 38.775065887745335 16.35597076108143 39.133380011284245 15.649882523637848 Q 39.491694015432905 14.9437933310723 39.89216208860623 14.501170711313343 Q 40.31370803202359 14.9437933310723 40.66148322044047 15.649882523637848 Q 41.00925817007687 16.35597076108143 41.472958182518894 17.999999271823782 L 42.42143583886649 17.999999271823782 Q 41.72588546203272 15.512878874246702 40.99871935434509 14.501170711313343 Q 40.271553007876975 13.489460638136059 40.398016886414375 13.215456204719654 Q 41.241108534468616 12.077283208126927 41.241108534468616 11.065573134949643 Q 41.241108534468616 9.843090567624659 40.440171671780504 8.978922004448336 Q 41.241108534468616 7.819671853953035 41.241108534468616 6.807962735897713 Q 41.241108534468616 5.585479691011748 40.524480526171295 4.721311127835424 Q 40.46124858690259 4.489460524663187 41.030335085198956 3.8044492023416856 Q 41.599421583495314 3.119438118800675 41.599421583495314 1.9180330635489997 Q 41.599421583495314 0.0 39.89216208860623 0.0 Z"
     style="fill:#ffffff;stroke:none"
     id="path6" />
  <path
     d="M 52.705124927278334 0.5851538912933727 C 52.675460483460945 4.903427269123198 52.641074239886294 9.221873579109738 52.61435998106852 13.54003840441728 C 52.67721424109372 14.23942867769914 52.713771535114084 14.941902594492861 52.79511449832896 15.639130275967107 C 52.842689638399165 16.01214399815292 53.085840709378715 16.359513949164974 53.032767454543375 16.741073715378022 C 52.95361433874778 16.998695636449643 52.78412954698283 17.40316891342744 52.49816366948613 17.40316891342744 C 52.43470508676111 17.40316891342744 52.3655096677068 17.383249760550157 52.290292638173824 17.337388904468252 C 51.8272931043321 17.159161640302422 51.385838661580244 16.864607425587987 50.87549847991342 16.864607425587987 C 50.847224072290494 16.864607425587987 50.81873772879074 16.86551156001603 50.79002488175962 16.867389377674275 C 50.764758929754336 16.86709238549209 50.73950472585752 16.86694764879571 50.71426133022051 16.86694764879571 C 49.74399726951005 16.86694764879571 48.790344564255356 17.081447432832537 47.827527394543445 17.175345834534127 C 47.30139634531657 17.250244255365327 46.77728479593611 17.370150149678988 46.24374538950648 17.370150149678988 C 46.22123695352186 17.370150149678988 46.19871183522321 17.369937743877806 46.176169094761846 17.369497894696597 C 47.13908095422805 17.15165788845887 48.090255043557214 16.78381803324434 48.84885437376742 16.13644650458133 C 49.88157889790708 15.33368979401772 50.917613099165614 14.535050560511554 51.94826760659242 13.729719604419454 C 52.08808325529658 13.557689702435031 51.88162011730362 4.782437259359695 51.812013044528435 0.615950852767507 C 52.10971716208651 0.6056851793626148 52.407421279644595 0.595419564698265 52.705124927278334 0.5851538912933727 ZM 53.229689248759314 0.0 C 53.229579286464016 0.0 53.22946932416871 3.87687579592298E-6 53.229359361873406 1.1623284819973632E-5 C 52.719647469047686 0.016771126059709464 51.960200865254436 0.009010189765275794 51.45216284292388 0.041127025527307556 C 51.18055456375358 0.1197331420498574 51.22787453490777 0.4239299582224926 51.231878760199535 0.6421303964281548 C 51.3020690090793 4.89365002332805 51.37225925795906 9.145169708968488 51.44244950683882 13.396689864533265 C 50.31534208900416 14.258506666009792 49.19809979281603 15.133702213414796 48.064553706651935 15.986788760523245 C 47.430272860297656 16.399829698047864 46.6965712963732 16.656812522018583 45.9561788322304 16.79263005444739 C 45.62512618151905 16.789321787101535 45.290565721839435 16.617998651322818 44.96080595046548 16.617998651322818 C 44.855033999863174 16.617998651322818 44.74975595442619 16.63562457342627 44.645245985636 16.682075654477835 C 44.39093477698531 16.877363051843083 44.30328129527674 17.411808002473773 44.643592439368504 17.575522123357025 C 45.15571188674863 17.85018914004922 45.72604443047621 17.95487888426931 46.30028539367097 17.95487888426931 C 46.66285023070026 17.95487888426931 47.02697298439409 17.9131458435803 47.378985552912305 17.84611207648493 C 48.196962407926364 17.707183644932606 49.023184085466426 17.625631095462584 49.84459820205737 17.509556024359636 C 50.11476099396121 17.486074844993492 50.39534670770185 17.44971585904414 50.67160112881085 17.44971585904414 C 50.970270470961026 17.44971585904414 51.26387731820824 17.492215816254234 51.53377742240664 17.639435592842105 C 51.85815303566765 17.783277553281962 52.21638387800035 18.000001019290465 52.57753858956969 18.000001019290465 C 52.698321362699744 18.000001019290465 52.819431203169664 17.97576044219266 52.939711157257086 17.916448471834087 C 53.31821265587257 17.680305852444896 53.536810180144606 17.24065779885177 53.629033771502364 16.815152588162178 C 53.705423732185224 16.260027207225185 53.33032918502676 15.76871755151078 53.33698989260633 15.21706397158958 C 53.29394294346576 14.613982811867867 53.22536500499276 14.011877215073712 53.19844303961719 13.408177634922007 C 53.22903135468486 9.044300449623655 53.39741276410206 1.4685135590617349E-8 53.229689248759314 0.0 Z"
     style="fill:#ffffff;stroke:none"
     id="path8" />
  <path
     d="M 63.85882879836204 1.4358817253143983 L 63.85882879836204 1.4535984703798355 C 64.54388653801168 1.4535984703798355 65.09901902613115 1.5126554028935457 65.52422447771418 1.6307693794838585 C 65.07539536062252 2.3985055974608724 64.52026287250305 2.9772606354600417 63.85882879836204 3.3670346050442577 C 63.18558333771829 2.9772606354600417 62.63045084959882 2.3985055974608724 62.19343088775207 1.6307693794838585 C 62.61863901684451 1.5008442395165877 63.17377105871241 1.4358817253143983 63.85882879836204 1.4358817253143983 ZM 63.85882879836204 4.146582321086906 L 63.85882879836204 4.164298954589451 C 64.09505474341061 5.522601708631268 64.24269618219175 6.497036632591808 64.30175311470546 7.087602833967935 C 64.34899955321957 7.489188636306461 64.3726232187282 8.168340682704722 64.3726232187282 9.125059419414285 C 64.3726232187282 9.76286893554354 64.34899955321957 10.34752899741673 64.30175311470546 10.879038712530713 C 64.21907519419254 11.410550212650971 64.0714337554114 11.930249433765349 63.85882879836204 12.43813637587385 L 63.85882879836204 12.420417511113465 C 63.64622562631896 11.9125314615081 63.498583295034685 11.392834025399994 63.415902697012356 10.861324310286008 C 63.368658936007655 10.34162508917163 63.34503705550531 9.76286893554354 63.34503705550531 9.125059419414285 C 63.34503705550531 8.168340682704722 63.36275413525942 7.489188636306461 63.39818740226451 7.087602833967935 C 63.46905572128097 6.485225246089066 63.62260196081034 5.504885075128723 63.85882879836204 4.146582321086906 ZM 61.48475082134852 1.6662027580518406 L 61.96311063595487 1.9851093011227403 C 62.329261832533604 2.670166148269236 62.801714615133875 3.231204329640076 63.38046943000727 3.668223398983692 C 62.978884520171874 5.91237657071862 62.801714615133875 7.731321167109538 62.848960607396414 9.125059419414285 C 62.848960607396414 10.81407876427504 63.067470365194005 12.125136418557457 63.504488988286056 13.0582314897584 C 63.59898008030799 13.1527216892772 63.717093052832276 13.199966342785032 63.85882879836204 13.199966342785032 L 63.85882879836204 13.217683422539146 L 57.7464659589223 13.217683422539146 L 57.7464659589223 2.9595435557059284 C 58.11261715550103 2.5697695861217125 59.358711960892585 2.138655986903683 61.48475082134852 1.6662027580518406 ZM 66.21518880311832 1.6839195031172776 C 68.34122944858053 2.144561680155054 69.59323017034923 2.5756752793730833 69.97119096842444 2.9772604123342576 L 69.97119096842444 13.217683422539146 L 63.85882879836204 13.217683422539146 C 64.00056543639495 13.217683422539146 64.11867840891924 13.164533075779943 64.2131677159349 13.0582314897584 C 64.63837584502734 12.125136418557457 64.85688649532807 10.81407876427504 64.86869877433395 9.125059419414285 C 64.91594253533864 7.731321167109538 64.73286604454614 5.91237657071862 64.31946930195645 3.668223398983692 C 64.89822634808766 3.231204329640076 65.37068002319107 2.676071841520607 65.73682943476354 2.0028259346252852 L 66.21518880311832 1.6839195031172776 ZM 64.20507271249075 0.5061364972903537 C 65.08574393448525 0.5061364972903537 66.1839440533308 0.6595515388587262 67.49967217652427 0.9663817893398093 C 68.99380453659292 1.3148157946015362 70.1956064194734 1.7193538857512878 71.105079610172 2.179996062789064 L 71.105079610172 13.217683422539146 L 70.4318332570251 13.217683422539146 L 70.4318332570251 2.5697693629959284 C 69.23888857526697 1.9910145481225432 68.08433223839745 1.5805708752843126 66.96816156890715 1.3384383444812362 C 65.903907806842 1.1075681991893274 64.91213511696017 0.992133182324819 63.99284617677108 0.992133182324819 C 63.948001464196146 0.992133182324819 63.903329004726466 0.9924078501649443 63.85882879836204 0.992957297408087 L 63.84111261111107 0.9752396598395139 C 63.798162682694 0.9747028192031681 63.755036038655994 0.9744343988849953 63.711732678997045 0.9744343988849953 C 62.80234427609638 0.9744343988849953 61.81493235653738 1.0928161264161287 60.74949647406851 1.3295795814783957 C 59.6333258045782 1.577618028658627 58.47876812895398 1.9851090779969562 57.285823893447414 2.552052506367599 L 57.285823893447414 13.217683422539146 L 56.594860683672195 13.217683422539146 L 56.594860683672195 2.179996062789064 C 57.51614481462197 1.7193538857512878 58.72090088288284 1.3148157946015362 60.20912866532903 0.9663817893398093 C 61.51965572649706 0.6595515388587262 62.61494405386119 0.5061364972903537 63.49499453992455 0.5061364972903537 C 63.61432488672643 0.5061364972903537 63.72969698211985 0.508957141889009 63.84111261111107 0.5145984868677654 L 63.85882879836204 0.5145984868677654 C 63.970244427353265 0.508957141889009 64.08565847039408 0.5061364972903537 64.20507271249075 0.5061364972903537 ZM 63.794571250074455 14.424621660967711 L 65.11181752110238 15.502367392940824 L 63.794571250074455 16.73407527090472 L 62.477325871549674 15.502367392940824 L 63.794571250074455 14.424621660967711 ZM 63.794571250074455 14.014051475809941 L 62.06675657889504 15.502367392940824 L 63.794571250074455 17.144644563559353 L 65.53949431386918 15.502367392940824 L 63.794571250074455 14.014051475809941 ZM 70.46632671822792 13.979838260591858 C 68.91681096855362 16.076239769408343 66.69005223668911 17.153926596174475 63.786051415137536 17.212901418399667 L 63.786051415137536 17.212901418399667 C 60.90481254731671 17.153926596174475 58.689436354198065 16.076239769408343 57.13992283578161 13.979838260591858 ZM 63.73054753760852 0.0 C 62.825259740366526 0.0 61.766613575505296 0.11838174632468708 60.55460993552797 0.3551452153323156 C 59.28489168775358 0.6031829931351949 57.805522222058656 1.0579191422329244 56.116501873131874 1.7193538857512878 L 56.116501873131874 13.217683422539146 L 55.63814306259155 13.217683422539146 L 55.63814306259155 13.926363042691126 L 56.0858697430751 13.926363042691126 C 57.70694502755401 16.631587350783605 60.27651220585071 17.989466612087355 63.794571250074455 17.999999934099247 C 67.32316272380697 17.989466612087355 69.89839752014348 16.631587350783605 71.52027920909656 13.926363042691126 L 72.04408215963059 13.926363042691126 L 72.04408215963059 13.217683422539146 L 71.58343808602365 13.217683422539146 L 71.58343808602365 1.7193538857512878 C 69.9062292351625 1.0697309749872344 68.43276635522207 0.6179477282966365 67.1630494462024 0.36400406200732516 C 66.00139146187917 0.1316723173218491 64.98061420508137 0.015506441492770733 64.10071946081524 0.015506441492770733 C 64.01887067571573 0.015506441492770733 63.938240157396955 0.0165116318656198 63.85882879836204 0.018522009124977562 L 63.85882879836204 8.052936934336773E-4 C 63.816416156832894 2.684312129865363E-4 63.77365543908067 0.0 63.73054753760852 0.0 Z"
     style="fill:#ffffff;stroke:none"
     id="path10" />
  <path
     d="M 92.04169566427981 0.7814422896443887 Q 92.3835869095235 0.7814422896443887 92.55452384249884 0.9645926414739421 Q 92.72546463753929 1.1477449243360525 92.72546463753929 1.4896261523483503 Q 92.72546463753929 1.8315052079490215 92.56673376135655 2.051287850831926 Q 92.40800481620636 2.2710704937148307 92.04169566427981 2.2710704937148307 L 75.50928872077641 2.2710704937148307 Q 75.19182708910046 2.2710704937148307 75.00867480623835 2.051287850831926 Q 74.8255244544088 1.8315052079490215 74.8255244544088 1.4896261523483503 Q 74.8255244544088 1.1477449243360525 75.00867480623835 0.9645926414739421 Q 75.19182708910046 0.7814422896443887 75.50928872077641 0.7814422896443887 ZM 74.8255244544088 0.0 Q 74.0440821647644 0.5128217213289119 74.0440821647644 1.4896261523483503 Q 74.0440821647644 2.515271526038731 74.8255244544088 3.0525077143987573 L 92.82314978149861 3.0525077143987573 Q 93.53133473040839 2.515271526038731 93.53133473040839 1.4896261523483503 Q 93.53133473040839 0.5128217213289119 92.82314978149861 0.0 ZM 85.66805043441741 3.7851100872332495 L 85.25291029670655 4.61540146609218 L 86.08319443419339 4.835181936563458 Q 86.71809669756624 3.9072095171893864 85.66805043441741 3.7851100872332495 ZM 81.85850119914318 3.8095294421905237 L 81.44336057867417 4.6398208210494545 L 82.27365340580752 4.85960273979515 Q 82.93299674825391 3.931631044558287 81.85850119914318 3.8095294421905237 ZM 83.7632876443547 3.8095294421905237 L 83.34814750664384 4.6398208210494545 L 84.17842585103301 4.85960273979515 Q 84.81334935576399 3.931631044558287 83.7632876443547 3.8095294421905237 Z"
     style="fill:#ffffff;stroke:none"
     id="path12" />
  <path
     d="M 92.04169566427981 13.921839361482768 Q 92.3835869095235 13.921839361482768 92.55452384249884 14.104989713312321 Q 92.72546463753929 14.288141996174431 92.72546463753929 14.63002322418673 Q 92.72546463753929 14.9719022797874 92.56673376135655 15.191684922670305 Q 92.40800481620636 15.41146756555321 92.04169566427981 15.41146756555321 L 75.50928872077641 15.41146756555321 Q 75.19182708910046 15.41146756555321 75.00867480623835 15.191684922670305 Q 74.8255244544088 14.9719022797874 74.8255244544088 14.63002322418673 Q 74.8255244544088 14.288141996174431 75.00867480623835 14.104989713312321 Q 75.19182708910046 13.921839361482768 75.50928872077641 13.921839361482768 ZM 74.8255244544088 13.140397071838379 Q 74.0440821647644 13.65321879316729 74.0440821647644 14.63002322418673 Q 74.0440821647644 15.65566859787711 74.8255244544088 16.192904786237136 L 92.82314978149861 16.192904786237136 Q 93.53133473040839 15.65566859787711 93.53133473040839 14.63002322418673 Q 93.53133473040839 13.65321879316729 92.82314978149861 13.140397071838379 ZM 85.66805043441741 16.92550715907163 L 85.25291029670655 17.75579853793056 L 86.08319443419339 17.975579008401837 Q 86.71809669756624 17.047606589027765 85.66805043441741 16.92550715907163 ZM 81.85850119914318 16.949926514028903 L 81.44336057867417 17.780217892887833 L 82.27365340580752 17.99999981163353 Q 82.93299674825391 17.072028116396666 81.85850119914318 16.949926514028903 ZM 83.7632876443547 16.949926514028903 L 83.34814750664384 17.780217892887833 L 84.17842585103301 17.99999981163353 Q 84.81334935576399 17.072028116396666 83.7632876443547 16.949926514028903 Z"
     style="fill:#ffffff;stroke:none"
     id="path14" />
</svg>
