<?xml version="1.0" encoding="UTF-8" standalone="no"?>
<svg
   width="61.31275177001953"
   height="18.0"
   version="1.1"
   id="svg28"
   sodipodi:docname="sehetepibre.svg"
   inkscape:version="1.1.1 (3bf5ae0d25, 2021-09-20)"
   xmlns:inkscape="http://www.inkscape.org/namespaces/inkscape"
   xmlns:sodipodi="http://sodipodi.sourceforge.net/DTD/sodipodi-0.dtd"
   xmlns="http://www.w3.org/2000/svg"
   xmlns:svg="http://www.w3.org/2000/svg">
  <defs
     id="defs32" />
  <sodipodi:namedview
     id="namedview30"
     pagecolor="#ffffff"
     bordercolor="#666666"
     borderopacity="1.0"
     inkscape:pageshadow="2"
     inkscape:pageopacity="0.0"
     inkscape:pagecheckerboard="0"
     showgrid="false"
     inkscape:zoom="22.426004"
     inkscape:cx="30.656376"
     inkscape:cy="8.9851051"
     inkscape:window-width="1920"
     inkscape:window-height="1001"
     inkscape:window-x="-9"
     inkscape:window-y="-9"
     inkscape:window-maximized="1"
     inkscape:current-layer="svg28" />
  <path
     d="M 1.2190420140847793 0.0 C 0.970800706632417 0.0 0.7230423028937335 0.01893070358296025 0.48290982680079 0.048905678499779795 C 0.15187998957905166 0.13255188916498697 0.3219916247400915 0.5118521231009919 0.6158947927962716 0.5118521231009919 C 0.6355981423211179 0.5118521231009919 0.6558578408244597 0.5101473851910305 0.6765601864318946 0.5065345630073116 C 1.2976180869590601 0.5780119512905144 2.0622053316712337 0.6175539511807123 2.531371224901928 0.9695623988344474 C 3.1537543888207784 1.6479367557428735 2.8741262715941502 3.0576933712068692 2.94658764204448 3.7269297850416896 C 2.951782632395561 3.7629649381631523 2.953952713884158 6.430591781037886 2.953952713884158 7.782422252231933 C 2.352510186605274 7.494257626556917 1.67335422808609 7.349215125535265 1.0039192969246102 7.349215125535265 C 0.7063920462481148 7.349215125535265 0.41078504023889434 7.377865539465801 0.12477432975315178 7.4353349446232855 C -0.20149863151174055 7.606724672263251 0.18154647682350566 7.8266562324049085 0.4376378670454302 7.8266562324049085 C 0.4681373192956425 7.8266562324049085 0.4968360674978842 7.823536850015894 0.5223214865886322 7.816844331348357 C 1.429843884416301 7.914926816832979 2.4617098179841825 8.158078494744517 2.9226503683594482 9.002292523011262 C 2.9681809889039896 9.155077638776014 2.9396896697969415 9.207577525716367 2.870237404087557 9.207577525716367 C 2.717627362869183 9.207577525716367 2.3672466519332462 8.954092059534803 2.1698535251191053 8.954092059534803 C 2.1594948014573196 8.954092059534803 2.1495575210365625 8.954790250504107 2.140092081444407 8.956259682604495 C 1.7610785167129768 8.874396440250864 1.3638924072290621 8.831466124503471 0.9703996331480379 8.831466124503471 C 0.6822712691518855 8.831466124503471 0.39612316158451694 8.854483949517657 0.1205398348885778 8.90208807080806 C -0.19080937123302597 9.107627344268586 0.19133570335568265 9.296978982841198 0.44461121617263977 9.296978982841198 C 0.47243301123084086 9.296978982841198 0.4986997685303211 9.294694058069421 0.5223214865886322 9.289895224364907 C 1.44862453664532 9.401605077048192 2.473672484380784 9.652726246647584 2.9226503683594482 10.498359836231193 C 2.9277747669676573 11.438445880183364 2.9223641381582497 12.059730482053933 2.9475081443234266 12.924290385186742 C 2.9366830234749024 13.190445840004433 3.1097205941872907 13.32271720601211 3.2850258807391146 13.32271720601211 C 3.4589948410141766 13.32271720601211 3.635197450466691 13.192454719453337 3.636159394664339 12.93350313443563 C 3.6297524037925992 12.081649745019838 3.5689455193688686 11.333930766029841 3.680643079957625 10.507654766912083 C 3.905950499841305 9.580679119782916 5.51430012614692 9.438421656179063 6.5132119200872856 9.209440304841713 C 6.73117182826633 8.953197897458422 6.302254993763335 8.858046549715155 6.0257896324592775 8.858046549715155 C 5.984500135730289 8.858046549715155 5.946610983551 8.860169218839136 5.914784994799312 8.86419400179096 C 5.786745621336966 8.854375779085794 5.657882677541108 8.84931073373403 5.528823762638173 8.84931073373403 C 4.87588245171773 8.84931073373403 4.21792069818853 8.978947377079876 3.636159394664339 9.278489565451865 C 3.6124626948293947 8.719755569414783 4.162693019870619 8.398265319455419 4.5568162027996815 8.173701395689454 C 5.178845705598769 7.90617273831141 5.863655500797704 7.879904181098088 6.5132119200872856 7.736389411825166 C 6.745102634598536 7.535056141910107 6.380132787867637 7.365650007124583 6.127413645979344 7.365650007124583 C 6.0940901289112 7.365650007124583 6.06271789404902 7.368595192973972 6.034923712303174 7.3748016471035225 C 5.875700348626306 7.359480780481324 5.715556482670491 7.35166300836024 5.555429474444318 7.35166300836024 C 4.887519202007935 7.35166300836024 4.219896213380853 7.487670468699637 3.6205083975033348 7.782422252231933 C 3.6327889023442115 5.672151988401518 3.6669749732456607 3.6298724602408705 3.6064121746990256 1.633623314068084 C 3.557780785508615 1.016382811297887 3.202148013782708 0.4498605441665941 2.6039100355477967 0.2652764822581205 C 2.1742288083663857 0.06980961445750675 1.6957449806778964 0.0 1.2190420140847793 0.0 Z"
     style="fill:#ffffff;stroke:none"
     id="path2" />
  <path
     d="M 3.29314921521244 15.21501288860129 C 4.074491287174412 15.21501288860129 5.052497037940845 15.616391919330065 5.5257419749406465 16.089636856329868 C 5.939782214238027 16.503676744424546 5.993910276899555 17.05261639954012 6.009086799211701 17.562687749346416 L 0.6002280514165623 17.562687749346416 C 0.615404749330059 17.05261639954012 0.6695328119915868 16.503676744424546 1.0835728756876173 16.089636856329868 C 1.5568179882887687 15.616391919330065 2.5118074944531683 15.21501288860129 3.29314921521244 15.21501288860129 ZM 3.29314921521244 14.777700904737003 C 2.3662267752924526 14.777700904737003 1.3688759017560481 15.205906904973462 0.7843594130436309 15.79042339368588 C 0.1848327417701466 16.38995028583294 0.11688322714550736 17.179222163577567 0.11688322714550736 17.769835531176867 L 0.11688322714550736 17.999999733210704 L 6.469415203279373 17.999999733210704 L 6.469415203279373 17.769835531176867 C 6.469415203279373 17.179222163577567 6.42448232973169 16.38995028583294 5.824955437584633 15.79042339368588 C 5.240439300074916 15.205906904973462 4.220071830733778 14.777700904737003 3.29314921521244 14.777700904737003 Z"
     style="fill:#ffffff;stroke:none"
     id="path4" />
  <path
     d="M 19.59558827849137 2.2331113889984504 Q 20.011497239301697 2.2331113889984504 20.406868373464476 2.6849636002931274 Q 17.14505908393548 6.568070899826414 16.329606932707488 7.024335296803508 Q 15.721254175199014 7.364724151693918 15.258781670883675 7.364724151693918 Q 15.101344397401952 7.364724151693918 14.960813057159163 7.325276517725049 Q 14.407469963604743 7.169951972435412 13.776464255096982 7.150536917736989 Q 13.760688966903167 7.150051524254103 13.744834947749503 7.150051524254103 Q 13.12652956999073 7.150051524254103 12.38825395561615 7.88832679632016 L 12.291175943655867 7.88832679632016 Q 12.815395428237089 6.665148911786697 13.75704954270708 6.140928742588433 Q 14.698701945634467 5.6167096003157315 19.2807685008913 2.2966530928403377 Q 19.439622247033235 2.2331113889984504 19.59558827849137 2.2331113889984504 ZM 13.822576293662692 0.46382689862325743 Q 13.87160069312572 0.46382689862325743 13.922081273037408 0.4715931515608784 L 13.922081273037408 5.461385397334616 Q 12.38825395561615 6.354500505824466 11.805788280014095 7.965988384347936 Q 12.698902703886905 1.79184917642032 13.058089773520756 1.0928900062739073 Q 13.381357725420997 0.46382689862325743 13.822576293662692 0.46382689862325743 ZM 9.823471846940608 8.280349468529765 Q 9.763159224955167 8.280349468529765 9.708909828226425 8.383422671928184 Q 9.611832586460313 8.567870141573977 9.883650198408658 8.897933602234632 Q 10.038974144658383 8.4902085535462 9.922481420308197 8.344591877914295 Q 9.871087133376625 8.280349468529765 9.823471846940608 8.280349468529765 ZM 9.850515161454094 8.003054920244196 Q 9.964842185368557 8.003054920244196 10.097221020296256 8.179560147583969 Q 10.388454200405805 8.567870141573977 9.922481420308197 9.732803546629212 Q 9.398261764572714 8.723195371480656 9.602124802379711 8.257221735611745 Q 9.713322784103013 8.003054920244196 9.850515161454094 8.003054920244196 ZM 14.931688078951879 9.926958201315696 L 14.931688078951879 10.218190867962463 Q 14.718118369566973 10.198775813264039 14.601625302908268 10.082282061988291 Q 14.640456096922156 10.024035528658937 14.756948478963821 9.926958201315696 ZM 15.378245975505326 10.587085807254049 L 17.183890562566404 10.839488364503968 L 17.552786186475032 11.499616655059363 Q 16.931489374550573 11.32487637045426 16.183991626309666 11.033644388424536 Q 15.43649319345172 10.742411037160727 15.378245975505326 10.587085807254049 ZM 11.39806151978306 10.315268879922746 L 11.747541404376221 10.490008479910806 L 11.864034128726408 11.32487637045426 L 11.553386065072697 12.276239381507548 L 11.067997716813883 12.276239381507548 L 11.39806151978306 11.32487637045426 L 11.39806151978306 10.315268879922746 ZM 12.232929752635034 10.606502231186555 L 12.562994240221252 10.703579558529796 L 12.679486964571439 11.32487637045426 L 12.368838216300684 12.276239381507548 L 11.883450552658914 12.276239381507548 L 12.21351435562809 11.32487637045426 L 12.232929752635034 10.606502231186555 ZM 13.37844604914072 10.72299461322822 L 13.494939115799427 11.32487637045426 L 13.184290367528675 12.276239381507548 L 12.698902703886905 12.276239381507548 L 13.028966164547558 11.32487637045426 L 13.028966164547558 10.742411037160727 L 13.37844604914072 10.72299461322822 ZM 12.635970993829574 8.307902566008263 Q 12.94616549869286 8.307902566008263 13.300783776495901 8.383422671928184 Q 14.349222745658347 8.606700935587865 14.621040357606692 9.441570195365404 L 15.43649319345172 9.441570195365404 L 15.747140914796912 8.936765765482605 Q 19.863233149567787 9.888126722684765 20.387455372617175 12.373316708850789 Q 19.261352076958786 11.752018527692242 18.018759137726903 11.538448133690293 L 17.475123229213175 10.451177001279875 L 15.319998757558931 10.159943650016068 L 15.378245975505326 9.635724850051886 L 14.640456096922156 9.635724850051886 Q 13.825002918768604 10.30727392210448 12.976631641685719 10.30727392210448 Q 12.794837747695311 10.30727392210448 12.611532561584353 10.276437401291815 Q 11.572801804388162 10.101698485920798 11.252445186459676 9.567771131681843 Q 10.93208856853119 9.033843092825846 11.592216516778063 8.596994435164216 Q 12.029066885982298 8.307902566008263 12.635970993829574 8.307902566008263 ZM 14.014203342229544 0.0 Q 13.306659502260182 0.0 12.902764885922597 0.4910087625106481 Q 12.407668668006053 1.0928900062739073 11.980527880002157 3.655740467965014 L 11.300984192439817 8.101897190322108 Q 10.97091987600786 8.451378444149354 10.7961802760198 8.4902085535462 L 10.563193800393865 8.4902085535462 Q 10.543778232232661 8.004819862978866 10.194298176485239 7.597094129673393 Q 9.883650198408658 4.626517849099683 10.466115788433582 2.3937311048006213 L 10.233129483961907 1.9471738928642175 Q 9.398261764572714 4.471192276884482 9.825403408347913 7.616509184371816 L 9.767156618287169 7.616509184371816 Q 8.427485014569381 4.607101425167175 9.378846196411509 1.9471738928642175 L 9.145859806362706 1.5976940082710553 L 9.145859806362706 1.5976940082710553 Q 7.90326545510817 4.4323618251791155 9.41767741831105 7.752417990345988 Q 8.99053577453585 8.684363892849726 9.330307190431368 9.286245650075767 Q 9.670079376521057 9.888126722684765 9.747741050125965 10.412346207265987 L 9.883650198408658 10.509424219226272 Q 10.407869083949969 9.732803546629212 10.485531356594787 9.16975258341706 L 10.679686695898312 9.16975258341706 Q 10.699102264059515 9.616309110736422 10.93208856853119 10.101698485920798 L 11.067997716813883 11.32487637045426 L 10.737933400381925 12.276239381507548 L 9.048781837190987 12.276239381507548 L 9.048781837190987 12.742211648142375 L 13.922081273037408 12.742211648142375 L 13.922081273037408 12.276239381507548 L 13.51435451280637 12.276239381507548 L 13.825003261077125 11.32487637045426 L 13.84441900039259 10.606502231186555 Q 14.19389820036871 10.490008479910806 14.368638484973811 10.33468393462117 Q 14.621040357606692 10.567671437172667 14.931688078951879 10.567671437172667 Q 14.912273708870499 10.76182609185915 15.009351720830782 10.89773421321628 Q 15.785971708810798 11.499616655059363 17.78577231979245 11.946173182378724 L 18.465315665046262 13.266429763489512 Q 18.465315665046262 12.942390932799807 18.666445882775246 12.942390932799807 Q 18.73044046079052 12.942390932799807 18.81479623425647 12.97519504299162 L 18.27116032574274 12.00442040032512 L 18.27116032574274 12.00442040032512 Q 19.39726088293296 12.256823642192083 19.97972758546058 12.645134320799134 Q 20.290376676039852 12.97519504299162 19.94089679144669 13.44116867886053 Q 20.71751746404375 13.11110658743396 20.814596160621075 12.509224145590878 Q 20.503945700807716 9.577479001339576 15.552985575493386 8.431961335599805 L 15.203506375517266 9.014428722744466 L 14.892857284937993 9.014428722744466 Q 14.640456096922156 8.198975202282393 12.893057700881908 7.88832679632016 Q 13.283009064230479 7.599008318923254 13.852256838599681 7.599008318923254 Q 14.161630487629424 7.599008318923254 14.523962345646407 7.684463587358902 Q 14.891470935427632 7.771140212597752 15.241644337084495 7.771140212597752 Q 15.87195550160299 7.771140212597752 16.446100683983236 7.490308248055377 Q 17.339214423239 7.053458905776705 20.989335075992095 2.665548716748965 Q 20.31660024722249 1.8173165880798985 19.56675152405883 1.8173165880798985 Q 19.321111613951302 1.8173165880798985 19.067196737655266 1.9083427565418083 L 14.349222745658347 5.286645797346556 L 14.349222745658347 0.025035944973045218 Q 14.173971736739798 0.0 14.014203342229544 0.0 Z"
     style="fill:#ffffff;stroke:none"
     id="path6" />
  <path
     d="M 14.787816725437374 15.285542133461169 C 15.549371373096287 15.285542133461169 16.502609207919512 15.676756272943992 16.963869255453197 16.13801632047768 C 17.367423959429352 16.541570682145313 17.42018123331472 17.07660848522664 17.434973411436005 17.573762319663377 L 12.163093570676018 17.573762319663377 C 12.177885919951562 17.07660848522664 12.230643193836931 16.541570682145313 12.634197726658826 16.13801632047768 C 13.095457945346773 15.676756272943992 14.02626242008698 15.285542133461169 14.787816725437374 15.285542133461169 ZM 14.787816725437374 14.859305039952915 C 13.884368520776045 14.859305039952915 12.912275476840618 15.276666758126694 12.34256182057423 15.846380414393082 C 11.758218113396996 16.430724336850286 11.69198941469321 17.200007968606588 11.69198941469321 17.775664100798863 L 11.69198941469321 17.99999941317163 L 17.883644036181536 17.99999941317163 L 17.883644036181536 17.775664100798863 C 17.883644036181536 17.200007968606588 17.839849083994995 16.430724336850286 17.25550516153779 15.846380414393082 C 16.685791847579925 15.276666758126694 15.691265101252963 14.859305039952915 14.787816725437374 14.859305039952915 Z"
     style="fill:#ffffff;stroke:none"
     id="path8" />
  <path
     d="M 33.655542253811426 8.203407192002246 C 33.14464679780286 8.243740548330095 32.86231004489047 8.499188095300077 32.808531814039966 8.969749289809286 C 32.875754738378824 9.48064510788646 33.15809149129121 9.749537529379097 33.655542253811426 9.776426916355803 C 34.15299301633164 9.749537529379097 34.4151629100458 9.48064510788646 34.4420515728853 8.969749289809286 C 34.40171821655745 8.499188095300077 34.13954832284329 8.243740548330095 33.655542253811426 8.203407192002246 ZM 33.7160424693375 6.509385226253514 C 34.079047383180004 6.509385226253514 34.415163272114405 6.576608422143824 34.7243894120035 6.711054813924445 C 35.03361518982398 6.845501205705066 35.30586833210295 7.030364654964103 35.54114883884041 7.2656453427358585 C 35.776429707646464 7.500926030507614 35.96129324742265 7.769818270965949 36.09573945816897 8.07232170204226 C 36.230185306846685 8.374825314152872 36.29740805015124 8.694134883641077 36.29740805015124 9.030250591541176 C 36.29740805015124 9.37981044982672 36.230185306846685 9.705842366059102 36.09573945816897 10.008346340238319 C 35.96129324742265 10.310849952348931 35.776429707646464 10.576381290986632 35.54114883884041 10.80493963201421 C 35.30586833210295 11.03349797304179 35.03361518982398 11.2116389850395 34.7243894120035 11.339363392144548 C 34.415163272114405 11.467087075112389 34.079047383180004 11.530948735562006 33.7160424693375 11.530948735562006 C 33.35303809859791 11.530948735562006 33.01356185094578 11.467087075112389 32.69761354534681 11.339363392144548 C 32.38166469664494 11.2116389850395 32.109411192297365 11.03349797304179 31.880853122821236 10.80493963201421 C 31.652294419725052 10.576381290986632 31.470792234355255 10.310849952348931 31.33634647619469 10.008346340238319 C 31.201900129672648 9.705842366059102 31.134676933782337 9.37981044982672 31.134676933782337 9.030250591541176 C 31.134676933782337 8.694134883641077 31.201900129672648 8.374825314152872 31.33634647619469 8.07232170204226 C 31.470792234355255 7.769818270965949 31.652294419725052 7.500926030507614 31.880853122821236 7.2656453427358585 C 32.109411192297365 7.030364654964103 32.38166469664494 6.845501205705066 32.69761354534681 6.711054813924445 C 33.01356185094578 6.576608422143824 33.35303809859791 6.509385226253514 33.7160424693375 6.509385226253514 ZM 33.67570947507826 5.823710203170776 C 33.23203676237424 5.823710203170776 32.815253617681236 5.907739107516513 32.42535967893063 6.075796916207987 C 32.03546592121433 6.243854747528749 31.699350575382834 6.472413088556328 31.417013731953297 6.761471961920012 C 31.134676933782337 7.050531423645179 30.909479630351118 7.386646678959522 30.741421821659646 7.769817908897345 C 30.573364612644298 8.152989681938074 30.489336013793945 8.566411562741841 30.489336013793945 9.010083370274344 C 30.489336013793945 9.45375535884115 30.573364612644298 9.867177239644917 30.741421821659646 10.250349012685646 C 30.909479630351118 10.633520785726375 31.134676933782337 10.966275229737235 31.417013731953297 11.24861198264962 C 31.699350575382834 11.530948735562006 32.03546592121433 11.756146355803253 32.42535967893063 11.924204119236151 C 32.815253617681236 12.09226115853184 33.23203676237424 12.17629004024829 33.67570947507826 12.17629004024829 C 34.11938146364506 12.17629004024829 34.532802982380225 12.09226115853184 34.915974031283746 11.924204119236151 C 35.299145804324475 11.756146355803253 35.63526133119027 11.530948735562006 35.92432097394974 11.24861198264962 C 36.213379892572 10.966275229737235 36.44193823359958 10.633520785726375 36.60999563496387 10.250349012685646 C 36.77805412253398 9.867177239644917 36.86208300425043 9.45375535884115 36.86208300425043 9.010083370274344 C 36.86208300425043 8.566411562741841 36.77805412253398 8.152989681938074 36.60999563496387 7.769817908897345 C 36.44193823359958 7.386646678959522 36.213379892572 7.050531423645179 35.92432097394974 6.761471961920012 C 35.63526133119027 6.472413088556328 35.299145804324475 6.243854747528749 34.915974031283746 6.075796916207987 C 34.532802982380225 5.907739107516513 34.11938146364506 5.823710203170776 33.67570947507826 5.823710203170776 Z"
     style="fill:#ffffff;stroke:none"
     id="path10" />
  <path
     d="M 39.67095817746263 2.25 C 38.973587774306694 2.25 38.362082958221436 2.7629982188611715 38.362082958221436 3.42148077115561 L 38.362082958221436 15.749999288300122 L 39.21406897360733 15.749999288300122 L 39.21406897360733 3.42148077115561 C 39.21406897360733 3.098508113273651 39.49796229086442 2.994011903683932 39.676341605581825 2.994011903683932 C 39.86351276334707 2.994011903683932 40.151721714716096 3.1252137636833535 40.151721714716096 3.5209571603146776 L 40.151721714716096 11.62395272807413 L 41.003707730102 11.62395272807413 L 41.003707730102 3.5209571603146776 C 41.003707730102 2.861641676122041 40.350757009064765 2.25 39.67095817746263 2.25 Z"
     style="fill:#ffffff;stroke:none"
     id="path12" />
  <path
     d="M 47.783229892329445 2.6507558058653666 Q 48.50923678952169 3.0805518599234576 48.50923678952169 3.940144106514466 L 47.06303090630093 3.940144106514466 Q 47.06303090630093 3.0805518599234576 47.783229892329445 2.6507558058653666 ZM 48.50923678952169 4.340899808523713 Q 48.34661139964243 4.915897415113784 47.783229892329445 4.915897415113784 Q 47.21984838501646 4.915897415113784 47.074647005578015 4.340899808523713 ZM 52.67942058424167 5.345693365315755 L 52.67942058424167 6.031044053513005 L 42.89284735391188 6.031044053513005 L 42.89284735391188 5.345693365315755 ZM 47.783229892329445 2.25 Q 46.67389116509395 2.668179989399708 46.67389116509395 4.044689000008273 Q 46.67389116509395 4.567414021376615 46.90040551642167 4.915897415113784 L 42.50370764732361 4.915897415113784 L 42.50370764732361 6.431799617047426 L 53.06275213733529 6.431799617047426 L 53.06275213733529 4.915897415113784 L 48.68347855562768 4.915897415113784 Q 48.909992353056104 4.567414021376615 48.909992353056104 4.044689000008273 Q 48.909992353056104 2.668179989399708 47.783229892329445 2.25 Z"
     style="fill:#ffffff;stroke:none"
     id="path14" />
  <path
     d="M 47.85408359295223 7.927647083735412 C 48.37406582681952 7.934115918627973 48.900033718137536 7.931898548929761 49.41162504221159 8.035296926251924 C 49.41198733666908 8.035295862765258 49.412349276631005 8.035295331021924 49.412710153106275 8.035295331021924 C 49.665735964122206 8.035295331021924 49.57161881218033 8.306288040265585 49.51578221726981 8.458174142389753 C 49.46861303868563 8.681136603345484 49.213963992522125 8.62299649631682 49.04602420468201 8.643562201460233 C 48.66314135433748 8.655494876346165 48.27991889725101 8.662246244196275 47.896708493013406 8.662246244196275 C 47.422455831280345 8.662246244196275 46.94822089432505 8.651905963344614 46.47466889305698 8.628248347968139 C 46.45915669930171 8.631027238625899 46.44444850146579 8.632349507047055 46.430498215127045 8.632349507047055 C 46.250791301825316 8.632349507047055 46.19684469996771 8.412955043855112 46.16961412388968 8.2622263697189 C 46.07450704310972 8.01709340224105 46.39917162015565 8.02501992285688 46.55984619883828 7.992358652119887 C 46.988805672465645 7.938387590068972 47.422200948976105 7.929110264139788 47.85408359295223 7.927647083735412 ZM 44.66800232462409 10.003845307980914 C 44.926763253357066 10.076688118164386 45.18552427071393 10.149530573852303 45.444285199446895 10.222373384035777 C 45.32936633694569 10.463311605608121 45.319940831874405 10.741170893757355 45.39110519422756 10.996297090938256 C 45.06353401950009 10.867203635035708 44.73372402809331 10.742936636118152 44.40755000897305 10.610831031482476 C 44.28564649839039 10.406207689087509 44.41907689722805 10.112392555995589 44.62505594140623 10.01459644918113 L 44.66800232462409 10.003845307980914 ZM 50.89859351632788 10.003845307980914 C 51.133245468218625 10.068639296581988 51.27124491595621 10.376330094698273 51.172173334133895 10.597173381224604 C 51.05259489343034 10.667862630909813 50.91086969740686 10.703194848407984 50.78246431737709 10.75976028618014 C 50.573060956914865 10.841388559709861 50.36365830544376 10.923017187735136 50.15425494498153 11.004645461264857 C 50.2243224094628 10.748631252718004 50.221221282345304 10.469612055111929 50.10506797769676 10.227092428867525 C 50.36957625424343 10.152676721905321 50.63408523978121 10.078261014943116 50.89859351632788 10.003845307980914 ZM 47.94926635853324 8.997176835275035 C 48.57189348941996 8.997176835275035 49.15622233849758 9.358807322585594 49.50031025876007 9.867754464312895 C 49.65677998841387 10.107097101390972 49.825679041226536 10.361659650638995 49.85423259471684 10.652713972346476 C 49.81934349666276 10.991867314479608 49.67484011897264 11.310951954237813 49.65223641888198 11.653198270090673 C 49.56960315045307 12.29417019146705 49.624641066877565 12.958292799575865 49.42519796803175 13.5804800014785 C 49.18959384107956 14.147260966074713 48.91640574086211 14.730078600600214 48.445040799922275 15.140454708229235 C 48.26122989157719 15.305677287638204 48.0156066567464 15.40123510951669 47.77066547136395 15.40123510951669 C 47.63717414360273 15.40123510951669 47.503885587299116 15.37285348637069 47.38091568761829 15.311897266650963 C 46.89150213722524 15.070668004227743 46.59989214373487 14.574993176089738 46.35774367433684 14.107801356826538 C 46.18644202789833 13.774049463469051 46.03734545129858 13.422301957743853 46.005096636140145 13.044425293630841 C 45.919996787637665 12.356482711181236 45.96621715886817 11.64748663770417 45.75462691532549 10.979124262754329 C 45.6953869858366 10.785108490859695 45.66016625719056 10.571774483680644 45.759541996199296 10.383355487612608 C 46.01131785588735 9.785910657485571 46.48676800360611 9.24333394041206 47.12872187767058 9.06544594380442 C 47.38369174231161 8.9860343309818 47.658085836408084 9.021494875870978 47.92142073266681 8.997418246748174 C 47.930710643188206 8.997256951270526 47.939992754807385 8.997176835275035 47.94926635853324 8.997176835275035 ZM 47.85408359295223 7.579163773083138 C 47.268150296991465 7.587640116305191 46.671959849386745 7.582911322845671 46.10063372002865 7.728682731136993 C 45.88969255784766 7.781363606614504 45.767293573258605 7.996972411771722 45.81211049658579 8.206841756641346 C 45.84097671515584 8.477175104152206 45.92467081153389 8.799494870347804 46.187347232298706 8.93135232809479 C 46.27724393740732 8.986703264094594 46.586237506689216 8.958594248030597 46.36619289864891 9.060802406525942 C 46.05440519540038 9.281397900659139 45.800056938715514 9.577213452169445 45.60908876510953 9.906741885481452 C 45.304212129958756 9.824632915978786 45.00250016525376 9.728415732367498 44.69553205063883 9.655622197066208 C 44.687058454757334 9.65516631578213 44.67863453256552 9.654941920095645 44.67026196791727 9.654941920095645 C 44.39790806220929 9.654941920095645 44.179919938275034 9.89239686834191 44.07592553483612 10.125930741251338 C 43.969400991378365 10.386377916716835 43.97816854162109 10.75719054789999 44.24399055653961 10.918746934276358 C 44.660602407155615 11.091429163654864 45.084395373936594 11.247941787270856 45.503817765016656 11.414295207501132 C 45.64742852289861 12.18056996380756 45.527727072237376 12.989598302061726 45.80610020169397 13.73178366740536 C 46.067542268935334 14.353876573490297 46.377755834670694 14.994528030884705 46.91328482560989 15.428110126552792 C 47.15831303965116 15.631219772926757 47.47673902666767 15.750001307622068 47.79394803044295 15.750001307622068 C 47.95868459644564 15.750001307622068 48.123092899564156 15.71796554429235 48.27672205633358 15.649067206152363 C 48.82006058435537 15.408937588941587 49.16879594134744 14.890723224408427 49.44021156378854 14.384432672372316 C 49.659269965194085 13.965808162163281 49.85670839167484 13.525201382571975 49.901332292172185 13.049217364546976 C 49.976043648427485 12.50948511980895 49.939232120977174 11.958601153893248 50.04172387591674 11.422462785094545 C 50.46815650522614 11.253369114222034 50.89898700639422 11.094179340172646 51.32260494099479 10.918746934276358 C 51.59710786522673 10.750464349234303 51.59835214462573 10.362880533331342 51.4786545934156 10.09828044243586 C 51.37200744157717 9.880631515358065 51.160344526445655 9.655503441055192 50.90393930930134 9.655503441055192 C 50.882251980221056 9.655503441055192 50.860244896149915 9.657113914362782 50.83795421563456 9.660475950208959 C 50.5382367315474 9.741254497892697 50.240092498734526 9.82812257022486 49.94099006443576 9.911279428588903 C 49.73524226213948 9.554549487834391 49.454970277241074 9.236664461035216 49.108805013024714 9.01084937434623 C 49.33336943939471 8.982284831493713 49.61105679719964 8.984875485011623 49.74494586897387 8.766224753494637 C 49.89448414703549 8.531016952573225 49.96779382786525 8.231276071779417 49.90911169713258 7.956408903364437 C 49.797207021713945 7.705840632785415 49.487904686803404 7.692715257603779 49.25372208702783 7.651721568840174 C 48.79010535543953 7.591064543369096 48.321116598206665 7.580916399108391 47.85408359295223 7.579163773083138 Z"
     style="fill:#ffffff;stroke:none"
     id="path16" />
  <path
     d="M 30.489336013793945 0.375 C 20.86433607339859 0.375 20.86433607339859 17.625 30.489336013793945 17.625 "
     style="fill:none;stroke:#ffffff;stroke-width:1"
     id="path18" />
  <path
     d="M 30.489336013793945 0.375 L 53.06275272369385 0.375 "
     style="fill:none;stroke:#ffffff;stroke-width:1"
     id="path20" />
  <path
     d="M 30.489336013793945 17.625 L 53.06275272369385 17.625 "
     style="fill:none;stroke:#ffffff;stroke-width:1"
     id="path22" />
  <path
     d="M 60.75025272369385 0.375 L 60.75025272369385 17.625 "
     style="fill:none;stroke:#ffffff;stroke-width:1"
     id="path24" />
  <path
     d="M 53.06275272369385 0.375 C 62.68775177001953 0.375 62.68775177001953 17.625 53.06275272369385 17.625 "
     style="fill:none;stroke:#ffffff;stroke-width:1"
     id="path26" />
</svg>
