<?xml version="1.0" encoding="UTF-8" standalone="no"?>
<svg
   width="86.09858703613281"
   height="18.0"
   version="1.1"
   id="svg18"
   sodipodi:docname="seherutawi.svg"
   inkscape:version="1.1.1 (3bf5ae0d25, 2021-09-20)"
   xmlns:inkscape="http://www.inkscape.org/namespaces/inkscape"
   xmlns:sodipodi="http://sodipodi.sourceforge.net/DTD/sodipodi-0.dtd"
   xmlns="http://www.w3.org/2000/svg"
   xmlns:svg="http://www.w3.org/2000/svg">
  <defs
     id="defs22" />
  <sodipodi:namedview
     id="namedview20"
     pagecolor="#ffffff"
     bordercolor="#666666"
     borderopacity="1.0"
     inkscape:pageshadow="2"
     inkscape:pageopacity="0.0"
     inkscape:pagecheckerboard="0"
     showgrid="false"
     inkscape:zoom="15.970065"
     inkscape:cx="43.049294"
     inkscape:cy="8.9855616"
     inkscape:window-width="1920"
     inkscape:window-height="1001"
     inkscape:window-x="-9"
     inkscape:window-y="-9"
     inkscape:window-maximized="1"
     inkscape:current-layer="svg18" />
  <path
     d="M 5.454143572319105 0.38638405261740716 C 5.6751986350969625 0.38638405261740716 6.0198472107908465 0.43846304248784007 6.211377729173311 0.48978353459751095 C 7.043040107707465 0.7126268987793605 6.2060781548689725 1.4576656313354053 5.670499150679329 1.4576656313354053 C 5.645675310396461 1.4576656313354053 5.621499128101075 1.4560650867138016 5.598166364823283 1.4527377590493051 L 5.598166364823283 1.4527377590493051 C 5.2452836289156854 1.5270191599566676 5.657208135444718 1.6516913405425198 6.100369028149615 1.6516913405425198 C 6.371794440716527 1.6516913405425198 6.654937462107786 1.6049233596160355 6.781255773411818 1.4711656717820771 C 6.852830518892686 1.3953753558318478 6.912108910323108 1.3639720239176871 6.9629476229505665 1.3639720239176871 C 7.148321731367289 1.3639720239176871 7.221486349139459 1.7814996563172263 7.369436559194839 1.9870992028133305 C 8.109766964545285 2.2320299455576382 8.572153297980249 2.899799787031018 9.050509706479392 3.4727819547688448 C 10.427930052921685 5.122675736613722 11.668260962471539 6.8783423742360466 12.967744634877972 8.588242400437956 C 12.611392476850998 8.48312787497829 12.224502817821092 8.278009345655091 11.870752268998066 8.107222788142833 C 10.250106465731893 7.324793393911243 8.524267466685542 6.706575791878325 7.056547618785348 5.653163124478057 C 6.324634327882369 5.1278539512763395 5.345499249842926 4.51876911966858 5.264370024428102 3.5973664697843573 C 5.202570523656583 2.8954927394447814 6.490844590161053 2.259560441267 6.397605624014208 1.8800112110189322 C 6.386753388715507 1.8358343194279554 6.355336487695676 1.8161086513304385 6.30878866169714 1.8161086513304385 C 6.033909073196996 1.8161086513304385 5.231366300354198 2.503995530499702 5.02003007139695 2.906660570796704 C 4.938768814010101 3.0614904698885916 4.879530977434828 3.123278383558639 4.83783143863071 3.123278383558639 C 4.6918117006651325 3.123278383558639 4.760840637983347 2.365644014318102 4.852316840087996 2.1923293342191177 C 5.162809689882786 1.604057223781083 4.223751651517808 0.8679923201596249 4.752486337822802 0.5290855725147102 L 4.752486337822802 0.5290855725147102 C 4.736400696667635 0.6173537864769199 4.7540868824444065 0.8663049485079197 5.0637960782712925 0.8663049485079197 C 5.3886697406864075 0.8663049485079197 5.369079611183729 0.4656883095505593 5.2689176568317215 0.41293273205443365 C 5.301349953848873 0.39420801419286505 5.36846244556854 0.38638405261740716 5.454143572319105 0.38638405261740716 ZM 6.069788227978029 5.863214709790646 C 6.323975692640863 6.762449405018629 6.696283899240764 7.629413412802606 7.135400893532303 8.452206779931927 C 7.351771108231227 8.857629702840873 8.265934259085897 9.502025616333867 7.620163139602537 9.830196723888633 C 7.602866036496212 9.834973658931888 7.585570762932224 9.837214848295345 7.568255974249969 9.837214848295345 C 7.310987560290759 9.837214848295345 7.049406915042022 9.342463910909716 6.712954689020212 9.320119100494184 C 6.67903192484543 8.693869197752123 6.575001708144468 8.06546836306859 6.448145511393205 7.446592735641611 C 6.344633665021206 6.9416012399454585 6.088178787554743 6.271072143703381 6.069788227978029 5.863214709790646 ZM 6.774795659418047 6.459697958701316 L 6.774795659418047 6.459697958701316 C 7.569842797304042 7.0356641099916315 8.405933278142431 7.553192239631892 9.246634815518807 8.060175497086155 C 9.468879080816052 8.556551677914943 9.280516719914718 9.282423820019444 9.395827284821362 9.864688475730382 C 8.857778398476073 9.501763991779603 8.28369911518318 9.486578790378216 7.938584616040677 8.798798329588251 C 7.554208138335073 8.032772611954833 6.9204552824668575 7.305266688542932 6.774795659418047 6.459697958701316 ZM 7.000934410504418 10.059063322600238 C 7.135474685073249 10.295082212156643 7.336466376730457 10.443322709596242 7.539293099352194 10.443322709596242 C 7.698827361641281 10.443322709596242 7.8594965500270755 10.351611411301223 7.9898569302021265 10.138767334534139 C 8.175012103385795 10.34420664361385 8.218963808807393 11.064965824732438 8.219863943637453 11.464443954739346 C 8.22078908221279 11.875067656666406 8.005229354769385 11.909575264541749 7.754371047313386 11.909575264541749 C 7.7036902851744005 11.909575264541749 7.6515684535208965 11.908167736636754 7.599499678595182 11.908167736636754 C 7.503209645676805 11.908167736636754 7.407101347297289 11.912984311763987 7.320625589324795 11.940433545301191 C 7.276695228563797 11.95437831699774 7.230527337524019 11.959987693804566 7.182692123567317 11.959987693804566 C 6.98565285320659 11.959987693804566 6.760333737087427 11.864796605983589 6.546653559472097 11.864796605983589 C 6.526873767413762 11.864796605983589 6.507193990336545 11.865612581866122 6.487645330460182 11.867394556102862 C 6.488004530605782 11.347772820181039 6.847494963589043 10.641789022980232 7.000934410504418 10.059063322600238 ZM 8.603951963501176 7.092214653796816 C 10.294832067562263 7.858253788074042 11.963344187004877 8.682241846349761 13.658331003766241 9.443264375537517 C 14.306199998463287 10.121921518537734 14.89692628748524 10.890737288235863 15.617332976780133 11.491755362753791 C 16.156479588527933 11.941553225211752 15.463364792129216 11.850415183515821 15.144459706666524 11.910077778837119 C 14.899576684484854 11.955893178053204 14.652335992077571 11.9891323032412 14.405890540739662 12.026157361372965 C 13.536195636093217 11.155342776815962 12.661034058942274 10.288166542120832 11.825686982140361 9.38497027788468 C 10.917455817391367 8.402968916849794 9.68127857879512 7.847318613522707 8.603951963501176 7.092214653796816 ZM 8.091606927303099 12.784580720746556 C 9.197498187112684 12.784580720746556 10.303223568417005 12.797552175919549 11.407920746927639 12.826530906850914 C 11.963618618355504 12.841107480501353 12.604689033726338 12.804320262873466 13.102683139828937 12.991104338584968 C 12.444715071428801 13.03259835879984 10.798614845620763 13.0486666193028 9.061392434150386 13.0486666193028 C 7.040896493935342 13.0486666193028 4.8971381879673626 13.026930436638214 4.041370674365262 12.998177349261805 C 4.035477718496122 12.998220038583016 4.0297003287179685 12.998241993091064 4.024036980412186 12.998241993091064 C 3.5148780921948943 12.998241993091064 3.9273603042131473 12.826321119329545 4.211845294908974 12.826321119329545 C 4.238601131900259 12.826321119329545 4.264224787108344 12.827842078859469 4.287843263914512 12.831169406523964 C 5.555116623774078 12.801636934111775 6.823471243155116 12.784580720746556 8.091606927303099 12.784580720746556 ZM 3.229631402039215 13.527964022410872 C 3.9800867996092 13.538300936617839 4.730666606058136 13.547631602539173 5.48073658004235 13.573154937842418 C 5.974628852224238 13.589961113754843 6.468692491538405 13.596169360753482 6.962812846665035 13.596169360753482 C 8.360743582405776 13.596169360753482 9.759126824951332 13.546476551476754 11.155349987843726 13.546476551476754 C 11.342591449139606 13.546476551476754 11.529792660504063 13.547370587832354 11.716949962852416 13.549397720742322 C 10.555885804617795 14.183214610592351 9.295635447944509 14.718425266924708 7.950956591174409 14.762796547389044 C 7.799163122515353 14.767805834309163 7.651256821476073 14.770698950592223 7.506199727703753 14.770698950592223 C 6.745573599355791 14.770698950592223 6.06331774657768 14.691151669451905 5.310047598121426 14.420004957167741 C 4.653584023370175 14.183703708243913 3.8042879059395918 13.89691074988931 3.229631402039215 13.527964022410872 ZM 9.878584352489678 15.08641697330296 C 9.849530000475026 15.08641697330296 9.823518177367665 15.092904530431793 9.801197760849965 15.106699279656667 C 9.544953890599764 15.265069343171648 10.169278504955312 16.43707782366929 10.695870187335629 16.718978585813375 C 10.73537854426685 16.740128095235065 10.774061167756402 16.749551457968167 10.810766665826547 16.749551457968167 C 11.003336974104167 16.749551457968167 11.141447905468382 16.490179680168257 11.058481819546692 16.304211580339288 C 10.844383896430964 15.824310428259835 10.18845698743205 15.08641697330296 9.878584352489678 15.08641697330296 ZM 5.031377807745396 15.140798289743296 C 4.989399568658528 15.140798289743296 4.926357808639836 15.166799745444079 4.836820006641786 15.226750188759814 C 4.404607095284589 15.5161398775388 3.394055116225315 16.294390597071498 4.0142925329988515 16.722726708215504 C 4.056939164886357 16.752178680764843 4.100021532773916 16.765133060209347 4.142866670005041 16.765133060209347 C 4.367006341163952 16.765133060209347 4.58465113702468 16.41059092940162 4.699421682018032 16.208593599306226 C 4.818436155386976 15.999129297083979 5.2725627150155 15.140798289743296 5.031377807745396 15.140798289743296 ZM 9.090395558979587 15.318185836009313 C 8.817462603526561 15.318185836009313 9.117006862126209 16.79410813205604 9.59252321107008 17.108873573056375 C 9.624085865629468 17.129766946550816 9.662353183008404 17.139328134806675 9.7019237443791 17.139328134806675 C 9.808466532556917 17.139328134806675 9.924459516755453 17.07001409380753 9.944487516724246 16.965927771141548 C 10.06708575860866 16.328790871796375 9.471438610546237 15.35620982425736 9.098430299078512 15.3185980928827 C 9.095698792368601 15.318322441837182 9.093020952233923 15.318185836009313 9.090395558979587 15.318185836009313 ZM 5.813290051342912 15.334595611081944 C 5.762056157570551 15.334595611081944 5.6837980939307355 15.397157421160761 5.569301065516842 15.551481756720047 C 5.266789289245744 15.95922088022829 4.5258087865180325 16.80730645047888 5.132767994853322 17.12234144405028 C 5.172965479398338 17.143205544867318 5.210868717852111 17.152645983328902 5.2466228539067465 17.152645983328902 C 5.501107314275703 17.152645983328902 5.646734005562437 16.67436092698092 5.736180330443612 16.43252348294377 C 5.81843167515878 16.21013773303909 6.004955346010909 15.334595611081944 5.813290051342912 15.334595611081944 ZM 8.084197280836158 15.497188258311914 C 8.061304827414261 15.497188258311914 8.040999346857612 15.508953435237036 8.024002288694641 15.534490187184089 C 7.779368084270872 15.902031826147313 7.859889291782196 17.025052481015617 8.44457443200567 17.350611002112412 C 8.477321410304873 17.36884544074299 8.5095817303423 17.37699910109386 8.54061320777636 17.37699910109386 C 8.712565793605062 17.37699910109386 8.846783458875045 17.126639648848553 8.816920449147212 16.95369179198824 C 8.746119600075112 16.543659642083643 8.300101572086461 15.497188258311914 8.084197280836158 15.497188258311914 ZM 6.75532262062497 15.485684096093609 C 6.738393255528486 15.485684096093609 6.719172693577984 15.49322303021907 6.697420045032361 15.509370570889988 C 6.3057388146205 15.800128757337436 5.679560264029602 16.97476811971643 6.318469380052385 17.354321313972893 C 6.352644621069744 17.374624355139762 6.386393578722462 17.383708642692973 6.419196662986684 17.383708642692973 C 6.610484462085705 17.383708642692973 6.7696040281116225 17.07479041900334 6.793552127462265 16.88013443246095 C 6.834695485395779 16.54571360828123 6.956077691473192 15.485684096093609 6.75532262062497 15.485684096093609 ZM 7.409580377164622 15.468416875512132 C 7.39733464045218 15.468416875512132 7.384780930779589 15.471718589583901 7.371922907231523 15.478607426332097 C 7.04806464081373 15.652117562537471 6.752394743037498 17.05085024766949 7.3581062034986005 17.423058439288273 C 7.389001684952238 17.442042990277237 7.419877041440165 17.450504013740805 7.449994967400358 17.450504013740805 C 7.6143226306137395 17.450504013740805 7.756113991313593 17.19863701860939 7.755634651221164 17.030030055868558 C 7.75432652844984 16.56993308974527 7.633263882434045 15.468416875512132 7.409580377164622 15.468416875512132 ZM 5.632034852575385 0.0 C 5.427092569164034 0.0 5.224417088708866 0.019432907972482025 5.033733343504948 0.05443384431604181 C 4.467006076095366 0.1584592489395021 3.5938344311601953 0.3646307561088724 3.603155949369841 1.0504667564332457 C 3.67258220229902 1.0309202310229437 3.7366997332121716 1.0218254998322194 3.7957738257482365 1.0218254998322194 C 4.346064179873848 1.0218254998322194 4.458737154577238 1.8110103266832265 4.348558760851052 2.292443415546627 C 4.124233391144884 3.272651977552607 4.609814357411156 4.257232688359666 5.247062553915197 4.998988307191039 C 5.671593826844609 6.267997902728908 6.207430796503842 7.594017867046124 6.200945678764793 8.927216345648308 C 6.198242225037389 9.48290994814405 6.608764082440994 9.519405658692827 6.457257851928928 10.084834255966495 C 6.320555668164599 10.595013723884398 6.084080612718707 11.65061086483566 5.574068852848409 11.775453955168208 C 5.5141812238195955 11.78026809090566 5.453413584926436 11.78228912534117 5.392016583469171 11.78228912534117 C 5.069385635036129 11.78228912534117 4.729385926421875 11.726455152284846 4.408483590574062 11.726455152284846 C 4.153773486650145 11.726455152284846 3.9110950629851815 11.761631152960828 3.698682758209751 11.887824445538461 C 3.254193922691541 12.151893268366223 2.920155472860361 12.347759192241154 2.3871648136927193 12.347759192241154 C 2.364082850177029 12.347759192241154 2.3406278124863467 12.34739206407876 2.31677439195167 12.346646830499944 C 2.290907712536418 12.345839392481654 2.2648745447684524 12.34543567347251 2.2387011120879436 12.34543567347251 C 1.3440312774539256 12.34543567347251 0.28566830681618954 12.817335627062558 0.12083169732265768 13.756412875622079 C -0.12329519978597013 15.147207786399061 0.07662177391650889 16.583104574880497 0.08494513861247754 17.989033459873415 C 0.2900051035231433 17.99360365663253 0.4966322048500206 17.999999736644487 0.702869308735284 17.999999736644487 C 0.8657836504929329 17.999999736644487 1.0284545868887616 17.996007675264025 1.1899174917253144 17.98397172607295 C 1.1137838316630781 17.140422201124508 1.057380489785133 16.29003262722354 1.1114740344619638 15.445312195179083 C 1.150002671471443 14.84365012175835 0.997819586525427 14.00504767929055 1.5763723295263372 13.66371240476991 C 1.7040717928333333 13.58837307100588 1.83171911418371 13.55691470035973 1.9589124041106598 13.55691470035973 C 2.4652981635298614 13.55691470035973 2.9644861984695505 14.055524752382627 3.4311076174921418 14.268706684634704 C 4.73678032670267 14.865220425917668 6.127831678330627 15.305327812461249 7.577851313962796 15.305327812461249 C 7.611054458151489 15.305327812461249 7.644288094712474 15.305097290126723 7.677552223645749 15.304632586372993 C 9.433900060865076 15.280083787288198 11.05346399476233 14.553760358073777 12.55629032072968 13.72891485428921 C 12.670762345398295 13.628126586610326 12.818380798443139 13.581008553249928 12.96633954636276 13.581008553249928 C 13.24669495507909 13.581008553249928 13.528272498076879 13.750179015030715 13.587881426822944 14.043930332742338 C 13.850096313415355 15.336104373662948 13.742097209536873 16.675576962787922 13.65541349358535 17.983352121067977 C 13.812261377875515 17.996239417293445 13.969778874661216 17.999448434553447 14.127512257442742 17.999448434553447 C 14.284036922586616 17.999448434553447 14.44077381464164 17.99628820508911 14.597282623751921 17.99628820508911 C 14.650358866658163 17.99628820508911 14.703408276276786 17.99665167416683 14.7564149965742 17.99762499069039 C 14.763825862736033 17.086932481649992 14.844901421575624 16.174760482705985 14.803086621604242 15.264876631378764 C 14.769945072007578 14.543717390335702 14.910211204245392 13.715322574416355 14.386286384745727 13.121748297822336 C 13.705550271802647 12.350515702696345 12.623079593303054 12.361563699025162 11.682409423214999 12.296510052282647 C 11.644045140092175 12.293857215893247 11.604677048073496 12.292852187302506 11.564630805695048 12.292852187302506 C 11.439513284011872 12.292852187302506 11.307763061507753 12.302662193316268 11.179225515348314 12.302662193316268 C 11.022081245199468 12.302662193316268 10.869737694144266 12.28799902132852 10.740179263360492 12.222823405096838 C 10.44570344688321 11.920581791244247 10.080689625582988 11.8638281682396 9.700766253926899 11.8638281682396 C 9.472275931089374 11.8638281682396 9.238393337135744 11.88435563326653 9.011219065086339 11.88435563326653 C 8.936831703185263 11.88435563326653 8.863163961270274 11.882155303681946 8.79064029316368 11.876311745455919 C 8.748275410796152 11.287905316117937 8.716179749569102 10.698756092590925 8.6841725162217 10.109697736333342 C 8.716601154154176 10.078576001477298 8.754075060006079 10.064937373198559 8.795398322936116 10.064937373198559 C 9.088549550761034 10.064937373198559 9.575443823501919 10.751298109134611 9.829342220475425 10.751298109134611 C 9.9047779101359 10.751298109134611 9.959645884838014 10.690709765390528 9.982754224255737 10.533531343784716 C 10.077034809840075 9.89225845906186 9.828121305888857 9.191179055020491 9.837226938102676 8.515557122758214 C 9.842454550408405 8.515291839119273 9.84775473456019 8.515160721918418 9.8531244413208 8.515160721918418 C 10.13787319103695 8.515160721918418 10.618515917610546 8.883683605421998 10.906077283746905 9.132975214789639 C 11.80432402611263 9.911679050974598 12.57521510666895 10.850011675802751 13.418602412196801 11.698699775329832 C 13.753165940678848 12.0785896053764 14.10034965220508 12.50165297550368 14.581990089200067 12.50165297550368 C 14.7115546184583 12.50165297550368 14.850847434172552 12.471038633722571 15.00224206260203 12.400734200471387 C 15.482807948397447 12.177569065530927 16.501952068121145 12.466298899373513 16.611020844419624 11.85703812677763 C 16.148715010847514 11.316222972418016 15.616514561507817 10.838956361304586 15.141690999262417 10.30954047540259 L 15.141690999262417 10.30954047540259 C 15.720475255599954 10.584491416053895 16.284632930796494 10.987831100087856 16.88805136486124 11.251485226652445 C 17.013493325385603 11.306294655999759 17.089085135992214 11.329256632030482 17.12721035891627 11.329256632030482 C 17.308927822047742 11.329256632030482 16.63947510654757 10.807612641978256 16.459826245952385 10.726662711712507 C 15.79457415965915 10.42689585879513 17.084456393878295 10.539115106998816 16.55768114741678 10.121722708270392 C 15.402974038957586 9.206783221617167 14.091566629290112 8.473895394495738 12.859382061921773 7.648877913731442 C 12.06805133437072 6.650734500652652 11.353425998862377 5.582082965275763 10.559610752816978 4.581358372882461 C 9.89897704123108 3.80707897991706 9.337823474552744 2.944969967649405 8.617586932695238 2.225430481422494 C 8.174952338336102 1.7832239999703352 7.524531741925666 1.6598222840760268 7.480633703079299 0.9374621771811809 C 7.138186066817449 0.2522410174286094 6.370398499913002 0.0 5.632034852575385 0.0 Z"
     style="fill:#ffffff;stroke:none"
     id="path2" />
  <path
     d="M 20.90324229162986 0.0 C 19.97341508742194 0.0 19.1580753326416 0.6839976251482283 19.1580753326416 1.5619743615408133 L 19.1580753326416 17.99999905106683 L 20.294056686489466 17.99999905106683 L 20.294056686489466 1.5619743615408133 C 20.294056686489466 1.1313441510315352 20.67258110949892 0.992015871578576 20.910420195788788 0.992015871578576 C 21.159981739475775 0.992015871578576 21.544260341301154 1.166951684911138 21.544260341301154 1.694609547086237 L 21.544260341301154 12.498603637432174 L 22.680241695149018 12.498603637432174 L 22.680241695149018 1.694609547086237 C 22.680241695149018 0.8155222348293883 21.80964073376604 0.0 20.90324229162986 0.0 Z"
     style="fill:#ffffff;stroke:none"
     id="path4" />
  <path
     d="M 28.122605800628662 0.0 L 28.122605800628662 10.205165270811676 L 28.974687493963323 10.205165270811676 L 28.974687493963323 0.8718977683999611 L 38.01071773246065 0.8718977683999611 L 38.01071773246065 9.293635835039254 L 34.52312762437708 9.313453056655135 L 34.5033104027612 3.5866701816862303 L 33.61159770584652 3.5866701816862303 L 33.61159770584652 10.205165270811676 L 38.882614656033866 10.205165270811676 L 38.882614656033866 0.0 Z"
     style="fill:#ffffff;stroke:none"
     id="path6" />
  <path
     d="M 33.5026098898054 14.09980308055384 Q 36.610253411286976 14.09980308055384 40.09331573078259 15.601483100191388 Q 36.610253411286976 17.061449437291458 33.5026098898054 17.061449437291458 Q 30.41582393372977 17.061449437291458 26.911904772965414 15.601483100191388 Q 30.41582393372977 14.09980308055384 33.5026098898054 14.09980308055384 ZM 33.5026098898054 13.140397071838379 Q 29.664983923910995 13.140397071838379 24.680241584777832 15.58062625892265 Q 29.664983923910995 17.99999981163353 33.5026098898054 17.99999981163353 Q 37.3402358556998 17.99999981163353 42.324978194832966 15.58062625892265 Q 37.36109293834761 13.140397071838379 33.5026098898054 13.140397071838379 Z"
     style="fill:#ffffff;stroke:none"
     id="path8" />
  <path
     d="M 53.58543237932027 7.919719162993133 C 53.88195741325529 7.919719162993133 54.06059429993089 7.970008812150336 54.15301877051592 8.022542784586548 C 54.42217195864505 8.194404064226255 54.2938228673354 8.605514407335285 54.25046392574907 8.862216297537088 L 52.92040083289147 8.862216297537088 C 52.88844270752146 8.599668785578833 52.743248215080456 8.198995287233702 53.01816236849874 8.022542784586548 C 53.11058683908377 7.970008812150336 53.28890734538523 7.919719162993133 53.58543237932027 7.919719162993133 ZM 46.19605236105621 9.471248517744243 L 46.19605236105621 10.39539559058845 L 44.93401104863733 10.39539559058845 L 44.93401104863733 9.471248517744243 ZM 52.751770093478264 9.471248517744243 L 52.751770093478264 10.39539559058845 L 46.499777520224455 10.39539559058845 L 46.499777520224455 9.471248517744243 ZM 54.271977791190146 9.471248517744243 L 54.271977791190146 10.39539559058845 L 53.05549525264651 10.39539559058845 L 53.05549525264651 9.471248517744243 ZM 60.37622072972357 9.471248517744243 L 60.37622072972357 10.39539559058845 L 54.57570295035839 10.39539559058845 L 54.57570295035839 9.471248517744243 ZM 62.00811069950461 9.471248517744243 L 62.00811069950461 10.39539559058845 L 60.67994588889182 10.39539559058845 L 60.67994588889182 9.471248517744243 ZM 50.91486564125866 6.995572090148926 L 50.484904712811115 7.426798540093005 L 51.9241190347448 8.862216297537088 L 44.324978828430176 8.862216297537088 L 44.324978828430176 11.004427810795605 L 62.61682653933764 11.004427810795605 L 62.61682653933764 8.862216297537088 L 55.247062104269865 8.862216297537088 L 56.68627642620355 7.426798540093005 L 56.25599911738187 6.995572090148926 L 54.925303263776 8.322787759639322 C 54.845479012349095 7.518317742615327 54.29432153718292 7.333694963978342 53.58543237932027 7.310686942785979 C 52.82819696346574 7.330922928122163 52.36332111259697 7.502151447013603 52.245561494864525 8.322787759639322 L 50.91486564125866 6.995572090148926 Z"
     style="fill:#ffffff;stroke:none"
     id="path10" />
  <path
     d="M 82.65838990448717 0.6432317828440601 Q 83.17297081472641 0.6432317828440601 83.53747291518644 1.1042141792608429 Q 83.90196931117994 1.5651955655116785 83.90196931117994 2.015459091065336 Q 83.90196931117994 2.5086033291658083 83.6232357663967 2.8945390118452456 Q 83.17297081472641 3.344801348968377 82.63694681482355 3.344801348968377 L 68.03558870157961 3.344801348968377 Q 67.52100149265857 3.344801348968377 67.04929915579119 2.8945390118452456 Q 66.77056608638016 2.5086033291658083 66.77056608638016 2.015459091065336 Q 66.7920060267029 1.5651955655116785 67.15650474013592 1.1042141792608429 Q 67.52100149265857 0.6432317828440601 68.01414775109095 0.6432317828440601 ZM 68.09991155304563 0.0 Q 67.11362295800163 0.0 66.59903770999095 0.6432317828440601 Q 66.10589341246896 1.2864635656881203 66.10589341246896 2.036899803867901 Q 66.12733433881763 2.7873333086574728 66.57759675950228 3.344801348968377 Q 67.11362295800163 3.9665941422341344 68.09991155304563 3.9665941422341344 L 82.5726270532769 3.9665941422341344 Q 83.55891030038353 3.9665941422341344 84.09493810326407 3.344801348968377 Q 84.56664234162031 2.7873333086574728 84.58808162830624 2.036899803867901 Q 84.56664234162031 1.2864635656881203 84.07350071806698 0.6432317828440601 Q 83.55891030038353 0.0 82.5726270532769 0.0 ZM 82.6798291911731 7.18274289537344 Q 83.19441580587886 7.18274289537344 83.55891030038353 7.654455215057237 Q 83.92341240084356 8.12615992878567 83.92341240084356 8.576420126733856 Q 83.92341240084356 9.048124365090079 83.64467505308264 9.434064801491619 Q 83.19441580587886 9.884324999439803 82.65838990448717 9.884324999439803 L 68.07847060255695 9.884324999439803 Q 67.54244244314725 9.884324999439803 67.09218200751296 9.434064801491619 Q 66.81344697719156 9.048124365090079 66.81344697719156 8.576420126733856 Q 66.81344697719156 8.12615992878567 67.17794569062458 7.654455215057237 Q 67.54244244314725 7.18274289537344 68.05702965206828 7.18274289537344 ZM 68.1213525035343 6.560953192027049 Q 67.13506378964725 6.560953192027049 66.6204786010581 7.18274289537344 Q 66.12733433881763 7.825982818966601 66.12733433881763 8.576420126733856 Q 66.14877526516631 9.32685790987332 66.59903770999095 9.884324999439803 Q 67.13506378964725 10.52755779244981 68.14279321633686 10.52755779244981 L 82.59406253698515 10.52755779244981 Q 83.60179647971077 10.52755779244981 84.13782047961362 9.884324999439803 Q 84.58808162830624 9.32685790987332 84.60952281648102 8.576420126733856 Q 84.58808162830624 7.825982818966601 84.11637738995002 7.18274289537344 Q 83.60179647971077 6.560953192027049 82.61550372515993 6.560953192027049 Z"
     style="fill:#ffffff;stroke:none"
     id="path12" />
  <path
     d="M 70.6753792767394 13.278147359465049 L 72.20303683797619 17.218810482419357 L 68.48805007608716 17.218810482419357 L 66.96039203947818 13.278147359465049 ZM 64.63418556054175 12.49695875820521 L 64.63418556054175 13.278147359465049 L 66.16184385526299 13.278147359465049 L 67.68950201071503 17.218810482419357 L 64.61682605743408 17.218810482419357 L 64.61682605743408 18.00000009384514 L 74.35564627850246 18.00000009384514 L 74.35564627850246 17.218810482419357 L 73.00158466566221 17.218810482419357 L 71.47392662905322 13.278147359465049 L 74.37300687162376 13.278147359465049 L 74.37300687162376 12.49695875820521 Z"
     style="fill:#ffffff;stroke:none"
     id="path14" />
  <path
     d="M 82.40096159083389 13.278147359465049 L 83.92861915207067 17.218810482419357 L 80.21363239018164 17.218810482419357 L 78.68597435357266 13.278147359465049 ZM 76.35976787463623 12.49695875820521 L 76.35976787463623 13.278147359465049 L 77.88742616935747 13.278147359465049 L 79.41508432480951 17.218810482419357 L 76.34240837152856 17.218810482419357 L 76.34240837152856 18.00000009384514 L 86.08122859259694 18.00000009384514 L 86.08122859259694 17.218810482419357 L 84.72716697975669 17.218810482419357 L 83.1995089431477 13.278147359465049 L 86.09858918571824 13.278147359465049 L 86.09858918571824 12.49695875820521 Z"
     style="fill:#ffffff;stroke:none"
     id="path16" />
</svg>
