<?xml version="1.0" encoding="UTF-8" standalone="no"?>
<svg
   width="68.3702392578125"
   height="18.0"
   version="1.1"
   id="svg54"
   sodipodi:docname="sekhemkhaw.svg"
   inkscape:version="1.1.1 (3bf5ae0d25, 2021-09-20)"
   xmlns:inkscape="http://www.inkscape.org/namespaces/inkscape"
   xmlns:sodipodi="http://sodipodi.sourceforge.net/DTD/sodipodi-0.dtd"
   xmlns="http://www.w3.org/2000/svg"
   xmlns:svg="http://www.w3.org/2000/svg">
  <defs
     id="defs58" />
  <sodipodi:namedview
     id="namedview56"
     pagecolor="#ffffff"
     bordercolor="#666666"
     borderopacity="1.0"
     inkscape:pageshadow="2"
     inkscape:pageopacity="0.0"
     inkscape:pagecheckerboard="0"
     showgrid="false"
     inkscape:zoom="20.111089"
     inkscape:cx="34.209982"
     inkscape:cy="8.9751478"
     inkscape:window-width="1920"
     inkscape:window-height="1001"
     inkscape:window-x="-9"
     inkscape:window-y="-9"
     inkscape:window-maximized="1"
     inkscape:current-layer="svg54" />
  <path
     d="M 3.009169848917976 0.4739171748132039 C 3.7026715218272255 0.4739171748132039 4.256829318471649 0.6745946316238001 4.644164689284773 0.9526347441559112 C 4.650308145491952 1.0062515645085024 4.663546055856558 1.060016372992199 4.652575800812965 1.1124437372646898 C 4.603449882852364 1.360569519526529 4.457806885291136 1.5903185537666114 4.257258755698066 1.7432685981716125 C 3.9413649209170813 1.94997010496389 3.5600411988456018 2.009570228366613 3.2002765010963685 2.0993341831784433 C 3.10998720613517 2.1086036967312767 3.181170796374544 2.130187995961788 3.231117085890341 2.138585643286511 C 3.4609996992016763 2.1784200797833564 3.9384250002790258 2.2376030490926513 4.202499603977515 2.2376030490926513 C 4.220906351189456 2.2376030490926513 4.23827706337661 2.2373153403237978 4.254454894379272 2.2367137030214415 C 4.532424083629077 2.2049171597812043 4.794657162235626 2.0893111466595644 5.019856122452685 1.9255069464391237 C 5.098959498900698 1.8590524805074944 5.166930105007111 1.7763742399315428 5.224523825878929 1.6899990125400517 C 5.3720929131784425 2.0357255065676374 5.451951702305268 2.4028945713681713 5.485264503827336 2.6067978859799568 C 5.503366062427325 2.716651377223197 5.580895308140001 2.8061828973646232 5.687128818362978 2.8395020766672823 C 6.825504545072815 3.188508875845171 7.72511459117944 4.749370284342509 8.566494083211595 5.78895938641794 C 10.295861887830181 7.925728476871466 11.765759846336513 10.315234366846607 13.458892408638075 12.548598959980612 C 12.522122105814729 12.092922126930452 11.58844053850988 11.632519122248745 10.649618007621019 11.174801399409672 C 8.72850955219054 10.164475916823728 6.728271736761494 9.358727903879377 5.045088984609069 8.085161653353607 C 5.042277564439204 8.082822188947427 5.039490238107126 8.07909189594436 5.036677873080877 8.076750541825415 C 4.066833817400553 7.2693821001829235 3.0743602151151883 6.41700117284651 2.698420284718348 5.284299308721125 C 2.5498687829938245 4.364048874911361 4.455242072637431 2.7072382455000326 4.240437005069874 2.637638234559833 C 4.2215063349931405 2.631504463130588 4.200107227613845 2.6285180083156328 4.1764933768710275 2.6285180083156328 C 3.7176359210190495 2.6285180083156328 2.422621666796125 3.756154733581801 2.15731260823226 4.830105427765268 C 2.154053326136495 4.815773846136464 2.1461630666898484 4.79928090552982 2.143294246494671 4.785246481233707 C 2.0704243238243896 4.4287242943794265 1.9886595231574336 3.528875672035904 2.2105824300779164 2.8058581029827074 C 2.22090238771539 2.7720589366371007 2.223991359447983 2.7373940456298778 2.2217969304967107 2.702122556824284 C 2.206042867582163 2.411103719844335 2.16184012380912 2.2384220033632714 2.098435772391302 2.068493834598567 C 2.035031184759387 1.8985666106902463 1.9592064599630061 1.724220765903293 1.8376947401217505 1.3030929608462967 C 1.806828171777225 1.1953371688820418 1.6962380468757994 0.9753151948986268 1.630223411590808 0.9582419943653084 C 1.8161052441811285 0.8204882523408192 2.0045522437462973 0.6772958579179091 2.2750667523423678 0.5825507383579678 L 2.2750667523423678 0.5825507383579678 C 2.1960743965194465 0.658865194028754 2.1432944827087668 0.7691834365057539 2.143294246494671 0.8965614153126038 C 2.143294246494671 1.1261525404295507 2.3068791219270324 1.3115031275181046 2.5077709430296933 1.3115039542674405 C 2.7086627641323537 1.3115039542674405 2.8722476395647156 1.1261525404295507 2.8722476395647156 0.8965614153126038 L 2.8722476395647156 0.8937576721008572 C 2.871221053103765 0.7095976631093593 2.7627272101967493 0.5576299150223198 2.6171139756116095 0.5040481134094518 C 2.669879244148341 0.49667510377938745 2.7125253370291467 0.4854209784459994 2.771315482296895 0.4816187582507192 C 2.852317311433968 0.47642689052903053 2.9316148558688426 0.4739171748132039 3.009169848917976 0.4739171748132039 ZM 3.6797034804227042 8.23655977114829 C 3.744950774217038 8.301805883872143 3.8149797499554623 8.36067988514395 3.8815675587442495 8.424405723946341 C 4.0956495749641375 9.204198532028927 4.293931466520769 10.064938131364233 4.57407335302502 10.7290191024102 C 5.057193067313169 11.874268186883667 5.789626838872777 12.870430272277117 6.413278350114227 13.883144351801198 C 6.260634439177563 13.965039778863208 6.128536902733854 14.058336787907995 6.029175805418124 14.152295196421411 C 5.947669659186221 14.229370911069886 5.8940429178416 14.280530159968329 5.830115352201277 14.345748871857053 C 5.520950312157207 13.938784109671408 5.124019924767046 13.62317373180555 4.644164689284773 13.448575610364134 C 4.689085996337662 12.725628196897432 4.536026821020337 11.737052363409154 4.30492109112023 10.66173115504105 C 4.1263418173058595 9.830810278320685 3.903548933870034 9.003086795602949 3.6797034804227042 8.23655977114829 ZM 4.686219774497539 9.144947533060002 C 5.834593499032087 10.09035760265641 7.113542596376112 10.88336044784028 8.36182590735716 11.685069199744076 C 8.343845290374292 12.594861963098435 8.344411259348162 13.463187814338914 8.445936077782692 14.359767706022835 C 8.033305011863666 14.014385848361224 7.586775333464642 13.763462228240035 7.018870348864767 13.625206117887009 C 7.015369655962953 13.624345353721408 7.011953527707485 13.623977804588126 7.008598342688769 13.623977804588126 C 6.989090837789752 13.623977804588126 6.971640285238172 13.63639699689621 6.951581929067426 13.636421563162186 C 6.30326824892538 12.572860982202688 5.56863248956343 11.57684345983595 5.115180793297013 10.501922870574559 C 4.9594783822461315 10.132827952249835 4.822072170210292 9.651825188689491 4.686219774497539 9.144947533060002 ZM 5.092751320031232 14.399018929916807 C 5.256419815253556 14.551910865654206 5.4054203599744595 14.728454446389774 5.5329268392495 14.94012684261699 C 5.575655607063885 15.01022479287143 5.648728910070769 15.058380343325913 5.729183431147552 15.07470273735529 C 5.7494917018318015 15.078823256044847 5.769947370111917 15.080878318679517 5.790254695939782 15.080878318679517 C 5.850400001475933 15.080878318679517 5.909242822487076 15.062849514021076 5.9590844691583715 15.027040401933126 C 6.175000687833224 14.870724306660996 6.306688629034575 14.703258906060551 6.435707350951817 14.58125716007727 C 6.483312522562763 14.536239477673238 6.5327214250102985 14.500179978643592 6.584302079855896 14.463502543538969 L 6.732896336331785 17.185862440383506 C 6.519603983834621 17.172073206318977 6.298091380798784 17.15081393768448 6.095781566478202 17.15081393768448 C 5.831792472282443 17.15081393768448 5.600500133246544 17.18701327545892 5.462835502989748 17.323242668868794 C 5.2941143882552915 17.189184555428792 4.96598135630733 17.158607113137695 4.572329148140608 17.158607113137695 C 4.471105738892494 17.158607113137695 4.365550163124863 17.160629105798932 4.257258755698066 17.16343343954592 L 5.092751320031232 14.399018929916807 ZM 6.25066573190075 9.573908551859477 L 6.25066573190075 9.573908551859477 C 7.604791854990093 10.361226196182292 9.034522078910209 10.988295252963786 10.386072995925625 11.699088033909858 C 10.388108216576233 11.700135879639442 10.389620931646625 11.700891764746446 10.39167977370683 11.70189142280046 C 11.686891739128056 12.333365400043023 12.978365852695143 12.98273873661945 14.285973389014858 13.605581450796405 C 15.269975172749374 14.794761632832586 16.33790476962736 15.90056296328426 17.36439863465213 17.026055100773398 C 16.647556883137256 17.146248391638174 15.930830404101199 17.267532046769798 15.213987707729942 17.38772722734734 C 13.79219427743337 15.841645498618801 12.36859900601298 14.299348864563587 10.946807465429178 12.75326524612228 C 10.935631704122118 12.739913480563432 10.92370950627189 12.727994117282355 10.910359630425809 12.716818355975295 C 9.41106341039531 11.580038019269429 7.757799063206311 10.634765898705052 6.25066573190075 9.573908551859477 ZM 3.0756960058277225 0.0 C 2.9405269774945206 0.0 2.803378947465543 0.004522381611119117 2.664776311033773 0.013406474957975922 C 1.5799215017535755 0.08356273687650426 0.791815610992612 0.5394290283949892 0.5227751964622482 1.157302329475107 C 0.4821416476788419 1.2499492773278713 0.3773182175015722 1.4706424536648965 0.5155519465690093 1.4706424536648965 C 0.5301007861125528 1.4706424536648965 0.5473420529751317 1.468197873986025 0.5676338477261894 1.4629019539550754 C 0.6829407547488466 1.4484514385289664 0.7780652341468658 1.4423110531050352 0.8569417269557291 1.4423110531050352 C 1.2747371416542677 1.4423110531050352 1.236670413344381 1.614590378873667 1.3274274122155385 1.6367293088014427 C 1.417468209947809 1.9189504698851962 1.6165598434253194 2.483475939414473 1.630223411590808 2.7049261819289825 C 1.386425543994761 3.5656903475302664 1.4768830233922678 4.468266061611404 1.565739089326357 4.903000625343815 C 1.7153772939992473 5.635118342443057 2.1961816377190027 6.48697345720191 2.8273889292472503 7.283313535133207 C 2.8134251329658233 7.338127016095824 2.8086283333195925 7.393803623365002 2.8273889292472503 7.448729542237286 C 3.1285063912567783 8.370618829444675 3.4792571591049843 9.617610994177321 3.7301694409495667 10.785092549360554 C 3.981081959008245 11.952574104543789 4.12285718696257 13.061967778966503 4.046983802062425 13.608383894830625 C 4.025192579283871 13.758532912485983 4.121174397743101 13.900045942793815 4.26847325611686 13.936413465004566 C 4.312604663232929 13.947361515923141 4.352082652659003 13.967347118152338 4.39463851175516 13.981272411536127 L 3.4666249016823647 17.0596976571734 C 3.272728324816838 17.01836208009686 3.0724617624261277 17.00476559673462 2.874112549852153 17.00476559673462 C 2.4927394590346226 17.00476559673462 2.118454680808026 17.055030066637645 1.8101650502035056 17.055030066637645 C 1.6846506825065655 17.055030066637645 1.570075389592555 17.04669832304569 1.4704144184820296 17.023250767026415 C 1.4375472348519498 17.015217598051724 1.3949769666959404 17.011228414399508 1.3451441780532423 17.011228414399508 C 0.9090801423353627 17.011228414399508 -0.08308278674200893 17.316628674182503 0.004096926806725951 17.889582026440785 C 0.15548046576267507 17.76211712084663 0.26223299740795364 17.73138850153413 0.38031217211407353 17.73138850153413 C 0.49024007079753446 17.73138850153413 0.6099847320405954 17.758020223566664 0.7846967677297779 17.758020223566664 C 0.7935070810801064 17.758020223566664 0.8024571741217066 17.757952193907034 0.8115528340999292 17.75781046544947 C 1.066223518424995 17.75382506122279 1.509269747551208 17.674784045296107 1.865480722334089 17.674784045296107 C 2.0452727193170093 17.674784045296107 2.202943030001157 17.694920824546703 2.3031032396034496 17.755008021415254 C 2.5392046614185677 17.745578354705373 2.7523340261895344 17.741732789223487 2.951610851518261 17.741732789223487 C 3.8011631150558056 17.741732789223487 4.398956033000731 17.81162570564265 5.451620530142762 17.816688246146814 C 6.240002555181878 17.80960749240695 7.649068297561068 17.777941575561766 8.426310465835707 17.73818579835887 C 8.876011082258614 17.740893756754712 9.122960636429726 17.792010487115885 9.3482285711628 17.792010487115885 C 9.361538763040762 17.792010487115885 9.374772421551643 17.79183285411574 9.387968285807172 17.791454911562237 C 9.52192246504496 17.78755265469733 9.652878614977093 17.73516414764362 9.867871236536825 17.73516414764362 C 9.990853743446445 17.73516414764362 10.141335350548884 17.752305732157712 10.335607271612858 17.805472800871634 C 10.085930861918229 17.463682342324677 9.45939942841909 17.120327201606223 9.005599080147068 17.120327201606223 C 8.891079651866747 17.120327201606223 8.787560241606108 17.142193068039095 8.703873366840497 17.191469218164713 C 8.542968104112466 17.175166666119395 8.37234782804666 17.169161158944245 8.19567291227375 17.169161158944245 C 7.976734570455455 17.169161158944245 7.748496479680046 17.178384846962466 7.517922703923993 17.188666774130493 L 7.360917335919913 14.359767706022835 L 7.360917335919913 14.359767706022835 C 7.847890174541017 14.562401606083045 8.21758885609496 14.875619607585232 8.642193142108937 15.380301416978874 C 8.699664031650867 15.44654907746951 8.781797562521582 15.482110637184917 8.86545325702653 15.482110637184917 C 8.908499969014047 15.482110637184917 8.951950134677428 15.472694198464408 8.992650768264083 15.453197086985613 C 9.112446274591294 15.395810289661837 9.178901803486355 15.264291005324987 9.155264331333942 15.133579573196247 C 8.962827321367223 14.095116267502062 8.941800487403126 13.115423973733854 8.95339954437011 12.074779939505962 L 8.95339954437011 12.074779939505962 C 9.492870020957247 12.42841606253606 10.024760859633895 12.787106222362869 10.5290609470485 13.16820932046874 C 11.981769133365166 14.7479090393313 13.43605428498632 16.326704530634608 14.888761526446602 17.906404249497168 C 14.944628049848916 17.96747598671759 15.022539017540629 17.999999833159222 15.103714464038218 17.999999833159222 C 15.11983182423232 17.999999833159222 15.136078629750996 17.99871671819008 15.152306538141996 17.99612214256029 C 16.10156595264582 17.836959195003903 17.051571803692816 17.68146795935479 18.00083121819664 17.52230312208564 C 18.107373224028915 17.50503114739059 18.194878263441282 17.430652052861355 18.23073178377927 17.328851336362764 C 18.266587193830023 17.227046840438643 18.244059927928525 17.11188585467375 18.171855892794696 17.031661878554605 C 17.42994521170602 16.20143358156353 16.66326228594804 15.400856767607475 15.920510682677822 14.586862993002091 L 15.920510682677822 14.586862993002091 C 17.1897721675192 15.367626168590794 18.796164079222855 16.341928056689678 19.00015479305014 16.341928056689678 C 19.023265980196797 16.341928056689678 19.02837576352015 16.32942193759429 19.01295381762449 16.302708957912753 C 18.91865715052569 16.139381083416772 18.112724890586506 15.546881487147742 17.238233851442022 14.928911397341812 L 17.238233851442022 14.928911397341812 C 17.377197659226482 14.987001167815102 17.513576339944986 15.048752256775444 17.6531769809321 15.10554284972107 C 17.658199837468143 15.108767644558828 17.664787376175685 15.113841523339595 17.669999203988482 15.116757350139865 C 17.773049020626395 15.151233269870335 17.830042757694528 15.174751690118395 17.93915099346508 15.178437574871426 C 17.94233326976557 15.178545288499173 17.945553340321407 15.178605759307734 17.948841440536878 15.178605759307734 C 17.973745965099905 15.178605759307734 18.00257920250659 15.175098452411234 18.048493553618805 15.161615351815042 C 18.100470103289197 15.146353086648238 18.187842862807837 15.102794262500725 18.236338561560473 15.01021723402036 C 18.28483615002588 14.91764209525276 18.275225070890315 14.822594267328872 18.25876945211083 14.771906501765924 C 18.242311943618578 14.721218736202974 18.220873152271164 14.694878974793022 18.205498449194693 14.67377749717461 C 18.143995857463278 14.58936875213181 18.102465639971687 14.565463885622796 18.0428867758376 14.519575990489324 C 17.983304132277976 14.473685260786702 17.91481149301954 14.423448191718805 17.838219544839546 14.370981261585245 C 17.6850337587668 14.266046456461739 17.50165414209476 14.147847757423074 17.344773967561526 14.042952636267687 C 17.18789568274106 13.938058459968683 17.045392442943054 13.83638718879467 17.016744397387587 13.810248681794459 C 17.00804982894427 13.80148608369151 16.99842930124487 13.792621441099115 16.988708618768793 13.785015347209884 C 15.691415134734154 12.872117785778505 14.394182121508075 11.96102017575818 13.097218392351367 11.048637561055948 C 13.088896097323248 11.042752050641536 13.077870568181206 11.047937422475586 13.06918166887619 11.04302983841836 C 11.735590582003198 9.174366581424614 10.481460027291279 7.217504760432826 9.023491825486246 5.41607134214063 C 8.27915569806047 4.496387349732927 7.424659237280828 2.887723530854533 6.037586916946315 2.3516642220268507 C 5.970716123670593 1.9556564868954267 5.819659099030447 1.224570552967246 5.283400661719887 0.7031084485192504 C 4.8273005330098036 0.25959351157317057 4.167590467595091 0.05615587828814758 3.427373441574297 0.0106028092539796 C 3.3119162433330986 0.0034978361875914604 3.1945714582512528 0.0 3.0756960058277225 0.0 Z"
     style="fill:#ffffff;stroke:none"
     id="path2" />
  <path
     d="M 26.499682694099363 2.5953820110450616 Q 26.417091423895567 3.466345324760725 26.417091423895567 4.5475411192669455 Q 26.417091423895567 5.628737003279129 26.522207585973124 6.732457600153148 Q 26.28194189364106 6.6048167252137535 25.771377140799984 6.6048167252137535 Q 25.25330418017362 6.6048167252137535 25.02054678513281 6.732457600153148 Q 25.13317133400759 5.628737003279129 25.125663036716332 4.5475411192669455 Q 25.11815473942508 3.466345324760725 25.043071677006573 2.5953820110450616 ZM 25.771377140799984 7.070331515295375 Q 26.28194189364106 7.077839633574701 26.807523241064644 7.340630575804385 L 26.672373710810138 7.5884045654277035 Q 26.566184730248768 7.569863584009007 26.473617841351686 7.569863584009007 Q 26.15384113705893 7.569863584009007 25.99662641756147 7.791128771303497 Q 25.90652667105449 7.393188477831236 25.771377140799984 7.303088910336185 Q 25.63622778955741 7.393188477831236 25.538619745759174 7.791128771303497 Q 25.381405115767677 7.569863584009007 25.06162832196896 7.569863584009007 Q 24.96906134356591 7.569863584009007 24.86287236300454 7.5884045654277035 L 24.72772287750302 7.340630575804385 Q 25.26832077475613 7.077839633574701 25.771377140799984 7.070331515295375 ZM 25.771377140799984 7.791128771303497 Q 25.88400177918073 7.8812283387985484 25.846460292724455 8.053919355509326 Q 25.808918806268185 8.226610372220101 25.771377140799984 8.38428479434837 Q 25.72632735705246 8.226610372220101 25.68878587059619 8.053919355509326 Q 25.65124438413992 7.8812283387985484 25.771377140799984 7.791128771303497 ZM 26.455144884465586 7.792493916265543 Q 26.497634976656293 7.792493916265543 26.54473247784689 7.7986368895828235 Q 26.034167904017743 9.014982482861441 25.771377140799984 9.014982482861441 Q 25.516094853885413 9.014982482861441 24.983005209170575 7.7986368895828235 Q 25.031126569082705 7.792493916265543 25.074361350893412 7.792493916265543 Q 25.3481818445418 7.792493916265543 25.425995196884397 8.038902760926817 Q 25.523603151176665 8.316709939715153 25.628719492266153 8.489401314449784 Q 25.741343951634967 8.669600449439887 25.771377140799984 8.669600449439887 Q 25.808918806268185 8.669600449439887 25.90652667105449 8.489401314449784 Q 26.011643012143978 8.316709939715153 26.10174257963903 8.038902760926817 Q 26.18604037055135 7.792493916265543 26.455144884465586 7.792493916265543 ZM 24.60008168929275 2.25 Q 24.960480317296813 4.802823585193447 24.592573392001498 6.852590714837072 Q 23.924334306538118 7.167939559093608 24.0369588693982 7.38568035955191 Q 24.11936714186166 7.5504966415550525 24.225894913684797 7.5504966415550525 Q 24.264955003078292 7.5504966415550525 24.307257826415942 7.5283381870976696 Q 24.960480317296813 8.264152037688302 25.380945323630907 9.26275647248476 Q 25.54612804305043 10.907074832352942 25.33589553988338 14.94654271331016 Q 25.33589553988338 15.749999801090459 25.756051929653804 15.749999801090459 Q 25.759942395882515 15.749999801090459 25.76386884350873 15.749931060510152 L 25.771377140799984 15.749931060510152 Q 25.7753035884262 15.749999801090459 25.779194054654912 15.749999801090459 Q 26.19935062343726 15.749999801090459 26.19935062343726 14.94654271331016 Q 25.99662641756147 10.907074832352942 26.15430066067781 9.26275647248476 Q 26.567257548732577 8.264152037688302 27.220480129119412 7.5283381870976696 Q 27.262782795821625 7.5504966415550525 27.30184284046214 7.5504966415550525 Q 27.408370690602997 7.5504966415550525 27.49077883160457 7.38568035955191 Q 27.60340346998531 7.167939559093608 26.94267277131915 6.852590714837072 Q 26.567257548732577 4.802823585193447 26.94267277131915 2.25 Z"
     style="fill:#ffffff;stroke:none"
     id="path4" />
  <path
     d="M 33.56766684194929 7.047680713299867 Q 33.61742230957026 7.047680713299867 33.667300880516734 7.048854313422556 Q 33.69291433773142 7.048552981826518 33.718495208771714 7.048552981826518 Q 35.58590531194778 7.048552981826518 37.2797056917106 8.654368337266568 L 36.23166190932335 9.501722742212237 Q 35.25051899125131 8.56517255553058 33.667300880516734 8.56517255553058 Q 32.08408711460541 8.56517255553058 31.102937860332794 9.501722742212237 L 30.05489398742839 8.654368337266568 Q 31.726719608933905 7.047680713299867 33.56766684194929 7.047680713299867 ZM 33.667300880516734 9.211839031309083 Q 35.42890657196864 9.234137931484504 36.56614595505758 11.062638513119651 L 30.746157267869073 11.062638513119651 Q 31.6381107404057 9.234137931484504 33.667300880516734 9.211839031309083 ZM 33.667300880516734 6.357591032981873 Q 30.90224848289121 6.469084741833908 29.006850838661194 8.632068712953938 L 30.590066052846936 9.969996206244346 Q 29.921101491547372 10.861948230506556 29.765010321783812 11.642408831474796 L 37.54729104554124 11.642408831474796 Q 37.391198925347595 10.861948230506556 36.72223735111402 9.992296735728488 L 38.19395933166277 8.654368337266568 Q 36.432352916073654 6.469084741833908 33.667300880516734 6.357591032981873 Z"
     style="fill:#ffffff;stroke:none"
     id="path6" />
  <path
     d="M 41.66118139541398 2.7257847122740886 Q 41.38249144179173 2.7257847122740886 41.38249144179173 3.053654893215412 Q 41.38249144179173 3.3323442203436606 41.66118139541398 3.3323442203436606 Q 41.95626454931126 3.315951020068642 41.95626454931126 3.0208678661713657 Q 41.95626454931126 2.7257847122740886 41.66118139541398 2.7257847122740886 ZM 40.579209055464716 2.9388999853142432 L 40.579209055464716 3.23398313921152 L 39.939862609850245 3.348738047112689 Q 40.23494576374752 3.0372610664463835 40.579209055464716 2.9388999853142432 ZM 40.61199608250877 3.3323442203436606 Q 40.98904720676231 3.627428090234092 40.74314419068495 3.7749693986852972 Q 40.36609382717413 3.6438212010099655 40.18576486518487 3.4307052119766563 L 40.61199608250877 3.3323442203436606 ZM 41.75954256604527 2.5782427773288727 Q 42.530037835829084 2.5782427773288727 42.98905603544745 3.168409085123426 Q 43.44807423506582 3.758576198410279 43.48086135160901 4.988089667812462 Q 44.677587704467996 5.233991967896662 45.07103202899656 6.070061470766861 Q 45.13473286599329 6.611515900264761 44.82715044059362 6.611515900264761 Q 44.81810350908559 6.611515900264761 44.80873581264419 6.611047640741494 Q 44.48086572120201 6.5946535454750315 44.29234042757267 6.430718678752231 Q 44.22378587297925 6.371105804673079 44.188830729163186 6.371105804673079 Q 44.1276598539791 6.371105804673079 44.169388651036556 6.5536704552883425 Q 44.234962884122936 6.840556740550677 44.8907030670073 7.250394802349122 Q 45.54644432388139 7.660232148154413 44.99726182226668 7.930725054143441 Q 44.86099830099571 7.997840104499048 44.70707266058105 7.997840104499048 Q 44.24063283391615 7.997840104499048 43.6120094597852 7.38154291052531 Q 42.775939956914996 6.5618664289318405 42.72675981909508 6.135635345856666 Q 42.677578965282 5.70940426278149 43.071024005803714 5.34874705479612 Q 43.30496402925165 5.1343019139699875 43.23172580543582 5.1343019139699875 Q 43.18179065283412 5.1343019139699875 42.98905603544745 5.233991967896662 Q 42.51364391956091 5.479895162972307 42.489053850650954 5.955306383867403 Q 42.46446378174099 6.430718678752231 42.866104974904495 6.996294917636824 Q 43.26774527307656 7.561871156521417 44.44807860465882 8.430727417938229 Q 44.568734907140495 8.493678252105262 44.72128655669101 8.493678252105262 Q 45.04545854348842 8.493678252105262 45.5136572073382 8.209415365762277 Q 46.20218486476232 7.7913802563306005 44.82512990791065 6.922523636917211 Q 45.33332896134209 6.791375886737601 45.34972198261882 6.479899532565306 Q 45.98906878622987 6.693014537108028 48.93990139919237 10.447129536397535 Q 49.72679004824949 10.971721969102283 49.7431834275228 11.21762480618135 Q 49.72679004824949 11.447134263987111 49.49728130643689 11.496314401807032 Q 49.44810045262381 11.50685310505318 49.3974138652061 11.50685310505318 Q 49.211564953989566 11.50685310505318 49.00547563227875 11.36516665162742 Q 48.08743851704887 11.80779147197248 47.22677966126186 11.824184851245787 Q 47.18148235432066 11.825047622997374 47.13702490735009 11.825047622997374 Q 46.33678441794144 11.825047622997374 45.80874018223719 11.545495255620107 L 45.80874018223719 11.545495255620107 Q 46.34972599421524 12.02090683451178 46.18579148548902 12.54549926721653 Q 46.10630765338348 12.79984724355698 46.06536143684427 12.79984724355698 Q 46.02185626076964 12.79984724355698 46.02185626076964 12.512712508669916 Q 46.02185626076964 11.955332601425397 44.595620808101465 11.447134263987111 L 44.595620808101465 12.070087688324856 Q 44.51165414285345 12.422747968763774 44.46209273867858 12.422747968763774 Q 44.41489196393522 12.422747968763774 44.39889775084574 12.10287444687147 Q 44.30053675921275 11.397953410174035 43.931682503594146 10.586474692206952 Q 43.562829321965275 9.774995258246715 42.75954693563827 8.340563115941887 Q 41.95626454931126 6.906130615640482 41.73495249713531 6.274980501666084 Q 41.51363954996791 5.643830029695108 41.5300332872378 5.102843859720475 Q 41.54642648751282 4.5618576897458425 41.3087203400704 4.307758521026699 Q 41.07101508761943 4.053659352307555 41.16937616875157 3.758576198410279 Q 41.26773724988371 3.4634922390207032 40.874292209362 3.201196112167473 L 40.874292209362 2.922506829788797 Q 41.300524187428614 2.5782427773288727 41.75954256604527 2.5782427773288727 ZM 44.87431004573057 12.02090683451178 Q 45.67759243205758 12.25041629231754 45.67759243205758 12.561892646489836 L 45.13660626208294 14.578295480942295 Q 45.07103202899656 14.938952688927666 44.69398179973446 14.938952688927666 L 44.03824054286037 14.938952688927666 L 44.03824054286037 14.906165930381052 L 44.87431004573057 12.348777283950536 L 44.87431004573057 12.02090683451178 ZM 41.818703648443716 2.25 Q 41.78934954007971 2.25 41.75954256604527 2.2503725963875496 Q 41.12019522543935 2.2503725963875496 40.4644548635567 2.7749648948435817 Q 40.08740382880231 2.9061129582701963 39.69395959377289 3.3815250741567358 Q 40.23494576374752 3.8733303903182934 40.677570136596856 3.9880852982194623 Q 40.72675107990908 4.217594398028645 40.98904720676231 4.627431743833936 Q 41.00544031753818 5.70940426278149 41.28413027116044 6.422522347112155 Q 41.56282040378099 7.135639715449665 43.15299126016683 10.250407553131542 Q 43.93987955122738 11.88975908433217 43.93987955122738 12.266809671590847 Q 43.93987955122738 12.840582958108671 43.21856513525663 14.840590981301515 Q 43.21856513525663 14.955346068200972 42.23495468193181 15.0209195852942 Q 40.759538017453984 15.07010115510043 40.759538017453984 15.4307583630858 Q 40.759538017453984 15.643873725625099 40.956260179718264 15.643873725625099 L 45.3169352240722 15.643873725625099 Q 45.7267725698775 15.316003276186343 45.775953423690574 15.086494534373736 Q 46.16939739022256 15.250429759093116 46.20218486476232 15.529118638725642 Q 46.257404404843356 15.749999663022377 46.35912555235203 15.749999663022377 Q 46.37819889400392 15.749999663022377 46.39890684802832 15.74223400126494 Q 46.53005531420108 15.69305386344502 46.53005531420108 15.529118638725642 Q 46.41530022730162 15.086494534373736 45.95628202768326 14.676655756582136 L 46.48087446038801 12.463531654856839 Q 48.071045137775556 12.414351517036918 49.25137846935782 11.955332601425397 Q 49.46995900764804 12.004513455238474 49.65210909822665 12.004513455238474 Q 50.016409279383865 12.004513455238474 50.23498910168094 11.80779147197248 Q 50.56285955111969 11.512707781080339 50.10384135150132 10.889754356742595 Q 49.10383662391175 9.889750345146172 48.202193603948324 8.693023634290604 Q 46.34972599421524 6.414325299478924 45.66119833679112 6.0536673755004 Q 45.43168923698193 5.578256154605303 45.112016193172984 5.299566200983045 Q 44.79234279136746 5.020876784355652 43.95627328849726 4.611038722557207 Q 43.93987955122738 3.6438212010099655 43.505452136512126 2.9388999853142432 Q 43.080897551409016 2.25 41.818703648443716 2.25 Z"
     style="fill:#ffffff;stroke:none"
     id="path8" />
  <path
     d="M 21.39600372314453 0.375 L 21.39600372314453 17.625 "
     style="fill:none;stroke:#ffffff;stroke-width:1"
     id="path10" />
  <path
     d="M 21.39600372314453 0.375 L 24.02100372314453 0.375 "
     style="fill:none;stroke:#ffffff;stroke-width:1"
     id="path12" />
  <path
     d="M 21.39600372314453 17.625 L 24.02100372314453 17.625 "
     style="fill:none;stroke:#ffffff;stroke-width:1"
     id="path14" />
  <path
     d="M 24.02100372314453 0.375 L 50.370235443115234 0.375 "
     style="fill:none;stroke:#ffffff;stroke-width:1"
     id="path16" />
  <path
     d="M 24.02100372314453 17.625 L 50.370235443115234 17.625 "
     style="fill:none;stroke:#ffffff;stroke-width:1"
     id="path18" />
  <path
     d="M 50.370235443115234 0.375 L 67.99523544311523 0.375 "
     style="fill:none;stroke:#ffffff;stroke-width:1"
     id="path20" />
  <path
     d="M 50.370235443115234 17.625 L 67.99523544311523 17.625 "
     style="fill:none;stroke:#ffffff;stroke-width:1"
     id="path22" />
  <path
     d="M 52.13273544311524 0.375 L 52.13273544311524 17.625 "
     style="fill:none;stroke:#ffffff;stroke-width:1"
     id="path24" />
  <path
     d="M 55.65773544311523 0.375 L 55.65773544311523 17.625 "
     style="fill:none;stroke:#ffffff;stroke-width:1"
     id="path26" />
  <path
     d="M 57.42023544311523 0.375 L 57.42023544311523 17.625 "
     style="fill:none;stroke:#ffffff;stroke-width:1"
     id="path28" />
  <path
     d="M 59.182735443115234 2.1 L 67.99523544311523 2.1 "
     style="fill:none;stroke:#ffffff;stroke-width:1"
     id="path30" />
  <path
     d="M 59.182735443115234 5.550000000000001 L 67.99523544311523 5.550000000000001 "
     style="fill:none;stroke:#ffffff;stroke-width:1"
     id="path32" />
  <path
     d="M 59.182735443115234 2.1 L 59.182735443115234 5.550000000000001 "
     style="fill:none;stroke:#ffffff;stroke-width:1"
     id="path34" />
  <path
     d="M 60.94523544311524 3.825 L 67.99523544311523 3.825 "
     style="fill:none;stroke:#ffffff;stroke-width:1"
     id="path36" />
  <path
     d="M 59.182735443115234 7.275 L 67.99523544311523 7.275 "
     style="fill:none;stroke:#ffffff;stroke-width:1"
     id="path38" />
  <path
     d="M 59.182735443115234 10.725000000000001 L 67.99523544311523 10.725000000000001 "
     style="fill:none;stroke:#ffffff;stroke-width:1"
     id="path40" />
  <path
     d="M 59.182735443115234 7.275 L 59.182735443115234 10.725000000000001 "
     style="fill:none;stroke:#ffffff;stroke-width:1"
     id="path42" />
  <path
     d="M 60.94523544311524 9.000000000000002 L 67.99523544311523 9.000000000000002 "
     style="fill:none;stroke:#ffffff;stroke-width:1"
     id="path44" />
  <path
     d="M 59.182735443115234 12.450000000000001 L 67.99523544311523 12.450000000000001 "
     style="fill:none;stroke:#ffffff;stroke-width:1"
     id="path46" />
  <path
     d="M 59.182735443115234 15.900000000000002 L 67.99523544311523 15.900000000000002 "
     style="fill:none;stroke:#ffffff;stroke-width:1"
     id="path48" />
  <path
     d="M 59.182735443115234 12.450000000000001 L 59.182735443115234 15.900000000000002 "
     style="fill:none;stroke:#ffffff;stroke-width:1"
     id="path50" />
  <path
     d="M 60.94523544311524 14.175 L 67.99523544311523 14.175 "
     style="fill:none;stroke:#ffffff;stroke-width:1"
     id="path52" />
</svg>
