<?xml version="1.0" encoding="UTF-8" standalone="no"?>
<svg
   width="177.021728515625"
   height="18.0"
   version="1.1"
   id="svg52"
   sodipodi:docname="sekhempehtihuipedjut9wernekhtutaunebu.svg"
   inkscape:version="1.1.1 (3bf5ae0d25, 2021-09-20)"
   xmlns:inkscape="http://www.inkscape.org/namespaces/inkscape"
   xmlns:sodipodi="http://sodipodi.sourceforge.net/DTD/sodipodi-0.dtd"
   xmlns="http://www.w3.org/2000/svg"
   xmlns:svg="http://www.w3.org/2000/svg">
  <defs
     id="defs56" />
  <sodipodi:namedview
     id="namedview54"
     pagecolor="#ffffff"
     bordercolor="#666666"
     borderopacity="1.0"
     inkscape:pageshadow="2"
     inkscape:pageopacity="0.0"
     inkscape:pagecheckerboard="0"
     showgrid="false"
     inkscape:zoom="7.7674081"
     inkscape:cx="88.510864"
     inkscape:cy="8.9476437"
     inkscape:window-width="1920"
     inkscape:window-height="1001"
     inkscape:window-x="-9"
     inkscape:window-y="-9"
     inkscape:window-maximized="1"
     inkscape:current-layer="svg52" />
  <path
     d="M 5.454143572319105 0.38638405261740716 C 5.6751986350969625 0.38638405261740716 6.0198472107908465 0.43846304248784007 6.211377729173311 0.48978353459751095 C 7.043040107707465 0.7126268987793605 6.2060781548689725 1.4576656313354053 5.670499150679329 1.4576656313354053 C 5.645675310396461 1.4576656313354053 5.621499128101075 1.4560650867138016 5.598166364823283 1.4527377590493051 L 5.598166364823283 1.4527377590493051 C 5.2452836289156854 1.5270191599566676 5.657208135444718 1.6516913405425198 6.100369028149615 1.6516913405425198 C 6.371794440716527 1.6516913405425198 6.654937462107786 1.6049233596160355 6.781255773411818 1.4711656717820771 C 6.852830518892686 1.3953753558318478 6.912108910323108 1.3639720239176871 6.9629476229505665 1.3639720239176871 C 7.148321731367289 1.3639720239176871 7.221486349139459 1.7814996563172263 7.369436559194839 1.9870992028133305 C 8.109766964545285 2.2320299455576382 8.572153297980249 2.899799787031018 9.050509706479392 3.4727819547688448 C 10.427930052921685 5.122675736613722 11.668260962471539 6.8783423742360466 12.967744634877972 8.588242400437956 C 12.611392476850998 8.48312787497829 12.224502817821092 8.278009345655091 11.870752268998066 8.107222788142833 C 10.250106465731893 7.324793393911243 8.524267466685542 6.706575791878325 7.056547618785348 5.653163124478057 C 6.324634327882369 5.1278539512763395 5.345499249842926 4.51876911966858 5.264370024428102 3.5973664697843573 C 5.202570523656583 2.8954927394447814 6.490844590161053 2.259560441267 6.397605624014208 1.8800112110189322 C 6.386753388715507 1.8358343194279554 6.355336487695676 1.8161086513304385 6.30878866169714 1.8161086513304385 C 6.033909073196996 1.8161086513304385 5.231366300354198 2.503995530499702 5.02003007139695 2.906660570796704 C 4.938768814010101 3.0614904698885916 4.879530977434828 3.123278383558639 4.83783143863071 3.123278383558639 C 4.6918117006651325 3.123278383558639 4.760840637983347 2.365644014318102 4.852316840087996 2.1923293342191177 C 5.162809689882786 1.604057223781083 4.223751651517808 0.8679923201596249 4.752486337822802 0.5290855725147102 L 4.752486337822802 0.5290855725147102 C 4.736400696667635 0.6173537864769199 4.7540868824444065 0.8663049485079197 5.0637960782712925 0.8663049485079197 C 5.3886697406864075 0.8663049485079197 5.369079611183729 0.4656883095505593 5.2689176568317215 0.41293273205443365 C 5.301349953848873 0.39420801419286505 5.36846244556854 0.38638405261740716 5.454143572319105 0.38638405261740716 ZM 6.069788227978029 5.863214709790646 C 6.323975692640863 6.762449405018629 6.696283899240764 7.629413412802606 7.135400893532303 8.452206779931927 C 7.351771108231227 8.857629702840873 8.265934259085897 9.502025616333867 7.620163139602537 9.830196723888633 C 7.602866036496212 9.834973658931888 7.585570762932224 9.837214848295345 7.568255974249969 9.837214848295345 C 7.310987560290759 9.837214848295345 7.049406915042022 9.342463910909716 6.712954689020212 9.320119100494184 C 6.67903192484543 8.693869197752123 6.575001708144468 8.06546836306859 6.448145511393205 7.446592735641611 C 6.344633665021206 6.9416012399454585 6.088178787554743 6.271072143703381 6.069788227978029 5.863214709790646 ZM 6.774795659418047 6.459697958701316 L 6.774795659418047 6.459697958701316 C 7.569842797304042 7.0356641099916315 8.405933278142431 7.553192239631892 9.246634815518807 8.060175497086155 C 9.468879080816052 8.556551677914943 9.280516719914718 9.282423820019444 9.395827284821362 9.864688475730382 C 8.857778398476073 9.501763991779603 8.28369911518318 9.486578790378216 7.938584616040677 8.798798329588251 C 7.554208138335073 8.032772611954833 6.9204552824668575 7.305266688542932 6.774795659418047 6.459697958701316 ZM 7.000934410504418 10.059063322600238 C 7.135474685073249 10.295082212156643 7.336466376730457 10.443322709596242 7.539293099352194 10.443322709596242 C 7.698827361641281 10.443322709596242 7.8594965500270755 10.351611411301223 7.9898569302021265 10.138767334534139 C 8.175012103385795 10.34420664361385 8.218963808807393 11.064965824732438 8.219863943637453 11.464443954739346 C 8.22078908221279 11.875067656666406 8.005229354769385 11.909575264541749 7.754371047313386 11.909575264541749 C 7.7036902851744005 11.909575264541749 7.6515684535208965 11.908167736636754 7.599499678595182 11.908167736636754 C 7.503209645676805 11.908167736636754 7.407101347297289 11.912984311763987 7.320625589324795 11.940433545301191 C 7.276695228563797 11.95437831699774 7.230527337524019 11.959987693804566 7.182692123567317 11.959987693804566 C 6.98565285320659 11.959987693804566 6.760333737087427 11.864796605983589 6.546653559472097 11.864796605983589 C 6.526873767413762 11.864796605983589 6.507193990336545 11.865612581866122 6.487645330460182 11.867394556102862 C 6.488004530605782 11.347772820181039 6.847494963589043 10.641789022980232 7.000934410504418 10.059063322600238 ZM 8.603951963501176 7.092214653796816 C 10.294832067562263 7.858253788074042 11.963344187004877 8.682241846349761 13.658331003766241 9.443264375537517 C 14.306199998463287 10.121921518537734 14.89692628748524 10.890737288235863 15.617332976780133 11.491755362753791 C 16.156479588527933 11.941553225211752 15.463364792129216 11.850415183515821 15.144459706666524 11.910077778837119 C 14.899576684484854 11.955893178053204 14.652335992077571 11.9891323032412 14.405890540739662 12.026157361372965 C 13.536195636093217 11.155342776815962 12.661034058942274 10.288166542120832 11.825686982140361 9.38497027788468 C 10.917455817391367 8.402968916849794 9.68127857879512 7.847318613522707 8.603951963501176 7.092214653796816 ZM 8.091606927303099 12.784580720746556 C 9.197498187112684 12.784580720746556 10.303223568417005 12.797552175919549 11.407920746927639 12.826530906850914 C 11.963618618355504 12.841107480501353 12.604689033726338 12.804320262873466 13.102683139828937 12.991104338584968 C 12.444715071428801 13.03259835879984 10.798614845620763 13.0486666193028 9.061392434150386 13.0486666193028 C 7.040896493935342 13.0486666193028 4.8971381879673626 13.026930436638214 4.041370674365262 12.998177349261805 C 4.035477718496122 12.998220038583016 4.0297003287179685 12.998241993091064 4.024036980412186 12.998241993091064 C 3.5148780921948943 12.998241993091064 3.9273603042131473 12.826321119329545 4.211845294908974 12.826321119329545 C 4.238601131900259 12.826321119329545 4.264224787108344 12.827842078859469 4.287843263914512 12.831169406523964 C 5.555116623774078 12.801636934111775 6.823471243155116 12.784580720746556 8.091606927303099 12.784580720746556 ZM 3.229631402039215 13.527964022410872 C 3.9800867996092 13.538300936617839 4.730666606058136 13.547631602539173 5.48073658004235 13.573154937842418 C 5.974628852224238 13.589961113754843 6.468692491538405 13.596169360753482 6.962812846665035 13.596169360753482 C 8.360743582405776 13.596169360753482 9.759126824951332 13.546476551476754 11.155349987843726 13.546476551476754 C 11.342591449139606 13.546476551476754 11.529792660504063 13.547370587832354 11.716949962852416 13.549397720742322 C 10.555885804617795 14.183214610592351 9.295635447944509 14.718425266924708 7.950956591174409 14.762796547389044 C 7.799163122515353 14.767805834309163 7.651256821476073 14.770698950592223 7.506199727703753 14.770698950592223 C 6.745573599355791 14.770698950592223 6.06331774657768 14.691151669451905 5.310047598121426 14.420004957167741 C 4.653584023370175 14.183703708243913 3.8042879059395918 13.89691074988931 3.229631402039215 13.527964022410872 ZM 9.878584352489678 15.08641697330296 C 9.849530000475026 15.08641697330296 9.823518177367665 15.092904530431793 9.801197760849965 15.106699279656667 C 9.544953890599764 15.265069343171648 10.169278504955312 16.43707782366929 10.695870187335629 16.718978585813375 C 10.73537854426685 16.740128095235065 10.774061167756402 16.749551457968167 10.810766665826547 16.749551457968167 C 11.003336974104167 16.749551457968167 11.141447905468382 16.490179680168257 11.058481819546692 16.304211580339288 C 10.844383896430964 15.824310428259835 10.18845698743205 15.08641697330296 9.878584352489678 15.08641697330296 ZM 5.031377807745396 15.140798289743296 C 4.989399568658528 15.140798289743296 4.926357808639836 15.166799745444079 4.836820006641786 15.226750188759814 C 4.404607095284589 15.5161398775388 3.394055116225315 16.294390597071498 4.0142925329988515 16.722726708215504 C 4.056939164886357 16.752178680764843 4.100021532773916 16.765133060209347 4.142866670005041 16.765133060209347 C 4.367006341163952 16.765133060209347 4.58465113702468 16.41059092940162 4.699421682018032 16.208593599306226 C 4.818436155386976 15.999129297083979 5.2725627150155 15.140798289743296 5.031377807745396 15.140798289743296 ZM 9.090395558979587 15.318185836009313 C 8.817462603526561 15.318185836009313 9.117006862126209 16.79410813205604 9.59252321107008 17.108873573056375 C 9.624085865629468 17.129766946550816 9.662353183008404 17.139328134806675 9.7019237443791 17.139328134806675 C 9.808466532556917 17.139328134806675 9.924459516755453 17.07001409380753 9.944487516724246 16.965927771141548 C 10.06708575860866 16.328790871796375 9.471438610546237 15.35620982425736 9.098430299078512 15.3185980928827 C 9.095698792368601 15.318322441837182 9.093020952233923 15.318185836009313 9.090395558979587 15.318185836009313 ZM 5.813290051342912 15.334595611081944 C 5.762056157570551 15.334595611081944 5.6837980939307355 15.397157421160761 5.569301065516842 15.551481756720047 C 5.266789289245744 15.95922088022829 4.5258087865180325 16.80730645047888 5.132767994853322 17.12234144405028 C 5.172965479398338 17.143205544867318 5.210868717852111 17.152645983328902 5.2466228539067465 17.152645983328902 C 5.501107314275703 17.152645983328902 5.646734005562437 16.67436092698092 5.736180330443612 16.43252348294377 C 5.81843167515878 16.21013773303909 6.004955346010909 15.334595611081944 5.813290051342912 15.334595611081944 ZM 8.084197280836158 15.497188258311914 C 8.061304827414261 15.497188258311914 8.040999346857612 15.508953435237036 8.024002288694641 15.534490187184089 C 7.779368084270872 15.902031826147313 7.859889291782196 17.025052481015617 8.44457443200567 17.350611002112412 C 8.477321410304873 17.36884544074299 8.5095817303423 17.37699910109386 8.54061320777636 17.37699910109386 C 8.712565793605062 17.37699910109386 8.846783458875045 17.126639648848553 8.816920449147212 16.95369179198824 C 8.746119600075112 16.543659642083643 8.300101572086461 15.497188258311914 8.084197280836158 15.497188258311914 ZM 6.75532262062497 15.485684096093609 C 6.738393255528486 15.485684096093609 6.719172693577984 15.49322303021907 6.697420045032361 15.509370570889988 C 6.3057388146205 15.800128757337436 5.679560264029602 16.97476811971643 6.318469380052385 17.354321313972893 C 6.352644621069744 17.374624355139762 6.386393578722462 17.383708642692973 6.419196662986684 17.383708642692973 C 6.610484462085705 17.383708642692973 6.7696040281116225 17.07479041900334 6.793552127462265 16.88013443246095 C 6.834695485395779 16.54571360828123 6.956077691473192 15.485684096093609 6.75532262062497 15.485684096093609 ZM 7.409580377164622 15.468416875512132 C 7.39733464045218 15.468416875512132 7.384780930779589 15.471718589583901 7.371922907231523 15.478607426332097 C 7.04806464081373 15.652117562537471 6.752394743037498 17.05085024766949 7.3581062034986005 17.423058439288273 C 7.389001684952238 17.442042990277237 7.419877041440165 17.450504013740805 7.449994967400358 17.450504013740805 C 7.6143226306137395 17.450504013740805 7.756113991313593 17.19863701860939 7.755634651221164 17.030030055868558 C 7.75432652844984 16.56993308974527 7.633263882434045 15.468416875512132 7.409580377164622 15.468416875512132 ZM 5.632034852575385 0.0 C 5.427092569164034 0.0 5.224417088708866 0.019432907972482025 5.033733343504948 0.05443384431604181 C 4.467006076095366 0.1584592489395021 3.5938344311601953 0.3646307561088724 3.603155949369841 1.0504667564332457 C 3.67258220229902 1.0309202310229437 3.7366997332121716 1.0218254998322194 3.7957738257482365 1.0218254998322194 C 4.346064179873848 1.0218254998322194 4.458737154577238 1.8110103266832265 4.348558760851052 2.292443415546627 C 4.124233391144884 3.272651977552607 4.609814357411156 4.257232688359666 5.247062553915197 4.998988307191039 C 5.671593826844609 6.267997902728908 6.207430796503842 7.594017867046124 6.200945678764793 8.927216345648308 C 6.198242225037389 9.48290994814405 6.608764082440994 9.519405658692827 6.457257851928928 10.084834255966495 C 6.320555668164599 10.595013723884398 6.084080612718707 11.65061086483566 5.574068852848409 11.775453955168208 C 5.5141812238195955 11.78026809090566 5.453413584926436 11.78228912534117 5.392016583469171 11.78228912534117 C 5.069385635036129 11.78228912534117 4.729385926421875 11.726455152284846 4.408483590574062 11.726455152284846 C 4.153773486650145 11.726455152284846 3.9110950629851815 11.761631152960828 3.698682758209751 11.887824445538461 C 3.254193922691541 12.151893268366223 2.920155472860361 12.347759192241154 2.3871648136927193 12.347759192241154 C 2.364082850177029 12.347759192241154 2.3406278124863467 12.34739206407876 2.31677439195167 12.346646830499944 C 2.290907712536418 12.345839392481654 2.2648745447684524 12.34543567347251 2.2387011120879436 12.34543567347251 C 1.3440312774539256 12.34543567347251 0.28566830681618954 12.817335627062558 0.12083169732265768 13.756412875622079 C -0.12329519978597013 15.147207786399061 0.07662177391650889 16.583104574880497 0.08494513861247754 17.989033459873415 C 0.2900051035231433 17.99360365663253 0.4966322048500206 17.999999736644487 0.702869308735284 17.999999736644487 C 0.8657836504929329 17.999999736644487 1.0284545868887616 17.996007675264025 1.1899174917253144 17.98397172607295 C 1.1137838316630781 17.140422201124508 1.057380489785133 16.29003262722354 1.1114740344619638 15.445312195179083 C 1.150002671471443 14.84365012175835 0.997819586525427 14.00504767929055 1.5763723295263372 13.66371240476991 C 1.7040717928333333 13.58837307100588 1.83171911418371 13.55691470035973 1.9589124041106598 13.55691470035973 C 2.4652981635298614 13.55691470035973 2.9644861984695505 14.055524752382627 3.4311076174921418 14.268706684634704 C 4.73678032670267 14.865220425917668 6.127831678330627 15.305327812461249 7.577851313962796 15.305327812461249 C 7.611054458151489 15.305327812461249 7.644288094712474 15.305097290126723 7.677552223645749 15.304632586372993 C 9.433900060865076 15.280083787288198 11.05346399476233 14.553760358073777 12.55629032072968 13.72891485428921 C 12.670762345398295 13.628126586610326 12.818380798443139 13.581008553249928 12.96633954636276 13.581008553249928 C 13.24669495507909 13.581008553249928 13.528272498076879 13.750179015030715 13.587881426822944 14.043930332742338 C 13.850096313415355 15.336104373662948 13.742097209536873 16.675576962787922 13.65541349358535 17.983352121067977 C 13.812261377875515 17.996239417293445 13.969778874661216 17.999448434553447 14.127512257442742 17.999448434553447 C 14.284036922586616 17.999448434553447 14.44077381464164 17.99628820508911 14.597282623751921 17.99628820508911 C 14.650358866658163 17.99628820508911 14.703408276276786 17.99665167416683 14.7564149965742 17.99762499069039 C 14.763825862736033 17.086932481649992 14.844901421575624 16.174760482705985 14.803086621604242 15.264876631378764 C 14.769945072007578 14.543717390335702 14.910211204245392 13.715322574416355 14.386286384745727 13.121748297822336 C 13.705550271802647 12.350515702696345 12.623079593303054 12.361563699025162 11.682409423214999 12.296510052282647 C 11.644045140092175 12.293857215893247 11.604677048073496 12.292852187302506 11.564630805695048 12.292852187302506 C 11.439513284011872 12.292852187302506 11.307763061507753 12.302662193316268 11.179225515348314 12.302662193316268 C 11.022081245199468 12.302662193316268 10.869737694144266 12.28799902132852 10.740179263360492 12.222823405096838 C 10.44570344688321 11.920581791244247 10.080689625582988 11.8638281682396 9.700766253926899 11.8638281682396 C 9.472275931089374 11.8638281682396 9.238393337135744 11.88435563326653 9.011219065086339 11.88435563326653 C 8.936831703185263 11.88435563326653 8.863163961270274 11.882155303681946 8.79064029316368 11.876311745455919 C 8.748275410796152 11.287905316117937 8.716179749569102 10.698756092590925 8.6841725162217 10.109697736333342 C 8.716601154154176 10.078576001477298 8.754075060006079 10.064937373198559 8.795398322936116 10.064937373198559 C 9.088549550761034 10.064937373198559 9.575443823501919 10.751298109134611 9.829342220475425 10.751298109134611 C 9.9047779101359 10.751298109134611 9.959645884838014 10.690709765390528 9.982754224255737 10.533531343784716 C 10.077034809840075 9.89225845906186 9.828121305888857 9.191179055020491 9.837226938102676 8.515557122758214 C 9.842454550408405 8.515291839119273 9.84775473456019 8.515160721918418 9.8531244413208 8.515160721918418 C 10.13787319103695 8.515160721918418 10.618515917610546 8.883683605421998 10.906077283746905 9.132975214789639 C 11.80432402611263 9.911679050974598 12.57521510666895 10.850011675802751 13.418602412196801 11.698699775329832 C 13.753165940678848 12.0785896053764 14.10034965220508 12.50165297550368 14.581990089200067 12.50165297550368 C 14.7115546184583 12.50165297550368 14.850847434172552 12.471038633722571 15.00224206260203 12.400734200471387 C 15.482807948397447 12.177569065530927 16.501952068121145 12.466298899373513 16.611020844419624 11.85703812677763 C 16.148715010847514 11.316222972418016 15.616514561507817 10.838956361304586 15.141690999262417 10.30954047540259 L 15.141690999262417 10.30954047540259 C 15.720475255599954 10.584491416053895 16.284632930796494 10.987831100087856 16.88805136486124 11.251485226652445 C 17.013493325385603 11.306294655999759 17.089085135992214 11.329256632030482 17.12721035891627 11.329256632030482 C 17.308927822047742 11.329256632030482 16.63947510654757 10.807612641978256 16.459826245952385 10.726662711712507 C 15.79457415965915 10.42689585879513 17.084456393878295 10.539115106998816 16.55768114741678 10.121722708270392 C 15.402974038957586 9.206783221617167 14.091566629290112 8.473895394495738 12.859382061921773 7.648877913731442 C 12.06805133437072 6.650734500652652 11.353425998862377 5.582082965275763 10.559610752816978 4.581358372882461 C 9.89897704123108 3.80707897991706 9.337823474552744 2.944969967649405 8.617586932695238 2.225430481422494 C 8.174952338336102 1.7832239999703352 7.524531741925666 1.6598222840760268 7.480633703079299 0.9374621771811809 C 7.138186066817449 0.2522410174286094 6.370398499913002 0.0 5.632034852575385 0.0 Z"
     style="fill:#ffffff;stroke:none"
     id="path2" />
  <path
     d="M 22.462980627248044 0.46050934806008237 Q 22.35285893364298 1.6217937663476334 22.35285893364298 3.0633881590225935 Q 22.35285893364298 4.504982671038839 22.49301381641306 5.97661013353753 Q 22.172659559970306 5.806422300285004 21.491906556182208 5.806422300285004 Q 20.801142608680387 5.806422300285004 20.49079941529264 5.97661013353753 Q 20.64096548045901 4.504982671038839 20.630954417404006 3.0633881590225935 Q 20.620943354349 1.6217937663476334 20.520832604457656 0.46050934806008237 ZM 21.491906556182208 6.427108687060499 Q 22.172659559970306 6.437119511432934 22.873434689868418 6.787507434405846 L 22.693235316195747 7.117872753903605 Q 22.551650008780584 7.0931514453453435 22.428227490251142 7.0931514453453435 Q 22.001858551194132 7.0931514453453435 21.79223892519752 7.388171695071329 Q 21.67210592985488 6.857584637108316 21.491906556182208 6.737451880448247 Q 21.311707421192104 6.857584637108316 21.18156336279446 7.388171695071329 Q 20.97194385613913 7.0931514453453435 20.545574797740837 7.0931514453453435 Q 20.422152159870112 7.0931514453453435 20.28056685245495 7.117872753903605 L 20.100367538452918 6.787507434405846 Q 20.8211647347904 6.437119511432934 21.491906556182208 6.427108687060499 ZM 21.491906556182208 7.388171695071329 Q 21.642072740689862 7.508304451731398 21.592017425414834 7.7385591406791 Q 21.541962110139806 7.968813829626802 21.491906556182208 8.179046392464492 Q 21.431840177852173 7.968813829626802 21.381784862577145 7.7385591406791 Q 21.331729547302118 7.508304451731398 21.491906556182208 7.388171695071329 ZM 22.403596881069674 7.389991888354058 Q 22.460250337323952 7.389991888354058 22.52304700557808 7.398182519443765 Q 21.842294240472548 9.019976643815253 21.491906556182208 9.019976643815253 Q 21.151530173629443 9.019976643815253 20.440743980676327 7.398182519443765 Q 20.504905793892497 7.389991888354058 20.562552169640107 7.389991888354058 Q 20.92764616117129 7.389991888354058 21.03139729762809 7.718537014569089 Q 21.16154123668445 8.08894658628687 21.3016963581371 8.319201752599714 Q 21.451862303962184 8.55946726591985 21.491906556182208 8.55946726591985 Q 21.541962110139806 8.55946726591985 21.67210592985488 8.319201752599714 Q 21.81226105130753 8.08894658628687 21.9323938079676 7.718537014569089 Q 22.04479086251736 7.389991888354058 22.403596881069674 7.389991888354058 ZM 19.930179287505894 0.0 Q 20.41071079151131 3.4037647802579287 19.920168224450887 6.136787619782763 Q 19.029182777166383 6.557252745458144 19.17934886097983 6.84757381273588 Q 19.28922655759777 7.067328855406737 19.431263586695287 7.067328855406737 Q 19.483343705886618 7.067328855406737 19.539747470336817 7.037784249463559 Q 20.41071079151131 8.0188693835844 20.97133079995677 9.350341963313012 Q 21.191574425849467 11.542766443137257 20.911264421626736 16.92872361774688 Q 20.911264421626736 17.99999973478728 21.471472941320634 17.99999973478728 Q 21.47666022962558 17.99999973478728 21.4818954931272 17.999908080680203 L 21.491906556182208 17.999908080680203 Q 21.49714181968383 17.99999973478728 21.50232910798878 17.99999973478728 Q 22.062537866365243 17.99999973478728 22.062537866365243 16.92872361774688 Q 21.79223892519752 11.542766443137257 22.002471249352638 9.350341963313012 Q 22.553080433425666 8.0188693835844 23.424043873941443 7.037784249463559 Q 23.480447429544395 7.067328855406737 23.53252748906508 7.067328855406737 Q 23.67456462258622 7.067328855406737 23.784442143921652 6.84757381273588 Q 23.934608328429306 6.557252745458144 23.053634063541093 6.136787619782763 Q 22.553080433425666 3.4037647802579287 23.053634063541093 0.0 Z"
     style="fill:#ffffff;stroke:none"
     id="path4" />
  <path
     d="M 28.819427564141687 0.2941706888243628 Q 28.95568156160268 0.2941706888243628 29.101803321027738 0.40271824840577847 Q 29.035037076896646 0.39794924309016283 28.973039753224935 0.39794924309016283 Q 28.621720680618726 0.39794924309016283 28.423540638724205 0.5510883586580887 Q 28.609806186243983 0.2941706888243628 28.819427564141687 0.2941706888243628 ZM 30.42653475115579 0.7312518942519934 Q 30.490121714980624 1.00679581901233 30.490121714980624 1.1551659292646401 Q 30.490121714980624 1.3035355869503586 30.29936037093952 1.4095140108472846 L 30.023816559320835 1.3459271601640952 Q 30.023816559320835 1.3035355869503586 30.42653475115579 1.208155141213103 L 30.415936999279413 1.080980874138485 L 30.18278419516622 1.12337199478563 L 30.18278419516622 1.1127743560509036 Q 30.3841432910837 1.00679581901233 30.3841432910837 0.9379100923909536 Q 30.3841432910837 0.8690238566321618 30.2675671153104 0.8690238566321618 L 30.352349582887985 0.763045376164412 L 30.42653475115579 0.7312518942519934 ZM 27.985638562355582 1.3978565742965912 Q 28.012344743211404 1.3978565742965912 28.04201840320859 1.3989163721125581 Q 27.93603930046178 1.5578841210995946 27.83536020506963 1.5578841210995946 Q 27.7346804308276 1.5578841210995946 27.74527818270397 1.4836990659734395 Q 27.74527818270397 1.3978565742965912 27.985638562355582 1.3978565742965912 ZM 29.917837682857314 1.4836990659734395 L 30.14039273509413 1.515492547885858 L 30.14039273509413 1.526090752328824 Q 29.886044427228192 1.5790799642772868 29.886044427228192 1.642666928102124 Q 29.790663755207643 1.6320691762257498 29.7694677988883 1.5578841210995946 Q 29.917837682857314 1.526090752328824 29.917837682857314 1.4836990659734395 ZM 27.811894401009933 1.2066410796807798 Q 27.775558281933954 1.2066410796807798 27.74527818270397 1.208155141213103 Q 27.49092998797968 1.27174210503794 27.49092998797968 1.6744602968728945 L 27.49092998797968 1.8334280458599312 L 27.70288694891518 1.8334280458599312 L 27.70288694891518 1.695656140050587 Q 27.793725662622055 1.726800867753893 27.872487863114387 1.726800867753893 Q 28.11533803786989 1.726800867753893 28.24337727284277 1.4307098540249767 L 28.444736595043544 1.4413079453262947 Q 28.518921537028053 1.3777206420765138 28.465932325079592 1.2611444663032139 Q 28.029907268649783 1.2066410796807798 27.811894401009933 1.2066410796807798 ZM 29.451532300914227 1.6744602968728945 L 29.49392398726961 2.0241898424676257 Q 30.002620603001493 2.225548712101807 30.42653475115579 2.8190287005444565 L 30.500719466857 2.596473422024343 Q 30.129794983217757 2.236146916544773 29.610500163042914 1.9500046741998227 L 29.610500163042914 1.8758197322153156 Q 29.992022851125117 2.01359163802466 30.511317671299963 2.532886458199506 L 30.62789339450667 2.3739188223541174 Q 29.790663755207643 1.7380477132643235 29.451532300914227 1.6744602968728945 ZM 29.50452151286269 2.1195700619215856 L 29.47272825723357 2.2467444421378517 Q 29.546912746651483 2.2467444421378517 29.7694677988883 2.4163098298596144 Q 30.098001275022042 2.713050050364235 30.320556327258863 3.0839749865700665 L 30.405338794836446 2.9144089199984164 Q 29.85425071903248 2.1195700619215856 29.50452151286269 2.1195700619215856 ZM 29.451532300914227 2.3103318585292802 L 29.430336570878183 2.4481037643386245 L 29.684684878744125 2.596473422024343 Q 29.907239930980943 2.8296262261375347 30.20397969891897 3.285333856204248 L 30.29936037093952 3.168757680430948 Q 29.886044427228192 2.4375057861789546 29.451532300914227 2.3103318585292802 ZM 29.41973881900181 2.5010929762870875 L 29.366749607053347 2.6388651083797274 Q 29.73767454325918 2.8402244305805007 30.023816559320835 3.5184866603174396 L 30.14039273509413 3.3807145282247997 Q 29.917837682857314 2.7872352186320377 29.41973881900181 2.5010929762870875 ZM 29.313760395104882 2.6918543203281904 L 29.26077118315642 2.7978327442251163 Q 29.546912746651483 2.967398131946879 29.886044427228192 3.635063288657331 L 29.992022851125117 3.5608781203895283 Q 29.546912746651483 2.713050050364235 29.313760395104882 2.6918543203281904 ZM 29.234465523734197 2.860284218471535 Q 29.226327923849965 2.860284218471535 29.218379496801035 2.8614197080499535 L 29.17598848929554 2.9356048763177562 Q 29.49392398726961 3.2747361043278738 29.663489374991375 3.804628676379094 L 29.81185925896039 3.688052500605794 Q 29.454182078308264 2.860284218471535 29.234465523734197 2.860284218471535 ZM 29.14419500738312 2.988594088266219 L 29.038215904636306 3.052181504657648 Q 29.324358146981258 3.4548996964926024 29.430336570878183 3.8682156402039314 L 29.568108476687527 3.804628676379094 Q 29.451532300914227 3.2747361043278738 29.14419500738312 2.988594088266219 ZM 28.99582489713081 3.1051707166061107 L 28.87924872135751 3.1793552060240264 Q 29.18658601488862 3.709247778075247 29.218379496801035 4.027183728615912 L 29.345553877017302 3.9000093483996454 Q 29.250172978713454 3.423106214580184 28.99582489713081 3.1051707166061107 ZM 28.78386782305366 3.2323444179724894 L 28.677889399156737 3.2747361043278738 Q 28.91104220326993 3.550280142229858 28.99582489713081 4.090770692440748 L 29.14419500738312 4.016585524172946 Q 28.974629167094765 3.359518798188755 28.78386782305366 3.2323444179724894 ZM 30.002620603001493 0.4557074886396533 Q 30.150990486970507 0.4557074886396533 30.256968910867432 0.6040775706065515 Q 30.108599026898418 0.6040775706065515 29.949631391053032 0.9644042457985934 Q 29.864848470908854 1.4307098540249767 29.568108476687527 1.4307098540249767 L 29.228977701244002 1.3989163721125581 L 29.218379496801035 1.5578841210995946 Q 29.67408712686775 1.6214710849244318 30.458328459351502 2.204352982065763 L 30.52191542317634 2.0983743318855415 L 30.150990486970507 1.8016346770891605 Q 30.28876261906315 1.7910369252127862 30.54311092692909 1.5790799642772868 Q 31.412134726990423 2.193755230189389 31.412134726990423 4.980989996254835 L 31.412134726990423 8.128552172933034 L 28.720280406662233 8.128552172933034 Q 28.709682881069156 5.076370668275386 28.49772580699201 4.037781480492286 L 28.561312770816848 4.037781480492286 L 28.6143024353319 4.196749116337674 L 28.7308786111052 4.175553612584926 Q 28.7308786111052 3.984792268543823 28.508323558868383 3.4760949739620552 L 28.529519288904428 3.4760949739620552 Q 28.677889399156737 3.635063288657331 28.826259056842456 4.175553612584926 L 28.93223748073938 4.122563948069871 L 28.868650516914546 3.7834329463430496 Q 28.773269618610698 3.412508010137218 28.561312770816848 3.285333856204248 Q 28.444736595043544 3.306529586240292 28.465932325079592 3.4019104845441395 L 28.3493556967397 3.4548996964926024 L 28.465932325079592 3.7410412599876652 L 28.444736595043544 3.7516394644306312 L 28.31756221482728 3.4548996964926024 L 28.179790309017935 3.5184866603174396 L 28.2327795209664 3.688052500605794 Q 27.469734144801986 4.037781480492286 27.2524783079283 4.053678334590143 Q 27.24531621533234 4.054202406703259 27.238217368917564 4.054202406703259 Q 27.0299818630651 4.054202406703259 26.87625472206758 3.6032698067449127 Q 27.024624379753295 3.6032698067449127 27.236581340688794 3.5078889084410654 L 27.437940662889567 3.5396823903534838 Q 27.49092998797968 3.5396823903534838 27.49092998797968 3.317127790683258 Q 27.49092998797968 3.2535403742918296 27.19419022004165 3.2323444179724894 Q 26.855058878889885 3.370117002631721 26.669596523928618 3.370117002631721 Q 26.484134112396525 3.370117002631721 26.436443719815426 3.052181504657648 Q 26.3887532706635 2.7342453278336873 26.272177123175613 2.7342453278336873 L 26.272177123175613 2.713050050364235 Q 26.42054675257592 2.713050050364235 26.515927594308945 2.872017912492919 Q 26.791471575640102 2.872017912492919 26.791471575640102 2.7024520722045646 Q 26.80206966694142 2.4375057861789546 26.494731807702074 2.4375057861789546 Q 26.187393920177318 2.4375057861789546 26.187393920177318 2.6706585902921463 L 26.166198614422452 2.6706585902921463 L 26.102611226316434 2.596473422024343 Q 26.272177123175613 2.13016781379796 27.257777183866487 1.600275807454979 Q 27.257777183866487 1.3989163721125581 27.57571268184056 1.1551659292646401 Q 27.893648292956282 0.9114149772793066 28.40234490868816 0.8584257087600198 Q 28.62617167304748 0.6532516461875106 29.202898551400892 0.6532516461875106 Q 29.281543084579397 0.6532516461875106 29.366749607053347 0.6570668391258383 Q 29.292564665068838 0.8584257087600198 29.080607590991693 0.8955184626063931 Q 28.868650516914546 0.9326107638861749 28.868650516914546 1.1445678379633222 L 28.868650516914546 1.4307098540249767 L 29.11240107290411 1.4307098540249767 L 29.11240107290411 1.208155141213103 Q 29.11240107290411 1.1551659292646401 29.483325782826647 1.080980874138485 Q 29.748272295135553 0.4557074886396533 30.002620603001493 0.4557074886396533 ZM 28.741476362981576 0.0 Q 28.275170528471897 0.0 27.999626716853207 0.6252734137842437 Q 27.024624379753295 0.9538066070638671 27.024624379753295 1.3989163721125581 Q 25.88005653471862 2.0453851199370785 25.80587148666382 2.5222889326064277 Q 25.80587148666382 2.8084309486680823 26.102611226316434 2.956800606353801 Q 26.19799206804946 3.6244650842143655 26.5053294464368 3.6244650842143655 Q 26.621906074776692 3.6244650842143655 26.759678093727686 4.09606934209564 Q 26.826681935319385 4.325429185604318 27.144352002987464 4.325429185604318 Q 27.47986880791347 4.325429185604318 28.095007615157055 4.0695747361214085 Q 28.31756221482728 5.0233814563269235 28.306964462950905 8.53127036476799 L 31.814853371391973 8.53127036476799 L 31.814853371391973 4.991588200697801 Q 31.814853371391973 1.7168519832282791 30.723274519093817 1.2823397437726665 Q 30.723274519093817 0.20135935048618506 30.145691837315617 0.19606005026681825 Q 30.132857048776778 0.1959422980967566 30.12029651559247 0.1959422980967566 Q 29.56763758114893 0.1959422980967566 29.546912746651483 0.42391403501264674 Q 29.218379496801035 0.0 28.741476362981576 0.0 Z"
     style="fill:#ffffff;stroke:none"
     id="path6" />
  <path
     d="M 28.819427564141687 9.762900967386269 Q 28.95568156160268 9.762900967386269 29.101803321027738 9.871448526967685 Q 29.035037076896646 9.86667952165207 28.973039753224935 9.86667952165207 Q 28.621720680618726 9.86667952165207 28.423540638724205 10.019818637219995 Q 28.609806186243983 9.762900967386269 28.819427564141687 9.762900967386269 ZM 30.42653475115579 10.1999821728139 Q 30.490121714980624 10.475526097574237 30.490121714980624 10.623896207826547 Q 30.490121714980624 10.772265865512265 30.29936037093952 10.878244289409192 L 30.023816559320835 10.814657438726002 Q 30.023816559320835 10.772265865512265 30.42653475115579 10.67688541977501 L 30.415936999279413 10.549711152700391 L 30.18278419516622 10.592102273347537 L 30.18278419516622 10.581504634612811 Q 30.3841432910837 10.475526097574237 30.3841432910837 10.40664037095286 Q 30.3841432910837 10.337754135194068 30.2675671153104 10.337754135194068 L 30.352349582887985 10.231775654726318 L 30.42653475115579 10.1999821728139 ZM 27.985638562355582 10.866586852858498 Q 28.012344743211404 10.866586852858498 28.04201840320859 10.867646650674464 Q 27.93603930046178 11.0266143996615 27.83536020506963 11.0266143996615 Q 27.7346804308276 11.0266143996615 27.74527818270397 10.952429344535346 Q 27.74527818270397 10.866586852858498 27.985638562355582 10.866586852858498 ZM 29.917837682857314 10.952429344535346 L 30.14039273509413 10.984222826447764 L 30.14039273509413 10.99482103089073 Q 29.886044427228192 11.047810242839194 29.886044427228192 11.11139720666403 Q 29.790663755207643 11.100799454787657 29.7694677988883 11.0266143996615 Q 29.917837682857314 10.99482103089073 29.917837682857314 10.952429344535346 ZM 27.811894401009933 10.675371358242687 Q 27.775558281933954 10.675371358242687 27.74527818270397 10.67688541977501 Q 27.49092998797968 10.740472383599847 27.49092998797968 11.1431905754348 L 27.49092998797968 11.302158324421837 L 27.70288694891518 11.302158324421837 L 27.70288694891518 11.164386418612494 Q 27.793725662622055 11.1955311463158 27.872487863114387 11.1955311463158 Q 28.11533803786989 11.1955311463158 28.24337727284277 10.899440132586884 L 28.444736595043544 10.9100382238882 Q 28.518921537028053 10.846450920638421 28.465932325079592 10.729874744865121 Q 28.029907268649783 10.675371358242687 27.811894401009933 10.675371358242687 ZM 29.451532300914227 11.1431905754348 L 29.49392398726961 11.492920121029533 Q 30.002620603001493 11.694278990663713 30.42653475115579 12.287758979106364 L 30.500719466857 12.065203700586249 Q 30.129794983217757 11.704877195106679 29.610500163042914 11.41873495276173 L 29.610500163042914 11.344550010777223 Q 29.992022851125117 11.482321916586567 30.511317671299963 12.001616736761413 L 30.62789339450667 11.842649100916024 Q 29.790663755207643 11.20677799182623 29.451532300914227 11.1431905754348 ZM 29.50452151286269 11.588300340483492 L 29.47272825723357 11.715474720699758 Q 29.546912746651483 11.715474720699758 29.7694677988883 11.88504010842152 Q 30.098001275022042 12.181780328926141 30.320556327258863 12.552705265131973 L 30.405338794836446 12.383139198560324 Q 29.85425071903248 11.588300340483492 29.50452151286269 11.588300340483492 ZM 29.451532300914227 11.779062137091188 L 29.430336570878183 11.91683404290053 L 29.684684878744125 12.065203700586249 Q 29.907239930980943 12.298356504699441 30.20397969891897 12.754064134766155 L 30.29936037093952 12.637487958992855 Q 29.886044427228192 11.906236064740861 29.451532300914227 11.779062137091188 ZM 29.41973881900181 11.969823254848993 L 29.366749607053347 12.107595386941634 Q 29.73767454325918 12.308954709142407 30.023816559320835 12.987216938879346 L 30.14039273509413 12.849444806786707 Q 29.917837682857314 12.255965497193944 29.41973881900181 11.969823254848993 ZM 29.313760395104882 12.160584598890097 L 29.26077118315642 12.266563022787023 Q 29.546912746651483 12.436128410508786 29.886044427228192 13.103793567219238 L 29.992022851125117 13.029608398951435 Q 29.546912746651483 12.181780328926141 29.313760395104882 12.160584598890097 ZM 29.234465523734197 12.329014497033441 Q 29.226327923849965 12.329014497033441 29.218379496801035 12.330149986611861 L 29.17598848929554 12.404335154879663 Q 29.49392398726961 12.74346638288978 29.663489374991375 13.273358954941001 L 29.81185925896039 13.1567827791677 Q 29.454182078308264 12.329014497033441 29.234465523734197 12.329014497033441 ZM 29.14419500738312 12.457324366828125 L 29.038215904636306 12.520911783219555 Q 29.324358146981258 12.92362997505451 29.430336570878183 13.336945918765839 L 29.568108476687527 13.273358954941001 Q 29.451532300914227 12.74346638288978 29.14419500738312 12.457324366828125 ZM 28.99582489713081 12.573900995168017 L 28.87924872135751 12.648085484585934 Q 29.18658601488862 13.177978056637153 29.218379496801035 13.495914007177818 L 29.345553877017302 13.368739626961553 Q 29.250172978713454 12.89183649314209 28.99582489713081 12.573900995168017 ZM 28.78386782305366 12.701074696534397 L 28.677889399156737 12.74346638288978 Q 28.91104220326993 13.019010420791766 28.99582489713081 13.559500971002656 L 29.14419500738312 13.485315802734853 Q 28.974629167094765 12.828249076750662 28.78386782305366 12.701074696534397 ZM 30.002620603001493 9.92443776720156 Q 30.150990486970507 9.92443776720156 30.256968910867432 10.07280784916846 Q 30.108599026898418 10.07280784916846 29.949631391053032 10.4331345243605 Q 29.864848470908854 10.899440132586884 29.568108476687527 10.899440132586884 L 29.228977701244002 10.867646650674464 L 29.218379496801035 11.0266143996615 Q 29.67408712686775 11.090201363486338 30.458328459351502 11.67308326062767 L 30.52191542317634 11.567104610447448 L 30.150990486970507 11.270364955651067 Q 30.28876261906315 11.259767203774693 30.54311092692909 11.047810242839194 Q 31.412134726990423 11.662485508751296 31.412134726990423 14.449720274816741 L 31.412134726990423 17.59728245149494 L 28.720280406662233 17.59728245149494 Q 28.709682881069156 14.545100946837293 28.49772580699201 13.506511759054192 L 28.561312770816848 13.506511759054192 L 28.6143024353319 13.665479394899581 L 28.7308786111052 13.644283891146832 Q 28.7308786111052 13.45352254710573 28.508323558868383 12.944825252523962 L 28.529519288904428 12.944825252523962 Q 28.677889399156737 13.103793567219238 28.826259056842456 13.644283891146832 L 28.93223748073938 13.591294226631778 L 28.868650516914546 13.252163224904956 Q 28.773269618610698 12.881238288699125 28.561312770816848 12.754064134766155 Q 28.444736595043544 12.775259864802198 28.465932325079592 12.870640763106046 L 28.3493556967397 12.92362997505451 L 28.465932325079592 13.209771538549571 L 28.444736595043544 13.220369742992538 L 28.31756221482728 12.92362997505451 L 28.179790309017935 12.987216938879346 L 28.2327795209664 13.1567827791677 Q 27.469734144801986 13.506511759054192 27.2524783079283 13.522408613152049 Q 27.24531621533234 13.522932685265165 27.238217368917564 13.522932685265165 Q 27.0299818630651 13.522932685265165 26.87625472206758 13.072000085306819 Q 27.024624379753295 13.072000085306819 27.236581340688794 12.976619187002973 L 27.437940662889567 13.00841266891539 Q 27.49092998797968 13.00841266891539 27.49092998797968 12.785858069245165 Q 27.49092998797968 12.722270652853737 27.19419022004165 12.701074696534397 Q 26.855058878889885 12.838847281193628 26.669596523928618 12.838847281193628 Q 26.484134112396525 12.838847281193628 26.436443719815426 12.520911783219555 Q 26.3887532706635 12.202975606395594 26.272177123175613 12.202975606395594 L 26.272177123175613 12.181780328926141 Q 26.42054675257592 12.181780328926141 26.515927594308945 12.340748191054825 Q 26.791471575640102 12.340748191054825 26.791471575640102 12.171182350766472 Q 26.80206966694142 11.906236064740861 26.494731807702074 11.906236064740861 Q 26.187393920177318 11.906236064740861 26.187393920177318 12.139388868854052 L 26.166198614422452 12.139388868854052 L 26.102611226316434 12.065203700586249 Q 26.272177123175613 11.598898092359867 27.257777183866487 11.069006086016886 Q 27.257777183866487 10.867646650674464 27.57571268184056 10.623896207826547 Q 27.893648292956282 10.380145255841214 28.40234490868816 10.327155987321927 Q 28.62617167304748 10.121981924749416 29.202898551400892 10.121981924749416 Q 29.281543084579397 10.121981924749416 29.366749607053347 10.125797117687744 Q 29.292564665068838 10.327155987321927 29.080607590991693 10.3642487411683 Q 28.868650516914546 10.401341042448081 28.868650516914546 10.613298116525229 L 28.868650516914546 10.899440132586884 L 29.11240107290411 10.899440132586884 L 29.11240107290411 10.67688541977501 Q 29.11240107290411 10.623896207826547 29.483325782826647 10.549711152700391 Q 29.748272295135553 9.92443776720156 30.002620603001493 9.92443776720156 ZM 28.741476362981576 9.468730278561907 Q 28.275170528471897 9.468730278561907 27.999626716853207 10.094003692346151 Q 27.024624379753295 10.422536885625775 27.024624379753295 10.867646650674464 Q 25.88005653471862 11.514115398498985 25.80587148666382 11.991019211168334 Q 25.80587148666382 12.277161227229989 26.102611226316434 12.425530884915707 Q 26.19799206804946 13.093195362776273 26.5053294464368 13.093195362776273 Q 26.621906074776692 13.093195362776273 26.759678093727686 13.564799620657546 Q 26.826681935319385 13.794159464166224 27.144352002987464 13.794159464166224 Q 27.47986880791347 13.794159464166224 28.095007615157055 13.538305014683315 Q 28.31756221482728 14.49211173488883 28.306964462950905 18.000000643329898 L 31.814853371391973 18.000000643329898 L 31.814853371391973 14.460318479259708 Q 31.814853371391973 11.185582261790186 30.723274519093817 10.751070022334574 Q 30.723274519093817 9.670089629048093 30.145691837315617 9.664790328828724 Q 30.132857048776778 9.664672576658663 30.12029651559247 9.664672576658663 Q 29.56763758114893 9.664672576658663 29.546912746651483 9.892644313574554 Q 29.218379496801035 9.468730278561907 28.741476362981576 9.468730278561907 Z"
     style="fill:#ffffff;stroke:none"
     id="path8" />
  <path
     d="M 36.323049787733424 0.6955501977484014 Q 37.25045029017845 0.6955501977484014 37.25045029017845 1.9180330635489997 Q 37.25045029017845 2.992974240263269 36.323049787733424 4.046838860026191 Q 35.395649165898156 2.992974240263269 35.395649165898156 1.9180330635489997 Q 35.395649165898156 0.6955501977484014 36.323049787733424 0.6955501977484014 ZM 36.323049787733424 5.39578435076662 Q 36.976446095542535 5.39578435076662 36.976446095542535 6.807962735897713 Q 36.976446095542535 7.608898404683371 36.323049787733424 8.283371627614567 Q 35.669654435046276 7.608898404683371 35.669654435046276 6.807962735897713 Q 35.669654435046276 5.39578435076662 36.323049787733424 5.39578435076662 ZM 36.323049787733424 9.653395704940513 Q 36.976446095542535 9.653395704940513 36.976446095542535 11.065573134949643 Q 36.976446095542535 11.866509758857264 36.323049787733424 12.540984414471403 Q 35.669654435046276 11.866509758857264 35.669654435046276 11.065573134949643 Q 35.669654435046276 9.653395704940513 36.323049787733424 9.653395704940513 ZM 36.323049787733424 0.0 Q 34.636867088576174 0.0 34.636867088576174 1.9180330635489997 Q 34.61579017345409 3.119438118800675 35.19541560687247 3.8044492023416856 Q 35.77504020455915 4.489460524663187 35.71180838468069 4.721311127835424 Q 34.974103222480785 5.585479691011748 34.974103222480785 6.807962735897713 Q 34.974103222480785 7.819671853953035 35.83827190504736 8.978922004448336 Q 34.974103222480785 9.843090567624659 34.974103222480785 11.065573134949643 Q 34.974103222480785 12.077283208126927 35.83827190504736 13.215456204719654 Q 35.94365886846268 13.489460638136059 35.24810849162891 14.501170711313343 Q 34.55255829388051 15.512878874246702 33.81485319137573 17.999999271823782 L 34.742253813211 17.999999271823782 Q 35.20595358687253 16.35597076108143 35.56426771041144 15.649882523637848 Q 35.9225817145601 14.9437933310723 36.323049787733424 14.501170711313343 Q 36.74459573115079 14.9437933310723 37.09237091956767 15.649882523637848 Q 37.440145869204066 16.35597076108143 37.90384588164609 17.999999271823782 L 38.85232353799369 17.999999271823782 Q 38.15677316115992 15.512878874246702 37.42960705347229 14.501170711313343 Q 36.70244070700417 13.489460638136059 36.82890458554157 13.215456204719654 Q 37.67199623359581 12.077283208126927 37.67199623359581 11.065573134949643 Q 37.67199623359581 9.843090567624659 36.8710593709077 8.978922004448336 Q 37.67199623359581 7.819671853953035 37.67199623359581 6.807962735897713 Q 37.67199623359581 5.585479691011748 36.95536822529849 4.721311127835424 Q 36.89213628602979 4.489460524663187 37.461222784326154 3.8044492023416856 Q 38.03030928262251 3.119438118800675 38.03030928262251 1.9180330635489997 Q 38.03030928262251 0.0 36.323049787733424 0.0 Z"
     style="fill:#ffffff;stroke:none"
     id="path10" />
  <path
     d="M 46.55054916006631 1.7923869594489648 L 46.39869761754723 1.8328806397576878 Q 46.292401586056144 1.8126337996033264 46.201290564000146 1.8126337996033264 Q 46.11017954194414 1.8126337996033264 46.03425401204598 1.8328806397576878 Q 45.88240246952689 1.8834978608242783 45.85203245065672 1.944238381287363 Q 45.82166194906381 2.0049790224311344 45.750798249884916 2.055596122817038 L 45.801415108909445 2.1163366432801225 L 45.88240246952689 2.0758429629713997 Q 45.9460354646867 2.1047672272159503 46.01793267326575 2.1047672272159503 Q 46.19767545335198 2.1047672272159503 46.42906811914015 1.9239915411330013 L 46.58091917893648 1.90374470097864 L 46.55054916006631 1.7923869594489648 ZM 47.2905080999814 0.34347110324474317 Q 47.837489932993584 0.34347110324474317 48.05893995837312 0.901525147892251 Q 48.3019025229482 1.5291777960808917 48.06906361981167 1.9746087621995918 Q 47.8746933750625 2.330953486822277 47.62849222358148 2.330953486822277 Q 47.56694169434985 2.330953486822277 47.502151612766795 2.3086818661079302 Q 47.330053230093355 2.2479413456448456 47.40091692927224 2.136583483434484 Q 47.54264529307552 2.0049790224311344 47.44141109230372 1.7923869594489648 Q 47.54264529307552 1.468437275617807 47.461657932458074 1.3165857330987223 Q 47.38017674647101 1.0943641960896775 47.21197490180691 1.0943641960896775 Q 47.15030079555219 1.0943641960896775 47.07696748680246 1.124240630951601 Q 46.945362784437734 1.205228112249734 46.90486910412901 1.2963388929443609 Q 46.565201243589314 1.2193476319027161 46.29442081530455 1.2193476319027161 Q 45.9599267771613 1.2193476319027161 45.73055140973055 1.3368326939337705 Q 45.78116826875508 0.9318954684641366 46.11524137266342 0.688933145250425 Q 46.449314959294504 0.45609424211389415 47.12758434582699 0.3548599508315715 Q 47.21236832084527 0.34347110324474317 47.2905080999814 0.34347110324474317 ZM 42.14685708198796 5.44694522773182 Q 43.40216237836524 6.236572476474667 44.28290089052546 6.520028721358474 L 44.71820819520561 6.631386583568836 Q 44.28290089052546 6.803484483519536 42.66315198864693 7.340026471694236 Q 42.491053726654165 7.188174929175151 42.197474303054555 7.16792808902079 L 41.91401817885143 5.588673108812351 Q 42.045622760535466 5.548179428503627 42.14685708198796 5.44694522773182 ZM 47.19514284236094 1.2789845274867289 Q 47.28088212569444 1.2789845274867289 47.30980638993899 1.3874497943196744 Q 47.370546910402076 1.559548056312434 47.28955954978463 1.8126337996033264 Q 47.35030007024771 2.0049790224311344 47.23894220803735 2.015102442508315 Q 47.22025263146304 2.0182173317104715 47.20395929060211 2.0182173317104715 Q 47.11434615722834 2.0182173317104715 47.09721432695682 1.9239915411330013 L 47.09721432695682 1.9239915411330013 Q 47.04659698520955 2.0353492826626765 47.4110405907108 2.4909036688585573 Q 47.7653605347735 2.9565814751316193 48.463877244183095 3.634851103025477 Q 49.162393953592684 4.323244392357889 49.23325765277158 7.47163117405896 L 47.826101055236585 8.18027106218436 Q 47.54264529307552 6.307436658376305 46.51005547975759 4.971143760020205 Q 46.2569697364667 4.687687997859143 46.37845077739287 4.434602254568251 Q 46.51005547975759 4.191639689993165 47.249065869475906 3.7968260656217425 Q 47.61350899225442 3.6449745231026576 47.35030007024771 3.4323827014818615 Q 47.09721432695682 3.2197906384996924 47.02635014505518 2.9768283152859807 Q 46.854251762381736 2.9768283152859807 46.661906539553925 3.128679616443692 Q 46.34411905294258 3.287573601110739 46.21285901461882 3.287573601110739 Q 46.185225068275535 3.287573601110739 46.165858714410696 3.280531158962777 Q 46.054500852200334 3.240037478654054 46.03425401204598 3.0881859361349693 L 46.18610555456506 2.9363346349772574 Q 46.2569697364667 2.8755938731527997 46.18610555456506 2.8249767727668957 L 45.88240246952689 2.895840713307161 Q 45.933019811274164 2.632631549939088 45.750798249884916 2.6123847097847266 Q 45.68702043790117 2.653384766254476 45.64579253629509 2.653384766254476 Q 45.59540352240688 2.653384766254476 45.57869986721147 2.592137869630365 Q 45.53820618690274 2.460533408627015 45.649563566390356 2.207447665336123 Q 45.71030456957619 1.964485342122411 45.84190878921817 1.8328806397576878 Q 45.96338983014434 1.7207442664379886 46.1538785012893 1.7207442664379886 Q 46.16975235608356 1.7207442664379886 46.18610555456506 1.7215230189086994 Q 46.2569697364667 1.7248974922677598 46.32670869164636 1.7248974922677598 Q 46.46618708472843 1.7248974922677598 46.60116601909085 1.7113995988315187 L 46.58091917893648 1.6000418573018436 Q 46.50499364903831 1.6101652773790245 46.41641354234195 1.6101652773790245 Q 46.32783343564559 1.6101652773790245 46.22659923487378 1.6000418573018436 Q 46.17957431580559 1.5948168662942666 46.135751296714595 1.5948168662942666 Q 45.839949417590326 1.5948168662942666 45.69005772942183 1.8328806397576878 Q 45.66981088926747 1.6810292179192898 45.69005772942183 1.6202886974562052 Q 45.946120906612826 1.4416398877941161 46.30376874128955 1.4416398877941161 Q 46.55412179111279 1.4416398877941161 46.854251762381736 1.5291777960808917 L 46.854251762381736 1.6607823777649282 Q 46.899807273409735 1.670905797842109 46.93777003835882 1.670905797842109 Q 46.97573328603065 1.670905797842109 47.00610330490082 1.6607823777649282 Q 47.00610330490082 1.3368326939337705 47.11746116711118 1.2963388929443609 Q 47.16084732211664 1.2789845274867289 47.19514284236094 1.2789845274867289 ZM 49.46609703863085 7.927185318893467 Q 50.05325588583008 8.959775614934145 50.04313222439153 9.759526525115545 Q 50.03300856295297 10.559277435296945 49.881157503156636 12.330877638333192 L 47.30980638993899 12.310630315456084 L 47.89696523713822 8.615578849587251 L 49.46609703863085 7.927185318893467 ZM 47.37766803635771 0.0 Q 47.35907355616445 0.0 47.34017640880916 5.399162583565109E-4 Q 46.64165969939957 0.02078677526907533 46.054500852200334 0.36498340107892396 Q 45.40660148453802 0.7091799854047866 45.426848324692386 1.7113995988315187 Q 45.477465666439656 1.9847321822767725 45.39647782309947 2.2479413456448456 Q 45.32561412392057 2.501027088935738 45.34586096407494 2.7642362523038115 Q 45.38924711908039 2.872701639817443 45.48428315978778 2.872701639817443 Q 45.52229757607073 2.872701639817443 45.568576205772914 2.8553470329984383 Q 45.61581883279976 2.8346782931636794 45.644115557473924 2.8346782931636794 Q 45.71283548493583 2.8346782931636794 45.66981088926747 2.9565814751316193 Q 45.629316726236 2.9768283152859807 45.649563566390356 3.0274454156718846 Q 45.66306194254935 3.0544412025443664 45.69455718814149 3.0544412025443664 Q 45.71030456957619 3.0544412025443664 45.73055140973055 3.047692255826246 L 45.73055140973055 3.047692255826246 Q 45.67360702094555 3.190052986427373 45.75902336276168 3.190052986427373 Q 45.76471804300155 3.190052986427373 45.77104509003927 3.18942037826815 Q 45.779327646922866 3.1885000673520425 45.78694115007988 3.1885000673520425 Q 45.86307618165001 3.1885000673520425 45.87227929081108 3.280531158962777 Q 45.88240246952689 3.391888779811765 45.99376033173725 3.5133700620993076 Q 46.03750804607979 3.5571177764418516 46.126566048295146 3.5571177764418516 Q 46.26420092320852 3.5571177764418516 46.51005547975759 3.452629541636223 L 46.8744986025361 3.260284318808415 Q 46.90486910412901 3.3513950995030424 47.00610330490082 3.4728763817905848 Q 46.14561187425634 3.736085545158658 45.750798249884916 4.444725433284058 Q 45.17376258140149 5.1432421426936505 44.80931921726161 5.89237619385052 Q 43.93870412517857 5.639290450559628 42.237967983363276 4.920526900995673 Q 42.086116561524875 4.707934838013505 41.74191991685867 4.64719431755042 L 41.3066124311575 2.3086818661079302 Q 41.17500784947346 1.5797948964667954 41.6508090758237 1.0128828894219262 L 41.32685930148203 0.7800439862853953 Q 40.69920665329339 1.3165857330987223 40.90167525471439 2.420039728318292 L 41.28636559100313 4.64719431755042 L 40.9421689765071 4.667441157704781 Q 40.90167525471439 4.839539540378228 41.114267268670034 4.920526900995673 Q 41.073773558191135 5.588673108812351 41.45846391333624 5.619043610405266 L 41.74191991685867 7.16792808902079 Q 41.519204494139665 7.2084217693295125 41.3066124311575 7.238792270922429 Q 41.28636559100313 7.431137493750236 41.54957475437121 7.491878014213321 Q 41.461143688322814 8.140373061744755 41.90676659707357 8.140373061744755 Q 41.920270645224825 8.140373061744755 41.93426513968648 8.139777381875636 L 41.9747588199952 8.534591488969806 L 42.4303130855104 8.443480466913806 L 42.33920230481577 8.028419519665274 Q 42.450560046345444 7.96767899920219 42.56191778787512 7.927185318893467 Q 44.73845503535997 7.663976396886767 45.25474994201893 7.147681248866428 Q 45.95326665142853 6.06447409380122 46.27721657662106 5.467192067886182 Q 46.98585646474646 6.044227253646858 47.44141109230372 8.27138208424036 Q 47.41317132891363 8.270316232416198 47.38655834117908 8.270316232416198 Q 46.90753325096667 8.270316232416198 46.95548644587629 8.615578849587251 Q 46.995099639895486 8.900795584327364 47.226924825264476 8.900795584327364 Q 47.29132052236368 8.900795584327364 47.370546910402076 8.878788254316698 L 47.370546910402076 8.878788254316698 L 46.682153862431036 13.039517526458592 Q 46.0747476923547 15.742473342040961 45.801415108909445 16.390373192426026 Q 45.649563566390356 16.906668340446362 45.29524362232766 17.00790109304993 Q 44.93080049954915 17.099012115105932 44.13104934800638 17.55456722538593 Q 43.68561838188768 17.645678247441932 43.63500128150177 17.79752930723827 Q 43.59450760119305 17.94938036703461 43.84759334448395 17.97975135135027 Q 43.89965740630233 17.986260384863407 43.962413294231844 17.986260384863407 Q 44.192514435311885 17.986260384863407 44.5663568940479 17.898763990732824 Q 44.75667806039984 17.85826934497861 44.98263381989474 17.85826934497861 Q 45.3215655282461 17.85826934497861 45.74067458844636 17.94938036703461 Q 45.83699515438205 17.968644866399945 45.918166432365894 17.968644866399945 Q 46.43417870485681 17.968644866399945 46.33795709708414 17.190123137161933 Q 46.29746341677542 16.623211612839807 46.99598012618502 15.58049862080607 Q 47.694496835594606 14.537784663326839 47.7653605347735 13.110381225637484 L 48.08931045996603 12.7864317831677 L 49.12190027328396 12.766184460290592 L 49.14214663071557 13.262233250879316 Q 49.42560335832213 15.205931836589007 49.445849715753745 15.823460702658409 Q 49.57745441811847 16.825680979828917 49.202887633901405 16.977532039625256 Q 48.81819718824579 17.11925943798304 48.04881677965731 17.57481454826304 Q 47.59326215210005 17.645678247441932 47.53252163163697 17.79752930723827 Q 47.48190477261244 17.94938036703461 47.745113694619135 17.989875012788826 Q 47.80838416499637 17.999998674227378 47.88557442849024 17.999998674227378 Q 48.117148598031065 17.999998674227378 48.474000905621644 17.90888765217138 Q 48.66092322111583 17.86513945510609 48.90409287374914 17.86513945510609 Q 49.27989928997909 17.86513945510609 49.79004648110064 17.969627689911718 Q 49.908540433671774 17.993609355955364 50.0006951023056 17.993609355955364 Q 50.56988218165449 17.993609355955364 50.13424324644753 17.07876672311981 Q 50.1646132653177 16.127163787696578 50.3468353094297 15.104697153094454 Q 50.5290573535417 14.08223051849233 50.13424324644753 13.039517526458592 L 50.336711647991145 12.766184460290592 L 50.458192688917315 9.972118588097715 Q 50.488563673232974 8.76742990938359 49.61794809842719 7.279285951231151 Q 49.57745441811847 6.732620784340644 49.486343396062466 5.35583420567582 Q 49.405356035445024 3.968924448295189 48.73720982762835 3.3513950995030424 Q 48.06906361981167 2.7237425719950883 47.99819943791003 2.592137869630365 Q 48.37276622212709 2.328928706262292 48.49424774577601 1.90374470097864 Q 48.625851965417986 1.468437275617807 48.33227254181837 0.7193034054819674 Q 48.05637573514397 0.0 47.37766803635771 0.0 Z"
     style="fill:#ffffff;stroke:none"
     id="path12" />
  <path
     d="M 68.28231775399418 6.326415487771101 C 69.22408812512501 6.37231806268278 69.74424264086517 6.391186181796911 69.96724600467402 6.391186181796911 C 70.01317368300894 6.391186181796911 70.04649751184454 6.390385768802048 70.06830466251037 6.38885639101693 L 70.06830466251037 6.38885639101693 L 69.94298064956317 11.307518796050658 C 69.1344882144817 10.978130986613337 68.63618719418875 10.64434042294613 68.06886720824464 10.196424869645853 L 68.28231775399418 6.326415487771101 ZM 54.60738194353464 5.1031951904296875 C 54.58041966007891 5.1031951904296875 54.56094567950003 5.103727189899132 54.551955998810136 5.104609671777666 C 54.24076117122922 5.161973890431227 53.826482153349225 5.351416873916264 53.880605133855916 5.733889733860906 C 53.880605133855916 6.648839028291718 53.880605133855916 7.5641301154851135 53.880605133855916 8.479077478883369 C 53.270811423028874 8.446977924688895 52.64426194658453 8.418855332045496 52.458191871643066 8.409550651669747 L 52.458191871643066 8.409550651669747 C 52.458191871643066 8.754811548725343 52.73715908023266 9.226597560978576 53.625084509372606 9.226597560978576 C 53.63481063760391 10.004714853938935 53.77102326038172 10.957590593304872 53.91691832177923 11.443913418646957 C 53.9177874071194 11.443253005512474 53.918706095858376 11.442801143894144 53.91957530188808 11.442142661792218 L 54.03382894656526 12.717089528237125 C 54.03382894656526 12.858267318477033 54.27548524004768 12.896804935216437 54.53935311482709 12.896804935216437 C 54.856637212197334 12.896804935216437 55.2060355878853 12.841084990785134 55.2060355878853 12.841084990785134 L 55.152451606841076 11.56082585377601 L 55.152451606841076 11.56082585377601 C 60.15066144978467 11.59972264257101 69.68864628251751 11.852658942045423 70.16174539690948 11.852658942045423 C 70.40635894606336 11.852658942045423 70.5696045763643 11.590324307116248 70.5696045763643 11.225592808788747 L 70.6949285893115 5.730790426606973 L 67.68713586480187 5.69979156096997 L 67.44268645341533 9.985631424694702 C 65.26297842031018 9.991908246021126 61.49710769320014 10.349876302817847 58.93741155629302 10.349876302817847 C 58.123738160861215 10.349876302817847 57.4319452645694 10.313705166477007 56.95172450210733 10.218567054460323 C 56.854460806003566 10.101846757070689 55.915043639422485 8.732783294831734 55.31763213176409 8.584474201358944 C 55.27065010965307 8.57280979919858 55.130373146100986 8.559739605336745 54.95538611371648 8.545946239782324 C 54.85792110746865 7.717807479466273 54.75965399857247 6.889687063959514 54.66178106169698 6.06159464842483 C 54.84916435758094 5.831190602341394 55.26452270197074 5.893898953596363 55.374759074792216 5.5744665825064885 C 55.48770903111437 5.4248067317601 55.41101879725161 5.174399119419036 55.20647851847806 5.168821331878235 C 55.07654078599412 5.117015590439905 54.7447589789443 5.1031951904296875 54.60738194353464 5.1031951904296875 Z"
     style="fill:#ffffff;stroke:none"
     id="path14" />
  <path
     d="M 77.97684409957509 0.18124200987595723 L 77.97684409957509 0.8414808909080482 L 77.78265664159584 0.8414808909080482 L 77.78265664159584 0.18124200987595723 ZM 79.1290255090981 0.18124200987595723 L 79.1290255090981 0.8414808909080482 L 78.93483805111885 0.8414808909080482 L 78.93483805111885 0.18124200987595723 ZM 79.71158732508525 0.18124200987595723 L 79.71158732508525 0.8414808909080482 L 79.50445764465469 0.8414808909080482 L 79.50445764465469 0.18124200987595723 ZM 78.54646425106155 0.19418806823774196 L 78.54646425106155 0.8544275072204472 L 78.35227065562553 0.8544275072204472 L 78.35227065562553 0.19418806823774196 ZM 77.34248772805442 0.4660513707449634 Q 76.09969290695258 1.3334244132484943 75.19347398267084 1.3334244132484943 Q 74.30021583269833 1.3334244132484943 73.62703091074042 0.4660513707449634 ZM 83.80248625132309 0.4660513707449634 Q 83.13421540965756 1.3399453215664838 82.1724937900591 1.3399453215664838 Q 82.16542343987358 1.3399453215664838 82.15833746707088 1.3398980352519145 Q 81.18740519873012 1.3334244132484943 80.16469678722613 0.4660513707449634 ZM 72.69492816925049 0.0 Q 73.62703091074042 1.8253672381506725 75.24526351664882 1.8253672381506725 Q 76.43628526331581 1.8253672381506725 77.40720999932327 1.0745059660220453 L 80.0352388538737 1.0745059660220453 Q 80.87670202984974 1.8253672381506725 82.21011528408594 1.8253672381506725 Q 83.80248625132309 1.8253672381506725 84.79931523947998 0.0 Z"
     style="fill:#ffffff;stroke:none"
     id="path16" />
  <path
     d="M 73.48163950102571 2.981123197098441 L 73.48163950102571 7.216911296830794 L 74.18955440769525 7.216911296830794 L 74.18955440769525 2.981123197098441 ZM 78.3492854694275 2.9869737332019812 L 78.3492854694275 7.216911296830794 L 79.05720037609704 7.216911296830794 L 79.05720037609704 2.9869737332019812 ZM 83.30469037406493 2.9869737332019812 L 83.30469037406493 7.216911296830794 L 84.01260472278386 7.216911296830794 L 84.01260472278386 2.9869737332019812 Z"
     style="fill:#ffffff;stroke:none"
     id="path18" />
  <path
     d="M 73.48163950102571 8.372667562464358 L 73.48163950102571 12.608455662196711 L 74.18955440769525 12.608455662196711 L 74.18955440769525 8.372667562464358 ZM 78.3492854694275 8.378518098567898 L 78.3492854694275 12.608455662196711 L 79.05720037609704 12.608455662196711 L 79.05720037609704 8.378518098567898 ZM 83.30469037406493 8.378518098567898 L 83.30469037406493 12.608455662196711 L 84.01260472278386 12.608455662196711 L 84.01260472278386 8.378518098567898 Z"
     style="fill:#ffffff;stroke:none"
     id="path20" />
  <path
     d="M 73.48163950102571 13.764211927830274 L 73.48163950102571 18.000000027562628 L 74.18955440769525 18.000000027562628 L 74.18955440769525 13.764211927830274 ZM 78.3492854694275 13.770062463933815 L 78.3492854694275 18.000000027562628 L 79.05720037609704 18.000000027562628 L 79.05720037609704 13.770062463933815 ZM 83.30469037406493 13.770062463933815 L 83.30469037406493 18.000000027562628 L 84.01260472278386 18.000000027562628 L 84.01260472278386 13.770062463933815 Z"
     style="fill:#ffffff;stroke:none"
     id="path22" />
  <path
     d="M 89.08173584580567 0.6441185245649959 Q 88.61964998131374 0.6441185245649959 88.61964998131374 0.9941833440999883 Q 88.61964998131374 1.2882370491299917 89.08173584580567 1.2882370491299917 Q 89.52981755456616 1.2882370491299917 89.52981755456616 0.9941833440999883 Q 89.52981755456616 0.6441185245649959 89.08173584580567 0.6441185245649959 ZM 89.43179979017101 0.4480826868912821 Q 90.49599536715395 0.4480826868912821 91.02809356748995 1.1342090453994897 Q 91.29414307950249 1.5682885546901288 91.54618905355042 2.4644530018224837 Q 91.53218675111941 2.6744920685774076 91.19612407957372 2.7445054340328303 Q 90.86006264356165 2.814517769876909 90.53800309813603 2.814517769876909 Q 89.05373041725458 2.2684172671099043 88.24158060839731 0.9241699786445657 Q 88.2975915684606 0.4480826868912821 89.43179979017101 0.4480826868912821 ZM 91.96626595152665 2.548468669708907 Q 92.23231505169466 2.7445054340328303 93.09347374274951 3.262600508248758 Q 93.95463243380436 3.780695788386955 95.78196852560245 5.411996351394738 Q 97.60930461740054 7.0432960907134445 98.54747741328178 7.330349262294754 Q 99.48565020916303 7.617401610186988 100.75288349576311 7.673411643600066 Q 102.02011595867413 7.72942250070222 102.66423422583628 7.967466172319145 Q 102.66423422583628 8.163502524798531 102.25816045398012 8.275522591624686 Q 98.7435129420721 7.869447996079452 97.09821131216692 7.519383433947295 Q 95.4529080348836 7.169318871815139 94.66876344865514 6.924273843060444 Q 93.88461886242666 6.679229226150287 92.66639466394642 5.993102816161513 Q 91.44817087731073 5.306976406172738 90.72003673633986 4.66285772716604 Q 89.99190259536903 4.01873946000388 89.7678612261831 3.654672183596186 Q 89.54382088660851 3.2906051131107596 90.32096308608787 3.2696016594642585 Q 91.09810631517857 3.2485982058177574 91.58119542739472 3.045560290278334 Q 92.06428412776634 2.842523404350254 91.96626595152665 2.548468669708907 ZM 102.7062423686629 8.03747892000776 L 102.81826243548906 8.149499810522991 Q 102.81826243548906 8.261519877349148 102.67823694011182 8.303528020175763 L 102.41218866363289 8.289525305900225 Q 102.7062423686629 8.163502524798531 102.7062423686629 8.03747892000776 ZM 102.88827600686675 8.20550984393607 L 103.00029607369291 8.345535339313303 L 102.79025865431612 8.331533448726839 Q 102.8742732925912 8.261519877349148 102.88827600686675 8.20550984393607 ZM 88.08755250170567 0.9941833440999883 Q 89.03972811482359 2.3524327290740588 90.3139617289501 2.8985334377633323 Q 90.15173575377807 2.889995076811554 90.00908536724098 2.889995076811554 Q 88.98200954434662 2.889995076811554 88.96971474936817 3.332612844092837 Q 88.96971474936817 4.032742586123956 91.3571540582088 5.741056842113586 Q 93.74459336704943 7.449370686258679 96.97918824082485 7.953463458043607 Q 98.37944648935347 8.135497096247454 98.54747741328178 8.499564372655149 Q 98.57548201814379 8.765612649134075 97.21723191244178 8.835626220511767 L 94.96281797737421 8.835626220511767 Q 94.73877619634375 8.345535339313303 94.13666524831913 7.939460743768068 L 94.13666524831913 7.939460743768068 L 94.2626888531099 8.289525305900225 Q 92.02227639678426 7.00128794788683 90.33496621220795 5.440000956256739 Q 88.64765540986481 3.8787135527821106 88.63365310743382 2.730502101990486 Q 88.63365310743382 2.184401599223481 88.08755250170567 1.358249487935205 Q 88.08755250170567 1.2322269127557794 87.33141375587282 1.1202058163182795 L 87.33141375587282 1.092201211456278 L 88.08755250170567 0.9941833440999883 ZM 99.06557289934224 8.373540767864379 L 102.9442868639689 9.059667177853154 Q 102.53821144473459 9.227698101781463 102.37718187794405 9.661778125877774 Q 102.21615231115351 10.09585732628501 102.41218866363289 10.711970988585168 L 98.39344920362902 9.12967992554177 Q 98.44945923704209 9.115677211266233 98.65949748010794 9.01065767788877 Q 98.86953654686286 8.905638968200384 99.0305661136534 8.72360615368561 Q 99.19159568044394 8.541571691792688 99.06557289934224 8.373540767864379 ZM 92.9744514950965 8.107491667696378 Q 94.4867298104513 9.115677211266233 94.45872520558929 9.423734454260849 Q 94.23468342455882 10.151868183387164 93.3665233763662 11.272073793783173 Q 92.90443833556336 11.272073793783173 92.49136320656942 11.174056441232556 Q 92.26893750350418 11.121277740060828 92.02824196491018 11.121277740060828 Q 91.82193173859793 11.121277740060828 91.6021990869635 11.160053726957019 Q 93.0444650664742 9.115677211266233 93.0444650664742 9.031661749302078 Q 93.0444650664742 8.485560834690535 92.96044919266551 8.107491667696378 ZM 89.41779748774002 0.0 Q 88.67566104433816 0.0 88.3045927196761 0.20303701462949772 Q 87.93352449797517 0.40607487868835407 87.90551896646296 0.7421364434018528 Q 86.79931545257568 0.8961645500934893 86.79931545257568 0.9661778125877775 L 86.79931545257568 1.2462293181479145 Q 86.82732094547747 1.3162425806422027 87.72348543122025 1.5822908571211296 Q 88.1995727744541 2.2124070277745576 88.1995727744541 2.730502101990486 Q 88.1995727744541 3.7106822170092637 88.91370451003282 4.66285772716604 Q 89.6278355248836 5.615033237322817 91.98026825395765 7.785432534115297 Q 92.19030732071258 7.785432534115297 92.4143486898985 9.031661749302078 L 91.09810631517857 11.048032836441786 Q 90.93007497940572 11.160053726957019 90.6500244004958 11.174056441232556 Q 90.18793935969295 11.02002740789071 89.17975381612308 11.02002740789071 Q 88.86008461639321 11.11838741509654 88.6123860732833 11.11838741509654 Q 88.43693381375009 11.11838741509654 88.2975915684606 11.069036907855095 Q 88.02554137857533 10.972685878303265 87.56996641585755 10.972685878303265 Q 87.46277157111349 10.972685878303265 87.34541605830383 10.978020088753171 Q 86.86932874724532 11.202061046094558 87.26140044189796 11.594133751053329 L 94.2626888531099 11.608135641639793 L 94.03864789576852 11.272073793783173 Q 94.47272709617575 10.557942778932398 95.15885350616452 9.311713563745618 L 97.67931736508916 9.311713563745618 L 103.14032156907012 11.42610282712502 L 103.19633242617229 11.230066474645634 Q 102.60822501611227 10.641958240896551 102.7062423686629 9.899821797494699 Q 102.91628143541782 9.297710849470079 103.81244526478338 9.101674496990693 L 103.81244526478338 8.905638968200384 L 101.57203404399135 8.499564372655149 L 101.57203404399135 8.485560834690535 L 103.67241976940613 8.625587153756843 Q 103.67241976940613 8.569577120343764 103.3153538501362 7.9114561389060665 Q 102.95828957824443 7.253334333779294 101.8100768919192 7.253334333779294 Q 99.9337321238458 7.1973243003662155 99.04456882792894 7.071301519264521 Q 98.155404708323 6.945277914473752 95.64894356367391 4.648855424735039 Q 93.14248283086935 2.3524327290740588 92.06428412776634 2.1003867550261326 Q 91.54618905355042 0.0 89.41779748774002 0.0 Z"
     style="fill:#ffffff;stroke:none"
     id="path24" />
  <path
     d="M 95.30587975987328 14.239413835977778 Q 98.30228260156548 14.239413835977778 101.66066581372746 15.687339972631037 Q 98.30228260156548 17.095045602643573 95.30587975987328 17.095045602643573 Q 92.32958786971756 17.095045602643573 88.9510944042352 15.687339972631037 Q 92.32958786971756 14.239413835977778 95.30587975987328 14.239413835977778 ZM 95.30587975987328 13.314350561834601 Q 91.60562480139093 13.314350561834601 86.79931545257568 15.667229719310676 Q 91.60562480139093 17.999999787159915 95.30587975987328 17.999999787159915 Q 99.00613471835564 17.999999787159915 103.81244406717087 15.667229719310676 Q 99.02624520441469 13.314350561834601 95.30587975987328 13.314350561834601 Z"
     style="fill:#ffffff;stroke:none"
     id="path26" />
  <path
     d="M 107.38300816756552 0.0 L 107.04645905463661 0.7291897446792944 L 105.98072019702842 3.113079294592372 L 105.81244564056396 3.4496284075212773 L 106.51358962583252 3.7861775204501824 L 106.68186418229698 3.4215826481105354 L 107.41105392697627 1.7668828428767518 L 107.77564879931592 2.41193530932382 L 108.11219791224482 3.0850335351816303 L 108.44874702517372 2.41193530932382 L 108.84138765692411 1.7107913240552677 L 109.20598252926376 2.41193530932382 L 109.54253164219266 3.0850335351816303 L 109.87908075512156 2.41193530932382 L 110.24367562746122 1.7107913240552677 L 110.63631625921161 2.41193530932382 L 110.9728653721405 3.0850335351816303 L 111.30941448506941 2.41193530932382 L 111.67400935740906 1.7388370834660098 L 112.03860422974871 2.41193530932382 L 112.40319910208835 3.0850335351816303 L 112.73974821501726 2.41193530932382 L 113.10434308735691 1.7107913240552677 L 113.46893795969656 2.41193530932382 L 113.8335328320362 3.0850335351816303 L 114.1700819449651 2.41193530932382 L 114.53467681730476 1.7107913240552677 L 114.89927168964441 2.41193530932382 L 115.26386656198405 3.0850335351816303 L 115.60041567491295 2.41193530932382 L 115.9650105472526 1.7107913240552677 L 116.32960541959226 2.41193530932382 L 116.66615453252115 3.0850335351816303 L 117.0307494048608 2.41193530932382 L 117.39534427720045 1.7107913240552677 L 117.7599391495401 2.41193530932382 L 118.096488262469 3.0850335351816303 L 118.46108313480865 2.41193530932382 L 118.8256780071483 1.7107913240552677 L 119.21831863889868 2.439981068734562 L 119.55486775182759 3.0569877757708883 L 119.91946262416724 2.439981068734562 L 120.31210325591763 1.6827455646445255 L 121.2937048352936 3.4496284075212773 L 121.4900251511688 3.7861775204501824 L 122.16312337702661 3.4215826481105354 L 121.99484882056215 3.0850335351816303 L 120.64865236884653 0.6730982258578102 L 120.31210325591763 0.08413727823222628 L 119.97555414298873 0.7011439852685524 L 119.55486775182759 1.4303337299478467 L 119.1622271200772 0.7011439852685524 L 118.79763224773755 0.056091518821484186 L 118.48912889421939 0.7011439852685524 L 118.096488262469 1.4022879705371047 L 117.73189339012936 0.7011439852685524 L 117.39534427720045 0.028045759410742093 L 117.05879516427154 0.7011439852685524 L 116.69420029193189 1.4022879705371047 L 116.30155966018151 0.7011439852685524 L 115.9650105472526 0.028045759410742093 L 115.6284614343237 0.7011439852685524 L 115.2358208025733 1.4022879705371047 L 114.87122593023366 0.7011439852685524 L 114.53467681730476 0.028045759410742093 L 114.19812770437585 0.7011439852685524 L 113.8335328320362 1.4022879705371047 L 113.44089220028582 0.7011439852685524 L 113.10434308735691 0.028045759410742093 L 112.767793974428 0.7011439852685524 L 112.40319910208835 1.3742422111263626 L 112.03860422974871 0.7011439852685524 L 111.67400935740906 0.028045759410742093 L 111.33746024448016 0.7011439852685524 L 110.9728653721405 1.4022879705371047 L 110.60827049980087 0.7011439852685524 L 110.24367562746122 0.028045759410742093 L 109.90712651453231 0.7011439852685524 L 109.54253164219266 1.4022879705371047 L 109.17793676985302 0.7011439852685524 L 108.84138765692411 0.028045759410742093 L 108.47679278458446 0.7011439852685524 L 108.11219791224482 1.4022879705371047 L 107.74760303990517 0.7011439852685524 L 107.38300816756552 0.0 Z"
     style="fill:#ffffff;stroke:none"
     id="path28" />
  <path
     d="M 106.42503862253172 5.464317679866099 L 106.4112771813616 5.467639623036196 C 106.21181895498972 5.511981732597203 106.01209704397894 5.555488388570307 105.81244564056396 5.599077985127112 C 105.8979663122416 6.3077266520882755 106.1735041581654 6.996089434619301 106.63115866250537 7.5466740841927855 C 107.0410199784333 8.046133639594487 107.61499711247694 8.443448410311078 108.26459467573642 8.534257981890423 C 108.48680286704366 8.555248861282017 108.7099419800065 8.562841380548289 108.93321155159578 8.562841380548289 C 109.1634464042871 8.562841380548289 109.3938201392579 8.554768497068084 109.62345540064621 8.544988419906705 C 110.46869856931835 8.500839838374334 111.31409422770949 8.272773968343234 112.02810638574996 7.809530073228692 C 112.45330387998503 7.537514333480336 112.82301455570651 7.185554238617431 113.14125757536624 6.794843611878012 C 113.17421090602784 6.764196202236176 113.21464876040402 6.756930261518226 113.25749189170752 6.756930261518226 C 113.2961257883882 6.756930261518226 113.33671570050116 6.76283891414249 113.375537941424 6.76283891414249 C 113.39196276888998 6.76283891414249 113.4080705214162 6.761781421700306 113.42358041056823 6.7587713696835 C 114.53647197887824 6.748512656237015 115.64970222123836 6.727685066119581 116.76273634367661 6.727685066119581 C 117.3945578391273 6.727685066119581 118.02631626517582 6.7343963416840324 118.65791399384341 6.753561664269798 C 118.66892176443645 6.751076902616429 118.6773808400095 6.749938197519372 118.68366445318925 6.749938197519372 C 118.74135654086842 6.749938197519372 118.61575166649779 6.8459600664056595 118.59702091801205 6.87849783018434 C 118.1383681297911 7.398405695325929 117.68974510444706 7.927219305642383 117.21540358644047 8.432854478672137 C 117.53594993522672 8.614069286485284 117.85646777318733 8.795348027665035 118.17723529686344 8.976168867705603 C 118.69924000363672 8.460871116674713 119.09553097652325 7.805474624271492 119.73552816721937 7.419299810703206 C 120.33871442614739 7.110693450112208 121.03474143699101 7.146373452462969 121.69182093207183 7.08831936369452 C 121.84891385345868 7.074557274551093 122.00606552442565 7.061433655109279 122.16312215930714 7.047283645944168 C 122.16312215930714 6.615163204863328 122.16312215930714 6.183042763782488 122.16312215930714 5.750921458737236 C 119.3754787735524 5.758467323925176 116.58770233727799 5.757908338949609 113.8003552913171 5.804570192960996 C 113.69584842792536 5.807448058422529 113.59141500150875 5.808795842907665 113.48704637242317 5.808795842907665 C 112.1783627567324 5.808795842907665 110.87986268958413 5.5969431290612315 109.57391438522667 5.534488005570163 C 109.44817646033636 5.5298303734167185 109.32215105128742 5.527125300837896 109.19611419471002 5.527125300837896 C 108.91657764474172 5.527125300837896 108.6369836411399 5.540430352806555 108.36033964402817 5.575238615064045 C 108.0847846740597 5.642273613911338 107.97145954188996 5.93164121494142 107.83901790112381 6.150762461399045 C 107.77435621252053 6.264975101012614 107.70510903279235 6.37636603285153 107.63361619356225 6.486412636062965 C 107.65883553078486 6.499064530934981 107.68306973258491 6.504377048113896 107.706566540758 6.504377048113896 C 107.80782921777688 6.504377048113896 107.89539071514349 6.40569503279829 107.989035601937 6.370426277508379 C 108.2126190085995 6.243049412125559 108.45673452955 6.113922154840887 108.7182701649709 6.113922154840887 C 108.75372121675208 6.113922154840887 108.78949215135736 6.1162954650849075 108.82557562508926 6.121366072228028 C 109.86311351319611 6.138950339936998 110.891943935961 6.287736243487571 111.92366431968922 6.384867442680856 C 111.71138264751146 6.846625319004092 111.23343926186479 7.100471887135505 110.77875120633763 7.271314802163993 C 109.9694783320592 7.586399167927785 109.09886787225862 7.734690019869394 108.2326597431273 7.748359664820571 C 107.76144988012872 7.7131168284630665 107.38442315375332 7.368398483314533 107.11804078596795 7.0046590976372975 C 106.77616747563323 6.549124356984857 106.59433504125995 6.001576542324998 106.42503862253172 5.464317679866099 Z"
     style="fill:#ffffff;stroke:none"
     id="path30" />
  <path
     d="M 109.48515893696596 11.164002775458298 C 110.48395007011969 11.164002775458298 111.37374900624943 11.625199068826957 111.95319041630455 12.346650967396926 L 107.01739292299033 12.346650967396926 C 107.59677172573572 11.625199068826957 108.48640617185298 11.164002775458298 109.48515893696596 11.164002775458298 ZM 112.28714584289462 12.856344464259362 C 112.47761568534955 13.21891830134425 112.59991277823025 13.62314946093068 112.6367637258987 14.052000458982498 L 106.33381961339617 14.052000458982498 C 106.37066570024865 13.62314946093068 106.49298994888791 13.21891830134425 106.68343749640024 12.856344464259362 ZM 112.6399493102541 14.561693955844937 C 112.60870891081312 14.989632416711618 112.49266062370248 15.393794099035087 112.30838307193056 15.757349950568074 L 106.66220026736431 15.757349950568074 C 106.47794475129146 15.393794099035087 106.36187041020722 14.989632416711618 106.33063402904078 14.561693955844937 ZM 111.98504625985845 16.26704344743051 C 111.40665478605328 17.01164371825483 110.50254249677982 17.49030783990036 109.48515893696596 17.49030783990036 C 108.46784200273635 17.49030783990036 107.56386763101474 17.011610535084465 106.98553707943643 16.26704344743051 ZM 109.48515893696596 10.65430927859586 C 107.46051812841455 10.65430927859586 105.81244563651329 12.302653194410318 105.81244564056396 14.327288040360806 C 105.81244564056396 16.351921849337216 107.4605182580363 18.0000013367628 109.48515893696596 18.0000013367628 C 111.50985807530904 18.0000013367628 113.15813769873091 16.351922886311293 113.15813769873091 14.327288040360806 C 113.15813769873091 12.302652157436246 111.50985859379607 10.65430927859586 109.48515893696596 10.65430927859586 Z"
     style="fill:#ffffff;stroke:none"
     id="path32" />
  <path
     d="M 118.49970030534212 14.787870634468673 C 119.40087978889343 14.787870634468673 120.52888600923276 15.250810696959116 121.07471432594923 15.796639013675582 C 121.55225749482346 16.274181777481818 121.61468738475946 16.90731439973484 121.63219158814252 17.495617336550374 L 115.39375555883663 17.495617336550374 C 115.4112599647537 16.90731439973484 115.4736898546897 16.274181777481818 115.95123282102993 15.796639013675582 C 116.4970613402804 15.250810696959116 117.5985212268588 14.787870634468673 118.49970030534212 14.787870634468673 ZM 118.49970030534212 14.283486444865218 C 117.43061223793305 14.283486444865218 116.28029385961239 14.777368031425237 115.60612784919599 15.45153404184164 C 114.9146494873092 16.14301265847821 114.83627829664334 17.05333817234879 114.83627829664334 17.734536163204645 L 114.83627829664334 18.00000152615383 L 122.16312231404089 18.00000152615383 L 122.16312231404089 17.734536163204645 C 122.16312231404089 17.05333817234879 122.11129791441974 16.14301265847821 121.41981929778316 15.45153404184164 C 120.74565369243476 14.777368031425237 119.5687885752852 14.283486444865218 118.49970030534212 14.283486444865218 Z"
     style="fill:#ffffff;stroke:none"
     id="path34" />
  <path
     d="M 124.16973686218262 0.0 L 124.16973686218262 7.329900276203034 L 125.39476170944852 7.329900276203034 L 125.39476170944852 0.0 ZM 132.59304763415003 0.010124171745981903 L 132.59304763415003 7.329900276203034 L 133.81807248141592 7.329900276203034 L 133.81807248141592 0.010124171745981903 ZM 141.1682225305276 0.010124171745981903 L 141.1682225305276 7.329900276203034 L 142.39324641227722 7.329900276203034 L 142.39324641227722 0.010124171745981903 Z"
     style="fill:#ffffff;stroke:none"
     id="path36" />
  <path
     d="M 139.98724901314947 11.429610678200788 C 140.92901938428028 11.475513253112467 141.44917390002044 11.494381372226599 141.6721772638293 11.494381372226599 C 141.71810494216422 11.494381372226599 141.7514287709998 11.493580959231736 141.77323592166564 11.492051581446617 L 141.77323592166564 11.492051581446617 L 141.64791190871844 16.410713986480346 C 140.83941947363698 16.081326177043024 140.34111845334402 15.747535613375817 139.77379846739993 15.29962006007554 L 139.98724901314947 11.429610678200788 ZM 126.31231320268991 10.206390380859375 C 126.28535091923418 10.206390380859375 126.2658769386553 10.20692238032882 126.2568872579654 10.207804862207354 C 125.94569243038448 10.265169080860915 125.53141341250449 10.454612064345952 125.58553639301118 10.837084924290593 C 125.58553639301118 11.752034218721406 125.58553639301118 12.667325305914801 125.58553639301118 13.582272669313056 C 124.97574268218415 13.550173115118582 124.34919320573981 13.522050522475183 124.16312313079834 13.512745842099434 L 124.16312313079834 13.512745842099434 C 124.16312313079834 13.85800673915503 124.44209033938793 14.329792751408263 125.33001576852787 14.329792751408263 C 125.33974189675918 15.107910044368623 125.47595451953698 16.06078578373456 125.6218495809345 16.547108609076645 C 125.62271866627466 16.546448195942162 125.62363735501364 16.54599633432383 125.62450656104335 16.545337852221905 L 125.73876020572052 17.820284718666812 C 125.73876020572052 17.96146250890672 125.98041649920295 18.000000125646125 126.24428437398235 18.000000125646125 C 126.5615684713526 18.000000125646125 126.91096684704057 17.944280181214822 126.91096684704057 17.944280181214822 L 126.85738286599634 16.664021044205697 L 126.85738286599634 16.664021044205697 C 131.85559270893995 16.702917833000697 141.39357754167278 16.95585413247511 141.86667665606475 16.95585413247511 C 142.11129020521864 16.95585413247511 142.27453583551957 16.693519497545935 142.27453583551957 16.328787999218434 L 142.39985984846678 10.83398561703666 L 139.39206712395716 10.802986751399658 L 139.14761771257062 15.08882661512439 C 136.96790967946546 15.095103436450813 133.20203895235542 15.453071493247535 130.6423428154483 15.453071493247535 C 129.8286694200165 15.453071493247535 129.13687652372468 15.416900356906694 128.6566557612626 15.32176224489001 C 128.55939206515885 15.205041947500376 127.61997489857775 13.835978485261421 127.02256339091936 13.687669391788631 C 126.97558136880834 13.676004989628268 126.83530440525625 13.662934795766432 126.66031737287175 13.649141430212012 C 126.56285236662391 12.821002669895961 126.46458525772773 11.992882254389201 126.36671232085224 11.164789838854517 C 126.5540956167362 10.934385792771081 126.969453961126 10.99709414402605 127.07969033394748 10.677661772936176 C 127.19264029026964 10.528001922189787 127.11595005640687 10.277594309848723 126.91140977763332 10.272016522307922 C 126.78147204514939 10.220210780869593 126.44969023809956 10.206390380859375 126.31231320268991 10.206390380859375 Z"
     style="fill:#ffffff;stroke:none"
     id="path38" />
  <path
     d="M 161.08448665113656 0.8504274018810136 Q 161.32746654674725 0.8504274018810136 161.32746654674725 1.0934106164539088 Q 161.32746654674725 1.3363866499994828 161.08448665113656 1.3363866499994828 L 145.53376669412813 1.3363866499994828 Q 145.25028683028677 1.3363866499994828 145.25028683028677 1.0934106164539088 Q 145.25028683028677 0.8504274018810136 145.53376669412813 0.8504274018810136 ZM 145.0478044287713 0.0 Q 144.39985942840576 0.0 144.39985942840576 1.0934106164539088 Q 144.39985942840576 2.1868212329078176 145.0478044287713 2.1868212329078176 L 161.57044644235793 2.1868212329078176 Q 162.1779029399986 2.1868212329078176 162.1779029399986 1.0934106164539088 Q 162.1779029399986 0.0 161.57044644235793 0.0 Z"
     style="fill:#ffffff;stroke:none"
     id="path40" />
  <path
     d="M 161.08448665113656 8.757016909937654 Q 161.32746654674725 8.757016909937654 161.32746654674725 9.00000012451055 Q 161.32746654674725 9.242976158056123 161.08448665113656 9.242976158056123 L 145.53376669412813 9.242976158056123 Q 145.25028683028677 9.242976158056123 145.25028683028677 9.00000012451055 Q 145.25028683028677 8.757016909937654 145.53376669412813 8.757016909937654 ZM 145.0478044287713 7.906589508056641 Q 144.39985942840576 7.906589508056641 144.39985942840576 9.00000012451055 Q 144.39985942840576 10.093410740964458 145.0478044287713 10.093410740964458 L 161.57044644235793 10.093410740964458 Q 162.1779029399986 10.093410740964458 162.1779029399986 9.00000012451055 Q 162.1779029399986 7.906589508056641 161.57044644235793 7.906589508056641 Z"
     style="fill:#ffffff;stroke:none"
     id="path42" />
  <path
     d="M 161.08448665113656 16.663606417994295 Q 161.32746654674725 16.663606417994295 161.32746654674725 16.90658963256719 Q 161.32746654674725 17.149565666112764 161.08448665113656 17.149565666112764 L 145.53376669412813 17.149565666112764 Q 145.25028683028677 17.149565666112764 145.25028683028677 16.90658963256719 Q 145.25028683028677 16.663606417994295 145.53376669412813 16.663606417994295 ZM 145.0478044287713 15.813179016113281 Q 144.39985942840576 15.813179016113281 144.39985942840576 16.90658963256719 Q 144.39985942840576 18.0000002490211 145.0478044287713 18.0000002490211 L 161.57044644235793 18.0000002490211 Q 162.1779029399986 18.0000002490211 162.1779029399986 16.90658963256719 Q 162.1779029399986 15.813179016113281 161.57044644235793 15.813179016113281 Z"
     style="fill:#ffffff;stroke:none"
     id="path44" />
  <path
     d="M 176.58117791126418 0.4218800930581693 C 176.45644896562 1.164961382780593 175.70280951544692 2.0702294411068958 174.6328389606669 2.7879242816260694 C 173.45931328839953 3.5750801619623784 171.93468178827848 4.140577329993825 170.59970921687383 4.140577329993825 C 169.26473664546918 4.140577329993825 167.7401053599274 3.5750801619623784 166.56657947308076 2.7879242816260694 C 165.49660881101107 2.0702294411068958 164.7429691999035 1.164961382780593 164.61824052248346 0.4218800930581693 ZM 164.3888432218831 0.0 C 164.27234907583983 1.2016441452665957E-5 164.17791482298728 0.09444579654896795 164.177903175354 0.21094004652908466 C 164.177903175354 1.2526221814950378 165.0964982182789 2.3098741913146594 166.331688942102 3.138392379765538 C 167.56687977321477 3.9669105682164165 169.14757505382983 4.5624574230519945 170.59970921687383 4.5624574230519945 C 172.0518429507592 4.5624574230519945 173.6327586043273 3.9669105682164165 174.86794922086077 3.138392379765538 C 176.10313983739422 2.3098741913146594 177.0217349876088 1.2526221814950378 177.0217349876088 0.21094004652908466 C 177.02172297116732 0.09444579654896795 176.9272891910598 1.2016441452665957E-5 176.8107949410797 0.0 Z"
     style="fill:#ffffff;stroke:none"
     id="path46" />
  <path
     d="M 170.4489719088245 5.951477019474851 C 170.37162729885878 5.951477019474851 170.29428252125302 5.958508354201991 170.21693791128732 5.965539688929131 C 169.0989556831236 6.085072380600203 168.30441482359515 7.217117265121342 168.48019819439304 8.31400546683896 C 168.55754287901095 9.12964037376852 169.06379900032005 9.586677208304238 169.61927442935757 10.036682547021169 C 171.27163814393273 11.049194810594397 170.80756998121834 10.67653391420307 172.47399643597095 11.520294301487514 L 172.7411872420417 11.0210694978796 C 170.75835068396742 10.092933172450763 170.51928535825155 9.945275113057992 169.90052780796566 9.537457743413256 C 169.3942717599991 9.12964037376852 168.993485634713 8.679635035051588 169.02864231751653 7.997595531157403 C 169.01457966115913 7.526496040264286 169.29583308167727 7.041333893013771 169.61224310117888 6.809299895476606 C 169.86537116707217 6.619453825101615 170.18881259857253 6.506952490422382 170.50522270189416 6.506952490422382 C 170.74428802761003 6.506952490422382 170.9692906969685 6.563203157761998 171.16616805361215 6.703829888976072 C 171.66539285722007 6.949926542870636 171.93961482382943 7.765561365980151 171.5739854232569 8.278848825945463 C 171.4052335469681 8.524945647480115 171.10288610000387 8.693697691408985 170.8005386530396 8.693697691408985 C 170.65288059364684 8.693697691408985 170.50522270189416 8.651509554696704 170.37865862703748 8.560102288373612 C 170.12553047732413 8.419475557159538 169.93568444885918 7.927282081730323 170.19584392675122 7.653060115120962 C 170.07631118007325 7.526496040264286 169.90755913614439 7.371806652692814 169.78099514510774 7.371806652692814 C 169.6966191231433 7.371806652692814 169.63333708571497 7.4350886063011075 169.59114911664278 7.582746665693881 C 169.30989573803467 8.257754841409366 169.75990116057164 9.024170283447942 170.4349092524671 9.2069851513743 C 170.55444199914507 9.24214162462771 170.67397474582305 9.263235776803894 170.7935073248609 9.263235776803894 C 171.5669542627183 9.263235776803894 172.28415040750596 8.616352913803206 172.28415040750596 7.8147808308711335 C 172.35446368929297 6.879613261083643 171.60914223179049 6.02179036936563 170.67397474582305 5.965539688929131 C 170.60366129639596 5.958508354201991 170.52631668643025 5.951477019474851 170.4489719088245 5.951477019474851 Z"
     style="fill:#ffffff;stroke:none"
     id="path48" />
  <path
     d="M 164.27161841957286 12.909313306635 L 164.27161841957286 17.99999960193576 L 165.12240996739592 17.99999960193576 L 165.12240996739592 12.909313306635 ZM 170.1216888287335 12.916344641362139 L 170.1216888287335 17.99999960193576 L 170.97248037655655 17.99999960193576 L 170.97248037655655 12.916344641362139 ZM 176.07723033405523 12.916344641362139 L 176.07723033405523 17.99999960193576 L 176.92802121131794 17.99999960193576 L 176.92802121131794 12.916344641362139 Z"
     style="fill:#ffffff;stroke:none"
     id="path50" />
</svg>
