<?xml version="1.0" encoding="UTF-8" standalone="no"?>
<svg
   width="70.7102279663086"
   height="18.0"
   version="1.1"
   id="svg30"
   sodipodi:docname="sekhemreneferkhau.svg"
   inkscape:version="1.1.1 (3bf5ae0d25, 2021-09-20)"
   xmlns:inkscape="http://www.inkscape.org/namespaces/inkscape"
   xmlns:sodipodi="http://sodipodi.sourceforge.net/DTD/sodipodi-0.dtd"
   xmlns="http://www.w3.org/2000/svg"
   xmlns:svg="http://www.w3.org/2000/svg">
  <defs
     id="defs34" />
  <sodipodi:namedview
     id="namedview32"
     pagecolor="#ffffff"
     bordercolor="#666666"
     borderopacity="1.0"
     inkscape:pageshadow="2"
     inkscape:pageopacity="0.0"
     inkscape:pagecheckerboard="0"
     showgrid="false"
     inkscape:zoom="19.44556"
     inkscape:cx="35.355114"
     inkscape:cy="9.0251964"
     inkscape:window-width="1920"
     inkscape:window-height="1001"
     inkscape:window-x="-9"
     inkscape:window-y="-9"
     inkscape:window-maximized="1"
     inkscape:current-layer="svg30" />
  <path
     d="M 1.2190420140847793 0.0 C 0.970800706632417 0.0 0.7230423028937335 0.01893070358296025 0.48290982680079 0.048905678499779795 C 0.15187998957905166 0.13255188916498697 0.3219916247400915 0.5118521231009919 0.6158947927962716 0.5118521231009919 C 0.6355981423211179 0.5118521231009919 0.6558578408244597 0.5101473851910305 0.6765601864318946 0.5065345630073116 C 1.2976180869590601 0.5780119512905144 2.0622053316712337 0.6175539511807123 2.531371224901928 0.9695623988344474 C 3.1537543888207784 1.6479367557428735 2.8741262715941502 3.0576933712068692 2.94658764204448 3.7269297850416896 C 2.951782632395561 3.7629649381631523 2.953952713884158 6.430591781037886 2.953952713884158 7.782422252231933 C 2.352510186605274 7.494257626556917 1.67335422808609 7.349215125535265 1.0039192969246102 7.349215125535265 C 0.7063920462481148 7.349215125535265 0.41078504023889434 7.377865539465801 0.12477432975315178 7.4353349446232855 C -0.20149863151174055 7.606724672263251 0.18154647682350566 7.8266562324049085 0.4376378670454302 7.8266562324049085 C 0.4681373192956425 7.8266562324049085 0.4968360674978842 7.823536850015894 0.5223214865886322 7.816844331348357 C 1.429843884416301 7.914926816832979 2.4617098179841825 8.158078494744517 2.9226503683594482 9.002292523011262 C 2.9681809889039896 9.155077638776014 2.9396896697969415 9.207577525716367 2.870237404087557 9.207577525716367 C 2.717627362869183 9.207577525716367 2.3672466519332462 8.954092059534803 2.1698535251191053 8.954092059534803 C 2.1594948014573196 8.954092059534803 2.1495575210365625 8.954790250504107 2.140092081444407 8.956259682604495 C 1.7610785167129768 8.874396440250864 1.3638924072290621 8.831466124503471 0.9703996331480379 8.831466124503471 C 0.6822712691518855 8.831466124503471 0.39612316158451694 8.854483949517657 0.1205398348885778 8.90208807080806 C -0.19080937123302597 9.107627344268586 0.19133570335568265 9.296978982841198 0.44461121617263977 9.296978982841198 C 0.47243301123084086 9.296978982841198 0.4986997685303211 9.294694058069421 0.5223214865886322 9.289895224364907 C 1.44862453664532 9.401605077048192 2.473672484380784 9.652726246647584 2.9226503683594482 10.498359836231193 C 2.9277747669676573 11.438445880183364 2.9223641381582497 12.059730482053933 2.9475081443234266 12.924290385186742 C 2.9366830234749024 13.190445840004433 3.1097205941872907 13.32271720601211 3.2850258807391146 13.32271720601211 C 3.4589948410141766 13.32271720601211 3.635197450466691 13.192454719453337 3.636159394664339 12.93350313443563 C 3.6297524037925992 12.081649745019838 3.5689455193688686 11.333930766029841 3.680643079957625 10.507654766912083 C 3.905950499841305 9.580679119782916 5.51430012614692 9.438421656179063 6.5132119200872856 9.209440304841713 C 6.73117182826633 8.953197897458422 6.302254993763335 8.858046549715155 6.0257896324592775 8.858046549715155 C 5.984500135730289 8.858046549715155 5.946610983551 8.860169218839136 5.914784994799312 8.86419400179096 C 5.786745621336966 8.854375779085794 5.657882677541108 8.84931073373403 5.528823762638173 8.84931073373403 C 4.87588245171773 8.84931073373403 4.21792069818853 8.978947377079876 3.636159394664339 9.278489565451865 C 3.6124626948293947 8.719755569414783 4.162693019870619 8.398265319455419 4.5568162027996815 8.173701395689454 C 5.178845705598769 7.90617273831141 5.863655500797704 7.879904181098088 6.5132119200872856 7.736389411825166 C 6.745102634598536 7.535056141910107 6.380132787867637 7.365650007124583 6.127413645979344 7.365650007124583 C 6.0940901289112 7.365650007124583 6.06271789404902 7.368595192973972 6.034923712303174 7.3748016471035225 C 5.875700348626306 7.359480780481324 5.715556482670491 7.35166300836024 5.555429474444318 7.35166300836024 C 4.887519202007935 7.35166300836024 4.219896213380853 7.487670468699637 3.6205083975033348 7.782422252231933 C 3.6327889023442115 5.672151988401518 3.6669749732456607 3.6298724602408705 3.6064121746990256 1.633623314068084 C 3.557780785508615 1.016382811297887 3.202148013782708 0.4498605441665941 2.6039100355477967 0.2652764822581205 C 2.1742288083663857 0.06980961445750675 1.6957449806778964 0.0 1.2190420140847793 0.0 Z"
     style="fill:#ffffff;stroke:none"
     id="path2" />
  <path
     d="M 3.29314921521244 15.21501288860129 C 4.074491287174412 15.21501288860129 5.052497037940845 15.616391919330065 5.5257419749406465 16.089636856329868 C 5.939782214238027 16.503676744424546 5.993910276899555 17.05261639954012 6.009086799211701 17.562687749346416 L 0.6002280514165623 17.562687749346416 C 0.615404749330059 17.05261639954012 0.6695328119915868 16.503676744424546 1.0835728756876173 16.089636856329868 C 1.5568179882887687 15.616391919330065 2.5118074944531683 15.21501288860129 3.29314921521244 15.21501288860129 ZM 3.29314921521244 14.777700904737003 C 2.3662267752924526 14.777700904737003 1.3688759017560481 15.205906904973462 0.7843594130436309 15.79042339368588 C 0.1848327417701466 16.38995028583294 0.11688322714550736 17.179222163577567 0.11688322714550736 17.769835531176867 L 0.11688322714550736 17.999999733210704 L 6.469415203279373 17.999999733210704 L 6.469415203279373 17.769835531176867 C 6.469415203279373 17.179222163577567 6.42448232973169 16.38995028583294 5.824955437584633 15.79042339368588 C 5.240439300074916 15.205906904973462 4.220071830733778 14.777700904737003 3.29314921521244 14.777700904737003 Z"
     style="fill:#ffffff;stroke:none"
     id="path4" />
  <path
     d="M 19.59558827849137 2.2331113889984504 Q 20.011497239301697 2.2331113889984504 20.406868373464476 2.6849636002931274 Q 17.14505908393548 6.568070899826414 16.329606932707488 7.024335296803508 Q 15.721254175199014 7.364724151693918 15.258781670883675 7.364724151693918 Q 15.101344397401952 7.364724151693918 14.960813057159163 7.325276517725049 Q 14.407469963604743 7.169951972435412 13.776464255096982 7.150536917736989 Q 13.760688966903167 7.150051524254103 13.744834947749503 7.150051524254103 Q 13.12652956999073 7.150051524254103 12.38825395561615 7.88832679632016 L 12.291175943655867 7.88832679632016 Q 12.815395428237089 6.665148911786697 13.75704954270708 6.140928742588433 Q 14.698701945634467 5.6167096003157315 19.2807685008913 2.2966530928403377 Q 19.439622247033235 2.2331113889984504 19.59558827849137 2.2331113889984504 ZM 13.822576293662692 0.46382689862325743 Q 13.87160069312572 0.46382689862325743 13.922081273037408 0.4715931515608784 L 13.922081273037408 5.461385397334616 Q 12.38825395561615 6.354500505824466 11.805788280014095 7.965988384347936 Q 12.698902703886905 1.79184917642032 13.058089773520756 1.0928900062739073 Q 13.381357725420997 0.46382689862325743 13.822576293662692 0.46382689862325743 ZM 9.823471846940608 8.280349468529765 Q 9.763159224955167 8.280349468529765 9.708909828226425 8.383422671928184 Q 9.611832586460313 8.567870141573977 9.883650198408658 8.897933602234632 Q 10.038974144658383 8.4902085535462 9.922481420308197 8.344591877914295 Q 9.871087133376625 8.280349468529765 9.823471846940608 8.280349468529765 ZM 9.850515161454094 8.003054920244196 Q 9.964842185368557 8.003054920244196 10.097221020296256 8.179560147583969 Q 10.388454200405805 8.567870141573977 9.922481420308197 9.732803546629212 Q 9.398261764572714 8.723195371480656 9.602124802379711 8.257221735611745 Q 9.713322784103013 8.003054920244196 9.850515161454094 8.003054920244196 ZM 14.931688078951879 9.926958201315696 L 14.931688078951879 10.218190867962463 Q 14.718118369566973 10.198775813264039 14.601625302908268 10.082282061988291 Q 14.640456096922156 10.024035528658937 14.756948478963821 9.926958201315696 ZM 15.378245975505326 10.587085807254049 L 17.183890562566404 10.839488364503968 L 17.552786186475032 11.499616655059363 Q 16.931489374550573 11.32487637045426 16.183991626309666 11.033644388424536 Q 15.43649319345172 10.742411037160727 15.378245975505326 10.587085807254049 ZM 11.39806151978306 10.315268879922746 L 11.747541404376221 10.490008479910806 L 11.864034128726408 11.32487637045426 L 11.553386065072697 12.276239381507548 L 11.067997716813883 12.276239381507548 L 11.39806151978306 11.32487637045426 L 11.39806151978306 10.315268879922746 ZM 12.232929752635034 10.606502231186555 L 12.562994240221252 10.703579558529796 L 12.679486964571439 11.32487637045426 L 12.368838216300684 12.276239381507548 L 11.883450552658914 12.276239381507548 L 12.21351435562809 11.32487637045426 L 12.232929752635034 10.606502231186555 ZM 13.37844604914072 10.72299461322822 L 13.494939115799427 11.32487637045426 L 13.184290367528675 12.276239381507548 L 12.698902703886905 12.276239381507548 L 13.028966164547558 11.32487637045426 L 13.028966164547558 10.742411037160727 L 13.37844604914072 10.72299461322822 ZM 12.635970993829574 8.307902566008263 Q 12.94616549869286 8.307902566008263 13.300783776495901 8.383422671928184 Q 14.349222745658347 8.606700935587865 14.621040357606692 9.441570195365404 L 15.43649319345172 9.441570195365404 L 15.747140914796912 8.936765765482605 Q 19.863233149567787 9.888126722684765 20.387455372617175 12.373316708850789 Q 19.261352076958786 11.752018527692242 18.018759137726903 11.538448133690293 L 17.475123229213175 10.451177001279875 L 15.319998757558931 10.159943650016068 L 15.378245975505326 9.635724850051886 L 14.640456096922156 9.635724850051886 Q 13.825002918768604 10.30727392210448 12.976631641685719 10.30727392210448 Q 12.794837747695311 10.30727392210448 12.611532561584353 10.276437401291815 Q 11.572801804388162 10.101698485920798 11.252445186459676 9.567771131681843 Q 10.93208856853119 9.033843092825846 11.592216516778063 8.596994435164216 Q 12.029066885982298 8.307902566008263 12.635970993829574 8.307902566008263 ZM 14.014203342229544 0.0 Q 13.306659502260182 0.0 12.902764885922597 0.4910087625106481 Q 12.407668668006053 1.0928900062739073 11.980527880002157 3.655740467965014 L 11.300984192439817 8.101897190322108 Q 10.97091987600786 8.451378444149354 10.7961802760198 8.4902085535462 L 10.563193800393865 8.4902085535462 Q 10.543778232232661 8.004819862978866 10.194298176485239 7.597094129673393 Q 9.883650198408658 4.626517849099683 10.466115788433582 2.3937311048006213 L 10.233129483961907 1.9471738928642175 Q 9.398261764572714 4.471192276884482 9.825403408347913 7.616509184371816 L 9.767156618287169 7.616509184371816 Q 8.427485014569381 4.607101425167175 9.378846196411509 1.9471738928642175 L 9.145859806362706 1.5976940082710553 L 9.145859806362706 1.5976940082710553 Q 7.90326545510817 4.4323618251791155 9.41767741831105 7.752417990345988 Q 8.99053577453585 8.684363892849726 9.330307190431368 9.286245650075767 Q 9.670079376521057 9.888126722684765 9.747741050125965 10.412346207265987 L 9.883650198408658 10.509424219226272 Q 10.407869083949969 9.732803546629212 10.485531356594787 9.16975258341706 L 10.679686695898312 9.16975258341706 Q 10.699102264059515 9.616309110736422 10.93208856853119 10.101698485920798 L 11.067997716813883 11.32487637045426 L 10.737933400381925 12.276239381507548 L 9.048781837190987 12.276239381507548 L 9.048781837190987 12.742211648142375 L 13.922081273037408 12.742211648142375 L 13.922081273037408 12.276239381507548 L 13.51435451280637 12.276239381507548 L 13.825003261077125 11.32487637045426 L 13.84441900039259 10.606502231186555 Q 14.19389820036871 10.490008479910806 14.368638484973811 10.33468393462117 Q 14.621040357606692 10.567671437172667 14.931688078951879 10.567671437172667 Q 14.912273708870499 10.76182609185915 15.009351720830782 10.89773421321628 Q 15.785971708810798 11.499616655059363 17.78577231979245 11.946173182378724 L 18.465315665046262 13.266429763489512 Q 18.465315665046262 12.942390932799807 18.666445882775246 12.942390932799807 Q 18.73044046079052 12.942390932799807 18.81479623425647 12.97519504299162 L 18.27116032574274 12.00442040032512 L 18.27116032574274 12.00442040032512 Q 19.39726088293296 12.256823642192083 19.97972758546058 12.645134320799134 Q 20.290376676039852 12.97519504299162 19.94089679144669 13.44116867886053 Q 20.71751746404375 13.11110658743396 20.814596160621075 12.509224145590878 Q 20.503945700807716 9.577479001339576 15.552985575493386 8.431961335599805 L 15.203506375517266 9.014428722744466 L 14.892857284937993 9.014428722744466 Q 14.640456096922156 8.198975202282393 12.893057700881908 7.88832679632016 Q 13.283009064230479 7.599008318923254 13.852256838599681 7.599008318923254 Q 14.161630487629424 7.599008318923254 14.523962345646407 7.684463587358902 Q 14.891470935427632 7.771140212597752 15.241644337084495 7.771140212597752 Q 15.87195550160299 7.771140212597752 16.446100683983236 7.490308248055377 Q 17.339214423239 7.053458905776705 20.989335075992095 2.665548716748965 Q 20.31660024722249 1.8173165880798985 19.56675152405883 1.8173165880798985 Q 19.321111613951302 1.8173165880798985 19.067196737655266 1.9083427565418083 L 14.349222745658347 5.286645797346556 L 14.349222745658347 0.025035944973045218 Q 14.173971736739798 0.0 14.014203342229544 0.0 Z"
     style="fill:#ffffff;stroke:none"
     id="path6" />
  <path
     d="M 14.787816725437374 15.285542133461169 C 15.549371373096287 15.285542133461169 16.502609207919512 15.676756272943992 16.963869255453197 16.13801632047768 C 17.367423959429352 16.541570682145313 17.42018123331472 17.07660848522664 17.434973411436005 17.573762319663377 L 12.163093570676018 17.573762319663377 C 12.177885919951562 17.07660848522664 12.230643193836931 16.541570682145313 12.634197726658826 16.13801632047768 C 13.095457945346773 15.676756272943992 14.02626242008698 15.285542133461169 14.787816725437374 15.285542133461169 ZM 14.787816725437374 14.859305039952915 C 13.884368520776045 14.859305039952915 12.912275476840618 15.276666758126694 12.34256182057423 15.846380414393082 C 11.758218113396996 16.430724336850286 11.69198941469321 17.200007968606588 11.69198941469321 17.775664100798863 L 11.69198941469321 17.99999941317163 L 17.883644036181536 17.99999941317163 L 17.883644036181536 17.775664100798863 C 17.883644036181536 17.200007968606588 17.839849083994995 16.430724336850286 17.25550516153779 15.846380414393082 C 16.685791847579925 15.276666758126694 15.691265101252963 14.859305039952915 14.787816725437374 14.859305039952915 Z"
     style="fill:#ffffff;stroke:none"
     id="path8" />
  <path
     d="M 33.655542253811426 8.203407192002246 C 33.14464679780286 8.243740548330095 32.86231004489047 8.499188095300077 32.808531814039966 8.969749289809286 C 32.875754738378824 9.48064510788646 33.15809149129121 9.749537529379097 33.655542253811426 9.776426916355803 C 34.15299301633164 9.749537529379097 34.4151629100458 9.48064510788646 34.4420515728853 8.969749289809286 C 34.40171821655745 8.499188095300077 34.13954832284329 8.243740548330095 33.655542253811426 8.203407192002246 ZM 33.7160424693375 6.509385226253514 C 34.079047383180004 6.509385226253514 34.415163272114405 6.576608422143824 34.7243894120035 6.711054813924445 C 35.03361518982398 6.845501205705066 35.30586833210295 7.030364654964103 35.54114883884041 7.2656453427358585 C 35.776429707646464 7.500926030507614 35.96129324742265 7.769818270965949 36.09573945816897 8.07232170204226 C 36.230185306846685 8.374825314152872 36.29740805015124 8.694134883641077 36.29740805015124 9.030250591541176 C 36.29740805015124 9.37981044982672 36.230185306846685 9.705842366059102 36.09573945816897 10.008346340238319 C 35.96129324742265 10.310849952348931 35.776429707646464 10.576381290986632 35.54114883884041 10.80493963201421 C 35.30586833210295 11.03349797304179 35.03361518982398 11.2116389850395 34.7243894120035 11.339363392144548 C 34.415163272114405 11.467087075112389 34.079047383180004 11.530948735562006 33.7160424693375 11.530948735562006 C 33.35303809859791 11.530948735562006 33.01356185094578 11.467087075112389 32.69761354534681 11.339363392144548 C 32.38166469664494 11.2116389850395 32.109411192297365 11.03349797304179 31.880853122821236 10.80493963201421 C 31.652294419725052 10.576381290986632 31.470792234355255 10.310849952348931 31.33634647619469 10.008346340238319 C 31.201900129672648 9.705842366059102 31.134676933782337 9.37981044982672 31.134676933782337 9.030250591541176 C 31.134676933782337 8.694134883641077 31.201900129672648 8.374825314152872 31.33634647619469 8.07232170204226 C 31.470792234355255 7.769818270965949 31.652294419725052 7.500926030507614 31.880853122821236 7.2656453427358585 C 32.109411192297365 7.030364654964103 32.38166469664494 6.845501205705066 32.69761354534681 6.711054813924445 C 33.01356185094578 6.576608422143824 33.35303809859791 6.509385226253514 33.7160424693375 6.509385226253514 ZM 33.67570947507826 5.823710203170776 C 33.23203676237424 5.823710203170776 32.815253617681236 5.907739107516513 32.42535967893063 6.075796916207987 C 32.03546592121433 6.243854747528749 31.699350575382834 6.472413088556328 31.417013731953297 6.761471961920012 C 31.134676933782337 7.050531423645179 30.909479630351118 7.386646678959522 30.741421821659646 7.769817908897345 C 30.573364612644298 8.152989681938074 30.489336013793945 8.566411562741841 30.489336013793945 9.010083370274344 C 30.489336013793945 9.45375535884115 30.573364612644298 9.867177239644917 30.741421821659646 10.250349012685646 C 30.909479630351118 10.633520785726375 31.134676933782337 10.966275229737235 31.417013731953297 11.24861198264962 C 31.699350575382834 11.530948735562006 32.03546592121433 11.756146355803253 32.42535967893063 11.924204119236151 C 32.815253617681236 12.09226115853184 33.23203676237424 12.17629004024829 33.67570947507826 12.17629004024829 C 34.11938146364506 12.17629004024829 34.532802982380225 12.09226115853184 34.915974031283746 11.924204119236151 C 35.299145804324475 11.756146355803253 35.63526133119027 11.530948735562006 35.92432097394974 11.24861198264962 C 36.213379892572 10.966275229737235 36.44193823359958 10.633520785726375 36.60999563496387 10.250349012685646 C 36.77805412253398 9.867177239644917 36.86208300425043 9.45375535884115 36.86208300425043 9.010083370274344 C 36.86208300425043 8.566411562741841 36.77805412253398 8.152989681938074 36.60999563496387 7.769817908897345 C 36.44193823359958 7.386646678959522 36.213379892572 7.050531423645179 35.92432097394974 6.761471961920012 C 35.63526133119027 6.472413088556328 35.299145804324475 6.243854747528749 34.915974031283746 6.075796916207987 C 34.532802982380225 5.907739107516513 34.11938146364506 5.823710203170776 33.67570947507826 5.823710203170776 Z"
     style="fill:#ffffff;stroke:none"
     id="path10" />
  <path
     d="M 40.84076192917627 2.5953820110450616 Q 40.75817065897247 3.466345324760725 40.75817065897247 4.5475411192669455 Q 40.75817065897247 5.628737003279129 40.86328682105003 6.732457600153148 Q 40.623021128717966 6.6048167252137535 40.11245637587689 6.6048167252137535 Q 39.594383415250526 6.6048167252137535 39.36162602020971 6.732457600153148 Q 39.47425056908449 5.628737003279129 39.46674227179324 4.5475411192669455 Q 39.459233974501984 3.466345324760725 39.38415091208348 2.5953820110450616 ZM 40.11245637587689 7.070331515295375 Q 40.623021128717966 7.077839633574701 41.14860247614155 7.340630575804385 L 41.013452945887046 7.5884045654277035 Q 40.907263965325676 7.569863584009007 40.814697076428594 7.569863584009007 Q 40.49492037213584 7.569863584009007 40.33770565263838 7.791128771303497 Q 40.2476059061314 7.393188477831236 40.11245637587689 7.303088910336185 Q 39.977307024634314 7.393188477831236 39.87969898083608 7.791128771303497 Q 39.72248435084458 7.569863584009007 39.402707557045865 7.569863584009007 Q 39.310140578642816 7.569863584009007 39.203951598081446 7.5884045654277035 L 39.068802112579924 7.340630575804385 Q 39.60940000983303 7.077839633574701 40.11245637587689 7.070331515295375 ZM 40.11245637587689 7.791128771303497 Q 40.22508101425763 7.8812283387985484 40.18753952780136 8.053919355509326 Q 40.14999804134509 8.226610372220101 40.11245637587689 8.38428479434837 Q 40.067406592129366 8.226610372220101 40.029865105673096 8.053919355509326 Q 39.99232361921682 7.8812283387985484 40.11245637587689 7.791128771303497 ZM 40.796224119542494 7.792493916265543 Q 40.8387142117332 7.792493916265543 40.88581171292379 7.7986368895828235 Q 40.37524713909465 9.014982482861441 40.11245637587689 9.014982482861441 Q 39.85717408896232 9.014982482861441 39.32408444424748 7.7986368895828235 Q 39.372205804159606 7.792493916265543 39.415440585970316 7.792493916265543 Q 39.6892610796187 7.792493916265543 39.7670744319613 8.038902760926817 Q 39.86468238625357 8.316709939715153 39.96979872734306 8.489401314449784 Q 40.08242318671187 8.669600449439887 40.11245637587689 8.669600449439887 Q 40.14999804134509 8.669600449439887 40.2476059061314 8.489401314449784 Q 40.35272224722088 8.316709939715153 40.442821814715934 8.038902760926817 Q 40.52711960562825 7.792493916265543 40.796224119542494 7.792493916265543 ZM 38.941160924369655 2.25 Q 39.30155955237372 4.802823585193447 38.9336526270784 6.852590714837072 Q 38.26541354161502 7.167939559093608 38.37803810447511 7.38568035955191 Q 38.46044637693856 7.5504966415550525 38.5669741487617 7.5504966415550525 Q 38.606034238155196 7.5504966415550525 38.648337061492846 7.5283381870976696 Q 39.30155955237372 8.264152037688302 39.72202455870781 9.26275647248476 Q 39.887207278127335 10.907074832352942 39.676974774960286 14.94654271331016 Q 39.676974774960286 15.749999801090459 40.09713116473071 15.749999801090459 Q 40.10102163095942 15.749999801090459 40.104948078585636 15.749931060510152 L 40.11245637587689 15.749931060510152 Q 40.11638282350311 15.749999801090459 40.12027328973182 15.749999801090459 Q 40.540429858514166 15.749999801090459 40.540429858514166 14.94654271331016 Q 40.33770565263838 10.907074832352942 40.495379895754716 9.26275647248476 Q 40.90833678380948 8.264152037688302 41.56155936419632 7.5283381870976696 Q 41.60386203089853 7.5504966415550525 41.64292207553905 7.5504966415550525 Q 41.7494499256799 7.5504966415550525 41.83185806668147 7.38568035955191 Q 41.944482705062214 7.167939559093608 41.28375200639606 6.852590714837072 Q 40.90833678380948 4.802823585193447 41.28375200639606 2.25 Z"
     style="fill:#ffffff;stroke:none"
     id="path12" />
  <path
     d="M 45.325033660784776 11.336883236536101 C 44.95316760501648 11.336883236536101 44.57971229132827 11.60068580738808 44.20466780874423 12.128290949092039 L 44.20466780874423 12.681322080936589 C 44.57971229132827 12.147360619745648 44.95316760501648 11.880380245246506 45.325033660784776 11.880380245246506 C 45.696899894601245 11.880380245246506 46.067176870497796 12.147360619745648 46.43586458847444 12.681322080936589 L 46.43586458847444 12.128290949092039 C 46.067176870497796 11.60068580738808 45.696899894601245 11.336883236536101 45.325033660784776 11.336883236536101 ZM 45.325033660784776 12.481086978110397 C 45.1947216332787 12.481086978110397 45.062820525900875 12.516049227963114 44.92933007157906 12.585972303283226 C 44.662349430007666 12.72581987830877 44.52885897568585 13.037297337987429 44.52885897568585 13.520404682319208 L 44.73862953700743 14.798098255046744 L 44.94679900020612 14.72181814804699 L 44.870518270037785 13.978086036510394 C 44.81966504341945 13.444124575319453 44.8959451504192 13.169185447849216 45.0993588581093 13.00391188268308 C 45.20106584549047 12.921274744003684 45.26463901105753 12.879956174663986 45.32741736961648 12.879956174663986 C 45.39019572817543 12.879956174663986 45.45217927972625 12.921274744003684 45.55070792931576 13.00391188268308 C 45.74776540654296 13.169185447849216 45.82086735379922 13.43776825583247 45.770014127180886 13.959016365856785 L 45.67466345928669 14.72181814804699 L 45.920972975985265 14.779028584393135 L 46.11167342153282 13.520404682319208 C 46.09896007036619 13.037297337987429 45.96546970506846 12.72581987830877 45.71120232563961 12.585972303283226 C 45.58406863592519 12.516049227963114 45.455345688290855 12.481086978110397 45.325033660784776 12.481086978110397 ZM 45.59678163099549 10.717106120825942 C 46.20702355528251 10.895093749351362 46.53757157585561 11.143004453196895 46.588425336618435 11.460838232362539 C 46.63927838518861 11.778672723720842 46.66152692777837 12.210928087771435 46.655170252195056 12.757602900129003 C 46.648813576611744 13.304278424679229 46.556641602605545 13.828704338350708 46.37865468627278 14.330882777721413 C 46.20066723579553 14.83306121709212 45.85104936652066 15.12229120247001 45.329801256496346 15.198569885084446 C 44.79583970628132 15.12229120247001 44.44304358823888 14.83306121709212 44.271412724320854 14.330882777721413 C 44.09978243905937 13.828704338350708 44.00761059858929 13.307455516133732 43.994897291934706 12.767137735455808 C 43.98218394076808 12.226819242585224 44.001253923005976 11.794564590727289 44.0521072386484 11.470373779882003 C 44.102960509778775 11.146182969036715 44.4335081297435 10.895093749351362 45.04374996500644 10.717106120825942 ZM 44.79904243667157 2.25 L 44.79904243667157 3.1653628864305383 L 44.07438017383675 3.1653628864305383 L 44.07438017383675 3.7374645791695214 L 44.79904243667157 3.7374645791695214 L 44.47485126972995 10.33570487363451 C 43.851896061044364 10.589972609159684 43.50545656850919 10.930055287011418 43.435532803252435 11.35595290718971 C 43.36560953319215 11.781851239560662 43.33700457096331 12.21728440725842 43.34971788874591 12.66225241028298 C 43.3624312065285 13.107220413307541 43.41328473916712 13.574436602825532 43.50227848700952 14.063901691029614 C 43.591272239720425 14.553366067041035 43.82329133250374 15.018980535267572 44.19833579283176 15.311389748677943 C 44.5733802754158 15.603796113317674 45.04692883694259 15.750000720022861 45.320266243121374 15.750000720022861 C 45.59360364930016 15.750000720022861 46.06715212180287 15.600618309670514 46.44219669341099 15.301854913351137 C 46.817241086970945 15.003090092646444 47.04926027990636 14.540653428067069 47.13825409416907 14.063901691029614 C 47.22724790843178 13.587149953992158 47.27810131309828 13.123112280313988 47.29081466426491 12.671787245609785 C 47.30352801543153 12.22046221090558 47.27492279725846 11.781851239560662 47.20499900974569 11.35595290718971 C 47.13507557832925 10.930055287011418 46.78227954931089 10.589972609159684 46.14661127878694 10.33570487363451 L 45.89869986274875 3.7374645791695214 L 46.56615222338192 3.7374645791695214 L 46.585222250131864 3.1653628864305383 L 45.8414899605471 3.1653628864305383 L 45.8414899605471 2.25 Z"
     style="fill:#ffffff;stroke:none"
     id="path14" />
  <path
     d="M 55.593679381812876 2.9400896803179943 Q 55.643434849433845 2.9400896803179943 55.69331342038032 2.9412632804406833 Q 55.71892687759501 2.9409619488446452 55.7445077486353 2.9409619488446452 Q 57.61191785181137 2.9409619488446452 59.30571823157419 4.546777304284696 L 58.257674449186936 5.394131709230365 Q 57.2765315311149 4.457581522548708 55.69331342038032 4.457581522548708 Q 54.110099654468996 4.457581522548708 53.12895040019638 5.394131709230365 L 52.08090652729197 4.546777304284696 Q 53.75273214879749 2.9400896803179943 55.593679381812876 2.9400896803179943 ZM 55.69331342038032 5.10424799832721 Q 57.454919111832226 5.126546898502632 58.592158494921165 6.955047480137779 L 52.77216980773266 6.955047480137779 Q 53.66412328026929 5.126546898502632 55.69331342038032 5.10424799832721 ZM 55.69331342038032 2.25 Q 52.928261022754796 2.361493708852035 51.03286337852478 4.524477679972065 L 52.61607859271052 5.862405173262474 Q 51.94711403141096 6.754357197524683 51.7910228616474 7.534817798492924 L 59.57330358540483 7.534817798492924 Q 59.41721146521118 6.754357197524683 58.748249890977604 5.884705702746615 L 60.219971871526354 4.546777304284696 Q 58.45836545593724 2.361493708852035 55.69331342038032 2.25 Z"
     style="fill:#ffffff;stroke:none"
     id="path16" />
  <path
     d="M 48.79260194301605 10.252575159072876 L 48.79260194301605 15.750000366225152 L 49.71137057846548 15.750000366225152 L 49.71137057846548 10.252575159072876 ZM 55.11008502199161 10.260168287882362 L 55.11008502199161 15.750000366225152 L 56.02885365744103 15.750000366225152 L 56.02885365744103 10.260168287882362 ZM 61.54146619427479 10.260168287882362 L 61.54146619427479 15.750000366225152 L 62.460234105587006 15.750000366225152 L 62.460234105587006 10.260168287882362 Z"
     style="fill:#ffffff;stroke:none"
     id="path18" />
  <path
     d="M 30.489336013793945 0.375 C 20.86433607339859 0.375 20.86433607339859 17.625 30.489336013793945 17.625 "
     style="fill:none;stroke:#ffffff;stroke-width:1"
     id="path20" />
  <path
     d="M 30.489336013793945 0.375 L 62.46023178100586 0.375 "
     style="fill:none;stroke:#ffffff;stroke-width:1"
     id="path22" />
  <path
     d="M 30.489336013793945 17.625 L 62.46023178100586 17.625 "
     style="fill:none;stroke:#ffffff;stroke-width:1"
     id="path24" />
  <path
     d="M 70.14773178100586 0.375 L 70.14773178100586 17.625 "
     style="fill:none;stroke:#ffffff;stroke-width:1"
     id="path26" />
  <path
     d="M 62.46023178100586 0.375 C 72.08523368835449 0.375 72.08523368835449 17.625 62.46023178100586 17.625 "
     style="fill:none;stroke:#ffffff;stroke-width:1"
     id="path28" />
</svg>
