<?xml version="1.0" encoding="UTF-8" standalone="no"?>
<svg
   width="78.2190933227539"
   height="18.0"
   version="1.1"
   id="svg32"
   sodipodi:docname="senen.svg"
   inkscape:version="1.1.1 (3bf5ae0d25, 2021-09-20)"
   xmlns:inkscape="http://www.inkscape.org/namespaces/inkscape"
   xmlns:sodipodi="http://sodipodi.sourceforge.net/DTD/sodipodi-0.dtd"
   xmlns="http://www.w3.org/2000/svg"
   xmlns:svg="http://www.w3.org/2000/svg">
  <defs
     id="defs36" />
  <sodipodi:namedview
     id="namedview34"
     pagecolor="#ffffff"
     bordercolor="#666666"
     borderopacity="1.0"
     inkscape:pageshadow="2"
     inkscape:pageopacity="0.0"
     inkscape:pagecheckerboard="0"
     showgrid="false"
     inkscape:zoom="17.578828"
     inkscape:cx="39.109547"
     inkscape:cy="9.0165282"
     inkscape:window-width="1920"
     inkscape:window-height="1001"
     inkscape:window-x="-9"
     inkscape:window-y="-9"
     inkscape:window-maximized="1"
     inkscape:current-layer="svg32" />
  <path
     d="M 1.2190420140847793 0.0 C 0.970800706632417 0.0 0.7230423028937335 0.01893070358296025 0.48290982680079 0.048905678499779795 C 0.15187998957905166 0.13255188916498697 0.3219916247400915 0.5118521231009919 0.6158947927962716 0.5118521231009919 C 0.6355981423211179 0.5118521231009919 0.6558578408244597 0.5101473851910305 0.6765601864318946 0.5065345630073116 C 1.2976180869590601 0.5780119512905144 2.0622053316712337 0.6175539511807123 2.531371224901928 0.9695623988344474 C 3.1537543888207784 1.6479367557428735 2.8741262715941502 3.0576933712068692 2.94658764204448 3.7269297850416896 C 2.951782632395561 3.7629649381631523 2.953952713884158 6.430591781037886 2.953952713884158 7.782422252231933 C 2.352510186605274 7.494257626556917 1.67335422808609 7.349215125535265 1.0039192969246102 7.349215125535265 C 0.7063920462481148 7.349215125535265 0.41078504023889434 7.377865539465801 0.12477432975315178 7.4353349446232855 C -0.20149863151174055 7.606724672263251 0.18154647682350566 7.8266562324049085 0.4376378670454302 7.8266562324049085 C 0.4681373192956425 7.8266562324049085 0.4968360674978842 7.823536850015894 0.5223214865886322 7.816844331348357 C 1.429843884416301 7.914926816832979 2.4617098179841825 8.158078494744517 2.9226503683594482 9.002292523011262 C 2.9681809889039896 9.155077638776014 2.9396896697969415 9.207577525716367 2.870237404087557 9.207577525716367 C 2.717627362869183 9.207577525716367 2.3672466519332462 8.954092059534803 2.1698535251191053 8.954092059534803 C 2.1594948014573196 8.954092059534803 2.1495575210365625 8.954790250504107 2.140092081444407 8.956259682604495 C 1.7610785167129768 8.874396440250864 1.3638924072290621 8.831466124503471 0.9703996331480379 8.831466124503471 C 0.6822712691518855 8.831466124503471 0.39612316158451694 8.854483949517657 0.1205398348885778 8.90208807080806 C -0.19080937123302597 9.107627344268586 0.19133570335568265 9.296978982841198 0.44461121617263977 9.296978982841198 C 0.47243301123084086 9.296978982841198 0.4986997685303211 9.294694058069421 0.5223214865886322 9.289895224364907 C 1.44862453664532 9.401605077048192 2.473672484380784 9.652726246647584 2.9226503683594482 10.498359836231193 C 2.9277747669676573 11.438445880183364 2.9223641381582497 12.059730482053933 2.9475081443234266 12.924290385186742 C 2.9366830234749024 13.190445840004433 3.1097205941872907 13.32271720601211 3.2850258807391146 13.32271720601211 C 3.4589948410141766 13.32271720601211 3.635197450466691 13.192454719453337 3.636159394664339 12.93350313443563 C 3.6297524037925992 12.081649745019838 3.5689455193688686 11.333930766029841 3.680643079957625 10.507654766912083 C 3.905950499841305 9.580679119782916 5.51430012614692 9.438421656179063 6.5132119200872856 9.209440304841713 C 6.73117182826633 8.953197897458422 6.302254993763335 8.858046549715155 6.0257896324592775 8.858046549715155 C 5.984500135730289 8.858046549715155 5.946610983551 8.860169218839136 5.914784994799312 8.86419400179096 C 5.786745621336966 8.854375779085794 5.657882677541108 8.84931073373403 5.528823762638173 8.84931073373403 C 4.87588245171773 8.84931073373403 4.21792069818853 8.978947377079876 3.636159394664339 9.278489565451865 C 3.6124626948293947 8.719755569414783 4.162693019870619 8.398265319455419 4.5568162027996815 8.173701395689454 C 5.178845705598769 7.90617273831141 5.863655500797704 7.879904181098088 6.5132119200872856 7.736389411825166 C 6.745102634598536 7.535056141910107 6.380132787867637 7.365650007124583 6.127413645979344 7.365650007124583 C 6.0940901289112 7.365650007124583 6.06271789404902 7.368595192973972 6.034923712303174 7.3748016471035225 C 5.875700348626306 7.359480780481324 5.715556482670491 7.35166300836024 5.555429474444318 7.35166300836024 C 4.887519202007935 7.35166300836024 4.219896213380853 7.487670468699637 3.6205083975033348 7.782422252231933 C 3.6327889023442115 5.672151988401518 3.6669749732456607 3.6298724602408705 3.6064121746990256 1.633623314068084 C 3.557780785508615 1.016382811297887 3.202148013782708 0.4498605441665941 2.6039100355477967 0.2652764822581205 C 2.1742288083663857 0.06980961445750675 1.6957449806778964 0.0 1.2190420140847793 0.0 Z"
     style="fill:#ffffff;stroke:none"
     id="path2" />
  <path
     d="M 3.29314921521244 15.21501288860129 C 4.074491287174412 15.21501288860129 5.052497037940845 15.616391919330065 5.5257419749406465 16.089636856329868 C 5.939782214238027 16.503676744424546 5.993910276899555 17.05261639954012 6.009086799211701 17.562687749346416 L 0.6002280514165623 17.562687749346416 C 0.615404749330059 17.05261639954012 0.6695328119915868 16.503676744424546 1.0835728756876173 16.089636856329868 C 1.5568179882887687 15.616391919330065 2.5118074944531683 15.21501288860129 3.29314921521244 15.21501288860129 ZM 3.29314921521244 14.777700904737003 C 2.3662267752924526 14.777700904737003 1.3688759017560481 15.205906904973462 0.7843594130436309 15.79042339368588 C 0.1848327417701466 16.38995028583294 0.11688322714550736 17.179222163577567 0.11688322714550736 17.769835531176867 L 0.11688322714550736 17.999999733210704 L 6.469415203279373 17.999999733210704 L 6.469415203279373 17.769835531176867 C 6.469415203279373 17.179222163577567 6.42448232973169 16.38995028583294 5.824955437584633 15.79042339368588 C 5.240439300074916 15.205906904973462 4.220071830733778 14.777700904737003 3.29314921521244 14.777700904737003 Z"
     style="fill:#ffffff;stroke:none"
     id="path4" />
  <path
     d="M 19.59558827849137 2.2331113889984504 Q 20.011497239301697 2.2331113889984504 20.406868373464476 2.6849636002931274 Q 17.14505908393548 6.568070899826414 16.329606932707488 7.024335296803508 Q 15.721254175199014 7.364724151693918 15.258781670883675 7.364724151693918 Q 15.101344397401952 7.364724151693918 14.960813057159163 7.325276517725049 Q 14.407469963604743 7.169951972435412 13.776464255096982 7.150536917736989 Q 13.760688966903167 7.150051524254103 13.744834947749503 7.150051524254103 Q 13.12652956999073 7.150051524254103 12.38825395561615 7.88832679632016 L 12.291175943655867 7.88832679632016 Q 12.815395428237089 6.665148911786697 13.75704954270708 6.140928742588433 Q 14.698701945634467 5.6167096003157315 19.2807685008913 2.2966530928403377 Q 19.439622247033235 2.2331113889984504 19.59558827849137 2.2331113889984504 ZM 13.822576293662692 0.46382689862325743 Q 13.87160069312572 0.46382689862325743 13.922081273037408 0.4715931515608784 L 13.922081273037408 5.461385397334616 Q 12.38825395561615 6.354500505824466 11.805788280014095 7.965988384347936 Q 12.698902703886905 1.79184917642032 13.058089773520756 1.0928900062739073 Q 13.381357725420997 0.46382689862325743 13.822576293662692 0.46382689862325743 ZM 9.823471846940608 8.280349468529765 Q 9.763159224955167 8.280349468529765 9.708909828226425 8.383422671928184 Q 9.611832586460313 8.567870141573977 9.883650198408658 8.897933602234632 Q 10.038974144658383 8.4902085535462 9.922481420308197 8.344591877914295 Q 9.871087133376625 8.280349468529765 9.823471846940608 8.280349468529765 ZM 9.850515161454094 8.003054920244196 Q 9.964842185368557 8.003054920244196 10.097221020296256 8.179560147583969 Q 10.388454200405805 8.567870141573977 9.922481420308197 9.732803546629212 Q 9.398261764572714 8.723195371480656 9.602124802379711 8.257221735611745 Q 9.713322784103013 8.003054920244196 9.850515161454094 8.003054920244196 ZM 14.931688078951879 9.926958201315696 L 14.931688078951879 10.218190867962463 Q 14.718118369566973 10.198775813264039 14.601625302908268 10.082282061988291 Q 14.640456096922156 10.024035528658937 14.756948478963821 9.926958201315696 ZM 15.378245975505326 10.587085807254049 L 17.183890562566404 10.839488364503968 L 17.552786186475032 11.499616655059363 Q 16.931489374550573 11.32487637045426 16.183991626309666 11.033644388424536 Q 15.43649319345172 10.742411037160727 15.378245975505326 10.587085807254049 ZM 11.39806151978306 10.315268879922746 L 11.747541404376221 10.490008479910806 L 11.864034128726408 11.32487637045426 L 11.553386065072697 12.276239381507548 L 11.067997716813883 12.276239381507548 L 11.39806151978306 11.32487637045426 L 11.39806151978306 10.315268879922746 ZM 12.232929752635034 10.606502231186555 L 12.562994240221252 10.703579558529796 L 12.679486964571439 11.32487637045426 L 12.368838216300684 12.276239381507548 L 11.883450552658914 12.276239381507548 L 12.21351435562809 11.32487637045426 L 12.232929752635034 10.606502231186555 ZM 13.37844604914072 10.72299461322822 L 13.494939115799427 11.32487637045426 L 13.184290367528675 12.276239381507548 L 12.698902703886905 12.276239381507548 L 13.028966164547558 11.32487637045426 L 13.028966164547558 10.742411037160727 L 13.37844604914072 10.72299461322822 ZM 12.635970993829574 8.307902566008263 Q 12.94616549869286 8.307902566008263 13.300783776495901 8.383422671928184 Q 14.349222745658347 8.606700935587865 14.621040357606692 9.441570195365404 L 15.43649319345172 9.441570195365404 L 15.747140914796912 8.936765765482605 Q 19.863233149567787 9.888126722684765 20.387455372617175 12.373316708850789 Q 19.261352076958786 11.752018527692242 18.018759137726903 11.538448133690293 L 17.475123229213175 10.451177001279875 L 15.319998757558931 10.159943650016068 L 15.378245975505326 9.635724850051886 L 14.640456096922156 9.635724850051886 Q 13.825002918768604 10.30727392210448 12.976631641685719 10.30727392210448 Q 12.794837747695311 10.30727392210448 12.611532561584353 10.276437401291815 Q 11.572801804388162 10.101698485920798 11.252445186459676 9.567771131681843 Q 10.93208856853119 9.033843092825846 11.592216516778063 8.596994435164216 Q 12.029066885982298 8.307902566008263 12.635970993829574 8.307902566008263 ZM 14.014203342229544 0.0 Q 13.306659502260182 0.0 12.902764885922597 0.4910087625106481 Q 12.407668668006053 1.0928900062739073 11.980527880002157 3.655740467965014 L 11.300984192439817 8.101897190322108 Q 10.97091987600786 8.451378444149354 10.7961802760198 8.4902085535462 L 10.563193800393865 8.4902085535462 Q 10.543778232232661 8.004819862978866 10.194298176485239 7.597094129673393 Q 9.883650198408658 4.626517849099683 10.466115788433582 2.3937311048006213 L 10.233129483961907 1.9471738928642175 Q 9.398261764572714 4.471192276884482 9.825403408347913 7.616509184371816 L 9.767156618287169 7.616509184371816 Q 8.427485014569381 4.607101425167175 9.378846196411509 1.9471738928642175 L 9.145859806362706 1.5976940082710553 L 9.145859806362706 1.5976940082710553 Q 7.90326545510817 4.4323618251791155 9.41767741831105 7.752417990345988 Q 8.99053577453585 8.684363892849726 9.330307190431368 9.286245650075767 Q 9.670079376521057 9.888126722684765 9.747741050125965 10.412346207265987 L 9.883650198408658 10.509424219226272 Q 10.407869083949969 9.732803546629212 10.485531356594787 9.16975258341706 L 10.679686695898312 9.16975258341706 Q 10.699102264059515 9.616309110736422 10.93208856853119 10.101698485920798 L 11.067997716813883 11.32487637045426 L 10.737933400381925 12.276239381507548 L 9.048781837190987 12.276239381507548 L 9.048781837190987 12.742211648142375 L 13.922081273037408 12.742211648142375 L 13.922081273037408 12.276239381507548 L 13.51435451280637 12.276239381507548 L 13.825003261077125 11.32487637045426 L 13.84441900039259 10.606502231186555 Q 14.19389820036871 10.490008479910806 14.368638484973811 10.33468393462117 Q 14.621040357606692 10.567671437172667 14.931688078951879 10.567671437172667 Q 14.912273708870499 10.76182609185915 15.009351720830782 10.89773421321628 Q 15.785971708810798 11.499616655059363 17.78577231979245 11.946173182378724 L 18.465315665046262 13.266429763489512 Q 18.465315665046262 12.942390932799807 18.666445882775246 12.942390932799807 Q 18.73044046079052 12.942390932799807 18.81479623425647 12.97519504299162 L 18.27116032574274 12.00442040032512 L 18.27116032574274 12.00442040032512 Q 19.39726088293296 12.256823642192083 19.97972758546058 12.645134320799134 Q 20.290376676039852 12.97519504299162 19.94089679144669 13.44116867886053 Q 20.71751746404375 13.11110658743396 20.814596160621075 12.509224145590878 Q 20.503945700807716 9.577479001339576 15.552985575493386 8.431961335599805 L 15.203506375517266 9.014428722744466 L 14.892857284937993 9.014428722744466 Q 14.640456096922156 8.198975202282393 12.893057700881908 7.88832679632016 Q 13.283009064230479 7.599008318923254 13.852256838599681 7.599008318923254 Q 14.161630487629424 7.599008318923254 14.523962345646407 7.684463587358902 Q 14.891470935427632 7.771140212597752 15.241644337084495 7.771140212597752 Q 15.87195550160299 7.771140212597752 16.446100683983236 7.490308248055377 Q 17.339214423239 7.053458905776705 20.989335075992095 2.665548716748965 Q 20.31660024722249 1.8173165880798985 19.56675152405883 1.8173165880798985 Q 19.321111613951302 1.8173165880798985 19.067196737655266 1.9083427565418083 L 14.349222745658347 5.286645797346556 L 14.349222745658347 0.025035944973045218 Q 14.173971736739798 0.0 14.014203342229544 0.0 Z"
     style="fill:#ffffff;stroke:none"
     id="path6" />
  <path
     d="M 14.787816725437374 15.285542133461169 C 15.549371373096287 15.285542133461169 16.502609207919512 15.676756272943992 16.963869255453197 16.13801632047768 C 17.367423959429352 16.541570682145313 17.42018123331472 17.07660848522664 17.434973411436005 17.573762319663377 L 12.163093570676018 17.573762319663377 C 12.177885919951562 17.07660848522664 12.230643193836931 16.541570682145313 12.634197726658826 16.13801632047768 C 13.095457945346773 15.676756272943992 14.02626242008698 15.285542133461169 14.787816725437374 15.285542133461169 ZM 14.787816725437374 14.859305039952915 C 13.884368520776045 14.859305039952915 12.912275476840618 15.276666758126694 12.34256182057423 15.846380414393082 C 11.758218113396996 16.430724336850286 11.69198941469321 17.200007968606588 11.69198941469321 17.775664100798863 L 11.69198941469321 17.99999941317163 L 17.883644036181536 17.99999941317163 L 17.883644036181536 17.775664100798863 C 17.883644036181536 17.200007968606588 17.839849083994995 16.430724336850286 17.25550516153779 15.846380414393082 C 16.685791847579925 15.276666758126694 15.691265101252963 14.859305039952915 14.787816725437374 14.859305039952915 Z"
     style="fill:#ffffff;stroke:none"
     id="path8" />
  <path
     d="M 31.79821123303514 2.25 C 31.1008408298792 2.25 30.489336013793945 2.7629982188611715 30.489336013793945 3.42148077115561 L 30.489336013793945 15.749999288300122 L 31.341322029179842 15.749999288300122 L 31.341322029179842 3.42148077115561 C 31.341322029179842 3.098508113273651 31.625215346436935 2.994011903683932 31.803594661154335 2.994011903683932 C 31.990765818919574 2.994011903683932 32.278974770288606 3.1252137636833535 32.278974770288606 3.5209571603146776 L 32.278974770288606 11.62395272807413 L 33.13096078567451 11.62395272807413 L 33.13096078567451 3.5209571603146776 C 33.13096078567451 2.861641676122041 32.478010064637274 2.25 31.79821123303514 2.25 Z"
     style="fill:#ffffff;stroke:none"
     id="path10" />
  <path
     d="M 35.861959626239226 2.25 C 35.61041501355241 2.25 35.3593597304976 2.269182611264559 35.11603185202228 2.2995564581199823 C 34.78059705655538 2.3843157348110164 34.95297233857131 2.7686632530247515 35.250786426544174 2.7686632530247515 C 35.27075196521993 2.7686632530247515 35.291281256116264 2.766935830454775 35.31225908434708 2.7632749330552384 C 35.941581297670375 2.83570345889602 36.716342775968286 2.8757716375135147 37.19175178065709 3.232464202245255 C 37.822416892428635 3.919865572373549 37.539067810980484 5.348381581489431 37.61249341267323 6.02652341147594 C 37.61775753188524 6.0630380783058655 37.61995649028242 8.766162581920678 37.61995649028242 10.135981633328903 C 37.54112940120461 10.190085476203556 37.622091035106216 10.541683229775957 37.588237609722164 11.372084512178846 C 37.634374098559604 11.526902713725455 37.60550365027173 11.580101207811888 37.5351271949695 11.580101207811888 C 37.38048639765674 11.580101207811888 37.02544322966093 11.32324265325963 36.82542342578107 11.32324265325963 C 36.81492686032959 11.32324265325963 36.804857346193316 11.323950134938475 36.795265951592015 11.325439120524132 C 36.41120891724164 11.242486537803458 36.00873751914894 11.198984955580794 35.61000860305079 11.198984955580794 C 35.318046163482165 11.198984955580794 35.02809033128083 11.222309074912536 34.74883986370917 11.270546656220748 C 34.43334758618306 11.47882100614729 34.82057780086454 11.670692315057073 35.07722360823816 11.670692315057073 C 35.105415623233526 11.670692315057073 35.13203190784484 11.668376985176506 35.155967956123646 11.663514294200782 C 36.0945971647288 11.776710651063793 37.13328525272159 12.031173447737789 37.588237609722164 12.888059740957079 C 37.593430197838885 13.840655351434203 37.58794757070393 14.470207282777462 37.61342616392084 15.346271738810112 C 37.60245699501388 15.615968879401612 37.777797147512345 15.750000358180948 37.955435191962664 15.750000358180948 C 38.13171912786771 15.750000358180948 38.31026643574331 15.618004490670723 38.311241180370246 15.355607080560343 C 38.30474893275095 14.49241822168092 38.24313290136586 13.734749472273819 38.356316802565516 12.897478357713775 C 38.58462235030753 11.958167601900273 40.21437401398524 11.814017142207314 41.22657815878992 11.581988774625064 C 41.44743842272755 11.322336592719218 41.01281406420651 11.225919082030344 40.73266982494087 11.225919082030344 C 40.690830895838715 11.225919082030344 40.65243755909801 11.22806999715456 40.62018806727863 11.232148337214703 C 40.49044489545607 11.222199465074969 40.3598671941884 11.217067020018478 40.229090914059164 11.217067020018478 C 39.56746102317479 11.217067020018478 38.90074388349812 11.348428716325635 38.311241180370246 11.651956862107136 C 38.28722915254494 11.085787886965592 38.296965566655366 10.642325701476523 38.29538191802817 10.135981633328903 C 38.30782583747695 7.997630358807127 38.34246681666144 5.9281745612140835 38.281098119163076 3.9053616641430824 C 38.23181960027407 3.2799076460452463 37.87145448320065 2.705846762598841 37.265255853029004 2.5188064716922396 C 36.829856930185024 2.320738559229909 36.34500599885523 2.25 35.861959626239226 2.25 Z"
     style="fill:#ffffff;stroke:none"
     id="path12" />
  <path
     d="M 44.018016507190154 2.25 C 43.76647189450334 2.25 43.51541661144853 2.269182611264559 43.27208873297321 2.2995564581199823 C 42.93665393750631 2.3843157348110164 43.109029219522235 2.7686632530247515 43.4068433074951 2.7686632530247515 C 43.42680884617086 2.7686632530247515 43.44733813706719 2.766935830454775 43.46831596529801 2.7632749330552384 C 44.0976381786213 2.83570345889602 44.872399656919214 2.8757716375135147 45.34780866160802 3.232464202245255 C 45.97847377337956 3.919865572373549 45.69512469193141 5.348381581489431 45.76855029362416 6.02652341147594 C 45.77381441283617 6.0630380783058655 45.77601337123335 8.766162581920678 45.77601337123335 10.135981633328903 C 45.697186282155535 10.190085476203556 45.778147916057144 10.541683229775957 45.74429449067309 11.372084512178846 C 45.79043097951053 11.526902713725455 45.761560531222656 11.580101207811888 45.691184075920425 11.580101207811888 C 45.53654327860767 11.580101207811888 45.18150011061186 11.32324265325963 44.981480306731996 11.32324265325963 C 44.97098374128052 11.32324265325963 44.960914227144244 11.323950134938475 44.95132283254294 11.325439120524132 C 44.567265798192565 11.242486537803458 44.164794400099865 11.198984955580794 43.766065484001714 11.198984955580794 C 43.47410304443309 11.198984955580794 43.18414721223176 11.222309074912536 42.9048967446601 11.270546656220748 C 42.58940446713399 11.47882100614729 42.97663468181547 11.670692315057073 43.233280489189085 11.670692315057073 C 43.261472504184454 11.670692315057073 43.28808878879577 11.668376985176506 43.312024837074574 11.663514294200782 C 44.25065404567973 11.776710651063793 45.28934213367252 12.031173447737789 45.74429449067309 12.888059740957079 C 45.74948707878981 13.840655351434203 45.74400445165486 14.470207282777462 45.76948304487177 15.346271738810112 C 45.75851387596481 15.615968879401612 45.93385402846327 15.750000358180948 46.11149207291359 15.750000358180948 C 46.28777600881864 15.750000358180948 46.466323316694236 15.618004490670723 46.46729806132117 15.355607080560343 C 46.460805813701874 14.49241822168092 46.39918978231679 13.734749472273819 46.512373683516444 12.897478357713775 C 46.740679231258454 11.958167601900273 48.37043089493617 11.814017142207314 49.38263503974085 11.581988774625064 C 49.60349530367848 11.322336592719218 49.16887094515744 11.225919082030344 48.8887267058918 11.225919082030344 C 48.84688777678964 11.225919082030344 48.80849444004894 11.22806999715456 48.77624494822956 11.232148337214703 C 48.646501776407 11.222199465074969 48.51592407513933 11.217067020018478 48.38514779501009 11.217067020018478 C 47.72351790412572 11.217067020018478 47.05680076444905 11.348428716325635 46.46729806132117 11.651956862107136 C 46.443286033495866 11.085787886965592 46.453022447606294 10.642325701476523 46.4514387989791 10.135981633328903 C 46.463882718427875 7.997630358807127 46.49852369761237 5.9281745612140835 46.437155000114004 3.9053616641430824 C 46.387876481225 3.2799076460452463 46.02751136415158 2.705846762598841 45.42131273397993 2.5188064716922396 C 44.98591381113595 2.320738559229909 44.501062879806156 2.25 44.018016507190154 2.25 Z"
     style="fill:#ffffff;stroke:none"
     id="path14" />
  <path
     d="M 52.27187203615904 2.25 L 51.98712969943881 2.8669417295604944 L 51.08544563315809 4.883866614662111 L 50.943074464797974 5.168608951382339 L 51.53628766629845 5.453351288102567 L 51.67865883465856 5.14488042332232 L 52.29560056421906 3.744897267781198 L 52.604071428999305 4.290653413161635 L 52.88881376571953 4.860138086602092 L 53.17355610243976 4.290653413161635 L 53.50575549528003 3.69744021166116 L 53.814226360060275 4.290653413161635 L 54.0989686967805 4.860138086602092 L 54.38371103350073 4.290653413161635 L 54.69218189828098 3.69744021166116 L 55.024381291121244 4.290653413161635 L 55.30912362784147 4.860138086602092 L 55.5938659645617 4.290653413161635 L 55.90233682934195 3.721168739721179 L 56.210807694122195 4.290653413161635 L 56.51927855890244 4.860138086602092 L 56.80402089562267 4.290653413161635 L 57.11249176040292 3.69744021166116 L 57.420962625183165 4.290653413161635 L 57.72943348996341 4.860138086602092 L 58.01417582668364 4.290653413161635 L 58.32264669146389 3.69744021166116 L 58.631117556244135 4.290653413161635 L 58.93958842102438 4.860138086602092 L 59.22433075774461 4.290653413161635 L 59.53280162252486 3.69744021166116 L 59.841272487305105 4.290653413161635 L 60.12601482402533 4.860138086602092 L 60.43448568880558 4.290653413161635 L 60.74295655358583 3.69744021166116 L 61.051427418366075 4.290653413161635 L 61.3361697550863 4.860138086602092 L 61.64464061986655 4.290653413161635 L 61.9531114846468 3.69744021166116 L 62.28531087748706 4.314381941221654 L 62.57005321420729 4.836409558542073 L 62.87852407898754 4.314381941221654 L 63.210723471827805 3.673711683601141 L 64.04122195392847 5.168608951382339 L 64.2073216503486 5.453351288102567 L 64.77680632378906 5.14488042332232 L 64.63443515542895 4.860138086602092 L 63.49546580854803 2.8194846734404564 L 63.210723471827805 2.321185584180057 L 62.92598113510758 2.8432132015004754 L 62.57005321420729 3.46015493106097 L 62.237853821367025 2.8432132015004754 L 61.92938295658678 2.297457056120038 L 61.66836914792657 2.8432132015004754 L 61.3361697550863 3.436426403000951 L 61.027698890306056 2.8432132015004754 L 60.74295655358583 2.273728528060019 L 60.4582142168656 2.8432132015004754 L 60.14974335208535 3.436426403000951 L 59.817543959245086 2.8432132015004754 L 59.53280162252486 2.273728528060019 L 59.24805928580463 2.8432132015004754 L 58.91585989296436 3.436426403000951 L 58.607389028184116 2.8432132015004754 L 58.32264669146389 2.273728528060019 L 58.03790435474366 2.8432132015004754 L 57.72943348996341 3.436426403000951 L 57.397234097123146 2.8432132015004754 L 57.11249176040292 2.273728528060019 L 56.82774942368269 2.8432132015004754 L 56.51927855890244 3.412697874940932 L 56.210807694122195 2.8432132015004754 L 55.90233682934195 2.273728528060019 L 55.61759449262172 2.8432132015004754 L 55.30912362784147 3.436426403000951 L 55.000652763061225 2.8432132015004754 L 54.69218189828098 2.273728528060019 L 54.40743956156075 2.8432132015004754 L 54.0989686967805 3.436426403000951 L 53.790497832000256 2.8432132015004754 L 53.50575549528003 2.273728528060019 L 53.19728463049978 2.8432132015004754 L 52.88881376571953 3.436426403000951 L 52.580342900939286 2.8432132015004754 L 52.27187203615904 2.25 Z"
     style="fill:#ffffff;stroke:none"
     id="path16" />
  <path
     d="M 52.27187203615904 12.546648502349854 L 51.98712969943881 13.163590231910348 L 51.08544563315809 15.180515117011964 L 50.943074464797974 15.465257453732193 L 51.53628766629845 15.74999979045242 L 51.67865883465856 15.441528925672174 L 52.29560056421906 14.041545770131052 L 52.604071428999305 14.587301915511489 L 52.88881376571953 15.156786588951945 L 53.17355610243976 14.587301915511489 L 53.50575549528003 13.994088714011014 L 53.814226360060275 14.587301915511489 L 54.0989686967805 15.156786588951945 L 54.38371103350073 14.587301915511489 L 54.69218189828098 13.994088714011014 L 55.024381291121244 14.587301915511489 L 55.30912362784147 15.156786588951945 L 55.5938659645617 14.587301915511489 L 55.90233682934195 14.017817242071033 L 56.210807694122195 14.587301915511489 L 56.51927855890244 15.156786588951945 L 56.80402089562267 14.587301915511489 L 57.11249176040292 13.994088714011014 L 57.420962625183165 14.587301915511489 L 57.72943348996341 15.156786588951945 L 58.01417582668364 14.587301915511489 L 58.32264669146389 13.994088714011014 L 58.631117556244135 14.587301915511489 L 58.93958842102438 15.156786588951945 L 59.22433075774461 14.587301915511489 L 59.53280162252486 13.994088714011014 L 59.841272487305105 14.587301915511489 L 60.12601482402533 15.156786588951945 L 60.43448568880558 14.587301915511489 L 60.74295655358583 13.994088714011014 L 61.051427418366075 14.587301915511489 L 61.3361697550863 15.156786588951945 L 61.64464061986655 14.587301915511489 L 61.9531114846468 13.994088714011014 L 62.28531087748706 14.611030443571508 L 62.57005321420729 15.133058060891926 L 62.87852407898754 14.611030443571508 L 63.210723471827805 13.970360185950994 L 64.04122195392847 15.465257453732193 L 64.2073216503486 15.74999979045242 L 64.77680632378906 15.441528925672174 L 64.63443515542895 15.156786588951945 L 63.49546580854803 13.11613317579031 L 63.210723471827805 12.61783408652991 L 62.92598113510758 13.139861703850329 L 62.57005321420729 13.756803433410823 L 62.237853821367025 13.139861703850329 L 61.92938295658678 12.594105558469892 L 61.66836914792657 13.139861703850329 L 61.3361697550863 13.733074905350804 L 61.027698890306056 13.139861703850329 L 60.74295655358583 12.570377030409873 L 60.4582142168656 13.139861703850329 L 60.14974335208535 13.733074905350804 L 59.817543959245086 13.139861703850329 L 59.53280162252486 12.570377030409873 L 59.24805928580463 13.139861703850329 L 58.91585989296436 13.733074905350804 L 58.607389028184116 13.139861703850329 L 58.32264669146389 12.570377030409873 L 58.03790435474366 13.139861703850329 L 57.72943348996341 13.733074905350804 L 57.397234097123146 13.139861703850329 L 57.11249176040292 12.570377030409873 L 56.82774942368269 13.139861703850329 L 56.51927855890244 13.709346377290785 L 56.210807694122195 13.139861703850329 L 55.90233682934195 12.570377030409873 L 55.61759449262172 13.139861703850329 L 55.30912362784147 13.733074905350804 L 55.000652763061225 13.139861703850329 L 54.69218189828098 12.570377030409873 L 54.40743956156075 13.139861703850329 L 54.0989686967805 13.733074905350804 L 53.790497832000256 13.139861703850329 L 53.50575549528003 12.570377030409873 L 53.19728463049978 13.139861703850329 L 52.88881376571953 13.733074905350804 L 52.580342900939286 13.139861703850329 L 52.27187203615904 12.546648502349854 Z"
     style="fill:#ffffff;stroke:none"
     id="path18" />
  <path
     d="M 67.86871610606798 3.2643775116271394 Q 67.76367960403525 3.2643775116271394 67.73620914704036 3.3742613990089803 Q 67.73620914704036 3.4868441778918733 67.85415237106602 3.4868441778918733 Q 67.87380963476312 3.4868441778918733 67.89674295984435 3.483716841170447 Q 68.05727766804065 3.4618257527381537 68.29078183531178 3.4034494870722947 Q 67.99890149191403 3.2721037623316143 67.88214896058231 3.2648067627005934 Q 67.87528112248552 3.2643775116271394 67.86871610606798 3.2643775116271394 ZM 67.7799906075911 3.1115691436745405 Q 67.98430731357352 3.1407572317378545 68.37834618904095 3.2429156742683003 Q 68.52428600258291 3.534796017666054 68.62644435557412 3.534796017666054 Q 68.74319688690584 3.534796017666054 68.81616724137297 3.447231663936881 Q 68.85545884672403 3.4191662187519487 68.88287665465108 3.4191662187519487 Q 68.92674532641281 3.4191662187519487 68.94021668279647 3.4910138408014673 Q 68.96210777122877 3.6077663721331854 68.74319688690584 3.855864538666353 Q 68.75779088616788 4.483408297718757 69.0496714086441 4.979604809863554 Q 68.84535523989706 4.848258995583643 68.72130579847355 4.848258995583643 Q 68.59725635705004 4.848258995583643 68.52428600258291 4.921229350050774 Q 68.52428600258291 4.687724287387338 68.49509872037267 4.3958439439895844 Q 68.33307479568624 4.223693669511498 68.13943170327538 4.223693669511498 Q 68.05400106942113 4.223693669511498 67.96241622514123 4.257200324225574 Q 67.85296114113669 4.297244954509411 67.78159712047385 4.297244954509411 Q 67.6578995682282 4.297244954509411 67.64864479331118 4.176933059666652 Q 67.57567452838329 4.030993246124699 67.6048626164466 3.8996467155309396 Q 67.57567452838329 3.7537061856751386 67.44432799778953 3.6953299200092795 L 67.7799906075911 3.1115691436745405 ZM 68.45861345359988 2.5278075614867226 Q 68.81616724137297 2.5278075614867226 69.22480011610244 2.6956392245444327 Q 69.63343299083192 2.8634708876021424 69.6480268110155 3.4910138408014673 Q 69.662620989356 4.206121237269197 69.662620989356 4.775288641116511 L 69.662620989356 6.760076838637243 L 69.42911628484948 6.760076838637243 L 69.42911628484948 5.008792808387637 Q 69.0350772303036 4.498001580666951 69.02048323104155 3.9288348931334847 Q 69.22480011610244 3.6369544601965 69.1956119384999 3.4034494870722947 Q 69.16642376089736 3.1845394086024412 68.96210777122877 3.1772424089714204 Q 68.94639095000989 3.1766810875322293 68.93127869767876 3.1766810875322293 Q 68.74993256509767 3.1766810875322293 68.65563253317667 3.2575096735303415 Q 68.61185035631208 3.053192878008682 68.29078183531178 2.980222613080781 Q 67.88214896058231 2.892658259351608 67.9259311374469 2.8780642153199514 Q 68.10105984490524 2.5278075614867226 68.45861345359988 2.5278075614867226 ZM 68.71993889257297 5.426547223658385 Q 68.76508869165198 5.426547223658385 68.81616724137297 5.432019861457613 Q 69.06426540790613 5.490395858505778 69.0496714086441 5.738495099509718 Q 69.10804758477073 6.876829190890499 68.97670105417697 7.86922293149394 Q 69.29777047056957 8.686488680952884 69.0496714086441 9.34322025945091 Q 68.88913741676164 10.321020179870771 68.93291887731237 12.334996017758662 Q 68.91832559436419 14.626259811488424 68.91832559436419 14.728417627244252 Q 69.12264158403276 15.312179030353608 68.88913741676164 15.355961565375118 L 67.44432799778953 15.355961565375118 Q 68.11565312785343 15.06408086382044 68.53888089723726 14.524101995732595 Q 68.65563253317667 13.969528232990397 68.59725635705004 13.07929266629971 Q 68.53888089723726 12.18905638329517 68.13754421628573 9.79563549012343 Q 67.73620914704036 7.402214596951689 68.37834618904095 5.694712922645131 Q 68.40388582205837 5.426547223658385 68.71993889257297 5.426547223658385 ZM 68.49360950388254 2.25 Q 67.89048828640149 2.25 67.72161434192523 2.629965959247553 Q 67.54648644031997 3.0240047899453675 67.3421696447983 3.2866970452798077 Q 67.15244756485254 3.563984195268599 67.09407138872591 3.6953299200092795 Q 67.09407138872591 3.7537061856751386 67.1378535655905 3.797488362539725 Q 67.26920009618426 3.855864538666353 67.29838818424757 3.9580228916575675 Q 67.3421696447983 4.308279590260412 67.3640607332306 4.410437943251626 Q 67.38595173212367 4.512596475321303 67.54648644031997 4.556377756793578 L 67.32757555599704 5.329861329387937 Q 67.0648833006626 5.417425683117109 67.22541791931967 5.577960212234951 Q 67.28848478714113 5.641027348674104 67.35155183404105 5.641027348674104 Q 67.44901895810204 5.641027348674104 67.54648644031997 5.490395858505778 L 67.96971331431148 4.556377756793578 Q 68.00619858108428 4.505298848915665 68.07552003280937 4.505298848915665 Q 68.14484166361291 4.505298848915665 68.2469996584472 4.556377756793578 L 68.20321748158261 5.183921515845983 L 68.18862348232057 5.183921515845983 Q 67.94052513670894 5.534178035370365 67.94052513670894 5.738495099509718 Q 67.38595173212367 7.402214596951689 67.61945670524787 9.04404246872598 Q 67.85296096205823 10.685871056814118 68.0718716673027 12.15257165375776 Q 68.29078183531178 13.619271534387554 68.23240565918515 14.13006276210824 Q 68.01349549117607 14.75760598392526 66.8167850445902 15.297584852013104 Q 66.27680563926697 15.42893102444994 66.27680563926697 15.750000082685624 L 69.25398811462652 15.750000082685624 Q 69.60424463415092 15.531090272833465 69.29777047056957 14.699229270563245 L 69.29777047056957 10.481554708988615 Q 69.29777047056957 9.649695139346091 69.44371010503306 9.474566431887744 Q 69.72099734456108 8.686488680952884 69.3561457513039 7.86922293149394 L 69.47289810355716 7.1687095342882525 L 69.96909551109425 7.1687095342882525 L 69.96909551109425 4.716912464989884 Q 69.96909551109425 3.797488362539725 69.95450133275375 3.4034494870722947 Q 69.93990751257017 3.009410701144095 69.75748243225543 2.6956392245444327 Q 69.57505663562682 2.381867736752366 68.53888089723726 2.2505212173510105 Q 68.51594739307757 2.25 68.49360950388254 2.25 Z"
     style="fill:#ffffff;stroke:none"
     id="path20" />
  <path
     d="M 30.489336013793945 0.375 C 20.86433607339859 0.375 20.86433607339859 17.625 30.489336013793945 17.625 "
     style="fill:none;stroke:#ffffff;stroke-width:1"
     id="path22" />
  <path
     d="M 30.489336013793945 0.375 L 69.96909523010254 0.375 "
     style="fill:none;stroke:#ffffff;stroke-width:1"
     id="path24" />
  <path
     d="M 30.489336013793945 17.625 L 69.96909523010254 17.625 "
     style="fill:none;stroke:#ffffff;stroke-width:1"
     id="path26" />
  <path
     d="M 77.65659523010254 0.375 L 77.65659523010254 17.625 "
     style="fill:none;stroke:#ffffff;stroke-width:1"
     id="path28" />
  <path
     d="M 69.96909523010254 0.375 C 79.59409713745117 0.375 79.59409713745117 17.625 69.96909523010254 17.625 "
     style="fill:none;stroke:#ffffff;stroke-width:1"
     id="path30" />
</svg>
