<?xml version="1.0" encoding="UTF-8" standalone="no"?>
<svg
   width="88.27332305908203"
   height="18.0"
   version="1.1"
   id="svg30"
   sodipodi:docname="setepenremeryimen.svg"
   inkscape:version="1.1.1 (3bf5ae0d25, 2021-09-20)"
   xmlns:inkscape="http://www.inkscape.org/namespaces/inkscape"
   xmlns:sodipodi="http://sodipodi.sourceforge.net/DTD/sodipodi-0.dtd"
   xmlns="http://www.w3.org/2000/svg"
   xmlns:svg="http://www.w3.org/2000/svg">
  <defs
     id="defs34" />
  <sodipodi:namedview
     id="namedview32"
     pagecolor="#ffffff"
     bordercolor="#666666"
     borderopacity="1.0"
     inkscape:pageshadow="2"
     inkscape:pageopacity="0.0"
     inkscape:pagecheckerboard="0"
     showgrid="false"
     inkscape:zoom="15.57662"
     inkscape:cx="44.136662"
     inkscape:cy="9.0199286"
     inkscape:window-width="1920"
     inkscape:window-height="1001"
     inkscape:window-x="-9"
     inkscape:window-y="-9"
     inkscape:window-maximized="1"
     inkscape:current-layer="svg30" />
  <path
     d="M 1.2190420140847793 0.0 C 0.970800706632417 0.0 0.7230423028937335 0.01893070358296025 0.48290982680079 0.048905678499779795 C 0.15187998957905166 0.13255188916498697 0.3219916247400915 0.5118521231009919 0.6158947927962716 0.5118521231009919 C 0.6355981423211179 0.5118521231009919 0.6558578408244597 0.5101473851910305 0.6765601864318946 0.5065345630073116 C 1.2976180869590601 0.5780119512905144 2.0622053316712337 0.6175539511807123 2.531371224901928 0.9695623988344474 C 3.1537543888207784 1.6479367557428735 2.8741262715941502 3.0576933712068692 2.94658764204448 3.7269297850416896 C 2.951782632395561 3.7629649381631523 2.953952713884158 6.430591781037886 2.953952713884158 7.782422252231933 C 2.352510186605274 7.494257626556917 1.67335422808609 7.349215125535265 1.0039192969246102 7.349215125535265 C 0.7063920462481148 7.349215125535265 0.41078504023889434 7.377865539465801 0.12477432975315178 7.4353349446232855 C -0.20149863151174055 7.606724672263251 0.18154647682350566 7.8266562324049085 0.4376378670454302 7.8266562324049085 C 0.4681373192956425 7.8266562324049085 0.4968360674978842 7.823536850015894 0.5223214865886322 7.816844331348357 C 1.429843884416301 7.914926816832979 2.4617098179841825 8.158078494744517 2.9226503683594482 9.002292523011262 C 2.9681809889039896 9.155077638776014 2.9396896697969415 9.207577525716367 2.870237404087557 9.207577525716367 C 2.717627362869183 9.207577525716367 2.3672466519332462 8.954092059534803 2.1698535251191053 8.954092059534803 C 2.1594948014573196 8.954092059534803 2.1495575210365625 8.954790250504107 2.140092081444407 8.956259682604495 C 1.7610785167129768 8.874396440250864 1.3638924072290621 8.831466124503471 0.9703996331480379 8.831466124503471 C 0.6822712691518855 8.831466124503471 0.39612316158451694 8.854483949517657 0.1205398348885778 8.90208807080806 C -0.19080937123302597 9.107627344268586 0.19133570335568265 9.296978982841198 0.44461121617263977 9.296978982841198 C 0.47243301123084086 9.296978982841198 0.4986997685303211 9.294694058069421 0.5223214865886322 9.289895224364907 C 1.44862453664532 9.401605077048192 2.473672484380784 9.652726246647584 2.9226503683594482 10.498359836231193 C 2.9277747669676573 11.438445880183364 2.9223641381582497 12.059730482053933 2.9475081443234266 12.924290385186742 C 2.9366830234749024 13.190445840004433 3.1097205941872907 13.32271720601211 3.2850258807391146 13.32271720601211 C 3.4589948410141766 13.32271720601211 3.635197450466691 13.192454719453337 3.636159394664339 12.93350313443563 C 3.6297524037925992 12.081649745019838 3.5689455193688686 11.333930766029841 3.680643079957625 10.507654766912083 C 3.905950499841305 9.580679119782916 5.51430012614692 9.438421656179063 6.5132119200872856 9.209440304841713 C 6.73117182826633 8.953197897458422 6.302254993763335 8.858046549715155 6.0257896324592775 8.858046549715155 C 5.984500135730289 8.858046549715155 5.946610983551 8.860169218839136 5.914784994799312 8.86419400179096 C 5.786745621336966 8.854375779085794 5.657882677541108 8.84931073373403 5.528823762638173 8.84931073373403 C 4.87588245171773 8.84931073373403 4.21792069818853 8.978947377079876 3.636159394664339 9.278489565451865 C 3.6124626948293947 8.719755569414783 4.162693019870619 8.398265319455419 4.5568162027996815 8.173701395689454 C 5.178845705598769 7.90617273831141 5.863655500797704 7.879904181098088 6.5132119200872856 7.736389411825166 C 6.745102634598536 7.535056141910107 6.380132787867637 7.365650007124583 6.127413645979344 7.365650007124583 C 6.0940901289112 7.365650007124583 6.06271789404902 7.368595192973972 6.034923712303174 7.3748016471035225 C 5.875700348626306 7.359480780481324 5.715556482670491 7.35166300836024 5.555429474444318 7.35166300836024 C 4.887519202007935 7.35166300836024 4.219896213380853 7.487670468699637 3.6205083975033348 7.782422252231933 C 3.6327889023442115 5.672151988401518 3.6669749732456607 3.6298724602408705 3.6064121746990256 1.633623314068084 C 3.557780785508615 1.016382811297887 3.202148013782708 0.4498605441665941 2.6039100355477967 0.2652764822581205 C 2.1742288083663857 0.06980961445750675 1.6957449806778964 0.0 1.2190420140847793 0.0 Z"
     style="fill:#ffffff;stroke:none"
     id="path2" />
  <path
     d="M 3.29314921521244 15.21501288860129 C 4.074491287174412 15.21501288860129 5.052497037940845 15.616391919330065 5.5257419749406465 16.089636856329868 C 5.939782214238027 16.503676744424546 5.993910276899555 17.05261639954012 6.009086799211701 17.562687749346416 L 0.6002280514165623 17.562687749346416 C 0.615404749330059 17.05261639954012 0.6695328119915868 16.503676744424546 1.0835728756876173 16.089636856329868 C 1.5568179882887687 15.616391919330065 2.5118074944531683 15.21501288860129 3.29314921521244 15.21501288860129 ZM 3.29314921521244 14.777700904737003 C 2.3662267752924526 14.777700904737003 1.3688759017560481 15.205906904973462 0.7843594130436309 15.79042339368588 C 0.1848327417701466 16.38995028583294 0.11688322714550736 17.179222163577567 0.11688322714550736 17.769835531176867 L 0.11688322714550736 17.999999733210704 L 6.469415203279373 17.999999733210704 L 6.469415203279373 17.769835531176867 C 6.469415203279373 17.179222163577567 6.42448232973169 16.38995028583294 5.824955437584633 15.79042339368588 C 5.240439300074916 15.205906904973462 4.220071830733778 14.777700904737003 3.29314921521244 14.777700904737003 Z"
     style="fill:#ffffff;stroke:none"
     id="path4" />
  <path
     d="M 19.59558827849137 2.2331113889984504 Q 20.011497239301697 2.2331113889984504 20.406868373464476 2.6849636002931274 Q 17.14505908393548 6.568070899826414 16.329606932707488 7.024335296803508 Q 15.721254175199014 7.364724151693918 15.258781670883675 7.364724151693918 Q 15.101344397401952 7.364724151693918 14.960813057159163 7.325276517725049 Q 14.407469963604743 7.169951972435412 13.776464255096982 7.150536917736989 Q 13.760688966903167 7.150051524254103 13.744834947749503 7.150051524254103 Q 13.12652956999073 7.150051524254103 12.38825395561615 7.88832679632016 L 12.291175943655867 7.88832679632016 Q 12.815395428237089 6.665148911786697 13.75704954270708 6.140928742588433 Q 14.698701945634467 5.6167096003157315 19.2807685008913 2.2966530928403377 Q 19.439622247033235 2.2331113889984504 19.59558827849137 2.2331113889984504 ZM 13.822576293662692 0.46382689862325743 Q 13.87160069312572 0.46382689862325743 13.922081273037408 0.4715931515608784 L 13.922081273037408 5.461385397334616 Q 12.38825395561615 6.354500505824466 11.805788280014095 7.965988384347936 Q 12.698902703886905 1.79184917642032 13.058089773520756 1.0928900062739073 Q 13.381357725420997 0.46382689862325743 13.822576293662692 0.46382689862325743 ZM 9.823471846940608 8.280349468529765 Q 9.763159224955167 8.280349468529765 9.708909828226425 8.383422671928184 Q 9.611832586460313 8.567870141573977 9.883650198408658 8.897933602234632 Q 10.038974144658383 8.4902085535462 9.922481420308197 8.344591877914295 Q 9.871087133376625 8.280349468529765 9.823471846940608 8.280349468529765 ZM 9.850515161454094 8.003054920244196 Q 9.964842185368557 8.003054920244196 10.097221020296256 8.179560147583969 Q 10.388454200405805 8.567870141573977 9.922481420308197 9.732803546629212 Q 9.398261764572714 8.723195371480656 9.602124802379711 8.257221735611745 Q 9.713322784103013 8.003054920244196 9.850515161454094 8.003054920244196 ZM 14.931688078951879 9.926958201315696 L 14.931688078951879 10.218190867962463 Q 14.718118369566973 10.198775813264039 14.601625302908268 10.082282061988291 Q 14.640456096922156 10.024035528658937 14.756948478963821 9.926958201315696 ZM 15.378245975505326 10.587085807254049 L 17.183890562566404 10.839488364503968 L 17.552786186475032 11.499616655059363 Q 16.931489374550573 11.32487637045426 16.183991626309666 11.033644388424536 Q 15.43649319345172 10.742411037160727 15.378245975505326 10.587085807254049 ZM 11.39806151978306 10.315268879922746 L 11.747541404376221 10.490008479910806 L 11.864034128726408 11.32487637045426 L 11.553386065072697 12.276239381507548 L 11.067997716813883 12.276239381507548 L 11.39806151978306 11.32487637045426 L 11.39806151978306 10.315268879922746 ZM 12.232929752635034 10.606502231186555 L 12.562994240221252 10.703579558529796 L 12.679486964571439 11.32487637045426 L 12.368838216300684 12.276239381507548 L 11.883450552658914 12.276239381507548 L 12.21351435562809 11.32487637045426 L 12.232929752635034 10.606502231186555 ZM 13.37844604914072 10.72299461322822 L 13.494939115799427 11.32487637045426 L 13.184290367528675 12.276239381507548 L 12.698902703886905 12.276239381507548 L 13.028966164547558 11.32487637045426 L 13.028966164547558 10.742411037160727 L 13.37844604914072 10.72299461322822 ZM 12.635970993829574 8.307902566008263 Q 12.94616549869286 8.307902566008263 13.300783776495901 8.383422671928184 Q 14.349222745658347 8.606700935587865 14.621040357606692 9.441570195365404 L 15.43649319345172 9.441570195365404 L 15.747140914796912 8.936765765482605 Q 19.863233149567787 9.888126722684765 20.387455372617175 12.373316708850789 Q 19.261352076958786 11.752018527692242 18.018759137726903 11.538448133690293 L 17.475123229213175 10.451177001279875 L 15.319998757558931 10.159943650016068 L 15.378245975505326 9.635724850051886 L 14.640456096922156 9.635724850051886 Q 13.825002918768604 10.30727392210448 12.976631641685719 10.30727392210448 Q 12.794837747695311 10.30727392210448 12.611532561584353 10.276437401291815 Q 11.572801804388162 10.101698485920798 11.252445186459676 9.567771131681843 Q 10.93208856853119 9.033843092825846 11.592216516778063 8.596994435164216 Q 12.029066885982298 8.307902566008263 12.635970993829574 8.307902566008263 ZM 14.014203342229544 0.0 Q 13.306659502260182 0.0 12.902764885922597 0.4910087625106481 Q 12.407668668006053 1.0928900062739073 11.980527880002157 3.655740467965014 L 11.300984192439817 8.101897190322108 Q 10.97091987600786 8.451378444149354 10.7961802760198 8.4902085535462 L 10.563193800393865 8.4902085535462 Q 10.543778232232661 8.004819862978866 10.194298176485239 7.597094129673393 Q 9.883650198408658 4.626517849099683 10.466115788433582 2.3937311048006213 L 10.233129483961907 1.9471738928642175 Q 9.398261764572714 4.471192276884482 9.825403408347913 7.616509184371816 L 9.767156618287169 7.616509184371816 Q 8.427485014569381 4.607101425167175 9.378846196411509 1.9471738928642175 L 9.145859806362706 1.5976940082710553 L 9.145859806362706 1.5976940082710553 Q 7.90326545510817 4.4323618251791155 9.41767741831105 7.752417990345988 Q 8.99053577453585 8.684363892849726 9.330307190431368 9.286245650075767 Q 9.670079376521057 9.888126722684765 9.747741050125965 10.412346207265987 L 9.883650198408658 10.509424219226272 Q 10.407869083949969 9.732803546629212 10.485531356594787 9.16975258341706 L 10.679686695898312 9.16975258341706 Q 10.699102264059515 9.616309110736422 10.93208856853119 10.101698485920798 L 11.067997716813883 11.32487637045426 L 10.737933400381925 12.276239381507548 L 9.048781837190987 12.276239381507548 L 9.048781837190987 12.742211648142375 L 13.922081273037408 12.742211648142375 L 13.922081273037408 12.276239381507548 L 13.51435451280637 12.276239381507548 L 13.825003261077125 11.32487637045426 L 13.84441900039259 10.606502231186555 Q 14.19389820036871 10.490008479910806 14.368638484973811 10.33468393462117 Q 14.621040357606692 10.567671437172667 14.931688078951879 10.567671437172667 Q 14.912273708870499 10.76182609185915 15.009351720830782 10.89773421321628 Q 15.785971708810798 11.499616655059363 17.78577231979245 11.946173182378724 L 18.465315665046262 13.266429763489512 Q 18.465315665046262 12.942390932799807 18.666445882775246 12.942390932799807 Q 18.73044046079052 12.942390932799807 18.81479623425647 12.97519504299162 L 18.27116032574274 12.00442040032512 L 18.27116032574274 12.00442040032512 Q 19.39726088293296 12.256823642192083 19.97972758546058 12.645134320799134 Q 20.290376676039852 12.97519504299162 19.94089679144669 13.44116867886053 Q 20.71751746404375 13.11110658743396 20.814596160621075 12.509224145590878 Q 20.503945700807716 9.577479001339576 15.552985575493386 8.431961335599805 L 15.203506375517266 9.014428722744466 L 14.892857284937993 9.014428722744466 Q 14.640456096922156 8.198975202282393 12.893057700881908 7.88832679632016 Q 13.283009064230479 7.599008318923254 13.852256838599681 7.599008318923254 Q 14.161630487629424 7.599008318923254 14.523962345646407 7.684463587358902 Q 14.891470935427632 7.771140212597752 15.241644337084495 7.771140212597752 Q 15.87195550160299 7.771140212597752 16.446100683983236 7.490308248055377 Q 17.339214423239 7.053458905776705 20.989335075992095 2.665548716748965 Q 20.31660024722249 1.8173165880798985 19.56675152405883 1.8173165880798985 Q 19.321111613951302 1.8173165880798985 19.067196737655266 1.9083427565418083 L 14.349222745658347 5.286645797346556 L 14.349222745658347 0.025035944973045218 Q 14.173971736739798 0.0 14.014203342229544 0.0 Z"
     style="fill:#ffffff;stroke:none"
     id="path6" />
  <path
     d="M 14.787816725437374 15.285542133461169 C 15.549371373096287 15.285542133461169 16.502609207919512 15.676756272943992 16.963869255453197 16.13801632047768 C 17.367423959429352 16.541570682145313 17.42018123331472 17.07660848522664 17.434973411436005 17.573762319663377 L 12.163093570676018 17.573762319663377 C 12.177885919951562 17.07660848522664 12.230643193836931 16.541570682145313 12.634197726658826 16.13801632047768 C 13.095457945346773 15.676756272943992 14.02626242008698 15.285542133461169 14.787816725437374 15.285542133461169 ZM 14.787816725437374 14.859305039952915 C 13.884368520776045 14.859305039952915 12.912275476840618 15.276666758126694 12.34256182057423 15.846380414393082 C 11.758218113396996 16.430724336850286 11.69198941469321 17.200007968606588 11.69198941469321 17.775664100798863 L 11.69198941469321 17.99999941317163 L 17.883644036181536 17.99999941317163 L 17.883644036181536 17.775664100798863 C 17.883644036181536 17.200007968606588 17.839849083994995 16.430724336850286 17.25550516153779 15.846380414393082 C 16.685791847579925 15.276666758126694 15.691265101252963 14.859305039952915 14.787816725437374 14.859305039952915 Z"
     style="fill:#ffffff;stroke:none"
     id="path8" />
  <path
     d="M 37.081693110971685 2.6799362565080806 Q 37.468635352318636 2.6799362565080806 37.79825313554344 2.988057502250985 Q 38.127870918768245 3.296178703222589 38.127870918768245 3.7117832631732135 Q 38.127870918768245 4.098725952233178 37.84841275274114 4.421177999107508 Q 37.568953870373214 4.7436302250670455 37.081693110971685 4.7436302250670455 Q 36.62309386429041 4.7436302250670455 36.322138668297086 4.406847063662179 Q 36.02118347230377 4.070063902257312 36.02118347230377 3.7117832631732135 Q 36.02118347230377 3.324840663655852 36.322138668297086 3.0023884376963155 Q 36.62309386429041 2.6799362565080806 37.081693110971685 2.6799362565080806 ZM 35.80621532166408 5.589171892180479 Q 35.72022791814003 5.589171892180479 35.70589644543909 5.689490768405468 Q 35.70589644543909 5.77547817192951 35.80621532166408 5.77547817192951 Q 35.89220272518812 5.77547817192951 35.906533481548244 5.689490768405468 Q 35.89220272518812 5.589171892180479 35.80621532166408 5.589171892180479 ZM 35.80621532166408 5.546178190418458 Q 35.94952718331026 5.546178190418458 35.94952718331026 5.689490768405468 Q 35.94952718331026 5.80414004282017 35.80621532166408 5.8471333864117785 Q 35.72022791814003 5.8328026300516544 35.63424087278641 5.761147057398974 Q 35.67723457454843 5.546178190418458 35.80621532166408 5.546178190418458 ZM 36.17684684061259 5.391527369864752 Q 36.07047631710409 5.391527369864752 35.94952718331026 5.402866328772273 Q 36.078507930425914 5.4745219014249535 36.006851641432405 5.589171892180479 Q 35.935196068779724 5.4745219014249535 35.80621532166408 5.4745219014249535 Q 35.5625845837929 5.4745219014249535 35.5625845837929 5.77547817192951 Q 35.70589644543909 5.8757963318136746 35.69156533090855 5.961783377167304 Q 35.67723457454843 6.047770780691346 35.64857162914653 6.076432651582006 Q 35.74889014720111 6.176751527806996 35.834877192554735 6.592357072726253 Q 35.89220272518812 6.592357072726253 35.906533481548244 6.549363370964232 Q 35.89220272518812 6.10509523881349 35.935196068779724 5.961783377167304 Q 36.06417717406579 5.703821882936005 36.293476081065606 5.696655967500325 Q 36.30344503814669 5.696344359241763 36.313238133555416 5.696344359241763 Q 36.52869447046685 5.696344359241763 36.6589230832984 5.8471333864117785 Q 36.79506867133849 6.004777078929324 36.75207461140606 6.205414115038479 Q 36.70908126781445 6.406051509318047 36.13583274671847 6.649681530848398 L 36.13583274671847 6.678344118079883 Q 37.02436793650872 6.449044136568831 36.94554609024994 5.882962247249355 Q 36.87711906569229 5.391527369864752 36.17684684061259 5.391527369864752 ZM 36.565769406168265 5.2452228153399325 Q 37.124686454563296 5.2452228153399325 37.1963427435568 5.93312078993582 Q 37.26799831620948 6.621019659957738 36.078507930425914 6.850318566957553 Q 36.27914532470548 6.936305970481594 36.40812607182113 7.165604877481409 Q 36.53710646076637 7.394904858992461 36.55143900797855 7.638535596863636 Q 36.491821184707476 7.656879294521374 36.43660599214242 7.656879294521374 Q 36.319272588659146 7.656879294521374 36.2218197920721 7.574044506964987 Q 36.078507930425914 7.452229317114605 35.87787161065758 6.964968557713078 Q 35.572755190816025 6.1328333882112425 35.14684472496909 6.1328333882112425 Q 35.132647924343104 6.1328333882112425 35.11831645164216 6.133757826044975 L 34.98933570452651 6.133757826044975 Q 35.00743835349688 6.0251422903931795 35.07127399154131 6.0251422903931795 Q 35.10851117843942 6.0251422903931795 35.16131015340418 6.06210153705147 Q 35.19406770295765 5.996587870626161 35.28765906433143 5.996587870626161 Q 35.357852943532166 5.996587870626161 35.46226642390874 6.03343966616081 Q 35.26162902962917 5.818471515521118 35.26162902962917 5.603503364881427 L 35.26162902962917 5.603503364881427 Q 35.274367718507335 5.605095790533801 35.28622172646751 5.605095790533801 Q 35.38105558100099 5.605095790533801 35.419272722146715 5.503184488656437 Q 35.42643827941198 5.507961765613558 35.44017268203589 5.507961765613558 Q 35.5088432624738 5.507961765613558 35.74172494810625 5.388535214241736 Q 36.02118347230377 5.2452228153399325 36.565769406168265 5.2452228153399325 ZM 31.30152324036207 6.423376928494071 Q 31.384287826517678 6.423376928494071 31.485355278904038 6.470541882875872 Q 31.807807415320973 6.621019659957738 31.70748925543681 7.710191169516317 Q 30.890609593527937 6.979299672243615 31.02675634562187 6.649681530848398 Q 31.120230092786553 6.423376928494071 31.30152324036207 6.423376928494071 ZM 36.05662801628912 7.911322122623813 Q 36.14373971673687 7.911322122623813 36.250482379303584 7.982483778278152 Q 35.87787161065758 8.240446347020688 35.906533481548244 9.28662451298766 L 35.72022791814003 9.28662451298766 Q 35.70589644543909 8.297770446972422 35.8492090234261 8.054140067271657 Q 35.93321932627513 7.911322122623813 36.05662801628912 7.911322122623813 ZM 37.38264794879459 5.359872627010252 Q 37.884240539067484 5.3742037415407875 38.48615164739495 6.370223006650882 Q 39.08806203938158 7.366242271760976 39.08806203938158 9.28662451298766 L 38.6581257381022 9.28662451298766 Q 38.643794623571665 7.767515627638462 37.33965460520299 7.767515627638462 L 37.33965460520299 9.28662451298766 L 37.05303016556979 9.28662451298766 L 37.05303016556979 7.151274121121285 Q 37.86990942453694 6.535031540092872 37.38264794879459 5.359872627010252 ZM 36.69192132336883 8.118088887166326 Q 36.72786873861283 8.118088887166326 36.766406442277415 8.125796356265163 L 36.766406442277415 9.601911181681928 L 37.65494127389725 9.601911181681928 L 37.65494127389725 8.125796356265163 Q 37.68580840001546 8.119794494668938 37.71482951582949 8.119794494668938 Q 38.17086497870068 8.119794494668938 38.17086497870068 9.601911181681928 Q 38.01322128618313 13.514331236787974 37.62627904483618 14.517515700992924 L 37.955896828060986 15.234077158246327 L 33.21226604128684 15.234077158246327 L 34.20111939096125 14.804140856966946 Q 33.713857915218895 12.668789748759746 33.11194716506185 11.658439727289528 Q 32.510036414904796 10.648088273137661 32.839654377214806 10.418789724308258 Q 32.922058823021004 10.361465266186114 33.01073322097692 10.361465266186114 Q 33.27675641484466 10.361465266186114 33.5992086408042 10.877388970989537 L 35.57691534015302 13.542993465849047 L 36.078507930425914 13.542993465849047 L 36.19315720484062 9.601911181681928 Q 36.19315720484062 8.118088887166326 36.69192132336883 8.118088887166326 ZM 37.081693110971685 2.25 Q 36.40812607182113 2.264330957830981 35.99968680050796 2.715764042834421 Q 35.591246454683564 3.167197060680909 35.591246454683564 3.726115004501971 Q 35.591246454683564 4.199044828458168 35.80621532166408 4.47133761630521 Q 35.978189054200925 4.757962055938405 36.2218197920721 4.915605569370745 Q 36.20557712205197 4.914650149796363 36.18907979286882 4.914650149796363 Q 35.958124705883264 4.914650149796363 35.67723457454843 5.101910953693746 Q 35.36194718951333 5.316878925248231 35.39061013491523 5.388535214241736 Q 35.349663735229 5.35577802285867 35.30403748093775 5.35577802285867 Q 35.269818237932334 5.35577802285867 35.23296644239768 5.3742037415407875 Q 35.146979397044056 5.4171974433028085 35.16131015340418 5.546178190418458 Q 34.74570568299616 5.689490768405468 34.74570568299616 6.434713380208707 Q 34.92914480859601 6.342993459238369 35.01169270165227 6.342993459238369 Q 35.032329406288525 6.342993459238369 35.04666087898948 6.3487259766846655 Q 35.33328460228185 6.3487259766846655 35.82054643619461 7.495223018876626 Q 35.72022791814003 7.581210422400667 35.54825275292154 7.824841160271842 Q 35.37627830404387 8.068471898143018 35.37627830404387 8.670382290129659 L 35.37627830404387 9.601911181681928 L 35.734559032670575 9.601911181681928 Q 35.72022791814003 10.390127495247187 35.63424087278641 12.812102326746757 L 33.642202342566215 10.089171941083453 Q 33.22626387824887 9.747889263876083 32.98493510161652 9.747889263876083 Q 32.901978536120005 9.747889263876083 32.839654377214806 9.788216386919721 L 32.08010011362541 8.269108217911349 Q 32.610355291129785 8.011146365509637 33.240928807603524 7.968153021918028 Q 33.21226604128684 7.581210422400667 32.96863530341566 7.280254868236935 Q 32.452711777697445 7.6671974677542964 31.965451018295916 7.867834862033863 Q 32.280737328819775 6.420382265678171 31.62866705100762 6.133757826044975 Q 31.431070075814105 6.046901859271495 31.266373022912894 6.046901859271495 Q 30.887569756468807 6.046901859271495 30.68280733593828 6.506369669202212 Q 30.38901780913848 7.165604877481409 31.607170289669217 7.996815609149513 Q 31.06258408717691 8.254777461551225 30.489336013793945 8.254777461551225 Q 30.503666971624927 8.656051175599123 30.77596043104149 8.97133784429339 Q 31.162903052944504 8.57006377207508 31.793476479875643 8.369426735965927 L 32.295068264265105 10.117834170144526 Q 32.137425467173586 10.175159344607495 32.094431765411564 10.476114898771227 Q 32.051438242734754 10.77707045293496 32.63185214201079 11.851911206133416 Q 33.21226604128684 12.92675195933187 33.57054605357271 14.488853471931852 L 32.52436806669095 15.07643346572878 L 32.59602363934363 15.750000146708926 L 38.72978202709571 15.750000146708926 L 38.228189436822824 14.517515700992924 Q 38.6581257381022 12.625796405168138 38.67245685263274 9.616242296212464 L 39.46067388253883 9.601911181681928 Q 39.46067388253883 7.065286717597243 38.75844425615678 5.968948576262161 Q 38.13013455577297 4.9880156279965995 37.800119919731515 4.9880156279965995 Q 37.76129424705556 4.9880156279965995 37.72659756289076 5.00159279380958 Q 38.54347610551709 4.571655776189374 38.586470165449526 3.7117832631732135 Q 38.586470165449526 3.095541577570831 38.13503647603351 2.6799362565080806 Q 37.6836027866175 2.264330957830981 37.081693110971685 2.25 Z"
     style="fill:#ffffff;stroke:none"
     id="path10" />
  <path
     d="M 47.12895911484461 2.542654670692597 C 47.15277784411792 2.542654670692597 47.17784033594625 2.546242079342835 47.20414801421345 2.5534168743951255 C 47.3473764920711 2.5924790591166946 47.38860932099844 2.711836279735364 47.327845077111625 2.91148860299569 L 46.28618112233433 5.606794944761905 L 45.7783700289235 5.606794944761905 L 46.88513822560442 2.755238974181999 C 46.9418273138731 2.6135160977730023 47.02310118093381 2.542654670692597 47.12895911484461 2.542654670692597 ZM 47.989301782727516 2.760447496859336 C 48.01881533551402 2.760447496859336 48.0500653146724 2.7652218239509616 48.08305172020267 2.774770478134213 C 48.24798232397012 2.8225132150940198 48.278364445913525 2.9462106784595306 48.174197374090966 3.1458630017198566 L 47.223679429172925 5.606794944761905 L 46.715867623820166 5.606794944761905 L 47.718469104649486 2.989613372906165 C 47.780969774908186 2.8368361073761554 47.87124685963957 2.760447496859336 47.989301782727516 2.760447496859336 ZM 45.41798537897171 6.73605338707123 C 45.33706249928342 6.73605338707123 45.244517523527996 6.750258052496301 45.1403508076764 6.778667027375477 L 45.1403508076764 6.908875155211752 C 45.24318192046377 6.876156083876913 45.336575175031044 6.859796370224012 45.420529859436286 6.859796370224012 C 45.49249081408594 6.859796370224012 45.55751745431898 6.871815729889145 45.61561013610638 6.895853737277482 C 45.74147790995489 6.947936917217799 45.90857815675977 6.98265903717801 46.11691158846297 7.0000200971581155 L 46.05180734655935 6.934916211225461 C 45.86083533080723 6.865471971305039 45.708925789003075 6.809048437376955 45.59607872114691 6.765645609441208 C 45.54478508480906 6.745917342537568 45.485420518760336 6.73605338707123 45.41798537897171 6.73605338707123 ZM 45.51795377325095 7.026062221084723 L 45.75232826096786 7.1041864570387485 C 45.66552296106733 7.138908932969926 45.58739836914234 7.164950700925567 45.51795377325095 7.182312116876639 C 45.57003695319127 7.138909288940892 45.57003695319127 7.086826109000575 45.51795377325095 7.026062221084723 ZM 45.322642115452986 7.026062221084723 C 45.296600347497346 7.0781450450540735 45.305280699501914 7.134568578982158 45.348683527437665 7.195332822868976 C 45.27923928751724 7.177971406917905 45.227156107576924 7.160609990966833 45.19243398761671 7.1432489309867275 C 45.201114339621284 7.099846814992913 45.24451716755703 7.060784341044934 45.322642115452986 7.026062221084723 ZM 45.38774600138564 6.934916211225461 C 45.27489893352947 6.934916211225461 45.19677434160448 6.9783190391612075 45.15337151366874 7.0651239830907695 L 45.03618444779576 7.130228936936322 L 45.02316338583246 7.195332822868976 L 45.1403508076764 7.221374234853651 C 45.20400802760345 7.260275809925023 45.28063255787795 7.279726419475226 45.37022404252893 7.279726419475226 C 45.50053931762595 7.279726419475226 45.65828927506836 7.23857439595715 45.843473914856155 7.156270348920997 L 46.12993158251338 7.156270348920997 L 46.12993158251338 7.0651239830907695 L 45.830453208863815 7.0651239830907695 C 45.64816190108723 6.9783190391612075 45.50059271327085 6.934916211225461 45.38774600138564 6.934916211225461 ZM 47.744511228576094 5.854189782500184 L 46.859096457648775 7.4817904905262 C 46.801226613686055 7.562808414462394 46.74721478305225 7.603317198445008 46.697060253805425 7.603317198445008 C 46.6719831671675 7.603317198445008 46.64787040587631 7.593189824463871 46.62472196993187 7.572935432472564 L 46.338264302274645 7.390644836637905 C 46.35562571822572 7.329880948722052 46.42506960217517 7.238735294833757 46.54659737800688 7.117207874973018 C 46.66812515383858 6.995680099141313 46.69416692179422 6.850280910333335 46.62472196993187 6.681010664520047 C 46.585471187342904 6.585336348002999 46.51016873323593 6.537499189744475 46.3988149635819 6.537499189744475 C 46.313158026017504 6.537499189744475 46.20616952831886 6.565804933043526 46.07784840257306 6.622416775612596 C 45.800448772115274 6.455977210920503 45.55561336562214 6.372757250588974 45.34334218309366 6.372757250588974 C 45.32312587999571 6.372757250588974 45.30320503279949 6.373511909036777 45.28357964150501 6.37502158190335 C 45.2662185815249 6.175369214146654 45.23583645958149 6.001758614345598 45.19243398761671 5.854189782500184 ZM 45.247071971179615 6.595833219846786 C 45.46925445331291 6.595833219846786 45.75920099240736 6.691500060973549 46.11691158846297 6.8828333872561105 C 46.195035824417 6.7960277313846165 46.273160416341995 6.75262490344887 46.35128536423795 6.75262490344887 C 46.42940995616294 6.75262490344887 46.47064242911932 6.791687377396849 46.474982427136126 6.869811969321841 C 46.47932313709486 6.9479372731887645 46.40987854120347 7.049933634060997 46.26664970737485 7.175801051938538 C 46.123421585488174 7.301668825787044 46.056147344576154 7.408005540647045 46.06482769658072 7.494811196518538 L 46.10389052649967 7.50783154653991 C 46.07784875854403 7.698803206321071 45.991043102672535 7.848542393145852 45.843473914856155 7.957049462985219 C 45.695904727039775 8.065556176853619 45.496252715254045 8.124149709790105 45.24451716755703 8.13282970582371 C 45.227155751605956 8.13374348329329 45.21080458125624 8.134200194042599 45.19546294456594 8.134200194042599 C 45.06506294837902 8.134200194042599 45.00762988079152 8.101191362341481 45.02316338583246 8.035174054910211 C 45.040524445812565 7.961389461002021 45.027503739820226 7.898455574077768 44.98410126785545 7.846372038166485 L 44.98410126785545 7.846372038166485 C 45.01052072100595 7.847127052585254 45.035315522667894 7.847504381809156 45.05848602881222 7.847504381809156 C 45.301769401893836 7.847504381809156 45.36595025511179 7.805894579628874 45.25102787652416 7.722674975268311 C 45.16576215105135 7.660930743312246 45.09742676068984 7.630058805319696 45.04602099349772 7.630058805319696 C 45.021542294053546 7.630058805319696 45.00090238550612 7.637059330335972 44.98410126785545 7.651060024397556 C 45.01882303184469 7.520852252532247 44.94937879192427 7.451408012611825 44.775768192123216 7.442727304636289 C 44.96673985190438 7.121547517018854 45.11430903972076 6.8394305593203635 45.21847539960139 6.596375719598886 C 45.22787944057973 6.596014053097486 45.2374116311058 6.595833219846786 45.247071971179615 6.595833219846786 ZM 46.18201547439563 7.559915082451193 L 46.55961808399921 7.794288858226168 C 46.58566020792582 8.193593949710529 46.66812550980955 8.471370909392217 46.80701398965039 8.6276200932422 C 46.73260965029049 8.617699894363245 46.66245702814784 8.612739794923765 46.596556123222435 8.612739794923765 C 46.547129554600964 8.612739794923765 46.500095110870646 8.615529895354843 46.45545208008955 8.621110096216997 C 46.35128536423795 8.634130802209334 46.25145900237412 8.684044339112216 46.15597335046902 8.77084999498371 C 46.06048734259296 8.493072323360089 45.951980628724556 8.271718897606485 45.830453208863815 8.106789005780966 C 46.05614698860519 7.941858402013514 46.17333441044912 7.759567094236923 46.18201547439563 7.559915082451193 ZM 42.29045811143487 10.329554302405894 C 42.47955220235615 10.329554302405894 42.656948909351 10.421963653223294 42.82264805443393 10.606782354858096 C 42.510148974792024 10.61546306283363 42.30181607704528 10.715289424697461 42.1976496281719 10.906260728507657 C 42.11084441726412 10.689247300770855 42.00233770339572 10.567720236881081 41.87212966455218 10.541678824896406 C 41.74192162570865 10.5156367009698 41.81136595462181 10.457043168033314 42.08046247330619 10.365897514145018 C 42.15199448294188 10.341668706318936 42.22199305864902 10.329554302405894 42.29045811143487 10.329554302405894 ZM 46.68982621183549 8.914078472841357 C 47.02836670346206 8.914078472841357 47.24104013318207 9.105049776651551 47.327845077111625 9.486993808155805 C 47.449372852943334 10.016506315534507 47.46673355695247 10.841156486604037 47.37992861302291 11.960946457190191 C 47.275762253142275 13.245664895718 47.1542351892525 14.309030620434138 47.01534670941166 15.151041495512807 L 47.17159589326164 15.38541562725875 L 42.84868982238957 15.38541562725875 L 43.74712494333826 15.020834435589432 C 43.48670904363667 13.744795993095225 43.16118890203147 12.809468753177928 42.77056487449361 12.214851291953673 C 42.3799409359485 11.620235254613283 42.314836872030355 11.23612193604256 42.57525286072468 11.062510624299573 C 42.65792462576866 11.007395639642302 42.74015890249548 10.979838503284633 42.82195586889065 10.979838503284633 C 42.99781923094969 10.979838503284633 43.171660677922155 11.107222713448065 43.34348020980806 11.361988997949135 L 45.10128833372842 13.861982347026265 L 45.413787413370315 13.835940935041588 C 45.604759429122446 11.891501505327836 45.80875179489594 10.441852463032575 46.02576522263274 9.486993808155805 C 46.12993193848435 9.105049776651551 46.351285720208914 8.914078472841357 46.68982621183549 8.914078472841357 ZM 47.065839055105165 2.25 C 46.8155925339587 2.25 46.64685232891371 2.396711658365488 46.55961808399921 2.6901349547602322 L 45.43982918132596 5.606794944761905 L 44.879934552003846 5.606794944761905 C 44.98410126785545 5.954016500334982 45.03618444779576 6.262175225989113 45.03618444779576 6.531271833666231 C 44.97542055987991 6.774326317416744 44.86040349301534 7.017381513109187 44.69113324720205 7.26043670880163 C 44.527699501346405 7.495110212129932 44.56050186988727 7.612447141779565 44.78953964088273 7.612447141779565 C 44.79771949770918 7.612447141779565 44.80614995809566 7.612297633973869 44.814830666071195 7.611998262391509 L 44.814830666071195 7.611998262391509 C 44.75406713412631 7.698803562292037 44.76274748613088 7.750887098203319 44.840872434026835 7.768248158183424 C 44.77142819410641 7.802970278143635 44.76274748613088 7.839862397112248 44.814830666071195 7.878924515089261 C 44.866913846011514 7.917986633066274 44.88861525997938 8.002621933958402 44.879934552003846 8.13282970582371 C 44.853893140019174 8.514773737327964 44.75189677914694 8.825102817961461 44.573946181329084 9.063817659666137 C 44.427866732005185 9.259777540593085 44.2949493091471 9.357757125085595 44.175193200812906 9.357757125085595 C 44.149064219970604 9.357757125085595 44.12356210399934 9.353093193489784 44.09868649692813 9.343764618356227 C 44.0369586396365 9.320616538382753 43.98551869923165 9.309043210337947 43.94436667571357 9.309043210337947 C 43.89292620135227 9.309043210337947 43.857560841856596 9.327127247349887 43.83827059722655 9.363296745257632 C 43.80354847726634 9.42840027521932 43.849121304210485 9.495673804189408 43.97498943402996 9.565118756051763 C 44.019742103868566 9.589810326133573 44.07272517841079 9.602155399232547 44.133939013627604 9.602155399232547 C 44.244888756235284 9.602155399232547 44.38287734147422 9.561598203198567 44.54790405740248 9.480483099188671 C 44.80397995908726 9.354615325340163 45.03618444779576 8.966162008752638 45.24451716755703 8.315121725542232 L 45.60909942713925 8.315121725542232 C 45.721946494995414 8.419287373480934 45.80875179489594 8.571197271256047 45.869515682811794 8.77084999498371 C 45.55701624719893 9.777791473829831 45.30094070148512 11.253481928109768 45.10128833372842 13.197922069765452 L 43.34348020980806 10.723969420731066 C 43.24799437991748 10.576400232914686 43.126466782071255 10.454873169024912 42.97889777224036 10.359387517119815 C 42.81442441317866 10.153795773796325 42.609373923708894 10.050999902134581 42.363746125845566 10.050999902134581 C 42.29824533228588 10.050999902134581 42.22985903807625 10.058310121891228 42.158587243216665 10.072929849462591 L 42.158587243216665 7.273457058823002 C 42.158587243216665 6.89151373926068 42.02403893937811 6.696201725491751 41.75494242069373 6.687521017516215 C 41.91987257949747 6.435785469819202 42.13254565324651 6.20141133807326 42.39296173093357 5.984398266307425 C 42.46706385094338 5.852072823165709 42.46532101709412 5.785909923609368 42.38773314039303 5.785909923609368 C 42.338076881505785 5.785909923609368 42.25735468044955 5.813009993246764 42.145566448231584 5.867210488492521 C 41.867789399557154 6.092904268233894 41.67681760628688 6.257834516030379 41.57265120190988 6.362001587852944 C 41.35563786316582 6.587695367594316 41.23194037755212 6.754795614399203 41.20155870057242 6.863301972296638 C 41.17117662312538 6.971809042136005 41.09088158722828 7.256096354813862 40.960673570632935 7.716164266301177 C 40.96551463498049 7.8565552995892745 40.987904545812036 7.926750994218807 41.027843306256216 7.926750994218807 C 41.0595189098869 7.926750994218807 41.102233011872194 7.88259671157395 41.15598558440186 7.794288858226168 C 41.19070772661026 7.681442502311931 41.23845066380373 7.538213668483319 41.29921439598229 7.364602356740332 C 41.35997812816085 7.190991756939276 41.477165327522926 7.065124339061736 41.650776016316726 6.9869997471367435 C 41.79834515963673 6.9869997471367435 41.87212966455218 7.0824853990418415 41.87212966455218 7.273457058823002 L 41.87212966455218 10.125013385373874 C 41.3686586581509 10.394109637080026 41.22760009030891 10.576400232914686 41.44895391652985 10.671886596761714 C 41.65426519922855 10.760452885030773 41.820369884234424 10.916229339437981 41.94726819402934 11.139218095809138 L 41.947268105036606 11.139218095809138 C 42.010042160997145 11.568843014317865 42.18681814362013 12.029384011218921 42.47759649786925 12.52084037457037 C 42.78575575747983 13.041671462031605 43.065703072140884 13.80555881309818 43.3174386198379 14.812500291944302 L 42.32785766701544 15.242187149401103 L 42.39296173093357 15.749999666695796 L 47.95284394833736 15.749999666695796 L 47.37992861302291 15.072918683442646 C 47.6577055727046 12.373271898695922 47.755361223618095 10.648015183785441 47.67289698964727 9.897149250653136 C 47.59043133179257 9.146282605578897 47.40162931504885 8.731787165064766 47.10649165135802 8.653662217168808 C 46.89815928756772 8.445329497407542 46.81569434165496 8.219635361695204 46.859096457648775 7.976580877944691 L 47.18461659925398 7.390644836637905 C 47.69676840262354 7.763907804195657 47.95284394833736 8.26737818764775 47.95284394833736 8.901057054907087 L 47.95284394833736 15.749999666695796 L 48.239301615994584 15.749999666695796 L 48.239301615994584 8.901057054907087 C 48.239301615994584 8.145851123757978 47.931142534369485 7.555574728463425 47.314824371119286 7.130228936936322 L 48.161176668098626 5.606794944761905 L 47.56222063274143 5.606794944761905 L 48.48669645373286 3.210967065637994 C 48.616905649482035 2.881106703534135 48.558311404603614 2.6684336297851003 48.31091585492341 2.572947755398149 C 48.19259680137873 2.527280596148026 48.08172323655776 2.504447016522964 47.9782951604605 2.504447016522964 C 47.86546446726876 2.504447016522964 47.76149460336133 2.531620861143052 47.666386280680136 2.585968550383228 C 47.60562274873525 2.394996801609326 47.42984214992579 2.2843200998566164 47.13904377230983 2.253938442691705 C 47.113912934056046 2.2513128142305683 47.08951112434051 2.25 47.065839055105165 2.25 Z"
     style="fill:#ffffff;stroke:none"
     id="path12" />
  <path
     d="M 50.732165575027466 7.043162668123841 L 50.732165575027466 8.360095975454897 L 53.63891017186265 8.360095975454897 L 53.63891017186265 7.043162668123841 L 53.06942549842219 7.043162668123841 C 52.90332580200206 7.335814393507874 52.713497668039054 7.5256426179880265 52.49994091549888 7.612647341564298 C 52.3931625392288 7.6561498843867355 52.28687847712091 7.67790079372935 52.181088910209525 7.67790079372935 C 52.075299252780994 7.67790079372935 51.97000400003181 7.6561498843867355 51.86520315196198 7.612647341564298 C 51.65560091271941 7.5256426179880265 51.46774992225877 7.335814393507874 51.301650231495955 7.043162668123841 ZM 52.49519519178345 2.25 L 52.49519519178345 4.4330245815217495 L 51.83554212981835 4.4330245815217495 L 51.83554212981835 7.102483988273889 L 52.54739797161892 7.102483988273889 L 52.54739797161892 5.429622760042548 L 53.373150730004156 5.429622760042548 L 53.373150730004156 3.139819802250713 L 54.39347743658497 3.139819802250713 C 54.57539627240132 4.563531485851854 55.069740486295515 5.6214282411715 55.87651044033616 6.313510068209652 C 56.68328039437681 7.005592257316408 57.67987857289761 7.406999977687931 58.86630497589856 7.517733229324222 C 60.05273137889951 7.628466480960512 60.831818291582536 7.7846791699994355 61.20356498981043 7.986372020578202 C 61.575311688038326 8.188064147019759 61.76118539922088 8.391734254247325 61.76118539922088 8.597381256055087 L 63.20862561088204 8.597381256055087 C 62.98715910760946 8.067444250070864 62.69055250685922 7.66405927305054 62.318805808631325 7.387226324994117 C 61.94705911040343 7.110393376937694 61.256953453808265 6.936384291853756 60.24849101125746 6.865198707673699 C 59.24002856870665 6.794013123493642 58.43325933880321 6.661528962514737 57.82818114913552 6.467746224736985 C 57.22310440774224 6.273963124890628 56.68328039437681 5.929899105951748 56.20870983317643 5.4355545299889485 C 55.73413927197605 4.941210497129056 55.37030196241196 3.879358866443205 55.11719754241555 2.25 Z"
     style="fill:#ffffff;stroke:none"
     id="path14" />
  <path
     d="M 51.382327787578106 12.546648502349854 L 51.09758545085788 13.163590231910348 L 50.195901384577155 15.180515117011964 L 50.05353021621704 15.465257453732193 L 50.646743417717516 15.74999979045242 L 50.78911458607763 15.441528925672174 L 51.406056315638125 14.041545770131052 L 51.71452718041837 14.587301915511489 L 51.9992695171386 15.156786588951945 L 52.28401185385883 14.587301915511489 L 52.616211246699095 13.994088714011014 L 52.92468211147934 14.587301915511489 L 53.20942444819957 15.156786588951945 L 53.4941667849198 14.587301915511489 L 53.802637649700046 13.994088714011014 L 54.13483704254031 14.587301915511489 L 54.41957937926054 15.156786588951945 L 54.70432171598077 14.587301915511489 L 55.012792580761015 14.017817242071033 L 55.32126344554126 14.587301915511489 L 55.62973431032151 15.156786588951945 L 55.91447664704174 14.587301915511489 L 56.222947511821985 13.994088714011014 L 56.53141837660223 14.587301915511489 L 56.83988924138248 15.156786588951945 L 57.12463157810271 14.587301915511489 L 57.433102442882955 13.994088714011014 L 57.7415733076632 14.587301915511489 L 58.05004417244345 15.156786588951945 L 58.33478650916368 14.587301915511489 L 58.643257373943925 13.994088714011014 L 58.95172823872417 14.587301915511489 L 59.2364705754444 15.156786588951945 L 59.54494144022465 14.587301915511489 L 59.853412305004895 13.994088714011014 L 60.16188316978514 14.587301915511489 L 60.44662550650537 15.156786588951945 L 60.75509637128562 14.587301915511489 L 61.063567236065865 13.994088714011014 L 61.39576662890613 14.611030443571508 L 61.68050896562636 15.133058060891926 L 61.988979830406606 14.611030443571508 L 62.32117922324687 13.970360185950994 L 63.15167770534754 15.465257453732193 L 63.31777740176767 15.74999979045242 L 63.88726207520813 15.441528925672174 L 63.74489090684801 15.156786588951945 L 62.6059215599671 13.11613317579031 L 62.32117922324687 12.61783408652991 L 62.036436886526644 13.139861703850329 L 61.68050896562636 13.756803433410823 L 61.34830957278609 13.139861703850329 L 61.039838708005846 12.594105558469892 L 60.778824899345636 13.139861703850329 L 60.44662550650537 13.733074905350804 L 60.13815464172512 13.139861703850329 L 59.853412305004895 12.570377030409873 L 59.56866996828467 13.139861703850329 L 59.26019910350442 13.733074905350804 L 58.92799971066415 13.139861703850329 L 58.643257373943925 12.570377030409873 L 58.3585150372237 13.139861703850329 L 58.02631564438343 13.733074905350804 L 57.71784477960318 13.139861703850329 L 57.433102442882955 12.570377030409873 L 57.14836010616273 13.139861703850329 L 56.83988924138248 13.733074905350804 L 56.50768984854221 13.139861703850329 L 56.222947511821985 12.570377030409873 L 55.93820517510176 13.139861703850329 L 55.62973431032151 13.709346377290785 L 55.32126344554126 13.139861703850329 L 55.012792580761015 12.570377030409873 L 54.72805024404079 13.139861703850329 L 54.41957937926054 13.733074905350804 L 54.11110851448029 13.139861703850329 L 53.802637649700046 12.570377030409873 L 53.51789531297982 13.139861703850329 L 53.20942444819957 13.733074905350804 L 52.90095358341932 13.139861703850329 L 52.616211246699095 12.570377030409873 L 52.30774038191885 13.139861703850329 L 51.9992695171386 13.733074905350804 L 51.69079865235835 13.139861703850329 L 51.382327787578106 12.546648502349854 Z"
     style="fill:#ffffff;stroke:none"
     id="path16" />
  <path
     d="M 77.68152823323925 7.887661085552464 Q 77.38044067144057 8.188746882266699 77.38044067144057 8.991636728107956 Q 77.38044067144057 9.811251971062319 77.68152823323925 10.11233699838077 L 67.74575184032165 10.11233699838077 Q 68.0468361435029 9.811251971062319 68.0468361435029 8.991636728107956 Q 68.0468361435029 8.188746882266699 67.74575184032165 7.887661085552464 ZM 65.82216090955322 7.268766403198242 Q 65.38726139068604 7.268766403198242 65.40398829406111 7.553123001079024 Q 65.38726139068604 7.887661085552464 65.82216090955322 7.887661085552464 L 66.90940812267104 7.887661085552464 Q 67.31085766196638 8.188746882266699 67.31085766196638 8.991636728107956 Q 67.31085766196638 9.811251971062319 66.90940812267104 10.11233699838077 L 65.8388885695951 10.11233699838077 Q 65.38726139068604 10.11233699838077 65.38726139068604 10.396695180311696 Q 65.38726139068604 10.731233174267985 65.82216090955322 10.731233174267985 L 79.60512052176495 10.731233174267985 Q 80.02332424262744 10.731233174267985 80.02332424262744 10.396695180311696 Q 80.02332424262744 10.11233699838077 79.5883915039658 10.11233699838077 L 78.51787339916427 10.11233699838077 Q 78.11642476504045 9.811251971062319 78.11642476504045 8.991636728107956 Q 78.11642476504045 8.188746882266699 78.51787339916427 7.887661085552464 L 79.60512052176495 7.887661085552464 Q 80.02332424262744 7.887661085552464 80.02332424262744 7.553123001079024 Q 80.02332424262744 7.268766403198242 79.60512052176495 7.268766403198242 Z"
     style="fill:#ffffff;stroke:none"
     id="path18" />
  <path
     d="M 30.489336013793945 0.375 C 20.86433607339859 0.375 20.86433607339859 17.625 30.489336013793945 17.625 "
     style="fill:none;stroke:#ffffff;stroke-width:1"
     id="path20" />
  <path
     d="M 30.489336013793945 0.375 L 80.02332496643066 0.375 "
     style="fill:none;stroke:#ffffff;stroke-width:1"
     id="path22" />
  <path
     d="M 30.489336013793945 17.625 L 80.02332496643066 17.625 "
     style="fill:none;stroke:#ffffff;stroke-width:1"
     id="path24" />
  <path
     d="M 87.71082496643066 0.375 L 87.71082496643066 17.625 "
     style="fill:none;stroke:#ffffff;stroke-width:1"
     id="path26" />
  <path
     d="M 80.02332496643066 0.375 C 89.6483268737793 0.375 89.6483268737793 17.625 80.02332496643066 17.625 "
     style="fill:none;stroke:#ffffff;stroke-width:1"
     id="path28" />
</svg>
