<?xml version="1.0" encoding="UTF-8" ?>
<!DOCTYPE svg PUBLIC "-//W3C//DTD SVG 1.1//EN" "http://www.w3.org/Graphics/SVG/1.1/DTD/svg11.dtd">
<svg width="180pt" height="367pt" viewBox="0 0 180 367" version="1.1" xmlns="http://www.w3.org/2000/svg">
<path fill="#ffffff" d=" M 0.00 0.00 L 180.00 0.00 L 180.00 367.00 L 0.00 367.00 L 0.00 0.00 Z" />
<path fill="#000000" d=" M 79.42 34.44 C 85.95 33.98 94.26 32.26 99.31 37.69 C 104.82 42.36 104.57 50.74 103.27 57.18 C 98.39 72.55 72.18 70.68 68.58 55.37 C 66.04 47.08 71.91 37.79 79.42 34.44 Z" />
<path fill="#ffffff" d=" M 80.39 36.40 C 86.31 35.75 93.87 34.50 98.21 39.79 C 103.19 44.80 104.82 54.11 99.49 59.45 C 93.35 67.50 79.64 67.30 73.16 59.82 C 67.35 52.07 71.80 39.86 80.39 36.40 Z" />
<path fill="#000000" d=" M 118.87 44.18 C 121.12 43.36 123.36 42.54 125.63 41.76 C 126.78 49.23 128.46 56.59 130.25 63.92 C 130.90 63.94 132.22 63.97 132.88 63.98 C 136.26 57.23 139.87 50.60 143.18 43.82 C 145.35 44.96 147.51 46.12 149.69 47.25 C 146.64 53.62 143.73 60.08 141.95 66.93 C 147.37 73.83 152.20 81.23 155.66 89.32 C 153.18 89.10 149.89 90.33 148.14 87.95 C 144.32 83.51 140.01 79.55 135.03 76.43 C 130.80 85.73 126.68 95.26 124.70 105.33 C 125.03 116.95 126.80 128.57 130.15 139.72 C 134.19 140.02 138.25 140.32 142.30 140.68 C 143.08 172.07 143.53 203.50 142.32 234.88 C 143.08 266.80 143.36 298.74 144.00 330.67 C 105.23 329.77 66.45 332.72 27.68 330.91 C 27.99 267.47 28.46 203.97 27.47 140.51 C 30.64 140.27 33.82 140.05 37.00 139.83 C 36.32 130.97 31.67 121.19 36.98 112.98 C 39.73 106.86 45.39 102.38 47.55 95.99 C 46.63 90.86 43.18 86.62 41.01 81.98 C 36.22 73.75 32.67 64.89 27.86 56.67 C 31.52 55.51 35.19 54.43 38.90 53.44 C 44.66 65.44 49.16 77.99 55.27 89.83 C 70.78 88.46 86.34 90.81 101.82 89.74 C 108.21 84.84 112.90 78.13 118.08 72.04 C 125.18 64.44 120.07 53.09 118.87 44.18 Z" />
<path fill="#ffffff" d=" M 121.86 45.02 C 122.62 45.03 124.13 45.05 124.88 45.07 C 126.01 51.65 125.98 58.74 128.88 64.87 C 130.27 65.29 133.05 66.12 134.44 66.53 C 137.09 60.26 140.48 54.34 143.36 48.18 C 144.62 48.13 145.89 48.09 147.16 48.05 C 144.16 54.08 140.84 60.11 140.03 66.93 C 144.06 73.81 149.73 79.99 151.82 87.87 C 147.00 81.99 140.99 77.20 134.00 74.20 C 127.85 83.81 125.17 95.11 122.41 106.02 C 123.52 118.31 125.88 130.52 128.51 142.59 C 132.56 142.66 136.61 142.65 140.66 142.84 C 141.32 186.56 140.01 230.28 141.01 274.00 C 141.09 292.32 141.98 310.69 140.37 328.97 C 103.93 328.66 67.50 329.66 31.07 328.95 C 28.43 291.34 30.86 253.65 30.01 216.00 C 29.46 191.53 30.00 167.06 30.29 142.59 C 33.60 142.49 36.92 142.42 40.22 142.19 C 38.80 134.54 36.13 127.04 36.35 119.18 C 39.27 111.13 45.47 104.96 49.65 97.61 C 50.31 92.79 46.86 89.08 45.01 85.03 C 39.80 76.06 34.77 66.95 30.86 57.32 C 32.91 56.46 34.94 55.60 36.99 54.74 C 42.50 67.07 48.05 79.38 53.44 91.76 C 69.43 91.16 85.41 92.42 101.39 92.45 C 105.49 92.73 106.96 87.77 109.62 85.59 C 114.48 79.23 120.88 73.84 124.46 66.63 C 125.04 59.40 122.56 52.20 121.86 45.02 Z" />
<path fill="#000000" d=" M 82.34 47.39 C 84.74 47.35 87.14 47.32 89.55 47.29 C 89.67 48.95 89.89 52.26 90.01 53.92 C 88.68 54.63 87.35 55.35 86.02 56.07 C 84.75 55.25 83.47 54.43 82.19 53.63 C 82.23 52.07 82.30 48.95 82.34 47.39 Z" />
<path fill="#ffffff" d=" M 84.30 50.54 C 85.52 50.31 86.74 50.08 87.96 49.85 C 87.97 51.25 87.99 52.65 88.00 54.05 C 87.26 54.01 85.78 53.94 85.03 53.90 C 84.79 52.78 84.54 51.66 84.30 50.54 Z" />
<path fill="#000000" d=" M 56.38 116.52 C 56.14 111.34 60.02 107.74 62.68 103.81 C 71.66 107.09 81.06 108.99 90.17 111.83 C 97.17 114.28 102.52 107.48 108.71 105.32 C 106.17 117.46 103.79 129.67 102.77 142.05 C 89.44 142.17 76.10 141.04 62.78 141.96 C 59.20 133.98 55.70 125.47 56.38 116.52 Z" />
<path fill="#000000" d=" M 114.99 105.54 C 121.38 117.17 124.96 130.19 126.28 143.35 C 119.87 141.92 113.31 141.47 106.76 141.59 C 109.61 129.60 113.00 117.72 114.99 105.54 Z" />
<path fill="#ffffff" d=" M 62.76 106.79 C 72.58 108.81 82.20 111.64 91.86 114.26 C 97.53 116.14 101.76 110.56 106.20 108.13 C 103.42 118.54 103.17 129.37 101.16 139.92 C 88.76 139.61 76.36 138.95 63.96 139.43 C 61.19 133.17 58.59 126.79 57.37 120.01 C 57.51 115.11 60.65 111.01 62.76 106.79 Z" />
<path fill="#000000" d=" M 41.47 121.35 C 43.61 116.31 47.50 112.15 51.38 108.35 C 50.42 119.89 54.41 130.92 57.28 141.90 C 53.27 141.93 49.26 141.95 45.25 141.96 C 44.29 135.06 41.04 128.36 41.47 121.35 Z" />
<path fill="#ffffff" d=" M 109.54 138.96 C 110.83 129.97 113.96 121.41 116.43 112.70 C 119.24 121.37 121.69 130.16 124.07 138.95 C 119.22 138.95 114.38 138.98 109.54 138.96 Z" />
<path fill="#ffffff" d=" M 43.62 123.35 C 44.60 120.25 46.60 117.60 48.13 114.77 C 49.15 123.28 52.22 131.31 54.79 139.43 C 53.02 139.61 49.48 139.96 47.71 140.14 C 46.13 134.60 44.38 129.07 43.62 123.35 Z" />
<path fill="#000000" d=" M 35.01 148.99 C 57.63 148.44 80.25 149.15 102.87 149.20 C 113.25 149.11 123.56 150.92 133.94 150.38 C 133.50 184.23 134.89 218.06 135.01 251.91 C 118.62 249.22 101.91 248.83 85.37 250.15 C 68.69 250.14 52.00 250.08 35.32 249.78 C 34.63 216.18 35.15 182.58 35.01 148.99 Z" />
<path fill="#ffffff" d=" M 35.96 150.93 C 67.92 152.42 99.97 149.80 131.86 153.11 C 131.18 185.09 133.06 217.07 133.03 249.05 C 119.20 247.65 105.31 246.62 91.41 247.44 C 73.28 248.36 55.15 247.54 37.03 247.10 C 37.48 215.03 36.36 182.99 35.96 150.93 Z" />
<path fill="#000000" d=" M 43.43 165.33 C 43.96 159.27 50.77 156.76 56.03 157.00 C 59.81 156.06 65.33 157.56 66.09 161.94 C 67.66 171.52 66.86 181.33 67.06 191.00 C 65.57 191.00 62.58 191.00 61.09 191.00 C 60.41 182.75 62.64 173.95 60.03 165.96 C 58.95 162.35 53.97 162.03 51.98 164.99 C 49.33 169.45 49.77 175.04 49.24 180.01 C 48.84 194.54 48.45 209.08 48.65 223.62 C 46.11 223.40 43.56 223.16 41.02 222.95 C 42.20 203.77 40.85 184.41 43.43 165.33 Z" />
<path fill="#000000" d=" M 75.22 159.26 C 91.62 157.21 108.19 159.57 124.66 159.66 C 124.95 167.66 124.63 175.67 124.71 183.68 C 119.47 184.02 114.25 184.53 109.03 185.05 C 109.02 182.38 109.01 179.72 109.00 177.06 C 111.67 177.02 114.33 176.98 117.00 176.94 C 116.98 173.91 117.00 170.95 116.98 167.94 C 105.68 166.77 94.33 167.86 83.01 167.03 C 82.99 169.97 83.01 172.98 83.00 175.94 C 86.01 175.95 89.05 176.03 92.06 176.07 C 91.69 178.71 91.27 181.29 90.91 183.96 C 85.59 183.97 80.27 183.99 74.95 184.01 C 75.02 175.76 74.95 167.51 75.22 159.26 Z" />
<path fill="#ffffff" d=" M 45.30 166.11 C 46.81 157.66 62.75 155.19 64.39 164.62 C 65.52 172.91 65.40 181.43 64.21 189.72 C 63.07 182.52 63.35 175.23 62.86 167.99 C 62.69 163.65 58.02 161.81 55.29 159.25 C 51.79 162.25 48.25 165.82 47.69 170.65 C 46.20 187.39 47.19 204.24 45.99 221.00 C 45.28 220.98 43.88 220.95 43.17 220.94 C 43.74 202.66 43.30 184.32 45.30 166.11 Z" />
<path fill="#ffffff" d=" M 77.73 160.99 C 92.84 161.29 107.99 160.82 123.07 161.99 C 122.89 168.56 122.58 175.13 122.41 181.70 C 118.60 181.99 114.82 182.40 111.04 182.91 C 111.02 181.63 111.01 180.36 111.01 179.08 C 113.67 179.03 116.33 178.98 119.00 178.94 C 118.99 174.60 118.99 170.27 118.98 165.93 C 105.98 164.92 92.93 164.92 79.89 164.93 C 80.02 169.12 80.12 173.33 80.28 177.54 C 83.17 177.72 86.08 177.93 88.98 178.11 C 88.99 179.41 88.99 180.70 89.01 182.00 C 85.09 181.98 81.17 181.97 77.25 181.95 C 77.50 174.96 77.38 167.97 77.73 160.99 Z" />
<path fill="#000000" d=" M 86.47 186.97 C 94.65 185.09 103.30 184.46 111.45 186.83 C 110.32 189.50 109.09 192.13 107.88 194.77 C 112.86 193.88 117.87 193.29 122.90 192.77 C 123.21 195.23 123.64 197.87 123.98 200.38 C 119.85 200.93 115.75 201.68 111.73 202.80 C 110.85 208.83 109.24 214.68 106.44 220.11 C 102.44 220.13 94.46 220.17 90.46 220.19 C 87.67 215.26 87.90 209.35 85.69 204.24 C 83.46 201.83 80.29 200.59 77.40 199.16 C 77.31 197.47 77.11 194.09 77.01 192.40 C 81.48 193.03 85.84 194.21 90.05 195.79 C 88.80 192.87 87.53 189.96 86.47 186.97 Z" />
<path fill="#ffffff" d=" M 89.94 188.55 C 95.66 187.75 101.45 187.42 107.23 187.51 C 106.57 190.27 105.85 193.01 105.13 195.75 C 105.83 196.47 106.54 197.19 107.25 197.91 C 111.73 196.52 116.30 195.43 120.94 194.69 C 120.93 195.95 120.93 197.22 120.92 198.49 C 117.10 199.09 113.30 199.81 109.57 200.82 C 109.02 206.78 109.87 214.42 103.64 217.79 C 99.68 217.70 94.29 219.20 91.26 215.77 C 88.79 211.70 89.84 206.45 87.73 202.22 C 85.47 199.83 82.27 198.61 79.33 197.25 C 79.28 196.59 79.17 195.27 79.12 194.61 C 82.99 196.01 86.71 197.80 90.53 199.33 C 91.40 197.47 92.29 195.61 93.19 193.76 C 92.12 192.01 91.02 190.28 89.94 188.55 Z" />
<path fill="#000000" d=" M 104.70 231.13 C 106.25 229.20 107.78 227.26 109.31 225.32 C 110.62 226.69 113.24 229.44 114.55 230.81 C 116.76 229.03 118.90 227.17 120.98 225.24 C 125.56 230.73 127.34 237.72 129.05 244.52 C 126.67 244.38 124.29 244.23 121.91 244.07 C 120.73 241.72 119.61 239.35 118.50 236.97 C 116.83 238.80 115.19 240.65 113.57 242.52 C 112.12 241.01 110.72 239.46 109.33 237.90 C 107.49 239.30 105.68 240.73 103.88 242.17 C 102.71 240.31 101.56 238.43 100.38 236.58 C 98.86 238.76 97.43 241.00 95.99 243.24 C 93.97 241.40 91.96 239.55 89.95 237.72 C 88.04 240.05 86.16 242.41 84.18 244.68 C 82.56 242.22 80.97 239.73 79.43 237.22 C 78.20 239.33 76.93 241.41 75.63 243.48 C 73.76 241.64 71.96 239.73 70.13 237.85 C 68.44 239.76 66.72 241.65 64.98 243.51 C 62.48 241.64 60.01 239.73 57.52 237.86 C 56.81 239.81 56.09 241.76 55.36 243.72 C 53.20 241.98 51.16 240.10 49.16 238.18 C 48.75 240.40 48.31 242.62 47.87 244.84 C 44.88 244.66 41.88 244.52 38.89 244.36 C 40.63 237.82 43.64 231.72 47.00 225.87 C 49.25 227.51 51.50 229.14 53.73 230.80 C 55.57 229.53 57.29 228.00 59.44 227.29 C 61.20 228.91 62.92 230.59 64.59 232.32 C 66.62 230.57 68.67 228.83 70.72 227.11 C 72.49 228.67 74.25 230.23 75.99 231.83 C 77.60 229.85 79.22 227.88 80.83 225.90 C 81.66 227.43 83.30 230.48 84.12 232.00 C 86.08 230.27 88.04 228.53 90.00 226.80 C 91.67 228.26 93.34 229.74 95.01 231.20 C 96.92 229.47 98.84 227.74 100.75 226.02 C 102.07 227.72 103.38 229.43 104.70 231.13 Z" />
<path fill="#ffffff" d=" M 47.99 228.66 C 50.19 230.90 52.32 233.21 54.51 235.46 C 55.44 233.80 57.32 230.50 58.25 228.85 C 60.38 231.27 62.49 233.72 64.63 236.14 C 66.57 233.74 68.51 231.36 70.48 228.99 C 72.13 231.08 73.82 233.15 75.57 235.17 C 77.02 233.33 78.46 231.48 79.91 229.64 C 81.39 231.86 82.86 234.09 84.36 236.29 C 86.04 233.89 87.67 231.45 89.31 229.03 C 91.12 230.61 92.84 232.34 94.91 233.59 C 96.97 232.19 98.73 230.39 100.62 228.77 C 101.74 230.63 102.84 232.50 103.96 234.36 C 105.89 232.47 107.78 230.55 109.70 228.66 C 111.37 230.54 113.06 232.42 114.78 234.27 C 116.98 232.23 119.16 230.18 121.49 228.29 C 123.59 233.03 125.50 237.92 125.64 243.21 C 122.82 240.61 121.05 237.18 119.37 233.79 C 117.53 235.39 115.71 237.00 113.88 238.63 C 112.34 237.15 110.86 235.57 109.08 234.37 C 107.17 235.70 105.54 237.39 103.81 238.94 C 102.78 236.76 101.69 234.62 100.50 232.52 C 98.73 234.87 97.02 237.27 95.42 239.75 C 93.57 238.03 91.71 236.33 89.85 234.62 C 87.96 236.71 86.12 238.84 84.31 240.99 C 82.69 238.57 81.08 236.16 79.43 233.77 C 78.06 235.89 76.68 238.02 75.32 240.15 C 73.61 237.81 72.02 235.40 70.47 232.95 C 68.46 235.66 66.49 238.40 64.48 241.10 C 62.32 238.93 60.17 236.77 57.99 234.62 C 56.86 236.48 55.73 238.35 54.60 240.22 C 52.34 237.59 50.04 234.98 47.53 232.58 C 47.22 235.53 46.94 238.63 46.62 241.62 C 45.03 241.78 43.44 241.93 41.86 242.08 C 43.57 237.46 45.57 232.95 47.99 228.66 Z" />
<path fill="#000000" d=" M 37.93 254.01 C 64.50 254.03 91.07 253.81 117.64 254.31 C 121.92 254.32 126.19 254.59 130.42 255.22 C 130.42 259.44 130.41 263.68 130.74 267.89 C 113.77 265.74 96.71 266.93 79.70 267.37 C 65.95 266.80 52.19 266.17 38.42 266.67 C 38.24 262.44 38.08 258.23 37.93 254.01 Z" />
<path fill="#ffffff" d=" M 39.80 256.00 C 69.30 257.18 98.82 255.09 128.30 257.17 C 128.35 260.01 128.36 262.86 128.31 265.71 C 117.23 264.82 106.09 263.76 94.97 264.56 C 77.03 265.72 59.10 264.18 41.17 263.80 C 40.73 261.20 40.25 258.60 39.80 256.00 Z" />
<path fill="#000000" d=" M 37.12 273.27 C 42.36 272.55 47.66 273.10 52.90 273.59 C 53.20 290.55 53.70 307.52 53.93 324.49 C 50.18 323.02 43.54 324.33 40.91 321.06 C 39.71 306.65 41.48 292.05 40.25 277.61 C 39.39 276.03 38.18 274.69 37.12 273.27 Z" />
<path fill="#000000" d=" M 77.23 272.66 C 82.17 272.54 87.10 273.01 91.97 273.88 C 91.99 290.42 92.20 306.96 91.79 323.50 C 87.81 323.91 83.85 324.32 79.88 324.75 C 78.90 310.40 78.73 296.01 79.35 281.64 C 80.02 295.00 79.95 308.39 81.02 321.73 C 84.00 321.62 86.97 321.61 89.95 321.72 C 90.02 305.93 90.05 290.14 89.94 274.36 C 87.79 274.78 83.50 275.63 81.35 276.06 C 80.84 277.27 79.83 279.70 79.32 280.91 C 78.66 278.13 77.99 275.40 77.23 272.66 Z" />
<path fill="#000000" d=" M 97.06 272.52 C 101.61 272.31 106.19 272.59 110.61 273.71 C 109.61 289.43 110.05 305.19 111.01 320.90 C 110.54 321.08 109.58 321.46 109.11 321.64 C 107.94 306.08 107.93 290.45 107.86 274.85 C 104.98 274.95 102.15 275.15 99.28 275.29 C 98.94 290.83 98.96 306.37 99.01 321.92 C 102.38 321.81 105.73 321.69 109.11 321.64 C 105.24 322.68 101.30 323.40 97.35 324.05 C 96.27 306.87 98.39 289.69 97.06 272.52 Z" />
<path fill="#000000" d=" M 58.53 273.41 C 62.99 273.22 67.45 273.07 71.91 272.93 C 72.18 290.32 72.98 307.69 73.06 325.08 C 68.82 324.95 64.58 324.88 60.34 324.73 C 58.82 307.65 61.28 290.40 58.53 273.41 Z" />
<path fill="#000000" d=" M 116.35 274.04 C 120.88 274.01 125.42 274.01 129.96 273.99 C 129.61 291.08 131.29 308.24 129.26 325.27 C 125.50 324.97 121.76 324.69 118.02 324.28 C 117.29 307.54 117.99 290.74 116.35 274.04 Z" />
<path fill="#ffffff" d=" M 61.11 275.02 C 64.02 274.97 66.96 275.02 69.87 275.00 C 70.53 290.86 71.07 306.74 70.58 322.62 C 67.73 322.38 64.88 322.15 62.04 321.93 C 61.80 306.30 62.68 290.60 61.11 275.02 Z" />
<path fill="#ffffff" d=" M 99.28 275.29 C 102.15 275.15 104.98 274.95 107.86 274.85 C 107.93 290.45 107.94 306.08 109.11 321.64 C 105.73 321.69 102.38 321.81 99.01 321.92 C 98.96 306.37 98.94 290.83 99.28 275.29 Z" />
<path fill="#ffffff" d=" M 43.01 276.00 C 45.64 276.00 48.27 276.00 50.91 276.01 C 51.64 291.30 51.65 306.60 51.89 321.91 C 48.94 321.54 45.98 321.19 43.03 320.86 C 42.98 305.90 42.99 290.95 43.01 276.00 Z" />
<path fill="#ffffff" d=" M 118.98 276.10 C 121.73 276.17 124.47 276.21 127.22 276.19 C 128.31 291.46 128.08 306.78 127.97 322.08 C 125.37 322.43 122.76 322.75 120.16 323.07 C 119.81 307.41 119.38 291.76 118.98 276.10 Z" />
</svg>
