<?xml version="1.0" encoding="UTF-8" standalone="no"?>
<svg
   width="45.38916015625"
   height="18.0"
   version="1.1"
   id="svg6"
   sodipodi:docname="shepse.svg"
   inkscape:version="1.1.1 (3bf5ae0d25, 2021-09-20)"
   xmlns:inkscape="http://www.inkscape.org/namespaces/inkscape"
   xmlns:sodipodi="http://sodipodi.sourceforge.net/DTD/sodipodi-0.dtd"
   xmlns="http://www.w3.org/2000/svg"
   xmlns:svg="http://www.w3.org/2000/svg">
  <defs
     id="defs10" />
  <sodipodi:namedview
     id="namedview8"
     pagecolor="#ffffff"
     bordercolor="#666666"
     borderopacity="1.0"
     inkscape:pageshadow="2"
     inkscape:pageopacity="0.0"
     inkscape:pagecheckerboard="0"
     showgrid="false"
     inkscape:zoom="30.293577"
     inkscape:cx="22.678075"
     inkscape:cy="8.9953063"
     inkscape:window-width="1920"
     inkscape:window-height="1001"
     inkscape:window-x="-9"
     inkscape:window-y="-9"
     inkscape:window-maximized="1"
     inkscape:current-layer="svg6" />
  <path
     d="M 22.77966110174755 0.5684490592972326 Q 22.633638086057772 0.6049545148491455 22.633638086057772 0.696219735092747 Q 22.633638086057772 0.7874840005506465 22.72490223216746 0.8422427507825265 Q 22.76140750869705 0.864146310549385 22.796453872674018 0.864146310549385 Q 22.84902246385376 0.864146310549385 22.898304682647282 0.8148638530594374 Q 22.980442987017422 0.7327252503187663 22.92568411743733 0.6505866475780953 Q 22.870925247857237 0.5684490592972326 22.77966110174755 0.5684490592972326 ZM 2.5609985348740345 0.46936116044907683 Q 2.359843567091113 0.46936116044907683 2.1720992805818096 0.7509784853246271 Q 2.2816167810455696 0.9335079710261279 2.5189051363271635 0.988266721258008 Q 2.5554108902496084 0.9973931597386192 2.589888440644617 0.9973931597386192 Q 2.762277147405363 0.9973931597386192 2.8839638690337397 0.7692307655447858 Q 2.8839638690337397 0.5136903090653525 2.6284226367909236 0.47718380921657794 Q 2.5945244026205927 0.46936116044907683 2.5609985348740345 0.46936116044907683 ZM 1.241199810550572 0.7874840005506465 Q 1.186441060318692 0.9152547360202673 1.2777053257765913 1.0247722364840275 L 0.5110819274186749 1.0977842217217681 Q 0.4928296471985162 0.9335079710261279 1.241199810550572 0.7874840005506465 ZM 1.9876164226822657 1.222624719872005 Q 1.9876164226822657 1.222624719872005 1.9876164226822657 1.222624719872005 L 1.9876164226822657 1.222624719872005 L 1.9876164226822657 1.222624719872005 ZM 2.125909851373434 1.2203396789907357 Q 2.284224539494109 1.2203396789907357 2.382007723680506 1.2529337952403716 Q 2.418033220394854 1.2649421350142038 2.3813761329386445 1.2649421350142038 Q 2.314213403607673 1.2649421350142038 2.0030587685814902 1.2246304859354444 L 2.0030585298850645 1.2246304859354444 Q 2.068468511363622 1.2203396789907357 2.125909851373434 1.2203396789907357 ZM 5.49470864855246 2.472162196565138 Q 5.540779445637364 2.472162196565138 5.621903767591998 2.539765559497574 Q 7.100390859290249 3.7627121350422854 9.290743732922557 5.405476312873666 Q 11.481095651769165 7.048240490705046 11.754889044883926 7.723598609145255 Q 9.966101851362767 7.468058331688141 8.697522964066787 6.318122547899043 Q 7.428944554163657 5.168188196288498 6.488918406955382 4.082139033390444 Q 5.548891782354257 2.996088915706688 5.439374520586923 2.667536414315408 Q 5.416389009597399 2.472162196565138 5.49470864855246 2.472162196565138 ZM 5.554353633962448 1.6040624432514505 Q 5.819804109613288 1.6040624432514505 6.059973769447039 1.7001303549242361 Q 11.736636406619128 6.007822446076134 12.558018495534819 7.303781245555012 Q 13.324641714870417 8.709256829408373 13.561929831455585 9.457627410479173 Q 13.461538888820648 9.568057924770454 13.322497266183765 9.568057924770454 Q 13.208735504578268 9.568057924770454 13.069100960020451 9.49413364179447 L 12.320730378949651 7.979140318780923 Q 11.754889044883926 6.683181519302044 9.555411284297772 5.104303007576006 Q 7.355932568925916 3.5254240184571173 6.370273871269948 2.603650986906491 Q 5.791486120478193 2.0623774824348997 5.483335241270446 2.0623774824348997 Q 5.266714415990388 2.0623774824348997 5.183833288344107 2.3298573550953035 Q 5.042689704984308 2.7853667564934774 4.685065172449792 2.7853667564934774 Q 4.533956013325552 2.7853667564934774 4.344197606377917 2.704041929541427 Q 4.508475169903898 1.8461543253997177 5.0560624335262725 1.6818780747040774 Q 5.315446678219568 1.6040624432514505 5.554353633962448 1.6040624432514505 ZM 6.023468492917445 8.033898710968165 Q 6.899609451413228 9.439374772214377 6.735331887887247 10.863103471725385 Q 6.5710557565398195 10.863103471725385 6.42503274085004 11.100391588310554 Q 6.365295618619811 10.697168400220765 6.0611810959671955 10.697168400220765 Q 5.99359993180233 10.697168400220765 5.913950753757259 10.717080456035607 Q 6.2972618860322065 9.311604394789393 6.023468492917445 8.033898710968165 ZM 2.768605228341677 0.3457626296377467 Q 2.854758883981503 0.3457626296377467 2.920469384259759 0.35853969124988744 Q 3.2490218856510396 0.42242505898469784 3.3037807552311325 0.5958278973462152 Q 3.3423147126810133 0.7178524937648807 3.3808493862201705 0.7178524937648807 Q 3.3970742983503825 0.7178524937648807 3.4132992104805946 0.696219735092747 Q 3.4680568865785597 0.6232077498550063 3.4863100022362077 0.5319425296114048 Q 3.887874488865229 1.061277632361834 3.5410688718163006 2.101695796338959 Q 3.1942632547673724 3.14211288618217 4.654497708200826 3.3428945327556163 Q 6.0052153772597965 6.445893402716877 7.556713976802937 8.06127814575821 Q 9.10821353113178 9.676662888799545 8.852672776281816 11.100391588310554 Q 8.262843406239485 10.66180027346223 7.547702231954776 10.66180027346223 Q 7.399740523897122 10.66180027346223 7.2464148297657305 10.680575179506013 Q 7.301173699345823 9.384615902634284 6.6258155809056145 8.125163811863553 Q 5.950456507679704 6.865711243699971 5.38461565100683 6.235985198314606 Q 4.818774316941105 5.6062591529292405 3.860495770164459 4.739244036173004 Q 2.9022162686021113 3.872229635506046 2.911342826430935 2.9504568426518447 Q 2.920469384259759 2.0286838111012186 3.166884297370177 1.6636248396982167 Q 3.4132992104805946 1.298565868295215 3.404172413955345 1.0795309867159075 Q 3.4003959978075793 0.9888957460132952 3.368491117486562 0.9888957460132952 Q 3.323292755836844 0.9888957460132952 3.221642928253844 1.170795132825594 Q 3.0482402390775927 1.4810953539967158 2.2633636653879217 1.4993485890025766 Q 2.2171959575542664 1.5004222455244558 2.1705229293878365 1.5004222455244558 Q 1.4237308477788386 1.5004222455244558 0.5475883974303962 1.2255549571913888 L 0.5475883974303962 1.2255549571913888 L 1.6245109428255198 1.298565868295215 Q 2.1565852064067235 1.4089965019347084 2.4153431116795185 1.4089965019347084 Q 2.627053474094281 1.4089965019347084 2.6558013554916937 1.3350723383069363 Q 2.7196867829006104 1.170795132825594 2.5554106515531827 1.1434162947766116 Q 2.3911342815093297 1.116036382593714 2.2177315923330783 1.116036382593714 Q 2.0443286644604015 1.116036382593714 1.953064399002502 1.170795132825594 L 1.9876164226822657 1.222624719872005 L 1.9876164226822657 1.222624719872005 Q 1.8278830423566574 1.2018226844347024 1.6062577078196592 1.170795132825594 Q 1.3689705460201929 0.7874840005506465 1.5332466773676203 0.6232077498550063 Q 1.5697521925936397 0.5684490592972326 1.6610164580515392 0.5684490592972326 Q 1.6245109428255198 0.7509784853246271 1.7249017661122432 0.8422427507825265 Q 1.7620839857045425 0.8760447306192765 1.798014123196905 0.8760447306192765 Q 1.8590952256508866 0.8760447306192765 1.9165579289907808 0.7783573830477161 Q 2.0078231492343823 0.6232077498550063 1.7522816782951405 0.5501957646172655 Q 2.4239901283895215 0.3457626296377467 2.768605228341677 0.3457626296377467 ZM 23.01695017311842 0.38591957359573165 Q 23.509778089767853 0.38591957359573165 23.747067161138723 0.7509784853246271 Q 23.82007771419791 0.8057372355565071 24.659714350949802 0.9517601915721803 L 24.659714350949802 1.0065190014781666 L 23.747067161138723 1.0795309867159075 Q 22.96219130353833 1.0795309867159075 22.76140750869705 0.9608868090751106 Q 22.56062562342718 0.8422427507825265 22.56975337473813 0.6870931175898166 Q 22.578879216477677 0.5319425296114048 22.816166378277146 0.5319425296114048 Q 23.053455449648016 0.5319425296114048 23.144719595757703 0.614081132352076 Q 23.23598374186739 0.696219735092747 23.190352623598248 0.7874840005506465 Q 23.144719595757703 0.8787482063344395 23.01695017311842 0.9335079710261279 Q 23.036506093866425 0.9348116712280785 23.054711947631823 0.9348116712280785 Q 23.291393775296232 0.9348116712280785 23.299870362758433 0.7144720153129057 Q 23.30899620449798 0.47718380921657794 22.907432433958235 0.4406782939905586 Q 22.3963490146869 0.4406782939905586 22.524120346897586 0.8148638530594374 Q 22.645949092899134 1.171644176011082 23.64728059785314 1.171644176011082 Q 23.69612743436656 1.171644176011082 23.747067161138723 1.170795132825594 Q 24.312907540418745 1.1342897369477876 24.75097849705949 1.0430254714898881 L 24.714473220529893 0.9700134862521473 L 24.714473220529893 0.9700134862521473 Q 26.338983805310775 1.9739250608693384 26.238591907890136 3.2607569444747537 Q 26.138201920040903 4.547588947428382 24.97001397537986 5.396349993741268 Q 23.801826030718814 6.245110562661302 22.889178840907736 7.267275491632566 Q 21.465450141396726 9.001303815573634 21.35593240223654 9.986962513229603 Q 21.246414663076354 10.97262121088557 21.848762228457378 10.97262121088557 Q 22.451107884266992 10.97262121088557 23.318122046237526 10.251630064604818 Q 24.185138117779466 9.530638918324064 25.079531714540046 9.512386280059266 Q 27.470664563870823 9.567144194853658 27.196872125541763 11.720991791956372 Q 26.320730212260276 10.790091963880496 25.225554730229824 10.790091963880496 Q 24.677966034428895 10.790091963880496 23.728813568088224 11.264668197050833 Q 22.286831275526716 12.031291416386429 21.53846260402732 12.031291416386429 L 20.9178614455958 11.94002631549104 Q 19.786180687035753 11.100391588310554 20.151239181045902 9.457627410479173 Q 20.69882596727543 8.271186827553333 21.629726750137007 5.222947065868591 Q 22.26857959204762 3.488918503231098 22.898304682647282 2.594524429077667 Q 23.52803168281835 1.7001303549242361 24.239896987359558 1.6818780747040774 Q 24.623207164848804 1.6818780747040774 25.48109548507979 2.0469359719731646 Q 25.516527582480354 2.0565995967593533 25.54286630085524 2.0565995967593533 Q 25.665772045128623 2.0565995967593533 25.590613224239974 1.8461543253997177 Q 24.90056286341766 1.4183230873680976 23.98094382841071 1.4183230873680976 Q 23.68429382037619 1.4183230873680976 23.36375507407807 1.4628421189908551 Q 23.08996072617761 1.4628421189908551 22.697522797377413 1.3168191033010757 Q 22.305084868577215 1.170795132825594 22.305084868577215 0.6232077498550063 Q 22.633638086057772 0.38591957359573165 23.01695017311842 0.38591957359573165 ZM 5.183833288344107 3.0508475465903557 Q 6.607562465247967 4.876141210123237 7.794002570780957 6.05345547391668 Q 8.980443153706798 7.2307702151029725 10.029987517468108 7.641461259560818 Q 11.079530926443718 8.052151349232961 11.973924523204298 8.070405897069161 Q 12.083442262364484 8.21642795797324 14.146023803786107 12.68839689656184 L 14.018253426361124 12.743155766141934 L 9.10821353113178 9.603651380954656 Q 9.144719762447076 9.329857033054191 7.657105874223576 7.641461259560818 Q 6.169491508607224 5.953063576496041 5.037810272654327 3.178618401408189 L 5.183833288344107 3.0508475465903557 ZM 10.22164260621273 10.917862341305478 L 12.941329627809766 12.578879157401655 Q 13.032594728705156 12.83441991225162 12.284224147634355 12.92568501314701 Q 12.117919574063066 12.945966571028519 11.97865548635762 12.945966571028519 Q 11.491235475924217 12.945966571028519 11.33507072650798 12.69752369308709 Q 11.13428979602381 12.378097272131784 10.823990171593753 11.867014807646152 Q 10.51368863759229 11.35593329794622 10.22164260621273 10.917862341305478 ZM 19.51238633913529 10.132986483705084 Q 19.51238633913529 10.899609703040682 19.73142181745566 11.465450082320704 Q 20.297262196735684 12.469361418241471 21.246414663076354 12.487615011291968 Q 21.271391857040214 12.488095268500066 21.296634481429226 12.488095268500066 Q 22.230630679536628 12.488095268500066 23.52803168281835 11.830508576330855 Q 24.760560726364584 11.205802794166512 25.321529788993093 11.205802794166512 Q 25.367013870264127 11.205802794166512 25.408083022449198 11.20990932747074 Q 25.955671718250127 11.264668197050833 26.594524560160743 11.775749706750762 Q 27.233377402071355 12.286832171236394 27.26988267860095 12.670144258297045 Q 27.336545816313357 12.981237309645449 27.213848215323008 12.981237309645449 Q 27.134969549339438 12.981237309645449 26.97783664722139 12.85267350530212 Q 26.453025319126954 11.803050849113246 25.632165497990247 11.803050849113246 Q 25.625090535938558 11.803050849113246 25.617992659030023 11.80312914154081 Q 24.78748377358908 11.812255938066059 23.573664710658896 12.451108779976673 Q 22.359843738157306 13.089961621887287 20.744458995115973 13.089961621887287 Q 19.129074252074638 13.089961621887287 18.946545959855264 12.049544054651227 Q 18.764015758064488 11.009126487415164 19.51238633913529 10.132986483705084 ZM 5.9869617842092975 11.191656689205942 L 6.260756609502613 11.739244430221168 Q 6.516296886959727 11.483703675371203 6.65319453830281 11.438070647530658 Q 6.65701845503925 11.436796008618511 6.66032249096096 11.436796008618511 Q 6.775304946086441 11.436796008618511 6.260756609502613 12.980443882727103 L 5.494133390167016 13.21773199931227 Q 5.293350550111441 13.071708028836788 5.6127774484596 12.314211606026442 Q 5.932203392022056 11.556715183216093 5.9869617842092975 11.191656689205942 ZM 25.3841465449005 12.332304795079008 Q 25.989295451531138 12.332304795079008 26.338983805310775 12.83441991225162 Q 26.101694733939905 13.21773199931227 25.225554730229824 13.436768432418344 Q 24.550196611789616 13.436768432418344 23.85658490029891 12.870926143566917 Q 24.757383199548386 12.332304795079008 25.3841465449005 12.332304795079008 ZM 23.272490927968388 13.089961621887287 Q 23.54354504090416 13.354712239618575 23.860314293250852 13.52803162374233 L 21.3870259534073 13.52803162374233 Q 22.296396318689176 13.432913007753738 23.272490927968388 13.089961621887287 ZM 13.835724179356049 14.239895973497832 Q 11.793824251025065 17.175128731674494 7.949174820459982 17.25145239111956 L 7.949174820459982 17.25145239111956 Q 4.122734108017405 17.175128731674494 2.080834179686421 14.239895973497832 ZM 28.602347232002273 14.258150521334034 Q 26.56044825845699 17.19338041515359 22.715797395713356 17.26970598417006 L 22.715797395713356 17.26970598417006 Q 18.889337110163886 17.19338041515359 16.829205548853547 14.258150521334034 ZM 3.0828786708633857 0.008692117630364187 Q 2.971576914619046 0.008692117630364187 2.8474573990220184 0.020860628300151455 Q 2.5554106515531827 0.020860628300151455 1.186441060318692 0.4406782939905586 Q 0.09126423562084626 0.696219735092747 0.0 1.0977842217217681 L 0.036505492848229494 1.7183835899300968 L 0.5840939126564156 1.5176008692227352 Q 1.4784879271357403 1.8096488101736983 2.080834179686421 1.8096488101736983 Q 2.6831812676745908 1.8096488101736983 2.5371572971991094 2.2203398546315434 Q 2.3911342815093297 2.6310308990893883 2.5736637672108307 3.5893094458660344 Q 2.7561932529123316 4.547588947428382 4.015645343683063 5.5241203711662505 Q 5.275098389239495 6.5006522722969695 5.576270739751453 8.079530784023007 Q 5.877444522441963 9.658410250534748 5.037810272654327 11.720991791956372 L 5.311603665769089 11.556715183216093 Q 5.3170254163777955 11.553462228329439 5.320836443507258 11.553462228329439 Q 5.38118176422965 11.553462228329439 5.037810272654327 12.368970475606535 Q 4.672751301251325 13.235984637577067 4.04302525586596 13.263364072367114 Q 3.93189679322653 13.268195288019145 3.833558162458005 13.268195288019145 Q 3.3746456661215403 13.268195288019145 3.1942632547673724 13.162973129732178 Q 2.989829552883843 13.04372039555458 2.5866402596864733 13.04372039555458 Q 2.5578429681289827 13.04372039555458 2.5280316941559873 13.044328594046743 Q 2.080834179686421 13.053455390571992 2.080834179686421 13.345502376737253 L 2.080834179686421 13.52803162374233 L 0.8031288539098296 13.52803162374233 Q 2.9022162686021113 17.981746969280433 7.958279656914086 18.000000562330932 Q 13.014342090440358 17.981746969280433 15.113428908391576 13.52803162374233 L 15.113428908391576 13.52803162374233 L 9.49152561819243 13.564537855057624 Q 9.49152561819243 13.400261246317346 9.144719762447076 13.208605202787021 Q 8.975349371986722 13.115006605635987 8.75591479324292 13.115006605635987 Q 8.526030084990925 13.115006605635987 8.241198414375544 13.21773199931227 Q 8.071091884138962 13.279081754593147 7.876274067756523 13.279081754593147 Q 7.433506997640579 13.279081754593147 6.863102742705081 12.962191244462305 Q 6.990873597522914 12.323337447765988 7.17340284452799 11.821382734591309 Q 7.355932568925916 11.319427066630926 7.867014556018697 11.228161965735536 Q 7.91433659976605 11.219711157487291 7.962910844961551 11.219711157487291 Q 8.438939307184603 11.219711157487291 9.03520202328689 12.031291416386429 Q 9.382007879032244 11.35593329794622 9.235984863342464 10.205997991549975 L 9.235984863342464 10.205997991549975 L 9.418514110347541 10.333768368974956 Q 10.787483940278456 12.633638026981748 11.070404129918469 13.035202752307194 Q 11.28503327222419 13.339837633167392 11.904089587389903 13.339837633167392 Q 12.10106378728027 13.339837633167392 12.338983017214447 13.308996145421958 Q 13.324641714870417 13.181225767996974 13.30638907660562 12.83441991225162 L 13.30638907660562 12.83441991225162 L 14.146023803786107 13.254238230627566 L 14.784876645696722 13.016950114042398 L 13.37940058445051 9.968709874964805 Q 13.726206440195863 9.968709874964805 14.018253426361124 9.676662888799545 Q 13.67144757061577 8.581486451983391 12.941329627809766 7.2307702151029725 Q 12.430248118109837 6.409388126187283 11.900913015359407 5.953063576496041 Q 10.4589307227979 4.602347339615624 8.907431645861907 3.3885266058104597 Q 7.355932568925916 2.174706826790998 6.6258155809056145 1.5176008692227352 Q 6.135176987870829 1.237236402210505 5.607156147639178 1.237236402210505 Q 5.310143798430758 1.237236402210505 5.0013035639461805 1.3259457804781123 Q 4.143416198500896 1.5723605742403173 3.9608864741029697 2.539765559497574 Q 3.906127843219302 2.50326028296798 4.0521506202126565 1.8096488101736983 Q 4.198174590688137 1.116036382593714 3.988266386285867 0.5228169265682828 Q 3.8063448603801033 0.008692117630364187 3.0828786708633857 0.008692117630364187 ZM 23.079162099888187 0.0 Q 22.74837277429359 0.0 22.451107884266992 0.09387261726752386 Q 22.06779770677775 0.20339010281275738 21.994785244147156 0.5136903090653525 Q 21.848762228457378 0.8970014413403002 22.12255657635784 1.2711870302462323 Q 22.3963490146869 1.645371604692356 22.980442987017422 1.7366368249359574 Q 21.81225504235638 2.795307030436816 20.99087390822639 5.478487343325705 Q 20.22424973410509 8.033898710968165 19.713168224405162 9.2568455252093 Q 18.344198394474244 10.370274600290251 18.353324236213794 11.492829517110751 Q 18.362451987524743 12.615385388716952 18.91003877375427 13.089961621887287 Q 19.30575352708367 13.432913007753738 20.06368533217412 13.52803162374233 L 15.55149986503232 13.52803162374233 Q 17.650586682983537 17.981746969280433 22.706650548688362 18.000000562330932 Q 27.762712504821785 17.981746969280433 29.861799322773003 13.52803162374233 L 26.348111556621728 13.52803162374233 Q 26.5488934418916 13.418513884582143 26.75880116890102 13.272490868892364 Q 26.964314972109918 13.516538868247567 27.224062512762817 13.516538868247567 Q 27.333429395782087 13.516538868247567 27.452412880391726 13.473272754162236 Q 27.908735520511563 13.254238230627566 27.6349411726111 12.469361418241471 Q 27.890481927461064 10.22425062981477 27.032595516801482 9.603651380954656 Q 26.1747071965705 8.983051177308838 25.09778339801914 8.983051177308838 Q 24.112125655148873 8.983051177308838 22.96219130353833 9.831812701014574 Q 22.249229905011244 10.358045705019261 21.98532331784051 10.358045705019261 Q 21.823573072067678 10.358045705019261 21.83050863540688 10.160365918495131 Q 21.848762228457378 9.64015665748425 22.633638086057772 8.398957204978315 Q 23.162973188808202 7.522817201268234 24.933506789278862 6.144720097419217 Q 26.704042299320925 4.766623948355902 26.685788706270426 3.370274444938514 Q 26.667537022791333 1.9739250608693384 25.900912848670032 1.2711870302462323 Q 25.134290584120137 0.5684490592972326 24.20338980125856 0.47718380921657794 Q 24.05736678556878 0.2764020731319715 23.82007771419791 0.1486313525808773 Q 23.582790552398443 0.020860628300151455 23.190352623598248 0.0026073821053958263 Q 23.13429142632065 0.0 23.079162099888187 0.0 Z"
     style="fill:#ffffff;stroke:none"
     id="path2" />
  <path
     d="M 40.64848380334104 1.4404795263897694 Q 40.5921585229277 1.5155793434613642 40.64848380334104 1.5906791605329593 Q 40.57338374763536 1.5531292519971618 40.517058467222014 1.5343542380707418 Q 40.53583324251435 1.478029434925567 40.64848380334104 1.4404795263897694 ZM 40.79868296021606 1.459254420999147 L 40.98643262221209 1.5906791605329593 L 40.77990818492373 1.5906791605329593 Q 40.8550082406294 1.5343542380707418 40.79868296021606 1.459254420999147 ZM 40.68811901583093 1.3591204565787076 Q 40.604675357968034 1.3591204565787076 40.53583324251435 1.4029285440005883 L 40.38563408563933 1.5343542380707418 L 40.38563408563933 1.6282290690687566 L 40.460734141345014 1.6094540551423366 Q 40.5921585229277 1.6845538722139315 40.747052089528054 1.6845538722139315 Q 40.90194565612841 1.6845538722139315 41.080307453210104 1.6094540551423366 L 41.28683189049847 1.6657789776045542 L 41.28683189049847 1.5343542380707418 L 41.080307453210104 1.5343542380707418 Q 40.8550082406294 1.3591204565787076 40.68811901583093 1.3591204565787076 ZM 40.1603434638857 2.095913336784025 L 40.1603434638857 2.095913336784025 Q 40.1603434638857 2.095913336784025 40.1603434638857 2.095913336784025 L 40.1603434638857 2.095913336784025 Q 40.1603434638857 2.095913336784025 40.1603434638857 2.095913336784025 ZM 40.23308772390164 2.311168202081822 Q 40.24716904400498 2.311168202081822 40.26359661443465 2.313514929676321 Q 40.329308805225985 2.3229023173224883 40.423183636223996 2.3416773312489085 Q 40.517058467222014 2.3604523451753283 40.49828369192968 2.3604523451753283 L 40.1978844236433 2.3792273591017485 Q 40.141559143229955 2.3604523451753283 40.16972178343663 2.332289943602741 Q 40.19084376359163 2.311168202081822 40.23308772390164 2.311168202081822 ZM 40.49828369192968 2.416777148320503 Q 40.460734141345014 2.4355521622469234 40.38563408563933 2.4637145638195106 Q 40.31053402993365 2.4918769653920982 40.27298447934898 2.510651979318518 Q 40.1978844236433 2.510651979318518 40.1978844236433 2.4918769653920982 Q 40.1978844236433 2.473101951465678 40.21665919893564 2.454327176173343 L 40.49828369192968 2.416777148320503 ZM 40.76707444381816 1.0605326596335771 Q 41.63762781398386 1.0605326596335771 41.56845638349252 1.6657789776045542 L 41.75620604548855 1.6657789776045542 Q 41.75620604548855 1.3653786354647908 41.906406156899905 1.3653786354647908 Q 42.131705369480606 1.3653786354647908 42.131705369480606 1.675166484567764 Q 42.131705369480606 1.9849531405003111 41.81253132590189 2.3792273591017485 Q 41.77498177531722 3.167775319036452 41.79375655060956 3.580825386783608 Q 41.69362377935954 3.618375414636448 41.59974894836153 3.618375414636448 Q 41.4119992863655 3.618375414636448 41.249282339913805 3.4681757804932585 Q 41.249282339913805 3.374300949495243 41.23989447499946 3.102064082781451 Q 41.232332638105575 2.8827610288612138 40.92018398199707 2.8827610288612138 Q 40.8448376559154 2.8827610288612138 40.75174554471705 2.89553845232266 Q 40.68044072550343 2.9053253134275616 40.62183792138032 2.9053253134275616 Q 40.286965573136506 2.9053253134275616 40.366859310346996 2.585751796390113 Q 40.64848380334104 2.416777148320503 40.563995882721024 2.3416773312489085 Q 40.47950891663734 2.2665775141773135 40.2542087495203 2.2478025002508932 Q 40.2542087495203 2.1722392557857133 40.16128368218165 2.0966757726864476 L 40.16128368218165 2.0966757726864476 Q 40.17344161155774 2.085086269701452 40.188496558728964 2.085086269701452 Q 40.21978816906164 2.085086269701452 40.26359661443465 2.1351528939605435 Q 40.30740505980765 2.1852192795855503 40.35121255064432 2.1852192795855503 Q 40.373117250598995 2.1852192795855503 40.39502099601733 2.1727026831792986 Q 40.460734141345014 2.1351528939605435 40.45134627643067 2.0694404645351163 Q 40.44195841151634 2.0037280351096887 40.413796725846005 2.0037280351096887 Q 40.38563408563933 2.0037280351096887 40.39502099601733 2.060053076888949 Q 40.40440886093167 2.1163778800341237 40.366859310346996 2.125765267680291 Q 40.362165855158 2.1269386314775405 40.35732444683613 2.1269386314775405 Q 40.32344127033748 2.1269386314775405 40.282371389726976 2.0694404645351163 Q 40.23543397422797 2.0037280351096887 40.1978844236433 2.0037280351096887 Q 40.1978844236433 2.0037280351096887 40.179109648350966 2.0318906753163612 Q 40.16075773265772 2.0594178329539723 40.1603434638857 2.095913336784025 L 40.1603434638857 2.095913336784025 Q 40.11497721520408 2.0592083122271094 40.04768431223194 2.0225030490361084 Q 40.2542087495203 1.5343542380707418 40.460734141345014 1.3278287269289935 Q 40.554608972343026 1.2715039237838184 40.657870713719035 1.2715039237838184 Q 40.76113340963139 1.2715039237838184 40.87378301592174 1.3278287269289935 Q 41.09908222850244 1.4404795263897694 41.343156216375476 1.478029434925567 L 41.343156216375476 1.3841546039275519 Q 41.17418228420812 1.3841546039275519 40.95826998200542 1.2433414028941885 Q 40.82872412794194 1.1588541981764262 40.68903823432737 1.1588541981764262 Q 40.59591366889343 1.1588541981764262 40.49828369192968 1.1964041067122235 L 40.61093329822003 1.0649793671784111 Q 40.69245642896471 1.0605326596335771 40.76707444381816 1.0605326596335771 ZM 41.74107187180102 0.3059347533999218 Q 42.14243435795413 0.3059347533999218 42.59169261409268 0.47356827791034056 Q 43.22065379087211 0.7082552360883353 43.22065379087211 1.8723034148929187 Q 43.22065379087211 3.0363506988196827 43.108004184581766 4.744872432076287 L 42.15048109930928 4.744872432076287 Q 42.01905576319025 2.754726444459723 42.11293059418827 2.4355521622469234 Q 42.39455508718231 2.0788278521812837 42.403942952096656 1.6657789776045542 Q 42.41332986247465 1.2527289098573984 42.19741851480829 1.1588541981764262 Q 42.089462363706936 1.1119167826774186 41.96977209736492 1.1119167826774186 Q 41.85008087648656 1.1119167826774186 41.718656494903875 1.1588541981764262 Q 41.64355643919819 0.8209049616957277 40.76113340963139 0.8021300074278289 Q 40.892557791214074 0.42663089224059375 41.4276441369955 0.3327561209011001 Q 41.580526495525234 0.3059347533999218 41.74107187180102 0.3059347533999218 ZM 41.117857958331115 3.749800034853218 Q 41.35723849101515 4.0032618876405905 41.61774100385419 4.0032618876405905 Q 41.70457517480054 4.0032618876405905 41.79375655060956 3.975099486068003 Q 41.81253132590189 4.087749092358353 41.868856606315234 4.857523470171148 Q 41.04275885716178 4.801198667025973 40.836233465337074 4.519574174031928 L 41.117857958331115 3.749800034853218 ZM 40.704808129218044 4.951398301169163 Q 41.09908222850244 5.195472766310368 41.634169528820195 5.2142475416027025 Q 41.7010548447747 5.216594269197202 41.76368674679344 5.216594269197202 Q 42.20211196999729 5.216594269197202 42.43210463776698 5.101597935312353 L 42.71373008529737 5.101597935312353 L 42.71373008529737 7.992942920958481 Q 42.78882918646671 11.466310713348694 41.4745815524945 11.503861218469705 L 37.10001500070881 11.503861218469705 Q 36.46166643628321 11.578961274175384 36.36779160528519 12.179759810748143 Q 36.19881576404516 13.231157727018644 35.85147931889386 14.094805981293113 Q 35.504142635108465 14.958455190103923 35.16619333896925 16.0849531620801 L 35.184968352895666 16.723301249237533 Q 35.61679224139882 17.51184944780632 34.959668901680885 17.643275738461686 L 32.57524756195098 17.643275738461686 L 32.55647260768308 17.62450000863301 Q 33.62664601514817 17.305325965054298 34.18050713622192 16.88288827102689 Q 34.7343694504661 16.460452486072164 34.90334409853571 14.873967269483906 Q 35.07231850797123 13.28748300743199 35.410267804110454 11.578961274175384 Q 35.447817593329205 10.602662459074224 36.161267167996826 10.452463302199206 Q 36.78084047986192 10.20838835978983 37.74775190731692 10.0206386977938 Q 38.71466190296739 9.832889990334111 40.40440886093167 9.720239429507421 Q 40.2542087495203 6.490945624990243 40.704808129218044 4.951398301169163 ZM 42.99535457829141 11.860585767169429 L 42.95780407317041 12.23608509116149 L 38.13263814168697 12.23608509116149 Q 37.83223791886425 12.23608509116149 37.83223791886425 12.893208908147594 Q 37.888563676545765 14.019706880123774 37.719588312573904 14.564180136283188 Q 37.55061390313838 15.108654346978943 37.56938867843071 15.822103444378392 Q 37.70081449181791 16.460452486072164 37.42857643193369 16.751463889444203 Q 37.15633980385398 17.042475292816246 37.30653943799717 17.239613774262956 Q 37.456739072140365 17.43675034663698 37.19388935443865 17.680825289046357 L 36.79961525515426 17.680825289046357 L 36.91226533871278 17.417974616808305 L 36.686965648863904 17.417974616808305 L 36.51799123942838 17.680825289046357 L 36.38656542604119 17.680825289046357 Q 36.38656542604119 17.43675034663698 36.82777789536093 17.17390158347161 Q 37.26898941014433 16.911050911233563 37.26898941014433 15.822103444378392 Q 37.26898941014433 14.601730641404197 37.15633980385398 14.395206204115834 Q 37.04368972029546 14.188680812291128 37.10001500070881 13.625431826303037 L 37.04368972029546 12.911982728903588 Q 37.10001500070881 11.860585767169429 37.66326446396507 11.860585767169429 ZM 44.74142586213269 8.48109185124089 Q 44.89162597354405 8.48109185124089 44.89162597354405 8.668841513236922 L 44.89162597354405 11.372435882350679 Q 44.21572738126561 12.104659755042464 44.21572738126561 12.930758458732264 Q 44.21572738126561 13.888281544004748 45.04182608495541 14.470305305285173 Q 44.72265108684036 14.977229965396258 44.72265108684036 15.240079683097967 Q 44.7789763672537 16.460452486072164 44.544289289758666 16.751463889444203 Q 44.30960221226363 17.042475292816246 44.459801369138646 17.239613774262956 Q 44.610001480550004 17.43675034663698 44.34715176284829 17.680825289046357 L 43.952877663563896 17.680825289046357 L 44.06552726985425 17.417974616808305 L 43.84022805727355 17.417974616808305 L 43.671253170569855 17.680825289046357 L 43.53982878898717 17.680825289046357 Q 43.53982878898717 17.43675034663698 43.98104030377057 17.17390158347161 Q 44.422251818553974 16.911050911233563 44.422251818553974 15.822103444378392 L 44.47857709896732 14.601730641404197 Q 43.31452862187013 13.719306657301052 43.31452862187013 12.329959922159505 L 43.671253170569855 8.687616288529256 Q 43.671253170569855 8.48109185124089 43.859002832565885 8.48109185124089 ZM 41.77858515000473 0.0 Q 41.54169309356184 0.0 41.32438239561948 0.05113179196798886 Q 40.68603335392571 0.20133144102580902 40.517058467222014 0.5392806476772468 Q 40.34808358051832 0.8772298244994239 40.2542087495203 1.1964041067122235 Q 40.06645908752428 1.4404795263897694 39.841160352211745 1.8535285202835414 Q 39.7285107459214 2.1163778800341237 39.841160352211745 2.1539279078869638 Q 39.953808526697586 2.1914776971057184 40.10400959264528 2.2478025002508932 Q 39.953808526697586 2.3229023173224883 39.97258425652626 2.3698397328214957 Q 39.99098389903656 2.4158376459268136 40.13559997285271 2.4347894877104155 L 40.13559997285271 2.4347894877104155 Q 40.11664288111923 2.4445804055947664 40.05707217714628 2.482489577745931 Q 39.953808526697586 2.548201768537273 40.038297401853946 2.5951391840362805 Q 40.12278436793762 2.642076599535288 40.12278436793762 2.7922762336784777 Q 40.10400959264528 3.0175756848932624 40.2542087495203 3.0739004880384373 L 40.01013476164727 3.768575048779638 L 40.554608972343026 3.768575048779638 L 40.68603335392571 3.1114505158912773 L 40.8550082406294 3.1114505158912773 Q 40.98643262221209 3.2992011324236485 40.76113340963139 3.637150189928783 Q 40.141559143229955 5.157922738457527 40.000747851269274 6.246870205312696 Q 39.85993512750408 7.3358186267042065 39.93503470594159 9.30718960039435 Q 38.695887127675064 9.41984016122104 37.719588312573904 9.598201958302733 Q 36.743290452009084 9.776563755384425 35.93596652361162 10.076963978207145 Q 35.07231850797123 10.396138021785859 35.03476871875248 11.560185544346709 Q 34.71559443653968 13.231157727018644 34.54661883393373 14.686217607487874 Q 34.37764418586412 16.141278442493448 33.89888288186196 16.591876867654847 Q 33.4201215778598 17.042475292816246 32.40627297353989 17.380425066223637 Q 31.84302428398008 17.530625177634995 31.861799240112305 17.99999933262507 L 35.184968352895666 17.99999933262507 Q 35.72944208632325 17.943674052211726 35.7951542771146 17.671436469595676 Q 35.86086670654002 17.399200796052313 35.720054460043 17.07063793302292 Q 35.57924245218006 16.74207697906621 35.560467438253646 16.36657765507415 Q 35.54169242432722 15.991078331082088 36.048616129901966 14.601730641404197 Q 36.6118660704264 13.512782220012689 36.67757826121774 12.771171436942906 Q 36.68611420244768 12.674835811257635 36.698610514956684 12.588162956952928 L 36.698610514956684 12.588162956952928 Q 36.696542511973774 12.739510421046244 36.70574090142441 12.911982728903588 L 36.762065704569586 13.625431826303037 Q 36.70574090142441 14.188680812291128 36.81839050771476 14.395206204115834 Q 36.931040114005114 14.601730641404197 36.931040114005114 15.822103444378392 Q 36.931040114005114 16.648202148068194 36.53676601472072 16.92982664106224 Q 35.99229132675679 17.267776414469626 35.99229132675679 17.680825289046357 L 35.99229132675679 17.99999933262507 L 37.456739072140365 17.99999933262507 Q 37.719588312573904 17.530625177634995 37.55061390313838 17.098800573229592 Q 37.55061390313838 16.779626529650876 37.79468932281592 16.732688159615527 Q 38.03876331068896 16.68575169865286 37.94488895695911 16.498002036656832 Q 37.8510141259611 16.310252374660802 37.86978794671709 15.840878219670728 Q 37.8510141259611 15.127429122271277 38.01998758086028 14.582955866111863 Q 38.188963422100315 14.038481655416108 38.13263814168697 13.043408065022613 Q 38.13263814168697 12.611585369689891 38.414262634681016 12.592808685324874 L 42.93902929787807 12.592808685324874 Q 43.070453679460755 13.869506768712412 44.12185255026759 14.845804629277232 L 44.10307777497526 15.822103444378392 Q 44.06552726985425 16.648202148068194 43.69002794586219 16.92982664106224 Q 43.14555373516643 17.267776414469626 43.14555373516643 17.680825289046357 L 43.14555373516643 17.99999933262507 L 44.610001480550004 17.99999933262507 Q 44.872851198251716 17.530625177634995 44.703876311548015 17.098800573229592 Q 44.703876311548015 16.779626529650876 44.94795125395739 16.732688159615527 Q 45.19202524183043 16.68575169865286 45.09815041083242 16.498002036656832 Q 45.0042755798344 16.310252374660802 45.01366344474874 15.775166028879385 Q 45.023050355126735 15.240079683097967 45.126313051039084 14.96784210048192 Q 45.22957574695144 14.695606426938554 45.31406271303511 14.620505416696533 Q 45.398549679118794 14.545405360990852 45.389162768740796 14.470305305285173 Q 45.37977490382646 14.395206204115834 45.28590007282844 14.320106148410153 Q 44.53490142484432 13.794406713006733 44.53490142484432 12.911982728903588 Q 44.53490142484432 12.142210260163475 45.248350522243776 11.503861218469705 L 45.248350522243776 8.405991795535211 Q 45.248350522243776 8.104549219028051 45.04738912275111 8.104549219028051 Q 45.03556719016707 8.104549219028051 45.023050355126735 8.105592527248831 L 43.59615311486417 8.105592527248831 Q 43.33330339716247 8.105592527248831 43.33330339716247 8.424766570827545 L 43.03290412887608 11.503861218469705 L 42.50029766850874 11.503861218469705 Q 42.9359451909601 10.97536976426868 43.070453679460755 9.663914149094074 L 43.070453679460755 5.101597935312353 L 43.40840345286814 5.101597935312353 Q 43.55860356427951 3.374300949495243 43.5679904746575 1.9286283373551363 Q 43.57737833957184 0.48295575504428995 42.77005441117437 0.19194396389185964 Q 42.23756440424064 0.0 41.77858515000473 0.0 Z"
     style="fill:#ffffff;stroke:none"
     id="path4" />
</svg>
