<?xml version="1.0" encoding="UTF-8" standalone="no"?>
<svg
   width="132.5201873779297"
   height="18.0"
   version="1.1"
   id="svg42"
   sodipodi:docname="shoshenqmeryamunsabastnetjerheqaiunu.svg"
   inkscape:version="1.1.1 (3bf5ae0d25, 2021-09-20)"
   xmlns:inkscape="http://www.inkscape.org/namespaces/inkscape"
   xmlns:sodipodi="http://sodipodi.sourceforge.net/DTD/sodipodi-0.dtd"
   xmlns="http://www.w3.org/2000/svg"
   xmlns:svg="http://www.w3.org/2000/svg">
  <defs
     id="defs46" />
  <sodipodi:namedview
     id="namedview44"
     pagecolor="#ffffff"
     bordercolor="#666666"
     borderopacity="1.0"
     inkscape:pageshadow="2"
     inkscape:pageopacity="0.0"
     inkscape:pagecheckerboard="0"
     showgrid="false"
     inkscape:zoom="10.375778"
     inkscape:cx="66.260094"
     inkscape:cy="9.0113727"
     inkscape:window-width="1920"
     inkscape:window-height="1001"
     inkscape:window-x="-9"
     inkscape:window-y="-9"
     inkscape:window-maximized="1"
     inkscape:current-layer="svg42" />
  <path
     d="M 9.619241759901131 8.704017150225534 C 9.956114020057063 8.704017150225534 10.371109904274771 8.76399089929749 10.864229412554256 8.883939352346172 C 11.905261819800385 9.137163864337834 12.8056128816014 9.495897714329981 13.565284507766846 9.960140902322616 C 14.32495613393229 10.42438504522002 15.176070395910864 11.008207138114807 16.1186263387978 11.711606226102205 C 15.211383729261659 12.170969850713034 14.168207560803758 12.400651185566062 12.989095923614554 12.400651185566062 C 12.723796640788658 12.400651185566062 12.45161535927535 12.38902331016484 12.172553033979401 12.365768514267165 C 10.653210736553286 12.239155780818948 9.3484030744964 11.792497164191472 8.258132912523058 11.025791709479964 C 7.167863705454489 10.259086254768457 6.897054622097669 9.78780828332499 7.445706139904986 9.61195779514956 C 7.994358612617073 9.436108261878905 8.441018184149321 9.207503104703234 8.78568342214457 8.92614327852732 C 8.967086681565636 8.778059511294387 9.244939142516232 8.704017150225534 9.619241759901131 8.704017150225534 ZM 16.87829701005847 11.880422885731571 L 17.743478929129175 12.070340076094354 C 17.743478929129175 12.295428318996994 17.539492171864723 12.478311680813713 17.131522476954906 12.618992071354056 C 16.899402315315747 12.634818663035082 16.657389340244983 12.642731958875595 16.405485461552153 12.642731958875595 C 15.985642480714866 12.642731958875595 15.538322115080815 12.620750051038186 15.063526274459544 12.576788145172907 C 15.977946903162229 12.464244023721587 16.582870481695206 12.232122907177656 16.87829701005847 11.880422885731571 ZM 18.207723072026578 12.196952809542571 L 18.73527358164809 12.302462147543055 C 18.791544210016596 12.471278807172421 18.594593191107748 12.640094511897015 18.144416705302472 12.808910216621609 L 17.532460253128203 12.76670629044046 C 17.968567172031815 12.569755271531616 18.193655414934454 12.379837126264063 18.207723072026578 12.196952809542571 ZM 19.009598624373172 12.407972440448313 L 19.36833342927009 12.49238029281061 C 19.283925576907794 12.731536192805375 19.030702019820904 12.851114142802757 18.608660848199875 12.851114142802757 C 18.847816748194642 12.696366095170289 18.98146331018892 12.548652830988656 19.009598624373172 12.407972440448313 ZM 19.600455500718795 12.618992071354056 C 19.938086910167982 12.71746853571325 20.163175153070622 12.87925041189178 20.27571831961717 13.10433865479442 L 19.326128548184172 12.893318068983906 C 19.509013819810434 12.808910216621609 19.600455500718795 12.71746853571325 19.600455500718795 12.618992071354056 ZM 17.405847519679988 13.864010280959864 C 18.46094662911347 13.99062205950331 19.255788352914 14.28604954277135 19.790372691081576 14.750293685668755 L 17.173725448231284 14.138336278589716 C 17.20186267222508 13.983587276052475 17.279236696041313 13.892145595144116 17.405847519679988 13.864010280959864 ZM 5.187792747046841 0.40093762696942586 C 5.848988863757863 0.40093762696942586 6.3484031042903535 0.5838216154424017 6.686035468644312 0.9495895923883535 C 7.0236668780935005 1.3153575693343054 7.129177170998758 2.198124417859453 7.0025653924553115 3.5978901976453446 C 6.875952659007095 4.997655977431236 6.8337487328259465 5.947245271411848 6.875953136459481 6.446659034491953 C 6.918156585188243 6.946073275024443 7.048285755457107 7.315357867835686 7.266340169813683 7.554513290378066 C 7.4843936292654885 7.793669667825216 7.748168406623859 8.029308176094565 8.05766402443641 8.261430247543267 C 8.367160119701346 8.49355231899197 8.212412072068878 8.70105503562468 7.5934203589913905 8.883939352346172 C 6.974429123366289 9.06682271416289 6.629762930466267 9.33763179751971 6.559423212648482 9.69636660241663 C 6.48908301737831 10.055099497504006 6.577008261466024 10.385698033311902 6.823197990006852 10.688160300030777 C 7.069388196000066 10.99062256674965 7.656726725715499 11.398594171469009 8.585214534057924 11.912075114188854 C 9.513701864947961 12.42555701181347 10.333162943564483 12.752637678443564 11.043595860097945 12.893318068983906 C 11.754030686440949 13.033998459524248 13.931053141209826 13.10433865479442 17.57466322440458 13.10433865479442 C 18.700104438917776 13.315358285700162 19.445707453086325 13.596718111876076 19.811474176719763 13.94841813332216 L 17.405847519679988 13.399766138062459 C 17.18076118658689 13.47010633333263 17.00490974350669 13.60375194042214 16.87829701005847 13.800703914235756 C 16.87829701005847 14.166472547678739 16.083455286257944 14.37749217858448 14.493772793561655 14.433763761857755 C 14.254616893566888 14.433763761857755 14.092834062483586 14.103166180954629 14.008427165026061 13.441970064243609 L 13.755202653034399 13.652989695149351 C 13.881814431577844 14.187574033316928 13.91698452921293 14.658852004760394 13.860712945939655 15.066823609479753 C 13.663760972126038 14.588511809490223 13.319094779226017 14.271981885679224 12.826715322144361 14.117233838046756 C 12.038906471985122 13.976553447506413 11.335507383997724 13.846424754689936 10.71651519346785 13.726846804692553 C 10.097523002937978 13.607269809599941 9.471497938766813 13.350529338240019 8.838438091144814 12.956624435708015 C 8.275718438792987 12.520516561899633 7.371849507814169 12.049238590456165 6.126831775660745 11.542790521377611 C 4.881814043507322 11.03634340720383 4.259305416156803 10.283705609584448 4.259305416156803 9.284877128519467 C 4.259305416156803 8.286049602359258 4.593420388785345 7.459554695196674 5.261649856590044 6.805393361936487 C 5.929879801847128 6.151231551223914 6.2639942970232845 5.366941047694864 6.2639942970232845 4.452521373896952 C 6.2639942970232845 4.002345365544058 6.207722713750011 3.5767882345547704 6.095179069751077 3.175850219655281 C 5.993352799453844 2.8130966980279646 5.689997219321334 2.6317199372143065 5.185112329353548 2.6317199372143065 C 5.131966626849421 2.6317199372143065 5.076588356989783 2.6337295343056977 5.0189770423222475 2.6377489672146734 L 3.2464102329044677 2.869871038663376 C 3.3026820549039346 2.6869874381204633 3.387089668540039 2.5181714946696765 3.4996335512651657 2.363423447037208 C 3.6403134643531225 1.9273154538657298 3.795061511985591 1.6740914193264531 3.9638776941625706 1.6037515821455712 C 3.9884963327999836 1.6899181303705768 4.083125485835245 1.733001523846176 4.247764437089777 1.733001523846176 C 4.271284696513898 1.733001523846176 4.296233016023633 1.732122295277918 4.32261082797614 1.7303637187783059 C 4.603971609056825 1.7162955842337946 4.765753485235356 1.5756155517827413 4.8079574114165045 1.308323860151339 C 4.7798216197798675 1.0410321685199366 4.6180397436013365 0.9003521360688832 4.32261082797614 0.8862840612059201 C 4.069387270889249 0.9003521360688832 3.9287073578012923 1.0410321685199366 3.9005710887122693 1.308323860151339 C 3.6754838007144013 1.5193437297832741 3.4996337899913588 1.765533697050295 3.373021295269335 2.046893523226209 C 3.3320964640294637 2.0673559388461444 3.2921017100369276 2.0775870272930157 3.2530370332917253 2.0775870272930157 C 3.1846734908983327 2.0775870272930157 3.119158190711805 2.046253737029377 3.0564913714583355 1.9835869177759076 C 3.225307553635315 1.6459552696005268 3.471497998354722 1.2977725205167625 3.7950622281641695 0.9390390286139039 C 4.118625980521232 0.5803047608509185 4.582869168513866 0.40093762696942586 5.187792747046841 0.40093762696942586 ZM 9.977946007845366 14.159437764227905 L 10.653208826743741 14.328253468952498 L 9.89353815548307 15.425557459471902 L 9.977946007845366 14.159437764227905 ZM 11.286269629270512 14.391559835676606 C 11.84898928162234 14.391559835676606 12.32378416733884 14.451348333222912 12.71065428642001 14.570927238125066 C 13.09752440550118 14.690504233217677 13.336679350591174 15.144197633295988 13.428121986404305 15.932005528550455 C 13.517959427296729 16.705992132143816 13.400721948894024 17.092986388845265 13.07640859629142 17.092986388845265 C 13.070618053757709 17.092986388845265 13.064760667889999 17.092862251224986 13.058837393593063 17.09261588579397 L 11.03304511727885 17.09261588579397 C 10.988356528882543 17.089306185856326 10.942987093384234 17.087650380982737 10.896935855879153 17.087650380982737 C 10.551564943257846 17.087650380982737 10.167861288398607 17.180747866764687 9.745823936396663 17.366940928519046 C 9.858368057847983 16.382182014355735 10.3718499554726 15.390387361836815 11.286269629270512 14.391559835676606 ZM 5.187792747046841 0.0 C 4.231169147067781 0.0 3.443361967991892 0.5345838607151904 2.8243702549144043 1.6037515821455712 C 2.613350385282469 1.9554513648654634 1.9873244855696295 2.3071511475853557 0.946292317049693 2.6588511690314407 C 0.22882448278191372 2.869871038663376 -0.08067132899566878 3.165298999383801 0.017804894772284054 3.545135051192716 L 0.03890708726380924 3.798358369553414 C 1.3753664816751086 3.6717465910099687 2.493771957832701 3.5099647148314377 3.3941234970861016 3.3130129797440135 L 5.040079482865207 3.0175852577497815 C 5.048381902400062 3.0173546482474904 5.056615568791377 3.017239343496345 5.064780004586766 3.017239343496345 C 5.5546451974053515 3.017239343496345 5.796118651280282 3.432360558965298 5.789199888759171 4.2626027511770115 C 5.782166060213108 5.106682229704753 5.4269491244939925 5.862836941597166 4.723549559054208 6.5310668868542505 C 4.020149993614424 7.199296832111335 3.661415904896083 8.166471652361876 3.6473477703515713 9.432591347605873 C 3.6473477703515713 10.459556097759878 4.136210551886389 11.19460836910933 5.11393659240841 11.637750071463774 C 6.09166167802566 12.08089177381822 7.037734535185626 12.555685704629948 7.952154686435924 13.062133773708501 C 8.866573405329065 13.568581842787054 9.387089131499744 13.962486745319058 9.513701864947961 14.243845616590201 C 9.44336166967779 15.735053554736838 9.26047830786107 16.698711938166735 8.96504986968826 17.134818857070343 C 8.472670412606604 17.134818857070343 7.614522322081965 17.064478661800173 6.390606553019116 16.92379827125983 C 6.01077121738878 16.980070809437876 5.75051335430344 17.10316567370829 5.609832486310712 17.293084773880615 C 5.469153528127526 17.48300387405294 5.497289319764163 17.69050468087611 5.69424129357778 17.91559292377875 C 5.7882960713930505 17.77973671214347 5.878469161312617 17.711806696516287 5.9647610407888685 17.711806696516287 C 5.99463093949035 17.711806696516287 6.024035799568166 17.719946304787623 6.052975621022314 17.73622552133029 C 6.165519265021248 17.799531888054396 6.446879091197162 17.831185071416453 6.897054144645284 17.831185071416453 L 8.96504986968826 17.831185071416453 C 9.066651737364214 17.811645809984256 9.162826881224358 17.801877134172933 9.253573391459145 17.801877134172933 C 9.489516991802953 17.801877134172933 9.68877028611562 17.867918348162302 9.851334229301921 18.000000776141047 C 10.048286203115538 17.98593311904892 10.21710095293536 17.929660580870873 10.357781343475702 17.831185071416453 C 10.978782653644581 17.849272877596132 11.498366392758383 17.8583158257812 11.916529696102794 17.8583158257812 C 12.474082358736627 17.8583158257812 12.85133372205558 17.842239049050068 13.048285695869197 17.810083585778262 C 13.39295188876922 17.753811047600216 13.705964898307187 17.704574247777778 13.987324724483102 17.662369366691856 L 14.704792424467398 17.89449143814056 C 14.713104870502352 17.89513122433739 14.721098378343662 17.895450162531034 14.728771038181785 17.895450162531034 C 14.889915037973028 17.895450162531034 14.91005779922074 17.754450833797048 14.789201231734465 17.47245026651953 C 14.170209041204592 17.134818857070343 14.02952865066425 16.28370459509177 14.367161015018208 14.919109390393348 L 14.367161015018208 14.919109390393348 C 14.486100133723532 14.921667580275903 14.601202445057407 14.922946197764796 14.712467949019834 14.922946197764796 C 15.825117259215483 14.922946197764796 16.55409538131412 14.795054846827687 16.899400405506203 14.539274054763013 C 18.306200491290543 14.792496656945131 19.452741281632388 15.03868734039073 20.33902468634128 15.277843240385495 L 20.486738905427682 15.024620638203377 C 20.1209702719847 14.616648078579246 19.84664522925962 14.356389738041521 19.6637618674429 14.243845616590201 L 19.6637618674429 14.243845616590201 L 20.59224824342817 14.433763761857755 C 20.74230770863311 14.490035345131028 20.8462548224276 14.518171614220051 20.90408958481164 14.518171614220051 C 21.01975910957972 14.518171614220051 20.95098304832509 14.405627492768732 20.697759491238198 14.180540204770864 C 20.641486953060152 14.025792157138396 20.23351534834079 13.723330845324293 19.473842767270575 13.273154359519014 L 19.473842767270575 13.273154359519014 L 20.761063948152763 13.526377916605906 C 20.901744338693106 12.62602685480489 19.924019253075855 11.985932223732057 17.827886781491472 11.606096888101721 C 16.73058279097207 11.352873331014829 15.738790048262691 10.86049196412363 14.852506643553802 10.12895660704721 C 13.684862457764227 9.101993766702748 11.91932947689251 8.349355969083367 9.55590579112911 7.871043214189065 C 8.303853752977238 7.786635839279153 7.607488493535902 7.4032831119233995 7.466808580447945 6.72098550957419 C 7.326128667359988 6.038687429772594 7.32964558163302 4.95193465952467 7.477359800719425 3.4607274375566117 C 7.625073542353445 1.969519857499264 7.417570825720734 0.9988280632941434 6.854850695916521 0.5486519952597018 C 6.43281095665265 0.1828839884729759 5.877125132846886 0.0 5.187792747046841 0.0 Z"
     style="fill:#ffffff;stroke:none"
     id="path2" />
  <path
     d="M 27.177865186478382 7.937876256002994 C 26.496671245133623 7.991654064440127 26.120222241250442 8.332250793733436 26.04851793344977 8.959665719745715 C 26.138148499234912 9.640860143848613 26.514597503118093 9.999383372505463 27.177865186478382 10.035235888474404 C 27.84113286983867 9.999383372505463 28.190692728124215 9.640860143848613 28.226544278576878 8.959665719745715 C 28.172766470139745 8.332250793733436 27.8232066118542 7.991654064440127 27.177865186478382 7.937876256002994 ZM 27.25853214051315 5.679180301671352 C 27.742538692303153 5.679180301671352 28.190693210882355 5.768811229525099 28.602994730734476 5.948073085232593 C 29.01529576782846 6.127334940940088 29.378299957533752 6.373819539952137 29.692007299850356 6.687527123647811 C 30.0057151249251 7.001234707343485 30.252199844626684 7.3597576946212655 30.43146145895511 7.763095602723013 C 30.610722590525395 8.16643375220383 30.700352914931468 8.592179844854769 30.700352914931468 9.040334122054901 C 30.700352914931468 9.506413933102294 30.610722590525395 9.941123154745469 30.43146145895511 10.344461786984425 C 30.252199844626684 10.747799936465242 30.0057151249251 11.101841721315509 29.692007299850356 11.406586176018948 C 29.378299957533752 11.711330630722387 29.01529576782846 11.948851980052666 28.602994730734476 12.119151189526065 C 28.190693210882355 12.289449433483185 27.742538692303153 12.374598314082675 27.25853214051315 12.374598314082675 C 26.774526312860356 12.374598314082675 26.32189131599085 12.289449433483185 25.900626908525563 12.119151189526065 C 25.479361776923067 11.948851980052666 25.116357104459635 11.711330630722387 24.8116130118248 11.406586176018948 C 24.506868074363222 11.101841721315509 24.264865160536825 10.747799936465242 24.085604149656074 10.344461786984425 C 23.906342354293347 9.941123154745469 23.8167114264396 9.506413933102294 23.8167114264396 9.040334122054901 C 23.8167114264396 8.592179844854769 23.906342354293347 8.16643375220383 24.085604149656074 7.763095602723013 C 24.264865160536825 7.3597576946212655 24.506868074363222 7.001234707343485 24.8116130118248 6.687527123647811 C 25.116357104459635 6.373819539952137 25.479361776923067 6.127334940940088 25.900626908525563 5.948073085232593 C 26.32189131599085 5.768811229525099 26.774526312860356 5.679180301671352 27.25853214051315 5.679180301671352 ZM 27.204754814834157 4.764946937561035 C 26.61319119789547 4.764946937561035 26.057480338304796 4.876985476688684 25.53762175330399 5.101062554943983 C 25.017763409682257 5.325139663371665 24.569609615240264 5.629884118075104 24.193160490667548 6.015295949226683 C 23.8167114264396 6.400708564860238 23.516448355197976 6.848862238612696 23.292371276942678 7.359757211863126 C 23.068294998255546 7.870652909250765 22.956256866455078 8.421882083655788 22.956256866455078 9.013444493699126 C 22.956256866455078 9.605007145121533 23.068294998255546 10.156236319526556 23.292371276942678 10.667132016914195 C 23.516448355197976 11.178027714301834 23.8167114264396 11.621700306316313 24.193160490667548 11.998149310199494 C 24.569609615240264 12.374598314082675 25.017763409682257 12.67486180773767 25.53762175330399 12.898938825648202 C 26.057480338304796 13.123014878042454 26.61319119789547 13.23505338699772 27.204754814834157 13.23505338699772 C 27.796317466256564 13.23505338699772 28.347546157903448 13.123014878042454 28.85844088977481 12.898938825648202 C 29.369336587162447 12.67486180773767 29.81749062298351 12.374598314082675 30.202903479996134 11.998149310199494 C 30.58831537149248 11.621700306316313 30.89305982619592 11.178027714301834 31.11713636134831 10.667132016914195 C 31.34121434477512 10.156236319526556 31.453252853730387 9.605007145121533 31.453252853730387 9.013444493699126 C 31.453252853730387 8.421882083655788 31.34121434477512 7.870652909250765 31.11713636134831 7.359757211863126 C 30.89305982619592 6.848862238612696 30.58831537149248 6.400708564860238 30.202903479996134 6.015295949226683 C 29.81749062298351 5.629884118075104 29.369336587162447 5.325139663371665 28.85844088977481 5.101062554943983 C 28.347546157903448 4.876985476688684 27.796317466256564 4.764946937561035 27.204754814834157 4.764946937561035 Z"
     style="fill:#ffffff;stroke:none"
     id="path4" />
  <path
     d="M 42.791217630075664 2.9892379897054955 C 43.068835731278675 2.9892379897054955 43.408691041004865 3.095985977015074 43.50778172773154 3.340333519869274 L 43.47130011263709 11.279334014803599 L 43.47130011263709 11.279334014803599 C 43.33048932130826 10.960512872387417 42.91219094789365 10.367342335933275 41.66974612501964 9.632436990092634 L 42.61300693482894 3.06154244747758 C 42.65725846576657 3.0145252182361735 42.656098295835605 2.9892379897054955 42.791217630075664 2.9892379897054955 ZM 43.47130011263709 11.279334014803599 L 43.47130011263709 11.279334014803599 C 43.47130011263709 11.279334014803599 43.47130029167566 11.279334014803599 43.47130029167566 11.279334014803599 L 43.47130011263709 11.279334014803599 L 43.47130011263709 11.279334014803599 ZM 42.65921016521369 2.25 C 42.446704811000096 2.25 42.254900701876345 2.280338063237631 42.11910334857324 2.317373030601139 L 40.9532527923584 10.098160711168036 C 41.56997155571676 10.520569989179059 43.264807589744684 11.67797341616124 43.19722267818634 12.683307927520042 L 43.2098602946596 15.75000086141948 L 44.07063691646657 15.73816856043225 L 44.065809678553215 3.119482909369111 C 43.80984432291815 2.427915471835376 43.173828603490534 2.25 42.65921016521369 2.25 Z"
     style="fill:#ffffff;stroke:none"
     id="path6" />
  <path
     d="M 59.15687039899707 4.056679974908366 L 59.15687039899707 5.839270883484621 L 46.028329247996275 5.839270883484621 L 46.028329247996275 4.056679974908366 ZM 46.0765073806605 2.25 L 46.0765073806605 3.5989877145982474 L 45.57063698768616 3.5989877145982474 L 45.57063698768616 6.296963143794741 L 59.6145626593072 6.296963143794741 L 59.6145626593072 3.5989877145982474 L 59.2050485316613 3.5989877145982474 L 59.2050485316613 2.25 L 58.74735627135118 2.25 L 58.74735627135118 3.5989877145982474 L 57.615170153741936 3.5989877145982474 L 57.615170153741936 2.25 L 57.15747789343182 2.25 L 57.15747789343182 3.5989877145982474 L 56.02529177582257 3.5989877145982474 L 56.02529177582257 2.25 L 55.567599515512455 2.25 L 55.567599515512455 3.5989877145982474 L 54.45950246423532 3.5989877145982474 L 54.45950246423532 2.25 L 53.97772113759309 2.25 L 53.97772113759309 3.5989877145982474 L 52.86962408631596 3.5989877145982474 L 52.86962408631596 2.25 L 52.41193182600584 2.25 L 52.41193182600584 3.5989877145982474 L 51.2797457083966 3.5989877145982474 L 51.2797457083966 2.25 L 50.82205344808648 2.25 L 50.82205344808648 3.5989877145982474 L 49.689867330477234 3.5989877145982474 L 49.689867330477234 2.25 L 49.232175070167116 2.25 L 49.232175070167116 3.5989877145982474 L 48.12407801888998 3.5989877145982474 L 48.12407801888998 2.25 L 47.666385758579864 2.25 L 47.666385758579864 3.5989877145982474 L 46.53419964097062 3.5989877145982474 L 46.53419964097062 2.25 Z"
     style="fill:#ffffff;stroke:none"
     id="path8" />
  <path
     d="M 46.9196247022844 7.736277055008216 L 46.630555906299065 8.362592779643116 L 45.71517138567883 10.4101634178726 L 45.57063698768616 10.699232213857938 L 46.17286364598895 10.988301009843276 L 46.31739804398161 10.675143147525826 L 46.94371376861652 9.253888233931244 L 47.256871630933965 9.80793675956981 L 47.5459404269193 10.386074351540486 L 47.835009222904645 9.80793675956981 L 48.17225615155421 9.205710101267021 L 48.485414013871655 9.80793675956981 L 48.77448280985699 10.386074351540486 L 49.063551605842335 9.80793675956981 L 49.37670946815978 9.205710101267021 L 49.713956396809344 9.80793675956981 L 50.00302519279468 10.386074351540486 L 50.292093988780024 9.80793675956981 L 50.60525185109747 9.229799167599133 L 50.918409713414924 9.80793675956981 L 51.23156757573237 10.386074351540486 L 51.520636371717714 9.80793675956981 L 51.83379423403516 9.205710101267021 L 52.146952096352614 9.80793675956981 L 52.46010995867006 10.386074351540486 L 52.749178754655404 9.80793675956981 L 53.06233661697285 9.205710101267021 L 53.3754944792903 9.80793675956981 L 53.68865234160775 10.386074351540486 L 53.97772113759309 9.80793675956981 L 54.29087899991054 9.205710101267021 L 54.60403686222799 9.80793675956981 L 54.89310565821333 10.386074351540486 L 55.20626352053078 9.80793675956981 L 55.51942138284823 9.205710101267021 L 55.83257924516568 9.80793675956981 L 56.12164804115102 10.386074351540486 L 56.43480590346847 9.80793675956981 L 56.74796376578592 9.205710101267021 L 57.08521069443548 9.83202582590192 L 57.37427949042082 10.361985285208377 L 57.68743735273827 9.83202582590192 L 58.024684281387835 9.18162103493491 L 58.867801603011735 10.699232213857938 L 59.036425067336516 10.988301009843276 L 59.6145626593072 10.675143147525826 L 59.470028261314525 10.386074351540486 L 58.31375307737317 8.314414646978893 L 58.024684281387835 7.808544254004551 L 57.73561548540249 8.338503713311004 L 57.37427949042082 8.964819437945906 L 57.037032561771255 8.338503713311004 L 56.72387469945381 7.784455187672439 L 56.45889496980058 8.338503713311004 L 56.12164804115102 8.940730371613794 L 55.808490178833566 8.338503713311004 L 55.51942138284823 7.760366121340327 L 55.23035258686289 8.338503713311004 L 54.91719472454544 8.940730371613794 L 54.579947795895876 8.338503713311004 L 54.29087899991054 7.760366121340327 L 54.0018102039252 8.338503713311004 L 53.66456327527564 8.940730371613794 L 53.35140541295819 8.338503713311004 L 53.06233661697285 7.760366121340327 L 52.77326782098751 8.338503713311004 L 52.46010995867006 8.940730371613794 L 52.1228630300205 8.338503713311004 L 51.83379423403516 7.760366121340327 L 51.544725438049824 8.338503713311004 L 51.23156757573237 8.916641305281683 L 50.918409713414924 8.338503713311004 L 50.60525185109747 7.760366121340327 L 50.316183055112134 8.338503713311004 L 50.00302519279468 8.940730371613794 L 49.689867330477234 8.338503713311004 L 49.37670946815978 7.760366121340327 L 49.087640672174444 8.338503713311004 L 48.77448280985699 8.940730371613794 L 48.461324947539545 8.338503713311004 L 48.17225615155421 7.760366121340327 L 47.859098289236755 8.338503713311004 L 47.5459404269193 8.940730371613794 L 47.232782564601855 8.338503713311004 L 46.9196247022844 7.736277055008216 Z"
     style="fill:#ffffff;stroke:none"
     id="path10" />
  <path
     d="M 57.36750942077049 13.021470375459153 Q 57.078603087174926 13.310375015381036 57.078603087174926 14.080782003492336 Q 57.078603087174926 14.867237722175602 57.36750942077049 15.156141623829475 L 47.83370898094224 15.156141623829475 Q 48.122612187755635 14.867237722175602 48.122612187755635 14.080782003492336 Q 48.122612187755635 13.310375015381036 47.83370898094224 13.021470375459153 ZM 45.98794159079826 12.42761457984745 Q 45.57063698768616 12.42761457984745 45.586687163580606 12.700466841284847 Q 45.57063698768616 13.021470375459153 45.98794159079826 13.021470375459153 L 47.03120157861497 13.021470375459153 Q 47.41640950227868 13.310375015381036 47.41640950227868 14.080782003492336 Q 47.41640950227868 14.867237722175602 47.03120157861497 15.156141623829475 L 46.003992492746725 15.156141623829475 Q 45.57063698768616 15.156141623829475 45.57063698768616 15.428995405230422 Q 45.57063698768616 15.749998852549668 45.98794159079826 15.749998852549668 L 59.213278113740365 15.749998852549668 Q 59.61456238788513 15.749998852549668 59.61456238788513 15.428995405230422 Q 59.61456238788513 15.156141623829475 59.197225908966 15.156141623829475 L 58.170018212778714 15.156141623829475 Q 57.78481115766561 14.867237722175602 57.78481115766561 14.080782003492336 Q 57.78481115766561 13.310375015381036 58.170018212778714 13.021470375459153 L 59.213278113740365 13.021470375459153 Q 59.61456238788513 13.021470375459153 59.61456238788513 12.700466841284847 Q 59.61456238788513 12.42761457984745 59.213278113740365 12.42761457984745 Z"
     style="fill:#ffffff;stroke:none"
     id="path12" />
  <path
     d="M 62.935725900538486 6.013417079845791 Q 63.33820950776808 6.013417079845791 63.99681899749805 6.232953395388147 Q 65.12586331979429 6.609302257129819 66.33555444097298 7.8055519434375995 Q 67.54524520008307 9.001801448711078 67.30330806205315 10.02331899893187 Q 67.0613694757488 11.04483546294685 66.362436224509 11.55559369495434 Q 65.78505736928612 11.97752455003085 64.96919514845099 11.97752455003085 Q 64.79743523353778 11.97752455003085 64.6151054498554 11.958824430749175 Q 63.5667061160986 11.851295848330707 62.814009840889675 10.305579717437325 Q 62.061313656197896 8.759863948612548 62.115077585338526 7.550173008468157 Q 62.168841514479155 6.340481977806615 62.49142572294299 6.125425537106889 Q 62.64823745448795 6.013417079845791 62.935725900538486 6.013417079845791 ZM 62.82546532946528 5.0803409814834595 Q 62.27158192063832 5.0803409814834595 61.926903109209114 5.3189646538787 Q 61.201088838171756 5.82972329321337 61.120442215019864 7.415762461479375 Q 61.039796349241946 9.001801448711078 62.03443096749037 10.856660805783136 Q 63.0290662815894 12.711520886992403 64.45381293829631 12.8862537472166 Q 64.72619171838102 12.919658920798653 64.98383285799095 12.919658920798653 Q 66.07385052955273 12.919658920798653 66.90007696418971 12.32173158606848 Q 67.92159306613608 11.582475840558956 68.17697308731134 10.224934004760684 Q 68.43235238434939 8.867391806893806 67.08825125928482 7.3485570974678325 Q 65.74414977215164 5.82972329321337 64.18499256845595 5.332405998232462 Q 63.3947345720861 5.0803409814834595 62.82546532946528 5.0803409814834595 Z"
     style="fill:#ffffff;stroke:none"
     id="path14" />
  <path
     d="M 73.92471413954809 2.838243429065037 Q 74.54312416118576 2.838243429065037 74.79953775811845 3.396320937099114 L 73.06497280995151 3.396320937099114 Q 73.32138712319532 2.838243429065037 73.92471413954809 2.838243429065037 ZM 73.57780036197245 4.150480155234513 L 73.57780036197245 5.372216835069386 L 71.76781967106974 5.372216835069386 Q 71.46615652104894 4.150480155234513 71.6622373805308 4.150480155234513 ZM 76.20227300846139 4.150480155234513 Q 76.39835458425438 4.150480155234513 76.09669089700022 5.372216835069386 L 74.28670984794195 5.372216835069386 L 74.28670984794195 4.150480155234513 ZM 75.96094205865806 6.020793583588047 Q 75.62911271898962 7.649776420293817 75.3726984057458 9.39188269202544 Q 75.1162848088131 11.13398932191263 75.16907550638813 12.521642283281764 Q 75.22186692027428 13.909293812028642 75.46319751192205 15.04053174384283 L 72.40131359338127 15.04053174384283 Q 72.64264418502903 13.909293812028642 72.69543488260406 12.521642283281764 Q 72.74822647556799 11.13398932191263 72.49181216232417 9.39188269202544 Q 72.23539856539148 7.649776420293817 71.90356868848968 6.020793583588047 ZM 73.92471413954809 2.25 Q 72.79347620773389 2.25 72.28064758124626 3.396320937099114 L 70.00308862279407 3.396320937099114 Q 69.71650838851929 3.396320937099114 69.71650838851929 3.7734005461668136 Q 69.71650838851929 4.150480155234513 70.00308862279407 4.150480155234513 L 70.41033415289273 4.150480155234513 Q 70.75724703507944 4.150480155234513 70.78741376196042 4.3163950041465196 Q 71.42090678888303 7.061532051070422 71.63207154903873 8.238019715050516 Q 72.03931698959849 10.485412573393967 72.03931698959849 12.008813656794128 Q 72.03931698959849 13.51713066044267 71.7829033926658 14.384413671759487 Q 71.52648907942199 15.251695966765178 71.52648907942199 15.372361441666841 Q 71.51196479681758 15.749999236181708 71.72122631830388 15.749999236181708 Q 71.72927461107001 15.749999236181708 71.73765383957769 15.749440513501195 L 76.12685690757006 15.749440513501195 Q 76.13523631515551 15.749999236181708 76.14328478699943 15.749999236181708 Q 76.35254577125238 15.749999236181708 76.33802184680354 15.372361441666841 Q 76.33802184680354 15.251695966765178 76.08160753355972 14.384413671759487 Q 75.82519393662703 13.51713066044267 75.82519393662703 12.008813656794128 Q 75.82519393662703 10.485412573393967 76.23243973534237 8.238019715050516 Q 76.44360395826472 7.061532051070422 77.07709734334288 4.3163950041465196 Q 77.10726335391274 4.150480155234513 77.42401040460739 4.150480155234513 L 77.86142221389257 4.150480155234513 Q 78.14800253770625 4.150480155234513 78.14800253770625 3.7734005461668136 Q 78.14800253770625 3.396320937099114 77.86142221389257 3.396320937099114 L 75.5838629868237 3.396320937099114 Q 75.07103507664719 2.25 73.92471413954809 2.25 Z"
     style="fill:#ffffff;stroke:none"
     id="path16" />
  <path
     d="M 81.43448940488452 2.587308943563865 Q 82.08412033481433 2.587308943563865 82.4838939609582 2.7747022423734924 Q 82.04664214580865 3.0620396966494874 81.95919161159465 3.461812752179724 Q 81.87174122003407 3.8615856650565514 81.65311502715247 3.924050311973208 Q 81.54380228734519 3.9552825641048317 81.43292763535918 3.9552825641048317 Q 81.32205298337317 3.9552825641048317 81.20961656186182 3.924050311973208 Q 80.98474428945276 3.8615856650565514 80.89729404054559 3.461812752179724 Q 80.80984357765828 3.0620396966494874 80.38508427819718 2.7747022423734924 Q 80.77236467538557 2.587308943563865 81.43448940488452 2.587308943563865 ZM 85.09491297810739 2.587308943563865 Q 85.75703763627963 2.587308943563865 86.14431824744813 2.7747022423734924 Q 85.71955916196714 3.0620396966494874 85.63210862775314 3.461812752179724 Q 85.54465809353914 3.8615856650565514 85.31978553582326 3.924050311973208 Q 85.20734954227214 3.9552825641048317 85.09491297810739 3.9552825641048317 Q 84.98247698455627 3.9552825641048317 84.87004099100515 3.924050311973208 Q 84.64516843328929 3.8615856650565514 84.56396440656297 3.461812752179724 Q 84.48276037983666 3.0620396966494874 84.04550799407347 2.7747022423734924 Q 84.44528133491053 2.587308943563865 85.09491297810739 2.587308943563865 ZM 88.79281573890981 2.587308943563865 Q 89.45494039708205 2.587308943563865 89.84222043763691 2.7747022423734924 Q 89.41746135215593 3.0620396966494874 89.33001138855556 3.461812752179724 Q 89.24256028372791 3.8615856650565514 89.01768829662568 3.924050311973208 Q 88.90525230307456 3.9552825641048317 88.79281573890981 3.9552825641048317 Q 88.68037917474506 3.9552825641048317 88.56794318119394 3.924050311973208 Q 88.34307176470534 3.8615856650565514 88.2618671673654 3.461812752179724 Q 88.18066314063908 3.0620396966494874 87.7434110401827 2.7747022423734924 Q 88.14318352509932 2.587308943563865 88.79281573890981 2.587308943563865 ZM 83.18349680813611 3.7991215887535326 Q 83.27094791296375 4.086458508079242 83.40212314367112 4.5174638157411025 Q 83.53329894499213 4.948469551363191 83.18349680813611 5.148356079128309 Q 82.83369552720056 4.948469551363191 82.96487132852157 4.5174638157411025 Q 83.09604712984257 4.086458508079242 83.18349680813611 3.7991215887535326 ZM 86.88139985424536 3.811614175768681 Q 86.95635737348398 4.098951665708029 87.09377939698585 4.523710323228791 Q 87.23120142048772 4.948469551363191 86.88139985424536 5.160849379410505 Q 86.53159828800298 4.948469551363191 86.66277380401716 4.523710323228791 Q 86.79394932003136 4.098951665708029 86.88139985424536 3.811614175768681 ZM 89.15511089074118 6.310197342020163 Q 89.99213547611416 6.310197342020163 89.99213547611416 7.059771963792766 Q 89.99213547611416 7.809347156179006 89.16760333510292 7.821840171154383 L 81.02222319172549 7.821840171154383 Q 80.21018353073936 7.821840171154383 80.21018353073936 7.059771963792766 Q 80.21018353073936 6.310197342020163 81.02222319172549 6.310197342020163 ZM 81.43448940488452 2.25 Q 81.0971804256573 2.25 80.52250672965928 2.3686826971872437 Q 79.94783242738428 2.4873653943744873 79.94783242738428 2.812181144646214 Q 79.94783242738428 2.9620961474601097 80.04777537029668 3.0620396966494874 Q 80.44754892511384 3.0620396966494874 80.61620312942063 3.6429600427885958 Q 80.78485790434105 4.223880388927704 81.1721376595891 4.223880388927704 L 81.18463081721788 4.223880388927704 L 81.18463081721788 5.723030488393366 L 81.03471577874063 5.723030488393366 Q 79.64800238609314 5.723030488393366 79.64800238609314 7.059771963792766 Q 79.64800238609314 8.40900673947436 81.02222319172549 8.40900673947436 L 89.16760333510292 8.40900673947436 Q 90.54182357012164 8.40900673947436 90.55431658509701 7.059771963792766 Q 90.55431658509701 5.723030488393366 89.15511089074118 5.723030488393366 L 88.99270226667493 5.723030488393366 L 88.99270226667493 4.223880388927704 Q 89.4299543671313 4.223880388927704 89.6048554355593 3.6429600427885958 Q 89.7797565039873 3.0620396966494874 90.17952955951753 3.0620396966494874 Q 90.27947253809327 2.9620961474601097 90.27947253809327 2.812181144646214 Q 90.27947253809327 2.4873653943744873 89.70479841413504 2.3686826971872437 Q 89.13012486079043 2.25 88.79281573890981 2.25 Q 88.4680002026182 2.25 87.89332607865995 2.3686826971872437 Q 87.31865195470172 2.4873653943744873 87.31865195470172 2.812181144646214 Q 87.31865195470172 2.9620961474601097 87.4185955038911 3.0620396966494874 Q 87.81836855942133 3.0620396966494874 87.98702312036164 3.6429600427885958 Q 88.15567711068833 4.223880388927704 88.54295772185682 4.223880388927704 L 88.5554507368322 4.223880388927704 L 88.5554507368322 5.723030488393366 L 87.10627241196123 5.723030488393366 L 87.10627241196123 5.360735907175623 Q 87.53103149744221 4.948469551363191 87.39360947394034 4.523710323228791 Q 87.25618745043847 4.098951665708029 87.18747643868754 3.8178608259097793 Q 87.1187654269366 3.536770556725167 86.88139985424536 3.536770556725167 Q 86.64403485216775 3.536770556725167 86.56907676231548 3.8178608259097793 Q 86.49411981369049 4.098951665708029 86.36294372706267 4.523710323228791 Q 86.23176821104849 4.948469551363191 86.66902031150485 5.360735907175623 L 86.66902031150485 5.723030488393366 L 85.28230706151076 5.723030488393366 L 85.28230706151076 4.223880388927704 Q 85.73205160632888 4.223880388927704 85.90695267475688 3.6429600427885958 Q 86.08185317257124 3.0620396966494874 86.48162679871511 3.0620396966494874 Q 86.58156977729085 2.9620961474601097 86.58156977729085 2.812181144646214 Q 86.58156977729085 2.4873653943744873 86.00064971645857 2.3686826971872437 Q 85.41972908501265 2.25 85.09491297810739 2.25 Q 84.77009744181578 2.25 84.19542303255072 2.3686826971872437 Q 83.62074947920613 2.4873653943744873 83.62074947920613 2.812181144646214 Q 83.62074947920613 2.9620961474601097 83.7081997281133 3.0620396966494874 Q 84.10797278364353 3.0620396966494874 84.28287413737836 3.6429600427885958 Q 84.45777434988591 4.223880388927704 84.84505553166804 4.223880388927704 L 84.84505553166804 5.723030488393366 L 83.40836965115881 5.723030488393366 L 83.40836965115881 5.348242606893427 Q 83.83312845133298 4.948469551363191 83.70195322062561 4.5174638157411025 Q 83.57077798991826 4.086458508079242 83.4958201853728 3.8053676682809927 Q 83.420862951441 3.5242773990963805 83.18349680813611 3.5242773990963805 Q 82.95862482103388 3.5242773990963805 82.87742079430757 3.8053676682809927 Q 82.79621648227443 4.086458508079242 82.66504125156708 4.5174638157411025 Q 82.5338660208597 4.948469551363191 82.97111726539562 5.348242606893427 L 82.97111726539562 5.723030488393366 L 81.62188277502085 5.723030488393366 L 81.62188277502085 4.223880388927704 Q 82.07162789045259 4.223880388927704 82.24028188077926 3.6429600427885958 Q 82.4089367270264 3.0620396966494874 82.80870978255663 3.0620396966494874 Q 82.90865333174601 2.9620961474601097 82.90865333174601 2.812181144646214 Q 82.90865333174601 2.4873653943744873 82.33397892248095 2.3686826971872437 Q 81.75930522648294 2.25 81.43448940488452 2.25 Z"
     style="fill:#ffffff;stroke:none"
     id="path18" />
  <path
     d="M 81.43448940488452 9.928302285556182 Q 82.08412033481433 9.928302285556182 82.4838939609582 10.11569558436581 Q 82.04664214580865 10.403033038641803 81.95919161159465 10.802806094172041 Q 81.87174122003407 11.202579007048868 81.65311502715247 11.265043653965524 Q 81.54380228734519 11.296275906097147 81.43292763535918 11.296275906097147 Q 81.32205298337317 11.296275906097147 81.20961656186182 11.265043653965524 Q 80.98474428945276 11.202579007048868 80.89729404054559 10.802806094172041 Q 80.80984357765828 10.403033038641803 80.38508427819718 10.11569558436581 Q 80.77236467538557 9.928302285556182 81.43448940488452 9.928302285556182 ZM 85.09491297810739 9.928302285556182 Q 85.75703763627963 9.928302285556182 86.14431824744813 10.11569558436581 Q 85.71955916196714 10.403033038641803 85.63210862775314 10.802806094172041 Q 85.54465809353914 11.202579007048868 85.31978553582326 11.265043653965524 Q 85.20734954227214 11.296275906097147 85.09491297810739 11.296275906097147 Q 84.98247698455627 11.296275906097147 84.87004099100515 11.265043653965524 Q 84.64516843328929 11.202579007048868 84.56396440656297 10.802806094172041 Q 84.48276037983666 10.403033038641803 84.04550799407347 10.11569558436581 Q 84.44528133491053 9.928302285556182 85.09491297810739 9.928302285556182 ZM 88.79281573890981 9.928302285556182 Q 89.45494039708205 9.928302285556182 89.84222043763691 10.11569558436581 Q 89.41746135215593 10.403033038641803 89.33001138855556 10.802806094172041 Q 89.24256028372791 11.202579007048868 89.01768829662568 11.265043653965524 Q 88.90525230307456 11.296275906097147 88.79281573890981 11.296275906097147 Q 88.68037917474506 11.296275906097147 88.56794318119394 11.265043653965524 Q 88.34307176470534 11.202579007048868 88.2618671673654 10.802806094172041 Q 88.18066314063908 10.403033038641803 87.7434110401827 10.11569558436581 Q 88.14318352509932 9.928302285556182 88.79281573890981 9.928302285556182 ZM 83.18349680813611 11.140114930745849 Q 83.27094791296375 11.42745185007156 83.40212314367112 11.858457157733419 Q 83.53329894499213 12.289462893355507 83.18349680813611 12.489349421120625 Q 82.83369552720056 12.289462893355507 82.96487132852157 11.858457157733419 Q 83.09604712984257 11.42745185007156 83.18349680813611 11.140114930745849 ZM 86.88139985424536 11.152607517760998 Q 86.95635737348398 11.439945007700345 87.09377939698585 11.864703665221107 Q 87.23120142048772 12.289462893355507 86.88139985424536 12.50184272140282 Q 86.53159828800298 12.289462893355507 86.66277380401716 11.864703665221107 Q 86.79394932003136 11.439945007700345 86.88139985424536 11.152607517760998 ZM 89.15511089074118 13.65119068401248 Q 89.99213547611416 13.65119068401248 89.99213547611416 14.400765305785082 Q 89.99213547611416 15.150340498171323 89.16760333510292 15.1628335131467 L 81.02222319172549 15.1628335131467 Q 80.21018353073936 15.1628335131467 80.21018353073936 14.400765305785082 Q 80.21018353073936 13.65119068401248 81.02222319172549 13.65119068401248 ZM 81.43448940488452 9.590993341992316 Q 81.0971804256573 9.590993341992316 80.52250672965928 9.70967603917956 Q 79.94783242738428 9.828358736366804 79.94783242738428 10.15317448663853 Q 79.94783242738428 10.303089489452425 80.04777537029668 10.403033038641803 Q 80.44754892511384 10.403033038641803 80.61620312942063 10.983953384780913 Q 80.78485790434105 11.56487373092002 81.1721376595891 11.56487373092002 L 81.18463081721788 11.56487373092002 L 81.18463081721788 13.064023830385683 L 81.03471577874063 13.064023830385683 Q 79.64800238609314 13.064023830385683 79.64800238609314 14.400765305785082 Q 79.64800238609314 15.750000081466677 81.02222319172549 15.750000081466677 L 89.16760333510292 15.750000081466677 Q 90.54182357012164 15.750000081466677 90.55431658509701 14.400765305785082 Q 90.55431658509701 13.064023830385683 89.15511089074118 13.064023830385683 L 88.99270226667493 13.064023830385683 L 88.99270226667493 11.56487373092002 Q 89.4299543671313 11.56487373092002 89.6048554355593 10.983953384780913 Q 89.7797565039873 10.403033038641803 90.17952955951753 10.403033038641803 Q 90.27947253809327 10.303089489452425 90.27947253809327 10.15317448663853 Q 90.27947253809327 9.828358736366804 89.70479841413504 9.70967603917956 Q 89.13012486079043 9.590993341992316 88.79281573890981 9.590993341992316 Q 88.4680002026182 9.590993341992316 87.89332607865995 9.70967603917956 Q 87.31865195470172 9.828358736366804 87.31865195470172 10.15317448663853 Q 87.31865195470172 10.303089489452425 87.4185955038911 10.403033038641803 Q 87.81836855942133 10.403033038641803 87.98702312036164 10.983953384780913 Q 88.15567711068833 11.56487373092002 88.54295772185682 11.56487373092002 L 88.5554507368322 11.56487373092002 L 88.5554507368322 13.064023830385683 L 87.10627241196123 13.064023830385683 L 87.10627241196123 12.70172924916794 Q 87.53103149744221 12.289462893355507 87.39360947394034 11.864703665221107 Q 87.25618745043847 11.439945007700345 87.18747643868754 11.158854167902096 Q 87.1187654269366 10.877763898717483 86.88139985424536 10.877763898717483 Q 86.64403485216775 10.877763898717483 86.56907676231548 11.158854167902096 Q 86.49411981369049 11.439945007700345 86.36294372706267 11.864703665221107 Q 86.23176821104849 12.289462893355507 86.66902031150485 12.70172924916794 L 86.66902031150485 13.064023830385683 L 85.28230706151076 13.064023830385683 L 85.28230706151076 11.56487373092002 Q 85.73205160632888 11.56487373092002 85.90695267475688 10.983953384780913 Q 86.08185317257124 10.403033038641803 86.48162679871511 10.403033038641803 Q 86.58156977729085 10.303089489452425 86.58156977729085 10.15317448663853 Q 86.58156977729085 9.828358736366804 86.00064971645857 9.70967603917956 Q 85.41972908501265 9.590993341992316 85.09491297810739 9.590993341992316 Q 84.77009744181578 9.590993341992316 84.19542303255072 9.70967603917956 Q 83.62074947920613 9.828358736366804 83.62074947920613 10.15317448663853 Q 83.62074947920613 10.303089489452425 83.7081997281133 10.403033038641803 Q 84.10797278364353 10.403033038641803 84.28287413737836 10.983953384780913 Q 84.45777434988591 11.56487373092002 84.84505553166804 11.56487373092002 L 84.84505553166804 13.064023830385683 L 83.40836965115881 13.064023830385683 L 83.40836965115881 12.689235948885743 Q 83.83312845133298 12.289462893355507 83.70195322062561 11.858457157733419 Q 83.57077798991826 11.42745185007156 83.4958201853728 11.14636101027331 Q 83.420862951441 10.865270741088697 83.18349680813611 10.865270741088697 Q 82.95862482103388 10.865270741088697 82.87742079430757 11.14636101027331 Q 82.79621648227443 11.42745185007156 82.66504125156708 11.858457157733419 Q 82.5338660208597 12.289462893355507 82.97111726539562 12.689235948885743 L 82.97111726539562 13.064023830385683 L 81.62188277502085 13.064023830385683 L 81.62188277502085 11.56487373092002 Q 82.07162789045259 11.56487373092002 82.24028188077926 10.983953384780913 Q 82.4089367270264 10.403033038641803 82.80870978255663 10.403033038641803 Q 82.90865333174601 10.303089489452425 82.90865333174601 10.15317448663853 Q 82.90865333174601 9.828358736366804 82.33397892248095 9.70967603917956 Q 81.75930522648294 9.590993341992316 81.43448940488452 9.590993341992316 Z"
     style="fill:#ffffff;stroke:none"
     id="path20" />
  <path
     d="M 93.3831138536334 2.25 L 93.09837151691318 2.8669417295604944 L 92.19668745063245 4.883866614662111 L 92.05431628227234 5.168608951382339 L 92.64752948377281 5.453351288102567 L 92.78990065213293 5.14488042332232 L 93.40684238169342 3.744897267781198 L 93.71531324647367 4.290653413161635 L 94.0000555831939 4.860138086602092 L 94.28479791991413 4.290653413161635 L 94.61699731275439 3.69744021166116 L 94.92546817753464 4.290653413161635 L 95.21021051425487 4.860138086602092 L 95.4949528509751 4.290653413161635 L 95.80342371575534 3.69744021166116 L 96.13562310859561 4.290653413161635 L 96.42036544531584 4.860138086602092 L 96.70510778203607 4.290653413161635 L 97.01357864681631 3.721168739721179 L 97.32204951159656 4.290653413161635 L 97.63052037637681 4.860138086602092 L 97.91526271309704 4.290653413161635 L 98.22373357787728 3.69744021166116 L 98.53220444265753 4.290653413161635 L 98.84067530743778 4.860138086602092 L 99.125417644158 4.290653413161635 L 99.43388850893825 3.69744021166116 L 99.7423593737185 4.290653413161635 L 100.05083023849875 4.860138086602092 L 100.33557257521898 4.290653413161635 L 100.64404343999922 3.69744021166116 L 100.95251430477947 4.290653413161635 L 101.2372566414997 4.860138086602092 L 101.54572750627995 4.290653413161635 L 101.85419837106019 3.69744021166116 L 102.16266923584044 4.290653413161635 L 102.44741157256067 4.860138086602092 L 102.75588243734092 4.290653413161635 L 103.06435330212116 3.69744021166116 L 103.39655269496143 4.314381941221654 L 103.68129503168166 4.836409558542073 L 103.9897658964619 4.314381941221654 L 104.32196528930217 3.673711683601141 L 105.15246377140284 5.168608951382339 L 105.31856346782297 5.453351288102567 L 105.88804814126343 5.14488042332232 L 105.74567697290331 4.860138086602092 L 104.6067076260224 2.8194846734404564 L 104.32196528930217 2.321185584180057 L 104.03722295258194 2.8432132015004754 L 103.68129503168166 3.46015493106097 L 103.34909563884139 2.8432132015004754 L 103.04062477406114 2.297457056120038 L 102.77961096540093 2.8432132015004754 L 102.44741157256067 3.436426403000951 L 102.13894070778042 2.8432132015004754 L 101.85419837106019 2.273728528060019 L 101.56945603433996 2.8432132015004754 L 101.26098516955972 3.436426403000951 L 100.92878577671945 2.8432132015004754 L 100.64404343999922 2.273728528060019 L 100.359301103279 2.8432132015004754 L 100.02710171043873 3.436426403000951 L 99.71863084565848 2.8432132015004754 L 99.43388850893825 2.273728528060019 L 99.14914617221802 2.8432132015004754 L 98.84067530743778 3.436426403000951 L 98.50847591459751 2.8432132015004754 L 98.22373357787728 2.273728528060019 L 97.93899124115705 2.8432132015004754 L 97.63052037637681 3.412697874940932 L 97.32204951159656 2.8432132015004754 L 97.01357864681631 2.273728528060019 L 96.72883631009609 2.8432132015004754 L 96.42036544531584 3.436426403000951 L 96.11189458053559 2.8432132015004754 L 95.80342371575534 2.273728528060019 L 95.51868137903512 2.8432132015004754 L 95.21021051425487 3.436426403000951 L 94.90173964947462 2.8432132015004754 L 94.61699731275439 2.273728528060019 L 94.30852644797415 2.8432132015004754 L 94.0000555831939 3.436426403000951 L 93.69158471841365 2.8432132015004754 L 93.3831138536334 2.25 Z"
     style="fill:#ffffff;stroke:none"
     id="path22" />
  <path
     d="M 100.83403617050925 9.898699789552273 Q 101.00457772456855 9.898699789552273 101.18758167999238 9.976243796270477 Q 101.59751177117501 10.149943448473353 101.59751177117501 12.734584663951381 L 101.59751177117501 15.208059231673616 L 96.95627399464212 15.208059231673616 Q 98.74884777589963 12.748481581126669 99.41585182622336 11.49089982667413 Q 100.08285569551278 10.233319067910257 100.43025364216126 10.017932330126138 Q 100.62256384692479 9.898699789552273 100.83403617050925 9.898699789552273 ZM 100.63690755675795 9.370977401733398 Q 100.59998343840942 9.370977401733398 100.56226530361138 9.371771483153724 Q 99.90220989290961 9.38566766912015 99.07540161402531 10.983698556636577 Q 98.24859496444972 12.58172943708135 95.80291187763214 15.74999953603195 L 102.13945207553334 15.74999953603195 L 102.12555588249526 12.192643997524442 Q 102.05607636557929 9.81644106124289 101.63919962615203 9.587158175679267 Q 101.24614374227893 9.370977401733398 100.63690755675795 9.370977401733398 Z"
     style="fill:#ffffff;stroke:none"
     id="path24" />
  <path
     d="M 112.5529457841376 2.701834964452948 L 112.5358025945306 5.309998768668603 L 112.53335366864334 5.309998768668603 C 110.84491313189031 5.164899024353775 109.38501663776515 5.055389993875436 107.83131276064464 4.877755203012128 L 107.83131276064464 2.8989805380643654 L 112.5529457841376 2.701834964452948 ZM 112.7672314038476 2.25 L 112.54559865227773 2.259795750590935 L 107.60110890129368 2.4655101629016385 C 107.48246273228136 2.469930776967526 107.38844502477471 2.5671904184722165 107.38804745674133 2.6859202225185546 L 107.38804745674133 5.076124044148473 C 107.38775952133145 5.188738329653354 107.47209150104202 5.283613487193504 107.58396580023621 5.296530384684999 C 109.22465130814304 5.489554198904721 110.73873444935164 5.599853268317325 112.4953942547966 5.750814991722979 L 112.53212955989785 5.754491922535177 L 112.46600678995148 15.749999700598574 L 113.79090473919999 15.749999700598574 L 113.4615174776005 2.2671415597421634 L 112.76845586679123 2.2671415597421634 L 112.7672314038476 2.25 Z"
     style="fill:#ffffff;stroke:none"
     id="path26" />
  <path
     d="M 117.40926363910305 2.25 C 117.31983054063066 2.25 117.23039401946698 2.253970136522819 117.1413438060624 2.2616940936950685 C 117.12728339016445 2.261314854150061 117.11324761764395 2.2611265098648654 117.0992392266539 2.2611265098648654 C 116.09398646061163 2.2611265098648654 115.22829896690786 3.2310118757226345 115.3017450308056 4.227486864678362 C 115.2474242243602 5.010703370562885 115.41045871987089 5.7853252703907465 115.4535755031892 6.564726844542106 C 115.52236563731547 6.696246724428149 115.64711520561262 6.751571563107875 115.77948710745522 6.751571563107875 C 115.95548326364755 6.751571563107875 116.14495364280627 6.653772037999446 116.23429204681909 6.50722197967788 C 116.47068216160969 6.176301580427631 116.36635716143068 5.749019186418789 116.26995477891464 5.3887868587970935 C 116.1639509486485 4.745978962128442 116.1249168085686 4.030068083582146 116.47853849315098 3.4528006182538893 C 116.70610456747748 3.1480696260937604 117.0808322209728 2.9958286589324934 117.45493489103507 2.9958286589324934 C 117.8623378375616 2.9958286589324934 118.26899965732999 3.1763791052256156 118.48405145951261 3.5371584359633665 C 118.82879565260163 4.042562504116439 118.73621162451006 4.77819150729467 118.29369848235498 5.195713526586957 C 117.8670456353676 5.700777493313611 117.22683715865853 6.0338350210172855 116.95319515619755 6.659532199293302 C 116.77894959252014 7.2902214869334045 116.9251709583863 7.947675764252113 116.86661247504742 8.58979227727632 C 116.81062956691866 10.931873768086549 116.7813130749588 13.274474138899242 116.73698819569809 15.616783352771236 C 116.85784525125906 15.718249264810014 117.00018448655271 15.736942635663993 117.14764338350656 15.736942635663993 C 117.23368276945622 15.736942635663993 117.32146521799991 15.730578255264366 117.40774031329106 15.730578255264366 C 117.47782265599868 15.730578255264366 117.54691059279128 15.734778582038938 117.61326151743368 15.74999997482893 C 117.93202337625678 15.586587913683193 117.90659665888003 15.177060616750788 117.88295407639305 14.873842111880167 C 117.77018780672803 12.417005083216047 117.85235521608936 9.956825682398843 117.7908574395439 7.498899781539577 C 117.7975027088103 7.218658031606611 117.70665261613594 6.897188823957991 118.00247034967853 6.736883653803267 C 118.59171153010325 6.164884394938033 119.21948924833637 5.595112167217945 119.58184136277553 4.8434820821694995 C 119.9505222616247 3.752547829598784 119.12536934456469 2.4460932511888633 117.98287749554851 2.3073502733067626 C 117.79428469444144 2.268397472059699 117.60178272350052 2.25 117.40926363910305 2.25 Z"
     style="fill:#ffffff;stroke:none"
     id="path28" />
  <path
     d="M 122.71035565810566 2.9742094082631527 L 122.84034154887897 3.345598524666861 L 122.58036958824698 3.345598524666861 L 122.71035565810566 2.9742094082631527 ZM 122.82177200799323 3.735557361041672 L 122.74749420262103 4.404057788476884 L 122.69178593813456 4.404057788476884 L 122.61750813276235 3.735557361041672 ZM 123.8430926377452 5.1282664803985645 L 123.8430926377452 11.627578927600686 L 121.61475699912477 11.609009207629581 L 121.61475699912477 5.1282664803985645 L 122.71035565810566 5.778198083289512 L 123.8430926377452 5.1282664803985645 ZM 123.8430926377452 12.05467603986281 L 123.8430926377452 15.32290234160571 L 121.61475699912477 15.32290234160571 L 121.61475699912477 12.05467603986281 ZM 122.61750813276235 2.25 Q 122.45038280204683 3.0484872136353576 122.04185514112775 3.4941542249539546 L 122.04185514112775 3.6798483802137305 Q 122.41324425753147 3.6798483802137305 122.41324425753147 5.165405741255403 L 121.16909003257751 4.404057788476884 L 121.16909003257751 15.749999453867837 L 124.2701899290927 15.749999453867837 L 124.2701899290927 4.404057788476884 L 123.00746687959447 5.165405741255403 Q 123.00746687959447 3.6798483802137305 123.36028636556976 3.6798483802137305 L 123.36028636556976 3.4941542249539546 Q 122.97032761873764 3.0484872136353576 122.82177200799323 2.25 Z"
     style="fill:#ffffff;stroke:none"
     id="path30" />
  <path
     d="M 40.9532527923584 0.375 C 31.328252851963043 0.375 31.328252851963043 17.625 40.9532527923584 17.625 "
     style="fill:none;stroke:#ffffff;stroke-width:1"
     id="path32" />
  <path
     d="M 40.9532527923584 0.375 L 124.27018928527832 0.375 "
     style="fill:none;stroke:#ffffff;stroke-width:1"
     id="path34" />
  <path
     d="M 40.9532527923584 17.625 L 124.27018928527832 17.625 "
     style="fill:none;stroke:#ffffff;stroke-width:1"
     id="path36" />
  <path
     d="M 131.95768928527832 0.375 L 131.95768928527832 17.625 "
     style="fill:none;stroke:#ffffff;stroke-width:1"
     id="path38" />
  <path
     d="M 124.27018928527832 0.375 C 133.89518547058105 0.375 133.89518547058105 17.625 124.27018928527832 17.625 "
     style="fill:none;stroke:#ffffff;stroke-width:1"
     id="path40" />
</svg>
