<?xml version="1.0" encoding="UTF-8" standalone="no"?>
<svg
   width="102.74968719482422"
   height="18.0"
   version="1.1"
   id="svg30"
   sodipodi:docname="smenkhkare-djeserkheperu.svg"
   inkscape:version="1.1.1 (3bf5ae0d25, 2021-09-20)"
   xmlns:inkscape="http://www.inkscape.org/namespaces/inkscape"
   xmlns:sodipodi="http://sodipodi.sourceforge.net/DTD/sodipodi-0.dtd"
   xmlns="http://www.w3.org/2000/svg"
   xmlns:svg="http://www.w3.org/2000/svg">
  <defs
     id="defs34" />
  <sodipodi:namedview
     id="namedview32"
     pagecolor="#ffffff"
     bordercolor="#666666"
     borderopacity="1.0"
     inkscape:pageshadow="2"
     inkscape:pageopacity="0.0"
     inkscape:pagecheckerboard="0"
     showgrid="false"
     inkscape:zoom="13.382036"
     inkscape:cx="51.374844"
     inkscape:cy="9.004609"
     inkscape:window-width="1920"
     inkscape:window-height="1001"
     inkscape:window-x="-9"
     inkscape:window-y="-9"
     inkscape:window-maximized="1"
     inkscape:current-layer="svg30" />
  <path
     d="M 9.619241759901131 8.704017150225534 C 9.956114020057063 8.704017150225534 10.371109904274771 8.76399089929749 10.864229412554256 8.883939352346172 C 11.905261819800385 9.137163864337834 12.8056128816014 9.495897714329981 13.565284507766846 9.960140902322616 C 14.32495613393229 10.42438504522002 15.176070395910864 11.008207138114807 16.1186263387978 11.711606226102205 C 15.211383729261659 12.170969850713034 14.168207560803758 12.400651185566062 12.989095923614554 12.400651185566062 C 12.723796640788658 12.400651185566062 12.45161535927535 12.38902331016484 12.172553033979401 12.365768514267165 C 10.653210736553286 12.239155780818948 9.3484030744964 11.792497164191472 8.258132912523058 11.025791709479964 C 7.167863705454489 10.259086254768457 6.897054622097669 9.78780828332499 7.445706139904986 9.61195779514956 C 7.994358612617073 9.436108261878905 8.441018184149321 9.207503104703234 8.78568342214457 8.92614327852732 C 8.967086681565636 8.778059511294387 9.244939142516232 8.704017150225534 9.619241759901131 8.704017150225534 ZM 16.87829701005847 11.880422885731571 L 17.743478929129175 12.070340076094354 C 17.743478929129175 12.295428318996994 17.539492171864723 12.478311680813713 17.131522476954906 12.618992071354056 C 16.899402315315747 12.634818663035082 16.657389340244983 12.642731958875595 16.405485461552153 12.642731958875595 C 15.985642480714866 12.642731958875595 15.538322115080815 12.620750051038186 15.063526274459544 12.576788145172907 C 15.977946903162229 12.464244023721587 16.582870481695206 12.232122907177656 16.87829701005847 11.880422885731571 ZM 18.207723072026578 12.196952809542571 L 18.73527358164809 12.302462147543055 C 18.791544210016596 12.471278807172421 18.594593191107748 12.640094511897015 18.144416705302472 12.808910216621609 L 17.532460253128203 12.76670629044046 C 17.968567172031815 12.569755271531616 18.193655414934454 12.379837126264063 18.207723072026578 12.196952809542571 ZM 19.009598624373172 12.407972440448313 L 19.36833342927009 12.49238029281061 C 19.283925576907794 12.731536192805375 19.030702019820904 12.851114142802757 18.608660848199875 12.851114142802757 C 18.847816748194642 12.696366095170289 18.98146331018892 12.548652830988656 19.009598624373172 12.407972440448313 ZM 19.600455500718795 12.618992071354056 C 19.938086910167982 12.71746853571325 20.163175153070622 12.87925041189178 20.27571831961717 13.10433865479442 L 19.326128548184172 12.893318068983906 C 19.509013819810434 12.808910216621609 19.600455500718795 12.71746853571325 19.600455500718795 12.618992071354056 ZM 17.405847519679988 13.864010280959864 C 18.46094662911347 13.99062205950331 19.255788352914 14.28604954277135 19.790372691081576 14.750293685668755 L 17.173725448231284 14.138336278589716 C 17.20186267222508 13.983587276052475 17.279236696041313 13.892145595144116 17.405847519679988 13.864010280959864 ZM 5.187792747046841 0.40093762696942586 C 5.848988863757863 0.40093762696942586 6.3484031042903535 0.5838216154424017 6.686035468644312 0.9495895923883535 C 7.0236668780935005 1.3153575693343054 7.129177170998758 2.198124417859453 7.0025653924553115 3.5978901976453446 C 6.875952659007095 4.997655977431236 6.8337487328259465 5.947245271411848 6.875953136459481 6.446659034491953 C 6.918156585188243 6.946073275024443 7.048285755457107 7.315357867835686 7.266340169813683 7.554513290378066 C 7.4843936292654885 7.793669667825216 7.748168406623859 8.029308176094565 8.05766402443641 8.261430247543267 C 8.367160119701346 8.49355231899197 8.212412072068878 8.70105503562468 7.5934203589913905 8.883939352346172 C 6.974429123366289 9.06682271416289 6.629762930466267 9.33763179751971 6.559423212648482 9.69636660241663 C 6.48908301737831 10.055099497504006 6.577008261466024 10.385698033311902 6.823197990006852 10.688160300030777 C 7.069388196000066 10.99062256674965 7.656726725715499 11.398594171469009 8.585214534057924 11.912075114188854 C 9.513701864947961 12.42555701181347 10.333162943564483 12.752637678443564 11.043595860097945 12.893318068983906 C 11.754030686440949 13.033998459524248 13.931053141209826 13.10433865479442 17.57466322440458 13.10433865479442 C 18.700104438917776 13.315358285700162 19.445707453086325 13.596718111876076 19.811474176719763 13.94841813332216 L 17.405847519679988 13.399766138062459 C 17.18076118658689 13.47010633333263 17.00490974350669 13.60375194042214 16.87829701005847 13.800703914235756 C 16.87829701005847 14.166472547678739 16.083455286257944 14.37749217858448 14.493772793561655 14.433763761857755 C 14.254616893566888 14.433763761857755 14.092834062483586 14.103166180954629 14.008427165026061 13.441970064243609 L 13.755202653034399 13.652989695149351 C 13.881814431577844 14.187574033316928 13.91698452921293 14.658852004760394 13.860712945939655 15.066823609479753 C 13.663760972126038 14.588511809490223 13.319094779226017 14.271981885679224 12.826715322144361 14.117233838046756 C 12.038906471985122 13.976553447506413 11.335507383997724 13.846424754689936 10.71651519346785 13.726846804692553 C 10.097523002937978 13.607269809599941 9.471497938766813 13.350529338240019 8.838438091144814 12.956624435708015 C 8.275718438792987 12.520516561899633 7.371849507814169 12.049238590456165 6.126831775660745 11.542790521377611 C 4.881814043507322 11.03634340720383 4.259305416156803 10.283705609584448 4.259305416156803 9.284877128519467 C 4.259305416156803 8.286049602359258 4.593420388785345 7.459554695196674 5.261649856590044 6.805393361936487 C 5.929879801847128 6.151231551223914 6.2639942970232845 5.366941047694864 6.2639942970232845 4.452521373896952 C 6.2639942970232845 4.002345365544058 6.207722713750011 3.5767882345547704 6.095179069751077 3.175850219655281 C 5.993352799453844 2.8130966980279646 5.689997219321334 2.6317199372143065 5.185112329353548 2.6317199372143065 C 5.131966626849421 2.6317199372143065 5.076588356989783 2.6337295343056977 5.0189770423222475 2.6377489672146734 L 3.2464102329044677 2.869871038663376 C 3.3026820549039346 2.6869874381204633 3.387089668540039 2.5181714946696765 3.4996335512651657 2.363423447037208 C 3.6403134643531225 1.9273154538657298 3.795061511985591 1.6740914193264531 3.9638776941625706 1.6037515821455712 C 3.9884963327999836 1.6899181303705768 4.083125485835245 1.733001523846176 4.247764437089777 1.733001523846176 C 4.271284696513898 1.733001523846176 4.296233016023633 1.732122295277918 4.32261082797614 1.7303637187783059 C 4.603971609056825 1.7162955842337946 4.765753485235356 1.5756155517827413 4.8079574114165045 1.308323860151339 C 4.7798216197798675 1.0410321685199366 4.6180397436013365 0.9003521360688832 4.32261082797614 0.8862840612059201 C 4.069387270889249 0.9003521360688832 3.9287073578012923 1.0410321685199366 3.9005710887122693 1.308323860151339 C 3.6754838007144013 1.5193437297832741 3.4996337899913588 1.765533697050295 3.373021295269335 2.046893523226209 C 3.3320964640294637 2.0673559388461444 3.2921017100369276 2.0775870272930157 3.2530370332917253 2.0775870272930157 C 3.1846734908983327 2.0775870272930157 3.119158190711805 2.046253737029377 3.0564913714583355 1.9835869177759076 C 3.225307553635315 1.6459552696005268 3.471497998354722 1.2977725205167625 3.7950622281641695 0.9390390286139039 C 4.118625980521232 0.5803047608509185 4.582869168513866 0.40093762696942586 5.187792747046841 0.40093762696942586 ZM 9.977946007845366 14.159437764227905 L 10.653208826743741 14.328253468952498 L 9.89353815548307 15.425557459471902 L 9.977946007845366 14.159437764227905 ZM 11.286269629270512 14.391559835676606 C 11.84898928162234 14.391559835676606 12.32378416733884 14.451348333222912 12.71065428642001 14.570927238125066 C 13.09752440550118 14.690504233217677 13.336679350591174 15.144197633295988 13.428121986404305 15.932005528550455 C 13.517959427296729 16.705992132143816 13.400721948894024 17.092986388845265 13.07640859629142 17.092986388845265 C 13.070618053757709 17.092986388845265 13.064760667889999 17.092862251224986 13.058837393593063 17.09261588579397 L 11.03304511727885 17.09261588579397 C 10.988356528882543 17.089306185856326 10.942987093384234 17.087650380982737 10.896935855879153 17.087650380982737 C 10.551564943257846 17.087650380982737 10.167861288398607 17.180747866764687 9.745823936396663 17.366940928519046 C 9.858368057847983 16.382182014355735 10.3718499554726 15.390387361836815 11.286269629270512 14.391559835676606 ZM 5.187792747046841 0.0 C 4.231169147067781 0.0 3.443361967991892 0.5345838607151904 2.8243702549144043 1.6037515821455712 C 2.613350385282469 1.9554513648654634 1.9873244855696295 2.3071511475853557 0.946292317049693 2.6588511690314407 C 0.22882448278191372 2.869871038663376 -0.08067132899566878 3.165298999383801 0.017804894772284054 3.545135051192716 L 0.03890708726380924 3.798358369553414 C 1.3753664816751086 3.6717465910099687 2.493771957832701 3.5099647148314377 3.3941234970861016 3.3130129797440135 L 5.040079482865207 3.0175852577497815 C 5.048381902400062 3.0173546482474904 5.056615568791377 3.017239343496345 5.064780004586766 3.017239343496345 C 5.5546451974053515 3.017239343496345 5.796118651280282 3.432360558965298 5.789199888759171 4.2626027511770115 C 5.782166060213108 5.106682229704753 5.4269491244939925 5.862836941597166 4.723549559054208 6.5310668868542505 C 4.020149993614424 7.199296832111335 3.661415904896083 8.166471652361876 3.6473477703515713 9.432591347605873 C 3.6473477703515713 10.459556097759878 4.136210551886389 11.19460836910933 5.11393659240841 11.637750071463774 C 6.09166167802566 12.08089177381822 7.037734535185626 12.555685704629948 7.952154686435924 13.062133773708501 C 8.866573405329065 13.568581842787054 9.387089131499744 13.962486745319058 9.513701864947961 14.243845616590201 C 9.44336166967779 15.735053554736838 9.26047830786107 16.698711938166735 8.96504986968826 17.134818857070343 C 8.472670412606604 17.134818857070343 7.614522322081965 17.064478661800173 6.390606553019116 16.92379827125983 C 6.01077121738878 16.980070809437876 5.75051335430344 17.10316567370829 5.609832486310712 17.293084773880615 C 5.469153528127526 17.48300387405294 5.497289319764163 17.69050468087611 5.69424129357778 17.91559292377875 C 5.7882960713930505 17.77973671214347 5.878469161312617 17.711806696516287 5.9647610407888685 17.711806696516287 C 5.99463093949035 17.711806696516287 6.024035799568166 17.719946304787623 6.052975621022314 17.73622552133029 C 6.165519265021248 17.799531888054396 6.446879091197162 17.831185071416453 6.897054144645284 17.831185071416453 L 8.96504986968826 17.831185071416453 C 9.066651737364214 17.811645809984256 9.162826881224358 17.801877134172933 9.253573391459145 17.801877134172933 C 9.489516991802953 17.801877134172933 9.68877028611562 17.867918348162302 9.851334229301921 18.000000776141047 C 10.048286203115538 17.98593311904892 10.21710095293536 17.929660580870873 10.357781343475702 17.831185071416453 C 10.978782653644581 17.849272877596132 11.498366392758383 17.8583158257812 11.916529696102794 17.8583158257812 C 12.474082358736627 17.8583158257812 12.85133372205558 17.842239049050068 13.048285695869197 17.810083585778262 C 13.39295188876922 17.753811047600216 13.705964898307187 17.704574247777778 13.987324724483102 17.662369366691856 L 14.704792424467398 17.89449143814056 C 14.713104870502352 17.89513122433739 14.721098378343662 17.895450162531034 14.728771038181785 17.895450162531034 C 14.889915037973028 17.895450162531034 14.91005779922074 17.754450833797048 14.789201231734465 17.47245026651953 C 14.170209041204592 17.134818857070343 14.02952865066425 16.28370459509177 14.367161015018208 14.919109390393348 L 14.367161015018208 14.919109390393348 C 14.486100133723532 14.921667580275903 14.601202445057407 14.922946197764796 14.712467949019834 14.922946197764796 C 15.825117259215483 14.922946197764796 16.55409538131412 14.795054846827687 16.899400405506203 14.539274054763013 C 18.306200491290543 14.792496656945131 19.452741281632388 15.03868734039073 20.33902468634128 15.277843240385495 L 20.486738905427682 15.024620638203377 C 20.1209702719847 14.616648078579246 19.84664522925962 14.356389738041521 19.6637618674429 14.243845616590201 L 19.6637618674429 14.243845616590201 L 20.59224824342817 14.433763761857755 C 20.74230770863311 14.490035345131028 20.8462548224276 14.518171614220051 20.90408958481164 14.518171614220051 C 21.01975910957972 14.518171614220051 20.95098304832509 14.405627492768732 20.697759491238198 14.180540204770864 C 20.641486953060152 14.025792157138396 20.23351534834079 13.723330845324293 19.473842767270575 13.273154359519014 L 19.473842767270575 13.273154359519014 L 20.761063948152763 13.526377916605906 C 20.901744338693106 12.62602685480489 19.924019253075855 11.985932223732057 17.827886781491472 11.606096888101721 C 16.73058279097207 11.352873331014829 15.738790048262691 10.86049196412363 14.852506643553802 10.12895660704721 C 13.684862457764227 9.101993766702748 11.91932947689251 8.349355969083367 9.55590579112911 7.871043214189065 C 8.303853752977238 7.786635839279153 7.607488493535902 7.4032831119233995 7.466808580447945 6.72098550957419 C 7.326128667359988 6.038687429772594 7.32964558163302 4.95193465952467 7.477359800719425 3.4607274375566117 C 7.625073542353445 1.969519857499264 7.417570825720734 0.9988280632941434 6.854850695916521 0.5486519952597018 C 6.43281095665265 0.1828839884729759 5.877125132846886 0.0 5.187792747046841 0.0 Z"
     style="fill:#ffffff;stroke:none"
     id="path2" />
  <path
     d="M 27.177865186478382 7.937876256002994 C 26.496671245133623 7.991654064440127 26.120222241250442 8.332250793733436 26.04851793344977 8.959665719745715 C 26.138148499234912 9.640860143848613 26.514597503118093 9.999383372505463 27.177865186478382 10.035235888474404 C 27.84113286983867 9.999383372505463 28.190692728124215 9.640860143848613 28.226544278576878 8.959665719745715 C 28.172766470139745 8.332250793733436 27.8232066118542 7.991654064440127 27.177865186478382 7.937876256002994 ZM 27.25853214051315 5.679180301671352 C 27.742538692303153 5.679180301671352 28.190693210882355 5.768811229525099 28.602994730734476 5.948073085232593 C 29.01529576782846 6.127334940940088 29.378299957533752 6.373819539952137 29.692007299850356 6.687527123647811 C 30.0057151249251 7.001234707343485 30.252199844626684 7.3597576946212655 30.43146145895511 7.763095602723013 C 30.610722590525395 8.16643375220383 30.700352914931468 8.592179844854769 30.700352914931468 9.040334122054901 C 30.700352914931468 9.506413933102294 30.610722590525395 9.941123154745469 30.43146145895511 10.344461786984425 C 30.252199844626684 10.747799936465242 30.0057151249251 11.101841721315509 29.692007299850356 11.406586176018948 C 29.378299957533752 11.711330630722387 29.01529576782846 11.948851980052666 28.602994730734476 12.119151189526065 C 28.190693210882355 12.289449433483185 27.742538692303153 12.374598314082675 27.25853214051315 12.374598314082675 C 26.774526312860356 12.374598314082675 26.32189131599085 12.289449433483185 25.900626908525563 12.119151189526065 C 25.479361776923067 11.948851980052666 25.116357104459635 11.711330630722387 24.8116130118248 11.406586176018948 C 24.506868074363222 11.101841721315509 24.264865160536825 10.747799936465242 24.085604149656074 10.344461786984425 C 23.906342354293347 9.941123154745469 23.8167114264396 9.506413933102294 23.8167114264396 9.040334122054901 C 23.8167114264396 8.592179844854769 23.906342354293347 8.16643375220383 24.085604149656074 7.763095602723013 C 24.264865160536825 7.3597576946212655 24.506868074363222 7.001234707343485 24.8116130118248 6.687527123647811 C 25.116357104459635 6.373819539952137 25.479361776923067 6.127334940940088 25.900626908525563 5.948073085232593 C 26.32189131599085 5.768811229525099 26.774526312860356 5.679180301671352 27.25853214051315 5.679180301671352 ZM 27.204754814834157 4.764946937561035 C 26.61319119789547 4.764946937561035 26.057480338304796 4.876985476688684 25.53762175330399 5.101062554943983 C 25.017763409682257 5.325139663371665 24.569609615240264 5.629884118075104 24.193160490667548 6.015295949226683 C 23.8167114264396 6.400708564860238 23.516448355197976 6.848862238612696 23.292371276942678 7.359757211863126 C 23.068294998255546 7.870652909250765 22.956256866455078 8.421882083655788 22.956256866455078 9.013444493699126 C 22.956256866455078 9.605007145121533 23.068294998255546 10.156236319526556 23.292371276942678 10.667132016914195 C 23.516448355197976 11.178027714301834 23.8167114264396 11.621700306316313 24.193160490667548 11.998149310199494 C 24.569609615240264 12.374598314082675 25.017763409682257 12.67486180773767 25.53762175330399 12.898938825648202 C 26.057480338304796 13.123014878042454 26.61319119789547 13.23505338699772 27.204754814834157 13.23505338699772 C 27.796317466256564 13.23505338699772 28.347546157903448 13.123014878042454 28.85844088977481 12.898938825648202 C 29.369336587162447 12.67486180773767 29.81749062298351 12.374598314082675 30.202903479996134 11.998149310199494 C 30.58831537149248 11.621700306316313 30.89305982619592 11.178027714301834 31.11713636134831 10.667132016914195 C 31.34121434477512 10.156236319526556 31.453252853730387 9.605007145121533 31.453252853730387 9.013444493699126 C 31.453252853730387 8.421882083655788 31.34121434477512 7.870652909250765 31.11713636134831 7.359757211863126 C 30.89305982619592 6.848862238612696 30.58831537149248 6.400708564860238 30.202903479996134 6.015295949226683 C 29.81749062298351 5.629884118075104 29.369336587162447 5.325139663371665 28.85844088977481 5.101062554943983 C 28.347546157903448 4.876985476688684 27.796317466256564 4.764946937561035 27.204754814834157 4.764946937561035 Z"
     style="fill:#ffffff;stroke:none"
     id="path4" />
  <path
     d="M 44.11945903237588 8.203407192002246 C 43.60856357636731 8.243740548330095 43.326226823454924 8.499188095300077 43.27244859260442 8.969749289809286 C 43.33967151694328 9.48064510788646 43.62200826985566 9.749537529379097 44.11945903237588 9.776426916355803 C 44.616909794896095 9.749537529379097 44.879079688610254 9.48064510788646 44.90596835144975 8.969749289809286 C 44.8656349951219 8.499188095300077 44.60346510140774 8.243740548330095 44.11945903237588 8.203407192002246 ZM 44.179959247901955 6.509385226253514 C 44.54296416174446 6.509385226253514 44.87908005067886 6.576608422143824 45.18830619056795 6.711054813924445 C 45.49753196838844 6.845501205705066 45.76978511066741 7.030364654964103 46.00506561740486 7.2656453427358585 C 46.24034648621092 7.500926030507614 46.425210025987106 7.769818270965949 46.559656236733424 8.07232170204226 C 46.69410208541114 8.374825314152872 46.76132482871569 8.694134883641077 46.76132482871569 9.030250591541176 C 46.76132482871569 9.37981044982672 46.69410208541114 9.705842366059102 46.559656236733424 10.008346340238319 C 46.425210025987106 10.310849952348931 46.24034648621092 10.576381290986632 46.00506561740486 10.80493963201421 C 45.76978511066741 11.03349797304179 45.49753196838844 11.2116389850395 45.18830619056795 11.339363392144548 C 44.87908005067886 11.467087075112389 44.54296416174446 11.530948735562006 44.179959247901955 11.530948735562006 C 43.81695487716236 11.530948735562006 43.47747862951023 11.467087075112389 43.161530323911265 11.339363392144548 C 42.84558147520939 11.2116389850395 42.57332797086182 11.03349797304179 42.34476990138569 10.80493963201421 C 42.116211198289506 10.576381290986632 41.93470901291971 10.310849952348931 41.800263254759145 10.008346340238319 C 41.6658169082371 9.705842366059102 41.59859371234679 9.37981044982672 41.59859371234679 9.030250591541176 C 41.59859371234679 8.694134883641077 41.6658169082371 8.374825314152872 41.800263254759145 8.07232170204226 C 41.93470901291971 7.769818270965949 42.116211198289506 7.500926030507614 42.34476990138569 7.2656453427358585 C 42.57332797086182 7.030364654964103 42.84558147520939 6.845501205705066 43.161530323911265 6.711054813924445 C 43.47747862951023 6.576608422143824 43.81695487716236 6.509385226253514 44.179959247901955 6.509385226253514 ZM 44.13962625364271 5.823710203170776 C 43.695953540938696 5.823710203170776 43.27917039624569 5.907739107516513 42.889276457495086 6.075796916207987 C 42.499382699778785 6.243854747528749 42.16326735394729 6.472413088556328 41.88093051051775 6.761471961920012 C 41.59859371234679 7.050531423645179 41.373396408915575 7.386646678959522 41.205338600224096 7.769817908897345 C 41.03728139120875 8.152989681938074 40.9532527923584 8.566411562741841 40.9532527923584 9.010083370274344 C 40.9532527923584 9.45375535884115 41.03728139120875 9.867177239644917 41.205338600224096 10.250349012685646 C 41.373396408915575 10.633520785726375 41.59859371234679 10.966275229737235 41.88093051051775 11.24861198264962 C 42.16326735394729 11.530948735562006 42.499382699778785 11.756146355803253 42.889276457495086 11.924204119236151 C 43.27917039624569 12.09226115853184 43.695953540938696 12.17629004024829 44.13962625364271 12.17629004024829 C 44.583298242209516 12.17629004024829 44.99671976094468 12.09226115853184 45.3798908098482 11.924204119236151 C 45.76306258288893 11.756146355803253 46.099178109754725 11.530948735562006 46.38823775251419 11.24861198264962 C 46.67729667113645 10.966275229737235 46.90585501216403 10.633520785726375 47.073912413528326 10.250349012685646 C 47.24197090109843 9.867177239644917 47.32599978281488 9.45375535884115 47.32599978281488 9.010083370274344 C 47.32599978281488 8.566411562741841 47.24197090109843 8.152989681938074 47.073912413528326 7.769817908897345 C 46.90585501216403 7.386646678959522 46.67729667113645 7.050531423645179 46.38823775251419 6.761471961920012 C 46.099178109754725 6.472413088556328 45.76306258288893 6.243854747528749 45.3798908098482 6.075796916207987 C 44.99671976094468 5.907739107516513 44.583298242209516 5.823710203170776 44.13962625364271 5.823710203170776 Z"
     style="fill:#ffffff;stroke:none"
     id="path6" />
  <path
     d="M 50.13487495602708 2.25 C 49.43750455287115 2.25 48.82599973678589 2.7629982188611715 48.82599973678589 3.42148077115561 L 48.82599973678589 15.749999288300122 L 49.677985752171786 15.749999288300122 L 49.677985752171786 3.42148077115561 C 49.677985752171786 3.098508113273651 49.961879069428875 2.994011903683932 50.14025838414628 2.994011903683932 C 50.32742954191152 2.994011903683932 50.61563849328055 3.1252137636833535 50.61563849328055 3.5209571603146776 L 50.61563849328055 11.62395272807413 L 51.467624508666454 11.62395272807413 L 51.467624508666454 3.5209571603146776 C 51.467624508666454 2.861641676122041 50.81467378762922 2.25 50.13487495602708 2.25 Z"
     style="fill:#ffffff;stroke:none"
     id="path8" />
  <path
     d="M 55.222106505111796 5.036236118474649 Q 55.94413013849631 5.036236118474649 56.039908327460864 6.001389589130664 Q 56.13568742159693 6.966544734353974 56.76930060004847 8.867383545571386 L 53.71911867858885 8.852647353371026 Q 54.26431972754012 6.966544734353974 54.38220157118515 6.001389589130664 Q 54.50008269069298 5.036236118474649 55.222106505111796 5.036236118474649 ZM 55.222106505111796 10.016725071763446 Q 55.60522070924442 10.606132570162742 55.63469128330212 11.25448013047162 Q 55.61995599627327 11.902829863192125 55.222106505111796 12.492238447797234 Q 54.80952154588717 11.902829863192125 54.794786439892626 11.25448013047162 Q 54.82425755705323 10.606132570162742 55.222106505111796 10.016725071763446 ZM 55.222106505111796 4.535239934921265 Q 54.13170350203775 4.535239934921265 53.89594062940204 5.750892334637619 Q 53.66017775676633 6.966544734353974 52.96762442588806 9.397849533786683 L 54.721111090954196 9.397849533786683 Q 53.4391501259009 11.25448013047162 55.207371942220156 13.464759788260551 Q 57.04926906221927 11.25448013047162 55.723101919269396 9.397849533786683 L 57.46185384040959 9.397849533786683 Q 56.76930060004847 6.966544734353974 56.53353781792991 5.750892334637619 Q 56.29777431167415 4.535239934921265 55.222106505111796 4.535239934921265 Z"
     style="fill:#ffffff;stroke:none"
     id="path10" />
  <path
     d="M 59.712116509459456 3.896978974342346 Q 59.62197400884003 3.896978974342346 59.496236905787555 4.006999075465781 Q 59.000023642841384 4.674977984192287 58.96185374259949 5.915509203924939 Q 59.11453485972936 6.8888511728802 59.648917253521645 8.663765601059493 Q 59.45806623049255 10.095148432182723 59.36264110367589 12.595295869856214 Q 59.286300545110954 13.435042308251267 59.82068373092831 13.683150543575122 Q 61.40474781495714 14.103021228292418 63.828555802900794 14.103021228292418 Q 66.27144897008694 14.103021228292418 67.8364289610791 13.683150543575122 Q 68.38989934014555 13.435042308251267 68.31355717490118 12.595295869856214 Q 68.21813182179164 10.095148432182723 68.02727894316095 8.663765601059493 Q 68.56166541022503 6.8888511728802 68.71434249934168 5.915509203924939 Q 68.67617612361136 4.674977984192287 68.17995965296365 4.006999075465781 Q 68.05422264042832 3.896978974342346 67.96408059239465 3.896978974342346 Q 67.83530582426815 3.896978974342346 67.77917360438593 4.121509528615294 Q 67.91276822977463 4.503212321439982 68.02727894316095 4.865829052479958 Q 68.17995965296365 5.323871634473798 68.14179110482169 5.724659040808779 Q 68.10362183254253 6.37355260057314 68.01773626302256 6.78388223446076 Q 67.93185431418863 7.194212049382683 67.66466144272519 7.194212049382683 Q 67.65041911210128 7.195351479280829 67.63660112588175 7.195351479280829 Q 67.18753467717752 7.195351479280829 67.18753467717752 5.991849739860589 Q 67.18753467717752 5.55289260866069 67.30204611470106 4.923084228138817 Q 67.20372783344212 4.7559449422382105 67.09021570526681 4.7559449422382105 Q 66.98338157043165 4.7559449422382105 66.86308789729534 4.903998958379178 Q 66.80583254060218 5.362041540373019 66.78674718032539 5.915509203924939 Q 66.71040646335544 6.755254737148482 67.18753467717752 8.282062740346943 Q 67.01576860709804 10.438680572341694 67.01576860709804 12.595295869856214 Q 65.71798221170653 12.80523266048928 63.828555802900794 12.86248874131965 Q 61.95821565954336 12.80523266048928 60.66042835898034 12.595295869856214 Q 60.66042835898034 10.438680572341694 60.48866192683225 8.282062740346943 Q 60.96578977858573 6.755254737148482 60.88944924265008 5.915509203924939 Q 60.87036388237329 5.362041540373019 60.81310870671443 4.903998958379178 Q 60.692814852543826 4.7559449422382105 60.585980355640054 4.7559449422382105 Q 60.47246868005051 4.7559449422382105 60.37415139448023 4.923084228138817 Q 60.48866192683225 5.55289260866069 60.48866192683225 5.991849739860589 Q 60.48866192683225 7.195351479280829 60.03959484450796 7.195351479280829 Q 60.02577740139135 7.195351479280829 60.01153470869883 7.194212049382683 Q 59.744343104475504 7.194212049382683 59.658460295728645 6.78388223446076 Q 59.572577441723205 6.37355260057314 59.53440681168677 5.724659040808779 Q 59.496236905787555 5.323871634473798 59.648917253521645 4.865829052479958 Q 59.763428464752295 4.503212321439982 59.89702426686396 4.121509528615294 Q 59.84089141336169 3.896978974342346 59.712116509459456 3.896978974342346 Z"
     style="fill:#ffffff;stroke:none"
     id="path12" />
  <path
     d="M 71.07033511438752 5.968252495968118 C 71.15169754910801 6.005370031365128 71.17022775683499 6.104902401068448 71.20321487152363 6.179673680982887 C 71.28720667741499 6.444890034417476 71.31805561768427 6.724710555356506 71.3855489131328 6.9948858003973875 C 71.54062144813636 7.736198385234966 71.69569398313993 8.477510970072544 71.85076640228155 9.218823554910124 C 71.72089222007907 9.367601425846441 71.59101815373852 9.516379296782763 71.46114397153603 9.66515716771908 C 71.2931459928711 9.553712798860943 71.12514801420616 9.442267503107178 70.95715003554123 9.330822207353414 C 70.97181723194834 8.282811909070697 70.96952895836833 7.234399338085714 70.9946211236891 6.186643936100518 C 71.00391962476067 6.110865584086969 71.00876508751456 6.022857771166237 71.07033511438752 5.968252495968118 ZM 83.3996782943734 5.535444144153371 L 83.3980172974092 5.538291567520573 C 83.07057473292846 6.108496902311289 82.94099657801696 6.59092614808811 83.22503632785167 7.1966783936353025 C 82.03091020287437 8.712887772576032 80.9120368800899 10.286489601866306 79.85368706108416 11.900147225692272 L 79.45884435416545 11.426763090894891 C 80.34647668273563 9.980483352559169 81.22812033865753 8.512987900209154 82.38362179594776 7.260270848836154 C 82.2826235408098 6.407461988985306 82.53250996746374 5.7659385239398215 83.3996782943734 5.535444144153371 ZM 83.58407861805982 5.0446436405181885 C 83.12116655006018 5.0446436405181885 82.73252755557529 5.185839505222829 82.33041984072945 5.554417234197299 L 82.33041984072945 5.554416307301672 C 81.91642005498477 6.032099384018675 81.87457720567956 6.534369294146618 81.81057877019393 7.120747103843241 C 80.85830195988586 8.322529386702408 80.05409023777669 9.63283631719358 79.16840717071081 10.882430657198057 C 78.91467320030776 10.867698578097043 78.66133686812886 10.861117619142897 78.408321241837 10.861117619142897 C 76.75482100946962 10.861117619142897 75.11503049032632 11.142173691953175 73.46762784084343 11.265883670647963 C 73.14217810196149 10.985166841637291 72.8208695010186 10.686999348650605 72.4336910623185 10.495481393441805 C 72.2348038234245 10.409382058617776 72.01850322810348 10.374434385884378 71.80378345327489 10.353521766740233 C 71.79016133168763 10.230458761193331 71.77116773407795 10.108072389454392 71.75798739411906 9.985017725968138 C 71.95656667194088 9.731805597803287 72.15457753101923 9.478168024545486 72.35381119715395 9.225467542766928 C 72.07284746632054 8.076707397374376 71.80617739295641 6.924166444717884 71.51714190741424 5.77755530683733 C 71.44498933937095 5.597357064477474 71.2550442101798 5.465113157741725 71.0618712248974 5.465113157741725 C 71.0154686863464 5.465113157741725 70.96887989970527 5.472743825993839 70.9236928109766 5.489173514436334 C 70.69314365745167 5.575557406217959 70.55956374653107 5.829229274613972 70.57890530655234 6.069569139754076 C 70.54158307204914 7.206246737196379 70.50420774380578 8.342922017399614 70.46691864582124 9.479600078289732 C 70.71504315974956 9.66818348194236 70.96331105284521 9.85657779888701 71.21151985634464 10.045050901959986 C 71.21982484116565 10.146292003752315 71.22812982598664 10.247534959335898 71.23643481080765 10.348776061128229 C 70.91307023950138 10.360047111956739 70.58612060970145 10.365467597585447 70.26831086595888 10.427080203726291 C 70.1904998752828 10.475951702573656 70.20544999933877 10.59208523641053 70.25858216945427 10.654162217260673 C 70.38726536318934 10.807619984219453 70.58700686674864 10.830296485742437 70.7773081845501 10.830296485742437 C 70.80365490310247 10.830296485742437 70.8298207032146 10.829861771693214 70.85559193544435 10.82927968123924 L 70.85559193544435 10.82927968123924 C 70.69597830703852 11.387533160363166 70.96219368016645 11.911748251364116 71.38568725230517 12.265803843097164 C 71.40404140779394 12.495653566974799 71.4223630060738 12.725506998434941 71.44073743740442 12.955355795416946 C 71.66243383975807 12.944843872107231 71.88413441314204 12.934413515612722 72.10584807892675 12.924271423658318 C 72.08075214809249 12.730651269166703 72.05586326256899 12.537048725692003 72.0318150713795 12.343634342029656 L 72.0318150713795 12.343634342029656 C 72.10548925445701 12.347136153709762 72.17914478376004 12.348587672262184 72.2527862937667 12.348587672262184 C 72.59387901842743 12.348587672262184 72.93467119718099 12.317445832974663 73.27562372887809 12.3146234357894 C 74.48248030184915 12.386892560957822 75.69206426520367 12.480296760220956 76.9015972492987 12.480296760220956 C 77.34003371136268 12.480296760220956 77.77846368515728 12.468023735219287 78.21675416115994 12.438022904449028 C 78.6995842892956 12.410612746957195 79.18311329673426 12.379817566634301 79.6668415867328 12.379817566634301 C 79.79602673789832 12.379817566634301 79.92522579249824 12.38201338237548 80.05443040847192 12.387057548379488 C 81.39254050020092 10.700665497780175 82.6577446894655 8.95742045008643 83.90177487501903 7.200475885020532 C 83.4054778803137 6.662378678208843 83.67384753267251 6.101842718602584 84.06360250949274 5.602122234897652 L 84.04580611344772 5.083891182066837 C 83.88272253539897 5.058621226578543 83.72972450867135 5.0446436405181885 83.58407861805982 5.0446436405181885 Z"
     style="fill:#ffffff;stroke:none"
     id="path14" />
  <path
     d="M 90.0378164703047 4.940342738223064 Q 90.83998297537882 5.0267299913562 91.3212824049725 5.322914419608352 Q 91.53107981681691 5.976988592193696 91.21021321478726 6.69276808086008 Q 90.69189064289004 6.791496302519263 90.45124033627971 6.871713071389375 Q 90.21059073984557 6.951929840259487 90.0378164703047 7.00129371436368 Q 89.38374217935666 6.791496302519263 88.8283962284305 6.705108575935329 Q 88.5445524136163 5.976988592193696 88.75434994382341 5.322914419608352 Q 89.34671891869041 5.014389259555552 90.0378164703047 4.940342738223064 ZM 88.98983691438283 6.967796596885492 Q 89.44015845819966 6.967796596885492 89.92674680666867 7.285137884265982 L 89.92674680666867 9.839728785075518 Q 89.34671891869041 9.642272341757153 88.96414735566783 9.210336549542273 Q 88.79137308612695 8.074962710637855 88.84073696023115 6.976611777311583 Q 88.91478324483823 6.967796596885492 88.98983691438283 6.967796596885492 ZM 91.07345482097512 6.967796596885492 Q 91.14850837215702 6.967796596885492 91.22255465676412 6.976611777311583 Q 91.2719185308683 8.062621742111808 91.11148546657888 9.197995581016222 Q 90.72891331174279 9.642272341757153 90.1365442185131 9.839728785075518 L 90.1365442185131 7.285137884265982 Q 90.62313351388369 6.967796596885492 91.07345482097512 6.967796596885492 ZM 91.72853673358608 2.25 Q 91.59278513289794 2.3857510384653033 91.64214948045294 2.681935585080155 Q 92.12344962022281 3.582830400585484 92.08642624119388 4.039448484940559 Q 92.04940286216492 4.496065977482136 91.71619529160924 5.174822087119576 Q 91.40766989483103 4.915660801170968 91.00041580294285 4.853955721815328 Q 91.04978038722324 4.53308911978568 90.77827765929779 4.323291707941264 L 90.74125451699425 4.0641304219926555 L 90.44507008874209 4.483724772230689 Q 90.51911589989838 4.162858762014539 90.70423184814149 3.903696884252432 L 90.72891331174279 3.780286607178452 Q 90.53145710514983 3.780286607178452 90.48209323104562 3.965402081970772 Q 90.35868283560895 3.841991804896792 90.18590856606808 3.780286607178452 L 90.18590856606808 3.940720144918676 L 90.11186228146099 3.940720144918676 L 90.11186228146099 3.7679458753778037 L 89.96376994897221 3.7679458753778037 L 89.96376994897221 3.940720144918676 L 89.87738293256447 3.940720144918676 L 89.87738293256447 3.780286607178452 Q 89.7046086630236 3.841991804896792 89.59353947283837 3.965402081970772 Q 89.54417512528339 3.780286607178452 89.34671891869041 3.780286607178452 L 89.35906024230457 3.9160382078665794 Q 89.55651633053483 4.162858762014539 89.61822164661586 4.483724772230689 L 89.32203698163832 4.0641304219926555 L 89.28501383933478 4.323291707941264 Q 89.02585243502347 4.53308911978568 89.06287569568971 4.853955721815328 Q 88.66796280905298 4.915660801170968 88.34709626620467 5.174822087119576 Q 88.01388851810493 4.508407182733584 87.97686534621072 4.045618850840883 Q 87.93984264776729 3.582830400585484 88.42114213654231 2.694276819922278 Q 88.47050660246 2.3857510384653033 88.33475506095323 2.262341229293871 L 88.14963958616092 2.607889685151842 L 87.86579627438817 2.521502579972081 L 87.86579627438817 2.521502579972081 Q 87.97439712883296 2.876924077336848 87.76706808231967 2.876924077336848 Q 87.71523588727037 2.876924077336848 87.64365811594777 2.8547102984811517 L 87.64365811594777 2.8547102984811517 Q 87.79175040405055 3.3360098464375243 87.48322462259357 3.42239698120796 L 88.11261691730816 5.409301672741488 Q 88.24964470462493 5.634419005539094 88.3556219314672 5.634419005539094 Q 88.38326820315302 5.634419005539094 88.40880140474167 5.619099084585904 Q 88.40880140474167 6.075717050578279 88.5445524136163 6.532335016570655 Q 88.03857051433837 6.655745175281935 87.93984264776729 7.069169514707743 Q 87.84111430774541 7.482593380682752 88.02622978253773 8.383488344141455 L 88.13729885436027 8.395829312667503 L 88.1866627876458 8.531580439904833 L 88.2853911276677 8.519239471378784 Q 88.23602719438215 8.087303679163902 88.24219756028246 7.729414171556111 Q 88.2483679261828 7.37152419049752 88.44582413277577 6.914906461230544 L 88.58157567428253 6.914906461230544 Q 88.58157567428253 7.655367886949024 88.68030401430443 8.704355419621901 L 88.45816533802721 8.494557534326688 Q 87.98920658105284 8.741377851749247 87.97069498031038 9.191825096753199 Q 87.95218337956794 9.642272341757153 88.08793492107472 10.172936355631215 Q 88.2236859891307 10.70360036950528 88.58157567428253 11.12319519319411 Q 88.63984137030903 11.17498692299544 88.66669242219663 11.17498692299544 Q 88.74221102042583 11.17498692299544 88.56923446903109 10.76530521213552 L 88.60625761133464 10.654236495401086 Q 88.40880140474167 10.160595387105168 88.34709626620467 9.734830079153312 Q 88.2853911276677 9.309064771201456 88.5198704765642 8.975857200645759 L 88.5198704765642 8.988198169171808 Q 88.97648856091928 9.938457006734703 90.0378164703047 10.111231513000975 Q 91.09914426132742 9.938457006734703 91.5557622273198 8.975857200645759 Q 91.77790060769027 9.309064771201456 91.71619529160924 9.734830079153312 Q 91.65449044897899 10.160595387105168 91.45703400566062 10.654236495401086 L 91.49405691123877 10.76530521213552 Q 91.32108047820674 11.17498692299544 91.39659919479863 11.17498692299544 Q 91.42345024668623 11.17498692299544 91.48171594271273 11.12319519319411 Q 91.8396054503205 10.70360036950528 91.97535705100864 10.172936355631215 Q 92.11110817824597 9.642272341757153 92.0925967254569 9.191825096753199 Q 92.07408527266782 8.741377851749247 91.61746706995005 8.494557534326688 L 91.38298748432814 8.704355419621901 Q 91.49405691123877 7.655367886949024 91.48171594271273 6.914906461230544 L 91.61746706995005 6.914906461230544 Q 91.82726448179446 7.359183221971472 91.82726448179446 7.723243687293087 Q 91.82726448179446 8.087303679163902 91.79024157621632 8.506898502852735 L 91.8889697978755 8.519239471378784 L 91.9383331985289 8.383488344141455 L 92.03706189363888 8.371147375615408 Q 92.2221773684312 7.482593380682752 92.12961963103504 7.069169514707743 Q 92.03706189363888 6.655745175281935 91.53107981681691 6.532335016570655 Q 91.66683141750504 6.075717050578279 91.65449044897899 5.619099084585904 L 91.65449044897899 5.619099084585904 Q 91.67873160333724 5.6301179417558185 91.70376010637419 5.6301179417558185 Q 91.81889055751301 5.6301179417558185 91.95067464050574 5.39696094094084 L 92.58006687603898 3.42239698120796 Q 92.28388221106144 3.3236691146368758 92.43197478027561 2.8423690932297037 L 92.43197478027561 2.8423690932297037 Q 92.35320203634237 2.868626615359435 92.29789398745706 2.868626615359435 Q 92.09325292826428 2.868626615359435 92.20983639990516 2.509161345129958 L 92.20983639990516 2.509161345129958 L 91.92599270345364 2.5955484503097193 L 91.72853673358608 2.25 Z"
     style="fill:#ffffff;stroke:none"
     id="path16" />
  <path
     d="M 85.56360363960266 12.15570755776281 L 85.56360363960266 15.749999253823358 L 86.1643071239721 15.749999253823358 L 86.1643071239721 12.15570755776281 ZM 89.69406037437055 12.160672049101692 L 89.69406037437055 15.749999253823358 L 90.29476385873998 15.749999253823358 L 90.29476385873998 12.160672049101692 ZM 93.8989852384074 12.160672049101692 L 93.8989852384074 15.749999253823358 L 94.49968824932604 15.749999253823358 L 94.49968824932604 12.160672049101692 Z"
     style="fill:#ffffff;stroke:none"
     id="path18" />
  <path
     d="M 40.9532527923584 0.375 C 31.328252851963043 0.375 31.328252851963043 17.625 40.9532527923584 17.625 "
     style="fill:none;stroke:#ffffff;stroke-width:1"
     id="path20" />
  <path
     d="M 40.9532527923584 0.375 L 94.49968910217285 0.375 "
     style="fill:none;stroke:#ffffff;stroke-width:1"
     id="path22" />
  <path
     d="M 40.9532527923584 17.625 L 94.49968910217285 17.625 "
     style="fill:none;stroke:#ffffff;stroke-width:1"
     id="path24" />
  <path
     d="M 102.18718910217285 0.375 L 102.18718910217285 17.625 "
     style="fill:none;stroke:#ffffff;stroke-width:1"
     id="path26" />
  <path
     d="M 94.49968910217285 0.375 C 104.12469100952148 0.375 104.12469100952148 17.625 94.49968910217285 17.625 "
     style="fill:none;stroke:#ffffff;stroke-width:1"
     id="path28" />
</svg>
