<?xml version="1.0" encoding="UTF-8" standalone="no"?>
<svg
   width="46.5933837890625"
   height="18.0"
   version="1.1"
   id="svg22"
   sodipodi:docname="smsw.svg"
   inkscape:version="1.1.1 (3bf5ae0d25, 2021-09-20)"
   xmlns:inkscape="http://www.inkscape.org/namespaces/inkscape"
   xmlns:sodipodi="http://sodipodi.sourceforge.net/DTD/sodipodi-0.dtd"
   xmlns="http://www.w3.org/2000/svg"
   xmlns:svg="http://www.w3.org/2000/svg">
  <defs
     id="defs26" />
  <sodipodi:namedview
     id="namedview24"
     pagecolor="#ffffff"
     bordercolor="#666666"
     borderopacity="1.0"
     inkscape:pageshadow="2"
     inkscape:pageopacity="0.0"
     inkscape:pagecheckerboard="0"
     showgrid="false"
     inkscape:zoom="29.510628"
     inkscape:cx="23.279749"
     inkscape:cy="8.9967588"
     inkscape:window-width="1920"
     inkscape:window-height="1001"
     inkscape:window-x="-9"
     inkscape:window-y="-9"
     inkscape:window-maximized="1"
     inkscape:current-layer="svg22" />
  <path
     d="M 1.2190420140847793 0.0 C 0.970800706632417 0.0 0.7230423028937335 0.01893070358296025 0.48290982680079 0.048905678499779795 C 0.15187998957905166 0.13255188916498697 0.3219916247400915 0.5118521231009919 0.6158947927962716 0.5118521231009919 C 0.6355981423211179 0.5118521231009919 0.6558578408244597 0.5101473851910305 0.6765601864318946 0.5065345630073116 C 1.2976180869590601 0.5780119512905144 2.0622053316712337 0.6175539511807123 2.531371224901928 0.9695623988344474 C 3.1537543888207784 1.6479367557428735 2.8741262715941502 3.0576933712068692 2.94658764204448 3.7269297850416896 C 2.951782632395561 3.7629649381631523 2.953952713884158 6.430591781037886 2.953952713884158 7.782422252231933 C 2.352510186605274 7.494257626556917 1.67335422808609 7.349215125535265 1.0039192969246102 7.349215125535265 C 0.7063920462481148 7.349215125535265 0.41078504023889434 7.377865539465801 0.12477432975315178 7.4353349446232855 C -0.20149863151174055 7.606724672263251 0.18154647682350566 7.8266562324049085 0.4376378670454302 7.8266562324049085 C 0.4681373192956425 7.8266562324049085 0.4968360674978842 7.823536850015894 0.5223214865886322 7.816844331348357 C 1.429843884416301 7.914926816832979 2.4617098179841825 8.158078494744517 2.9226503683594482 9.002292523011262 C 2.9681809889039896 9.155077638776014 2.9396896697969415 9.207577525716367 2.870237404087557 9.207577525716367 C 2.717627362869183 9.207577525716367 2.3672466519332462 8.954092059534803 2.1698535251191053 8.954092059534803 C 2.1594948014573196 8.954092059534803 2.1495575210365625 8.954790250504107 2.140092081444407 8.956259682604495 C 1.7610785167129768 8.874396440250864 1.3638924072290621 8.831466124503471 0.9703996331480379 8.831466124503471 C 0.6822712691518855 8.831466124503471 0.39612316158451694 8.854483949517657 0.1205398348885778 8.90208807080806 C -0.19080937123302597 9.107627344268586 0.19133570335568265 9.296978982841198 0.44461121617263977 9.296978982841198 C 0.47243301123084086 9.296978982841198 0.4986997685303211 9.294694058069421 0.5223214865886322 9.289895224364907 C 1.44862453664532 9.401605077048192 2.473672484380784 9.652726246647584 2.9226503683594482 10.498359836231193 C 2.9277747669676573 11.438445880183364 2.9223641381582497 12.059730482053933 2.9475081443234266 12.924290385186742 C 2.9366830234749024 13.190445840004433 3.1097205941872907 13.32271720601211 3.2850258807391146 13.32271720601211 C 3.4589948410141766 13.32271720601211 3.635197450466691 13.192454719453337 3.636159394664339 12.93350313443563 C 3.6297524037925992 12.081649745019838 3.5689455193688686 11.333930766029841 3.680643079957625 10.507654766912083 C 3.905950499841305 9.580679119782916 5.51430012614692 9.438421656179063 6.5132119200872856 9.209440304841713 C 6.73117182826633 8.953197897458422 6.302254993763335 8.858046549715155 6.0257896324592775 8.858046549715155 C 5.984500135730289 8.858046549715155 5.946610983551 8.860169218839136 5.914784994799312 8.86419400179096 C 5.786745621336966 8.854375779085794 5.657882677541108 8.84931073373403 5.528823762638173 8.84931073373403 C 4.87588245171773 8.84931073373403 4.21792069818853 8.978947377079876 3.636159394664339 9.278489565451865 C 3.6124626948293947 8.719755569414783 4.162693019870619 8.398265319455419 4.5568162027996815 8.173701395689454 C 5.178845705598769 7.90617273831141 5.863655500797704 7.879904181098088 6.5132119200872856 7.736389411825166 C 6.745102634598536 7.535056141910107 6.380132787867637 7.365650007124583 6.127413645979344 7.365650007124583 C 6.0940901289112 7.365650007124583 6.06271789404902 7.368595192973972 6.034923712303174 7.3748016471035225 C 5.875700348626306 7.359480780481324 5.715556482670491 7.35166300836024 5.555429474444318 7.35166300836024 C 4.887519202007935 7.35166300836024 4.219896213380853 7.487670468699637 3.6205083975033348 7.782422252231933 C 3.6327889023442115 5.672151988401518 3.6669749732456607 3.6298724602408705 3.6064121746990256 1.633623314068084 C 3.557780785508615 1.016382811297887 3.202148013782708 0.4498605441665941 2.6039100355477967 0.2652764822581205 C 2.1742288083663857 0.06980961445750675 1.6957449806778964 0.0 1.2190420140847793 0.0 Z"
     style="fill:#ffffff;stroke:none"
     id="path2" />
  <path
     d="M 3.29314921521244 15.21501288860129 C 4.074491287174412 15.21501288860129 5.052497037940845 15.616391919330065 5.5257419749406465 16.089636856329868 C 5.939782214238027 16.503676744424546 5.993910276899555 17.05261639954012 6.009086799211701 17.562687749346416 L 0.6002280514165623 17.562687749346416 C 0.615404749330059 17.05261639954012 0.6695328119915868 16.503676744424546 1.0835728756876173 16.089636856329868 C 1.5568179882887687 15.616391919330065 2.5118074944531683 15.21501288860129 3.29314921521244 15.21501288860129 ZM 3.29314921521244 14.777700904737003 C 2.3662267752924526 14.777700904737003 1.3688759017560481 15.205906904973462 0.7843594130436309 15.79042339368588 C 0.1848327417701466 16.38995028583294 0.11688322714550736 17.179222163577567 0.11688322714550736 17.769835531176867 L 0.11688322714550736 17.999999733210704 L 6.469415203279373 17.999999733210704 L 6.469415203279373 17.769835531176867 C 6.469415203279373 17.179222163577567 6.42448232973169 16.38995028583294 5.824955437584633 15.79042339368588 C 5.240439300074916 15.205906904973462 4.220071830733778 14.777700904737003 3.29314921521244 14.777700904737003 Z"
     style="fill:#ffffff;stroke:none"
     id="path4" />
  <path
     d="M 19.59558827849137 2.2331113889984504 Q 20.011497239301697 2.2331113889984504 20.406868373464476 2.6849636002931274 Q 17.14505908393548 6.568070899826414 16.329606932707488 7.024335296803508 Q 15.721254175199014 7.364724151693918 15.258781670883675 7.364724151693918 Q 15.101344397401952 7.364724151693918 14.960813057159163 7.325276517725049 Q 14.407469963604743 7.169951972435412 13.776464255096982 7.150536917736989 Q 13.760688966903167 7.150051524254103 13.744834947749503 7.150051524254103 Q 13.12652956999073 7.150051524254103 12.38825395561615 7.88832679632016 L 12.291175943655867 7.88832679632016 Q 12.815395428237089 6.665148911786697 13.75704954270708 6.140928742588433 Q 14.698701945634467 5.6167096003157315 19.2807685008913 2.2966530928403377 Q 19.439622247033235 2.2331113889984504 19.59558827849137 2.2331113889984504 ZM 13.822576293662692 0.46382689862325743 Q 13.87160069312572 0.46382689862325743 13.922081273037408 0.4715931515608784 L 13.922081273037408 5.461385397334616 Q 12.38825395561615 6.354500505824466 11.805788280014095 7.965988384347936 Q 12.698902703886905 1.79184917642032 13.058089773520756 1.0928900062739073 Q 13.381357725420997 0.46382689862325743 13.822576293662692 0.46382689862325743 ZM 9.823471846940608 8.280349468529765 Q 9.763159224955167 8.280349468529765 9.708909828226425 8.383422671928184 Q 9.611832586460313 8.567870141573977 9.883650198408658 8.897933602234632 Q 10.038974144658383 8.4902085535462 9.922481420308197 8.344591877914295 Q 9.871087133376625 8.280349468529765 9.823471846940608 8.280349468529765 ZM 9.850515161454094 8.003054920244196 Q 9.964842185368557 8.003054920244196 10.097221020296256 8.179560147583969 Q 10.388454200405805 8.567870141573977 9.922481420308197 9.732803546629212 Q 9.398261764572714 8.723195371480656 9.602124802379711 8.257221735611745 Q 9.713322784103013 8.003054920244196 9.850515161454094 8.003054920244196 ZM 14.931688078951879 9.926958201315696 L 14.931688078951879 10.218190867962463 Q 14.718118369566973 10.198775813264039 14.601625302908268 10.082282061988291 Q 14.640456096922156 10.024035528658937 14.756948478963821 9.926958201315696 ZM 15.378245975505326 10.587085807254049 L 17.183890562566404 10.839488364503968 L 17.552786186475032 11.499616655059363 Q 16.931489374550573 11.32487637045426 16.183991626309666 11.033644388424536 Q 15.43649319345172 10.742411037160727 15.378245975505326 10.587085807254049 ZM 11.39806151978306 10.315268879922746 L 11.747541404376221 10.490008479910806 L 11.864034128726408 11.32487637045426 L 11.553386065072697 12.276239381507548 L 11.067997716813883 12.276239381507548 L 11.39806151978306 11.32487637045426 L 11.39806151978306 10.315268879922746 ZM 12.232929752635034 10.606502231186555 L 12.562994240221252 10.703579558529796 L 12.679486964571439 11.32487637045426 L 12.368838216300684 12.276239381507548 L 11.883450552658914 12.276239381507548 L 12.21351435562809 11.32487637045426 L 12.232929752635034 10.606502231186555 ZM 13.37844604914072 10.72299461322822 L 13.494939115799427 11.32487637045426 L 13.184290367528675 12.276239381507548 L 12.698902703886905 12.276239381507548 L 13.028966164547558 11.32487637045426 L 13.028966164547558 10.742411037160727 L 13.37844604914072 10.72299461322822 ZM 12.635970993829574 8.307902566008263 Q 12.94616549869286 8.307902566008263 13.300783776495901 8.383422671928184 Q 14.349222745658347 8.606700935587865 14.621040357606692 9.441570195365404 L 15.43649319345172 9.441570195365404 L 15.747140914796912 8.936765765482605 Q 19.863233149567787 9.888126722684765 20.387455372617175 12.373316708850789 Q 19.261352076958786 11.752018527692242 18.018759137726903 11.538448133690293 L 17.475123229213175 10.451177001279875 L 15.319998757558931 10.159943650016068 L 15.378245975505326 9.635724850051886 L 14.640456096922156 9.635724850051886 Q 13.825002918768604 10.30727392210448 12.976631641685719 10.30727392210448 Q 12.794837747695311 10.30727392210448 12.611532561584353 10.276437401291815 Q 11.572801804388162 10.101698485920798 11.252445186459676 9.567771131681843 Q 10.93208856853119 9.033843092825846 11.592216516778063 8.596994435164216 Q 12.029066885982298 8.307902566008263 12.635970993829574 8.307902566008263 ZM 14.014203342229544 0.0 Q 13.306659502260182 0.0 12.902764885922597 0.4910087625106481 Q 12.407668668006053 1.0928900062739073 11.980527880002157 3.655740467965014 L 11.300984192439817 8.101897190322108 Q 10.97091987600786 8.451378444149354 10.7961802760198 8.4902085535462 L 10.563193800393865 8.4902085535462 Q 10.543778232232661 8.004819862978866 10.194298176485239 7.597094129673393 Q 9.883650198408658 4.626517849099683 10.466115788433582 2.3937311048006213 L 10.233129483961907 1.9471738928642175 Q 9.398261764572714 4.471192276884482 9.825403408347913 7.616509184371816 L 9.767156618287169 7.616509184371816 Q 8.427485014569381 4.607101425167175 9.378846196411509 1.9471738928642175 L 9.145859806362706 1.5976940082710553 L 9.145859806362706 1.5976940082710553 Q 7.90326545510817 4.4323618251791155 9.41767741831105 7.752417990345988 Q 8.99053577453585 8.684363892849726 9.330307190431368 9.286245650075767 Q 9.670079376521057 9.888126722684765 9.747741050125965 10.412346207265987 L 9.883650198408658 10.509424219226272 Q 10.407869083949969 9.732803546629212 10.485531356594787 9.16975258341706 L 10.679686695898312 9.16975258341706 Q 10.699102264059515 9.616309110736422 10.93208856853119 10.101698485920798 L 11.067997716813883 11.32487637045426 L 10.737933400381925 12.276239381507548 L 9.048781837190987 12.276239381507548 L 9.048781837190987 12.742211648142375 L 13.922081273037408 12.742211648142375 L 13.922081273037408 12.276239381507548 L 13.51435451280637 12.276239381507548 L 13.825003261077125 11.32487637045426 L 13.84441900039259 10.606502231186555 Q 14.19389820036871 10.490008479910806 14.368638484973811 10.33468393462117 Q 14.621040357606692 10.567671437172667 14.931688078951879 10.567671437172667 Q 14.912273708870499 10.76182609185915 15.009351720830782 10.89773421321628 Q 15.785971708810798 11.499616655059363 17.78577231979245 11.946173182378724 L 18.465315665046262 13.266429763489512 Q 18.465315665046262 12.942390932799807 18.666445882775246 12.942390932799807 Q 18.73044046079052 12.942390932799807 18.81479623425647 12.97519504299162 L 18.27116032574274 12.00442040032512 L 18.27116032574274 12.00442040032512 Q 19.39726088293296 12.256823642192083 19.97972758546058 12.645134320799134 Q 20.290376676039852 12.97519504299162 19.94089679144669 13.44116867886053 Q 20.71751746404375 13.11110658743396 20.814596160621075 12.509224145590878 Q 20.503945700807716 9.577479001339576 15.552985575493386 8.431961335599805 L 15.203506375517266 9.014428722744466 L 14.892857284937993 9.014428722744466 Q 14.640456096922156 8.198975202282393 12.893057700881908 7.88832679632016 Q 13.283009064230479 7.599008318923254 13.852256838599681 7.599008318923254 Q 14.161630487629424 7.599008318923254 14.523962345646407 7.684463587358902 Q 14.891470935427632 7.771140212597752 15.241644337084495 7.771140212597752 Q 15.87195550160299 7.771140212597752 16.446100683983236 7.490308248055377 Q 17.339214423239 7.053458905776705 20.989335075992095 2.665548716748965 Q 20.31660024722249 1.8173165880798985 19.56675152405883 1.8173165880798985 Q 19.321111613951302 1.8173165880798985 19.067196737655266 1.9083427565418083 L 14.349222745658347 5.286645797346556 L 14.349222745658347 0.025035944973045218 Q 14.173971736739798 0.0 14.014203342229544 0.0 Z"
     style="fill:#ffffff;stroke:none"
     id="path6" />
  <path
     d="M 14.787816725437374 15.285542133461169 C 15.549371373096287 15.285542133461169 16.502609207919512 15.676756272943992 16.963869255453197 16.13801632047768 C 17.367423959429352 16.541570682145313 17.42018123331472 17.07660848522664 17.434973411436005 17.573762319663377 L 12.163093570676018 17.573762319663377 C 12.177885919951562 17.07660848522664 12.230643193836931 16.541570682145313 12.634197726658826 16.13801632047768 C 13.095457945346773 15.676756272943992 14.02626242008698 15.285542133461169 14.787816725437374 15.285542133461169 ZM 14.787816725437374 14.859305039952915 C 13.884368520776045 14.859305039952915 12.912275476840618 15.276666758126694 12.34256182057423 15.846380414393082 C 11.758218113396996 16.430724336850286 11.69198941469321 17.200007968606588 11.69198941469321 17.775664100798863 L 11.69198941469321 17.99999941317163 L 17.883644036181536 17.99999941317163 L 17.883644036181536 17.775664100798863 C 17.883644036181536 17.200007968606588 17.839849083994995 16.430724336850286 17.25550516153779 15.846380414393082 C 16.685791847579925 15.276666758126694 15.691265101252963 14.859305039952915 14.787816725437374 14.859305039952915 Z"
     style="fill:#ffffff;stroke:none"
     id="path8" />
  <path
     d="M 35.48562942149229 3.3492493973510546 Q 35.49225176257024 3.3492493973510546 35.49804640055294 3.3511809433452884 Q 35.416920394321195 3.459349220272771 35.5521311210234 3.5134338512037373 Q 35.71438384980286 3.4728707585483685 35.61973630529552 3.3782232140410238 L 35.61973630529552 3.3782232140410238 Q 35.74142621003809 3.4187862171568977 35.84959457650507 3.4728707585483685 Q 35.730608406364844 3.516137943964068 35.61162295254058 3.516137943964068 Q 35.581876857703 3.516137943964068 35.5521311210234 3.5134338512037373 Q 35.430441216280826 3.5134338512037373 35.37635649581036 3.4187862171568977 Q 35.44589394239267 3.3492493973510546 35.48562942149229 3.3492493973510546 ZM 35.52508876078817 3.2700548475740456 Q 35.36283567385073 3.2700548475740456 35.268188129343386 3.4458284878526326 Q 35.411412282723695 3.615092517277949 35.57971179270483 3.615092517277949 Q 35.58618442374651 3.615092517277949 35.59269394506028 3.61484216484888 Q 35.76846749579938 3.608081395711082 35.944242121012415 3.5134338512037373 L 36.16057885394637 3.526954583623876 L 36.16057885394637 3.4728707585483685 L 35.944242121012415 3.4458284878526326 Q 35.68734148956763 3.2700548475740456 35.52508876078817 3.2700548475740456 ZM 36.62040606718176 3.345034952382736 Q 36.682983429709566 3.345034952382736 36.67437975867796 3.405265484736759 Q 36.660858578560344 3.4999123129281404 36.5729716241118 3.5810391250153466 Q 36.485084669663266 3.66216522078659 36.41747912723317 3.6892074914823247 Q 36.400577652086156 3.6959680815411327 36.392549540930816 3.6959680815411327 Q 36.36846556562278 3.6959680815411327 36.42424007544996 3.635123666406817 Q 36.48373298144109 3.5702221271975567 36.448036808056834 3.5702221271975567 Q 36.43911294378976 3.5702221271975567 36.42424007544996 3.5742783558775484 Q 36.40936684895218 3.5783346740970345 36.39936134758098 3.5783346740970345 Q 36.3593386257802 3.5783346740970345 36.39719771521473 3.5134338512037373 Q 36.44452148746841 3.432306949577036 36.52564749370015 3.364701675765427 Q 36.58464829062469 3.345034952382736 36.62040606718176 3.345034952382736 ZM 36.2957892224906 3.7027290297579216 Q 36.37691630319629 3.7568128548334294 36.32959253094262 3.7906158051274677 Q 36.31139094232275 3.8036165816979626 36.29718997835624 3.8036165816979626 Q 36.27446807785186 3.8036165816979626 36.26198698851252 3.7703343931090263 Q 36.24170486017812 3.71624976217806 36.2957892224906 3.7027290297579216 ZM 36.66568726446693 3.235286213822386 Q 36.63671371639545 3.235286213822386 36.60001326803107 3.24301257687831 Q 36.471563847703635 3.2700548475740456 36.37691630319629 3.405265484736759 Q 36.28226875868894 3.5404761218994727 36.322831582725826 3.6216021281312205 Q 36.21466321625885 3.6486443988269555 36.19438180424041 3.7230105313158584 Q 36.174100392221966 3.7973765742652663 36.26198698851252 3.8379395773811398 Q 36.28226840053097 3.8473002153066522 36.30687027228025 3.8473002153066522 Q 36.38887698898851 3.8473002153066522 36.518886903641345 3.7432920328737955 Q 36.68790022247961 3.608081395711082 36.74198494295007 3.4796308113702037 Q 36.79606894710457 3.3511809433452884 36.76226671312649 3.283575579994184 Q 36.738121850961605 3.235286213822386 36.66568726446693 3.235286213822386 ZM 36.33483130773803 2.468806084310099 Q 36.536163728352975 2.468806084310099 36.80959012722219 2.5534379199437667 Q 37.37747467795029 2.7292115826072276 37.38423526800909 3.1889280354868395 Q 37.3909958580679 3.6486443988269555 36.91775885184715 3.973150304083349 Q 36.70936104873113 4.1160519362013135 36.65828557162124 4.1160519362013135 Q 36.59337731694983 4.1160519362013135 36.78254776698695 3.885263349634812 Q 37.120574404663486 3.4728707585483685 37.032686733898984 3.1889280354868395 Q 36.964330850497646 2.9680841082044345 36.59742521845675 2.9680841082044345 Q 36.492595958851304 2.9680841082044345 36.36339476492069 2.986112079742769 Q 35.727904671762495 2.756253853302963 35.9848049450493 2.5669586747487787 Q 36.11801213600299 2.468806084310099 36.33483130773803 2.468806084310099 ZM 35.659277662769156 2.931126189021104 Q 35.6666087984925 2.931126189021104 35.67381995129203 2.9320275383512984 Q 35.781989034074975 2.9455490318571473 36.255226398453715 3.1889280354868395 Q 36.27113362704409 3.268463641201733 36.333826316441936 3.268463641201733 Q 36.37771141391522 3.268463641201733 36.44452148746841 3.2294910386027134 Q 36.53188803836982 3.1785273963225444 36.617294390638484 3.1785273963225444 Q 36.6905004494253 3.1785273963225444 36.76226671312649 3.215970306182575 Q 36.91775885184715 3.2970964019538176 36.802829537163376 3.506673082065939 Q 36.68790022247961 3.71624976217806 36.49860584978089 3.8582211684785723 Q 36.309310760766195 4.000191768923626 36.336352404685464 4.175966215057672 Q 36.36339476492069 4.351739765796764 36.52564749370015 4.419345129147868 Q 36.28226875868894 5.068356760581665 36.70142140259723 5.122440585657172 Q 37.120574404663486 5.1765251270486425 37.24226430940606 5.514551764725175 L 36.471563847703635 8.056512853673933 L 35.430441216280826 8.232286404413026 Q 35.430441216280826 6.7044059448098245 35.14649894091677 5.514551764725175 Q 34.97072467386172 5.325257392026448 35.8631153984647 5.014272219190193 Q 35.88936981114063 4.357909753344076 35.58425645933209 4.357909753344076 Q 35.575103015798874 4.357909753344076 35.565651584825055 4.358500534934562 Q 35.53934022503007 4.360145017306623 35.51516241233088 4.360145017306623 Q 35.24114576910816 4.360145017306623 35.24114576910816 4.148923854822441 Q 35.44396275455642 4.054276310315096 35.37635649581036 3.9934317161017905 Q 35.30875202785421 3.9325871218884845 35.14649894091677 3.9055449407322445 Q 35.268188129343386 3.783855035989669 35.01128857237255 3.66216522078659 L 35.33579367177348 3.24301257687831 Q 35.399893563880646 3.2109627203642224 35.486547380398875 3.2109627203642224 Q 35.692349612622955 3.2109627203642224 36.025368127244164 3.3917439464611623 Q 36.174100392221966 3.3782232140410238 35.93072058273682 3.24301257687831 Q 35.68734148956763 3.1078019397155963 35.430441216280826 3.1078019397155963 Q 35.55663782290463 2.931126189021104 35.659277662769156 2.931126189021104 ZM 36.28226875868894 8.408060313310099 Q 36.85015366757503 8.556791861971941 36.769027303185304 9.395098582420427 L 36.86367413137668 11.477342412634117 L 34.87607784567034 11.477342412634117 Q 35.18706212311164 10.165798685964873 35.45748321835808 8.475665497582213 L 36.28226875868894 8.408060313310099 ZM 36.41414933247916 2.25 Q 36.30868219350866 2.25 36.20114167798325 2.2627351440604024 Q 35.68734148956763 2.323579699100179 35.24114576910816 3.0401966659039874 Q 35.01128857237255 3.283575579994184 34.821993125199874 3.608081395711082 Q 34.767908762887394 3.7973765742652663 34.95720385190209 3.8244180391055433 Q 34.87607784567034 3.9461079438481184 34.97072467386172 4.027234129158857 Q 35.05185139640943 4.027234129158857 34.984246212137315 4.061037079452895 Q 34.916641027865204 4.09483931343097 34.95720385190209 4.175966215057672 Q 34.99776703409695 4.257092221289419 35.01128857237255 4.392302947991628 Q 35.0248090361742 4.527513495614847 35.17354058483604 4.561316624987876 Q 35.2797770471508 4.585461487152766 35.461895724690166 4.585461487152766 Q 35.53474505812741 4.585461487152766 35.61973630529552 4.581598037006318 L 35.61973630529552 4.581598037006318 L 35.60621476701992 4.852019311331745 Q 35.2276253053065 4.960187677798723 34.767908762887394 5.1765251270486425 L 33.1724227608541 5.987788770945934 Q 32.96209269542789 5.993798303717535 32.76645247961294 5.993798303717535 Q 32.08172193176306 5.993798303717535 31.576936758820803 5.920184302989783 Q 31.34707848761125 5.690325315464266 31.225389388724135 5.622720847508116 L 31.225389388724135 3.405265484736759 L 30.846799054000638 3.405265484736759 L 30.846799054000638 5.595677770956922 Q 30.400604133800407 5.595677770956922 30.508772484877785 6.07567572539447 Q 30.61397722695803 6.542523193225257 30.834295020165612 6.542523193225257 Q 30.840501360748046 6.542523193225257 30.846799054000638 6.542152857872385 L 30.846799054000638 15.709436689965536 L 31.225389388724135 15.709436689965536 L 31.225389388724135 6.433984491405407 L 31.5228529337453 6.352858485173659 Q 32.488443270291434 6.521171963316073 32.91426839739507 6.521171963316073 Q 33.138386828793095 6.521171963316073 33.212985763969975 6.474547673600272 Q 34.32171375874388 6.258210940666315 34.84903476911914 5.771452038011978 Q 35.16001976287641 6.7044059448098245 35.14649894091677 8.232286404413026 Q 34.673261934696015 8.313412768802756 35.01128857237255 8.637918226361672 L 34.64621885814482 9.489746126927772 L 35.01128857237255 9.422140942655659 L 34.48396684568132 11.76128504615615 Q 34.21354467596095 13.00522358855328 33.97016558279176 14.00578232146526 Q 33.88903957656001 14.587188768626943 33.55101293888348 14.952257766538706 Q 33.212985763969975 15.317326764450467 32.72622775671059 15.425494772759464 Q 32.239469033135244 15.533662781068461 32.212426851979004 15.750000230318381 L 33.983687121067355 15.750000230318381 Q 34.159461029964426 15.587747501538923 34.1324186697292 15.128031675435778 Q 34.984246212137315 13.464939414656424 35.16001976287641 12.775364959185746 Q 35.2276253053065 11.828890230428264 35.5521311210234 11.734243402236881 L 36.485084669663266 11.734243402236881 Q 36.41747912723317 12.126354044067913 36.593253394288226 12.437338321509213 L 37.039448040273754 14.519582868038865 Q 37.039448040273754 15.100989315200549 35.957762942972046 15.46605831311231 Q 35.74142621003809 15.506620420833231 35.727904671762495 15.72295787008315 L 36.14705803198674 15.72295787008315 Q 36.944800495766415 15.655353402127 37.49916458269286 15.641832222009384 Q 37.85071240048701 15.43901595287708 37.566769766964974 14.97929869414201 Q 37.63437495123709 12.87001250369309 37.45860175865598 12.390014907413523 Q 37.2828278497589 11.910016594817993 37.2828278497589 11.693679861884036 Q 37.1340955847811 10.07115185777349 37.05972981045018 9.239605727383815 Q 36.98536403611926 8.408060313310099 36.728463762832455 8.124118037946047 Q 37.039448040273754 7.0829954065232394 37.40451703818552 5.987788770945934 Q 37.49916458269286 6.366379307133293 37.82367004025178 7.542711948942347 L 37.71550203194278 9.151718772935276 Q 37.66141731147232 9.300451037913081 37.51944635286929 9.422140942655659 Q 37.37747467795029 9.54383013108227 37.330151263854596 9.780448634192648 Q 37.2828278497589 10.01706713730303 37.38423526800909 10.159038812222027 Q 37.48564340257525 10.301009770825063 37.60057271725901 10.422699675567637 Q 37.63751384778696 10.461814108727332 37.676550918822656 10.461814108727332 Q 37.758962354050006 10.461814108727332 37.85071240048701 10.287488590707447 Q 37.98592276903124 10.030588317420644 37.98592276903124 9.462703766692542 Q 38.43211813133273 8.042991315398336 38.32394940670777 7.515670305023079 Q 38.26986540255327 6.690885122850191 37.90479640464151 5.784972859971611 Q 37.87775476072224 5.392862576298562 37.566769766964974 5.1765251270486425 Q 36.97184285600164 4.933146212958446 36.79606894710457 4.892582314447619 Q 36.620295038207495 4.852019311331745 36.85015366757503 4.378782126031995 Q 37.26930666964129 4.162444676782075 37.49916458269286 3.8379395773811398 Q 37.72902249574444 3.5134338512037373 37.68845967170755 3.0875204381576595 Q 37.647896131354706 2.661606264025871 37.18141971519275 2.431748048778502 Q 36.81257788110386 2.25 36.41414933247916 2.25 Z"
     style="fill:#ffffff;stroke:none"
     id="path10" />
  <path
     d="M 30.489336013793945 0.375 C 20.86433607339859 0.375 20.86433607339859 17.625 30.489336013793945 17.625 "
     style="fill:none;stroke:#ffffff;stroke-width:1"
     id="path12" />
  <path
     d="M 30.489336013793945 0.375 L 38.343384742736816 0.375 "
     style="fill:none;stroke:#ffffff;stroke-width:1"
     id="path14" />
  <path
     d="M 30.489336013793945 17.625 L 38.343384742736816 17.625 "
     style="fill:none;stroke:#ffffff;stroke-width:1"
     id="path16" />
  <path
     d="M 46.030884742736816 0.375 L 46.030884742736816 17.625 "
     style="fill:none;stroke:#ffffff;stroke-width:1"
     id="path18" />
  <path
     d="M 38.343384742736816 0.375 C 47.9683837890625 0.375 47.9683837890625 17.625 38.343384742736816 17.625 "
     style="fill:none;stroke:#ffffff;stroke-width:1"
     id="path20" />
</svg>
