<?xml version="1.0" encoding="UTF-8" standalone="no"?>
<svg
   width="59.00190734863281"
   height="18.0"
   version="1.1"
   id="svg26"
   sodipodi:docname="sneferu.svg"
   inkscape:version="1.1.1 (3bf5ae0d25, 2021-09-20)"
   xmlns:inkscape="http://www.inkscape.org/namespaces/inkscape"
   xmlns:sodipodi="http://sodipodi.sourceforge.net/DTD/sodipodi-0.dtd"
   xmlns="http://www.w3.org/2000/svg"
   xmlns:svg="http://www.w3.org/2000/svg">
  <defs
     id="defs30" />
  <sodipodi:namedview
     id="namedview28"
     pagecolor="#ffffff"
     bordercolor="#666666"
     borderopacity="1.0"
     inkscape:pageshadow="2"
     inkscape:pageopacity="0.0"
     inkscape:pagecheckerboard="0"
     showgrid="false"
     inkscape:zoom="23.304331"
     inkscape:cx="29.479498"
     inkscape:cy="8.9897452"
     inkscape:window-width="1920"
     inkscape:window-height="1001"
     inkscape:window-x="-9"
     inkscape:window-y="-9"
     inkscape:window-maximized="1"
     inkscape:current-layer="svg26" />
  <path
     d="M 1.2190420140847793 0.0 C 0.970800706632417 0.0 0.7230423028937335 0.01893070358296025 0.48290982680079 0.048905678499779795 C 0.15187998957905166 0.13255188916498697 0.3219916247400915 0.5118521231009919 0.6158947927962716 0.5118521231009919 C 0.6355981423211179 0.5118521231009919 0.6558578408244597 0.5101473851910305 0.6765601864318946 0.5065345630073116 C 1.2976180869590601 0.5780119512905144 2.0622053316712337 0.6175539511807123 2.531371224901928 0.9695623988344474 C 3.1537543888207784 1.6479367557428735 2.8741262715941502 3.0576933712068692 2.94658764204448 3.7269297850416896 C 2.951782632395561 3.7629649381631523 2.953952713884158 6.430591781037886 2.953952713884158 7.782422252231933 C 2.352510186605274 7.494257626556917 1.67335422808609 7.349215125535265 1.0039192969246102 7.349215125535265 C 0.7063920462481148 7.349215125535265 0.41078504023889434 7.377865539465801 0.12477432975315178 7.4353349446232855 C -0.20149863151174055 7.606724672263251 0.18154647682350566 7.8266562324049085 0.4376378670454302 7.8266562324049085 C 0.4681373192956425 7.8266562324049085 0.4968360674978842 7.823536850015894 0.5223214865886322 7.816844331348357 C 1.429843884416301 7.914926816832979 2.4617098179841825 8.158078494744517 2.9226503683594482 9.002292523011262 C 2.9681809889039896 9.155077638776014 2.9396896697969415 9.207577525716367 2.870237404087557 9.207577525716367 C 2.717627362869183 9.207577525716367 2.3672466519332462 8.954092059534803 2.1698535251191053 8.954092059534803 C 2.1594948014573196 8.954092059534803 2.1495575210365625 8.954790250504107 2.140092081444407 8.956259682604495 C 1.7610785167129768 8.874396440250864 1.3638924072290621 8.831466124503471 0.9703996331480379 8.831466124503471 C 0.6822712691518855 8.831466124503471 0.39612316158451694 8.854483949517657 0.1205398348885778 8.90208807080806 C -0.19080937123302597 9.107627344268586 0.19133570335568265 9.296978982841198 0.44461121617263977 9.296978982841198 C 0.47243301123084086 9.296978982841198 0.4986997685303211 9.294694058069421 0.5223214865886322 9.289895224364907 C 1.44862453664532 9.401605077048192 2.473672484380784 9.652726246647584 2.9226503683594482 10.498359836231193 C 2.9277747669676573 11.438445880183364 2.9223641381582497 12.059730482053933 2.9475081443234266 12.924290385186742 C 2.9366830234749024 13.190445840004433 3.1097205941872907 13.32271720601211 3.2850258807391146 13.32271720601211 C 3.4589948410141766 13.32271720601211 3.635197450466691 13.192454719453337 3.636159394664339 12.93350313443563 C 3.6297524037925992 12.081649745019838 3.5689455193688686 11.333930766029841 3.680643079957625 10.507654766912083 C 3.905950499841305 9.580679119782916 5.51430012614692 9.438421656179063 6.5132119200872856 9.209440304841713 C 6.73117182826633 8.953197897458422 6.302254993763335 8.858046549715155 6.0257896324592775 8.858046549715155 C 5.984500135730289 8.858046549715155 5.946610983551 8.860169218839136 5.914784994799312 8.86419400179096 C 5.786745621336966 8.854375779085794 5.657882677541108 8.84931073373403 5.528823762638173 8.84931073373403 C 4.87588245171773 8.84931073373403 4.21792069818853 8.978947377079876 3.636159394664339 9.278489565451865 C 3.6124626948293947 8.719755569414783 4.162693019870619 8.398265319455419 4.5568162027996815 8.173701395689454 C 5.178845705598769 7.90617273831141 5.863655500797704 7.879904181098088 6.5132119200872856 7.736389411825166 C 6.745102634598536 7.535056141910107 6.380132787867637 7.365650007124583 6.127413645979344 7.365650007124583 C 6.0940901289112 7.365650007124583 6.06271789404902 7.368595192973972 6.034923712303174 7.3748016471035225 C 5.875700348626306 7.359480780481324 5.715556482670491 7.35166300836024 5.555429474444318 7.35166300836024 C 4.887519202007935 7.35166300836024 4.219896213380853 7.487670468699637 3.6205083975033348 7.782422252231933 C 3.6327889023442115 5.672151988401518 3.6669749732456607 3.6298724602408705 3.6064121746990256 1.633623314068084 C 3.557780785508615 1.016382811297887 3.202148013782708 0.4498605441665941 2.6039100355477967 0.2652764822581205 C 2.1742288083663857 0.06980961445750675 1.6957449806778964 0.0 1.2190420140847793 0.0 Z"
     style="fill:#ffffff;stroke:none"
     id="path2" />
  <path
     d="M 3.29314921521244 15.21501288860129 C 4.074491287174412 15.21501288860129 5.052497037940845 15.616391919330065 5.5257419749406465 16.089636856329868 C 5.939782214238027 16.503676744424546 5.993910276899555 17.05261639954012 6.009086799211701 17.562687749346416 L 0.6002280514165623 17.562687749346416 C 0.615404749330059 17.05261639954012 0.6695328119915868 16.503676744424546 1.0835728756876173 16.089636856329868 C 1.5568179882887687 15.616391919330065 2.5118074944531683 15.21501288860129 3.29314921521244 15.21501288860129 ZM 3.29314921521244 14.777700904737003 C 2.3662267752924526 14.777700904737003 1.3688759017560481 15.205906904973462 0.7843594130436309 15.79042339368588 C 0.1848327417701466 16.38995028583294 0.11688322714550736 17.179222163577567 0.11688322714550736 17.769835531176867 L 0.11688322714550736 17.999999733210704 L 6.469415203279373 17.999999733210704 L 6.469415203279373 17.769835531176867 C 6.469415203279373 17.179222163577567 6.42448232973169 16.38995028583294 5.824955437584633 15.79042339368588 C 5.240439300074916 15.205906904973462 4.220071830733778 14.777700904737003 3.29314921521244 14.777700904737003 Z"
     style="fill:#ffffff;stroke:none"
     id="path4" />
  <path
     d="M 19.59558827849137 2.2331113889984504 Q 20.011497239301697 2.2331113889984504 20.406868373464476 2.6849636002931274 Q 17.14505908393548 6.568070899826414 16.329606932707488 7.024335296803508 Q 15.721254175199014 7.364724151693918 15.258781670883675 7.364724151693918 Q 15.101344397401952 7.364724151693918 14.960813057159163 7.325276517725049 Q 14.407469963604743 7.169951972435412 13.776464255096982 7.150536917736989 Q 13.760688966903167 7.150051524254103 13.744834947749503 7.150051524254103 Q 13.12652956999073 7.150051524254103 12.38825395561615 7.88832679632016 L 12.291175943655867 7.88832679632016 Q 12.815395428237089 6.665148911786697 13.75704954270708 6.140928742588433 Q 14.698701945634467 5.6167096003157315 19.2807685008913 2.2966530928403377 Q 19.439622247033235 2.2331113889984504 19.59558827849137 2.2331113889984504 ZM 13.822576293662692 0.46382689862325743 Q 13.87160069312572 0.46382689862325743 13.922081273037408 0.4715931515608784 L 13.922081273037408 5.461385397334616 Q 12.38825395561615 6.354500505824466 11.805788280014095 7.965988384347936 Q 12.698902703886905 1.79184917642032 13.058089773520756 1.0928900062739073 Q 13.381357725420997 0.46382689862325743 13.822576293662692 0.46382689862325743 ZM 9.823471846940608 8.280349468529765 Q 9.763159224955167 8.280349468529765 9.708909828226425 8.383422671928184 Q 9.611832586460313 8.567870141573977 9.883650198408658 8.897933602234632 Q 10.038974144658383 8.4902085535462 9.922481420308197 8.344591877914295 Q 9.871087133376625 8.280349468529765 9.823471846940608 8.280349468529765 ZM 9.850515161454094 8.003054920244196 Q 9.964842185368557 8.003054920244196 10.097221020296256 8.179560147583969 Q 10.388454200405805 8.567870141573977 9.922481420308197 9.732803546629212 Q 9.398261764572714 8.723195371480656 9.602124802379711 8.257221735611745 Q 9.713322784103013 8.003054920244196 9.850515161454094 8.003054920244196 ZM 14.931688078951879 9.926958201315696 L 14.931688078951879 10.218190867962463 Q 14.718118369566973 10.198775813264039 14.601625302908268 10.082282061988291 Q 14.640456096922156 10.024035528658937 14.756948478963821 9.926958201315696 ZM 15.378245975505326 10.587085807254049 L 17.183890562566404 10.839488364503968 L 17.552786186475032 11.499616655059363 Q 16.931489374550573 11.32487637045426 16.183991626309666 11.033644388424536 Q 15.43649319345172 10.742411037160727 15.378245975505326 10.587085807254049 ZM 11.39806151978306 10.315268879922746 L 11.747541404376221 10.490008479910806 L 11.864034128726408 11.32487637045426 L 11.553386065072697 12.276239381507548 L 11.067997716813883 12.276239381507548 L 11.39806151978306 11.32487637045426 L 11.39806151978306 10.315268879922746 ZM 12.232929752635034 10.606502231186555 L 12.562994240221252 10.703579558529796 L 12.679486964571439 11.32487637045426 L 12.368838216300684 12.276239381507548 L 11.883450552658914 12.276239381507548 L 12.21351435562809 11.32487637045426 L 12.232929752635034 10.606502231186555 ZM 13.37844604914072 10.72299461322822 L 13.494939115799427 11.32487637045426 L 13.184290367528675 12.276239381507548 L 12.698902703886905 12.276239381507548 L 13.028966164547558 11.32487637045426 L 13.028966164547558 10.742411037160727 L 13.37844604914072 10.72299461322822 ZM 12.635970993829574 8.307902566008263 Q 12.94616549869286 8.307902566008263 13.300783776495901 8.383422671928184 Q 14.349222745658347 8.606700935587865 14.621040357606692 9.441570195365404 L 15.43649319345172 9.441570195365404 L 15.747140914796912 8.936765765482605 Q 19.863233149567787 9.888126722684765 20.387455372617175 12.373316708850789 Q 19.261352076958786 11.752018527692242 18.018759137726903 11.538448133690293 L 17.475123229213175 10.451177001279875 L 15.319998757558931 10.159943650016068 L 15.378245975505326 9.635724850051886 L 14.640456096922156 9.635724850051886 Q 13.825002918768604 10.30727392210448 12.976631641685719 10.30727392210448 Q 12.794837747695311 10.30727392210448 12.611532561584353 10.276437401291815 Q 11.572801804388162 10.101698485920798 11.252445186459676 9.567771131681843 Q 10.93208856853119 9.033843092825846 11.592216516778063 8.596994435164216 Q 12.029066885982298 8.307902566008263 12.635970993829574 8.307902566008263 ZM 14.014203342229544 0.0 Q 13.306659502260182 0.0 12.902764885922597 0.4910087625106481 Q 12.407668668006053 1.0928900062739073 11.980527880002157 3.655740467965014 L 11.300984192439817 8.101897190322108 Q 10.97091987600786 8.451378444149354 10.7961802760198 8.4902085535462 L 10.563193800393865 8.4902085535462 Q 10.543778232232661 8.004819862978866 10.194298176485239 7.597094129673393 Q 9.883650198408658 4.626517849099683 10.466115788433582 2.3937311048006213 L 10.233129483961907 1.9471738928642175 Q 9.398261764572714 4.471192276884482 9.825403408347913 7.616509184371816 L 9.767156618287169 7.616509184371816 Q 8.427485014569381 4.607101425167175 9.378846196411509 1.9471738928642175 L 9.145859806362706 1.5976940082710553 L 9.145859806362706 1.5976940082710553 Q 7.90326545510817 4.4323618251791155 9.41767741831105 7.752417990345988 Q 8.99053577453585 8.684363892849726 9.330307190431368 9.286245650075767 Q 9.670079376521057 9.888126722684765 9.747741050125965 10.412346207265987 L 9.883650198408658 10.509424219226272 Q 10.407869083949969 9.732803546629212 10.485531356594787 9.16975258341706 L 10.679686695898312 9.16975258341706 Q 10.699102264059515 9.616309110736422 10.93208856853119 10.101698485920798 L 11.067997716813883 11.32487637045426 L 10.737933400381925 12.276239381507548 L 9.048781837190987 12.276239381507548 L 9.048781837190987 12.742211648142375 L 13.922081273037408 12.742211648142375 L 13.922081273037408 12.276239381507548 L 13.51435451280637 12.276239381507548 L 13.825003261077125 11.32487637045426 L 13.84441900039259 10.606502231186555 Q 14.19389820036871 10.490008479910806 14.368638484973811 10.33468393462117 Q 14.621040357606692 10.567671437172667 14.931688078951879 10.567671437172667 Q 14.912273708870499 10.76182609185915 15.009351720830782 10.89773421321628 Q 15.785971708810798 11.499616655059363 17.78577231979245 11.946173182378724 L 18.465315665046262 13.266429763489512 Q 18.465315665046262 12.942390932799807 18.666445882775246 12.942390932799807 Q 18.73044046079052 12.942390932799807 18.81479623425647 12.97519504299162 L 18.27116032574274 12.00442040032512 L 18.27116032574274 12.00442040032512 Q 19.39726088293296 12.256823642192083 19.97972758546058 12.645134320799134 Q 20.290376676039852 12.97519504299162 19.94089679144669 13.44116867886053 Q 20.71751746404375 13.11110658743396 20.814596160621075 12.509224145590878 Q 20.503945700807716 9.577479001339576 15.552985575493386 8.431961335599805 L 15.203506375517266 9.014428722744466 L 14.892857284937993 9.014428722744466 Q 14.640456096922156 8.198975202282393 12.893057700881908 7.88832679632016 Q 13.283009064230479 7.599008318923254 13.852256838599681 7.599008318923254 Q 14.161630487629424 7.599008318923254 14.523962345646407 7.684463587358902 Q 14.891470935427632 7.771140212597752 15.241644337084495 7.771140212597752 Q 15.87195550160299 7.771140212597752 16.446100683983236 7.490308248055377 Q 17.339214423239 7.053458905776705 20.989335075992095 2.665548716748965 Q 20.31660024722249 1.8173165880798985 19.56675152405883 1.8173165880798985 Q 19.321111613951302 1.8173165880798985 19.067196737655266 1.9083427565418083 L 14.349222745658347 5.286645797346556 L 14.349222745658347 0.025035944973045218 Q 14.173971736739798 0.0 14.014203342229544 0.0 Z"
     style="fill:#ffffff;stroke:none"
     id="path6" />
  <path
     d="M 14.787816725437374 15.285542133461169 C 15.549371373096287 15.285542133461169 16.502609207919512 15.676756272943992 16.963869255453197 16.13801632047768 C 17.367423959429352 16.541570682145313 17.42018123331472 17.07660848522664 17.434973411436005 17.573762319663377 L 12.163093570676018 17.573762319663377 C 12.177885919951562 17.07660848522664 12.230643193836931 16.541570682145313 12.634197726658826 16.13801632047768 C 13.095457945346773 15.676756272943992 14.02626242008698 15.285542133461169 14.787816725437374 15.285542133461169 ZM 14.787816725437374 14.859305039952915 C 13.884368520776045 14.859305039952915 12.912275476840618 15.276666758126694 12.34256182057423 15.846380414393082 C 11.758218113396996 16.430724336850286 11.69198941469321 17.200007968606588 11.69198941469321 17.775664100798863 L 11.69198941469321 17.99999941317163 L 17.883644036181536 17.99999941317163 L 17.883644036181536 17.775664100798863 C 17.883644036181536 17.200007968606588 17.839849083994995 16.430724336850286 17.25550516153779 15.846380414393082 C 16.685791847579925 15.276666758126694 15.691265101252963 14.859305039952915 14.787816725437374 14.859305039952915 Z"
     style="fill:#ffffff;stroke:none"
     id="path8" />
  <path
     d="M 31.79821123303514 2.25 C 31.1008408298792 2.25 30.489336013793945 2.7629982188611715 30.489336013793945 3.42148077115561 L 30.489336013793945 15.749999288300122 L 31.341322029179842 15.749999288300122 L 31.341322029179842 3.42148077115561 C 31.341322029179842 3.098508113273651 31.625215346436935 2.994011903683932 31.803594661154335 2.994011903683932 C 31.990765818919574 2.994011903683932 32.278974770288606 3.1252137636833535 32.278974770288606 3.5209571603146776 L 32.278974770288606 11.62395272807413 L 33.13096078567451 11.62395272807413 L 33.13096078567451 3.5209571603146776 C 33.13096078567451 2.861641676122041 32.478010064637274 2.25 31.79821123303514 2.25 Z"
     style="fill:#ffffff;stroke:none"
     id="path10" />
  <path
     d="M 36.608064289942796 11.336883236536101 C 36.2361982341745 11.336883236536101 35.86274292048629 11.60068580738808 35.48769843790225 12.128290949092039 L 35.48769843790225 12.681322080936589 C 35.86274292048629 12.147360619745648 36.2361982341745 11.880380245246506 36.608064289942796 11.880380245246506 C 36.979930523759265 11.880380245246506 37.350207499655816 12.147360619745648 37.71889521763246 12.681322080936589 L 37.71889521763246 12.128290949092039 C 37.350207499655816 11.60068580738808 36.979930523759265 11.336883236536101 36.608064289942796 11.336883236536101 ZM 36.608064289942796 12.481086978110397 C 36.47775226243672 12.481086978110397 36.345851155058895 12.516049227963114 36.21236070073708 12.585972303283226 C 35.945380059165686 12.72581987830877 35.81188960484387 13.037297337987429 35.81188960484387 13.520404682319208 L 36.02166016616545 14.798098255046744 L 36.22982962936414 14.72181814804699 L 36.153548899195805 13.978086036510394 C 36.10269567257747 13.444124575319453 36.17897577957722 13.169185447849216 36.38238948726732 13.00391188268308 C 36.48409647464849 12.921274744003684 36.54766964021555 12.879956174663986 36.6104479987745 12.879956174663986 C 36.67322635733345 12.879956174663986 36.73520990888427 12.921274744003684 36.83373855847378 13.00391188268308 C 37.03079603570098 13.169185447849216 37.10389798295724 13.43776825583247 37.053044756338906 13.959016365856785 L 36.95769408844471 14.72181814804699 L 37.204003605143285 14.779028584393135 L 37.39470405069084 13.520404682319208 C 37.38199069952421 13.037297337987429 37.24850033422648 12.72581987830877 36.99423295479763 12.585972303283226 C 36.86709926508321 12.516049227963114 36.738376317448875 12.481086978110397 36.608064289942796 12.481086978110397 ZM 36.87981226015351 10.717106120825942 C 37.49005418444053 10.895093749351362 37.82060220501363 11.143004453196895 37.871455965776455 11.460838232362539 C 37.92230901434663 11.778672723720842 37.94455755693639 12.210928087771435 37.938200881353076 12.757602900129003 C 37.931844205769764 13.304278424679229 37.839672231763565 13.828704338350708 37.6616853154308 14.330882777721413 C 37.48369786495355 14.83306121709212 37.13407999567868 15.12229120247001 36.612831885654366 15.198569885084446 C 36.07887033543934 15.12229120247001 35.7260742173969 14.83306121709212 35.554443353478874 14.330882777721413 C 35.38281306821739 13.828704338350708 35.29064122774731 13.307455516133732 35.277927921092726 12.767137735455808 C 35.2652145699261 12.226819242585224 35.284284552163996 11.794564590727289 35.33513786780642 11.470373779882003 C 35.385991138936795 11.146182969036715 35.71653875890152 10.895093749351362 36.32678059416446 10.717106120825942 ZM 36.08207306582959 2.25 L 36.08207306582959 3.1653628864305383 L 35.35741080299477 3.1653628864305383 L 35.35741080299477 3.7374645791695214 L 36.08207306582959 3.7374645791695214 L 35.75788189888797 10.33570487363451 C 35.134926690202384 10.589972609159684 34.78848719766721 10.930055287011418 34.718563432410456 11.35595290718971 C 34.64864016235017 11.781851239560662 34.62003520012133 12.21728440725842 34.63274851790393 12.66225241028298 C 34.64546183568652 13.107220413307541 34.69631536832514 13.574436602825532 34.78530911616754 14.063901691029614 C 34.874302868878445 14.553366067041035 35.10632196166176 15.018980535267572 35.48136642198978 15.311389748677943 C 35.85641090457382 15.603796113317674 36.32995946610061 15.750000720022861 36.603296872279394 15.750000720022861 C 36.87663427845818 15.750000720022861 37.35018275096089 15.600618309670514 37.72522732256901 15.301854913351137 C 38.100271716128965 15.003090092646444 38.33229090906438 14.540653428067069 38.42128472332709 14.063901691029614 C 38.5102785375898 13.587149953992158 38.5611319422563 13.123112280313988 38.57384529342293 12.671787245609785 C 38.58655864458955 12.22046221090558 38.55795342641648 11.781851239560662 38.48802963890371 11.35595290718971 C 38.41810620748727 10.930055287011418 38.06531017846891 10.589972609159684 37.42964190794496 10.33570487363451 L 37.18173049190677 3.7374645791695214 L 37.84918285253994 3.7374645791695214 L 37.868252879289884 3.1653628864305383 L 37.12452058970512 3.1653628864305383 L 37.12452058970512 2.25 Z"
     style="fill:#ffffff;stroke:none"
     id="path12" />
  <path
     d="M 42.04285437381517 2.7257847122740886 Q 41.76416442019291 2.7257847122740886 41.76416442019291 3.053654893215412 Q 41.76416442019291 3.3323442203436606 42.04285437381517 3.3323442203436606 Q 42.33793752771244 3.315951020068642 42.33793752771244 3.0208678661713657 Q 42.33793752771244 2.7257847122740886 42.04285437381517 2.7257847122740886 ZM 40.9608820338659 2.9388999853142432 L 40.9608820338659 3.23398313921152 L 40.32153558825143 3.348738047112689 Q 40.6166187421487 3.0372610664463835 40.9608820338659 2.9388999853142432 ZM 40.99366906090995 3.3323442203436606 Q 41.37072018516349 3.627428090234092 41.124817169086135 3.7749693986852972 Q 40.74776680557532 3.6438212010099655 40.567437843586056 3.4307052119766563 L 40.99366906090995 3.3323442203436606 ZM 42.14121554444645 2.5782427773288727 Q 42.91171081423027 2.5782427773288727 43.37072901384863 3.168409085123426 Q 43.829747213467 3.758576198410279 43.86253433001019 4.988089667812462 Q 45.05926068286918 5.233991967896662 45.452705007397746 6.070061470766861 Q 45.51640584439448 6.611515900264761 45.208823418994804 6.611515900264761 Q 45.19977648748677 6.611515900264761 45.19040879104537 6.611047640741494 Q 44.86253869960319 6.5946535454750315 44.67401340597385 6.430718678752231 Q 44.60545885138043 6.371105804673079 44.57050370756437 6.371105804673079 Q 44.50933283238028 6.371105804673079 44.55106162943774 6.5536704552883425 Q 44.61663586252412 6.840556740550677 45.272376045408485 7.250394802349122 Q 45.92811730228257 7.660232148154413 45.378934800667864 7.930725054143441 Q 45.242671279396895 7.997840104499048 45.08874563898223 7.997840104499048 Q 44.622305812317336 7.997840104499048 43.99368243818638 7.38154291052531 Q 43.15761293531618 6.5618664289318405 43.10843279749626 6.135635345856666 Q 43.059251943683186 5.70940426278149 43.4526969842049 5.34874705479612 Q 43.686637007652834 5.1343019139699875 43.613398783837006 5.1343019139699875 Q 43.5634636312353 5.1343019139699875 43.37072901384863 5.233991967896662 Q 42.8953168979621 5.479895162972307 42.87072682905214 5.955306383867403 Q 42.84613676014217 6.430718678752231 43.24777795330568 6.996294917636824 Q 43.64941825147774 7.561871156521417 44.82975158306 8.430727417938229 Q 44.95040788554168 8.493678252105262 45.1029595350922 8.493678252105262 Q 45.427131521889606 8.493678252105262 45.89533018573938 8.209415365762277 Q 46.58385784316351 7.7913802563306005 45.206802886311834 6.922523636917211 Q 45.715001939743274 6.791375886737601 45.73139496102 6.479899532565306 Q 46.370741764631056 6.693014537108028 49.32157437759356 10.447129536397535 Q 50.108463026650675 10.971721969102283 50.124856405923985 11.21762480618135 Q 50.108463026650675 11.447134263987111 49.87895428483807 11.496314401807032 Q 49.829773431025 11.50685310505318 49.77908684360728 11.50685310505318 Q 49.59323793239075 11.50685310505318 49.38714861067994 11.36516665162742 Q 48.46911149545005 11.80779147197248 47.60845263966304 11.824184851245787 Q 47.56315533272184 11.825047622997374 47.51869788575127 11.825047622997374 Q 46.71845739634262 11.825047622997374 46.19041316063837 11.545495255620107 L 46.19041316063837 11.545495255620107 Q 46.731398972616425 12.02090683451178 46.567464463890204 12.54549926721653 Q 46.487980631784666 12.79984724355698 46.447034415245454 12.79984724355698 Q 46.40352923917082 12.79984724355698 46.40352923917082 12.512712508669916 Q 46.40352923917082 11.955332601425397 44.97729378650265 11.447134263987111 L 44.97729378650265 12.070087688324856 Q 44.893327121254636 12.422747968763774 44.84376571707976 12.422747968763774 Q 44.7965649423364 12.422747968763774 44.780570729246925 12.10287444687147 Q 44.68220973761393 11.397953410174035 44.31335548199533 10.586474692206952 Q 43.94450230036646 9.774995258246715 43.14121991403945 8.340563115941887 Q 42.33793752771244 6.906130615640482 42.116625475536495 6.274980501666084 Q 41.8953125283691 5.643830029695108 41.91170626563898 5.102843859720475 Q 41.928099465914 4.5618576897458425 41.690393318471585 4.307758521026699 Q 41.45268806602061 4.053659352307555 41.55104914715275 3.758576198410279 Q 41.64941022828489 3.4634922390207032 41.25596518776318 3.201196112167473 L 41.25596518776318 2.922506829788797 Q 41.6821971658298 2.5782427773288727 42.14121554444645 2.5782427773288727 ZM 45.25598302413175 12.02090683451178 Q 46.059265410458764 12.25041629231754 46.059265410458764 12.561892646489836 L 45.51827924048413 14.578295480942295 Q 45.452705007397746 14.938952688927666 45.07565477813564 14.938952688927666 L 44.419913521261556 14.938952688927666 L 44.419913521261556 14.906165930381052 L 45.25598302413175 12.348777283950536 L 45.25598302413175 12.02090683451178 ZM 42.2003766268449 2.25 Q 42.171022518480896 2.25 42.14121554444645 2.2503725963875496 Q 41.50186820384054 2.2503725963875496 40.84612784195789 2.7749648948435817 Q 40.46907680720349 2.9061129582701963 40.07563257217407 3.3815250741567358 Q 40.6166187421487 3.8733303903182934 41.05924311499804 3.9880852982194623 Q 41.10842405831026 4.217594398028645 41.37072018516349 4.627431743833936 Q 41.387113295939365 5.70940426278149 41.66580324956163 6.422522347112155 Q 41.94449338218217 7.135639715449665 43.53466423856801 10.250407553131542 Q 44.32155252962856 11.88975908433217 44.32155252962856 12.266809671590847 Q 44.32155252962856 12.840582958108671 43.60023811365782 14.840590981301515 Q 43.60023811365782 14.955346068200972 42.616627660332995 15.0209195852942 Q 41.14121099585517 15.07010115510043 41.14121099585517 15.4307583630858 Q 41.14121099585517 15.643873725625099 41.33793315811945 15.643873725625099 L 45.69860820247339 15.643873725625099 Q 46.10844554827868 15.316003276186343 46.15762640209176 15.086494534373736 Q 46.55107036862374 15.250429759093116 46.58385784316351 15.529118638725642 Q 46.63907738324454 15.749999663022377 46.74079853075322 15.749999663022377 Q 46.75987187240511 15.749999663022377 46.7805798264295 15.74223400126494 Q 46.91172829260226 15.69305386344502 46.91172829260226 15.529118638725642 Q 46.796973205702805 15.086494534373736 46.33795500608444 14.676655756582136 L 46.86254743878919 12.463531654856839 Q 48.45271811617674 12.414351517036918 49.633051447759 11.955332601425397 Q 49.85163198604923 12.004513455238474 50.03378207662784 12.004513455238474 Q 50.39808225778505 12.004513455238474 50.61666208008212 11.80779147197248 Q 50.94453252952088 11.512707781080339 50.48551432990251 10.889754356742595 Q 49.48550960231293 9.889750345146172 48.58386658234951 8.693023634290604 Q 46.731398972616425 6.414325299478924 46.0428713151923 6.0536673755004 Q 45.813362215383115 5.578256154605303 45.49368917157417 5.299566200983045 Q 45.174015769768644 5.020876784355652 44.33794626689844 4.611038722557207 Q 44.32155252962856 3.6438212010099655 43.88712511491331 2.9388999853142432 Q 43.4625705298102 2.25 42.2003766268449 2.25 Z"
     style="fill:#ffffff;stroke:none"
     id="path14" />
  <path
     d="M 30.489336013793945 0.375 C 20.86433607339859 0.375 20.86433607339859 17.625 30.489336013793945 17.625 "
     style="fill:none;stroke:#ffffff;stroke-width:1"
     id="path16" />
  <path
     d="M 30.489336013793945 0.375 L 50.75191020965576 0.375 "
     style="fill:none;stroke:#ffffff;stroke-width:1"
     id="path18" />
  <path
     d="M 30.489336013793945 17.625 L 50.75191020965576 17.625 "
     style="fill:none;stroke:#ffffff;stroke-width:1"
     id="path20" />
  <path
     d="M 58.43941020965576 0.375 L 58.43941020965576 17.625 "
     style="fill:none;stroke:#ffffff;stroke-width:1"
     id="path22" />
  <path
     d="M 50.75191020965576 0.375 C 60.376909255981445 0.375 60.376909255981445 17.625 50.75191020965576 17.625 "
     style="fill:none;stroke:#ffffff;stroke-width:1"
     id="path24" />
</svg>
