<?xml version="1.0" encoding="UTF-8" standalone="no"?>
<svg
   width="77.94396209716797"
   height="18.0"
   version="1.1"
   id="svg24"
   sodipodi:docname="taharqa.svg"
   inkscape:version="1.1.1 (3bf5ae0d25, 2021-09-20)"
   xmlns:inkscape="http://www.inkscape.org/namespaces/inkscape"
   xmlns:sodipodi="http://sodipodi.sourceforge.net/DTD/sodipodi-0.dtd"
   xmlns="http://www.w3.org/2000/svg"
   xmlns:svg="http://www.w3.org/2000/svg">
  <defs
     id="defs28" />
  <sodipodi:namedview
     id="namedview26"
     pagecolor="#ffffff"
     bordercolor="#666666"
     borderopacity="1.0"
     inkscape:pageshadow="2"
     inkscape:pageopacity="0.0"
     inkscape:pagecheckerboard="0"
     showgrid="false"
     inkscape:zoom="17.640879"
     inkscape:cx="38.971981"
     inkscape:cy="8.9848131"
     inkscape:window-width="1920"
     inkscape:window-height="1001"
     inkscape:window-x="-9"
     inkscape:window-y="-9"
     inkscape:window-maximized="1"
     inkscape:current-layer="svg24" />
  <path
     d="M 9.619241759901131 8.704017150225534 C 9.956114020057063 8.704017150225534 10.371109904274771 8.76399089929749 10.864229412554256 8.883939352346172 C 11.905261819800385 9.137163864337834 12.8056128816014 9.495897714329981 13.565284507766846 9.960140902322616 C 14.32495613393229 10.42438504522002 15.176070395910864 11.008207138114807 16.1186263387978 11.711606226102205 C 15.211383729261659 12.170969850713034 14.168207560803758 12.400651185566062 12.989095923614554 12.400651185566062 C 12.723796640788658 12.400651185566062 12.45161535927535 12.38902331016484 12.172553033979401 12.365768514267165 C 10.653210736553286 12.239155780818948 9.3484030744964 11.792497164191472 8.258132912523058 11.025791709479964 C 7.167863705454489 10.259086254768457 6.897054622097669 9.78780828332499 7.445706139904986 9.61195779514956 C 7.994358612617073 9.436108261878905 8.441018184149321 9.207503104703234 8.78568342214457 8.92614327852732 C 8.967086681565636 8.778059511294387 9.244939142516232 8.704017150225534 9.619241759901131 8.704017150225534 ZM 16.87829701005847 11.880422885731571 L 17.743478929129175 12.070340076094354 C 17.743478929129175 12.295428318996994 17.539492171864723 12.478311680813713 17.131522476954906 12.618992071354056 C 16.899402315315747 12.634818663035082 16.657389340244983 12.642731958875595 16.405485461552153 12.642731958875595 C 15.985642480714866 12.642731958875595 15.538322115080815 12.620750051038186 15.063526274459544 12.576788145172907 C 15.977946903162229 12.464244023721587 16.582870481695206 12.232122907177656 16.87829701005847 11.880422885731571 ZM 18.207723072026578 12.196952809542571 L 18.73527358164809 12.302462147543055 C 18.791544210016596 12.471278807172421 18.594593191107748 12.640094511897015 18.144416705302472 12.808910216621609 L 17.532460253128203 12.76670629044046 C 17.968567172031815 12.569755271531616 18.193655414934454 12.379837126264063 18.207723072026578 12.196952809542571 ZM 19.009598624373172 12.407972440448313 L 19.36833342927009 12.49238029281061 C 19.283925576907794 12.731536192805375 19.030702019820904 12.851114142802757 18.608660848199875 12.851114142802757 C 18.847816748194642 12.696366095170289 18.98146331018892 12.548652830988656 19.009598624373172 12.407972440448313 ZM 19.600455500718795 12.618992071354056 C 19.938086910167982 12.71746853571325 20.163175153070622 12.87925041189178 20.27571831961717 13.10433865479442 L 19.326128548184172 12.893318068983906 C 19.509013819810434 12.808910216621609 19.600455500718795 12.71746853571325 19.600455500718795 12.618992071354056 ZM 17.405847519679988 13.864010280959864 C 18.46094662911347 13.99062205950331 19.255788352914 14.28604954277135 19.790372691081576 14.750293685668755 L 17.173725448231284 14.138336278589716 C 17.20186267222508 13.983587276052475 17.279236696041313 13.892145595144116 17.405847519679988 13.864010280959864 ZM 5.187792747046841 0.40093762696942586 C 5.848988863757863 0.40093762696942586 6.3484031042903535 0.5838216154424017 6.686035468644312 0.9495895923883535 C 7.0236668780935005 1.3153575693343054 7.129177170998758 2.198124417859453 7.0025653924553115 3.5978901976453446 C 6.875952659007095 4.997655977431236 6.8337487328259465 5.947245271411848 6.875953136459481 6.446659034491953 C 6.918156585188243 6.946073275024443 7.048285755457107 7.315357867835686 7.266340169813683 7.554513290378066 C 7.4843936292654885 7.793669667825216 7.748168406623859 8.029308176094565 8.05766402443641 8.261430247543267 C 8.367160119701346 8.49355231899197 8.212412072068878 8.70105503562468 7.5934203589913905 8.883939352346172 C 6.974429123366289 9.06682271416289 6.629762930466267 9.33763179751971 6.559423212648482 9.69636660241663 C 6.48908301737831 10.055099497504006 6.577008261466024 10.385698033311902 6.823197990006852 10.688160300030777 C 7.069388196000066 10.99062256674965 7.656726725715499 11.398594171469009 8.585214534057924 11.912075114188854 C 9.513701864947961 12.42555701181347 10.333162943564483 12.752637678443564 11.043595860097945 12.893318068983906 C 11.754030686440949 13.033998459524248 13.931053141209826 13.10433865479442 17.57466322440458 13.10433865479442 C 18.700104438917776 13.315358285700162 19.445707453086325 13.596718111876076 19.811474176719763 13.94841813332216 L 17.405847519679988 13.399766138062459 C 17.18076118658689 13.47010633333263 17.00490974350669 13.60375194042214 16.87829701005847 13.800703914235756 C 16.87829701005847 14.166472547678739 16.083455286257944 14.37749217858448 14.493772793561655 14.433763761857755 C 14.254616893566888 14.433763761857755 14.092834062483586 14.103166180954629 14.008427165026061 13.441970064243609 L 13.755202653034399 13.652989695149351 C 13.881814431577844 14.187574033316928 13.91698452921293 14.658852004760394 13.860712945939655 15.066823609479753 C 13.663760972126038 14.588511809490223 13.319094779226017 14.271981885679224 12.826715322144361 14.117233838046756 C 12.038906471985122 13.976553447506413 11.335507383997724 13.846424754689936 10.71651519346785 13.726846804692553 C 10.097523002937978 13.607269809599941 9.471497938766813 13.350529338240019 8.838438091144814 12.956624435708015 C 8.275718438792987 12.520516561899633 7.371849507814169 12.049238590456165 6.126831775660745 11.542790521377611 C 4.881814043507322 11.03634340720383 4.259305416156803 10.283705609584448 4.259305416156803 9.284877128519467 C 4.259305416156803 8.286049602359258 4.593420388785345 7.459554695196674 5.261649856590044 6.805393361936487 C 5.929879801847128 6.151231551223914 6.2639942970232845 5.366941047694864 6.2639942970232845 4.452521373896952 C 6.2639942970232845 4.002345365544058 6.207722713750011 3.5767882345547704 6.095179069751077 3.175850219655281 C 5.993352799453844 2.8130966980279646 5.689997219321334 2.6317199372143065 5.185112329353548 2.6317199372143065 C 5.131966626849421 2.6317199372143065 5.076588356989783 2.6337295343056977 5.0189770423222475 2.6377489672146734 L 3.2464102329044677 2.869871038663376 C 3.3026820549039346 2.6869874381204633 3.387089668540039 2.5181714946696765 3.4996335512651657 2.363423447037208 C 3.6403134643531225 1.9273154538657298 3.795061511985591 1.6740914193264531 3.9638776941625706 1.6037515821455712 C 3.9884963327999836 1.6899181303705768 4.083125485835245 1.733001523846176 4.247764437089777 1.733001523846176 C 4.271284696513898 1.733001523846176 4.296233016023633 1.732122295277918 4.32261082797614 1.7303637187783059 C 4.603971609056825 1.7162955842337946 4.765753485235356 1.5756155517827413 4.8079574114165045 1.308323860151339 C 4.7798216197798675 1.0410321685199366 4.6180397436013365 0.9003521360688832 4.32261082797614 0.8862840612059201 C 4.069387270889249 0.9003521360688832 3.9287073578012923 1.0410321685199366 3.9005710887122693 1.308323860151339 C 3.6754838007144013 1.5193437297832741 3.4996337899913588 1.765533697050295 3.373021295269335 2.046893523226209 C 3.3320964640294637 2.0673559388461444 3.2921017100369276 2.0775870272930157 3.2530370332917253 2.0775870272930157 C 3.1846734908983327 2.0775870272930157 3.119158190711805 2.046253737029377 3.0564913714583355 1.9835869177759076 C 3.225307553635315 1.6459552696005268 3.471497998354722 1.2977725205167625 3.7950622281641695 0.9390390286139039 C 4.118625980521232 0.5803047608509185 4.582869168513866 0.40093762696942586 5.187792747046841 0.40093762696942586 ZM 9.977946007845366 14.159437764227905 L 10.653208826743741 14.328253468952498 L 9.89353815548307 15.425557459471902 L 9.977946007845366 14.159437764227905 ZM 11.286269629270512 14.391559835676606 C 11.84898928162234 14.391559835676606 12.32378416733884 14.451348333222912 12.71065428642001 14.570927238125066 C 13.09752440550118 14.690504233217677 13.336679350591174 15.144197633295988 13.428121986404305 15.932005528550455 C 13.517959427296729 16.705992132143816 13.400721948894024 17.092986388845265 13.07640859629142 17.092986388845265 C 13.070618053757709 17.092986388845265 13.064760667889999 17.092862251224986 13.058837393593063 17.09261588579397 L 11.03304511727885 17.09261588579397 C 10.988356528882543 17.089306185856326 10.942987093384234 17.087650380982737 10.896935855879153 17.087650380982737 C 10.551564943257846 17.087650380982737 10.167861288398607 17.180747866764687 9.745823936396663 17.366940928519046 C 9.858368057847983 16.382182014355735 10.3718499554726 15.390387361836815 11.286269629270512 14.391559835676606 ZM 5.187792747046841 0.0 C 4.231169147067781 0.0 3.443361967991892 0.5345838607151904 2.8243702549144043 1.6037515821455712 C 2.613350385282469 1.9554513648654634 1.9873244855696295 2.3071511475853557 0.946292317049693 2.6588511690314407 C 0.22882448278191372 2.869871038663376 -0.08067132899566878 3.165298999383801 0.017804894772284054 3.545135051192716 L 0.03890708726380924 3.798358369553414 C 1.3753664816751086 3.6717465910099687 2.493771957832701 3.5099647148314377 3.3941234970861016 3.3130129797440135 L 5.040079482865207 3.0175852577497815 C 5.048381902400062 3.0173546482474904 5.056615568791377 3.017239343496345 5.064780004586766 3.017239343496345 C 5.5546451974053515 3.017239343496345 5.796118651280282 3.432360558965298 5.789199888759171 4.2626027511770115 C 5.782166060213108 5.106682229704753 5.4269491244939925 5.862836941597166 4.723549559054208 6.5310668868542505 C 4.020149993614424 7.199296832111335 3.661415904896083 8.166471652361876 3.6473477703515713 9.432591347605873 C 3.6473477703515713 10.459556097759878 4.136210551886389 11.19460836910933 5.11393659240841 11.637750071463774 C 6.09166167802566 12.08089177381822 7.037734535185626 12.555685704629948 7.952154686435924 13.062133773708501 C 8.866573405329065 13.568581842787054 9.387089131499744 13.962486745319058 9.513701864947961 14.243845616590201 C 9.44336166967779 15.735053554736838 9.26047830786107 16.698711938166735 8.96504986968826 17.134818857070343 C 8.472670412606604 17.134818857070343 7.614522322081965 17.064478661800173 6.390606553019116 16.92379827125983 C 6.01077121738878 16.980070809437876 5.75051335430344 17.10316567370829 5.609832486310712 17.293084773880615 C 5.469153528127526 17.48300387405294 5.497289319764163 17.69050468087611 5.69424129357778 17.91559292377875 C 5.7882960713930505 17.77973671214347 5.878469161312617 17.711806696516287 5.9647610407888685 17.711806696516287 C 5.99463093949035 17.711806696516287 6.024035799568166 17.719946304787623 6.052975621022314 17.73622552133029 C 6.165519265021248 17.799531888054396 6.446879091197162 17.831185071416453 6.897054144645284 17.831185071416453 L 8.96504986968826 17.831185071416453 C 9.066651737364214 17.811645809984256 9.162826881224358 17.801877134172933 9.253573391459145 17.801877134172933 C 9.489516991802953 17.801877134172933 9.68877028611562 17.867918348162302 9.851334229301921 18.000000776141047 C 10.048286203115538 17.98593311904892 10.21710095293536 17.929660580870873 10.357781343475702 17.831185071416453 C 10.978782653644581 17.849272877596132 11.498366392758383 17.8583158257812 11.916529696102794 17.8583158257812 C 12.474082358736627 17.8583158257812 12.85133372205558 17.842239049050068 13.048285695869197 17.810083585778262 C 13.39295188876922 17.753811047600216 13.705964898307187 17.704574247777778 13.987324724483102 17.662369366691856 L 14.704792424467398 17.89449143814056 C 14.713104870502352 17.89513122433739 14.721098378343662 17.895450162531034 14.728771038181785 17.895450162531034 C 14.889915037973028 17.895450162531034 14.91005779922074 17.754450833797048 14.789201231734465 17.47245026651953 C 14.170209041204592 17.134818857070343 14.02952865066425 16.28370459509177 14.367161015018208 14.919109390393348 L 14.367161015018208 14.919109390393348 C 14.486100133723532 14.921667580275903 14.601202445057407 14.922946197764796 14.712467949019834 14.922946197764796 C 15.825117259215483 14.922946197764796 16.55409538131412 14.795054846827687 16.899400405506203 14.539274054763013 C 18.306200491290543 14.792496656945131 19.452741281632388 15.03868734039073 20.33902468634128 15.277843240385495 L 20.486738905427682 15.024620638203377 C 20.1209702719847 14.616648078579246 19.84664522925962 14.356389738041521 19.6637618674429 14.243845616590201 L 19.6637618674429 14.243845616590201 L 20.59224824342817 14.433763761857755 C 20.74230770863311 14.490035345131028 20.8462548224276 14.518171614220051 20.90408958481164 14.518171614220051 C 21.01975910957972 14.518171614220051 20.95098304832509 14.405627492768732 20.697759491238198 14.180540204770864 C 20.641486953060152 14.025792157138396 20.23351534834079 13.723330845324293 19.473842767270575 13.273154359519014 L 19.473842767270575 13.273154359519014 L 20.761063948152763 13.526377916605906 C 20.901744338693106 12.62602685480489 19.924019253075855 11.985932223732057 17.827886781491472 11.606096888101721 C 16.73058279097207 11.352873331014829 15.738790048262691 10.86049196412363 14.852506643553802 10.12895660704721 C 13.684862457764227 9.101993766702748 11.91932947689251 8.349355969083367 9.55590579112911 7.871043214189065 C 8.303853752977238 7.786635839279153 7.607488493535902 7.4032831119233995 7.466808580447945 6.72098550957419 C 7.326128667359988 6.038687429772594 7.32964558163302 4.95193465952467 7.477359800719425 3.4607274375566117 C 7.625073542353445 1.969519857499264 7.417570825720734 0.9988280632941434 6.854850695916521 0.5486519952597018 C 6.43281095665265 0.1828839884729759 5.877125132846886 0.0 5.187792747046841 0.0 Z"
     style="fill:#ffffff;stroke:none"
     id="path2" />
  <path
     d="M 27.177865186478382 7.937876256002994 C 26.496671245133623 7.991654064440127 26.120222241250442 8.332250793733436 26.04851793344977 8.959665719745715 C 26.138148499234912 9.640860143848613 26.514597503118093 9.999383372505463 27.177865186478382 10.035235888474404 C 27.84113286983867 9.999383372505463 28.190692728124215 9.640860143848613 28.226544278576878 8.959665719745715 C 28.172766470139745 8.332250793733436 27.8232066118542 7.991654064440127 27.177865186478382 7.937876256002994 ZM 27.25853214051315 5.679180301671352 C 27.742538692303153 5.679180301671352 28.190693210882355 5.768811229525099 28.602994730734476 5.948073085232593 C 29.01529576782846 6.127334940940088 29.378299957533752 6.373819539952137 29.692007299850356 6.687527123647811 C 30.0057151249251 7.001234707343485 30.252199844626684 7.3597576946212655 30.43146145895511 7.763095602723013 C 30.610722590525395 8.16643375220383 30.700352914931468 8.592179844854769 30.700352914931468 9.040334122054901 C 30.700352914931468 9.506413933102294 30.610722590525395 9.941123154745469 30.43146145895511 10.344461786984425 C 30.252199844626684 10.747799936465242 30.0057151249251 11.101841721315509 29.692007299850356 11.406586176018948 C 29.378299957533752 11.711330630722387 29.01529576782846 11.948851980052666 28.602994730734476 12.119151189526065 C 28.190693210882355 12.289449433483185 27.742538692303153 12.374598314082675 27.25853214051315 12.374598314082675 C 26.774526312860356 12.374598314082675 26.32189131599085 12.289449433483185 25.900626908525563 12.119151189526065 C 25.479361776923067 11.948851980052666 25.116357104459635 11.711330630722387 24.8116130118248 11.406586176018948 C 24.506868074363222 11.101841721315509 24.264865160536825 10.747799936465242 24.085604149656074 10.344461786984425 C 23.906342354293347 9.941123154745469 23.8167114264396 9.506413933102294 23.8167114264396 9.040334122054901 C 23.8167114264396 8.592179844854769 23.906342354293347 8.16643375220383 24.085604149656074 7.763095602723013 C 24.264865160536825 7.3597576946212655 24.506868074363222 7.001234707343485 24.8116130118248 6.687527123647811 C 25.116357104459635 6.373819539952137 25.479361776923067 6.127334940940088 25.900626908525563 5.948073085232593 C 26.32189131599085 5.768811229525099 26.774526312860356 5.679180301671352 27.25853214051315 5.679180301671352 ZM 27.204754814834157 4.764946937561035 C 26.61319119789547 4.764946937561035 26.057480338304796 4.876985476688684 25.53762175330399 5.101062554943983 C 25.017763409682257 5.325139663371665 24.569609615240264 5.629884118075104 24.193160490667548 6.015295949226683 C 23.8167114264396 6.400708564860238 23.516448355197976 6.848862238612696 23.292371276942678 7.359757211863126 C 23.068294998255546 7.870652909250765 22.956256866455078 8.421882083655788 22.956256866455078 9.013444493699126 C 22.956256866455078 9.605007145121533 23.068294998255546 10.156236319526556 23.292371276942678 10.667132016914195 C 23.516448355197976 11.178027714301834 23.8167114264396 11.621700306316313 24.193160490667548 11.998149310199494 C 24.569609615240264 12.374598314082675 25.017763409682257 12.67486180773767 25.53762175330399 12.898938825648202 C 26.057480338304796 13.123014878042454 26.61319119789547 13.23505338699772 27.204754814834157 13.23505338699772 C 27.796317466256564 13.23505338699772 28.347546157903448 13.123014878042454 28.85844088977481 12.898938825648202 C 29.369336587162447 12.67486180773767 29.81749062298351 12.374598314082675 30.202903479996134 11.998149310199494 C 30.58831537149248 11.621700306316313 30.89305982619592 11.178027714301834 31.11713636134831 10.667132016914195 C 31.34121434477512 10.156236319526556 31.453252853730387 9.605007145121533 31.453252853730387 9.013444493699126 C 31.453252853730387 8.421882083655788 31.34121434477512 7.870652909250765 31.11713636134831 7.359757211863126 C 30.89305982619592 6.848862238612696 30.58831537149248 6.400708564860238 30.202903479996134 6.015295949226683 C 29.81749062298351 5.629884118075104 29.369336587162447 5.325139663371665 28.85844088977481 5.101062554943983 C 28.347546157903448 4.876985476688684 27.796317466256564 4.764946937561035 27.204754814834157 4.764946937561035 Z"
     style="fill:#ffffff;stroke:none"
     id="path4" />
  <path
     d="M 53.466723209406496 2.88782055141076 Q 53.64895813111451 2.88782055141076 53.64895813111451 3.0700579623404316 Q 53.64895813111451 3.252289987499612 53.466723209406496 3.252289987499612 L 41.80368324165016 3.252289987499612 Q 41.59107334376916 3.252289987499612 41.59107334376916 3.0700579623404316 Q 41.59107334376916 2.88782055141076 41.80368324165016 2.88782055141076 ZM 41.439211542632535 2.25 Q 40.9532527923584 2.25 40.9532527923584 3.0700579623404316 Q 40.9532527923584 3.890115924680863 41.439211542632535 3.890115924680863 L 53.83119305282253 3.890115924680863 Q 54.28678542605303 3.890115924680863 54.28678542605303 3.0700579623404316 Q 54.28678542605303 2.25 53.83119305282253 2.25 Z"
     style="fill:#ffffff;stroke:none"
     id="path6" />
  <path
     d="M 43.58501589298248 8.096126317977905 L 43.58501589298248 15.750000271086662 L 44.22407716298348 15.750000271086662 L 44.22407716298348 8.750049644277876 L 51.00109984185647 8.750049644277876 L 51.00109984185647 15.066353194257346 L 48.3854072607938 15.081216110469256 L 48.37054434458189 10.786128954242578 L 47.70175982189588 10.786128954242578 L 47.70175982189588 15.750000271086662 L 51.655022534536386 15.750000271086662 L 51.655022534536386 8.096126317977905 Z"
     style="fill:#ffffff;stroke:none"
     id="path8" />
  <path
     d="M 60.360556734712794 2.561319991534831 Q 60.56727990631395 2.561319991534831 60.64679034087789 2.768043922671504 Q 60.54501813739395 2.72733516280361 60.472556539620854 2.72733516280361 Q 60.31857551414694 2.72733516280361 60.29694915093736 2.9111604219398473 Q 60.265885450454974 3.237333921022012 60.12103968412924 3.237333921022012 Q 60.11759078526497 3.237333921022012 60.114077651397196 3.2371490283767668 Q 59.9630104645691 3.229198210610926 59.89940531130731 3.101983390276294 Q 59.89940531130731 3.006571927809085 60.13793105953936 2.783945558203186 Q 60.24924337630173 2.561319991534831 60.360556734712794 2.561319991534831 ZM 60.588374334251206 2.845281392955749 Q 60.64679034087789 2.845281392955749 60.64679034087789 2.927062795306029 Q 60.61763737133783 3.2477501476659074 60.401415405190235 3.2477501476659074 Q 60.38175914689919 3.2477501476659074 60.360556734712794 3.2450999329466663 L 60.360556734712794 3.2132965750792435 L 60.42416327683952 3.0701800324088713 Q 60.439072047546645 2.846559192103323 60.55181315911686 2.846559192103323 Q 60.559329001744054 2.846559192103323 60.56727990631395 2.8475530117725314 Q 60.57863839101613 2.845281392955749 60.588374334251206 2.845281392955749 ZM 59.17201750637074 3.0259525832134364 Q 59.028280054267775 3.0259525832134364 58.905537726258785 3.109934208042135 Q 58.754470192214455 3.2132965750792435 58.818077775989885 3.4677255213160363 L 58.881685012549084 3.4677255213160363 Q 58.897587516121355 3.308707343113982 58.97709586738788 3.2053449760768737 Q 59.05660560751935 3.101983390276294 59.239477107059514 3.101983390276294 Q 59.42234860659968 3.101983390276294 59.42234860659968 3.05427761564066 Q 59.42234860659968 3.05427761564066 59.239477107059514 3.0304251623431373 Q 59.20518811496834 3.0259525832134364 59.17201750637074 3.0259525832134364 ZM 59.16791896593042 3.16559080044361 Q 58.97709586738788 3.16559080044361 58.97709586738788 3.4359221634486135 L 58.97709586738788 3.531332931483352 Q 58.99299767652768 3.534513258589689 59.006355432312155 3.534513258589689 Q 59.0597861082338 3.534513258589689 59.07250741665915 3.483627851280189 Q 59.34283956090068 3.420020441112873 59.470054381235315 3.261001568478348 Q 59.35874102282425 3.16559080044361 59.16791896593042 3.16559080044361 ZM 58.881685012549084 3.579038619314927 Q 58.802175272417614 3.690351804117877 58.86578355062552 3.8573223625588304 Q 58.929390787184715 4.0242913585267255 59.660876438129144 4.087898768694041 L 59.77219049097268 4.040192994058407 Q 58.84988104705325 3.976585583891092 58.94529259632452 3.61084197718235 L 58.881685012549084 3.579038619314927 ZM 59.915304689933464 2.8157496539051086 Q 59.70858290719725 2.9588661531734513 59.75628798740041 3.181492435975292 Q 59.788091952896245 3.27690320401003 59.9471086554293 3.340510614177346 Q 60.09022528490373 3.404118111148721 60.058422013840364 3.6744493873496658 Q 60.09022528490373 4.262818495623719 59.56546662493905 4.580855720068415 Q 59.48595584315888 4.390032621525879 59.255379610631785 4.3741309859941975 Q 59.233420267052644 4.372616602384363 59.21268659678377 4.372616602384363 Q 59.015714993148265 4.372616602384363 58.929390787184715 4.5092974053312 Q 58.86224958378363 4.615604252846883 58.77148482938807 4.615604252846883 Q 58.73326812724429 4.615604252846883 58.690862955655255 4.596757355600097 Q 58.66484152934048 4.6032626253747315 58.64207282471708 4.6032626253747315 Q 58.49787149172388 4.6032626253747315 58.484138221581034 4.342327714930834 Q 58.64315718101962 4.326425905791035 58.70676441757882 4.278720999195988 Q 58.770372001354254 4.231015224560355 58.94529259632452 4.167407814393039 Q 58.86785712598215 4.078910555621475 58.78657449975373 4.078910555621475 Q 58.751012960160544 4.078910555621475 58.71471532214872 4.095849499655824 Q 58.59545140638399 4.151506178861357 58.468235891616885 4.183309449924721 Q 58.19790444180782 4.135604369721557 58.261511851975136 3.912978173723776 Q 58.10249376057714 3.7380575787535104 58.15019866717219 3.61084197718235 Q 58.50003985711272 3.38821638881298 58.73061713128852 3.189443340545192 Q 58.96119405824808 2.9906702054733447 59.24742870606188 2.9509153354076103 Q 59.53366231222698 2.9111604219398473 59.915304689933464 2.8157496539051086 ZM 60.85351490134399 2.672633154636766 Q 61.26696298062748 2.704436469102159 61.72811718176285 3.141737565909558 Q 62.189273118979386 3.579038619314927 62.268780081380974 4.040192994058407 Q 61.41008169339933 5.296439561873041 59.835797727531876 6.043827716389736 Q 59.77219049097268 5.375949302004509 60.058422013840364 4.708070540403047 Q 60.58318136823752 4.231015224560355 60.51957482611079 3.9050272691538765 Q 60.455967242335355 3.579038619314927 60.72629938657689 3.4677255213160363 Q 61.33057160605162 3.356412336513087 60.85351490134399 2.672633154636766 ZM 66.68774277447442 5.35849647794206 Q 66.71160139086011 5.35849647794206 66.73720025501665 5.360047840080945 Q 67.4527844440375 5.487262660415576 68.04115485437244 6.0040735407564725 Q 68.62952804243726 6.520883032232428 68.88395698867404 7.284171954240217 Q 68.93166172166097 7.363680999939215 68.53411302100363 7.363680999939215 Q 66.86441958916232 6.663999314490624 66.41916337778818 5.948416167118468 Q 66.22252579617094 5.35849647794206 66.68774277447442 5.35849647794206 ZM 62.44370206521618 4.564953216496145 Q 63.43465997821371 5.515187873347965 64.97026266661467 5.515187873347965 Q 65.23350812749572 5.515187873347965 65.51275956238713 5.487262660415576 Q 65.54138267995228 5.47772150548845 65.56714404130689 5.47772150548845 Q 65.79899351576847 5.47772150548845 65.79899351576847 6.250552971288307 Q 64.2247074666036 6.950232573439486 63.31830573449997 7.013839809998684 Q 63.04974092089562 7.032686360029236 62.773497767466004 7.032686360029236 Q 62.1174201912666 7.032686360029236 61.418032250752994 6.926379165297317 Q 61.26696506392489 6.903417061230911 61.13775756961644 6.903417061230911 Q 60.41691201298355 6.903417061230911 60.37645819663636 7.618109946176008 Q 59.70858290719725 6.823018447537325 59.89940531130731 6.5367844941559925 Q 61.47368754109358 5.837103155923637 62.44370206521618 4.564953216496145 ZM 60.50668720110878 2.25 Q 60.46953992496942 2.25 60.432116264706835 2.251233736763078 Q 59.70858290719725 2.2750862443131377 59.660876438129144 2.5454183126011194 Q 59.37464352639652 2.6567314757030545 59.12816340143221 2.7282897470382403 Q 58.881685012549084 2.799847974971397 58.667009721121204 2.9906702054733447 Q 58.45233408247709 3.181492435975292 58.18995371084604 3.332559796411505 Q 57.92757316560688 3.483627851280189 57.87986739097124 3.594940341650668 Q 57.800359039704716 3.769861544249345 58.022983846837555 3.976585583891092 Q 58.022983846837555 4.151506178861357 58.18200280627614 4.262818495623719 Q 58.213806077339505 4.262818495623719 58.253561121013355 4.533149945432781 Q 58.29331529664662 4.803481221633726 58.54774632618082 4.930696041968358 Q 58.86578355062552 4.882990267332724 58.96119405824808 4.747825410468781 Q 59.04229370152054 4.632934162362071 59.169349149603214 4.632934162362071 Q 59.19177098520765 4.632934162362071 59.21562404613358 4.636512225665831 Q 59.37464352639652 4.660365460199883 59.454151877663044 4.898892770904994 Q 59.390545335536316 5.137420776042575 59.27128107255535 5.741692301084839 Q 59.15201646235815 6.3459645205595745 59.27128107255535 6.63219534899479 Q 59.390545335536316 6.918428955159887 58.84988104705325 7.2762203552378475 Q 58.437510379747586 7.549112524781528 57.71987188587115 7.549112524781528 Q 57.49660611756813 7.549112524781528 57.24379328929808 7.522699091337211 Q 56.692018081288545 7.36942847028052 56.35629934748849 7.36942847028052 Q 55.995401664166344 7.36942847028052 55.88418425679178 7.54655180504691 Q 55.66950949703875 7.8884420904175405 55.92393915940903 8.142871731086803 L 56.54411169065355 8.142871731086803 Q 57.971466853196226 8.194181957460074 58.96165828635455 8.194181957460074 Q 61.347109862550546 8.194181957460074 61.19540553393085 7.896394383852382 Q 61.02301371480157 7.5579963993754165 61.476146873687526 7.5579963993754165 Q 61.58729079057581 7.5579963993754165 61.736067739116514 7.578355076110274 Q 61.96986370779263 7.610348274454293 62.24936444394093 7.610348274454293 Q 62.8728648040887 7.610348274454293 63.72380360364604 7.451140255775642 Q 64.95619138146685 7.220564370464784 65.32988632676579 7.021790714568584 Q 65.56943427959428 6.894372425520124 65.84818711197194 6.894372425520124 Q 66.00428789256176 6.894372425520124 66.1726836000401 6.934330764299687 Q 66.64178870574537 7.045644122710754 66.73720025501665 7.331877728875852 Q 66.5298538302733 7.713833642842722 66.01544395019883 7.713833642842722 Q 65.7802848105833 7.713833642842722 65.48095594410754 7.634012449748278 Q 64.98043749117105 7.500540792855299 64.65933955561303 7.500540792855299 Q 64.36834665651202 7.500540792855299 64.2247074666036 7.610158347173638 Q 63.92257517624483 7.840737010214378 64.19290384832401 8.158772845794132 L 69.36100848513814 8.158772845794132 Q 69.88577443664377 7.681717529951441 69.58363936855511 7.0535946800644185 Q 69.28150152273656 6.425472177393631 68.56592080587805 5.860956216849571 Q 67.85033314469484 5.296439561873041 66.9916347567132 4.835285360737679 Q 67.21601213779323 4.638953329407421 67.42493214651451 4.638953329407421 Q 67.68981091256595 4.638953329407421 67.92984288482631 4.95454858206994 Q 68.18177604076448 5.285794606534205 68.35705912948428 5.285794606534205 Q 68.48049588996368 5.285794606534205 68.56592080587805 5.121518966902776 Q 67.99915280083248 4.107310413147385 67.38342869548829 4.107310413147385 Q 67.34268217585482 4.107310413147385 67.301721076588 4.111752003228093 Q 66.64178870574537 4.183309449924721 66.10112719499219 4.851186996269361 Q 65.44642528951665 5.016112451084972 64.88125378472054 5.016112451084972 Q 63.64815421361755 5.016112451084972 62.84124868257611 4.231015224560355 Q 62.39599663779678 3.101983390276294 61.77582260918224 2.6646822934688954 Q 61.18772719410559 2.25 60.50668720110878 2.25 Z"
     style="fill:#ffffff;stroke:none"
     id="path10" />
  <path
     d="M 64.52681063676519 10.138725436469608 Q 64.69035642787023 10.138725436469608 64.86585340179093 10.213088520552759 Q 65.2589678039085 10.379662861867317 65.2589678039085 12.858279845509061 L 65.2589678039085 15.230290334024144 L 60.80811763981466 15.230290334024144 Q 62.527158484651636 12.8716066990486 63.16680144839832 11.66561204252234 Q 63.80644423853689 10.459618340840725 64.13959161910512 10.253066954471933 Q 64.32401309191923 10.138725436469608 64.52681063676519 10.138725436469608 ZM 64.33776841029301 9.632650680227698 Q 64.30235895141084 9.632650680227698 64.26618804732486 9.633412187737145 Q 63.633208683956056 9.646738340062646 62.840316800167386 11.179216609952704 Q 62.04742647885177 12.711694873061194 59.702067440510234 15.749999775496509 L 65.77867724538086 15.749999775496509 L 65.7653510862738 12.33857005682046 Q 65.6987216796034 10.059841032777738 65.29894558679723 9.839963530703908 Q 64.92201319732126 9.632650680227698 64.33776841029301 9.632650680227698 Z"
     style="fill:#ffffff;stroke:none"
     id="path12" />
  <path
     d="M 40.9532527923584 0.375 C 31.328252851963043 0.375 31.328252851963043 17.625 40.9532527923584 17.625 "
     style="fill:none;stroke:#ffffff;stroke-width:1"
     id="path14" />
  <path
     d="M 40.9532527923584 0.375 L 69.69395923614502 0.375 "
     style="fill:none;stroke:#ffffff;stroke-width:1"
     id="path16" />
  <path
     d="M 40.9532527923584 17.625 L 69.69395923614502 17.625 "
     style="fill:none;stroke:#ffffff;stroke-width:1"
     id="path18" />
  <path
     d="M 77.38145923614502 0.375 L 77.38145923614502 17.625 "
     style="fill:none;stroke:#ffffff;stroke-width:1"
     id="path20" />
  <path
     d="M 69.69395923614502 0.375 C 79.3189582824707 0.375 79.3189582824707 17.625 69.69395923614502 17.625 "
     style="fill:none;stroke:#ffffff;stroke-width:1"
     id="path22" />
</svg>
