<?xml version="1.0" encoding="UTF-8" standalone="no"?>
<svg
   width="94.75007629394531"
   height="18.0"
   version="1.1"
   id="svg34"
   sodipodi:docname="takelotmeriamun.svg"
   inkscape:version="1.1.1 (3bf5ae0d25, 2021-09-20)"
   xmlns:inkscape="http://www.inkscape.org/namespaces/inkscape"
   xmlns:sodipodi="http://sodipodi.sourceforge.net/DTD/sodipodi-0.dtd"
   xmlns="http://www.w3.org/2000/svg"
   xmlns:svg="http://www.w3.org/2000/svg">
  <defs
     id="defs38" />
  <sodipodi:namedview
     id="namedview36"
     pagecolor="#ffffff"
     bordercolor="#666666"
     borderopacity="1.0"
     inkscape:pageshadow="2"
     inkscape:pageopacity="0.0"
     inkscape:pagecheckerboard="0"
     showgrid="false"
     inkscape:zoom="14.511862"
     inkscape:cx="47.375038"
     inkscape:cy="8.9926436"
     inkscape:window-width="1920"
     inkscape:window-height="1001"
     inkscape:window-x="-9"
     inkscape:window-y="-9"
     inkscape:window-maximized="1"
     inkscape:current-layer="svg34" />
  <path
     d="M 9.619241759901131 8.704017150225534 C 9.956114020057063 8.704017150225534 10.371109904274771 8.76399089929749 10.864229412554256 8.883939352346172 C 11.905261819800385 9.137163864337834 12.8056128816014 9.495897714329981 13.565284507766846 9.960140902322616 C 14.32495613393229 10.42438504522002 15.176070395910864 11.008207138114807 16.1186263387978 11.711606226102205 C 15.211383729261659 12.170969850713034 14.168207560803758 12.400651185566062 12.989095923614554 12.400651185566062 C 12.723796640788658 12.400651185566062 12.45161535927535 12.38902331016484 12.172553033979401 12.365768514267165 C 10.653210736553286 12.239155780818948 9.3484030744964 11.792497164191472 8.258132912523058 11.025791709479964 C 7.167863705454489 10.259086254768457 6.897054622097669 9.78780828332499 7.445706139904986 9.61195779514956 C 7.994358612617073 9.436108261878905 8.441018184149321 9.207503104703234 8.78568342214457 8.92614327852732 C 8.967086681565636 8.778059511294387 9.244939142516232 8.704017150225534 9.619241759901131 8.704017150225534 ZM 16.87829701005847 11.880422885731571 L 17.743478929129175 12.070340076094354 C 17.743478929129175 12.295428318996994 17.539492171864723 12.478311680813713 17.131522476954906 12.618992071354056 C 16.899402315315747 12.634818663035082 16.657389340244983 12.642731958875595 16.405485461552153 12.642731958875595 C 15.985642480714866 12.642731958875595 15.538322115080815 12.620750051038186 15.063526274459544 12.576788145172907 C 15.977946903162229 12.464244023721587 16.582870481695206 12.232122907177656 16.87829701005847 11.880422885731571 ZM 18.207723072026578 12.196952809542571 L 18.73527358164809 12.302462147543055 C 18.791544210016596 12.471278807172421 18.594593191107748 12.640094511897015 18.144416705302472 12.808910216621609 L 17.532460253128203 12.76670629044046 C 17.968567172031815 12.569755271531616 18.193655414934454 12.379837126264063 18.207723072026578 12.196952809542571 ZM 19.009598624373172 12.407972440448313 L 19.36833342927009 12.49238029281061 C 19.283925576907794 12.731536192805375 19.030702019820904 12.851114142802757 18.608660848199875 12.851114142802757 C 18.847816748194642 12.696366095170289 18.98146331018892 12.548652830988656 19.009598624373172 12.407972440448313 ZM 19.600455500718795 12.618992071354056 C 19.938086910167982 12.71746853571325 20.163175153070622 12.87925041189178 20.27571831961717 13.10433865479442 L 19.326128548184172 12.893318068983906 C 19.509013819810434 12.808910216621609 19.600455500718795 12.71746853571325 19.600455500718795 12.618992071354056 ZM 17.405847519679988 13.864010280959864 C 18.46094662911347 13.99062205950331 19.255788352914 14.28604954277135 19.790372691081576 14.750293685668755 L 17.173725448231284 14.138336278589716 C 17.20186267222508 13.983587276052475 17.279236696041313 13.892145595144116 17.405847519679988 13.864010280959864 ZM 5.187792747046841 0.40093762696942586 C 5.848988863757863 0.40093762696942586 6.3484031042903535 0.5838216154424017 6.686035468644312 0.9495895923883535 C 7.0236668780935005 1.3153575693343054 7.129177170998758 2.198124417859453 7.0025653924553115 3.5978901976453446 C 6.875952659007095 4.997655977431236 6.8337487328259465 5.947245271411848 6.875953136459481 6.446659034491953 C 6.918156585188243 6.946073275024443 7.048285755457107 7.315357867835686 7.266340169813683 7.554513290378066 C 7.4843936292654885 7.793669667825216 7.748168406623859 8.029308176094565 8.05766402443641 8.261430247543267 C 8.367160119701346 8.49355231899197 8.212412072068878 8.70105503562468 7.5934203589913905 8.883939352346172 C 6.974429123366289 9.06682271416289 6.629762930466267 9.33763179751971 6.559423212648482 9.69636660241663 C 6.48908301737831 10.055099497504006 6.577008261466024 10.385698033311902 6.823197990006852 10.688160300030777 C 7.069388196000066 10.99062256674965 7.656726725715499 11.398594171469009 8.585214534057924 11.912075114188854 C 9.513701864947961 12.42555701181347 10.333162943564483 12.752637678443564 11.043595860097945 12.893318068983906 C 11.754030686440949 13.033998459524248 13.931053141209826 13.10433865479442 17.57466322440458 13.10433865479442 C 18.700104438917776 13.315358285700162 19.445707453086325 13.596718111876076 19.811474176719763 13.94841813332216 L 17.405847519679988 13.399766138062459 C 17.18076118658689 13.47010633333263 17.00490974350669 13.60375194042214 16.87829701005847 13.800703914235756 C 16.87829701005847 14.166472547678739 16.083455286257944 14.37749217858448 14.493772793561655 14.433763761857755 C 14.254616893566888 14.433763761857755 14.092834062483586 14.103166180954629 14.008427165026061 13.441970064243609 L 13.755202653034399 13.652989695149351 C 13.881814431577844 14.187574033316928 13.91698452921293 14.658852004760394 13.860712945939655 15.066823609479753 C 13.663760972126038 14.588511809490223 13.319094779226017 14.271981885679224 12.826715322144361 14.117233838046756 C 12.038906471985122 13.976553447506413 11.335507383997724 13.846424754689936 10.71651519346785 13.726846804692553 C 10.097523002937978 13.607269809599941 9.471497938766813 13.350529338240019 8.838438091144814 12.956624435708015 C 8.275718438792987 12.520516561899633 7.371849507814169 12.049238590456165 6.126831775660745 11.542790521377611 C 4.881814043507322 11.03634340720383 4.259305416156803 10.283705609584448 4.259305416156803 9.284877128519467 C 4.259305416156803 8.286049602359258 4.593420388785345 7.459554695196674 5.261649856590044 6.805393361936487 C 5.929879801847128 6.151231551223914 6.2639942970232845 5.366941047694864 6.2639942970232845 4.452521373896952 C 6.2639942970232845 4.002345365544058 6.207722713750011 3.5767882345547704 6.095179069751077 3.175850219655281 C 5.993352799453844 2.8130966980279646 5.689997219321334 2.6317199372143065 5.185112329353548 2.6317199372143065 C 5.131966626849421 2.6317199372143065 5.076588356989783 2.6337295343056977 5.0189770423222475 2.6377489672146734 L 3.2464102329044677 2.869871038663376 C 3.3026820549039346 2.6869874381204633 3.387089668540039 2.5181714946696765 3.4996335512651657 2.363423447037208 C 3.6403134643531225 1.9273154538657298 3.795061511985591 1.6740914193264531 3.9638776941625706 1.6037515821455712 C 3.9884963327999836 1.6899181303705768 4.083125485835245 1.733001523846176 4.247764437089777 1.733001523846176 C 4.271284696513898 1.733001523846176 4.296233016023633 1.732122295277918 4.32261082797614 1.7303637187783059 C 4.603971609056825 1.7162955842337946 4.765753485235356 1.5756155517827413 4.8079574114165045 1.308323860151339 C 4.7798216197798675 1.0410321685199366 4.6180397436013365 0.9003521360688832 4.32261082797614 0.8862840612059201 C 4.069387270889249 0.9003521360688832 3.9287073578012923 1.0410321685199366 3.9005710887122693 1.308323860151339 C 3.6754838007144013 1.5193437297832741 3.4996337899913588 1.765533697050295 3.373021295269335 2.046893523226209 C 3.3320964640294637 2.0673559388461444 3.2921017100369276 2.0775870272930157 3.2530370332917253 2.0775870272930157 C 3.1846734908983327 2.0775870272930157 3.119158190711805 2.046253737029377 3.0564913714583355 1.9835869177759076 C 3.225307553635315 1.6459552696005268 3.471497998354722 1.2977725205167625 3.7950622281641695 0.9390390286139039 C 4.118625980521232 0.5803047608509185 4.582869168513866 0.40093762696942586 5.187792747046841 0.40093762696942586 ZM 9.977946007845366 14.159437764227905 L 10.653208826743741 14.328253468952498 L 9.89353815548307 15.425557459471902 L 9.977946007845366 14.159437764227905 ZM 11.286269629270512 14.391559835676606 C 11.84898928162234 14.391559835676606 12.32378416733884 14.451348333222912 12.71065428642001 14.570927238125066 C 13.09752440550118 14.690504233217677 13.336679350591174 15.144197633295988 13.428121986404305 15.932005528550455 C 13.517959427296729 16.705992132143816 13.400721948894024 17.092986388845265 13.07640859629142 17.092986388845265 C 13.070618053757709 17.092986388845265 13.064760667889999 17.092862251224986 13.058837393593063 17.09261588579397 L 11.03304511727885 17.09261588579397 C 10.988356528882543 17.089306185856326 10.942987093384234 17.087650380982737 10.896935855879153 17.087650380982737 C 10.551564943257846 17.087650380982737 10.167861288398607 17.180747866764687 9.745823936396663 17.366940928519046 C 9.858368057847983 16.382182014355735 10.3718499554726 15.390387361836815 11.286269629270512 14.391559835676606 ZM 5.187792747046841 0.0 C 4.231169147067781 0.0 3.443361967991892 0.5345838607151904 2.8243702549144043 1.6037515821455712 C 2.613350385282469 1.9554513648654634 1.9873244855696295 2.3071511475853557 0.946292317049693 2.6588511690314407 C 0.22882448278191372 2.869871038663376 -0.08067132899566878 3.165298999383801 0.017804894772284054 3.545135051192716 L 0.03890708726380924 3.798358369553414 C 1.3753664816751086 3.6717465910099687 2.493771957832701 3.5099647148314377 3.3941234970861016 3.3130129797440135 L 5.040079482865207 3.0175852577497815 C 5.048381902400062 3.0173546482474904 5.056615568791377 3.017239343496345 5.064780004586766 3.017239343496345 C 5.5546451974053515 3.017239343496345 5.796118651280282 3.432360558965298 5.789199888759171 4.2626027511770115 C 5.782166060213108 5.106682229704753 5.4269491244939925 5.862836941597166 4.723549559054208 6.5310668868542505 C 4.020149993614424 7.199296832111335 3.661415904896083 8.166471652361876 3.6473477703515713 9.432591347605873 C 3.6473477703515713 10.459556097759878 4.136210551886389 11.19460836910933 5.11393659240841 11.637750071463774 C 6.09166167802566 12.08089177381822 7.037734535185626 12.555685704629948 7.952154686435924 13.062133773708501 C 8.866573405329065 13.568581842787054 9.387089131499744 13.962486745319058 9.513701864947961 14.243845616590201 C 9.44336166967779 15.735053554736838 9.26047830786107 16.698711938166735 8.96504986968826 17.134818857070343 C 8.472670412606604 17.134818857070343 7.614522322081965 17.064478661800173 6.390606553019116 16.92379827125983 C 6.01077121738878 16.980070809437876 5.75051335430344 17.10316567370829 5.609832486310712 17.293084773880615 C 5.469153528127526 17.48300387405294 5.497289319764163 17.69050468087611 5.69424129357778 17.91559292377875 C 5.7882960713930505 17.77973671214347 5.878469161312617 17.711806696516287 5.9647610407888685 17.711806696516287 C 5.99463093949035 17.711806696516287 6.024035799568166 17.719946304787623 6.052975621022314 17.73622552133029 C 6.165519265021248 17.799531888054396 6.446879091197162 17.831185071416453 6.897054144645284 17.831185071416453 L 8.96504986968826 17.831185071416453 C 9.066651737364214 17.811645809984256 9.162826881224358 17.801877134172933 9.253573391459145 17.801877134172933 C 9.489516991802953 17.801877134172933 9.68877028611562 17.867918348162302 9.851334229301921 18.000000776141047 C 10.048286203115538 17.98593311904892 10.21710095293536 17.929660580870873 10.357781343475702 17.831185071416453 C 10.978782653644581 17.849272877596132 11.498366392758383 17.8583158257812 11.916529696102794 17.8583158257812 C 12.474082358736627 17.8583158257812 12.85133372205558 17.842239049050068 13.048285695869197 17.810083585778262 C 13.39295188876922 17.753811047600216 13.705964898307187 17.704574247777778 13.987324724483102 17.662369366691856 L 14.704792424467398 17.89449143814056 C 14.713104870502352 17.89513122433739 14.721098378343662 17.895450162531034 14.728771038181785 17.895450162531034 C 14.889915037973028 17.895450162531034 14.91005779922074 17.754450833797048 14.789201231734465 17.47245026651953 C 14.170209041204592 17.134818857070343 14.02952865066425 16.28370459509177 14.367161015018208 14.919109390393348 L 14.367161015018208 14.919109390393348 C 14.486100133723532 14.921667580275903 14.601202445057407 14.922946197764796 14.712467949019834 14.922946197764796 C 15.825117259215483 14.922946197764796 16.55409538131412 14.795054846827687 16.899400405506203 14.539274054763013 C 18.306200491290543 14.792496656945131 19.452741281632388 15.03868734039073 20.33902468634128 15.277843240385495 L 20.486738905427682 15.024620638203377 C 20.1209702719847 14.616648078579246 19.84664522925962 14.356389738041521 19.6637618674429 14.243845616590201 L 19.6637618674429 14.243845616590201 L 20.59224824342817 14.433763761857755 C 20.74230770863311 14.490035345131028 20.8462548224276 14.518171614220051 20.90408958481164 14.518171614220051 C 21.01975910957972 14.518171614220051 20.95098304832509 14.405627492768732 20.697759491238198 14.180540204770864 C 20.641486953060152 14.025792157138396 20.23351534834079 13.723330845324293 19.473842767270575 13.273154359519014 L 19.473842767270575 13.273154359519014 L 20.761063948152763 13.526377916605906 C 20.901744338693106 12.62602685480489 19.924019253075855 11.985932223732057 17.827886781491472 11.606096888101721 C 16.73058279097207 11.352873331014829 15.738790048262691 10.86049196412363 14.852506643553802 10.12895660704721 C 13.684862457764227 9.101993766702748 11.91932947689251 8.349355969083367 9.55590579112911 7.871043214189065 C 8.303853752977238 7.786635839279153 7.607488493535902 7.4032831119233995 7.466808580447945 6.72098550957419 C 7.326128667359988 6.038687429772594 7.32964558163302 4.95193465952467 7.477359800719425 3.4607274375566117 C 7.625073542353445 1.969519857499264 7.417570825720734 0.9988280632941434 6.854850695916521 0.5486519952597018 C 6.43281095665265 0.1828839884729759 5.877125132846886 0.0 5.187792747046841 0.0 Z"
     style="fill:#ffffff;stroke:none"
     id="path2" />
  <path
     d="M 27.177865186478382 7.937876256002994 C 26.496671245133623 7.991654064440127 26.120222241250442 8.332250793733436 26.04851793344977 8.959665719745715 C 26.138148499234912 9.640860143848613 26.514597503118093 9.999383372505463 27.177865186478382 10.035235888474404 C 27.84113286983867 9.999383372505463 28.190692728124215 9.640860143848613 28.226544278576878 8.959665719745715 C 28.172766470139745 8.332250793733436 27.8232066118542 7.991654064440127 27.177865186478382 7.937876256002994 ZM 27.25853214051315 5.679180301671352 C 27.742538692303153 5.679180301671352 28.190693210882355 5.768811229525099 28.602994730734476 5.948073085232593 C 29.01529576782846 6.127334940940088 29.378299957533752 6.373819539952137 29.692007299850356 6.687527123647811 C 30.0057151249251 7.001234707343485 30.252199844626684 7.3597576946212655 30.43146145895511 7.763095602723013 C 30.610722590525395 8.16643375220383 30.700352914931468 8.592179844854769 30.700352914931468 9.040334122054901 C 30.700352914931468 9.506413933102294 30.610722590525395 9.941123154745469 30.43146145895511 10.344461786984425 C 30.252199844626684 10.747799936465242 30.0057151249251 11.101841721315509 29.692007299850356 11.406586176018948 C 29.378299957533752 11.711330630722387 29.01529576782846 11.948851980052666 28.602994730734476 12.119151189526065 C 28.190693210882355 12.289449433483185 27.742538692303153 12.374598314082675 27.25853214051315 12.374598314082675 C 26.774526312860356 12.374598314082675 26.32189131599085 12.289449433483185 25.900626908525563 12.119151189526065 C 25.479361776923067 11.948851980052666 25.116357104459635 11.711330630722387 24.8116130118248 11.406586176018948 C 24.506868074363222 11.101841721315509 24.264865160536825 10.747799936465242 24.085604149656074 10.344461786984425 C 23.906342354293347 9.941123154745469 23.8167114264396 9.506413933102294 23.8167114264396 9.040334122054901 C 23.8167114264396 8.592179844854769 23.906342354293347 8.16643375220383 24.085604149656074 7.763095602723013 C 24.264865160536825 7.3597576946212655 24.506868074363222 7.001234707343485 24.8116130118248 6.687527123647811 C 25.116357104459635 6.373819539952137 25.479361776923067 6.127334940940088 25.900626908525563 5.948073085232593 C 26.32189131599085 5.768811229525099 26.774526312860356 5.679180301671352 27.25853214051315 5.679180301671352 ZM 27.204754814834157 4.764946937561035 C 26.61319119789547 4.764946937561035 26.057480338304796 4.876985476688684 25.53762175330399 5.101062554943983 C 25.017763409682257 5.325139663371665 24.569609615240264 5.629884118075104 24.193160490667548 6.015295949226683 C 23.8167114264396 6.400708564860238 23.516448355197976 6.848862238612696 23.292371276942678 7.359757211863126 C 23.068294998255546 7.870652909250765 22.956256866455078 8.421882083655788 22.956256866455078 9.013444493699126 C 22.956256866455078 9.605007145121533 23.068294998255546 10.156236319526556 23.292371276942678 10.667132016914195 C 23.516448355197976 11.178027714301834 23.8167114264396 11.621700306316313 24.193160490667548 11.998149310199494 C 24.569609615240264 12.374598314082675 25.017763409682257 12.67486180773767 25.53762175330399 12.898938825648202 C 26.057480338304796 13.123014878042454 26.61319119789547 13.23505338699772 27.204754814834157 13.23505338699772 C 27.796317466256564 13.23505338699772 28.347546157903448 13.123014878042454 28.85844088977481 12.898938825648202 C 29.369336587162447 12.67486180773767 29.81749062298351 12.374598314082675 30.202903479996134 11.998149310199494 C 30.58831537149248 11.621700306316313 30.89305982619592 11.178027714301834 31.11713636134831 10.667132016914195 C 31.34121434477512 10.156236319526556 31.453252853730387 9.605007145121533 31.453252853730387 9.013444493699126 C 31.453252853730387 8.421882083655788 31.34121434477512 7.870652909250765 31.11713636134831 7.359757211863126 C 30.89305982619592 6.848862238612696 30.58831537149248 6.400708564860238 30.202903479996134 6.015295949226683 C 29.81749062298351 5.629884118075104 29.369336587162447 5.325139663371665 28.85844088977481 5.101062554943983 C 28.347546157903448 4.876985476688684 27.796317466256564 4.764946937561035 27.204754814834157 4.764946937561035 Z"
     style="fill:#ffffff;stroke:none"
     id="path4" />
  <path
     d="M 42.791217630075664 2.9892379897054955 C 43.068835731278675 2.9892379897054955 43.408691041004865 3.095985977015074 43.50778172773154 3.340333519869274 L 43.47130011263709 11.279334014803599 L 43.47130011263709 11.279334014803599 C 43.33048932130826 10.960512872387417 42.91219094789365 10.367342335933275 41.66974612501964 9.632436990092634 L 42.61300693482894 3.06154244747758 C 42.65725846576657 3.0145252182361735 42.656098295835605 2.9892379897054955 42.791217630075664 2.9892379897054955 ZM 43.47130011263709 11.279334014803599 L 43.47130011263709 11.279334014803599 C 43.47130011263709 11.279334014803599 43.47130029167566 11.279334014803599 43.47130029167566 11.279334014803599 L 43.47130011263709 11.279334014803599 L 43.47130011263709 11.279334014803599 ZM 42.65921016521369 2.25 C 42.446704811000096 2.25 42.254900701876345 2.280338063237631 42.11910334857324 2.317373030601139 L 40.9532527923584 10.098160711168036 C 41.56997155571676 10.520569989179059 43.264807589744684 11.67797341616124 43.19722267818634 12.683307927520042 L 43.2098602946596 15.75000086141948 L 44.07063691646657 15.73816856043225 L 44.065809678553215 3.119482909369111 C 43.80984432291815 2.427915471835376 43.173828603490534 2.25 42.65921016521369 2.25 Z"
     style="fill:#ffffff;stroke:none"
     id="path6" />
  <path
     d="M 59.15687039899707 4.056679974908366 L 59.15687039899707 5.839270883484621 L 46.028329247996275 5.839270883484621 L 46.028329247996275 4.056679974908366 ZM 46.0765073806605 2.25 L 46.0765073806605 3.5989877145982474 L 45.57063698768616 3.5989877145982474 L 45.57063698768616 6.296963143794741 L 59.6145626593072 6.296963143794741 L 59.6145626593072 3.5989877145982474 L 59.2050485316613 3.5989877145982474 L 59.2050485316613 2.25 L 58.74735627135118 2.25 L 58.74735627135118 3.5989877145982474 L 57.615170153741936 3.5989877145982474 L 57.615170153741936 2.25 L 57.15747789343182 2.25 L 57.15747789343182 3.5989877145982474 L 56.02529177582257 3.5989877145982474 L 56.02529177582257 2.25 L 55.567599515512455 2.25 L 55.567599515512455 3.5989877145982474 L 54.45950246423532 3.5989877145982474 L 54.45950246423532 2.25 L 53.97772113759309 2.25 L 53.97772113759309 3.5989877145982474 L 52.86962408631596 3.5989877145982474 L 52.86962408631596 2.25 L 52.41193182600584 2.25 L 52.41193182600584 3.5989877145982474 L 51.2797457083966 3.5989877145982474 L 51.2797457083966 2.25 L 50.82205344808648 2.25 L 50.82205344808648 3.5989877145982474 L 49.689867330477234 3.5989877145982474 L 49.689867330477234 2.25 L 49.232175070167116 2.25 L 49.232175070167116 3.5989877145982474 L 48.12407801888998 3.5989877145982474 L 48.12407801888998 2.25 L 47.666385758579864 2.25 L 47.666385758579864 3.5989877145982474 L 46.53419964097062 3.5989877145982474 L 46.53419964097062 2.25 Z"
     style="fill:#ffffff;stroke:none"
     id="path8" />
  <path
     d="M 46.9196247022844 7.736277055008216 L 46.630555906299065 8.362592779643116 L 45.71517138567883 10.4101634178726 L 45.57063698768616 10.699232213857938 L 46.17286364598895 10.988301009843276 L 46.31739804398161 10.675143147525826 L 46.94371376861652 9.253888233931244 L 47.256871630933965 9.80793675956981 L 47.5459404269193 10.386074351540486 L 47.835009222904645 9.80793675956981 L 48.17225615155421 9.205710101267021 L 48.485414013871655 9.80793675956981 L 48.77448280985699 10.386074351540486 L 49.063551605842335 9.80793675956981 L 49.37670946815978 9.205710101267021 L 49.713956396809344 9.80793675956981 L 50.00302519279468 10.386074351540486 L 50.292093988780024 9.80793675956981 L 50.60525185109747 9.229799167599133 L 50.918409713414924 9.80793675956981 L 51.23156757573237 10.386074351540486 L 51.520636371717714 9.80793675956981 L 51.83379423403516 9.205710101267021 L 52.146952096352614 9.80793675956981 L 52.46010995867006 10.386074351540486 L 52.749178754655404 9.80793675956981 L 53.06233661697285 9.205710101267021 L 53.3754944792903 9.80793675956981 L 53.68865234160775 10.386074351540486 L 53.97772113759309 9.80793675956981 L 54.29087899991054 9.205710101267021 L 54.60403686222799 9.80793675956981 L 54.89310565821333 10.386074351540486 L 55.20626352053078 9.80793675956981 L 55.51942138284823 9.205710101267021 L 55.83257924516568 9.80793675956981 L 56.12164804115102 10.386074351540486 L 56.43480590346847 9.80793675956981 L 56.74796376578592 9.205710101267021 L 57.08521069443548 9.83202582590192 L 57.37427949042082 10.361985285208377 L 57.68743735273827 9.83202582590192 L 58.024684281387835 9.18162103493491 L 58.867801603011735 10.699232213857938 L 59.036425067336516 10.988301009843276 L 59.6145626593072 10.675143147525826 L 59.470028261314525 10.386074351540486 L 58.31375307737317 8.314414646978893 L 58.024684281387835 7.808544254004551 L 57.73561548540249 8.338503713311004 L 57.37427949042082 8.964819437945906 L 57.037032561771255 8.338503713311004 L 56.72387469945381 7.784455187672439 L 56.45889496980058 8.338503713311004 L 56.12164804115102 8.940730371613794 L 55.808490178833566 8.338503713311004 L 55.51942138284823 7.760366121340327 L 55.23035258686289 8.338503713311004 L 54.91719472454544 8.940730371613794 L 54.579947795895876 8.338503713311004 L 54.29087899991054 7.760366121340327 L 54.0018102039252 8.338503713311004 L 53.66456327527564 8.940730371613794 L 53.35140541295819 8.338503713311004 L 53.06233661697285 7.760366121340327 L 52.77326782098751 8.338503713311004 L 52.46010995867006 8.940730371613794 L 52.1228630300205 8.338503713311004 L 51.83379423403516 7.760366121340327 L 51.544725438049824 8.338503713311004 L 51.23156757573237 8.916641305281683 L 50.918409713414924 8.338503713311004 L 50.60525185109747 7.760366121340327 L 50.316183055112134 8.338503713311004 L 50.00302519279468 8.940730371613794 L 49.689867330477234 8.338503713311004 L 49.37670946815978 7.760366121340327 L 49.087640672174444 8.338503713311004 L 48.77448280985699 8.940730371613794 L 48.461324947539545 8.338503713311004 L 48.17225615155421 7.760366121340327 L 47.859098289236755 8.338503713311004 L 47.5459404269193 8.940730371613794 L 47.232782564601855 8.338503713311004 L 46.9196247022844 7.736277055008216 Z"
     style="fill:#ffffff;stroke:none"
     id="path10" />
  <path
     d="M 57.36750942077049 13.021470375459153 Q 57.078603087174926 13.310375015381036 57.078603087174926 14.080782003492336 Q 57.078603087174926 14.867237722175602 57.36750942077049 15.156141623829475 L 47.83370898094224 15.156141623829475 Q 48.122612187755635 14.867237722175602 48.122612187755635 14.080782003492336 Q 48.122612187755635 13.310375015381036 47.83370898094224 13.021470375459153 ZM 45.98794159079826 12.42761457984745 Q 45.57063698768616 12.42761457984745 45.586687163580606 12.700466841284847 Q 45.57063698768616 13.021470375459153 45.98794159079826 13.021470375459153 L 47.03120157861497 13.021470375459153 Q 47.41640950227868 13.310375015381036 47.41640950227868 14.080782003492336 Q 47.41640950227868 14.867237722175602 47.03120157861497 15.156141623829475 L 46.003992492746725 15.156141623829475 Q 45.57063698768616 15.156141623829475 45.57063698768616 15.428995405230422 Q 45.57063698768616 15.749998852549668 45.98794159079826 15.749998852549668 L 59.213278113740365 15.749998852549668 Q 59.61456238788513 15.749998852549668 59.61456238788513 15.428995405230422 Q 59.61456238788513 15.156141623829475 59.197225908966 15.156141623829475 L 58.170018212778714 15.156141623829475 Q 57.78481115766561 14.867237722175602 57.78481115766561 14.080782003492336 Q 57.78481115766561 13.310375015381036 58.170018212778714 13.021470375459153 L 59.213278113740365 13.021470375459153 Q 59.61456238788513 13.021470375459153 59.61456238788513 12.700466841284847 Q 59.61456238788513 12.42761457984745 59.213278113740365 12.42761457984745 Z"
     style="fill:#ffffff;stroke:none"
     id="path12" />
  <path
     d="M 63.7604073226637 4.8766974133516205 Q 63.95893692613491 4.8766974133516205 63.98948001091455 5.1210404802415805 L 64.32545304829769 8.160068195329014 Q 64.58506900036674 10.252262788787709 64.63088317993977 12.161199947800007 Q 64.63088317993977 13.47454811736011 64.40944684475919 14.245758188188443 Q 64.18800979342433 15.016969691325334 63.714593143090674 15.016969691325334 Q 63.241176671795586 15.016969691325334 63.06555451618804 14.245758188188443 Q 62.889932539619046 13.47454811736011 62.905203634412445 12.161199947800007 Q 62.935746719192075 10.252262788787709 63.19536249222256 8.160068195329014 L 63.531335529605705 5.1210404802415805 Q 63.56187861438534 4.8766974133516205 63.7604073226637 4.8766974133516205 ZM 61.454411896661476 2.25 Q 60.81300964520892 2.570701136916189 61.378054587549165 2.921946074766293 Q 63.241176671795586 4.006221735114119 63.01210469969902 5.227941545528161 L 62.6608598513682 8.160068195329014 Q 62.41651597880468 10.252262788787709 62.30961562967238 12.161199947800007 Q 62.30961562967238 14.024321853007859 62.6608598513682 14.88716099913653 Q 63.01210469969902 15.75000086141948 63.7604073226637 15.75000086141948 Q 64.50871155697551 15.75000086141948 64.85995586819062 14.88716099913653 Q 65.21119982132859 14.024321853007859 65.21119982132859 12.161199947800007 Q 65.10429947219629 10.252262788787709 64.85995586819062 8.160068195329014 L 64.5392537465623 5.350112989453857 Q 64.05056618047382 2.8455880047400637 61.454411896661476 2.25 Z"
     style="fill:#ffffff;stroke:none"
     id="path14" />
  <path
     d="M 80.12349427663159 3.0328736888063763 C 80.36110962924208 3.3696489008214456 80.41861816192188 3.7859318548868375 80.43884558440391 4.186633787684774 C 80.42989777392015 4.376104128615108 80.4442565107052 4.581085727898733 80.36569582410607 4.758865524596684 C 80.1437427235535 4.53792733109675 80.1634149096913 4.027528471886439 80.15847894460012 3.741619025203899 C 80.15847894460012 3.459941224876382 80.14896251858312 3.2291024315033594 80.12349427663159 3.0328736888063763 ZM 67.46002306413295 2.71532054878429 L 79.01670659908157 2.7277975981996416 C 77.32840202744137 4.328041303381784 75.63536600117071 5.110180092448546 73.08399192609575 5.110180092448546 C 70.52194651429465 5.110179136792187 68.97167169095269 4.347298734660027 67.46002306413295 2.71532054878429 ZM 66.9413425914456 2.25 C 66.8506499519014 2.25 66.76817703961898 2.3026509314100325 66.73023799734875 2.3850457113191 C 66.69226112467148 2.467521722018632 66.70586623201304 2.5646852152905093 66.76497801728954 2.6336081075151245 C 68.44381394573065 4.593019008846152 70.22566198435709 5.57476669714958 73.08399192609575 5.57476669714958 C 75.86620957282553 5.57476669714958 77.7665733347397 4.631675308543684 79.59945820118682 2.809754687496559 C 79.66262135253932 2.9843320797374906 79.6938923398991 3.2591540013498017 79.6938923398991 3.741619025203899 C 79.7053181673202 4.278186622476448 79.70120406669726 5.1675089617329775 80.4053288046019 5.22981297801927 C 80.90065122910198 5.127856868109985 80.9002164054589 4.598550347848608 80.90343218910495 4.186633787684774 C 80.90343218910495 3.680091001880631 80.77948738204509 3.2208006447178845 80.57266805558424 2.8718952865455654 C 80.36584872912341 2.5229899283732458 80.05976537671492 2.2632109934986078 79.68899937934405 2.2632109934986078 L 66.94161389332648 2.25 C 66.94152344941143 2.25 66.94143302042852 2.25 66.9413425914456 2.25 Z"
     style="fill:#ffffff;stroke:none"
     id="path16" />
  <path
     d="M 73.80731640381093 7.800961611697278 Q 76.30689476554083 7.800961611697278 79.10843462884448 9.00881150097242 Q 76.30689476554083 10.183109723996912 73.80731640381093 10.183109723996912 Q 71.32451445765338 10.183109723996912 68.5061987612244 9.00881150097242 Q 71.32451445765338 7.800961611697278 73.80731640381093 7.800961611697278 ZM 73.80731640381093 7.0292802772965075 Q 70.72058951301581 7.0292802772965075 66.71119976043701 8.992035667847095 Q 70.72058951301581 10.938016196017383 73.80731640381093 10.938016196017383 Q 76.89404329460606 10.938016196017383 80.90343304718485 8.992035667847095 Q 76.91081932188038 7.0292802772965075 73.80731640381093 7.0292802772965075 Z"
     style="fill:#ffffff;stroke:none"
     id="path18" />
  <path
     d="M 78.6326510768455 12.992656778435279 Q 78.34069379660042 13.284612347120934 78.34069379660042 14.063155088401428 Q 78.34069379660042 14.857916040168565 78.6326510768455 15.149870862789856 L 68.99817054410566 15.149870862789856 Q 69.29012466454873 14.857916040168565 69.29012466454873 14.063155088401428 Q 69.29012466454873 13.284612347120934 68.99817054410566 12.992656778435279 ZM 67.13291123848623 12.392529668770422 Q 66.71119976043701 12.392529668770422 66.72741943150922 12.668263340533747 Q 66.71119976043701 12.992656778435279 67.13291123848623 12.992656778435279 L 68.18718839759441 12.992656778435279 Q 68.57646424462085 13.284612347120934 68.57646424462085 14.063155088401428 Q 68.57646424462085 14.857916040168565 68.18718839759441 15.149870862789856 L 67.14913164327983 15.149870862789856 Q 66.71119976043701 15.149870862789856 66.71119976043701 15.42560607056805 Q 66.71119976043701 15.749999420697304 67.13291123848623 15.749999420697304 L 80.4979116990491 15.749999420697304 Q 80.90343366814666 15.749999420697304 80.90343366814666 15.42560607056805 Q 80.90343366814666 15.149870862789856 80.48168997767132 15.149870862789856 L 79.4436346277132 15.149870862789856 Q 79.05435965840954 14.857916040168565 79.05435965840954 14.063155088401428 Q 79.05435965840954 13.284612347120934 79.4436346277132 12.992656778435279 L 80.4979116990491 12.992656778435279 Q 80.90343366814666 12.992656778435279 80.90343366814666 12.668263340533747 Q 80.90343366814666 12.392529668770422 80.4979116990491 12.392529668770422 Z"
     style="fill:#ffffff;stroke:none"
     id="path20" />
  <path
     d="M 85.04927837254468 4.8766974133516205 Q 85.24780797601589 4.8766974133516205 85.27835106079553 5.1210404802415805 L 85.61432409817867 8.160068195329014 Q 85.87394005024773 10.252262788787709 85.91975422982075 12.161199947800007 Q 85.91975422982075 13.47454811736011 85.69831789464017 14.245758188188443 Q 85.47688084330531 15.016969691325334 85.00346419297165 15.016969691325334 Q 84.53004772167657 15.016969691325334 84.35442556606901 14.245758188188443 Q 84.17880358950003 13.47454811736011 84.19407468429343 12.161199947800007 Q 84.22461776907306 10.252262788787709 84.48423354210354 8.160068195329014 L 84.82020657948668 5.1210404802415805 Q 84.85074966426632 4.8766974133516205 85.04927837254468 4.8766974133516205 ZM 82.74328294654246 2.25 Q 82.1018806950899 2.570701136916189 82.66692563743015 2.921946074766293 Q 84.53004772167657 4.006221735114119 84.30097574958 5.227941545528161 L 83.94973090124918 8.160068195329014 Q 83.70538702868566 10.252262788787709 83.59848667955336 12.161199947800007 Q 83.59848667955336 14.024321853007859 83.94973090124918 14.88716099913653 Q 84.30097574958 15.75000086141948 85.04927837254468 15.75000086141948 Q 85.7975826068565 15.75000086141948 86.1488269180716 14.88716099913653 Q 86.50007087120957 14.024321853007859 86.50007087120957 12.161199947800007 Q 86.39317052207727 10.252262788787709 86.1488269180716 8.160068195329014 L 85.82812479644328 5.350112989453857 Q 85.3394372303548 2.8455880047400637 82.74328294654246 2.25 Z"
     style="fill:#ffffff;stroke:none"
     id="path22" />
  <path
     d="M 40.9532527923584 0.375 C 31.328252851963043 0.375 31.328252851963043 17.625 40.9532527923584 17.625 "
     style="fill:none;stroke:#ffffff;stroke-width:1"
     id="path24" />
  <path
     d="M 40.9532527923584 0.375 L 86.50007438659668 0.375 "
     style="fill:none;stroke:#ffffff;stroke-width:1"
     id="path26" />
  <path
     d="M 40.9532527923584 17.625 L 86.50007438659668 17.625 "
     style="fill:none;stroke:#ffffff;stroke-width:1"
     id="path28" />
  <path
     d="M 94.18757438659668 0.375 L 94.18757438659668 17.625 "
     style="fill:none;stroke:#ffffff;stroke-width:1"
     id="path30" />
  <path
     d="M 86.50007438659668 0.375 C 96.12507629394531 0.375 96.12507629394531 17.625 86.50007438659668 17.625 "
     style="fill:none;stroke:#ffffff;stroke-width:1"
     id="path32" />
</svg>
