<?xml version="1.0" encoding="UTF-8" standalone="no"?>
<svg
   width="93.24891662597656"
   height="18.0"
   version="1.1"
   id="svg32"
   sodipodi:docname="tiberios.svg"
   inkscape:version="1.1.1 (3bf5ae0d25, 2021-09-20)"
   xmlns:inkscape="http://www.inkscape.org/namespaces/inkscape"
   xmlns:sodipodi="http://sodipodi.sourceforge.net/DTD/sodipodi-0.dtd"
   xmlns="http://www.w3.org/2000/svg"
   xmlns:svg="http://www.w3.org/2000/svg">
  <defs
     id="defs36" />
  <sodipodi:namedview
     id="namedview34"
     pagecolor="#ffffff"
     bordercolor="#666666"
     borderopacity="1.0"
     inkscape:pageshadow="2"
     inkscape:pageopacity="0.0"
     inkscape:pagecheckerboard="0"
     showgrid="false"
     inkscape:zoom="14.74548"
     inkscape:cx="46.624458"
     inkscape:cy="8.9858047"
     inkscape:window-width="1920"
     inkscape:window-height="1001"
     inkscape:window-x="-9"
     inkscape:window-y="-9"
     inkscape:window-maximized="1"
     inkscape:current-layer="svg32" />
  <path
     d="M 9.619241759901131 8.704017150225534 C 9.956114020057063 8.704017150225534 10.371109904274771 8.76399089929749 10.864229412554256 8.883939352346172 C 11.905261819800385 9.137163864337834 12.8056128816014 9.495897714329981 13.565284507766846 9.960140902322616 C 14.32495613393229 10.42438504522002 15.176070395910864 11.008207138114807 16.1186263387978 11.711606226102205 C 15.211383729261659 12.170969850713034 14.168207560803758 12.400651185566062 12.989095923614554 12.400651185566062 C 12.723796640788658 12.400651185566062 12.45161535927535 12.38902331016484 12.172553033979401 12.365768514267165 C 10.653210736553286 12.239155780818948 9.3484030744964 11.792497164191472 8.258132912523058 11.025791709479964 C 7.167863705454489 10.259086254768457 6.897054622097669 9.78780828332499 7.445706139904986 9.61195779514956 C 7.994358612617073 9.436108261878905 8.441018184149321 9.207503104703234 8.78568342214457 8.92614327852732 C 8.967086681565636 8.778059511294387 9.244939142516232 8.704017150225534 9.619241759901131 8.704017150225534 ZM 16.87829701005847 11.880422885731571 L 17.743478929129175 12.070340076094354 C 17.743478929129175 12.295428318996994 17.539492171864723 12.478311680813713 17.131522476954906 12.618992071354056 C 16.899402315315747 12.634818663035082 16.657389340244983 12.642731958875595 16.405485461552153 12.642731958875595 C 15.985642480714866 12.642731958875595 15.538322115080815 12.620750051038186 15.063526274459544 12.576788145172907 C 15.977946903162229 12.464244023721587 16.582870481695206 12.232122907177656 16.87829701005847 11.880422885731571 ZM 18.207723072026578 12.196952809542571 L 18.73527358164809 12.302462147543055 C 18.791544210016596 12.471278807172421 18.594593191107748 12.640094511897015 18.144416705302472 12.808910216621609 L 17.532460253128203 12.76670629044046 C 17.968567172031815 12.569755271531616 18.193655414934454 12.379837126264063 18.207723072026578 12.196952809542571 ZM 19.009598624373172 12.407972440448313 L 19.36833342927009 12.49238029281061 C 19.283925576907794 12.731536192805375 19.030702019820904 12.851114142802757 18.608660848199875 12.851114142802757 C 18.847816748194642 12.696366095170289 18.98146331018892 12.548652830988656 19.009598624373172 12.407972440448313 ZM 19.600455500718795 12.618992071354056 C 19.938086910167982 12.71746853571325 20.163175153070622 12.87925041189178 20.27571831961717 13.10433865479442 L 19.326128548184172 12.893318068983906 C 19.509013819810434 12.808910216621609 19.600455500718795 12.71746853571325 19.600455500718795 12.618992071354056 ZM 17.405847519679988 13.864010280959864 C 18.46094662911347 13.99062205950331 19.255788352914 14.28604954277135 19.790372691081576 14.750293685668755 L 17.173725448231284 14.138336278589716 C 17.20186267222508 13.983587276052475 17.279236696041313 13.892145595144116 17.405847519679988 13.864010280959864 ZM 5.187792747046841 0.40093762696942586 C 5.848988863757863 0.40093762696942586 6.3484031042903535 0.5838216154424017 6.686035468644312 0.9495895923883535 C 7.0236668780935005 1.3153575693343054 7.129177170998758 2.198124417859453 7.0025653924553115 3.5978901976453446 C 6.875952659007095 4.997655977431236 6.8337487328259465 5.947245271411848 6.875953136459481 6.446659034491953 C 6.918156585188243 6.946073275024443 7.048285755457107 7.315357867835686 7.266340169813683 7.554513290378066 C 7.4843936292654885 7.793669667825216 7.748168406623859 8.029308176094565 8.05766402443641 8.261430247543267 C 8.367160119701346 8.49355231899197 8.212412072068878 8.70105503562468 7.5934203589913905 8.883939352346172 C 6.974429123366289 9.06682271416289 6.629762930466267 9.33763179751971 6.559423212648482 9.69636660241663 C 6.48908301737831 10.055099497504006 6.577008261466024 10.385698033311902 6.823197990006852 10.688160300030777 C 7.069388196000066 10.99062256674965 7.656726725715499 11.398594171469009 8.585214534057924 11.912075114188854 C 9.513701864947961 12.42555701181347 10.333162943564483 12.752637678443564 11.043595860097945 12.893318068983906 C 11.754030686440949 13.033998459524248 13.931053141209826 13.10433865479442 17.57466322440458 13.10433865479442 C 18.700104438917776 13.315358285700162 19.445707453086325 13.596718111876076 19.811474176719763 13.94841813332216 L 17.405847519679988 13.399766138062459 C 17.18076118658689 13.47010633333263 17.00490974350669 13.60375194042214 16.87829701005847 13.800703914235756 C 16.87829701005847 14.166472547678739 16.083455286257944 14.37749217858448 14.493772793561655 14.433763761857755 C 14.254616893566888 14.433763761857755 14.092834062483586 14.103166180954629 14.008427165026061 13.441970064243609 L 13.755202653034399 13.652989695149351 C 13.881814431577844 14.187574033316928 13.91698452921293 14.658852004760394 13.860712945939655 15.066823609479753 C 13.663760972126038 14.588511809490223 13.319094779226017 14.271981885679224 12.826715322144361 14.117233838046756 C 12.038906471985122 13.976553447506413 11.335507383997724 13.846424754689936 10.71651519346785 13.726846804692553 C 10.097523002937978 13.607269809599941 9.471497938766813 13.350529338240019 8.838438091144814 12.956624435708015 C 8.275718438792987 12.520516561899633 7.371849507814169 12.049238590456165 6.126831775660745 11.542790521377611 C 4.881814043507322 11.03634340720383 4.259305416156803 10.283705609584448 4.259305416156803 9.284877128519467 C 4.259305416156803 8.286049602359258 4.593420388785345 7.459554695196674 5.261649856590044 6.805393361936487 C 5.929879801847128 6.151231551223914 6.2639942970232845 5.366941047694864 6.2639942970232845 4.452521373896952 C 6.2639942970232845 4.002345365544058 6.207722713750011 3.5767882345547704 6.095179069751077 3.175850219655281 C 5.993352799453844 2.8130966980279646 5.689997219321334 2.6317199372143065 5.185112329353548 2.6317199372143065 C 5.131966626849421 2.6317199372143065 5.076588356989783 2.6337295343056977 5.0189770423222475 2.6377489672146734 L 3.2464102329044677 2.869871038663376 C 3.3026820549039346 2.6869874381204633 3.387089668540039 2.5181714946696765 3.4996335512651657 2.363423447037208 C 3.6403134643531225 1.9273154538657298 3.795061511985591 1.6740914193264531 3.9638776941625706 1.6037515821455712 C 3.9884963327999836 1.6899181303705768 4.083125485835245 1.733001523846176 4.247764437089777 1.733001523846176 C 4.271284696513898 1.733001523846176 4.296233016023633 1.732122295277918 4.32261082797614 1.7303637187783059 C 4.603971609056825 1.7162955842337946 4.765753485235356 1.5756155517827413 4.8079574114165045 1.308323860151339 C 4.7798216197798675 1.0410321685199366 4.6180397436013365 0.9003521360688832 4.32261082797614 0.8862840612059201 C 4.069387270889249 0.9003521360688832 3.9287073578012923 1.0410321685199366 3.9005710887122693 1.308323860151339 C 3.6754838007144013 1.5193437297832741 3.4996337899913588 1.765533697050295 3.373021295269335 2.046893523226209 C 3.3320964640294637 2.0673559388461444 3.2921017100369276 2.0775870272930157 3.2530370332917253 2.0775870272930157 C 3.1846734908983327 2.0775870272930157 3.119158190711805 2.046253737029377 3.0564913714583355 1.9835869177759076 C 3.225307553635315 1.6459552696005268 3.471497998354722 1.2977725205167625 3.7950622281641695 0.9390390286139039 C 4.118625980521232 0.5803047608509185 4.582869168513866 0.40093762696942586 5.187792747046841 0.40093762696942586 ZM 9.977946007845366 14.159437764227905 L 10.653208826743741 14.328253468952498 L 9.89353815548307 15.425557459471902 L 9.977946007845366 14.159437764227905 ZM 11.286269629270512 14.391559835676606 C 11.84898928162234 14.391559835676606 12.32378416733884 14.451348333222912 12.71065428642001 14.570927238125066 C 13.09752440550118 14.690504233217677 13.336679350591174 15.144197633295988 13.428121986404305 15.932005528550455 C 13.517959427296729 16.705992132143816 13.400721948894024 17.092986388845265 13.07640859629142 17.092986388845265 C 13.070618053757709 17.092986388845265 13.064760667889999 17.092862251224986 13.058837393593063 17.09261588579397 L 11.03304511727885 17.09261588579397 C 10.988356528882543 17.089306185856326 10.942987093384234 17.087650380982737 10.896935855879153 17.087650380982737 C 10.551564943257846 17.087650380982737 10.167861288398607 17.180747866764687 9.745823936396663 17.366940928519046 C 9.858368057847983 16.382182014355735 10.3718499554726 15.390387361836815 11.286269629270512 14.391559835676606 ZM 5.187792747046841 0.0 C 4.231169147067781 0.0 3.443361967991892 0.5345838607151904 2.8243702549144043 1.6037515821455712 C 2.613350385282469 1.9554513648654634 1.9873244855696295 2.3071511475853557 0.946292317049693 2.6588511690314407 C 0.22882448278191372 2.869871038663376 -0.08067132899566878 3.165298999383801 0.017804894772284054 3.545135051192716 L 0.03890708726380924 3.798358369553414 C 1.3753664816751086 3.6717465910099687 2.493771957832701 3.5099647148314377 3.3941234970861016 3.3130129797440135 L 5.040079482865207 3.0175852577497815 C 5.048381902400062 3.0173546482474904 5.056615568791377 3.017239343496345 5.064780004586766 3.017239343496345 C 5.5546451974053515 3.017239343496345 5.796118651280282 3.432360558965298 5.789199888759171 4.2626027511770115 C 5.782166060213108 5.106682229704753 5.4269491244939925 5.862836941597166 4.723549559054208 6.5310668868542505 C 4.020149993614424 7.199296832111335 3.661415904896083 8.166471652361876 3.6473477703515713 9.432591347605873 C 3.6473477703515713 10.459556097759878 4.136210551886389 11.19460836910933 5.11393659240841 11.637750071463774 C 6.09166167802566 12.08089177381822 7.037734535185626 12.555685704629948 7.952154686435924 13.062133773708501 C 8.866573405329065 13.568581842787054 9.387089131499744 13.962486745319058 9.513701864947961 14.243845616590201 C 9.44336166967779 15.735053554736838 9.26047830786107 16.698711938166735 8.96504986968826 17.134818857070343 C 8.472670412606604 17.134818857070343 7.614522322081965 17.064478661800173 6.390606553019116 16.92379827125983 C 6.01077121738878 16.980070809437876 5.75051335430344 17.10316567370829 5.609832486310712 17.293084773880615 C 5.469153528127526 17.48300387405294 5.497289319764163 17.69050468087611 5.69424129357778 17.91559292377875 C 5.7882960713930505 17.77973671214347 5.878469161312617 17.711806696516287 5.9647610407888685 17.711806696516287 C 5.99463093949035 17.711806696516287 6.024035799568166 17.719946304787623 6.052975621022314 17.73622552133029 C 6.165519265021248 17.799531888054396 6.446879091197162 17.831185071416453 6.897054144645284 17.831185071416453 L 8.96504986968826 17.831185071416453 C 9.066651737364214 17.811645809984256 9.162826881224358 17.801877134172933 9.253573391459145 17.801877134172933 C 9.489516991802953 17.801877134172933 9.68877028611562 17.867918348162302 9.851334229301921 18.000000776141047 C 10.048286203115538 17.98593311904892 10.21710095293536 17.929660580870873 10.357781343475702 17.831185071416453 C 10.978782653644581 17.849272877596132 11.498366392758383 17.8583158257812 11.916529696102794 17.8583158257812 C 12.474082358736627 17.8583158257812 12.85133372205558 17.842239049050068 13.048285695869197 17.810083585778262 C 13.39295188876922 17.753811047600216 13.705964898307187 17.704574247777778 13.987324724483102 17.662369366691856 L 14.704792424467398 17.89449143814056 C 14.713104870502352 17.89513122433739 14.721098378343662 17.895450162531034 14.728771038181785 17.895450162531034 C 14.889915037973028 17.895450162531034 14.91005779922074 17.754450833797048 14.789201231734465 17.47245026651953 C 14.170209041204592 17.134818857070343 14.02952865066425 16.28370459509177 14.367161015018208 14.919109390393348 L 14.367161015018208 14.919109390393348 C 14.486100133723532 14.921667580275903 14.601202445057407 14.922946197764796 14.712467949019834 14.922946197764796 C 15.825117259215483 14.922946197764796 16.55409538131412 14.795054846827687 16.899400405506203 14.539274054763013 C 18.306200491290543 14.792496656945131 19.452741281632388 15.03868734039073 20.33902468634128 15.277843240385495 L 20.486738905427682 15.024620638203377 C 20.1209702719847 14.616648078579246 19.84664522925962 14.356389738041521 19.6637618674429 14.243845616590201 L 19.6637618674429 14.243845616590201 L 20.59224824342817 14.433763761857755 C 20.74230770863311 14.490035345131028 20.8462548224276 14.518171614220051 20.90408958481164 14.518171614220051 C 21.01975910957972 14.518171614220051 20.95098304832509 14.405627492768732 20.697759491238198 14.180540204770864 C 20.641486953060152 14.025792157138396 20.23351534834079 13.723330845324293 19.473842767270575 13.273154359519014 L 19.473842767270575 13.273154359519014 L 20.761063948152763 13.526377916605906 C 20.901744338693106 12.62602685480489 19.924019253075855 11.985932223732057 17.827886781491472 11.606096888101721 C 16.73058279097207 11.352873331014829 15.738790048262691 10.86049196412363 14.852506643553802 10.12895660704721 C 13.684862457764227 9.101993766702748 11.91932947689251 8.349355969083367 9.55590579112911 7.871043214189065 C 8.303853752977238 7.786635839279153 7.607488493535902 7.4032831119233995 7.466808580447945 6.72098550957419 C 7.326128667359988 6.038687429772594 7.32964558163302 4.95193465952467 7.477359800719425 3.4607274375566117 C 7.625073542353445 1.969519857499264 7.417570825720734 0.9988280632941434 6.854850695916521 0.5486519952597018 C 6.43281095665265 0.1828839884729759 5.877125132846886 0.0 5.187792747046841 0.0 Z"
     style="fill:#ffffff;stroke:none"
     id="path2" />
  <path
     d="M 27.177865186478382 7.937876256002994 C 26.496671245133623 7.991654064440127 26.120222241250442 8.332250793733436 26.04851793344977 8.959665719745715 C 26.138148499234912 9.640860143848613 26.514597503118093 9.999383372505463 27.177865186478382 10.035235888474404 C 27.84113286983867 9.999383372505463 28.190692728124215 9.640860143848613 28.226544278576878 8.959665719745715 C 28.172766470139745 8.332250793733436 27.8232066118542 7.991654064440127 27.177865186478382 7.937876256002994 ZM 27.25853214051315 5.679180301671352 C 27.742538692303153 5.679180301671352 28.190693210882355 5.768811229525099 28.602994730734476 5.948073085232593 C 29.01529576782846 6.127334940940088 29.378299957533752 6.373819539952137 29.692007299850356 6.687527123647811 C 30.0057151249251 7.001234707343485 30.252199844626684 7.3597576946212655 30.43146145895511 7.763095602723013 C 30.610722590525395 8.16643375220383 30.700352914931468 8.592179844854769 30.700352914931468 9.040334122054901 C 30.700352914931468 9.506413933102294 30.610722590525395 9.941123154745469 30.43146145895511 10.344461786984425 C 30.252199844626684 10.747799936465242 30.0057151249251 11.101841721315509 29.692007299850356 11.406586176018948 C 29.378299957533752 11.711330630722387 29.01529576782846 11.948851980052666 28.602994730734476 12.119151189526065 C 28.190693210882355 12.289449433483185 27.742538692303153 12.374598314082675 27.25853214051315 12.374598314082675 C 26.774526312860356 12.374598314082675 26.32189131599085 12.289449433483185 25.900626908525563 12.119151189526065 C 25.479361776923067 11.948851980052666 25.116357104459635 11.711330630722387 24.8116130118248 11.406586176018948 C 24.506868074363222 11.101841721315509 24.264865160536825 10.747799936465242 24.085604149656074 10.344461786984425 C 23.906342354293347 9.941123154745469 23.8167114264396 9.506413933102294 23.8167114264396 9.040334122054901 C 23.8167114264396 8.592179844854769 23.906342354293347 8.16643375220383 24.085604149656074 7.763095602723013 C 24.264865160536825 7.3597576946212655 24.506868074363222 7.001234707343485 24.8116130118248 6.687527123647811 C 25.116357104459635 6.373819539952137 25.479361776923067 6.127334940940088 25.900626908525563 5.948073085232593 C 26.32189131599085 5.768811229525099 26.774526312860356 5.679180301671352 27.25853214051315 5.679180301671352 ZM 27.204754814834157 4.764946937561035 C 26.61319119789547 4.764946937561035 26.057480338304796 4.876985476688684 25.53762175330399 5.101062554943983 C 25.017763409682257 5.325139663371665 24.569609615240264 5.629884118075104 24.193160490667548 6.015295949226683 C 23.8167114264396 6.400708564860238 23.516448355197976 6.848862238612696 23.292371276942678 7.359757211863126 C 23.068294998255546 7.870652909250765 22.956256866455078 8.421882083655788 22.956256866455078 9.013444493699126 C 22.956256866455078 9.605007145121533 23.068294998255546 10.156236319526556 23.292371276942678 10.667132016914195 C 23.516448355197976 11.178027714301834 23.8167114264396 11.621700306316313 24.193160490667548 11.998149310199494 C 24.569609615240264 12.374598314082675 25.017763409682257 12.67486180773767 25.53762175330399 12.898938825648202 C 26.057480338304796 13.123014878042454 26.61319119789547 13.23505338699772 27.204754814834157 13.23505338699772 C 27.796317466256564 13.23505338699772 28.347546157903448 13.123014878042454 28.85844088977481 12.898938825648202 C 29.369336587162447 12.67486180773767 29.81749062298351 12.374598314082675 30.202903479996134 11.998149310199494 C 30.58831537149248 11.621700306316313 30.89305982619592 11.178027714301834 31.11713636134831 10.667132016914195 C 31.34121434477512 10.156236319526556 31.453252853730387 9.605007145121533 31.453252853730387 9.013444493699126 C 31.453252853730387 8.421882083655788 31.34121434477512 7.870652909250765 31.11713636134831 7.359757211863126 C 30.89305982619592 6.848862238612696 30.58831537149248 6.400708564860238 30.202903479996134 6.015295949226683 C 29.81749062298351 5.629884118075104 29.369336587162447 5.325139663371665 28.85844088977481 5.101062554943983 C 28.347546157903448 4.876985476688684 27.796317466256564 4.764946937561035 27.204754814834157 4.764946937561035 Z"
     style="fill:#ffffff;stroke:none"
     id="path4" />
  <path
     d="M 41.644492590693595 2.5809692466168688 C 41.66495792028456 2.5809692466168688 41.686323191870336 2.58176460633911 41.70858834471791 2.5833553257835935 C 41.990578044811 2.603495855145891 42.299424800460834 2.71091897579858 42.635128915332544 2.9056305181122575 C 42.299424800460834 3.1137660028607628 41.990578044811 3.22622850716592 41.70858834471791 3.2430131723855644 C 41.69027849098997 3.2441029658229423 41.67257724292609 3.2446481054737397 41.65548453979325 3.2446481054737397 C 41.409332913097906 3.2446481054737397 41.28939301923543 3.131640947382002 41.29567393779336 2.9056305181122575 C 41.28948721616039 2.6891925856339634 41.40576299540142 2.5809692466168688 41.644492590693595 2.5809692466168688 ZM 41.644492772892676 4.585121241844897 C 41.66495810248364 4.585121241844897 41.68632325260336 4.585916115702923 41.70858834471791 4.587506835147407 C 41.990578044811 4.607646878645488 42.299424800460834 4.715070485162393 42.635128915332544 4.909782513340286 C 42.299424800460834 5.117917998088791 41.990578044811 5.2303800165297325 41.70858834471791 5.247164681749377 C 41.69027891612116 5.248253989322539 41.67257803245544 5.248799128973335 41.65548569372076 5.248799128973335 C 41.409333277496074 5.248799128973335 41.28939298886892 5.135792942610031 41.29567393779336 4.909782513340286 C 41.28948721616039 4.693344580861992 41.40576305613445 4.585121241844897 41.644492772892676 4.585121241844897 ZM 41.607211439840114 2.25 C 41.588687866589986 2.25 41.5704454872551 2.25033573217353 41.55248424110242 2.2510071965205904 C 41.19328429450626 2.264435511733366 40.99353861435532 2.4826439334162105 40.9532527923584 2.9056305181122575 C 41.006189011612065 3.355571877805568 41.19769112849875 3.5805406141953577 41.527769725273934 3.5805406141953577 C 41.53262217266914 3.5805406141953577 41.53750462217972 3.580492027773718 41.54241695233959 3.5803948549304385 C 41.88147680988791 3.573677296274536 42.35649501864908 3.4528258604090714 42.96747728752766 3.217833745235015 L 48.78858111755629 3.217833745235015 C 49.26528242069609 3.258119176737558 49.50530808915202 3.4796829766988386 49.508664439158885 3.8825246592546407 C 49.51201981743732 4.285371686316823 49.27199414898139 4.530437224289434 48.78858111755629 4.617719815579826 L 42.96747728752766 4.617719815579826 C 42.41256010523965 4.375339163267023 41.95913971482483 4.254151509363812 41.607211439840114 4.254151509363812 C 41.588687866589986 4.254151509363812 41.5704454872551 4.254487241537342 41.55248424110242 4.255158705884403 C 41.19328429450626 4.268587021097178 40.99353861435532 4.486794956915807 40.9532527923584 4.909782513340286 C 41.00618900781625 5.359723873033596 41.19769109813224 5.584691637694954 41.52776966454091 5.584691637694954 C 41.53262217266914 5.584691637694954 41.53750456144669 5.584643051273314 41.54241695233959 5.584545878430035 C 41.88147680988791 5.577829291502565 42.35649501864908 5.4569773697728845 42.96747728752766 5.2219852545988275 L 48.46630543936341 5.2219852545988275 C 48.48743518827029 5.222379776342542 48.508368648033745 5.222578008942832 48.529106304517995 5.222578008942832 C 49.213444595720276 5.222578008942832 49.68431892931283 5.007528676394999 49.94172396078927 4.577433898213068 C 50.20693002812418 4.134306784154722 50.20693002812418 3.6911738397257805 49.94172396078927 3.248046239803219 C 49.68805133822319 2.824188500567172 49.227054624149986 2.6122540435106605 48.55873916307604 2.6122540435106605 C 48.5283566160321 2.6122540435106605 48.49754505088507 2.6126922930338505 48.46630543936341 2.6135683062160138 L 42.96747728752766 2.6135683062160138 C 42.41256010523965 2.371187653903211 41.95913971482483 2.25 41.607211439840114 2.25 Z"
     style="fill:#ffffff;stroke:none"
     id="path6" />
  <path
     d="M 42.20019269429522 7.092650928994171 C 42.38853856511172 7.092650928994171 42.619108344188135 7.165072512963687 42.68633494648988 7.330846468412986 L 42.66158453744241 12.71694325083283 L 42.66158453744241 12.71694325083283 C 42.5660535508163 12.500643789656209 42.28226524212713 12.098216063412778 41.439347035095174 11.599630464238032 L 42.07928829923017 7.141704812743055 C 42.10931009209344 7.109806673009089 42.10852299206287 7.092650928994171 42.20019269429522 7.092650928994171 ZM 42.66158453744241 12.71694325083283 L 42.66158453744241 12.71694325083283 C 42.66158453744241 12.71694325083283 42.66158465890846 12.71694325083283 42.66158465890846 12.71694325083283 L 42.66158453744241 12.71694325083283 L 42.66158453744241 12.71694325083283 ZM 42.110634193549174 6.591125912043253 C 41.96646309728747 6.591125912043253 41.836336452797966 6.611708319727107 41.744206758618745 6.636834142389657 L 40.9532527923584 11.915593794531485 C 41.371656462833286 12.202171085288827 42.52149275714157 12.987394222383744 42.475640779311775 13.669448465904743 L 42.48421458220642 15.750000665704306 L 43.06819567605507 15.741973217120998 L 43.06492070830445 7.18101365717064 C 42.891264820604654 6.711830017176724 42.4597694173529 6.591125912043253 42.110634193549174 6.591125912043253 Z"
     style="fill:#ffffff;stroke:none"
     id="path8" />
  <path
     d="M 49.272625762947676 7.092650928994171 C 49.46097163376418 7.092650928994171 49.69154141284059 7.165072512963687 49.75876801514234 7.330846468412986 L 49.734017606094866 12.71694325083283 L 49.734017606094866 12.71694325083283 C 49.63848661946876 12.500643789656209 49.35469831077959 12.098216063412778 48.51178010374763 11.599630464238032 L 49.15172136788263 7.141704812743055 C 49.181743160745896 7.109806673009089 49.18095606071533 7.092650928994171 49.272625762947676 7.092650928994171 ZM 49.734017606094866 12.71694325083283 L 49.734017606094866 12.71694325083283 C 49.734017606094866 12.71694325083283 49.73401772756092 12.71694325083283 49.73401772756092 12.71694325083283 L 49.734017606094866 12.71694325083283 L 49.734017606094866 12.71694325083283 ZM 49.18306726220163 6.591125912043253 C 49.03889616593993 6.591125912043253 48.908769521450424 6.611708319727107 48.8166398272712 6.636834142389657 L 48.02568586101086 11.915593794531485 C 48.444089531485744 12.202171085288827 49.59392582579403 12.987394222383744 49.54807384796423 13.669448465904743 L 49.55664765085888 15.750000665704306 L 50.14062874470753 15.741973217120998 L 50.13735377695691 7.18101365717064 C 49.96369788925711 6.711830017176724 49.53220248600536 6.591125912043253 49.18306726220163 6.591125912043253 Z"
     style="fill:#ffffff;stroke:none"
     id="path10" />
  <path
     d="M 57.85339587384162 2.6888654184700296 C 57.831147540978584 5.927570451842399 57.8053578582976 9.166405184332305 57.785322164184265 12.405028803312959 C 57.83246285920316 12.929571508274355 57.859880829718435 13.456426945869646 57.92088805212959 13.979347706975329 C 57.95656940718225 14.25910799861469 58.13893271041691 14.519635461873731 58.099127769290405 14.805805286533515 C 58.03976293244371 14.999021727337233 57.91264933862 15.30237668507058 57.69817493049747 15.30237668507058 C 57.65058099345371 15.30237668507058 57.59868442916297 15.287437320412618 57.542271657013245 15.25304167835119 C 57.195022006631945 15.119371230226816 56.86393117456806 14.898455569190991 56.48117603831794 14.898455569190991 C 56.459970232600746 14.898455569190991 56.43860547497592 14.899133670012024 56.41707083970259 14.900542033255705 C 56.39812137569862 14.900319289119068 56.37918072277601 14.900210736596781 56.36024817604825 14.900210736596781 C 55.63255013051541 14.900210736596781 54.91731060157439 15.061085574624402 54.19519772429046 15.131509375900597 C 53.800599437370295 15.187683191523995 53.40751577533496 15.277612612259242 53.007361220512735 15.277612612259242 C 52.99047989352427 15.277612612259242 52.97358605480028 15.277453307908354 52.95667899945426 15.277123421022447 C 53.67886289405391 15.113743416344152 54.39224346105078 14.837863524933256 54.961192958708445 14.352334878435997 C 55.73573635181319 13.75026734551329 56.512762002757086 13.151287920383666 57.285752883327184 12.54728970331459 C 57.39061461985531 12.418267276826274 57.23576726636059 5.836827944519771 57.1835619617792 2.71196313957563 C 57.40684004994776 2.704263884521961 57.630118138116316 2.6965646735236986 57.85339587384162 2.6888654184700296 ZM 58.24681911495236 2.25 C 58.24673664323088 2.25 58.246654171509405 2.250002907656847 58.24657169978793 2.250008717463615 C 57.86428778016864 2.262578344544782 57.294702827323704 2.256757642323957 56.913674310575786 2.280845269145481 C 56.70996810119806 2.339799856537393 56.745458079563704 2.5679474686668695 56.74846124853253 2.731597797321116 C 56.801103935192344 5.920237517496037 56.85374662185217 9.108877281726365 56.90638930851199 12.297517398399949 C 56.061058745135995 12.943879999507343 55.223127022994895 13.600276660061098 54.372967458371825 14.240091570392433 C 53.897256823606114 14.549872273535897 53.34698065066277 14.742609391513938 52.791686302555675 14.844472540835543 C 52.54339681452216 14.841991340326151 52.29247646976245 14.713498988492114 52.04515664123198 14.713498988492114 C 51.965827678280256 14.713498988492114 51.88686914420252 14.726718430069702 51.80848666760988 14.761556740858376 C 51.617753261121855 14.908022288882313 51.55201314984043 15.30885600185533 51.80724650790925 15.43164159251777 C 52.19133609344434 15.637641855036916 52.61908550124003 15.716159163201983 53.0497662236361 15.716159163201983 C 53.32168985140807 15.716159163201983 53.59478191667844 15.684859382685225 53.858791343067104 15.634584057363696 C 54.47227398432765 15.530387733699452 55.09194024248269 15.469223321596939 55.7080008299259 15.382167018269726 C 55.91062292385378 15.364556133745118 56.12106220915926 15.337286894283105 56.32825302499101 15.337286894283105 C 56.55225503160364 15.337286894283105 56.77246016703905 15.369161862190674 56.97488524518785 15.479576694631579 C 57.21816695513361 15.587458164961474 57.486840086883134 15.750000764467849 57.757706120560144 15.750000764467849 C 57.84829320040768 15.750000764467849 57.93912558076012 15.731820331644494 58.02933554632569 15.687336353875565 C 58.3132116702873 15.51022938933367 58.477159813491326 15.180493349138828 58.54632750700964 14.861364441121633 C 58.603619977521795 14.445020405418889 58.32229906715295 14.076538163633085 58.32729459783762 13.662797978692184 C 58.29500938598219 13.210487108900901 58.24357593212744 12.758907911305284 58.223384458095765 12.306133226191506 C 58.24632569439652 9.033225337217742 58.37261175145942 2.2500000110138516 58.24681911495236 2.25 Z"
     style="fill:#ffffff;stroke:none"
     id="path12" />
  <path
     d="M 64.8057846576403 2.766833689031756 Q 66.47987763893546 2.766833689031756 68.35620938103352 3.5757913328698336 Q 66.47987763893546 4.362277743222716 64.8057846576403 4.362277743222716 Q 63.14292768318171 4.362277743222716 61.255360324341055 3.5757913328698336 Q 63.14292768318171 2.766833689031756 64.8057846576403 2.766833689031756 ZM 64.8057846576403 2.25 Q 62.73844886126267 2.25 60.05315947532654 3.564555716127236 Q 62.73844886126267 4.867876465668503 64.8057846576403 4.867876465668503 Q 66.87312045401794 4.867876465668503 69.55840983995407 3.564555716127236 Q 66.88435620079186 2.25 64.8057846576403 2.25 Z"
     style="fill:#ffffff;stroke:none"
     id="path14" />
  <path
     d="M 61.38802829502962 6.482170488766221 C 61.58965551850868 6.482170488766221 61.8364841013272 6.55969893593858 61.90845123873919 6.737162568231044 L 61.88195553572973 12.503064071252833 L 61.88195553572973 12.503064071252833 C 61.77968810875544 12.271512088679515 61.475888251138365 11.840706864536816 60.573531024154704 11.30696312174891 L 61.25859823437737 6.534683444522964 C 61.290737036850935 6.50053598314871 61.28989443386169 6.482170488766221 61.38802829502962 6.482170488766221 ZM 61.88195553572973 12.503064071252833 L 61.88195553572973 12.503064071252833 C 61.88195553572973 12.503064071252833 61.881955665761055 12.503064071252833 61.881955665761055 12.503064071252833 L 61.88195553572973 12.503064071252833 L 61.88195553572973 12.503064071252833 ZM 61.29215450833023 5.945280052916843 C 61.137817077309506 5.945280052916843 60.99851445328422 5.967313844769135 60.899888163486615 5.994211433970933 L 60.05315947532654 11.64520684714671 C 60.501067199587126 11.951992354028611 61.73198507674465 12.792586099235873 61.68289981174379 13.522735917689982 L 61.692078202885625 15.749999841928261 L 62.31723916875402 15.741406331688527 L 62.31373326415586 6.5767641820817175 C 62.12783189915161 6.0744957000403055 61.66590926859715 5.945280052916843 61.29215450833023 5.945280052916843 Z"
     style="fill:#ffffff;stroke:none"
     id="path16" />
  <path
     d="M 68.62919927923188 6.482170488766221 C 68.83082650271093 6.482170488766221 69.07765508552946 6.55969893593858 69.14962222294145 6.737162568231044 L 69.12312651993199 12.503064071252833 L 69.12312651993199 12.503064071252833 C 69.02085909295769 12.271512088679515 68.71705923534063 11.840706864536816 67.81470200835696 11.30696312174891 L 68.49976921857962 6.534683444522964 C 68.5319080210532 6.50053598314871 68.53106541806395 6.482170488766221 68.62919927923188 6.482170488766221 ZM 69.12312651993199 12.503064071252833 L 69.12312651993199 12.503064071252833 C 69.12312651993199 12.503064071252833 69.12312664996331 12.503064071252833 69.12312664996331 12.503064071252833 L 69.12312651993199 12.503064071252833 L 69.12312651993199 12.503064071252833 ZM 68.53332549253248 5.945280052916843 C 68.37898806151176 5.945280052916843 68.23968543748649 5.967313844769135 68.14105914768888 5.994211433970933 L 67.2943304595288 11.64520684714671 C 67.74223818378938 11.951992354028611 68.9731560609469 12.792586099235873 68.92407079594605 13.522735917689982 L 68.93324918708788 15.749999841928261 L 69.55841015295628 15.741406331688527 L 69.55490424835811 6.5767641820817175 C 69.36900288335386 6.0744957000403055 68.9070802527994 5.945280052916843 68.53332549253248 5.945280052916843 Z"
     style="fill:#ffffff;stroke:none"
     id="path18" />
  <path
     d="M 76.98905938811367 8.065689325332642 C 76.88524707785109 8.065689325332642 76.78094090601206 8.07854221485839 76.67613978639078 8.104247993909887 C 76.4665375471482 8.155660058343196 76.23913891186062 8.272325453309135 75.99394424259663 8.454244153349755 L 71.05841040611267 8.454244153349755 L 71.05841040611267 9.54575644411063 L 75.99394424259663 9.54575644411063 C 76.23913891186062 9.727675098892675 76.4665375471482 9.844340301509668 76.67613978639078 9.895751870927306 C 76.78094090601206 9.921457836670427 76.88524707785109 9.93431091005914 76.98905938811367 9.93431091005914 C 77.09287169837626 9.93431091005914 77.19618942292519 9.921457836670427 77.29901328589767 9.895751870927306 C 77.50466028770543 9.844340301509668 77.7103080136504 9.727675098892675 77.91595501545817 9.54575644411063 L 78.10578323993832 9.54575644411063 C 78.30352121515088 9.727675098892675 78.50719132237845 9.844340301509668 78.71679356162102 9.895751870927306 C 78.8215943191737 9.921457836670427 78.92639507672638 9.93431091005914 79.03119583427906 9.93431091005914 C 79.13599659183174 9.93431091005914 79.24079734938442 9.921457836670427 79.3455981069371 9.895751870927306 C 79.55520034617967 9.844340301509668 79.77864446816966 9.727675098892675 80.01592974876985 9.54575644411063 L 84.99892064137384 9.54575644411063 L 84.99892064137384 8.454244153349755 L 80.01592974876985 8.454244153349755 C 79.77864446816966 8.272325453309135 79.55520034617967 8.155660058343196 79.3455981069371 8.104247993909887 C 79.24079734938442 8.07854221485839 79.13599659183174 8.065689325332642 79.03119583427906 8.065689325332642 C 78.92639507672638 8.065689325332642 78.8215943191737 8.07854221485839 78.71679356162102 8.104247993909887 C 78.50719132237845 8.155660058343196 78.30352121515088 8.272325453309135 78.10578323993832 8.454244153349755 L 77.91595501545817 8.454244153349755 C 77.7103080136504 8.272325453309135 77.50466028770543 8.155660058343196 77.29901328589767 8.104247993909887 C 77.19618942292519 8.07854221485839 77.09287169837626 8.065689325332642 76.98905938811367 8.065689325332642 Z"
     style="fill:#ffffff;stroke:none"
     id="path20" />
  <path
     d="M 40.9532527923584 0.375 C 31.328252851963043 0.375 31.328252851963043 17.625 40.9532527923584 17.625 "
     style="fill:none;stroke:#ffffff;stroke-width:1"
     id="path22" />
  <path
     d="M 40.9532527923584 0.375 L 84.9989185333252 0.375 "
     style="fill:none;stroke:#ffffff;stroke-width:1"
     id="path24" />
  <path
     d="M 40.9532527923584 17.625 L 84.9989185333252 17.625 "
     style="fill:none;stroke:#ffffff;stroke-width:1"
     id="path26" />
  <path
     d="M 92.6864185333252 0.375 L 92.6864185333252 17.625 "
     style="fill:none;stroke:#ffffff;stroke-width:1"
     id="path28" />
  <path
     d="M 84.9989185333252 0.375 C 94.62392044067383 0.375 94.62392044067383 17.625 84.9989185333252 17.625 "
     style="fill:none;stroke:#ffffff;stroke-width:1"
     id="path30" />
</svg>
