<?xml version="1.0" encoding="UTF-8" standalone="no"?>
<svg
   width="69.45968627929688"
   height="18.0"
   version="1.1"
   id="svg16"
   sodipodi:docname="userrenputmiamun.svg"
   inkscape:version="1.1.1 (3bf5ae0d25, 2021-09-20)"
   xmlns:inkscape="http://www.inkscape.org/namespaces/inkscape"
   xmlns:sodipodi="http://sodipodi.sourceforge.net/DTD/sodipodi-0.dtd"
   xmlns="http://www.w3.org/2000/svg"
   xmlns:svg="http://www.w3.org/2000/svg">
  <defs
     id="defs20" />
  <sodipodi:namedview
     id="namedview18"
     pagecolor="#ffffff"
     bordercolor="#666666"
     borderopacity="1.0"
     inkscape:pageshadow="2"
     inkscape:pageopacity="0.0"
     inkscape:pagecheckerboard="0"
     showgrid="false"
     inkscape:zoom="19.795655"
     inkscape:cx="34.729843"
     inkscape:cy="9.0171302"
     inkscape:window-width="1920"
     inkscape:window-height="1001"
     inkscape:window-x="-9"
     inkscape:window-y="-9"
     inkscape:window-maximized="1"
     inkscape:current-layer="svg16" />
  <path
     d="M 5.454143572319105 0.38638405261740716 C 5.6751986350969625 0.38638405261740716 6.0198472107908465 0.43846304248784007 6.211377729173311 0.48978353459751095 C 7.043040107707465 0.7126268987793605 6.2060781548689725 1.4576656313354053 5.670499150679329 1.4576656313354053 C 5.645675310396461 1.4576656313354053 5.621499128101075 1.4560650867138016 5.598166364823283 1.4527377590493051 L 5.598166364823283 1.4527377590493051 C 5.2452836289156854 1.5270191599566676 5.657208135444718 1.6516913405425198 6.100369028149615 1.6516913405425198 C 6.371794440716527 1.6516913405425198 6.654937462107786 1.6049233596160355 6.781255773411818 1.4711656717820771 C 6.852830518892686 1.3953753558318478 6.912108910323108 1.3639720239176871 6.9629476229505665 1.3639720239176871 C 7.148321731367289 1.3639720239176871 7.221486349139459 1.7814996563172263 7.369436559194839 1.9870992028133305 C 8.109766964545285 2.2320299455576382 8.572153297980249 2.899799787031018 9.050509706479392 3.4727819547688448 C 10.427930052921685 5.122675736613722 11.668260962471539 6.8783423742360466 12.967744634877972 8.588242400437956 C 12.611392476850998 8.48312787497829 12.224502817821092 8.278009345655091 11.870752268998066 8.107222788142833 C 10.250106465731893 7.324793393911243 8.524267466685542 6.706575791878325 7.056547618785348 5.653163124478057 C 6.324634327882369 5.1278539512763395 5.345499249842926 4.51876911966858 5.264370024428102 3.5973664697843573 C 5.202570523656583 2.8954927394447814 6.490844590161053 2.259560441267 6.397605624014208 1.8800112110189322 C 6.386753388715507 1.8358343194279554 6.355336487695676 1.8161086513304385 6.30878866169714 1.8161086513304385 C 6.033909073196996 1.8161086513304385 5.231366300354198 2.503995530499702 5.02003007139695 2.906660570796704 C 4.938768814010101 3.0614904698885916 4.879530977434828 3.123278383558639 4.83783143863071 3.123278383558639 C 4.6918117006651325 3.123278383558639 4.760840637983347 2.365644014318102 4.852316840087996 2.1923293342191177 C 5.162809689882786 1.604057223781083 4.223751651517808 0.8679923201596249 4.752486337822802 0.5290855725147102 L 4.752486337822802 0.5290855725147102 C 4.736400696667635 0.6173537864769199 4.7540868824444065 0.8663049485079197 5.0637960782712925 0.8663049485079197 C 5.3886697406864075 0.8663049485079197 5.369079611183729 0.4656883095505593 5.2689176568317215 0.41293273205443365 C 5.301349953848873 0.39420801419286505 5.36846244556854 0.38638405261740716 5.454143572319105 0.38638405261740716 ZM 6.069788227978029 5.863214709790646 C 6.323975692640863 6.762449405018629 6.696283899240764 7.629413412802606 7.135400893532303 8.452206779931927 C 7.351771108231227 8.857629702840873 8.265934259085897 9.502025616333867 7.620163139602537 9.830196723888633 C 7.602866036496212 9.834973658931888 7.585570762932224 9.837214848295345 7.568255974249969 9.837214848295345 C 7.310987560290759 9.837214848295345 7.049406915042022 9.342463910909716 6.712954689020212 9.320119100494184 C 6.67903192484543 8.693869197752123 6.575001708144468 8.06546836306859 6.448145511393205 7.446592735641611 C 6.344633665021206 6.9416012399454585 6.088178787554743 6.271072143703381 6.069788227978029 5.863214709790646 ZM 6.774795659418047 6.459697958701316 L 6.774795659418047 6.459697958701316 C 7.569842797304042 7.0356641099916315 8.405933278142431 7.553192239631892 9.246634815518807 8.060175497086155 C 9.468879080816052 8.556551677914943 9.280516719914718 9.282423820019444 9.395827284821362 9.864688475730382 C 8.857778398476073 9.501763991779603 8.28369911518318 9.486578790378216 7.938584616040677 8.798798329588251 C 7.554208138335073 8.032772611954833 6.9204552824668575 7.305266688542932 6.774795659418047 6.459697958701316 ZM 7.000934410504418 10.059063322600238 C 7.135474685073249 10.295082212156643 7.336466376730457 10.443322709596242 7.539293099352194 10.443322709596242 C 7.698827361641281 10.443322709596242 7.8594965500270755 10.351611411301223 7.9898569302021265 10.138767334534139 C 8.175012103385795 10.34420664361385 8.218963808807393 11.064965824732438 8.219863943637453 11.464443954739346 C 8.22078908221279 11.875067656666406 8.005229354769385 11.909575264541749 7.754371047313386 11.909575264541749 C 7.7036902851744005 11.909575264541749 7.6515684535208965 11.908167736636754 7.599499678595182 11.908167736636754 C 7.503209645676805 11.908167736636754 7.407101347297289 11.912984311763987 7.320625589324795 11.940433545301191 C 7.276695228563797 11.95437831699774 7.230527337524019 11.959987693804566 7.182692123567317 11.959987693804566 C 6.98565285320659 11.959987693804566 6.760333737087427 11.864796605983589 6.546653559472097 11.864796605983589 C 6.526873767413762 11.864796605983589 6.507193990336545 11.865612581866122 6.487645330460182 11.867394556102862 C 6.488004530605782 11.347772820181039 6.847494963589043 10.641789022980232 7.000934410504418 10.059063322600238 ZM 8.603951963501176 7.092214653796816 C 10.294832067562263 7.858253788074042 11.963344187004877 8.682241846349761 13.658331003766241 9.443264375537517 C 14.306199998463287 10.121921518537734 14.89692628748524 10.890737288235863 15.617332976780133 11.491755362753791 C 16.156479588527933 11.941553225211752 15.463364792129216 11.850415183515821 15.144459706666524 11.910077778837119 C 14.899576684484854 11.955893178053204 14.652335992077571 11.9891323032412 14.405890540739662 12.026157361372965 C 13.536195636093217 11.155342776815962 12.661034058942274 10.288166542120832 11.825686982140361 9.38497027788468 C 10.917455817391367 8.402968916849794 9.68127857879512 7.847318613522707 8.603951963501176 7.092214653796816 ZM 8.091606927303099 12.784580720746556 C 9.197498187112684 12.784580720746556 10.303223568417005 12.797552175919549 11.407920746927639 12.826530906850914 C 11.963618618355504 12.841107480501353 12.604689033726338 12.804320262873466 13.102683139828937 12.991104338584968 C 12.444715071428801 13.03259835879984 10.798614845620763 13.0486666193028 9.061392434150386 13.0486666193028 C 7.040896493935342 13.0486666193028 4.8971381879673626 13.026930436638214 4.041370674365262 12.998177349261805 C 4.035477718496122 12.998220038583016 4.0297003287179685 12.998241993091064 4.024036980412186 12.998241993091064 C 3.5148780921948943 12.998241993091064 3.9273603042131473 12.826321119329545 4.211845294908974 12.826321119329545 C 4.238601131900259 12.826321119329545 4.264224787108344 12.827842078859469 4.287843263914512 12.831169406523964 C 5.555116623774078 12.801636934111775 6.823471243155116 12.784580720746556 8.091606927303099 12.784580720746556 ZM 3.229631402039215 13.527964022410872 C 3.9800867996092 13.538300936617839 4.730666606058136 13.547631602539173 5.48073658004235 13.573154937842418 C 5.974628852224238 13.589961113754843 6.468692491538405 13.596169360753482 6.962812846665035 13.596169360753482 C 8.360743582405776 13.596169360753482 9.759126824951332 13.546476551476754 11.155349987843726 13.546476551476754 C 11.342591449139606 13.546476551476754 11.529792660504063 13.547370587832354 11.716949962852416 13.549397720742322 C 10.555885804617795 14.183214610592351 9.295635447944509 14.718425266924708 7.950956591174409 14.762796547389044 C 7.799163122515353 14.767805834309163 7.651256821476073 14.770698950592223 7.506199727703753 14.770698950592223 C 6.745573599355791 14.770698950592223 6.06331774657768 14.691151669451905 5.310047598121426 14.420004957167741 C 4.653584023370175 14.183703708243913 3.8042879059395918 13.89691074988931 3.229631402039215 13.527964022410872 ZM 9.878584352489678 15.08641697330296 C 9.849530000475026 15.08641697330296 9.823518177367665 15.092904530431793 9.801197760849965 15.106699279656667 C 9.544953890599764 15.265069343171648 10.169278504955312 16.43707782366929 10.695870187335629 16.718978585813375 C 10.73537854426685 16.740128095235065 10.774061167756402 16.749551457968167 10.810766665826547 16.749551457968167 C 11.003336974104167 16.749551457968167 11.141447905468382 16.490179680168257 11.058481819546692 16.304211580339288 C 10.844383896430964 15.824310428259835 10.18845698743205 15.08641697330296 9.878584352489678 15.08641697330296 ZM 5.031377807745396 15.140798289743296 C 4.989399568658528 15.140798289743296 4.926357808639836 15.166799745444079 4.836820006641786 15.226750188759814 C 4.404607095284589 15.5161398775388 3.394055116225315 16.294390597071498 4.0142925329988515 16.722726708215504 C 4.056939164886357 16.752178680764843 4.100021532773916 16.765133060209347 4.142866670005041 16.765133060209347 C 4.367006341163952 16.765133060209347 4.58465113702468 16.41059092940162 4.699421682018032 16.208593599306226 C 4.818436155386976 15.999129297083979 5.2725627150155 15.140798289743296 5.031377807745396 15.140798289743296 ZM 9.090395558979587 15.318185836009313 C 8.817462603526561 15.318185836009313 9.117006862126209 16.79410813205604 9.59252321107008 17.108873573056375 C 9.624085865629468 17.129766946550816 9.662353183008404 17.139328134806675 9.7019237443791 17.139328134806675 C 9.808466532556917 17.139328134806675 9.924459516755453 17.07001409380753 9.944487516724246 16.965927771141548 C 10.06708575860866 16.328790871796375 9.471438610546237 15.35620982425736 9.098430299078512 15.3185980928827 C 9.095698792368601 15.318322441837182 9.093020952233923 15.318185836009313 9.090395558979587 15.318185836009313 ZM 5.813290051342912 15.334595611081944 C 5.762056157570551 15.334595611081944 5.6837980939307355 15.397157421160761 5.569301065516842 15.551481756720047 C 5.266789289245744 15.95922088022829 4.5258087865180325 16.80730645047888 5.132767994853322 17.12234144405028 C 5.172965479398338 17.143205544867318 5.210868717852111 17.152645983328902 5.2466228539067465 17.152645983328902 C 5.501107314275703 17.152645983328902 5.646734005562437 16.67436092698092 5.736180330443612 16.43252348294377 C 5.81843167515878 16.21013773303909 6.004955346010909 15.334595611081944 5.813290051342912 15.334595611081944 ZM 8.084197280836158 15.497188258311914 C 8.061304827414261 15.497188258311914 8.040999346857612 15.508953435237036 8.024002288694641 15.534490187184089 C 7.779368084270872 15.902031826147313 7.859889291782196 17.025052481015617 8.44457443200567 17.350611002112412 C 8.477321410304873 17.36884544074299 8.5095817303423 17.37699910109386 8.54061320777636 17.37699910109386 C 8.712565793605062 17.37699910109386 8.846783458875045 17.126639648848553 8.816920449147212 16.95369179198824 C 8.746119600075112 16.543659642083643 8.300101572086461 15.497188258311914 8.084197280836158 15.497188258311914 ZM 6.75532262062497 15.485684096093609 C 6.738393255528486 15.485684096093609 6.719172693577984 15.49322303021907 6.697420045032361 15.509370570889988 C 6.3057388146205 15.800128757337436 5.679560264029602 16.97476811971643 6.318469380052385 17.354321313972893 C 6.352644621069744 17.374624355139762 6.386393578722462 17.383708642692973 6.419196662986684 17.383708642692973 C 6.610484462085705 17.383708642692973 6.7696040281116225 17.07479041900334 6.793552127462265 16.88013443246095 C 6.834695485395779 16.54571360828123 6.956077691473192 15.485684096093609 6.75532262062497 15.485684096093609 ZM 7.409580377164622 15.468416875512132 C 7.39733464045218 15.468416875512132 7.384780930779589 15.471718589583901 7.371922907231523 15.478607426332097 C 7.04806464081373 15.652117562537471 6.752394743037498 17.05085024766949 7.3581062034986005 17.423058439288273 C 7.389001684952238 17.442042990277237 7.419877041440165 17.450504013740805 7.449994967400358 17.450504013740805 C 7.6143226306137395 17.450504013740805 7.756113991313593 17.19863701860939 7.755634651221164 17.030030055868558 C 7.75432652844984 16.56993308974527 7.633263882434045 15.468416875512132 7.409580377164622 15.468416875512132 ZM 5.632034852575385 0.0 C 5.427092569164034 0.0 5.224417088708866 0.019432907972482025 5.033733343504948 0.05443384431604181 C 4.467006076095366 0.1584592489395021 3.5938344311601953 0.3646307561088724 3.603155949369841 1.0504667564332457 C 3.67258220229902 1.0309202310229437 3.7366997332121716 1.0218254998322194 3.7957738257482365 1.0218254998322194 C 4.346064179873848 1.0218254998322194 4.458737154577238 1.8110103266832265 4.348558760851052 2.292443415546627 C 4.124233391144884 3.272651977552607 4.609814357411156 4.257232688359666 5.247062553915197 4.998988307191039 C 5.671593826844609 6.267997902728908 6.207430796503842 7.594017867046124 6.200945678764793 8.927216345648308 C 6.198242225037389 9.48290994814405 6.608764082440994 9.519405658692827 6.457257851928928 10.084834255966495 C 6.320555668164599 10.595013723884398 6.084080612718707 11.65061086483566 5.574068852848409 11.775453955168208 C 5.5141812238195955 11.78026809090566 5.453413584926436 11.78228912534117 5.392016583469171 11.78228912534117 C 5.069385635036129 11.78228912534117 4.729385926421875 11.726455152284846 4.408483590574062 11.726455152284846 C 4.153773486650145 11.726455152284846 3.9110950629851815 11.761631152960828 3.698682758209751 11.887824445538461 C 3.254193922691541 12.151893268366223 2.920155472860361 12.347759192241154 2.3871648136927193 12.347759192241154 C 2.364082850177029 12.347759192241154 2.3406278124863467 12.34739206407876 2.31677439195167 12.346646830499944 C 2.290907712536418 12.345839392481654 2.2648745447684524 12.34543567347251 2.2387011120879436 12.34543567347251 C 1.3440312774539256 12.34543567347251 0.28566830681618954 12.817335627062558 0.12083169732265768 13.756412875622079 C -0.12329519978597013 15.147207786399061 0.07662177391650889 16.583104574880497 0.08494513861247754 17.989033459873415 C 0.2900051035231433 17.99360365663253 0.4966322048500206 17.999999736644487 0.702869308735284 17.999999736644487 C 0.8657836504929329 17.999999736644487 1.0284545868887616 17.996007675264025 1.1899174917253144 17.98397172607295 C 1.1137838316630781 17.140422201124508 1.057380489785133 16.29003262722354 1.1114740344619638 15.445312195179083 C 1.150002671471443 14.84365012175835 0.997819586525427 14.00504767929055 1.5763723295263372 13.66371240476991 C 1.7040717928333333 13.58837307100588 1.83171911418371 13.55691470035973 1.9589124041106598 13.55691470035973 C 2.4652981635298614 13.55691470035973 2.9644861984695505 14.055524752382627 3.4311076174921418 14.268706684634704 C 4.73678032670267 14.865220425917668 6.127831678330627 15.305327812461249 7.577851313962796 15.305327812461249 C 7.611054458151489 15.305327812461249 7.644288094712474 15.305097290126723 7.677552223645749 15.304632586372993 C 9.433900060865076 15.280083787288198 11.05346399476233 14.553760358073777 12.55629032072968 13.72891485428921 C 12.670762345398295 13.628126586610326 12.818380798443139 13.581008553249928 12.96633954636276 13.581008553249928 C 13.24669495507909 13.581008553249928 13.528272498076879 13.750179015030715 13.587881426822944 14.043930332742338 C 13.850096313415355 15.336104373662948 13.742097209536873 16.675576962787922 13.65541349358535 17.983352121067977 C 13.812261377875515 17.996239417293445 13.969778874661216 17.999448434553447 14.127512257442742 17.999448434553447 C 14.284036922586616 17.999448434553447 14.44077381464164 17.99628820508911 14.597282623751921 17.99628820508911 C 14.650358866658163 17.99628820508911 14.703408276276786 17.99665167416683 14.7564149965742 17.99762499069039 C 14.763825862736033 17.086932481649992 14.844901421575624 16.174760482705985 14.803086621604242 15.264876631378764 C 14.769945072007578 14.543717390335702 14.910211204245392 13.715322574416355 14.386286384745727 13.121748297822336 C 13.705550271802647 12.350515702696345 12.623079593303054 12.361563699025162 11.682409423214999 12.296510052282647 C 11.644045140092175 12.293857215893247 11.604677048073496 12.292852187302506 11.564630805695048 12.292852187302506 C 11.439513284011872 12.292852187302506 11.307763061507753 12.302662193316268 11.179225515348314 12.302662193316268 C 11.022081245199468 12.302662193316268 10.869737694144266 12.28799902132852 10.740179263360492 12.222823405096838 C 10.44570344688321 11.920581791244247 10.080689625582988 11.8638281682396 9.700766253926899 11.8638281682396 C 9.472275931089374 11.8638281682396 9.238393337135744 11.88435563326653 9.011219065086339 11.88435563326653 C 8.936831703185263 11.88435563326653 8.863163961270274 11.882155303681946 8.79064029316368 11.876311745455919 C 8.748275410796152 11.287905316117937 8.716179749569102 10.698756092590925 8.6841725162217 10.109697736333342 C 8.716601154154176 10.078576001477298 8.754075060006079 10.064937373198559 8.795398322936116 10.064937373198559 C 9.088549550761034 10.064937373198559 9.575443823501919 10.751298109134611 9.829342220475425 10.751298109134611 C 9.9047779101359 10.751298109134611 9.959645884838014 10.690709765390528 9.982754224255737 10.533531343784716 C 10.077034809840075 9.89225845906186 9.828121305888857 9.191179055020491 9.837226938102676 8.515557122758214 C 9.842454550408405 8.515291839119273 9.84775473456019 8.515160721918418 9.8531244413208 8.515160721918418 C 10.13787319103695 8.515160721918418 10.618515917610546 8.883683605421998 10.906077283746905 9.132975214789639 C 11.80432402611263 9.911679050974598 12.57521510666895 10.850011675802751 13.418602412196801 11.698699775329832 C 13.753165940678848 12.0785896053764 14.10034965220508 12.50165297550368 14.581990089200067 12.50165297550368 C 14.7115546184583 12.50165297550368 14.850847434172552 12.471038633722571 15.00224206260203 12.400734200471387 C 15.482807948397447 12.177569065530927 16.501952068121145 12.466298899373513 16.611020844419624 11.85703812677763 C 16.148715010847514 11.316222972418016 15.616514561507817 10.838956361304586 15.141690999262417 10.30954047540259 L 15.141690999262417 10.30954047540259 C 15.720475255599954 10.584491416053895 16.284632930796494 10.987831100087856 16.88805136486124 11.251485226652445 C 17.013493325385603 11.306294655999759 17.089085135992214 11.329256632030482 17.12721035891627 11.329256632030482 C 17.308927822047742 11.329256632030482 16.63947510654757 10.807612641978256 16.459826245952385 10.726662711712507 C 15.79457415965915 10.42689585879513 17.084456393878295 10.539115106998816 16.55768114741678 10.121722708270392 C 15.402974038957586 9.206783221617167 14.091566629290112 8.473895394495738 12.859382061921773 7.648877913731442 C 12.06805133437072 6.650734500652652 11.353425998862377 5.582082965275763 10.559610752816978 4.581358372882461 C 9.89897704123108 3.80707897991706 9.337823474552744 2.944969967649405 8.617586932695238 2.225430481422494 C 8.174952338336102 1.7832239999703352 7.524531741925666 1.6598222840760268 7.480633703079299 0.9374621771811809 C 7.138186066817449 0.2522410174286094 6.370398499913002 0.0 5.632034852575385 0.0 Z"
     style="fill:#ffffff;stroke:none"
     id="path2" />
  <path
     d="M 24.563005136734414 0.0 C 24.4434703583152 0.0 24.435189465367976 0.3768429095728596 24.263777184213808 0.9348237551299458 C 24.068787641096332 1.569550635195528 23.92565693765056 2.896758162392941 23.475294887070778 3.1544445837457293 C 23.40676717835486 3.1936544558153876 23.339276340480517 3.2066632228006466 23.27139419018175 3.2066632228006466 C 23.137523425623904 3.2066632228006466 23.00213085653198 3.156070105959156 22.854261876685054 3.156070105959156 C 22.799829981900434 3.156070105959156 22.743707397156957 3.1629255692070846 22.685347998390824 3.181684089430989 C 22.47416503541409 3.249564404018618 22.362910538038385 3.578693337423919 22.14055696683006 3.6175167922988556 C 21.21884961652227 3.7784499164170606 19.957809150004216 3.71760618857639 19.253164555011804 3.780954438314126 C 18.80060656366519 3.8216396102356835 20.00915651465987 4.71154097042447 21.217674455441568 4.71154097042447 C 21.234748404743748 4.71154097042447 21.251822354045927 4.71136321239586 21.268891561094332 4.711003107060795 C 21.519910985542776 4.705586229441989 21.78464990313906 4.694055209923481 22.04773790451783 4.694055209923481 C 22.488815540061168 4.694055209923481 22.92525280379742 4.7264665257905145 23.284618041322105 4.8744407530760645 C 23.63704826811618 5.019558613829609 24.052323147892242 5.440989856861565 24.0473254243168 5.855064487504693 L 23.900746337496752 17.999999658360725 L 25.259122710072074 17.999999658360725 L 25.19002470709569 4.28147178862879 C 25.188168803134342 3.9129763358033176 26.250781822011724 3.663166644995356 26.389926890623258 3.345121429494403 C 26.632135513509073 2.7915012392596235 26.50829782818046 0.34963637020013466 26.117531221866948 0.021896380540120233 C 26.113033729576834 0.01812435866279601 26.10842731842582 0.01628244004763657 26.103710764606475 0.01628244004763657 C 25.927855756544503 0.01628244004763657 25.59925061271748 2.5768784595605925 25.082428170115946 3.12720507806047 C 25.029645355837697 3.183409657901481 24.925620500830387 3.2089823378726905 24.835502381507073 3.2089823378726905 C 24.73898925647982 3.2089823378726905 24.65842540173036 3.179651651248457 24.67383497293334 3.12720507806047 C 25.002336093129163 2.0091645970575103 25.13460458781467 0.37804323519375654 24.61935596156282 0.021896380540120233 C 24.5979913434255 0.00712905218031586 24.579445765693702 0.0 24.563005136734414 0.0 Z"
     style="fill:#ffffff;stroke:none"
     id="path4" />
  <path
     d="M 29.947095796519726 7.457925246591643 L 29.947095796519726 9.113959811533645 C 29.38162027938128 9.113959811533645 29.098882520812055 8.831221993287294 29.098882520812055 8.265747311628635 C 29.098882520812055 7.727199427409647 29.38162027938128 7.457925246591643 29.947095796519726 7.457925246591643 ZM 32.04198259096281 0.0 C 31.578873996132813 0.0 31.18687738280732 0.11636472253868058 30.865992750986326 0.3490941595736163 C 30.25339486091143 0.7933964326013556 29.947095796519726 1.439653774309885 29.947095796519726 2.2878660355063856 L 29.947095796519726 6.872254870081951 C 29.004637088652192 6.872254870081951 28.526675889895504 7.33675250973652 28.513212203979492 8.265747311628635 C 28.513212203979492 9.20820670578314 28.991173391546717 9.679435448026348 29.947095796519726 9.679435448026348 L 29.947095796519726 17.999999662438427 L 30.69347524570078 17.999999662438427 L 30.69347524570078 2.732168696435455 C 30.69347524570078 1.7089278357736342 30.892064494540172 1.0525725272853337 31.289242992218963 0.7631030096790641 C 31.4950104446878 0.6131367748295072 31.765150182566106 0.5381535977276011 32.12750564397518 0.5381535977276011 C 32.464580203126815 0.5381535977276011 32.88145191424132 0.6030388080497362 33.40053407423542 0.7328092286940062 C 33.48131637622252 0.7613205135515008 33.552035682226695 0.7755761858188119 33.61269199224793 0.7755761858188119 C 33.72389578427339 0.7755761858188119 33.80127696739806 0.7276613006263779 33.84483601903896 0.63183153024151 C 33.8582996564673 0.47026731416863304 33.73712644219516 0.3558260081263536 33.48131637622252 0.28850755243754406 C 32.94276849200354 0.09616918434010951 32.462990404444625 0.0 32.04198259096281 0.0 Z"
     style="fill:#ffffff;stroke:none"
     id="path6" />
  <path
     d="M 37.27871982758662 7.457925246591643 L 37.27871982758662 9.113959811533645 C 36.713244310448175 9.113959811533645 36.43050655187895 8.831221993287294 36.43050655187895 8.265747311628635 C 36.43050655187895 7.727199427409647 36.713244310448175 7.457925246591643 37.27871982758662 7.457925246591643 ZM 39.373606622029705 0.0 C 38.91049802719971 0.0 38.51850141387421 0.11636472253868058 38.19761678205322 0.3490941595736163 C 37.58501889197832 0.7933964326013556 37.27871982758662 1.439653774309885 37.27871982758662 2.2878660355063856 L 37.27871982758662 6.872254870081951 C 36.33626111971908 6.872254870081951 35.8582999209624 7.33675250973652 35.84483623504639 8.265747311628635 C 35.84483623504639 9.20820670578314 36.32279742261361 9.679435448026348 37.27871982758662 9.679435448026348 L 37.27871982758662 17.999999662438427 L 38.02509927676767 17.999999662438427 L 38.02509927676767 2.732168696435455 C 38.02509927676767 1.7089278357736342 38.223688525607066 1.0525725272853337 38.620867023285854 0.7631030096790641 C 38.826634475754695 0.6131367748295072 39.096774213633005 0.5381535977276011 39.45912967504207 0.5381535977276011 C 39.79620423419371 0.5381535977276011 40.21307594530821 0.6030388080497362 40.73215810530232 0.7328092286940062 C 40.81294040728942 0.7613205135515008 40.88365971329359 0.7755761858188119 40.944316023314826 0.7755761858188119 C 41.05551981534028 0.7755761858188119 41.132900998464955 0.7276613006263779 41.17646005010585 0.63183153024151 C 41.1899236875342 0.47026731416863304 41.06875047326206 0.3558260081263536 40.81294040728942 0.28850755243754406 C 40.27439252307043 0.09616918434010951 39.79461443551152 0.0 39.373606622029705 0.0 Z"
     style="fill:#ffffff;stroke:none"
     id="path8" />
  <path
     d="M 44.610343858653515 7.457925246591643 L 44.610343858653515 9.113959811533645 C 44.04486834151507 9.113959811533645 43.762130582945844 8.831221993287294 43.762130582945844 8.265747311628635 C 43.762130582945844 7.727199427409647 44.04486834151507 7.457925246591643 44.610343858653515 7.457925246591643 ZM 46.7052306530966 0.0 C 46.2421220582666 0.0 45.850125444941106 0.11636472253868058 45.52924081312011 0.3490941595736163 C 44.91664292304522 0.7933964326013556 44.610343858653515 1.439653774309885 44.610343858653515 2.2878660355063856 L 44.610343858653515 6.872254870081951 C 43.66788515078598 6.872254870081951 43.1899239520293 7.33675250973652 43.17646026611328 8.265747311628635 C 43.17646026611328 9.20820670578314 43.654421453680506 9.679435448026348 44.610343858653515 9.679435448026348 L 44.610343858653515 17.999999662438427 L 45.356723307834564 17.999999662438427 L 45.356723307834564 2.732168696435455 C 45.356723307834564 1.7089278357736342 45.55531255667396 1.0525725272853337 45.95249105435275 0.7631030096790641 C 46.15825850682159 0.6131367748295072 46.4283982446999 0.5381535977276011 46.790753706108966 0.5381535977276011 C 47.127828265260604 0.5381535977276011 47.54469997637511 0.6030388080497362 48.06378213636921 0.7328092286940062 C 48.14456443835631 0.7613205135515008 48.215283744360484 0.7755761858188119 48.27594005438172 0.7755761858188119 C 48.38714384640718 0.7755761858188119 48.46452502953185 0.7276613006263779 48.50808408117275 0.63183153024151 C 48.52154771860109 0.47026731416863304 48.40037450432895 0.3558260081263536 48.14456443835631 0.28850755243754406 C 47.60601655413733 0.09616918434010951 47.126238466578414 0.0 46.7052306530966 0.0 Z"
     style="fill:#ffffff;stroke:none"
     id="path10" />
  <path
     d="M 54.01785680851669 0.5911294129744623 C 54.69104717333217 0.5911294129744623 55.14591134769292 0.6904583905632232 55.525994628898204 1.1199194272757094 C 56.04727633656122 1.6391326562674657 56.147090991948154 2.410309847894004 56.09772199165583 3.111554760700528 C 56.08823370500481 4.723524933587234 55.80348808822838 6.322313302282503 55.3318896220835 7.8612467627934555 C 54.9627243304557 9.128087548415428 54.52060656581689 10.372030370980749 54.117262335078756 11.628059176113464 L 53.92139256089801 11.628059176113464 C 53.904144077710505 11.566162173216235 51.996154884071416 6.33905800567351 51.910934935254915 3.627403029337134 C 51.89623552104712 2.8378594082344293 51.78266441175724 1.9443303366799265 52.32326118825957 1.2869662058894948 C 52.65754345586183 0.8283589405419381 53.33277828166452 0.5911294129744623 54.01785680851669 0.5911294129744623 ZM 54.43371247793969 12.215669445165402 C 54.43371247793969 12.443676063743567 54.43371247793969 12.67173947290471 54.43371247793969 12.899744198463443 C 54.43368147974649 13.023592155311729 54.51131657295144 13.134166259898668 54.6278174847544 13.176195077341111 C 54.798883971819585 13.23790751084366 54.95576890380549 13.348230790355782 55.117197555684484 13.479705722497988 L 52.7267640776889 13.479705722497988 C 52.88819272956789 13.348230790355782 53.04507742492637 13.23790751084366 53.216144621873845 13.176195077341111 C 53.33264482379452 13.134166259898668 53.4102801536269 13.023592155311729 53.41024962868855 12.899744198463443 C 53.41024962868855 12.67173947290471 53.41024962868855 12.443676063743567 53.41024962868855 12.215669445165402 ZM 56.077723187860194 14.69257084503842 C 56.138110507759926 14.814398003642411 56.14711134190705 15.05970492681505 56.13183751461517 15.231358249904337 L 51.75623868867423 15.231358249904337 C 51.72235020973309 15.037018035425131 51.71730696933722 14.815452415466366 51.73329978907235 14.69257084503842 ZM 55.612459711246494 16.51186284979077 C 55.29518397528551 16.983279586070115 54.66142047270237 17.41239112406986 53.99432894324384 17.41239112406986 C 53.273260330939195 17.41239112406986 52.572185198313036 16.994804288375743 52.23326704443407 16.51186284979077 ZM 54.04846551297715 0.0 C 52.773671442836566 0.0 51.31156156176256 0.7350081774781649 51.31156156176256 2.2457281355225995 C 51.23853236230767 3.167882973681924 51.33034214839646 4.096546485905363 51.42626049653626 5.0143736450143495 C 51.71561709455249 7.298990176257101 52.57706043323425 9.45034949756186 53.28555194274246 11.628059176113464 C 53.28160736349979 11.628059176113464 53.275955044101494 11.628003332040201 53.26885267181783 11.628003332040201 C 53.174283573278615 11.628003332040201 52.8226400695189 11.637911395750397 52.8226400695189 11.921571839137096 C 52.8226400695189 12.183099099317912 52.8226400695189 12.444696401217735 52.8226400695189 12.706227447437417 C 52.42046726286839 12.90404892465316 52.140616284462354 13.206866724697708 51.867996758602544 13.429120457220222 L 50.992171411830654 13.429120457220222 C 50.99207625802574 13.429120457220222 50.99198110422082 13.429120457220222 50.991885950415906 13.429120457220222 C 50.829755816523424 13.429120457220222 50.6982408869511 13.560467610550727 50.69807224554024 13.722633120243856 C 50.69807224554024 13.986701759012927 50.69807224554024 14.250862209224481 50.69807224554024 14.51493463403242 C 50.69810322154963 14.672486855368318 50.881953786465616 14.801970331067434 51.03937376264709 14.808443511017188 C 51.110251604673685 14.941458414467808 51.12223571913287 15.0598762450737 51.14039669684374 15.18312506127157 C 51.030564005148946 15.179714786763752 50.920839747973524 15.176537353646143 50.8110064055533 15.17312613262861 C 50.80964005962097 15.17310530941485 50.80827531092378 15.173094897807971 50.80691224819703 15.173094897807971 C 50.64585124879136 15.173094897807971 50.508128746163806 15.316959642136501 50.508084297180176 15.466637849142527 C 50.508084297180176 15.720381013416517 50.508084297180176 15.974018168602283 50.508084297180176 16.227762279385992 C 50.507928418861276 16.390024333070183 50.63933434083217 16.52169329970423 50.8015952002873 16.521861778433728 C 51.00637408590798 16.521861778433728 51.476336362116086 16.531402596374 51.558256778061576 16.531402596374 C 51.56363798158301 16.531402596374 51.56734480941631 16.531360949946485 51.56919210059824 16.531273871052584 C 51.93676246419722 17.37459131203983 52.92386029183453 18.000001393121796 53.99432894324384 18.000001393121796 C 55.03489001726503 18.000001393121796 55.938378500681836 17.329800579245234 56.2782985350955 16.521861778433728 L 57.04236661055665 16.521861778433728 C 57.31735371215807 16.521861778433728 57.33597534431649 16.330110268028594 57.335876907305995 16.227762279385992 C 57.335876907305995 15.974018168602283 57.33591098165578 15.720381013416517 57.335876907305995 15.466637849142527 C 57.335876907305995 15.338960313982104 57.391403899812545 15.181948549694212 56.746503763907455 15.181948549694212 C 56.75640472879478 15.063973685635547 56.75112225806812 14.939742392352162 56.73003402158903 14.814326068903974 C 57.0134426933912 14.796523167650147 57.14528345153875 14.67226915813357 57.14530143522336 14.51493463403242 C 57.14530143522336 14.250862209224481 57.14530143522336 13.986701759012927 57.14530143522336 13.722633120243856 C 57.145132483239 13.56060201493044 57.01382224378743 13.429288935949723 56.851790665219156 13.429120457220222 L 55.97596487477084 13.429120457220222 C 55.70331612542354 13.206860099129694 55.423541104422235 12.904071640886352 55.02132132722706 12.706227447437417 C 55.02132132722706 12.444696401217735 55.02132132722706 12.183099099317912 55.02132132722706 11.921571839137096 C 55.02115521477185 11.761715813151733 54.89322070222345 11.632318469836799 54.73428137089832 11.628649798176433 C 54.74089652730552 11.591956456004755 56.573495038904426 6.546802217500052 56.66474425461374 3.8967974416523803 C 56.7346264867325 2.8991475687566495 56.83254433664798 1.7764597396718194 56.16536478178583 0.9411075920452122 C 55.74887495085291 0.3675831622774882 55.311361719356455 0.0 54.04846551297715 0.0 Z"
     style="fill:#ffffff;stroke:none"
     id="path12" />
  <path
     d="M 67.56025814413363 0.39020622759012935 C 67.59201644983139 0.39020622759012935 67.62543310560248 0.39498943912378 67.66051000995876 0.40455583252683414 C 67.85148131376896 0.4566387454889263 67.90645841900542 0.6157817063138189 67.82543942715633 0.8819848039942535 L 66.43655415411993 4.475726593015873 L 65.75947269623882 4.475726593015873 L 67.23516362514671 0.6736519655759984 C 67.31074907617162 0.48468813036400327 67.41911423225255 0.39020622759012935 67.56025814413363 0.39020622759012935 ZM 68.70738170131084 0.6805966624791144 C 68.74673310502618 0.6805966624791144 68.78839974390402 0.6869624319346153 68.83238161794438 0.6996939708456169 C 69.05228908963431 0.7633509534586933 69.09279858555885 0.9282809046127073 68.9539091564621 1.1944840022931418 L 67.68655189657139 4.475726593015873 L 67.00946948943437 4.475726593015873 L 68.34627146387346 0.9861511638748867 C 68.42960569088507 0.7824481431682071 68.54997513719358 0.6805966624791144 68.70738170131084 0.6805966624791144 ZM 65.27895982963643 5.981404516094974 C 65.17106265671872 5.981404516094974 65.04766935571148 6.0003440699950685 64.90878040124268 6.038222703167303 L 64.90878040124268 6.211833540282336 C 65.04588855162585 6.1682081118358845 65.17041289104888 6.146395160298682 65.28235247025586 6.146395160298682 C 65.37830040978874 6.146395160298682 65.46500259676613 6.162420973185528 65.542459505816 6.19447164970331 C 65.71028320428067 6.263915889623732 65.93308353335385 6.31021204957068 66.21086144229145 6.333360129544154 L 66.12405578641996 6.246554948300615 C 65.86942643208378 6.153962628406719 65.66688037634492 6.078731249835939 65.51641761920337 6.0208608125882765 C 65.44802610408624 5.994556456716757 65.3688733493546 5.981404516094974 65.27895982963643 5.981404516094974 ZM 65.41225102200876 6.368082961446297 L 65.72475033896463 6.472248609384998 C 65.60900993909726 6.518545243959901 65.50484381653061 6.553267601234089 65.41225102200876 6.576416155835518 C 65.48169526192918 6.5185457185878555 65.48169526192918 6.449101478667433 65.41225102200876 6.368082961446297 ZM 65.15183547827814 6.368082961446297 C 65.11711312100395 6.437526726738764 65.12868692367671 6.512758105309544 65.18655736092437 6.593777097158635 C 65.09396504103047 6.570628542557206 65.02452080111006 6.547479987955778 64.97822464116311 6.524331907982304 C 64.98979844383587 6.46646241999055 65.04766888108352 6.414379121393245 65.15183547827814 6.368082961446297 ZM 65.23864065952168 6.246554948300615 C 65.08817790238012 6.246554948300615 64.98401177981346 6.304425385548277 64.9261413425658 6.420165310787693 L 64.76989192140184 6.506971915915096 L 64.75253050545076 6.593777097158635 L 64.90878040124268 6.628498979804869 C 64.99365669447876 6.680367746566698 65.09582273484476 6.706301892633634 65.21527804771273 6.706301892633634 C 65.3890317478421 6.706301892633634 65.59936502443198 6.651432527942866 65.84627787748236 6.5416937985613295 L 66.22822143435866 6.5416937985613295 L 66.22822143435866 6.420165310787693 L 65.82891693615925 6.420165310787693 C 65.58586185912378 6.304425385548277 65.38910294203528 6.246554948300615 65.23864065952168 6.246554948300615 ZM 68.38099429577561 4.805586376666912 L 67.20044126787252 6.975720654034934 C 67.12328147592223 7.083744552616525 67.05126570174382 7.137756264593343 66.98439299608138 7.137756264593343 C 66.95095688056415 7.137756264593343 66.91880653217589 7.124253099285161 66.88794195091664 7.097247243296752 L 66.50599839404035 6.854193115517207 C 66.52914694864178 6.77317459829607 66.62173879390772 6.651647059778343 66.78377582834999 6.489610499964024 C 66.94581286279227 6.327573465521751 66.98053522006646 6.133707880444446 66.88794195091664 5.908014219360062 C 66.83560757413136 5.780448464003998 66.73520430198872 5.716665586325965 66.58673260911668 5.716665586325965 C 66.47252335903083 5.716665586325965 66.32987202876598 5.754406577391368 66.15877719443823 5.829889034150128 C 65.78891102049452 5.607969614560671 65.46246381183701 5.497009667451965 65.17943556846569 5.497009667451965 C 65.15248049766844 5.497009667451965 65.12591936807348 5.4980158787157025 65.09975217968083 5.500028775871134 C 65.07660409970735 5.2338256188622045 65.03609460378281 5.002344819127464 64.97822464116311 4.805586376666912 ZM 65.05107528591364 5.794444293129048 C 65.3473185954247 5.794444293129048 65.73391398088397 5.922000081298066 66.21086144229145 6.177111183008147 C 66.31502709023015 6.0613703085128225 66.41919321279681 6.00349987126516 66.52335980999142 6.00349987126516 C 66.62752593255807 6.00349987126516 66.68250256316658 6.055583169862465 66.68828922718899 6.1597492924291215 C 66.69407684046729 6.263916364251687 66.60148404594544 6.39991151208133 66.4105122675073 6.567734735918051 C 66.21954143832505 6.7355584343827255 66.12984245044235 6.877340720862726 66.14141625311512 6.993081595358051 L 66.19350002634037 7.0104420620532135 C 66.1587776690662 7.265070941761428 66.04303679457087 7.464723190861136 65.84627787748236 7.6093992839802915 C 65.64951896039385 7.754074902471493 65.38331627801288 7.832199613053474 65.04766888108352 7.843772941098279 C 65.0245203264821 7.84499131105772 65.0027187660158 7.845600258723463 64.98226325042874 7.845600258723463 C 64.80839658884618 7.845600258723463 64.73181916539617 7.801588483121973 64.75253050545076 7.713565406546947 C 64.77567858542425 7.615185948002694 64.75831764410113 7.531274098770356 64.70044768148142 7.461829384221979 L 64.70044768148142 7.461829384221979 C 64.73567361901543 7.4628360701136724 64.76873335456467 7.463339175745541 64.79962736275712 7.463339175745541 C 65.1240051935326 7.463339175745541 65.20957966448988 7.407859439505166 65.05634982637304 7.296899967024415 C 64.94266219240929 7.214574324416328 64.85154833859394 7.173411740426262 64.78300731567111 7.173411740426262 C 64.75036904974554 7.173411740426262 64.72284917168231 7.182745773781296 64.70044768148142 7.201413365863408 C 64.74674336680042 7.02780300337633 64.65415104690652 6.935210683482434 64.42267024717177 6.9236364061817195 C 64.67729912687999 6.495396689358472 64.87405804396849 6.119240745760485 65.01294652380933 5.795167626131848 C 65.02548524511379 5.794685404129981 65.03819483248189 5.794444293129048 65.05107528591364 5.794444293129048 ZM 66.297666623535 7.07988677660159 L 66.8011367696731 7.392385144301557 C 66.83585960157525 7.92479193294737 66.94581333742022 8.295161212522954 67.13099797720801 8.503493457656267 C 67.03179219139481 8.490266525817658 66.93825536187127 8.483653059898353 66.8503874886374 8.483653059898353 C 66.7844853971421 8.483653059898353 66.72177280550169 8.487373193806457 66.66224876446022 8.494813461622662 C 66.52335980999142 8.51217440294578 66.39025799417297 8.578725785482956 66.26294379163285 8.69446665997828 C 66.13562911446476 8.324096431146787 65.99095349597356 8.028958530141981 65.82891693615925 7.809052007707955 C 66.1298419758144 7.5891445360180185 66.28609187160632 7.346089458982564 66.297666623535 7.07988677660159 ZM 61.108923472920644 10.772739069874525 C 61.36104892748236 10.772739069874525 61.59757787014215 10.895951537631058 61.818510063586054 11.142376473144127 C 61.40184462406352 11.15395075044484 61.12406742706786 11.287052566263283 60.98517882857003 11.541680971343542 C 60.86943854735964 11.25232973436114 60.724762928868444 11.090293649174775 60.5511522104104 11.055571766528542 C 60.37754149195235 11.020848934626398 60.47013393050324 10.942724224044419 60.82892928874907 10.821196685526692 C 60.92430530159666 10.788891608425248 61.01763673587285 10.772739069874525 61.108923472920644 10.772739069874525 ZM 66.97474760678814 8.885437963788474 C 67.42613492895691 8.885437963788474 67.7096995019169 9.140066368868736 67.82543942715633 9.649325077541073 C 67.98747646159859 10.355341754046009 68.01062406694412 11.45487531547205 67.8948841417047 12.94792860958692 C 67.75599566186385 14.660886527624001 67.59395957667749 16.078707493912184 67.4087749368897 17.201388660683744 L 67.617107182023 17.513887503011667 L 61.853232420860245 17.513887503011667 L 63.05114591545849 17.027779247452575 C 62.70392471585638 15.3263946574603 62.26989786038278 14.079291670903903 61.74906582366563 13.286468389271564 C 61.22823390560548 12.493647006151043 61.14142848704796 11.981495914723414 61.48864980530706 11.750014165732765 C 61.598878825365695 11.67652751952307 61.70852452766813 11.639784671046177 61.81758714952835 11.639784671046177 C 62.05207163227374 11.639784671046177 62.28386022823703 11.809630284597421 62.512952937418234 12.14931866393218 L 64.85669710264538 15.482643129368352 L 65.27336254216792 15.44792124672212 C 65.52799189650408 12.855335340437115 65.79998171753542 10.9224699507101 66.08933295451781 9.649325077541073 C 66.22822190898661 9.140066368868736 66.52336028461937 8.885437963788474 66.97474760678814 8.885437963788474 ZM 67.47609806448105 0.0 C 67.14243603628576 0.0 66.91744909622577 0.19561554448731744 66.8011367696731 0.5868466063469764 L 65.3080848994421 4.475726593015873 L 64.56155872701262 4.475726593015873 C 64.70044768148142 4.938688667113309 64.76989192140184 5.349566967985484 64.76989192140184 5.7083624448883095 C 64.6888734041807 6.032435089888991 64.53551731502795 6.356508684145583 64.30982365394355 6.680582278402174 C 64.0919119928027 6.99348028283991 64.13564848419051 7.149929522372754 64.44103217885113 7.149929522372754 C 64.45193865461972 7.149929522372754 64.46317926846837 7.149730178631825 64.47475354576908 7.149331016522012 L 64.47475354576908 7.149331016522012 C 64.39373550317589 7.265071416389382 64.40530930584866 7.334516130937759 64.50947590304327 7.357664210911233 C 64.41688358314937 7.403960370858181 64.40530930584866 7.45314986281633 64.47475354576908 7.505232686785681 C 64.5441977856895 7.557315510755032 64.57313300431333 7.670162578611201 64.56155872701262 7.843772941098279 C 64.52683684436639 8.353031649770617 64.39084169653674 8.766803757281949 64.15357423277959 9.085090212888183 C 63.95880163368106 9.346370054124115 63.781578403203625 9.477009500114125 63.62190359209136 9.477009500114125 C 63.5870649509683 9.477009500114125 63.55306212967327 9.470790924653043 63.51989465357833 9.45835282447497 C 63.43759084385616 9.427488717843671 63.36900425664968 9.41205761378393 63.314134891958915 9.41205761378393 C 63.24554759281051 9.41205761378393 63.198393780149615 9.436169663133184 63.172673453976216 9.484395660343509 C 63.12637729402927 9.571200366959092 63.18714106328814 9.660898405585879 63.354965236380764 9.753491674735685 C 63.414635462832244 9.786413768178098 63.48527956222188 9.802873865643399 63.56689800917762 9.802873865643399 C 63.7148309993212 9.802873865643399 63.898815779639776 9.748797604264755 64.11885140087746 9.64064413225156 C 64.46028593645717 9.472820433786884 64.76989192140184 8.954882678336851 65.04766888108352 8.086828967389643 L 65.53377856052649 8.086828967389643 C 65.68424131766804 8.225716497974577 65.79998171753542 8.428263028341396 65.88100023475654 8.69446665997828 C 65.46433432060606 10.037055298439775 65.1229002596543 12.004642570813024 64.85669710264538 14.597229426353936 L 62.512952937418234 11.298625894308088 C 62.38563849756412 11.101866977219581 62.22360170043583 10.939830892033218 62.0268430206613 10.812516689493087 C 61.80754520857904 10.538394365061768 61.53414455595268 10.401333202846109 61.20664082546824 10.401333202846109 C 61.11930643405533 10.401333202846109 61.02812470844248 10.411080162521637 60.93309564862971 10.430573132616788 L 60.93309564862971 6.697942745097336 C 60.93309564862971 6.188684985680907 60.753697910178296 5.928268967322335 60.39490255193246 5.916694690021621 C 60.61480943033745 5.58104729309227 60.898373528669495 5.268548450764348 61.24559496558558 4.979197688409899 C 61.34439779226533 4.802763764220945 61.342074013799646 4.7145465648124905 61.23862351153153 4.7145465648124905 C 61.172415166348536 4.7145465648124905 61.06478556494022 4.750679990995685 60.9157345886496 4.822947317990029 C 60.54536519041703 5.123872357645191 60.29073613272333 5.343779354707173 60.151847593553995 5.482668783803926 C 59.862496475228575 5.783593823459088 59.69756649441032 6.006394152532271 59.657057591770716 6.151069296395518 C 59.61654815517466 6.295745389514673 59.50948810731186 6.674795139751817 59.335877418518066 7.288219021734902 C 59.34233217098147 7.475407066119033 59.372185385423535 7.569001325625075 59.42543706601578 7.569001325625075 C 59.46767120419002 7.569001325625075 59.52462334017041 7.510128948765266 59.596293436876635 7.392385144301557 C 59.64258962648783 7.241923336415908 59.706246876079135 7.050951557977759 59.78726518565054 6.819469808987109 C 59.868283495221945 6.587989009252368 60.02453309437139 6.420165785415647 60.25601401276312 6.315999662848991 C 60.452772870523134 6.315999662848991 60.5511522104104 6.443313865389122 60.5511522104104 6.697942745097336 L 60.5511522104104 10.500017847165164 C 59.879857535208686 10.858812849440035 59.691779444752704 11.101866977219581 59.98691787971396 11.229182129015621 C 60.26066625664555 11.347270513374363 60.48213916998672 11.554972452583977 60.65133691637995 11.852290794412184 L 60.651336797722955 11.852290794412184 C 60.73503553900368 12.425124019090488 60.97073684916766 13.039178681625227 61.358441321499825 13.694453832760493 C 61.76932033431393 14.388895282708805 62.14258342052867 15.407411750797573 62.47823081745802 16.750000389259068 L 61.15878954702807 17.322916199201472 L 61.24559496558558 17.999999555594393 L 68.6587712554573 17.999999555594393 L 67.8948841417047 17.09722491125686 C 68.26525342128028 13.497695864927895 68.39546095583161 11.197353578380588 68.28550864387051 10.196199000870847 C 68.1755544333976 9.195043474105196 67.92381841107262 8.64238288675302 67.53030152615152 8.53821628955841 C 67.25252504109778 8.260439329876721 67.14257177988077 7.959513815593604 67.20044126787252 7.635441170592921 L 67.63446812334612 6.854193115517207 C 68.31733719450554 7.3518770722608755 68.6587712554573 8.023170916863668 68.6587712554573 8.86807607320945 L 68.6587712554573 17.999999555594393 L 69.04071481233359 17.999999555594393 L 69.04071481233359 8.86807607320945 C 69.04071481233359 7.861134831677305 68.62983603683347 7.074099637951233 67.8080784858332 6.506971915915096 L 68.93654821513898 4.475726593015873 L 68.13794016799606 4.475726593015873 L 69.37057459598464 1.2812894208506582 C 69.54418685698353 0.8414756047121795 69.46606119714565 0.5579115063801338 69.1362004642387 0.4305970071975322 C 68.97844172617913 0.3697074615307012 68.83061030641784 0.33926268869728576 68.69270620495482 0.33926268869728576 C 68.54226528069917 0.33926268869728576 68.40363879548926 0.3754944815240698 68.276827698581 0.44795806717763775 C 68.19580965598782 0.19332906881243453 67.96143552424188 0.045760133142155365 67.57370435408727 0.005251256922273202 C 67.54019656974887 0.0017504189740910675 67.5076608234615 0.0 67.47609806448105 0.0 Z"
     style="fill:#ffffff;stroke:none"
     id="path14" />
</svg>
