<?xml version="1.0" encoding="UTF-8" standalone="no"?>
<svg
   width="68.52088928222656"
   height="18.0"
   version="1.1"
   id="svg20"
   sodipodi:docname="userrenputaanakhtu.svg"
   inkscape:version="1.1.1 (3bf5ae0d25, 2021-09-20)"
   xmlns:inkscape="http://www.inkscape.org/namespaces/inkscape"
   xmlns:sodipodi="http://sodipodi.sourceforge.net/DTD/sodipodi-0.dtd"
   xmlns="http://www.w3.org/2000/svg"
   xmlns:svg="http://www.w3.org/2000/svg">
  <defs
     id="defs24" />
  <sodipodi:namedview
     id="namedview22"
     pagecolor="#ffffff"
     bordercolor="#666666"
     borderopacity="1.0"
     inkscape:pageshadow="2"
     inkscape:pageopacity="0.0"
     inkscape:pagecheckerboard="0"
     showgrid="false"
     inkscape:zoom="20.066873"
     inkscape:cx="34.260445"
     inkscape:cy="8.994924"
     inkscape:window-width="1920"
     inkscape:window-height="1001"
     inkscape:window-x="-9"
     inkscape:window-y="-9"
     inkscape:window-maximized="1"
     inkscape:current-layer="svg20" />
  <path
     d="M 5.454143572319105 0.38638405261740716 C 5.6751986350969625 0.38638405261740716 6.0198472107908465 0.43846304248784007 6.211377729173311 0.48978353459751095 C 7.043040107707465 0.7126268987793605 6.2060781548689725 1.4576656313354053 5.670499150679329 1.4576656313354053 C 5.645675310396461 1.4576656313354053 5.621499128101075 1.4560650867138016 5.598166364823283 1.4527377590493051 L 5.598166364823283 1.4527377590493051 C 5.2452836289156854 1.5270191599566676 5.657208135444718 1.6516913405425198 6.100369028149615 1.6516913405425198 C 6.371794440716527 1.6516913405425198 6.654937462107786 1.6049233596160355 6.781255773411818 1.4711656717820771 C 6.852830518892686 1.3953753558318478 6.912108910323108 1.3639720239176871 6.9629476229505665 1.3639720239176871 C 7.148321731367289 1.3639720239176871 7.221486349139459 1.7814996563172263 7.369436559194839 1.9870992028133305 C 8.109766964545285 2.2320299455576382 8.572153297980249 2.899799787031018 9.050509706479392 3.4727819547688448 C 10.427930052921685 5.122675736613722 11.668260962471539 6.8783423742360466 12.967744634877972 8.588242400437956 C 12.611392476850998 8.48312787497829 12.224502817821092 8.278009345655091 11.870752268998066 8.107222788142833 C 10.250106465731893 7.324793393911243 8.524267466685542 6.706575791878325 7.056547618785348 5.653163124478057 C 6.324634327882369 5.1278539512763395 5.345499249842926 4.51876911966858 5.264370024428102 3.5973664697843573 C 5.202570523656583 2.8954927394447814 6.490844590161053 2.259560441267 6.397605624014208 1.8800112110189322 C 6.386753388715507 1.8358343194279554 6.355336487695676 1.8161086513304385 6.30878866169714 1.8161086513304385 C 6.033909073196996 1.8161086513304385 5.231366300354198 2.503995530499702 5.02003007139695 2.906660570796704 C 4.938768814010101 3.0614904698885916 4.879530977434828 3.123278383558639 4.83783143863071 3.123278383558639 C 4.6918117006651325 3.123278383558639 4.760840637983347 2.365644014318102 4.852316840087996 2.1923293342191177 C 5.162809689882786 1.604057223781083 4.223751651517808 0.8679923201596249 4.752486337822802 0.5290855725147102 L 4.752486337822802 0.5290855725147102 C 4.736400696667635 0.6173537864769199 4.7540868824444065 0.8663049485079197 5.0637960782712925 0.8663049485079197 C 5.3886697406864075 0.8663049485079197 5.369079611183729 0.4656883095505593 5.2689176568317215 0.41293273205443365 C 5.301349953848873 0.39420801419286505 5.36846244556854 0.38638405261740716 5.454143572319105 0.38638405261740716 ZM 6.069788227978029 5.863214709790646 C 6.323975692640863 6.762449405018629 6.696283899240764 7.629413412802606 7.135400893532303 8.452206779931927 C 7.351771108231227 8.857629702840873 8.265934259085897 9.502025616333867 7.620163139602537 9.830196723888633 C 7.602866036496212 9.834973658931888 7.585570762932224 9.837214848295345 7.568255974249969 9.837214848295345 C 7.310987560290759 9.837214848295345 7.049406915042022 9.342463910909716 6.712954689020212 9.320119100494184 C 6.67903192484543 8.693869197752123 6.575001708144468 8.06546836306859 6.448145511393205 7.446592735641611 C 6.344633665021206 6.9416012399454585 6.088178787554743 6.271072143703381 6.069788227978029 5.863214709790646 ZM 6.774795659418047 6.459697958701316 L 6.774795659418047 6.459697958701316 C 7.569842797304042 7.0356641099916315 8.405933278142431 7.553192239631892 9.246634815518807 8.060175497086155 C 9.468879080816052 8.556551677914943 9.280516719914718 9.282423820019444 9.395827284821362 9.864688475730382 C 8.857778398476073 9.501763991779603 8.28369911518318 9.486578790378216 7.938584616040677 8.798798329588251 C 7.554208138335073 8.032772611954833 6.9204552824668575 7.305266688542932 6.774795659418047 6.459697958701316 ZM 7.000934410504418 10.059063322600238 C 7.135474685073249 10.295082212156643 7.336466376730457 10.443322709596242 7.539293099352194 10.443322709596242 C 7.698827361641281 10.443322709596242 7.8594965500270755 10.351611411301223 7.9898569302021265 10.138767334534139 C 8.175012103385795 10.34420664361385 8.218963808807393 11.064965824732438 8.219863943637453 11.464443954739346 C 8.22078908221279 11.875067656666406 8.005229354769385 11.909575264541749 7.754371047313386 11.909575264541749 C 7.7036902851744005 11.909575264541749 7.6515684535208965 11.908167736636754 7.599499678595182 11.908167736636754 C 7.503209645676805 11.908167736636754 7.407101347297289 11.912984311763987 7.320625589324795 11.940433545301191 C 7.276695228563797 11.95437831699774 7.230527337524019 11.959987693804566 7.182692123567317 11.959987693804566 C 6.98565285320659 11.959987693804566 6.760333737087427 11.864796605983589 6.546653559472097 11.864796605983589 C 6.526873767413762 11.864796605983589 6.507193990336545 11.865612581866122 6.487645330460182 11.867394556102862 C 6.488004530605782 11.347772820181039 6.847494963589043 10.641789022980232 7.000934410504418 10.059063322600238 ZM 8.603951963501176 7.092214653796816 C 10.294832067562263 7.858253788074042 11.963344187004877 8.682241846349761 13.658331003766241 9.443264375537517 C 14.306199998463287 10.121921518537734 14.89692628748524 10.890737288235863 15.617332976780133 11.491755362753791 C 16.156479588527933 11.941553225211752 15.463364792129216 11.850415183515821 15.144459706666524 11.910077778837119 C 14.899576684484854 11.955893178053204 14.652335992077571 11.9891323032412 14.405890540739662 12.026157361372965 C 13.536195636093217 11.155342776815962 12.661034058942274 10.288166542120832 11.825686982140361 9.38497027788468 C 10.917455817391367 8.402968916849794 9.68127857879512 7.847318613522707 8.603951963501176 7.092214653796816 ZM 8.091606927303099 12.784580720746556 C 9.197498187112684 12.784580720746556 10.303223568417005 12.797552175919549 11.407920746927639 12.826530906850914 C 11.963618618355504 12.841107480501353 12.604689033726338 12.804320262873466 13.102683139828937 12.991104338584968 C 12.444715071428801 13.03259835879984 10.798614845620763 13.0486666193028 9.061392434150386 13.0486666193028 C 7.040896493935342 13.0486666193028 4.8971381879673626 13.026930436638214 4.041370674365262 12.998177349261805 C 4.035477718496122 12.998220038583016 4.0297003287179685 12.998241993091064 4.024036980412186 12.998241993091064 C 3.5148780921948943 12.998241993091064 3.9273603042131473 12.826321119329545 4.211845294908974 12.826321119329545 C 4.238601131900259 12.826321119329545 4.264224787108344 12.827842078859469 4.287843263914512 12.831169406523964 C 5.555116623774078 12.801636934111775 6.823471243155116 12.784580720746556 8.091606927303099 12.784580720746556 ZM 3.229631402039215 13.527964022410872 C 3.9800867996092 13.538300936617839 4.730666606058136 13.547631602539173 5.48073658004235 13.573154937842418 C 5.974628852224238 13.589961113754843 6.468692491538405 13.596169360753482 6.962812846665035 13.596169360753482 C 8.360743582405776 13.596169360753482 9.759126824951332 13.546476551476754 11.155349987843726 13.546476551476754 C 11.342591449139606 13.546476551476754 11.529792660504063 13.547370587832354 11.716949962852416 13.549397720742322 C 10.555885804617795 14.183214610592351 9.295635447944509 14.718425266924708 7.950956591174409 14.762796547389044 C 7.799163122515353 14.767805834309163 7.651256821476073 14.770698950592223 7.506199727703753 14.770698950592223 C 6.745573599355791 14.770698950592223 6.06331774657768 14.691151669451905 5.310047598121426 14.420004957167741 C 4.653584023370175 14.183703708243913 3.8042879059395918 13.89691074988931 3.229631402039215 13.527964022410872 ZM 9.878584352489678 15.08641697330296 C 9.849530000475026 15.08641697330296 9.823518177367665 15.092904530431793 9.801197760849965 15.106699279656667 C 9.544953890599764 15.265069343171648 10.169278504955312 16.43707782366929 10.695870187335629 16.718978585813375 C 10.73537854426685 16.740128095235065 10.774061167756402 16.749551457968167 10.810766665826547 16.749551457968167 C 11.003336974104167 16.749551457968167 11.141447905468382 16.490179680168257 11.058481819546692 16.304211580339288 C 10.844383896430964 15.824310428259835 10.18845698743205 15.08641697330296 9.878584352489678 15.08641697330296 ZM 5.031377807745396 15.140798289743296 C 4.989399568658528 15.140798289743296 4.926357808639836 15.166799745444079 4.836820006641786 15.226750188759814 C 4.404607095284589 15.5161398775388 3.394055116225315 16.294390597071498 4.0142925329988515 16.722726708215504 C 4.056939164886357 16.752178680764843 4.100021532773916 16.765133060209347 4.142866670005041 16.765133060209347 C 4.367006341163952 16.765133060209347 4.58465113702468 16.41059092940162 4.699421682018032 16.208593599306226 C 4.818436155386976 15.999129297083979 5.2725627150155 15.140798289743296 5.031377807745396 15.140798289743296 ZM 9.090395558979587 15.318185836009313 C 8.817462603526561 15.318185836009313 9.117006862126209 16.79410813205604 9.59252321107008 17.108873573056375 C 9.624085865629468 17.129766946550816 9.662353183008404 17.139328134806675 9.7019237443791 17.139328134806675 C 9.808466532556917 17.139328134806675 9.924459516755453 17.07001409380753 9.944487516724246 16.965927771141548 C 10.06708575860866 16.328790871796375 9.471438610546237 15.35620982425736 9.098430299078512 15.3185980928827 C 9.095698792368601 15.318322441837182 9.093020952233923 15.318185836009313 9.090395558979587 15.318185836009313 ZM 5.813290051342912 15.334595611081944 C 5.762056157570551 15.334595611081944 5.6837980939307355 15.397157421160761 5.569301065516842 15.551481756720047 C 5.266789289245744 15.95922088022829 4.5258087865180325 16.80730645047888 5.132767994853322 17.12234144405028 C 5.172965479398338 17.143205544867318 5.210868717852111 17.152645983328902 5.2466228539067465 17.152645983328902 C 5.501107314275703 17.152645983328902 5.646734005562437 16.67436092698092 5.736180330443612 16.43252348294377 C 5.81843167515878 16.21013773303909 6.004955346010909 15.334595611081944 5.813290051342912 15.334595611081944 ZM 8.084197280836158 15.497188258311914 C 8.061304827414261 15.497188258311914 8.040999346857612 15.508953435237036 8.024002288694641 15.534490187184089 C 7.779368084270872 15.902031826147313 7.859889291782196 17.025052481015617 8.44457443200567 17.350611002112412 C 8.477321410304873 17.36884544074299 8.5095817303423 17.37699910109386 8.54061320777636 17.37699910109386 C 8.712565793605062 17.37699910109386 8.846783458875045 17.126639648848553 8.816920449147212 16.95369179198824 C 8.746119600075112 16.543659642083643 8.300101572086461 15.497188258311914 8.084197280836158 15.497188258311914 ZM 6.75532262062497 15.485684096093609 C 6.738393255528486 15.485684096093609 6.719172693577984 15.49322303021907 6.697420045032361 15.509370570889988 C 6.3057388146205 15.800128757337436 5.679560264029602 16.97476811971643 6.318469380052385 17.354321313972893 C 6.352644621069744 17.374624355139762 6.386393578722462 17.383708642692973 6.419196662986684 17.383708642692973 C 6.610484462085705 17.383708642692973 6.7696040281116225 17.07479041900334 6.793552127462265 16.88013443246095 C 6.834695485395779 16.54571360828123 6.956077691473192 15.485684096093609 6.75532262062497 15.485684096093609 ZM 7.409580377164622 15.468416875512132 C 7.39733464045218 15.468416875512132 7.384780930779589 15.471718589583901 7.371922907231523 15.478607426332097 C 7.04806464081373 15.652117562537471 6.752394743037498 17.05085024766949 7.3581062034986005 17.423058439288273 C 7.389001684952238 17.442042990277237 7.419877041440165 17.450504013740805 7.449994967400358 17.450504013740805 C 7.6143226306137395 17.450504013740805 7.756113991313593 17.19863701860939 7.755634651221164 17.030030055868558 C 7.75432652844984 16.56993308974527 7.633263882434045 15.468416875512132 7.409580377164622 15.468416875512132 ZM 5.632034852575385 0.0 C 5.427092569164034 0.0 5.224417088708866 0.019432907972482025 5.033733343504948 0.05443384431604181 C 4.467006076095366 0.1584592489395021 3.5938344311601953 0.3646307561088724 3.603155949369841 1.0504667564332457 C 3.67258220229902 1.0309202310229437 3.7366997332121716 1.0218254998322194 3.7957738257482365 1.0218254998322194 C 4.346064179873848 1.0218254998322194 4.458737154577238 1.8110103266832265 4.348558760851052 2.292443415546627 C 4.124233391144884 3.272651977552607 4.609814357411156 4.257232688359666 5.247062553915197 4.998988307191039 C 5.671593826844609 6.267997902728908 6.207430796503842 7.594017867046124 6.200945678764793 8.927216345648308 C 6.198242225037389 9.48290994814405 6.608764082440994 9.519405658692827 6.457257851928928 10.084834255966495 C 6.320555668164599 10.595013723884398 6.084080612718707 11.65061086483566 5.574068852848409 11.775453955168208 C 5.5141812238195955 11.78026809090566 5.453413584926436 11.78228912534117 5.392016583469171 11.78228912534117 C 5.069385635036129 11.78228912534117 4.729385926421875 11.726455152284846 4.408483590574062 11.726455152284846 C 4.153773486650145 11.726455152284846 3.9110950629851815 11.761631152960828 3.698682758209751 11.887824445538461 C 3.254193922691541 12.151893268366223 2.920155472860361 12.347759192241154 2.3871648136927193 12.347759192241154 C 2.364082850177029 12.347759192241154 2.3406278124863467 12.34739206407876 2.31677439195167 12.346646830499944 C 2.290907712536418 12.345839392481654 2.2648745447684524 12.34543567347251 2.2387011120879436 12.34543567347251 C 1.3440312774539256 12.34543567347251 0.28566830681618954 12.817335627062558 0.12083169732265768 13.756412875622079 C -0.12329519978597013 15.147207786399061 0.07662177391650889 16.583104574880497 0.08494513861247754 17.989033459873415 C 0.2900051035231433 17.99360365663253 0.4966322048500206 17.999999736644487 0.702869308735284 17.999999736644487 C 0.8657836504929329 17.999999736644487 1.0284545868887616 17.996007675264025 1.1899174917253144 17.98397172607295 C 1.1137838316630781 17.140422201124508 1.057380489785133 16.29003262722354 1.1114740344619638 15.445312195179083 C 1.150002671471443 14.84365012175835 0.997819586525427 14.00504767929055 1.5763723295263372 13.66371240476991 C 1.7040717928333333 13.58837307100588 1.83171911418371 13.55691470035973 1.9589124041106598 13.55691470035973 C 2.4652981635298614 13.55691470035973 2.9644861984695505 14.055524752382627 3.4311076174921418 14.268706684634704 C 4.73678032670267 14.865220425917668 6.127831678330627 15.305327812461249 7.577851313962796 15.305327812461249 C 7.611054458151489 15.305327812461249 7.644288094712474 15.305097290126723 7.677552223645749 15.304632586372993 C 9.433900060865076 15.280083787288198 11.05346399476233 14.553760358073777 12.55629032072968 13.72891485428921 C 12.670762345398295 13.628126586610326 12.818380798443139 13.581008553249928 12.96633954636276 13.581008553249928 C 13.24669495507909 13.581008553249928 13.528272498076879 13.750179015030715 13.587881426822944 14.043930332742338 C 13.850096313415355 15.336104373662948 13.742097209536873 16.675576962787922 13.65541349358535 17.983352121067977 C 13.812261377875515 17.996239417293445 13.969778874661216 17.999448434553447 14.127512257442742 17.999448434553447 C 14.284036922586616 17.999448434553447 14.44077381464164 17.99628820508911 14.597282623751921 17.99628820508911 C 14.650358866658163 17.99628820508911 14.703408276276786 17.99665167416683 14.7564149965742 17.99762499069039 C 14.763825862736033 17.086932481649992 14.844901421575624 16.174760482705985 14.803086621604242 15.264876631378764 C 14.769945072007578 14.543717390335702 14.910211204245392 13.715322574416355 14.386286384745727 13.121748297822336 C 13.705550271802647 12.350515702696345 12.623079593303054 12.361563699025162 11.682409423214999 12.296510052282647 C 11.644045140092175 12.293857215893247 11.604677048073496 12.292852187302506 11.564630805695048 12.292852187302506 C 11.439513284011872 12.292852187302506 11.307763061507753 12.302662193316268 11.179225515348314 12.302662193316268 C 11.022081245199468 12.302662193316268 10.869737694144266 12.28799902132852 10.740179263360492 12.222823405096838 C 10.44570344688321 11.920581791244247 10.080689625582988 11.8638281682396 9.700766253926899 11.8638281682396 C 9.472275931089374 11.8638281682396 9.238393337135744 11.88435563326653 9.011219065086339 11.88435563326653 C 8.936831703185263 11.88435563326653 8.863163961270274 11.882155303681946 8.79064029316368 11.876311745455919 C 8.748275410796152 11.287905316117937 8.716179749569102 10.698756092590925 8.6841725162217 10.109697736333342 C 8.716601154154176 10.078576001477298 8.754075060006079 10.064937373198559 8.795398322936116 10.064937373198559 C 9.088549550761034 10.064937373198559 9.575443823501919 10.751298109134611 9.829342220475425 10.751298109134611 C 9.9047779101359 10.751298109134611 9.959645884838014 10.690709765390528 9.982754224255737 10.533531343784716 C 10.077034809840075 9.89225845906186 9.828121305888857 9.191179055020491 9.837226938102676 8.515557122758214 C 9.842454550408405 8.515291839119273 9.84775473456019 8.515160721918418 9.8531244413208 8.515160721918418 C 10.13787319103695 8.515160721918418 10.618515917610546 8.883683605421998 10.906077283746905 9.132975214789639 C 11.80432402611263 9.911679050974598 12.57521510666895 10.850011675802751 13.418602412196801 11.698699775329832 C 13.753165940678848 12.0785896053764 14.10034965220508 12.50165297550368 14.581990089200067 12.50165297550368 C 14.7115546184583 12.50165297550368 14.850847434172552 12.471038633722571 15.00224206260203 12.400734200471387 C 15.482807948397447 12.177569065530927 16.501952068121145 12.466298899373513 16.611020844419624 11.85703812677763 C 16.148715010847514 11.316222972418016 15.616514561507817 10.838956361304586 15.141690999262417 10.30954047540259 L 15.141690999262417 10.30954047540259 C 15.720475255599954 10.584491416053895 16.284632930796494 10.987831100087856 16.88805136486124 11.251485226652445 C 17.013493325385603 11.306294655999759 17.089085135992214 11.329256632030482 17.12721035891627 11.329256632030482 C 17.308927822047742 11.329256632030482 16.63947510654757 10.807612641978256 16.459826245952385 10.726662711712507 C 15.79457415965915 10.42689585879513 17.084456393878295 10.539115106998816 16.55768114741678 10.121722708270392 C 15.402974038957586 9.206783221617167 14.091566629290112 8.473895394495738 12.859382061921773 7.648877913731442 C 12.06805133437072 6.650734500652652 11.353425998862377 5.582082965275763 10.559610752816978 4.581358372882461 C 9.89897704123108 3.80707897991706 9.337823474552744 2.944969967649405 8.617586932695238 2.225430481422494 C 8.174952338336102 1.7832239999703352 7.524531741925666 1.6598222840760268 7.480633703079299 0.9374621771811809 C 7.138186066817449 0.2522410174286094 6.370398499913002 0.0 5.632034852575385 0.0 Z"
     style="fill:#ffffff;stroke:none"
     id="path2" />
  <path
     d="M 24.563005136734414 0.0 C 24.4434703583152 0.0 24.435189465367976 0.3768429095728596 24.263777184213808 0.9348237551299458 C 24.068787641096332 1.569550635195528 23.92565693765056 2.896758162392941 23.475294887070778 3.1544445837457293 C 23.40676717835486 3.1936544558153876 23.339276340480517 3.2066632228006466 23.27139419018175 3.2066632228006466 C 23.137523425623904 3.2066632228006466 23.00213085653198 3.156070105959156 22.854261876685054 3.156070105959156 C 22.799829981900434 3.156070105959156 22.743707397156957 3.1629255692070846 22.685347998390824 3.181684089430989 C 22.47416503541409 3.249564404018618 22.362910538038385 3.578693337423919 22.14055696683006 3.6175167922988556 C 21.21884961652227 3.7784499164170606 19.957809150004216 3.71760618857639 19.253164555011804 3.780954438314126 C 18.80060656366519 3.8216396102356835 20.00915651465987 4.71154097042447 21.217674455441568 4.71154097042447 C 21.234748404743748 4.71154097042447 21.251822354045927 4.71136321239586 21.268891561094332 4.711003107060795 C 21.519910985542776 4.705586229441989 21.78464990313906 4.694055209923481 22.04773790451783 4.694055209923481 C 22.488815540061168 4.694055209923481 22.92525280379742 4.7264665257905145 23.284618041322105 4.8744407530760645 C 23.63704826811618 5.019558613829609 24.052323147892242 5.440989856861565 24.0473254243168 5.855064487504693 L 23.900746337496752 17.999999658360725 L 25.259122710072074 17.999999658360725 L 25.19002470709569 4.28147178862879 C 25.188168803134342 3.9129763358033176 26.250781822011724 3.663166644995356 26.389926890623258 3.345121429494403 C 26.632135513509073 2.7915012392596235 26.50829782818046 0.34963637020013466 26.117531221866948 0.021896380540120233 C 26.113033729576834 0.01812435866279601 26.10842731842582 0.01628244004763657 26.103710764606475 0.01628244004763657 C 25.927855756544503 0.01628244004763657 25.59925061271748 2.5768784595605925 25.082428170115946 3.12720507806047 C 25.029645355837697 3.183409657901481 24.925620500830387 3.2089823378726905 24.835502381507073 3.2089823378726905 C 24.73898925647982 3.2089823378726905 24.65842540173036 3.179651651248457 24.67383497293334 3.12720507806047 C 25.002336093129163 2.0091645970575103 25.13460458781467 0.37804323519375654 24.61935596156282 0.021896380540120233 C 24.5979913434255 0.00712905218031586 24.579445765693702 0.0 24.563005136734414 0.0 Z"
     style="fill:#ffffff;stroke:none"
     id="path4" />
  <path
     d="M 30.25837916296775 0.0 C 29.32855195875983 0.0 28.513212203979492 0.6839976251482283 28.513212203979492 1.5619743615408133 L 28.513212203979492 17.99999905106683 L 29.649193557827356 17.99999905106683 L 29.649193557827356 1.5619743615408133 C 29.649193557827356 1.1313441510315352 30.02771798083681 0.992015871578576 30.26555706712668 0.992015871578576 C 30.515118610813666 0.992015871578576 30.899397212639045 1.166951684911138 30.899397212639045 1.694609547086237 L 30.899397212639045 12.498603637432174 L 32.035378566486905 12.498603637432174 L 32.035378566486905 1.694609547086237 C 32.035378566486905 0.8155222348293883 31.164777605103932 0.0 30.25837916296775 0.0 Z"
     style="fill:#ffffff;stroke:none"
     id="path6" />
  <path
     d="M 35.469262048655956 7.457925246591643 L 35.469262048655956 9.113959811533645 C 34.90378653151751 9.113959811533645 34.621048772948285 8.831221993287294 34.621048772948285 8.265747311628635 C 34.621048772948285 7.727199427409647 34.90378653151751 7.457925246591643 35.469262048655956 7.457925246591643 ZM 37.56414884309904 0.0 C 37.101040248269044 0.0 36.70904363494355 0.11636472253868058 36.38815900312255 0.3490941595736163 C 35.77556111304766 0.7933964326013556 35.469262048655956 1.439653774309885 35.469262048655956 2.2878660355063856 L 35.469262048655956 6.872254870081951 C 34.52680334078842 6.872254870081951 34.04884214203174 7.33675250973652 34.03537845611572 8.265747311628635 C 34.03537845611572 9.20820670578314 34.51333964368295 9.679435448026348 35.469262048655956 9.679435448026348 L 35.469262048655956 17.999999662438427 L 36.215641497837005 17.999999662438427 L 36.215641497837005 2.732168696435455 C 36.215641497837005 1.7089278357736342 36.4142307466764 1.0525725272853337 36.81140924435519 0.7631030096790641 C 37.01717669682403 0.6131367748295072 37.28731643470234 0.5381535977276011 37.64967189611141 0.5381535977276011 C 37.986746455263045 0.5381535977276011 38.40361816637755 0.6030388080497362 38.922700326371654 0.7328092286940062 C 39.00348262835875 0.7613205135515008 39.074201934362925 0.7755761858188119 39.13485824438416 0.7755761858188119 C 39.24606203640962 0.7755761858188119 39.32344321953429 0.7276613006263779 39.36700227117519 0.63183153024151 C 39.38046590860353 0.47026731416863304 39.25929269433139 0.3558260081263536 39.00348262835875 0.28850755243754406 C 38.46493474413977 0.09616918434010951 37.985156656580855 0.0 37.56414884309904 0.0 Z"
     style="fill:#ffffff;stroke:none"
     id="path8" />
  <path
     d="M 42.80088607972285 7.457925246591643 L 42.80088607972285 9.113959811533645 C 42.235410562584406 9.113959811533645 41.95267280401518 8.831221993287294 41.95267280401518 8.265747311628635 C 41.95267280401518 7.727199427409647 42.235410562584406 7.457925246591643 42.80088607972285 7.457925246591643 ZM 44.895772874165935 0.0 C 44.43266427933594 0.0 44.04066766601044 0.11636472253868058 43.71978303418945 0.3490941595736163 C 43.10718514411455 0.7933964326013556 42.80088607972285 1.439653774309885 42.80088607972285 2.2878660355063856 L 42.80088607972285 6.872254870081951 C 41.85842737185531 6.872254870081951 41.38046617309863 7.33675250973652 41.36700248718262 8.265747311628635 C 41.36700248718262 9.20820670578314 41.84496367474984 9.679435448026348 42.80088607972285 9.679435448026348 L 42.80088607972285 17.999999662438427 L 43.5472655289039 17.999999662438427 L 43.5472655289039 2.732168696435455 C 43.5472655289039 1.7089278357736342 43.7458547777433 1.0525725272853337 44.143033275422084 0.7631030096790641 C 44.348800727890925 0.6131367748295072 44.618940465769235 0.5381535977276011 44.9812959271783 0.5381535977276011 C 45.31837048632994 0.5381535977276011 45.73524219744444 0.6030388080497362 46.25432435743855 0.7328092286940062 C 46.33510665942565 0.7613205135515008 46.40582596542982 0.7755761858188119 46.46648227545106 0.7755761858188119 C 46.57768606747651 0.7755761858188119 46.655067250601185 0.7276613006263779 46.69862630224208 0.63183153024151 C 46.71208993967043 0.47026731416863304 46.59091672539829 0.3558260081263536 46.33510665942565 0.28850755243754406 C 45.79655877520666 0.09616918434010951 45.31678068764775 0.0 44.895772874165935 0.0 Z"
     style="fill:#ffffff;stroke:none"
     id="path10" />
  <path
     d="M 50.132510110789745 7.457925246591643 L 50.132510110789745 9.113959811533645 C 49.5670345936513 9.113959811533645 49.284296835082074 8.831221993287294 49.284296835082074 8.265747311628635 C 49.284296835082074 7.727199427409647 49.5670345936513 7.457925246591643 50.132510110789745 7.457925246591643 ZM 52.22739690523283 0.0 C 51.76428831040283 0.0 51.37229169707734 0.11636472253868058 51.05140706525634 0.3490941595736163 C 50.43880917518145 0.7933964326013556 50.132510110789745 1.439653774309885 50.132510110789745 2.2878660355063856 L 50.132510110789745 6.872254870081951 C 49.19005140292221 6.872254870081951 48.71209020416553 7.33675250973652 48.69862651824951 8.265747311628635 C 48.69862651824951 9.20820670578314 49.176587705816736 9.679435448026348 50.132510110789745 9.679435448026348 L 50.132510110789745 17.999999662438427 L 50.878889559970794 17.999999662438427 L 50.878889559970794 2.732168696435455 C 50.878889559970794 1.7089278357736342 51.07747880881019 1.0525725272853337 51.47465730648898 0.7631030096790641 C 51.68042475895782 0.6131367748295072 51.95056449683613 0.5381535977276011 52.312919958245196 0.5381535977276011 C 52.649994517396834 0.5381535977276011 53.06686622851134 0.6030388080497362 53.58594838850544 0.7328092286940062 C 53.66673069049254 0.7613205135515008 53.737449996496714 0.7755761858188119 53.79810630651795 0.7755761858188119 C 53.90931009854341 0.7755761858188119 53.98669128166808 0.7276613006263779 54.03025033330898 0.63183153024151 C 54.04371397073732 0.47026731416863304 53.92254075646518 0.3558260081263536 53.66673069049254 0.28850755243754406 C 53.12818280627356 0.09616918434010951 52.648404718714644 0.0 52.22739690523283 0.0 Z"
     style="fill:#ffffff;stroke:none"
     id="path12" />
  <path
     d="M 68.13584599799633 0.9719711351031904 C 68.13584932433218 0.9719711351031904 68.13577115543974 0.9720576198352582 68.13560317547937 0.9722322524673181 L 68.13560317547937 0.9722322524673181 C 68.13559984914352 0.9722355788031669 68.13559569122371 0.9722397367229778 68.13559236488787 0.9722430630588267 L 68.13559236488787 0.9722430630588267 C 68.13575535534446 0.9720617777550692 68.13584267166048 0.9719711351031904 68.13584599799633 0.9719711351031904 ZM 68.13190844793536 1.1131250284293177 C 68.13193672179007 1.113157460203843 68.1319649956448 1.1131898919783685 68.1319932694995 1.1132223237528938 L 68.1319932694995 1.1132223237528938 C 68.13215127045233 1.1134044406406136 68.13222361825703 1.1134950832924924 68.13221946033723 1.1134950832924924 C 68.1322153024174 1.1134950832924924 68.13210636491836 1.1133711772821258 68.13190844793536 1.1131250284293177 ZM 57.53193376878657 0.5911056804200776 L 57.53193376878657 1.3944132931439268 L 57.53193376878657 1.3944132931439268 C 57.49361708245672 1.3768327765992636 57.45597636994014 1.359856821595113 57.419309754087266 1.3433099639154522 L 57.419309754087266 1.3433099639154522 C 57.3360138346705 1.3057198740725686 57.25815377171858 1.2705613357351289 57.184080014494505 1.2340947158251643 L 57.184080014494505 1.2340947158251643 C 57.04671388216816 1.1664686448519326 56.87915205261673 1.1459518053367759 56.75971299945129 1.1297916341995338 L 56.75971299945129 1.1297916341995338 C 56.62406195707296 1.1114394077379581 56.53809563964461 1.0975669240807011 56.48170886769936 1.0698078198388299 L 56.48170886769936 1.0698078198388299 C 56.451251637318165 1.0548126978326162 56.43899071140564 1.0459263916126518 56.43899071140564 0.9927632289098319 C 56.43899071140564 0.9288676435909857 56.4424202936007 0.898662850916313 56.75971409090524 0.8557348236201304 L 56.75971409090524 0.8557348236201304 C 56.87915298814869 0.8395754840668505 57.04671440190814 0.8190586445516939 57.184079910546515 0.7514334051624243 L 57.1840802223905 0.7514334051624243 L 57.18408053423448 0.7514334051624243 C 57.258155019094524 0.7149659536684972 57.33601580968241 0.6798065837470956 57.419312664631136 0.6422164939042119 L 57.419312664631136 0.6422164939042119 C 57.45600100561502 0.6256596572170049 57.49367311042617 0.6086620810298372 57.53193376878657 0.5911056804200776 ZM 57.94067402183029 1.4522208522755788 L 57.94067402183029 1.4522216838595408 L 57.9406738139343 1.4522216838595408 C 57.9406738139343 1.4522216838595408 57.9406738139343 1.4522216838595408 57.9406738139343 1.4522208522755788 ZM 65.35271409868156 0.5308740540386413 C 65.39472322569952 0.5308740540386413 65.43673318430145 0.5311243608112606 65.47874563765525 0.5316382796998941 L 65.47874563765525 0.5316382796998941 C 65.51574197654914 0.5320914929592877 65.55272833643546 0.532748444289418 65.58970638048218 0.5336182811138689 L 65.58970638048218 0.5336182811138689 C 66.35856146965249 0.5517085586273546 67.62525095045966 0.8380661591754753 68.02383912254497 1.0398957447188484 L 68.02383912254497 1.0398957447188484 C 67.61953630547148 1.2189781825604706 66.36467444335855 1.4336740351668504 65.58970638048218 1.451908176705795 L 65.58970638048218 1.451908176705795 L 65.58970638048218 1.451908176705795 C 65.5106576722043 1.4537684300292149 65.4316206061019 1.4546557301168717 65.35258270841553 1.4546557301168717 C 64.53628991212209 1.4546557301168717 63.719898988921095 1.3599507905828403 62.88937654365863 1.2633240605121876 L 62.88937654365863 1.2633240605121876 C 62.06256046811564 1.1671289225179116 61.221634491694196 1.0690369415058796 60.37446706184453 1.0690369415058796 C 60.33082886184464 1.0690369415058796 60.2871740301655 1.069297227286045 60.243503814183065 1.0698311041897712 L 60.243503814183065 1.0698311041897712 C 59.51518303787377 1.0787398631767149 58.64359136336661 1.155653895423649 57.9406738139343 1.4522208522755788 L 57.94067402183029 1.4522208522755788 L 57.94067402183029 0.5333056055440853 L 57.94067402183029 0.5333056055440853 C 58.6435915712626 0.8298742255639395 59.51518345366575 0.9067874262269113 60.243503814183065 0.9156970167978171 L 60.243503814183065 0.9156970167978171 L 60.243503814183065 0.9156970167978171 C 60.28717111962163 0.9162308937015433 60.330822624964924 0.9164911794817089 60.37445749862896 0.9164911794817089 C 61.221627423230515 0.9164911794817089 62.06255589440385 0.818399198469677 62.88937404890674 0.7222032288914387 C 63.71978506191827 0.6255889725802188 64.5360695423721 0.5308740540386413 65.35271409868156 0.5308740540386413 ZM 57.7832789818786 0.0 L 57.68479251822451 0.0566134045619468 C 57.62686375573037 0.08991335274389127 57.567457268535414 0.12096469789207345 57.50682658580012 0.15081357263092857 L 57.50682658580012 0.15081357263092857 C 57.422614676649005 0.1922721910659211 57.33779061775372 0.23057162202855308 57.2511834349475 0.26965606825149263 L 57.2511834349475 0.26965606825149263 C 57.16908458064431 0.3067056285189527 57.08484990688222 0.34469737341557427 57.00354635869087 0.38472317268371314 L 57.00354635869087 0.38472317268371314 L 57.00354635869087 0.38472317268371314 C 56.937987709395635 0.4169977778402771 56.843500696833694 0.4319346889691375 56.70491322753688 0.4506852441486022 L 56.70491322753688 0.4506852441486022 C 56.516798800359915 0.47613587131143337 56.030250549316406 0.5122224573506772 56.030250549316406 0.9927632289098319 C 56.030250549316406 1.2144867975806815 56.14289673742245 1.3585953087244704 56.30117422438976 1.436517220733579 L 56.30117422438976 1.436517220733579 C 56.429858178371866 1.499868950141153 56.590336030006384 1.5193404886158364 56.70491166831695 1.5348420452550242 L 56.70491166831695 1.5348420452550242 C 56.84350007314573 1.5535917688505265 56.93798739755165 1.5685295115633493 57.003546150794875 1.6008041167199132 L 57.00354651461286 1.6008049483038753 L 57.003546930404845 1.6008049483038753 C 57.084849595038236 1.640830747572014 57.169083125372374 1.6788216608846738 57.251181148091604 1.7158703895681717 L 57.251181148091604 1.7158703895681717 C 57.400937257766614 1.7834523865914071 57.54564440541519 1.8489254866865281 57.68479293401649 1.9289130532577174 L 57.7832790858266 1.9855264578196639 L 57.88335356300449 1.931770375751803 C 58.52780098878327 1.5856002671391896 59.43987209160995 1.4884321759091512 60.24850329696375 1.4785413162628607 L 60.24850329696375 1.4785413162628607 L 60.24850329696375 1.4785413162628607 C 60.29065670379915 1.4780257342063028 60.33280553692276 1.4777737642657593 60.374951459502505 1.4777737642657593 C 61.19352944852405 1.4777737642657593 62.011100389367385 1.572639199504493 62.84214049564632 1.6693258036204235 L 62.84214049564632 1.6693258036204235 C 63.66819276132003 1.7654327937147076 64.50773331886047 1.863385900205054 65.35332281814188 1.863385900205054 C 65.43526793336007 1.863385900205054 65.51726959628768 1.8624661683428714 65.59932115425302 1.8605352303826657 L 65.59932115425302 1.8605352303826657 C 66.41281567051371 1.841394662324934 68.10734428927623 1.5900317780737012 68.42968203311644 1.2561084064722632 L 68.42968203311644 1.2561084064722632 C 68.4708703867637 1.2134406649562461 68.5208934884253 1.1422529198729539 68.5208934884253 1.0456236950504145 C 68.5208934884253 0.9558342483168895 68.47741079462634 0.8876119316427675 68.44064563607395 0.8452635183682314 L 68.44064563607395 0.8452635183682314 C 68.13253629382682 0.49036260973658335 66.42887023048775 0.14451016619752682 65.59932115425302 0.12499122743699839 L 65.59932115425302 0.12499122743699839 L 65.59932115425302 0.12499122743699839 C 65.5607730796857 0.1240839693342489 65.52224828946932 0.12340040731732856 65.48374512043594 0.1229288992107667 L 65.48374512043594 0.1229288992107667 C 65.4402158579351 0.12239668547496498 65.39670073236161 0.12213723127876162 65.35319974371548 0.12213723127876162 C 64.5079570149463 0.12213723127876162 63.66830419357097 0.2200811903455237 62.84213758510245 0.3162014857832026 C 62.01109539986361 0.4128889214830953 61.19352238006037 0.5077543567218292 60.37494189628694 0.5077543567218292 C 60.33279930004305 0.5077543567218292 60.2906533774633 0.5075023867812856 60.24850329696375 0.5069868047247277 L 60.24850329696375 0.5069868047247277 C 59.43987167581797 0.49709511349447527 58.52780119667926 0.39992785384839885 57.883353770900484 0.05375608206786127 L 57.7832789818786 0.0 Z"
     style="fill:#ffffff;stroke:none"
     id="path14" />
  <path
     d="M 57.34968464589547 3.5972287392288327 C 57.48506219213556 3.9786554570022408 57.660622302092584 4.392836392431861 57.877458831911326 4.846293666582195 C 58.094294145320674 5.299751016758115 58.346808874881816 5.760152696095561 58.61634117182178 6.200913165049173 C 58.61189610780505 6.200802775896948 58.607394784853994 6.2007471251673145 58.602836290661564 6.2007471251673145 C 58.47322026750152 6.2007471251673145 58.298010179346726 6.24538722109724 58.0885677460618 6.341652035679691 C 57.866942364522224 6.443515982688496 57.725087894429066 6.542262272428401 57.64875638053544 6.640723618268486 C 57.4755827137522 6.155674899801268 57.2698576275659 5.685676966778941 57.05061298728109 5.233327461455792 C 56.831368346996285 4.780977347927946 56.62493029285573 4.385249723086349 56.417284382202794 4.037040750972677 L 57.34968464589547 3.5972287392288327 ZM 58.93597706747094 6.4995720807521025 C 58.952506854683996 6.4995720807521025 58.96911023466521 6.4997110555250135 58.9857835581864 6.499984139433273 L 58.96818971685864 6.69350058071655 C 58.75002547618972 6.753442802681763 58.629004297683494 6.852217982144702 58.59874885100576 7.010165396428409 C 58.48115064852555 6.862557766069775 58.37556236006412 6.79267839168788 58.299677268416964 6.781463401206047 C 58.25993154772254 6.845824534386084 58.263983711506 6.965652415279833 58.299677268416964 7.150904875263622 C 58.24438507545085 7.120698084961527 58.18616057559677 7.105513950637158 58.12477204286577 7.105513950637158 C 58.027182558456616 7.105513950637158 57.921598071274545 7.143885280771034 57.80708833223785 7.221274766732402 L 57.64875638053544 7.098127304610863 C 57.828067745002855 6.883193239079503 58.01475845704022 6.727504697034715 58.229307376948185 6.623131601554812 C 58.435253697592465 6.533890030693122 58.67650842952431 6.4995720807521025 58.93597706747094 6.4995720807521025 ZM 58.44041689930335 7.0805358961018845 C 58.506665747806906 7.096178616766626 58.56300952669146 7.140309341264109 58.581156074036215 7.221274766732402 C 58.59930383779036 7.302239583996 58.616766002801555 7.3772044619389385 58.633934100842495 7.44997737015946 C 58.583039836029215 7.39270547090964 58.527475471461884 7.339516145678058 58.47560154093539 7.274051729180465 C 58.42372897886947 7.208588224989917 58.40548937620631 7.142682555985772 58.44041689930335 7.0805358961018845 ZM 58.95059830834966 6.8518332926748275 C 58.97291364272824 7.463836834657129 58.920671900412174 7.803670904139979 58.8098585254121 7.854603485849077 C 58.7972680800115 7.860390249423979 58.782481711557956 7.863290169411906 58.76547357135192 7.863290169411906 C 58.63278307345635 7.863290169411906 58.36476718287333 7.686754195021024 57.94782811517541 7.3268299080379204 C 58.01358310146625 7.285807413636558 58.07358188646815 7.2652972307940935 58.12880459204781 7.2652972307940935 C 58.19142762825941 7.2652972307940935 58.247908709353965 7.291673243821869 58.299677268416964 7.344422228853942 C 58.39709721576726 7.443686404892026 58.48278383018402 7.520947255560306 58.56356436142489 7.573123311769261 C 58.62849735906983 7.615065715772498 58.67063864600848 7.627973644024129 58.69218034401444 7.627973644024129 C 58.6974373612996 7.627973644024129 58.701467933816375 7.627205177391422 58.70430338410658 7.625901490626715 C 58.71875797689875 7.619258070738266 58.73113676706534 7.578306432183924 58.73948863394332 7.485162011791502 C 58.747839892616604 7.392017287296733 58.75500393572436 7.270223384724927 58.73948863394332 7.133312554447601 C 58.72397424446932 6.996402028272621 58.79220629643358 6.901587173684134 58.95059830834966 6.8518332926748275 ZM 67.676455727408 7.256459408364445 C 67.70454626947225 7.256459408364445 67.73095695016767 7.274051729180465 67.76441793969279 7.274051729180465 C 67.9651765783872 7.274051729180465 68.06348800176985 7.380395103771293 68.06348921817924 7.590716240789978 L 68.06348921817924 9.789773372524103 L 67.21905173696327 9.789773372524103 L 67.53571594447044 7.467569690975481 C 67.54288546142045 7.3671885470141945 67.50722155448838 7.301219928824071 67.62367815675523 7.274051729180465 C 67.63661831985573 7.27103381748162 67.66241228098994 7.256459408364445 67.676455727408 7.256459408364445 ZM 57.5256089184139 3.2453801561791806 L 56.030250549316406 3.9490786147134624 C 56.69715087518719 4.950454042469862 57.15036904886662 5.90148547861119 57.402461608343536 6.834240971858806 C 57.18144716842055 7.097151136074658 57.1167207322953 7.274458618121725 57.208945015009085 7.344422228853942 C 57.25404400138173 7.378636175792039 57.297376533242016 7.394707984869424 57.33592462286551 7.394707984869424 C 57.376204195231374 7.394707984869424 57.41125989746798 7.377159150689128 57.43764685818027 7.344422228853942 C 57.86390346976138 7.523013022808417 58.254645184560815 7.780032116344097 58.633934100842495 8.118489818601134 C 58.75867992490369 8.322165102912589 58.900859024253045 8.602363181494386 59.056153145552834 8.910150641471393 L 59.03856021653211 8.910150641471393 L 58.317269589232986 8.945335283103434 L 58.3348625182537 9.068482745224973 C 58.438497405284494 9.2822302033955 58.650805699094406 9.402739273548159 58.96818971685864 9.402739273548159 C 58.69179139711169 9.886102048599577 59.04249955834457 10.862912848962438 59.49596390287449 10.862912848962438 L 59.49598701465292 10.862912848962438 C 59.49841283908074 10.862912848962438 59.50380396550125 10.862969411999117 59.50820098134704 10.862969411999117 C 59.51039933721876 10.862969411999117 59.51234954557473 10.86295542329112 59.51355683189521 10.862912848962438 L 59.95336758921687 10.862912848962438 C 60.08090537693255 11.159190035077968 60.1833449896856 11.388017928672289 60.322809975581485 11.72494325919913 C 60.4508048291258 11.992613537463956 60.58134167419476 12.122844151468758 60.71929070988723 12.122844151468758 C 60.756616840251965 12.122844151468758 60.79448457689801 12.11331054286751 60.832990928474274 12.094385037359052 L 60.850583249290295 12.094385037359052 C 61.03592329075023 12.014960194384345 61.04839513623522 11.80114948292549 60.88576789092234 11.461056622344724 C 60.759207488152256 11.227577787444261 60.68303532388884 11.077797649913466 60.56910337931283 10.862912848962438 L 68.52089320862396 10.862912848962438 L 68.52089320862396 7.590716240789978 C 68.52089320862396 7.122274551532145 68.27913062577142 6.887018542511565 67.78200965230413 6.887018542511565 C 67.28488624601805 6.887018542511565 67.11502683867151 7.031995991664704 67.09590488304643 7.309236979017204 C 66.88558405013009 9.116082669305328 66.75282634561567 9.692251398836149 66.53294575129618 9.701811160239302 L 66.53294575129618 9.719403481055323 C 65.1748094612289 9.745406664604783 63.9917874670769 9.907851448509028 61.83576020934148 10.018475367746465 C 61.1362195901565 10.00551999952859 60.78021274961682 9.977692810097459 60.78021274961682 9.912920226440946 C 60.42123543734454 9.380241781863297 60.03398998723692 9.081120630591823 59.61911136499603 8.998112245551498 C 59.41490359747371 8.564729907758444 59.24823635247127 8.175824667036935 59.144115357837634 7.88978812748112 C 59.12135420941729 7.387460617718388 59.16982173749571 6.91785816979928 59.302447461591214 6.482391818617252 C 59.304220378278465 6.482435913457672 59.30597231190372 6.482458112929056 59.30770295836464 6.482458112929056 C 59.38721751153192 6.482458112929056 59.42154701736216 6.435879364532369 59.425594011405714 6.32405971486367 C 59.429728586925414 6.2098063341061085 59.262915372796066 6.149741862997109 58.915413058512925 6.148135594396415 C 58.34533625926295 5.361532297671209 57.87934335416019 4.390694143443297 57.5256089184139 3.2453801561791806 Z"
     style="fill:#ffffff;stroke:none"
     id="path16" />
  <path
     d="M 56.535832239605725 13.382698219029407 L 56.535832239605725 17.99999972346433 L 57.30750836849039 17.99999972346433 L 57.30750836849039 13.382698219029407 ZM 61.841902449864435 13.389075707354268 L 61.841902449864435 17.99999972346433 L 62.6135785787491 17.99999972346433 L 62.6135785787491 13.389075707354268 ZM 67.2436359602618 13.389075707354268 L 67.2436359602618 17.99999972346433 L 68.01531148094176 17.99999972346433 L 68.01531148094176 13.389075707354268 Z"
     style="fill:#ffffff;stroke:none"
     id="path18" />
</svg>
