<?xml version="1.0" encoding="UTF-8" standalone="no"?>
<svg
   width="92.18756103515625"
   height="18.0"
   version="1.1"
   id="svg32"
   sodipodi:docname="usermaatreakhenamun.svg"
   inkscape:version="1.1.1 (3bf5ae0d25, 2021-09-20)"
   xmlns:inkscape="http://www.inkscape.org/namespaces/inkscape"
   xmlns:sodipodi="http://sodipodi.sourceforge.net/DTD/sodipodi-0.dtd"
   xmlns="http://www.w3.org/2000/svg"
   xmlns:svg="http://www.w3.org/2000/svg">
  <defs
     id="defs36" />
  <sodipodi:namedview
     id="namedview34"
     pagecolor="#ffffff"
     bordercolor="#666666"
     borderopacity="1.0"
     inkscape:pageshadow="2"
     inkscape:pageopacity="0.0"
     inkscape:pagecheckerboard="0"
     showgrid="false"
     inkscape:zoom="14.915244"
     inkscape:cx="46.093781"
     inkscape:cy="9.0176196"
     inkscape:window-width="1920"
     inkscape:window-height="1001"
     inkscape:window-x="-9"
     inkscape:window-y="-9"
     inkscape:window-maximized="1"
     inkscape:current-layer="svg32" />
  <path
     d="M 1.2190420140847793 0.0 C 0.970800706632417 0.0 0.7230423028937335 0.01893070358296025 0.48290982680079 0.048905678499779795 C 0.15187998957905166 0.13255188916498697 0.3219916247400915 0.5118521231009919 0.6158947927962716 0.5118521231009919 C 0.6355981423211179 0.5118521231009919 0.6558578408244597 0.5101473851910305 0.6765601864318946 0.5065345630073116 C 1.2976180869590601 0.5780119512905144 2.0622053316712337 0.6175539511807123 2.531371224901928 0.9695623988344474 C 3.1537543888207784 1.6479367557428735 2.8741262715941502 3.0576933712068692 2.94658764204448 3.7269297850416896 C 2.951782632395561 3.7629649381631523 2.953952713884158 6.430591781037886 2.953952713884158 7.782422252231933 C 2.352510186605274 7.494257626556917 1.67335422808609 7.349215125535265 1.0039192969246102 7.349215125535265 C 0.7063920462481148 7.349215125535265 0.41078504023889434 7.377865539465801 0.12477432975315178 7.4353349446232855 C -0.20149863151174055 7.606724672263251 0.18154647682350566 7.8266562324049085 0.4376378670454302 7.8266562324049085 C 0.4681373192956425 7.8266562324049085 0.4968360674978842 7.823536850015894 0.5223214865886322 7.816844331348357 C 1.429843884416301 7.914926816832979 2.4617098179841825 8.158078494744517 2.9226503683594482 9.002292523011262 C 2.9681809889039896 9.155077638776014 2.9396896697969415 9.207577525716367 2.870237404087557 9.207577525716367 C 2.717627362869183 9.207577525716367 2.3672466519332462 8.954092059534803 2.1698535251191053 8.954092059534803 C 2.1594948014573196 8.954092059534803 2.1495575210365625 8.954790250504107 2.140092081444407 8.956259682604495 C 1.7610785167129768 8.874396440250864 1.3638924072290621 8.831466124503471 0.9703996331480379 8.831466124503471 C 0.6822712691518855 8.831466124503471 0.39612316158451694 8.854483949517657 0.1205398348885778 8.90208807080806 C -0.19080937123302597 9.107627344268586 0.19133570335568265 9.296978982841198 0.44461121617263977 9.296978982841198 C 0.47243301123084086 9.296978982841198 0.4986997685303211 9.294694058069421 0.5223214865886322 9.289895224364907 C 1.44862453664532 9.401605077048192 2.473672484380784 9.652726246647584 2.9226503683594482 10.498359836231193 C 2.9277747669676573 11.438445880183364 2.9223641381582497 12.059730482053933 2.9475081443234266 12.924290385186742 C 2.9366830234749024 13.190445840004433 3.1097205941872907 13.32271720601211 3.2850258807391146 13.32271720601211 C 3.4589948410141766 13.32271720601211 3.635197450466691 13.192454719453337 3.636159394664339 12.93350313443563 C 3.6297524037925992 12.081649745019838 3.5689455193688686 11.333930766029841 3.680643079957625 10.507654766912083 C 3.905950499841305 9.580679119782916 5.51430012614692 9.438421656179063 6.5132119200872856 9.209440304841713 C 6.73117182826633 8.953197897458422 6.302254993763335 8.858046549715155 6.0257896324592775 8.858046549715155 C 5.984500135730289 8.858046549715155 5.946610983551 8.860169218839136 5.914784994799312 8.86419400179096 C 5.786745621336966 8.854375779085794 5.657882677541108 8.84931073373403 5.528823762638173 8.84931073373403 C 4.87588245171773 8.84931073373403 4.21792069818853 8.978947377079876 3.636159394664339 9.278489565451865 C 3.6124626948293947 8.719755569414783 4.162693019870619 8.398265319455419 4.5568162027996815 8.173701395689454 C 5.178845705598769 7.90617273831141 5.863655500797704 7.879904181098088 6.5132119200872856 7.736389411825166 C 6.745102634598536 7.535056141910107 6.380132787867637 7.365650007124583 6.127413645979344 7.365650007124583 C 6.0940901289112 7.365650007124583 6.06271789404902 7.368595192973972 6.034923712303174 7.3748016471035225 C 5.875700348626306 7.359480780481324 5.715556482670491 7.35166300836024 5.555429474444318 7.35166300836024 C 4.887519202007935 7.35166300836024 4.219896213380853 7.487670468699637 3.6205083975033348 7.782422252231933 C 3.6327889023442115 5.672151988401518 3.6669749732456607 3.6298724602408705 3.6064121746990256 1.633623314068084 C 3.557780785508615 1.016382811297887 3.202148013782708 0.4498605441665941 2.6039100355477967 0.2652764822581205 C 2.1742288083663857 0.06980961445750675 1.6957449806778964 0.0 1.2190420140847793 0.0 Z"
     style="fill:#ffffff;stroke:none"
     id="path2" />
  <path
     d="M 3.29314921521244 15.21501288860129 C 4.074491287174412 15.21501288860129 5.052497037940845 15.616391919330065 5.5257419749406465 16.089636856329868 C 5.939782214238027 16.503676744424546 5.993910276899555 17.05261639954012 6.009086799211701 17.562687749346416 L 0.6002280514165623 17.562687749346416 C 0.615404749330059 17.05261639954012 0.6695328119915868 16.503676744424546 1.0835728756876173 16.089636856329868 C 1.5568179882887687 15.616391919330065 2.5118074944531683 15.21501288860129 3.29314921521244 15.21501288860129 ZM 3.29314921521244 14.777700904737003 C 2.3662267752924526 14.777700904737003 1.3688759017560481 15.205906904973462 0.7843594130436309 15.79042339368588 C 0.1848327417701466 16.38995028583294 0.11688322714550736 17.179222163577567 0.11688322714550736 17.769835531176867 L 0.11688322714550736 17.999999733210704 L 6.469415203279373 17.999999733210704 L 6.469415203279373 17.769835531176867 C 6.469415203279373 17.179222163577567 6.42448232973169 16.38995028583294 5.824955437584633 15.79042339368588 C 5.240439300074916 15.205906904973462 4.220071830733778 14.777700904737003 3.29314921521244 14.777700904737003 Z"
     style="fill:#ffffff;stroke:none"
     id="path4" />
  <path
     d="M 19.59558827849137 2.2331113889984504 Q 20.011497239301697 2.2331113889984504 20.406868373464476 2.6849636002931274 Q 17.14505908393548 6.568070899826414 16.329606932707488 7.024335296803508 Q 15.721254175199014 7.364724151693918 15.258781670883675 7.364724151693918 Q 15.101344397401952 7.364724151693918 14.960813057159163 7.325276517725049 Q 14.407469963604743 7.169951972435412 13.776464255096982 7.150536917736989 Q 13.760688966903167 7.150051524254103 13.744834947749503 7.150051524254103 Q 13.12652956999073 7.150051524254103 12.38825395561615 7.88832679632016 L 12.291175943655867 7.88832679632016 Q 12.815395428237089 6.665148911786697 13.75704954270708 6.140928742588433 Q 14.698701945634467 5.6167096003157315 19.2807685008913 2.2966530928403377 Q 19.439622247033235 2.2331113889984504 19.59558827849137 2.2331113889984504 ZM 13.822576293662692 0.46382689862325743 Q 13.87160069312572 0.46382689862325743 13.922081273037408 0.4715931515608784 L 13.922081273037408 5.461385397334616 Q 12.38825395561615 6.354500505824466 11.805788280014095 7.965988384347936 Q 12.698902703886905 1.79184917642032 13.058089773520756 1.0928900062739073 Q 13.381357725420997 0.46382689862325743 13.822576293662692 0.46382689862325743 ZM 9.823471846940608 8.280349468529765 Q 9.763159224955167 8.280349468529765 9.708909828226425 8.383422671928184 Q 9.611832586460313 8.567870141573977 9.883650198408658 8.897933602234632 Q 10.038974144658383 8.4902085535462 9.922481420308197 8.344591877914295 Q 9.871087133376625 8.280349468529765 9.823471846940608 8.280349468529765 ZM 9.850515161454094 8.003054920244196 Q 9.964842185368557 8.003054920244196 10.097221020296256 8.179560147583969 Q 10.388454200405805 8.567870141573977 9.922481420308197 9.732803546629212 Q 9.398261764572714 8.723195371480656 9.602124802379711 8.257221735611745 Q 9.713322784103013 8.003054920244196 9.850515161454094 8.003054920244196 ZM 14.931688078951879 9.926958201315696 L 14.931688078951879 10.218190867962463 Q 14.718118369566973 10.198775813264039 14.601625302908268 10.082282061988291 Q 14.640456096922156 10.024035528658937 14.756948478963821 9.926958201315696 ZM 15.378245975505326 10.587085807254049 L 17.183890562566404 10.839488364503968 L 17.552786186475032 11.499616655059363 Q 16.931489374550573 11.32487637045426 16.183991626309666 11.033644388424536 Q 15.43649319345172 10.742411037160727 15.378245975505326 10.587085807254049 ZM 11.39806151978306 10.315268879922746 L 11.747541404376221 10.490008479910806 L 11.864034128726408 11.32487637045426 L 11.553386065072697 12.276239381507548 L 11.067997716813883 12.276239381507548 L 11.39806151978306 11.32487637045426 L 11.39806151978306 10.315268879922746 ZM 12.232929752635034 10.606502231186555 L 12.562994240221252 10.703579558529796 L 12.679486964571439 11.32487637045426 L 12.368838216300684 12.276239381507548 L 11.883450552658914 12.276239381507548 L 12.21351435562809 11.32487637045426 L 12.232929752635034 10.606502231186555 ZM 13.37844604914072 10.72299461322822 L 13.494939115799427 11.32487637045426 L 13.184290367528675 12.276239381507548 L 12.698902703886905 12.276239381507548 L 13.028966164547558 11.32487637045426 L 13.028966164547558 10.742411037160727 L 13.37844604914072 10.72299461322822 ZM 12.635970993829574 8.307902566008263 Q 12.94616549869286 8.307902566008263 13.300783776495901 8.383422671928184 Q 14.349222745658347 8.606700935587865 14.621040357606692 9.441570195365404 L 15.43649319345172 9.441570195365404 L 15.747140914796912 8.936765765482605 Q 19.863233149567787 9.888126722684765 20.387455372617175 12.373316708850789 Q 19.261352076958786 11.752018527692242 18.018759137726903 11.538448133690293 L 17.475123229213175 10.451177001279875 L 15.319998757558931 10.159943650016068 L 15.378245975505326 9.635724850051886 L 14.640456096922156 9.635724850051886 Q 13.825002918768604 10.30727392210448 12.976631641685719 10.30727392210448 Q 12.794837747695311 10.30727392210448 12.611532561584353 10.276437401291815 Q 11.572801804388162 10.101698485920798 11.252445186459676 9.567771131681843 Q 10.93208856853119 9.033843092825846 11.592216516778063 8.596994435164216 Q 12.029066885982298 8.307902566008263 12.635970993829574 8.307902566008263 ZM 14.014203342229544 0.0 Q 13.306659502260182 0.0 12.902764885922597 0.4910087625106481 Q 12.407668668006053 1.0928900062739073 11.980527880002157 3.655740467965014 L 11.300984192439817 8.101897190322108 Q 10.97091987600786 8.451378444149354 10.7961802760198 8.4902085535462 L 10.563193800393865 8.4902085535462 Q 10.543778232232661 8.004819862978866 10.194298176485239 7.597094129673393 Q 9.883650198408658 4.626517849099683 10.466115788433582 2.3937311048006213 L 10.233129483961907 1.9471738928642175 Q 9.398261764572714 4.471192276884482 9.825403408347913 7.616509184371816 L 9.767156618287169 7.616509184371816 Q 8.427485014569381 4.607101425167175 9.378846196411509 1.9471738928642175 L 9.145859806362706 1.5976940082710553 L 9.145859806362706 1.5976940082710553 Q 7.90326545510817 4.4323618251791155 9.41767741831105 7.752417990345988 Q 8.99053577453585 8.684363892849726 9.330307190431368 9.286245650075767 Q 9.670079376521057 9.888126722684765 9.747741050125965 10.412346207265987 L 9.883650198408658 10.509424219226272 Q 10.407869083949969 9.732803546629212 10.485531356594787 9.16975258341706 L 10.679686695898312 9.16975258341706 Q 10.699102264059515 9.616309110736422 10.93208856853119 10.101698485920798 L 11.067997716813883 11.32487637045426 L 10.737933400381925 12.276239381507548 L 9.048781837190987 12.276239381507548 L 9.048781837190987 12.742211648142375 L 13.922081273037408 12.742211648142375 L 13.922081273037408 12.276239381507548 L 13.51435451280637 12.276239381507548 L 13.825003261077125 11.32487637045426 L 13.84441900039259 10.606502231186555 Q 14.19389820036871 10.490008479910806 14.368638484973811 10.33468393462117 Q 14.621040357606692 10.567671437172667 14.931688078951879 10.567671437172667 Q 14.912273708870499 10.76182609185915 15.009351720830782 10.89773421321628 Q 15.785971708810798 11.499616655059363 17.78577231979245 11.946173182378724 L 18.465315665046262 13.266429763489512 Q 18.465315665046262 12.942390932799807 18.666445882775246 12.942390932799807 Q 18.73044046079052 12.942390932799807 18.81479623425647 12.97519504299162 L 18.27116032574274 12.00442040032512 L 18.27116032574274 12.00442040032512 Q 19.39726088293296 12.256823642192083 19.97972758546058 12.645134320799134 Q 20.290376676039852 12.97519504299162 19.94089679144669 13.44116867886053 Q 20.71751746404375 13.11110658743396 20.814596160621075 12.509224145590878 Q 20.503945700807716 9.577479001339576 15.552985575493386 8.431961335599805 L 15.203506375517266 9.014428722744466 L 14.892857284937993 9.014428722744466 Q 14.640456096922156 8.198975202282393 12.893057700881908 7.88832679632016 Q 13.283009064230479 7.599008318923254 13.852256838599681 7.599008318923254 Q 14.161630487629424 7.599008318923254 14.523962345646407 7.684463587358902 Q 14.891470935427632 7.771140212597752 15.241644337084495 7.771140212597752 Q 15.87195550160299 7.771140212597752 16.446100683983236 7.490308248055377 Q 17.339214423239 7.053458905776705 20.989335075992095 2.665548716748965 Q 20.31660024722249 1.8173165880798985 19.56675152405883 1.8173165880798985 Q 19.321111613951302 1.8173165880798985 19.067196737655266 1.9083427565418083 L 14.349222745658347 5.286645797346556 L 14.349222745658347 0.025035944973045218 Q 14.173971736739798 0.0 14.014203342229544 0.0 Z"
     style="fill:#ffffff;stroke:none"
     id="path6" />
  <path
     d="M 14.787816725437374 15.285542133461169 C 15.549371373096287 15.285542133461169 16.502609207919512 15.676756272943992 16.963869255453197 16.13801632047768 C 17.367423959429352 16.541570682145313 17.42018123331472 17.07660848522664 17.434973411436005 17.573762319663377 L 12.163093570676018 17.573762319663377 C 12.177885919951562 17.07660848522664 12.230643193836931 16.541570682145313 12.634197726658826 16.13801632047768 C 13.095457945346773 15.676756272943992 14.02626242008698 15.285542133461169 14.787816725437374 15.285542133461169 ZM 14.787816725437374 14.859305039952915 C 13.884368520776045 14.859305039952915 12.912275476840618 15.276666758126694 12.34256182057423 15.846380414393082 C 11.758218113396996 16.430724336850286 11.69198941469321 17.200007968606588 11.69198941469321 17.775664100798863 L 11.69198941469321 17.99999941317163 L 17.883644036181536 17.99999941317163 L 17.883644036181536 17.775664100798863 C 17.883644036181536 17.200007968606588 17.839849083994995 16.430724336850286 17.25550516153779 15.846380414393082 C 16.685791847579925 15.276666758126694 15.691265101252963 14.859305039952915 14.787816725437374 14.859305039952915 Z"
     style="fill:#ffffff;stroke:none"
     id="path8" />
  <path
     d="M 34.543033366863554 2.25 C 34.453382283049145 2.25 34.447171613338725 2.5326321821796447 34.3186124024731 2.9511178163474594 C 34.17237024513499 3.4271629763966462 34.06502221755066 4.422568621794706 33.72725067961583 4.615833437809297 C 33.67585489807889 4.645240841861541 33.62523676967313 4.6549974171004855 33.57432515694906 4.6549974171004855 C 33.473922083530674 4.6549974171004855 33.37237765671173 4.617052579469367 33.26147592182654 4.617052579469367 C 33.22065200073807 4.617052579469367 33.17856006218046 4.622194176905314 33.13479051310586 4.636263067073242 C 32.97640329087331 4.687173303013964 32.89296241784153 4.934020003067939 32.726197239435294 4.963137594224142 C 32.034916726704445 5.083837437312795 31.089136376815908 5.0382046414322925 30.560652930571596 5.085715828735594 C 30.22123443706164 5.116229707676762 31.12764690030765 5.783655727818353 32.03403535589392 5.783655727818353 C 32.04684081787055 5.783655727818353 32.059646279847186 5.783522409296895 32.07244818513349 5.783252330295596 C 32.260712753469825 5.7791896720814915 32.45926694166704 5.770541407442611 32.65658294270112 5.770541407442611 C 32.98739116935862 5.770541407442611 33.314719117160806 5.794849894342885 33.58424304530432 5.905830564807049 C 33.84856571539988 6.014668960372207 34.16002187523193 6.330742392646173 34.15627358255034 6.641298365628519 L 34.04633926743531 15.749999743770545 L 35.0651215468668 15.749999743770545 L 35.01329804463451 5.4611038414715924 C 35.0119061166635 5.1847322518524885 35.808865880821536 4.997374983746517 35.91322468228019 4.758841072120802 C 36.09488114944455 4.343625929444718 36.00200288544809 2.512227277650101 35.70892793071295 2.26642228540509 C 35.705554811495375 2.263593268997097 35.70210000313211 2.2622118300357275 35.6985625877676 2.2622118300357275 C 35.566671331721125 2.2622118300357275 35.32021747385085 4.182658844670444 34.932600641899704 4.595403808545353 C 34.893013531191016 4.6375572434261105 34.814994889935534 4.656736753404518 34.747406300443046 4.656736753404518 C 34.67502145667261 4.656736753404518 34.614598565610514 4.634738738436343 34.62615574401275 4.595403808545353 C 34.87253158415962 3.756873447793133 34.97173295517375 2.5335324263953174 34.58529648548486 2.26642228540509 C 34.56927302188187 2.255346789135237 34.55536383858302 2.25 34.543033366863554 2.25 Z"
     style="fill:#ffffff;stroke:none"
     id="path10" />
  <path
     d="M 42.66593141197256 2.522939998783899 Q 42.78983545577232 2.522939998783899 42.870802706461774 2.677513519485659 Q 42.99698460221994 2.8794049377130113 42.69414669141961 3.018205363292177 Q 42.37869105664213 3.1696243186923416 42.47963750444601 3.535553177371755 L 42.78247469894069 4.784757902966305 Q 42.46701906416322 4.822612686585449 42.25250916088397 5.087595097460987 L 42.25250916088397 3.535553177371755 Q 42.25250916088397 2.7406044673647427 42.46701906416322 2.601804041785577 Q 42.57742862587354 2.522939998783899 42.66593141197256 2.522939998783899 ZM 41.96228969036643 5.3570694610507275 L 41.96228969036643 5.826788321877375 L 41.96228969036643 5.826788321877375 L 41.96228969036643 5.826788321877375 L 41.96228969036643 5.826788321877375 L 41.96228969036643 5.826788321877375 L 41.96228969036643 5.826788321877375 L 40.927594778512926 5.718506187939527 Q 40.95283201723133 5.59232429218136 41.312451476692935 5.459833176281796 Q 41.57742761989406 5.362210028528558 41.96228933221361 5.3570694610507275 ZM 42.40368761666305 5.384656540445098 Q 42.86877197995168 5.476404907432025 43.09793105002382 5.945634531501567 L 42.277745325143904 5.859801058397199 L 42.277745325143904 5.859801058397199 L 42.277745325143904 5.680652299702441 Q 42.277745325143904 5.59232429218136 42.37869105664213 5.415668993444844 Q 42.390657300633066 5.3999632758221985 42.40368725851023 5.384656540445098 ZM 43.764411550953795 5.912406545134729 Q 43.69056688546824 5.912406545134729 43.564805102972215 6.134908270520876 Q 43.88026109590252 6.021344098739856 43.8045511705114 5.933016091218774 Q 43.786885640637756 5.912406545134729 43.764411550953795 5.912406545134729 ZM 40.8266490470147 5.920398367241628 L 41.96228969036643 6.036404424974286 L 41.96228969036643 6.036404424974286 L 41.96228969036643 6.143626784706958 L 41.96228969036643 6.143626784706958 Q 41.94403893877894 6.144852741822308 41.9244350858237 6.147525994498022 Q 41.70992518254445 6.147525994498022 41.6720702198489 6.399890860472826 Q 41.646834055588954 6.197999397476371 41.43863337245111 6.103362886119541 Q 41.34399650294145 6.060345866776736 41.190699931363305 6.060345866776736 Q 41.006745119928006 6.060345866776736 40.73832139764644 6.122289830238083 Q 40.75093983792923 5.996107934479916 40.8266490470147 5.920398367241628 ZM 40.96544974120848 6.551309636796579 Q 41.091632353272296 6.551309636796579 41.179959644487724 6.601783039774928 Q 41.129486241509376 6.690109972837539 41.015922786034004 6.753201099793034 Q 41.06639547270671 6.690109972837539 41.060086968870955 6.627019204034868 Q 41.05377774872956 6.563928077079373 40.96544974120848 6.551309636796579 ZM 40.86450400971025 6.563928077079373 L 40.86450400971025 6.563928077079373 Q 40.8266490470147 6.639637644317661 40.832958267156094 6.6838007526961425 Q 40.839267845450316 6.727964935533095 40.90235861425298 6.765819540075827 Q 40.8266490470147 6.765819540075827 40.75093983792923 6.727964935533095 Q 40.763558278212024 6.639637644317661 40.86450400971025 6.563928077079373 ZM 40.927594778512926 6.500837308276701 Q 40.73832139764644 6.500837308276701 40.68784871097374 6.765819540075827 Q 40.78879444247196 6.828910667031322 40.95283201723133 6.828910667031322 Q 41.129486241509376 6.828910667031322 41.230432689313254 6.639637644317661 L 41.545888324090726 6.639637644317661 L 41.545888324090726 6.538691196513786 L 41.230432689313254 6.563928077079373 Q 41.10425007724944 6.500837308276701 40.927594778512926 6.500837308276701 ZM 43.76825453075155 5.834078164449922 Q 43.822905070112114 5.834078164449922 43.867642655619726 5.882543762698896 Q 44.00644334981351 6.033961822717002 43.62789587177489 6.210617837759164 Q 44.01906107379065 6.803674502771384 44.031679514073446 7.62385915319282 L 43.9307334244224 7.636477593475613 Q 43.9307334244224 6.816292943054177 43.59004126723216 6.261090166279043 L 43.564805102972215 6.286327404997453 Q 43.817169610794195 6.816292943054177 43.817169610794195 8.040260519468521 L 43.71622352114315 8.040260519468521 Q 43.62789587177489 6.816292943054177 43.564805102972215 6.52607347253664 L 43.451240573038376 6.109672106260938 Q 43.63793274650482 5.834078164449922 43.76825453075155 5.834078164449922 ZM 41.1019672111515 6.220386456024185 Q 41.22554891740998 6.220386456024185 41.33137842081148 6.254780946137647 Q 41.58374328678629 6.336799733517331 41.58374328678629 6.601783039774928 L 41.74777978708718 6.601783039774928 Q 41.78563439162991 6.374654338060063 41.89919892156376 6.374654338060063 Q 42.01276309334478 6.374654338060063 41.94967125008364 6.601783039774928 L 41.59636172706908 7.156984742091591 L 41.59636172706908 8.343098072116028 L 41.558506048067876 8.355716512398821 Q 41.4954152792652 8.267388863030565 41.43232415230971 8.134897747131 Q 41.36923338350704 8.002406631231437 41.33137842081148 7.775278287669396 L 40.95283201723133 7.762659847386603 Q 40.75093983792923 7.762659847386603 40.75093983792923 7.661714115888375 Q 40.75093983792923 7.472440376869066 40.94021321879572 7.447204212609128 Q 40.94021321879572 7.3462584811109 40.877122449993045 7.3462584811109 L 40.624757942171065 7.333640040828107 Q 40.70046643495088 7.169603182374384 40.47333880769449 7.106511339113242 Q 40.47333880769449 7.005565607615014 40.68784871097374 6.6522553682948065 L 40.68784871097374 6.437745465015559 L 40.72570331551647 6.500837308276701 Q 40.877122449993045 6.4125093007556195 40.978068181491274 6.4125093007556195 Q 41.0790139129895 6.4125093007556195 41.26828765200881 6.488218867993908 L 41.4954152792652 6.488218867993908 L 41.4954152792652 6.399890860472826 L 41.26828765200881 6.399890860472826 Q 41.10425007724944 6.286327404997453 40.978068181491274 6.286327404997453 Q 40.839267845450316 6.286327404997453 40.68784871097374 6.399890860472826 Q 40.68784871097374 6.298945128974599 40.72570331551647 6.286327404997453 Q 40.930852178444006 6.220386456024185 41.1019672111515 6.220386456024185 ZM 42.277745325143904 6.0686285089764365 L 43.17363990095645 6.160144434780816 Q 43.19887678152204 6.223235561736311 43.31244095330306 6.589164599492135 Q 43.47647745360396 7.06865673457051 43.43862284906123 10.046559574372868 L 41.84872551858541 10.059177298350013 L 41.84872551858541 7.194839346634323 Q 41.937053526106496 7.06865673457051 42.075853862147454 6.841529107314115 Q 42.21465419818841 6.614400763752075 42.208344978047016 6.36203589777727 Q 42.203681470130284 6.175505251234288 42.050806444425575 6.147525994498022 L 42.277745325143904 6.147525994498022 L 42.277745325143904 6.0686285089764365 ZM 41.59636172706908 8.885682408608368 L 41.59636172706908 10.33677868673758 L 42.946511915547234 10.33677868673758 Q 42.93389347526444 11.106490650486315 42.801401643059236 12.20427704744814 Q 42.66891124346532 13.302062728104321 42.46701906416322 14.065465471711658 Q 42.26512760116676 14.828868931624644 42.744619736245134 15.308361066703018 L 39.00962408928248 15.308361066703018 Q 39.14842460439986 15.16956108881488 39.1925886081604 14.841487371907437 Q 39.236752611920934 14.513412222388697 38.89606000703967 13.74370097494561 L 37.94969310270724 10.879361590618625 Q 37.88660139375341 10.614380075125146 38.107420517174056 10.469270160789966 Q 38.18102692149367 10.420900189344907 38.2539322864301 10.420900189344907 Q 38.399743016302956 10.420900189344907 38.54274958864305 10.614380075125146 L 39.81719065757395 12.519732324072793 L 40.30930141201153 13.125407429367804 Q 40.435483844998934 13.213735078736063 40.53222378788905 13.213735078736063 Q 40.72570331551647 13.213735078736063 40.801412882754754 12.860424481263031 Q 41.25566885357319 11.825729569409523 41.14210468179217 10.33677868673758 Q 40.70046643495088 9.857285835353558 41.59636172706908 8.885682408608368 ZM 42.6810146599877 2.25 Q 42.511465471425204 2.25 42.30298220570949 2.3872941161217773 Q 41.96228969036643 2.614421788147274 41.96228969036643 3.7248261105472102 L 41.96228969036643 5.0964239227167525 L 41.96228969036643 5.0964239227167525 Q 41.602485782200645 5.114504730789426 41.35661458507142 5.1696137057642595 Q 40.99068662177407 5.251632493143945 40.763558278212024 5.522923945084468 Q 40.53642993464998 5.794215755177815 40.53642993464998 6.273708964714659 Q 40.47333880769449 6.475600069558291 40.51119341223722 6.6522553682948065 Q 40.30930141201153 7.030802846333424 40.30930141201153 7.169603182374384 Q 40.30930141201153 7.245312749612673 40.48595653167163 7.245312749612673 L 40.460720367411696 7.358876921393693 Q 40.47333880769449 7.4219676901963645 40.53642993464998 7.434585414173511 Q 40.48595653167163 7.4850588171518595 40.51119341223722 7.5481499441073545 L 40.599520703452654 7.586004548650087 Q 40.51119341223722 7.926696347687502 40.88974017397019 7.926696347687502 L 41.14210468179217 7.926696347687502 Q 41.16734192051058 8.166443131532336 41.43232415230971 8.582844855960863 Q 41.41970571202692 8.595463296243656 41.19257808477052 8.891991628749764 Q 40.96544974120848 9.188519961255874 40.73832139764644 9.592302887248785 Q 40.51119341223722 9.996086529547341 40.8266490470147 10.387251731563106 Q 40.91497633823013 11.674311151238594 40.43548402407534 12.746860667634834 L 38.78249574572044 10.324160246454786 L 38.769878021743295 10.324160246454786 Q 38.55523757175983 10.040835575945312 38.24128756668387 10.040835575945312 Q 38.093826423830535 10.040835575945312 37.92445608783435 10.103341123034141 Q 37.39449057216218 10.298924082194848 37.53329101732783 10.765798493296076 Q 38.84558669359953 14.639595192605334 38.80773271582424 14.904578140710107 Q 38.769878021743295 15.16956108881488 38.43549463700342 15.371451835505688 Q 38.10111129703266 15.573344014807791 38.265148737484715 15.749999313544308 L 43.274585274301856 15.749999313544308 Q 43.526950498429485 15.636434783610463 43.274585274301856 15.396688716071276 Q 42.61843784048697 14.601739871756955 42.851875046037584 13.8698832288566 Q 43.085312609741024 13.138025869650598 43.26196755032471 10.33677868673758 L 43.72884196142594 10.33677868673758 L 43.72884196142594 9.503975237880526 Q 43.741461118014385 8.734263274131791 43.72884196142594 8.191679653945098 Q 43.817169610794195 8.179060855509483 43.94335186470519 8.128588526989603 L 43.9307334244224 7.750041048950986 L 44.157861767984436 7.73742332497384 Q 44.157861767984436 6.803674502771384 43.75407884199153 6.261090166279043 Q 44.19571637252717 6.0970536659781445 43.94335186470519 5.806834195460608 Q 43.850818068576004 5.699689913043491 43.75264551439128 5.699689913043491 Q 43.59646151474889 5.699689913043491 43.42600440877844 5.97087105391433 Q 43.08668755843101 5.345813434109095 42.684181089101585 5.163083147177849 L 42.684181089101585 5.163083147177849 Q 42.85254228474804 5.06909865303647 43.085312609741024 4.999267806245553 L 42.73200201226799 3.4976983937526107 Q 42.69414669141961 3.3210432740925064 42.95912999767721 3.1570057888713423 Q 43.31244095330306 2.9172596765630523 43.09793105002382 2.551330795499088 Q 42.93219869610294 2.25 42.6810146599877 2.25 Z"
     style="fill:#ffffff;stroke:none"
     id="path12" />
  <path
     d="M 51.826147253806404 2.542654670692597 C 51.84996598307971 2.542654670692597 51.87502847490804 2.546242079342835 51.901336153175244 2.5534168743951255 C 52.04456463103289 2.5924790591166946 52.08579745996023 2.711836279735364 52.02503321607342 2.91148860299569 L 50.98336926129612 5.606794944761905 L 50.47555816788529 5.606794944761905 L 51.582326364566214 2.755238974181999 C 51.63901545283489 2.6135160977730023 51.7202893198956 2.542654670692597 51.826147253806404 2.542654670692597 ZM 52.68648992168931 2.760447496859336 C 52.71600347447581 2.760447496859336 52.747253453634194 2.7652218239509616 52.78023985916446 2.774770478134213 C 52.94517046293191 2.8225132150940198 52.97555258487532 2.9462106784595306 52.87138551305276 3.1458630017198566 L 51.92086756813472 5.606794944761905 L 51.41305576278196 5.606794944761905 L 52.41565724361128 2.989613372906165 C 52.47815791386998 2.8368361073761554 52.56843499860136 2.760447496859336 52.68648992168931 2.760447496859336 ZM 50.1151735179335 6.73605338707123 C 50.03425063824521 6.73605338707123 49.94170566248979 6.750258052496301 49.83753894663819 6.778667027375477 L 49.83753894663819 6.908875155211752 C 49.94037005942556 6.876156083876913 50.033763313992836 6.859796370224012 50.11771799839808 6.859796370224012 C 50.18967895304773 6.859796370224012 50.254705593280775 6.871815729889145 50.312798275068175 6.895853737277482 C 50.43866604891668 6.947936917217799 50.605766295721565 6.98265903717801 50.81409972742476 7.0000200971581155 L 50.74899548552114 6.934916211225461 C 50.55802346976902 6.865471971305039 50.40611392796487 6.809048437376955 50.2932668601087 6.765645609441208 C 50.24197322377085 6.745917342537568 50.18260865772213 6.73605338707123 50.1151735179335 6.73605338707123 ZM 50.215141912212744 7.026062221084723 L 50.44951639992965 7.1041864570387485 C 50.362711100029124 7.138908932969926 50.284586508104134 7.164950700925567 50.215141912212744 7.182312116876639 C 50.26722509215306 7.138909288940892 50.26722509215306 7.086826109000575 50.215141912212744 7.026062221084723 ZM 50.01983025441478 7.026062221084723 C 49.99378848645914 7.0781450450540735 50.002468838463706 7.134568578982158 50.04587166639946 7.195332822868976 C 49.976427426479034 7.177971406917905 49.924344246538716 7.160609990966833 49.8896221265785 7.1432489309867275 C 49.898302478583076 7.099846814992913 49.94170530651882 7.060784341044934 50.01983025441478 7.026062221084723 ZM 50.084934140347436 6.934916211225461 C 49.97208707249126 6.934916211225461 49.89396248056627 6.9783190391612075 49.85055965263053 7.0651239830907695 L 49.733372586757554 7.130228936936322 L 49.72035152479425 7.195332822868976 L 49.83753894663819 7.221374234853651 C 49.90119616656524 7.260275809925023 49.97782069683974 7.279726419475226 50.067412181490724 7.279726419475226 C 50.19772745658774 7.279726419475226 50.355477414030155 7.23857439595715 50.54066205381795 7.156270348920997 L 50.82711972147517 7.156270348920997 L 50.82711972147517 7.0651239830907695 L 50.52764134782561 7.0651239830907695 C 50.34535004004902 6.9783190391612075 50.19778085223264 6.934916211225461 50.084934140347436 6.934916211225461 ZM 52.441699367537886 5.854189782500184 L 51.55628459661057 7.4817904905262 C 51.49841475264785 7.562808414462394 51.44440292201404 7.603317198445008 51.39424839276722 7.603317198445008 C 51.36917130612929 7.603317198445008 51.3450585448381 7.593189824463871 51.32191010889366 7.572935432472564 L 51.03545244123644 7.390644836637905 C 51.05281385718751 7.329880948722052 51.12225774113696 7.238735294833757 51.24378551696867 7.117207874973018 C 51.36531329280037 6.995680099141313 51.39135506075601 6.850280910333335 51.32191010889366 6.681010664520047 C 51.282659326304696 6.585336348002999 51.20735687219772 6.537499189744475 51.09600310254369 6.537499189744475 C 51.010346164979296 6.537499189744475 50.90335766728065 6.565804933043526 50.77503654153485 6.622416775612596 C 50.497636911077066 6.455977210920503 50.252801504583935 6.372757250588974 50.04053032205545 6.372757250588974 C 50.0203140189575 6.372757250588974 50.00039317176128 6.373511909036777 49.9807677804668 6.37502158190335 C 49.963406720486695 6.175369214146654 49.933024598543284 6.001758614345598 49.8896221265785 5.854189782500184 ZM 49.94426011014141 6.595833219846786 C 50.1664425922747 6.595833219846786 50.45638913136915 6.691500060973549 50.81409972742476 6.8828333872561105 C 50.89222396337879 6.7960277313846165 50.97034855530379 6.75262490344887 51.048473503199745 6.75262490344887 C 51.126598095124734 6.75262490344887 51.167830568081115 6.791687377396849 51.17217056609792 6.869811969321841 C 51.17651127605665 6.9479372731887645 51.10706668016526 7.049933634060997 50.963837846336645 7.175801051938538 C 50.820609724449966 7.301668825787044 50.753335483537946 7.408005540647045 50.76201583554251 7.494811196518538 L 50.80107866546146 7.50783154653991 C 50.77503689750582 7.698803206321071 50.68823124163433 7.848542393145852 50.54066205381795 7.957049462985219 C 50.39309286600157 8.065556176853619 50.19344085421584 8.124149709790105 49.94170530651882 8.13282970582371 C 49.92434389056775 8.13374348329329 49.90799272021803 8.134200194042599 49.89265108352773 8.134200194042599 C 49.762251087340815 8.134200194042599 49.70481801975331 8.101191362341481 49.72035152479425 8.035174054910211 C 49.73771258477436 7.961389461002021 49.72469187878202 7.898455574077768 49.68128940681724 7.846372038166485 L 49.68128940681724 7.846372038166485 C 49.707708859967745 7.847127052585254 49.732503661629686 7.847504381809156 49.75567416777401 7.847504381809156 C 49.99895754085563 7.847504381809156 50.06313839407358 7.805894579628874 49.948216015485954 7.722674975268311 C 49.86295029001314 7.660930743312246 49.794614899651634 7.630058805319696 49.74320913245951 7.630058805319696 C 49.71873043301534 7.630058805319696 49.698090524467915 7.637059330335972 49.68128940681724 7.651060024397556 C 49.71601117080648 7.520852252532247 49.64656693088606 7.451408012611825 49.47295633108501 7.442727304636289 C 49.66392799086617 7.121547517018854 49.81149717868255 6.8394305593203635 49.91566353856318 6.596375719598886 C 49.92506757954152 6.596014053097486 49.93459977006759 6.595833219846786 49.94426011014141 6.595833219846786 ZM 50.87920361335742 7.559915082451193 L 51.256806222961 7.794288858226168 C 51.28284834688761 8.193593949710529 51.36531364877134 8.471370909392217 51.504202128612185 8.6276200932422 C 51.429797789252284 8.617699894363245 51.35964516710963 8.612739794923765 51.29374426218423 8.612739794923765 C 51.244317693562756 8.612739794923765 51.19728324983244 8.615529895354843 51.15264021905134 8.621110096216997 C 51.048473503199745 8.634130802209334 50.94864714133591 8.684044339112216 50.85316148943081 8.77084999498371 C 50.75767548155475 8.493072323360089 50.64916876768635 8.271718897606485 50.52764134782561 8.106789005780966 C 50.753335127566984 7.941858402013514 50.870522549410914 7.759567094236923 50.87920361335742 7.559915082451193 ZM 46.987646250396665 10.329554302405894 C 47.176740341317945 10.329554302405894 47.35413704831279 10.421963653223294 47.51983619339572 10.606782354858096 C 47.207337113753816 10.61546306283363 46.99900421600707 10.715289424697461 46.894837767133694 10.906260728507657 C 46.80803255622591 10.689247300770855 46.69952584235751 10.567720236881081 46.569317803513975 10.541678824896406 C 46.43910976467044 10.5156367009698 46.508554093583605 10.457043168033314 46.77765061226798 10.365897514145018 C 46.84918262190367 10.341668706318936 46.91918119761081 10.329554302405894 46.987646250396665 10.329554302405894 ZM 51.38701435079728 8.914078472841357 C 51.725554842423854 8.914078472841357 51.93822827214386 9.105049776651551 52.02503321607342 9.486993808155805 C 52.146560991905126 10.016506315534507 52.16392169591426 10.841156486604037 52.077116751984704 11.960946457190191 C 51.97295039210407 13.245664895718 51.851423328214295 14.309030620434138 51.71253484837345 15.151041495512807 L 51.86878403222343 15.38541562725875 L 47.54587796135136 15.38541562725875 L 48.44431308230005 15.020834435589432 C 48.183897182598464 13.744795993095225 47.85837704099326 12.809468753177928 47.4677530134554 12.214851291953673 C 47.07712907491029 11.620235254613283 47.01202501099215 11.23612193604256 47.272440999686474 11.062510624299573 C 47.35511276473045 11.007395639642302 47.43734704145727 10.979838503284633 47.51914400785244 10.979838503284633 C 47.69500736991148 10.979838503284633 47.86884881688395 11.107222713448065 48.04066834876985 11.361988997949135 L 49.79847647269021 13.861982347026265 L 50.11097555233211 13.835940935041588 C 50.30194756808424 11.891501505327836 50.50593993385773 10.441852463032575 50.722953361594534 9.486993808155805 C 50.82712007744614 9.105049776651551 51.048473859170706 8.914078472841357 51.38701435079728 8.914078472841357 ZM 51.76302719406696 2.25 C 51.51278067292049 2.25 51.3440404678755 2.396711658365488 51.256806222961 2.6901349547602322 L 50.137017320287754 5.606794944761905 L 49.57712269096564 5.606794944761905 C 49.68128940681724 5.954016500334982 49.733372586757554 6.262175225989113 49.733372586757554 6.531271833666231 C 49.6726086988417 6.774326317416744 49.55759163197713 7.017381513109187 49.388321386163845 7.26043670880163 C 49.2248876403082 7.495110212129932 49.25769000884906 7.612447141779565 49.48672777984452 7.612447141779565 C 49.49490763667097 7.612447141779565 49.50333809705745 7.612297633973869 49.51201880503299 7.611998262391509 L 49.51201880503299 7.611998262391509 C 49.4512552730881 7.698803562292037 49.45993562509267 7.750887098203319 49.53806057298863 7.768248158183424 C 49.468616333068205 7.802970278143635 49.45993562509267 7.839862397112248 49.51201880503299 7.878924515089261 C 49.564101984973306 7.917986633066274 49.585803398941174 8.002621933958402 49.57712269096564 8.13282970582371 C 49.551081278980966 8.514773737327964 49.44908491810873 8.825102817961461 49.27113432029088 9.063817659666137 C 49.12505487096698 9.259777540593085 48.99213744810889 9.357757125085595 48.8723813397747 9.357757125085595 C 48.8462523589324 9.357757125085595 48.82075024296113 9.353093193489784 48.79587463588992 9.343764618356227 C 48.734146778598294 9.320616538382753 48.68270683819344 9.309043210337947 48.64155481467536 9.309043210337947 C 48.59011434031406 9.309043210337947 48.55474898081839 9.327127247349887 48.53545873618834 9.363296745257632 C 48.50073661622813 9.42840027521932 48.54630944317228 9.495673804189408 48.67217757299175 9.565118756051763 C 48.71693024283036 9.589810326133573 48.769913317372584 9.602155399232547 48.831127152589396 9.602155399232547 C 48.942076895197076 9.602155399232547 49.08006548043601 9.561598203198567 49.24509219636427 9.480483099188671 C 49.50116809804905 9.354615325340163 49.733372586757554 8.966162008752638 49.94170530651882 8.315121725542232 L 50.30628756610104 8.315121725542232 C 50.419134633957206 8.419287373480934 50.50593993385773 8.571197271256047 50.56670382177359 8.77084999498371 C 50.25420438616072 9.777791473829831 49.99812884044691 11.253481928109768 49.79847647269021 13.197922069765452 L 48.04066834876985 10.723969420731066 C 47.94518251887927 10.576400232914686 47.82365492103305 10.454873169024912 47.67608591120215 10.359387517119815 C 47.511612552140456 10.153795773796325 47.306562062670686 10.050999902134581 47.06093426480736 10.050999902134581 C 46.99543347124767 10.050999902134581 46.92704717703804 10.058310121891228 46.85577538217846 10.072929849462591 L 46.85577538217846 7.273457058823002 C 46.85577538217846 6.89151373926068 46.7212270783399 6.696201725491751 46.45213055965552 6.687521017516215 C 46.617060718459264 6.435785469819202 46.8297337922083 6.20141133807326 47.09014986989536 5.984398266307425 C 47.164251989905175 5.852072823165709 47.16250915605591 5.785909923609368 47.08492127935482 5.785909923609368 C 47.03526502046758 5.785909923609368 46.954542819411344 5.813009993246764 46.842754587193376 5.867210488492521 C 46.564977538518946 6.092904268233894 46.374005745248674 6.257834516030379 46.26983934087167 6.362001587852944 C 46.05282600212761 6.587695367594316 45.92912851651391 6.754795614399203 45.89874683953421 6.863301972296638 C 45.868364762087175 6.971809042136005 45.78806972619007 7.256096354813862 45.65786170959473 7.716164266301177 C 45.66270277394228 7.8565552995892745 45.68509268477383 7.926750994218807 45.72503144521801 7.926750994218807 C 45.75670704884869 7.926750994218807 45.799421150833986 7.88259671157395 45.85317372336365 7.794288858226168 C 45.887895865572055 7.681442502311931 45.935638802765524 7.538213668483319 45.99640253494408 7.364602356740332 C 46.05716626712264 7.190991756939276 46.17435346648472 7.065124339061736 46.34796415527852 6.9869997471367435 C 46.495533298598524 6.9869997471367435 46.569317803513975 7.0824853990418415 46.569317803513975 7.273457058823002 L 46.569317803513975 10.125013385373874 C 46.06584679711269 10.394109637080026 45.9247882292707 10.576400232914686 46.146142055491644 10.671886596761714 C 46.35145333819034 10.760452885030773 46.517558023196216 10.916229339437981 46.64445633299113 11.139218095809138 L 46.6444562439984 11.139218095809138 C 46.70723029995894 11.568843014317865 46.88400628258192 12.029384011218921 47.17478463683104 12.52084037457037 C 47.482943896441625 13.041671462031605 47.762891211102676 13.80555881309818 48.01462675879969 14.812500291944302 L 47.02504580597723 15.242187149401103 L 47.09014986989536 15.749999666695796 L 52.65003208729915 15.749999666695796 L 52.077116751984704 15.072918683442646 C 52.35489371166639 12.373271898695922 52.45254936257989 10.648015183785441 52.37008512860906 9.897149250653136 C 52.287619470754365 9.146282605578897 52.09881745401064 8.731787165064766 51.80367979031981 8.653662217168808 C 51.595347426529514 8.445329497407542 51.51288248061675 8.219635361695204 51.55628459661057 7.976580877944691 L 51.88180473821577 7.390644836637905 C 52.39395654158533 7.763907804195657 52.65003208729915 8.26737818764775 52.65003208729915 8.901057054907087 L 52.65003208729915 15.749999666695796 L 52.936489754956376 15.749999666695796 L 52.936489754956376 8.901057054907087 C 52.936489754956376 8.145851123757978 52.62833067333128 7.555574728463425 52.01201251008108 7.130228936936322 L 52.85836480706042 5.606794944761905 L 52.25940877170322 5.606794944761905 L 53.18388459269465 3.210967065637994 C 53.31409378844383 2.881106703534135 53.255499543565406 2.6684336297851003 53.0081039938852 2.572947755398149 C 52.88978494034052 2.527280596148026 52.77891137551955 2.504447016522964 52.67548329942229 2.504447016522964 C 52.56265260623055 2.504447016522964 52.45868274232312 2.531620861143052 52.36357441964193 2.585968550383228 C 52.30281088769704 2.394996801609326 52.12703028888758 2.2843200998566164 51.836231911271625 2.253938442691705 C 51.81110107301784 2.2513128142305683 51.7866992633023 2.25 51.76302719406696 2.25 Z"
     style="fill:#ffffff;stroke:none"
     id="path14" />
  <path
     d="M 58.46765020145708 3.633153735148944 C 58.466764784409065 3.633153735148944 58.46587751356979 3.633161613761777 58.46498862066316 3.6331776027113483 C 58.37921393103261 3.634710919802883 58.31090937018625 3.710138210097575 58.3125448775207 3.8016313823010295 C 58.31416346900995 3.892178889240686 58.383557595666254 3.9645400088001224 58.46813450442237 3.9645400088001224 C 58.46901806767914 3.9645400088001224 58.46990302127934 3.96453213018729 58.4707895969469 3.9645163729616253 C 58.556564286577455 3.9629832875939974 58.62486861569991 3.8875559972993052 58.62323310836546 3.796062825095851 L 58.62323310836546 3.796062825095851 L 58.467773015127705 3.7988469878364866 L 58.467773015127705 3.7988469878364866 L 58.62323310836546 3.794902583494322 C 58.621082942233926 3.7047399699639207 58.551878365733415 3.633153735148944 58.46765020145708 3.633153735148944 ZM 58.495869538831585 3.606025817375639 C 58.52475183830355 3.606025817375639 58.65323718327041 3.6494226072000946 58.75200973028322 3.7266858460086496 C 58.79206784205798 3.758020247862751 58.824358105027784 3.794330688892251 58.85131871814035 3.8280828979902797 L 58.921159840212944 3.9659085701938968 C 58.92133595038214 3.9662575463975918 58.92167797486863 3.9664888068566144 58.92185593882908 3.966836856164682 C 58.934592875092235 4.126254562007289 58.87578690891099 4.3696617565021825 58.788902493490596 4.6097919115065995 C 58.782038831370116 4.525788055972089 58.75927705544942 4.445056605449918 58.714420868459705 4.376833843142667 C 58.65205145203913 4.281973954296791 58.56410064319948 4.22818620104199 58.48772768764099 4.191905884120379 C 58.33498154480011 4.119345250277156 58.196351327191955 4.087805309317691 58.042462090318644 3.9888795928024683 C 58.01291288944281 3.969850657296993 57.97928048160461 3.958083253860041 57.94431334406304 3.954539268428889 C 57.918063891620555 3.9518966889953298 57.89207466512544 3.9501710410611213 57.865887082966076 3.947810237898275 C 57.91696019065229 3.9186153428759916 57.95441187192296 3.8704037937152953 57.970068761136154 3.8136972461299865 L 57.970068761136154 3.8136972461299865 C 57.96716618747913 3.824274747305335 57.96562035729662 3.828586434039835 57.96622515669347 3.828586434039835 C 57.96737751968216 3.828586434039835 57.976339905226865 3.8129283862071044 57.99860834094991 3.795134539125065 C 58.03256214984688 3.7680036089409716 58.088565415374944 3.734222434354588 58.151516227077764 3.7048748332776995 C 58.2774176187595 3.646179631123923 58.44170986870631 3.606989557104171 58.49538454069458 3.6060299884059623 C 58.49554280812295 3.6060272077190803 58.49570455140992 3.606025817375639 58.495869538831585 3.606025817375639 ZM 59.63906043184724 3.893283285380667 C 59.90415953298497 3.978406367385196 60.080659461791726 4.114768471393235 60.212406552471215 4.286109994309909 C 60.39072273325975 4.5180155726889915 60.488318817997545 4.841123509768449 60.55024239762136 5.216550302257273 L 59.896149764421274 5.155758462194444 C 59.95142796584484 4.841550113480935 59.93119939567368 4.489490359757465 59.86343359291071 4.245040871129622 C 59.8275974907185 4.115770213842488 59.7505733909818 3.9995616014598 59.63906043184724 3.893283285380667 ZM 59.15040522814155 6.936589127577008 L 59.15040522814155 6.936589127577008 C 59.28583255790941 6.952829265863711 59.420374238905346 6.96373419291942 59.54972901197066 6.969537022994409 C 60.79860176372925 7.025565082980501 62.06598369427029 7.576287071684438 62.78793945427421 8.136416124110292 C 63.58102379437712 8.75173161529261 64.50872304023052 9.241129262395805 65.42797734002318 9.624656427495903 C 65.04008078893578 9.66573644169981 64.64833113272552 9.68339843787886 64.25588259721223 9.68339843787886 C 64.24516953755139 9.68339843787886 64.23445555099491 9.683385461340077 64.22374156443844 9.683359508262512 C 64.22103410231097 9.683388242026957 64.21832478639223 9.6834642474684 64.21562103184726 9.683593085960602 C 64.13949416707784 9.686204150942832 64.06328017411944 9.687508293090506 63.98703281291846 9.687508293090506 C 62.57997373615819 9.687508293090506 61.16146935219147 9.24332415124136 60.06321157850259 8.368445906503439 C 59.649008802615526 8.036600124345004 59.283854099192844 7.476218492860698 59.15040522814155 6.936589127577008 ZM 57.91623767551078 6.404544085764064 L 57.91623767551078 6.404544085764064 C 57.95077542865298 6.498131810361411 58.00861487441881 6.588094446160213 58.123208371170854 6.6491036432476545 C 58.290905340480805 6.738384547312544 58.480930298557865 6.8037608131482195 58.6789203024846 6.852362121920214 C 58.793499432354416 7.5742743178296585 59.23696754733144 8.277233351951164 59.78523928744448 8.716491043540973 C 59.78539407901425 8.71664583511074 59.78554887058402 8.716800626680506 59.785703662153786 8.716954954802459 C 60.97193078259486 9.661909289654506 62.484906686139595 10.133060532885612 63.9853903538668 10.133060532885612 C 64.06721669984877 10.133060532885612 64.14900597000565 10.131659993592695 64.2307025505998 10.128857988111232 C 64.24188740013496 10.128884868084423 64.2530713227745 10.128898771518834 64.26425431851841 10.128898771518834 C 64.93273607943739 10.128898771518834 65.59849832858575 10.079841893546 66.26212593710433 9.950891246974205 L 66.2609654637789 9.945554181951955 L 66.2609654637789 9.945554181951955 C 66.70312063109978 10.102984623569537 67.13326971935967 10.237064710543056 67.53341704995368 10.34858971932077 C 66.87175631395633 10.304594618368863 66.18345289004658 10.154934342795315 65.4681184089566 10.13326630371488 C 65.39377767206105 10.131014874236062 65.31952962472825 10.129993435254729 65.24540485451388 10.129993435254729 C 64.57330820064826 10.129993435254729 63.91141481384844 10.213923834310773 63.28332345678662 10.225150394149168 C 63.2553951646391 10.225649990892308 63.22754287793302 10.225898398920435 63.19976381598151 10.225898398920435 C 61.41917414346205 10.225898398920435 59.94341031866831 9.205529982036389 58.516267267454744 7.828512519453979 C 58.18568461231247 7.509540854111546 57.937775949203385 6.875256907363436 57.91623767551078 6.404544085764064 ZM 65.64933391926746 10.589205335910009 C 66.17501072467273 10.623485643791717 66.71596647759915 10.72290076119818 67.27192032867163 10.77506181262699 C 67.43043060369507 10.88570256297622 67.60184511964239 10.97267503348121 67.74154868238702 11.059995089846453 C 67.85104471663647 11.12843335538706 67.92741072047775 11.194335634491255 67.97404191259383 11.248866758039185 C 67.95378646244947 11.254996318822814 67.93163365695594 11.261078607929448 67.90628954981746 11.265804848733278 C 67.83087083330732 11.279870489878231 67.73742492374096 11.285922191429163 67.65028839270992 11.285922191429163 C 67.56454313201554 11.285922191429163 67.4849079672966 11.28006235727309 67.43457290025367 11.270213164336928 C 67.26206279367483 11.23645933317155 66.79420944508581 11.126553611054806 66.34519154254006 10.953028553764018 C 66.08431398753707 10.852211043273382 65.83519873804508 10.721488172262106 65.64933391926746 10.589205335910009 ZM 58.499180178288555 3.1604279279708862 C 58.495297875953426 3.1604279279708862 58.49140306052732 3.1604626865569116 58.48749550028634 3.160532435452869 C 58.315956548601044 3.1635988379120317 58.1368942168325 3.2202316972949667 57.96333973060554 3.3011427338449355 C 57.87656260335402 3.3415982521199203 57.79394260299113 3.3883283903442134 57.720404325984966 3.447089633811438 C 57.67799189931675 3.480979486910128 57.63596969570765 3.5188424781154297 57.60137308469311 3.5675130723355686 C 57.368129995923766 3.628715527161312 57.0782236919397 3.6537377697931968 56.779754726150216 3.6897928510773634 C 56.443993852723835 3.730353108558238 56.092897838728895 3.784080150149448 55.7894506323869 3.9689249202891825 C 55.296891460160786 4.268967059682172 54.92854548405864 4.83469293962984 54.76016546870574 5.384076027600077 C 54.727331092657884 5.49062824133709 54.778237632492974 5.605022455529252 54.879428893731564 5.651838563322981 C 54.90958631193187 5.665791123201398 54.9414415856803 5.672460600687955 54.9728911543161 5.672460600687955 C 55.04696856595701 5.672460600687955 55.11879512742886 5.635457536900922 55.16088128683625 5.569468129607758 C 55.67420321076977 4.766916245843249 56.01905472892329 4.533469935207613 56.398761461971375 4.448299118078276 C 56.64746320015161 4.392513441298734 56.94502508270778 4.365414025565969 57.26507727662779 4.365414025565969 C 57.454423051933915 4.365414025565969 57.651640488355255 4.374898716796679 57.85126924375113 4.393539978206018 C 58.047367685426366 4.509802350535092 58.21986481546643 4.557824581263904 58.29653484107348 4.594245786320871 C 58.33483787597787 4.612441442657364 58.34233507125964 4.621829968466736 58.342380720869286 4.621829968466736 C 58.3423846601757 4.621829968466736 58.34233437608792 4.6217618416381265 58.34224469893598 4.621625356257 C 58.34212767836303 4.62144739229655 58.34210821355485 4.621333384134386 58.342163363844676 4.621333384134386 C 58.3426488254295 4.621333384134386 58.34890328539891 4.630112012620966 58.34572519201666 4.681489142072951 C 58.33856492329542 4.797244502493868 58.17088069880034 5.045544547281606 57.95893118327798 5.309362678662346 C 57.746981899479536 5.573180346595272 57.49496152736754 5.860532357954289 57.47143622117382 6.235858350543641 C 57.4309725925621 6.881418909494023 57.71327649861069 7.672823251272367 58.20697123384225 8.149177623107573 C 58.664283925357104 8.590428140296172 59.134185481558646 9.002651067123224 59.62374672574007 9.361070483469813 C 59.72790337772821 10.039199374078198 59.86052267719303 10.98625312752618 59.94023570114466 11.648886177036621 C 59.75863367535719 12.481792733977127 59.30656535930185 13.22159633273339 59.07801189895906 14.03949181498905 C 59.00856146339339 14.191879944393877 58.844155205284416 14.255557673992444 58.683369633219755 14.255557673992444 C 58.631779317773486 14.255557673992444 58.58056184609331 14.249001741220235 58.532973402518095 14.236716666575413 C 58.30104998139819 14.202839558291599 58.06656948696634 14.16858705727871 57.831897820311355 14.16858705727871 C 57.755126299633105 14.16858705727871 57.678334387251056 14.172252929484857 57.601605040323854 14.180797053377718 C 57.60011482387899 14.180756269970116 57.598587995056846 14.180736805161942 57.59702548075305 14.180736805161942 C 57.435438839142456 14.180736805161942 56.892603110159875 14.39667104498625 56.97396392281301 14.70031371044366 C 56.99913029771495 14.768485956939221 57.477551415075226 14.798788028788367 57.987656605665016 14.798788028788367 C 58.36423691976207 14.798788028788367 58.75808506767265 14.782272602500344 58.999585869586 14.752288455851376 C 59.020024845064576 14.755577081537195 59.04053658184989 14.757163926851208 59.06096953250689 14.757163926851208 C 59.274640756657035 14.757163926851208 59.47974190383676 14.583668530220494 59.50355524284668 14.368510102036272 C 59.80526579436889 13.532768171371718 60.161086195376406 12.717830413062911 60.45905486925103 11.880684235522931 C 60.461689106623936 11.16037510560098 60.26768336355134 10.460770970202649 60.195468461777125 9.747632304853834 L 60.195468461777125 9.747632304853834 C 60.54605514662484 9.964778924158708 60.907382698002216 10.151091433524343 61.28206496157838 10.298471545854628 C 61.45330244046088 10.641238475742249 62.226415423929204 11.734660171495452 62.512520760669446 12.161672644952414 C 62.56341242853661 12.88661254542858 62.61430409640377 13.611551519009117 62.665196227718745 14.336489565694029 C 62.262966626097906 14.321776024505562 61.867547853546796 14.210142568939446 61.465062428732814 14.210142568939446 C 61.41354696010845 14.210142568939446 61.36191655642629 14.211971334012196 61.31014063013064 14.216066358893803 C 60.99700701689704 14.216066358893803 60.89746630513307 14.828643336945133 61.13394333274621 14.828643336945133 C 61.1430612050324 14.828643336945133 61.152678210613914 14.827733125439082 61.162801764655775 14.825841331463671 C 61.61992212532795 14.830147688548314 62.07716205553606 14.839572363287152 62.53429910032953 14.839572363287152 C 62.683596032817164 14.839572363287152 62.83288184255726 14.838566681531484 62.982149114384825 14.836050159903243 C 63.13779250123288 14.81216591337783 63.227898805853926 14.627847156506613 63.182623662040655 14.484060618523545 C 63.123336637028814 13.663504018921776 63.064684535521714 12.842974299293202 63.00488771791484 12.022454775516525 C 62.84815800939153 11.733175284700446 62.38539563503571 11.047624740803911 62.03593049389708 10.535838393270023 L 62.03593049389708 10.535838393270023 C 62.40973174317945 10.62383044896509 62.79690068119938 10.671466395941206 63.19963034301117 10.671466395941206 C 63.23006866851753 10.671466395941206 63.260595976004126 10.671194815522394 63.29121319236657 10.670647020206633 C 63.87060916075022 10.660290815362313 64.44830705634458 10.59648332037592 65.00939498229693 10.580156053900247 C 65.24622701093534 10.965115272744587 65.7233020441208 11.190312907468579 66.18462726680643 11.368593866223273 C 66.67067279587334 11.556429265104635 67.14871828878063 11.668180436415424 67.34895462426023 11.707357533896394 C 67.43961243177955 11.725096462412512 67.54259517045566 11.734336684921509 67.64977396563675 11.734336684921509 C 67.76101349056125 11.734336684921509 67.87677255856468 11.724382752779457 67.98796388491655 11.703645316908878 C 68.09712623674017 11.683286981349884 68.20063267144572 11.656123378094927 68.299580633456 11.58832652432844 C 68.34905554135676 11.554428097445198 68.40022203377744 11.506869082806151 68.43346236476526 11.436115431988437 C 68.46670362264872 11.365360854275096 68.47204068767097 11.273841960717983 68.4506321793662 11.199675480200385 C 68.39548837780859 11.008638583822176 68.26610857856133 10.881311858389491 68.12393391207422 10.779005753521343 C 68.13275239707278 10.77780913126644 68.14189344174964 10.777034246521982 68.1506173833942 10.775757911243126 C 68.22878434543944 10.764320946097325 68.30092370522003 10.750488882650462 68.36942129208079 10.727959757532226 C 68.40367101240679 10.716694268077482 68.43697900677542 10.70452042090794 68.47638782816321 10.67946550520519 C 68.51579664955102 10.654409662606813 68.57869393303136 10.611144028513628 68.59982715333481 10.507298350008458 C 68.62149333862399 10.400860144433608 68.57028235521321 10.322370622710078 68.53694840776703 10.28408612571824 C 68.50361167963395 10.245800701830778 68.47387686790874 10.225713019794966 68.44367119320484 10.206355731513504 C 68.38326077069266 10.167642081846207 68.31869229439621 10.13810469888962 68.24783853885074 10.10890285215013 C 68.10613195465544 10.050500085566782 67.9441439672382 9.999165825037561 67.8241517669047 9.9669005882497 C 66.37061814338938 9.576071339397387 64.46174240846294 8.871166287906272 63.061039055019364 7.784426582730593 C 62.254290883025966 7.158511576601777 60.93299004349886 6.585654856869041 59.569915408390784 6.524503844750615 C 59.13622835952131 6.505048305532656 58.63203583613835 6.415153796562462 58.33274818978602 6.255821828565386 L 58.33274818978602 6.255821828565386 C 58.340366113223254 6.259877460382832 58.34453922906147 6.2618327467087145 58.34628225628869 6.2618327467087145 C 58.35252814247355 6.2618327467087145 58.327578197700596 6.236728242089903 58.31811366644978 6.193164611052525 C 58.30609252533485 6.137831259339128 58.31747573053426 6.066697117866388 58.31719349081574 6.066697117866388 L 58.31719349081574 6.066697117866388 C 58.317191405300576 6.066697117866388 58.3171888563376 6.066700825448898 58.317185612202906 6.066708240613917 C 58.365561685337454 5.956771004045841 58.48419343461393 5.826073159216503 58.626481645815396 5.681306429107517 C 58.76876985701686 5.536539698998531 58.93343749969275 5.377126627634061 59.03995912587406 5.1599350538912585 C 59.16913408118767 4.896554880694439 59.31486014827096 4.573176985263517 59.35946421965003 4.245272826760365 C 59.402526400153015 4.295406525728267 59.42937115131217 4.346732907644655 59.434178032035575 4.364072112421481 C 59.47609225230409 4.515267558877822 59.471683936700444 5.101855310434039 59.40633455083796 5.274093836594075 C 59.381708324362855 5.339101661417881 59.38881483313771 5.411864821955678 59.42559312473511 5.470855240366763 C 59.4623709528847 5.529846122225663 59.524603652200234 5.568300241117305 59.593814485246234 5.574804731182194 L 60.789697540885165 5.686179119420467 C 60.79666733255498 5.686832580837745 60.803629709059784 5.687155140516061 60.810563815247946 5.687155140516061 C 60.87028045638306 5.687155140516061 60.927880531353125 5.663204157505479 60.96998476522525 5.620050677783201 C 61.0169779100838 5.571886400299499 61.0396312392161 5.504962218766159 61.03170489125886 5.438139068856199 C 60.9703661827759 4.920622652554066 60.87244568456853 4.41375418149496 60.56555656717635 4.014635009875583 C 60.26113206525727 3.61872127505947 59.751279222002026 3.3697805136693297 58.99471317927305 3.3517252820203796 C 58.8513001802278 3.2446236509002575 58.69050696127422 3.1604279279708862 58.499180178288555 3.1604279279708862 Z"
     style="fill:#ffffff;stroke:none"
     id="path16" />
  <path
     d="M 77.02057843985968 2.705587738752365 C 77.9133443798619 2.705587738752365 78.70868802805646 3.117826422805083 79.22661969359964 3.7626936638262123 L 74.81477447140031 3.7626936638262123 C 75.33265017561999 3.117826422805083 76.12784679499566 2.705587738752365 77.02057843985968 2.705587738752365 ZM 79.52512457659468 4.218281402578577 C 79.69537537508188 4.54236675109707 79.80469020123618 4.903687350757245 79.83762929114513 5.287014306401833 L 74.20376487385482 5.287014306401833 C 74.2366996189405 4.903687350757245 74.34603871817406 4.54236675109707 74.51626958840527 4.218281402578577 ZM 79.84047671451233 5.742602045154198 C 79.81255259339514 6.125113332646723 79.7088232402912 6.486371830299867 79.5441073990427 6.811334948977454 L 74.49728676595726 6.811334948977454 C 74.33259062124083 6.486371830299867 74.22883797988425 6.125113332646723 74.20091745048761 5.742602045154198 ZM 79.25509392727166 7.26692268772982 C 78.73810074355117 7.93248101984016 77.92996315501237 8.360333260735494 77.02057843985968 8.360333260735494 C 76.11125327775103 8.360333260735494 75.30323896633067 7.932451359180085 74.78630023772828 7.26692268772982 ZM 77.02057843985968 2.25 C 75.2108603770792 2.25 73.73773657913536 3.7233664092536127 73.73773658275604 5.533079142384231 C 73.73773658275604 7.342790948619221 75.21086049294115 8.815920999487862 77.02057843985968 8.815920999487862 C 78.83034864051919 8.815920999487862 80.3036575822439 7.342791875514849 80.3036575822439 5.533079142384231 C 80.3036575822439 3.723365482357985 78.830349103967 2.25 77.02057843985968 2.25 Z"
     style="fill:#ffffff;stroke:none"
     id="path18" />
  <path
     d="M 71.43262910097837 12.54664921760559 L 71.14788676425815 13.163590947166085 L 70.24620269797742 15.180515832267702 L 70.10383152961731 15.46525816898793 L 70.69704473111778 15.750000505708158 L 70.8394158994779 15.44152964092791 L 71.4563576290384 14.041546485386789 L 71.76482849381864 14.587302630767226 L 72.04957083053887 15.156787304207683 L 72.3343131672591 14.587302630767226 L 72.66651256009936 13.99408942926675 L 72.97498342487961 14.587302630767226 L 73.25972576159984 15.156787304207683 L 73.54446809832007 14.587302630767226 L 73.85293896310031 13.99408942926675 L 74.18513835594058 14.587302630767226 L 74.46988069266081 15.156787304207683 L 74.75462302938104 14.587302630767226 L 75.06309389416128 14.01781795732677 L 75.37156475894153 14.587302630767226 L 75.68003562372178 15.156787304207683 L 75.964777960442 14.587302630767226 L 76.27324882522225 13.99408942926675 L 76.5817196900025 14.587302630767226 L 76.89019055478275 15.156787304207683 L 77.17493289150298 14.587302630767226 L 77.48340375628322 13.99408942926675 L 77.79187462106347 14.587302630767226 L 78.10034548584372 15.156787304207683 L 78.38508782256395 14.587302630767226 L 78.6935586873442 13.99408942926675 L 79.00202955212444 14.587302630767226 L 79.28677188884467 15.156787304207683 L 79.59524275362492 14.587302630767226 L 79.90371361840516 13.99408942926675 L 80.21218448318541 14.587302630767226 L 80.49692681990564 15.156787304207683 L 80.80539768468589 14.587302630767226 L 81.11386854946613 13.99408942926675 L 81.4460679423064 14.611031158827245 L 81.73081027902663 15.133058776147664 L 82.03928114380687 14.611031158827245 L 82.37148053664714 13.970360901206732 L 83.2019790187478 15.46525816898793 L 83.36807871516794 15.750000505708158 L 83.9375633886084 15.44152964092791 L 83.79519222024828 15.156787304207683 L 82.65622287336737 13.116133891046047 L 82.37148053664714 12.617834801785648 L 82.08673819992691 13.139862419106066 L 81.73081027902663 13.75680414866656 L 81.39861088618636 13.139862419106066 L 81.09014002140611 12.594106273725629 L 80.8291262127459 13.139862419106066 L 80.49692681990564 13.733075620606542 L 80.18845595512539 13.139862419106066 L 79.90371361840516 12.57037774566561 L 79.61897128168494 13.139862419106066 L 79.31050041690469 13.733075620606542 L 78.97830102406442 13.139862419106066 L 78.6935586873442 12.57037774566561 L 78.40881635062397 13.139862419106066 L 78.0766169577837 13.733075620606542 L 77.76814609300345 13.139862419106066 L 77.48340375628322 12.57037774566561 L 77.198661419563 13.139862419106066 L 76.89019055478275 13.733075620606542 L 76.55799116194248 13.139862419106066 L 76.27324882522225 12.57037774566561 L 75.98850648850203 13.139862419106066 L 75.68003562372178 13.709347092546523 L 75.37156475894153 13.139862419106066 L 75.06309389416128 12.57037774566561 L 74.77835155744106 13.139862419106066 L 74.46988069266081 13.733075620606542 L 74.16140982788056 13.139862419106066 L 73.85293896310031 12.57037774566561 L 73.56819662638009 13.139862419106066 L 73.25972576159984 13.733075620606542 L 72.95125489681959 13.139862419106066 L 72.66651256009936 12.57037774566561 L 72.35804169531912 13.139862419106066 L 72.04957083053887 13.733075620606542 L 71.74109996575862 13.139862419106066 L 71.43262910097837 12.54664921760559 Z"
     style="fill:#ffffff;stroke:none"
     id="path20" />
  <path
     d="M 30.489336013793945 0.375 C 20.86433607339859 0.375 20.86433607339859 17.625 30.489336013793945 17.625 "
     style="fill:none;stroke:#ffffff;stroke-width:1"
     id="path22" />
  <path
     d="M 30.489336013793945 0.375 L 83.93756484985352 0.375 "
     style="fill:none;stroke:#ffffff;stroke-width:1"
     id="path24" />
  <path
     d="M 30.489336013793945 17.625 L 83.93756484985352 17.625 "
     style="fill:none;stroke:#ffffff;stroke-width:1"
     id="path26" />
  <path
     d="M 91.62506484985352 0.375 L 91.62506484985352 17.625 "
     style="fill:none;stroke:#ffffff;stroke-width:1"
     id="path28" />
  <path
     d="M 83.93756484985352 0.375 C 93.56256675720215 0.375 93.56256675720215 17.625 83.93756484985352 17.625 "
     style="fill:none;stroke:#ffffff;stroke-width:1"
     id="path30" />
</svg>
