<?xml version="1.0" encoding="UTF-8" standalone="no"?>
<svg
   width="88.354248046875"
   height="18.0"
   version="1.1"
   id="svg34"
   sodipodi:docname="wahkarekhety.svg"
   inkscape:version="1.1.1 (3bf5ae0d25, 2021-09-20)"
   xmlns:inkscape="http://www.inkscape.org/namespaces/inkscape"
   xmlns:sodipodi="http://sodipodi.sourceforge.net/DTD/sodipodi-0.dtd"
   xmlns="http://www.w3.org/2000/svg"
   xmlns:svg="http://www.w3.org/2000/svg">
  <defs
     id="defs38" />
  <sodipodi:namedview
     id="namedview36"
     pagecolor="#ffffff"
     bordercolor="#666666"
     borderopacity="1.0"
     inkscape:pageshadow="2"
     inkscape:pageopacity="0.0"
     inkscape:pagecheckerboard="0"
     showgrid="false"
     inkscape:zoom="15.562353"
     inkscape:cx="44.177124"
     inkscape:cy="9.0281977"
     inkscape:window-width="1920"
     inkscape:window-height="1001"
     inkscape:window-x="-9"
     inkscape:window-y="-9"
     inkscape:window-maximized="1"
     inkscape:current-layer="svg34" />
  <path
     d="M 1.2190420140847793 0.0 C 0.970800706632417 0.0 0.7230423028937335 0.01893070358296025 0.48290982680079 0.048905678499779795 C 0.15187998957905166 0.13255188916498697 0.3219916247400915 0.5118521231009919 0.6158947927962716 0.5118521231009919 C 0.6355981423211179 0.5118521231009919 0.6558578408244597 0.5101473851910305 0.6765601864318946 0.5065345630073116 C 1.2976180869590601 0.5780119512905144 2.0622053316712337 0.6175539511807123 2.531371224901928 0.9695623988344474 C 3.1537543888207784 1.6479367557428735 2.8741262715941502 3.0576933712068692 2.94658764204448 3.7269297850416896 C 2.951782632395561 3.7629649381631523 2.953952713884158 6.430591781037886 2.953952713884158 7.782422252231933 C 2.352510186605274 7.494257626556917 1.67335422808609 7.349215125535265 1.0039192969246102 7.349215125535265 C 0.7063920462481148 7.349215125535265 0.41078504023889434 7.377865539465801 0.12477432975315178 7.4353349446232855 C -0.20149863151174055 7.606724672263251 0.18154647682350566 7.8266562324049085 0.4376378670454302 7.8266562324049085 C 0.4681373192956425 7.8266562324049085 0.4968360674978842 7.823536850015894 0.5223214865886322 7.816844331348357 C 1.429843884416301 7.914926816832979 2.4617098179841825 8.158078494744517 2.9226503683594482 9.002292523011262 C 2.9681809889039896 9.155077638776014 2.9396896697969415 9.207577525716367 2.870237404087557 9.207577525716367 C 2.717627362869183 9.207577525716367 2.3672466519332462 8.954092059534803 2.1698535251191053 8.954092059534803 C 2.1594948014573196 8.954092059534803 2.1495575210365625 8.954790250504107 2.140092081444407 8.956259682604495 C 1.7610785167129768 8.874396440250864 1.3638924072290621 8.831466124503471 0.9703996331480379 8.831466124503471 C 0.6822712691518855 8.831466124503471 0.39612316158451694 8.854483949517657 0.1205398348885778 8.90208807080806 C -0.19080937123302597 9.107627344268586 0.19133570335568265 9.296978982841198 0.44461121617263977 9.296978982841198 C 0.47243301123084086 9.296978982841198 0.4986997685303211 9.294694058069421 0.5223214865886322 9.289895224364907 C 1.44862453664532 9.401605077048192 2.473672484380784 9.652726246647584 2.9226503683594482 10.498359836231193 C 2.9277747669676573 11.438445880183364 2.9223641381582497 12.059730482053933 2.9475081443234266 12.924290385186742 C 2.9366830234749024 13.190445840004433 3.1097205941872907 13.32271720601211 3.2850258807391146 13.32271720601211 C 3.4589948410141766 13.32271720601211 3.635197450466691 13.192454719453337 3.636159394664339 12.93350313443563 C 3.6297524037925992 12.081649745019838 3.5689455193688686 11.333930766029841 3.680643079957625 10.507654766912083 C 3.905950499841305 9.580679119782916 5.51430012614692 9.438421656179063 6.5132119200872856 9.209440304841713 C 6.73117182826633 8.953197897458422 6.302254993763335 8.858046549715155 6.0257896324592775 8.858046549715155 C 5.984500135730289 8.858046549715155 5.946610983551 8.860169218839136 5.914784994799312 8.86419400179096 C 5.786745621336966 8.854375779085794 5.657882677541108 8.84931073373403 5.528823762638173 8.84931073373403 C 4.87588245171773 8.84931073373403 4.21792069818853 8.978947377079876 3.636159394664339 9.278489565451865 C 3.6124626948293947 8.719755569414783 4.162693019870619 8.398265319455419 4.5568162027996815 8.173701395689454 C 5.178845705598769 7.90617273831141 5.863655500797704 7.879904181098088 6.5132119200872856 7.736389411825166 C 6.745102634598536 7.535056141910107 6.380132787867637 7.365650007124583 6.127413645979344 7.365650007124583 C 6.0940901289112 7.365650007124583 6.06271789404902 7.368595192973972 6.034923712303174 7.3748016471035225 C 5.875700348626306 7.359480780481324 5.715556482670491 7.35166300836024 5.555429474444318 7.35166300836024 C 4.887519202007935 7.35166300836024 4.219896213380853 7.487670468699637 3.6205083975033348 7.782422252231933 C 3.6327889023442115 5.672151988401518 3.6669749732456607 3.6298724602408705 3.6064121746990256 1.633623314068084 C 3.557780785508615 1.016382811297887 3.202148013782708 0.4498605441665941 2.6039100355477967 0.2652764822581205 C 2.1742288083663857 0.06980961445750675 1.6957449806778964 0.0 1.2190420140847793 0.0 Z"
     style="fill:#ffffff;stroke:none"
     id="path2" />
  <path
     d="M 3.29314921521244 15.21501288860129 C 4.074491287174412 15.21501288860129 5.052497037940845 15.616391919330065 5.5257419749406465 16.089636856329868 C 5.939782214238027 16.503676744424546 5.993910276899555 17.05261639954012 6.009086799211701 17.562687749346416 L 0.6002280514165623 17.562687749346416 C 0.615404749330059 17.05261639954012 0.6695328119915868 16.503676744424546 1.0835728756876173 16.089636856329868 C 1.5568179882887687 15.616391919330065 2.5118074944531683 15.21501288860129 3.29314921521244 15.21501288860129 ZM 3.29314921521244 14.777700904737003 C 2.3662267752924526 14.777700904737003 1.3688759017560481 15.205906904973462 0.7843594130436309 15.79042339368588 C 0.1848327417701466 16.38995028583294 0.11688322714550736 17.179222163577567 0.11688322714550736 17.769835531176867 L 0.11688322714550736 17.999999733210704 L 6.469415203279373 17.999999733210704 L 6.469415203279373 17.769835531176867 C 6.469415203279373 17.179222163577567 6.42448232973169 16.38995028583294 5.824955437584633 15.79042339368588 C 5.240439300074916 15.205906904973462 4.220071830733778 14.777700904737003 3.29314921521244 14.777700904737003 Z"
     style="fill:#ffffff;stroke:none"
     id="path4" />
  <path
     d="M 19.59558827849137 2.2331113889984504 Q 20.011497239301697 2.2331113889984504 20.406868373464476 2.6849636002931274 Q 17.14505908393548 6.568070899826414 16.329606932707488 7.024335296803508 Q 15.721254175199014 7.364724151693918 15.258781670883675 7.364724151693918 Q 15.101344397401952 7.364724151693918 14.960813057159163 7.325276517725049 Q 14.407469963604743 7.169951972435412 13.776464255096982 7.150536917736989 Q 13.760688966903167 7.150051524254103 13.744834947749503 7.150051524254103 Q 13.12652956999073 7.150051524254103 12.38825395561615 7.88832679632016 L 12.291175943655867 7.88832679632016 Q 12.815395428237089 6.665148911786697 13.75704954270708 6.140928742588433 Q 14.698701945634467 5.6167096003157315 19.2807685008913 2.2966530928403377 Q 19.439622247033235 2.2331113889984504 19.59558827849137 2.2331113889984504 ZM 13.822576293662692 0.46382689862325743 Q 13.87160069312572 0.46382689862325743 13.922081273037408 0.4715931515608784 L 13.922081273037408 5.461385397334616 Q 12.38825395561615 6.354500505824466 11.805788280014095 7.965988384347936 Q 12.698902703886905 1.79184917642032 13.058089773520756 1.0928900062739073 Q 13.381357725420997 0.46382689862325743 13.822576293662692 0.46382689862325743 ZM 9.823471846940608 8.280349468529765 Q 9.763159224955167 8.280349468529765 9.708909828226425 8.383422671928184 Q 9.611832586460313 8.567870141573977 9.883650198408658 8.897933602234632 Q 10.038974144658383 8.4902085535462 9.922481420308197 8.344591877914295 Q 9.871087133376625 8.280349468529765 9.823471846940608 8.280349468529765 ZM 9.850515161454094 8.003054920244196 Q 9.964842185368557 8.003054920244196 10.097221020296256 8.179560147583969 Q 10.388454200405805 8.567870141573977 9.922481420308197 9.732803546629212 Q 9.398261764572714 8.723195371480656 9.602124802379711 8.257221735611745 Q 9.713322784103013 8.003054920244196 9.850515161454094 8.003054920244196 ZM 14.931688078951879 9.926958201315696 L 14.931688078951879 10.218190867962463 Q 14.718118369566973 10.198775813264039 14.601625302908268 10.082282061988291 Q 14.640456096922156 10.024035528658937 14.756948478963821 9.926958201315696 ZM 15.378245975505326 10.587085807254049 L 17.183890562566404 10.839488364503968 L 17.552786186475032 11.499616655059363 Q 16.931489374550573 11.32487637045426 16.183991626309666 11.033644388424536 Q 15.43649319345172 10.742411037160727 15.378245975505326 10.587085807254049 ZM 11.39806151978306 10.315268879922746 L 11.747541404376221 10.490008479910806 L 11.864034128726408 11.32487637045426 L 11.553386065072697 12.276239381507548 L 11.067997716813883 12.276239381507548 L 11.39806151978306 11.32487637045426 L 11.39806151978306 10.315268879922746 ZM 12.232929752635034 10.606502231186555 L 12.562994240221252 10.703579558529796 L 12.679486964571439 11.32487637045426 L 12.368838216300684 12.276239381507548 L 11.883450552658914 12.276239381507548 L 12.21351435562809 11.32487637045426 L 12.232929752635034 10.606502231186555 ZM 13.37844604914072 10.72299461322822 L 13.494939115799427 11.32487637045426 L 13.184290367528675 12.276239381507548 L 12.698902703886905 12.276239381507548 L 13.028966164547558 11.32487637045426 L 13.028966164547558 10.742411037160727 L 13.37844604914072 10.72299461322822 ZM 12.635970993829574 8.307902566008263 Q 12.94616549869286 8.307902566008263 13.300783776495901 8.383422671928184 Q 14.349222745658347 8.606700935587865 14.621040357606692 9.441570195365404 L 15.43649319345172 9.441570195365404 L 15.747140914796912 8.936765765482605 Q 19.863233149567787 9.888126722684765 20.387455372617175 12.373316708850789 Q 19.261352076958786 11.752018527692242 18.018759137726903 11.538448133690293 L 17.475123229213175 10.451177001279875 L 15.319998757558931 10.159943650016068 L 15.378245975505326 9.635724850051886 L 14.640456096922156 9.635724850051886 Q 13.825002918768604 10.30727392210448 12.976631641685719 10.30727392210448 Q 12.794837747695311 10.30727392210448 12.611532561584353 10.276437401291815 Q 11.572801804388162 10.101698485920798 11.252445186459676 9.567771131681843 Q 10.93208856853119 9.033843092825846 11.592216516778063 8.596994435164216 Q 12.029066885982298 8.307902566008263 12.635970993829574 8.307902566008263 ZM 14.014203342229544 0.0 Q 13.306659502260182 0.0 12.902764885922597 0.4910087625106481 Q 12.407668668006053 1.0928900062739073 11.980527880002157 3.655740467965014 L 11.300984192439817 8.101897190322108 Q 10.97091987600786 8.451378444149354 10.7961802760198 8.4902085535462 L 10.563193800393865 8.4902085535462 Q 10.543778232232661 8.004819862978866 10.194298176485239 7.597094129673393 Q 9.883650198408658 4.626517849099683 10.466115788433582 2.3937311048006213 L 10.233129483961907 1.9471738928642175 Q 9.398261764572714 4.471192276884482 9.825403408347913 7.616509184371816 L 9.767156618287169 7.616509184371816 Q 8.427485014569381 4.607101425167175 9.378846196411509 1.9471738928642175 L 9.145859806362706 1.5976940082710553 L 9.145859806362706 1.5976940082710553 Q 7.90326545510817 4.4323618251791155 9.41767741831105 7.752417990345988 Q 8.99053577453585 8.684363892849726 9.330307190431368 9.286245650075767 Q 9.670079376521057 9.888126722684765 9.747741050125965 10.412346207265987 L 9.883650198408658 10.509424219226272 Q 10.407869083949969 9.732803546629212 10.485531356594787 9.16975258341706 L 10.679686695898312 9.16975258341706 Q 10.699102264059515 9.616309110736422 10.93208856853119 10.101698485920798 L 11.067997716813883 11.32487637045426 L 10.737933400381925 12.276239381507548 L 9.048781837190987 12.276239381507548 L 9.048781837190987 12.742211648142375 L 13.922081273037408 12.742211648142375 L 13.922081273037408 12.276239381507548 L 13.51435451280637 12.276239381507548 L 13.825003261077125 11.32487637045426 L 13.84441900039259 10.606502231186555 Q 14.19389820036871 10.490008479910806 14.368638484973811 10.33468393462117 Q 14.621040357606692 10.567671437172667 14.931688078951879 10.567671437172667 Q 14.912273708870499 10.76182609185915 15.009351720830782 10.89773421321628 Q 15.785971708810798 11.499616655059363 17.78577231979245 11.946173182378724 L 18.465315665046262 13.266429763489512 Q 18.465315665046262 12.942390932799807 18.666445882775246 12.942390932799807 Q 18.73044046079052 12.942390932799807 18.81479623425647 12.97519504299162 L 18.27116032574274 12.00442040032512 L 18.27116032574274 12.00442040032512 Q 19.39726088293296 12.256823642192083 19.97972758546058 12.645134320799134 Q 20.290376676039852 12.97519504299162 19.94089679144669 13.44116867886053 Q 20.71751746404375 13.11110658743396 20.814596160621075 12.509224145590878 Q 20.503945700807716 9.577479001339576 15.552985575493386 8.431961335599805 L 15.203506375517266 9.014428722744466 L 14.892857284937993 9.014428722744466 Q 14.640456096922156 8.198975202282393 12.893057700881908 7.88832679632016 Q 13.283009064230479 7.599008318923254 13.852256838599681 7.599008318923254 Q 14.161630487629424 7.599008318923254 14.523962345646407 7.684463587358902 Q 14.891470935427632 7.771140212597752 15.241644337084495 7.771140212597752 Q 15.87195550160299 7.771140212597752 16.446100683983236 7.490308248055377 Q 17.339214423239 7.053458905776705 20.989335075992095 2.665548716748965 Q 20.31660024722249 1.8173165880798985 19.56675152405883 1.8173165880798985 Q 19.321111613951302 1.8173165880798985 19.067196737655266 1.9083427565418083 L 14.349222745658347 5.286645797346556 L 14.349222745658347 0.025035944973045218 Q 14.173971736739798 0.0 14.014203342229544 0.0 Z"
     style="fill:#ffffff;stroke:none"
     id="path6" />
  <path
     d="M 14.787816725437374 15.285542133461169 C 15.549371373096287 15.285542133461169 16.502609207919512 15.676756272943992 16.963869255453197 16.13801632047768 C 17.367423959429352 16.541570682145313 17.42018123331472 17.07660848522664 17.434973411436005 17.573762319663377 L 12.163093570676018 17.573762319663377 C 12.177885919951562 17.07660848522664 12.230643193836931 16.541570682145313 12.634197726658826 16.13801632047768 C 13.095457945346773 15.676756272943992 14.02626242008698 15.285542133461169 14.787816725437374 15.285542133461169 ZM 14.787816725437374 14.859305039952915 C 13.884368520776045 14.859305039952915 12.912275476840618 15.276666758126694 12.34256182057423 15.846380414393082 C 11.758218113396996 16.430724336850286 11.69198941469321 17.200007968606588 11.69198941469321 17.775664100798863 L 11.69198941469321 17.99999941317163 L 17.883644036181536 17.99999941317163 L 17.883644036181536 17.775664100798863 C 17.883644036181536 17.200007968606588 17.839849083994995 16.430724336850286 17.25550516153779 15.846380414393082 C 16.685791847579925 15.276666758126694 15.691265101252963 14.859305039952915 14.787816725437374 14.859305039952915 Z"
     style="fill:#ffffff;stroke:none"
     id="path8" />
  <path
     d="M 33.655542253811426 8.203407192002246 C 33.14464679780286 8.243740548330095 32.86231004489047 8.499188095300077 32.808531814039966 8.969749289809286 C 32.875754738378824 9.48064510788646 33.15809149129121 9.749537529379097 33.655542253811426 9.776426916355803 C 34.15299301633164 9.749537529379097 34.4151629100458 9.48064510788646 34.4420515728853 8.969749289809286 C 34.40171821655745 8.499188095300077 34.13954832284329 8.243740548330095 33.655542253811426 8.203407192002246 ZM 33.7160424693375 6.509385226253514 C 34.079047383180004 6.509385226253514 34.415163272114405 6.576608422143824 34.7243894120035 6.711054813924445 C 35.03361518982398 6.845501205705066 35.30586833210295 7.030364654964103 35.54114883884041 7.2656453427358585 C 35.776429707646464 7.500926030507614 35.96129324742265 7.769818270965949 36.09573945816897 8.07232170204226 C 36.230185306846685 8.374825314152872 36.29740805015124 8.694134883641077 36.29740805015124 9.030250591541176 C 36.29740805015124 9.37981044982672 36.230185306846685 9.705842366059102 36.09573945816897 10.008346340238319 C 35.96129324742265 10.310849952348931 35.776429707646464 10.576381290986632 35.54114883884041 10.80493963201421 C 35.30586833210295 11.03349797304179 35.03361518982398 11.2116389850395 34.7243894120035 11.339363392144548 C 34.415163272114405 11.467087075112389 34.079047383180004 11.530948735562006 33.7160424693375 11.530948735562006 C 33.35303809859791 11.530948735562006 33.01356185094578 11.467087075112389 32.69761354534681 11.339363392144548 C 32.38166469664494 11.2116389850395 32.109411192297365 11.03349797304179 31.880853122821236 10.80493963201421 C 31.652294419725052 10.576381290986632 31.470792234355255 10.310849952348931 31.33634647619469 10.008346340238319 C 31.201900129672648 9.705842366059102 31.134676933782337 9.37981044982672 31.134676933782337 9.030250591541176 C 31.134676933782337 8.694134883641077 31.201900129672648 8.374825314152872 31.33634647619469 8.07232170204226 C 31.470792234355255 7.769818270965949 31.652294419725052 7.500926030507614 31.880853122821236 7.2656453427358585 C 32.109411192297365 7.030364654964103 32.38166469664494 6.845501205705066 32.69761354534681 6.711054813924445 C 33.01356185094578 6.576608422143824 33.35303809859791 6.509385226253514 33.7160424693375 6.509385226253514 ZM 33.67570947507826 5.823710203170776 C 33.23203676237424 5.823710203170776 32.815253617681236 5.907739107516513 32.42535967893063 6.075796916207987 C 32.03546592121433 6.243854747528749 31.699350575382834 6.472413088556328 31.417013731953297 6.761471961920012 C 31.134676933782337 7.050531423645179 30.909479630351118 7.386646678959522 30.741421821659646 7.769817908897345 C 30.573364612644298 8.152989681938074 30.489336013793945 8.566411562741841 30.489336013793945 9.010083370274344 C 30.489336013793945 9.45375535884115 30.573364612644298 9.867177239644917 30.741421821659646 10.250349012685646 C 30.909479630351118 10.633520785726375 31.134676933782337 10.966275229737235 31.417013731953297 11.24861198264962 C 31.699350575382834 11.530948735562006 32.03546592121433 11.756146355803253 32.42535967893063 11.924204119236151 C 32.815253617681236 12.09226115853184 33.23203676237424 12.17629004024829 33.67570947507826 12.17629004024829 C 34.11938146364506 12.17629004024829 34.532802982380225 12.09226115853184 34.915974031283746 11.924204119236151 C 35.299145804324475 11.756146355803253 35.63526133119027 11.530948735562006 35.92432097394974 11.24861198264962 C 36.213379892572 10.966275229737235 36.44193823359958 10.633520785726375 36.60999563496387 10.250349012685646 C 36.77805412253398 9.867177239644917 36.86208300425043 9.45375535884115 36.86208300425043 9.010083370274344 C 36.86208300425043 8.566411562741841 36.77805412253398 8.152989681938074 36.60999563496387 7.769817908897345 C 36.44193823359958 7.386646678959522 36.213379892572 7.050531423645179 35.92432097394974 6.761471961920012 C 35.63526133119027 6.472413088556328 35.299145804324475 6.243854747528749 34.915974031283746 6.075796916207987 C 34.532802982380225 5.907739107516513 34.11938146364506 5.823710203170776 33.67570947507826 5.823710203170776 Z"
     style="fill:#ffffff;stroke:none"
     id="path10" />
  <path
     d="M 41.43318464234896 2.575157330507584 C 42.61873435663965 2.575157330507584 43.62580221431969 3.46051103989107 43.98141568393129 4.33802563844513 L 42.900656552696994 4.4967611226698665 C 42.62994256082451 3.9596298082623393 42.084869026808335 3.6586358242491808 41.36151497258603 3.6586358242491808 C 41.35562910700221 3.6586358242491808 41.349731419174006 3.6586557966772095 41.34382208822632 3.6586956519708096 C 40.64524978687705 3.6634524932150283 40.097826850475 4.0193192454565185 39.902590903184446 4.4967611226698665 L 38.83880005124724 4.254826593524636 C 39.2996275104332 3.2698574661774744 40.3655904758716 2.58112884019141 41.419620945531115 2.575195954317393 C 41.42414456613593 2.575170182720239 41.42866603724177 2.575157330507584 41.43318464234896 2.575157330507584 ZM 41.41425687082486 4.527391304019475 C 41.85011471988311 4.527391304019475 42.0716481750779 4.800641704689148 42.0716481750779 5.3256521734696 C 42.0716481750779 5.801133170237833 41.85011471988311 6.310583057647397 41.41425687082486 6.8752173906374905 C 40.978399200891516 6.310583057647397 40.75686556657181 5.801133170237833 40.75686556657181 5.3256521734696 C 40.75686556657181 4.800641704689148 40.978399200891516 4.527391304019475 41.41425687082486 4.527391304019475 ZM 41.41425687082486 8.236956520875939 C 41.77291116499444 8.763866788505474 41.889369586767735 9.634886765451903 41.41425687082486 10.514347824895415 C 41.10569468002568 9.83077419005851 41.003440864016305 8.991560349529031 41.41425687082486 8.236956520875939 ZM 41.41425687082486 2.25 C 40.75056466855981 2.25 40.142633694101775 2.450628323733387 39.582952523262804 2.836956521654504 C 39.02327184501735 3.223285256950366 38.60972940026735 3.8398357223208817 38.362082958221436 4.691739130082736 L 39.79425687105842 4.785652173547457 C 39.764539241588565 4.944145839136867 39.74730034932607 5.117629035867969 39.74730034932607 5.3256521734696 C 39.74730034932607 5.969533160129484 40.104172887965596 6.69685017397248 40.82730034917035 7.509130434024355 C 40.54003055789893 8.063858442712208 40.32321417821721 8.549025798386992 40.33425687098057 9.199565216389326 C 40.310547538973964 10.182198644406618 40.57084201366258 10.508755545047377 40.89773513176889 11.429999998676442 L 38.9959960016083 15.749999998053589 L 39.98208295798786 15.749999998053589 L 41.41425687082486 12.181304346394207 L 42.82295252279567 15.749999998053589 L 43.83251774004141 15.749999998053589 L 41.93077860988082 11.429999998676442 C 42.25767154886222 10.508755545047377 42.48182201906597 10.207531922893116 42.47077860980296 9.199565216389326 C 42.481821660816145 8.549025798386992 42.27491053068718 8.063858442712208 41.97773513161318 7.509130434024355 C 42.71076837974543 6.69685017397248 43.08121339232365 5.969533160129484 43.08121339232365 5.3256521734696 C 43.08121339232365 5.117629035867969 43.05040211568492 4.944145839136867 43.01077860972511 4.785652173547457 L 44.442952522562095 4.691739130082736 C 44.195306237250485 3.8398357223208817 43.810195551377 3.223285256950366 43.24556121838691 2.836956521654504 C 42.68092760189648 2.450628323733387 42.06804346528732 2.25 41.41425687082486 2.25 Z"
     style="fill:#ffffff;stroke:none"
     id="path12" />
  <path
     d="M 46.69321539976402 3.896978974342346 Q 46.60307289914459 3.896978974342346 46.47733579609212 4.006999075465781 Q 45.98112253314595 4.674977984192287 45.94295263290405 5.915509203924939 Q 46.095633750033926 6.8888511728802 46.63001614382621 8.663765601059493 Q 46.439165120797114 10.095148432182723 46.343739993980456 12.595295869856214 Q 46.26739943541552 13.435042308251267 46.801782621232874 13.683150543575122 Q 48.385846705261706 14.103021228292418 50.80965469320536 14.103021228292418 Q 53.2525478603915 14.103021228292418 54.81752785138366 13.683150543575122 Q 55.37099823045011 13.435042308251267 55.29465606520574 12.595295869856214 Q 55.19923071209621 10.095148432182723 55.00837783346552 8.663765601059493 Q 55.5427643005296 6.8888511728802 55.69544138964625 5.915509203924939 Q 55.65727501391592 4.674977984192287 55.16105854326821 4.006999075465781 Q 55.03532153073289 3.896978974342346 54.94517948269922 3.896978974342346 Q 54.81640471457271 3.896978974342346 54.7602724946905 4.121509528615294 Q 54.89386712007919 4.503212321439982 55.00837783346552 4.865829052479958 Q 55.16105854326821 5.323871634473798 55.12288999512626 5.724659040808779 Q 55.084720722847095 6.37355260057314 54.99883515332712 6.78388223446076 Q 54.91295320449319 7.194212049382683 54.645760333029756 7.194212049382683 Q 54.63151800240584 7.195351479280829 54.61770001618632 7.195351479280829 Q 54.16863356748209 7.195351479280829 54.16863356748209 5.991849739860589 Q 54.16863356748209 5.55289260866069 54.28314500500562 4.923084228138817 Q 54.18482672374668 4.7559449422382105 54.07131459557138 4.7559449422382105 Q 53.96448046073621 4.7559449422382105 53.84418678759991 4.903998958379178 Q 53.78693143090675 5.362041540373019 53.76784607062996 5.915509203924939 Q 53.691505353660006 6.755254737148482 54.16863356748209 8.282062740346943 Q 53.996867497402604 10.438680572341694 53.996867497402604 12.595295869856214 Q 52.69908110201109 12.80523266048928 50.80965469320536 12.86248874131965 Q 48.93931454984793 12.80523266048928 47.641527249284906 12.595295869856214 Q 47.641527249284906 10.438680572341694 47.469760817136816 8.282062740346943 Q 47.946888668890296 6.755254737148482 47.870548132954646 5.915509203924939 Q 47.851462772677856 5.362041540373019 47.794207597018996 4.903998958379178 Q 47.67391374284839 4.7559449422382105 47.56707924594462 4.7559449422382105 Q 47.45356757035508 4.7559449422382105 47.355250284784795 4.923084228138817 Q 47.469760817136816 5.55289260866069 47.469760817136816 5.991849739860589 Q 47.469760817136816 7.195351479280829 47.020693734812525 7.195351479280829 Q 47.00687629169592 7.195351479280829 46.9926335990034 7.194212049382683 Q 46.72544199478007 7.194212049382683 46.63955918603321 6.78388223446076 Q 46.55367633202777 6.37355260057314 46.51550570199134 5.724659040808779 Q 46.47733579609212 5.323871634473798 46.63001614382621 4.865829052479958 Q 46.74452735505686 4.503212321439982 46.878123157168524 4.121509528615294 Q 46.821990303666254 3.896978974342346 46.69321539976402 3.896978974342346 Z"
     style="fill:#ffffff;stroke:none"
     id="path14" />
  <path
     d="M 60.17360927968286 3.249682887168601 C 60.782531044827756 3.249682887168601 61.41242475043695 3.425077492939745 62.06334925438277 3.7752697836980227 C 61.703643770353246 3.905449493871674 61.073884001162206 3.970555569631979 60.17360927968286 3.970555569631979 C 59.4956643778565 3.970555569631979 58.985657438203205 3.8706899809506288 58.64359379037283 3.6708642602339387 C 59.114471367669964 3.390172457405206 59.624536701747786 3.249682887168601 60.17360927968286 3.249682887168601 ZM 68.90163204569643 3.8090004424727155 C 69.198222889221 3.8090004424727155 69.49765837542589 3.815206935593414 69.78579500393346 3.886823526240187 C 69.95087974964164 3.9353984184868027 70.1355794606157 3.989921199974088 70.23687802993692 4.140214545261115 C 70.29003364037388 4.201667725354055 70.2603099513962 4.292990117038171 70.2110139343515 4.34641545410268 C 70.01707029328594 4.537805497714908 69.73613008242909 4.5997545669684765 69.47372036895409 4.628643122985922 C 69.28291334269146 4.644439278267127 69.09204699510869 4.651460512644261 68.90125943365423 4.651460512644261 C 68.2143871365931 4.651460512644261 67.52852144818327 4.560453265473443 66.85002272621958 4.4602419447230925 C 66.30927645170493 4.368892673065784 65.76817702995628 4.276432980446916 65.2223281950131 4.22255253762938 C 66.4087425483709 4.0967876313287706 67.58179662815616 3.838777891396785 68.77781083952635 3.80920157882385 C 68.8190039349968 3.809120938904271 68.86028972002998 3.8090004424727155 68.90163204569643 3.8090004424727155 ZM 60.17360927968286 4.4797697817999875 C 61.073884001162206 4.4797697817999875 61.703643770353246 4.544875857560291 62.06334925438277 4.675055567733944 C 61.41242475043695 5.0252478584922216 60.782531044827756 5.200642464263365 60.17360927968286 5.200642464263365 C 59.624536701747786 5.200642464263365 59.114471367669964 5.060152894026761 58.64359379037283 4.779461091198027 C 58.985657438203205 4.579635370481338 59.4956643778565 4.4797697817999875 60.17360927968286 4.4797697817999875 ZM 60.17360927968286 2.25 C 59.84823647313799 2.2886033490876434 59.68551345748827 2.459697159147909 59.68551345748827 2.763010776657611 C 59.44286214637747 2.801615052640882 59.21946709192476 2.8622868597199704 59.01541982507333 2.945008586877957 C 58.91263022827357 2.7584643536054863 58.774338906879166 2.665134305992542 58.60057668016973 2.665134305992542 C 58.52262997169796 2.665134305992542 58.43754558758587 2.683915065193796 58.3453261926584 2.721485852552578 C 58.080616271822194 2.914503524886422 58.01994388543334 3.1434801130830965 58.163328382438046 3.408189454609528 C 57.9923700729323 3.4909121086631423 57.66971428712606 3.763817988222181 57.19544172286987 4.227060957960784 C 57.67522908438485 4.690303927699388 57.997884812260125 4.966000689992361 58.163328382438046 5.0542374461330475 C 58.01994388543334 5.318947714555106 58.08061621389122 5.545133420017846 58.3453261926584 5.732636063368991 C 58.43895203583841 5.770779672225471 58.52522365738718 5.789855184236222 58.604138044893894 5.789855184236222 C 58.77622954223504 5.789855184236222 58.91333327860691 5.69914176297927 59.01541982507333 5.517655599145218 C 59.22498212090746 5.594861370424878 59.45116736292239 5.652745075456915 59.69381844230927 5.691348424544557 C 59.69381844230927 6.00017707103696 59.85375127039678 6.173823551654932 60.17360927968286 6.212426900742576 C 60.493467520692846 6.173823551654932 60.65340011705644 6.00017707103696 60.65340011705644 5.691348424544557 L 61.16617360843345 5.600230876794084 C 61.25525383959503 5.812327768721188 61.40303529773195 5.9183590671156345 61.60956432762559 5.9183590671156345 C 61.67153703271766 5.9183590671156345 61.73879906770717 5.908812042153986 61.81135228638537 5.889718919126317 C 62.092607178307716 5.729790493793043 62.17536366405173 5.509183773111291 62.059552689893174 5.2279302715323865 C 62.48970687607902 4.9852791921455 62.94184053827608 4.7814159140760975 63.41611263908446 4.615971532864496 C 64.17163963181518 4.615971532864496 65.1781940597171 4.708373757954469 66.43556783472188 4.893120740605518 C 67.69294068283104 5.077865869465313 68.60151251051855 5.170032663065941 69.16126385297626 5.170032663065941 C 69.72101519543398 5.170032663065941 70.14572155257011 5.073561366171925 70.43524852451868 4.880544620733708 C 70.72477549646726 4.687526021504237 70.86948058801703 4.469712037347672 70.86948058801703 4.227060957960784 C 70.86948058801703 3.989925834452224 70.72477456957164 3.774899952342712 70.43524852451868 3.5818822800088674 C 70.14572155257011 3.388864607675023 69.72101519543398 3.2923942376766355 69.16126385297626 3.2923942376766355 C 68.60151251051855 3.2923942376766355 67.69294068283104 3.3847983165578626 66.43556783472188 3.569543445417658 C 65.17819498661272 3.754288574277452 64.17163963181518 3.8466917262630522 63.41611263908446 3.84669265315868 C 62.936325972741194 3.681249198842706 62.48419184709632 3.4771467817014488 62.059552689893174 3.234496629210189 L 62.051247705072164 3.234496629210189 C 62.17257324476561 2.9477271717529585 62.092607178307716 2.7243314221285253 61.81135228638537 2.564402996795252 C 61.7399085617731 2.545601845890196 61.67359566790599 2.5362012704376684 61.61241128754498 2.5362012704376684 C 61.40439273637819 2.5362012704376684 61.25566260056669 2.6448640255181455 61.16617360843345 2.8621960239484907 L 60.65340011705644 2.771315761478618 C 60.65340011705644 2.4624871149862155 60.493467520692846 2.2886042759832708 60.17360927968286 2.25 Z"
     style="fill:#ffffff;stroke:none"
     id="path16" />
  <path
     d="M 64.03246107138693 12.878848205320537 C 64.83797718185043 12.878848205320537 65.84624157287462 13.2926455512671 66.33412829320878 13.78053227160126 C 66.7609785744137 14.207382190737576 66.81678131186588 14.773305557384845 66.83242738246918 15.299158067442477 L 61.25622328836471 15.299158067442477 C 61.27186954000231 14.773305557384845 61.32767227745449 14.207382190737576 61.75452237762511 13.78053227160126 C 62.24240927899357 13.2926455512671 63.22694532299204 12.878848205320537 64.03246107138693 12.878848205320537 ZM 64.03246107138693 12.428006172180176 C 63.07686046404881 12.428006172180176 62.048652429121034 12.869460490544839 61.44605151284486 13.472061406821012 C 60.8279760121225 14.090137135250586 60.75792419910431 14.903828392733544 60.75792419910431 15.512714819982648 L 60.75792419910431 15.750000100582838 L 67.30699794366956 15.750000100582838 L 67.30699794366956 15.512714819982648 C 67.30699794366956 14.903828392733544 67.2606748864186 14.090137135250586 66.64259915798903 13.472061406821012 C 66.03999860378146 12.869460490544839 64.98806185975936 12.428006172180176 64.03246107138693 12.428006172180176 Z"
     style="fill:#ffffff;stroke:none"
     id="path18" />
  <path
     d="M 74.20744544761106 2.9892379897054955 C 74.48506354881407 2.9892379897054955 74.82491885854026 3.095985977015074 74.92400954526694 3.340333519869274 L 74.8875279301725 11.279334014803599 L 74.8875279301725 11.279334014803599 C 74.74671713884365 10.960512872387417 74.32841876542905 10.367342335933275 73.08597394255504 9.632436990092634 L 74.02923475236435 3.06154244747758 C 74.07348628330197 3.0145252182361735 74.072326113371 2.9892379897054955 74.20744544761106 2.9892379897054955 ZM 74.8875279301725 11.279334014803599 L 74.8875279301725 11.279334014803599 C 74.8875279301725 11.279334014803599 74.88752810921106 11.279334014803599 74.88752810921106 11.279334014803599 L 74.8875279301725 11.279334014803599 L 74.8875279301725 11.279334014803599 ZM 74.0754379827491 2.25 C 73.86293262853549 2.25 73.67112851941174 2.280338063237631 73.53533116610863 2.317373030601139 L 72.3694806098938 10.098160711168036 C 72.98619937325216 10.520569989179059 74.68103540728008 11.67797341616124 74.61345049572175 12.683307927520042 L 74.626088112195 15.75000086141948 L 75.48686473400197 15.73816856043225 L 75.48203749608861 3.119482909369111 C 75.22607214045355 2.427915471835376 74.59005642102593 2.25 74.0754379827491 2.25 Z"
     style="fill:#ffffff;stroke:none"
     id="path20" />
  <path
     d="M 78.82482964293882 2.9892379897054955 C 79.10244774414183 2.9892379897054955 79.44230305386802 3.095985977015074 79.5413937405947 3.340333519869274 L 79.50491212550025 11.279334014803599 L 79.50491212550025 11.279334014803599 C 79.36410133417141 10.960512872387417 78.94580296075681 10.367342335933275 77.7033581378828 9.632436990092634 L 78.6466189476921 3.06154244747758 C 78.69087047862973 3.0145252182361735 78.68971030869876 2.9892379897054955 78.82482964293882 2.9892379897054955 ZM 79.50491212550025 11.279334014803599 L 79.50491212550025 11.279334014803599 C 79.50491212550025 11.279334014803599 79.50491230453882 11.279334014803599 79.50491230453882 11.279334014803599 L 79.50491212550025 11.279334014803599 L 79.50491212550025 11.279334014803599 ZM 78.69282217807685 2.25 C 78.48031682386325 2.25 78.2885127147395 2.280338063237631 78.15271536143639 2.317373030601139 L 76.98686480522156 10.098160711168036 C 77.60358356857992 10.520569989179059 79.29841960260784 11.67797341616124 79.23083469104951 12.683307927520042 L 79.24347230752277 15.75000086141948 L 80.10424892932973 15.73816856043225 L 80.09942169141637 3.119482909369111 C 79.84345633578131 2.427915471835376 79.2074406163537 2.25 78.69282217807685 2.25 Z"
     style="fill:#ffffff;stroke:none"
     id="path22" />
  <path
     d="M 30.489336013793945 0.375 C 20.86433607339859 0.375 20.86433607339859 17.625 30.489336013793945 17.625 "
     style="fill:none;stroke:#ffffff;stroke-width:1"
     id="path24" />
  <path
     d="M 30.489336013793945 0.375 L 80.10425186157227 0.375 "
     style="fill:none;stroke:#ffffff;stroke-width:1"
     id="path26" />
  <path
     d="M 30.489336013793945 17.625 L 80.10425186157227 17.625 "
     style="fill:none;stroke:#ffffff;stroke-width:1"
     id="path28" />
  <path
     d="M 87.79175186157227 0.375 L 87.79175186157227 17.625 "
     style="fill:none;stroke:#ffffff;stroke-width:1"
     id="path30" />
  <path
     d="M 80.10425186157227 0.375 C 89.7292537689209 0.375 89.7292537689209 17.625 80.10425186157227 17.625 "
     style="fill:none;stroke:#ffffff;stroke-width:1"
     id="path32" />
</svg>
