<?xml version="1.0" encoding="UTF-8" standalone="no"?>
<svg
   width="56.58913803100586"
   height="18.0"
   version="1.1"
   id="svg10"
   sodipodi:docname="wehemdjed.svg"
   inkscape:version="1.1.1 (3bf5ae0d25, 2021-09-20)"
   xmlns:inkscape="http://www.inkscape.org/namespaces/inkscape"
   xmlns:sodipodi="http://sodipodi.sourceforge.net/DTD/sodipodi-0.dtd"
   xmlns="http://www.w3.org/2000/svg"
   xmlns:svg="http://www.w3.org/2000/svg">
  <defs
     id="defs14" />
  <sodipodi:namedview
     id="namedview12"
     pagecolor="#ffffff"
     bordercolor="#666666"
     borderopacity="1.0"
     inkscape:pageshadow="2"
     inkscape:pageopacity="0.0"
     inkscape:pagecheckerboard="0"
     showgrid="false"
     inkscape:zoom="24.297949"
     inkscape:cx="28.294569"
     inkscape:cy="8.9925285"
     inkscape:window-width="1920"
     inkscape:window-height="1001"
     inkscape:window-x="-9"
     inkscape:window-y="-9"
     inkscape:window-maximized="1"
     inkscape:current-layer="svg10" />
  <path
     d="M 22.77966110174755 0.5684490592972326 Q 22.633638086057772 0.6049545148491455 22.633638086057772 0.696219735092747 Q 22.633638086057772 0.7874840005506465 22.72490223216746 0.8422427507825265 Q 22.76140750869705 0.864146310549385 22.796453872674018 0.864146310549385 Q 22.84902246385376 0.864146310549385 22.898304682647282 0.8148638530594374 Q 22.980442987017422 0.7327252503187663 22.92568411743733 0.6505866475780953 Q 22.870925247857237 0.5684490592972326 22.77966110174755 0.5684490592972326 ZM 2.5609985348740345 0.46936116044907683 Q 2.359843567091113 0.46936116044907683 2.1720992805818096 0.7509784853246271 Q 2.2816167810455696 0.9335079710261279 2.5189051363271635 0.988266721258008 Q 2.5554108902496084 0.9973931597386192 2.589888440644617 0.9973931597386192 Q 2.762277147405363 0.9973931597386192 2.8839638690337397 0.7692307655447858 Q 2.8839638690337397 0.5136903090653525 2.6284226367909236 0.47718380921657794 Q 2.5945244026205927 0.46936116044907683 2.5609985348740345 0.46936116044907683 ZM 1.241199810550572 0.7874840005506465 Q 1.186441060318692 0.9152547360202673 1.2777053257765913 1.0247722364840275 L 0.5110819274186749 1.0977842217217681 Q 0.4928296471985162 0.9335079710261279 1.241199810550572 0.7874840005506465 ZM 1.9876164226822657 1.222624719872005 Q 1.9876164226822657 1.222624719872005 1.9876164226822657 1.222624719872005 L 1.9876164226822657 1.222624719872005 L 1.9876164226822657 1.222624719872005 ZM 2.125909851373434 1.2203396789907357 Q 2.284224539494109 1.2203396789907357 2.382007723680506 1.2529337952403716 Q 2.418033220394854 1.2649421350142038 2.3813761329386445 1.2649421350142038 Q 2.314213403607673 1.2649421350142038 2.0030587685814902 1.2246304859354444 L 2.0030585298850645 1.2246304859354444 Q 2.068468511363622 1.2203396789907357 2.125909851373434 1.2203396789907357 ZM 5.49470864855246 2.472162196565138 Q 5.540779445637364 2.472162196565138 5.621903767591998 2.539765559497574 Q 7.100390859290249 3.7627121350422854 9.290743732922557 5.405476312873666 Q 11.481095651769165 7.048240490705046 11.754889044883926 7.723598609145255 Q 9.966101851362767 7.468058331688141 8.697522964066787 6.318122547899043 Q 7.428944554163657 5.168188196288498 6.488918406955382 4.082139033390444 Q 5.548891782354257 2.996088915706688 5.439374520586923 2.667536414315408 Q 5.416389009597399 2.472162196565138 5.49470864855246 2.472162196565138 ZM 5.554353633962448 1.6040624432514505 Q 5.819804109613288 1.6040624432514505 6.059973769447039 1.7001303549242361 Q 11.736636406619128 6.007822446076134 12.558018495534819 7.303781245555012 Q 13.324641714870417 8.709256829408373 13.561929831455585 9.457627410479173 Q 13.461538888820648 9.568057924770454 13.322497266183765 9.568057924770454 Q 13.208735504578268 9.568057924770454 13.069100960020451 9.49413364179447 L 12.320730378949651 7.979140318780923 Q 11.754889044883926 6.683181519302044 9.555411284297772 5.104303007576006 Q 7.355932568925916 3.5254240184571173 6.370273871269948 2.603650986906491 Q 5.791486120478193 2.0623774824348997 5.483335241270446 2.0623774824348997 Q 5.266714415990388 2.0623774824348997 5.183833288344107 2.3298573550953035 Q 5.042689704984308 2.7853667564934774 4.685065172449792 2.7853667564934774 Q 4.533956013325552 2.7853667564934774 4.344197606377917 2.704041929541427 Q 4.508475169903898 1.8461543253997177 5.0560624335262725 1.6818780747040774 Q 5.315446678219568 1.6040624432514505 5.554353633962448 1.6040624432514505 ZM 6.023468492917445 8.033898710968165 Q 6.899609451413228 9.439374772214377 6.735331887887247 10.863103471725385 Q 6.5710557565398195 10.863103471725385 6.42503274085004 11.100391588310554 Q 6.365295618619811 10.697168400220765 6.0611810959671955 10.697168400220765 Q 5.99359993180233 10.697168400220765 5.913950753757259 10.717080456035607 Q 6.2972618860322065 9.311604394789393 6.023468492917445 8.033898710968165 ZM 2.768605228341677 0.3457626296377467 Q 2.854758883981503 0.3457626296377467 2.920469384259759 0.35853969124988744 Q 3.2490218856510396 0.42242505898469784 3.3037807552311325 0.5958278973462152 Q 3.3423147126810133 0.7178524937648807 3.3808493862201705 0.7178524937648807 Q 3.3970742983503825 0.7178524937648807 3.4132992104805946 0.696219735092747 Q 3.4680568865785597 0.6232077498550063 3.4863100022362077 0.5319425296114048 Q 3.887874488865229 1.061277632361834 3.5410688718163006 2.101695796338959 Q 3.1942632547673724 3.14211288618217 4.654497708200826 3.3428945327556163 Q 6.0052153772597965 6.445893402716877 7.556713976802937 8.06127814575821 Q 9.10821353113178 9.676662888799545 8.852672776281816 11.100391588310554 Q 8.262843406239485 10.66180027346223 7.547702231954776 10.66180027346223 Q 7.399740523897122 10.66180027346223 7.2464148297657305 10.680575179506013 Q 7.301173699345823 9.384615902634284 6.6258155809056145 8.125163811863553 Q 5.950456507679704 6.865711243699971 5.38461565100683 6.235985198314606 Q 4.818774316941105 5.6062591529292405 3.860495770164459 4.739244036173004 Q 2.9022162686021113 3.872229635506046 2.911342826430935 2.9504568426518447 Q 2.920469384259759 2.0286838111012186 3.166884297370177 1.6636248396982167 Q 3.4132992104805946 1.298565868295215 3.404172413955345 1.0795309867159075 Q 3.4003959978075793 0.9888957460132952 3.368491117486562 0.9888957460132952 Q 3.323292755836844 0.9888957460132952 3.221642928253844 1.170795132825594 Q 3.0482402390775927 1.4810953539967158 2.2633636653879217 1.4993485890025766 Q 2.2171959575542664 1.5004222455244558 2.1705229293878365 1.5004222455244558 Q 1.4237308477788386 1.5004222455244558 0.5475883974303962 1.2255549571913888 L 0.5475883974303962 1.2255549571913888 L 1.6245109428255198 1.298565868295215 Q 2.1565852064067235 1.4089965019347084 2.4153431116795185 1.4089965019347084 Q 2.627053474094281 1.4089965019347084 2.6558013554916937 1.3350723383069363 Q 2.7196867829006104 1.170795132825594 2.5554106515531827 1.1434162947766116 Q 2.3911342815093297 1.116036382593714 2.2177315923330783 1.116036382593714 Q 2.0443286644604015 1.116036382593714 1.953064399002502 1.170795132825594 L 1.9876164226822657 1.222624719872005 L 1.9876164226822657 1.222624719872005 Q 1.8278830423566574 1.2018226844347024 1.6062577078196592 1.170795132825594 Q 1.3689705460201929 0.7874840005506465 1.5332466773676203 0.6232077498550063 Q 1.5697521925936397 0.5684490592972326 1.6610164580515392 0.5684490592972326 Q 1.6245109428255198 0.7509784853246271 1.7249017661122432 0.8422427507825265 Q 1.7620839857045425 0.8760447306192765 1.798014123196905 0.8760447306192765 Q 1.8590952256508866 0.8760447306192765 1.9165579289907808 0.7783573830477161 Q 2.0078231492343823 0.6232077498550063 1.7522816782951405 0.5501957646172655 Q 2.4239901283895215 0.3457626296377467 2.768605228341677 0.3457626296377467 ZM 23.01695017311842 0.38591957359573165 Q 23.509778089767853 0.38591957359573165 23.747067161138723 0.7509784853246271 Q 23.82007771419791 0.8057372355565071 24.659714350949802 0.9517601915721803 L 24.659714350949802 1.0065190014781666 L 23.747067161138723 1.0795309867159075 Q 22.96219130353833 1.0795309867159075 22.76140750869705 0.9608868090751106 Q 22.56062562342718 0.8422427507825265 22.56975337473813 0.6870931175898166 Q 22.578879216477677 0.5319425296114048 22.816166378277146 0.5319425296114048 Q 23.053455449648016 0.5319425296114048 23.144719595757703 0.614081132352076 Q 23.23598374186739 0.696219735092747 23.190352623598248 0.7874840005506465 Q 23.144719595757703 0.8787482063344395 23.01695017311842 0.9335079710261279 Q 23.036506093866425 0.9348116712280785 23.054711947631823 0.9348116712280785 Q 23.291393775296232 0.9348116712280785 23.299870362758433 0.7144720153129057 Q 23.30899620449798 0.47718380921657794 22.907432433958235 0.4406782939905586 Q 22.3963490146869 0.4406782939905586 22.524120346897586 0.8148638530594374 Q 22.645949092899134 1.171644176011082 23.64728059785314 1.171644176011082 Q 23.69612743436656 1.171644176011082 23.747067161138723 1.170795132825594 Q 24.312907540418745 1.1342897369477876 24.75097849705949 1.0430254714898881 L 24.714473220529893 0.9700134862521473 L 24.714473220529893 0.9700134862521473 Q 26.338983805310775 1.9739250608693384 26.238591907890136 3.2607569444747537 Q 26.138201920040903 4.547588947428382 24.97001397537986 5.396349993741268 Q 23.801826030718814 6.245110562661302 22.889178840907736 7.267275491632566 Q 21.465450141396726 9.001303815573634 21.35593240223654 9.986962513229603 Q 21.246414663076354 10.97262121088557 21.848762228457378 10.97262121088557 Q 22.451107884266992 10.97262121088557 23.318122046237526 10.251630064604818 Q 24.185138117779466 9.530638918324064 25.079531714540046 9.512386280059266 Q 27.470664563870823 9.567144194853658 27.196872125541763 11.720991791956372 Q 26.320730212260276 10.790091963880496 25.225554730229824 10.790091963880496 Q 24.677966034428895 10.790091963880496 23.728813568088224 11.264668197050833 Q 22.286831275526716 12.031291416386429 21.53846260402732 12.031291416386429 L 20.9178614455958 11.94002631549104 Q 19.786180687035753 11.100391588310554 20.151239181045902 9.457627410479173 Q 20.69882596727543 8.271186827553333 21.629726750137007 5.222947065868591 Q 22.26857959204762 3.488918503231098 22.898304682647282 2.594524429077667 Q 23.52803168281835 1.7001303549242361 24.239896987359558 1.6818780747040774 Q 24.623207164848804 1.6818780747040774 25.48109548507979 2.0469359719731646 Q 25.516527582480354 2.0565995967593533 25.54286630085524 2.0565995967593533 Q 25.665772045128623 2.0565995967593533 25.590613224239974 1.8461543253997177 Q 24.90056286341766 1.4183230873680976 23.98094382841071 1.4183230873680976 Q 23.68429382037619 1.4183230873680976 23.36375507407807 1.4628421189908551 Q 23.08996072617761 1.4628421189908551 22.697522797377413 1.3168191033010757 Q 22.305084868577215 1.170795132825594 22.305084868577215 0.6232077498550063 Q 22.633638086057772 0.38591957359573165 23.01695017311842 0.38591957359573165 ZM 5.183833288344107 3.0508475465903557 Q 6.607562465247967 4.876141210123237 7.794002570780957 6.05345547391668 Q 8.980443153706798 7.2307702151029725 10.029987517468108 7.641461259560818 Q 11.079530926443718 8.052151349232961 11.973924523204298 8.070405897069161 Q 12.083442262364484 8.21642795797324 14.146023803786107 12.68839689656184 L 14.018253426361124 12.743155766141934 L 9.10821353113178 9.603651380954656 Q 9.144719762447076 9.329857033054191 7.657105874223576 7.641461259560818 Q 6.169491508607224 5.953063576496041 5.037810272654327 3.178618401408189 L 5.183833288344107 3.0508475465903557 ZM 10.22164260621273 10.917862341305478 L 12.941329627809766 12.578879157401655 Q 13.032594728705156 12.83441991225162 12.284224147634355 12.92568501314701 Q 12.117919574063066 12.945966571028519 11.97865548635762 12.945966571028519 Q 11.491235475924217 12.945966571028519 11.33507072650798 12.69752369308709 Q 11.13428979602381 12.378097272131784 10.823990171593753 11.867014807646152 Q 10.51368863759229 11.35593329794622 10.22164260621273 10.917862341305478 ZM 19.51238633913529 10.132986483705084 Q 19.51238633913529 10.899609703040682 19.73142181745566 11.465450082320704 Q 20.297262196735684 12.469361418241471 21.246414663076354 12.487615011291968 Q 21.271391857040214 12.488095268500066 21.296634481429226 12.488095268500066 Q 22.230630679536628 12.488095268500066 23.52803168281835 11.830508576330855 Q 24.760560726364584 11.205802794166512 25.321529788993093 11.205802794166512 Q 25.367013870264127 11.205802794166512 25.408083022449198 11.20990932747074 Q 25.955671718250127 11.264668197050833 26.594524560160743 11.775749706750762 Q 27.233377402071355 12.286832171236394 27.26988267860095 12.670144258297045 Q 27.336545816313357 12.981237309645449 27.213848215323008 12.981237309645449 Q 27.134969549339438 12.981237309645449 26.97783664722139 12.85267350530212 Q 26.453025319126954 11.803050849113246 25.632165497990247 11.803050849113246 Q 25.625090535938558 11.803050849113246 25.617992659030023 11.80312914154081 Q 24.78748377358908 11.812255938066059 23.573664710658896 12.451108779976673 Q 22.359843738157306 13.089961621887287 20.744458995115973 13.089961621887287 Q 19.129074252074638 13.089961621887287 18.946545959855264 12.049544054651227 Q 18.764015758064488 11.009126487415164 19.51238633913529 10.132986483705084 ZM 5.9869617842092975 11.191656689205942 L 6.260756609502613 11.739244430221168 Q 6.516296886959727 11.483703675371203 6.65319453830281 11.438070647530658 Q 6.65701845503925 11.436796008618511 6.66032249096096 11.436796008618511 Q 6.775304946086441 11.436796008618511 6.260756609502613 12.980443882727103 L 5.494133390167016 13.21773199931227 Q 5.293350550111441 13.071708028836788 5.6127774484596 12.314211606026442 Q 5.932203392022056 11.556715183216093 5.9869617842092975 11.191656689205942 ZM 25.3841465449005 12.332304795079008 Q 25.989295451531138 12.332304795079008 26.338983805310775 12.83441991225162 Q 26.101694733939905 13.21773199931227 25.225554730229824 13.436768432418344 Q 24.550196611789616 13.436768432418344 23.85658490029891 12.870926143566917 Q 24.757383199548386 12.332304795079008 25.3841465449005 12.332304795079008 ZM 23.272490927968388 13.089961621887287 Q 23.54354504090416 13.354712239618575 23.860314293250852 13.52803162374233 L 21.3870259534073 13.52803162374233 Q 22.296396318689176 13.432913007753738 23.272490927968388 13.089961621887287 ZM 13.835724179356049 14.239895973497832 Q 11.793824251025065 17.175128731674494 7.949174820459982 17.25145239111956 L 7.949174820459982 17.25145239111956 Q 4.122734108017405 17.175128731674494 2.080834179686421 14.239895973497832 ZM 28.602347232002273 14.258150521334034 Q 26.56044825845699 17.19338041515359 22.715797395713356 17.26970598417006 L 22.715797395713356 17.26970598417006 Q 18.889337110163886 17.19338041515359 16.829205548853547 14.258150521334034 ZM 3.0828786708633857 0.008692117630364187 Q 2.971576914619046 0.008692117630364187 2.8474573990220184 0.020860628300151455 Q 2.5554106515531827 0.020860628300151455 1.186441060318692 0.4406782939905586 Q 0.09126423562084626 0.696219735092747 0.0 1.0977842217217681 L 0.036505492848229494 1.7183835899300968 L 0.5840939126564156 1.5176008692227352 Q 1.4784879271357403 1.8096488101736983 2.080834179686421 1.8096488101736983 Q 2.6831812676745908 1.8096488101736983 2.5371572971991094 2.2203398546315434 Q 2.3911342815093297 2.6310308990893883 2.5736637672108307 3.5893094458660344 Q 2.7561932529123316 4.547588947428382 4.015645343683063 5.5241203711662505 Q 5.275098389239495 6.5006522722969695 5.576270739751453 8.079530784023007 Q 5.877444522441963 9.658410250534748 5.037810272654327 11.720991791956372 L 5.311603665769089 11.556715183216093 Q 5.3170254163777955 11.553462228329439 5.320836443507258 11.553462228329439 Q 5.38118176422965 11.553462228329439 5.037810272654327 12.368970475606535 Q 4.672751301251325 13.235984637577067 4.04302525586596 13.263364072367114 Q 3.93189679322653 13.268195288019145 3.833558162458005 13.268195288019145 Q 3.3746456661215403 13.268195288019145 3.1942632547673724 13.162973129732178 Q 2.989829552883843 13.04372039555458 2.5866402596864733 13.04372039555458 Q 2.5578429681289827 13.04372039555458 2.5280316941559873 13.044328594046743 Q 2.080834179686421 13.053455390571992 2.080834179686421 13.345502376737253 L 2.080834179686421 13.52803162374233 L 0.8031288539098296 13.52803162374233 Q 2.9022162686021113 17.981746969280433 7.958279656914086 18.000000562330932 Q 13.014342090440358 17.981746969280433 15.113428908391576 13.52803162374233 L 15.113428908391576 13.52803162374233 L 9.49152561819243 13.564537855057624 Q 9.49152561819243 13.400261246317346 9.144719762447076 13.208605202787021 Q 8.975349371986722 13.115006605635987 8.75591479324292 13.115006605635987 Q 8.526030084990925 13.115006605635987 8.241198414375544 13.21773199931227 Q 8.071091884138962 13.279081754593147 7.876274067756523 13.279081754593147 Q 7.433506997640579 13.279081754593147 6.863102742705081 12.962191244462305 Q 6.990873597522914 12.323337447765988 7.17340284452799 11.821382734591309 Q 7.355932568925916 11.319427066630926 7.867014556018697 11.228161965735536 Q 7.91433659976605 11.219711157487291 7.962910844961551 11.219711157487291 Q 8.438939307184603 11.219711157487291 9.03520202328689 12.031291416386429 Q 9.382007879032244 11.35593329794622 9.235984863342464 10.205997991549975 L 9.235984863342464 10.205997991549975 L 9.418514110347541 10.333768368974956 Q 10.787483940278456 12.633638026981748 11.070404129918469 13.035202752307194 Q 11.28503327222419 13.339837633167392 11.904089587389903 13.339837633167392 Q 12.10106378728027 13.339837633167392 12.338983017214447 13.308996145421958 Q 13.324641714870417 13.181225767996974 13.30638907660562 12.83441991225162 L 13.30638907660562 12.83441991225162 L 14.146023803786107 13.254238230627566 L 14.784876645696722 13.016950114042398 L 13.37940058445051 9.968709874964805 Q 13.726206440195863 9.968709874964805 14.018253426361124 9.676662888799545 Q 13.67144757061577 8.581486451983391 12.941329627809766 7.2307702151029725 Q 12.430248118109837 6.409388126187283 11.900913015359407 5.953063576496041 Q 10.4589307227979 4.602347339615624 8.907431645861907 3.3885266058104597 Q 7.355932568925916 2.174706826790998 6.6258155809056145 1.5176008692227352 Q 6.135176987870829 1.237236402210505 5.607156147639178 1.237236402210505 Q 5.310143798430758 1.237236402210505 5.0013035639461805 1.3259457804781123 Q 4.143416198500896 1.5723605742403173 3.9608864741029697 2.539765559497574 Q 3.906127843219302 2.50326028296798 4.0521506202126565 1.8096488101736983 Q 4.198174590688137 1.116036382593714 3.988266386285867 0.5228169265682828 Q 3.8063448603801033 0.008692117630364187 3.0828786708633857 0.008692117630364187 ZM 23.079162099888187 0.0 Q 22.74837277429359 0.0 22.451107884266992 0.09387261726752386 Q 22.06779770677775 0.20339010281275738 21.994785244147156 0.5136903090653525 Q 21.848762228457378 0.8970014413403002 22.12255657635784 1.2711870302462323 Q 22.3963490146869 1.645371604692356 22.980442987017422 1.7366368249359574 Q 21.81225504235638 2.795307030436816 20.99087390822639 5.478487343325705 Q 20.22424973410509 8.033898710968165 19.713168224405162 9.2568455252093 Q 18.344198394474244 10.370274600290251 18.353324236213794 11.492829517110751 Q 18.362451987524743 12.615385388716952 18.91003877375427 13.089961621887287 Q 19.30575352708367 13.432913007753738 20.06368533217412 13.52803162374233 L 15.55149986503232 13.52803162374233 Q 17.650586682983537 17.981746969280433 22.706650548688362 18.000000562330932 Q 27.762712504821785 17.981746969280433 29.861799322773003 13.52803162374233 L 26.348111556621728 13.52803162374233 Q 26.5488934418916 13.418513884582143 26.75880116890102 13.272490868892364 Q 26.964314972109918 13.516538868247567 27.224062512762817 13.516538868247567 Q 27.333429395782087 13.516538868247567 27.452412880391726 13.473272754162236 Q 27.908735520511563 13.254238230627566 27.6349411726111 12.469361418241471 Q 27.890481927461064 10.22425062981477 27.032595516801482 9.603651380954656 Q 26.1747071965705 8.983051177308838 25.09778339801914 8.983051177308838 Q 24.112125655148873 8.983051177308838 22.96219130353833 9.831812701014574 Q 22.249229905011244 10.358045705019261 21.98532331784051 10.358045705019261 Q 21.823573072067678 10.358045705019261 21.83050863540688 10.160365918495131 Q 21.848762228457378 9.64015665748425 22.633638086057772 8.398957204978315 Q 23.162973188808202 7.522817201268234 24.933506789278862 6.144720097419217 Q 26.704042299320925 4.766623948355902 26.685788706270426 3.370274444938514 Q 26.667537022791333 1.9739250608693384 25.900912848670032 1.2711870302462323 Q 25.134290584120137 0.5684490592972326 24.20338980125856 0.47718380921657794 Q 24.05736678556878 0.2764020731319715 23.82007771419791 0.1486313525808773 Q 23.582790552398443 0.020860628300151455 23.190352623598248 0.0026073821053958263 Q 23.13429142632065 0.0 23.079162099888187 0.0 Z"
     style="fill:#ffffff;stroke:none"
     id="path2" />
  <path
     d="M 34.67259976492534 1.434477551078292 L 36.320311125272084 2.4812583958489407 Q 36.6498532541212 5.71852534546694 36.38815837114158 7.695779073363195 Q 36.126462055959585 9.673031846457864 36.078001101483636 10.962123789168743 Q 36.02953871480531 12.251214777078037 36.70800783169471 14.422316142084414 Q 36.68862297250354 14.577394060812196 36.145846915150756 14.868167426080552 Q 35.891421414042924 15.004467262024795 35.54328977572343 15.004467262024795 Q 35.14874045832112 15.004467262024795 34.63383100134458 14.82939770769821 Q 35.66122686757386 12.929684371368223 35.52553285323567 10.70042795138754 Q 35.38983955499866 8.471172486208443 35.002142848576035 5.689449250182166 Q 34.61444614215341 2.907725059354303 34.67259976492534 1.434477551078292 ZM 33.93597607046243 15.701715893900104 Q 34.8276788771551 15.856793812627886 35.447993177770584 16.011872686157254 Q 35.215375583577725 16.864805535767186 34.362442495267395 17.097423846061233 Q 33.996900288735304 17.197116589214467 33.65984148440374 17.197116589214467 Q 33.210429864645185 17.197116589214467 32.8116556695769 17.01988440929655 Q 33.16058361241877 16.20572127806896 33.93597607046243 15.701715893900104 ZM 33.8196677507668 0.0 Q 33.64520377934586 1.6089415224992258 34.23644186532637 5.418060744104982 Q 34.8276788771551 9.227180562461728 34.8276788771551 10.54535003265976 Q 34.8276788771551 14.034619913062583 33.49012574126788 14.751858270933527 Q 32.23011108734376 16.031258022749217 31.861799240112305 17.330042156355283 Q 32.23011108734376 17.83404754052414 33.179967516808354 17.960048886566355 Q 33.481142132499386 17.999999694510056 33.755032576781375 17.999999694510056 Q 34.34494957541805 17.999999694510056 34.80829401796393 17.81466315873376 Q 35.486762896152925 17.543274175255785 35.83568988419321 17.097423846061233 Q 36.281541406889744 16.496492733734144 36.087692337577245 15.740484657480861 L 36.92124080539679 15.29463432828631 Q 37.5221709629223 15.003860963017955 37.289552652628245 14.364162041911696 Q 36.339695984463255 11.8053634930819 36.930932996291986 8.316093612679076 Q 37.5221709629223 4.826823732276253 37.09570453811733 2.054791971043975 L 33.8196677507668 0.0 Z"
     style="fill:#ffffff;stroke:none"
     id="path4" />
  <path
     d="M 43.65030777723337 0.38297850975848313 L 43.65030777723337 0.7898940585148237 L 42.62105228066845 0.7898940585148237 L 42.62105228066845 0.38297850975848313 ZM 44.96679747689459 1.5558511377113133 Q 44.775308326454514 1.7712764319563987 44.775308326454514 2.2978721924618397 L 41.49605292503777 2.2978721924618397 Q 41.51998894948374 1.7712764319563987 41.32849967968461 1.5558511377113133 ZM 44.96679747689459 3.0638302265307003 Q 44.72743627756259 3.2792554014167394 44.775308326454514 3.805851042563134 L 41.49605292503777 3.805851042563134 Q 41.51998894948374 3.2792554014167394 41.32849967968461 3.0638302265307003 ZM 44.96679747689459 4.571808121759624 Q 44.775308326454514 4.7393624413442 44.775308326454514 5.313829892664428 L 41.49605292503777 5.313829892664428 Q 41.5439249739297 4.787234490236126 41.32849967968461 4.571808121759624 ZM 44.871052424238364 6.079786971860917 Q 44.53594617225014 6.678192118653758 44.55988195797801 7.683511352054621 L 41.663605096159515 7.683511352054621 Q 41.71147809992381 6.678192118653758 41.35243570413058 6.079786971860917 ZM 44.55988195797801 7.851064716766826 L 44.55988195797801 8.018617126606662 L 41.663605096159515 8.018617126606662 L 41.663605096159515 7.851064716766826 ZM 44.55988195797801 8.186171446191238 L 44.55988195797801 8.353723856031072 L 41.663605096159515 8.353723856031072 L 41.663605096159515 8.186171446191238 ZM 44.55988195797801 8.521277220743277 L 44.55988195797801 8.688830585455484 L 41.663605096159515 8.688830585455484 L 41.663605096159515 8.521277220743277 ZM 44.55988195797801 8.85638395016769 L 44.55988195797801 9.023936360007523 L 41.663605096159515 9.023936360007523 L 41.663605096159515 8.85638395016769 ZM 44.55988195797801 9.19148972471973 L 44.55988195797801 15.007979234084589 Q 44.775308326454514 16.085107734413807 45.32583999204687 17.37766117091097 L 40.921584160768035 17.37766117091097 Q 41.35243570413058 16.420214463838217 41.663605096159515 15.007979234084589 L 41.663605096159515 9.19148972471973 ZM 42.26201000423426 0.0 L 42.26201000423426 0.7898940585148237 L 39.58115831730181 0.7898940585148237 Q 39.126371704365674 1.1728725981130685 39.58115831730181 1.5558511377113133 L 40.68222284207699 1.5558511377113133 Q 40.89764813632207 1.7712764319563987 40.87371199251706 2.2978721924618397 L 39.58115831730181 2.2978721924618397 Q 39.126371704365674 2.6808516869324555 39.58115831730181 3.0638302265307003 L 40.68222284207699 3.0638302265307003 Q 40.89764813632207 3.2792554014167394 40.87371199251706 3.805851042563134 L 39.58115831730181 3.805851042563134 Q 39.126371704365674 4.188829820879471 39.58115831730181 4.571808121759624 L 40.68222284207699 4.571808121759624 Q 40.921584160768035 4.787234490236126 40.87371199251706 5.313829892664428 L 39.58115831730181 5.313829892664428 Q 39.126371704365674 5.67287240781671 39.58115831730181 6.079786971860917 L 40.68222284207699 6.079786971860917 Q 41.113073430567155 6.582447065997535 41.06520126231619 9.119681412663748 L 41.06520126231619 15.007979234084589 Q 40.89764813632207 16.324469411181994 39.89232872388264 18.000001148559306 L 46.450840541268015 18.000001148559306 Q 45.301904206319 16.085107734413807 45.18222289049872 15.007979234084589 L 45.18222289049872 9.119681412663748 Q 45.06254157467844 6.606382851725405 45.5891384094153 6.079786971860917 L 46.71413800376407 6.079786971860917 Q 47.192861357300444 5.720744456708636 46.71413800376407 5.313829892664428 L 45.42158408983072 5.313829892664428 Q 45.39764830410285 4.7393624413442 45.5891384094153 4.571808121759624 L 46.78594583838387 4.571808121759624 Q 47.192861357300444 4.164893557715415 46.71413800376407 3.805851042563134 L 45.42158408983072 3.805851042563134 Q 45.39764830410285 3.2792554014167394 45.5891384094153 3.0638302265307003 L 46.71413800376407 3.0638302265307003 Q 47.16892557157257 2.6808516869324555 46.71413800376407 2.2978721924618397 L 45.42158408983072 2.2978721924618397 Q 45.39764830410285 1.7712764319563987 45.5891384094153 1.5558511377113133 L 46.71413800376407 1.5558511377113133 Q 47.16892557157257 1.1728725981130685 46.71413800376407 0.7898940585148237 L 44.03328607811352 0.7898940585148237 L 44.03328607811352 0.0 Z"
     style="fill:#ffffff;stroke:none"
     id="path6" />
  <path
     d="M 53.26799500257517 0.38297850975848313 L 53.26799500257517 0.7898940585148237 L 52.23873950601025 0.7898940585148237 L 52.23873950601025 0.38297850975848313 ZM 54.58448470223639 1.5558511377113133 Q 54.39299555179631 1.7712764319563987 54.39299555179631 2.2978721924618397 L 51.11374015037957 2.2978721924618397 Q 51.137676174825536 1.7712764319563987 50.94618690502641 1.5558511377113133 ZM 54.58448470223639 3.0638302265307003 Q 54.345123502904386 3.2792554014167394 54.39299555179631 3.805851042563134 L 51.11374015037957 3.805851042563134 Q 51.137676174825536 3.2792554014167394 50.94618690502641 3.0638302265307003 ZM 54.58448470223639 4.571808121759624 Q 54.39299555179631 4.7393624413442 54.39299555179631 5.313829892664428 L 51.11374015037957 5.313829892664428 Q 51.161612199271495 4.787234490236126 50.94618690502641 4.571808121759624 ZM 54.48873964958016 6.079786971860917 Q 54.15363339759194 6.678192118653758 54.177569183319804 7.683511352054621 L 51.28129232150131 7.683511352054621 Q 51.329165325265606 6.678192118653758 50.970122929472375 6.079786971860917 ZM 54.177569183319804 7.851064716766826 L 54.177569183319804 8.018617126606662 L 51.28129232150131 8.018617126606662 L 51.28129232150131 7.851064716766826 ZM 54.177569183319804 8.186171446191238 L 54.177569183319804 8.353723856031072 L 51.28129232150131 8.353723856031072 L 51.28129232150131 8.186171446191238 ZM 54.177569183319804 8.521277220743277 L 54.177569183319804 8.688830585455484 L 51.28129232150131 8.688830585455484 L 51.28129232150131 8.521277220743277 ZM 54.177569183319804 8.85638395016769 L 54.177569183319804 9.023936360007523 L 51.28129232150131 9.023936360007523 L 51.28129232150131 8.85638395016769 ZM 54.177569183319804 9.19148972471973 L 54.177569183319804 15.007979234084589 Q 54.39299555179631 16.085107734413807 54.94352721738867 17.37766117091097 L 50.53927138610983 17.37766117091097 Q 50.970122929472375 16.420214463838217 51.28129232150131 15.007979234084589 L 51.28129232150131 9.19148972471973 ZM 51.87969722957606 0.0 L 51.87969722957606 0.7898940585148237 L 49.1988455426436 0.7898940585148237 Q 48.74405892970747 1.1728725981130685 49.1988455426436 1.5558511377113133 L 50.299910067418786 1.5558511377113133 Q 50.515335361663865 1.7712764319563987 50.491399217858856 2.2978721924618397 L 49.1988455426436 2.2978721924618397 Q 48.74405892970747 2.6808516869324555 49.1988455426436 3.0638302265307003 L 50.299910067418786 3.0638302265307003 Q 50.515335361663865 3.2792554014167394 50.491399217858856 3.805851042563134 L 49.1988455426436 3.805851042563134 Q 48.74405892970747 4.188829820879471 49.1988455426436 4.571808121759624 L 50.299910067418786 4.571808121759624 Q 50.53927138610983 4.787234490236126 50.491399217858856 5.313829892664428 L 49.1988455426436 5.313829892664428 Q 48.74405892970747 5.67287240781671 49.1988455426436 6.079786971860917 L 50.299910067418786 6.079786971860917 Q 50.73076065590895 6.582447065997535 50.68288848765798 9.119681412663748 L 50.68288848765798 15.007979234084589 Q 50.515335361663865 16.324469411181994 49.51001594922444 18.000001148559306 L 56.06852776660981 18.000001148559306 Q 54.9195914316608 16.085107734413807 54.79991011584052 15.007979234084589 L 54.79991011584052 9.119681412663748 Q 54.68022880002024 6.606382851725405 55.206825634757095 6.079786971860917 L 56.33182522910587 6.079786971860917 Q 56.81054858264224 5.720744456708636 56.33182522910587 5.313829892664428 L 55.03927131517252 5.313829892664428 Q 55.01533552944465 4.7393624413442 55.206825634757095 4.571808121759624 L 56.403633063725664 4.571808121759624 Q 56.81054858264224 4.164893557715415 56.33182522910587 3.805851042563134 L 55.03927131517252 3.805851042563134 Q 55.01533552944465 3.2792554014167394 55.206825634757095 3.0638302265307003 L 56.33182522910587 3.0638302265307003 Q 56.78661279691437 2.6808516869324555 56.33182522910587 2.2978721924618397 L 55.03927131517252 2.2978721924618397 Q 55.01533552944465 1.7712764319563987 55.206825634757095 1.5558511377113133 L 56.33182522910587 1.5558511377113133 Q 56.78661279691437 1.1728725981130685 56.33182522910587 0.7898940585148237 L 53.65097330345532 0.7898940585148237 L 53.65097330345532 0.0 Z"
     style="fill:#ffffff;stroke:none"
     id="path8" />
</svg>
