<?xml version="1.0" encoding="UTF-8" standalone="no"?>
<svg
   width="89.12415313720703"
   height="18.0"
   version="1.1"
   id="svg18"
   sodipodi:docname="werhabusedmitatenen.svg"
   inkscape:version="1.1.1 (3bf5ae0d25, 2021-09-20)"
   xmlns:inkscape="http://www.inkscape.org/namespaces/inkscape"
   xmlns:sodipodi="http://sodipodi.sourceforge.net/DTD/sodipodi-0.dtd"
   xmlns="http://www.w3.org/2000/svg"
   xmlns:svg="http://www.w3.org/2000/svg">
  <defs
     id="defs22" />
  <sodipodi:namedview
     id="namedview20"
     pagecolor="#ffffff"
     bordercolor="#666666"
     borderopacity="1.0"
     inkscape:pageshadow="2"
     inkscape:pageopacity="0.0"
     inkscape:pagecheckerboard="0"
     showgrid="false"
     inkscape:zoom="15.427917"
     inkscape:cx="44.562077"
     inkscape:cy="8.9772329"
     inkscape:window-width="1920"
     inkscape:window-height="1001"
     inkscape:window-x="-9"
     inkscape:window-y="-9"
     inkscape:window-maximized="1"
     inkscape:current-layer="svg18" />
  <path
     d="M 22.77966110174755 0.5684490592972326 Q 22.633638086057772 0.6049545148491455 22.633638086057772 0.696219735092747 Q 22.633638086057772 0.7874840005506465 22.72490223216746 0.8422427507825265 Q 22.76140750869705 0.864146310549385 22.796453872674018 0.864146310549385 Q 22.84902246385376 0.864146310549385 22.898304682647282 0.8148638530594374 Q 22.980442987017422 0.7327252503187663 22.92568411743733 0.6505866475780953 Q 22.870925247857237 0.5684490592972326 22.77966110174755 0.5684490592972326 ZM 2.5609985348740345 0.46936116044907683 Q 2.359843567091113 0.46936116044907683 2.1720992805818096 0.7509784853246271 Q 2.2816167810455696 0.9335079710261279 2.5189051363271635 0.988266721258008 Q 2.5554108902496084 0.9973931597386192 2.589888440644617 0.9973931597386192 Q 2.762277147405363 0.9973931597386192 2.8839638690337397 0.7692307655447858 Q 2.8839638690337397 0.5136903090653525 2.6284226367909236 0.47718380921657794 Q 2.5945244026205927 0.46936116044907683 2.5609985348740345 0.46936116044907683 ZM 1.241199810550572 0.7874840005506465 Q 1.186441060318692 0.9152547360202673 1.2777053257765913 1.0247722364840275 L 0.5110819274186749 1.0977842217217681 Q 0.4928296471985162 0.9335079710261279 1.241199810550572 0.7874840005506465 ZM 1.9876164226822657 1.222624719872005 Q 1.9876164226822657 1.222624719872005 1.9876164226822657 1.222624719872005 L 1.9876164226822657 1.222624719872005 L 1.9876164226822657 1.222624719872005 ZM 2.125909851373434 1.2203396789907357 Q 2.284224539494109 1.2203396789907357 2.382007723680506 1.2529337952403716 Q 2.418033220394854 1.2649421350142038 2.3813761329386445 1.2649421350142038 Q 2.314213403607673 1.2649421350142038 2.0030587685814902 1.2246304859354444 L 2.0030585298850645 1.2246304859354444 Q 2.068468511363622 1.2203396789907357 2.125909851373434 1.2203396789907357 ZM 5.49470864855246 2.472162196565138 Q 5.540779445637364 2.472162196565138 5.621903767591998 2.539765559497574 Q 7.100390859290249 3.7627121350422854 9.290743732922557 5.405476312873666 Q 11.481095651769165 7.048240490705046 11.754889044883926 7.723598609145255 Q 9.966101851362767 7.468058331688141 8.697522964066787 6.318122547899043 Q 7.428944554163657 5.168188196288498 6.488918406955382 4.082139033390444 Q 5.548891782354257 2.996088915706688 5.439374520586923 2.667536414315408 Q 5.416389009597399 2.472162196565138 5.49470864855246 2.472162196565138 ZM 5.554353633962448 1.6040624432514505 Q 5.819804109613288 1.6040624432514505 6.059973769447039 1.7001303549242361 Q 11.736636406619128 6.007822446076134 12.558018495534819 7.303781245555012 Q 13.324641714870417 8.709256829408373 13.561929831455585 9.457627410479173 Q 13.461538888820648 9.568057924770454 13.322497266183765 9.568057924770454 Q 13.208735504578268 9.568057924770454 13.069100960020451 9.49413364179447 L 12.320730378949651 7.979140318780923 Q 11.754889044883926 6.683181519302044 9.555411284297772 5.104303007576006 Q 7.355932568925916 3.5254240184571173 6.370273871269948 2.603650986906491 Q 5.791486120478193 2.0623774824348997 5.483335241270446 2.0623774824348997 Q 5.266714415990388 2.0623774824348997 5.183833288344107 2.3298573550953035 Q 5.042689704984308 2.7853667564934774 4.685065172449792 2.7853667564934774 Q 4.533956013325552 2.7853667564934774 4.344197606377917 2.704041929541427 Q 4.508475169903898 1.8461543253997177 5.0560624335262725 1.6818780747040774 Q 5.315446678219568 1.6040624432514505 5.554353633962448 1.6040624432514505 ZM 6.023468492917445 8.033898710968165 Q 6.899609451413228 9.439374772214377 6.735331887887247 10.863103471725385 Q 6.5710557565398195 10.863103471725385 6.42503274085004 11.100391588310554 Q 6.365295618619811 10.697168400220765 6.0611810959671955 10.697168400220765 Q 5.99359993180233 10.697168400220765 5.913950753757259 10.717080456035607 Q 6.2972618860322065 9.311604394789393 6.023468492917445 8.033898710968165 ZM 2.768605228341677 0.3457626296377467 Q 2.854758883981503 0.3457626296377467 2.920469384259759 0.35853969124988744 Q 3.2490218856510396 0.42242505898469784 3.3037807552311325 0.5958278973462152 Q 3.3423147126810133 0.7178524937648807 3.3808493862201705 0.7178524937648807 Q 3.3970742983503825 0.7178524937648807 3.4132992104805946 0.696219735092747 Q 3.4680568865785597 0.6232077498550063 3.4863100022362077 0.5319425296114048 Q 3.887874488865229 1.061277632361834 3.5410688718163006 2.101695796338959 Q 3.1942632547673724 3.14211288618217 4.654497708200826 3.3428945327556163 Q 6.0052153772597965 6.445893402716877 7.556713976802937 8.06127814575821 Q 9.10821353113178 9.676662888799545 8.852672776281816 11.100391588310554 Q 8.262843406239485 10.66180027346223 7.547702231954776 10.66180027346223 Q 7.399740523897122 10.66180027346223 7.2464148297657305 10.680575179506013 Q 7.301173699345823 9.384615902634284 6.6258155809056145 8.125163811863553 Q 5.950456507679704 6.865711243699971 5.38461565100683 6.235985198314606 Q 4.818774316941105 5.6062591529292405 3.860495770164459 4.739244036173004 Q 2.9022162686021113 3.872229635506046 2.911342826430935 2.9504568426518447 Q 2.920469384259759 2.0286838111012186 3.166884297370177 1.6636248396982167 Q 3.4132992104805946 1.298565868295215 3.404172413955345 1.0795309867159075 Q 3.4003959978075793 0.9888957460132952 3.368491117486562 0.9888957460132952 Q 3.323292755836844 0.9888957460132952 3.221642928253844 1.170795132825594 Q 3.0482402390775927 1.4810953539967158 2.2633636653879217 1.4993485890025766 Q 2.2171959575542664 1.5004222455244558 2.1705229293878365 1.5004222455244558 Q 1.4237308477788386 1.5004222455244558 0.5475883974303962 1.2255549571913888 L 0.5475883974303962 1.2255549571913888 L 1.6245109428255198 1.298565868295215 Q 2.1565852064067235 1.4089965019347084 2.4153431116795185 1.4089965019347084 Q 2.627053474094281 1.4089965019347084 2.6558013554916937 1.3350723383069363 Q 2.7196867829006104 1.170795132825594 2.5554106515531827 1.1434162947766116 Q 2.3911342815093297 1.116036382593714 2.2177315923330783 1.116036382593714 Q 2.0443286644604015 1.116036382593714 1.953064399002502 1.170795132825594 L 1.9876164226822657 1.222624719872005 L 1.9876164226822657 1.222624719872005 Q 1.8278830423566574 1.2018226844347024 1.6062577078196592 1.170795132825594 Q 1.3689705460201929 0.7874840005506465 1.5332466773676203 0.6232077498550063 Q 1.5697521925936397 0.5684490592972326 1.6610164580515392 0.5684490592972326 Q 1.6245109428255198 0.7509784853246271 1.7249017661122432 0.8422427507825265 Q 1.7620839857045425 0.8760447306192765 1.798014123196905 0.8760447306192765 Q 1.8590952256508866 0.8760447306192765 1.9165579289907808 0.7783573830477161 Q 2.0078231492343823 0.6232077498550063 1.7522816782951405 0.5501957646172655 Q 2.4239901283895215 0.3457626296377467 2.768605228341677 0.3457626296377467 ZM 23.01695017311842 0.38591957359573165 Q 23.509778089767853 0.38591957359573165 23.747067161138723 0.7509784853246271 Q 23.82007771419791 0.8057372355565071 24.659714350949802 0.9517601915721803 L 24.659714350949802 1.0065190014781666 L 23.747067161138723 1.0795309867159075 Q 22.96219130353833 1.0795309867159075 22.76140750869705 0.9608868090751106 Q 22.56062562342718 0.8422427507825265 22.56975337473813 0.6870931175898166 Q 22.578879216477677 0.5319425296114048 22.816166378277146 0.5319425296114048 Q 23.053455449648016 0.5319425296114048 23.144719595757703 0.614081132352076 Q 23.23598374186739 0.696219735092747 23.190352623598248 0.7874840005506465 Q 23.144719595757703 0.8787482063344395 23.01695017311842 0.9335079710261279 Q 23.036506093866425 0.9348116712280785 23.054711947631823 0.9348116712280785 Q 23.291393775296232 0.9348116712280785 23.299870362758433 0.7144720153129057 Q 23.30899620449798 0.47718380921657794 22.907432433958235 0.4406782939905586 Q 22.3963490146869 0.4406782939905586 22.524120346897586 0.8148638530594374 Q 22.645949092899134 1.171644176011082 23.64728059785314 1.171644176011082 Q 23.69612743436656 1.171644176011082 23.747067161138723 1.170795132825594 Q 24.312907540418745 1.1342897369477876 24.75097849705949 1.0430254714898881 L 24.714473220529893 0.9700134862521473 L 24.714473220529893 0.9700134862521473 Q 26.338983805310775 1.9739250608693384 26.238591907890136 3.2607569444747537 Q 26.138201920040903 4.547588947428382 24.97001397537986 5.396349993741268 Q 23.801826030718814 6.245110562661302 22.889178840907736 7.267275491632566 Q 21.465450141396726 9.001303815573634 21.35593240223654 9.986962513229603 Q 21.246414663076354 10.97262121088557 21.848762228457378 10.97262121088557 Q 22.451107884266992 10.97262121088557 23.318122046237526 10.251630064604818 Q 24.185138117779466 9.530638918324064 25.079531714540046 9.512386280059266 Q 27.470664563870823 9.567144194853658 27.196872125541763 11.720991791956372 Q 26.320730212260276 10.790091963880496 25.225554730229824 10.790091963880496 Q 24.677966034428895 10.790091963880496 23.728813568088224 11.264668197050833 Q 22.286831275526716 12.031291416386429 21.53846260402732 12.031291416386429 L 20.9178614455958 11.94002631549104 Q 19.786180687035753 11.100391588310554 20.151239181045902 9.457627410479173 Q 20.69882596727543 8.271186827553333 21.629726750137007 5.222947065868591 Q 22.26857959204762 3.488918503231098 22.898304682647282 2.594524429077667 Q 23.52803168281835 1.7001303549242361 24.239896987359558 1.6818780747040774 Q 24.623207164848804 1.6818780747040774 25.48109548507979 2.0469359719731646 Q 25.516527582480354 2.0565995967593533 25.54286630085524 2.0565995967593533 Q 25.665772045128623 2.0565995967593533 25.590613224239974 1.8461543253997177 Q 24.90056286341766 1.4183230873680976 23.98094382841071 1.4183230873680976 Q 23.68429382037619 1.4183230873680976 23.36375507407807 1.4628421189908551 Q 23.08996072617761 1.4628421189908551 22.697522797377413 1.3168191033010757 Q 22.305084868577215 1.170795132825594 22.305084868577215 0.6232077498550063 Q 22.633638086057772 0.38591957359573165 23.01695017311842 0.38591957359573165 ZM 5.183833288344107 3.0508475465903557 Q 6.607562465247967 4.876141210123237 7.794002570780957 6.05345547391668 Q 8.980443153706798 7.2307702151029725 10.029987517468108 7.641461259560818 Q 11.079530926443718 8.052151349232961 11.973924523204298 8.070405897069161 Q 12.083442262364484 8.21642795797324 14.146023803786107 12.68839689656184 L 14.018253426361124 12.743155766141934 L 9.10821353113178 9.603651380954656 Q 9.144719762447076 9.329857033054191 7.657105874223576 7.641461259560818 Q 6.169491508607224 5.953063576496041 5.037810272654327 3.178618401408189 L 5.183833288344107 3.0508475465903557 ZM 10.22164260621273 10.917862341305478 L 12.941329627809766 12.578879157401655 Q 13.032594728705156 12.83441991225162 12.284224147634355 12.92568501314701 Q 12.117919574063066 12.945966571028519 11.97865548635762 12.945966571028519 Q 11.491235475924217 12.945966571028519 11.33507072650798 12.69752369308709 Q 11.13428979602381 12.378097272131784 10.823990171593753 11.867014807646152 Q 10.51368863759229 11.35593329794622 10.22164260621273 10.917862341305478 ZM 19.51238633913529 10.132986483705084 Q 19.51238633913529 10.899609703040682 19.73142181745566 11.465450082320704 Q 20.297262196735684 12.469361418241471 21.246414663076354 12.487615011291968 Q 21.271391857040214 12.488095268500066 21.296634481429226 12.488095268500066 Q 22.230630679536628 12.488095268500066 23.52803168281835 11.830508576330855 Q 24.760560726364584 11.205802794166512 25.321529788993093 11.205802794166512 Q 25.367013870264127 11.205802794166512 25.408083022449198 11.20990932747074 Q 25.955671718250127 11.264668197050833 26.594524560160743 11.775749706750762 Q 27.233377402071355 12.286832171236394 27.26988267860095 12.670144258297045 Q 27.336545816313357 12.981237309645449 27.213848215323008 12.981237309645449 Q 27.134969549339438 12.981237309645449 26.97783664722139 12.85267350530212 Q 26.453025319126954 11.803050849113246 25.632165497990247 11.803050849113246 Q 25.625090535938558 11.803050849113246 25.617992659030023 11.80312914154081 Q 24.78748377358908 11.812255938066059 23.573664710658896 12.451108779976673 Q 22.359843738157306 13.089961621887287 20.744458995115973 13.089961621887287 Q 19.129074252074638 13.089961621887287 18.946545959855264 12.049544054651227 Q 18.764015758064488 11.009126487415164 19.51238633913529 10.132986483705084 ZM 5.9869617842092975 11.191656689205942 L 6.260756609502613 11.739244430221168 Q 6.516296886959727 11.483703675371203 6.65319453830281 11.438070647530658 Q 6.65701845503925 11.436796008618511 6.66032249096096 11.436796008618511 Q 6.775304946086441 11.436796008618511 6.260756609502613 12.980443882727103 L 5.494133390167016 13.21773199931227 Q 5.293350550111441 13.071708028836788 5.6127774484596 12.314211606026442 Q 5.932203392022056 11.556715183216093 5.9869617842092975 11.191656689205942 ZM 25.3841465449005 12.332304795079008 Q 25.989295451531138 12.332304795079008 26.338983805310775 12.83441991225162 Q 26.101694733939905 13.21773199931227 25.225554730229824 13.436768432418344 Q 24.550196611789616 13.436768432418344 23.85658490029891 12.870926143566917 Q 24.757383199548386 12.332304795079008 25.3841465449005 12.332304795079008 ZM 23.272490927968388 13.089961621887287 Q 23.54354504090416 13.354712239618575 23.860314293250852 13.52803162374233 L 21.3870259534073 13.52803162374233 Q 22.296396318689176 13.432913007753738 23.272490927968388 13.089961621887287 ZM 13.835724179356049 14.239895973497832 Q 11.793824251025065 17.175128731674494 7.949174820459982 17.25145239111956 L 7.949174820459982 17.25145239111956 Q 4.122734108017405 17.175128731674494 2.080834179686421 14.239895973497832 ZM 28.602347232002273 14.258150521334034 Q 26.56044825845699 17.19338041515359 22.715797395713356 17.26970598417006 L 22.715797395713356 17.26970598417006 Q 18.889337110163886 17.19338041515359 16.829205548853547 14.258150521334034 ZM 3.0828786708633857 0.008692117630364187 Q 2.971576914619046 0.008692117630364187 2.8474573990220184 0.020860628300151455 Q 2.5554106515531827 0.020860628300151455 1.186441060318692 0.4406782939905586 Q 0.09126423562084626 0.696219735092747 0.0 1.0977842217217681 L 0.036505492848229494 1.7183835899300968 L 0.5840939126564156 1.5176008692227352 Q 1.4784879271357403 1.8096488101736983 2.080834179686421 1.8096488101736983 Q 2.6831812676745908 1.8096488101736983 2.5371572971991094 2.2203398546315434 Q 2.3911342815093297 2.6310308990893883 2.5736637672108307 3.5893094458660344 Q 2.7561932529123316 4.547588947428382 4.015645343683063 5.5241203711662505 Q 5.275098389239495 6.5006522722969695 5.576270739751453 8.079530784023007 Q 5.877444522441963 9.658410250534748 5.037810272654327 11.720991791956372 L 5.311603665769089 11.556715183216093 Q 5.3170254163777955 11.553462228329439 5.320836443507258 11.553462228329439 Q 5.38118176422965 11.553462228329439 5.037810272654327 12.368970475606535 Q 4.672751301251325 13.235984637577067 4.04302525586596 13.263364072367114 Q 3.93189679322653 13.268195288019145 3.833558162458005 13.268195288019145 Q 3.3746456661215403 13.268195288019145 3.1942632547673724 13.162973129732178 Q 2.989829552883843 13.04372039555458 2.5866402596864733 13.04372039555458 Q 2.5578429681289827 13.04372039555458 2.5280316941559873 13.044328594046743 Q 2.080834179686421 13.053455390571992 2.080834179686421 13.345502376737253 L 2.080834179686421 13.52803162374233 L 0.8031288539098296 13.52803162374233 Q 2.9022162686021113 17.981746969280433 7.958279656914086 18.000000562330932 Q 13.014342090440358 17.981746969280433 15.113428908391576 13.52803162374233 L 15.113428908391576 13.52803162374233 L 9.49152561819243 13.564537855057624 Q 9.49152561819243 13.400261246317346 9.144719762447076 13.208605202787021 Q 8.975349371986722 13.115006605635987 8.75591479324292 13.115006605635987 Q 8.526030084990925 13.115006605635987 8.241198414375544 13.21773199931227 Q 8.071091884138962 13.279081754593147 7.876274067756523 13.279081754593147 Q 7.433506997640579 13.279081754593147 6.863102742705081 12.962191244462305 Q 6.990873597522914 12.323337447765988 7.17340284452799 11.821382734591309 Q 7.355932568925916 11.319427066630926 7.867014556018697 11.228161965735536 Q 7.91433659976605 11.219711157487291 7.962910844961551 11.219711157487291 Q 8.438939307184603 11.219711157487291 9.03520202328689 12.031291416386429 Q 9.382007879032244 11.35593329794622 9.235984863342464 10.205997991549975 L 9.235984863342464 10.205997991549975 L 9.418514110347541 10.333768368974956 Q 10.787483940278456 12.633638026981748 11.070404129918469 13.035202752307194 Q 11.28503327222419 13.339837633167392 11.904089587389903 13.339837633167392 Q 12.10106378728027 13.339837633167392 12.338983017214447 13.308996145421958 Q 13.324641714870417 13.181225767996974 13.30638907660562 12.83441991225162 L 13.30638907660562 12.83441991225162 L 14.146023803786107 13.254238230627566 L 14.784876645696722 13.016950114042398 L 13.37940058445051 9.968709874964805 Q 13.726206440195863 9.968709874964805 14.018253426361124 9.676662888799545 Q 13.67144757061577 8.581486451983391 12.941329627809766 7.2307702151029725 Q 12.430248118109837 6.409388126187283 11.900913015359407 5.953063576496041 Q 10.4589307227979 4.602347339615624 8.907431645861907 3.3885266058104597 Q 7.355932568925916 2.174706826790998 6.6258155809056145 1.5176008692227352 Q 6.135176987870829 1.237236402210505 5.607156147639178 1.237236402210505 Q 5.310143798430758 1.237236402210505 5.0013035639461805 1.3259457804781123 Q 4.143416198500896 1.5723605742403173 3.9608864741029697 2.539765559497574 Q 3.906127843219302 2.50326028296798 4.0521506202126565 1.8096488101736983 Q 4.198174590688137 1.116036382593714 3.988266386285867 0.5228169265682828 Q 3.8063448603801033 0.008692117630364187 3.0828786708633857 0.008692117630364187 ZM 23.079162099888187 0.0 Q 22.74837277429359 0.0 22.451107884266992 0.09387261726752386 Q 22.06779770677775 0.20339010281275738 21.994785244147156 0.5136903090653525 Q 21.848762228457378 0.8970014413403002 22.12255657635784 1.2711870302462323 Q 22.3963490146869 1.645371604692356 22.980442987017422 1.7366368249359574 Q 21.81225504235638 2.795307030436816 20.99087390822639 5.478487343325705 Q 20.22424973410509 8.033898710968165 19.713168224405162 9.2568455252093 Q 18.344198394474244 10.370274600290251 18.353324236213794 11.492829517110751 Q 18.362451987524743 12.615385388716952 18.91003877375427 13.089961621887287 Q 19.30575352708367 13.432913007753738 20.06368533217412 13.52803162374233 L 15.55149986503232 13.52803162374233 Q 17.650586682983537 17.981746969280433 22.706650548688362 18.000000562330932 Q 27.762712504821785 17.981746969280433 29.861799322773003 13.52803162374233 L 26.348111556621728 13.52803162374233 Q 26.5488934418916 13.418513884582143 26.75880116890102 13.272490868892364 Q 26.964314972109918 13.516538868247567 27.224062512762817 13.516538868247567 Q 27.333429395782087 13.516538868247567 27.452412880391726 13.473272754162236 Q 27.908735520511563 13.254238230627566 27.6349411726111 12.469361418241471 Q 27.890481927461064 10.22425062981477 27.032595516801482 9.603651380954656 Q 26.1747071965705 8.983051177308838 25.09778339801914 8.983051177308838 Q 24.112125655148873 8.983051177308838 22.96219130353833 9.831812701014574 Q 22.249229905011244 10.358045705019261 21.98532331784051 10.358045705019261 Q 21.823573072067678 10.358045705019261 21.83050863540688 10.160365918495131 Q 21.848762228457378 9.64015665748425 22.633638086057772 8.398957204978315 Q 23.162973188808202 7.522817201268234 24.933506789278862 6.144720097419217 Q 26.704042299320925 4.766623948355902 26.685788706270426 3.370274444938514 Q 26.667537022791333 1.9739250608693384 25.900912848670032 1.2711870302462323 Q 25.134290584120137 0.5684490592972326 24.20338980125856 0.47718380921657794 Q 24.05736678556878 0.2764020731319715 23.82007771419791 0.1486313525808773 Q 23.582790552398443 0.020860628300151455 23.190352623598248 0.0026073821053958263 Q 23.13429142632065 0.0 23.079162099888187 0.0 Z"
     style="fill:#ffffff;stroke:none"
     id="path2" />
  <path
     d="M 34.14421963334229 0.6441185245649959 Q 33.68213376885036 0.6441185245649959 33.68213376885036 0.9941833440999883 Q 33.68213376885036 1.2882370491299917 34.14421963334229 1.2882370491299917 Q 34.59230134210279 1.2882370491299917 34.59230134210279 0.9941833440999883 Q 34.59230134210279 0.6441185245649959 34.14421963334229 0.6441185245649959 ZM 34.494283577707634 0.4480826868912821 Q 35.558479154690566 0.4480826868912821 36.09057735502657 1.1342090453994897 Q 36.35662686703911 1.5682885546901288 36.608672841087035 2.4644530018224837 Q 36.59467053865603 2.6744920685774076 36.25860786711034 2.7445054340328303 Q 35.92254643109826 2.814517769876909 35.600486885672645 2.814517769876909 Q 34.116214204791206 2.2684172671099043 33.304064395933935 0.9241699786445657 Q 33.36007535599722 0.4480826868912821 34.494283577707634 0.4480826868912821 ZM 37.02874973906327 2.548468669708907 Q 37.29479883923128 2.7445054340328303 38.15595753028613 3.262600508248758 Q 39.017116221340984 3.780695788386955 40.84445231313907 5.411996351394738 Q 42.67178840493717 7.0432960907134445 43.609961200818404 7.330349262294754 Q 44.54813399669965 7.617401610186988 45.81536728329973 7.673411643600066 Q 47.08259974621075 7.72942250070222 47.7267180133729 7.967466172319145 Q 47.7267180133729 8.163502524798531 47.320644241516746 8.275522591624686 Q 43.805996729608715 7.869447996079452 42.160695099703545 7.519383433947295 Q 40.51539182242023 7.169318871815139 39.731247236191756 6.924273843060444 Q 38.94710264996329 6.679229226150287 37.72887845148305 5.993102816161513 Q 36.510654664847344 5.306976406172738 35.78252052387649 4.66285772716604 Q 35.05438638290564 4.01873946000388 34.830345013719715 3.654672183596186 Q 34.606304674145136 3.2906051131107596 35.38344687362449 3.2696016594642585 Q 36.16059010271519 3.2485982058177574 36.643679214931346 3.045560290278334 Q 37.12676791530296 2.842523404350254 37.02874973906327 2.548468669708907 ZM 47.76872615619952 8.03747892000776 L 47.880746223025675 8.149499810522991 Q 47.880746223025675 8.261519877349148 47.74072072764844 8.303528020175763 L 47.47467245116951 8.289525305900225 Q 47.76872615619952 8.163502524798531 47.76872615619952 8.03747892000776 ZM 47.95075979440337 8.20550984393607 L 48.06277986122952 8.345535339313303 L 47.85274244185275 8.331533448726839 Q 47.936757080127826 8.261519877349148 47.95075979440337 8.20550984393607 ZM 33.150036289242294 0.9941833440999883 Q 34.10221190236021 2.3524327290740588 35.37644551648672 2.8985334377633323 Q 35.2142195413147 2.889995076811554 35.071569154777606 2.889995076811554 Q 34.044493331883245 2.889995076811554 34.03219853690479 3.332612844092837 Q 34.03219853690479 4.032742586123956 36.41963784574542 5.741056842113586 Q 38.807077154586054 7.449370686258679 42.04167202836147 7.953463458043607 Q 43.4419302768901 8.135497096247454 43.609961200818404 8.499564372655149 Q 43.63796580568041 8.765612649134075 42.2797156999784 8.835626220511767 L 40.025301764910836 8.835626220511767 Q 39.80125998388037 8.345535339313303 39.199149035855754 7.939460743768068 L 39.199149035855754 7.939460743768068 L 39.32517264064652 8.289525305900225 Q 37.084760184320885 7.00128794788683 35.397449999744566 5.440000956256739 Q 33.71013919740144 3.8787135527821106 33.69613689497044 2.730502101990486 Q 33.69613689497044 2.184401599223481 33.150036289242294 1.358249487935205 Q 33.150036289242294 1.2322269127557794 32.393897543409444 1.1202058163182795 L 32.393897543409444 1.092201211456278 L 33.150036289242294 0.9941833440999883 ZM 44.12805668687887 8.373540767864379 L 48.00677065150552 9.059667177853154 Q 47.60069523227121 9.227698101781463 47.43966566548067 9.661778125877774 Q 47.27863609869013 10.09585732628501 47.47467245116951 10.711970988585168 L 43.45593299116563 9.12967992554177 Q 43.51194302457871 9.115677211266233 43.72198126764456 9.01065767788877 Q 43.93202033439948 8.905638968200384 44.09304990119003 8.72360615368561 Q 44.25407946798056 8.541571691792688 44.12805668687887 8.373540767864379 ZM 38.036935282633124 8.107491667696378 Q 39.54921359798791 9.115677211266233 39.52120899312591 9.423734454260849 Q 39.297167212095445 10.151868183387164 38.429007163902824 11.272073793783173 Q 37.96692212309998 11.272073793783173 37.553846994106046 11.174056441232556 Q 37.3314212910408 11.121277740060828 37.09072575244681 11.121277740060828 Q 36.884415526134546 11.121277740060828 36.664682874500116 11.160053726957019 Q 38.10694885401082 9.115677211266233 38.10694885401082 9.031661749302078 Q 38.10694885401082 8.485560834690535 38.02293298020213 8.107491667696378 ZM 34.48028127527663 0.0 Q 33.738144831874784 0.0 33.36707650721272 0.20303701462949772 Q 32.99600828551179 0.40607487868835407 32.968002753999585 0.7421364434018528 Q 31.861799240112305 0.8961645500934893 31.861799240112305 0.9661778125877775 L 31.861799240112305 1.2462293181479145 Q 31.889804733014092 1.3162425806422027 32.78596921875687 1.5822908571211296 Q 33.26205656199072 2.2124070277745576 33.26205656199072 2.730502101990486 Q 33.26205656199072 3.7106822170092637 33.976188297569436 4.66285772716604 Q 34.690319312420215 5.615033237322817 37.042752041494275 7.785432534115297 Q 37.2527911082492 7.785432534115297 37.476832477435124 9.031661749302078 L 36.16059010271519 11.048032836441786 Q 35.99255876694234 11.160053726957019 35.712508188032416 11.174056441232556 Q 35.25042314722956 11.02002740789071 34.24223760365971 11.02002740789071 Q 33.92256840392983 11.11838741509654 33.674869860819925 11.11838741509654 Q 33.499417601286716 11.11838741509654 33.36007535599722 11.069036907855095 Q 33.08802516611194 10.972685878303265 32.63245020339417 10.972685878303265 Q 32.52525535865012 10.972685878303265 32.40789984584045 10.978020088753171 Q 31.931812534781947 11.202061046094558 32.32388422943459 11.594133751053329 L 39.32517264064652 11.608135641639793 L 39.101131683305134 11.272073793783173 Q 39.535210883712374 10.557942778932398 40.22133729370115 9.311713563745618 L 42.74180115262578 9.311713563745618 L 48.20280535660675 11.42610282712502 L 48.25881621370891 11.230066474645634 Q 47.6707088036489 10.641958240896551 47.76872615619952 9.899821797494699 Q 47.978765222954436 9.297710849470079 48.87492905231999 9.101674496990693 L 48.87492905231999 8.905638968200384 L 46.63451783152797 8.499564372655149 L 46.63451783152797 8.485560834690535 L 48.734903556942754 8.625587153756843 Q 48.734903556942754 8.569577120343764 48.37783763767283 7.9114561389060665 Q 48.020773365781054 7.253334333779294 46.872560679455816 7.253334333779294 Q 44.99621591138242 7.1973243003662155 44.10705261546556 7.071301519264521 Q 43.21788849585963 6.945277914473752 40.71142735121053 4.648855424735039 Q 38.204966618405976 2.3524327290740588 37.12676791530296 2.1003867550261326 Q 36.608672841087035 0.0 34.48028127527663 0.0 Z"
     style="fill:#ffffff;stroke:none"
     id="path4" />
  <path
     d="M 40.3683635474099 14.239413835977778 Q 43.3647663891021 14.239413835977778 46.72314960126409 15.687339972631037 Q 43.3647663891021 17.095045602643573 40.3683635474099 17.095045602643573 Q 37.39207165725418 17.095045602643573 34.01357819177183 15.687339972631037 Q 37.39207165725418 14.239413835977778 40.3683635474099 14.239413835977778 ZM 40.3683635474099 13.314350561834601 Q 36.66810858892755 13.314350561834601 31.861799240112305 15.667229719310676 Q 36.66810858892755 17.999999787159915 40.3683635474099 17.999999787159915 Q 44.06861850589225 17.999999787159915 48.8749278547075 15.667229719310676 Q 44.08872899195132 13.314350561834601 40.3683635474099 13.314350561834601 Z"
     style="fill:#ffffff;stroke:none"
     id="path6" />
  <path
     d="M 56.32712919622412 7.258125063986401 C 56.456017111882026 7.258125063986401 56.52046126637773 7.399901338543242 56.52046126637773 7.683453887656925 C 56.52046126637773 8.001596185040896 56.44704360134031 8.160668120399887 56.30020866459898 8.160668120399887 C 56.29634455626367 8.160668120399887 56.29242970790645 8.160557987018993 56.28846372619381 8.160337720257209 C 56.03928065858863 8.160337720257209 55.91468912478604 8.383742496730504 55.91468912478604 8.830553623011102 L 55.91468912478604 10.042096332860474 L 54.03293129884978 10.042096332860474 C 54.04152425922716 9.337510161931073 54.18759691563932 8.985218649800384 54.47114887475274 8.985218649800384 C 54.754702013866684 8.985218649800384 54.9995885029498 8.905737748811335 55.20580853866884 8.746775946833235 C 55.41202857438788 8.587814931522143 55.577433965815196 8.299966393886649 55.70202510628428 7.883230333926753 C 55.82661624675337 7.466493487299852 56.03498427673331 7.258125063986401 56.32712919622412 7.258125063986401 ZM 55.20580853866884 0.4270863807931339 C 55.68698875312444 0.5216038807754655 56.11876155957768 0.6311581764178308 56.501127744695566 0.7557491693868539 C 56.883493929813454 0.8803407031894439 57.11334347573647 1.0242651686739426 57.190676382464616 1.1875227625071014 C 57.1219362394471 1.4195203026910237 57.06178886014022 1.6257403384100657 57.01023385121046 1.8061828696642275 C 56.9586788422807 2.0124029053832695 57.02741898529821 2.1155129232427905 57.2164538869295 2.1155129232427905 L 57.2164538869295 10.042096332860474 L 56.32712919622412 10.042096332860474 L 56.32712919622412 8.830553623011102 C 56.32712919622412 8.667295045844186 56.42594322556183 8.58566733059474 56.62357128423725 8.58566733059474 C 56.82979131995629 8.58566733059474 56.932901337815814 8.362262554121447 56.932901337815814 7.915451427840847 L 56.932901337815814 7.528788860867643 C 56.932901337815814 7.073386544210428 56.696607415776576 6.845684992548317 56.2240191783646 6.845684992548317 C 55.75143212095313 6.845684992548317 55.46358358331764 7.13568191777822 55.36047356545812 7.715674981571019 C 55.25812150125924 8.291405096856275 54.948337540818 8.579270154498902 54.43112089746739 8.579270154498902 C 54.4272900258131 8.579270154498902 54.42344755082046 8.579254421158774 54.41959386582298 8.57922295447852 C 54.41730466483443 8.579204074470367 54.41502057718142 8.57919463446629 54.41274120953046 8.57919463446629 C 53.893130148479194 8.57919463446629 53.629046624439525 9.066829058375689 53.6204912274117 10.042096332860474 L 52.58939104881649 10.042096332860474 L 52.58939104881649 1.9737366486859491 C 52.7698341700709 1.9737366486859491 52.83857411642167 1.870626630826428 52.79561108453553 1.664406595107386 C 52.73546409856215 1.4839640638532243 52.67102063240007 1.2777440281341823 52.60228058771593 1.04574648795026 C 53.13501571276792 0.6333064165121759 54.00285839586334 0.4270863807931339 55.20580853866884 0.4270863807931339 ZM 58.04133402980567 1.03285773571782 C 58.18740589955082 1.03285773571782 58.303404669642774 1.0844127446475804 58.38932916008104 1.1875227625071014 C 58.32058941039703 1.4195203026910237 58.26044163775664 1.6257403384100657 58.208886628826875 1.8061828696642275 C 58.15733161989712 2.0124029053832695 58.22607215624814 2.1155129232427905 58.41510666454592 2.1155129232427905 L 58.41510666454592 10.042096332860474 L 57.667559428397894 10.042096332860474 L 57.667559428397894 2.1155129232427905 C 57.85659433002918 2.1155129232427905 57.925334473046696 2.0124029053832695 57.873779464116936 1.8061828696642275 C 57.81363247814355 1.6257403384100657 57.74918911031486 1.4195203026910237 57.680448967297345 1.1875227625071014 C 57.774965828112734 1.0844127446475804 57.89526098006001 1.03285773571782 58.04133402980567 1.03285773571782 ZM 59.75553689671969 7.258125063986401 C 60.03909101916739 7.258125063986401 60.24531105488643 7.466493487299852 60.374197003876816 7.883230333926753 C 60.50308609953523 8.299966393886649 60.668491490962545 8.587814931522143 60.870414751492774 8.746775946833235 C 61.072338012022996 8.905737748811335 61.31937190536676 8.985218649800384 61.61151721819107 8.985218649800384 C 61.895071340638765 8.985218649800384 62.03684761519561 9.337510161931073 62.03684761519561 10.042096332860474 L 60.167976968157774 10.042096332860474 L 60.167976968157774 8.830553623011102 C 60.167976968157774 8.383742496730504 60.0433870076892 8.160337720257209 59.794204726751026 8.160337720257209 C 59.790239138371895 8.160557987018993 59.78632389668117 8.160668120399887 59.782459788345854 8.160668120399887 C 59.63562445827102 8.160668120399887 59.56220718656711 8.001596185040896 59.56220718656711 7.683453887656925 C 59.56220718656711 7.399901338543242 59.6266501610623 7.258125063986401 59.75553689671969 7.258125063986401 ZM 60.876859914276 0.4270863807931339 C 62.07980986041474 0.4270863807931339 62.94335625998823 0.6333064165121759 63.467497539662446 1.04574648795026 C 63.39875778997844 1.2777440281341823 63.33861001733805 1.4839640638532243 63.28705500840829 1.664406595107386 C 63.23549999947853 1.870626630826428 63.30423974916254 1.9737366486859491 63.49327504412733 1.9737366486859491 L 63.49327504412733 10.042096332860474 L 62.449287686633696 10.042096332860474 C 62.449287686633696 9.066829058375689 62.18949956111558 8.57919463446629 61.66992488341336 8.57919463446629 C 61.66764512242889 8.57919463446629 61.66536142810938 8.579204074470367 61.663072227120836 8.57922295447852 C 61.6592183454566 8.579254421158774 61.65537626379747 8.579270154498902 61.65154440880942 8.579270154498902 C 61.13429905211308 8.579270154498902 60.822366704077425 8.291405096856275 60.715749724703485 7.715674981571019 C 60.60834293165515 7.13568191777822 60.318346006425244 6.845684992548317 59.84575973568079 6.845684992548317 C 59.38176465531294 6.845684992548317 59.14976711512902 7.073386544210428 59.14976711512902 7.528788860867643 L 59.14976711512902 7.915451427840847 C 59.14976711512902 8.362262554121447 59.248580357799725 8.58566733059474 59.44620684314113 8.58566733059474 C 59.65242687886017 8.58566733059474 59.75553689671969 8.667295045844186 59.75553689671969 8.830553623011102 L 59.75553689671969 10.042096332860474 L 58.86621456601534 10.042096332860474 L 58.86621456601534 2.1155129232427905 C 59.055249074313124 2.1155129232427905 59.12398961066414 2.0124029053832695 59.07243460173438 1.8061828696642275 C 59.02087959280462 1.6257403384100657 58.96073182016423 1.4195203026910237 58.89199207048022 1.1875227625071014 C 58.96932379720785 1.0242651686739426 59.197024562202955 0.8803407031894439 59.57509436546553 0.7557491693868539 C 59.95316416872811 0.6311581764178308 60.38708575610926 0.5216038807754655 60.876859914276 0.4270863807931339 ZM 63.6092753875533 10.480313908763438 L 63.77682759324101 10.982975245828603 L 52.29295053413737 10.982975245828603 L 52.473393065391534 10.480313908763438 ZM 55.02491328055251 0.0 C 53.76367917591148 0.0 52.60813830691215 0.2583608858487614 51.55829085178377 0.7750826910690173 C 51.48095888844145 0.8438226374197808 51.48095888844145 0.9082663985819814 51.55829085178377 0.9684139745556192 C 51.661400863497455 1.0199689834853798 51.84613992410699 1.04574648795026 52.11250800288321 1.04574648795026 C 52.043768007365756 1.2777440281341823 51.979323951203426 1.4839640638532243 51.9191759327296 1.664406595107386 C 51.87621395792725 1.870626630826428 51.949250507383425 1.9737366486859491 52.13828550734809 1.9737366486859491 L 52.13828550734809 10.042096332860474 L 51.674290451563586 11.421192821731568 L 64.4083780259646 11.421192821731568 L 63.94438294559674 10.042096332860474 L 63.94438294559674 1.9737366486859491 C 64.13341824056154 1.9737366486859491 64.20215799024555 1.870626630826428 64.15060298131579 1.664406595107386 C 64.09904797238603 1.4839640638532243 64.03890019974564 1.2777440281341823 63.97016045006163 1.04574648795026 C 64.22793549471044 1.04574648795026 64.4083780259646 1.0199689834853798 64.51148804382412 0.9684139745556192 C 64.58881898388474 0.9082663985819814 64.58881898388474 0.8438226374197808 64.51148804382412 0.7750826910690173 C 63.469842594008455 0.2583608858487614 62.31858925686062 0.0 61.05772881904761 0.0 C 60.99768724645308 0.0 60.93739787375155 5.858523873009076E-4 60.876859914276 0.0017575571226097343 C 60.35271706126776 0.07049757107756907 59.895165570349135 0.18434808263767713 59.50420701485412 0.34330907336542593 C 59.1132484593591 0.5022706540934295 58.62562426212079 0.616121429924485 58.04133402980567 0.6848614254419364 C 57.44845103377992 0.616121429924485 56.95867844894719 0.5022706540934295 56.57201627530749 0.34330907336542593 C 56.18535331500078 0.18434808263767713 55.72995060501007 0.07049757107756907 55.20580853866884 0.0017575571226097343 C 55.14527057919329 5.858523873009076E-4 55.08497215982118 0.0 55.02491328055251 0.0 Z"
     style="fill:#ffffff;stroke:none"
     id="path8" />
  <path
     d="M 58.034889319999166 14.048824156371456 L 59.321701902352466 15.624345103398216 L 59.321701902352466 15.640842887189152 L 58.034889319999166 17.331847140751947 L 56.74807595097886 15.640842887189152 L 56.74807595097886 15.624345103398216 L 58.034889319999166 14.048824156371456 ZM 57.688439597057815 13.718872069720977 L 56.15416242117476 15.624345103398216 L 57.44097539686156 17.34834472787613 Q 56.76457353810304 17.34834472787613 56.08817207267803 17.175119866405453 Q 55.40352122369067 17.001895004934777 54.69412458401729 16.66369427222227 Q 53.976478757448305 16.3337421364051 53.13510102744796 15.5418571677773 Q 52.28547450388551 14.758220992711589 51.74105353878721 13.718872069720977 ZM 64.34522209833506 13.718872069720977 Q 63.8008013299035 14.758220992711589 62.959423206569646 15.5418571677773 Q 62.1180458699028 16.3337421364051 61.40040024000057 16.66369427222227 Q 60.68275461009834 17.001895004934777 60.006352358006325 17.175119866405453 Q 59.321701902352466 17.34834472787613 58.65354942715629 17.34834472787613 L 59.94036200950959 15.624345103398216 L 58.397836236731195 13.718872069720977 ZM 50.874929428100586 13.050719152024612 Q 50.874929428100586 13.48790560414897 51.22137907729191 14.156058571012023 Q 51.56782872648323 14.824211537875074 52.2277328506175 15.607847516274033 Q 52.88763702391846 16.38323489777765 54.256937935226176 17.19986644375848 Q 55.60149266251437 18.00000000928162 57.93590379725407 18.00000000928162 L 58.13387484274426 18.00000000928162 Q 60.468285584150465 18.00000000928162 61.8210893016675 17.19986644375848 Q 63.2068874067659 16.38323489777765 63.86679167840023 15.607847516274033 Q 64.52669516336756 14.824211537875074 64.86489589608007 14.156058571012023 Q 65.19484921189775 13.48790560414897 65.19484921189775 13.050719152024612 Z"
     style="fill:#ffffff;stroke:none"
     id="path10" />
  <path
     d="M 67.19484901428223 0.21996593475341797 L 67.19484901428223 5.341589516687236 L 68.17025217945775 5.341589516687236 L 68.17025217945775 0.21996593475341797 L 67.19484901428223 0.21996593475341797 M 67.19484901428223 6.804910540096898 L 67.19484901428223 11.682791468560026 L 68.17025217945775 11.682791468560026 L 68.17025217945775 6.804910540096898 L 67.19484901428223 6.804910540096898 M 67.19484901428223 12.902153562852618 L 67.19484901428223 17.780034491315746 L 68.17025217945775 17.780034491315746 L 68.17025217945775 12.902153562852618 L 67.19484901428223 12.902153562852618 Z"
     style="fill:#ffffff;stroke:none"
     id="path12" />
  <path
     d="M 73.68002483448714 0.5911294129744623 C 74.35321519930264 0.5911294129744623 74.80807937366338 0.6904583905632232 75.18816265486866 1.1199194272757094 C 75.70944436253167 1.6391326562674657 75.8092590179186 2.410309847894004 75.75989001762629 3.111554760700528 C 75.75040173097527 4.723524933587234 75.46565611419884 6.322313302282503 74.99405764805397 7.8612467627934555 C 74.62489235642616 9.128087548415428 74.18277459178735 10.372030370980749 73.77943036104921 11.628059176113464 L 73.58356058686847 11.628059176113464 C 73.56631210368097 11.566162173216235 71.65832291004187 6.33905800567351 71.57310296122537 3.627403029337134 C 71.55840354701758 2.8378594082344293 71.4448324377277 1.9443303366799265 71.98542921423002 1.2869662058894948 C 72.31971148183229 0.8283589405419381 72.99494630763498 0.5911294129744623 73.68002483448714 0.5911294129744623 ZM 74.09588050391015 12.215669445165402 C 74.09588050391015 12.443676063743567 74.09588050391015 12.67173947290471 74.09588050391015 12.899744198463443 C 74.09584950571694 13.023592155311729 74.1734845989219 13.134166259898668 74.28998551072486 13.176195077341111 C 74.46105199779004 13.23790751084366 74.61793692977595 13.348230790355782 74.77936558165494 13.479705722497988 L 72.38893210365936 13.479705722497988 C 72.55036075553835 13.348230790355782 72.70724545089683 13.23790751084366 72.8783126478443 13.176195077341111 C 72.99481284976497 13.134166259898668 73.07244817959736 13.023592155311729 73.072417654659 12.899744198463443 C 73.072417654659 12.67173947290471 73.072417654659 12.443676063743567 73.072417654659 12.215669445165402 ZM 75.73989121383065 14.69257084503842 C 75.80027853373039 14.814398003642411 75.80927936787751 15.05970492681505 75.79400554058563 15.231358249904337 L 71.41840671464469 15.231358249904337 C 71.38451823570354 15.037018035425131 71.37947499530769 14.815452415466366 71.3954678150428 14.69257084503842 ZM 75.27462773721695 16.51186284979077 C 74.95735200125597 16.983279586070115 74.32358849867283 17.41239112406986 73.6564969692143 17.41239112406986 C 72.93542835690965 17.41239112406986 72.2343532242835 16.994804288375743 71.89543507040453 16.51186284979077 ZM 73.7106335389476 0.0 C 72.43583946880702 0.0 70.97372958773302 0.7350081774781649 70.97372958773302 2.2457281355225995 C 70.90070038827814 3.167882973681924 70.99251017436691 4.096546485905363 71.08842852250672 5.0143736450143495 C 71.37778512052296 7.298990176257101 72.23922845920471 9.45034949756186 72.94771996871292 11.628059176113464 C 72.94377538947025 11.628059176113464 72.93812307007195 11.628003332040201 72.93102069778828 11.628003332040201 C 72.83645159924907 11.628003332040201 72.48480809548936 11.637911395750397 72.48480809548936 11.921571839137096 C 72.48480809548936 12.183099099317912 72.48480809548936 12.444696401217735 72.48480809548936 12.706227447437417 C 72.08263528883884 12.90404892465316 71.80278431043281 13.206866724697708 71.530164784573 13.429120457220222 L 70.65433943780111 13.429120457220222 C 70.65424428399619 13.429120457220222 70.65414913019129 13.429120457220222 70.65405397638636 13.429120457220222 C 70.49192384249389 13.429120457220222 70.36040891292156 13.560467610550727 70.3602402715107 13.722633120243856 C 70.3602402715107 13.986701759012927 70.3602402715107 14.250862209224481 70.3602402715107 14.51493463403242 C 70.36027124752009 14.672486855368318 70.54412181243607 14.801970331067434 70.70154178861755 14.808443511017188 C 70.77241963064415 14.941458414467808 70.78440374510332 15.0598762450737 70.8025647228142 15.18312506127157 C 70.6927320311194 15.179714786763752 70.58300777394399 15.176537353646143 70.47317443152376 15.17312613262861 C 70.47180808559143 15.17310530941485 70.47044333689425 15.173094897807971 70.4690802741675 15.173094897807971 C 70.30801927476182 15.173094897807971 70.17029677213426 15.316959642136501 70.17025232315063 15.466637849142527 C 70.17025232315063 15.720381013416517 70.17025232315063 15.974018168602283 70.17025232315063 16.227762279385992 C 70.17009644483173 16.390024333070183 70.30150236680262 16.52169329970423 70.46376322625777 16.521861778433728 C 70.66854211187844 16.521861778433728 71.13850438808655 16.531402596374 71.22042480403204 16.531402596374 C 71.22580600755347 16.531402596374 71.22951283538677 16.531360949946485 71.2313601265687 16.531273871052584 C 71.59893049016767 17.37459131203983 72.58602831780499 18.000001393121796 73.6564969692143 18.000001393121796 C 74.69705804323549 18.000001393121796 75.6005465266523 17.329800579245234 75.94046656106596 16.521861778433728 L 76.70453463652711 16.521861778433728 C 76.97952173812853 16.521861778433728 76.99814337028695 16.330110268028594 76.99804493327645 16.227762279385992 C 76.99804493327645 15.974018168602283 76.99807900762625 15.720381013416517 76.99804493327645 15.466637849142527 C 76.99804493327645 15.338960313982104 77.053571925783 15.181948549694212 76.40867178987791 15.181948549694212 C 76.41857275476524 15.063973685635547 76.41329028403858 14.939742392352162 76.3922020475595 14.814326068903974 C 76.67561071936166 14.796523167650147 76.8074514775092 14.67226915813357 76.80746946119382 14.51493463403242 C 76.80746946119382 14.250862209224481 76.80746946119382 13.986701759012927 76.80746946119382 13.722633120243856 C 76.80730050920945 13.56060201493044 76.67599026975789 13.429288935949723 76.51395869118961 13.429120457220222 L 75.6381329007413 13.429120457220222 C 75.365484151394 13.206860099129694 75.0857091303927 12.904071640886352 74.68348935319752 12.706227447437417 C 74.68348935319752 12.444696401217735 74.68348935319752 12.183099099317912 74.68348935319752 11.921571839137096 C 74.68332324074231 11.761715813151733 74.55538872819392 11.632318469836799 74.39644939686877 11.628649798176433 C 74.40306455327598 11.591956456004755 76.23566306487488 6.546802217500052 76.3269122805842 3.8967974416523803 C 76.39679451270297 2.8991475687566495 76.49471236261844 1.7764597396718194 75.8275328077563 0.9411075920452122 C 75.41104297682337 0.3675831622774882 74.97352974532691 0.0 73.7106335389476 0.0 Z"
     style="fill:#ffffff;stroke:none"
     id="path14" />
  <path
     d="M 85.61223881143181 4.3834154598041115 Q 85.68644605705718 4.3834154598041115 85.77197381258142 4.399451973636988 Q 86.25662568361672 4.490323483391132 86.17585021265195 4.944684851175057 Q 86.10166874536574 5.361955485315873 85.61873256601368 5.361955485315873 Q 85.57580447068366 5.361955485315873 85.52964692231046 5.358658722164924 Q 85.04499505127515 5.15672076081798 85.16615801903399 4.732649418908784 Q 85.26593928660007 4.3834154598041115 85.61223881143181 4.3834154598041115 ZM 85.38236572322892 0.43793724159259323 Q 85.4702397849922 0.43793724159259323 85.58013189002385 0.4717500982985034 Q 85.97391177392836 0.5929130362212893 85.87294183850159 1.2391162668907016 L 85.2671274770841 3.9652841155617664 Q 84.86325059963691 4.086447083320593 84.70169918033073 4.601389934983931 Q 84.54014967053115 5.116333264023921 85.02480154156645 5.52020966409446 Q 84.79862907716114 5.504054283475516 84.64030902040473 5.504054283475516 Q 84.40283036740007 5.504054283475516 84.31801676734554 5.540403173803163 Q 84.27560948994163 5.5585778576553135 84.218662751882 5.5585778576553135 Q 84.08578734799391 5.5585778576553135 83.8737523931043 5.459628180215047 L 85.42867794163699 1.178534902355451 Q 84.96422005768704 0.9765956282227173 85.07528650927983 0.6635919313479496 Q 85.15535689493126 0.43793724159259323 85.38236572322892 0.43793724159259323 ZM 87.54925042542916 5.899700710084953 L 87.54925042542916 5.899700710084953 L 87.54925042542916 5.899700710084953 Q 87.54925042542916 5.899700710084953 87.54925042542916 5.899700710084953 ZM 87.43116367280858 0.8989493612044411 Q 87.46882391679618 0.8989493612044411 87.50864285799905 0.9059177475214402 Q 87.91251973544624 0.9765956282227173 87.91251973544624 1.319891618511307 Q 87.91251973544624 1.6631865347024324 87.34709287082282 1.6631865347024324 L 87.02399098696374 5.924086064164999 Q 86.90466400980418 5.969981055380213 86.81245632280424 5.969981055380213 Q 86.7018070984043 5.969981055380213 86.63021062568258 5.903892077079644 Q 86.49895114175773 5.782729109320817 86.05468629013983 5.681760128647345 Q 86.5797266127225 5.600984657682577 86.65040556752123 5.055750348014556 Q 86.72108356756668 4.510517470476486 86.31720716749614 4.147028567200006 L 86.92302152891362 1.4814422024083551 Q 87.08684717058458 0.8989493612044411 87.43116367280858 0.8989493612044411 ZM 84.23850300286904 7.190282279831641 Q 84.03014718982772 7.190282279831641 83.95452786406906 7.398235664356274 Q 83.99787079970869 7.636621810374248 84.2621565385433 7.636621810374248 Q 84.49040320449666 7.636621810374248 84.88344458672228 7.458817148235687 Q 84.47527084204054 7.190282279831641 84.23850300286904 7.190282279831641 ZM 83.97472185115441 6.933777780406321 Q 84.80266959313415 6.97416575457703 85.38828996746628 7.479011135321041 Q 85.55657192017317 7.310729182614154 85.69057441033395 7.310729182614154 Q 85.79777602056126 7.310729182614154 85.88303930942092 7.418429651441628 Q 86.07488123197848 7.660756541712583 85.6003258771092 8.145407935371239 Q 85.12577052223992 8.630059806406546 85.02480154156645 9.78110847749205 Q 84.92383208351633 9.357038567712808 84.82286310284286 9.0945186451098 Q 84.73535662110073 8.867000933302318 84.34449159902647 8.867000933302318 Q 84.28435932657554 8.867000933302318 84.21704730929542 8.872385741924198 Q 84.19047652490767 8.874511022773898 84.16524764628552 8.874511022773898 Q 83.71113928812656 8.874511022773898 83.6920084188427 8.185795909541948 L 83.36890605760698 8.024244967612413 Q 83.55065146399852 7.660756541712583 83.72229939947074 7.479011135321041 Q 83.89394638018965 7.2972666836828015 83.97472185115441 6.933777780406321 ZM 85.11149982463864 6.103173437364463 Q 85.30778135004935 6.103173437364463 85.5397443932298 6.146218012597297 Q 86.51914512884308 6.327963418988839 87.00379699987839 7.206395173928658 Q 87.4884488709137 8.084826928868477 87.3067048966521 12.325531755180712 L 86.94321551599897 12.325531755180712 L 87.00379699987839 10.467699264627601 Q 86.96340902570768 9.639750567894566 86.36769118045622 9.629655006481842 Q 86.36399103403528 9.629591992763926 86.36031046005704 9.629591992763926 Q 85.77134653966216 9.629591992763926 85.67100387715465 11.235065045351272 L 85.34790247067222 11.235065045351272 Q 85.36809645775757 8.993548709683026 85.74168235457674 8.589672786989137 Q 86.11526777401924 8.185795909541948 86.25662568361672 7.771822038552082 Q 86.39798216108426 7.3578481675622145 86.12536524493856 7.095328722335857 Q 85.96427306197053 6.940203270127112 85.74324671786165 6.940203270127112 Q 85.59022840618988 6.940203270127112 85.40848395455164 7.0145532513710895 Q 84.94402607060168 6.671258335179964 84.21704730929542 6.550095367421138 Q 84.4790368664393 6.103173437364463 85.11149982463864 6.103173437364463 ZM 86.9041799498802 16.540850645952666 Q 87.06322466439264 16.540850645952666 87.10476598055186 16.72778752342248 Q 87.18554192889329 17.091277381452265 87.83174474185812 17.474960271814098 L 86.64030809660191 17.474960271814098 L 86.49895114175773 16.70759449109043 Q 86.75397099979882 16.540850645952666 86.9041799498802 16.540850645952666 ZM 86.39620870682626 10.032987674547032 Q 86.4020933288016 10.032987674547032 86.40807867725029 10.033531883929031 Q 86.74127707727538 10.063822387180412 86.49895114175773 12.76979660679861 Q 86.41817614816961 14.243946206989886 85.87294183850159 16.48546158790483 L 86.07488123197848 17.474960271814098 L 81.10719692829501 17.474960271814098 Q 80.87762375197302 17.494091618474606 80.6820337066411 17.494091618474606 Q 79.6388925068333 17.494091618474606 79.56236819428875 16.949920426608085 Q 79.47149650551836 16.30371856839654 81.10719692829501 15.879647703863998 L 84.1362723157073 15.011311987713555 Q 84.5603436576165 11.719716916386579 84.98441356739575 10.346537251622077 L 84.98441356739575 11.659135909883815 L 86.05468629013983 11.659135909883815 Q 86.07451842572382 10.032987674547032 86.39620870682626 10.032987674547032 ZM 85.35875515145324 0.0 Q 84.83436215160916 0.0 84.63102118028529 0.4717500982985034 Q 84.37859825122496 1.0573719345966244 84.90363857380763 1.3804731023907204 L 83.36890605760698 5.318270270617563 Q 82.97945287697769 5.17402900604879 82.7239386954146 5.17402900604879 Q 82.62173402528035 5.17402900604879 82.54095927038055 5.197107302858737 Q 82.47813363886537 5.215057619684974 82.40433813060139 5.215057619684974 Q 82.1460568352815 5.215057619684974 81.7533992638832 4.995169341511793 L 81.7533992638832 4.995169341511793 Q 82.2465052367172 5.823586344739337 82.74924323823592 5.823586344739337 Q 82.76121321906831 5.823586344739337 82.77318868973218 5.823116606114875 Q 82.82739242155588 5.820990847888525 82.8776804714008 5.820990847888525 Q 83.30513665245302 5.820990847888525 83.44968248332505 5.974571031878385 Q 83.61123294787794 6.146218012597297 83.99491536086312 6.186605509391356 Q 83.61123294787794 6.812614812647495 83.62132946404397 6.953971767491676 Q 83.6314269349633 7.095328722335857 83.24774308984816 7.6304650837079 Q 82.86406043817465 8.165601922456593 83.17706508980272 8.266570903130065 Q 83.49006998011912 8.367539883803538 83.46987599303375 9.01374269676838 L 82.80347895429523 10.73021918723061 Q 82.58957387637581 10.911215589656928 82.4024832836244 10.911215589656928 Q 82.35996286795424 10.911215589656928 82.31882732194825 10.901866645326173 Q 82.28299972692336 10.89372355441553 82.25137471724446 10.89372355441553 Q 82.0869241895375 10.89372355441553 82.03611388963654 11.113902077592444 Q 82.32564282839282 11.35648006798176 82.59091387263481 11.35648006798176 Q 83.01021335754186 11.35648006798176 83.36890605760698 10.750413174315964 L 84.1362723157073 9.215681612868625 Q 84.17413592214818 9.211137941905589 84.20916009226966 9.211137941905589 Q 84.64111769645132 9.211137941905589 84.64111769645132 9.902271445250877 Q 83.99491536086312 11.699522929301223 83.59103896079259 14.607436065019668 L 79.9157605813992 15.677708787763752 Q 78.86568086115113 16.20274958772307 79.01713501652553 17.04079384586883 Q 79.16858917562942 17.878836194507986 80.07731110562418 18.000000117020114 L 88.80104848392874 18.000000117020114 L 88.80104848392874 17.59612419432623 Q 87.60961183867252 16.88933942010532 87.43796438057696 16.334009071647923 Q 87.33645214527479 16.00558730239149 87.01952465101814 16.00558730239149 Q 86.8005562776512 16.00558730239149 86.47875763204902 16.16236161355236 Q 86.90282801920492 14.243946206989886 87.02399098696374 12.729408632627901 L 87.64999981284323 12.729408632627901 Q 88.01348871611971 7.398235664356274 87.10476598055186 6.630870838385905 Q 87.24208432892964 6.582405651282375 87.40363527085917 6.582405651282375 Q 87.64596120637682 6.582405651282375 87.94281023869762 6.691452322265319 Q 88.04636182705234 6.729491603313718 88.15831810872237 6.729491603313718 Q 88.58126427386544 6.729491603313718 89.1241503677878 6.186605509391356 Q 88.59103330964896 6.023708842683 88.30769117228806 6.023708842683 Q 88.2046570602229 6.023708842683 88.13465168387853 6.0452490319238255 Q 88.03918972024957 6.074621539875572 87.9570799815456 6.074621539875572 Q 87.81338674537204 6.074621539875572 87.7105817740993 5.984667548044412 Q 87.5974960192733 5.885717870604145 87.56357077020213 5.885717870604145 Q 87.55081717559733 5.885717870604145 87.54925042542916 5.899700710084953 L 87.54925042542916 5.899700710084953 L 87.75096974827001 2.046869186375942 Q 88.37697761939619 2.0064814508935576 88.39717160648155 1.3501818830743628 Q 88.4173655935669 0.693882136238924 87.68029031609461 0.4818475095457503 Q 87.54331185989227 0.44244263291543845 87.41714312057235 0.44244263291543845 Q 86.86440588208251 0.44244263291543845 86.51914512884308 1.1987286507524804 L 85.91332933529564 3.985478102647121 L 85.73158536103406 3.945090367164737 L 86.35759466429019 1.158341034614259 Q 86.37778865137555 0.1688427833275791 85.63061590298393 0.027486035470929905 Q 85.4853325251863 0.0 85.35875515145324 0.0 Z"
     style="fill:#ffffff;stroke:none"
     id="path16" />
</svg>
