<?xml version="1.0" encoding="UTF-8" standalone="no"?>
<svg
   width="69.4483413696289"
   height="18.0"
   version="1.1"
   id="svg60"
   sodipodi:docname="weseretkau.svg"
   inkscape:version="1.1.1 (3bf5ae0d25, 2021-09-20)"
   xmlns:inkscape="http://www.inkscape.org/namespaces/inkscape"
   xmlns:sodipodi="http://sodipodi.sourceforge.net/DTD/sodipodi-0.dtd"
   xmlns="http://www.w3.org/2000/svg"
   xmlns:svg="http://www.w3.org/2000/svg">
  <defs
     id="defs64" />
  <sodipodi:namedview
     id="namedview62"
     pagecolor="#ffffff"
     bordercolor="#666666"
     borderopacity="1.0"
     inkscape:pageshadow="2"
     inkscape:pageopacity="0.0"
     inkscape:pagecheckerboard="0"
     showgrid="false"
     inkscape:zoom="19.798889"
     inkscape:cx="34.724171"
     inkscape:cy="9.0156574"
     inkscape:window-width="1920"
     inkscape:window-height="1001"
     inkscape:window-x="-9"
     inkscape:window-y="-9"
     inkscape:window-maximized="1"
     inkscape:current-layer="svg60" />
  <path
     d="M 3.009169848917976 0.4739171748132039 C 3.7026715218272255 0.4739171748132039 4.256829318471649 0.6745946316238001 4.644164689284773 0.9526347441559112 C 4.650308145491952 1.0062515645085024 4.663546055856558 1.060016372992199 4.652575800812965 1.1124437372646898 C 4.603449882852364 1.360569519526529 4.457806885291136 1.5903185537666114 4.257258755698066 1.7432685981716125 C 3.9413649209170813 1.94997010496389 3.5600411988456018 2.009570228366613 3.2002765010963685 2.0993341831784433 C 3.10998720613517 2.1086036967312767 3.181170796374544 2.130187995961788 3.231117085890341 2.138585643286511 C 3.4609996992016763 2.1784200797833564 3.9384250002790258 2.2376030490926513 4.202499603977515 2.2376030490926513 C 4.220906351189456 2.2376030490926513 4.23827706337661 2.2373153403237978 4.254454894379272 2.2367137030214415 C 4.532424083629077 2.2049171597812043 4.794657162235626 2.0893111466595644 5.019856122452685 1.9255069464391237 C 5.098959498900698 1.8590524805074944 5.166930105007111 1.7763742399315428 5.224523825878929 1.6899990125400517 C 5.3720929131784425 2.0357255065676374 5.451951702305268 2.4028945713681713 5.485264503827336 2.6067978859799568 C 5.503366062427325 2.716651377223197 5.580895308140001 2.8061828973646232 5.687128818362978 2.8395020766672823 C 6.825504545072815 3.188508875845171 7.72511459117944 4.749370284342509 8.566494083211595 5.78895938641794 C 10.295861887830181 7.925728476871466 11.765759846336513 10.315234366846607 13.458892408638075 12.548598959980612 C 12.522122105814729 12.092922126930452 11.58844053850988 11.632519122248745 10.649618007621019 11.174801399409672 C 8.72850955219054 10.164475916823728 6.728271736761494 9.358727903879377 5.045088984609069 8.085161653353607 C 5.042277564439204 8.082822188947427 5.039490238107126 8.07909189594436 5.036677873080877 8.076750541825415 C 4.066833817400553 7.2693821001829235 3.0743602151151883 6.41700117284651 2.698420284718348 5.284299308721125 C 2.5498687829938245 4.364048874911361 4.455242072637431 2.7072382455000326 4.240437005069874 2.637638234559833 C 4.2215063349931405 2.631504463130588 4.200107227613845 2.6285180083156328 4.1764933768710275 2.6285180083156328 C 3.7176359210190495 2.6285180083156328 2.422621666796125 3.756154733581801 2.15731260823226 4.830105427765268 C 2.154053326136495 4.815773846136464 2.1461630666898484 4.79928090552982 2.143294246494671 4.785246481233707 C 2.0704243238243896 4.4287242943794265 1.9886595231574336 3.528875672035904 2.2105824300779164 2.8058581029827074 C 2.22090238771539 2.7720589366371007 2.223991359447983 2.7373940456298778 2.2217969304967107 2.702122556824284 C 2.206042867582163 2.411103719844335 2.16184012380912 2.2384220033632714 2.098435772391302 2.068493834598567 C 2.035031184759387 1.8985666106902463 1.9592064599630061 1.724220765903293 1.8376947401217505 1.3030929608462967 C 1.806828171777225 1.1953371688820418 1.6962380468757994 0.9753151948986268 1.630223411590808 0.9582419943653084 C 1.8161052441811285 0.8204882523408192 2.0045522437462973 0.6772958579179091 2.2750667523423678 0.5825507383579678 L 2.2750667523423678 0.5825507383579678 C 2.1960743965194465 0.658865194028754 2.1432944827087668 0.7691834365057539 2.143294246494671 0.8965614153126038 C 2.143294246494671 1.1261525404295507 2.3068791219270324 1.3115031275181046 2.5077709430296933 1.3115039542674405 C 2.7086627641323537 1.3115039542674405 2.8722476395647156 1.1261525404295507 2.8722476395647156 0.8965614153126038 L 2.8722476395647156 0.8937576721008572 C 2.871221053103765 0.7095976631093593 2.7627272101967493 0.5576299150223198 2.6171139756116095 0.5040481134094518 C 2.669879244148341 0.49667510377938745 2.7125253370291467 0.4854209784459994 2.771315482296895 0.4816187582507192 C 2.852317311433968 0.47642689052903053 2.9316148558688426 0.4739171748132039 3.009169848917976 0.4739171748132039 ZM 3.6797034804227042 8.23655977114829 C 3.744950774217038 8.301805883872143 3.8149797499554623 8.36067988514395 3.8815675587442495 8.424405723946341 C 4.0956495749641375 9.204198532028927 4.293931466520769 10.064938131364233 4.57407335302502 10.7290191024102 C 5.057193067313169 11.874268186883667 5.789626838872777 12.870430272277117 6.413278350114227 13.883144351801198 C 6.260634439177563 13.965039778863208 6.128536902733854 14.058336787907995 6.029175805418124 14.152295196421411 C 5.947669659186221 14.229370911069886 5.8940429178416 14.280530159968329 5.830115352201277 14.345748871857053 C 5.520950312157207 13.938784109671408 5.124019924767046 13.62317373180555 4.644164689284773 13.448575610364134 C 4.689085996337662 12.725628196897432 4.536026821020337 11.737052363409154 4.30492109112023 10.66173115504105 C 4.1263418173058595 9.830810278320685 3.903548933870034 9.003086795602949 3.6797034804227042 8.23655977114829 ZM 4.686219774497539 9.144947533060002 C 5.834593499032087 10.09035760265641 7.113542596376112 10.88336044784028 8.36182590735716 11.685069199744076 C 8.343845290374292 12.594861963098435 8.344411259348162 13.463187814338914 8.445936077782692 14.359767706022835 C 8.033305011863666 14.014385848361224 7.586775333464642 13.763462228240035 7.018870348864767 13.625206117887009 C 7.015369655962953 13.624345353721408 7.011953527707485 13.623977804588126 7.008598342688769 13.623977804588126 C 6.989090837789752 13.623977804588126 6.971640285238172 13.63639699689621 6.951581929067426 13.636421563162186 C 6.30326824892538 12.572860982202688 5.56863248956343 11.57684345983595 5.115180793297013 10.501922870574559 C 4.9594783822461315 10.132827952249835 4.822072170210292 9.651825188689491 4.686219774497539 9.144947533060002 ZM 5.092751320031232 14.399018929916807 C 5.256419815253556 14.551910865654206 5.4054203599744595 14.728454446389774 5.5329268392495 14.94012684261699 C 5.575655607063885 15.01022479287143 5.648728910070769 15.058380343325913 5.729183431147552 15.07470273735529 C 5.7494917018318015 15.078823256044847 5.769947370111917 15.080878318679517 5.790254695939782 15.080878318679517 C 5.850400001475933 15.080878318679517 5.909242822487076 15.062849514021076 5.9590844691583715 15.027040401933126 C 6.175000687833224 14.870724306660996 6.306688629034575 14.703258906060551 6.435707350951817 14.58125716007727 C 6.483312522562763 14.536239477673238 6.5327214250102985 14.500179978643592 6.584302079855896 14.463502543538969 L 6.732896336331785 17.185862440383506 C 6.519603983834621 17.172073206318977 6.298091380798784 17.15081393768448 6.095781566478202 17.15081393768448 C 5.831792472282443 17.15081393768448 5.600500133246544 17.18701327545892 5.462835502989748 17.323242668868794 C 5.2941143882552915 17.189184555428792 4.96598135630733 17.158607113137695 4.572329148140608 17.158607113137695 C 4.471105738892494 17.158607113137695 4.365550163124863 17.160629105798932 4.257258755698066 17.16343343954592 L 5.092751320031232 14.399018929916807 ZM 6.25066573190075 9.573908551859477 L 6.25066573190075 9.573908551859477 C 7.604791854990093 10.361226196182292 9.034522078910209 10.988295252963786 10.386072995925625 11.699088033909858 C 10.388108216576233 11.700135879639442 10.389620931646625 11.700891764746446 10.39167977370683 11.70189142280046 C 11.686891739128056 12.333365400043023 12.978365852695143 12.98273873661945 14.285973389014858 13.605581450796405 C 15.269975172749374 14.794761632832586 16.33790476962736 15.90056296328426 17.36439863465213 17.026055100773398 C 16.647556883137256 17.146248391638174 15.930830404101199 17.267532046769798 15.213987707729942 17.38772722734734 C 13.79219427743337 15.841645498618801 12.36859900601298 14.299348864563587 10.946807465429178 12.75326524612228 C 10.935631704122118 12.739913480563432 10.92370950627189 12.727994117282355 10.910359630425809 12.716818355975295 C 9.41106341039531 11.580038019269429 7.757799063206311 10.634765898705052 6.25066573190075 9.573908551859477 ZM 3.0756960058277225 0.0 C 2.9405269774945206 0.0 2.803378947465543 0.004522381611119117 2.664776311033773 0.013406474957975922 C 1.5799215017535755 0.08356273687650426 0.791815610992612 0.5394290283949892 0.5227751964622482 1.157302329475107 C 0.4821416476788419 1.2499492773278713 0.3773182175015722 1.4706424536648965 0.5155519465690093 1.4706424536648965 C 0.5301007861125528 1.4706424536648965 0.5473420529751317 1.468197873986025 0.5676338477261894 1.4629019539550754 C 0.6829407547488466 1.4484514385289664 0.7780652341468658 1.4423110531050352 0.8569417269557291 1.4423110531050352 C 1.2747371416542677 1.4423110531050352 1.236670413344381 1.614590378873667 1.3274274122155385 1.6367293088014427 C 1.417468209947809 1.9189504698851962 1.6165598434253194 2.483475939414473 1.630223411590808 2.7049261819289825 C 1.386425543994761 3.5656903475302664 1.4768830233922678 4.468266061611404 1.565739089326357 4.903000625343815 C 1.7153772939992473 5.635118342443057 2.1961816377190027 6.48697345720191 2.8273889292472503 7.283313535133207 C 2.8134251329658233 7.338127016095824 2.8086283333195925 7.393803623365002 2.8273889292472503 7.448729542237286 C 3.1285063912567783 8.370618829444675 3.4792571591049843 9.617610994177321 3.7301694409495667 10.785092549360554 C 3.981081959008245 11.952574104543789 4.12285718696257 13.061967778966503 4.046983802062425 13.608383894830625 C 4.025192579283871 13.758532912485983 4.121174397743101 13.900045942793815 4.26847325611686 13.936413465004566 C 4.312604663232929 13.947361515923141 4.352082652659003 13.967347118152338 4.39463851175516 13.981272411536127 L 3.4666249016823647 17.0596976571734 C 3.272728324816838 17.01836208009686 3.0724617624261277 17.00476559673462 2.874112549852153 17.00476559673462 C 2.4927394590346226 17.00476559673462 2.118454680808026 17.055030066637645 1.8101650502035056 17.055030066637645 C 1.6846506825065655 17.055030066637645 1.570075389592555 17.04669832304569 1.4704144184820296 17.023250767026415 C 1.4375472348519498 17.015217598051724 1.3949769666959404 17.011228414399508 1.3451441780532423 17.011228414399508 C 0.9090801423353627 17.011228414399508 -0.08308278674200893 17.316628674182503 0.004096926806725951 17.889582026440785 C 0.15548046576267507 17.76211712084663 0.26223299740795364 17.73138850153413 0.38031217211407353 17.73138850153413 C 0.49024007079753446 17.73138850153413 0.6099847320405954 17.758020223566664 0.7846967677297779 17.758020223566664 C 0.7935070810801064 17.758020223566664 0.8024571741217066 17.757952193907034 0.8115528340999292 17.75781046544947 C 1.066223518424995 17.75382506122279 1.509269747551208 17.674784045296107 1.865480722334089 17.674784045296107 C 2.0452727193170093 17.674784045296107 2.202943030001157 17.694920824546703 2.3031032396034496 17.755008021415254 C 2.5392046614185677 17.745578354705373 2.7523340261895344 17.741732789223487 2.951610851518261 17.741732789223487 C 3.8011631150558056 17.741732789223487 4.398956033000731 17.81162570564265 5.451620530142762 17.816688246146814 C 6.240002555181878 17.80960749240695 7.649068297561068 17.777941575561766 8.426310465835707 17.73818579835887 C 8.876011082258614 17.740893756754712 9.122960636429726 17.792010487115885 9.3482285711628 17.792010487115885 C 9.361538763040762 17.792010487115885 9.374772421551643 17.79183285411574 9.387968285807172 17.791454911562237 C 9.52192246504496 17.78755265469733 9.652878614977093 17.73516414764362 9.867871236536825 17.73516414764362 C 9.990853743446445 17.73516414764362 10.141335350548884 17.752305732157712 10.335607271612858 17.805472800871634 C 10.085930861918229 17.463682342324677 9.45939942841909 17.120327201606223 9.005599080147068 17.120327201606223 C 8.891079651866747 17.120327201606223 8.787560241606108 17.142193068039095 8.703873366840497 17.191469218164713 C 8.542968104112466 17.175166666119395 8.37234782804666 17.169161158944245 8.19567291227375 17.169161158944245 C 7.976734570455455 17.169161158944245 7.748496479680046 17.178384846962466 7.517922703923993 17.188666774130493 L 7.360917335919913 14.359767706022835 L 7.360917335919913 14.359767706022835 C 7.847890174541017 14.562401606083045 8.21758885609496 14.875619607585232 8.642193142108937 15.380301416978874 C 8.699664031650867 15.44654907746951 8.781797562521582 15.482110637184917 8.86545325702653 15.482110637184917 C 8.908499969014047 15.482110637184917 8.951950134677428 15.472694198464408 8.992650768264083 15.453197086985613 C 9.112446274591294 15.395810289661837 9.178901803486355 15.264291005324987 9.155264331333942 15.133579573196247 C 8.962827321367223 14.095116267502062 8.941800487403126 13.115423973733854 8.95339954437011 12.074779939505962 L 8.95339954437011 12.074779939505962 C 9.492870020957247 12.42841606253606 10.024760859633895 12.787106222362869 10.5290609470485 13.16820932046874 C 11.981769133365166 14.7479090393313 13.43605428498632 16.326704530634608 14.888761526446602 17.906404249497168 C 14.944628049848916 17.96747598671759 15.022539017540629 17.999999833159222 15.103714464038218 17.999999833159222 C 15.11983182423232 17.999999833159222 15.136078629750996 17.99871671819008 15.152306538141996 17.99612214256029 C 16.10156595264582 17.836959195003903 17.051571803692816 17.68146795935479 18.00083121819664 17.52230312208564 C 18.107373224028915 17.50503114739059 18.194878263441282 17.430652052861355 18.23073178377927 17.328851336362764 C 18.266587193830023 17.227046840438643 18.244059927928525 17.11188585467375 18.171855892794696 17.031661878554605 C 17.42994521170602 16.20143358156353 16.66326228594804 15.400856767607475 15.920510682677822 14.586862993002091 L 15.920510682677822 14.586862993002091 C 17.1897721675192 15.367626168590794 18.796164079222855 16.341928056689678 19.00015479305014 16.341928056689678 C 19.023265980196797 16.341928056689678 19.02837576352015 16.32942193759429 19.01295381762449 16.302708957912753 C 18.91865715052569 16.139381083416772 18.112724890586506 15.546881487147742 17.238233851442022 14.928911397341812 L 17.238233851442022 14.928911397341812 C 17.377197659226482 14.987001167815102 17.513576339944986 15.048752256775444 17.6531769809321 15.10554284972107 C 17.658199837468143 15.108767644558828 17.664787376175685 15.113841523339595 17.669999203988482 15.116757350139865 C 17.773049020626395 15.151233269870335 17.830042757694528 15.174751690118395 17.93915099346508 15.178437574871426 C 17.94233326976557 15.178545288499173 17.945553340321407 15.178605759307734 17.948841440536878 15.178605759307734 C 17.973745965099905 15.178605759307734 18.00257920250659 15.175098452411234 18.048493553618805 15.161615351815042 C 18.100470103289197 15.146353086648238 18.187842862807837 15.102794262500725 18.236338561560473 15.01021723402036 C 18.28483615002588 14.91764209525276 18.275225070890315 14.822594267328872 18.25876945211083 14.771906501765924 C 18.242311943618578 14.721218736202974 18.220873152271164 14.694878974793022 18.205498449194693 14.67377749717461 C 18.143995857463278 14.58936875213181 18.102465639971687 14.565463885622796 18.0428867758376 14.519575990489324 C 17.983304132277976 14.473685260786702 17.91481149301954 14.423448191718805 17.838219544839546 14.370981261585245 C 17.6850337587668 14.266046456461739 17.50165414209476 14.147847757423074 17.344773967561526 14.042952636267687 C 17.18789568274106 13.938058459968683 17.045392442943054 13.83638718879467 17.016744397387587 13.810248681794459 C 17.00804982894427 13.80148608369151 16.99842930124487 13.792621441099115 16.988708618768793 13.785015347209884 C 15.691415134734154 12.872117785778505 14.394182121508075 11.96102017575818 13.097218392351367 11.048637561055948 C 13.088896097323248 11.042752050641536 13.077870568181206 11.047937422475586 13.06918166887619 11.04302983841836 C 11.735590582003198 9.174366581424614 10.481460027291279 7.217504760432826 9.023491825486246 5.41607134214063 C 8.27915569806047 4.496387349732927 7.424659237280828 2.887723530854533 6.037586916946315 2.3516642220268507 C 5.970716123670593 1.9556564868954267 5.819659099030447 1.224570552967246 5.283400661719887 0.7031084485192504 C 4.8273005330098036 0.25959351157317057 4.167590467595091 0.05615587828814758 3.427373441574297 0.0106028092539796 C 3.3119162433330986 0.0034978361875914604 3.1945714582512528 0.0 3.0756960058277225 0.0 Z"
     style="fill:#ffffff;stroke:none"
     id="path2" />
  <path
     d="M 28.07470107621414 2.25 C 27.98504999239973 2.25 27.978839322689314 2.5326321821796447 27.850280111823686 2.9511178163474594 C 27.704037954485578 3.4271629763966462 27.59668992690125 4.422568621794706 27.258918388966414 4.615833437809297 C 27.207522607429475 4.645240841861541 27.156904479023716 4.6549974171004855 27.10599286629964 4.6549974171004855 C 27.00558979288126 4.6549974171004855 26.904045366062316 4.617052579469367 26.793143631177124 4.617052579469367 C 26.752319710088656 4.617052579469367 26.710227771531045 4.622194176905314 26.66645822245645 4.636263067073242 C 26.508071000223897 4.687173303013964 26.424630127192117 4.934020003067939 26.257864948785876 4.963137594224142 C 25.566584436055035 5.083837437312795 24.620804086166494 5.0382046414322925 24.092320639922182 5.085715828735594 C 23.752902146412225 5.116229707676762 24.659314609658235 5.783655727818353 25.565703065244506 5.783655727818353 C 25.57850852722114 5.783655727818353 25.591313989197776 5.783522409296895 25.604115894484078 5.783252330295596 C 25.79238046282041 5.7791896720814915 25.990934651017625 5.770541407442611 26.188250652051703 5.770541407442611 C 26.519058878709206 5.770541407442611 26.846386826511395 5.794849894342885 27.11591075465491 5.905830564807049 C 27.380233424750465 6.014668960372207 27.691689584582512 6.330742392646173 27.68794129190093 6.641298365628519 L 27.578006976785893 15.749999743770545 L 28.596789256217384 15.749999743770545 L 28.5449657539851 5.4611038414715924 C 28.543573826014086 5.1847322518524885 29.340533590172125 4.997374983746517 29.444892391630773 4.758841072120802 C 29.626548858795132 4.343625929444718 29.533670594798675 2.512227277650101 29.240595640063543 2.26642228540509 C 29.237222520845958 2.263593268997097 29.233767712482695 2.2622118300357275 29.230230297118187 2.2622118300357275 C 29.098339041071707 2.2622118300357275 28.85188518320144 4.182658844670444 28.46426835125029 4.595403808545353 C 28.424681240541602 4.6375572434261105 28.34666259928612 4.656736753404518 28.279074009793636 4.656736753404518 C 28.206689166023192 4.656736753404518 28.1462662749611 4.634738738436343 28.157823453363335 4.595403808545353 C 28.404199293510203 3.756873447793133 28.50340066452433 2.5335324263953174 28.116964194835447 2.26642228540509 C 28.100940731232456 2.255346789135237 28.087031547933606 2.25 28.07470107621414 2.25 Z"
     style="fill:#ffffff;stroke:none"
     id="path4" />
  <path
     d="M 32.34623231114488 2.25 C 31.64886190798894 2.25 31.037357091903687 2.7629982188611715 31.037357091903687 3.42148077115561 L 31.037357091903687 15.749999288300122 L 31.889343107289584 15.749999288300122 L 31.889343107289584 3.42148077115561 C 31.889343107289584 3.098508113273651 32.17323642454667 2.994011903683932 32.351615739264076 2.994011903683932 C 32.53878689702932 2.994011903683932 32.82699584839835 3.1252137636833535 32.82699584839835 3.5209571603146776 L 32.82699584839835 11.62395272807413 L 33.67898186378425 11.62395272807413 L 33.67898186378425 3.5209571603146776 C 33.67898186378425 2.861641676122041 33.026031142747016 2.25 32.34623231114488 2.25 Z"
     style="fill:#ffffff;stroke:none"
     id="path6" />
  <path
     d="M 39.55941544541478 2.6550008807159178 C 40.28302750948116 2.6550008807159178 41.188772618283295 3.02672373978237 41.62705152064868 3.4650026421477538 C 42.010500105993884 3.8484509022391213 42.060628878719605 4.356831765295215 42.0746840730189 4.8292161350855825 L 37.06546265363781 4.8292161350855825 C 37.07951801056403 4.356831765295215 37.12964678328974 3.8484509022391213 37.51309520600804 3.4650026421477538 C 37.95137427100034 3.02672373978237 38.83580370660225 2.6550008807159178 39.55941544541478 2.6550008807159178 ZM 39.55941544541478 2.25 C 38.700979321150136 2.25 37.777318417564224 2.646567699085571 37.23598934025504 3.187896776394757 C 36.68075911826827 3.7431272029357023 36.617830101267586 4.474083173513634 36.617830101267586 5.021058657529965 L 36.617830101267586 5.2342170158015 L 42.50100078956197 5.2342170158015 L 42.50100078956197 5.021058657529965 C 42.50100078956197 4.474083173513634 42.459387812942616 3.7431272029357023 41.90415738640167 3.187896776394757 C 41.36282863434633 2.646567699085571 40.417851732306346 2.25 39.55941544541478 2.25 Z"
     style="fill:#ffffff;stroke:none"
     id="path8" />
  <path
     d="M 35.85295931965164 6.581698474231985 Q 35.77198241542089 6.581698474231985 35.6590301311802 6.680531845071595 Q 35.21327132045824 7.280591348063118 35.1789824962616 8.394986634251747 Q 35.31613915504864 9.269360196802685 35.79618609880283 10.863803158566647 Q 35.62474061073705 12.149644461358548 35.539018212286365 14.395579489031903 Q 35.47043988289285 15.14994137662939 35.95048753813981 15.37282222276325 Q 37.37348562168895 15.750000889785097 39.550843316058675 15.750000889785097 Q 41.74534562835142 15.750000889785097 43.15120006973906 15.37282222276325 Q 43.64839415213355 15.14994137662939 43.579814379426104 14.395579489031903 Q 43.49409177769177 12.149644461358548 43.32264462270005 10.863803158566647 Q 43.802695225559965 9.269360196802685 43.93984826589801 8.394986634251747 Q 43.90556260784424 7.280591348063118 43.45980091557652 6.680531845071595 Q 43.34684871264929 6.581698474231985 43.26587221498585 6.581698474231985 Q 43.15019113231939 6.581698474231985 43.099766378596925 6.78339899357967 Q 43.21977724041577 7.126290640547279 43.32264462270005 7.452036876785628 Q 43.45980091557652 7.863506161982343 43.425513305999694 8.223541918663843 Q 43.39122504591518 8.806456651269608 43.314072232425076 9.175064391658776 Q 43.2369226714734 9.543672294674863 42.996897695297285 9.543672294674863 Q 42.98410351014566 9.544695868517454 42.97169052249753 9.544695868517454 Q 42.56828468662562 9.544695868517454 42.56828468662562 8.463564943316904 Q 42.56828468662562 8.06924051998359 42.67115271941758 7.503470405300844 Q 42.58283133948105 7.353325669415268 42.4808610072946 7.353325669415268 Q 42.384889656980654 7.353325669415268 42.27682732032273 7.486325706064363 Q 42.225393629180594 7.89779499126108 42.20824884863065 8.394986634251747 Q 42.139670376938575 9.149347708714627 42.56828468662562 10.520911450613943 Q 42.41398361319921 12.458246608211372 42.41398361319921 14.395579489031903 Q 41.248154798495364 14.584170123558197 39.550843316058675 14.635604465208019 Q 37.87067742730654 14.584170123558197 36.704847799468084 14.395579489031903 Q 36.704847799468084 12.458246608211372 36.55054640078783 10.520911450613943 Q 36.97916038522103 9.149347708714627 36.91058207615587 8.394986634251747 Q 36.89343729560593 7.89779499126108 36.842003767090716 7.486325706064363 Q 36.733941267805875 7.353325669415268 36.63796959223808 7.353325669415268 Q 36.53599966661894 7.353325669415268 36.44767918113048 7.503470405300844 Q 36.55054640078783 8.06924051998359 36.55054640078783 8.463564943316904 Q 36.55054640078783 9.544695868517454 36.14713999572169 9.544695868517454 Q 36.13472749595433 9.544695868517454 36.12193298554886 9.543672294674863 Q 35.88190914776119 9.543672294674863 35.80475881433164 9.175064391658776 Q 35.727608440245355 8.806456651269608 35.69331896045893 8.223541918663843 Q 35.6590301311802 7.863506161982343 35.79618609880283 7.452036876785628 Q 35.89905392831113 7.126290640547279 36.01906584720497 6.78339899357967 Q 35.96864052428828 6.581698474231985 35.85295931965164 6.581698474231985 Z"
     style="fill:#ffffff;stroke:none"
     id="path10" />
  <path
     d="M 45.90208530828807 2.25 Q 45.84654865753013 2.25 45.76908222902463 2.3177832087024384 Q 45.46336602971427 2.7293239482281857 45.439849615097046 3.493613252731633 Q 45.53391620767111 4.093287686283698 45.86314834757518 5.186809632598469 Q 45.74556533689842 6.068682310267246 45.6867740685718 7.609019156209222 Q 45.63974077228477 8.126385596610875 45.968973400154226 8.279244684395955 Q 46.944912754048275 8.537926343107557 48.438216986854755 8.537926343107557 Q 49.94327956813126 8.537926343107557 50.90746124276495 8.279244684395955 Q 51.2484534599307 8.126385596610875 51.20141917377103 7.609019156209222 Q 51.142627766025726 6.068682310267246 51.02504361211578 5.186809632598469 Q 51.35427826155611 4.093287686283698 51.44834237247766 3.493613252731633 Q 51.424828129306384 2.7293239482281857 51.11910995373623 2.3177832087024384 Q 51.0416435809982 2.25 50.986107209077616 2.25 Q 50.90676927996834 2.25 50.872186308889816 2.388332916121231 Q 50.95449374436551 2.623499397556398 51.02504361211578 2.846906986788682 Q 51.11910995373623 3.129106290487367 51.09559437214562 3.3760307718458598 Q 51.07207834441523 3.775813058337569 51.019164382113296 4.028616490861186 Q 50.966252650510256 4.281420034919748 50.801635548859984 4.281420034919748 Q 50.79286087169434 4.282122035861386 50.78434763243895 4.282122035861386 Q 50.507678510133466 4.282122035861386 50.507678510133466 3.5406465350767977 Q 50.507678510133466 3.2702057471505572 50.57822882402352 2.882181809128875 Q 50.51765508786268 2.7792075618514 50.44772044686711 2.7792075618514 Q 50.381900106909846 2.7792075618514 50.30778736688761 2.8704234048913753 Q 50.27251243301247 3.152622708590061 50.2607539730075 3.493613252731633 Q 50.21372057912739 4.0109791354585616 50.507678510133466 4.951643109337698 Q 50.40185370850806 6.280331913518073 50.40185370850806 7.609019156209222 Q 49.602289581664415 7.73836087784458 48.438216986854755 7.773636257859497 Q 47.285903409724796 7.73836087784458 46.48633872520643 7.609019156209222 Q 46.48633872520643 6.280331913518073 46.38051370051112 4.951643109337698 Q 46.67447140844731 4.0109791354585616 46.62743812610215 3.493613252731633 Q 46.61567966609717 3.152622708590061 46.58040484375698 2.8704234048913753 Q 46.506291992199806 2.7792075618514 46.44047142917265 2.7792075618514 Q 46.37053706701444 2.7792075618514 46.309963944295795 2.882181809128875 Q 46.38051370051112 3.2702057471505572 46.38051370051112 3.5406465350767977 Q 46.38051370051112 4.282122035861386 46.10384418783333 4.282122035861386 Q 46.09533128318279 4.282122035861386 46.08655638294725 4.281420034919748 Q 45.921940062041585 4.281420034919748 45.86902780064756 4.028616490861186 Q 45.8161155113698 3.775813058337569 45.79259864712733 3.3760307718458598 Q 45.76908222902463 3.129106290487367 45.86314834757518 2.846906986788682 Q 45.933698522046555 2.623499397556398 46.01600668249939 2.388332916121231 Q 45.98142332104857 2.25 45.90208530828807 2.25 Z"
     style="fill:#ffffff;stroke:none"
     id="path12" />
  <path
     d="M 45.90208530828807 9.462073824160598 Q 45.84654865753013 9.462073824160598 45.76908222902463 9.529857032863037 Q 45.46336602971427 9.941397772388783 45.439849615097046 10.70568707689223 Q 45.53391620767111 11.305361510444296 45.86314834757518 12.398883456759066 Q 45.74556533689842 13.280756134427843 45.6867740685718 14.82109298036982 Q 45.63974077228477 15.338459420771473 45.968973400154226 15.491318508556553 Q 46.944912754048275 15.750000167268155 48.438216986854755 15.750000167268155 Q 49.94327956813126 15.750000167268155 50.90746124276495 15.491318508556553 Q 51.2484534599307 15.338459420771473 51.20141917377103 14.82109298036982 Q 51.142627766025726 13.280756134427843 51.02504361211578 12.398883456759066 Q 51.35427826155611 11.305361510444296 51.44834237247766 10.70568707689223 Q 51.424828129306384 9.941397772388783 51.11910995373623 9.529857032863037 Q 51.0416435809982 9.462073824160598 50.986107209077616 9.462073824160598 Q 50.90676927996834 9.462073824160598 50.872186308889816 9.600406740281828 Q 50.95449374436551 9.835573221716995 51.02504361211578 10.05898081094928 Q 51.11910995373623 10.341180114647965 51.09559437214562 10.588104596006458 Q 51.07207834441523 10.987886882498167 51.019164382113296 11.240690315021784 Q 50.966252650510256 11.493493859080345 50.801635548859984 11.493493859080345 Q 50.79286087169434 11.494195860021984 50.78434763243895 11.494195860021984 Q 50.507678510133466 11.494195860021984 50.507678510133466 10.752720359237395 Q 50.507678510133466 10.482279571311155 50.57822882402352 10.094255633289473 Q 50.51765508786268 9.991281386011998 50.44772044686711 9.991281386011998 Q 50.381900106909846 9.991281386011998 50.30778736688761 10.082497229051974 Q 50.27251243301247 10.364696532750658 50.2607539730075 10.70568707689223 Q 50.21372057912739 11.22305295961916 50.507678510133466 12.163716933498296 Q 50.40185370850806 13.49240573767867 50.40185370850806 14.82109298036982 Q 49.602289581664415 14.950434702005179 48.438216986854755 14.985710082020095 Q 47.285903409724796 14.950434702005179 46.48633872520643 14.82109298036982 Q 46.48633872520643 13.49240573767867 46.38051370051112 12.163716933498296 Q 46.67447140844731 11.22305295961916 46.62743812610215 10.70568707689223 Q 46.61567966609717 10.364696532750658 46.58040484375698 10.082497229051974 Q 46.506291992199806 9.991281386011998 46.44047142917265 9.991281386011998 Q 46.37053706701444 9.991281386011998 46.309963944295795 10.094255633289473 Q 46.38051370051112 10.482279571311155 46.38051370051112 10.752720359237395 Q 46.38051370051112 11.494195860021984 46.10384418783333 11.494195860021984 Q 46.09533128318279 11.494195860021984 46.08655638294725 11.493493859080345 Q 45.921940062041585 11.493493859080345 45.86902780064756 11.240690315021784 Q 45.8161155113698 10.987886882498167 45.79259864712733 10.588104596006458 Q 45.76908222902463 10.341180114647965 45.86314834757518 10.05898081094928 Q 45.933698522046555 9.835573221716995 46.01600668249939 9.600406740281828 Q 45.98142332104857 9.462073824160598 45.90208530828807 9.462073824160598 Z"
     style="fill:#ffffff;stroke:none"
     id="path14" />
  <path
     d="M 21.39600372314453 0.375 L 21.39600372314453 17.625 "
     style="fill:none;stroke:#ffffff;stroke-width:1"
     id="path16" />
  <path
     d="M 21.39600372314453 0.375 L 24.02100372314453 0.375 "
     style="fill:none;stroke:#ffffff;stroke-width:1"
     id="path18" />
  <path
     d="M 21.39600372314453 17.625 L 24.02100372314453 17.625 "
     style="fill:none;stroke:#ffffff;stroke-width:1"
     id="path20" />
  <path
     d="M 24.02100372314453 0.375 L 51.44834327697754 0.375 "
     style="fill:none;stroke:#ffffff;stroke-width:1"
     id="path22" />
  <path
     d="M 24.02100372314453 17.625 L 51.44834327697754 17.625 "
     style="fill:none;stroke:#ffffff;stroke-width:1"
     id="path24" />
  <path
     d="M 51.44834327697754 0.375 L 69.07334327697754 0.375 "
     style="fill:none;stroke:#ffffff;stroke-width:1"
     id="path26" />
  <path
     d="M 51.44834327697754 17.625 L 69.07334327697754 17.625 "
     style="fill:none;stroke:#ffffff;stroke-width:1"
     id="path28" />
  <path
     d="M 53.21084327697754 0.375 L 53.21084327697754 17.625 "
     style="fill:none;stroke:#ffffff;stroke-width:1"
     id="path30" />
  <path
     d="M 56.73584327697753 0.375 L 56.73584327697753 17.625 "
     style="fill:none;stroke:#ffffff;stroke-width:1"
     id="path32" />
  <path
     d="M 58.498343276977536 0.375 L 58.498343276977536 17.625 "
     style="fill:none;stroke:#ffffff;stroke-width:1"
     id="path34" />
  <path
     d="M 60.26084327697754 2.1 L 69.07334327697754 2.1 "
     style="fill:none;stroke:#ffffff;stroke-width:1"
     id="path36" />
  <path
     d="M 60.26084327697754 5.550000000000001 L 69.07334327697754 5.550000000000001 "
     style="fill:none;stroke:#ffffff;stroke-width:1"
     id="path38" />
  <path
     d="M 60.26084327697754 2.1 L 60.26084327697754 5.550000000000001 "
     style="fill:none;stroke:#ffffff;stroke-width:1"
     id="path40" />
  <path
     d="M 62.02334327697754 3.825 L 69.07334327697754 3.825 "
     style="fill:none;stroke:#ffffff;stroke-width:1"
     id="path42" />
  <path
     d="M 60.26084327697754 7.275 L 69.07334327697754 7.275 "
     style="fill:none;stroke:#ffffff;stroke-width:1"
     id="path44" />
  <path
     d="M 60.26084327697754 10.725000000000001 L 69.07334327697754 10.725000000000001 "
     style="fill:none;stroke:#ffffff;stroke-width:1"
     id="path46" />
  <path
     d="M 60.26084327697754 7.275 L 60.26084327697754 10.725000000000001 "
     style="fill:none;stroke:#ffffff;stroke-width:1"
     id="path48" />
  <path
     d="M 62.02334327697754 9.000000000000002 L 69.07334327697754 9.000000000000002 "
     style="fill:none;stroke:#ffffff;stroke-width:1"
     id="path50" />
  <path
     d="M 60.26084327697754 12.450000000000001 L 69.07334327697754 12.450000000000001 "
     style="fill:none;stroke:#ffffff;stroke-width:1"
     id="path52" />
  <path
     d="M 60.26084327697754 15.900000000000002 L 69.07334327697754 15.900000000000002 "
     style="fill:none;stroke:#ffffff;stroke-width:1"
     id="path54" />
  <path
     d="M 60.26084327697754 12.450000000000001 L 60.26084327697754 15.900000000000002 "
     style="fill:none;stroke:#ffffff;stroke-width:1"
     id="path56" />
  <path
     d="M 62.02334327697754 14.175 L 69.07334327697754 14.175 "
     style="fill:none;stroke:#ffffff;stroke-width:1"
     id="path58" />
</svg>
