<?xml version="1.0" encoding="UTF-8" standalone="no"?>
<svg
   width="121.52555847167969"
   height="18.0"
   version="1.1"
   id="svg40"
   sodipodi:docname="wespasianos.svg"
   inkscape:version="1.1.1 (3bf5ae0d25, 2021-09-20)"
   xmlns:inkscape="http://www.inkscape.org/namespaces/inkscape"
   xmlns:sodipodi="http://sodipodi.sourceforge.net/DTD/sodipodi-0.dtd"
   xmlns="http://www.w3.org/2000/svg"
   xmlns:svg="http://www.w3.org/2000/svg">
  <defs
     id="defs44" />
  <sodipodi:namedview
     id="namedview42"
     pagecolor="#ffffff"
     bordercolor="#666666"
     borderopacity="1.0"
     inkscape:pageshadow="2"
     inkscape:pageopacity="0.0"
     inkscape:pagecheckerboard="0"
     showgrid="false"
     inkscape:zoom="11.314492"
     inkscape:cx="60.762779"
     inkscape:cy="8.9707958"
     inkscape:window-width="1920"
     inkscape:window-height="1001"
     inkscape:window-x="-9"
     inkscape:window-y="-9"
     inkscape:window-maximized="1"
     inkscape:current-layer="svg40" />
  <path
     d="M 9.619241759901131 8.704017150225534 C 9.956114020057063 8.704017150225534 10.371109904274771 8.76399089929749 10.864229412554256 8.883939352346172 C 11.905261819800385 9.137163864337834 12.8056128816014 9.495897714329981 13.565284507766846 9.960140902322616 C 14.32495613393229 10.42438504522002 15.176070395910864 11.008207138114807 16.1186263387978 11.711606226102205 C 15.211383729261659 12.170969850713034 14.168207560803758 12.400651185566062 12.989095923614554 12.400651185566062 C 12.723796640788658 12.400651185566062 12.45161535927535 12.38902331016484 12.172553033979401 12.365768514267165 C 10.653210736553286 12.239155780818948 9.3484030744964 11.792497164191472 8.258132912523058 11.025791709479964 C 7.167863705454489 10.259086254768457 6.897054622097669 9.78780828332499 7.445706139904986 9.61195779514956 C 7.994358612617073 9.436108261878905 8.441018184149321 9.207503104703234 8.78568342214457 8.92614327852732 C 8.967086681565636 8.778059511294387 9.244939142516232 8.704017150225534 9.619241759901131 8.704017150225534 ZM 16.87829701005847 11.880422885731571 L 17.743478929129175 12.070340076094354 C 17.743478929129175 12.295428318996994 17.539492171864723 12.478311680813713 17.131522476954906 12.618992071354056 C 16.899402315315747 12.634818663035082 16.657389340244983 12.642731958875595 16.405485461552153 12.642731958875595 C 15.985642480714866 12.642731958875595 15.538322115080815 12.620750051038186 15.063526274459544 12.576788145172907 C 15.977946903162229 12.464244023721587 16.582870481695206 12.232122907177656 16.87829701005847 11.880422885731571 ZM 18.207723072026578 12.196952809542571 L 18.73527358164809 12.302462147543055 C 18.791544210016596 12.471278807172421 18.594593191107748 12.640094511897015 18.144416705302472 12.808910216621609 L 17.532460253128203 12.76670629044046 C 17.968567172031815 12.569755271531616 18.193655414934454 12.379837126264063 18.207723072026578 12.196952809542571 ZM 19.009598624373172 12.407972440448313 L 19.36833342927009 12.49238029281061 C 19.283925576907794 12.731536192805375 19.030702019820904 12.851114142802757 18.608660848199875 12.851114142802757 C 18.847816748194642 12.696366095170289 18.98146331018892 12.548652830988656 19.009598624373172 12.407972440448313 ZM 19.600455500718795 12.618992071354056 C 19.938086910167982 12.71746853571325 20.163175153070622 12.87925041189178 20.27571831961717 13.10433865479442 L 19.326128548184172 12.893318068983906 C 19.509013819810434 12.808910216621609 19.600455500718795 12.71746853571325 19.600455500718795 12.618992071354056 ZM 17.405847519679988 13.864010280959864 C 18.46094662911347 13.99062205950331 19.255788352914 14.28604954277135 19.790372691081576 14.750293685668755 L 17.173725448231284 14.138336278589716 C 17.20186267222508 13.983587276052475 17.279236696041313 13.892145595144116 17.405847519679988 13.864010280959864 ZM 5.187792747046841 0.40093762696942586 C 5.848988863757863 0.40093762696942586 6.3484031042903535 0.5838216154424017 6.686035468644312 0.9495895923883535 C 7.0236668780935005 1.3153575693343054 7.129177170998758 2.198124417859453 7.0025653924553115 3.5978901976453446 C 6.875952659007095 4.997655977431236 6.8337487328259465 5.947245271411848 6.875953136459481 6.446659034491953 C 6.918156585188243 6.946073275024443 7.048285755457107 7.315357867835686 7.266340169813683 7.554513290378066 C 7.4843936292654885 7.793669667825216 7.748168406623859 8.029308176094565 8.05766402443641 8.261430247543267 C 8.367160119701346 8.49355231899197 8.212412072068878 8.70105503562468 7.5934203589913905 8.883939352346172 C 6.974429123366289 9.06682271416289 6.629762930466267 9.33763179751971 6.559423212648482 9.69636660241663 C 6.48908301737831 10.055099497504006 6.577008261466024 10.385698033311902 6.823197990006852 10.688160300030777 C 7.069388196000066 10.99062256674965 7.656726725715499 11.398594171469009 8.585214534057924 11.912075114188854 C 9.513701864947961 12.42555701181347 10.333162943564483 12.752637678443564 11.043595860097945 12.893318068983906 C 11.754030686440949 13.033998459524248 13.931053141209826 13.10433865479442 17.57466322440458 13.10433865479442 C 18.700104438917776 13.315358285700162 19.445707453086325 13.596718111876076 19.811474176719763 13.94841813332216 L 17.405847519679988 13.399766138062459 C 17.18076118658689 13.47010633333263 17.00490974350669 13.60375194042214 16.87829701005847 13.800703914235756 C 16.87829701005847 14.166472547678739 16.083455286257944 14.37749217858448 14.493772793561655 14.433763761857755 C 14.254616893566888 14.433763761857755 14.092834062483586 14.103166180954629 14.008427165026061 13.441970064243609 L 13.755202653034399 13.652989695149351 C 13.881814431577844 14.187574033316928 13.91698452921293 14.658852004760394 13.860712945939655 15.066823609479753 C 13.663760972126038 14.588511809490223 13.319094779226017 14.271981885679224 12.826715322144361 14.117233838046756 C 12.038906471985122 13.976553447506413 11.335507383997724 13.846424754689936 10.71651519346785 13.726846804692553 C 10.097523002937978 13.607269809599941 9.471497938766813 13.350529338240019 8.838438091144814 12.956624435708015 C 8.275718438792987 12.520516561899633 7.371849507814169 12.049238590456165 6.126831775660745 11.542790521377611 C 4.881814043507322 11.03634340720383 4.259305416156803 10.283705609584448 4.259305416156803 9.284877128519467 C 4.259305416156803 8.286049602359258 4.593420388785345 7.459554695196674 5.261649856590044 6.805393361936487 C 5.929879801847128 6.151231551223914 6.2639942970232845 5.366941047694864 6.2639942970232845 4.452521373896952 C 6.2639942970232845 4.002345365544058 6.207722713750011 3.5767882345547704 6.095179069751077 3.175850219655281 C 5.993352799453844 2.8130966980279646 5.689997219321334 2.6317199372143065 5.185112329353548 2.6317199372143065 C 5.131966626849421 2.6317199372143065 5.076588356989783 2.6337295343056977 5.0189770423222475 2.6377489672146734 L 3.2464102329044677 2.869871038663376 C 3.3026820549039346 2.6869874381204633 3.387089668540039 2.5181714946696765 3.4996335512651657 2.363423447037208 C 3.6403134643531225 1.9273154538657298 3.795061511985591 1.6740914193264531 3.9638776941625706 1.6037515821455712 C 3.9884963327999836 1.6899181303705768 4.083125485835245 1.733001523846176 4.247764437089777 1.733001523846176 C 4.271284696513898 1.733001523846176 4.296233016023633 1.732122295277918 4.32261082797614 1.7303637187783059 C 4.603971609056825 1.7162955842337946 4.765753485235356 1.5756155517827413 4.8079574114165045 1.308323860151339 C 4.7798216197798675 1.0410321685199366 4.6180397436013365 0.9003521360688832 4.32261082797614 0.8862840612059201 C 4.069387270889249 0.9003521360688832 3.9287073578012923 1.0410321685199366 3.9005710887122693 1.308323860151339 C 3.6754838007144013 1.5193437297832741 3.4996337899913588 1.765533697050295 3.373021295269335 2.046893523226209 C 3.3320964640294637 2.0673559388461444 3.2921017100369276 2.0775870272930157 3.2530370332917253 2.0775870272930157 C 3.1846734908983327 2.0775870272930157 3.119158190711805 2.046253737029377 3.0564913714583355 1.9835869177759076 C 3.225307553635315 1.6459552696005268 3.471497998354722 1.2977725205167625 3.7950622281641695 0.9390390286139039 C 4.118625980521232 0.5803047608509185 4.582869168513866 0.40093762696942586 5.187792747046841 0.40093762696942586 ZM 9.977946007845366 14.159437764227905 L 10.653208826743741 14.328253468952498 L 9.89353815548307 15.425557459471902 L 9.977946007845366 14.159437764227905 ZM 11.286269629270512 14.391559835676606 C 11.84898928162234 14.391559835676606 12.32378416733884 14.451348333222912 12.71065428642001 14.570927238125066 C 13.09752440550118 14.690504233217677 13.336679350591174 15.144197633295988 13.428121986404305 15.932005528550455 C 13.517959427296729 16.705992132143816 13.400721948894024 17.092986388845265 13.07640859629142 17.092986388845265 C 13.070618053757709 17.092986388845265 13.064760667889999 17.092862251224986 13.058837393593063 17.09261588579397 L 11.03304511727885 17.09261588579397 C 10.988356528882543 17.089306185856326 10.942987093384234 17.087650380982737 10.896935855879153 17.087650380982737 C 10.551564943257846 17.087650380982737 10.167861288398607 17.180747866764687 9.745823936396663 17.366940928519046 C 9.858368057847983 16.382182014355735 10.3718499554726 15.390387361836815 11.286269629270512 14.391559835676606 ZM 5.187792747046841 0.0 C 4.231169147067781 0.0 3.443361967991892 0.5345838607151904 2.8243702549144043 1.6037515821455712 C 2.613350385282469 1.9554513648654634 1.9873244855696295 2.3071511475853557 0.946292317049693 2.6588511690314407 C 0.22882448278191372 2.869871038663376 -0.08067132899566878 3.165298999383801 0.017804894772284054 3.545135051192716 L 0.03890708726380924 3.798358369553414 C 1.3753664816751086 3.6717465910099687 2.493771957832701 3.5099647148314377 3.3941234970861016 3.3130129797440135 L 5.040079482865207 3.0175852577497815 C 5.048381902400062 3.0173546482474904 5.056615568791377 3.017239343496345 5.064780004586766 3.017239343496345 C 5.5546451974053515 3.017239343496345 5.796118651280282 3.432360558965298 5.789199888759171 4.2626027511770115 C 5.782166060213108 5.106682229704753 5.4269491244939925 5.862836941597166 4.723549559054208 6.5310668868542505 C 4.020149993614424 7.199296832111335 3.661415904896083 8.166471652361876 3.6473477703515713 9.432591347605873 C 3.6473477703515713 10.459556097759878 4.136210551886389 11.19460836910933 5.11393659240841 11.637750071463774 C 6.09166167802566 12.08089177381822 7.037734535185626 12.555685704629948 7.952154686435924 13.062133773708501 C 8.866573405329065 13.568581842787054 9.387089131499744 13.962486745319058 9.513701864947961 14.243845616590201 C 9.44336166967779 15.735053554736838 9.26047830786107 16.698711938166735 8.96504986968826 17.134818857070343 C 8.472670412606604 17.134818857070343 7.614522322081965 17.064478661800173 6.390606553019116 16.92379827125983 C 6.01077121738878 16.980070809437876 5.75051335430344 17.10316567370829 5.609832486310712 17.293084773880615 C 5.469153528127526 17.48300387405294 5.497289319764163 17.69050468087611 5.69424129357778 17.91559292377875 C 5.7882960713930505 17.77973671214347 5.878469161312617 17.711806696516287 5.9647610407888685 17.711806696516287 C 5.99463093949035 17.711806696516287 6.024035799568166 17.719946304787623 6.052975621022314 17.73622552133029 C 6.165519265021248 17.799531888054396 6.446879091197162 17.831185071416453 6.897054144645284 17.831185071416453 L 8.96504986968826 17.831185071416453 C 9.066651737364214 17.811645809984256 9.162826881224358 17.801877134172933 9.253573391459145 17.801877134172933 C 9.489516991802953 17.801877134172933 9.68877028611562 17.867918348162302 9.851334229301921 18.000000776141047 C 10.048286203115538 17.98593311904892 10.21710095293536 17.929660580870873 10.357781343475702 17.831185071416453 C 10.978782653644581 17.849272877596132 11.498366392758383 17.8583158257812 11.916529696102794 17.8583158257812 C 12.474082358736627 17.8583158257812 12.85133372205558 17.842239049050068 13.048285695869197 17.810083585778262 C 13.39295188876922 17.753811047600216 13.705964898307187 17.704574247777778 13.987324724483102 17.662369366691856 L 14.704792424467398 17.89449143814056 C 14.713104870502352 17.89513122433739 14.721098378343662 17.895450162531034 14.728771038181785 17.895450162531034 C 14.889915037973028 17.895450162531034 14.91005779922074 17.754450833797048 14.789201231734465 17.47245026651953 C 14.170209041204592 17.134818857070343 14.02952865066425 16.28370459509177 14.367161015018208 14.919109390393348 L 14.367161015018208 14.919109390393348 C 14.486100133723532 14.921667580275903 14.601202445057407 14.922946197764796 14.712467949019834 14.922946197764796 C 15.825117259215483 14.922946197764796 16.55409538131412 14.795054846827687 16.899400405506203 14.539274054763013 C 18.306200491290543 14.792496656945131 19.452741281632388 15.03868734039073 20.33902468634128 15.277843240385495 L 20.486738905427682 15.024620638203377 C 20.1209702719847 14.616648078579246 19.84664522925962 14.356389738041521 19.6637618674429 14.243845616590201 L 19.6637618674429 14.243845616590201 L 20.59224824342817 14.433763761857755 C 20.74230770863311 14.490035345131028 20.8462548224276 14.518171614220051 20.90408958481164 14.518171614220051 C 21.01975910957972 14.518171614220051 20.95098304832509 14.405627492768732 20.697759491238198 14.180540204770864 C 20.641486953060152 14.025792157138396 20.23351534834079 13.723330845324293 19.473842767270575 13.273154359519014 L 19.473842767270575 13.273154359519014 L 20.761063948152763 13.526377916605906 C 20.901744338693106 12.62602685480489 19.924019253075855 11.985932223732057 17.827886781491472 11.606096888101721 C 16.73058279097207 11.352873331014829 15.738790048262691 10.86049196412363 14.852506643553802 10.12895660704721 C 13.684862457764227 9.101993766702748 11.91932947689251 8.349355969083367 9.55590579112911 7.871043214189065 C 8.303853752977238 7.786635839279153 7.607488493535902 7.4032831119233995 7.466808580447945 6.72098550957419 C 7.326128667359988 6.038687429772594 7.32964558163302 4.95193465952467 7.477359800719425 3.4607274375566117 C 7.625073542353445 1.969519857499264 7.417570825720734 0.9988280632941434 6.854850695916521 0.5486519952597018 C 6.43281095665265 0.1828839884729759 5.877125132846886 0.0 5.187792747046841 0.0 Z"
     style="fill:#ffffff;stroke:none"
     id="path2" />
  <path
     d="M 27.177865186478382 7.937876256002994 C 26.496671245133623 7.991654064440127 26.120222241250442 8.332250793733436 26.04851793344977 8.959665719745715 C 26.138148499234912 9.640860143848613 26.514597503118093 9.999383372505463 27.177865186478382 10.035235888474404 C 27.84113286983867 9.999383372505463 28.190692728124215 9.640860143848613 28.226544278576878 8.959665719745715 C 28.172766470139745 8.332250793733436 27.8232066118542 7.991654064440127 27.177865186478382 7.937876256002994 ZM 27.25853214051315 5.679180301671352 C 27.742538692303153 5.679180301671352 28.190693210882355 5.768811229525099 28.602994730734476 5.948073085232593 C 29.01529576782846 6.127334940940088 29.378299957533752 6.373819539952137 29.692007299850356 6.687527123647811 C 30.0057151249251 7.001234707343485 30.252199844626684 7.3597576946212655 30.43146145895511 7.763095602723013 C 30.610722590525395 8.16643375220383 30.700352914931468 8.592179844854769 30.700352914931468 9.040334122054901 C 30.700352914931468 9.506413933102294 30.610722590525395 9.941123154745469 30.43146145895511 10.344461786984425 C 30.252199844626684 10.747799936465242 30.0057151249251 11.101841721315509 29.692007299850356 11.406586176018948 C 29.378299957533752 11.711330630722387 29.01529576782846 11.948851980052666 28.602994730734476 12.119151189526065 C 28.190693210882355 12.289449433483185 27.742538692303153 12.374598314082675 27.25853214051315 12.374598314082675 C 26.774526312860356 12.374598314082675 26.32189131599085 12.289449433483185 25.900626908525563 12.119151189526065 C 25.479361776923067 11.948851980052666 25.116357104459635 11.711330630722387 24.8116130118248 11.406586176018948 C 24.506868074363222 11.101841721315509 24.264865160536825 10.747799936465242 24.085604149656074 10.344461786984425 C 23.906342354293347 9.941123154745469 23.8167114264396 9.506413933102294 23.8167114264396 9.040334122054901 C 23.8167114264396 8.592179844854769 23.906342354293347 8.16643375220383 24.085604149656074 7.763095602723013 C 24.264865160536825 7.3597576946212655 24.506868074363222 7.001234707343485 24.8116130118248 6.687527123647811 C 25.116357104459635 6.373819539952137 25.479361776923067 6.127334940940088 25.900626908525563 5.948073085232593 C 26.32189131599085 5.768811229525099 26.774526312860356 5.679180301671352 27.25853214051315 5.679180301671352 ZM 27.204754814834157 4.764946937561035 C 26.61319119789547 4.764946937561035 26.057480338304796 4.876985476688684 25.53762175330399 5.101062554943983 C 25.017763409682257 5.325139663371665 24.569609615240264 5.629884118075104 24.193160490667548 6.015295949226683 C 23.8167114264396 6.400708564860238 23.516448355197976 6.848862238612696 23.292371276942678 7.359757211863126 C 23.068294998255546 7.870652909250765 22.956256866455078 8.421882083655788 22.956256866455078 9.013444493699126 C 22.956256866455078 9.605007145121533 23.068294998255546 10.156236319526556 23.292371276942678 10.667132016914195 C 23.516448355197976 11.178027714301834 23.8167114264396 11.621700306316313 24.193160490667548 11.998149310199494 C 24.569609615240264 12.374598314082675 25.017763409682257 12.67486180773767 25.53762175330399 12.898938825648202 C 26.057480338304796 13.123014878042454 26.61319119789547 13.23505338699772 27.204754814834157 13.23505338699772 C 27.796317466256564 13.23505338699772 28.347546157903448 13.123014878042454 28.85844088977481 12.898938825648202 C 29.369336587162447 12.67486180773767 29.81749062298351 12.374598314082675 30.202903479996134 11.998149310199494 C 30.58831537149248 11.621700306316313 30.89305982619592 11.178027714301834 31.11713636134831 10.667132016914195 C 31.34121434477512 10.156236319526556 31.453252853730387 9.605007145121533 31.453252853730387 9.013444493699126 C 31.453252853730387 8.421882083655788 31.34121434477512 7.870652909250765 31.11713636134831 7.359757211863126 C 30.89305982619592 6.848862238612696 30.58831537149248 6.400708564860238 30.202903479996134 6.015295949226683 C 29.81749062298351 5.629884118075104 29.369336587162447 5.325139663371665 28.85844088977481 5.101062554943983 C 28.347546157903448 4.876985476688684 27.796317466256564 4.764946937561035 27.204754814834157 4.764946937561035 Z"
     style="fill:#ffffff;stroke:none"
     id="path4" />
  <path
     d="M 47.76060774785675 2.25 C 47.67708340874058 2.25 47.5935588885901 2.2575931288094866 47.51003454947393 2.2651862576189727 C 46.302727061693936 2.3942694487945726 45.444703468035044 3.616763180050235 45.63453169110087 4.801291257358152 C 45.71805611083388 5.682094284118406 46.264761407746185 6.175647740180523 46.86461856813798 6.661607893470503 C 48.64900389635484 7.755018509924412 48.14785731855489 7.352582514716303 49.94742898076457 8.263758209462196 L 50.23596796887087 7.724646022973076 C 48.09470546639005 6.722352867373175 47.836539146269395 6.562897129844359 47.168343709202794 6.122495706981383 C 46.62163849149299 5.682094284118406 46.1888300998507 5.196134130828426 46.22679575379844 4.45960059812132 C 46.21160951032277 3.950860898583535 46.515334696646164 3.4269349555700828 46.857025446400144 3.1763617571872587 C 47.130378100513624 2.971347243972863 47.47966206252259 2.849857205650368 47.82135290279373 2.849857205650368 C 48.079519222914385 2.849857205650368 48.322499299559375 2.9106022248116155 48.53510688925303 3.0624648406025976 C 49.07421907574215 3.3282242824610897 49.37035100455198 4.209027218704193 48.975508312116006 4.763325648668982 C 48.79327339040799 5.029085271561776 48.46676879361252 5.211320374304094 48.14026419681706 5.211320374304094 C 47.98080845928824 5.211320374304094 47.82135290279373 5.165761462842788 47.68467653047841 5.067050880250946 C 47.411323785847785 4.915188264459964 47.206309317891964 4.383669199708677 47.48725518426043 4.087537270898849 C 47.35817193368295 3.950860898583535 47.17593683094063 3.783812039316885 47.03926054914246 3.783812039316885 C 46.948142997771306 3.783812039316885 46.879804811613646 3.852150134957391 46.83424608118664 4.011605872486207 C 46.53052094012183 4.74054628345548 47.01648118392896 5.568197277016594 47.745421504381085 5.7656188042688825 C 47.874504754958565 5.80358423192375 48.003588005536045 5.8263637781715545 48.13267107507922 5.8263637781715545 C 48.967915371412474 5.8263637781715545 49.74241451280875 5.127795854153618 49.74241451280875 4.2621792519033335 C 49.81834573018709 3.2522930650827497 49.01347410183948 2.325931290923525 48.003588005536045 2.2651862576189727 C 47.9276566071234 2.2575931288094866 47.84413226800723 2.25 47.76060774785675 2.25 Z"
     style="fill:#ffffff;stroke:none"
     id="path6" />
  <path
     d="M 46.8839017743594 13.881378650665283 C 46.78008946409682 13.881378650665283 46.67578329225779 13.894231540191031 46.570982172636505 13.919937319242528 C 46.361379933393934 13.971349383675838 46.13398129810635 14.088014778641776 45.888786628842354 14.269933478682397 L 40.9532527923584 14.269933478682397 L 40.9532527923584 15.361445769443272 L 45.888786628842354 15.361445769443272 C 46.13398129810635 15.543364424225317 46.361379933393934 15.66002962684231 46.570982172636505 15.711441196259948 C 46.67578329225779 15.737147162003069 46.78008946409682 15.75000023539178 46.8839017743594 15.75000023539178 C 46.987714084621985 15.75000023539178 47.091031809170914 15.737147162003069 47.1938556721434 15.711441196259948 C 47.39950267395116 15.66002962684231 47.60515039989613 15.543364424225317 47.810797401703894 15.361445769443272 L 48.000625626184046 15.361445769443272 C 48.19836360139661 15.543364424225317 48.402033708624174 15.66002962684231 48.611635947866745 15.711441196259948 C 48.716436705419426 15.737147162003069 48.82123746297211 15.75000023539178 48.92603822052479 15.75000023539178 C 49.03083897807747 15.75000023539178 49.13563973563015 15.737147162003069 49.24044049318283 15.711441196259948 C 49.4500427324254 15.66002962684231 49.67348685441539 15.543364424225317 49.91077213501558 15.361445769443272 L 54.89376302761957 15.361445769443272 L 54.89376302761957 14.269933478682397 L 49.91077213501558 14.269933478682397 C 49.67348685441539 14.088014778641776 49.4500427324254 13.971349383675838 49.24044049318283 13.919937319242528 C 49.13563973563015 13.894231540191031 49.03083897807747 13.881378650665283 48.92603822052479 13.881378650665283 C 48.82123746297211 13.881378650665283 48.716436705419426 13.894231540191031 48.611635947866745 13.919937319242528 C 48.402033708624174 13.971349383675838 48.19836360139661 14.088014778641776 48.000625626184046 14.269933478682397 L 47.810797401703894 14.269933478682397 C 47.60515039989613 14.088014778641776 47.39950267395116 13.971349383675838 47.1938556721434 13.919937319242528 C 47.091031809170914 13.894231540191031 46.987714084621985 13.881378650665283 46.8839017743594 13.881378650665283 Z"
     style="fill:#ffffff;stroke:none"
     id="path8" />
  <path
     d="M 60.93973879746985 2.572724411044917 L 60.905767806833545 6.343504371674999 L 58.91846485460958 6.377475362311306 L 58.90147935929143 2.5897099063630704 L 60.93973879746985 2.572724411044917 ZM 61.27944870383292 2.25 L 58.57875494824651 2.2669854953181536 L 58.595740443564665 6.717185268674376 L 61.22849221787846 6.666228782719916 L 61.27944870383292 2.25 Z"
     style="fill:#ffffff;stroke:none"
     id="path10" />
  <path
     d="M 61.226740886659115 8.25786133751959 Q 61.43912281759004 8.25786133751959 61.492926634043236 8.508944259232637 Q 61.578114843792726 8.898379037265624 60.884434015832426 9.141776551070512 Q 60.73839675160433 8.43592569191311 61.05481199039995 8.28988739097265 Q 61.15088982678651 8.25786133751959 61.226740886659115 8.25786133751959 ZM 63.087175645382914 10.930742821837637 L 63.087175645382914 13.94886494337419 L 62.50302295997725 13.94886494337419 L 62.50302295997725 11.600083716992788 L 57.39169000802028 11.600083716992788 L 57.39169000802028 13.94886494337419 L 56.758858266935846 13.94886494337419 L 56.758858266935846 10.930742821837637 ZM 62.12575762999066 11.965179598932984 L 62.12575762999066 15.372734425077802 L 57.75678517722073 15.372734425077802 L 57.75678517722073 11.965179598932984 ZM 61.177752080765316 7.790924035679581 Q 60.917466781782274 7.790924035679581 60.65320724596438 7.985641551627531 Q 60.14207435897418 8.460265235951127 60.47065904581619 9.336493421730825 L 59.78914896179274 10.553477751029135 L 56.393763065338135 10.553477751029135 L 56.393763065338135 14.326128199936058 L 57.39169000802028 14.326128199936058 L 57.39169000802028 15.750000273420573 L 62.50302295997725 15.750000273420573 L 62.50302295997725 14.326128199936058 L 63.464440457013325 14.326128199936058 L 63.464440457013325 10.553477751029135 L 60.40981076887186 10.553477751029135 L 60.945284366201484 9.592060124404018 Q 61.858022515983436 9.409512572201056 61.99189007298705 8.71583193862432 Q 62.028399453838595 8.156018862051198 61.56594435903397 7.900452645336924 Q 61.3729660550026 7.790924035679581 61.177752080765316 7.790924035679581 Z"
     style="fill:#ffffff;stroke:none"
     id="path12" />
  <path
     d="M 66.80240566031858 2.9892379897054955 C 67.08002376152159 2.9892379897054955 67.41987907124778 3.095985977015074 67.51896975797446 3.340333519869274 L 67.48248814288002 11.279334014803599 L 67.48248814288002 11.279334014803599 C 67.34167735155117 10.960512872387417 66.92337897813657 10.367342335933275 65.68093415526256 9.632436990092634 L 66.62419496507187 3.06154244747758 C 66.6684464960095 3.0145252182361735 66.66728632607852 2.9892379897054955 66.80240566031858 2.9892379897054955 ZM 67.48248814288002 11.279334014803599 L 67.48248814288002 11.279334014803599 C 67.48248814288002 11.279334014803599 67.48248832191858 11.279334014803599 67.48248832191858 11.279334014803599 L 67.48248814288002 11.279334014803599 L 67.48248814288002 11.279334014803599 ZM 66.67039819545661 2.25 C 66.45789284124301 2.25 66.26608873211926 2.280338063237631 66.13029137881615 2.317373030601139 L 64.96444082260132 10.098160711168036 C 65.58115958595968 10.520569989179059 67.2759956199876 11.67797341616124 67.20841070842927 12.683307927520042 L 67.22104832490253 15.75000086141948 L 68.08182494670949 15.73816856043225 L 68.07699770879613 3.119482909369111 C 67.82103235316107 2.427915471835376 67.18501663373345 2.25 66.67039819545661 2.25 Z"
     style="fill:#ffffff;stroke:none"
     id="path14" />
  <path
     d="M 79.16099893385824 2.8396894597119426 L 79.34114253294898 2.914749635901461 L 73.93737896085068 14.948580418469053 C 73.84579143535763 14.889114678737549 73.33184537028116 14.637358042835622 73.16432649329096 14.441617365869366 C 73.16432649329096 14.311512779916862 73.25642081278588 14.22296816738493 73.52399730102917 13.86599536615991 C 73.80538186641341 13.490601050664447 74.1048645291185 13.100483563558194 73.76418864709738 12.597379308538896 C 73.60673545111695 12.364855773627031 73.39073411698297 12.195575115933469 73.1101586312102 12.195575115933469 C 72.93576454739308 12.195575115933469 72.73642294682618 12.26097482246578 72.51068722811476 12.417235709448155 C 72.04031165810518 12.137011935131108 71.58505072673401 11.996900406130889 70.84445931039043 11.996900406130889 C 70.7143556198337 10.855988557500826 70.56923972391385 10.135618311371834 70.40911162263092 9.234899599601517 L 75.76828994764408 9.234899599601517 L 79.16099893385824 2.8396894597119426 ZM 79.14976923835653 2.25 C 79.11910014268094 2.25 79.08781501472038 2.251407374928331 79.05591457079147 2.2542221246975527 L 75.61816932664632 8.37911327985368 C 75.49807347453306 8.579273630306293 75.37297343457932 8.679353089215988 75.24286920678513 8.679353089215988 C 75.22877639379152 8.681191157638352 75.21375953237045 8.682110191849535 75.19781898068024 8.682110191849535 C 74.69303782847592 8.682110191849535 73.26189956038075 7.760455694506165 70.90440489271136 5.917147057977728 C 70.36397293142464 5.356699509343633 70.08374924664717 4.79625213978869 70.06373356976022 4.2358045911545945 C 70.04371744517537 3.675357042520499 70.21135120144199 3.3551012876525053 70.5666349280996 3.2750372370110368 C 70.67389062589174 3.250866923783583 70.77065729955736 3.2387816776302802 70.85693494909643 3.2387816776302802 C 71.05645142045584 3.2387816776302802 71.19987671963548 3.303408657619089 71.28721075709579 3.432662617596706 C 71.41231061797036 3.617810852225797 71.40480451528882 3.8029588182361582 71.26469244905114 3.988106605167368 C 71.19463650547188 4.08068031955382 71.1308354385349 4.126967266286622 71.07328951685892 4.126967266286622 C 71.01574359518295 4.126967266286622 70.96445263968883 4.08068031955382 70.91941665037658 3.988106605167368 C 70.82934467175205 3.8029588182361582 70.73426886344537 3.710384924770554 70.63418922545651 3.710384924770554 C 70.44403707160568 3.7804406892706632 70.39900108229342 3.9455726202357635 70.4990813470593 4.20578035950755 C 70.59201241389479 4.447401831688495 70.76260760210806 4.568212567778967 71.01086700123872 4.568212567778967 C 71.02996409161237 4.568212567778967 71.04952069909162 4.567497683801758 71.06953691321603 4.566067915847338 C 71.34976041891436 4.546051880802077 71.54491622336819 4.45097607249539 71.65500423703797 4.280840490927281 C 71.76509242978692 4.110704551200865 71.82013634708223 3.9105445589065564 71.82013634708223 3.6803607826630858 C 71.82013634708223 3.4501769168800385 71.74507639474164 3.250016924585731 71.59495666913965 3.079880895319739 C 71.44483622722103 2.909745448060993 71.22716247288085 2.8021596178510184 70.94193495842121 2.757123449459604 C 70.88845484982605 2.748679285406908 70.83497483077046 2.7444571809956657 70.78149472217528 2.7444571809956657 C 70.54974686861294 2.7444571809956657 70.31799905982038 2.823739192977697 70.08625120625804 2.9823031721719717 C 69.80102375895308 3.17745924524454 69.63589194550867 3.4977150001125343 69.5908557477371 3.94307052631553 C 69.5458195499655 4.388426231597678 69.66841736448775 4.878817657573359 69.95864920669344 5.414245162400878 C 70.2488810433029 5.949673204465855 70.77179875007607 6.48760298229276 71.52740228224316 7.028034137723289 C 72.28300581441025 7.568466009470428 73.00107937040706 8.083878016490143 73.68162277115441 8.574269442465823 C 73.69763567082228 8.638320324820693 73.66240757807961 8.670346124156435 73.5759388510847 8.670346124156435 C 73.55432149025683 8.670346124156435 73.5295014778637 8.668344735546892 73.50147881390536 8.664341242011194 L 69.65841004649306 8.664341242011194 C 69.97866533127828 10.495803792594636 70.17382113573211 11.79183901742971 70.2438773926999 12.552446200199809 C 70.33338236195748 12.545648355566822 70.42288737598484 12.542249433250328 70.51239239001221 12.542249433250328 C 71.21351879040198 12.542249433250328 71.91464519079176 12.750811461226682 72.61577159118153 13.16793766612922 C 72.76589149586269 12.967778031993216 72.9285215119867 12.86769785676691 73.10366128139529 12.86769785676691 C 73.27880105080386 12.86769785676691 73.36887320850754 12.962773844152748 73.3738770381897 13.152925818924425 C 73.06841886232041 13.640672962132703 72.620618547526 14.114183312708672 72.46565132834208 14.669136712940764 L 74.14699469056097 15.749999740118433 L 79.86656219933303 2.644533162790433 C 79.68516719512385 2.381511060326053 79.4462362081317 2.25 79.14976923835653 2.25 Z"
     style="fill:#ffffff;stroke:none"
     id="path16" />
  <path
     d="M 83.20452720420286 2.9892379897054955 C 83.48214530540587 2.9892379897054955 83.82200061513205 3.095985977015074 83.92109130185874 3.340333519869274 L 83.88460968676429 11.279334014803599 L 83.88460968676429 11.279334014803599 C 83.74379889543545 10.960512872387417 83.32550052202085 10.367342335933275 82.08305569914684 9.632436990092634 L 83.02631650895614 3.06154244747758 C 83.07056803989377 3.0145252182361735 83.0694078699628 2.9892379897054955 83.20452720420286 2.9892379897054955 ZM 83.88460968676429 11.279334014803599 L 83.88460968676429 11.279334014803599 C 83.88460968676429 11.279334014803599 83.88460986580286 11.279334014803599 83.88460986580286 11.279334014803599 L 83.88460968676429 11.279334014803599 L 83.88460968676429 11.279334014803599 ZM 83.07251973934089 2.25 C 82.86001438512729 2.25 82.66821027600353 2.280338063237631 82.53241292270043 2.317373030601139 L 81.3665623664856 10.098160711168036 C 81.98328112984396 10.520569989179059 83.67811716387187 11.67797341616124 83.61053225231355 12.683307927520042 L 83.6231698687868 15.75000086141948 L 84.48394649059377 15.73816856043225 L 84.4791192526804 3.119482909369111 C 84.22315389704535 2.427915471835376 83.58713817761773 2.25 83.07251973934089 2.25 Z"
     style="fill:#ffffff;stroke:none"
     id="path18" />
  <path
     d="M 91.97785545649731 2.25 C 91.87293582093145 2.25 91.7675170559609 2.2629899862704033 91.66159806379372 2.2889699588112102 C 91.44976007945935 2.3409304156239648 91.21993587188514 2.458840234719719 90.9721258070017 2.642699390368974 L 85.98394656181335 2.642699390368974 L 85.98394656181335 3.7458544157471656 L 90.9721258070017 3.7458544157471656 C 91.21993587188514 3.9297135256550897 91.44976007945935 4.047623150350187 91.66159806379372 4.099583106867133 C 91.7675170559609 4.12556326809093 91.87293582093145 4.1385534401854915 91.97785545649731 4.1385534401854915 C 92.08277509206317 4.1385534401854915 92.18719486636304 4.12556326809093 92.29111551125823 4.099583106867133 C 92.49895606918732 4.047623150350187 92.7067973589777 3.9297135256550897 92.91463791690677 3.7458544157471656 L 93.10649096479864 3.7458544157471656 C 93.30633813363976 3.9297135256550897 93.5121807102275 4.047623150350187 93.72401869456185 4.099583106867133 C 93.8299373207984 4.12556326809093 93.93585594703492 4.1385534401854915 94.04177457327145 4.1385534401854915 C 94.14769319950798 4.1385534401854915 94.25361182574451 4.12556326809093 94.35953045198104 4.099583106867133 C 94.57136843631541 4.047623150350187 94.79719594934565 3.9297135256550897 95.03701225921047 3.7458544157471656 L 100.07315476637179 3.7458544157471656 L 100.07315476637179 2.642699390368974 L 95.03701225921047 2.642699390368974 C 94.79719594934565 2.458840234719719 94.57136843631541 2.3409304156239648 94.35953045198104 2.2889699588112102 C 94.25361182574451 2.2629899862704033 94.14769319950798 2.25 94.04177457327145 2.25 C 93.93585594703492 2.25 93.8299373207984 2.2629899862704033 93.72401869456185 2.2889699588112102 C 93.5121807102275 2.3409304156239648 93.30633813363976 2.458840234719719 93.10649096479864 2.642699390368974 L 92.91463791690677 2.642699390368974 C 92.7067973589777 2.458840234719719 92.49895606918732 2.3409304156239648 92.29111551125823 2.2889699588112102 C 92.18719486636304 2.2629899862704033 92.08277509206317 2.25 91.97785545649731 2.25 Z"
     style="fill:#ffffff;stroke:none"
     id="path20" />
  <path
     d="M 90.12499905269107 10.171448337385236 L 90.12499905269107 10.59346608892681 L 87.89621605990698 10.59346608892681 L 87.89621605990698 10.171448337385236 ZM 89.00401347235797 11.002296849309236 Q 90.40194858683812 11.002296849309236 90.9360653127919 11.714451850294218 Q 91.47018203874568 12.42660766593356 91.47018203874568 12.993694359006867 Q 91.45699405189787 13.877294546770656 90.73165006837641 14.536697871915848 Q 90.00630717106077 15.19610119706104 89.00401347235797 15.19610119706104 Q 87.98853269197886 15.19610119706104 87.26318907052601 14.536697871915848 Q 86.53784558484888 13.877294546770656 86.53784558484888 13.006881983786073 Q 86.53784558484888 12.42660766593356 86.97305182108259 11.714451850294218 Q 87.40825810257489 11.002296849309236 89.00401347235797 11.002296849309236 ZM 87.26318907052601 9.736242055892944 L 87.26318907052601 10.725347315162185 Q 86.78841882849028 11.002296849309236 86.3927765528 11.622136123393844 Q 85.99713430822499 12.241974582824092 85.98394656181335 12.993694359006867 Q 85.98394656181335 13.877294546770656 86.71588395039723 14.780677438943371 Q 87.44782206311832 15.684059969047482 89.00401347235797 15.75000026535514 Q 90.54701752836985 15.684059969047482 91.28554986080772 14.780677438943371 Q 92.02408110703978 13.877294546770656 92.02408110703978 13.006881983786073 Q 92.01089312019197 12.241974582824092 91.61525170441462 11.61554140583273 Q 91.21960956450006 10.989108319358518 90.73165006837641 10.712158785211468 L 90.73165006837641 9.736242055892944 Z"
     style="fill:#ffffff;stroke:none"
     id="path22" />
  <path
     d="M 96.79861786402762 12.878848205320537 C 97.60413397449112 12.878848205320537 98.6123983655153 13.2926455512671 99.10028508584946 13.78053227160126 C 99.52713536705438 14.207382190737576 99.58293810450657 14.773305557384845 99.59858417510986 15.299158067442477 L 94.0223800810054 15.299158067442477 C 94.038026332643 14.773305557384845 94.09382907009518 14.207382190737576 94.5206791702658 13.78053227160126 C 95.00856607163425 13.2926455512671 95.99310211563272 12.878848205320537 96.79861786402762 12.878848205320537 ZM 96.79861786402762 12.428006172180176 C 95.8430172566895 12.428006172180176 94.81480922176172 12.869460490544839 94.21220830548555 13.472061406821012 C 93.59413280476318 14.090137135250586 93.524080991745 14.903828392733544 93.524080991745 15.512714819982648 L 93.524080991745 15.750000100582838 L 100.07315473631024 15.750000100582838 L 100.07315473631024 15.512714819982648 C 100.07315473631024 14.903828392733544 100.02683167905928 14.090137135250586 99.40875595062971 13.472061406821012 C 98.80615539642214 12.869460490544839 97.75421865240004 12.428006172180176 96.79861786402762 12.428006172180176 Z"
     style="fill:#ffffff;stroke:none"
     id="path24" />
  <path
     d="M 107.42425620561058 2.634964374701269 C 108.17862918937158 2.634964374701269 108.85068188999587 2.983299489400852 109.28832588873438 3.5282020253753075 L 105.56038702476526 3.5282020253753075 C 105.99798373707773 2.983299489400852 106.66991220069451 2.634964374701269 107.42425620561058 2.634964374701269 ZM 109.5405577550751 3.9131664000765767 C 109.68441696507381 4.187013351892983 109.77678625010181 4.492323497191851 109.80461925584676 4.816228662396638 L 105.04409365765288 4.816228662396638 C 105.07192299209147 4.492323497191851 105.16431278748436 4.187013351892983 105.30815515842454 3.9131664000765767 ZM 109.80702528318864 5.201193037097907 C 109.78342984610686 5.524408975720384 109.69578019674364 5.8296666458135515 109.55659793735433 6.104255299417967 L 105.29211497614531 6.104255299417967 C 105.15294936001153 5.8296666458135515 105.06528003244618 5.524408975720384 105.041687630311 5.201193037097907 ZM 109.3123861621532 6.489219674119236 C 108.87553516559036 7.051605852135636 108.19267178938013 7.413134173402281 107.42425620561058 7.413134173402281 C 106.65589094321365 7.413134173402281 105.97313173420278 7.051580789350825 105.53632675134644 6.489219674119236 ZM 107.42425620561058 2.25 C 105.89507329930203 2.25 104.65030717963862 3.4949711223516258 104.65030718269804 5.024149525191021 C 104.65030718269804 6.5533271448183905 105.89507339720353 7.798098548103551 107.42425620561058 7.798098548103551 C 108.95348316759554 7.798098548103551 110.1984057308016 6.5533279280304155 110.1984057308016 5.024149525191021 C 110.1984057308016 3.4949703391396003 108.95348355920156 2.25 107.42425620561058 2.25 Z"
     style="fill:#ffffff;stroke:none"
     id="path26" />
  <path
     d="M 102.29645404001516 9.846009443515817 C 102.36520399999459 9.877373169071058 102.38086173005168 9.961476434383474 102.4087353159697 10.024656973650623 C 102.47970705266205 10.24876056331284 102.50577391528984 10.485204441646513 102.56280467373391 10.713498215644366 C 102.69383849311296 11.339895529280803 102.82487231249202 11.966292842917237 102.95590603396957 12.592690156553674 C 102.84616442090875 12.718405085167056 102.73642290574942 12.84412001378044 102.62668129268859 12.969834942393824 C 102.4847256795175 12.87566622773759 102.3427700663464 12.78149672986933 102.20081445317531 12.68732723200107 C 102.21320800026449 11.801775240931814 102.2112744455769 10.915883335843557 102.23247692516748 10.030546728081275 C 102.24033401030431 9.96651522894858 102.24442834906834 9.892150030353385 102.29645404001516 9.846009443515817 ZM 112.71455243036826 9.48029328754961 L 112.71314891441882 9.482699314891494 C 112.43646516864659 9.964513730617792 112.32697369392636 10.372158750755231 112.56698275339944 10.884009739259811 C 111.5579652186536 12.165182487847282 110.6125351018221 13.494850941832553 109.71824638061005 14.858365903493436 L 109.38461058920228 14.458363857905397 C 110.13464575316087 13.236280540570649 110.87962058422364 11.996270283187606 111.85600089066101 10.937744349895198 C 111.7706589755305 10.217134461729106 111.9818090215054 9.67505736313611 112.71455243036826 9.48029328754961 ZM 112.87036776353999 9.0655746880052 C 112.47921444741438 9.0655746880052 112.1508206940923 9.1848829422512 111.81104608682982 9.496325246102565 L 111.81104608682982 9.496324462890538 C 111.46122286928207 9.89995904585216 111.42586632882158 10.324369110998285 111.3717886713191 10.819849010142933 C 110.56712995107634 11.83533587621817 109.88758386939949 12.94252433906978 109.13919580033021 13.998411631048779 C 108.92479464123807 13.985963259117824 108.7107294801048 13.980402453737822 108.49693531033229 13.980402453737822 C 107.09975397976163 13.980402453737822 105.71415713825796 14.21789035370129 104.32212816799608 14.322423313089013 C 104.04712832807836 14.085222068726825 103.7756276836869 13.833275291563325 103.44846807671377 13.671445673248913 C 103.28041153119179 13.598693108213919 103.09764097715252 13.569162882010026 102.9162061912225 13.551492052294023 C 102.9046957156919 13.447505774899994 102.88864642857288 13.344091242284474 102.87750925147388 13.240112013798672 C 103.04530557480044 13.026151803076797 103.21262159335244 12.811832098035284 103.38097086436889 12.598304220351402 C 103.14356099190346 11.62762021497443 102.91822903208097 10.653741487746045 102.67399865559425 9.684873359449853 C 102.61303088610173 9.532608717995057 102.45253028069284 9.420864725489912 102.2893021883564 9.420864725489912 C 102.25009278318944 9.420864725489912 102.21072600135615 9.427312518488627 102.17254363190818 9.441195343244013 C 101.97773327338606 9.514188354370791 101.86486037864788 9.728537038257244 101.88120368845628 9.931620391977036 C 101.84966699542032 10.892094836997526 101.81808543902052 11.852567323987952 101.78657674581447 12.813042160614453 C 101.9962380036307 12.9723921296566 102.20602041455707 13.131582323445574 102.41575289571685 13.290839090256705 C 102.42277047546402 13.376386206937859 102.42978805521118 13.461934890043064 102.43680563495833 13.547482006724218 C 102.16356772839313 13.557005864952504 101.88730050456614 13.561586088876766 101.61875633871813 13.613647758625998 C 101.55300729232691 13.654943395874735 101.56563990876798 13.753074380167227 101.61053574530004 13.805528439141163 C 101.71927099209672 13.935197805270551 101.88804937763925 13.954359087470799 102.04885095674426 13.954359087470799 C 102.07111351381116 13.954359087470799 102.09322319768084 13.95399176103091 102.11499947798148 13.953499903878988 L 102.11499947798148 13.953499903878988 C 101.98012850708723 14.425215192144378 102.20507625246051 14.868168585202747 102.5629215681287 15.167339914646902 C 102.57843053685171 15.361559266269769 102.59391199525236 15.555781750740737 102.60943809673843 15.750000319151578 C 102.79676802168179 15.741117911572054 102.98410147107926 15.732304426650764 103.17144598334659 15.723734520669355 C 103.15024032195716 15.560128577481443 103.1292096105539 15.396537515322013 103.10888927245763 15.233105445203728 L 103.10888927245763 15.233105445203728 C 103.17114278239127 15.23606442023551 103.2333805301829 15.237290930267212 103.29560643189265 15.237290930267212 C 103.58382434535925 15.237290930267212 103.87178830232662 15.210976572639417 104.15988775497438 15.20859169202222 C 105.1796623152824 15.269657950426929 106.20174147697503 15.348583009433728 107.22377756200628 15.348583009433728 C 107.59424938139041 15.348583009433728 107.96471571829038 15.338212499006037 108.33506418178054 15.312862275381452 C 108.74304794111895 15.289701129367726 109.15162224232446 15.263679693037414 109.56036493411544 15.263679693037414 C 109.66952432693692 15.263679693037414 109.77869546793877 15.265535122325474 109.8878713082128 15.269797362167441 C 111.01855299897687 13.844822969665124 112.08763036467484 12.371808701163758 113.13881603486564 10.887218558927682 C 112.71945298801089 10.432534999365608 112.94622106498336 9.958891051487786 113.27555780558396 9.536635211017394 L 113.26052013469719 9.0987382347947 C 113.12271711168452 9.077385525347514 112.99343621871971 9.0655746880052 112.87036776353999 9.0655746880052 Z"
     style="fill:#ffffff;stroke:none"
     id="path28" />
  <path
     d="M 40.9532527923584 0.375 C 31.328252851963043 0.375 31.328252851963043 17.625 40.9532527923584 17.625 "
     style="fill:none;stroke:#ffffff;stroke-width:1"
     id="path30" />
  <path
     d="M 40.9532527923584 0.375 L 113.27555847167969 0.375 "
     style="fill:none;stroke:#ffffff;stroke-width:1"
     id="path32" />
  <path
     d="M 40.9532527923584 17.625 L 113.27555847167969 17.625 "
     style="fill:none;stroke:#ffffff;stroke-width:1"
     id="path34" />
  <path
     d="M 120.96305847167969 0.375 L 120.96305847167969 17.625 "
     style="fill:none;stroke:#ffffff;stroke-width:1"
     id="path36" />
  <path
     d="M 113.27555847167969 0.375 C 122.90056037902832 0.375 122.90056037902832 17.625 113.27555847167969 17.625 "
     style="fill:none;stroke:#ffffff;stroke-width:1"
     id="path38" />
</svg>
