<?xml version="1.0" encoding="UTF-8" standalone="no"?>
<svg
   width="57.68571472167969"
   height="18.0"
   version="1.1"
   id="svg56"
   sodipodi:docname="woserpehti.svg"
   inkscape:version="1.1.1 (3bf5ae0d25, 2021-09-20)"
   xmlns:inkscape="http://www.inkscape.org/namespaces/inkscape"
   xmlns:sodipodi="http://sodipodi.sourceforge.net/DTD/sodipodi-0.dtd"
   xmlns="http://www.w3.org/2000/svg"
   xmlns:svg="http://www.w3.org/2000/svg">
  <defs
     id="defs60" />
  <sodipodi:namedview
     id="namedview58"
     pagecolor="#ffffff"
     bordercolor="#666666"
     borderopacity="1.0"
     inkscape:pageshadow="2"
     inkscape:pageopacity="0.0"
     inkscape:pagecheckerboard="0"
     showgrid="false"
     inkscape:zoom="23.836057"
     inkscape:cx="28.842857"
     inkscape:cy="8.9989715"
     inkscape:window-width="1920"
     inkscape:window-height="1001"
     inkscape:window-x="-9"
     inkscape:window-y="-9"
     inkscape:window-maximized="1"
     inkscape:current-layer="svg56" />
  <path
     d="M 3.009169848917976 0.4739171748132039 C 3.7026715218272255 0.4739171748132039 4.256829318471649 0.6745946316238001 4.644164689284773 0.9526347441559112 C 4.650308145491952 1.0062515645085024 4.663546055856558 1.060016372992199 4.652575800812965 1.1124437372646898 C 4.603449882852364 1.360569519526529 4.457806885291136 1.5903185537666114 4.257258755698066 1.7432685981716125 C 3.9413649209170813 1.94997010496389 3.5600411988456018 2.009570228366613 3.2002765010963685 2.0993341831784433 C 3.10998720613517 2.1086036967312767 3.181170796374544 2.130187995961788 3.231117085890341 2.138585643286511 C 3.4609996992016763 2.1784200797833564 3.9384250002790258 2.2376030490926513 4.202499603977515 2.2376030490926513 C 4.220906351189456 2.2376030490926513 4.23827706337661 2.2373153403237978 4.254454894379272 2.2367137030214415 C 4.532424083629077 2.2049171597812043 4.794657162235626 2.0893111466595644 5.019856122452685 1.9255069464391237 C 5.098959498900698 1.8590524805074944 5.166930105007111 1.7763742399315428 5.224523825878929 1.6899990125400517 C 5.3720929131784425 2.0357255065676374 5.451951702305268 2.4028945713681713 5.485264503827336 2.6067978859799568 C 5.503366062427325 2.716651377223197 5.580895308140001 2.8061828973646232 5.687128818362978 2.8395020766672823 C 6.825504545072815 3.188508875845171 7.72511459117944 4.749370284342509 8.566494083211595 5.78895938641794 C 10.295861887830181 7.925728476871466 11.765759846336513 10.315234366846607 13.458892408638075 12.548598959980612 C 12.522122105814729 12.092922126930452 11.58844053850988 11.632519122248745 10.649618007621019 11.174801399409672 C 8.72850955219054 10.164475916823728 6.728271736761494 9.358727903879377 5.045088984609069 8.085161653353607 C 5.042277564439204 8.082822188947427 5.039490238107126 8.07909189594436 5.036677873080877 8.076750541825415 C 4.066833817400553 7.2693821001829235 3.0743602151151883 6.41700117284651 2.698420284718348 5.284299308721125 C 2.5498687829938245 4.364048874911361 4.455242072637431 2.7072382455000326 4.240437005069874 2.637638234559833 C 4.2215063349931405 2.631504463130588 4.200107227613845 2.6285180083156328 4.1764933768710275 2.6285180083156328 C 3.7176359210190495 2.6285180083156328 2.422621666796125 3.756154733581801 2.15731260823226 4.830105427765268 C 2.154053326136495 4.815773846136464 2.1461630666898484 4.79928090552982 2.143294246494671 4.785246481233707 C 2.0704243238243896 4.4287242943794265 1.9886595231574336 3.528875672035904 2.2105824300779164 2.8058581029827074 C 2.22090238771539 2.7720589366371007 2.223991359447983 2.7373940456298778 2.2217969304967107 2.702122556824284 C 2.206042867582163 2.411103719844335 2.16184012380912 2.2384220033632714 2.098435772391302 2.068493834598567 C 2.035031184759387 1.8985666106902463 1.9592064599630061 1.724220765903293 1.8376947401217505 1.3030929608462967 C 1.806828171777225 1.1953371688820418 1.6962380468757994 0.9753151948986268 1.630223411590808 0.9582419943653084 C 1.8161052441811285 0.8204882523408192 2.0045522437462973 0.6772958579179091 2.2750667523423678 0.5825507383579678 L 2.2750667523423678 0.5825507383579678 C 2.1960743965194465 0.658865194028754 2.1432944827087668 0.7691834365057539 2.143294246494671 0.8965614153126038 C 2.143294246494671 1.1261525404295507 2.3068791219270324 1.3115031275181046 2.5077709430296933 1.3115039542674405 C 2.7086627641323537 1.3115039542674405 2.8722476395647156 1.1261525404295507 2.8722476395647156 0.8965614153126038 L 2.8722476395647156 0.8937576721008572 C 2.871221053103765 0.7095976631093593 2.7627272101967493 0.5576299150223198 2.6171139756116095 0.5040481134094518 C 2.669879244148341 0.49667510377938745 2.7125253370291467 0.4854209784459994 2.771315482296895 0.4816187582507192 C 2.852317311433968 0.47642689052903053 2.9316148558688426 0.4739171748132039 3.009169848917976 0.4739171748132039 ZM 3.6797034804227042 8.23655977114829 C 3.744950774217038 8.301805883872143 3.8149797499554623 8.36067988514395 3.8815675587442495 8.424405723946341 C 4.0956495749641375 9.204198532028927 4.293931466520769 10.064938131364233 4.57407335302502 10.7290191024102 C 5.057193067313169 11.874268186883667 5.789626838872777 12.870430272277117 6.413278350114227 13.883144351801198 C 6.260634439177563 13.965039778863208 6.128536902733854 14.058336787907995 6.029175805418124 14.152295196421411 C 5.947669659186221 14.229370911069886 5.8940429178416 14.280530159968329 5.830115352201277 14.345748871857053 C 5.520950312157207 13.938784109671408 5.124019924767046 13.62317373180555 4.644164689284773 13.448575610364134 C 4.689085996337662 12.725628196897432 4.536026821020337 11.737052363409154 4.30492109112023 10.66173115504105 C 4.1263418173058595 9.830810278320685 3.903548933870034 9.003086795602949 3.6797034804227042 8.23655977114829 ZM 4.686219774497539 9.144947533060002 C 5.834593499032087 10.09035760265641 7.113542596376112 10.88336044784028 8.36182590735716 11.685069199744076 C 8.343845290374292 12.594861963098435 8.344411259348162 13.463187814338914 8.445936077782692 14.359767706022835 C 8.033305011863666 14.014385848361224 7.586775333464642 13.763462228240035 7.018870348864767 13.625206117887009 C 7.015369655962953 13.624345353721408 7.011953527707485 13.623977804588126 7.008598342688769 13.623977804588126 C 6.989090837789752 13.623977804588126 6.971640285238172 13.63639699689621 6.951581929067426 13.636421563162186 C 6.30326824892538 12.572860982202688 5.56863248956343 11.57684345983595 5.115180793297013 10.501922870574559 C 4.9594783822461315 10.132827952249835 4.822072170210292 9.651825188689491 4.686219774497539 9.144947533060002 ZM 5.092751320031232 14.399018929916807 C 5.256419815253556 14.551910865654206 5.4054203599744595 14.728454446389774 5.5329268392495 14.94012684261699 C 5.575655607063885 15.01022479287143 5.648728910070769 15.058380343325913 5.729183431147552 15.07470273735529 C 5.7494917018318015 15.078823256044847 5.769947370111917 15.080878318679517 5.790254695939782 15.080878318679517 C 5.850400001475933 15.080878318679517 5.909242822487076 15.062849514021076 5.9590844691583715 15.027040401933126 C 6.175000687833224 14.870724306660996 6.306688629034575 14.703258906060551 6.435707350951817 14.58125716007727 C 6.483312522562763 14.536239477673238 6.5327214250102985 14.500179978643592 6.584302079855896 14.463502543538969 L 6.732896336331785 17.185862440383506 C 6.519603983834621 17.172073206318977 6.298091380798784 17.15081393768448 6.095781566478202 17.15081393768448 C 5.831792472282443 17.15081393768448 5.600500133246544 17.18701327545892 5.462835502989748 17.323242668868794 C 5.2941143882552915 17.189184555428792 4.96598135630733 17.158607113137695 4.572329148140608 17.158607113137695 C 4.471105738892494 17.158607113137695 4.365550163124863 17.160629105798932 4.257258755698066 17.16343343954592 L 5.092751320031232 14.399018929916807 ZM 6.25066573190075 9.573908551859477 L 6.25066573190075 9.573908551859477 C 7.604791854990093 10.361226196182292 9.034522078910209 10.988295252963786 10.386072995925625 11.699088033909858 C 10.388108216576233 11.700135879639442 10.389620931646625 11.700891764746446 10.39167977370683 11.70189142280046 C 11.686891739128056 12.333365400043023 12.978365852695143 12.98273873661945 14.285973389014858 13.605581450796405 C 15.269975172749374 14.794761632832586 16.33790476962736 15.90056296328426 17.36439863465213 17.026055100773398 C 16.647556883137256 17.146248391638174 15.930830404101199 17.267532046769798 15.213987707729942 17.38772722734734 C 13.79219427743337 15.841645498618801 12.36859900601298 14.299348864563587 10.946807465429178 12.75326524612228 C 10.935631704122118 12.739913480563432 10.92370950627189 12.727994117282355 10.910359630425809 12.716818355975295 C 9.41106341039531 11.580038019269429 7.757799063206311 10.634765898705052 6.25066573190075 9.573908551859477 ZM 3.0756960058277225 0.0 C 2.9405269774945206 0.0 2.803378947465543 0.004522381611119117 2.664776311033773 0.013406474957975922 C 1.5799215017535755 0.08356273687650426 0.791815610992612 0.5394290283949892 0.5227751964622482 1.157302329475107 C 0.4821416476788419 1.2499492773278713 0.3773182175015722 1.4706424536648965 0.5155519465690093 1.4706424536648965 C 0.5301007861125528 1.4706424536648965 0.5473420529751317 1.468197873986025 0.5676338477261894 1.4629019539550754 C 0.6829407547488466 1.4484514385289664 0.7780652341468658 1.4423110531050352 0.8569417269557291 1.4423110531050352 C 1.2747371416542677 1.4423110531050352 1.236670413344381 1.614590378873667 1.3274274122155385 1.6367293088014427 C 1.417468209947809 1.9189504698851962 1.6165598434253194 2.483475939414473 1.630223411590808 2.7049261819289825 C 1.386425543994761 3.5656903475302664 1.4768830233922678 4.468266061611404 1.565739089326357 4.903000625343815 C 1.7153772939992473 5.635118342443057 2.1961816377190027 6.48697345720191 2.8273889292472503 7.283313535133207 C 2.8134251329658233 7.338127016095824 2.8086283333195925 7.393803623365002 2.8273889292472503 7.448729542237286 C 3.1285063912567783 8.370618829444675 3.4792571591049843 9.617610994177321 3.7301694409495667 10.785092549360554 C 3.981081959008245 11.952574104543789 4.12285718696257 13.061967778966503 4.046983802062425 13.608383894830625 C 4.025192579283871 13.758532912485983 4.121174397743101 13.900045942793815 4.26847325611686 13.936413465004566 C 4.312604663232929 13.947361515923141 4.352082652659003 13.967347118152338 4.39463851175516 13.981272411536127 L 3.4666249016823647 17.0596976571734 C 3.272728324816838 17.01836208009686 3.0724617624261277 17.00476559673462 2.874112549852153 17.00476559673462 C 2.4927394590346226 17.00476559673462 2.118454680808026 17.055030066637645 1.8101650502035056 17.055030066637645 C 1.6846506825065655 17.055030066637645 1.570075389592555 17.04669832304569 1.4704144184820296 17.023250767026415 C 1.4375472348519498 17.015217598051724 1.3949769666959404 17.011228414399508 1.3451441780532423 17.011228414399508 C 0.9090801423353627 17.011228414399508 -0.08308278674200893 17.316628674182503 0.004096926806725951 17.889582026440785 C 0.15548046576267507 17.76211712084663 0.26223299740795364 17.73138850153413 0.38031217211407353 17.73138850153413 C 0.49024007079753446 17.73138850153413 0.6099847320405954 17.758020223566664 0.7846967677297779 17.758020223566664 C 0.7935070810801064 17.758020223566664 0.8024571741217066 17.757952193907034 0.8115528340999292 17.75781046544947 C 1.066223518424995 17.75382506122279 1.509269747551208 17.674784045296107 1.865480722334089 17.674784045296107 C 2.0452727193170093 17.674784045296107 2.202943030001157 17.694920824546703 2.3031032396034496 17.755008021415254 C 2.5392046614185677 17.745578354705373 2.7523340261895344 17.741732789223487 2.951610851518261 17.741732789223487 C 3.8011631150558056 17.741732789223487 4.398956033000731 17.81162570564265 5.451620530142762 17.816688246146814 C 6.240002555181878 17.80960749240695 7.649068297561068 17.777941575561766 8.426310465835707 17.73818579835887 C 8.876011082258614 17.740893756754712 9.122960636429726 17.792010487115885 9.3482285711628 17.792010487115885 C 9.361538763040762 17.792010487115885 9.374772421551643 17.79183285411574 9.387968285807172 17.791454911562237 C 9.52192246504496 17.78755265469733 9.652878614977093 17.73516414764362 9.867871236536825 17.73516414764362 C 9.990853743446445 17.73516414764362 10.141335350548884 17.752305732157712 10.335607271612858 17.805472800871634 C 10.085930861918229 17.463682342324677 9.45939942841909 17.120327201606223 9.005599080147068 17.120327201606223 C 8.891079651866747 17.120327201606223 8.787560241606108 17.142193068039095 8.703873366840497 17.191469218164713 C 8.542968104112466 17.175166666119395 8.37234782804666 17.169161158944245 8.19567291227375 17.169161158944245 C 7.976734570455455 17.169161158944245 7.748496479680046 17.178384846962466 7.517922703923993 17.188666774130493 L 7.360917335919913 14.359767706022835 L 7.360917335919913 14.359767706022835 C 7.847890174541017 14.562401606083045 8.21758885609496 14.875619607585232 8.642193142108937 15.380301416978874 C 8.699664031650867 15.44654907746951 8.781797562521582 15.482110637184917 8.86545325702653 15.482110637184917 C 8.908499969014047 15.482110637184917 8.951950134677428 15.472694198464408 8.992650768264083 15.453197086985613 C 9.112446274591294 15.395810289661837 9.178901803486355 15.264291005324987 9.155264331333942 15.133579573196247 C 8.962827321367223 14.095116267502062 8.941800487403126 13.115423973733854 8.95339954437011 12.074779939505962 L 8.95339954437011 12.074779939505962 C 9.492870020957247 12.42841606253606 10.024760859633895 12.787106222362869 10.5290609470485 13.16820932046874 C 11.981769133365166 14.7479090393313 13.43605428498632 16.326704530634608 14.888761526446602 17.906404249497168 C 14.944628049848916 17.96747598671759 15.022539017540629 17.999999833159222 15.103714464038218 17.999999833159222 C 15.11983182423232 17.999999833159222 15.136078629750996 17.99871671819008 15.152306538141996 17.99612214256029 C 16.10156595264582 17.836959195003903 17.051571803692816 17.68146795935479 18.00083121819664 17.52230312208564 C 18.107373224028915 17.50503114739059 18.194878263441282 17.430652052861355 18.23073178377927 17.328851336362764 C 18.266587193830023 17.227046840438643 18.244059927928525 17.11188585467375 18.171855892794696 17.031661878554605 C 17.42994521170602 16.20143358156353 16.66326228594804 15.400856767607475 15.920510682677822 14.586862993002091 L 15.920510682677822 14.586862993002091 C 17.1897721675192 15.367626168590794 18.796164079222855 16.341928056689678 19.00015479305014 16.341928056689678 C 19.023265980196797 16.341928056689678 19.02837576352015 16.32942193759429 19.01295381762449 16.302708957912753 C 18.91865715052569 16.139381083416772 18.112724890586506 15.546881487147742 17.238233851442022 14.928911397341812 L 17.238233851442022 14.928911397341812 C 17.377197659226482 14.987001167815102 17.513576339944986 15.048752256775444 17.6531769809321 15.10554284972107 C 17.658199837468143 15.108767644558828 17.664787376175685 15.113841523339595 17.669999203988482 15.116757350139865 C 17.773049020626395 15.151233269870335 17.830042757694528 15.174751690118395 17.93915099346508 15.178437574871426 C 17.94233326976557 15.178545288499173 17.945553340321407 15.178605759307734 17.948841440536878 15.178605759307734 C 17.973745965099905 15.178605759307734 18.00257920250659 15.175098452411234 18.048493553618805 15.161615351815042 C 18.100470103289197 15.146353086648238 18.187842862807837 15.102794262500725 18.236338561560473 15.01021723402036 C 18.28483615002588 14.91764209525276 18.275225070890315 14.822594267328872 18.25876945211083 14.771906501765924 C 18.242311943618578 14.721218736202974 18.220873152271164 14.694878974793022 18.205498449194693 14.67377749717461 C 18.143995857463278 14.58936875213181 18.102465639971687 14.565463885622796 18.0428867758376 14.519575990489324 C 17.983304132277976 14.473685260786702 17.91481149301954 14.423448191718805 17.838219544839546 14.370981261585245 C 17.6850337587668 14.266046456461739 17.50165414209476 14.147847757423074 17.344773967561526 14.042952636267687 C 17.18789568274106 13.938058459968683 17.045392442943054 13.83638718879467 17.016744397387587 13.810248681794459 C 17.00804982894427 13.80148608369151 16.99842930124487 13.792621441099115 16.988708618768793 13.785015347209884 C 15.691415134734154 12.872117785778505 14.394182121508075 11.96102017575818 13.097218392351367 11.048637561055948 C 13.088896097323248 11.042752050641536 13.077870568181206 11.047937422475586 13.06918166887619 11.04302983841836 C 11.735590582003198 9.174366581424614 10.481460027291279 7.217504760432826 9.023491825486246 5.41607134214063 C 8.27915569806047 4.496387349732927 7.424659237280828 2.887723530854533 6.037586916946315 2.3516642220268507 C 5.970716123670593 1.9556564868954267 5.819659099030447 1.224570552967246 5.283400661719887 0.7031084485192504 C 4.8273005330098036 0.25959351157317057 4.167590467595091 0.05615587828814758 3.427373441574297 0.0106028092539796 C 3.3119162433330986 0.0034978361875914604 3.1945714582512528 0.0 3.0756960058277225 0.0 Z"
     style="fill:#ffffff;stroke:none"
     id="path2" />
  <path
     d="M 28.07470107621414 2.25 C 27.98504999239973 2.25 27.978839322689314 2.5326321821796447 27.850280111823686 2.9511178163474594 C 27.704037954485578 3.4271629763966462 27.59668992690125 4.422568621794706 27.258918388966414 4.615833437809297 C 27.207522607429475 4.645240841861541 27.156904479023716 4.6549974171004855 27.10599286629964 4.6549974171004855 C 27.00558979288126 4.6549974171004855 26.904045366062316 4.617052579469367 26.793143631177124 4.617052579469367 C 26.752319710088656 4.617052579469367 26.710227771531045 4.622194176905314 26.66645822245645 4.636263067073242 C 26.508071000223897 4.687173303013964 26.424630127192117 4.934020003067939 26.257864948785876 4.963137594224142 C 25.566584436055035 5.083837437312795 24.620804086166494 5.0382046414322925 24.092320639922182 5.085715828735594 C 23.752902146412225 5.116229707676762 24.659314609658235 5.783655727818353 25.565703065244506 5.783655727818353 C 25.57850852722114 5.783655727818353 25.591313989197776 5.783522409296895 25.604115894484078 5.783252330295596 C 25.79238046282041 5.7791896720814915 25.990934651017625 5.770541407442611 26.188250652051703 5.770541407442611 C 26.519058878709206 5.770541407442611 26.846386826511395 5.794849894342885 27.11591075465491 5.905830564807049 C 27.380233424750465 6.014668960372207 27.691689584582512 6.330742392646173 27.68794129190093 6.641298365628519 L 27.578006976785893 15.749999743770545 L 28.596789256217384 15.749999743770545 L 28.5449657539851 5.4611038414715924 C 28.543573826014086 5.1847322518524885 29.340533590172125 4.997374983746517 29.444892391630773 4.758841072120802 C 29.626548858795132 4.343625929444718 29.533670594798675 2.512227277650101 29.240595640063543 2.26642228540509 C 29.237222520845958 2.263593268997097 29.233767712482695 2.2622118300357275 29.230230297118187 2.2622118300357275 C 29.098339041071707 2.2622118300357275 28.85188518320144 4.182658844670444 28.46426835125029 4.595403808545353 C 28.424681240541602 4.6375572434261105 28.34666259928612 4.656736753404518 28.279074009793636 4.656736753404518 C 28.206689166023192 4.656736753404518 28.1462662749611 4.634738738436343 28.157823453363335 4.595403808545353 C 28.404199293510203 3.756873447793133 28.50340066452433 2.5335324263953174 28.116964194835447 2.26642228540509 C 28.100940731232456 2.255346789135237 28.087031547933606 2.25 28.07470107621414 2.25 Z"
     style="fill:#ffffff;stroke:none"
     id="path4" />
  <path
     d="M 32.346231595889144 2.25 C 31.648861192733204 2.25 31.03735637664795 2.7629982188611715 31.03735637664795 3.42148077115561 L 31.03735637664795 15.749999288300122 L 31.889342392033846 15.749999288300122 L 31.889342392033846 3.42148077115561 C 31.889342392033846 3.098508113273651 32.173235709290935 2.994011903683932 32.35161502400834 2.994011903683932 C 32.53878618177358 2.994011903683932 32.82699513314261 3.1252137636833535 32.82699513314261 3.5209571603146776 L 32.82699513314261 11.62395272807413 L 33.678981148528514 11.62395272807413 L 33.678981148528514 3.5209571603146776 C 33.678981148528514 2.861641676122041 33.02603042749128 2.25 32.346231595889144 2.25 Z"
     style="fill:#ffffff;stroke:none"
     id="path6" />
  <path
     d="M 37.43914812385852 2.470628016618272 Q 37.54133862195427 2.470628016618272 37.65092994152306 2.552038686304334 Q 37.600855258424744 2.5484619323176223 37.55435726567096 2.5484619323176223 Q 37.2908679612163 2.5484619323176223 37.14223292979541 2.6633162689935665 Q 37.28193209043525 2.470628016618272 37.43914812385852 2.470628016618272 ZM 38.6444785141191 2.7984389206889952 Q 38.692168736987725 3.0050968642592473 38.692168736987725 3.11637444694848 Q 38.692168736987725 3.227651690212769 38.5490977289569 3.307135508135463 L 38.342439870242885 3.2594453701230712 Q 38.342439870242885 3.227651690212769 38.6444785141191 3.1561163559098273 L 38.636530200211816 3.060735655603864 L 38.461665597126924 3.0925289960892224 L 38.461665597126924 3.0845807670381777 Q 38.61268491906503 3.0050968642592473 38.61268491906503 2.953432569293215 Q 38.61268491906503 2.9017678924741213 38.525252787235054 2.9017678924741213 L 38.58883963791825 2.822284032123309 L 38.6444785141191 2.7984389206889952 ZM 36.81380637251895 3.2983924307224433 Q 36.83383600816081 3.2983924307224433 36.8560912531587 3.2991872790844186 Q 36.776606926098594 3.418413090824696 36.701097604554484 3.418413090824696 Q 36.62558777387296 3.418413090824696 36.633536087780236 3.3627742994800798 Q 36.633536087780236 3.2983924307224433 36.81380637251895 3.2983924307224433 ZM 38.26295571289525 3.3627742994800798 L 38.429872002072855 3.3866194109143937 L 38.429872002072855 3.3945680642466183 Q 38.2391107711734 3.434309973207965 38.2391107711734 3.482000196076593 Q 38.167575267157986 3.474051882169312 38.15167829991849 3.418413090824696 Q 38.26295571289525 3.3945680642466183 38.26295571289525 3.3627742994800798 ZM 36.68349825150971 3.154980809760585 Q 36.65624616220273 3.154980809760585 36.633536087780236 3.1561163559098273 Q 36.44277494173702 3.203806578778455 36.44277494173702 3.505845222654671 L 36.44277494173702 3.6250710343949484 L 36.60174266243864 3.6250710343949484 L 36.60174266243864 3.52174210503794 Q 36.669871697718804 3.54510065081542 36.728943348088045 3.54510065081542 Q 36.911080979154676 3.54510065081542 37.00711040538434 3.3230323905187324 L 37.15812989703492 3.3309809589947212 Q 37.2137686035233 3.283290481557385 37.17402669456195 3.1958583497274105 Q 36.847007902239596 3.154980809760585 36.68349825150971 3.154980809760585 ZM 37.91322667643793 3.505845222654671 L 37.94502044120447 3.768142381850719 Q 38.32654290300338 3.9191615340763555 38.6444785141191 4.364271525408342 L 38.70011705089501 4.1973550665182575 Q 38.42192368816558 3.92711018740858 38.03245257303444 3.712503505649867 L 38.03245257303444 3.656864799161487 Q 38.318594589096094 3.760193728518495 38.70806570422723 4.14966484364963 L 38.795497496632265 4.030439116765588 Q 38.167575267157986 3.5535357849482425 37.91322667643793 3.505845222654671 ZM 37.952968585399276 3.839677546441189 L 37.929123643677435 3.935058331603389 Q 37.98476201074087 3.935058331603389 38.15167829991849 4.0622323723947105 Q 38.398078407018794 4.284787537773176 38.56499469619641 4.5629812399275504 L 38.628581546879595 4.435806689998812 Q 38.21526549002662 3.839677546441189 37.952968585399276 3.839677546441189 ZM 37.91322667643793 3.98274889389696 L 37.897329878910895 4.0860778232539685 L 38.08809110981035 4.1973550665182575 Q 38.25500739898796 4.372219669603151 38.47756222494149 4.714000392153186 L 38.5490977289569 4.626568260323211 Q 38.2391107711734 4.078129339634216 37.91322667643793 3.98274889389696 ZM 37.88938156500362 4.125819732215316 L 37.84963965604227 4.229148831284796 Q 38.12783335819664 4.380168322935376 38.342439870242885 4.88886499523808 L 38.429872002072855 4.7855358961686 Q 38.26295571289525 4.340426413974028 37.88938156500362 4.125819732215316 ZM 37.809897747080925 4.2688907402461425 L 37.77015583811957 4.348374558168837 Q 37.98476201074087 4.4755485989601596 38.2391107711734 4.976297466492999 L 38.318594589096094 4.920658590292146 Q 37.98476201074087 4.284787537773176 37.809897747080925 4.2688907402461425 ZM 37.75042659355291 4.395213163853651 Q 37.74432339363973 4.395213163853651 37.73836207335304 4.396064781037465 L 37.70656881772391 4.451703657238317 Q 37.94502044120447 4.706052078245905 38.07219448199579 5.10347150728432 L 38.18347189497255 5.016039375454346 Q 37.915214009483456 4.395213163853651 37.75042659355291 4.395213163853651 ZM 37.6827237062896 4.491445566199665 L 37.60323937922949 4.5391361284932366 Q 37.8178460609882 4.8411747723694525 37.897329878910895 5.151161730152948 L 38.00065880826791 5.10347150728432 Q 37.91322667643793 4.706052078245905 37.6827237062896 4.491445566199665 ZM 37.57144612360037 4.578878037454583 L 37.48401399177039 4.63451640451802 Q 37.71451696191872 5.031935833556435 37.73836207335304 5.270387796461934 L 37.83374285851524 5.175007011299734 Q 37.76220718478735 4.817329660935139 37.57144612360037 4.578878037454583 ZM 37.4124783180425 4.674258313479367 L 37.33299450011981 4.706052078245905 Q 37.50785910320471 4.912710106672394 37.57144612360037 5.318078019330562 L 37.6827237062896 5.2624391431297095 Q 37.55554932607333 4.769639098641566 37.4124783180425 4.674258313479367 ZM 38.32654290300338 2.59178061647974 Q 38.43782031598014 2.59178061647974 38.51730413390283 2.7030581779549134 Q 38.40602672092607 2.7030581779549134 38.28680099404203 2.973303184348945 Q 38.223213803933895 3.3230323905187324 38.00065880826791 3.3230323905187324 L 37.74631072668526 3.2991872790844186 L 37.73836207335304 3.418413090824696 Q 38.08014279590307 3.466103313693324 38.668323795265884 3.903264736549322 L 38.716014018134516 3.8237807489141558 L 38.43782031598014 3.6012260078168703 Q 38.54114941504962 3.59327769390959 38.73191064594907 3.434309973207965 Q 39.38367849599508 3.8953164226420416 39.38367849599508 5.985742497191126 L 39.38367849599508 8.346414129699776 L 37.364787755748935 8.346414129699776 Q 37.35683961155412 6.05727800120654 37.197871805996265 5.278336110369214 L 37.245562028864896 5.278336110369214 L 37.285304277251186 5.397561837253256 L 37.372736409081156 5.381665209438694 Q 37.372736409081156 5.238594201407867 37.20582011990354 4.857071230471542 L 37.22171691743058 4.857071230471542 Q 37.33299450011981 4.976297466492999 37.4442717433841 5.381665209438694 L 37.52375556130679 5.341922961052404 L 37.47606533843817 5.087574709757288 Q 37.40452966471028 4.809381007602914 37.245562028864896 4.714000392153186 Q 37.15812989703492 4.729897189680219 37.17402669456195 4.801432863408104 L 37.08659422330703 4.8411747723694525 L 37.17402669456195 5.055780944990749 L 37.15812989703492 5.063729598322974 L 37.06274911187272 4.8411747723694525 L 36.95942018251571 4.88886499523808 L 36.99916209147706 5.016039375454346 Q 36.42687805935375 5.278336110369214 36.26393618169848 5.290258750942607 Q 36.25856461225151 5.290651805027444 36.25324047744043 5.290651805027444 Q 36.097063848051086 5.290651805027444 35.98176849230294 4.952452355058684 Q 36.09304573556723 4.952452355058684 36.252013456268855 4.880916681330799 L 36.403032947919435 4.904761792765113 Q 36.44277494173702 4.904761792765113 36.44277494173702 4.737845843012444 Q 36.44277494173702 4.690155280718872 36.2202201157835 4.674258313479367 Q 35.965871609919674 4.77758775197379 35.82677484369872 4.77758775197379 Q 35.68767803504965 4.77758775197379 35.65191024061383 4.5391361284932366 Q 35.61614240374988 4.300683995875266 35.52871029313397 4.300683995875266 L 35.52871029313397 4.284787537773176 Q 35.639987515184195 4.284787537773176 35.71152314648397 4.4040134343696895 Q 35.91818113248234 4.4040134343696895 35.91818113248234 4.276839054153424 Q 35.92612970095833 4.078129339634216 35.695626306528816 4.078129339634216 Q 35.46512289088525 4.078129339634216 35.46512289088525 4.25299394271911 L 35.4492264115691 4.25299394271911 L 35.40153587048958 4.1973550665182575 Q 35.52871029313397 3.8476258603484697 36.26791033865212 3.4502068555912344 Q 36.26791033865212 3.2991872790844186 36.50636196213268 3.11637444694848 Q 36.74481367046947 2.93356123295948 37.12633613226838 2.893819281570015 Q 37.29420620553787 2.739938734640633 37.72675136430293 2.739938734640633 Q 37.785734764186806 2.739938734640633 37.84963965604227 2.7428001293443787 Q 37.79400094955389 2.893819281570015 37.635033143996026 2.921638846954795 Q 37.47606533843817 2.949458072914631 37.47606533843817 3.1084258784724916 L 37.47606533843817 3.3230323905187324 L 37.65887825543034 3.3230323905187324 L 37.65887825543034 3.1561163559098273 Q 37.65887825543034 3.11637444694848 37.93707178787224 3.060735655603864 Q 38.135781672103924 2.59178061647974 38.32654290300338 2.59178061647974 ZM 37.38068472298844 2.25 Q 37.03095534710618 2.25 36.82429748839216 2.7189550603381827 Q 36.09304573556723 2.9653549552979004 36.09304573556723 3.2991872790844186 Q 35.23461985179122 3.784038839952809 35.17898106575012 4.141716699454821 Q 35.17898106575012 4.356323211501062 35.40153587048958 4.467600454765351 Q 35.47307150178935 4.968348813160774 35.70357453557986 4.968348813160774 Q 35.791007006834775 4.968348813160774 35.89433602104802 5.32205200657173 Q 35.9445889022418 5.494071889203239 36.182841452992854 5.494071889203239 Q 36.43447905668736 5.494071889203239 36.89583316212005 5.302181052091056 Q 37.06274911187272 6.017536092245193 37.054800797965434 8.648452773575992 L 39.68571747929624 8.648452773575992 L 39.68571747929624 5.99369115052335 Q 39.68571747929624 3.537638987421209 38.867033340072624 3.2117548078294997 Q 38.867033340072624 2.4010195128646385 38.43384632873897 2.3970450377001136 Q 38.42422023733484 2.3969567235725675 38.41479983744661 2.3969567235725675 Q 38.00030563661396 2.3969567235725675 37.98476201074087 2.567935526259485 Q 37.73836207335304 2.25 37.38068472298844 2.25 Z"
     style="fill:#ffffff;stroke:none"
     id="path8" />
  <path
     d="M 37.43914812385852 9.572175725539703 Q 37.54133862195427 9.572175725539703 37.65092994152306 9.653586395225764 Q 37.600855258424744 9.650009641239052 37.55435726567096 9.650009641239052 Q 37.2908679612163 9.650009641239052 37.14223292979541 9.764863977914997 Q 37.28193209043525 9.572175725539703 37.43914812385852 9.572175725539703 ZM 38.6444785141191 9.899986629610424 Q 38.692168736987725 10.106644573180677 38.692168736987725 10.21792215586991 Q 38.692168736987725 10.329199399134199 38.5490977289569 10.408683217056893 L 38.342439870242885 10.360993079044501 Q 38.342439870242885 10.329199399134199 38.6444785141191 10.257664064831257 L 38.636530200211816 10.162283364525294 L 38.461665597126924 10.194076705010653 L 38.461665597126924 10.186128475959608 Q 38.61268491906503 10.106644573180677 38.61268491906503 10.054980278214645 Q 38.61268491906503 10.00331560139555 38.525252787235054 10.00331560139555 L 38.58883963791825 9.923831741044738 L 38.6444785141191 9.899986629610424 ZM 36.81380637251895 10.399940139643874 Q 36.83383600816081 10.399940139643874 36.8560912531587 10.400734988005848 Q 36.776606926098594 10.519960799746126 36.701097604554484 10.519960799746126 Q 36.62558777387296 10.519960799746126 36.633536087780236 10.46432200840151 Q 36.633536087780236 10.399940139643874 36.81380637251895 10.399940139643874 ZM 38.26295571289525 10.46432200840151 L 38.429872002072855 10.488167119835824 L 38.429872002072855 10.496115773168048 Q 38.2391107711734 10.535857682129395 38.2391107711734 10.583547904998023 Q 38.167575267157986 10.575599591090743 38.15167829991849 10.519960799746126 Q 38.26295571289525 10.496115773168048 38.26295571289525 10.46432200840151 ZM 36.68349825150971 10.256528518682014 Q 36.65624616220273 10.256528518682014 36.633536087780236 10.257664064831257 Q 36.44277494173702 10.305354287699885 36.44277494173702 10.6073929315761 L 36.44277494173702 10.72661874331638 L 36.60174266243864 10.72661874331638 L 36.60174266243864 10.62328981395937 Q 36.669871697718804 10.64664835973685 36.728943348088045 10.64664835973685 Q 36.911080979154676 10.64664835973685 37.00711040538434 10.424580099440163 L 37.15812989703492 10.43252866791615 Q 37.2137686035233 10.384838190478815 37.17402669456195 10.297406058648841 Q 36.847007902239596 10.256528518682014 36.68349825150971 10.256528518682014 ZM 37.91322667643793 10.6073929315761 L 37.94502044120447 10.86969009077215 Q 38.32654290300338 11.020709242997786 38.6444785141191 11.465819234329771 L 38.70011705089501 11.298902775439688 Q 38.42192368816558 11.02865789633001 38.03245257303444 10.814051214571297 L 38.03245257303444 10.758412508082916 Q 38.318594589096094 10.861741437439925 38.70806570422723 11.25121255257106 L 38.795497496632265 11.131986825687019 Q 38.167575267157986 10.655083493869672 37.91322667643793 10.6073929315761 ZM 37.952968585399276 10.94122525536262 L 37.929123643677435 11.036606040524818 Q 37.98476201074087 11.036606040524818 38.15167829991849 11.16378008131614 Q 38.398078407018794 11.386335246694607 38.56499469619641 11.66452894884898 L 38.628581546879595 11.537354398920243 Q 38.21526549002662 10.94122525536262 37.952968585399276 10.94122525536262 ZM 37.91322667643793 11.084296602818391 L 37.897329878910895 11.1876255321754 L 38.08809110981035 11.298902775439688 Q 38.25500739898796 11.473767378524581 38.47756222494149 11.815548101074615 L 38.5490977289569 11.72811596924464 Q 38.2391107711734 11.179677048555646 37.91322667643793 11.084296602818391 ZM 37.88938156500362 11.227367441136746 L 37.84963965604227 11.330696540206226 Q 38.12783335819664 11.481716031856806 38.342439870242885 11.99041270415951 L 38.429872002072855 11.88708360509003 Q 38.26295571289525 11.44197412289546 37.88938156500362 11.227367441136746 ZM 37.809897747080925 11.370438449167573 L 37.77015583811957 11.449922267090267 Q 37.98476201074087 11.57709630788159 38.2391107711734 12.077845175414428 L 38.318594589096094 12.022206299213575 Q 37.98476201074087 11.386335246694607 37.809897747080925 11.370438449167573 ZM 37.75042659355291 11.49676087277508 Q 37.74432339363973 11.49676087277508 37.73836207335304 11.497612489958895 L 37.70656881772391 11.553251366159747 Q 37.94502044120447 11.807599787167335 38.07219448199579 12.20501921620575 L 38.18347189497255 12.117587084375776 Q 37.915214009483456 11.49676087277508 37.75042659355291 11.49676087277508 ZM 37.6827237062896 11.592993275121096 L 37.60323937922949 11.640683837414667 Q 37.8178460609882 11.942722481290883 37.897329878910895 12.252709439074378 L 38.00065880826791 12.20501921620575 Q 37.91322667643793 11.807599787167335 37.6827237062896 11.592993275121096 ZM 37.57144612360037 11.680425746376013 L 37.48401399177039 11.73606411343945 Q 37.71451696191872 12.133483542477865 37.73836207335304 12.371935505383364 L 37.83374285851524 12.276554720221164 Q 37.76220718478735 11.918877369856569 37.57144612360037 11.680425746376013 ZM 37.4124783180425 11.775806022400797 L 37.33299450011981 11.807599787167335 Q 37.50785910320471 12.014257815593824 37.57144612360037 12.419625728251992 L 37.6827237062896 12.36398685205114 Q 37.55554932607333 11.871186807562996 37.4124783180425 11.775806022400797 ZM 38.32654290300338 9.69332832540117 Q 38.43782031598014 9.69332832540117 38.51730413390283 9.804605886876343 Q 38.40602672092607 9.804605886876343 38.28680099404203 10.074850893270375 Q 38.223213803933895 10.424580099440163 38.00065880826791 10.424580099440163 L 37.74631072668526 10.400734988005848 L 37.73836207335304 10.519960799746126 Q 38.08014279590307 10.567651022614754 38.668323795265884 11.004812445470753 L 38.716014018134516 10.925328457835587 L 38.43782031598014 10.7027737167383 Q 38.54114941504962 10.69482540283102 38.73191064594907 10.535857682129395 Q 39.38367849599508 10.996864131563472 39.38367849599508 13.087290206112556 L 39.38367849599508 15.447961838621206 L 37.364787755748935 15.447961838621206 Q 37.35683961155412 13.15882571012797 37.197871805996265 12.379883819290644 L 37.245562028864896 12.379883819290644 L 37.285304277251186 12.499109546174687 L 37.372736409081156 12.483212918360124 Q 37.372736409081156 12.340141910329297 37.20582011990354 11.958618939392972 L 37.22171691743058 11.958618939392972 Q 37.33299450011981 12.077845175414428 37.4442717433841 12.483212918360124 L 37.52375556130679 12.443470669973834 L 37.47606533843817 12.189122418678718 Q 37.40452966471028 11.910928716524344 37.245562028864896 11.815548101074615 Q 37.15812989703492 11.83144489860165 37.17402669456195 11.902980572329534 L 37.08659422330703 11.942722481290883 L 37.17402669456195 12.15732865391218 L 37.15812989703492 12.165277307244404 L 37.06274911187272 11.942722481290883 L 36.95942018251571 11.99041270415951 L 36.99916209147706 12.117587084375776 Q 36.42687805935375 12.379883819290644 36.26393618169848 12.391806459864037 Q 36.25856461225151 12.392199513948874 36.25324047744043 12.392199513948874 Q 36.097063848051086 12.392199513948874 35.98176849230294 12.054000063980114 Q 36.09304573556723 12.054000063980114 36.252013456268855 11.982464390252229 L 36.403032947919435 12.006309501686543 Q 36.44277494173702 12.006309501686543 36.44277494173702 11.839393551933874 Q 36.44277494173702 11.791702989640303 36.2202201157835 11.775806022400797 Q 35.965871609919674 11.87913546089522 35.82677484369872 11.87913546089522 Q 35.68767803504965 11.87913546089522 35.65191024061383 11.640683837414667 Q 35.61614240374988 11.402231704796696 35.52871029313397 11.402231704796696 L 35.52871029313397 11.386335246694607 Q 35.639987515184195 11.386335246694607 35.71152314648397 11.50556114329112 Q 35.91818113248234 11.50556114329112 35.91818113248234 11.378386763074854 Q 35.92612970095833 11.179677048555646 35.695626306528816 11.179677048555646 Q 35.46512289088525 11.179677048555646 35.46512289088525 11.35454165164054 L 35.4492264115691 11.35454165164054 L 35.40153587048958 11.298902775439688 Q 35.52871029313397 10.9491735692699 36.26791033865212 10.551754564512665 Q 36.26791033865212 10.400734988005848 36.50636196213268 10.21792215586991 Q 36.74481367046947 10.03510894188091 37.12633613226838 9.995366990491444 Q 37.29420620553787 9.841486443562063 37.72675136430293 9.841486443562063 Q 37.785734764186806 9.841486443562063 37.84963965604227 9.84434783826581 Q 37.79400094955389 9.995366990491444 37.635033143996026 10.023186555876224 Q 37.47606533843817 10.05100578183606 37.47606533843817 10.209973587393922 L 37.47606533843817 10.424580099440163 L 37.65887825543034 10.424580099440163 L 37.65887825543034 10.257664064831257 Q 37.65887825543034 10.21792215586991 37.93707178787224 10.162283364525294 Q 38.135781672103924 9.69332832540117 38.32654290300338 9.69332832540117 ZM 37.38068472298844 9.35154770892143 Q 37.03095534710618 9.35154770892143 36.82429748839216 9.820502769259614 Q 36.09304573556723 10.06690266421933 36.09304573556723 10.400734988005848 Q 35.23461985179122 10.885586548874238 35.17898106575012 11.24326440837625 Q 35.17898106575012 11.457870920422492 35.40153587048958 11.56914816368678 Q 35.47307150178935 12.069896522082203 35.70357453557986 12.069896522082203 Q 35.791007006834775 12.069896522082203 35.89433602104802 12.423599715493161 Q 35.9445889022418 12.595619598124669 36.182841452992854 12.595619598124669 Q 36.43447905668736 12.595619598124669 36.89583316212005 12.403728761012486 Q 37.06274911187272 13.119083801166623 37.054800797965434 15.750000482497422 L 39.68571747929624 15.750000482497422 L 39.68571747929624 13.09523885944478 Q 39.68571747929624 10.63918669634264 38.867033340072624 10.31330251675093 Q 38.867033340072624 9.50256722178607 38.43384632873897 9.498592746621544 Q 38.42422023733484 9.498504432493997 38.41479983744661 9.498504432493997 Q 38.00030563661396 9.498504432493997 37.98476201074087 9.669483235180914 Q 37.73836207335304 9.35154770892143 37.38068472298844 9.35154770892143 Z"
     style="fill:#ffffff;stroke:none"
     id="path10" />
  <path
     d="M 21.39600372314453 0.375 L 21.39600372314453 17.625 "
     style="fill:none;stroke:#ffffff;stroke-width:1"
     id="path12" />
  <path
     d="M 21.39600372314453 0.375 L 24.02100372314453 0.375 "
     style="fill:none;stroke:#ffffff;stroke-width:1"
     id="path14" />
  <path
     d="M 21.39600372314453 17.625 L 24.02100372314453 17.625 "
     style="fill:none;stroke:#ffffff;stroke-width:1"
     id="path16" />
  <path
     d="M 24.02100372314453 0.375 L 39.68571662902832 0.375 "
     style="fill:none;stroke:#ffffff;stroke-width:1"
     id="path18" />
  <path
     d="M 24.02100372314453 17.625 L 39.68571662902832 17.625 "
     style="fill:none;stroke:#ffffff;stroke-width:1"
     id="path20" />
  <path
     d="M 39.68571662902832 0.375 L 57.31071662902832 0.375 "
     style="fill:none;stroke:#ffffff;stroke-width:1"
     id="path22" />
  <path
     d="M 39.68571662902832 17.625 L 57.31071662902832 17.625 "
     style="fill:none;stroke:#ffffff;stroke-width:1"
     id="path24" />
  <path
     d="M 41.44821662902832 0.375 L 41.44821662902832 17.625 "
     style="fill:none;stroke:#ffffff;stroke-width:1"
     id="path26" />
  <path
     d="M 44.97321662902832 0.375 L 44.97321662902832 17.625 "
     style="fill:none;stroke:#ffffff;stroke-width:1"
     id="path28" />
  <path
     d="M 46.73571662902832 0.375 L 46.73571662902832 17.625 "
     style="fill:none;stroke:#ffffff;stroke-width:1"
     id="path30" />
  <path
     d="M 48.49821662902832 2.1 L 57.31071662902832 2.1 "
     style="fill:none;stroke:#ffffff;stroke-width:1"
     id="path32" />
  <path
     d="M 48.49821662902832 5.550000000000001 L 57.31071662902832 5.550000000000001 "
     style="fill:none;stroke:#ffffff;stroke-width:1"
     id="path34" />
  <path
     d="M 48.49821662902832 2.1 L 48.49821662902832 5.550000000000001 "
     style="fill:none;stroke:#ffffff;stroke-width:1"
     id="path36" />
  <path
     d="M 50.26071662902832 3.825 L 57.31071662902832 3.825 "
     style="fill:none;stroke:#ffffff;stroke-width:1"
     id="path38" />
  <path
     d="M 48.49821662902832 7.275 L 57.31071662902832 7.275 "
     style="fill:none;stroke:#ffffff;stroke-width:1"
     id="path40" />
  <path
     d="M 48.49821662902832 10.725000000000001 L 57.31071662902832 10.725000000000001 "
     style="fill:none;stroke:#ffffff;stroke-width:1"
     id="path42" />
  <path
     d="M 48.49821662902832 7.275 L 48.49821662902832 10.725000000000001 "
     style="fill:none;stroke:#ffffff;stroke-width:1"
     id="path44" />
  <path
     d="M 50.26071662902832 9.000000000000002 L 57.31071662902832 9.000000000000002 "
     style="fill:none;stroke:#ffffff;stroke-width:1"
     id="path46" />
  <path
     d="M 48.49821662902832 12.450000000000001 L 57.31071662902832 12.450000000000001 "
     style="fill:none;stroke:#ffffff;stroke-width:1"
     id="path48" />
  <path
     d="M 48.49821662902832 15.900000000000002 L 57.31071662902832 15.900000000000002 "
     style="fill:none;stroke:#ffffff;stroke-width:1"
     id="path50" />
  <path
     d="M 48.49821662902832 12.450000000000001 L 48.49821662902832 15.900000000000002 "
     style="fill:none;stroke:#ffffff;stroke-width:1"
     id="path52" />
  <path
     d="M 50.26071662902832 14.175 L 57.31071662902832 14.175 "
     style="fill:none;stroke:#ffffff;stroke-width:1"
     id="path54" />
</svg>
