<?xml version="1.0" encoding="UTF-8" standalone="no"?>
<svg
   width="95.73910522460938"
   height="18.0"
   version="1.1"
   id="svg26"
   sodipodi:docname="yakbim.svg"
   inkscape:version="1.1.1 (3bf5ae0d25, 2021-09-20)"
   xmlns:inkscape="http://www.inkscape.org/namespaces/inkscape"
   xmlns:sodipodi="http://sodipodi.sourceforge.net/DTD/sodipodi-0.dtd"
   xmlns="http://www.w3.org/2000/svg"
   xmlns:svg="http://www.w3.org/2000/svg">
  <defs
     id="defs30" />
  <sodipodi:namedview
     id="namedview28"
     pagecolor="#ffffff"
     bordercolor="#666666"
     borderopacity="1.0"
     inkscape:pageshadow="2"
     inkscape:pageopacity="0.0"
     inkscape:pagecheckerboard="0"
     showgrid="false"
     inkscape:zoom="14.361947"
     inkscape:cx="47.869553"
     inkscape:cy="9.016883"
     inkscape:window-width="1920"
     inkscape:window-height="1001"
     inkscape:window-x="-9"
     inkscape:window-y="-9"
     inkscape:window-maximized="1"
     inkscape:current-layer="svg26" />
  <path
     d="M 9.619241759901131 8.704017150225534 C 9.956114020057063 8.704017150225534 10.371109904274771 8.76399089929749 10.864229412554256 8.883939352346172 C 11.905261819800385 9.137163864337834 12.8056128816014 9.495897714329981 13.565284507766846 9.960140902322616 C 14.32495613393229 10.42438504522002 15.176070395910864 11.008207138114807 16.1186263387978 11.711606226102205 C 15.211383729261659 12.170969850713034 14.168207560803758 12.400651185566062 12.989095923614554 12.400651185566062 C 12.723796640788658 12.400651185566062 12.45161535927535 12.38902331016484 12.172553033979401 12.365768514267165 C 10.653210736553286 12.239155780818948 9.3484030744964 11.792497164191472 8.258132912523058 11.025791709479964 C 7.167863705454489 10.259086254768457 6.897054622097669 9.78780828332499 7.445706139904986 9.61195779514956 C 7.994358612617073 9.436108261878905 8.441018184149321 9.207503104703234 8.78568342214457 8.92614327852732 C 8.967086681565636 8.778059511294387 9.244939142516232 8.704017150225534 9.619241759901131 8.704017150225534 ZM 16.87829701005847 11.880422885731571 L 17.743478929129175 12.070340076094354 C 17.743478929129175 12.295428318996994 17.539492171864723 12.478311680813713 17.131522476954906 12.618992071354056 C 16.899402315315747 12.634818663035082 16.657389340244983 12.642731958875595 16.405485461552153 12.642731958875595 C 15.985642480714866 12.642731958875595 15.538322115080815 12.620750051038186 15.063526274459544 12.576788145172907 C 15.977946903162229 12.464244023721587 16.582870481695206 12.232122907177656 16.87829701005847 11.880422885731571 ZM 18.207723072026578 12.196952809542571 L 18.73527358164809 12.302462147543055 C 18.791544210016596 12.471278807172421 18.594593191107748 12.640094511897015 18.144416705302472 12.808910216621609 L 17.532460253128203 12.76670629044046 C 17.968567172031815 12.569755271531616 18.193655414934454 12.379837126264063 18.207723072026578 12.196952809542571 ZM 19.009598624373172 12.407972440448313 L 19.36833342927009 12.49238029281061 C 19.283925576907794 12.731536192805375 19.030702019820904 12.851114142802757 18.608660848199875 12.851114142802757 C 18.847816748194642 12.696366095170289 18.98146331018892 12.548652830988656 19.009598624373172 12.407972440448313 ZM 19.600455500718795 12.618992071354056 C 19.938086910167982 12.71746853571325 20.163175153070622 12.87925041189178 20.27571831961717 13.10433865479442 L 19.326128548184172 12.893318068983906 C 19.509013819810434 12.808910216621609 19.600455500718795 12.71746853571325 19.600455500718795 12.618992071354056 ZM 17.405847519679988 13.864010280959864 C 18.46094662911347 13.99062205950331 19.255788352914 14.28604954277135 19.790372691081576 14.750293685668755 L 17.173725448231284 14.138336278589716 C 17.20186267222508 13.983587276052475 17.279236696041313 13.892145595144116 17.405847519679988 13.864010280959864 ZM 5.187792747046841 0.40093762696942586 C 5.848988863757863 0.40093762696942586 6.3484031042903535 0.5838216154424017 6.686035468644312 0.9495895923883535 C 7.0236668780935005 1.3153575693343054 7.129177170998758 2.198124417859453 7.0025653924553115 3.5978901976453446 C 6.875952659007095 4.997655977431236 6.8337487328259465 5.947245271411848 6.875953136459481 6.446659034491953 C 6.918156585188243 6.946073275024443 7.048285755457107 7.315357867835686 7.266340169813683 7.554513290378066 C 7.4843936292654885 7.793669667825216 7.748168406623859 8.029308176094565 8.05766402443641 8.261430247543267 C 8.367160119701346 8.49355231899197 8.212412072068878 8.70105503562468 7.5934203589913905 8.883939352346172 C 6.974429123366289 9.06682271416289 6.629762930466267 9.33763179751971 6.559423212648482 9.69636660241663 C 6.48908301737831 10.055099497504006 6.577008261466024 10.385698033311902 6.823197990006852 10.688160300030777 C 7.069388196000066 10.99062256674965 7.656726725715499 11.398594171469009 8.585214534057924 11.912075114188854 C 9.513701864947961 12.42555701181347 10.333162943564483 12.752637678443564 11.043595860097945 12.893318068983906 C 11.754030686440949 13.033998459524248 13.931053141209826 13.10433865479442 17.57466322440458 13.10433865479442 C 18.700104438917776 13.315358285700162 19.445707453086325 13.596718111876076 19.811474176719763 13.94841813332216 L 17.405847519679988 13.399766138062459 C 17.18076118658689 13.47010633333263 17.00490974350669 13.60375194042214 16.87829701005847 13.800703914235756 C 16.87829701005847 14.166472547678739 16.083455286257944 14.37749217858448 14.493772793561655 14.433763761857755 C 14.254616893566888 14.433763761857755 14.092834062483586 14.103166180954629 14.008427165026061 13.441970064243609 L 13.755202653034399 13.652989695149351 C 13.881814431577844 14.187574033316928 13.91698452921293 14.658852004760394 13.860712945939655 15.066823609479753 C 13.663760972126038 14.588511809490223 13.319094779226017 14.271981885679224 12.826715322144361 14.117233838046756 C 12.038906471985122 13.976553447506413 11.335507383997724 13.846424754689936 10.71651519346785 13.726846804692553 C 10.097523002937978 13.607269809599941 9.471497938766813 13.350529338240019 8.838438091144814 12.956624435708015 C 8.275718438792987 12.520516561899633 7.371849507814169 12.049238590456165 6.126831775660745 11.542790521377611 C 4.881814043507322 11.03634340720383 4.259305416156803 10.283705609584448 4.259305416156803 9.284877128519467 C 4.259305416156803 8.286049602359258 4.593420388785345 7.459554695196674 5.261649856590044 6.805393361936487 C 5.929879801847128 6.151231551223914 6.2639942970232845 5.366941047694864 6.2639942970232845 4.452521373896952 C 6.2639942970232845 4.002345365544058 6.207722713750011 3.5767882345547704 6.095179069751077 3.175850219655281 C 5.993352799453844 2.8130966980279646 5.689997219321334 2.6317199372143065 5.185112329353548 2.6317199372143065 C 5.131966626849421 2.6317199372143065 5.076588356989783 2.6337295343056977 5.0189770423222475 2.6377489672146734 L 3.2464102329044677 2.869871038663376 C 3.3026820549039346 2.6869874381204633 3.387089668540039 2.5181714946696765 3.4996335512651657 2.363423447037208 C 3.6403134643531225 1.9273154538657298 3.795061511985591 1.6740914193264531 3.9638776941625706 1.6037515821455712 C 3.9884963327999836 1.6899181303705768 4.083125485835245 1.733001523846176 4.247764437089777 1.733001523846176 C 4.271284696513898 1.733001523846176 4.296233016023633 1.732122295277918 4.32261082797614 1.7303637187783059 C 4.603971609056825 1.7162955842337946 4.765753485235356 1.5756155517827413 4.8079574114165045 1.308323860151339 C 4.7798216197798675 1.0410321685199366 4.6180397436013365 0.9003521360688832 4.32261082797614 0.8862840612059201 C 4.069387270889249 0.9003521360688832 3.9287073578012923 1.0410321685199366 3.9005710887122693 1.308323860151339 C 3.6754838007144013 1.5193437297832741 3.4996337899913588 1.765533697050295 3.373021295269335 2.046893523226209 C 3.3320964640294637 2.0673559388461444 3.2921017100369276 2.0775870272930157 3.2530370332917253 2.0775870272930157 C 3.1846734908983327 2.0775870272930157 3.119158190711805 2.046253737029377 3.0564913714583355 1.9835869177759076 C 3.225307553635315 1.6459552696005268 3.471497998354722 1.2977725205167625 3.7950622281641695 0.9390390286139039 C 4.118625980521232 0.5803047608509185 4.582869168513866 0.40093762696942586 5.187792747046841 0.40093762696942586 ZM 9.977946007845366 14.159437764227905 L 10.653208826743741 14.328253468952498 L 9.89353815548307 15.425557459471902 L 9.977946007845366 14.159437764227905 ZM 11.286269629270512 14.391559835676606 C 11.84898928162234 14.391559835676606 12.32378416733884 14.451348333222912 12.71065428642001 14.570927238125066 C 13.09752440550118 14.690504233217677 13.336679350591174 15.144197633295988 13.428121986404305 15.932005528550455 C 13.517959427296729 16.705992132143816 13.400721948894024 17.092986388845265 13.07640859629142 17.092986388845265 C 13.070618053757709 17.092986388845265 13.064760667889999 17.092862251224986 13.058837393593063 17.09261588579397 L 11.03304511727885 17.09261588579397 C 10.988356528882543 17.089306185856326 10.942987093384234 17.087650380982737 10.896935855879153 17.087650380982737 C 10.551564943257846 17.087650380982737 10.167861288398607 17.180747866764687 9.745823936396663 17.366940928519046 C 9.858368057847983 16.382182014355735 10.3718499554726 15.390387361836815 11.286269629270512 14.391559835676606 ZM 5.187792747046841 0.0 C 4.231169147067781 0.0 3.443361967991892 0.5345838607151904 2.8243702549144043 1.6037515821455712 C 2.613350385282469 1.9554513648654634 1.9873244855696295 2.3071511475853557 0.946292317049693 2.6588511690314407 C 0.22882448278191372 2.869871038663376 -0.08067132899566878 3.165298999383801 0.017804894772284054 3.545135051192716 L 0.03890708726380924 3.798358369553414 C 1.3753664816751086 3.6717465910099687 2.493771957832701 3.5099647148314377 3.3941234970861016 3.3130129797440135 L 5.040079482865207 3.0175852577497815 C 5.048381902400062 3.0173546482474904 5.056615568791377 3.017239343496345 5.064780004586766 3.017239343496345 C 5.5546451974053515 3.017239343496345 5.796118651280282 3.432360558965298 5.789199888759171 4.2626027511770115 C 5.782166060213108 5.106682229704753 5.4269491244939925 5.862836941597166 4.723549559054208 6.5310668868542505 C 4.020149993614424 7.199296832111335 3.661415904896083 8.166471652361876 3.6473477703515713 9.432591347605873 C 3.6473477703515713 10.459556097759878 4.136210551886389 11.19460836910933 5.11393659240841 11.637750071463774 C 6.09166167802566 12.08089177381822 7.037734535185626 12.555685704629948 7.952154686435924 13.062133773708501 C 8.866573405329065 13.568581842787054 9.387089131499744 13.962486745319058 9.513701864947961 14.243845616590201 C 9.44336166967779 15.735053554736838 9.26047830786107 16.698711938166735 8.96504986968826 17.134818857070343 C 8.472670412606604 17.134818857070343 7.614522322081965 17.064478661800173 6.390606553019116 16.92379827125983 C 6.01077121738878 16.980070809437876 5.75051335430344 17.10316567370829 5.609832486310712 17.293084773880615 C 5.469153528127526 17.48300387405294 5.497289319764163 17.69050468087611 5.69424129357778 17.91559292377875 C 5.7882960713930505 17.77973671214347 5.878469161312617 17.711806696516287 5.9647610407888685 17.711806696516287 C 5.99463093949035 17.711806696516287 6.024035799568166 17.719946304787623 6.052975621022314 17.73622552133029 C 6.165519265021248 17.799531888054396 6.446879091197162 17.831185071416453 6.897054144645284 17.831185071416453 L 8.96504986968826 17.831185071416453 C 9.066651737364214 17.811645809984256 9.162826881224358 17.801877134172933 9.253573391459145 17.801877134172933 C 9.489516991802953 17.801877134172933 9.68877028611562 17.867918348162302 9.851334229301921 18.000000776141047 C 10.048286203115538 17.98593311904892 10.21710095293536 17.929660580870873 10.357781343475702 17.831185071416453 C 10.978782653644581 17.849272877596132 11.498366392758383 17.8583158257812 11.916529696102794 17.8583158257812 C 12.474082358736627 17.8583158257812 12.85133372205558 17.842239049050068 13.048285695869197 17.810083585778262 C 13.39295188876922 17.753811047600216 13.705964898307187 17.704574247777778 13.987324724483102 17.662369366691856 L 14.704792424467398 17.89449143814056 C 14.713104870502352 17.89513122433739 14.721098378343662 17.895450162531034 14.728771038181785 17.895450162531034 C 14.889915037973028 17.895450162531034 14.91005779922074 17.754450833797048 14.789201231734465 17.47245026651953 C 14.170209041204592 17.134818857070343 14.02952865066425 16.28370459509177 14.367161015018208 14.919109390393348 L 14.367161015018208 14.919109390393348 C 14.486100133723532 14.921667580275903 14.601202445057407 14.922946197764796 14.712467949019834 14.922946197764796 C 15.825117259215483 14.922946197764796 16.55409538131412 14.795054846827687 16.899400405506203 14.539274054763013 C 18.306200491290543 14.792496656945131 19.452741281632388 15.03868734039073 20.33902468634128 15.277843240385495 L 20.486738905427682 15.024620638203377 C 20.1209702719847 14.616648078579246 19.84664522925962 14.356389738041521 19.6637618674429 14.243845616590201 L 19.6637618674429 14.243845616590201 L 20.59224824342817 14.433763761857755 C 20.74230770863311 14.490035345131028 20.8462548224276 14.518171614220051 20.90408958481164 14.518171614220051 C 21.01975910957972 14.518171614220051 20.95098304832509 14.405627492768732 20.697759491238198 14.180540204770864 C 20.641486953060152 14.025792157138396 20.23351534834079 13.723330845324293 19.473842767270575 13.273154359519014 L 19.473842767270575 13.273154359519014 L 20.761063948152763 13.526377916605906 C 20.901744338693106 12.62602685480489 19.924019253075855 11.985932223732057 17.827886781491472 11.606096888101721 C 16.73058279097207 11.352873331014829 15.738790048262691 10.86049196412363 14.852506643553802 10.12895660704721 C 13.684862457764227 9.101993766702748 11.91932947689251 8.349355969083367 9.55590579112911 7.871043214189065 C 8.303853752977238 7.786635839279153 7.607488493535902 7.4032831119233995 7.466808580447945 6.72098550957419 C 7.326128667359988 6.038687429772594 7.32964558163302 4.95193465952467 7.477359800719425 3.4607274375566117 C 7.625073542353445 1.969519857499264 7.417570825720734 0.9988280632941434 6.854850695916521 0.5486519952597018 C 6.43281095665265 0.1828839884729759 5.877125132846886 0.0 5.187792747046841 0.0 Z"
     style="fill:#ffffff;stroke:none"
     id="path2" />
  <path
     d="M 27.177865186478382 7.937876256002994 C 26.496671245133623 7.991654064440127 26.120222241250442 8.332250793733436 26.04851793344977 8.959665719745715 C 26.138148499234912 9.640860143848613 26.514597503118093 9.999383372505463 27.177865186478382 10.035235888474404 C 27.84113286983867 9.999383372505463 28.190692728124215 9.640860143848613 28.226544278576878 8.959665719745715 C 28.172766470139745 8.332250793733436 27.8232066118542 7.991654064440127 27.177865186478382 7.937876256002994 ZM 27.25853214051315 5.679180301671352 C 27.742538692303153 5.679180301671352 28.190693210882355 5.768811229525099 28.602994730734476 5.948073085232593 C 29.01529576782846 6.127334940940088 29.378299957533752 6.373819539952137 29.692007299850356 6.687527123647811 C 30.0057151249251 7.001234707343485 30.252199844626684 7.3597576946212655 30.43146145895511 7.763095602723013 C 30.610722590525395 8.16643375220383 30.700352914931468 8.592179844854769 30.700352914931468 9.040334122054901 C 30.700352914931468 9.506413933102294 30.610722590525395 9.941123154745469 30.43146145895511 10.344461786984425 C 30.252199844626684 10.747799936465242 30.0057151249251 11.101841721315509 29.692007299850356 11.406586176018948 C 29.378299957533752 11.711330630722387 29.01529576782846 11.948851980052666 28.602994730734476 12.119151189526065 C 28.190693210882355 12.289449433483185 27.742538692303153 12.374598314082675 27.25853214051315 12.374598314082675 C 26.774526312860356 12.374598314082675 26.32189131599085 12.289449433483185 25.900626908525563 12.119151189526065 C 25.479361776923067 11.948851980052666 25.116357104459635 11.711330630722387 24.8116130118248 11.406586176018948 C 24.506868074363222 11.101841721315509 24.264865160536825 10.747799936465242 24.085604149656074 10.344461786984425 C 23.906342354293347 9.941123154745469 23.8167114264396 9.506413933102294 23.8167114264396 9.040334122054901 C 23.8167114264396 8.592179844854769 23.906342354293347 8.16643375220383 24.085604149656074 7.763095602723013 C 24.264865160536825 7.3597576946212655 24.506868074363222 7.001234707343485 24.8116130118248 6.687527123647811 C 25.116357104459635 6.373819539952137 25.479361776923067 6.127334940940088 25.900626908525563 5.948073085232593 C 26.32189131599085 5.768811229525099 26.774526312860356 5.679180301671352 27.25853214051315 5.679180301671352 ZM 27.204754814834157 4.764946937561035 C 26.61319119789547 4.764946937561035 26.057480338304796 4.876985476688684 25.53762175330399 5.101062554943983 C 25.017763409682257 5.325139663371665 24.569609615240264 5.629884118075104 24.193160490667548 6.015295949226683 C 23.8167114264396 6.400708564860238 23.516448355197976 6.848862238612696 23.292371276942678 7.359757211863126 C 23.068294998255546 7.870652909250765 22.956256866455078 8.421882083655788 22.956256866455078 9.013444493699126 C 22.956256866455078 9.605007145121533 23.068294998255546 10.156236319526556 23.292371276942678 10.667132016914195 C 23.516448355197976 11.178027714301834 23.8167114264396 11.621700306316313 24.193160490667548 11.998149310199494 C 24.569609615240264 12.374598314082675 25.017763409682257 12.67486180773767 25.53762175330399 12.898938825648202 C 26.057480338304796 13.123014878042454 26.61319119789547 13.23505338699772 27.204754814834157 13.23505338699772 C 27.796317466256564 13.23505338699772 28.347546157903448 13.123014878042454 28.85844088977481 12.898938825648202 C 29.369336587162447 12.67486180773767 29.81749062298351 12.374598314082675 30.202903479996134 11.998149310199494 C 30.58831537149248 11.621700306316313 30.89305982619592 11.178027714301834 31.11713636134831 10.667132016914195 C 31.34121434477512 10.156236319526556 31.453252853730387 9.605007145121533 31.453252853730387 9.013444493699126 C 31.453252853730387 8.421882083655788 31.34121434477512 7.870652909250765 31.11713636134831 7.359757211863126 C 30.89305982619592 6.848862238612696 30.58831537149248 6.400708564860238 30.202903479996134 6.015295949226683 C 29.81749062298351 5.629884118075104 29.369336587162447 5.325139663371665 28.85844088977481 5.101062554943983 C 28.347546157903448 4.876985476688684 27.796317466256564 4.764946937561035 27.204754814834157 4.764946937561035 Z"
     style="fill:#ffffff;stroke:none"
     id="path4" />
  <path
     d="M 42.791217630075664 2.9892379897054955 C 43.068835731278675 2.9892379897054955 43.408691041004865 3.095985977015074 43.50778172773154 3.340333519869274 L 43.47130011263709 11.279334014803599 L 43.47130011263709 11.279334014803599 C 43.33048932130826 10.960512872387417 42.91219094789365 10.367342335933275 41.66974612501964 9.632436990092634 L 42.61300693482894 3.06154244747758 C 42.65725846576657 3.0145252182361735 42.656098295835605 2.9892379897054955 42.791217630075664 2.9892379897054955 ZM 43.47130011263709 11.279334014803599 L 43.47130011263709 11.279334014803599 C 43.47130011263709 11.279334014803599 43.47130029167566 11.279334014803599 43.47130029167566 11.279334014803599 L 43.47130011263709 11.279334014803599 L 43.47130011263709 11.279334014803599 ZM 42.65921016521369 2.25 C 42.446704811000096 2.25 42.254900701876345 2.280338063237631 42.11910334857324 2.317373030601139 L 40.9532527923584 10.098160711168036 C 41.56997155571676 10.520569989179059 43.264807589744684 11.67797341616124 43.19722267818634 12.683307927520042 L 43.2098602946596 15.75000086141948 L 44.07063691646657 15.73816856043225 L 44.065809678553215 3.119482909369111 C 43.80984432291815 2.427915471835376 43.173828603490534 2.25 42.65921016521369 2.25 Z"
     style="fill:#ffffff;stroke:none"
     id="path6" />
  <path
     d="M 47.40860182540342 2.9892379897054955 C 47.686219926606434 2.9892379897054955 48.02607523633262 3.095985977015074 48.1251659230593 3.340333519869274 L 48.08868430796485 11.279334014803599 L 48.08868430796485 11.279334014803599 C 47.947873516636015 10.960512872387417 47.52957514322141 10.367342335933275 46.2871303203474 9.632436990092634 L 47.2303911301567 3.06154244747758 C 47.274642661094326 3.0145252182361735 47.273482491163364 2.9892379897054955 47.40860182540342 2.9892379897054955 ZM 48.08868430796485 11.279334014803599 L 48.08868430796485 11.279334014803599 C 48.08868430796485 11.279334014803599 48.08868448700342 11.279334014803599 48.08868448700342 11.279334014803599 L 48.08868430796485 11.279334014803599 L 48.08868430796485 11.279334014803599 ZM 47.27659436054145 2.25 C 47.064089006327855 2.25 46.8722848972041 2.280338063237631 46.736487543901 2.317373030601139 L 45.57063698768616 10.098160711168036 C 46.18735575104452 10.520569989179059 47.88219178507244 11.67797341616124 47.8146068735141 12.683307927520042 L 47.82724448998736 15.75000086141948 L 48.68802111179433 15.73816856043225 L 48.683193873880974 3.119482909369111 C 48.42722851824591 2.427915471835376 47.79121279881829 2.25 47.27659436054145 2.25 Z"
     style="fill:#ffffff;stroke:none"
     id="path8" />
  <path
     d="M 63.19666914560393 8.146959453821182 C 63.42713340128249 8.473599326688635 63.4829111994492 8.87735413506427 63.50252987229757 9.265996837131679 C 63.49385134853874 9.449765018000253 63.50777795533959 9.648577641796255 63.43158157339811 9.821007108455523 C 63.2163082101561 9.606718108369751 63.23538835664498 9.11167983792635 63.23060094072975 8.834374911719934 C 63.23060094072975 8.561174279351398 63.22137091407266 8.337282640566336 63.19666914560393 8.146959453821182 ZM 50.91430845117688 7.838963159602136 L 62.123190536168664 7.851064708912745 C 60.48569593749428 9.403148656214217 58.84361227856891 10.161748771397397 56.36902248161405 10.161748771397397 C 53.884082504636446 10.16174784450177 52.38046361244975 9.421826530000835 50.91430845117688 7.838963159602136 ZM 50.411237804606124 7.387646555900574 C 50.32327458405471 7.387646555900574 50.24328371589741 7.438712943593491 50.20648645914651 7.518628030791879 C 50.16965251050467 7.59862190411859 50.18284816853961 7.69286123634196 50.24018096899174 7.759709875881672 C 51.8684918857904 9.660151787494906 53.596714736051766 10.612353519257159 56.36902248161405 10.612353519257159 C 59.06750855183211 10.612353519257159 60.91068036331861 9.69764471562099 62.68840407455831 7.930555277913808 C 62.74966631415202 8.099878717325845 62.77999619286999 8.366429800463811 62.77999619286999 8.834374911719934 C 62.79107815699052 9.354794365126908 62.7870878713148 10.217352313186165 63.47002178885534 10.27778127361089 C 63.95043735388176 10.178893559816387 63.95001561637132 9.665516659385975 63.95313462015733 9.265996837131679 C 63.95313462015733 8.774698590544613 63.832919964873255 8.329230698251594 63.63232492078588 7.990825739186257 C 63.43172987669849 7.652420780120919 63.134858183798826 7.400459961052984 62.775250487257985 7.400459961052984 L 50.411500941585075 7.387646555900574 C 50.411413219603595 7.387646555900574 50.41132551210486 7.387646555900574 50.411237804606124 7.387646555900574 Z"
     style="fill:#ffffff;stroke:none"
     id="path10" />
  <path
     d="M 71.6659018343061 2.6888654184700296 C 71.64365350144305 5.927570451842399 71.61786381876207 9.166405184332305 71.59782812464874 12.405028803312959 C 71.64496881966764 12.929571508274355 71.67238679018291 13.456426945869646 71.73339401259406 13.979347706975329 C 71.76907536764672 14.25910799861469 71.95143867088139 14.519635461873731 71.91163372975488 14.805805286533515 C 71.85226889290819 14.999021727337233 71.72515529908448 15.30237668507058 71.51068089096195 15.30237668507058 C 71.46308695391818 15.30237668507058 71.41119038962745 15.287437320412618 71.35477761747772 15.25304167835119 C 71.00752796709642 15.119371230226816 70.67643713503253 14.898455569190991 70.29368199878242 14.898455569190991 C 70.27247619306522 14.898455569190991 70.25111143544041 14.899133670012024 70.22957680016707 14.900542033255705 C 70.2106273361631 14.900319289119068 70.19168668324049 14.900210736596781 70.17275413651274 14.900210736596781 C 69.44505609097989 14.900210736596781 68.72981656203886 15.061085574624402 68.00770368475493 15.131509375900597 C 67.61310539783477 15.187683191523995 67.22002173579943 15.277612612259242 66.81986718097721 15.277612612259242 C 66.80298585398874 15.277612612259242 66.78609201526476 15.277453307908354 66.76918495991873 15.277123421022447 C 67.49136885451838 15.113743416344152 68.20474942151526 14.837863524933256 68.77369891917292 14.352334878435997 C 69.54824231227767 13.75026734551329 70.32526796322156 13.151287920383666 71.09825884379167 12.54728970331459 C 71.20312058031979 12.418267276826274 71.04827322682507 5.836827944519771 70.99606792224368 2.71196313957563 C 71.21934601041224 2.704263884521961 71.4426240985808 2.6965646735236986 71.6659018343061 2.6888654184700296 ZM 72.05932507541684 2.25 C 72.05924260369537 2.25 72.05916013197388 2.250002907656847 72.05907766025241 2.250008717463615 C 71.67679374063312 2.262578344544782 71.10720878778818 2.256757642323957 70.72618027104026 2.280845269145481 C 70.52247406166254 2.339799856537393 70.55796404002818 2.5679474686668695 70.560967208997 2.731597797321116 C 70.61360989565682 5.920237517496037 70.66625258231664 9.108877281726365 70.71889526897647 12.297517398399949 C 69.87356470560047 12.943879999507343 69.03563298345938 13.600276660061098 68.18547341883631 14.240091570392433 C 67.70976278407059 14.549872273535897 67.15948661112725 14.742609391513938 66.60419226302015 14.844472540835543 C 66.35590277498663 14.841991340326151 66.10498243022693 14.713498988492114 65.85766260169646 14.713498988492114 C 65.77833363874473 14.713498988492114 65.699375104667 14.726718430069702 65.62099262807436 14.761556740858376 C 65.43025922158634 14.908022288882313 65.36451911030491 15.30885600185533 65.61975246837373 15.43164159251777 C 66.00384205390883 15.637641855036916 66.43159146170451 15.716159163201983 66.86227218410058 15.716159163201983 C 67.13419581187254 15.716159163201983 67.40728787714292 15.684859382685225 67.67129730353157 15.634584057363696 C 68.28477994479212 15.530387733699452 68.90444620294717 15.469223321596939 69.52050679039037 15.382167018269726 C 69.72312888431826 15.364556133745118 69.93356816962374 15.337286894283105 70.14075898545549 15.337286894283105 C 70.36476099206811 15.337286894283105 70.58496612750353 15.369161862190674 70.78739120565233 15.479576694631579 C 71.03067291559809 15.587458164961474 71.29934604734761 15.750000764467849 71.57021208102462 15.750000764467849 C 71.66079916087216 15.750000764467849 71.7516315412246 15.731820331644494 71.84184150679016 15.687336353875565 C 72.12571763075178 15.51022938933367 72.2896657739558 15.180493349138828 72.35883346747413 14.861364441121633 C 72.41612593798627 14.445020405418889 72.13480502761743 14.076538163633085 72.1398005583021 13.662797978692184 C 72.10751534644668 13.210487108900901 72.05608189259192 12.758907911305284 72.03589041856024 12.306133226191506 C 72.058831654861 9.033225337217742 72.1851177119239 2.2500000110138516 72.05932507541684 2.25 Z"
     style="fill:#ffffff;stroke:none"
     id="path12" />
  <path
     d="M 75.1742639069621 2.25 L 74.89384994766014 2.857563567344893 L 74.00587241544198 4.843829023259124 L 73.86566543579102 5.124242982561067 L 74.4498611787654 5.404657120145403 L 74.59006815841637 5.100875152619238 L 75.19763173690392 3.7221732751925503 L 75.50141343700649 4.25963327471341 L 75.78182739630843 4.820461193317296 L 76.06224135561038 4.25963327471341 L 76.38939097479597 3.6754376153088932 L 76.69317276403974 4.25963327471341 L 76.9735867233417 4.820461193317296 L 77.25400068264364 4.25963327471341 L 77.5577824718874 3.6754376153088932 L 77.88493209107301 4.25963327471341 L 78.16534605037495 4.820461193317296 L 78.44576000967689 4.25963327471341 L 78.74954179892066 3.6988054452507217 L 79.05332358816443 4.25963327471341 L 79.3571053774082 4.820461193317296 L 79.63751933671016 4.25963327471341 L 79.94130148251871 3.6754376153088932 L 80.24508327176248 4.25963327471341 L 80.54886506100625 4.820461193317296 L 80.82927902030819 4.25963327471341 L 81.13306080955196 3.6754376153088932 L 81.43684188566615 4.25963327471341 L 81.74062367490993 4.820461193317296 L 82.02103763421188 4.25963327471341 L 82.32481942345565 3.6754376153088932 L 82.62860121269942 4.25963327471341 L 82.90901517200136 4.820461193317296 L 83.21279696124513 4.25963327471341 L 83.5165787504889 3.6754376153088932 L 83.82036053973268 4.25963327471341 L 84.10077449903461 4.820461193317296 L 84.40455628827839 4.25963327471341 L 84.70833807752216 3.6754376153088932 L 85.03548769670776 4.283001104655239 L 85.3159016560097 4.797093363375467 L 85.61968344525347 4.283001104655239 L 85.9468323513095 3.6520697853670643 L 86.76470639927349 5.124242982561067 L 86.9282812088663 5.404657120145403 L 87.48910912747019 5.100875152619238 L 87.34890214781922 4.820461193317296 L 86.22724631061143 2.810827907461236 L 85.9468323513095 2.3201034898254855 L 85.66641910513714 2.8341957374030646 L 85.3159016560097 3.4417593158906072 L 84.98875203682411 2.8341957374030646 L 84.68497024758034 2.2967356591872417 L 84.42792411822022 2.8341957374030646 L 84.10077449903461 3.4183914859487787 L 83.79699270979084 2.8341957374030646 L 83.5165787504889 2.2733678285489973 L 83.23616479118697 2.8341957374030646 L 82.9323830019432 3.4183914859487787 L 82.60523338275759 2.8341957374030646 L 82.32481942345565 2.2733678285489973 L 82.0444054641537 2.8341957374030646 L 81.71725584496811 3.4183914859487787 L 81.41347405572434 2.8341957374030646 L 81.13306080955196 2.2733678285489973 L 80.85264685025003 2.8341957374030646 L 80.54886506100625 3.4183914859487787 L 80.22171544182065 2.8341957374030646 L 79.94130148251871 2.2733678285489973 L 79.66088716665197 2.8341957374030646 L 79.3571053774082 3.39502365600695 L 79.05332358816443 2.8341957374030646 L 78.74954179892066 2.2733678285489973 L 78.46912783961872 2.8341957374030646 L 78.16534605037495 3.4183914859487787 L 77.86156426113118 2.8341957374030646 L 77.5577824718874 2.2733678285489973 L 77.27736851258547 2.8341957374030646 L 76.9735867233417 3.4183914859487787 L 76.66980493409793 2.8341957374030646 L 76.38939097479597 2.2733678285489973 L 76.0856091855522 2.8341957374030646 L 75.78182739630843 3.4183914859487787 L 75.47804560706466 2.8341957374030646 L 75.1742639069621 2.25 ZM 75.17426399610329 7.422671193918185 L 74.89385003680134 8.030234772405727 L 74.00587240987066 10.016500317461155 L 73.86566543579102 10.296914276763099 L 74.4498611787654 10.577328236065041 L 74.59006811384577 10.27354644682127 L 75.19763182604511 8.894844480253383 L 75.50141361528888 9.432304568915441 L 75.78182757459084 9.993132487519325 L 76.06224153389277 9.432304568915441 L 76.38939115307838 8.848108820369728 L 76.69317294232215 9.432304568915441 L 76.9735867233417 9.993132487519325 L 77.25400068264364 9.432304568915441 L 77.5577824718874 8.848108820369728 L 77.88493209107301 9.432304568915441 L 78.16534605037495 9.993132487519325 L 78.44576000967689 9.432304568915441 L 78.74954179892066 8.871476650311555 L 79.05332358816443 9.432304568915441 L 79.3571053774082 9.993132487519325 L 79.63751933671016 9.432304568915441 L 79.94130148251871 8.848108820369728 L 80.24508327176248 9.432304568915441 L 80.54886506100625 9.993132487519325 L 80.82927902030819 9.432304568915441 L 81.13306080955196 8.848108820369728 L 81.43684259879574 9.432304568915441 L 81.7406243880395 9.993132487519325 L 82.02103834734145 9.432304568915441 L 82.32482013658522 8.848108820369728 L 82.62860192582899 9.432304568915441 L 82.90901588513094 9.993132487519325 L 83.21279767437471 9.432304568915441 L 83.51657946361848 8.848108820369728 L 83.82036125286226 9.432304568915441 L 84.1007752121642 9.993132487519325 L 84.40455700140797 9.432304568915441 L 84.70833879065174 8.848108820369728 L 85.03548840983734 9.45567239885727 L 85.31590236913928 9.969764657577498 L 85.61968415838305 9.45567239885727 L 85.94683377756866 8.824740990427898 L 86.76470782553265 10.296914276763099 L 86.92828263512546 10.577328236065041 L 87.48911055372933 10.27354644682127 L 87.34890357407836 9.993132487519325 L 86.2272477368706 7.98349911252207 L 85.94683377756866 7.49277468374367 L 85.6664198182667 8.006866942463898 L 85.31590236913928 8.61443052095144 L 84.98875274995368 8.006866942463898 L 84.6849709607099 7.469406853801842 L 84.4279248313498 8.006866942463898 L 84.1007752121642 8.591062691009613 L 83.79699342292042 8.006866942463898 L 83.51657946361848 7.446039023860013 L 83.23616550431653 8.006866942463898 L 82.93238371507276 8.591062691009613 L 82.60523409588717 8.006866942463898 L 82.32482013658522 7.446039023860013 L 82.04440617728328 8.006866942463898 L 81.71725655809767 8.591062691009613 L 81.4134747688539 8.006866942463898 L 81.13306080955196 7.446039023860013 L 80.85264685025003 8.006866942463898 L 80.54886506100625 8.591062691009613 L 80.22171544182065 8.006866942463898 L 79.94130148251871 7.446039023860013 L 79.66088716665197 8.006866942463898 L 79.3571053774082 8.567694861067785 L 79.05332358816443 8.006866942463898 L 78.74954179892066 7.446039023860013 L 78.46912783961872 8.006866942463898 L 78.16534605037495 8.591062691009613 L 77.86156426113118 8.006866942463898 L 77.5577824718874 7.446039023860013 L 77.27736851258547 8.006866942463898 L 76.9735867233417 8.591062691009613 L 76.66980511238032 8.006866942463898 L 76.38939115307838 7.446039023860013 L 76.0856093638346 8.006866942463898 L 75.78182757459084 8.591062691009613 L 75.47804578534706 8.006866942463898 L 75.17426399610329 7.422671193918185 ZM 75.1742639069621 12.595342309837822 L 74.89384994766014 13.202905888325365 L 74.00587241544198 15.189171433380793 L 73.86566543579102 15.469585392682735 L 74.4498611787654 15.749999351984679 L 74.59006815841637 15.446217562740907 L 75.19763173690392 14.06751559617302 L 75.50141343700649 14.604975684835079 L 75.78182739630843 15.165803603438963 L 76.06224135561038 14.604975684835079 L 76.38939097479597 14.020779936289363 L 76.69317276403974 14.604975684835079 L 76.9735867233417 15.165803603438963 L 77.25400068264364 14.604975684835079 L 77.5577824718874 14.020779936289363 L 77.88493209107301 14.604975684835079 L 78.16534605037495 15.165803603438963 L 78.44576000967689 14.604975684835079 L 78.74954179892066 14.044147766231193 L 79.05332358816443 14.604975684835079 L 79.3571053774082 15.165803603438963 L 79.63751933671016 14.604975684835079 L 79.94130148251871 14.020779936289363 L 80.24508327176248 14.604975684835079 L 80.54886506100625 15.165803603438963 L 80.82927902030819 14.604975684835079 L 81.13306080955196 14.020779936289363 L 81.43684259879574 14.604975684835079 L 81.7406243880395 15.165803603438963 L 82.02103834734145 14.604975684835079 L 82.32482013658522 14.020779936289363 L 82.62860192582899 14.604975684835079 L 82.90901588513094 15.165803603438963 L 83.21279767437471 14.604975684835079 L 83.51657946361848 14.020779936289363 L 83.82036125286226 14.604975684835079 L 84.1007752121642 15.165803603438963 L 84.40455700140797 14.604975684835079 L 84.70833879065174 14.020779936289363 L 85.03548840983734 14.628343514776907 L 85.31590236913928 15.142435773497136 L 85.61968415838305 14.628343514776907 L 85.94683377756866 13.997412106347536 L 86.76470782553265 15.469585392682735 L 86.92828263512546 15.749999351984679 L 87.48911055372933 15.446217562740907 L 87.34890357407836 15.165803603438963 L 86.2272477368706 13.156170228441708 L 85.94683377756866 12.665445799663308 L 85.6664198182667 13.179538058383535 L 85.31590236913928 13.787101636871078 L 84.98875274995368 13.179538058383535 L 84.6849709607099 12.642077969721479 L 84.4279248313498 13.179538058383535 L 84.1007752121642 13.76373380692925 L 83.79699342292042 13.179538058383535 L 83.51657946361848 12.61871013977965 L 83.23616550431653 13.179538058383535 L 82.93238371507276 13.76373380692925 L 82.60523409588717 13.179538058383535 L 82.32482013658522 12.61871013977965 L 82.04440617728328 13.179538058383535 L 81.71725655809767 13.76373380692925 L 81.4134747688539 13.179538058383535 L 81.13306080955196 12.61871013977965 L 80.85264685025003 13.179538058383535 L 80.54886506100625 13.76373380692925 L 80.22171544182065 13.179538058383535 L 79.94130148251871 12.61871013977965 L 79.66088716665197 13.179538058383535 L 79.3571053774082 13.740365976987421 L 79.05332358816443 13.179538058383535 L 78.74954179892066 12.61871013977965 L 78.46912783961872 13.179538058383535 L 78.16534605037495 13.76373380692925 L 77.86156426113118 13.179538058383535 L 77.5577824718874 12.61871013977965 L 77.27736851258547 13.179538058383535 L 76.9735867233417 13.76373380692925 L 76.66980493409793 13.179538058383535 L 76.38939097479597 12.61871013977965 L 76.0856091855522 13.179538058383535 L 75.78182739630843 13.76373380692925 L 75.47804560706466 13.179538058383535 L 75.1742639069621 12.595342309837822 Z"
     style="fill:#ffffff;stroke:none"
     id="path14" />
  <path
     d="M 40.9532527923584 0.375 C 31.328252851963043 0.375 31.328252851963043 17.625 40.9532527923584 17.625 "
     style="fill:none;stroke:#ffffff;stroke-width:1"
     id="path16" />
  <path
     d="M 40.9532527923584 0.375 L 87.48910713195801 0.375 "
     style="fill:none;stroke:#ffffff;stroke-width:1"
     id="path18" />
  <path
     d="M 40.9532527923584 17.625 L 87.48910713195801 17.625 "
     style="fill:none;stroke:#ffffff;stroke-width:1"
     id="path20" />
  <path
     d="M 95.17660713195801 0.375 L 95.17660713195801 17.625 "
     style="fill:none;stroke:#ffffff;stroke-width:1"
     id="path22" />
  <path
     d="M 87.48910713195801 0.375 C 97.11410903930664 0.375 97.11410903930664 17.625 87.48910713195801 17.625 "
     style="fill:none;stroke:#ffffff;stroke-width:1"
     id="path24" />
</svg>
